{
  "asset" : {
    "generator" : "UE Viewer (umodel) build 1579 based",
    "version" : "2.0"
  },
  "scene" : 0,
  "scenes" : [
    {
      "nodes" : [ 0 ]
    }
  ],
  "nodes" : [
    {
      "name" : "SK_Weap_G28_104_Sight_Mesh",
      "mesh" : 0,
      "skin" : 0,
      "children" : [ 1 ]
    },
    {
      "name" : "Root",
      "translation" : [ 0, 0, 0 ],
      "rotation" : [ -0, -0, -0, 1 ]
    }
  ],
  "skins" : [
    {
      "inverseBindMatrices" : 0,
      "skeleton" : 1,
      "joints" : [
        1
      ]
    }
  ],
  "materials" : [
    {
      "name" : "MI_Weap_G28_02_104",
      "pbrMetallicRoughness" : {
        "baseColorFactor" : [ 0.3, 0.3, 0.3, 1.0 ],
        "metallicFactor" : 0.1,
        "roughnessFactor" : 0.5
      }
    }
  ],
  "meshes" : [
    {
      "primitives" : [
        {
          "attributes" : {
            "POSITION" : 2,
            "NORMAL" : 3,
            "TANGENT" : 4,
            "JOINTS_0" : 5,
            "WEIGHTS_0" : 6,
            "TEXCOORD_0" : 7
          },
          "indices" : 1,
          "material" : 0
        }
      ],
      "name" : "SK_Weap_G28_104_Sight_Mesh"
    }
  ],
  "buffers" : [
    {
      "uri" : "SK_Weap_G28_104_Sight_Mesh.bin",
      "byteLength" : 348052
    }
  ],
  "bufferViews" : [
    {
      "buffer" : 0,
      "byteOffset" : 0,
      "byteLength" : 64
    },
    {
      "buffer" : 0,
      "byteOffset" : 64,
      "byteLength" : 41328
    },
    {
      "buffer" : 0,
      "byteOffset" : 41392,
      "byteLength" : 61332
    },
    {
      "buffer" : 0,
      "byteOffset" : 102724,
      "byteLength" : 61332
    },
    {
      "buffer" : 0,
      "byteOffset" : 164056,
      "byteLength" : 81776
    },
    {
      "buffer" : 0,
      "byteOffset" : 245832,
      "byteLength" : 40888
    },
    {
      "buffer" : 0,
      "byteOffset" : 286720,
      "byteLength" : 20444
    },
    {
      "buffer" : 0,
      "byteOffset" : 307164,
      "byteLength" : 40888
    }
  ],
  "accessors" : [
    {
      "bufferView" : 0,
      "componentType" : 5126,
      "count" : 1,
      "type" : "MAT4"
    },
    {
      "bufferView" : 1,
      "componentType" : 5123,
      "count" : 20664,
      "type" : "SCALAR"
    },
    {
      "bufferView" : 2,
      "min" : [ -0.0307953, -0.0419676, -0.0737052 ],
      "max" : [ 0.0307953, 0.037082, 0.0543797 ],
      "componentType" : 5126,
      "count" : 5111,
      "type" : "VEC3"
    },
    {
      "bufferView" : 3,
      "componentType" : 5126,
      "count" : 5111,
      "type" : "VEC3"
    },
    {
      "bufferView" : 4,
      "componentType" : 5126,
      "count" : 5111,
      "type" : "VEC4"
    },
    {
      "bufferView" : 5,
      "componentType" : 5123,
      "count" : 5111,
      "type" : "VEC4"
    },
    {
      "bufferView" : 6,
      "normalized" : true,
      "componentType" : 5121,
      "count" : 5111,
      "type" : "VEC4"
    },
    {
      "bufferView" : 7,
      "componentType" : 5126,
      "count" : 5111,
      "type" : "VEC2"
    }
  ]
}
