{
  "asset" : {
    "generator" : "UE Viewer (umodel) build 1579 based",
    "version" : "2.0"
  },
  "scene" : 0,
  "scenes" : [
    {
      "nodes" : [ 0 ]
    }
  ],
  "nodes" : [
    {
      "name" : "SK_Weap_G28_104",
      "mesh" : 0,
      "skin" : 0,
      "children" : [ 1 ]
    },
    {
      "name" : "Root",
      "children" : [ 2, 3, 4, 5, 6, 7, 8, 9, 10 ],
      "translation" : [ 0, 0, 0 ],
      "rotation" : [ 4.85015e-07, -0, -0, 1 ]
    },
    {
      "name" : "ButtStock",
      "translation" : [ -2.27179e-08, 0.0599729, -0.0151781 ],
      "rotation" : [ 1.90735e-06, -0, -0, -1 ]
    },
    {
      "name" : "Sight",
      "translation" : [ 0, 0.130169, 0.179527 ],
      "rotation" : [ 4.76837e-07, -0, -0, -1 ]
    },
    {
      "name" : "Suppressor",
      "translation" : [ 9.77938e-09, 0.0671406, 0.647881 ],
      "rotation" : [ 1.90735e-06, -0, -0, -1 ]
    },
    {
      "name" : "Muzzle",
      "translation" : [ 9.77938e-09, 0.0671406, 0.663909 ],
      "rotation" : [ 8.42937e-07, 0.707107, 1.68587e-07, -0.707107 ]
    },
    {
      "name" : "Foregrip",
      "translation" : [ -7.69289e-09, -0.0164839, 0.278681 ],
      "rotation" : [ 1.90735e-06, -0, -0, -1 ]
    },
    {
      "name" : "Magazine",
      "translation" : [ -1.28704e-08, 0.0103922, 0.151477 ],
      "rotation" : [ 1.90735e-06, -0, -0, -1 ]
    },
    {
      "name" : "ShellDrop",
      "translation" : [ -0.0258189, 0.0774086, 0.162714 ],
      "rotation" : [ 2.23353e-13, -1, -2.38419e-07, -7.58967e-07 ]
    },
    {
      "name" : "Pull",
      "translation" : [ -1.05767e-08, 0.0985209, 0.0526266 ],
      "rotation" : [ 1.90735e-06, -0, -0, -1 ]
    },
    {
      "name" : "Throw",
      "translation" : [ -0.0201003, 0.0774086, 0.162714 ],
      "rotation" : [ 1.90735e-06, -0, -0, -1 ]
    }
  ],
  "skins" : [
    {
      "inverseBindMatrices" : 0,
      "skeleton" : 1,
      "joints" : [
        1,2,3,4,5,6,7,8,9,10
      ]
    }
  ],
  "materials" : [
    {
      "name" : "MI_Weap_G28_02_104",
      "pbrMetallicRoughness" : {
        "baseColorFactor" : [ 0.3, 0.3, 0.3, 1.0 ],
        "metallicFactor" : 0.1,
        "roughnessFactor" : 0.5
      }
    },
    {
      "name" : "MI_Weap_G28_01_104",
      "pbrMetallicRoughness" : {
        "baseColorFactor" : [ 0.9, 0.3, 0.3, 1.0 ],
        "metallicFactor" : 0.1,
        "roughnessFactor" : 0.5
      }
    }
  ],
  "meshes" : [
    {
      "primitives" : [
        {
          "attributes" : {
            "POSITION" : 2,
            "NORMAL" : 3,
            "TANGENT" : 4,
            "JOINTS_0" : 5,
            "WEIGHTS_0" : 6,
            "TEXCOORD_0" : 7
          },
          "indices" : 1,
          "material" : 0
        },
        {
          "attributes" : {
            "POSITION" : 9,
            "NORMAL" : 10,
            "TANGENT" : 11,
            "JOINTS_0" : 12,
            "WEIGHTS_0" : 13,
            "TEXCOORD_0" : 14
          },
          "indices" : 8,
          "material" : 1
        }
      ],
      "name" : "SK_Weap_G28_104"
    }
  ],
  "buffers" : [
    {
      "uri" : "SK_Weap_G28_104.bin",
      "byteLength" : 679236
    }
  ],
  "bufferViews" : [
    {
      "buffer" : 0,
      "byteOffset" : 0,
      "byteLength" : 640
    },
    {
      "buffer" : 0,
      "byteOffset" : 640,
      "byteLength" : 22700
    },
    {
      "buffer" : 0,
      "byteOffset" : 23340,
      "byteLength" : 38244
    },
    {
      "buffer" : 0,
      "byteOffset" : 61584,
      "byteLength" : 38244
    },
    {
      "buffer" : 0,
      "byteOffset" : 99828,
      "byteLength" : 50992
    },
    {
      "buffer" : 0,
      "byteOffset" : 150820,
      "byteLength" : 25496
    },
    {
      "buffer" : 0,
      "byteOffset" : 176316,
      "byteLength" : 12748
    },
    {
      "buffer" : 0,
      "byteOffset" : 189064,
      "byteLength" : 25496
    },
    {
      "buffer" : 0,
      "byteOffset" : 214560,
      "byteLength" : 45936
    },
    {
      "buffer" : 0,
      "byteOffset" : 260496,
      "byteLength" : 83748
    },
    {
      "buffer" : 0,
      "byteOffset" : 344244,
      "byteLength" : 83748
    },
    {
      "buffer" : 0,
      "byteOffset" : 427992,
      "byteLength" : 111664
    },
    {
      "buffer" : 0,
      "byteOffset" : 539656,
      "byteLength" : 55832
    },
    {
      "buffer" : 0,
      "byteOffset" : 595488,
      "byteLength" : 27916
    },
    {
      "buffer" : 0,
      "byteOffset" : 623404,
      "byteLength" : 55832
    }
  ],
  "accessors" : [
    {
      "bufferView" : 0,
      "componentType" : 5126,
      "count" : 10,
      "type" : "MAT4"
    },
    {
      "bufferView" : 1,
      "componentType" : 5123,
      "count" : 11349,
      "type" : "SCALAR"
    },
    {
      "bufferView" : 2,
      "min" : [ -0.0321639, -0.060612, -0.199616 ],
      "max" : [ 0.0321639, 0.0872772, 0.663917 ],
      "componentType" : 5126,
      "count" : 3187,
      "type" : "VEC3"
    },
    {
      "bufferView" : 3,
      "componentType" : 5126,
      "count" : 3187,
      "type" : "VEC3"
    },
    {
      "bufferView" : 4,
      "componentType" : 5126,
      "count" : 3187,
      "type" : "VEC4"
    },
    {
      "bufferView" : 5,
      "componentType" : 5123,
      "count" : 3187,
      "type" : "VEC4"
    },
    {
      "bufferView" : 6,
      "normalized" : true,
      "componentType" : 5121,
      "count" : 3187,
      "type" : "VEC4"
    },
    {
      "bufferView" : 7,
      "componentType" : 5126,
      "count" : 3187,
      "type" : "VEC2"
    },
    {
      "bufferView" : 8,
      "componentType" : 5123,
      "count" : 22968,
      "type" : "SCALAR"
    },
    {
      "bufferView" : 9,
      "min" : [ -0.0352683, -0.0695064, -0.00834035 ],
      "max" : [ 0.0352683, 0.101918, 0.552509 ],
      "componentType" : 5126,
      "count" : 6979,
      "type" : "VEC3"
    },
    {
      "bufferView" : 10,
      "componentType" : 5126,
      "count" : 6979,
      "type" : "VEC3"
    },
    {
      "bufferView" : 11,
      "componentType" : 5126,
      "count" : 6979,
      "type" : "VEC4"
    },
    {
      "bufferView" : 12,
      "componentType" : 5123,
      "count" : 6979,
      "type" : "VEC4"
    },
    {
      "bufferView" : 13,
      "normalized" : true,
      "componentType" : 5121,
      "count" : 6979,
      "type" : "VEC4"
    },
    {
      "bufferView" : 14,
      "componentType" : 5126,
      "count" : 6979,
      "type" : "VEC2"
    }
  ]
}
