{
  "asset" : {
    "generator" : "UE Viewer (umodel) build 1579 based",
    "version" : "2.0"
  },
  "scene" : 0,
  "scenes" : [
    {
      "nodes" : [ 0 ]
    }
  ],
  "nodes" : [
    {
      "name" : "SK_Weap_MP5A5_102",
      "mesh" : 0,
      "skin" : 0,
      "children" : [ 1 ]
    },
    {
      "name" : "Root",
      "children" : [ 2, 3, 4, 5, 6, 7, 8, 9 ],
      "translation" : [ 0, 0, 0 ],
      "rotation" : [ 1.16422e-11, 1.2783e-07, -1.41791e-06, 1 ]
    },
    {
      "name" : "ButtStock",
      "translation" : [ -7.28936e-08, 0.0626144, -0.100001 ],
      "rotation" : [ 4.80101e-07, 1.97927e-23, -2.11758e-22, -1 ]
    },
    {
      "name" : "Sight",
      "translation" : [ -3.64184e-07, 0.117602, 0.119615 ],
      "rotation" : [ 4.76837e-07, 3.35291e-17, -1.9577e-22, -1 ]
    },
    {
      "name" : "Suppressor",
      "translation" : [ 9.67276e-09, 0.0697958, 0.366761 ],
      "rotation" : [ 4.80101e-07, 1.97927e-23, -2.11758e-22, -1 ]
    },
    {
      "name" : "Muzzle",
      "translation" : [ 5.70708e-08, 0.0703365, 0.441351 ],
      "rotation" : [ 8.42937e-07, 0.707107, 1.68588e-07, -0.707107 ]
    },
    {
      "name" : "Magazine",
      "translation" : [ -4.70208e-09, -0.0332398, 0.157563 ],
      "rotation" : [ 1.61559e-27, 1.97926e-23, -2.11758e-22, -1 ]
    },
    {
      "name" : "ShellDrop",
      "translation" : [ -0.014199, 0.0774084, 0.13095 ],
      "rotation" : [ 1.80952e-13, -1, -2.38419e-07, -7.58967e-07 ]
    },
    {
      "name" : "Pull",
      "translation" : [ 0.0044872, 0.0866181, 0.220925 ],
      "rotation" : [ 1.86214e-06, 4.12826e-07, -0.21644, -0.976296 ]
    },
    {
      "name" : "Throw",
      "translation" : [ -0.00848039, 0.0774084, 0.13095 ],
      "rotation" : [ 1.90735e-06, 1.9793e-23, -2.11758e-22, -1 ]
    }
  ],
  "skins" : [
    {
      "inverseBindMatrices" : 0,
      "skeleton" : 1,
      "joints" : [
        1,2,3,4,5,6,7,8,9
      ]
    }
  ],
  "materials" : [
    {
      "name" : "MI_Weap_MP5A5_102_02",
      "pbrMetallicRoughness" : {
        "baseColorFactor" : [ 0.3, 0.3, 0.3, 1.0 ],
        "metallicFactor" : 0.1,
        "roughnessFactor" : 0.5
      }
    },
    {
      "name" : "MI_Weap_MP5A5_102_01",
      "pbrMetallicRoughness" : {
        "baseColorFactor" : [ 0.9, 0.3, 0.3, 1.0 ],
        "metallicFactor" : 0.1,
        "roughnessFactor" : 0.5
      }
    }
  ],
  "meshes" : [
    {
      "primitives" : [
        {
          "attributes" : {
            "POSITION" : 2,
            "NORMAL" : 3,
            "TANGENT" : 4,
            "JOINTS_0" : 5,
            "WEIGHTS_0" : 6,
            "TEXCOORD_0" : 7
          },
          "indices" : 1,
          "material" : 0
        },
        {
          "attributes" : {
            "POSITION" : 9,
            "NORMAL" : 10,
            "TANGENT" : 11,
            "JOINTS_0" : 12,
            "WEIGHTS_0" : 13,
            "TEXCOORD_0" : 14
          },
          "indices" : 8,
          "material" : 1
        }
      ],
      "name" : "SK_Weap_MP5A5_102"
    }
  ],
  "buffers" : [
    {
      "uri" : "SK_Weap_MP5A5_102.bin",
      "byteLength" : 785096
    }
  ],
  "bufferViews" : [
    {
      "buffer" : 0,
      "byteOffset" : 0,
      "byteLength" : 576
    },
    {
      "buffer" : 0,
      "byteOffset" : 576,
      "byteLength" : 42804
    },
    {
      "buffer" : 0,
      "byteOffset" : 43380,
      "byteLength" : 57276
    },
    {
      "buffer" : 0,
      "byteOffset" : 100656,
      "byteLength" : 57276
    },
    {
      "buffer" : 0,
      "byteOffset" : 157932,
      "byteLength" : 76368
    },
    {
      "buffer" : 0,
      "byteOffset" : 234300,
      "byteLength" : 38184
    },
    {
      "buffer" : 0,
      "byteOffset" : 272484,
      "byteLength" : 19092
    },
    {
      "buffer" : 0,
      "byteOffset" : 291576,
      "byteLength" : 38184
    },
    {
      "buffer" : 0,
      "byteOffset" : 329760,
      "byteLength" : 57056
    },
    {
      "buffer" : 0,
      "byteOffset" : 386816,
      "byteLength" : 79656
    },
    {
      "buffer" : 0,
      "byteOffset" : 466472,
      "byteLength" : 79656
    },
    {
      "buffer" : 0,
      "byteOffset" : 546128,
      "byteLength" : 106208
    },
    {
      "buffer" : 0,
      "byteOffset" : 652336,
      "byteLength" : 53104
    },
    {
      "buffer" : 0,
      "byteOffset" : 705440,
      "byteLength" : 26552
    },
    {
      "buffer" : 0,
      "byteOffset" : 731992,
      "byteLength" : 53104
    }
  ],
  "accessors" : [
    {
      "bufferView" : 0,
      "componentType" : 5126,
      "count" : 9,
      "type" : "MAT4"
    },
    {
      "bufferView" : 1,
      "componentType" : 5123,
      "count" : 21402,
      "type" : "SCALAR"
    },
    {
      "bufferView" : 2,
      "min" : [ -0.0227578, -0.104624, -0.140983 ],
      "max" : [ 0.0227578, 0.109672, 0.46472 ],
      "componentType" : 5126,
      "count" : 4773,
      "type" : "VEC3"
    },
    {
      "bufferView" : 3,
      "componentType" : 5126,
      "count" : 4773,
      "type" : "VEC3"
    },
    {
      "bufferView" : 4,
      "componentType" : 5126,
      "count" : 4773,
      "type" : "VEC4"
    },
    {
      "bufferView" : 5,
      "componentType" : 5123,
      "count" : 4773,
      "type" : "VEC4"
    },
    {
      "bufferView" : 6,
      "normalized" : true,
      "componentType" : 5121,
      "count" : 4773,
      "type" : "VEC4"
    },
    {
      "bufferView" : 7,
      "componentType" : 5126,
      "count" : 4773,
      "type" : "VEC2"
    },
    {
      "bufferView" : 8,
      "componentType" : 5123,
      "count" : 28527,
      "type" : "SCALAR"
    },
    {
      "bufferView" : 9,
      "min" : [ -0.026138, -0.0537011, -0.0139435 ],
      "max" : [ 0.0261785, 0.113981, 0.294832 ],
      "componentType" : 5126,
      "count" : 6638,
      "type" : "VEC3"
    },
    {
      "bufferView" : 10,
      "componentType" : 5126,
      "count" : 6638,
      "type" : "VEC3"
    },
    {
      "bufferView" : 11,
      "componentType" : 5126,
      "count" : 6638,
      "type" : "VEC4"
    },
    {
      "bufferView" : 12,
      "componentType" : 5123,
      "count" : 6638,
      "type" : "VEC4"
    },
    {
      "bufferView" : 13,
      "normalized" : true,
      "componentType" : 5121,
      "count" : 6638,
      "type" : "VEC4"
    },
    {
      "bufferView" : 14,
      "componentType" : 5126,
      "count" : 6638,
      "type" : "VEC2"
    }
  ]
}
