{
  "asset" : {
    "generator" : "UE Viewer (umodel) build 1579 based",
    "version" : "2.0"
  },
  "scene" : 0,
  "scenes" : [
    {
      "nodes" : [ 0 ]
    }
  ],
  "nodes" : [
    {
      "name" : "S_Envi_Common_DownWall_05a",
      "mesh" : 0
    }
  ],
  "materials" : [
    {
      "name" : "MI_Envi_Umeda_Prop_Frame_01",
      "pbrMetallicRoughness" : {
        "baseColorFactor" : [ 0.3, 0.3, 0.3, 1.0 ],
        "metallicFactor" : 0.1,
        "roughnessFactor" : 0.5
      }
    }
  ],
  "meshes" : [
    {
      "primitives" : [
        {
          "attributes" : {
            "POSITION" : 1,
            "NORMAL" : 2,
            "TANGENT" : 3,
            "TEXCOORD_0" : 4,
            "TEXCOORD_1" : 5
          },
          "indices" : 0,
          "material" : 0
        }
      ],
      "name" : "S_Envi_Common_DownWall_05a"
    }
  ],
  "buffers" : [
    {
      "uri" : "S_Envi_Common_DownWall_05a.bin",
      "byteLength" : 3352
    }
  ],
  "bufferViews" : [
    {
      "buffer" : 0,
      "byteOffset" : 0,
      "byteLength" : 216
    },
    {
      "buffer" : 0,
      "byteOffset" : 216,
      "byteLength" : 672
    },
    {
      "buffer" : 0,
      "byteOffset" : 888,
      "byteLength" : 672
    },
    {
      "buffer" : 0,
      "byteOffset" : 1560,
      "byteLength" : 896
    },
    {
      "buffer" : 0,
      "byteOffset" : 2456,
      "byteLength" : 448
    },
    {
      "buffer" : 0,
      "byteOffset" : 2904,
      "byteLength" : 448
    }
  ],
  "accessors" : [
    {
      "bufferView" : 0,
      "componentType" : 5123,
      "count" : 108,
      "type" : "SCALAR"
    },
    {
      "bufferView" : 1,
      "min" : [ -4, -3.05176e-07, -0.3 ],
      "max" : [ 0, 0.3, -4.3869e-07 ],
      "componentType" : 5126,
      "count" : 56,
      "type" : "VEC3"
    },
    {
      "bufferView" : 2,
      "componentType" : 5126,
      "count" : 56,
      "type" : "VEC3"
    },
    {
      "bufferView" : 3,
      "componentType" : 5126,
      "count" : 56,
      "type" : "VEC4"
    },
    {
      "bufferView" : 4,
      "componentType" : 5126,
      "count" : 56,
      "type" : "VEC2"
    },
    {
      "bufferView" : 5,
      "componentType" : 5126,
      "count" : 56,
      "type" : "VEC2"
    }
  ]
}
