{
  "asset" : {
    "generator" : "UE Viewer (umodel) build 1579 based",
    "version" : "2.0"
  },
  "scene" : 0,
  "scenes" : [
    {
      "nodes" : [ 0 ]
    }
  ],
  "nodes" : [
    {
      "name" : "S_Envi_Common_ReWall_01f",
      "mesh" : 0
    }
  ],
  "materials" : [
    {
      "name" : "MI_Envi_Common_ReWall_01a",
      "pbrMetallicRoughness" : {
        "baseColorFactor" : [ 0.3, 0.3, 0.3, 1.0 ],
        "metallicFactor" : 0.1,
        "roughnessFactor" : 0.5
      }
    },
    {
      "name" : "MI_Envi_Common_ReWall_02a",
      "pbrMetallicRoughness" : {
        "baseColorFactor" : [ 0.9, 0.3, 0.3, 1.0 ],
        "metallicFactor" : 0.1,
        "roughnessFactor" : 0.5
      }
    }
  ],
  "meshes" : [
    {
      "primitives" : [
        {
          "attributes" : {
            "POSITION" : 1,
            "NORMAL" : 2,
            "TANGENT" : 3,
            "TEXCOORD_0" : 4,
            "TEXCOORD_1" : 5
          },
          "indices" : 0,
          "material" : 0
        },
        {
          "attributes" : {
            "POSITION" : 7,
            "NORMAL" : 8,
            "TANGENT" : 9,
            "TEXCOORD_0" : 10,
            "TEXCOORD_1" : 11
          },
          "indices" : 6,
          "material" : 1
        }
      ],
      "name" : "S_Envi_Common_ReWall_01f"
    }
  ],
  "buffers" : [
    {
      "uri" : "S_Envi_Common_ReWall_01f.bin",
      "byteLength" : 65080
    }
  ],
  "bufferViews" : [
    {
      "buffer" : 0,
      "byteOffset" : 0,
      "byteLength" : 3600
    },
    {
      "buffer" : 0,
      "byteOffset" : 3600,
      "byteLength" : 12432
    },
    {
      "buffer" : 0,
      "byteOffset" : 16032,
      "byteLength" : 12432
    },
    {
      "buffer" : 0,
      "byteOffset" : 28464,
      "byteLength" : 16576
    },
    {
      "buffer" : 0,
      "byteOffset" : 45040,
      "byteLength" : 8288
    },
    {
      "buffer" : 0,
      "byteOffset" : 53328,
      "byteLength" : 8288
    },
    {
      "buffer" : 0,
      "byteOffset" : 61616,
      "byteLength" : 216
    },
    {
      "buffer" : 0,
      "byteOffset" : 61832,
      "byteLength" : 696
    },
    {
      "buffer" : 0,
      "byteOffset" : 62528,
      "byteLength" : 696
    },
    {
      "buffer" : 0,
      "byteOffset" : 63224,
      "byteLength" : 928
    },
    {
      "buffer" : 0,
      "byteOffset" : 64152,
      "byteLength" : 464
    },
    {
      "buffer" : 0,
      "byteOffset" : 64616,
      "byteLength" : 464
    }
  ],
  "accessors" : [
    {
      "bufferView" : 0,
      "componentType" : 5123,
      "count" : 1800,
      "type" : "SCALAR"
    },
    {
      "bufferView" : 1,
      "min" : [ -3, 5.43866e-08, -0.487688 ],
      "max" : [ 1.83105e-06, 1.99986, 0.0382433 ],
      "componentType" : 5126,
      "count" : 1036,
      "type" : "VEC3"
    },
    {
      "bufferView" : 2,
      "componentType" : 5126,
      "count" : 1036,
      "type" : "VEC3"
    },
    {
      "bufferView" : 3,
      "componentType" : 5126,
      "count" : 1036,
      "type" : "VEC4"
    },
    {
      "bufferView" : 4,
      "componentType" : 5126,
      "count" : 1036,
      "type" : "VEC2"
    },
    {
      "bufferView" : 5,
      "componentType" : 5126,
      "count" : 1036,
      "type" : "VEC2"
    },
    {
      "bufferView" : 6,
      "componentType" : 5123,
      "count" : 108,
      "type" : "SCALAR"
    },
    {
      "bufferView" : 7,
      "min" : [ -3, 5.43866e-08, -0.5 ],
      "max" : [ 1.83105e-06, 2, -0.137491 ],
      "componentType" : 5126,
      "count" : 58,
      "type" : "VEC3"
    },
    {
      "bufferView" : 8,
      "componentType" : 5126,
      "count" : 58,
      "type" : "VEC3"
    },
    {
      "bufferView" : 9,
      "componentType" : 5126,
      "count" : 58,
      "type" : "VEC4"
    },
    {
      "bufferView" : 10,
      "componentType" : 5126,
      "count" : 58,
      "type" : "VEC2"
    },
    {
      "bufferView" : 11,
      "componentType" : 5126,
      "count" : 58,
      "type" : "VEC2"
    }
  ]
}
