{
  "asset" : {
    "generator" : "UE Viewer (umodel) build 1579 based",
    "version" : "2.0"
  },
  "scene" : 0,
  "scenes" : [
    {
      "nodes" : [ 0 ]
    }
  ],
  "nodes" : [
    {
      "name" : "S_Envi_Common_Wall_02c",
      "mesh" : 0
    }
  ],
  "materials" : [
    {
      "name" : "MI_Envi_Common_Wall_02a",
      "pbrMetallicRoughness" : {
        "baseColorFactor" : [ 0.3, 0.3, 0.3, 1.0 ],
        "metallicFactor" : 0.1,
        "roughnessFactor" : 0.5
      }
    },
    {
      "name" : "MI_Envi_Common_Wall_01a",
      "pbrMetallicRoughness" : {
        "baseColorFactor" : [ 0.9, 0.3, 0.3, 1.0 ],
        "metallicFactor" : 0.1,
        "roughnessFactor" : 0.5
      }
    }
  ],
  "meshes" : [
    {
      "primitives" : [
        {
          "attributes" : {
            "POSITION" : 1,
            "NORMAL" : 2,
            "TANGENT" : 3,
            "TEXCOORD_0" : 4,
            "TEXCOORD_1" : 5
          },
          "indices" : 0,
          "material" : 0
        },
        {
          "attributes" : {
            "POSITION" : 7,
            "NORMAL" : 8,
            "TANGENT" : 9,
            "TEXCOORD_0" : 10,
            "TEXCOORD_1" : 11
          },
          "indices" : 6,
          "material" : 1
        }
      ],
      "name" : "S_Envi_Common_Wall_02c"
    }
  ],
  "buffers" : [
    {
      "uri" : "S_Envi_Common_Wall_02c.bin",
      "byteLength" : 3304
    }
  ],
  "bufferViews" : [
    {
      "buffer" : 0,
      "byteOffset" : 0,
      "byteLength" : 144
    },
    {
      "buffer" : 0,
      "byteOffset" : 144,
      "byteLength" : 576
    },
    {
      "buffer" : 0,
      "byteOffset" : 720,
      "byteLength" : 576
    },
    {
      "buffer" : 0,
      "byteOffset" : 1296,
      "byteLength" : 768
    },
    {
      "buffer" : 0,
      "byteOffset" : 2064,
      "byteLength" : 384
    },
    {
      "buffer" : 0,
      "byteOffset" : 2448,
      "byteLength" : 384
    },
    {
      "buffer" : 0,
      "byteOffset" : 2832,
      "byteLength" : 24
    },
    {
      "buffer" : 0,
      "byteOffset" : 2856,
      "byteLength" : 96
    },
    {
      "buffer" : 0,
      "byteOffset" : 2952,
      "byteLength" : 96
    },
    {
      "buffer" : 0,
      "byteOffset" : 3048,
      "byteLength" : 128
    },
    {
      "buffer" : 0,
      "byteOffset" : 3176,
      "byteLength" : 64
    },
    {
      "buffer" : 0,
      "byteOffset" : 3240,
      "byteLength" : 64
    }
  ],
  "accessors" : [
    {
      "bufferView" : 0,
      "componentType" : 5123,
      "count" : 72,
      "type" : "SCALAR"
    },
    {
      "bufferView" : 1,
      "min" : [ -4, -1.2207e-06, -0.5 ],
      "max" : [ 1.899e-06, 2, -1.14441e-07 ],
      "componentType" : 5126,
      "count" : 48,
      "type" : "VEC3"
    },
    {
      "bufferView" : 2,
      "componentType" : 5126,
      "count" : 48,
      "type" : "VEC3"
    },
    {
      "bufferView" : 3,
      "componentType" : 5126,
      "count" : 48,
      "type" : "VEC4"
    },
    {
      "bufferView" : 4,
      "componentType" : 5126,
      "count" : 48,
      "type" : "VEC2"
    },
    {
      "bufferView" : 5,
      "componentType" : 5126,
      "count" : 48,
      "type" : "VEC2"
    },
    {
      "bufferView" : 6,
      "componentType" : 5123,
      "count" : 12,
      "type" : "SCALAR"
    },
    {
      "bufferView" : 7,
      "min" : [ -4, -1.2207e-06, -0.5 ],
      "max" : [ 1.899e-06, 2, -0.0718637 ],
      "componentType" : 5126,
      "count" : 8,
      "type" : "VEC3"
    },
    {
      "bufferView" : 8,
      "componentType" : 5126,
      "count" : 8,
      "type" : "VEC3"
    },
    {
      "bufferView" : 9,
      "componentType" : 5126,
      "count" : 8,
      "type" : "VEC4"
    },
    {
      "bufferView" : 10,
      "componentType" : 5126,
      "count" : 8,
      "type" : "VEC2"
    },
    {
      "bufferView" : 11,
      "componentType" : 5126,
      "count" : 8,
      "type" : "VEC2"
    }
  ]
}
