{
  "asset" : {
    "generator" : "UE Viewer (umodel) build 1579 based",
    "version" : "2.0"
  },
  "scene" : 0,
  "scenes" : [
    {
      "nodes" : [ 0 ]
    }
  ],
  "nodes" : [
    {
      "name" : "S_Envi_Common_ReWall_01g",
      "mesh" : 0
    }
  ],
  "materials" : [
    {
      "name" : "MI_Envi_Common_ReWall_01a",
      "pbrMetallicRoughness" : {
        "baseColorFactor" : [ 0.3, 0.3, 0.3, 1.0 ],
        "metallicFactor" : 0.1,
        "roughnessFactor" : 0.5
      }
    },
    {
      "name" : "MI_Envi_Common_ReWall_02a",
      "pbrMetallicRoughness" : {
        "baseColorFactor" : [ 0.9, 0.3, 0.3, 1.0 ],
        "metallicFactor" : 0.1,
        "roughnessFactor" : 0.5
      }
    }
  ],
  "meshes" : [
    {
      "primitives" : [
        {
          "attributes" : {
            "POSITION" : 1,
            "NORMAL" : 2,
            "TANGENT" : 3,
            "TEXCOORD_0" : 4,
            "TEXCOORD_1" : 5
          },
          "indices" : 0,
          "material" : 0
        },
        {
          "attributes" : {
            "POSITION" : 7,
            "NORMAL" : 8,
            "TANGENT" : 9,
            "TEXCOORD_0" : 10,
            "TEXCOORD_1" : 11
          },
          "indices" : 6,
          "material" : 1
        }
      ],
      "name" : "S_Envi_Common_ReWall_01g"
    }
  ],
  "buffers" : [
    {
      "uri" : "S_Envi_Common_ReWall_01g.bin",
      "byteLength" : 39264
    }
  ],
  "bufferViews" : [
    {
      "buffer" : 0,
      "byteOffset" : 0,
      "byteLength" : 2232
    },
    {
      "buffer" : 0,
      "byteOffset" : 2232,
      "byteLength" : 7632
    },
    {
      "buffer" : 0,
      "byteOffset" : 9864,
      "byteLength" : 7632
    },
    {
      "buffer" : 0,
      "byteOffset" : 17496,
      "byteLength" : 10176
    },
    {
      "buffer" : 0,
      "byteOffset" : 27672,
      "byteLength" : 5088
    },
    {
      "buffer" : 0,
      "byteOffset" : 32760,
      "byteLength" : 5088
    },
    {
      "buffer" : 0,
      "byteOffset" : 37848,
      "byteLength" : 72
    },
    {
      "buffer" : 0,
      "byteOffset" : 37920,
      "byteLength" : 288
    },
    {
      "buffer" : 0,
      "byteOffset" : 38208,
      "byteLength" : 288
    },
    {
      "buffer" : 0,
      "byteOffset" : 38496,
      "byteLength" : 384
    },
    {
      "buffer" : 0,
      "byteOffset" : 38880,
      "byteLength" : 192
    },
    {
      "buffer" : 0,
      "byteOffset" : 39072,
      "byteLength" : 192
    }
  ],
  "accessors" : [
    {
      "bufferView" : 0,
      "componentType" : 5123,
      "count" : 1116,
      "type" : "SCALAR"
    },
    {
      "bufferView" : 1,
      "min" : [ -3, 0.0908194, -0.0552431 ],
      "max" : [ 0, 1.5, 0.197176 ],
      "componentType" : 5126,
      "count" : 636,
      "type" : "VEC3"
    },
    {
      "bufferView" : 2,
      "componentType" : 5126,
      "count" : 636,
      "type" : "VEC3"
    },
    {
      "bufferView" : 3,
      "componentType" : 5126,
      "count" : 636,
      "type" : "VEC4"
    },
    {
      "bufferView" : 4,
      "componentType" : 5126,
      "count" : 636,
      "type" : "VEC2"
    },
    {
      "bufferView" : 5,
      "componentType" : 5126,
      "count" : 636,
      "type" : "VEC2"
    },
    {
      "bufferView" : 6,
      "componentType" : 5123,
      "count" : 36,
      "type" : "SCALAR"
    },
    {
      "bufferView" : 7,
      "min" : [ -3, -2.6077e-09, -0.366371 ],
      "max" : [ 0, 1.5, -1.52588e-07 ],
      "componentType" : 5126,
      "count" : 24,
      "type" : "VEC3"
    },
    {
      "bufferView" : 8,
      "componentType" : 5126,
      "count" : 24,
      "type" : "VEC3"
    },
    {
      "bufferView" : 9,
      "componentType" : 5126,
      "count" : 24,
      "type" : "VEC4"
    },
    {
      "bufferView" : 10,
      "componentType" : 5126,
      "count" : 24,
      "type" : "VEC2"
    },
    {
      "bufferView" : 11,
      "componentType" : 5126,
      "count" : 24,
      "type" : "VEC2"
    }
  ]
}
