{
  "asset" : {
    "generator" : "UE Viewer (umodel) build 1579 based",
    "version" : "2.0"
  },
  "scene" : 0,
  "scenes" : [
    {
      "nodes" : [ 0 ]
    }
  ],
  "nodes" : [
    {
      "name" : "S_Envi_Common_ReWall_03h",
      "mesh" : 0
    }
  ],
  "materials" : [
    {
      "name" : "MI_Envi_Common_ReWall_03a",
      "pbrMetallicRoughness" : {
        "baseColorFactor" : [ 0.3, 0.3, 0.3, 1.0 ],
        "metallicFactor" : 0.1,
        "roughnessFactor" : 0.5
      }
    }
  ],
  "meshes" : [
    {
      "primitives" : [
        {
          "attributes" : {
            "POSITION" : 1,
            "NORMAL" : 2,
            "TANGENT" : 3,
            "TEXCOORD_0" : 4,
            "TEXCOORD_1" : 5
          },
          "indices" : 0,
          "material" : 0
        }
      ],
      "name" : "S_Envi_Common_ReWall_03h"
    }
  ],
  "buffers" : [
    {
      "uri" : "S_Envi_Common_ReWall_03h.bin",
      "byteLength" : 5464
    }
  ],
  "bufferViews" : [
    {
      "buffer" : 0,
      "byteOffset" : 0,
      "byteLength" : 312
    },
    {
      "buffer" : 0,
      "byteOffset" : 312,
      "byteLength" : 1104
    },
    {
      "buffer" : 0,
      "byteOffset" : 1416,
      "byteLength" : 1104
    },
    {
      "buffer" : 0,
      "byteOffset" : 2520,
      "byteLength" : 1472
    },
    {
      "buffer" : 0,
      "byteOffset" : 3992,
      "byteLength" : 736
    },
    {
      "buffer" : 0,
      "byteOffset" : 4728,
      "byteLength" : 736
    }
  ],
  "accessors" : [
    {
      "bufferView" : 0,
      "componentType" : 5123,
      "count" : 156,
      "type" : "SCALAR"
    },
    {
      "bufferView" : 1,
      "min" : [ -0.5, 1.6693e-07, -1.47518 ],
      "max" : [ -2.28882e-07, 4.4, 0.0300002 ],
      "componentType" : 5126,
      "count" : 92,
      "type" : "VEC3"
    },
    {
      "bufferView" : 2,
      "componentType" : 5126,
      "count" : 92,
      "type" : "VEC3"
    },
    {
      "bufferView" : 3,
      "componentType" : 5126,
      "count" : 92,
      "type" : "VEC4"
    },
    {
      "bufferView" : 4,
      "componentType" : 5126,
      "count" : 92,
      "type" : "VEC2"
    },
    {
      "bufferView" : 5,
      "componentType" : 5126,
      "count" : 92,
      "type" : "VEC2"
    }
  ]
}
