{
  "asset" : {
    "generator" : "UE Viewer (umodel) build 1579 based",
    "version" : "2.0"
  },
  "scene" : 0,
  "scenes" : [
    {
      "nodes" : [ 0 ]
    }
  ],
  "nodes" : [
    {
      "name" : "S_Envi_Common_ReWall_01h",
      "mesh" : 0
    }
  ],
  "materials" : [
    {
      "name" : "MI_Envi_Common_ReWall_03a",
      "pbrMetallicRoughness" : {
        "baseColorFactor" : [ 0.3, 0.3, 0.3, 1.0 ],
        "metallicFactor" : 0.1,
        "roughnessFactor" : 0.5
      }
    },
    {
      "name" : "MI_Envi_Common_ReWall_02a",
      "pbrMetallicRoughness" : {
        "baseColorFactor" : [ 0.9, 0.3, 0.3, 1.0 ],
        "metallicFactor" : 0.1,
        "roughnessFactor" : 0.5
      }
    }
  ],
  "meshes" : [
    {
      "primitives" : [
        {
          "attributes" : {
            "POSITION" : 1,
            "NORMAL" : 2,
            "TANGENT" : 3,
            "TEXCOORD_0" : 4,
            "TEXCOORD_1" : 5
          },
          "indices" : 0,
          "material" : 0
        },
        {
          "attributes" : {
            "POSITION" : 7,
            "NORMAL" : 8,
            "TANGENT" : 9,
            "TEXCOORD_0" : 10,
            "TEXCOORD_1" : 11
          },
          "indices" : 6,
          "material" : 1
        }
      ],
      "name" : "S_Envi_Common_ReWall_01h"
    }
  ],
  "buffers" : [
    {
      "uri" : "S_Envi_Common_ReWall_01h.bin",
      "byteLength" : 7412
    }
  ],
  "bufferViews" : [
    {
      "buffer" : 0,
      "byteOffset" : 0,
      "byteLength" : 372
    },
    {
      "buffer" : 0,
      "byteOffset" : 372,
      "byteLength" : 1152
    },
    {
      "buffer" : 0,
      "byteOffset" : 1524,
      "byteLength" : 1152
    },
    {
      "buffer" : 0,
      "byteOffset" : 2676,
      "byteLength" : 1536
    },
    {
      "buffer" : 0,
      "byteOffset" : 4212,
      "byteLength" : 768
    },
    {
      "buffer" : 0,
      "byteOffset" : 4980,
      "byteLength" : 768
    },
    {
      "buffer" : 0,
      "byteOffset" : 5748,
      "byteLength" : 96
    },
    {
      "buffer" : 0,
      "byteOffset" : 5844,
      "byteLength" : 336
    },
    {
      "buffer" : 0,
      "byteOffset" : 6180,
      "byteLength" : 336
    },
    {
      "buffer" : 0,
      "byteOffset" : 6516,
      "byteLength" : 448
    },
    {
      "buffer" : 0,
      "byteOffset" : 6964,
      "byteLength" : 224
    },
    {
      "buffer" : 0,
      "byteOffset" : 7188,
      "byteLength" : 224
    }
  ],
  "accessors" : [
    {
      "bufferView" : 0,
      "componentType" : 5123,
      "count" : 186,
      "type" : "SCALAR"
    },
    {
      "bufferView" : 1,
      "min" : [ -4, -1.62721e-07, -0.0804309 ],
      "max" : [ 1.2207e-06, 1, 0.0384713 ],
      "componentType" : 5126,
      "count" : 96,
      "type" : "VEC3"
    },
    {
      "bufferView" : 2,
      "componentType" : 5126,
      "count" : 96,
      "type" : "VEC3"
    },
    {
      "bufferView" : 3,
      "componentType" : 5126,
      "count" : 96,
      "type" : "VEC4"
    },
    {
      "bufferView" : 4,
      "componentType" : 5126,
      "count" : 96,
      "type" : "VEC2"
    },
    {
      "bufferView" : 5,
      "componentType" : 5126,
      "count" : 96,
      "type" : "VEC2"
    },
    {
      "bufferView" : 6,
      "componentType" : 5123,
      "count" : 48,
      "type" : "SCALAR"
    },
    {
      "bufferView" : 7,
      "min" : [ -4, -1.34706e-07, -0.5 ],
      "max" : [ 1.2207e-06, 1, -0.0804309 ],
      "componentType" : 5126,
      "count" : 28,
      "type" : "VEC3"
    },
    {
      "bufferView" : 8,
      "componentType" : 5126,
      "count" : 28,
      "type" : "VEC3"
    },
    {
      "bufferView" : 9,
      "componentType" : 5126,
      "count" : 28,
      "type" : "VEC4"
    },
    {
      "bufferView" : 10,
      "componentType" : 5126,
      "count" : 28,
      "type" : "VEC2"
    },
    {
      "bufferView" : 11,
      "componentType" : 5126,
      "count" : 28,
      "type" : "VEC2"
    }
  ]
}
