{
  "asset" : {
    "generator" : "UE Viewer (umodel) build 1579 based",
    "version" : "2.0"
  },
  "scene" : 0,
  "scenes" : [
    {
      "nodes" : [ 0 ]
    }
  ],
  "nodes" : [
    {
      "name" : "S_Envi_Common_ReWall_03b",
      "mesh" : 0
    }
  ],
  "materials" : [
    {
      "name" : "MI_Envi_Common_ReWall_03a",
      "pbrMetallicRoughness" : {
        "baseColorFactor" : [ 0.3, 0.3, 0.3, 1.0 ],
        "metallicFactor" : 0.1,
        "roughnessFactor" : 0.5
      }
    }
  ],
  "meshes" : [
    {
      "primitives" : [
        {
          "attributes" : {
            "POSITION" : 1,
            "NORMAL" : 2,
            "TANGENT" : 3,
            "TEXCOORD_0" : 4,
            "TEXCOORD_1" : 5
          },
          "indices" : 0,
          "material" : 0
        }
      ],
      "name" : "S_Envi_Common_ReWall_03b"
    }
  ],
  "buffers" : [
    {
      "uri" : "S_Envi_Common_ReWall_03b.bin",
      "byteLength" : 7812
    }
  ],
  "bufferViews" : [
    {
      "buffer" : 0,
      "byteOffset" : 0,
      "byteLength" : 420
    },
    {
      "buffer" : 0,
      "byteOffset" : 420,
      "byteLength" : 1584
    },
    {
      "buffer" : 0,
      "byteOffset" : 2004,
      "byteLength" : 1584
    },
    {
      "buffer" : 0,
      "byteOffset" : 3588,
      "byteLength" : 2112
    },
    {
      "buffer" : 0,
      "byteOffset" : 5700,
      "byteLength" : 1056
    },
    {
      "buffer" : 0,
      "byteOffset" : 6756,
      "byteLength" : 1056
    }
  ],
  "accessors" : [
    {
      "bufferView" : 0,
      "componentType" : 5123,
      "count" : 210,
      "type" : "SCALAR"
    },
    {
      "bufferView" : 1,
      "min" : [ -0.2, -0.00999992, -0.486743 ],
      "max" : [ 3.05176e-07, 3.49, 0.0381313 ],
      "componentType" : 5126,
      "count" : 132,
      "type" : "VEC3"
    },
    {
      "bufferView" : 2,
      "componentType" : 5126,
      "count" : 132,
      "type" : "VEC3"
    },
    {
      "bufferView" : 3,
      "componentType" : 5126,
      "count" : 132,
      "type" : "VEC4"
    },
    {
      "bufferView" : 4,
      "componentType" : 5126,
      "count" : 132,
      "type" : "VEC2"
    },
    {
      "bufferView" : 5,
      "componentType" : 5126,
      "count" : 132,
      "type" : "VEC2"
    }
  ]
}
