{
  "asset" : {
    "generator" : "UE Viewer (umodel) build 1579 based",
    "version" : "2.0"
  },
  "scene" : 0,
  "scenes" : [
    {
      "nodes" : [ 0 ]
    }
  ],
  "nodes" : [
    {
      "name" : "SK_Weap_MG42_Pendant_106",
      "mesh" : 0,
      "skin" : 0,
      "children" : [ 1 ]
    },
    {
      "name" : "Root",
      "children" : [ 2 ],
      "translation" : [ 0, 0, 0 ],
      "rotation" : [ 3.06162e-17, -0, -0, 1 ]
    },
    {
      "name" : "Root_End",
      "translation" : [ 9.53674e-09, -0.0648602, -1.52588e-07 ],
      "rotation" : [ -0, -0, 0, -1 ]
    }
  ],
  "skins" : [
    {
      "inverseBindMatrices" : 0,
      "skeleton" : 1,
      "joints" : [
        1,2
      ]
    }
  ],
  "materials" : [
    {
      "name" : "MI_Weap_MG42_01_106",
      "pbrMetallicRoughness" : {
        "baseColorFactor" : [ 0.3, 0.3, 0.3, 1.0 ],
        "metallicFactor" : 0.1,
        "roughnessFactor" : 0.5
      }
    }
  ],
  "meshes" : [
    {
      "primitives" : [
        {
          "attributes" : {
            "POSITION" : 2,
            "NORMAL" : 3,
            "TANGENT" : 4,
            "COLOR_0" : 5,
            "JOINTS_0" : 6,
            "WEIGHTS_0" : 7,
            "TEXCOORD_0" : 8,
            "TEXCOORD_1" : 9
          },
          "indices" : 1,
          "material" : 0
        }
      ],
      "name" : "SK_Weap_MG42_Pendant_106"
    }
  ],
  "buffers" : [
    {
      "uri" : "SK_Weap_MG42_Pendant_106.bin",
      "byteLength" : 46856
    }
  ],
  "bufferViews" : [
    {
      "buffer" : 0,
      "byteOffset" : 0,
      "byteLength" : 128
    },
    {
      "buffer" : 0,
      "byteOffset" : 128,
      "byteLength" : 5256
    },
    {
      "buffer" : 0,
      "byteOffset" : 5384,
      "byteLength" : 6912
    },
    {
      "buffer" : 0,
      "byteOffset" : 12296,
      "byteLength" : 6912
    },
    {
      "buffer" : 0,
      "byteOffset" : 19208,
      "byteLength" : 9216
    },
    {
      "buffer" : 0,
      "byteOffset" : 28424,
      "byteLength" : 2304
    },
    {
      "buffer" : 0,
      "byteOffset" : 30728,
      "byteLength" : 4608
    },
    {
      "buffer" : 0,
      "byteOffset" : 35336,
      "byteLength" : 2304
    },
    {
      "buffer" : 0,
      "byteOffset" : 37640,
      "byteLength" : 4608
    },
    {
      "buffer" : 0,
      "byteOffset" : 42248,
      "byteLength" : 4608
    }
  ],
  "accessors" : [
    {
      "bufferView" : 0,
      "componentType" : 5126,
      "count" : 2,
      "type" : "MAT4"
    },
    {
      "bufferView" : 1,
      "componentType" : 5123,
      "count" : 2628,
      "type" : "SCALAR"
    },
    {
      "bufferView" : 2,
      "min" : [ -0.0079968, -0.0665571, -0.00793585 ],
      "max" : [ 0.00784055, 0.00285538, 0.00790155 ],
      "componentType" : 5126,
      "count" : 576,
      "type" : "VEC3"
    },
    {
      "bufferView" : 3,
      "componentType" : 5126,
      "count" : 576,
      "type" : "VEC3"
    },
    {
      "bufferView" : 4,
      "componentType" : 5126,
      "count" : 576,
      "type" : "VEC4"
    },
    {
      "bufferView" : 5,
      "normalized" : true,
      "componentType" : 5121,
      "count" : 576,
      "type" : "VEC4"
    },
    {
      "bufferView" : 6,
      "componentType" : 5123,
      "count" : 576,
      "type" : "VEC4"
    },
    {
      "bufferView" : 7,
      "normalized" : true,
      "componentType" : 5121,
      "count" : 576,
      "type" : "VEC4"
    },
    {
      "bufferView" : 8,
      "componentType" : 5126,
      "count" : 576,
      "type" : "VEC2"
    },
    {
      "bufferView" : 9,
      "componentType" : 5126,
      "count" : 576,
      "type" : "VEC2"
    }
  ]
}
