{
  "asset" : {
    "generator" : "UE Viewer (umodel) build 1579 based",
    "version" : "2.0"
  },
  "scene" : 0,
  "scenes" : [
    {
      "nodes" : [ 0 ]
    }
  ],
  "nodes" : [
    {
      "name" : "S_Envi_Train_Footstep_01a",
      "mesh" : 0
    }
  ],
  "materials" : [
    {
      "name" : "MI_Envi_Train_Footstep_01a",
      "pbrMetallicRoughness" : {
        "baseColorFactor" : [ 0.3, 0.3, 0.3, 1.0 ],
        "metallicFactor" : 0.1,
        "roughnessFactor" : 0.5
      }
    }
  ],
  "meshes" : [
    {
      "primitives" : [
        {
          "attributes" : {
            "POSITION" : 1,
            "NORMAL" : 2,
            "TANGENT" : 3,
            "TEXCOORD_0" : 4,
            "TEXCOORD_1" : 5
          },
          "indices" : 0,
          "material" : 0
        }
      ],
      "name" : "S_Envi_Train_Footstep_01a"
    }
  ],
  "buffers" : [
    {
      "uri" : "S_Envi_Train_Footstep_01a.bin",
      "byteLength" : 36416
    }
  ],
  "bufferViews" : [
    {
      "buffer" : 0,
      "byteOffset" : 0,
      "byteLength" : 3152
    },
    {
      "buffer" : 0,
      "byteOffset" : 3152,
      "byteLength" : 7128
    },
    {
      "buffer" : 0,
      "byteOffset" : 10280,
      "byteLength" : 7128
    },
    {
      "buffer" : 0,
      "byteOffset" : 17408,
      "byteLength" : 9504
    },
    {
      "buffer" : 0,
      "byteOffset" : 26912,
      "byteLength" : 4752
    },
    {
      "buffer" : 0,
      "byteOffset" : 31664,
      "byteLength" : 4752
    }
  ],
  "accessors" : [
    {
      "bufferView" : 0,
      "componentType" : 5123,
      "count" : 1575,
      "type" : "SCALAR"
    },
    {
      "bufferView" : 1,
      "min" : [ -10.7903, -3.23057e-07, -3.82886 ],
      "max" : [ 0.0217566, 1.12767, 6.54697 ],
      "componentType" : 5126,
      "count" : 594,
      "type" : "VEC3"
    },
    {
      "bufferView" : 2,
      "componentType" : 5126,
      "count" : 594,
      "type" : "VEC3"
    },
    {
      "bufferView" : 3,
      "componentType" : 5126,
      "count" : 594,
      "type" : "VEC4"
    },
    {
      "bufferView" : 4,
      "componentType" : 5126,
      "count" : 594,
      "type" : "VEC2"
    },
    {
      "bufferView" : 5,
      "componentType" : 5126,
      "count" : 594,
      "type" : "VEC2"
    }
  ]
}
