{
  "asset" : {
    "generator" : "UE Viewer (umodel) build 1579 based",
    "version" : "2.0"
  },
  "scene" : 0,
  "scenes" : [
    {
      "nodes" : [ 0 ]
    }
  ],
  "nodes" : [
    {
      "name" : "SK_Weap_HKG3_102_1P",
      "mesh" : 0,
      "skin" : 0,
      "children" : [ 1 ]
    },
    {
      "name" : "Root",
      "translation" : [ -1.33548e-08, 0, 0 ],
      "rotation" : [ -2.23517e-07, 5.21541e-08, -7.45058e-08, 1 ]
    }
  ],
  "skins" : [
    {
      "inverseBindMatrices" : 0,
      "skeleton" : 1,
      "joints" : [
        1
      ]
    }
  ],
  "materials" : [
    {
      "name" : "MI_Weap_HKG3_02_102",
      "pbrMetallicRoughness" : {
        "baseColorFactor" : [ 0.3, 0.3, 0.3, 1.0 ],
        "metallicFactor" : 0.1,
        "roughnessFactor" : 0.5
      }
    }
  ],
  "meshes" : [
    {
      "primitives" : [
        {
          "attributes" : {
            "POSITION" : 2,
            "NORMAL" : 3,
            "TANGENT" : 4,
            "JOINTS_0" : 5,
            "WEIGHTS_0" : 6,
            "TEXCOORD_0" : 7
          },
          "indices" : 1,
          "material" : 0
        }
      ],
      "name" : "SK_Weap_HKG3_102_1P"
    }
  ],
  "buffers" : [
    {
      "uri" : "SK_Weap_HKG3_102_1P.bin",
      "byteLength" : 192232
    }
  ],
  "bufferViews" : [
    {
      "buffer" : 0,
      "byteOffset" : 0,
      "byteLength" : 64
    },
    {
      "buffer" : 0,
      "byteOffset" : 64,
      "byteLength" : 20328
    },
    {
      "buffer" : 0,
      "byteOffset" : 20392,
      "byteLength" : 34368
    },
    {
      "buffer" : 0,
      "byteOffset" : 54760,
      "byteLength" : 34368
    },
    {
      "buffer" : 0,
      "byteOffset" : 89128,
      "byteLength" : 45824
    },
    {
      "buffer" : 0,
      "byteOffset" : 134952,
      "byteLength" : 22912
    },
    {
      "buffer" : 0,
      "byteOffset" : 157864,
      "byteLength" : 11456
    },
    {
      "buffer" : 0,
      "byteOffset" : 169320,
      "byteLength" : 22912
    }
  ],
  "accessors" : [
    {
      "bufferView" : 0,
      "componentType" : 5126,
      "count" : 1,
      "type" : "MAT4"
    },
    {
      "bufferView" : 1,
      "componentType" : 5123,
      "count" : 10164,
      "type" : "SCALAR"
    },
    {
      "bufferView" : 2,
      "min" : [ -0.0280324, -0.0324177, -0.102698 ],
      "max" : [ 0.0280324, 0.0530817, 0.0974031 ],
      "componentType" : 5126,
      "count" : 2864,
      "type" : "VEC3"
    },
    {
      "bufferView" : 3,
      "componentType" : 5126,
      "count" : 2864,
      "type" : "VEC3"
    },
    {
      "bufferView" : 4,
      "componentType" : 5126,
      "count" : 2864,
      "type" : "VEC4"
    },
    {
      "bufferView" : 5,
      "componentType" : 5123,
      "count" : 2864,
      "type" : "VEC4"
    },
    {
      "bufferView" : 6,
      "normalized" : true,
      "componentType" : 5121,
      "count" : 2864,
      "type" : "VEC4"
    },
    {
      "bufferView" : 7,
      "componentType" : 5126,
      "count" : 2864,
      "type" : "VEC2"
    }
  ]
}
