{
  "asset" : {
    "generator" : "UE Viewer (umodel) build 1579 based",
    "version" : "2.0"
  },
  "scene" : 0,
  "scenes" : [
    {
      "nodes" : [ 0 ]
    }
  ],
  "nodes" : [
    {
      "name" : "SK_Weap_HKG3_102_Sight",
      "mesh" : 0,
      "skin" : 0,
      "children" : [ 1 ]
    },
    {
      "name" : "Root",
      "translation" : [ -1.00487e-08, 0, 0 ],
      "rotation" : [ -2.23517e-07, 5.21541e-08, -7.45058e-08, 1 ]
    }
  ],
  "skins" : [
    {
      "inverseBindMatrices" : 0,
      "skeleton" : 1,
      "joints" : [
        1
      ]
    }
  ],
  "materials" : [
    {
      "name" : "MI_Weap_HKG3_02_102",
      "pbrMetallicRoughness" : {
        "baseColorFactor" : [ 0.3, 0.3, 0.3, 1.0 ],
        "metallicFactor" : 0.1,
        "roughnessFactor" : 0.5
      }
    }
  ],
  "meshes" : [
    {
      "primitives" : [
        {
          "attributes" : {
            "POSITION" : 2,
            "NORMAL" : 3,
            "TANGENT" : 4,
            "JOINTS_0" : 5,
            "WEIGHTS_0" : 6,
            "TEXCOORD_0" : 7
          },
          "indices" : 1,
          "material" : 0
        }
      ],
      "name" : "SK_Weap_HKG3_102_Sight"
    }
  ],
  "buffers" : [
    {
      "uri" : "SK_Weap_HKG3_102_Sight.bin",
      "byteLength" : 97356
    }
  ],
  "bufferViews" : [
    {
      "buffer" : 0,
      "byteOffset" : 0,
      "byteLength" : 64
    },
    {
      "buffer" : 0,
      "byteOffset" : 64,
      "byteLength" : 8312
    },
    {
      "buffer" : 0,
      "byteOffset" : 8376,
      "byteLength" : 17796
    },
    {
      "buffer" : 0,
      "byteOffset" : 26172,
      "byteLength" : 17796
    },
    {
      "buffer" : 0,
      "byteOffset" : 43968,
      "byteLength" : 23728
    },
    {
      "buffer" : 0,
      "byteOffset" : 67696,
      "byteLength" : 11864
    },
    {
      "buffer" : 0,
      "byteOffset" : 79560,
      "byteLength" : 5932
    },
    {
      "buffer" : 0,
      "byteOffset" : 85492,
      "byteLength" : 11864
    }
  ],
  "accessors" : [
    {
      "bufferView" : 0,
      "componentType" : 5126,
      "count" : 1,
      "type" : "MAT4"
    },
    {
      "bufferView" : 1,
      "componentType" : 5123,
      "count" : 4155,
      "type" : "SCALAR"
    },
    {
      "bufferView" : 2,
      "min" : [ -0.0208295, -0.0324176, -0.102698 ],
      "max" : [ 0.0208293, 0.0527913, 0.0972001 ],
      "componentType" : 5126,
      "count" : 1483,
      "type" : "VEC3"
    },
    {
      "bufferView" : 3,
      "componentType" : 5126,
      "count" : 1483,
      "type" : "VEC3"
    },
    {
      "bufferView" : 4,
      "componentType" : 5126,
      "count" : 1483,
      "type" : "VEC4"
    },
    {
      "bufferView" : 5,
      "componentType" : 5123,
      "count" : 1483,
      "type" : "VEC4"
    },
    {
      "bufferView" : 6,
      "normalized" : true,
      "componentType" : 5121,
      "count" : 1483,
      "type" : "VEC4"
    },
    {
      "bufferView" : 7,
      "componentType" : 5126,
      "count" : 1483,
      "type" : "VEC2"
    }
  ]
}
