{
  "asset" : {
    "generator" : "UE Viewer (umodel) build 1579 based",
    "version" : "2.0"
  },
  "scene" : 0,
  "scenes" : [
    {
      "nodes" : [ 0 ]
    }
  ],
  "nodes" : [
    {
      "name" : "SK_Weap_HKG3_102",
      "mesh" : 0,
      "skin" : 0,
      "children" : [ 1 ]
    },
    {
      "name" : "Root",
      "children" : [ 2, 3, 4, 5, 6, 7, 8, 9 ],
      "translation" : [ 0, 0, 0 ],
      "rotation" : [ -7.15256e-07, -0, -0, 1 ]
    },
    {
      "name" : "ButtStock",
      "translation" : [ 0, 0.0483811, -0.124655 ],
      "rotation" : [ 1.43051e-06, -0, -0, -1 ]
    },
    {
      "name" : "Sight",
      "translation" : [ -1.00487e-08, 0.151046, 0.144129 ],
      "rotation" : [ -3.06162e-17, -0, 0, -1 ]
    },
    {
      "name" : "Suppressor",
      "translation" : [ 0, 0.075455, 0.693404 ],
      "rotation" : [ 1.43051e-06, -0, -0, -1 ]
    },
    {
      "name" : "Muzzle",
      "translation" : [ 0, 0.0724468, 0.813716 ],
      "rotation" : [ -2.43198e-13, 0.707107, 1.01152e-06, -0.707107 ]
    },
    {
      "name" : "Pull",
      "translation" : [ 0.0136273, 0.111757, 0.461377 ],
      "rotation" : [ 5.34464e-08, 5.69571e-07, -0.382683, -0.92388 ]
    },
    {
      "name" : "ShellDrop",
      "translation" : [ -0.0192348, 0.0946424, 0.190999 ],
      "rotation" : [ 1.08571e-12, -1, -1.43051e-06, -7.58967e-07 ]
    },
    {
      "name" : "Magazine",
      "translation" : [ -1.00487e-08, -0.0170444, 0.197899 ],
      "rotation" : [ -0, -0, 0, -1 ]
    },
    {
      "name" : "Throw",
      "translation" : [ -0.0164772, 0.0946424, 0.190999 ],
      "rotation" : [ 1.25624e-12, -1, -1.43051e-06, -8.78176e-07 ]
    }
  ],
  "skins" : [
    {
      "inverseBindMatrices" : 0,
      "skeleton" : 1,
      "joints" : [
        1,2,3,4,5,6,7,8,9
      ]
    }
  ],
  "materials" : [
    {
      "name" : "MI_Weap_HKG3_02_102",
      "pbrMetallicRoughness" : {
        "baseColorFactor" : [ 0.3, 0.3, 0.3, 1.0 ],
        "metallicFactor" : 0.1,
        "roughnessFactor" : 0.5
      }
    },
    {
      "name" : "MI_Weap_HKG3_01_102",
      "pbrMetallicRoughness" : {
        "baseColorFactor" : [ 0.9, 0.3, 0.3, 1.0 ],
        "metallicFactor" : 0.1,
        "roughnessFactor" : 0.5
      }
    }
  ],
  "meshes" : [
    {
      "primitives" : [
        {
          "attributes" : {
            "POSITION" : 2,
            "NORMAL" : 3,
            "TANGENT" : 4,
            "JOINTS_0" : 5,
            "WEIGHTS_0" : 6,
            "TEXCOORD_0" : 7
          },
          "indices" : 1,
          "material" : 0
        },
        {
          "attributes" : {
            "POSITION" : 9,
            "NORMAL" : 10,
            "TANGENT" : 11,
            "JOINTS_0" : 12,
            "WEIGHTS_0" : 13,
            "TEXCOORD_0" : 14
          },
          "indices" : 8,
          "material" : 1
        }
      ],
      "name" : "SK_Weap_HKG3_102"
    }
  ],
  "buffers" : [
    {
      "uri" : "SK_Weap_HKG3_102.bin",
      "byteLength" : 409312
    }
  ],
  "bufferViews" : [
    {
      "buffer" : 0,
      "byteOffset" : 0,
      "byteLength" : 576
    },
    {
      "buffer" : 0,
      "byteOffset" : 576,
      "byteLength" : 9512
    },
    {
      "buffer" : 0,
      "byteOffset" : 10088,
      "byteLength" : 19008
    },
    {
      "buffer" : 0,
      "byteOffset" : 29096,
      "byteLength" : 19008
    },
    {
      "buffer" : 0,
      "byteOffset" : 48104,
      "byteLength" : 25344
    },
    {
      "buffer" : 0,
      "byteOffset" : 73448,
      "byteLength" : 12672
    },
    {
      "buffer" : 0,
      "byteOffset" : 86120,
      "byteLength" : 6336
    },
    {
      "buffer" : 0,
      "byteOffset" : 92456,
      "byteLength" : 12672
    },
    {
      "buffer" : 0,
      "byteOffset" : 105128,
      "byteLength" : 27344
    },
    {
      "buffer" : 0,
      "byteOffset" : 132472,
      "byteLength" : 55368
    },
    {
      "buffer" : 0,
      "byteOffset" : 187840,
      "byteLength" : 55368
    },
    {
      "buffer" : 0,
      "byteOffset" : 243208,
      "byteLength" : 73824
    },
    {
      "buffer" : 0,
      "byteOffset" : 317032,
      "byteLength" : 36912
    },
    {
      "buffer" : 0,
      "byteOffset" : 353944,
      "byteLength" : 18456
    },
    {
      "buffer" : 0,
      "byteOffset" : 372400,
      "byteLength" : 36912
    }
  ],
  "accessors" : [
    {
      "bufferView" : 0,
      "componentType" : 5126,
      "count" : 9,
      "type" : "MAT4"
    },
    {
      "bufferView" : 1,
      "componentType" : 5123,
      "count" : 4755,
      "type" : "SCALAR"
    },
    {
      "bufferView" : 2,
      "min" : [ -0.023818, -0.0867649, -0.260301 ],
      "max" : [ 0.0238725, 0.127547, 0.809767 ],
      "componentType" : 5126,
      "count" : 1584,
      "type" : "VEC3"
    },
    {
      "bufferView" : 3,
      "componentType" : 5126,
      "count" : 1584,
      "type" : "VEC3"
    },
    {
      "bufferView" : 4,
      "componentType" : 5126,
      "count" : 1584,
      "type" : "VEC4"
    },
    {
      "bufferView" : 5,
      "componentType" : 5123,
      "count" : 1584,
      "type" : "VEC4"
    },
    {
      "bufferView" : 6,
      "normalized" : true,
      "componentType" : 5121,
      "count" : 1584,
      "type" : "VEC4"
    },
    {
      "bufferView" : 7,
      "componentType" : 5126,
      "count" : 1584,
      "type" : "VEC2"
    },
    {
      "bufferView" : 8,
      "componentType" : 5123,
      "count" : 13671,
      "type" : "SCALAR"
    },
    {
      "bufferView" : 9,
      "min" : [ -0.0296298, -0.0953667, -0.0945978 ],
      "max" : [ 0.0296382, 0.138393, 0.577151 ],
      "componentType" : 5126,
      "count" : 4614,
      "type" : "VEC3"
    },
    {
      "bufferView" : 10,
      "componentType" : 5126,
      "count" : 4614,
      "type" : "VEC3"
    },
    {
      "bufferView" : 11,
      "componentType" : 5126,
      "count" : 4614,
      "type" : "VEC4"
    },
    {
      "bufferView" : 12,
      "componentType" : 5123,
      "count" : 4614,
      "type" : "VEC4"
    },
    {
      "bufferView" : 13,
      "normalized" : true,
      "componentType" : 5121,
      "count" : 4614,
      "type" : "VEC4"
    },
    {
      "bufferView" : 14,
      "componentType" : 5126,
      "count" : 4614,
      "type" : "VEC2"
    }
  ]
}
