{
  "asset" : {
    "generator" : "UE Viewer (umodel) build 1579 based",
    "version" : "2.0"
  },
  "scene" : 0,
  "scenes" : [
    {
      "nodes" : [ 0 ]
    }
  ],
  "nodes" : [
    {
      "name" : "S_Envi_QYDX_LightSimulator_04",
      "mesh" : 0
    }
  ],
  "materials" : [
    {
      "name" : "MI_Envi_QYDX_LightSimulator_03",
      "pbrMetallicRoughness" : {
        "baseColorFactor" : [ 0.3, 0.3, 0.3, 1.0 ],
        "metallicFactor" : 0.1,
        "roughnessFactor" : 0.5
      }
    }
  ],
  "meshes" : [
    {
      "primitives" : [
        {
          "attributes" : {
            "POSITION" : 1,
            "NORMAL" : 2,
            "TANGENT" : 3,
            "TEXCOORD_0" : 4,
            "TEXCOORD_1" : 5
          },
          "indices" : 0,
          "material" : 0
        }
      ],
      "name" : "S_Envi_QYDX_LightSimulator_04"
    }
  ],
  "buffers" : [
    {
      "uri" : "S_Envi_QYDX_LightSimulator_04.bin",
      "byteLength" : 71216
    }
  ],
  "bufferViews" : [
    {
      "buffer" : 0,
      "byteOffset" : 0,
      "byteLength" : 6144
    },
    {
      "buffer" : 0,
      "byteOffset" : 6144,
      "byteLength" : 13944
    },
    {
      "buffer" : 0,
      "byteOffset" : 20088,
      "byteLength" : 13944
    },
    {
      "buffer" : 0,
      "byteOffset" : 34032,
      "byteLength" : 18592
    },
    {
      "buffer" : 0,
      "byteOffset" : 52624,
      "byteLength" : 9296
    },
    {
      "buffer" : 0,
      "byteOffset" : 61920,
      "byteLength" : 9296
    }
  ],
  "accessors" : [
    {
      "bufferView" : 0,
      "componentType" : 5123,
      "count" : 3072,
      "type" : "SCALAR"
    },
    {
      "bufferView" : 1,
      "min" : [ -1.07048, 0.0096814, -0.746864 ],
      "max" : [ 1.07048, 3.04497, 0.746864 ],
      "componentType" : 5126,
      "count" : 1162,
      "type" : "VEC3"
    },
    {
      "bufferView" : 2,
      "componentType" : 5126,
      "count" : 1162,
      "type" : "VEC3"
    },
    {
      "bufferView" : 3,
      "componentType" : 5126,
      "count" : 1162,
      "type" : "VEC4"
    },
    {
      "bufferView" : 4,
      "componentType" : 5126,
      "count" : 1162,
      "type" : "VEC2"
    },
    {
      "bufferView" : 5,
      "componentType" : 5126,
      "count" : 1162,
      "type" : "VEC2"
    }
  ]
}
