{
  "asset" : {
    "generator" : "UE Viewer (umodel) build 1579 based",
    "version" : "2.0"
  },
  "scene" : 0,
  "scenes" : [
    {
      "nodes" : [ 0 ]
    }
  ],
  "nodes" : [
    {
      "name" : "S_Envi_QYDX_Lamp",
      "mesh" : 0
    }
  ],
  "materials" : [
    {
      "name" : "MI_Envi_Umeda_Base_Building_02_A_02",
      "pbrMetallicRoughness" : {
        "baseColorFactor" : [ 0.3, 0.3, 0.3, 1.0 ],
        "metallicFactor" : 0.1,
        "roughnessFactor" : 0.5
      }
    },
    {
      "name" : "MI_Envi_Umeda_Module_12",
      "pbrMetallicRoughness" : {
        "baseColorFactor" : [ 0.9, 0.3, 0.3, 1.0 ],
        "metallicFactor" : 0.1,
        "roughnessFactor" : 0.5
      }
    }
  ],
  "meshes" : [
    {
      "primitives" : [
        {
          "attributes" : {
            "POSITION" : 1,
            "NORMAL" : 2,
            "TANGENT" : 3,
            "TEXCOORD_0" : 4,
            "TEXCOORD_1" : 5
          },
          "indices" : 0,
          "material" : 0
        },
        {
          "attributes" : {
            "POSITION" : 7,
            "NORMAL" : 8,
            "TANGENT" : 9,
            "TEXCOORD_0" : 10,
            "TEXCOORD_1" : 11
          },
          "indices" : 6,
          "material" : 1
        }
      ],
      "name" : "S_Envi_QYDX_Lamp"
    }
  ],
  "buffers" : [
    {
      "uri" : "S_Envi_QYDX_Lamp.bin",
      "byteLength" : 8276
    }
  ],
  "bufferViews" : [
    {
      "buffer" : 0,
      "byteOffset" : 0,
      "byteLength" : 576
    },
    {
      "buffer" : 0,
      "byteOffset" : 576,
      "byteLength" : 1440
    },
    {
      "buffer" : 0,
      "byteOffset" : 2016,
      "byteLength" : 1440
    },
    {
      "buffer" : 0,
      "byteOffset" : 3456,
      "byteLength" : 1920
    },
    {
      "buffer" : 0,
      "byteOffset" : 5376,
      "byteLength" : 960
    },
    {
      "buffer" : 0,
      "byteOffset" : 6336,
      "byteLength" : 960
    },
    {
      "buffer" : 0,
      "byteOffset" : 7296,
      "byteLength" : 84
    },
    {
      "buffer" : 0,
      "byteOffset" : 7380,
      "byteLength" : 192
    },
    {
      "buffer" : 0,
      "byteOffset" : 7572,
      "byteLength" : 192
    },
    {
      "buffer" : 0,
      "byteOffset" : 7764,
      "byteLength" : 256
    },
    {
      "buffer" : 0,
      "byteOffset" : 8020,
      "byteLength" : 128
    },
    {
      "buffer" : 0,
      "byteOffset" : 8148,
      "byteLength" : 128
    }
  ],
  "accessors" : [
    {
      "bufferView" : 0,
      "componentType" : 5123,
      "count" : 288,
      "type" : "SCALAR"
    },
    {
      "bufferView" : 1,
      "min" : [ -0.0536976, -0.24, -0.0536976 ],
      "max" : [ 0.0536976, -6.15272e-09, 0.0536976 ],
      "componentType" : 5126,
      "count" : 120,
      "type" : "VEC3"
    },
    {
      "bufferView" : 2,
      "componentType" : 5126,
      "count" : 120,
      "type" : "VEC3"
    },
    {
      "bufferView" : 3,
      "componentType" : 5126,
      "count" : 120,
      "type" : "VEC4"
    },
    {
      "bufferView" : 4,
      "componentType" : 5126,
      "count" : 120,
      "type" : "VEC2"
    },
    {
      "bufferView" : 5,
      "componentType" : 5126,
      "count" : 120,
      "type" : "VEC2"
    },
    {
      "bufferView" : 6,
      "componentType" : 5123,
      "count" : 42,
      "type" : "SCALAR"
    },
    {
      "bufferView" : 7,
      "min" : [ -0.0475065, -0.237, -0.0475065 ],
      "max" : [ 0.0475065, -0.237, 0.0475066 ],
      "componentType" : 5126,
      "count" : 16,
      "type" : "VEC3"
    },
    {
      "bufferView" : 8,
      "componentType" : 5126,
      "count" : 16,
      "type" : "VEC3"
    },
    {
      "bufferView" : 9,
      "componentType" : 5126,
      "count" : 16,
      "type" : "VEC4"
    },
    {
      "bufferView" : 10,
      "componentType" : 5126,
      "count" : 16,
      "type" : "VEC2"
    },
    {
      "bufferView" : 11,
      "componentType" : 5126,
      "count" : 16,
      "type" : "VEC2"
    }
  ]
}
