{
  "asset" : {
    "generator" : "UE Viewer (umodel) build 1579 based",
    "version" : "2.0"
  },
  "scene" : 0,
  "scenes" : [
    {
      "nodes" : [ 0 ]
    }
  ],
  "nodes" : [
    {
      "name" : "S_Envi_QYDX_SecuricarInside_02a",
      "mesh" : 0
    }
  ],
  "materials" : [
    {
      "name" : "MI_Envi_QYDX_SecuricarInside_02a_02",
      "pbrMetallicRoughness" : {
        "baseColorFactor" : [ 0.3, 0.3, 0.3, 1.0 ],
        "metallicFactor" : 0.1,
        "roughnessFactor" : 0.5
      }
    },
    {
      "name" : "MI_Envi_QYDX_SecuricarInside_02a_01",
      "pbrMetallicRoughness" : {
        "baseColorFactor" : [ 0.9, 0.3, 0.3, 1.0 ],
        "metallicFactor" : 0.1,
        "roughnessFactor" : 0.5
      }
    }
  ],
  "meshes" : [
    {
      "primitives" : [
        {
          "attributes" : {
            "POSITION" : 1,
            "NORMAL" : 2,
            "TANGENT" : 3,
            "TEXCOORD_0" : 4,
            "TEXCOORD_1" : 5
          },
          "indices" : 0,
          "material" : 0
        },
        {
          "attributes" : {
            "POSITION" : 7,
            "NORMAL" : 8,
            "TANGENT" : 9,
            "TEXCOORD_0" : 10,
            "TEXCOORD_1" : 11
          },
          "indices" : 6,
          "material" : 1
        }
      ],
      "name" : "S_Envi_QYDX_SecuricarInside_02a"
    }
  ],
  "buffers" : [
    {
      "uri" : "S_Envi_QYDX_SecuricarInside_02a.bin",
      "byteLength" : 261676
    }
  ],
  "bufferViews" : [
    {
      "buffer" : 0,
      "byteOffset" : 0,
      "byteLength" : 22644
    },
    {
      "buffer" : 0,
      "byteOffset" : 22644,
      "byteLength" : 49104
    },
    {
      "buffer" : 0,
      "byteOffset" : 71748,
      "byteLength" : 49104
    },
    {
      "buffer" : 0,
      "byteOffset" : 120852,
      "byteLength" : 65472
    },
    {
      "buffer" : 0,
      "byteOffset" : 186324,
      "byteLength" : 32736
    },
    {
      "buffer" : 0,
      "byteOffset" : 219060,
      "byteLength" : 32736
    },
    {
      "buffer" : 0,
      "byteOffset" : 251796,
      "byteLength" : 696
    },
    {
      "buffer" : 0,
      "byteOffset" : 252492,
      "byteLength" : 1968
    },
    {
      "buffer" : 0,
      "byteOffset" : 254460,
      "byteLength" : 1968
    },
    {
      "buffer" : 0,
      "byteOffset" : 256428,
      "byteLength" : 2624
    },
    {
      "buffer" : 0,
      "byteOffset" : 259052,
      "byteLength" : 1312
    },
    {
      "buffer" : 0,
      "byteOffset" : 260364,
      "byteLength" : 1312
    }
  ],
  "accessors" : [
    {
      "bufferView" : 0,
      "componentType" : 5123,
      "count" : 11322,
      "type" : "SCALAR"
    },
    {
      "bufferView" : 1,
      "min" : [ -5.53951, 0.618888, -1.99128 ],
      "max" : [ 3.38868, 3.11049, 1.99128 ],
      "componentType" : 5126,
      "count" : 4092,
      "type" : "VEC3"
    },
    {
      "bufferView" : 2,
      "componentType" : 5126,
      "count" : 4092,
      "type" : "VEC3"
    },
    {
      "bufferView" : 3,
      "componentType" : 5126,
      "count" : 4092,
      "type" : "VEC4"
    },
    {
      "bufferView" : 4,
      "componentType" : 5126,
      "count" : 4092,
      "type" : "VEC2"
    },
    {
      "bufferView" : 5,
      "componentType" : 5126,
      "count" : 4092,
      "type" : "VEC2"
    },
    {
      "bufferView" : 6,
      "componentType" : 5123,
      "count" : 348,
      "type" : "SCALAR"
    },
    {
      "bufferView" : 7,
      "min" : [ -5.24445, 0.618888, -1.91914 ],
      "max" : [ 3.42543, 3.10733, 1.91914 ],
      "componentType" : 5126,
      "count" : 164,
      "type" : "VEC3"
    },
    {
      "bufferView" : 8,
      "componentType" : 5126,
      "count" : 164,
      "type" : "VEC3"
    },
    {
      "bufferView" : 9,
      "componentType" : 5126,
      "count" : 164,
      "type" : "VEC4"
    },
    {
      "bufferView" : 10,
      "componentType" : 5126,
      "count" : 164,
      "type" : "VEC2"
    },
    {
      "bufferView" : 11,
      "componentType" : 5126,
      "count" : 164,
      "type" : "VEC2"
    }
  ]
}
