{
  "asset" : {
    "generator" : "UE Viewer (umodel) build 1579 based",
    "version" : "2.0"
  },
  "scene" : 0,
  "scenes" : [
    {
      "nodes" : [ 0 ]
    }
  ],
  "nodes" : [
    {
      "name" : "S_Envi_QYDX_Fence_03",
      "mesh" : 0
    }
  ],
  "materials" : [
    {
      "name" : "MI_Envi_QYDX_Fence_02",
      "pbrMetallicRoughness" : {
        "baseColorFactor" : [ 0.3, 0.3, 0.3, 1.0 ],
        "metallicFactor" : 0.1,
        "roughnessFactor" : 0.5
      }
    },
    {
      "name" : "MI_Envi_QYDX_Tarpaulin_01",
      "pbrMetallicRoughness" : {
        "baseColorFactor" : [ 0.9, 0.3, 0.3, 1.0 ],
        "metallicFactor" : 0.1,
        "roughnessFactor" : 0.5
      }
    },
    {
      "name" : "MI_Envi_QYDX_Fence_01",
      "pbrMetallicRoughness" : {
        "baseColorFactor" : [ 0.3, 0.9, 0.3, 1.0 ],
        "metallicFactor" : 0.1,
        "roughnessFactor" : 0.5
      }
    }
  ],
  "meshes" : [
    {
      "primitives" : [
        {
          "attributes" : {
            "POSITION" : 1,
            "NORMAL" : 2,
            "TANGENT" : 3,
            "TEXCOORD_0" : 4,
            "TEXCOORD_1" : 5
          },
          "indices" : 0,
          "material" : 0
        },
        {
          "attributes" : {
            "POSITION" : 7,
            "NORMAL" : 8,
            "TANGENT" : 9,
            "TEXCOORD_0" : 10,
            "TEXCOORD_1" : 11
          },
          "indices" : 6,
          "material" : 1
        },
        {
          "attributes" : {
            "POSITION" : 13,
            "NORMAL" : 14,
            "TANGENT" : 15,
            "TEXCOORD_0" : 16,
            "TEXCOORD_1" : 17
          },
          "indices" : 12,
          "material" : 2
        }
      ],
      "name" : "S_Envi_QYDX_Fence_03"
    }
  ],
  "buffers" : [
    {
      "uri" : "S_Envi_QYDX_Fence_03.bin",
      "byteLength" : 31488
    }
  ],
  "bufferViews" : [
    {
      "buffer" : 0,
      "byteOffset" : 0,
      "byteLength" : 3192
    },
    {
      "buffer" : 0,
      "byteOffset" : 3192,
      "byteLength" : 5760
    },
    {
      "buffer" : 0,
      "byteOffset" : 8952,
      "byteLength" : 5760
    },
    {
      "buffer" : 0,
      "byteOffset" : 14712,
      "byteLength" : 7680
    },
    {
      "buffer" : 0,
      "byteOffset" : 22392,
      "byteLength" : 3840
    },
    {
      "buffer" : 0,
      "byteOffset" : 26232,
      "byteLength" : 3840
    },
    {
      "buffer" : 0,
      "byteOffset" : 30072,
      "byteLength" : 48
    },
    {
      "buffer" : 0,
      "byteOffset" : 30120,
      "byteLength" : 192
    },
    {
      "buffer" : 0,
      "byteOffset" : 30312,
      "byteLength" : 192
    },
    {
      "buffer" : 0,
      "byteOffset" : 30504,
      "byteLength" : 256
    },
    {
      "buffer" : 0,
      "byteOffset" : 30760,
      "byteLength" : 128
    },
    {
      "buffer" : 0,
      "byteOffset" : 30888,
      "byteLength" : 128
    },
    {
      "buffer" : 0,
      "byteOffset" : 31016,
      "byteLength" : 24
    },
    {
      "buffer" : 0,
      "byteOffset" : 31040,
      "byteLength" : 96
    },
    {
      "buffer" : 0,
      "byteOffset" : 31136,
      "byteLength" : 96
    },
    {
      "buffer" : 0,
      "byteOffset" : 31232,
      "byteLength" : 128
    },
    {
      "buffer" : 0,
      "byteOffset" : 31360,
      "byteLength" : 64
    },
    {
      "buffer" : 0,
      "byteOffset" : 31424,
      "byteLength" : 64
    }
  ],
  "accessors" : [
    {
      "bufferView" : 0,
      "componentType" : 5123,
      "count" : 1596,
      "type" : "SCALAR"
    },
    {
      "bufferView" : 1,
      "min" : [ -2.17305, 0.307727, -0.0325211 ],
      "max" : [ 2.17306, 4.68502, 0.0325222 ],
      "componentType" : 5126,
      "count" : 480,
      "type" : "VEC3"
    },
    {
      "bufferView" : 2,
      "componentType" : 5126,
      "count" : 480,
      "type" : "VEC3"
    },
    {
      "bufferView" : 3,
      "componentType" : 5126,
      "count" : 480,
      "type" : "VEC4"
    },
    {
      "bufferView" : 4,
      "componentType" : 5126,
      "count" : 480,
      "type" : "VEC2"
    },
    {
      "bufferView" : 5,
      "componentType" : 5126,
      "count" : 480,
      "type" : "VEC2"
    },
    {
      "bufferView" : 6,
      "componentType" : 5123,
      "count" : 24,
      "type" : "SCALAR"
    },
    {
      "bufferView" : 7,
      "min" : [ -2.02446, 0.35749, -0.0112534 ],
      "max" : [ 2.03104, 4.62963, -0.0101108 ],
      "componentType" : 5126,
      "count" : 16,
      "type" : "VEC3"
    },
    {
      "bufferView" : 8,
      "componentType" : 5126,
      "count" : 16,
      "type" : "VEC3"
    },
    {
      "bufferView" : 9,
      "componentType" : 5126,
      "count" : 16,
      "type" : "VEC4"
    },
    {
      "bufferView" : 10,
      "componentType" : 5126,
      "count" : 16,
      "type" : "VEC2"
    },
    {
      "bufferView" : 11,
      "componentType" : 5126,
      "count" : 16,
      "type" : "VEC2"
    },
    {
      "bufferView" : 12,
      "componentType" : 5123,
      "count" : 12,
      "type" : "SCALAR"
    },
    {
      "bufferView" : 13,
      "min" : [ -2.02446, 0.35749, 0.00662925 ],
      "max" : [ 2.03104, 4.62963, 0.00662925 ],
      "componentType" : 5126,
      "count" : 8,
      "type" : "VEC3"
    },
    {
      "bufferView" : 14,
      "componentType" : 5126,
      "count" : 8,
      "type" : "VEC3"
    },
    {
      "bufferView" : 15,
      "componentType" : 5126,
      "count" : 8,
      "type" : "VEC4"
    },
    {
      "bufferView" : 16,
      "componentType" : 5126,
      "count" : 8,
      "type" : "VEC2"
    },
    {
      "bufferView" : 17,
      "componentType" : 5126,
      "count" : 8,
      "type" : "VEC2"
    }
  ]
}
