{
  "asset" : {
    "generator" : "UE Viewer (umodel) build 1579 based",
    "version" : "2.0"
  },
  "scene" : 0,
  "scenes" : [
    {
      "nodes" : [ 0 ]
    }
  ],
  "nodes" : [
    {
      "name" : "S_Envi_QYDX_Object_04",
      "mesh" : 0
    }
  ],
  "materials" : [
    {
      "name" : "MI_Envi_QYDX_L2_01b_inside_05",
      "pbrMetallicRoughness" : {
        "baseColorFactor" : [ 0.3, 0.3, 0.3, 1.0 ],
        "metallicFactor" : 0.1,
        "roughnessFactor" : 0.5
      }
    },
    {
      "name" : "MI_Envi_Umeda_Led_04",
      "pbrMetallicRoughness" : {
        "baseColorFactor" : [ 0.9, 0.3, 0.3, 1.0 ],
        "metallicFactor" : 0.1,
        "roughnessFactor" : 0.5
      }
    }
  ],
  "meshes" : [
    {
      "primitives" : [
        {
          "attributes" : {
            "POSITION" : 1,
            "NORMAL" : 2,
            "TANGENT" : 3,
            "TEXCOORD_0" : 4,
            "TEXCOORD_1" : 5
          },
          "indices" : 0,
          "material" : 0
        },
        {
          "attributes" : {
            "POSITION" : 7,
            "NORMAL" : 8,
            "TANGENT" : 9,
            "TEXCOORD_0" : 10,
            "TEXCOORD_1" : 11
          },
          "indices" : 6,
          "material" : 1
        }
      ],
      "name" : "S_Envi_QYDX_Object_04"
    }
  ],
  "buffers" : [
    {
      "uri" : "S_Envi_QYDX_Object_04.bin",
      "byteLength" : 55036
    }
  ],
  "bufferViews" : [
    {
      "buffer" : 0,
      "byteOffset" : 0,
      "byteLength" : 4836
    },
    {
      "buffer" : 0,
      "byteOffset" : 4836,
      "byteLength" : 10656
    },
    {
      "buffer" : 0,
      "byteOffset" : 15492,
      "byteLength" : 10656
    },
    {
      "buffer" : 0,
      "byteOffset" : 26148,
      "byteLength" : 14208
    },
    {
      "buffer" : 0,
      "byteOffset" : 40356,
      "byteLength" : 7104
    },
    {
      "buffer" : 0,
      "byteOffset" : 47460,
      "byteLength" : 7104
    },
    {
      "buffer" : 0,
      "byteOffset" : 54564,
      "byteLength" : 24
    },
    {
      "buffer" : 0,
      "byteOffset" : 54588,
      "byteLength" : 96
    },
    {
      "buffer" : 0,
      "byteOffset" : 54684,
      "byteLength" : 96
    },
    {
      "buffer" : 0,
      "byteOffset" : 54780,
      "byteLength" : 128
    },
    {
      "buffer" : 0,
      "byteOffset" : 54908,
      "byteLength" : 64
    },
    {
      "buffer" : 0,
      "byteOffset" : 54972,
      "byteLength" : 64
    }
  ],
  "accessors" : [
    {
      "bufferView" : 0,
      "componentType" : 5123,
      "count" : 2418,
      "type" : "SCALAR"
    },
    {
      "bufferView" : 1,
      "min" : [ -0.596767, -0.000511209, -2.27803 ],
      "max" : [ 0.596767, 1.51497, 2.27803 ],
      "componentType" : 5126,
      "count" : 888,
      "type" : "VEC3"
    },
    {
      "bufferView" : 2,
      "componentType" : 5126,
      "count" : 888,
      "type" : "VEC3"
    },
    {
      "bufferView" : 3,
      "componentType" : 5126,
      "count" : 888,
      "type" : "VEC4"
    },
    {
      "bufferView" : 4,
      "componentType" : 5126,
      "count" : 888,
      "type" : "VEC2"
    },
    {
      "bufferView" : 5,
      "componentType" : 5126,
      "count" : 888,
      "type" : "VEC2"
    },
    {
      "bufferView" : 6,
      "componentType" : 5123,
      "count" : 12,
      "type" : "SCALAR"
    },
    {
      "bufferView" : 7,
      "min" : [ -0.17061, 1.08583, -1.37504 ],
      "max" : [ -0.088574, 1.41018, 1.17673 ],
      "componentType" : 5126,
      "count" : 8,
      "type" : "VEC3"
    },
    {
      "bufferView" : 8,
      "componentType" : 5126,
      "count" : 8,
      "type" : "VEC3"
    },
    {
      "bufferView" : 9,
      "componentType" : 5126,
      "count" : 8,
      "type" : "VEC4"
    },
    {
      "bufferView" : 10,
      "componentType" : 5126,
      "count" : 8,
      "type" : "VEC2"
    },
    {
      "bufferView" : 11,
      "componentType" : 5126,
      "count" : 8,
      "type" : "VEC2"
    }
  ]
}
