{
  "asset" : {
    "generator" : "UE Viewer (umodel) build 1579 based",
    "version" : "2.0"
  },
  "scene" : 0,
  "scenes" : [
    {
      "nodes" : [ 0 ]
    }
  ],
  "nodes" : [
    {
      "name" : "S_Envi_QYDX_Securicar_02a",
      "mesh" : 0
    }
  ],
  "materials" : [
    {
      "name" : "MI_PM_Glass_06",
      "pbrMetallicRoughness" : {
        "baseColorFactor" : [ 0.3, 0.3, 0.3, 1.0 ],
        "metallicFactor" : 0.1,
        "roughnessFactor" : 0.5
      }
    },
    {
      "name" : "MI_Envi_QYDX_Securicar_02a_02",
      "pbrMetallicRoughness" : {
        "baseColorFactor" : [ 0.9, 0.3, 0.3, 1.0 ],
        "metallicFactor" : 0.1,
        "roughnessFactor" : 0.5
      }
    },
    {
      "name" : "MI_Envi_QYDX_Securicar_02a_01",
      "pbrMetallicRoughness" : {
        "baseColorFactor" : [ 0.3, 0.9, 0.3, 1.0 ],
        "metallicFactor" : 0.1,
        "roughnessFactor" : 0.5
      }
    }
  ],
  "meshes" : [
    {
      "primitives" : [
        {
          "attributes" : {
            "POSITION" : 1,
            "NORMAL" : 2,
            "TANGENT" : 3,
            "TEXCOORD_0" : 4,
            "TEXCOORD_1" : 5
          },
          "indices" : 0,
          "material" : 0
        },
        {
          "attributes" : {
            "POSITION" : 7,
            "NORMAL" : 8,
            "TANGENT" : 9,
            "TEXCOORD_0" : 10,
            "TEXCOORD_1" : 11
          },
          "indices" : 6,
          "material" : 1
        },
        {
          "attributes" : {
            "POSITION" : 13,
            "NORMAL" : 14,
            "TANGENT" : 15,
            "TEXCOORD_0" : 16,
            "TEXCOORD_1" : 17
          },
          "indices" : 12,
          "material" : 2
        }
      ],
      "name" : "S_Envi_QYDX_Securicar_02a"
    }
  ],
  "buffers" : [
    {
      "uri" : "S_Envi_QYDX_Securicar_02a.bin",
      "byteLength" : 404760
    }
  ],
  "bufferViews" : [
    {
      "buffer" : 0,
      "byteOffset" : 0,
      "byteLength" : 72
    },
    {
      "buffer" : 0,
      "byteOffset" : 72,
      "byteLength" : 288
    },
    {
      "buffer" : 0,
      "byteOffset" : 360,
      "byteLength" : 288
    },
    {
      "buffer" : 0,
      "byteOffset" : 648,
      "byteLength" : 384
    },
    {
      "buffer" : 0,
      "byteOffset" : 1032,
      "byteLength" : 192
    },
    {
      "buffer" : 0,
      "byteOffset" : 1224,
      "byteLength" : 192
    },
    {
      "buffer" : 0,
      "byteOffset" : 1416,
      "byteLength" : 25320
    },
    {
      "buffer" : 0,
      "byteOffset" : 26736,
      "byteLength" : 62892
    },
    {
      "buffer" : 0,
      "byteOffset" : 89628,
      "byteLength" : 62892
    },
    {
      "buffer" : 0,
      "byteOffset" : 152520,
      "byteLength" : 83856
    },
    {
      "buffer" : 0,
      "byteOffset" : 236376,
      "byteLength" : 41928
    },
    {
      "buffer" : 0,
      "byteOffset" : 278304,
      "byteLength" : 41928
    },
    {
      "buffer" : 0,
      "byteOffset" : 320232,
      "byteLength" : 6464
    },
    {
      "buffer" : 0,
      "byteOffset" : 326696,
      "byteLength" : 16728
    },
    {
      "buffer" : 0,
      "byteOffset" : 343424,
      "byteLength" : 16728
    },
    {
      "buffer" : 0,
      "byteOffset" : 360152,
      "byteLength" : 22304
    },
    {
      "buffer" : 0,
      "byteOffset" : 382456,
      "byteLength" : 11152
    },
    {
      "buffer" : 0,
      "byteOffset" : 393608,
      "byteLength" : 11152
    }
  ],
  "accessors" : [
    {
      "bufferView" : 0,
      "componentType" : 5123,
      "count" : 36,
      "type" : "SCALAR"
    },
    {
      "bufferView" : 1,
      "min" : [ 4.73923, 1.60709, -1.96625 ],
      "max" : [ 5.71805, 2.74387, 1.96625 ],
      "componentType" : 5126,
      "count" : 24,
      "type" : "VEC3"
    },
    {
      "bufferView" : 2,
      "componentType" : 5126,
      "count" : 24,
      "type" : "VEC3"
    },
    {
      "bufferView" : 3,
      "componentType" : 5126,
      "count" : 24,
      "type" : "VEC4"
    },
    {
      "bufferView" : 4,
      "componentType" : 5126,
      "count" : 24,
      "type" : "VEC2"
    },
    {
      "bufferView" : 5,
      "componentType" : 5126,
      "count" : 24,
      "type" : "VEC2"
    },
    {
      "bufferView" : 6,
      "componentType" : 5123,
      "count" : 12660,
      "type" : "SCALAR"
    },
    {
      "bufferView" : 7,
      "min" : [ -6.16405, 0.248094, -2.23975 ],
      "max" : [ 6.17366, 3.50731, 2.23976 ],
      "componentType" : 5126,
      "count" : 5241,
      "type" : "VEC3"
    },
    {
      "bufferView" : 8,
      "componentType" : 5126,
      "count" : 5241,
      "type" : "VEC3"
    },
    {
      "bufferView" : 9,
      "componentType" : 5126,
      "count" : 5241,
      "type" : "VEC4"
    },
    {
      "bufferView" : 10,
      "componentType" : 5126,
      "count" : 5241,
      "type" : "VEC2"
    },
    {
      "bufferView" : 11,
      "componentType" : 5126,
      "count" : 5241,
      "type" : "VEC2"
    },
    {
      "bufferView" : 12,
      "componentType" : 5123,
      "count" : 3231,
      "type" : "SCALAR"
    },
    {
      "bufferView" : 13,
      "min" : [ -6.12999, 0.294286, -2.1857 ],
      "max" : [ 5.81398, 3.37549, 2.1857 ],
      "componentType" : 5126,
      "count" : 1394,
      "type" : "VEC3"
    },
    {
      "bufferView" : 14,
      "componentType" : 5126,
      "count" : 1394,
      "type" : "VEC3"
    },
    {
      "bufferView" : 15,
      "componentType" : 5126,
      "count" : 1394,
      "type" : "VEC4"
    },
    {
      "bufferView" : 16,
      "componentType" : 5126,
      "count" : 1394,
      "type" : "VEC2"
    },
    {
      "bufferView" : 17,
      "componentType" : 5126,
      "count" : 1394,
      "type" : "VEC2"
    }
  ]
}
