{
  "asset" : {
    "generator" : "UE Viewer (umodel) build 1579 based",
    "version" : "2.0"
  },
  "scene" : 0,
  "scenes" : [
    {
      "nodes" : [ 0 ]
    }
  ],
  "nodes" : [
    {
      "name" : "S_Envi_QYDX_Object_01",
      "mesh" : 0
    }
  ],
  "materials" : [
    {
      "name" : "MI_Envi_QYDX_L2_01b_inside_05",
      "pbrMetallicRoughness" : {
        "baseColorFactor" : [ 0.3, 0.3, 0.3, 1.0 ],
        "metallicFactor" : 0.1,
        "roughnessFactor" : 0.5
      }
    }
  ],
  "meshes" : [
    {
      "primitives" : [
        {
          "attributes" : {
            "POSITION" : 1,
            "NORMAL" : 2,
            "TANGENT" : 3,
            "TEXCOORD_0" : 4,
            "TEXCOORD_1" : 5
          },
          "indices" : 0,
          "material" : 0
        }
      ],
      "name" : "S_Envi_QYDX_Object_01"
    }
  ],
  "buffers" : [
    {
      "uri" : "S_Envi_QYDX_Object_01.bin",
      "byteLength" : 26956
    }
  ],
  "bufferViews" : [
    {
      "buffer" : 0,
      "byteOffset" : 0,
      "byteLength" : 1644
    },
    {
      "buffer" : 0,
      "byteOffset" : 1644,
      "byteLength" : 5424
    },
    {
      "buffer" : 0,
      "byteOffset" : 7068,
      "byteLength" : 5424
    },
    {
      "buffer" : 0,
      "byteOffset" : 12492,
      "byteLength" : 7232
    },
    {
      "buffer" : 0,
      "byteOffset" : 19724,
      "byteLength" : 3616
    },
    {
      "buffer" : 0,
      "byteOffset" : 23340,
      "byteLength" : 3616
    }
  ],
  "accessors" : [
    {
      "bufferView" : 0,
      "componentType" : 5123,
      "count" : 822,
      "type" : "SCALAR"
    },
    {
      "bufferView" : 1,
      "min" : [ -1.12869, 0, -0.485307 ],
      "max" : [ 0.935188, 2.82667, 0.381961 ],
      "componentType" : 5126,
      "count" : 452,
      "type" : "VEC3"
    },
    {
      "bufferView" : 2,
      "componentType" : 5126,
      "count" : 452,
      "type" : "VEC3"
    },
    {
      "bufferView" : 3,
      "componentType" : 5126,
      "count" : 452,
      "type" : "VEC4"
    },
    {
      "bufferView" : 4,
      "componentType" : 5126,
      "count" : 452,
      "type" : "VEC2"
    },
    {
      "bufferView" : 5,
      "componentType" : 5126,
      "count" : 452,
      "type" : "VEC2"
    }
  ]
}
