{
  "asset" : {
    "generator" : "UE Viewer (umodel) build 1579 based",
    "version" : "2.0"
  },
  "scene" : 0,
  "scenes" : [
    {
      "nodes" : [ 0 ]
    }
  ],
  "nodes" : [
    {
      "name" : "SK_Weap_FAMAS_104",
      "mesh" : 0,
      "skin" : 0,
      "children" : [ 1 ]
    },
    {
      "name" : "Root",
      "children" : [ 2, 3, 4, 5, 6, 7, 8, 9, 10 ],
      "translation" : [ 0, 0, 0 ],
      "rotation" : [ 2.46905e-06, 4.70933e-12, 1.90735e-06, 1 ]
    },
    {
      "name" : "Suppressor",
      "translation" : [ 2.34023e-07, 0.0613534, 0.509238 ],
      "rotation" : [ 2.6226e-06, -5.5908e-09, 1.89617e-06, -1 ]
    },
    {
      "name" : "Sight",
      "translation" : [ 6.85975e-07, 0.179825, 0.106394 ],
      "rotation" : [ 2.7069e-06, -5.20335e-12, 1.92226e-06, -1 ]
    },
    {
      "name" : "Magazine",
      "translation" : [ -7.57724e-08, -0.0198572, -0.0616787 ],
      "rotation" : [ 3.03551e-06, -5.78978e-12, 1.90735e-06, -1 ]
    },
    {
      "name" : "Foregrip",
      "translation" : [ -6.28829e-08, -0.0164749, 0.261111 ],
      "rotation" : [ 3.93566e-06, -7.50668e-12, 1.90735e-06, -1 ]
    },
    {
      "name" : "ShellDrop",
      "translation" : [ -0.0171149, 0.0727082, -0.0703651 ],
      "rotation" : [ 1.91531e-06, -1, -2.6226e-06, -4.37064e-08 ]
    },
    {
      "name" : "Throw",
      "translation" : [ -0.0171149, 0.0727082, -0.0703651 ],
      "rotation" : [ 2.6226e-06, -4.05712e-09, 1.91531e-06, -1 ]
    },
    {
      "name" : "Muzzle",
      "translation" : [ 2.15892e-07, 0.0628665, 0.547103 ],
      "rotation" : [ 2.63741e-06, 0.707107, -3.43174e-06, -0.707107 ]
    },
    {
      "name" : "Pull",
      "translation" : [ 3.9248e-07, 0.102887, 0.164481 ],
      "rotation" : [ 2.6226e-06, -4.98674e-12, 1.90144e-06, -1 ]
    },
    {
      "name" : "Pendant_01",
      "translation" : [ -0.0183847, 0.0287578, -0.0682497 ],
      "rotation" : [ 2.38419e-06, -4.54747e-12, 1.90735e-06, -1 ]
    }
  ],
  "skins" : [
    {
      "inverseBindMatrices" : 0,
      "skeleton" : 1,
      "joints" : [
        1,2,3,4,5,6,7,8,9,10
      ]
    }
  ],
  "materials" : [
    {
      "name" : "MI_Weap_FAMAS_02_104",
      "pbrMetallicRoughness" : {
        "baseColorFactor" : [ 0.3, 0.3, 0.3, 1.0 ],
        "metallicFactor" : 0.1,
        "roughnessFactor" : 0.5
      }
    },
    {
      "name" : "MI_Weap_FAMAS_01_104",
      "pbrMetallicRoughness" : {
        "baseColorFactor" : [ 0.9, 0.3, 0.3, 1.0 ],
        "metallicFactor" : 0.1,
        "roughnessFactor" : 0.5
      }
    }
  ],
  "meshes" : [
    {
      "primitives" : [
        {
          "attributes" : {
            "POSITION" : 2,
            "NORMAL" : 3,
            "TANGENT" : 4,
            "JOINTS_0" : 5,
            "WEIGHTS_0" : 6,
            "TEXCOORD_0" : 7
          },
          "indices" : 1,
          "material" : 0
        },
        {
          "attributes" : {
            "POSITION" : 9,
            "NORMAL" : 10,
            "TANGENT" : 11,
            "JOINTS_0" : 12,
            "WEIGHTS_0" : 13,
            "TEXCOORD_0" : 14
          },
          "indices" : 8,
          "material" : 1
        }
      ],
      "name" : "SK_Weap_FAMAS_104"
    }
  ],
  "buffers" : [
    {
      "uri" : "SK_Weap_FAMAS_104.bin",
      "byteLength" : 488176
    }
  ],
  "bufferViews" : [
    {
      "buffer" : 0,
      "byteOffset" : 0,
      "byteLength" : 640
    },
    {
      "buffer" : 0,
      "byteOffset" : 640,
      "byteLength" : 3396
    },
    {
      "buffer" : 0,
      "byteOffset" : 4036,
      "byteLength" : 6324
    },
    {
      "buffer" : 0,
      "byteOffset" : 10360,
      "byteLength" : 6324
    },
    {
      "buffer" : 0,
      "byteOffset" : 16684,
      "byteLength" : 8432
    },
    {
      "buffer" : 0,
      "byteOffset" : 25116,
      "byteLength" : 4216
    },
    {
      "buffer" : 0,
      "byteOffset" : 29332,
      "byteLength" : 2108
    },
    {
      "buffer" : 0,
      "byteOffset" : 31440,
      "byteLength" : 4216
    },
    {
      "buffer" : 0,
      "byteOffset" : 35656,
      "byteLength" : 42180
    },
    {
      "buffer" : 0,
      "byteOffset" : 77836,
      "byteLength" : 82068
    },
    {
      "buffer" : 0,
      "byteOffset" : 159904,
      "byteLength" : 82068
    },
    {
      "buffer" : 0,
      "byteOffset" : 241972,
      "byteLength" : 109424
    },
    {
      "buffer" : 0,
      "byteOffset" : 351396,
      "byteLength" : 54712
    },
    {
      "buffer" : 0,
      "byteOffset" : 406108,
      "byteLength" : 27356
    },
    {
      "buffer" : 0,
      "byteOffset" : 433464,
      "byteLength" : 54712
    }
  ],
  "accessors" : [
    {
      "bufferView" : 0,
      "componentType" : 5126,
      "count" : 10,
      "type" : "MAT4"
    },
    {
      "bufferView" : 1,
      "componentType" : 5123,
      "count" : 1698,
      "type" : "SCALAR"
    },
    {
      "bufferView" : 2,
      "min" : [ -0.0172946, -0.0991732, -0.090666 ],
      "max" : [ 0.0172946, 0.0782952, 0.550999 ],
      "componentType" : 5126,
      "count" : 527,
      "type" : "VEC3"
    },
    {
      "bufferView" : 3,
      "componentType" : 5126,
      "count" : 527,
      "type" : "VEC3"
    },
    {
      "bufferView" : 4,
      "componentType" : 5126,
      "count" : 527,
      "type" : "VEC4"
    },
    {
      "bufferView" : 5,
      "componentType" : 5123,
      "count" : 527,
      "type" : "VEC4"
    },
    {
      "bufferView" : 6,
      "normalized" : true,
      "componentType" : 5121,
      "count" : 527,
      "type" : "VEC4"
    },
    {
      "bufferView" : 7,
      "componentType" : 5126,
      "count" : 527,
      "type" : "VEC2"
    },
    {
      "bufferView" : 8,
      "componentType" : 5123,
      "count" : 21090,
      "type" : "SCALAR"
    },
    {
      "bufferView" : 9,
      "min" : [ -0.0487916, -0.0848591, -0.200498 ],
      "max" : [ 0.0487916, 0.158115, 0.490639 ],
      "componentType" : 5126,
      "count" : 6839,
      "type" : "VEC3"
    },
    {
      "bufferView" : 10,
      "componentType" : 5126,
      "count" : 6839,
      "type" : "VEC3"
    },
    {
      "bufferView" : 11,
      "componentType" : 5126,
      "count" : 6839,
      "type" : "VEC4"
    },
    {
      "bufferView" : 12,
      "componentType" : 5123,
      "count" : 6839,
      "type" : "VEC4"
    },
    {
      "bufferView" : 13,
      "normalized" : true,
      "componentType" : 5121,
      "count" : 6839,
      "type" : "VEC4"
    },
    {
      "bufferView" : 14,
      "componentType" : 5126,
      "count" : 6839,
      "type" : "VEC2"
    }
  ]
}
