{
  "asset" : {
    "generator" : "UE Viewer (umodel) build 1579 based",
    "version" : "2.0"
  },
  "scene" : 0,
  "scenes" : [
    {
      "nodes" : [ 0 ]
    }
  ],
  "nodes" : [
    {
      "name" : "SK_Weap_P4",
      "mesh" : 0,
      "skin" : 0,
      "children" : [ 1 ]
    },
    {
      "name" : "root",
      "children" : [ 2, 3 ],
      "translation" : [ 0, 0.20548, 0 ],
      "rotation" : [ 3.06162e-17, -0, -0, 1 ]
    },
    {
      "name" : "up",
      "translation" : [ -0.00293544, 0.45773, 0.000524464 ],
      "rotation" : [ 0.506486, -0.490602, -0.502201, -0.500574 ]
    },
    {
      "name" : "down",
      "translation" : [ 0.00297759, -0.10173, 0.000481052 ],
      "rotation" : [ -0.185693, 0.674075, 0.689224, 0.190031 ]
    }
  ],
  "skins" : [
    {
      "inverseBindMatrices" : 0,
      "skeleton" : 1,
      "joints" : [
        1,2,3
      ]
    }
  ],
  "materials" : [
    {
      "name" : "MI_Weap_P4",
      "pbrMetallicRoughness" : {
        "baseColorFactor" : [ 0.3, 0.3, 0.3, 1.0 ],
        "metallicFactor" : 0.1,
        "roughnessFactor" : 0.5
      }
    },
    {
      "name" : "MI_Weap_P4_4",
      "pbrMetallicRoughness" : {
        "baseColorFactor" : [ 0.9, 0.3, 0.3, 1.0 ],
        "metallicFactor" : 0.1,
        "roughnessFactor" : 0.5
      }
    }
  ],
  "meshes" : [
    {
      "primitives" : [
        {
          "attributes" : {
            "POSITION" : 2,
            "NORMAL" : 3,
            "TANGENT" : 4,
            "JOINTS_0" : 5,
            "WEIGHTS_0" : 6,
            "TEXCOORD_0" : 7
          },
          "indices" : 1,
          "material" : 0
        },
        {
          "attributes" : {
            "POSITION" : 9,
            "NORMAL" : 10,
            "TANGENT" : 11,
            "JOINTS_0" : 12,
            "WEIGHTS_0" : 13,
            "TEXCOORD_0" : 14
          },
          "indices" : 8,
          "material" : 1
        }
      ],
      "name" : "SK_Weap_P4"
    }
  ],
  "buffers" : [
    {
      "uri" : "SK_Weap_P4.bin",
      "byteLength" : 160644
    }
  ],
  "bufferViews" : [
    {
      "buffer" : 0,
      "byteOffset" : 0,
      "byteLength" : 192
    },
    {
      "buffer" : 0,
      "byteOffset" : 192,
      "byteLength" : 10812
    },
    {
      "buffer" : 0,
      "byteOffset" : 11004,
      "byteLength" : 27312
    },
    {
      "buffer" : 0,
      "byteOffset" : 38316,
      "byteLength" : 27312
    },
    {
      "buffer" : 0,
      "byteOffset" : 65628,
      "byteLength" : 36416
    },
    {
      "buffer" : 0,
      "byteOffset" : 102044,
      "byteLength" : 18208
    },
    {
      "buffer" : 0,
      "byteOffset" : 120252,
      "byteLength" : 9104
    },
    {
      "buffer" : 0,
      "byteOffset" : 129356,
      "byteLength" : 18208
    },
    {
      "buffer" : 0,
      "byteOffset" : 147564,
      "byteLength" : 1560
    },
    {
      "buffer" : 0,
      "byteOffset" : 149124,
      "byteLength" : 2304
    },
    {
      "buffer" : 0,
      "byteOffset" : 151428,
      "byteLength" : 2304
    },
    {
      "buffer" : 0,
      "byteOffset" : 153732,
      "byteLength" : 3072
    },
    {
      "buffer" : 0,
      "byteOffset" : 156804,
      "byteLength" : 1536
    },
    {
      "buffer" : 0,
      "byteOffset" : 158340,
      "byteLength" : 768
    },
    {
      "buffer" : 0,
      "byteOffset" : 159108,
      "byteLength" : 1536
    }
  ],
  "accessors" : [
    {
      "bufferView" : 0,
      "componentType" : 5126,
      "count" : 3,
      "type" : "MAT4"
    },
    {
      "bufferView" : 1,
      "componentType" : 5123,
      "count" : 5406,
      "type" : "SCALAR"
    },
    {
      "bufferView" : 2,
      "min" : [ -0.131539, -0.00602823, -0.132414 ],
      "max" : [ 0.125059, 0.769443, 0.134913 ],
      "componentType" : 5126,
      "count" : 2276,
      "type" : "VEC3"
    },
    {
      "bufferView" : 3,
      "componentType" : 5126,
      "count" : 2276,
      "type" : "VEC3"
    },
    {
      "bufferView" : 4,
      "componentType" : 5126,
      "count" : 2276,
      "type" : "VEC4"
    },
    {
      "bufferView" : 5,
      "componentType" : 5123,
      "count" : 2276,
      "type" : "VEC4"
    },
    {
      "bufferView" : 6,
      "normalized" : true,
      "componentType" : 5121,
      "count" : 2276,
      "type" : "VEC4"
    },
    {
      "bufferView" : 7,
      "componentType" : 5126,
      "count" : 2276,
      "type" : "VEC2"
    },
    {
      "bufferView" : 8,
      "componentType" : 5123,
      "count" : 780,
      "type" : "SCALAR"
    },
    {
      "bufferView" : 9,
      "min" : [ -0.0749841, 0.0375621, -0.0708622 ],
      "max" : [ 0.068852, 0.726284, 0.0736963 ],
      "componentType" : 5126,
      "count" : 192,
      "type" : "VEC3"
    },
    {
      "bufferView" : 10,
      "componentType" : 5126,
      "count" : 192,
      "type" : "VEC3"
    },
    {
      "bufferView" : 11,
      "componentType" : 5126,
      "count" : 192,
      "type" : "VEC4"
    },
    {
      "bufferView" : 12,
      "componentType" : 5123,
      "count" : 192,
      "type" : "VEC4"
    },
    {
      "bufferView" : 13,
      "normalized" : true,
      "componentType" : 5121,
      "count" : 192,
      "type" : "VEC4"
    },
    {
      "bufferView" : 14,
      "componentType" : 5126,
      "count" : 192,
      "type" : "VEC2"
    }
  ]
}
