{
  "asset" : {
    "generator" : "UE Viewer (umodel) build 1579 based",
    "version" : "2.0"
  },
  "scene" : 0,
  "scenes" : [
    {
      "nodes" : [ 0 ]
    }
  ],
  "nodes" : [
    {
      "name" : "S_Envi_Common_Target_01a_1",
      "mesh" : 0,
      "skin" : 0,
      "children" : [ 1 ]
    },
    {
      "name" : "Root",
      "translation" : [ 0, 0, 0 ],
      "rotation" : [ -0, -0, -0, 1 ]
    }
  ],
  "skins" : [
    {
      "inverseBindMatrices" : 0,
      "skeleton" : 1,
      "joints" : [
        1
      ]
    }
  ],
  "materials" : [
    {
      "name" : "MI_S_Envi_Common_Target_01a_1",
      "pbrMetallicRoughness" : {
        "baseColorFactor" : [ 0.3, 0.3, 0.3, 1.0 ],
        "metallicFactor" : 0.1,
        "roughnessFactor" : 0.5
      }
    }
  ],
  "meshes" : [
    {
      "primitives" : [
        {
          "attributes" : {
            "POSITION" : 2,
            "NORMAL" : 3,
            "TANGENT" : 4,
            "JOINTS_0" : 5,
            "WEIGHTS_0" : 6,
            "TEXCOORD_0" : 7
          },
          "indices" : 1,
          "material" : 0
        }
      ],
      "name" : "S_Envi_Common_Target_01a_1"
    }
  ],
  "buffers" : [
    {
      "uri" : "S_Envi_Common_Target_01a_1.bin",
      "byteLength" : 80320
    }
  ],
  "bufferViews" : [
    {
      "buffer" : 0,
      "byteOffset" : 0,
      "byteLength" : 64
    },
    {
      "buffer" : 0,
      "byteOffset" : 64,
      "byteLength" : 6216
    },
    {
      "buffer" : 0,
      "byteOffset" : 6280,
      "byteLength" : 14808
    },
    {
      "buffer" : 0,
      "byteOffset" : 21088,
      "byteLength" : 14808
    },
    {
      "buffer" : 0,
      "byteOffset" : 35896,
      "byteLength" : 19744
    },
    {
      "buffer" : 0,
      "byteOffset" : 55640,
      "byteLength" : 9872
    },
    {
      "buffer" : 0,
      "byteOffset" : 65512,
      "byteLength" : 4936
    },
    {
      "buffer" : 0,
      "byteOffset" : 70448,
      "byteLength" : 9872
    }
  ],
  "accessors" : [
    {
      "bufferView" : 0,
      "componentType" : 5126,
      "count" : 1,
      "type" : "MAT4"
    },
    {
      "bufferView" : 1,
      "componentType" : 5123,
      "count" : 3108,
      "type" : "SCALAR"
    },
    {
      "bufferView" : 2,
      "min" : [ -3.20451, -0.00769482, -1.5421 ],
      "max" : [ 3.20451, 2.43154, 1.5421 ],
      "componentType" : 5126,
      "count" : 1234,
      "type" : "VEC3"
    },
    {
      "bufferView" : 3,
      "componentType" : 5126,
      "count" : 1234,
      "type" : "VEC3"
    },
    {
      "bufferView" : 4,
      "componentType" : 5126,
      "count" : 1234,
      "type" : "VEC4"
    },
    {
      "bufferView" : 5,
      "componentType" : 5123,
      "count" : 1234,
      "type" : "VEC4"
    },
    {
      "bufferView" : 6,
      "normalized" : true,
      "componentType" : 5121,
      "count" : 1234,
      "type" : "VEC4"
    },
    {
      "bufferView" : 7,
      "componentType" : 5126,
      "count" : 1234,
      "type" : "VEC2"
    }
  ]
}
