{
  "asset" : {
    "generator" : "UE Viewer (umodel) build 1579 based",
    "version" : "2.0"
  },
  "scene" : 0,
  "scenes" : [
    {
      "nodes" : [ 0 ]
    }
  ],
  "nodes" : [
    {
      "name" : "S_Envi_Jdhcz_Stage_02",
      "mesh" : 0
    }
  ],
  "materials" : [
    {
      "name" : "MI_Envi_Jdhcz_Stage_02",
      "pbrMetallicRoughness" : {
        "baseColorFactor" : [ 0.3, 0.3, 0.3, 1.0 ],
        "metallicFactor" : 0.1,
        "roughnessFactor" : 0.5
      }
    },
    {
      "name" : "MI_PM_Ground_WetDirt_02",
      "pbrMetallicRoughness" : {
        "baseColorFactor" : [ 0.9, 0.3, 0.3, 1.0 ],
        "metallicFactor" : 0.1,
        "roughnessFactor" : 0.5
      }
    }
  ],
  "meshes" : [
    {
      "primitives" : [
        {
          "attributes" : {
            "POSITION" : 1,
            "NORMAL" : 2,
            "TANGENT" : 3,
            "TEXCOORD_0" : 4,
            "TEXCOORD_1" : 5
          },
          "indices" : 0,
          "material" : 0
        },
        {
          "attributes" : {
            "POSITION" : 7,
            "NORMAL" : 8,
            "TANGENT" : 9,
            "TEXCOORD_0" : 10,
            "TEXCOORD_1" : 11
          },
          "indices" : 6,
          "material" : 1
        }
      ],
      "name" : "S_Envi_Jdhcz_Stage_02"
    }
  ],
  "buffers" : [
    {
      "uri" : "S_Envi_Jdhcz_Stage_02.bin",
      "byteLength" : 15652
    }
  ],
  "bufferViews" : [
    {
      "buffer" : 0,
      "byteOffset" : 0,
      "byteLength" : 540
    },
    {
      "buffer" : 0,
      "byteOffset" : 540,
      "byteLength" : 1704
    },
    {
      "buffer" : 0,
      "byteOffset" : 2244,
      "byteLength" : 1704
    },
    {
      "buffer" : 0,
      "byteOffset" : 3948,
      "byteLength" : 2272
    },
    {
      "buffer" : 0,
      "byteOffset" : 6220,
      "byteLength" : 1136
    },
    {
      "buffer" : 0,
      "byteOffset" : 7356,
      "byteLength" : 1136
    },
    {
      "buffer" : 0,
      "byteOffset" : 8492,
      "byteLength" : 1224
    },
    {
      "buffer" : 0,
      "byteOffset" : 9716,
      "byteLength" : 1272
    },
    {
      "buffer" : 0,
      "byteOffset" : 10988,
      "byteLength" : 1272
    },
    {
      "buffer" : 0,
      "byteOffset" : 12260,
      "byteLength" : 1696
    },
    {
      "buffer" : 0,
      "byteOffset" : 13956,
      "byteLength" : 848
    },
    {
      "buffer" : 0,
      "byteOffset" : 14804,
      "byteLength" : 848
    }
  ],
  "accessors" : [
    {
      "bufferView" : 0,
      "componentType" : 5123,
      "count" : 270,
      "type" : "SCALAR"
    },
    {
      "bufferView" : 1,
      "min" : [ -0.425101, -3.35966e-07, -1.11805 ],
      "max" : [ 0.425101, 0.630453, 1.11805 ],
      "componentType" : 5126,
      "count" : 142,
      "type" : "VEC3"
    },
    {
      "bufferView" : 2,
      "componentType" : 5126,
      "count" : 142,
      "type" : "VEC3"
    },
    {
      "bufferView" : 3,
      "componentType" : 5126,
      "count" : 142,
      "type" : "VEC4"
    },
    {
      "bufferView" : 4,
      "componentType" : 5126,
      "count" : 142,
      "type" : "VEC2"
    },
    {
      "bufferView" : 5,
      "componentType" : 5126,
      "count" : 142,
      "type" : "VEC2"
    },
    {
      "bufferView" : 6,
      "componentType" : 5123,
      "count" : 612,
      "type" : "SCALAR"
    },
    {
      "bufferView" : 7,
      "min" : [ -0.383643, 0.499146, -1.02993 ],
      "max" : [ 0.383643, 0.626704, 1.02993 ],
      "componentType" : 5126,
      "count" : 106,
      "type" : "VEC3"
    },
    {
      "bufferView" : 8,
      "componentType" : 5126,
      "count" : 106,
      "type" : "VEC3"
    },
    {
      "bufferView" : 9,
      "componentType" : 5126,
      "count" : 106,
      "type" : "VEC4"
    },
    {
      "bufferView" : 10,
      "componentType" : 5126,
      "count" : 106,
      "type" : "VEC2"
    },
    {
      "bufferView" : 11,
      "componentType" : 5126,
      "count" : 106,
      "type" : "VEC2"
    }
  ]
}
