{
  "asset" : {
    "generator" : "UE Viewer (umodel) build 1579 based",
    "version" : "2.0"
  },
  "scene" : 0,
  "scenes" : [
    {
      "nodes" : [ 0 ]
    }
  ],
  "nodes" : [
    {
      "name" : "S_Envi_Jdhcz_Table_01",
      "mesh" : 0
    }
  ],
  "materials" : [
    {
      "name" : "MI_Envi_Jdhcz_Table_01",
      "pbrMetallicRoughness" : {
        "baseColorFactor" : [ 0.3, 0.3, 0.3, 1.0 ],
        "metallicFactor" : 0.1,
        "roughnessFactor" : 0.5
      }
    }
  ],
  "meshes" : [
    {
      "primitives" : [
        {
          "attributes" : {
            "POSITION" : 1,
            "NORMAL" : 2,
            "TANGENT" : 3,
            "TEXCOORD_0" : 4,
            "TEXCOORD_1" : 5
          },
          "indices" : 0,
          "material" : 0
        }
      ],
      "name" : "S_Envi_Jdhcz_Table_01"
    }
  ],
  "buffers" : [
    {
      "uri" : "S_Envi_Jdhcz_Table_01.bin",
      "byteLength" : 14344
    }
  ],
  "bufferViews" : [
    {
      "buffer" : 0,
      "byteOffset" : 0,
      "byteLength" : 792
    },
    {
      "buffer" : 0,
      "byteOffset" : 792,
      "byteLength" : 2904
    },
    {
      "buffer" : 0,
      "byteOffset" : 3696,
      "byteLength" : 2904
    },
    {
      "buffer" : 0,
      "byteOffset" : 6600,
      "byteLength" : 3872
    },
    {
      "buffer" : 0,
      "byteOffset" : 10472,
      "byteLength" : 1936
    },
    {
      "buffer" : 0,
      "byteOffset" : 12408,
      "byteLength" : 1936
    }
  ],
  "accessors" : [
    {
      "bufferView" : 0,
      "componentType" : 5123,
      "count" : 396,
      "type" : "SCALAR"
    },
    {
      "bufferView" : 1,
      "min" : [ -0.49904, -6.2426e-08, -1.5 ],
      "max" : [ 0.49904, 0.545034, 1.5 ],
      "componentType" : 5126,
      "count" : 242,
      "type" : "VEC3"
    },
    {
      "bufferView" : 2,
      "componentType" : 5126,
      "count" : 242,
      "type" : "VEC3"
    },
    {
      "bufferView" : 3,
      "componentType" : 5126,
      "count" : 242,
      "type" : "VEC4"
    },
    {
      "bufferView" : 4,
      "componentType" : 5126,
      "count" : 242,
      "type" : "VEC2"
    },
    {
      "bufferView" : 5,
      "componentType" : 5126,
      "count" : 242,
      "type" : "VEC2"
    }
  ]
}
