{
  "asset" : {
    "generator" : "UE Viewer (umodel) build 1579 based",
    "version" : "2.0"
  },
  "scene" : 0,
  "scenes" : [
    {
      "nodes" : [ 0 ]
    }
  ],
  "nodes" : [
    {
      "name" : "S_Envi_Jdhcz_Trash_02",
      "mesh" : 0
    }
  ],
  "materials" : [
    {
      "name" : "MI_Envi_Jdhcz_Trash_02",
      "pbrMetallicRoughness" : {
        "baseColorFactor" : [ 0.3, 0.3, 0.3, 1.0 ],
        "metallicFactor" : 0.1,
        "roughnessFactor" : 0.5
      }
    }
  ],
  "meshes" : [
    {
      "primitives" : [
        {
          "attributes" : {
            "POSITION" : 1,
            "NORMAL" : 2,
            "TANGENT" : 3,
            "TEXCOORD_0" : 4,
            "TEXCOORD_1" : 5
          },
          "indices" : 0,
          "material" : 0
        }
      ],
      "name" : "S_Envi_Jdhcz_Trash_02"
    }
  ],
  "buffers" : [
    {
      "uri" : "S_Envi_Jdhcz_Trash_02.bin",
      "byteLength" : 13176
    }
  ],
  "bufferViews" : [
    {
      "buffer" : 0,
      "byteOffset" : 0,
      "byteLength" : 912
    },
    {
      "buffer" : 0,
      "byteOffset" : 912,
      "byteLength" : 2628
    },
    {
      "buffer" : 0,
      "byteOffset" : 3540,
      "byteLength" : 2628
    },
    {
      "buffer" : 0,
      "byteOffset" : 6168,
      "byteLength" : 3504
    },
    {
      "buffer" : 0,
      "byteOffset" : 9672,
      "byteLength" : 1752
    },
    {
      "buffer" : 0,
      "byteOffset" : 11424,
      "byteLength" : 1752
    }
  ],
  "accessors" : [
    {
      "bufferView" : 0,
      "componentType" : 5123,
      "count" : 456,
      "type" : "SCALAR"
    },
    {
      "bufferView" : 1,
      "min" : [ -0.25, -0.000805, -0.154435 ],
      "max" : [ 0.25, 0.899195, 0.154435 ],
      "componentType" : 5126,
      "count" : 219,
      "type" : "VEC3"
    },
    {
      "bufferView" : 2,
      "componentType" : 5126,
      "count" : 219,
      "type" : "VEC3"
    },
    {
      "bufferView" : 3,
      "componentType" : 5126,
      "count" : 219,
      "type" : "VEC4"
    },
    {
      "bufferView" : 4,
      "componentType" : 5126,
      "count" : 219,
      "type" : "VEC2"
    },
    {
      "bufferView" : 5,
      "componentType" : 5126,
      "count" : 219,
      "type" : "VEC2"
    }
  ]
}
