{
  "asset" : {
    "generator" : "UE Viewer (umodel) build 1579 based",
    "version" : "2.0"
  },
  "scene" : 0,
  "scenes" : [
    {
      "nodes" : [ 0 ]
    }
  ],
  "nodes" : [
    {
      "name" : "SK_Weap_HKG3_Sight_105",
      "mesh" : 0,
      "skin" : 0,
      "children" : [ 1 ]
    },
    {
      "name" : "Root",
      "translation" : [ 0, 0, 0 ],
      "rotation" : [ -7.15256e-07, -0, -0, 1 ]
    }
  ],
  "skins" : [
    {
      "inverseBindMatrices" : 0,
      "skeleton" : 1,
      "joints" : [
        1
      ]
    }
  ],
  "materials" : [
    {
      "name" : "MI_Weap_HKG3_02_105",
      "pbrMetallicRoughness" : {
        "baseColorFactor" : [ 0.3, 0.3, 0.3, 1.0 ],
        "metallicFactor" : 0.1,
        "roughnessFactor" : 0.5
      }
    }
  ],
  "meshes" : [
    {
      "primitives" : [
        {
          "attributes" : {
            "POSITION" : 2,
            "NORMAL" : 3,
            "TANGENT" : 4,
            "JOINTS_0" : 5,
            "WEIGHTS_0" : 6,
            "TEXCOORD_0" : 7
          },
          "indices" : 1,
          "material" : 0
        }
      ],
      "name" : "SK_Weap_HKG3_Sight_105"
    }
  ],
  "buffers" : [
    {
      "uri" : "SK_Weap_HKG3_Sight_105.bin",
      "byteLength" : 84724
    }
  ],
  "bufferViews" : [
    {
      "buffer" : 0,
      "byteOffset" : 0,
      "byteLength" : 64
    },
    {
      "buffer" : 0,
      "byteOffset" : 64,
      "byteLength" : 7620
    },
    {
      "buffer" : 0,
      "byteOffset" : 7684,
      "byteLength" : 15408
    },
    {
      "buffer" : 0,
      "byteOffset" : 23092,
      "byteLength" : 15408
    },
    {
      "buffer" : 0,
      "byteOffset" : 38500,
      "byteLength" : 20544
    },
    {
      "buffer" : 0,
      "byteOffset" : 59044,
      "byteLength" : 10272
    },
    {
      "buffer" : 0,
      "byteOffset" : 69316,
      "byteLength" : 5136
    },
    {
      "buffer" : 0,
      "byteOffset" : 74452,
      "byteLength" : 10272
    }
  ],
  "accessors" : [
    {
      "bufferView" : 0,
      "componentType" : 5126,
      "count" : 1,
      "type" : "MAT4"
    },
    {
      "bufferView" : 1,
      "componentType" : 5123,
      "count" : 3810,
      "type" : "SCALAR"
    },
    {
      "bufferView" : 2,
      "min" : [ -0.027485, -0.0636652, -0.0904203 ],
      "max" : [ 0.027485, 0.0276049, 0.0842388 ],
      "componentType" : 5126,
      "count" : 1284,
      "type" : "VEC3"
    },
    {
      "bufferView" : 3,
      "componentType" : 5126,
      "count" : 1284,
      "type" : "VEC3"
    },
    {
      "bufferView" : 4,
      "componentType" : 5126,
      "count" : 1284,
      "type" : "VEC4"
    },
    {
      "bufferView" : 5,
      "componentType" : 5123,
      "count" : 1284,
      "type" : "VEC4"
    },
    {
      "bufferView" : 6,
      "normalized" : true,
      "componentType" : 5121,
      "count" : 1284,
      "type" : "VEC4"
    },
    {
      "bufferView" : 7,
      "componentType" : 5126,
      "count" : 1284,
      "type" : "VEC2"
    }
  ]
}
