{
  "asset" : {
    "generator" : "UE Viewer (umodel) build 1579 based",
    "version" : "2.0"
  },
  "scene" : 0,
  "scenes" : [
    {
      "nodes" : [ 0 ]
    }
  ],
  "nodes" : [
    {
      "name" : "S_Envi_Umeda_Base_Ground_02a",
      "mesh" : 0
    }
  ],
  "materials" : [
    {
      "name" : "MI_Envi_Floor_01b",
      "pbrMetallicRoughness" : {
        "baseColorFactor" : [ 0.3, 0.3, 0.3, 1.0 ],
        "metallicFactor" : 0.1,
        "roughnessFactor" : 0.5
      }
    },
    {
      "name" : "MI_Envi_Umeda_Module_06_B",
      "pbrMetallicRoughness" : {
        "baseColorFactor" : [ 0.9, 0.3, 0.3, 1.0 ],
        "metallicFactor" : 0.1,
        "roughnessFactor" : 0.5
      }
    },
    {
      "name" : "MI_Envi_Umeda_Base_Ground_02d",
      "pbrMetallicRoughness" : {
        "baseColorFactor" : [ 0.3, 0.9, 0.3, 1.0 ],
        "metallicFactor" : 0.1,
        "roughnessFactor" : 0.5
      }
    }
  ],
  "meshes" : [
    {
      "primitives" : [
        {
          "attributes" : {
            "POSITION" : 1,
            "NORMAL" : 2,
            "TANGENT" : 3,
            "TEXCOORD_0" : 4,
            "TEXCOORD_1" : 5,
            "TEXCOORD_2" : 6,
            "TEXCOORD_3" : 7
          },
          "indices" : 0,
          "material" : 0
        },
        {
          "attributes" : {
            "POSITION" : 9,
            "NORMAL" : 10,
            "TANGENT" : 11,
            "TEXCOORD_0" : 12,
            "TEXCOORD_1" : 13,
            "TEXCOORD_2" : 14,
            "TEXCOORD_3" : 15
          },
          "indices" : 8,
          "material" : 1
        },
        {
          "attributes" : {
            "POSITION" : 17,
            "NORMAL" : 18,
            "TANGENT" : 19,
            "TEXCOORD_0" : 20,
            "TEXCOORD_1" : 21,
            "TEXCOORD_2" : 22,
            "TEXCOORD_3" : 23
          },
          "indices" : 16,
          "material" : 2
        }
      ],
      "name" : "S_Envi_Umeda_Base_Ground_02a"
    }
  ],
  "buffers" : [
    {
      "uri" : "S_Envi_Umeda_Base_Ground_02a.bin",
      "byteLength" : 62740
    }
  ],
  "bufferViews" : [
    {
      "buffer" : 0,
      "byteOffset" : 0,
      "byteLength" : 860
    },
    {
      "buffer" : 0,
      "byteOffset" : 860,
      "byteLength" : 1956
    },
    {
      "buffer" : 0,
      "byteOffset" : 2816,
      "byteLength" : 1956
    },
    {
      "buffer" : 0,
      "byteOffset" : 4772,
      "byteLength" : 2608
    },
    {
      "buffer" : 0,
      "byteOffset" : 7380,
      "byteLength" : 1304
    },
    {
      "buffer" : 0,
      "byteOffset" : 8684,
      "byteLength" : 1304
    },
    {
      "buffer" : 0,
      "byteOffset" : 9988,
      "byteLength" : 1304
    },
    {
      "buffer" : 0,
      "byteOffset" : 11292,
      "byteLength" : 1304
    },
    {
      "buffer" : 0,
      "byteOffset" : 12596,
      "byteLength" : 1728
    },
    {
      "buffer" : 0,
      "byteOffset" : 14324,
      "byteLength" : 6480
    },
    {
      "buffer" : 0,
      "byteOffset" : 20804,
      "byteLength" : 6480
    },
    {
      "buffer" : 0,
      "byteOffset" : 27284,
      "byteLength" : 8640
    },
    {
      "buffer" : 0,
      "byteOffset" : 35924,
      "byteLength" : 4320
    },
    {
      "buffer" : 0,
      "byteOffset" : 40244,
      "byteLength" : 4320
    },
    {
      "buffer" : 0,
      "byteOffset" : 44564,
      "byteLength" : 4320
    },
    {
      "buffer" : 0,
      "byteOffset" : 48884,
      "byteLength" : 4320
    },
    {
      "buffer" : 0,
      "byteOffset" : 53204,
      "byteLength" : 608
    },
    {
      "buffer" : 0,
      "byteOffset" : 53812,
      "byteLength" : 1488
    },
    {
      "buffer" : 0,
      "byteOffset" : 55300,
      "byteLength" : 1488
    },
    {
      "buffer" : 0,
      "byteOffset" : 56788,
      "byteLength" : 1984
    },
    {
      "buffer" : 0,
      "byteOffset" : 58772,
      "byteLength" : 992
    },
    {
      "buffer" : 0,
      "byteOffset" : 59764,
      "byteLength" : 992
    },
    {
      "buffer" : 0,
      "byteOffset" : 60756,
      "byteLength" : 992
    },
    {
      "buffer" : 0,
      "byteOffset" : 61748,
      "byteLength" : 992
    }
  ],
  "accessors" : [
    {
      "bufferView" : 0,
      "componentType" : 5123,
      "count" : 429,
      "type" : "SCALAR"
    },
    {
      "bufferView" : 1,
      "min" : [ -8.96156, 0.00639343, 0.145938 ],
      "max" : [ 34.095, 0.00760895, 12.653 ],
      "componentType" : 5126,
      "count" : 163,
      "type" : "VEC3"
    },
    {
      "bufferView" : 2,
      "componentType" : 5126,
      "count" : 163,
      "type" : "VEC3"
    },
    {
      "bufferView" : 3,
      "componentType" : 5126,
      "count" : 163,
      "type" : "VEC4"
    },
    {
      "bufferView" : 4,
      "componentType" : 5126,
      "count" : 163,
      "type" : "VEC2"
    },
    {
      "bufferView" : 5,
      "componentType" : 5126,
      "count" : 163,
      "type" : "VEC2"
    },
    {
      "bufferView" : 6,
      "componentType" : 5126,
      "count" : 163,
      "type" : "VEC2"
    },
    {
      "bufferView" : 7,
      "componentType" : 5126,
      "count" : 163,
      "type" : "VEC2"
    },
    {
      "bufferView" : 8,
      "componentType" : 5123,
      "count" : 864,
      "type" : "SCALAR"
    },
    {
      "bufferView" : 9,
      "min" : [ -8.96299, -0.0533154, -0.00194249 ],
      "max" : [ 34.169, 0.00761093, 12.7401 ],
      "componentType" : 5126,
      "count" : 540,
      "type" : "VEC3"
    },
    {
      "bufferView" : 10,
      "componentType" : 5126,
      "count" : 540,
      "type" : "VEC3"
    },
    {
      "bufferView" : 11,
      "componentType" : 5126,
      "count" : 540,
      "type" : "VEC4"
    },
    {
      "bufferView" : 12,
      "componentType" : 5126,
      "count" : 540,
      "type" : "VEC2"
    },
    {
      "bufferView" : 13,
      "componentType" : 5126,
      "count" : 540,
      "type" : "VEC2"
    },
    {
      "bufferView" : 14,
      "componentType" : 5126,
      "count" : 540,
      "type" : "VEC2"
    },
    {
      "bufferView" : 15,
      "componentType" : 5126,
      "count" : 540,
      "type" : "VEC2"
    },
    {
      "bufferView" : 16,
      "componentType" : 5123,
      "count" : 303,
      "type" : "SCALAR"
    },
    {
      "bufferView" : 17,
      "min" : [ -9.06377, -0.00837708, 0.491883 ],
      "max" : [ 38.1178, -0.00837646, 22.8509 ],
      "componentType" : 5126,
      "count" : 124,
      "type" : "VEC3"
    },
    {
      "bufferView" : 18,
      "componentType" : 5126,
      "count" : 124,
      "type" : "VEC3"
    },
    {
      "bufferView" : 19,
      "componentType" : 5126,
      "count" : 124,
      "type" : "VEC4"
    },
    {
      "bufferView" : 20,
      "componentType" : 5126,
      "count" : 124,
      "type" : "VEC2"
    },
    {
      "bufferView" : 21,
      "componentType" : 5126,
      "count" : 124,
      "type" : "VEC2"
    },
    {
      "bufferView" : 22,
      "componentType" : 5126,
      "count" : 124,
      "type" : "VEC2"
    },
    {
      "bufferView" : 23,
      "componentType" : 5126,
      "count" : 124,
      "type" : "VEC2"
    }
  ]
}
