{
  "asset" : {
    "generator" : "UE Viewer (umodel) build 1579 based",
    "version" : "2.0"
  },
  "scene" : 0,
  "scenes" : [
    {
      "nodes" : [ 0 ]
    }
  ],
  "nodes" : [
    {
      "name" : "S_Envi_Umeda_Ground_10e",
      "mesh" : 0
    }
  ],
  "materials" : [
    {
      "name" : "MI_Envi_commontrim_03",
      "pbrMetallicRoughness" : {
        "baseColorFactor" : [ 0.3, 0.3, 0.3, 1.0 ],
        "metallicFactor" : 0.1,
        "roughnessFactor" : 0.5
      }
    },
    {
      "name" : "MI_Envi_Umeda_Base_Ground_02d",
      "pbrMetallicRoughness" : {
        "baseColorFactor" : [ 0.9, 0.3, 0.3, 1.0 ],
        "metallicFactor" : 0.1,
        "roughnessFactor" : 0.5
      }
    },
    {
      "name" : "MI_Envi_commontrim_07b",
      "pbrMetallicRoughness" : {
        "baseColorFactor" : [ 0.3, 0.9, 0.3, 1.0 ],
        "metallicFactor" : 0.1,
        "roughnessFactor" : 0.5
      }
    }
  ],
  "meshes" : [
    {
      "primitives" : [
        {
          "attributes" : {
            "POSITION" : 1,
            "NORMAL" : 2,
            "TANGENT" : 3,
            "TEXCOORD_0" : 4,
            "TEXCOORD_1" : 5,
            "TEXCOORD_2" : 6,
            "TEXCOORD_3" : 7
          },
          "indices" : 0,
          "material" : 0
        },
        {
          "attributes" : {
            "POSITION" : 9,
            "NORMAL" : 10,
            "TANGENT" : 11,
            "TEXCOORD_0" : 12,
            "TEXCOORD_1" : 13,
            "TEXCOORD_2" : 14,
            "TEXCOORD_3" : 15
          },
          "indices" : 8,
          "material" : 1
        },
        {
          "attributes" : {
            "POSITION" : 17,
            "NORMAL" : 18,
            "TANGENT" : 19,
            "TEXCOORD_0" : 20,
            "TEXCOORD_1" : 21,
            "TEXCOORD_2" : 22,
            "TEXCOORD_3" : 23
          },
          "indices" : 16,
          "material" : 2
        }
      ],
      "name" : "S_Envi_Umeda_Ground_10e"
    }
  ],
  "buffers" : [
    {
      "uri" : "S_Envi_Umeda_Ground_10e.bin",
      "byteLength" : 165148
    }
  ],
  "bufferViews" : [
    {
      "buffer" : 0,
      "byteOffset" : 0,
      "byteLength" : 5784
    },
    {
      "buffer" : 0,
      "byteOffset" : 5784,
      "byteLength" : 19716
    },
    {
      "buffer" : 0,
      "byteOffset" : 25500,
      "byteLength" : 19716
    },
    {
      "buffer" : 0,
      "byteOffset" : 45216,
      "byteLength" : 26288
    },
    {
      "buffer" : 0,
      "byteOffset" : 71504,
      "byteLength" : 13144
    },
    {
      "buffer" : 0,
      "byteOffset" : 84648,
      "byteLength" : 13144
    },
    {
      "buffer" : 0,
      "byteOffset" : 97792,
      "byteLength" : 13144
    },
    {
      "buffer" : 0,
      "byteOffset" : 110936,
      "byteLength" : 13144
    },
    {
      "buffer" : 0,
      "byteOffset" : 124080,
      "byteLength" : 476
    },
    {
      "buffer" : 0,
      "byteOffset" : 124556,
      "byteLength" : 1812
    },
    {
      "buffer" : 0,
      "byteOffset" : 126368,
      "byteLength" : 1812
    },
    {
      "buffer" : 0,
      "byteOffset" : 128180,
      "byteLength" : 2416
    },
    {
      "buffer" : 0,
      "byteOffset" : 130596,
      "byteLength" : 1208
    },
    {
      "buffer" : 0,
      "byteOffset" : 131804,
      "byteLength" : 1208
    },
    {
      "buffer" : 0,
      "byteOffset" : 133012,
      "byteLength" : 1208
    },
    {
      "buffer" : 0,
      "byteOffset" : 134220,
      "byteLength" : 1208
    },
    {
      "buffer" : 0,
      "byteOffset" : 135428,
      "byteLength" : 1856
    },
    {
      "buffer" : 0,
      "byteOffset" : 137284,
      "byteLength" : 4644
    },
    {
      "buffer" : 0,
      "byteOffset" : 141928,
      "byteLength" : 4644
    },
    {
      "buffer" : 0,
      "byteOffset" : 146572,
      "byteLength" : 6192
    },
    {
      "buffer" : 0,
      "byteOffset" : 152764,
      "byteLength" : 3096
    },
    {
      "buffer" : 0,
      "byteOffset" : 155860,
      "byteLength" : 3096
    },
    {
      "buffer" : 0,
      "byteOffset" : 158956,
      "byteLength" : 3096
    },
    {
      "buffer" : 0,
      "byteOffset" : 162052,
      "byteLength" : 3096
    }
  ],
  "accessors" : [
    {
      "bufferView" : 0,
      "componentType" : 5123,
      "count" : 2892,
      "type" : "SCALAR"
    },
    {
      "bufferView" : 1,
      "min" : [ 17.248, 0.0108795, -37.7191 ],
      "max" : [ 69.4584, 5.8314, 45.1301 ],
      "componentType" : 5126,
      "count" : 1643,
      "type" : "VEC3"
    },
    {
      "bufferView" : 2,
      "componentType" : 5126,
      "count" : 1643,
      "type" : "VEC3"
    },
    {
      "bufferView" : 3,
      "componentType" : 5126,
      "count" : 1643,
      "type" : "VEC4"
    },
    {
      "bufferView" : 4,
      "componentType" : 5126,
      "count" : 1643,
      "type" : "VEC2"
    },
    {
      "bufferView" : 5,
      "componentType" : 5126,
      "count" : 1643,
      "type" : "VEC2"
    },
    {
      "bufferView" : 6,
      "componentType" : 5126,
      "count" : 1643,
      "type" : "VEC2"
    },
    {
      "bufferView" : 7,
      "componentType" : 5126,
      "count" : 1643,
      "type" : "VEC2"
    },
    {
      "bufferView" : 8,
      "componentType" : 5123,
      "count" : 237,
      "type" : "SCALAR"
    },
    {
      "bufferView" : 9,
      "min" : [ 17.248, 0.12227, -38.1738 ],
      "max" : [ 69.1443, 5.93939, 45.1223 ],
      "componentType" : 5126,
      "count" : 151,
      "type" : "VEC3"
    },
    {
      "bufferView" : 10,
      "componentType" : 5126,
      "count" : 151,
      "type" : "VEC3"
    },
    {
      "bufferView" : 11,
      "componentType" : 5126,
      "count" : 151,
      "type" : "VEC4"
    },
    {
      "bufferView" : 12,
      "componentType" : 5126,
      "count" : 151,
      "type" : "VEC2"
    },
    {
      "bufferView" : 13,
      "componentType" : 5126,
      "count" : 151,
      "type" : "VEC2"
    },
    {
      "bufferView" : 14,
      "componentType" : 5126,
      "count" : 151,
      "type" : "VEC2"
    },
    {
      "bufferView" : 15,
      "componentType" : 5126,
      "count" : 151,
      "type" : "VEC2"
    },
    {
      "bufferView" : 16,
      "componentType" : 5123,
      "count" : 927,
      "type" : "SCALAR"
    },
    {
      "bufferView" : 17,
      "min" : [ 21.4814, 0.0108802, -34.8281 ],
      "max" : [ 53.6644, 4.01733, 45.112 ],
      "componentType" : 5126,
      "count" : 387,
      "type" : "VEC3"
    },
    {
      "bufferView" : 18,
      "componentType" : 5126,
      "count" : 387,
      "type" : "VEC3"
    },
    {
      "bufferView" : 19,
      "componentType" : 5126,
      "count" : 387,
      "type" : "VEC4"
    },
    {
      "bufferView" : 20,
      "componentType" : 5126,
      "count" : 387,
      "type" : "VEC2"
    },
    {
      "bufferView" : 21,
      "componentType" : 5126,
      "count" : 387,
      "type" : "VEC2"
    },
    {
      "bufferView" : 22,
      "componentType" : 5126,
      "count" : 387,
      "type" : "VEC2"
    },
    {
      "bufferView" : 23,
      "componentType" : 5126,
      "count" : 387,
      "type" : "VEC2"
    }
  ]
}
