{
  "asset" : {
    "generator" : "UE Viewer (umodel) build 1579 based",
    "version" : "2.0"
  },
  "scene" : 0,
  "scenes" : [
    {
      "nodes" : [ 0 ]
    }
  ],
  "nodes" : [
    {
      "name" : "S_Envi_Umeda_Ground_02c",
      "mesh" : 0
    }
  ],
  "materials" : [
    {
      "name" : "MI_Envi_Umeda_Module_06_B",
      "pbrMetallicRoughness" : {
        "baseColorFactor" : [ 0.3, 0.3, 0.3, 1.0 ],
        "metallicFactor" : 0.1,
        "roughnessFactor" : 0.5
      }
    },
    {
      "name" : "MI_Envi_Floor_01b",
      "pbrMetallicRoughness" : {
        "baseColorFactor" : [ 0.9, 0.3, 0.3, 1.0 ],
        "metallicFactor" : 0.1,
        "roughnessFactor" : 0.5
      }
    }
  ],
  "meshes" : [
    {
      "primitives" : [
        {
          "attributes" : {
            "POSITION" : 1,
            "NORMAL" : 2,
            "TANGENT" : 3,
            "TEXCOORD_0" : 4,
            "TEXCOORD_1" : 5,
            "TEXCOORD_2" : 6,
            "TEXCOORD_3" : 7
          },
          "indices" : 0,
          "material" : 0
        },
        {
          "attributes" : {
            "POSITION" : 9,
            "NORMAL" : 10,
            "TANGENT" : 11,
            "TEXCOORD_0" : 12,
            "TEXCOORD_1" : 13,
            "TEXCOORD_2" : 14,
            "TEXCOORD_3" : 15
          },
          "indices" : 8,
          "material" : 1
        }
      ],
      "name" : "S_Envi_Umeda_Ground_02c"
    }
  ],
  "buffers" : [
    {
      "uri" : "S_Envi_Umeda_Ground_02c.bin",
      "byteLength" : 32892
    }
  ],
  "bufferViews" : [
    {
      "buffer" : 0,
      "byteOffset" : 0,
      "byteLength" : 360
    },
    {
      "buffer" : 0,
      "byteOffset" : 360,
      "byteLength" : 1512
    },
    {
      "buffer" : 0,
      "byteOffset" : 1872,
      "byteLength" : 1512
    },
    {
      "buffer" : 0,
      "byteOffset" : 3384,
      "byteLength" : 2016
    },
    {
      "buffer" : 0,
      "byteOffset" : 5400,
      "byteLength" : 1008
    },
    {
      "buffer" : 0,
      "byteOffset" : 6408,
      "byteLength" : 1008
    },
    {
      "buffer" : 0,
      "byteOffset" : 7416,
      "byteLength" : 1008
    },
    {
      "buffer" : 0,
      "byteOffset" : 8424,
      "byteLength" : 1008
    },
    {
      "buffer" : 0,
      "byteOffset" : 9432,
      "byteLength" : 1572
    },
    {
      "buffer" : 0,
      "byteOffset" : 11004,
      "byteLength" : 3648
    },
    {
      "buffer" : 0,
      "byteOffset" : 14652,
      "byteLength" : 3648
    },
    {
      "buffer" : 0,
      "byteOffset" : 18300,
      "byteLength" : 4864
    },
    {
      "buffer" : 0,
      "byteOffset" : 23164,
      "byteLength" : 2432
    },
    {
      "buffer" : 0,
      "byteOffset" : 25596,
      "byteLength" : 2432
    },
    {
      "buffer" : 0,
      "byteOffset" : 28028,
      "byteLength" : 2432
    },
    {
      "buffer" : 0,
      "byteOffset" : 30460,
      "byteLength" : 2432
    }
  ],
  "accessors" : [
    {
      "bufferView" : 0,
      "componentType" : 5123,
      "count" : 180,
      "type" : "SCALAR"
    },
    {
      "bufferView" : 1,
      "min" : [ -19.9874, -0.042085, -13.5504 ],
      "max" : [ 27.8784, 0.016637, 8.22008 ],
      "componentType" : 5126,
      "count" : 126,
      "type" : "VEC3"
    },
    {
      "bufferView" : 2,
      "componentType" : 5126,
      "count" : 126,
      "type" : "VEC3"
    },
    {
      "bufferView" : 3,
      "componentType" : 5126,
      "count" : 126,
      "type" : "VEC4"
    },
    {
      "bufferView" : 4,
      "componentType" : 5126,
      "count" : 126,
      "type" : "VEC2"
    },
    {
      "bufferView" : 5,
      "componentType" : 5126,
      "count" : 126,
      "type" : "VEC2"
    },
    {
      "bufferView" : 6,
      "componentType" : 5126,
      "count" : 126,
      "type" : "VEC2"
    },
    {
      "bufferView" : 7,
      "componentType" : 5126,
      "count" : 126,
      "type" : "VEC2"
    },
    {
      "bufferView" : 8,
      "componentType" : 5123,
      "count" : 786,
      "type" : "SCALAR"
    },
    {
      "bufferView" : 9,
      "min" : [ -21.1246, 6.10352e-07, -13.4531 ],
      "max" : [ 27.8783, 1.2207e-06, 7.91864 ],
      "componentType" : 5126,
      "count" : 304,
      "type" : "VEC3"
    },
    {
      "bufferView" : 10,
      "componentType" : 5126,
      "count" : 304,
      "type" : "VEC3"
    },
    {
      "bufferView" : 11,
      "componentType" : 5126,
      "count" : 304,
      "type" : "VEC4"
    },
    {
      "bufferView" : 12,
      "componentType" : 5126,
      "count" : 304,
      "type" : "VEC2"
    },
    {
      "bufferView" : 13,
      "componentType" : 5126,
      "count" : 304,
      "type" : "VEC2"
    },
    {
      "bufferView" : 14,
      "componentType" : 5126,
      "count" : 304,
      "type" : "VEC2"
    },
    {
      "bufferView" : 15,
      "componentType" : 5126,
      "count" : 304,
      "type" : "VEC2"
    }
  ]
}
