{
  "asset" : {
    "generator" : "UE Viewer (umodel) build 1579 based",
    "version" : "2.0"
  },
  "scene" : 0,
  "scenes" : [
    {
      "nodes" : [ 0 ]
    }
  ],
  "nodes" : [
    {
      "name" : "S_Envi_Umeda_Ground_05e",
      "mesh" : 0
    }
  ],
  "materials" : [
    {
      "name" : "MI_Envi_Umeda_japan_Temple_09b",
      "pbrMetallicRoughness" : {
        "baseColorFactor" : [ 0.3, 0.3, 0.3, 1.0 ],
        "metallicFactor" : 0.1,
        "roughnessFactor" : 0.5
      }
    },
    {
      "name" : "MI_Envi_Umeda_Base_Building_03_B",
      "pbrMetallicRoughness" : {
        "baseColorFactor" : [ 0.9, 0.3, 0.3, 1.0 ],
        "metallicFactor" : 0.1,
        "roughnessFactor" : 0.5
      }
    },
    {
      "name" : "MI_Envi_commontrim_07b",
      "pbrMetallicRoughness" : {
        "baseColorFactor" : [ 0.3, 0.9, 0.3, 1.0 ],
        "metallicFactor" : 0.1,
        "roughnessFactor" : 0.5
      }
    }
  ],
  "meshes" : [
    {
      "primitives" : [
        {
          "attributes" : {
            "POSITION" : 1,
            "NORMAL" : 2,
            "TANGENT" : 3,
            "TEXCOORD_0" : 4,
            "TEXCOORD_1" : 5,
            "TEXCOORD_2" : 6,
            "TEXCOORD_3" : 7
          },
          "indices" : 0,
          "material" : 0
        },
        {
          "attributes" : {
            "POSITION" : 9,
            "NORMAL" : 10,
            "TANGENT" : 11,
            "TEXCOORD_0" : 12,
            "TEXCOORD_1" : 13,
            "TEXCOORD_2" : 14,
            "TEXCOORD_3" : 15
          },
          "indices" : 8,
          "material" : 1
        },
        {
          "attributes" : {
            "POSITION" : 17,
            "NORMAL" : 18,
            "TANGENT" : 19,
            "TEXCOORD_0" : 20,
            "TEXCOORD_1" : 21,
            "TEXCOORD_2" : 22,
            "TEXCOORD_3" : 23
          },
          "indices" : 16,
          "material" : 2
        }
      ],
      "name" : "S_Envi_Umeda_Ground_05e"
    }
  ],
  "buffers" : [
    {
      "uri" : "S_Envi_Umeda_Ground_05e.bin",
      "byteLength" : 18432
    }
  ],
  "bufferViews" : [
    {
      "buffer" : 0,
      "byteOffset" : 0,
      "byteLength" : 156
    },
    {
      "buffer" : 0,
      "byteOffset" : 156,
      "byteLength" : 480
    },
    {
      "buffer" : 0,
      "byteOffset" : 636,
      "byteLength" : 480
    },
    {
      "buffer" : 0,
      "byteOffset" : 1116,
      "byteLength" : 640
    },
    {
      "buffer" : 0,
      "byteOffset" : 1756,
      "byteLength" : 320
    },
    {
      "buffer" : 0,
      "byteOffset" : 2076,
      "byteLength" : 320
    },
    {
      "buffer" : 0,
      "byteOffset" : 2396,
      "byteLength" : 320
    },
    {
      "buffer" : 0,
      "byteOffset" : 2716,
      "byteLength" : 320
    },
    {
      "buffer" : 0,
      "byteOffset" : 3036,
      "byteLength" : 12
    },
    {
      "buffer" : 0,
      "byteOffset" : 3048,
      "byteLength" : 48
    },
    {
      "buffer" : 0,
      "byteOffset" : 3096,
      "byteLength" : 48
    },
    {
      "buffer" : 0,
      "byteOffset" : 3144,
      "byteLength" : 64
    },
    {
      "buffer" : 0,
      "byteOffset" : 3208,
      "byteLength" : 32
    },
    {
      "buffer" : 0,
      "byteOffset" : 3240,
      "byteLength" : 32
    },
    {
      "buffer" : 0,
      "byteOffset" : 3272,
      "byteLength" : 32
    },
    {
      "buffer" : 0,
      "byteOffset" : 3304,
      "byteLength" : 32
    },
    {
      "buffer" : 0,
      "byteOffset" : 3336,
      "byteLength" : 696
    },
    {
      "buffer" : 0,
      "byteOffset" : 4032,
      "byteLength" : 2400
    },
    {
      "buffer" : 0,
      "byteOffset" : 6432,
      "byteLength" : 2400
    },
    {
      "buffer" : 0,
      "byteOffset" : 8832,
      "byteLength" : 3200
    },
    {
      "buffer" : 0,
      "byteOffset" : 12032,
      "byteLength" : 1600
    },
    {
      "buffer" : 0,
      "byteOffset" : 13632,
      "byteLength" : 1600
    },
    {
      "buffer" : 0,
      "byteOffset" : 15232,
      "byteLength" : 1600
    },
    {
      "buffer" : 0,
      "byteOffset" : 16832,
      "byteLength" : 1600
    }
  ],
  "accessors" : [
    {
      "bufferView" : 0,
      "componentType" : 5123,
      "count" : 78,
      "type" : "SCALAR"
    },
    {
      "bufferView" : 1,
      "min" : [ -29.8865, -0.380289, -4.73011 ],
      "max" : [ -16.9485, 0.0359438, 14.3783 ],
      "componentType" : 5126,
      "count" : 40,
      "type" : "VEC3"
    },
    {
      "bufferView" : 2,
      "componentType" : 5126,
      "count" : 40,
      "type" : "VEC3"
    },
    {
      "bufferView" : 3,
      "componentType" : 5126,
      "count" : 40,
      "type" : "VEC4"
    },
    {
      "bufferView" : 4,
      "componentType" : 5126,
      "count" : 40,
      "type" : "VEC2"
    },
    {
      "bufferView" : 5,
      "componentType" : 5126,
      "count" : 40,
      "type" : "VEC2"
    },
    {
      "bufferView" : 6,
      "componentType" : 5126,
      "count" : 40,
      "type" : "VEC2"
    },
    {
      "bufferView" : 7,
      "componentType" : 5126,
      "count" : 40,
      "type" : "VEC2"
    },
    {
      "bufferView" : 8,
      "componentType" : 5123,
      "count" : 6,
      "type" : "SCALAR"
    },
    {
      "bufferView" : 9,
      "min" : [ -27.3904, -0.0226843, -15.581 ],
      "max" : [ -14.6914, -0.0226843, -4.21162 ],
      "componentType" : 5126,
      "count" : 4,
      "type" : "VEC3"
    },
    {
      "bufferView" : 10,
      "componentType" : 5126,
      "count" : 4,
      "type" : "VEC3"
    },
    {
      "bufferView" : 11,
      "componentType" : 5126,
      "count" : 4,
      "type" : "VEC4"
    },
    {
      "bufferView" : 12,
      "componentType" : 5126,
      "count" : 4,
      "type" : "VEC2"
    },
    {
      "bufferView" : 13,
      "componentType" : 5126,
      "count" : 4,
      "type" : "VEC2"
    },
    {
      "bufferView" : 14,
      "componentType" : 5126,
      "count" : 4,
      "type" : "VEC2"
    },
    {
      "bufferView" : 15,
      "componentType" : 5126,
      "count" : 4,
      "type" : "VEC2"
    },
    {
      "bufferView" : 16,
      "componentType" : 5123,
      "count" : 348,
      "type" : "SCALAR"
    },
    {
      "bufferView" : 17,
      "min" : [ -32.5496, -0.29047, -22.4802 ],
      "max" : [ 0.923107, 2.86102e-07, 33.2087 ],
      "componentType" : 5126,
      "count" : 200,
      "type" : "VEC3"
    },
    {
      "bufferView" : 18,
      "componentType" : 5126,
      "count" : 200,
      "type" : "VEC3"
    },
    {
      "bufferView" : 19,
      "componentType" : 5126,
      "count" : 200,
      "type" : "VEC4"
    },
    {
      "bufferView" : 20,
      "componentType" : 5126,
      "count" : 200,
      "type" : "VEC2"
    },
    {
      "bufferView" : 21,
      "componentType" : 5126,
      "count" : 200,
      "type" : "VEC2"
    },
    {
      "bufferView" : 22,
      "componentType" : 5126,
      "count" : 200,
      "type" : "VEC2"
    },
    {
      "bufferView" : 23,
      "componentType" : 5126,
      "count" : 200,
      "type" : "VEC2"
    }
  ]
}
