{
  "asset" : {
    "generator" : "UE Viewer (umodel) build 1579 based",
    "version" : "2.0"
  },
  "scene" : 0,
  "scenes" : [
    {
      "nodes" : [ 0 ]
    }
  ],
  "nodes" : [
    {
      "name" : "S_Envi_Umeda_Ground_05g",
      "mesh" : 0
    }
  ],
  "materials" : [
    {
      "name" : "MI_Envi_Umeda_Base_Ground_02d",
      "pbrMetallicRoughness" : {
        "baseColorFactor" : [ 0.3, 0.3, 0.3, 1.0 ],
        "metallicFactor" : 0.1,
        "roughnessFactor" : 0.5
      }
    },
    {
      "name" : "MI_Envi_Umeda_Base_Building_03_B",
      "pbrMetallicRoughness" : {
        "baseColorFactor" : [ 0.9, 0.3, 0.3, 1.0 ],
        "metallicFactor" : 0.1,
        "roughnessFactor" : 0.5
      }
    }
  ],
  "meshes" : [
    {
      "primitives" : [
        {
          "attributes" : {
            "POSITION" : 1,
            "NORMAL" : 2,
            "TANGENT" : 3,
            "TEXCOORD_0" : 4,
            "TEXCOORD_1" : 5,
            "TEXCOORD_2" : 6,
            "TEXCOORD_3" : 7
          },
          "indices" : 0,
          "material" : 0
        },
        {
          "attributes" : {
            "POSITION" : 9,
            "NORMAL" : 10,
            "TANGENT" : 11,
            "TEXCOORD_0" : 12,
            "TEXCOORD_1" : 13,
            "TEXCOORD_2" : 14,
            "TEXCOORD_3" : 15
          },
          "indices" : 8,
          "material" : 1
        }
      ],
      "name" : "S_Envi_Umeda_Ground_05g"
    }
  ],
  "buffers" : [
    {
      "uri" : "S_Envi_Umeda_Ground_05g.bin",
      "byteLength" : 5520
    }
  ],
  "bufferViews" : [
    {
      "buffer" : 0,
      "byteOffset" : 0,
      "byteLength" : 324
    },
    {
      "buffer" : 0,
      "byteOffset" : 324,
      "byteLength" : 816
    },
    {
      "buffer" : 0,
      "byteOffset" : 1140,
      "byteLength" : 816
    },
    {
      "buffer" : 0,
      "byteOffset" : 1956,
      "byteLength" : 1088
    },
    {
      "buffer" : 0,
      "byteOffset" : 3044,
      "byteLength" : 544
    },
    {
      "buffer" : 0,
      "byteOffset" : 3588,
      "byteLength" : 544
    },
    {
      "buffer" : 0,
      "byteOffset" : 4132,
      "byteLength" : 544
    },
    {
      "buffer" : 0,
      "byteOffset" : 4676,
      "byteLength" : 544
    },
    {
      "buffer" : 0,
      "byteOffset" : 5220,
      "byteLength" : 12
    },
    {
      "buffer" : 0,
      "byteOffset" : 5232,
      "byteLength" : 48
    },
    {
      "buffer" : 0,
      "byteOffset" : 5280,
      "byteLength" : 48
    },
    {
      "buffer" : 0,
      "byteOffset" : 5328,
      "byteLength" : 64
    },
    {
      "buffer" : 0,
      "byteOffset" : 5392,
      "byteLength" : 32
    },
    {
      "buffer" : 0,
      "byteOffset" : 5424,
      "byteLength" : 32
    },
    {
      "buffer" : 0,
      "byteOffset" : 5456,
      "byteLength" : 32
    },
    {
      "buffer" : 0,
      "byteOffset" : 5488,
      "byteLength" : 32
    }
  ],
  "accessors" : [
    {
      "bufferView" : 0,
      "componentType" : 5123,
      "count" : 162,
      "type" : "SCALAR"
    },
    {
      "bufferView" : 1,
      "min" : [ -46.0309, -0.00931641, -50.1105 ],
      "max" : [ 16.3854, 0.249799, 0.00134766 ],
      "componentType" : 5126,
      "count" : 68,
      "type" : "VEC3"
    },
    {
      "bufferView" : 2,
      "componentType" : 5126,
      "count" : 68,
      "type" : "VEC3"
    },
    {
      "bufferView" : 3,
      "componentType" : 5126,
      "count" : 68,
      "type" : "VEC4"
    },
    {
      "bufferView" : 4,
      "componentType" : 5126,
      "count" : 68,
      "type" : "VEC2"
    },
    {
      "bufferView" : 5,
      "componentType" : 5126,
      "count" : 68,
      "type" : "VEC2"
    },
    {
      "bufferView" : 6,
      "componentType" : 5126,
      "count" : 68,
      "type" : "VEC2"
    },
    {
      "bufferView" : 7,
      "componentType" : 5126,
      "count" : 68,
      "type" : "VEC2"
    },
    {
      "bufferView" : 8,
      "componentType" : 5123,
      "count" : 6,
      "type" : "SCALAR"
    },
    {
      "bufferView" : 9,
      "min" : [ -46.0259, -0.0093161, -41.2985 ],
      "max" : [ -43.8757, -0.0093161, -26.8135 ],
      "componentType" : 5126,
      "count" : 4,
      "type" : "VEC3"
    },
    {
      "bufferView" : 10,
      "componentType" : 5126,
      "count" : 4,
      "type" : "VEC3"
    },
    {
      "bufferView" : 11,
      "componentType" : 5126,
      "count" : 4,
      "type" : "VEC4"
    },
    {
      "bufferView" : 12,
      "componentType" : 5126,
      "count" : 4,
      "type" : "VEC2"
    },
    {
      "bufferView" : 13,
      "componentType" : 5126,
      "count" : 4,
      "type" : "VEC2"
    },
    {
      "bufferView" : 14,
      "componentType" : 5126,
      "count" : 4,
      "type" : "VEC2"
    },
    {
      "bufferView" : 15,
      "componentType" : 5126,
      "count" : 4,
      "type" : "VEC2"
    }
  ]
}
