{
  "asset" : {
    "generator" : "UE Viewer (umodel) build 1579 based",
    "version" : "2.0"
  },
  "scene" : 0,
  "scenes" : [
    {
      "nodes" : [ 0 ]
    }
  ],
  "nodes" : [
    {
      "name" : "S_Envi_Umeda_Ground_09B",
      "mesh" : 0
    }
  ],
  "materials" : [
    {
      "name" : "MI_Envi_Umeda_Ground_05",
      "pbrMetallicRoughness" : {
        "baseColorFactor" : [ 0.3, 0.3, 0.3, 1.0 ],
        "metallicFactor" : 0.1,
        "roughnessFactor" : 0.5
      }
    }
  ],
  "meshes" : [
    {
      "primitives" : [
        {
          "attributes" : {
            "POSITION" : 1,
            "NORMAL" : 2,
            "TANGENT" : 3,
            "TEXCOORD_0" : 4,
            "TEXCOORD_1" : 5,
            "TEXCOORD_2" : 6,
            "TEXCOORD_3" : 7
          },
          "indices" : 0,
          "material" : 0
        }
      ],
      "name" : "S_Envi_Umeda_Ground_09B"
    }
  ],
  "buffers" : [
    {
      "uri" : "S_Envi_Umeda_Ground_09B.bin",
      "byteLength" : 46440
    }
  ],
  "bufferViews" : [
    {
      "buffer" : 0,
      "byteOffset" : 0,
      "byteLength" : 4320
    },
    {
      "buffer" : 0,
      "byteOffset" : 4320,
      "byteLength" : 7020
    },
    {
      "buffer" : 0,
      "byteOffset" : 11340,
      "byteLength" : 7020
    },
    {
      "buffer" : 0,
      "byteOffset" : 18360,
      "byteLength" : 9360
    },
    {
      "buffer" : 0,
      "byteOffset" : 27720,
      "byteLength" : 4680
    },
    {
      "buffer" : 0,
      "byteOffset" : 32400,
      "byteLength" : 4680
    },
    {
      "buffer" : 0,
      "byteOffset" : 37080,
      "byteLength" : 4680
    },
    {
      "buffer" : 0,
      "byteOffset" : 41760,
      "byteLength" : 4680
    }
  ],
  "accessors" : [
    {
      "bufferView" : 0,
      "componentType" : 5123,
      "count" : 2160,
      "type" : "SCALAR"
    },
    {
      "bufferView" : 1,
      "min" : [ -13.343, -0.0876508, -15.0707 ],
      "max" : [ 10.6594, 0.0868115, 21.0522 ],
      "componentType" : 5126,
      "count" : 585,
      "type" : "VEC3"
    },
    {
      "bufferView" : 2,
      "componentType" : 5126,
      "count" : 585,
      "type" : "VEC3"
    },
    {
      "bufferView" : 3,
      "componentType" : 5126,
      "count" : 585,
      "type" : "VEC4"
    },
    {
      "bufferView" : 4,
      "componentType" : 5126,
      "count" : 585,
      "type" : "VEC2"
    },
    {
      "bufferView" : 5,
      "componentType" : 5126,
      "count" : 585,
      "type" : "VEC2"
    },
    {
      "bufferView" : 6,
      "componentType" : 5126,
      "count" : 585,
      "type" : "VEC2"
    },
    {
      "bufferView" : 7,
      "componentType" : 5126,
      "count" : 585,
      "type" : "VEC2"
    }
  ]
}
