{
  "asset" : {
    "generator" : "UE Viewer (umodel) build 1579 based",
    "version" : "2.0"
  },
  "scene" : 0,
  "scenes" : [
    {
      "nodes" : [ 0 ]
    }
  ],
  "nodes" : [
    {
      "name" : "S_Envi_Umeda_Ground_09A",
      "mesh" : 0
    }
  ],
  "materials" : [
    {
      "name" : "MI_Envi_common_Floor_06a",
      "pbrMetallicRoughness" : {
        "baseColorFactor" : [ 0.3, 0.3, 0.3, 1.0 ],
        "metallicFactor" : 0.1,
        "roughnessFactor" : 0.5
      }
    }
  ],
  "meshes" : [
    {
      "primitives" : [
        {
          "attributes" : {
            "POSITION" : 1,
            "NORMAL" : 2,
            "TANGENT" : 3,
            "TEXCOORD_0" : 4,
            "TEXCOORD_1" : 5
          },
          "indices" : 0,
          "material" : 0
        }
      ],
      "name" : "S_Envi_Umeda_Ground_09A"
    }
  ],
  "buffers" : [
    {
      "uri" : "S_Envi_Umeda_Ground_09A.bin",
      "byteLength" : 868
    }
  ],
  "bufferViews" : [
    {
      "buffer" : 0,
      "byteOffset" : 0,
      "byteLength" : 84
    },
    {
      "buffer" : 0,
      "byteOffset" : 84,
      "byteLength" : 168
    },
    {
      "buffer" : 0,
      "byteOffset" : 252,
      "byteLength" : 168
    },
    {
      "buffer" : 0,
      "byteOffset" : 420,
      "byteLength" : 224
    },
    {
      "buffer" : 0,
      "byteOffset" : 644,
      "byteLength" : 112
    },
    {
      "buffer" : 0,
      "byteOffset" : 756,
      "byteLength" : 112
    }
  ],
  "accessors" : [
    {
      "bufferView" : 0,
      "componentType" : 5123,
      "count" : 42,
      "type" : "SCALAR"
    },
    {
      "bufferView" : 1,
      "min" : [ -22.7806, -6.10352e-07, -12.1239 ],
      "max" : [ 22.7806, -6.10352e-07, 12.0043 ],
      "componentType" : 5126,
      "count" : 14,
      "type" : "VEC3"
    },
    {
      "bufferView" : 2,
      "componentType" : 5126,
      "count" : 14,
      "type" : "VEC3"
    },
    {
      "bufferView" : 3,
      "componentType" : 5126,
      "count" : 14,
      "type" : "VEC4"
    },
    {
      "bufferView" : 4,
      "componentType" : 5126,
      "count" : 14,
      "type" : "VEC2"
    },
    {
      "bufferView" : 5,
      "componentType" : 5126,
      "count" : 14,
      "type" : "VEC2"
    }
  ]
}
