{
  "asset" : {
    "generator" : "UE Viewer (umodel) build 1579 based",
    "version" : "2.0"
  },
  "scene" : 0,
  "scenes" : [
    {
      "nodes" : [ 0 ]
    }
  ],
  "nodes" : [
    {
      "name" : "S_Envi_Umeda_Shrub_04a",
      "mesh" : 0
    }
  ],
  "materials" : [
    {
      "name" : "MI_Envi_common_flowerpot_01",
      "pbrMetallicRoughness" : {
        "baseColorFactor" : [ 0.3, 0.3, 0.3, 1.0 ],
        "metallicFactor" : 0.1,
        "roughnessFactor" : 0.5
      }
    },
    {
      "name" : "MI_Envi_Umeda_Shrub_04",
      "pbrMetallicRoughness" : {
        "baseColorFactor" : [ 0.9, 0.3, 0.3, 1.0 ],
        "metallicFactor" : 0.1,
        "roughnessFactor" : 0.5
      }
    }
  ],
  "meshes" : [
    {
      "primitives" : [
        {
          "attributes" : {
            "POSITION" : 1,
            "NORMAL" : 2,
            "TANGENT" : 3,
            "TEXCOORD_0" : 4,
            "TEXCOORD_1" : 5
          },
          "indices" : 0,
          "material" : 0
        },
        {
          "attributes" : {
            "POSITION" : 7,
            "NORMAL" : 8,
            "TANGENT" : 9,
            "TEXCOORD_0" : 10,
            "TEXCOORD_1" : 11
          },
          "indices" : 6,
          "material" : 1
        }
      ],
      "name" : "S_Envi_Umeda_Shrub_04a"
    }
  ],
  "buffers" : [
    {
      "uri" : "S_Envi_Umeda_Shrub_04a.bin",
      "byteLength" : 34908
    }
  ],
  "bufferViews" : [
    {
      "buffer" : 0,
      "byteOffset" : 0,
      "byteLength" : 1056
    },
    {
      "buffer" : 0,
      "byteOffset" : 1056,
      "byteLength" : 1908
    },
    {
      "buffer" : 0,
      "byteOffset" : 2964,
      "byteLength" : 1908
    },
    {
      "buffer" : 0,
      "byteOffset" : 4872,
      "byteLength" : 2544
    },
    {
      "buffer" : 0,
      "byteOffset" : 7416,
      "byteLength" : 1272
    },
    {
      "buffer" : 0,
      "byteOffset" : 8688,
      "byteLength" : 1272
    },
    {
      "buffer" : 0,
      "byteOffset" : 9960,
      "byteLength" : 1764
    },
    {
      "buffer" : 0,
      "byteOffset" : 11724,
      "byteLength" : 4968
    },
    {
      "buffer" : 0,
      "byteOffset" : 16692,
      "byteLength" : 4968
    },
    {
      "buffer" : 0,
      "byteOffset" : 21660,
      "byteLength" : 6624
    },
    {
      "buffer" : 0,
      "byteOffset" : 28284,
      "byteLength" : 3312
    },
    {
      "buffer" : 0,
      "byteOffset" : 31596,
      "byteLength" : 3312
    }
  ],
  "accessors" : [
    {
      "bufferView" : 0,
      "componentType" : 5123,
      "count" : 528,
      "type" : "SCALAR"
    },
    {
      "bufferView" : 1,
      "min" : [ -0.13709, 0.000918751, -0.137086 ],
      "max" : [ 0.137083, 0.215507, 0.137086 ],
      "componentType" : 5126,
      "count" : 159,
      "type" : "VEC3"
    },
    {
      "bufferView" : 2,
      "componentType" : 5126,
      "count" : 159,
      "type" : "VEC3"
    },
    {
      "bufferView" : 3,
      "componentType" : 5126,
      "count" : 159,
      "type" : "VEC4"
    },
    {
      "bufferView" : 4,
      "componentType" : 5126,
      "count" : 159,
      "type" : "VEC2"
    },
    {
      "bufferView" : 5,
      "componentType" : 5126,
      "count" : 159,
      "type" : "VEC2"
    },
    {
      "bufferView" : 6,
      "componentType" : 5123,
      "count" : 882,
      "type" : "SCALAR"
    },
    {
      "bufferView" : 7,
      "min" : [ -0.157808, 0.157509, -0.226886 ],
      "max" : [ 0.169324, 0.503934, 0.227337 ],
      "componentType" : 5126,
      "count" : 414,
      "type" : "VEC3"
    },
    {
      "bufferView" : 8,
      "componentType" : 5126,
      "count" : 414,
      "type" : "VEC3"
    },
    {
      "bufferView" : 9,
      "componentType" : 5126,
      "count" : 414,
      "type" : "VEC4"
    },
    {
      "bufferView" : 10,
      "componentType" : 5126,
      "count" : 414,
      "type" : "VEC2"
    },
    {
      "bufferView" : 11,
      "componentType" : 5126,
      "count" : 414,
      "type" : "VEC2"
    }
  ]
}
