{
  "asset" : {
    "generator" : "UE Viewer (umodel) build 1579 based",
    "version" : "2.0"
  },
  "scene" : 0,
  "scenes" : [
    {
      "nodes" : [ 0 ]
    }
  ],
  "nodes" : [
    {
      "name" : "S_Envi_Foliage_Tree_03b",
      "mesh" : 0
    }
  ],
  "materials" : [
    {
      "name" : "MI_Envi_Foliage_shrub_08",
      "pbrMetallicRoughness" : {
        "baseColorFactor" : [ 0.3, 0.3, 0.3, 1.0 ],
        "metallicFactor" : 0.1,
        "roughnessFactor" : 0.5
      }
    },
    {
      "name" : "MI_Envi_Umeda_treeA_Trunk_01",
      "pbrMetallicRoughness" : {
        "baseColorFactor" : [ 0.9, 0.3, 0.3, 1.0 ],
        "metallicFactor" : 0.1,
        "roughnessFactor" : 0.5
      }
    }
  ],
  "meshes" : [
    {
      "primitives" : [
        {
          "attributes" : {
            "POSITION" : 1,
            "NORMAL" : 2,
            "TANGENT" : 3,
            "TEXCOORD_0" : 4,
            "TEXCOORD_1" : 5
          },
          "indices" : 0,
          "material" : 0
        },
        {
          "attributes" : {
            "POSITION" : 7,
            "NORMAL" : 8,
            "TANGENT" : 9,
            "TEXCOORD_0" : 10,
            "TEXCOORD_1" : 11
          },
          "indices" : 6,
          "material" : 1
        }
      ],
      "name" : "S_Envi_Foliage_Tree_03b"
    }
  ],
  "buffers" : [
    {
      "uri" : "S_Envi_Foliage_Tree_03b.bin",
      "byteLength" : 353816
    }
  ],
  "bufferViews" : [
    {
      "buffer" : 0,
      "byteOffset" : 0,
      "byteLength" : 21384
    },
    {
      "buffer" : 0,
      "byteOffset" : 21384,
      "byteLength" : 59220
    },
    {
      "buffer" : 0,
      "byteOffset" : 80604,
      "byteLength" : 59220
    },
    {
      "buffer" : 0,
      "byteOffset" : 139824,
      "byteLength" : 78960
    },
    {
      "buffer" : 0,
      "byteOffset" : 218784,
      "byteLength" : 39480
    },
    {
      "buffer" : 0,
      "byteOffset" : 258264,
      "byteLength" : 39480
    },
    {
      "buffer" : 0,
      "byteOffset" : 297744,
      "byteLength" : 7632
    },
    {
      "buffer" : 0,
      "byteOffset" : 305376,
      "byteLength" : 10380
    },
    {
      "buffer" : 0,
      "byteOffset" : 315756,
      "byteLength" : 10380
    },
    {
      "buffer" : 0,
      "byteOffset" : 326136,
      "byteLength" : 13840
    },
    {
      "buffer" : 0,
      "byteOffset" : 339976,
      "byteLength" : 6920
    },
    {
      "buffer" : 0,
      "byteOffset" : 346896,
      "byteLength" : 6920
    }
  ],
  "accessors" : [
    {
      "bufferView" : 0,
      "componentType" : 5123,
      "count" : 10692,
      "type" : "SCALAR"
    },
    {
      "bufferView" : 1,
      "min" : [ -3.71772, 2.29093, -3.94514 ],
      "max" : [ 3.51603, 6.54703, 2.91332 ],
      "componentType" : 5126,
      "count" : 4935,
      "type" : "VEC3"
    },
    {
      "bufferView" : 2,
      "componentType" : 5126,
      "count" : 4935,
      "type" : "VEC3"
    },
    {
      "bufferView" : 3,
      "componentType" : 5126,
      "count" : 4935,
      "type" : "VEC4"
    },
    {
      "bufferView" : 4,
      "componentType" : 5126,
      "count" : 4935,
      "type" : "VEC2"
    },
    {
      "bufferView" : 5,
      "componentType" : 5126,
      "count" : 4935,
      "type" : "VEC2"
    },
    {
      "bufferView" : 6,
      "componentType" : 5123,
      "count" : 3816,
      "type" : "SCALAR"
    },
    {
      "bufferView" : 7,
      "min" : [ -2.71401, 0.000552713, -2.25914 ],
      "max" : [ 1.7807, 4.98882, 1.54261 ],
      "componentType" : 5126,
      "count" : 865,
      "type" : "VEC3"
    },
    {
      "bufferView" : 8,
      "componentType" : 5126,
      "count" : 865,
      "type" : "VEC3"
    },
    {
      "bufferView" : 9,
      "componentType" : 5126,
      "count" : 865,
      "type" : "VEC4"
    },
    {
      "bufferView" : 10,
      "componentType" : 5126,
      "count" : 865,
      "type" : "VEC2"
    },
    {
      "bufferView" : 11,
      "componentType" : 5126,
      "count" : 865,
      "type" : "VEC2"
    }
  ]
}
