{
  "asset" : {
    "generator" : "UE Viewer (umodel) build 1579 based",
    "version" : "2.0"
  },
  "scene" : 0,
  "scenes" : [
    {
      "nodes" : [ 0 ]
    }
  ],
  "nodes" : [
    {
      "name" : "S_Envi_Umeda_shrubA_01a",
      "mesh" : 0
    }
  ],
  "materials" : [
    {
      "name" : "MI_Envi_Umeda_shrubA_01",
      "pbrMetallicRoughness" : {
        "baseColorFactor" : [ 0.3, 0.3, 0.3, 1.0 ],
        "metallicFactor" : 0.1,
        "roughnessFactor" : 0.5
      }
    }
  ],
  "meshes" : [
    {
      "primitives" : [
        {
          "attributes" : {
            "POSITION" : 1,
            "NORMAL" : 2,
            "TANGENT" : 3,
            "TEXCOORD_0" : 4,
            "TEXCOORD_1" : 5
          },
          "indices" : 0,
          "material" : 0
        }
      ],
      "name" : "S_Envi_Umeda_shrubA_01a"
    }
  ],
  "buffers" : [
    {
      "uri" : "S_Envi_Umeda_shrubA_01a.bin",
      "byteLength" : 23600
    }
  ],
  "bufferViews" : [
    {
      "buffer" : 0,
      "byteOffset" : 0,
      "byteLength" : 1200
    },
    {
      "buffer" : 0,
      "byteOffset" : 1200,
      "byteLength" : 4800
    },
    {
      "buffer" : 0,
      "byteOffset" : 6000,
      "byteLength" : 4800
    },
    {
      "buffer" : 0,
      "byteOffset" : 10800,
      "byteLength" : 6400
    },
    {
      "buffer" : 0,
      "byteOffset" : 17200,
      "byteLength" : 3200
    },
    {
      "buffer" : 0,
      "byteOffset" : 20400,
      "byteLength" : 3200
    }
  ],
  "accessors" : [
    {
      "bufferView" : 0,
      "componentType" : 5123,
      "count" : 600,
      "type" : "SCALAR"
    },
    {
      "bufferView" : 1,
      "min" : [ -2.01722, -0.395049, -1.61785 ],
      "max" : [ 1.80615, 2.44552, 1.62066 ],
      "componentType" : 5126,
      "count" : 400,
      "type" : "VEC3"
    },
    {
      "bufferView" : 2,
      "componentType" : 5126,
      "count" : 400,
      "type" : "VEC3"
    },
    {
      "bufferView" : 3,
      "componentType" : 5126,
      "count" : 400,
      "type" : "VEC4"
    },
    {
      "bufferView" : 4,
      "componentType" : 5126,
      "count" : 400,
      "type" : "VEC2"
    },
    {
      "bufferView" : 5,
      "componentType" : 5126,
      "count" : 400,
      "type" : "VEC2"
    }
  ]
}
