{
  "asset" : {
    "generator" : "UE Viewer (umodel) build 1579 based",
    "version" : "2.0"
  },
  "scene" : 0,
  "scenes" : [
    {
      "nodes" : [ 0 ]
    }
  ],
  "nodes" : [
    {
      "name" : "S_Envi_Umeda_Shrub_03c",
      "mesh" : 0
    }
  ],
  "materials" : [
    {
      "name" : "MI_Envi_Umeda_Shrub_03",
      "pbrMetallicRoughness" : {
        "baseColorFactor" : [ 0.3, 0.3, 0.3, 1.0 ],
        "metallicFactor" : 0.1,
        "roughnessFactor" : 0.5
      }
    },
    {
      "name" : "MI_Envi_common_flowerpot_01",
      "pbrMetallicRoughness" : {
        "baseColorFactor" : [ 0.9, 0.3, 0.3, 1.0 ],
        "metallicFactor" : 0.1,
        "roughnessFactor" : 0.5
      }
    }
  ],
  "meshes" : [
    {
      "primitives" : [
        {
          "attributes" : {
            "POSITION" : 1,
            "NORMAL" : 2,
            "TANGENT" : 3,
            "TEXCOORD_0" : 4,
            "TEXCOORD_1" : 5
          },
          "indices" : 0,
          "material" : 0
        },
        {
          "attributes" : {
            "POSITION" : 7,
            "NORMAL" : 8,
            "TANGENT" : 9,
            "TEXCOORD_0" : 10,
            "TEXCOORD_1" : 11
          },
          "indices" : 6,
          "material" : 1
        }
      ],
      "name" : "S_Envi_Umeda_Shrub_03c"
    }
  ],
  "buffers" : [
    {
      "uri" : "S_Envi_Umeda_Shrub_03c.bin",
      "byteLength" : 20480
    }
  ],
  "bufferViews" : [
    {
      "buffer" : 0,
      "byteOffset" : 0,
      "byteLength" : 1092
    },
    {
      "buffer" : 0,
      "byteOffset" : 1092,
      "byteLength" : 2352
    },
    {
      "buffer" : 0,
      "byteOffset" : 3444,
      "byteLength" : 2352
    },
    {
      "buffer" : 0,
      "byteOffset" : 5796,
      "byteLength" : 3136
    },
    {
      "buffer" : 0,
      "byteOffset" : 8932,
      "byteLength" : 1568
    },
    {
      "buffer" : 0,
      "byteOffset" : 10500,
      "byteLength" : 1568
    },
    {
      "buffer" : 0,
      "byteOffset" : 12068,
      "byteLength" : 852
    },
    {
      "buffer" : 0,
      "byteOffset" : 12920,
      "byteLength" : 1620
    },
    {
      "buffer" : 0,
      "byteOffset" : 14540,
      "byteLength" : 1620
    },
    {
      "buffer" : 0,
      "byteOffset" : 16160,
      "byteLength" : 2160
    },
    {
      "buffer" : 0,
      "byteOffset" : 18320,
      "byteLength" : 1080
    },
    {
      "buffer" : 0,
      "byteOffset" : 19400,
      "byteLength" : 1080
    }
  ],
  "accessors" : [
    {
      "bufferView" : 0,
      "componentType" : 5123,
      "count" : 546,
      "type" : "SCALAR"
    },
    {
      "bufferView" : 1,
      "min" : [ -0.345009, 0.00381136, -0.302683 ],
      "max" : [ 0.328622, 0.758456, 0.279054 ],
      "componentType" : 5126,
      "count" : 196,
      "type" : "VEC3"
    },
    {
      "bufferView" : 2,
      "componentType" : 5126,
      "count" : 196,
      "type" : "VEC3"
    },
    {
      "bufferView" : 3,
      "componentType" : 5126,
      "count" : 196,
      "type" : "VEC4"
    },
    {
      "bufferView" : 4,
      "componentType" : 5126,
      "count" : 196,
      "type" : "VEC2"
    },
    {
      "bufferView" : 5,
      "componentType" : 5126,
      "count" : 196,
      "type" : "VEC2"
    },
    {
      "bufferView" : 6,
      "componentType" : 5123,
      "count" : 426,
      "type" : "SCALAR"
    },
    {
      "bufferView" : 7,
      "min" : [ -0.167527, -4.86612e-06, -0.166977 ],
      "max" : [ 0.165788, 0.260951, 0.166338 ],
      "componentType" : 5126,
      "count" : 135,
      "type" : "VEC3"
    },
    {
      "bufferView" : 8,
      "componentType" : 5126,
      "count" : 135,
      "type" : "VEC3"
    },
    {
      "bufferView" : 9,
      "componentType" : 5126,
      "count" : 135,
      "type" : "VEC4"
    },
    {
      "bufferView" : 10,
      "componentType" : 5126,
      "count" : 135,
      "type" : "VEC2"
    },
    {
      "bufferView" : 11,
      "componentType" : 5126,
      "count" : 135,
      "type" : "VEC2"
    }
  ]
}
