{
  "asset" : {
    "generator" : "UE Viewer (umodel) build 1579 based",
    "version" : "2.0"
  },
  "scene" : 0,
  "scenes" : [
    {
      "nodes" : [ 0 ]
    }
  ],
  "nodes" : [
    {
      "name" : "S_Envi_Umeda_flowerA_01a",
      "mesh" : 0
    }
  ],
  "materials" : [
    {
      "name" : "MI_Envi_Umeda_FlowerA_01",
      "pbrMetallicRoughness" : {
        "baseColorFactor" : [ 0.3, 0.3, 0.3, 1.0 ],
        "metallicFactor" : 0.1,
        "roughnessFactor" : 0.5
      }
    }
  ],
  "meshes" : [
    {
      "primitives" : [
        {
          "attributes" : {
            "POSITION" : 1,
            "NORMAL" : 2,
            "TANGENT" : 3,
            "TEXCOORD_0" : 4,
            "TEXCOORD_1" : 5
          },
          "indices" : 0,
          "material" : 0
        }
      ],
      "name" : "S_Envi_Umeda_flowerA_01a"
    }
  ],
  "buffers" : [
    {
      "uri" : "S_Envi_Umeda_flowerA_01a.bin",
      "byteLength" : 48516
    }
  ],
  "bufferViews" : [
    {
      "buffer" : 0,
      "byteOffset" : 0,
      "byteLength" : 3156
    },
    {
      "buffer" : 0,
      "byteOffset" : 3156,
      "byteLength" : 9720
    },
    {
      "buffer" : 0,
      "byteOffset" : 12876,
      "byteLength" : 9720
    },
    {
      "buffer" : 0,
      "byteOffset" : 22596,
      "byteLength" : 12960
    },
    {
      "buffer" : 0,
      "byteOffset" : 35556,
      "byteLength" : 6480
    },
    {
      "buffer" : 0,
      "byteOffset" : 42036,
      "byteLength" : 6480
    }
  ],
  "accessors" : [
    {
      "bufferView" : 0,
      "componentType" : 5123,
      "count" : 1578,
      "type" : "SCALAR"
    },
    {
      "bufferView" : 1,
      "min" : [ -0.936144, -0.140058, -1.024 ],
      "max" : [ 1.15255, 1.50201, 0.973182 ],
      "componentType" : 5126,
      "count" : 810,
      "type" : "VEC3"
    },
    {
      "bufferView" : 2,
      "componentType" : 5126,
      "count" : 810,
      "type" : "VEC3"
    },
    {
      "bufferView" : 3,
      "componentType" : 5126,
      "count" : 810,
      "type" : "VEC4"
    },
    {
      "bufferView" : 4,
      "componentType" : 5126,
      "count" : 810,
      "type" : "VEC2"
    },
    {
      "bufferView" : 5,
      "componentType" : 5126,
      "count" : 810,
      "type" : "VEC2"
    }
  ]
}
