{
  "asset" : {
    "generator" : "UE Viewer (umodel) build 1579 based",
    "version" : "2.0"
  },
  "scene" : 0,
  "scenes" : [
    {
      "nodes" : [ 0 ]
    }
  ],
  "nodes" : [
    {
      "name" : "S_Envi_Umeda_flowerA_01b",
      "mesh" : 0
    }
  ],
  "materials" : [
    {
      "name" : "MI_Envi_Umeda_FlowerA_01",
      "pbrMetallicRoughness" : {
        "baseColorFactor" : [ 0.3, 0.3, 0.3, 1.0 ],
        "metallicFactor" : 0.1,
        "roughnessFactor" : 0.5
      }
    }
  ],
  "meshes" : [
    {
      "primitives" : [
        {
          "attributes" : {
            "POSITION" : 1,
            "NORMAL" : 2,
            "TANGENT" : 3,
            "TEXCOORD_0" : 4,
            "TEXCOORD_1" : 5
          },
          "indices" : 0,
          "material" : 0
        }
      ],
      "name" : "S_Envi_Umeda_flowerA_01b"
    }
  ],
  "buffers" : [
    {
      "uri" : "S_Envi_Umeda_flowerA_01b.bin",
      "byteLength" : 52052
    }
  ],
  "bufferViews" : [
    {
      "buffer" : 0,
      "byteOffset" : 0,
      "byteLength" : 3444
    },
    {
      "buffer" : 0,
      "byteOffset" : 3444,
      "byteLength" : 10416
    },
    {
      "buffer" : 0,
      "byteOffset" : 13860,
      "byteLength" : 10416
    },
    {
      "buffer" : 0,
      "byteOffset" : 24276,
      "byteLength" : 13888
    },
    {
      "buffer" : 0,
      "byteOffset" : 38164,
      "byteLength" : 6944
    },
    {
      "buffer" : 0,
      "byteOffset" : 45108,
      "byteLength" : 6944
    }
  ],
  "accessors" : [
    {
      "bufferView" : 0,
      "componentType" : 5123,
      "count" : 1722,
      "type" : "SCALAR"
    },
    {
      "bufferView" : 1,
      "min" : [ -0.853933, -0.130545, -1.14508 ],
      "max" : [ 1.29708, 1.62193, 0.979152 ],
      "componentType" : 5126,
      "count" : 868,
      "type" : "VEC3"
    },
    {
      "bufferView" : 2,
      "componentType" : 5126,
      "count" : 868,
      "type" : "VEC3"
    },
    {
      "bufferView" : 3,
      "componentType" : 5126,
      "count" : 868,
      "type" : "VEC4"
    },
    {
      "bufferView" : 4,
      "componentType" : 5126,
      "count" : 868,
      "type" : "VEC2"
    },
    {
      "bufferView" : 5,
      "componentType" : 5126,
      "count" : 868,
      "type" : "VEC2"
    }
  ]
}
