{
  "asset" : {
    "generator" : "UE Viewer (umodel) build 1579 based",
    "version" : "2.0"
  },
  "scene" : 0,
  "scenes" : [
    {
      "nodes" : [ 0 ]
    }
  ],
  "nodes" : [
    {
      "name" : "S_Envi_Foliage_shrub_17e",
      "mesh" : 0
    }
  ],
  "materials" : [
    {
      "name" : "MI_Envi_Foliage_shrub_09",
      "pbrMetallicRoughness" : {
        "baseColorFactor" : [ 0.3, 0.3, 0.3, 1.0 ],
        "metallicFactor" : 0.1,
        "roughnessFactor" : 0.5
      }
    }
  ],
  "meshes" : [
    {
      "primitives" : [
        {
          "attributes" : {
            "POSITION" : 1,
            "NORMAL" : 2,
            "TANGENT" : 3,
            "TEXCOORD_0" : 4,
            "TEXCOORD_1" : 5
          },
          "indices" : 0,
          "material" : 0
        }
      ],
      "name" : "S_Envi_Foliage_shrub_17e"
    }
  ],
  "buffers" : [
    {
      "uri" : "S_Envi_Foliage_shrub_17e.bin",
      "byteLength" : 10612
    }
  ],
  "bufferViews" : [
    {
      "buffer" : 0,
      "byteOffset" : 0,
      "byteLength" : 476
    },
    {
      "buffer" : 0,
      "byteOffset" : 476,
      "byteLength" : 2172
    },
    {
      "buffer" : 0,
      "byteOffset" : 2648,
      "byteLength" : 2172
    },
    {
      "buffer" : 0,
      "byteOffset" : 4820,
      "byteLength" : 2896
    },
    {
      "buffer" : 0,
      "byteOffset" : 7716,
      "byteLength" : 1448
    },
    {
      "buffer" : 0,
      "byteOffset" : 9164,
      "byteLength" : 1448
    }
  ],
  "accessors" : [
    {
      "bufferView" : 0,
      "componentType" : 5123,
      "count" : 237,
      "type" : "SCALAR"
    },
    {
      "bufferView" : 1,
      "min" : [ -0.27405, -0.00878438, -0.316028 ],
      "max" : [ 0.363279, 0.946394, 0.392441 ],
      "componentType" : 5126,
      "count" : 181,
      "type" : "VEC3"
    },
    {
      "bufferView" : 2,
      "componentType" : 5126,
      "count" : 181,
      "type" : "VEC3"
    },
    {
      "bufferView" : 3,
      "componentType" : 5126,
      "count" : 181,
      "type" : "VEC4"
    },
    {
      "bufferView" : 4,
      "componentType" : 5126,
      "count" : 181,
      "type" : "VEC2"
    },
    {
      "bufferView" : 5,
      "componentType" : 5126,
      "count" : 181,
      "type" : "VEC2"
    }
  ]
}
