{
  "asset" : {
    "generator" : "UE Viewer (umodel) build 1579 based",
    "version" : "2.0"
  },
  "scene" : 0,
  "scenes" : [
    {
      "nodes" : [ 0 ]
    }
  ],
  "nodes" : [
    {
      "name" : "S_Envi_Umeda_Shrub_02c",
      "mesh" : 0
    }
  ],
  "materials" : [
    {
      "name" : "MI_Envi_Umeda_Shrub_02",
      "pbrMetallicRoughness" : {
        "baseColorFactor" : [ 0.3, 0.3, 0.3, 1.0 ],
        "metallicFactor" : 0.1,
        "roughnessFactor" : 0.5
      }
    }
  ],
  "meshes" : [
    {
      "primitives" : [
        {
          "attributes" : {
            "POSITION" : 1,
            "NORMAL" : 2,
            "TANGENT" : 3,
            "TEXCOORD_0" : 4,
            "TEXCOORD_1" : 5
          },
          "indices" : 0,
          "material" : 0
        }
      ],
      "name" : "S_Envi_Umeda_Shrub_02c"
    }
  ],
  "buffers" : [
    {
      "uri" : "S_Envi_Umeda_Shrub_02c.bin",
      "byteLength" : 48948
    }
  ],
  "bufferViews" : [
    {
      "buffer" : 0,
      "byteOffset" : 0,
      "byteLength" : 3252
    },
    {
      "buffer" : 0,
      "byteOffset" : 3252,
      "byteLength" : 9792
    },
    {
      "buffer" : 0,
      "byteOffset" : 13044,
      "byteLength" : 9792
    },
    {
      "buffer" : 0,
      "byteOffset" : 22836,
      "byteLength" : 13056
    },
    {
      "buffer" : 0,
      "byteOffset" : 35892,
      "byteLength" : 6528
    },
    {
      "buffer" : 0,
      "byteOffset" : 42420,
      "byteLength" : 6528
    }
  ],
  "accessors" : [
    {
      "bufferView" : 0,
      "componentType" : 5123,
      "count" : 1626,
      "type" : "SCALAR"
    },
    {
      "bufferView" : 1,
      "min" : [ -0.863499, -0.0207415, -0.701979 ],
      "max" : [ 0.768827, 1.56084, 0.90921 ],
      "componentType" : 5126,
      "count" : 816,
      "type" : "VEC3"
    },
    {
      "bufferView" : 2,
      "componentType" : 5126,
      "count" : 816,
      "type" : "VEC3"
    },
    {
      "bufferView" : 3,
      "componentType" : 5126,
      "count" : 816,
      "type" : "VEC4"
    },
    {
      "bufferView" : 4,
      "componentType" : 5126,
      "count" : 816,
      "type" : "VEC2"
    },
    {
      "bufferView" : 5,
      "componentType" : 5126,
      "count" : 816,
      "type" : "VEC2"
    }
  ]
}
