{
  "asset" : {
    "generator" : "UE Viewer (umodel) build 1579 based",
    "version" : "2.0"
  },
  "scene" : 0,
  "scenes" : [
    {
      "nodes" : [ 0 ]
    }
  ],
  "nodes" : [
    {
      "name" : "S_Envi_Foliage_Musa_01b",
      "mesh" : 0
    }
  ],
  "materials" : [
    {
      "name" : "MI_Envi_Foliage_Musa_01a",
      "pbrMetallicRoughness" : {
        "baseColorFactor" : [ 0.3, 0.3, 0.3, 1.0 ],
        "metallicFactor" : 0.1,
        "roughnessFactor" : 0.5
      }
    }
  ],
  "meshes" : [
    {
      "primitives" : [
        {
          "attributes" : {
            "POSITION" : 1,
            "NORMAL" : 2,
            "TANGENT" : 3,
            "TEXCOORD_0" : 4,
            "TEXCOORD_1" : 5
          },
          "indices" : 0,
          "material" : 0
        }
      ],
      "name" : "S_Envi_Foliage_Musa_01b"
    }
  ],
  "buffers" : [
    {
      "uri" : "S_Envi_Foliage_Musa_01b.bin",
      "byteLength" : 126832
    }
  ],
  "bufferViews" : [
    {
      "buffer" : 0,
      "byteOffset" : 0,
      "byteLength" : 12872
    },
    {
      "buffer" : 0,
      "byteOffset" : 12872,
      "byteLength" : 24420
    },
    {
      "buffer" : 0,
      "byteOffset" : 37292,
      "byteLength" : 24420
    },
    {
      "buffer" : 0,
      "byteOffset" : 61712,
      "byteLength" : 32560
    },
    {
      "buffer" : 0,
      "byteOffset" : 94272,
      "byteLength" : 16280
    },
    {
      "buffer" : 0,
      "byteOffset" : 110552,
      "byteLength" : 16280
    }
  ],
  "accessors" : [
    {
      "bufferView" : 0,
      "componentType" : 5123,
      "count" : 6435,
      "type" : "SCALAR"
    },
    {
      "bufferView" : 1,
      "min" : [ -2.11823, -1.20682e-17, -2.55079 ],
      "max" : [ 2.73814, 4.71097, 2.01359 ],
      "componentType" : 5126,
      "count" : 2035,
      "type" : "VEC3"
    },
    {
      "bufferView" : 2,
      "componentType" : 5126,
      "count" : 2035,
      "type" : "VEC3"
    },
    {
      "bufferView" : 3,
      "componentType" : 5126,
      "count" : 2035,
      "type" : "VEC4"
    },
    {
      "bufferView" : 4,
      "componentType" : 5126,
      "count" : 2035,
      "type" : "VEC2"
    },
    {
      "bufferView" : 5,
      "componentType" : 5126,
      "count" : 2035,
      "type" : "VEC2"
    }
  ]
}
