{
  "asset" : {
    "generator" : "UE Viewer (umodel) build 1579 based",
    "version" : "2.0"
  },
  "scene" : 0,
  "scenes" : [
    {
      "nodes" : [ 0 ]
    }
  ],
  "nodes" : [
    {
      "name" : "S_Envi_Foliage_shrub_12b",
      "mesh" : 0
    }
  ],
  "materials" : [
    {
      "name" : "MI_Envi_Foliage_shrub_06",
      "pbrMetallicRoughness" : {
        "baseColorFactor" : [ 0.3, 0.3, 0.3, 1.0 ],
        "metallicFactor" : 0.1,
        "roughnessFactor" : 0.5
      }
    }
  ],
  "meshes" : [
    {
      "primitives" : [
        {
          "attributes" : {
            "POSITION" : 1,
            "NORMAL" : 2,
            "TANGENT" : 3,
            "TEXCOORD_0" : 4,
            "TEXCOORD_1" : 5
          },
          "indices" : 0,
          "material" : 0
        }
      ],
      "name" : "S_Envi_Foliage_shrub_12b"
    }
  ],
  "buffers" : [
    {
      "uri" : "S_Envi_Foliage_shrub_12b.bin",
      "byteLength" : 3796
    }
  ],
  "bufferViews" : [
    {
      "buffer" : 0,
      "byteOffset" : 0,
      "byteLength" : 324
    },
    {
      "buffer" : 0,
      "byteOffset" : 324,
      "byteLength" : 744
    },
    {
      "buffer" : 0,
      "byteOffset" : 1068,
      "byteLength" : 744
    },
    {
      "buffer" : 0,
      "byteOffset" : 1812,
      "byteLength" : 992
    },
    {
      "buffer" : 0,
      "byteOffset" : 2804,
      "byteLength" : 496
    },
    {
      "buffer" : 0,
      "byteOffset" : 3300,
      "byteLength" : 496
    }
  ],
  "accessors" : [
    {
      "bufferView" : 0,
      "componentType" : 5123,
      "count" : 162,
      "type" : "SCALAR"
    },
    {
      "bufferView" : 1,
      "min" : [ -0.317825, -0.00474864, -0.356246 ],
      "max" : [ 0.323685, 0.421512, 0.304505 ],
      "componentType" : 5126,
      "count" : 62,
      "type" : "VEC3"
    },
    {
      "bufferView" : 2,
      "componentType" : 5126,
      "count" : 62,
      "type" : "VEC3"
    },
    {
      "bufferView" : 3,
      "componentType" : 5126,
      "count" : 62,
      "type" : "VEC4"
    },
    {
      "bufferView" : 4,
      "componentType" : 5126,
      "count" : 62,
      "type" : "VEC2"
    },
    {
      "bufferView" : 5,
      "componentType" : 5126,
      "count" : 62,
      "type" : "VEC2"
    }
  ]
}
