{
  "asset" : {
    "generator" : "UE Viewer (umodel) build 1579 based",
    "version" : "2.0"
  },
  "scene" : 0,
  "scenes" : [
    {
      "nodes" : [ 0 ]
    }
  ],
  "nodes" : [
    {
      "name" : "S_Envi_common_flowerpot_01c",
      "mesh" : 0
    }
  ],
  "materials" : [
    {
      "name" : "MI_Envi_common_flowerpot_01",
      "pbrMetallicRoughness" : {
        "baseColorFactor" : [ 0.3, 0.3, 0.3, 1.0 ],
        "metallicFactor" : 0.1,
        "roughnessFactor" : 0.5
      }
    }
  ],
  "meshes" : [
    {
      "primitives" : [
        {
          "attributes" : {
            "POSITION" : 1,
            "NORMAL" : 2,
            "TANGENT" : 3,
            "TEXCOORD_0" : 4,
            "TEXCOORD_1" : 5
          },
          "indices" : 0,
          "material" : 0
        }
      ],
      "name" : "S_Envi_common_flowerpot_01c"
    }
  ],
  "buffers" : [
    {
      "uri" : "S_Envi_common_flowerpot_01c.bin",
      "byteLength" : 9824
    }
  ],
  "bufferViews" : [
    {
      "buffer" : 0,
      "byteOffset" : 0,
      "byteLength" : 864
    },
    {
      "buffer" : 0,
      "byteOffset" : 864,
      "byteLength" : 1920
    },
    {
      "buffer" : 0,
      "byteOffset" : 2784,
      "byteLength" : 1920
    },
    {
      "buffer" : 0,
      "byteOffset" : 4704,
      "byteLength" : 2560
    },
    {
      "buffer" : 0,
      "byteOffset" : 7264,
      "byteLength" : 1280
    },
    {
      "buffer" : 0,
      "byteOffset" : 8544,
      "byteLength" : 1280
    }
  ],
  "accessors" : [
    {
      "bufferView" : 0,
      "componentType" : 5123,
      "count" : 432,
      "type" : "SCALAR"
    },
    {
      "bufferView" : 1,
      "min" : [ -0.167612, -4.86612e-06, -0.166977 ],
      "max" : [ 0.165703, 0.260951, 0.166338 ],
      "componentType" : 5126,
      "count" : 160,
      "type" : "VEC3"
    },
    {
      "bufferView" : 2,
      "componentType" : 5126,
      "count" : 160,
      "type" : "VEC3"
    },
    {
      "bufferView" : 3,
      "componentType" : 5126,
      "count" : 160,
      "type" : "VEC4"
    },
    {
      "bufferView" : 4,
      "componentType" : 5126,
      "count" : 160,
      "type" : "VEC2"
    },
    {
      "bufferView" : 5,
      "componentType" : 5126,
      "count" : 160,
      "type" : "VEC2"
    }
  ]
}
