{
  "asset" : {
    "generator" : "UE Viewer (umodel) build 1579 based",
    "version" : "2.0"
  },
  "scene" : 0,
  "scenes" : [
    {
      "nodes" : [ 0 ]
    }
  ],
  "nodes" : [
    {
      "name" : "S_Envi_Foliage_shrub_17b",
      "mesh" : 0
    }
  ],
  "materials" : [
    {
      "name" : "MI_Envi_Foliage_shrub_08",
      "pbrMetallicRoughness" : {
        "baseColorFactor" : [ 0.3, 0.3, 0.3, 1.0 ],
        "metallicFactor" : 0.1,
        "roughnessFactor" : 0.5
      }
    }
  ],
  "meshes" : [
    {
      "primitives" : [
        {
          "attributes" : {
            "POSITION" : 1,
            "NORMAL" : 2,
            "TANGENT" : 3,
            "TEXCOORD_0" : 4,
            "TEXCOORD_1" : 5
          },
          "indices" : 0,
          "material" : 0
        }
      ],
      "name" : "S_Envi_Foliage_shrub_17b"
    }
  ],
  "buffers" : [
    {
      "uri" : "S_Envi_Foliage_shrub_17b.bin",
      "byteLength" : 36588
    }
  ],
  "bufferViews" : [
    {
      "buffer" : 0,
      "byteOffset" : 0,
      "byteLength" : 2820
    },
    {
      "buffer" : 0,
      "byteOffset" : 2820,
      "byteLength" : 7236
    },
    {
      "buffer" : 0,
      "byteOffset" : 10056,
      "byteLength" : 7236
    },
    {
      "buffer" : 0,
      "byteOffset" : 17292,
      "byteLength" : 9648
    },
    {
      "buffer" : 0,
      "byteOffset" : 26940,
      "byteLength" : 4824
    },
    {
      "buffer" : 0,
      "byteOffset" : 31764,
      "byteLength" : 4824
    }
  ],
  "accessors" : [
    {
      "bufferView" : 0,
      "componentType" : 5123,
      "count" : 1410,
      "type" : "SCALAR"
    },
    {
      "bufferView" : 1,
      "min" : [ -0.799438, 0.0845509, -0.759926 ],
      "max" : [ 0.817682, 1.09273, 0.810821 ],
      "componentType" : 5126,
      "count" : 603,
      "type" : "VEC3"
    },
    {
      "bufferView" : 2,
      "componentType" : 5126,
      "count" : 603,
      "type" : "VEC3"
    },
    {
      "bufferView" : 3,
      "componentType" : 5126,
      "count" : 603,
      "type" : "VEC4"
    },
    {
      "bufferView" : 4,
      "componentType" : 5126,
      "count" : 603,
      "type" : "VEC2"
    },
    {
      "bufferView" : 5,
      "componentType" : 5126,
      "count" : 603,
      "type" : "VEC2"
    }
  ]
}
