{
  "asset" : {
    "generator" : "UE Viewer (umodel) build 1579 based",
    "version" : "2.0"
  },
  "scene" : 0,
  "scenes" : [
    {
      "nodes" : [ 0 ]
    }
  ],
  "nodes" : [
    {
      "name" : "S_Envi_Umeda_treeA_01f",
      "mesh" : 0
    }
  ],
  "materials" : [
    {
      "name" : "MI_Envi_Umeda_treeA_01f",
      "pbrMetallicRoughness" : {
        "baseColorFactor" : [ 0.3, 0.3, 0.3, 1.0 ],
        "metallicFactor" : 0.1,
        "roughnessFactor" : 0.5
      }
    },
    {
      "name" : "MI_Envi_Umeda_treeA_Trunk_01",
      "pbrMetallicRoughness" : {
        "baseColorFactor" : [ 0.9, 0.3, 0.3, 1.0 ],
        "metallicFactor" : 0.1,
        "roughnessFactor" : 0.5
      }
    }
  ],
  "meshes" : [
    {
      "primitives" : [
        {
          "attributes" : {
            "POSITION" : 1,
            "NORMAL" : 2,
            "TANGENT" : 3,
            "TEXCOORD_0" : 4,
            "TEXCOORD_1" : 5
          },
          "indices" : 0,
          "material" : 0
        },
        {
          "attributes" : {
            "POSITION" : 7,
            "NORMAL" : 8,
            "TANGENT" : 9,
            "TEXCOORD_0" : 10,
            "TEXCOORD_1" : 11
          },
          "indices" : 6,
          "material" : 1
        }
      ],
      "name" : "S_Envi_Umeda_treeA_01f"
    }
  ],
  "buffers" : [
    {
      "uri" : "S_Envi_Umeda_treeA_01f.bin",
      "byteLength" : 477140
    }
  ],
  "bufferViews" : [
    {
      "buffer" : 0,
      "byteOffset" : 0,
      "byteLength" : 22380
    },
    {
      "buffer" : 0,
      "byteOffset" : 22380,
      "byteLength" : 89616
    },
    {
      "buffer" : 0,
      "byteOffset" : 111996,
      "byteLength" : 89616
    },
    {
      "buffer" : 0,
      "byteOffset" : 201612,
      "byteLength" : 119488
    },
    {
      "buffer" : 0,
      "byteOffset" : 321100,
      "byteLength" : 59744
    },
    {
      "buffer" : 0,
      "byteOffset" : 380844,
      "byteLength" : 59744
    },
    {
      "buffer" : 0,
      "byteOffset" : 440588,
      "byteLength" : 4800
    },
    {
      "buffer" : 0,
      "byteOffset" : 445388,
      "byteLength" : 6804
    },
    {
      "buffer" : 0,
      "byteOffset" : 452192,
      "byteLength" : 6804
    },
    {
      "buffer" : 0,
      "byteOffset" : 458996,
      "byteLength" : 9072
    },
    {
      "buffer" : 0,
      "byteOffset" : 468068,
      "byteLength" : 4536
    },
    {
      "buffer" : 0,
      "byteOffset" : 472604,
      "byteLength" : 4536
    }
  ],
  "accessors" : [
    {
      "bufferView" : 0,
      "componentType" : 5123,
      "count" : 11190,
      "type" : "SCALAR"
    },
    {
      "bufferView" : 1,
      "min" : [ -6.16709, 2.81176, -5.67663 ],
      "max" : [ 5.84692, 16.67, 6.27562 ],
      "componentType" : 5126,
      "count" : 7468,
      "type" : "VEC3"
    },
    {
      "bufferView" : 2,
      "componentType" : 5126,
      "count" : 7468,
      "type" : "VEC3"
    },
    {
      "bufferView" : 3,
      "componentType" : 5126,
      "count" : 7468,
      "type" : "VEC4"
    },
    {
      "bufferView" : 4,
      "componentType" : 5126,
      "count" : 7468,
      "type" : "VEC2"
    },
    {
      "bufferView" : 5,
      "componentType" : 5126,
      "count" : 7468,
      "type" : "VEC2"
    },
    {
      "bufferView" : 6,
      "componentType" : 5123,
      "count" : 2400,
      "type" : "SCALAR"
    },
    {
      "bufferView" : 7,
      "min" : [ -4.32242, -0.00688244, -3.57203 ],
      "max" : [ 2.96128, 12.9393, 3.85749 ],
      "componentType" : 5126,
      "count" : 567,
      "type" : "VEC3"
    },
    {
      "bufferView" : 8,
      "componentType" : 5126,
      "count" : 567,
      "type" : "VEC3"
    },
    {
      "bufferView" : 9,
      "componentType" : 5126,
      "count" : 567,
      "type" : "VEC4"
    },
    {
      "bufferView" : 10,
      "componentType" : 5126,
      "count" : 567,
      "type" : "VEC2"
    },
    {
      "bufferView" : 11,
      "componentType" : 5126,
      "count" : 567,
      "type" : "VEC2"
    }
  ]
}
