{
  "asset" : {
    "generator" : "UE Viewer (umodel) build 1579 based",
    "version" : "2.0"
  },
  "scene" : 0,
  "scenes" : [
    {
      "nodes" : [ 0 ]
    }
  ],
  "nodes" : [
    {
      "name" : "S_Envi_Umeda_treeA_02",
      "mesh" : 0
    }
  ],
  "materials" : [
    {
      "name" : "MI_Envi_Umeda_treeA_Leaves_01",
      "pbrMetallicRoughness" : {
        "baseColorFactor" : [ 0.3, 0.3, 0.3, 1.0 ],
        "metallicFactor" : 0.1,
        "roughnessFactor" : 0.5
      }
    },
    {
      "name" : "MI_Envi_Umeda_treeA_Trunk_01",
      "pbrMetallicRoughness" : {
        "baseColorFactor" : [ 0.9, 0.3, 0.3, 1.0 ],
        "metallicFactor" : 0.1,
        "roughnessFactor" : 0.5
      }
    }
  ],
  "meshes" : [
    {
      "primitives" : [
        {
          "attributes" : {
            "POSITION" : 1,
            "NORMAL" : 2,
            "TANGENT" : 3,
            "TEXCOORD_0" : 4,
            "TEXCOORD_1" : 5
          },
          "indices" : 0,
          "material" : 0
        },
        {
          "attributes" : {
            "POSITION" : 7,
            "NORMAL" : 8,
            "TANGENT" : 9,
            "TEXCOORD_0" : 10,
            "TEXCOORD_1" : 11
          },
          "indices" : 6,
          "material" : 1
        }
      ],
      "name" : "S_Envi_Umeda_treeA_02"
    }
  ],
  "buffers" : [
    {
      "uri" : "S_Envi_Umeda_treeA_02.bin",
      "byteLength" : 235988
    }
  ],
  "bufferViews" : [
    {
      "buffer" : 0,
      "byteOffset" : 0,
      "byteLength" : 13032
    },
    {
      "buffer" : 0,
      "byteOffset" : 13032,
      "byteLength" : 34272
    },
    {
      "buffer" : 0,
      "byteOffset" : 47304,
      "byteLength" : 34272
    },
    {
      "buffer" : 0,
      "byteOffset" : 81576,
      "byteLength" : 45696
    },
    {
      "buffer" : 0,
      "byteOffset" : 127272,
      "byteLength" : 22848
    },
    {
      "buffer" : 0,
      "byteOffset" : 150120,
      "byteLength" : 22848
    },
    {
      "buffer" : 0,
      "byteOffset" : 172968,
      "byteLength" : 9036
    },
    {
      "buffer" : 0,
      "byteOffset" : 182004,
      "byteLength" : 11568
    },
    {
      "buffer" : 0,
      "byteOffset" : 193572,
      "byteLength" : 11568
    },
    {
      "buffer" : 0,
      "byteOffset" : 205140,
      "byteLength" : 15424
    },
    {
      "buffer" : 0,
      "byteOffset" : 220564,
      "byteLength" : 7712
    },
    {
      "buffer" : 0,
      "byteOffset" : 228276,
      "byteLength" : 7712
    }
  ],
  "accessors" : [
    {
      "bufferView" : 0,
      "componentType" : 5123,
      "count" : 6516,
      "type" : "SCALAR"
    },
    {
      "bufferView" : 1,
      "min" : [ -3.14216, 3.02841, -3.01811 ],
      "max" : [ 4.43479, 7.49528, 3.06656 ],
      "componentType" : 5126,
      "count" : 2856,
      "type" : "VEC3"
    },
    {
      "bufferView" : 2,
      "componentType" : 5126,
      "count" : 2856,
      "type" : "VEC3"
    },
    {
      "bufferView" : 3,
      "componentType" : 5126,
      "count" : 2856,
      "type" : "VEC4"
    },
    {
      "bufferView" : 4,
      "componentType" : 5126,
      "count" : 2856,
      "type" : "VEC2"
    },
    {
      "bufferView" : 5,
      "componentType" : 5126,
      "count" : 2856,
      "type" : "VEC2"
    },
    {
      "bufferView" : 6,
      "componentType" : 5123,
      "count" : 4518,
      "type" : "SCALAR"
    },
    {
      "bufferView" : 7,
      "min" : [ -2.2909, -0.009287, -1.26673 ],
      "max" : [ 3.7858, 6.27555, 2.16897 ],
      "componentType" : 5126,
      "count" : 964,
      "type" : "VEC3"
    },
    {
      "bufferView" : 8,
      "componentType" : 5126,
      "count" : 964,
      "type" : "VEC3"
    },
    {
      "bufferView" : 9,
      "componentType" : 5126,
      "count" : 964,
      "type" : "VEC4"
    },
    {
      "bufferView" : 10,
      "componentType" : 5126,
      "count" : 964,
      "type" : "VEC2"
    },
    {
      "bufferView" : 11,
      "componentType" : 5126,
      "count" : 964,
      "type" : "VEC2"
    }
  ]
}
