{
  "asset" : {
    "generator" : "UE Viewer (umodel) build 1579 based",
    "version" : "2.0"
  },
  "scene" : 0,
  "scenes" : [
    {
      "nodes" : [ 0 ]
    }
  ],
  "nodes" : [
    {
      "name" : "S_Envi_Foliage_shrub_17a",
      "mesh" : 0
    }
  ],
  "materials" : [
    {
      "name" : "MI_Envi_Foliage_shrub_08",
      "pbrMetallicRoughness" : {
        "baseColorFactor" : [ 0.3, 0.3, 0.3, 1.0 ],
        "metallicFactor" : 0.1,
        "roughnessFactor" : 0.5
      }
    }
  ],
  "meshes" : [
    {
      "primitives" : [
        {
          "attributes" : {
            "POSITION" : 1,
            "NORMAL" : 2,
            "TANGENT" : 3,
            "TEXCOORD_0" : 4,
            "TEXCOORD_1" : 5
          },
          "indices" : 0,
          "material" : 0
        }
      ],
      "name" : "S_Envi_Foliage_shrub_17a"
    }
  ],
  "buffers" : [
    {
      "uri" : "S_Envi_Foliage_shrub_17a.bin",
      "byteLength" : 70832
    }
  ],
  "bufferViews" : [
    {
      "buffer" : 0,
      "byteOffset" : 0,
      "byteLength" : 5424
    },
    {
      "buffer" : 0,
      "byteOffset" : 5424,
      "byteLength" : 14016
    },
    {
      "buffer" : 0,
      "byteOffset" : 19440,
      "byteLength" : 14016
    },
    {
      "buffer" : 0,
      "byteOffset" : 33456,
      "byteLength" : 18688
    },
    {
      "buffer" : 0,
      "byteOffset" : 52144,
      "byteLength" : 9344
    },
    {
      "buffer" : 0,
      "byteOffset" : 61488,
      "byteLength" : 9344
    }
  ],
  "accessors" : [
    {
      "bufferView" : 0,
      "componentType" : 5123,
      "count" : 2712,
      "type" : "SCALAR"
    },
    {
      "bufferView" : 1,
      "min" : [ -0.824115, -0.00281624, -0.759926 ],
      "max" : [ 0.817682, 1.09273, 0.842474 ],
      "componentType" : 5126,
      "count" : 1168,
      "type" : "VEC3"
    },
    {
      "bufferView" : 2,
      "componentType" : 5126,
      "count" : 1168,
      "type" : "VEC3"
    },
    {
      "bufferView" : 3,
      "componentType" : 5126,
      "count" : 1168,
      "type" : "VEC4"
    },
    {
      "bufferView" : 4,
      "componentType" : 5126,
      "count" : 1168,
      "type" : "VEC2"
    },
    {
      "bufferView" : 5,
      "componentType" : 5126,
      "count" : 1168,
      "type" : "VEC2"
    }
  ]
}
