{
  "asset" : {
    "generator" : "UE Viewer (umodel) build 1579 based",
    "version" : "2.0"
  },
  "scene" : 0,
  "scenes" : [
    {
      "nodes" : [ 0 ]
    }
  ],
  "nodes" : [
    {
      "name" : "S_Envi_Umeda_shrubA_01d",
      "mesh" : 0
    }
  ],
  "materials" : [
    {
      "name" : "MI_Envi_Umeda_treeA_Trunk_01",
      "pbrMetallicRoughness" : {
        "baseColorFactor" : [ 0.3, 0.3, 0.3, 1.0 ],
        "metallicFactor" : 0.1,
        "roughnessFactor" : 0.5
      }
    },
    {
      "name" : "MI_Envi_Umeda_shrubA_01",
      "pbrMetallicRoughness" : {
        "baseColorFactor" : [ 0.9, 0.3, 0.3, 1.0 ],
        "metallicFactor" : 0.1,
        "roughnessFactor" : 0.5
      }
    }
  ],
  "meshes" : [
    {
      "primitives" : [
        {
          "attributes" : {
            "POSITION" : 1,
            "NORMAL" : 2,
            "TANGENT" : 3,
            "TEXCOORD_0" : 4,
            "TEXCOORD_1" : 5
          },
          "indices" : 0,
          "material" : 0
        },
        {
          "attributes" : {
            "POSITION" : 7,
            "NORMAL" : 8,
            "TANGENT" : 9,
            "TEXCOORD_0" : 10,
            "TEXCOORD_1" : 11
          },
          "indices" : 6,
          "material" : 1
        }
      ],
      "name" : "S_Envi_Umeda_shrubA_01d"
    }
  ],
  "buffers" : [
    {
      "uri" : "S_Envi_Umeda_shrubA_01d.bin",
      "byteLength" : 25344
    }
  ],
  "bufferViews" : [
    {
      "buffer" : 0,
      "byteOffset" : 0,
      "byteLength" : 1352
    },
    {
      "buffer" : 0,
      "byteOffset" : 1352,
      "byteLength" : 2028
    },
    {
      "buffer" : 0,
      "byteOffset" : 3380,
      "byteLength" : 2028
    },
    {
      "buffer" : 0,
      "byteOffset" : 5408,
      "byteLength" : 2704
    },
    {
      "buffer" : 0,
      "byteOffset" : 8112,
      "byteLength" : 1352
    },
    {
      "buffer" : 0,
      "byteOffset" : 9464,
      "byteLength" : 1352
    },
    {
      "buffer" : 0,
      "byteOffset" : 10816,
      "byteLength" : 1032
    },
    {
      "buffer" : 0,
      "byteOffset" : 11848,
      "byteLength" : 2892
    },
    {
      "buffer" : 0,
      "byteOffset" : 14740,
      "byteLength" : 2892
    },
    {
      "buffer" : 0,
      "byteOffset" : 17632,
      "byteLength" : 3856
    },
    {
      "buffer" : 0,
      "byteOffset" : 21488,
      "byteLength" : 1928
    },
    {
      "buffer" : 0,
      "byteOffset" : 23416,
      "byteLength" : 1928
    }
  ],
  "accessors" : [
    {
      "bufferView" : 0,
      "componentType" : 5123,
      "count" : 675,
      "type" : "SCALAR"
    },
    {
      "bufferView" : 1,
      "min" : [ -0.280437, -2.1545e-07, -0.42378 ],
      "max" : [ 0.822527, 1.8947, 0.565734 ],
      "componentType" : 5126,
      "count" : 169,
      "type" : "VEC3"
    },
    {
      "bufferView" : 2,
      "componentType" : 5126,
      "count" : 169,
      "type" : "VEC3"
    },
    {
      "bufferView" : 3,
      "componentType" : 5126,
      "count" : 169,
      "type" : "VEC4"
    },
    {
      "bufferView" : 4,
      "componentType" : 5126,
      "count" : 169,
      "type" : "VEC2"
    },
    {
      "bufferView" : 5,
      "componentType" : 5126,
      "count" : 169,
      "type" : "VEC2"
    },
    {
      "bufferView" : 6,
      "componentType" : 5123,
      "count" : 516,
      "type" : "SCALAR"
    },
    {
      "bufferView" : 7,
      "min" : [ -0.838247, 0.248826, -0.762181 ],
      "max" : [ 1.1082, 2.01838, 0.983576 ],
      "componentType" : 5126,
      "count" : 241,
      "type" : "VEC3"
    },
    {
      "bufferView" : 8,
      "componentType" : 5126,
      "count" : 241,
      "type" : "VEC3"
    },
    {
      "bufferView" : 9,
      "componentType" : 5126,
      "count" : 241,
      "type" : "VEC4"
    },
    {
      "bufferView" : 10,
      "componentType" : 5126,
      "count" : 241,
      "type" : "VEC2"
    },
    {
      "bufferView" : 11,
      "componentType" : 5126,
      "count" : 241,
      "type" : "VEC2"
    }
  ]
}
