{
  "asset" : {
    "generator" : "UE Viewer (umodel) build 1579 based",
    "version" : "2.0"
  },
  "scene" : 0,
  "scenes" : [
    {
      "nodes" : [ 0 ]
    }
  ],
  "nodes" : [
    {
      "name" : "S_Envi_Umeda_Shrub_03b",
      "mesh" : 0
    }
  ],
  "materials" : [
    {
      "name" : "MI_Envi_Umeda_Shrub_03",
      "pbrMetallicRoughness" : {
        "baseColorFactor" : [ 0.3, 0.3, 0.3, 1.0 ],
        "metallicFactor" : 0.1,
        "roughnessFactor" : 0.5
      }
    },
    {
      "name" : "MI_Envi_common_flowerpot_01",
      "pbrMetallicRoughness" : {
        "baseColorFactor" : [ 0.9, 0.3, 0.3, 1.0 ],
        "metallicFactor" : 0.1,
        "roughnessFactor" : 0.5
      }
    }
  ],
  "meshes" : [
    {
      "primitives" : [
        {
          "attributes" : {
            "POSITION" : 1,
            "NORMAL" : 2,
            "TANGENT" : 3,
            "TEXCOORD_0" : 4,
            "TEXCOORD_1" : 5
          },
          "indices" : 0,
          "material" : 0
        },
        {
          "attributes" : {
            "POSITION" : 7,
            "NORMAL" : 8,
            "TANGENT" : 9,
            "TEXCOORD_0" : 10,
            "TEXCOORD_1" : 11
          },
          "indices" : 6,
          "material" : 1
        }
      ],
      "name" : "S_Envi_Umeda_Shrub_03b"
    }
  ],
  "buffers" : [
    {
      "uri" : "S_Envi_Umeda_Shrub_03b.bin",
      "byteLength" : 39044
    }
  ],
  "bufferViews" : [
    {
      "buffer" : 0,
      "byteOffset" : 0,
      "byteLength" : 2148
    },
    {
      "buffer" : 0,
      "byteOffset" : 2148,
      "byteLength" : 5376
    },
    {
      "buffer" : 0,
      "byteOffset" : 7524,
      "byteLength" : 5376
    },
    {
      "buffer" : 0,
      "byteOffset" : 12900,
      "byteLength" : 7168
    },
    {
      "buffer" : 0,
      "byteOffset" : 20068,
      "byteLength" : 3584
    },
    {
      "buffer" : 0,
      "byteOffset" : 23652,
      "byteLength" : 3584
    },
    {
      "buffer" : 0,
      "byteOffset" : 27236,
      "byteLength" : 1056
    },
    {
      "buffer" : 0,
      "byteOffset" : 28292,
      "byteLength" : 2304
    },
    {
      "buffer" : 0,
      "byteOffset" : 30596,
      "byteLength" : 2304
    },
    {
      "buffer" : 0,
      "byteOffset" : 32900,
      "byteLength" : 3072
    },
    {
      "buffer" : 0,
      "byteOffset" : 35972,
      "byteLength" : 1536
    },
    {
      "buffer" : 0,
      "byteOffset" : 37508,
      "byteLength" : 1536
    }
  ],
  "accessors" : [
    {
      "bufferView" : 0,
      "componentType" : 5123,
      "count" : 1074,
      "type" : "SCALAR"
    },
    {
      "bufferView" : 1,
      "min" : [ -0.196767, 0.220162, -0.184789 ],
      "max" : [ 0.122942, 0.766098, 0.0900087 ],
      "componentType" : 5126,
      "count" : 448,
      "type" : "VEC3"
    },
    {
      "bufferView" : 2,
      "componentType" : 5126,
      "count" : 448,
      "type" : "VEC3"
    },
    {
      "bufferView" : 3,
      "componentType" : 5126,
      "count" : 448,
      "type" : "VEC4"
    },
    {
      "bufferView" : 4,
      "componentType" : 5126,
      "count" : 448,
      "type" : "VEC2"
    },
    {
      "bufferView" : 5,
      "componentType" : 5126,
      "count" : 448,
      "type" : "VEC2"
    },
    {
      "bufferView" : 6,
      "componentType" : 5123,
      "count" : 528,
      "type" : "SCALAR"
    },
    {
      "bufferView" : 7,
      "min" : [ -0.136805, 0.00143719, -0.13681 ],
      "max" : [ 0.136807, 0.282881, 0.136802 ],
      "componentType" : 5126,
      "count" : 192,
      "type" : "VEC3"
    },
    {
      "bufferView" : 8,
      "componentType" : 5126,
      "count" : 192,
      "type" : "VEC3"
    },
    {
      "bufferView" : 9,
      "componentType" : 5126,
      "count" : 192,
      "type" : "VEC4"
    },
    {
      "bufferView" : 10,
      "componentType" : 5126,
      "count" : 192,
      "type" : "VEC2"
    },
    {
      "bufferView" : 11,
      "componentType" : 5126,
      "count" : 192,
      "type" : "VEC2"
    }
  ]
}
