{
  "asset" : {
    "generator" : "UE Viewer (umodel) build 1579 based",
    "version" : "2.0"
  },
  "scene" : 0,
  "scenes" : [
    {
      "nodes" : [ 0 ]
    }
  ],
  "nodes" : [
    {
      "name" : "S_Envi_Umeda_shrubA_01c",
      "mesh" : 0
    }
  ],
  "materials" : [
    {
      "name" : "MI_Envi_Umeda_shrubA_01",
      "pbrMetallicRoughness" : {
        "baseColorFactor" : [ 0.3, 0.3, 0.3, 1.0 ],
        "metallicFactor" : 0.1,
        "roughnessFactor" : 0.5
      }
    },
    {
      "name" : "MI_Envi_Umeda_treeA_Trunk_01",
      "pbrMetallicRoughness" : {
        "baseColorFactor" : [ 0.9, 0.3, 0.3, 1.0 ],
        "metallicFactor" : 0.1,
        "roughnessFactor" : 0.5
      }
    }
  ],
  "meshes" : [
    {
      "primitives" : [
        {
          "attributes" : {
            "POSITION" : 1,
            "NORMAL" : 2,
            "TANGENT" : 3,
            "TEXCOORD_0" : 4,
            "TEXCOORD_1" : 5
          },
          "indices" : 0,
          "material" : 0
        },
        {
          "attributes" : {
            "POSITION" : 7,
            "NORMAL" : 8,
            "TANGENT" : 9,
            "TEXCOORD_0" : 10,
            "TEXCOORD_1" : 11
          },
          "indices" : 6,
          "material" : 1
        }
      ],
      "name" : "S_Envi_Umeda_shrubA_01c"
    }
  ],
  "buffers" : [
    {
      "uri" : "S_Envi_Umeda_shrubA_01c.bin",
      "byteLength" : 23192
    }
  ],
  "bufferViews" : [
    {
      "buffer" : 0,
      "byteOffset" : 0,
      "byteLength" : 900
    },
    {
      "buffer" : 0,
      "byteOffset" : 900,
      "byteLength" : 2520
    },
    {
      "buffer" : 0,
      "byteOffset" : 3420,
      "byteLength" : 2520
    },
    {
      "buffer" : 0,
      "byteOffset" : 5940,
      "byteLength" : 3360
    },
    {
      "buffer" : 0,
      "byteOffset" : 9300,
      "byteLength" : 1680
    },
    {
      "buffer" : 0,
      "byteOffset" : 10980,
      "byteLength" : 1680
    },
    {
      "buffer" : 0,
      "byteOffset" : 12660,
      "byteLength" : 1292
    },
    {
      "buffer" : 0,
      "byteOffset" : 13952,
      "byteLength" : 1980
    },
    {
      "buffer" : 0,
      "byteOffset" : 15932,
      "byteLength" : 1980
    },
    {
      "buffer" : 0,
      "byteOffset" : 17912,
      "byteLength" : 2640
    },
    {
      "buffer" : 0,
      "byteOffset" : 20552,
      "byteLength" : 1320
    },
    {
      "buffer" : 0,
      "byteOffset" : 21872,
      "byteLength" : 1320
    }
  ],
  "accessors" : [
    {
      "bufferView" : 0,
      "componentType" : 5123,
      "count" : 450,
      "type" : "SCALAR"
    },
    {
      "bufferView" : 1,
      "min" : [ -0.857897, 0.295904, -0.644888 ],
      "max" : [ 0.760367, 2.11203, 0.659043 ],
      "componentType" : 5126,
      "count" : 210,
      "type" : "VEC3"
    },
    {
      "bufferView" : 2,
      "componentType" : 5126,
      "count" : 210,
      "type" : "VEC3"
    },
    {
      "bufferView" : 3,
      "componentType" : 5126,
      "count" : 210,
      "type" : "VEC4"
    },
    {
      "bufferView" : 4,
      "componentType" : 5126,
      "count" : 210,
      "type" : "VEC2"
    },
    {
      "bufferView" : 5,
      "componentType" : 5126,
      "count" : 210,
      "type" : "VEC2"
    },
    {
      "bufferView" : 6,
      "componentType" : 5123,
      "count" : 645,
      "type" : "SCALAR"
    },
    {
      "bufferView" : 7,
      "min" : [ -0.39958, 0.00573098, -0.25371 ],
      "max" : [ 0.249894, 2.0024, 0.115536 ],
      "componentType" : 5126,
      "count" : 165,
      "type" : "VEC3"
    },
    {
      "bufferView" : 8,
      "componentType" : 5126,
      "count" : 165,
      "type" : "VEC3"
    },
    {
      "bufferView" : 9,
      "componentType" : 5126,
      "count" : 165,
      "type" : "VEC4"
    },
    {
      "bufferView" : 10,
      "componentType" : 5126,
      "count" : 165,
      "type" : "VEC2"
    },
    {
      "bufferView" : 11,
      "componentType" : 5126,
      "count" : 165,
      "type" : "VEC2"
    }
  ]
}
