{
  "asset" : {
    "generator" : "UE Viewer (umodel) build 1579 based",
    "version" : "2.0"
  },
  "scene" : 0,
  "scenes" : [
    {
      "nodes" : [ 0 ]
    }
  ],
  "nodes" : [
    {
      "name" : "S_Envi_umeda_cherrytree_02b",
      "mesh" : 0
    }
  ],
  "materials" : [
    {
      "name" : "MI_Envi_Umeda_Cherrytree_Leaves_01",
      "pbrMetallicRoughness" : {
        "baseColorFactor" : [ 0.3, 0.3, 0.3, 1.0 ],
        "metallicFactor" : 0.1,
        "roughnessFactor" : 0.5
      }
    },
    {
      "name" : "MI_Envi_Umeda_Cherrytree_Trunk_01",
      "pbrMetallicRoughness" : {
        "baseColorFactor" : [ 0.9, 0.3, 0.3, 1.0 ],
        "metallicFactor" : 0.1,
        "roughnessFactor" : 0.5
      }
    }
  ],
  "meshes" : [
    {
      "primitives" : [
        {
          "attributes" : {
            "POSITION" : 1,
            "NORMAL" : 2,
            "TANGENT" : 3,
            "TEXCOORD_0" : 4,
            "TEXCOORD_1" : 5
          },
          "indices" : 0,
          "material" : 0
        },
        {
          "attributes" : {
            "POSITION" : 7,
            "NORMAL" : 8,
            "TANGENT" : 9,
            "TEXCOORD_0" : 10,
            "TEXCOORD_1" : 11
          },
          "indices" : 6,
          "material" : 1
        }
      ],
      "name" : "S_Envi_umeda_cherrytree_02b"
    }
  ],
  "buffers" : [
    {
      "uri" : "S_Envi_umeda_cherrytree_02b.bin",
      "byteLength" : 405716
    }
  ],
  "bufferViews" : [
    {
      "buffer" : 0,
      "byteOffset" : 0,
      "byteLength" : 20112
    },
    {
      "buffer" : 0,
      "byteOffset" : 20112,
      "byteLength" : 69336
    },
    {
      "buffer" : 0,
      "byteOffset" : 89448,
      "byteLength" : 69336
    },
    {
      "buffer" : 0,
      "byteOffset" : 158784,
      "byteLength" : 92448
    },
    {
      "buffer" : 0,
      "byteOffset" : 251232,
      "byteLength" : 46224
    },
    {
      "buffer" : 0,
      "byteOffset" : 297456,
      "byteLength" : 46224
    },
    {
      "buffer" : 0,
      "byteOffset" : 343680,
      "byteLength" : 8052
    },
    {
      "buffer" : 0,
      "byteOffset" : 351732,
      "byteLength" : 11568
    },
    {
      "buffer" : 0,
      "byteOffset" : 363300,
      "byteLength" : 11568
    },
    {
      "buffer" : 0,
      "byteOffset" : 374868,
      "byteLength" : 15424
    },
    {
      "buffer" : 0,
      "byteOffset" : 390292,
      "byteLength" : 7712
    },
    {
      "buffer" : 0,
      "byteOffset" : 398004,
      "byteLength" : 7712
    }
  ],
  "accessors" : [
    {
      "bufferView" : 0,
      "componentType" : 5123,
      "count" : 10056,
      "type" : "SCALAR"
    },
    {
      "bufferView" : 1,
      "min" : [ -11.0081, 0.734363, -17.7614 ],
      "max" : [ 17.2218, 16.6241, 7.0961 ],
      "componentType" : 5126,
      "count" : 5778,
      "type" : "VEC3"
    },
    {
      "bufferView" : 2,
      "componentType" : 5126,
      "count" : 5778,
      "type" : "VEC3"
    },
    {
      "bufferView" : 3,
      "componentType" : 5126,
      "count" : 5778,
      "type" : "VEC4"
    },
    {
      "bufferView" : 4,
      "componentType" : 5126,
      "count" : 5778,
      "type" : "VEC2"
    },
    {
      "bufferView" : 5,
      "componentType" : 5126,
      "count" : 5778,
      "type" : "VEC2"
    },
    {
      "bufferView" : 6,
      "componentType" : 5123,
      "count" : 4026,
      "type" : "SCALAR"
    },
    {
      "bufferView" : 7,
      "min" : [ -6.88867, -1.06514, -14.4196 ],
      "max" : [ 14.7995, 13.5385, 3.4292 ],
      "componentType" : 5126,
      "count" : 964,
      "type" : "VEC3"
    },
    {
      "bufferView" : 8,
      "componentType" : 5126,
      "count" : 964,
      "type" : "VEC3"
    },
    {
      "bufferView" : 9,
      "componentType" : 5126,
      "count" : 964,
      "type" : "VEC4"
    },
    {
      "bufferView" : 10,
      "componentType" : 5126,
      "count" : 964,
      "type" : "VEC2"
    },
    {
      "bufferView" : 11,
      "componentType" : 5126,
      "count" : 964,
      "type" : "VEC2"
    }
  ]
}
