{
  "asset" : {
    "generator" : "UE Viewer (umodel) build 1579 based",
    "version" : "2.0"
  },
  "scene" : 0,
  "scenes" : [
    {
      "nodes" : [ 0 ]
    }
  ],
  "nodes" : [
    {
      "name" : "S_Envi_Umeda_Shrub_02b",
      "mesh" : 0
    }
  ],
  "materials" : [
    {
      "name" : "MI_Envi_Umeda_Shrub_02",
      "pbrMetallicRoughness" : {
        "baseColorFactor" : [ 0.3, 0.3, 0.3, 1.0 ],
        "metallicFactor" : 0.1,
        "roughnessFactor" : 0.5
      }
    }
  ],
  "meshes" : [
    {
      "primitives" : [
        {
          "attributes" : {
            "POSITION" : 1,
            "NORMAL" : 2,
            "TANGENT" : 3,
            "TEXCOORD_0" : 4,
            "TEXCOORD_1" : 5
          },
          "indices" : 0,
          "material" : 0
        }
      ],
      "name" : "S_Envi_Umeda_Shrub_02b"
    }
  ],
  "buffers" : [
    {
      "uri" : "S_Envi_Umeda_Shrub_02b.bin",
      "byteLength" : 44648
    }
  ],
  "bufferViews" : [
    {
      "buffer" : 0,
      "byteOffset" : 0,
      "byteLength" : 2928
    },
    {
      "buffer" : 0,
      "byteOffset" : 2928,
      "byteLength" : 8940
    },
    {
      "buffer" : 0,
      "byteOffset" : 11868,
      "byteLength" : 8940
    },
    {
      "buffer" : 0,
      "byteOffset" : 20808,
      "byteLength" : 11920
    },
    {
      "buffer" : 0,
      "byteOffset" : 32728,
      "byteLength" : 5960
    },
    {
      "buffer" : 0,
      "byteOffset" : 38688,
      "byteLength" : 5960
    }
  ],
  "accessors" : [
    {
      "bufferView" : 0,
      "componentType" : 5123,
      "count" : 1464,
      "type" : "SCALAR"
    },
    {
      "bufferView" : 1,
      "min" : [ -0.811177, -0.00289134, -0.728469 ],
      "max" : [ 0.72225, 1.57496, 0.784511 ],
      "componentType" : 5126,
      "count" : 745,
      "type" : "VEC3"
    },
    {
      "bufferView" : 2,
      "componentType" : 5126,
      "count" : 745,
      "type" : "VEC3"
    },
    {
      "bufferView" : 3,
      "componentType" : 5126,
      "count" : 745,
      "type" : "VEC4"
    },
    {
      "bufferView" : 4,
      "componentType" : 5126,
      "count" : 745,
      "type" : "VEC2"
    },
    {
      "bufferView" : 5,
      "componentType" : 5126,
      "count" : 745,
      "type" : "VEC2"
    }
  ]
}
