{
  "asset" : {
    "generator" : "UE Viewer (umodel) build 1579 based",
    "version" : "2.0"
  },
  "scene" : 0,
  "scenes" : [
    {
      "nodes" : [ 0 ]
    }
  ],
  "nodes" : [
    {
      "name" : "S_Envi_Foliage_shrub_05h",
      "mesh" : 0
    }
  ],
  "materials" : [
    {
      "name" : "MI_Envi_Foliage_shrub_05",
      "pbrMetallicRoughness" : {
        "baseColorFactor" : [ 0.3, 0.3, 0.3, 1.0 ],
        "metallicFactor" : 0.1,
        "roughnessFactor" : 0.5
      }
    }
  ],
  "meshes" : [
    {
      "primitives" : [
        {
          "attributes" : {
            "POSITION" : 1,
            "NORMAL" : 2,
            "TANGENT" : 3,
            "TEXCOORD_0" : 4,
            "TEXCOORD_1" : 5
          },
          "indices" : 0,
          "material" : 0
        }
      ],
      "name" : "S_Envi_Foliage_shrub_05h"
    }
  ],
  "buffers" : [
    {
      "uri" : "S_Envi_Foliage_shrub_05h.bin",
      "byteLength" : 77512
    }
  ],
  "bufferViews" : [
    {
      "buffer" : 0,
      "byteOffset" : 0,
      "byteLength" : 5160
    },
    {
      "buffer" : 0,
      "byteOffset" : 5160,
      "byteLength" : 15504
    },
    {
      "buffer" : 0,
      "byteOffset" : 20664,
      "byteLength" : 15504
    },
    {
      "buffer" : 0,
      "byteOffset" : 36168,
      "byteLength" : 20672
    },
    {
      "buffer" : 0,
      "byteOffset" : 56840,
      "byteLength" : 10336
    },
    {
      "buffer" : 0,
      "byteOffset" : 67176,
      "byteLength" : 10336
    }
  ],
  "accessors" : [
    {
      "bufferView" : 0,
      "componentType" : 5123,
      "count" : 2580,
      "type" : "SCALAR"
    },
    {
      "bufferView" : 1,
      "min" : [ -0.914427, -0.00469253, -0.828813 ],
      "max" : [ 0.898841, 1.04246, 0.887508 ],
      "componentType" : 5126,
      "count" : 1292,
      "type" : "VEC3"
    },
    {
      "bufferView" : 2,
      "componentType" : 5126,
      "count" : 1292,
      "type" : "VEC3"
    },
    {
      "bufferView" : 3,
      "componentType" : 5126,
      "count" : 1292,
      "type" : "VEC4"
    },
    {
      "bufferView" : 4,
      "componentType" : 5126,
      "count" : 1292,
      "type" : "VEC2"
    },
    {
      "bufferView" : 5,
      "componentType" : 5126,
      "count" : 1292,
      "type" : "VEC2"
    }
  ]
}
