{
  "asset" : {
    "generator" : "UE Viewer (umodel) build 1579 based",
    "version" : "2.0"
  },
  "scene" : 0,
  "scenes" : [
    {
      "nodes" : [ 0 ]
    }
  ],
  "nodes" : [
    {
      "name" : "S_Envi_Foliage_CoconutTree_01d",
      "mesh" : 0
    }
  ],
  "materials" : [
    {
      "name" : "MI_Envi_Foliage_CoconutTree_01a",
      "pbrMetallicRoughness" : {
        "baseColorFactor" : [ 0.3, 0.3, 0.3, 1.0 ],
        "metallicFactor" : 0.1,
        "roughnessFactor" : 0.5
      }
    }
  ],
  "meshes" : [
    {
      "primitives" : [
        {
          "attributes" : {
            "POSITION" : 1,
            "NORMAL" : 2,
            "TANGENT" : 3,
            "TEXCOORD_0" : 4,
            "TEXCOORD_1" : 5
          },
          "indices" : 0,
          "material" : 0
        }
      ],
      "name" : "S_Envi_Foliage_CoconutTree_01d"
    }
  ],
  "buffers" : [
    {
      "uri" : "S_Envi_Foliage_CoconutTree_01d.bin",
      "byteLength" : 43616
    }
  ],
  "bufferViews" : [
    {
      "buffer" : 0,
      "byteOffset" : 0,
      "byteLength" : 5424
    },
    {
      "buffer" : 0,
      "byteOffset" : 5424,
      "byteLength" : 8184
    },
    {
      "buffer" : 0,
      "byteOffset" : 13608,
      "byteLength" : 8184
    },
    {
      "buffer" : 0,
      "byteOffset" : 21792,
      "byteLength" : 10912
    },
    {
      "buffer" : 0,
      "byteOffset" : 32704,
      "byteLength" : 5456
    },
    {
      "buffer" : 0,
      "byteOffset" : 38160,
      "byteLength" : 5456
    }
  ],
  "accessors" : [
    {
      "bufferView" : 0,
      "componentType" : 5123,
      "count" : 2712,
      "type" : "SCALAR"
    },
    {
      "bufferView" : 1,
      "min" : [ -2.22843, -1.07415e-06, -2.19222 ],
      "max" : [ 2.22843, 10.3859, 2.19222 ],
      "componentType" : 5126,
      "count" : 682,
      "type" : "VEC3"
    },
    {
      "bufferView" : 2,
      "componentType" : 5126,
      "count" : 682,
      "type" : "VEC3"
    },
    {
      "bufferView" : 3,
      "componentType" : 5126,
      "count" : 682,
      "type" : "VEC4"
    },
    {
      "bufferView" : 4,
      "componentType" : 5126,
      "count" : 682,
      "type" : "VEC2"
    },
    {
      "bufferView" : 5,
      "componentType" : 5126,
      "count" : 682,
      "type" : "VEC2"
    }
  ]
}
