{
  "asset" : {
    "generator" : "UE Viewer (umodel) build 1579 based",
    "version" : "2.0"
  },
  "scene" : 0,
  "scenes" : [
    {
      "nodes" : [ 0 ]
    }
  ],
  "nodes" : [
    {
      "name" : "S_Envi_Foliage_shrub_08c",
      "mesh" : 0
    }
  ],
  "materials" : [
    {
      "name" : "MI_Envi_Foliage_shrub_06",
      "pbrMetallicRoughness" : {
        "baseColorFactor" : [ 0.3, 0.3, 0.3, 1.0 ],
        "metallicFactor" : 0.1,
        "roughnessFactor" : 0.5
      }
    }
  ],
  "meshes" : [
    {
      "primitives" : [
        {
          "attributes" : {
            "POSITION" : 1,
            "NORMAL" : 2,
            "TANGENT" : 3,
            "TEXCOORD_0" : 4
          },
          "indices" : 0,
          "material" : 0
        }
      ],
      "name" : "S_Envi_Foliage_shrub_08c"
    }
  ],
  "buffers" : [
    {
      "uri" : "S_Envi_Foliage_shrub_08c.bin",
      "byteLength" : 4008
    }
  ],
  "bufferViews" : [
    {
      "buffer" : 0,
      "byteOffset" : 0,
      "byteLength" : 312
    },
    {
      "buffer" : 0,
      "byteOffset" : 312,
      "byteLength" : 924
    },
    {
      "buffer" : 0,
      "byteOffset" : 1236,
      "byteLength" : 924
    },
    {
      "buffer" : 0,
      "byteOffset" : 2160,
      "byteLength" : 1232
    },
    {
      "buffer" : 0,
      "byteOffset" : 3392,
      "byteLength" : 616
    }
  ],
  "accessors" : [
    {
      "bufferView" : 0,
      "componentType" : 5123,
      "count" : 156,
      "type" : "SCALAR"
    },
    {
      "bufferView" : 1,
      "min" : [ -0.323463, -0.00214044, -0.261879 ],
      "max" : [ 0.256112, 0.283248, 0.242088 ],
      "componentType" : 5126,
      "count" : 77,
      "type" : "VEC3"
    },
    {
      "bufferView" : 2,
      "componentType" : 5126,
      "count" : 77,
      "type" : "VEC3"
    },
    {
      "bufferView" : 3,
      "componentType" : 5126,
      "count" : 77,
      "type" : "VEC4"
    },
    {
      "bufferView" : 4,
      "componentType" : 5126,
      "count" : 77,
      "type" : "VEC2"
    }
  ]
}
