{
  "asset" : {
    "generator" : "UE Viewer (umodel) build 1579 based",
    "version" : "2.0"
  },
  "scene" : 0,
  "scenes" : [
    {
      "nodes" : [ 0 ]
    }
  ],
  "nodes" : [
    {
      "name" : "S_Envi_Plant_Decal_03",
      "mesh" : 0
    }
  ],
  "materials" : [
    {
      "name" : "MI_Envi_Plant_Decal_01",
      "pbrMetallicRoughness" : {
        "baseColorFactor" : [ 0.3, 0.3, 0.3, 1.0 ],
        "metallicFactor" : 0.1,
        "roughnessFactor" : 0.5
      }
    }
  ],
  "meshes" : [
    {
      "primitives" : [
        {
          "attributes" : {
            "POSITION" : 1,
            "NORMAL" : 2,
            "TANGENT" : 3,
            "TEXCOORD_0" : 4,
            "TEXCOORD_1" : 5
          },
          "indices" : 0,
          "material" : 0
        }
      ],
      "name" : "S_Envi_Plant_Decal_03"
    }
  ],
  "buffers" : [
    {
      "uri" : "S_Envi_Plant_Decal_03.bin",
      "byteLength" : 360
    }
  ],
  "bufferViews" : [
    {
      "buffer" : 0,
      "byteOffset" : 0,
      "byteLength" : 24
    },
    {
      "buffer" : 0,
      "byteOffset" : 24,
      "byteLength" : 72
    },
    {
      "buffer" : 0,
      "byteOffset" : 96,
      "byteLength" : 72
    },
    {
      "buffer" : 0,
      "byteOffset" : 168,
      "byteLength" : 96
    },
    {
      "buffer" : 0,
      "byteOffset" : 264,
      "byteLength" : 48
    },
    {
      "buffer" : 0,
      "byteOffset" : 312,
      "byteLength" : 48
    }
  ],
  "accessors" : [
    {
      "bufferView" : 0,
      "componentType" : 5123,
      "count" : 12,
      "type" : "SCALAR"
    },
    {
      "bufferView" : 1,
      "min" : [ -0.594441, -5.20452e-17, -0.849963 ],
      "max" : [ 0.594441, 5.20453e-17, 0.849963 ],
      "componentType" : 5126,
      "count" : 6,
      "type" : "VEC3"
    },
    {
      "bufferView" : 2,
      "componentType" : 5126,
      "count" : 6,
      "type" : "VEC3"
    },
    {
      "bufferView" : 3,
      "componentType" : 5126,
      "count" : 6,
      "type" : "VEC4"
    },
    {
      "bufferView" : 4,
      "componentType" : 5126,
      "count" : 6,
      "type" : "VEC2"
    },
    {
      "bufferView" : 5,
      "componentType" : 5126,
      "count" : 6,
      "type" : "VEC2"
    }
  ]
}
