{
  "asset" : {
    "generator" : "UE Viewer (umodel) build 1579 based",
    "version" : "2.0"
  },
  "scene" : 0,
  "scenes" : [
    {
      "nodes" : [ 0 ]
    }
  ],
  "nodes" : [
    {
      "name" : "TechBear_Mesh",
      "mesh" : 0,
      "skin" : 0,
      "children" : [ 1 ]
    },
    {
      "name" : "root",
      "children" : [ 2, 5, 10 ],
      "translation" : [ 0, 0, 0 ],
      "rotation" : [ 3.06162e-17, -0, -0, 1 ]
    },
    {
      "name" : "ik_foot_root",
      "children" : [ 3, 4 ],
      "translation" : [ 0, 0, -0 ],
      "rotation" : [ -0, -0, 0, -1 ]
    },
    {
      "name" : "ik_foot_l",
      "translation" : [ 0.339987, 0.0862486, -0.00258753 ],
      "rotation" : [ -0.701057, 0.701057, 0.0922965, -0.0922965 ]
    },
    {
      "name" : "ik_foot_r",
      "translation" : [ -0.339987, 0.0862486, -0.00258659 ],
      "rotation" : [ -0.701058, 0.701057, -0.0922952, 0.0922953 ]
    },
    {
      "name" : "ik_hand_root",
      "children" : [ 6 ],
      "translation" : [ 0, 0, -0 ],
      "rotation" : [ -0, -0, 0, -1 ]
    },
    {
      "name" : "ik_hand_gun",
      "children" : [ 7, 8, 9 ],
      "translation" : [ -0.692679, 0.823068, -0.122514 ],
      "rotation" : [ -0.346997, 0.646861, 0.385452, -0.559098 ]
    },
    {
      "name" : "ik_hand_r",
      "translation" : [ 1.52588e-07, -2.28882e-07, -7.6294e-08 ],
      "rotation" : [ -1.28523e-07, 8.94069e-08, -7.45058e-08, -1 ]
    },
    {
      "name" : "ik_hand_l",
      "translation" : [ -0.185645, -0.0248106, -1.37264 ],
      "rotation" : [ -0.990819, -1.4038e-07, 0.134005, -0.0179095 ]
    },
    {
      "name" : "SocketADS",
      "translation" : [ -3.05176e-07, 1.90735e-08, 7.6294e-08 ],
      "rotation" : [ 3.78117e-07, 8.9407e-08, 5.96047e-08, -1 ]
    },
    {
      "name" : "Bip001",
      "children" : [ 11 ],
      "translation" : [ 0, 0.4083, 1.71504e-08 ],
      "rotation" : [ -4.156e-39, 0.707106, -4.156e-39, -0.707107 ]
    },
    {
      "name" : "Bip001-Pelvis",
      "children" : [ 12, 53, 59, 65 ],
      "translation" : [ -2.50012e-17, 0, -3.42743e-23 ],
      "rotation" : [ 0.5, 0.499999, -0.5, -0.500001 ]
    },
    {
      "name" : "Bip001-Spine",
      "children" : [ 13 ],
      "translation" : [ 0.123233, -1.70511e-07, 0.000280595 ],
      "rotation" : [ 2.07992e-06, -0.000398159, 6.93124e-07, -1 ]
    },
    {
      "name" : "Bip001-Spine1",
      "children" : [ 14, 48, 50 ],
      "translation" : [ 0.352417, -7.7833e-10, 0.000280621 ],
      "rotation" : [ 1.48348e-22, -0, -0, -1 ]
    },
    {
      "name" : "Bip001-Spine2",
      "children" : [ 15, 29, 37, 45 ],
      "translation" : [ 0.352417, -7.78331e-10, 0.000280621 ],
      "rotation" : [ 1.48348e-22, -0, -0, -1 ]
    },
    {
      "name" : "Bip001-Neck",
      "children" : [ 16 ],
      "translation" : [ 0.368472, 1.62173e-06, 0.0268318 ],
      "rotation" : [ 4.80354e-08, -0.0684818, -8.81675e-07, -0.997652 ]
    },
    {
      "name" : "Bip001-Head",
      "children" : [ 17, 18, 19, 21, 23, 24, 25, 26, 27, 28 ],
      "translation" : [ 0.021487, -1.68894e-06, 1.14672e-05 ],
      "rotation" : [ -1.50452e-09, 0.068879, 2.12847e-07, -0.997625 ]
    },
    {
      "name" : "hair_f_l_01",
      "translation" : [ 0.027433, -5.5137e-07, -0.0820167 ],
      "rotation" : [ -4.15871e-07, -0.619275, -1.19034e-06, -0.785174 ]
    },
    {
      "name" : "hair_f_r_01",
      "translation" : [ 0.0278386, -5.39553e-07, -0.0839116 ],
      "rotation" : [ -5.1471e-07, -0.766458, -1.69452e-06, -0.642295 ]
    },
    {
      "name" : "hair_up_r_01",
      "children" : [ 20 ],
      "translation" : [ 0.266833, -0.204837, 0.00619279 ],
      "rotation" : [ 0.19721, 0.0777504, 0.365314, -0.906426 ]
    },
    {
      "name" : "hair_up_r_02",
      "translation" : [ 0.0691316, 2.22892e-06, -1.02043e-06 ],
      "rotation" : [ -0.707388, -1.52367e-06, 0.706825, 1.20192e-07 ]
    },
    {
      "name" : "hair_up_l_01",
      "children" : [ 22 ],
      "translation" : [ 0.266833, 0.204837, 0.00619393 ],
      "rotation" : [ -0.19721, 0.0777527, -0.365313, -0.906427 ]
    },
    {
      "name" : "hair_up_l_02",
      "translation" : [ 0.0691337, 9.01315e-07, -2.79717e-06 ],
      "rotation" : [ -0.707388, -1.6226e-06, 0.706826, 1.23137e-06 ]
    },
    {
      "name" : "r_up_eyelash_01",
      "translation" : [ 0.161341, -0.0877607, -0.135421 ],
      "rotation" : [ -0.809908, 0.0515311, 0.579839, -0.0719764 ]
    },
    {
      "name" : "l_up_eyelash_01",
      "translation" : [ 0.163408, 0.0888308, -0.141397 ],
      "rotation" : [ -0.809908, -0.0515308, 0.579839, 0.0719785 ]
    },
    {
      "name" : "eye_l_ball_01",
      "translation" : [ 0.161341, 0.0877601, -0.135421 ],
      "rotation" : [ -0.706357, -0.0624142, 0.702298, 0.0627758 ]
    },
    {
      "name" : "l_d_eyelash_01",
      "translation" : [ 0.161341, 0.0877601, -0.135421 ],
      "rotation" : [ -0.051532, -0.809908, -0.0719775, -0.579839 ]
    },
    {
      "name" : "eye_r_ball_01",
      "translation" : [ 0.161341, -0.0877607, -0.135421 ],
      "rotation" : [ -0.706357, 0.0624142, 0.702299, -0.0627738 ]
    },
    {
      "name" : "r_d_eyelash_01",
      "translation" : [ 0.161341, -0.0877607, -0.135421 ],
      "rotation" : [ 0.0515299, -0.809908, 0.0719774, -0.579839 ]
    },
    {
      "name" : "Bip001-L-Clavicle",
      "children" : [ 30 ],
      "translation" : [ 0.218597, 0.29863, 0.111932 ],
      "rotation" : [ -0.464553, -0.885545, -0.000186203, -0.000351934 ]
    },
    {
      "name" : "Bip001-L-UpperArm",
      "children" : [ 31 ],
      "translation" : [ 0.131781, -5.3586e-09, -1.02099e-08 ],
      "rotation" : [ 0.0793298, -0.0764763, 0.245839, -0.963027 ]
    },
    {
      "name" : "Bip001-L-Forearm",
      "children" : [ 32 ],
      "translation" : [ 0.346389, -2.11666e-08, 1.5153e-09 ],
      "rotation" : [ 1.38323e-08, 0.103793, -1.33982e-08, -0.994599 ]
    },
    {
      "name" : "Bip001-L-Hand",
      "children" : [ 33, 34, 35, 36 ],
      "translation" : [ 0.283102, -9.70005e-09, 6.80917e-09 ],
      "rotation" : [ 0.683134, -0.0201589, 0.246686, -0.687071 ]
    },
    {
      "name" : "Bip001-L-Finger0",
      "translation" : [ 0.0159644, -0.159429, -0.0620992 ],
      "rotation" : [ -0.127583, -0.0170211, -0.0591284, -0.989918 ]
    },
    {
      "name" : "Bip001-L-Finger1",
      "translation" : [ 0.132549, -0.0480028, 0.0461701 ],
      "rotation" : [ 0.0322263, 0.00519634, 0.0155584, -0.999346 ]
    },
    {
      "name" : "Bip001-L-Finger2",
      "translation" : [ 0.165149, 0.0511484, 0.0394385 ],
      "rotation" : [ 0.027149, -0.17372, 0.0729499, -0.981714 ]
    },
    {
      "name" : "Bip001-L-Finger3",
      "translation" : [ 0.153163, 0.135424, 0.0240773 ],
      "rotation" : [ 0.0461815, -0.219804, 0.122071, -0.966774 ]
    },
    {
      "name" : "Bip001-R-Clavicle",
      "children" : [ 38 ],
      "translation" : [ 0.218597, -0.29863, 0.11193 ],
      "rotation" : [ 0.464553, -0.885545, 0.000183747, -0.000353223 ]
    },
    {
      "name" : "Bip001-R-UpperArm",
      "children" : [ 39 ],
      "translation" : [ 0.131781, 5.35861e-09, -2.31547e-09 ],
      "rotation" : [ -0.0793298, -0.0764763, -0.245839, -0.963027 ]
    },
    {
      "name" : "Bip001-R-Forearm",
      "children" : [ 40 ],
      "translation" : [ 0.346389, 1.16818e-08, 5.45734e-09 ],
      "rotation" : [ -1.7704e-08, 0.103793, 2.49512e-08, -0.994599 ]
    },
    {
      "name" : "Bip001-R-Hand",
      "children" : [ 41, 42, 43, 44 ],
      "translation" : [ 0.283102, -1.67756e-08, 5.92774e-09 ],
      "rotation" : [ -0.683134, -0.0201589, -0.246686, -0.687071 ]
    },
    {
      "name" : "Bip001-R-Finger0",
      "translation" : [ 0.0159645, 0.159429, -0.0620991 ],
      "rotation" : [ 0.127583, -0.0170211, 0.0591284, -0.989918 ]
    },
    {
      "name" : "Bip001-R-Finger1",
      "translation" : [ 0.132549, 0.0480028, 0.0461701 ],
      "rotation" : [ -0.0322263, 0.00519634, -0.0155584, -0.999346 ]
    },
    {
      "name" : "Bip001-R-Finger2",
      "translation" : [ 0.165149, -0.0511484, 0.0394385 ],
      "rotation" : [ -0.027149, -0.17372, -0.0729499, -0.981714 ]
    },
    {
      "name" : "Bip001-R-Finger3",
      "translation" : [ 0.153163, -0.135424, 0.0240773 ],
      "rotation" : [ -0.0461815, -0.219804, -0.122071, -0.966774 ]
    },
    {
      "name" : "part_l_01",
      "children" : [ 46 ],
      "translation" : [ 0.249114, 0.256529, -0.221441 ],
      "rotation" : [ -0.17103, -0.686152, 0.703135, -0.0744674 ]
    },
    {
      "name" : "part_l_02",
      "children" : [ 47 ],
      "translation" : [ 0.169497, -1.77912e-08, 8.61113e-08 ],
      "rotation" : [ 2.25787e-08, -0.0259331, 6.85869e-08, -0.999664 ]
    },
    {
      "name" : "part_l_03",
      "translation" : [ 0.163325, 6.25221e-07, -8.4747e-07 ],
      "rotation" : [ 9.37552e-08, 7.0294e-07, 6.94185e-07, -1 ]
    },
    {
      "name" : "coat_l_01",
      "children" : [ 49 ],
      "translation" : [ -0.1017, 5.69796e-07, -0.405872 ],
      "rotation" : [ -0.707669, -1.95329e-06, 0.706544, -6.81959e-08 ]
    },
    {
      "name" : "coat_l_02",
      "translation" : [ 0.106729, -5.18267e-07, 6.60179e-07 ],
      "rotation" : [ -0.707389, -4.89722e-07, 0.706825, 4.90895e-07 ]
    },
    {
      "name" : "coat_b_01",
      "children" : [ 51 ],
      "translation" : [ 0.273563, -0.177056, 0.389843 ],
      "rotation" : [ 0.196592, 0.679071, 0.679229, 0.197133 ]
    },
    {
      "name" : "coat_b_02",
      "children" : [ 52 ],
      "translation" : [ 0.123996, 8.91068e-09, -2.84776e-08 ],
      "rotation" : [ -0.0111295, -0.148039, -0.0741368, -0.986136 ]
    },
    {
      "name" : "coat_b_03",
      "translation" : [ 0.0907297, -6.86128e-07, 8.89051e-07 ],
      "rotation" : [ -2.85266e-07, -6.59569e-07, -6.66881e-07, -1 ]
    },
    {
      "name" : "Bip001-L-Thigh",
      "children" : [ 54 ],
      "translation" : [ 4.72218e-07, 0.340509, -4.90065e-07 ],
      "rotation" : [ 0.000986371, -0.130525, 0.991444, 0.00013052 ]
    },
    {
      "name" : "Bip001-L-Calf",
      "children" : [ 55 ],
      "translation" : [ 0.188483, -1.43649e-08, -3.83843e-09 ],
      "rotation" : [ -6.47958e-09, 0.00754159, 7.12184e-11, -0.999972 ]
    },
    {
      "name" : "Bip001-L-Foot",
      "children" : [ 56, 57, 58 ],
      "translation" : [ 0.133589, 3.78802e-09, 1.20231e-09 ],
      "rotation" : [ -1.98944e-06, -0.00850264, -0.000257451, -0.999964 ]
    },
    {
      "name" : "Bip001-L-Toe0",
      "translation" : [ 0.0803645, -0.0990423, -0.130319 ],
      "rotation" : [ 0.180288, -0.683737, 0.180287, -0.683737 ]
    },
    {
      "name" : "Bip001-L-Toe1",
      "translation" : [ 0.0799472, -0.0197701, -0.156176 ],
      "rotation" : [ -0.0103146, -0.707032, -0.0103147, -0.707032 ]
    },
    {
      "name" : "Bip001-L-Toe2",
      "translation" : [ 0.0808652, 0.0774445, -0.138854 ],
      "rotation" : [ -0.105581, -0.69918, -0.105581, -0.69918 ]
    },
    {
      "name" : "Bip001-R-Thigh",
      "children" : [ 60 ],
      "translation" : [ -4.72218e-07, -0.340509, 4.5437e-07 ],
      "rotation" : [ 0.000986541, 0.130527, 0.991444, -0.00012923 ]
    },
    {
      "name" : "Bip001-R-Calf",
      "children" : [ 61 ],
      "translation" : [ 0.188483, 1.83908e-08, -4.89971e-09 ],
      "rotation" : [ 1.23286e-08, 0.00754159, -1.36706e-10, -0.999972 ]
    },
    {
      "name" : "Bip001-R-Foot",
      "children" : [ 62, 63, 64 ],
      "translation" : [ 0.133589, -3.23162e-08, 8.41835e-09 ],
      "rotation" : [ 1.97495e-06, -0.0085026, 0.000257578, -0.999964 ]
    },
    {
      "name" : "Bip001-R-Toe0",
      "translation" : [ 0.0803645, 0.0990423, -0.130319 ],
      "rotation" : [ -0.180288, -0.683737, -0.180288, -0.683737 ]
    },
    {
      "name" : "Bip001-R-Toe1",
      "translation" : [ 0.0799472, 0.0197701, -0.156176 ],
      "rotation" : [ 0.0103147, -0.707032, 0.0103146, -0.707031 ]
    },
    {
      "name" : "Bip001-R-Toe2",
      "translation" : [ 0.0808652, -0.0774445, -0.138854 ],
      "rotation" : [ 0.105581, -0.69918, 0.105581, -0.69918 ]
    },
    {
      "name" : "skirt_f_l_01",
      "children" : [ 66 ],
      "translation" : [ 0.00638908, 8.5966e-07, 0.305196 ],
      "rotation" : [ -0.729902, -4.69212e-07, -0.683551, -1.45882e-06 ]
    },
    {
      "name" : "skirt_f_l_02",
      "children" : [ 67 ],
      "translation" : [ 0.131581, -5.73939e-09, -3.58665e-06 ],
      "rotation" : [ -2.4308e-11, 0.00111547, 2.17918e-08, -0.999999 ]
    },
    {
      "name" : "skirt_f_l_03",
      "translation" : [ 0.146891, -3.46098e-08, 8.53224e-07 ],
      "rotation" : [ -6.91808e-07, 7.89362e-07, 4.69714e-08, -1 ]
    }
  ],
  "skins" : [
    {
      "inverseBindMatrices" : 0,
      "skeleton" : 1,
      "joints" : [
        1,2,3,4,5,6,7,8,9,10,11,12,13,14,15,16,17,18,19,20,21,22,23,24,25,26,27,28,29,30,31,32,
        33,34,35,36,37,38,39,40,41,42,43,44,45,46,47,48,49,50,51,52,53,54,55,56,57,58,59,60,61,62,63,64,
        65,66,67
      ]
    }
  ],
  "materials" : [
    {
      "name" : "MI_TechBear_Body",
      "pbrMetallicRoughness" : {
        "baseColorFactor" : [ 0.3, 0.3, 0.3, 1.0 ],
        "metallicFactor" : 0.1,
        "roughnessFactor" : 0.5
      }
    },
    {
      "name" : "MI_TechBear_Metal1",
      "pbrMetallicRoughness" : {
        "baseColorFactor" : [ 0.9, 0.3, 0.3, 1.0 ],
        "metallicFactor" : 0.1,
        "roughnessFactor" : 0.5
      }
    },
    {
      "name" : "MI_TechBear_Metal2",
      "pbrMetallicRoughness" : {
        "baseColorFactor" : [ 0.3, 0.9, 0.3, 1.0 ],
        "metallicFactor" : 0.1,
        "roughnessFactor" : 0.5
      }
    }
  ],
  "meshes" : [
    {
      "primitives" : [
        {
          "attributes" : {
            "POSITION" : 2,
            "NORMAL" : 3,
            "TANGENT" : 4,
            "COLOR_0" : 5,
            "JOINTS_0" : 6,
            "WEIGHTS_0" : 7,
            "TEXCOORD_0" : 8
          },
          "indices" : 1,
          "material" : 0
        },
        {
          "attributes" : {
            "POSITION" : 10,
            "NORMAL" : 11,
            "TANGENT" : 12,
            "COLOR_0" : 13,
            "JOINTS_0" : 14,
            "WEIGHTS_0" : 15,
            "TEXCOORD_0" : 16
          },
          "indices" : 9,
          "material" : 1
        },
        {
          "attributes" : {
            "POSITION" : 18,
            "NORMAL" : 19,
            "TANGENT" : 20,
            "COLOR_0" : 21,
            "JOINTS_0" : 22,
            "WEIGHTS_0" : 23,
            "TEXCOORD_0" : 24
          },
          "indices" : 17,
          "material" : 2
        }
      ],
      "name" : "TechBear_Mesh"
    }
  ],
  "buffers" : [
    {
      "uri" : "TechBear_Mesh.bin",
      "byteLength" : 599584
    }
  ],
  "bufferViews" : [
    {
      "buffer" : 0,
      "byteOffset" : 0,
      "byteLength" : 4288
    },
    {
      "buffer" : 0,
      "byteOffset" : 4288,
      "byteLength" : 63044
    },
    {
      "buffer" : 0,
      "byteOffset" : 67332,
      "byteLength" : 74700
    },
    {
      "buffer" : 0,
      "byteOffset" : 142032,
      "byteLength" : 74700
    },
    {
      "buffer" : 0,
      "byteOffset" : 216732,
      "byteLength" : 99600
    },
    {
      "buffer" : 0,
      "byteOffset" : 316332,
      "byteLength" : 24900
    },
    {
      "buffer" : 0,
      "byteOffset" : 341232,
      "byteLength" : 49800
    },
    {
      "buffer" : 0,
      "byteOffset" : 391032,
      "byteLength" : 24900
    },
    {
      "buffer" : 0,
      "byteOffset" : 415932,
      "byteLength" : 49800
    },
    {
      "buffer" : 0,
      "byteOffset" : 465732,
      "byteLength" : 11376
    },
    {
      "buffer" : 0,
      "byteOffset" : 477108,
      "byteLength" : 14364
    },
    {
      "buffer" : 0,
      "byteOffset" : 491472,
      "byteLength" : 14364
    },
    {
      "buffer" : 0,
      "byteOffset" : 505836,
      "byteLength" : 19152
    },
    {
      "buffer" : 0,
      "byteOffset" : 524988,
      "byteLength" : 4788
    },
    {
      "buffer" : 0,
      "byteOffset" : 529776,
      "byteLength" : 9576
    },
    {
      "buffer" : 0,
      "byteOffset" : 539352,
      "byteLength" : 4788
    },
    {
      "buffer" : 0,
      "byteOffset" : 544140,
      "byteLength" : 9576
    },
    {
      "buffer" : 0,
      "byteOffset" : 553716,
      "byteLength" : 5228
    },
    {
      "buffer" : 0,
      "byteOffset" : 558944,
      "byteLength" : 7620
    },
    {
      "buffer" : 0,
      "byteOffset" : 566564,
      "byteLength" : 7620
    },
    {
      "buffer" : 0,
      "byteOffset" : 574184,
      "byteLength" : 10160
    },
    {
      "buffer" : 0,
      "byteOffset" : 584344,
      "byteLength" : 2540
    },
    {
      "buffer" : 0,
      "byteOffset" : 586884,
      "byteLength" : 5080
    },
    {
      "buffer" : 0,
      "byteOffset" : 591964,
      "byteLength" : 2540
    },
    {
      "buffer" : 0,
      "byteOffset" : 594504,
      "byteLength" : 5080
    }
  ],
  "accessors" : [
    {
      "bufferView" : 0,
      "componentType" : 5126,
      "count" : 67,
      "type" : "MAT4"
    },
    {
      "bufferView" : 1,
      "componentType" : 5123,
      "count" : 31521,
      "type" : "SCALAR"
    },
    {
      "bufferView" : 2,
      "min" : [ -0.816765, -0.00999094, -0.552799 ],
      "max" : [ 0.816765, 1.98468, 0.514319 ],
      "componentType" : 5126,
      "count" : 6225,
      "type" : "VEC3"
    },
    {
      "bufferView" : 3,
      "componentType" : 5126,
      "count" : 6225,
      "type" : "VEC3"
    },
    {
      "bufferView" : 4,
      "componentType" : 5126,
      "count" : 6225,
      "type" : "VEC4"
    },
    {
      "bufferView" : 5,
      "normalized" : true,
      "componentType" : 5121,
      "count" : 6225,
      "type" : "VEC4"
    },
    {
      "bufferView" : 6,
      "componentType" : 5123,
      "count" : 6225,
      "type" : "VEC4"
    },
    {
      "bufferView" : 7,
      "normalized" : true,
      "componentType" : 5121,
      "count" : 6225,
      "type" : "VEC4"
    },
    {
      "bufferView" : 8,
      "componentType" : 5126,
      "count" : 6225,
      "type" : "VEC2"
    },
    {
      "bufferView" : 9,
      "componentType" : 5123,
      "count" : 5688,
      "type" : "SCALAR"
    },
    {
      "bufferView" : 10,
      "min" : [ -0.654247, 1.01542, -0.401431 ],
      "max" : [ 0.278941, 2.00478, 0.436575 ],
      "componentType" : 5126,
      "count" : 1197,
      "type" : "VEC3"
    },
    {
      "bufferView" : 11,
      "componentType" : 5126,
      "count" : 1197,
      "type" : "VEC3"
    },
    {
      "bufferView" : 12,
      "componentType" : 5126,
      "count" : 1197,
      "type" : "VEC4"
    },
    {
      "bufferView" : 13,
      "normalized" : true,
      "componentType" : 5121,
      "count" : 1197,
      "type" : "VEC4"
    },
    {
      "bufferView" : 14,
      "componentType" : 5123,
      "count" : 1197,
      "type" : "VEC4"
    },
    {
      "bufferView" : 15,
      "normalized" : true,
      "componentType" : 5121,
      "count" : 1197,
      "type" : "VEC4"
    },
    {
      "bufferView" : 16,
      "componentType" : 5126,
      "count" : 1197,
      "type" : "VEC2"
    },
    {
      "bufferView" : 17,
      "componentType" : 5123,
      "count" : 2613,
      "type" : "SCALAR"
    },
    {
      "bufferView" : 18,
      "min" : [ -0.467954, 0.977635, -0.408799 ],
      "max" : [ 0.337372, 1.95231, 0.312281 ],
      "componentType" : 5126,
      "count" : 635,
      "type" : "VEC3"
    },
    {
      "bufferView" : 19,
      "componentType" : 5126,
      "count" : 635,
      "type" : "VEC3"
    },
    {
      "bufferView" : 20,
      "componentType" : 5126,
      "count" : 635,
      "type" : "VEC4"
    },
    {
      "bufferView" : 21,
      "normalized" : true,
      "componentType" : 5121,
      "count" : 635,
      "type" : "VEC4"
    },
    {
      "bufferView" : 22,
      "componentType" : 5123,
      "count" : 635,
      "type" : "VEC4"
    },
    {
      "bufferView" : 23,
      "normalized" : true,
      "componentType" : 5121,
      "count" : 635,
      "type" : "VEC4"
    },
    {
      "bufferView" : 24,
      "componentType" : 5126,
      "count" : 635,
      "type" : "VEC2"
    }
  ]
}
