{
  "asset" : {
    "generator" : "UE Viewer (umodel) build 1579 based",
    "version" : "2.0"
  },
  "scene" : 0,
  "scenes" : [
    {
      "nodes" : [ 0 ]
    }
  ],
  "nodes" : [
    {
      "name" : "S_Envi_Wlbl_Astrograph_01a",
      "mesh" : 0,
      "skin" : 0,
      "children" : [ 1 ]
    },
    {
      "name" : "Root",
      "children" : [ 2, 3 ],
      "translation" : [ 0, 0, 0 ],
      "rotation" : [ -0, -0, -0, 1 ]
    },
    {
      "name" : "Rot_01",
      "translation" : [ -0.000447273, 0.238373, -0 ],
      "rotation" : [ -0, -0, 0, -1 ]
    },
    {
      "name" : "Rot_02",
      "translation" : [ -0.000447273, 0.238373, -0 ],
      "rotation" : [ -0, -0, 0, -1 ]
    }
  ],
  "skins" : [
    {
      "inverseBindMatrices" : 0,
      "skeleton" : 1,
      "joints" : [
        1,2,3
      ]
    }
  ],
  "materials" : [
    {
      "name" : "MI_Envi_Wlbl_Astrograph_02",
      "pbrMetallicRoughness" : {
        "baseColorFactor" : [ 0.3, 0.3, 0.3, 1.0 ],
        "metallicFactor" : 0.1,
        "roughnessFactor" : 0.5
      }
    }
  ],
  "meshes" : [
    {
      "primitives" : [
        {
          "attributes" : {
            "POSITION" : 2,
            "NORMAL" : 3,
            "TANGENT" : 4,
            "JOINTS_0" : 5,
            "WEIGHTS_0" : 6,
            "TEXCOORD_0" : 7,
            "TEXCOORD_1" : 8
          },
          "indices" : 1,
          "material" : 0
        }
      ],
      "name" : "S_Envi_Wlbl_Astrograph_01a"
    }
  ],
  "buffers" : [
    {
      "uri" : "S_Envi_Wlbl_Astrograph_01a.bin",
      "byteLength" : 852984
    }
  ],
  "bufferViews" : [
    {
      "buffer" : 0,
      "byteOffset" : 0,
      "byteLength" : 192
    },
    {
      "buffer" : 0,
      "byteOffset" : 192,
      "byteLength" : 102072
    },
    {
      "buffer" : 0,
      "byteOffset" : 102264,
      "byteLength" : 132480
    },
    {
      "buffer" : 0,
      "byteOffset" : 234744,
      "byteLength" : 132480
    },
    {
      "buffer" : 0,
      "byteOffset" : 367224,
      "byteLength" : 176640
    },
    {
      "buffer" : 0,
      "byteOffset" : 543864,
      "byteLength" : 88320
    },
    {
      "buffer" : 0,
      "byteOffset" : 632184,
      "byteLength" : 44160
    },
    {
      "buffer" : 0,
      "byteOffset" : 676344,
      "byteLength" : 88320
    },
    {
      "buffer" : 0,
      "byteOffset" : 764664,
      "byteLength" : 88320
    }
  ],
  "accessors" : [
    {
      "bufferView" : 0,
      "componentType" : 5126,
      "count" : 3,
      "type" : "MAT4"
    },
    {
      "bufferView" : 1,
      "componentType" : 5123,
      "count" : 51036,
      "type" : "SCALAR"
    },
    {
      "bufferView" : 2,
      "min" : [ -0.0987984, -6.08257e-05, -0.196188 ],
      "max" : [ 0.0987984, 0.422068, 0.196188 ],
      "componentType" : 5126,
      "count" : 11040,
      "type" : "VEC3"
    },
    {
      "bufferView" : 3,
      "componentType" : 5126,
      "count" : 11040,
      "type" : "VEC3"
    },
    {
      "bufferView" : 4,
      "componentType" : 5126,
      "count" : 11040,
      "type" : "VEC4"
    },
    {
      "bufferView" : 5,
      "componentType" : 5123,
      "count" : 11040,
      "type" : "VEC4"
    },
    {
      "bufferView" : 6,
      "normalized" : true,
      "componentType" : 5121,
      "count" : 11040,
      "type" : "VEC4"
    },
    {
      "bufferView" : 7,
      "componentType" : 5126,
      "count" : 11040,
      "type" : "VEC2"
    },
    {
      "bufferView" : 8,
      "componentType" : 5126,
      "count" : 11040,
      "type" : "VEC2"
    }
  ]
}
