{
  "asset" : {
    "generator" : "UE Viewer (umodel) build 1579 based",
    "version" : "2.0"
  },
  "scene" : 0,
  "scenes" : [
    {
      "nodes" : [ 0 ]
    }
  ],
  "nodes" : [
    {
      "name" : "SK_Weap_MicroUzi_Static_000",
      "mesh" : 0
    }
  ],
  "materials" : [
    {
      "name" : "MI_Weap_MicroUzi",
      "pbrMetallicRoughness" : {
        "baseColorFactor" : [ 0.3, 0.3, 0.3, 1.0 ],
        "metallicFactor" : 0.1,
        "roughnessFactor" : 0.5
      }
    }
  ],
  "meshes" : [
    {
      "primitives" : [
        {
          "attributes" : {
            "POSITION" : 1,
            "NORMAL" : 2,
            "TANGENT" : 3,
            "TEXCOORD_0" : 4
          },
          "indices" : 0,
          "material" : 0
        }
      ],
      "name" : "SK_Weap_MicroUzi_Static_000"
    }
  ],
  "buffers" : [
    {
      "uri" : "SK_Weap_MicroUzi_Static_000.bin",
      "byteLength" : 191520
    }
  ],
  "bufferViews" : [
    {
      "buffer" : 0,
      "byteOffset" : 0,
      "byteLength" : 20160
    },
    {
      "buffer" : 0,
      "byteOffset" : 20160,
      "byteLength" : 42840
    },
    {
      "buffer" : 0,
      "byteOffset" : 63000,
      "byteLength" : 42840
    },
    {
      "buffer" : 0,
      "byteOffset" : 105840,
      "byteLength" : 57120
    },
    {
      "buffer" : 0,
      "byteOffset" : 162960,
      "byteLength" : 28560
    }
  ],
  "accessors" : [
    {
      "bufferView" : 0,
      "componentType" : 5123,
      "count" : 10080,
      "type" : "SCALAR"
    },
    {
      "bufferView" : 1,
      "min" : [ -0.0156584, -0.0922145, -0.117002 ],
      "max" : [ 0.0204051, 0.0922145, 0.117002 ],
      "componentType" : 5126,
      "count" : 3570,
      "type" : "VEC3"
    },
    {
      "bufferView" : 2,
      "componentType" : 5126,
      "count" : 3570,
      "type" : "VEC3"
    },
    {
      "bufferView" : 3,
      "componentType" : 5126,
      "count" : 3570,
      "type" : "VEC4"
    },
    {
      "bufferView" : 4,
      "componentType" : 5126,
      "count" : 3570,
      "type" : "VEC2"
    }
  ]
}
