{
  "asset" : {
    "generator" : "UE Viewer (umodel) build 1579 based",
    "version" : "2.0"
  },
  "scene" : 0,
  "scenes" : [
    {
      "nodes" : [ 0 ]
    }
  ],
  "nodes" : [
    {
      "name" : "SK_Weap_G28_102_Sight_Mesh",
      "mesh" : 0,
      "skin" : 0,
      "children" : [ 1 ]
    },
    {
      "name" : "Root",
      "translation" : [ 0, 0, 0 ],
      "rotation" : [ -0, -0, -0, 1 ]
    }
  ],
  "skins" : [
    {
      "inverseBindMatrices" : 0,
      "skeleton" : 1,
      "joints" : [
        1
      ]
    }
  ],
  "materials" : [
    {
      "name" : "MI_Weap_G28_02_102",
      "pbrMetallicRoughness" : {
        "baseColorFactor" : [ 0.3, 0.3, 0.3, 1.0 ],
        "metallicFactor" : 0.1,
        "roughnessFactor" : 0.5
      }
    },
    {
      "name" : "MI_Weap_G28_03_102",
      "pbrMetallicRoughness" : {
        "baseColorFactor" : [ 0.9, 0.3, 0.3, 1.0 ],
        "metallicFactor" : 0.1,
        "roughnessFactor" : 0.5
      }
    }
  ],
  "meshes" : [
    {
      "primitives" : [
        {
          "attributes" : {
            "POSITION" : 2,
            "NORMAL" : 3,
            "TANGENT" : 4,
            "JOINTS_0" : 5,
            "WEIGHTS_0" : 6,
            "TEXCOORD_0" : 7
          },
          "indices" : 1,
          "material" : 0
        },
        {
          "attributes" : {
            "POSITION" : 9,
            "NORMAL" : 10,
            "TANGENT" : 11,
            "JOINTS_0" : 12,
            "WEIGHTS_0" : 13,
            "TEXCOORD_0" : 14
          },
          "indices" : 8,
          "material" : 1
        }
      ],
      "name" : "SK_Weap_G28_102_Sight_Mesh"
    }
  ],
  "buffers" : [
    {
      "uri" : "SK_Weap_G28_102_Sight_Mesh.bin",
      "byteLength" : 154504
    }
  ],
  "bufferViews" : [
    {
      "buffer" : 0,
      "byteOffset" : 0,
      "byteLength" : 64
    },
    {
      "buffer" : 0,
      "byteOffset" : 64,
      "byteLength" : 12960
    },
    {
      "buffer" : 0,
      "byteOffset" : 13024,
      "byteLength" : 27204
    },
    {
      "buffer" : 0,
      "byteOffset" : 40228,
      "byteLength" : 27204
    },
    {
      "buffer" : 0,
      "byteOffset" : 67432,
      "byteLength" : 36272
    },
    {
      "buffer" : 0,
      "byteOffset" : 103704,
      "byteLength" : 18136
    },
    {
      "buffer" : 0,
      "byteOffset" : 121840,
      "byteLength" : 9068
    },
    {
      "buffer" : 0,
      "byteOffset" : 130908,
      "byteLength" : 18136
    },
    {
      "buffer" : 0,
      "byteOffset" : 149044,
      "byteLength" : 840
    },
    {
      "buffer" : 0,
      "byteOffset" : 149884,
      "byteLength" : 924
    },
    {
      "buffer" : 0,
      "byteOffset" : 150808,
      "byteLength" : 924
    },
    {
      "buffer" : 0,
      "byteOffset" : 151732,
      "byteLength" : 1232
    },
    {
      "buffer" : 0,
      "byteOffset" : 152964,
      "byteLength" : 616
    },
    {
      "buffer" : 0,
      "byteOffset" : 153580,
      "byteLength" : 308
    },
    {
      "buffer" : 0,
      "byteOffset" : 153888,
      "byteLength" : 616
    }
  ],
  "accessors" : [
    {
      "bufferView" : 0,
      "componentType" : 5126,
      "count" : 1,
      "type" : "MAT4"
    },
    {
      "bufferView" : 1,
      "componentType" : 5123,
      "count" : 6480,
      "type" : "SCALAR"
    },
    {
      "bufferView" : 2,
      "min" : [ -0.0363119, -0.0473269, -0.124795 ],
      "max" : [ 0.0363193, 0.0676531, 0.0633528 ],
      "componentType" : 5126,
      "count" : 2267,
      "type" : "VEC3"
    },
    {
      "bufferView" : 3,
      "componentType" : 5126,
      "count" : 2267,
      "type" : "VEC3"
    },
    {
      "bufferView" : 4,
      "componentType" : 5126,
      "count" : 2267,
      "type" : "VEC4"
    },
    {
      "bufferView" : 5,
      "componentType" : 5123,
      "count" : 2267,
      "type" : "VEC4"
    },
    {
      "bufferView" : 6,
      "normalized" : true,
      "componentType" : 5121,
      "count" : 2267,
      "type" : "VEC4"
    },
    {
      "bufferView" : 7,
      "componentType" : 5126,
      "count" : 2267,
      "type" : "VEC2"
    },
    {
      "bufferView" : 8,
      "componentType" : 5123,
      "count" : 420,
      "type" : "SCALAR"
    },
    {
      "bufferView" : 9,
      "min" : [ -0.0226123, 0.0224622, -0.01124 ],
      "max" : [ 0.0226197, 0.0522692, 0.0317121 ],
      "componentType" : 5126,
      "count" : 77,
      "type" : "VEC3"
    },
    {
      "bufferView" : 10,
      "componentType" : 5126,
      "count" : 77,
      "type" : "VEC3"
    },
    {
      "bufferView" : 11,
      "componentType" : 5126,
      "count" : 77,
      "type" : "VEC4"
    },
    {
      "bufferView" : 12,
      "componentType" : 5123,
      "count" : 77,
      "type" : "VEC4"
    },
    {
      "bufferView" : 13,
      "normalized" : true,
      "componentType" : 5121,
      "count" : 77,
      "type" : "VEC4"
    },
    {
      "bufferView" : 14,
      "componentType" : 5126,
      "count" : 77,
      "type" : "VEC2"
    }
  ]
}
