{
  "asset" : {
    "generator" : "UE Viewer (umodel) build 1579 based",
    "version" : "2.0"
  },
  "scene" : 0,
  "scenes" : [
    {
      "nodes" : [ 0 ]
    }
  ],
  "nodes" : [
    {
      "name" : "SK_Weap_G28_102_Sight_1P_Mesh",
      "mesh" : 0,
      "skin" : 0,
      "children" : [ 1 ]
    },
    {
      "name" : "Root",
      "translation" : [ 0, 0, 0 ],
      "rotation" : [ -0, -0, -0, 1 ]
    }
  ],
  "skins" : [
    {
      "inverseBindMatrices" : 0,
      "skeleton" : 1,
      "joints" : [
        1
      ]
    }
  ],
  "materials" : [
    {
      "name" : "MI_Weap_G28_02_102",
      "pbrMetallicRoughness" : {
        "baseColorFactor" : [ 0.3, 0.3, 0.3, 1.0 ],
        "metallicFactor" : 0.1,
        "roughnessFactor" : 0.5
      }
    }
  ],
  "meshes" : [
    {
      "primitives" : [
        {
          "attributes" : {
            "POSITION" : 2,
            "NORMAL" : 3,
            "TANGENT" : 4,
            "JOINTS_0" : 5,
            "WEIGHTS_0" : 6,
            "TEXCOORD_0" : 7
          },
          "indices" : 1,
          "material" : 0
        }
      ],
      "name" : "SK_Weap_G28_102_Sight_1P_Mesh"
    }
  ],
  "buffers" : [
    {
      "uri" : "SK_Weap_G28_102_Sight_1P_Mesh.bin",
      "byteLength" : 93184
    }
  ],
  "bufferViews" : [
    {
      "buffer" : 0,
      "byteOffset" : 0,
      "byteLength" : 64
    },
    {
      "buffer" : 0,
      "byteOffset" : 64,
      "byteLength" : 8880
    },
    {
      "buffer" : 0,
      "byteOffset" : 8944,
      "byteLength" : 16848
    },
    {
      "buffer" : 0,
      "byteOffset" : 25792,
      "byteLength" : 16848
    },
    {
      "buffer" : 0,
      "byteOffset" : 42640,
      "byteLength" : 22464
    },
    {
      "buffer" : 0,
      "byteOffset" : 65104,
      "byteLength" : 11232
    },
    {
      "buffer" : 0,
      "byteOffset" : 76336,
      "byteLength" : 5616
    },
    {
      "buffer" : 0,
      "byteOffset" : 81952,
      "byteLength" : 11232
    }
  ],
  "accessors" : [
    {
      "bufferView" : 0,
      "componentType" : 5126,
      "count" : 1,
      "type" : "MAT4"
    },
    {
      "bufferView" : 1,
      "componentType" : 5123,
      "count" : 4440,
      "type" : "SCALAR"
    },
    {
      "bufferView" : 2,
      "min" : [ -0.0363156, -0.0473269, -0.124795 ],
      "max" : [ 0.0363156, 0.0676927, 0.00946177 ],
      "componentType" : 5126,
      "count" : 1404,
      "type" : "VEC3"
    },
    {
      "bufferView" : 3,
      "componentType" : 5126,
      "count" : 1404,
      "type" : "VEC3"
    },
    {
      "bufferView" : 4,
      "componentType" : 5126,
      "count" : 1404,
      "type" : "VEC4"
    },
    {
      "bufferView" : 5,
      "componentType" : 5123,
      "count" : 1404,
      "type" : "VEC4"
    },
    {
      "bufferView" : 6,
      "normalized" : true,
      "componentType" : 5121,
      "count" : 1404,
      "type" : "VEC4"
    },
    {
      "bufferView" : 7,
      "componentType" : 5126,
      "count" : 1404,
      "type" : "VEC2"
    }
  ]
}
