{
  "asset" : {
    "generator" : "UE Viewer (umodel) build 1579 based",
    "version" : "2.0"
  },
  "scene" : 0,
  "scenes" : [
    {
      "nodes" : [ 0 ]
    }
  ],
  "nodes" : [
    {
      "name" : "KokonaShiki_PPM_101",
      "mesh" : 0,
      "skin" : 0,
      "children" : [ 1 ]
    },
    {
      "name" : "root",
      "children" : [ 2, 42, 45 ],
      "translation" : [ 0, 0, 0 ],
      "rotation" : [ 3.06162e-17, -0, -0, 1 ]
    },
    {
      "name" : "Bip001",
      "children" : [ 3 ],
      "translation" : [ 0, 0.94151, -0 ],
      "rotation" : [ -0, 0.707106, -0, -0.707107 ]
    },
    {
      "name" : "Bip001-Pelvis",
      "children" : [ 4, 34, 38 ],
      "translation" : [ -5.76509e-17, 0, -8.59065e-23 ],
      "rotation" : [ 0.5, 0.499999, -0.5, -0.500001 ]
    },
    {
      "name" : "Bip001-Spine",
      "children" : [ 5 ],
      "translation" : [ 0.0671851, -1.33826e-07, -0.00282631 ],
      "rotation" : [ 2.05385e-06, -0.0297158, 8.63755e-07, -0.999558 ]
    },
    {
      "name" : "Bip001-Spine1",
      "children" : [ 6 ],
      "translation" : [ 0.0944991, -2.245e-10, 8.09513e-05 ],
      "rotation" : [ -1.31566e-09, 0.0320063, 1.37785e-07, -0.999488 ]
    },
    {
      "name" : "Bip001-Spine2",
      "children" : [ 7, 14, 24 ],
      "translation" : [ 0.101876, -3.14819e-10, 0.000113602 ],
      "rotation" : [ 1.48108e-09, 0.0126868, 6.68835e-09, -0.99992 ]
    },
    {
      "name" : "Bip001-Neck",
      "children" : [ 8 ],
      "translation" : [ 0.163325, 2.56451e-09, 0.00478124 ],
      "rotation" : [ -7.72696e-09, -0.0123115, -7.88489e-08, -0.999924 ]
    },
    {
      "name" : "Bip001-Head",
      "children" : [ 9 ],
      "translation" : [ 0.0531526, -1.19972e-14, 3.24215e-10 ],
      "rotation" : [ 5.80724e-09, -0.0215196, -4.90282e-08, -0.999768 ]
    },
    {
      "name" : "ponytail_hair_m_01",
      "children" : [ 10 ],
      "translation" : [ 0.0328099, 4.33483e-07, 0.0202032 ],
      "rotation" : [ 0.0919568, -3.91093e-07, 0.995763, 1.48237e-07 ]
    },
    {
      "name" : "ponytail_hair_m_02",
      "children" : [ 11 ],
      "translation" : [ 0.078208, 1.14448e-14, -2.38523e-07 ],
      "rotation" : [ 2.89696e-14, -0.022799, -6.05702e-15, -0.99974 ]
    },
    {
      "name" : "ponytail_hair_m_03",
      "children" : [ 12 ],
      "translation" : [ 0.0642906, -1.20676e-13, 2.798e-08 ],
      "rotation" : [ 4.18202e-14, 0.0221512, -8.45353e-15, -0.999755 ]
    },
    {
      "name" : "ponytail_hair_m_04",
      "children" : [ 13 ],
      "translation" : [ 0.0813955, 1.93643e-14, 2.19489e-07 ],
      "rotation" : [ 3.99256e-14, 0.000645971, -8.75112e-15, -1 ]
    },
    {
      "name" : "ponytail_hair_m_05",
      "translation" : [ 0.0737357, 2.45592e-14, -3.38428e-09 ],
      "rotation" : [ 8.71769e-14, -0.0121386, -1.84962e-14, -0.999926 ]
    },
    {
      "name" : "Bip001-L-Clavicle",
      "children" : [ 15 ],
      "translation" : [ 0.121565, 0.0347453, 0.00959258 ],
      "rotation" : [ -0.642569, -0.766192, 0.0054236, -0.00506813 ]
    },
    {
      "name" : "Bip001-L-UpperArm",
      "children" : [ 16, 23 ],
      "translation" : [ 0.0941492, 2.22626e-08, -2.07074e-10 ],
      "rotation" : [ -0.0659401, 0.0332854, 0.11003, -0.99118 ]
    },
    {
      "name" : "Bip001-L-Forearm",
      "children" : [ 17, 22 ],
      "translation" : [ 0.176302, 2.2384e-08, 5.1479e-10 ],
      "rotation" : [ -3.88923e-09, 0.000827901, -5.64897e-08, -1 ]
    },
    {
      "name" : "Bip001-L-Hand",
      "children" : [ 18, 20 ],
      "translation" : [ 0.193133, -5.05493e-08, 1.26447e-09 ],
      "rotation" : [ -0.999797, -0.0160351, 0.00616915, 0.0105211 ]
    },
    {
      "name" : "Bip001-L-Finger0",
      "children" : [ 19 ],
      "translation" : [ 0.0642438, -0.0340981, 0.00159744 ],
      "rotation" : [ -0.657525, 0.261111, 0.21425, -0.673483 ]
    },
    {
      "name" : "Bip001-L-Finger01",
      "translation" : [ 0.0265693, 0.00018796, -4.16185e-06 ],
      "rotation" : [ -8.19153e-05, 0.0660177, -8.21346e-05, -0.997818 ]
    },
    {
      "name" : "Bip001-L-Finger1",
      "children" : [ 21 ],
      "translation" : [ 0.0704921, 3.3322e-07, 0.000437921 ],
      "rotation" : [ 0.000398135, 0.0156598, -6.18006e-06, -0.999877 ]
    },
    {
      "name" : "Bip001-L-Finger11",
      "translation" : [ 0.0282123, 3.98521e-06, 0.000191796 ],
      "rotation" : [ -3.78201e-06, -0.0183463, -2.39961e-06, -0.999832 ]
    },
    {
      "name" : "Bip001-L-ForeTwist",
      "translation" : [ 4.61148e-07, -5.95402e-07, -0.000123731 ],
      "rotation" : [ -7.13043e-07, -0.000116278, 1.08065e-06, -1 ]
    },
    {
      "name" : "Bip001-LUpArmTwist",
      "translation" : [ 5.47284e-07, 1.11651e-08, 5.62916e-07 ],
      "rotation" : [ -2.42129e-07, -0.000352557, 7.69312e-07, -1 ]
    },
    {
      "name" : "Bip001-R-Clavicle",
      "children" : [ 25 ],
      "translation" : [ 0.121565, -0.0347454, 0.00959239 ],
      "rotation" : [ 0.642569, -0.766192, -0.00542572, -0.00506991 ]
    },
    {
      "name" : "Bip001-R-UpperArm",
      "children" : [ 26, 33 ],
      "translation" : [ 0.0941492, -7.5006e-08, 2.35869e-09 ],
      "rotation" : [ 0.0659402, 0.0332854, -0.110029, -0.99118 ]
    },
    {
      "name" : "Bip001-R-Forearm",
      "children" : [ 27, 32 ],
      "translation" : [ 0.176302, -2.37727e-08, -5.85047e-10 ],
      "rotation" : [ 6.05914e-10, 0.000827894, 5.66585e-08, -1 ]
    },
    {
      "name" : "Bip001-R-Hand",
      "children" : [ 28, 30 ],
      "translation" : [ 0.193133, 4.05239e-08, -3.07555e-09 ],
      "rotation" : [ -0.999797, 0.0160351, 0.00616916, -0.0105211 ]
    },
    {
      "name" : "Bip001-R-Finger0",
      "children" : [ 29 ],
      "translation" : [ 0.0642437, 0.0340981, 0.00159744 ],
      "rotation" : [ 0.657525, 0.261111, -0.21425, -0.673483 ]
    },
    {
      "name" : "Bip001-R-Finger01",
      "translation" : [ 0.0265735, -0.000262884, -5.33308e-06 ],
      "rotation" : [ 0.000177383, 0.066021, 0.000177934, -0.997818 ]
    },
    {
      "name" : "Bip001-R-Finger1",
      "children" : [ 31 ],
      "translation" : [ 0.0704921, -3.16009e-07, 0.000437925 ],
      "rotation" : [ -0.000398133, 0.0156598, 6.18698e-06, -0.999877 ]
    },
    {
      "name" : "Bip001-R-Finger11",
      "translation" : [ 0.0282149, -5.61892e-06, 0.000270985 ],
      "rotation" : [ 8.08772e-06, -0.0182111, 4.92996e-06, -0.999834 ]
    },
    {
      "name" : "Bip001-R-ForeTwist",
      "translation" : [ -3.83697e-06, 1.01388e-06, -0.000124552 ],
      "rotation" : [ -1, 4.5404e-07, 0.000253241, 6.06362e-08 ]
    },
    {
      "name" : "Bip001-RUpArmTwist",
      "translation" : [ -6.62272e-07, 4.72082e-08, 2.21584e-07 ],
      "rotation" : [ -1, 5.26908e-07, 0.000355049, 2.9942e-07 ]
    },
    {
      "name" : "Bip001-L-Thigh",
      "children" : [ 35 ],
      "translation" : [ 9.74604e-08, 0.0641221, -1.30079e-07 ],
      "rotation" : [ -0.00509026, 0.00195923, 0.999984, -0.00124139 ]
    },
    {
      "name" : "Bip001-L-Calf",
      "children" : [ 36 ],
      "translation" : [ 0.402524, 1.58563e-09, -3.83242e-11 ],
      "rotation" : [ 1.1607e-08, 0.0516004, -4.87656e-10, -0.998668 ]
    },
    {
      "name" : "Bip001-L-Foot",
      "children" : [ 37 ],
      "translation" : [ 0.433042, -1.36367e-09, -1.06548e-09 ],
      "rotation" : [ 0.00202004, -0.0465194, 0.00113952, -0.998915 ]
    },
    {
      "name" : "Bip001-L-Toe0",
      "translation" : [ 0.101645, -2.94389e-10, -0.0136786 ],
      "rotation" : [ -3.89688e-08, -0.707107, -7.35912e-09, -0.707107 ]
    },
    {
      "name" : "Bip001-R-Thigh",
      "children" : [ 39 ],
      "translation" : [ -9.74604e-08, -0.0641221, 4.77699e-08 ],
      "rotation" : [ -0.00509027, -0.00195783, 0.999984, 0.00124282 ]
    },
    {
      "name" : "Bip001-R-Calf",
      "children" : [ 40 ],
      "translation" : [ 0.402524, -1.53429e-09, -2.93915e-11 ],
      "rotation" : [ -4.80335e-09, 0.0516004, 1.40409e-10, -0.998668 ]
    },
    {
      "name" : "Bip001-R-Foot",
      "children" : [ 41 ],
      "translation" : [ 0.433042, 1.51454e-09, 1.90251e-09 ],
      "rotation" : [ -0.00202003, -0.0465194, -0.00113943, -0.998915 ]
    },
    {
      "name" : "Bip001-R-Toe0",
      "translation" : [ 0.101645, 1.42482e-09, -0.0136786 ],
      "rotation" : [ 3.85297e-08, -0.707107, 6.91997e-09, -0.707107 ]
    },
    {
      "name" : "ik_foot_root",
      "children" : [ 43, 44 ],
      "translation" : [ 0, 0, -0 ],
      "rotation" : [ -0, -0, 0, -1 ]
    },
    {
      "name" : "ik_foot_l",
      "translation" : [ 0.0622097, 0.107841, -0.0361493 ],
      "rotation" : [ -0.707107, 0.707107, -1.30627e-06, -3.65582e-06 ]
    },
    {
      "name" : "ik_foot_r",
      "translation" : [ -0.06221, 0.107841, -0.0361491 ],
      "rotation" : [ 0.707107, -0.707107, 1.6037e-06, 3.1898e-06 ]
    },
    {
      "name" : "ik_hand_root",
      "children" : [ 46 ],
      "translation" : [ 0, 0, -0 ],
      "rotation" : [ -0, -0, 0, -1 ]
    },
    {
      "name" : "ik_hand_gun",
      "children" : [ 47, 48, 49 ],
      "translation" : [ -0.466946, 1.16697, 0.0252017 ],
      "rotation" : [ 0.178539, -0.981004, -0.0597179, 0.0467799 ]
    },
    {
      "name" : "ik_hand_r",
      "translation" : [ 3.8147e-08, -1.52588e-07, -8.58307e-08 ],
      "rotation" : [ -6.22123e-07, 9.12698e-08, 2.23517e-07, -1 ]
    },
    {
      "name" : "ik_hand_l",
      "translation" : [ -0.870267, -0.32192, -0.105627 ],
      "rotation" : [ -0.113104, -1.1989e-06, 0.931871, -0.344708 ]
    },
    {
      "name" : "SocketADS",
      "translation" : [ 0, 0, -0 ],
      "rotation" : [ 2.94298e-07, 8.9407e-08, 7.45058e-08, -1 ]
    }
  ],
  "skins" : [
    {
      "inverseBindMatrices" : 0,
      "skeleton" : 1,
      "joints" : [
        1,2,3,4,5,6,7,8,9,10,11,12,13,14,15,16,17,18,19,20,21,22,23,24,25,26,27,28,29,30,31,32,
        33,34,35,36,37,38,39,40,41,42,43,44,45,46,47,48,49
      ]
    }
  ],
  "materials" : [
    {
      "name" : "MI_KokonaShiki_PPM_101",
      "pbrMetallicRoughness" : {
        "baseColorFactor" : [ 0.3, 0.3, 0.3, 1.0 ],
        "metallicFactor" : 0.1,
        "roughnessFactor" : 0.5
      }
    }
  ],
  "meshes" : [
    {
      "primitives" : [
        {
          "attributes" : {
            "POSITION" : 2,
            "NORMAL" : 3,
            "TANGENT" : 4,
            "COLOR_0" : 5,
            "JOINTS_0" : 6,
            "WEIGHTS_0" : 7,
            "TEXCOORD_0" : 8
          },
          "indices" : 1,
          "material" : 0
        }
      ],
      "name" : "KokonaShiki_PPM_101"
    }
  ],
  "buffers" : [
    {
      "uri" : "KokonaShiki_PPM_101.bin",
      "byteLength" : 100192
    }
  ],
  "bufferViews" : [
    {
      "buffer" : 0,
      "byteOffset" : 0,
      "byteLength" : 3136
    },
    {
      "buffer" : 0,
      "byteOffset" : 3136,
      "byteLength" : 10080
    },
    {
      "buffer" : 0,
      "byteOffset" : 13216,
      "byteLength" : 16308
    },
    {
      "buffer" : 0,
      "byteOffset" : 29524,
      "byteLength" : 16308
    },
    {
      "buffer" : 0,
      "byteOffset" : 45832,
      "byteLength" : 21744
    },
    {
      "buffer" : 0,
      "byteOffset" : 67576,
      "byteLength" : 5436
    },
    {
      "buffer" : 0,
      "byteOffset" : 73012,
      "byteLength" : 10872
    },
    {
      "buffer" : 0,
      "byteOffset" : 83884,
      "byteLength" : 5436
    },
    {
      "buffer" : 0,
      "byteOffset" : 89320,
      "byteLength" : 10872
    }
  ],
  "accessors" : [
    {
      "bufferView" : 0,
      "componentType" : 5126,
      "count" : 49,
      "type" : "MAT4"
    },
    {
      "bufferView" : 1,
      "componentType" : 5123,
      "count" : 5040,
      "type" : "SCALAR"
    },
    {
      "bufferView" : 2,
      "min" : [ -0.626529, -0.000165, -0.0895204 ],
      "max" : [ 0.623503, 1.64121, 0.040013 ],
      "componentType" : 5126,
      "count" : 1359,
      "type" : "VEC3"
    },
    {
      "bufferView" : 3,
      "componentType" : 5126,
      "count" : 1359,
      "type" : "VEC3"
    },
    {
      "bufferView" : 4,
      "componentType" : 5126,
      "count" : 1359,
      "type" : "VEC4"
    },
    {
      "bufferView" : 5,
      "normalized" : true,
      "componentType" : 5121,
      "count" : 1359,
      "type" : "VEC4"
    },
    {
      "bufferView" : 6,
      "componentType" : 5123,
      "count" : 1359,
      "type" : "VEC4"
    },
    {
      "bufferView" : 7,
      "normalized" : true,
      "componentType" : 5121,
      "count" : 1359,
      "type" : "VEC4"
    },
    {
      "bufferView" : 8,
      "componentType" : 5126,
      "count" : 1359,
      "type" : "VEC2"
    }
  ]
}
