{
  "asset" : {
    "generator" : "UE Viewer (umodel) build 1579 based",
    "version" : "2.0"
  },
  "scene" : 0,
  "scenes" : [
    {
      "nodes" : [ 0 ]
    }
  ],
  "nodes" : [
    {
      "name" : "SK_Weap_FAMAS_Sight",
      "mesh" : 0,
      "skin" : 0,
      "children" : [ 1 ]
    },
    {
      "name" : "Root",
      "translation" : [ 0, 0, 0 ],
      "rotation" : [ -4.76837e-07, -0, -0, 1 ]
    }
  ],
  "skins" : [
    {
      "inverseBindMatrices" : 0,
      "skeleton" : 1,
      "joints" : [
        1
      ]
    }
  ],
  "materials" : [
    {
      "name" : "MI_Weap_FAMAS_02",
      "pbrMetallicRoughness" : {
        "baseColorFactor" : [ 0.3, 0.3, 0.3, 1.0 ],
        "metallicFactor" : 0.1,
        "roughnessFactor" : 0.5
      }
    }
  ],
  "meshes" : [
    {
      "primitives" : [
        {
          "attributes" : {
            "POSITION" : 2,
            "NORMAL" : 3,
            "TANGENT" : 4,
            "JOINTS_0" : 5,
            "WEIGHTS_0" : 6,
            "TEXCOORD_0" : 7
          },
          "indices" : 1,
          "material" : 0
        }
      ],
      "name" : "SK_Weap_FAMAS_Sight"
    }
  ],
  "buffers" : [
    {
      "uri" : "SK_Weap_FAMAS_Sight.bin",
      "byteLength" : 261772
    }
  ],
  "bufferViews" : [
    {
      "buffer" : 0,
      "byteOffset" : 0,
      "byteLength" : 64
    },
    {
      "buffer" : 0,
      "byteOffset" : 64,
      "byteLength" : 27108
    },
    {
      "buffer" : 0,
      "byteOffset" : 27172,
      "byteLength" : 46920
    },
    {
      "buffer" : 0,
      "byteOffset" : 74092,
      "byteLength" : 46920
    },
    {
      "buffer" : 0,
      "byteOffset" : 121012,
      "byteLength" : 62560
    },
    {
      "buffer" : 0,
      "byteOffset" : 183572,
      "byteLength" : 31280
    },
    {
      "buffer" : 0,
      "byteOffset" : 214852,
      "byteLength" : 15640
    },
    {
      "buffer" : 0,
      "byteOffset" : 230492,
      "byteLength" : 31280
    }
  ],
  "accessors" : [
    {
      "bufferView" : 0,
      "componentType" : 5126,
      "count" : 1,
      "type" : "MAT4"
    },
    {
      "bufferView" : 1,
      "componentType" : 5123,
      "count" : 13554,
      "type" : "SCALAR"
    },
    {
      "bufferView" : 2,
      "min" : [ -0.020444, -0.0493419, -0.0941087 ],
      "max" : [ 0.020462, 0.0230294, 0.0501665 ],
      "componentType" : 5126,
      "count" : 3910,
      "type" : "VEC3"
    },
    {
      "bufferView" : 3,
      "componentType" : 5126,
      "count" : 3910,
      "type" : "VEC3"
    },
    {
      "bufferView" : 4,
      "componentType" : 5126,
      "count" : 3910,
      "type" : "VEC4"
    },
    {
      "bufferView" : 5,
      "componentType" : 5123,
      "count" : 3910,
      "type" : "VEC4"
    },
    {
      "bufferView" : 6,
      "normalized" : true,
      "componentType" : 5121,
      "count" : 3910,
      "type" : "VEC4"
    },
    {
      "bufferView" : 7,
      "componentType" : 5126,
      "count" : 3910,
      "type" : "VEC2"
    }
  ]
}
