{
  "asset" : {
    "generator" : "UE Viewer (umodel) build 1579 based",
    "version" : "2.0"
  },
  "scene" : 0,
  "scenes" : [
    {
      "nodes" : [ 0 ]
    }
  ],
  "nodes" : [
    {
      "name" : "Meredith_PPM_004",
      "mesh" : 0,
      "skin" : 0,
      "children" : [ 1 ]
    },
    {
      "name" : "root",
      "children" : [ 2, 100, 103 ],
      "translation" : [ 0, 0, 0 ],
      "rotation" : [ 3.06162e-17, -0, -0, 1 ]
    },
    {
      "name" : "Bip001",
      "children" : [ 3 ],
      "translation" : [ 0, 0.900362, 0.0336379 ],
      "rotation" : [ -4.156e-39, 0.707106, -4.156e-39, -0.707107 ]
    },
    {
      "name" : "Bip001-Pelvis",
      "children" : [ 4, 92, 96 ],
      "translation" : [ -4.44089e-17, 0, -6.77626e-23 ],
      "rotation" : [ 0.5, 0.499999, -0.5, -0.500001 ]
    },
    {
      "name" : "Bip001-Spine",
      "children" : [ 5 ],
      "translation" : [ 0.067185, -1.38452e-07, -0.0126104 ],
      "rotation" : [ 2.05868e-06, -0.0297158, 6.72489e-07, -0.999558 ]
    },
    {
      "name" : "Bip001-Spine1",
      "children" : [ 6 ],
      "translation" : [ 0.0944991, -2.24538e-10, 8.09545e-05 ],
      "rotation" : [ 2.86801e-14, 0.0320063, 8.87726e-08, -0.999488 ]
    },
    {
      "name" : "Bip001-Spine2",
      "children" : [ 7, 25, 35, 45, 52, 63, 73, 79, 86 ],
      "translation" : [ 0.101865, -3.12827e-10, 0.000112789 ],
      "rotation" : [ 8.31863e-14, 0.0610826, 1.69419e-07, -0.998133 ]
    },
    {
      "name" : "Bip001-Neck",
      "children" : [ 8 ],
      "translation" : [ 0.166184, -3.3144e-08, 0.0355038 ],
      "rotation" : [ 1.03434e-13, -0.135896, -3.76922e-07, -0.990723 ]
    },
    {
      "name" : "Bip001-Head",
      "children" : [ 9, 12, 15, 20 ],
      "translation" : [ 0.0531527, -5.1108e-15, 1.61356e-09 ],
      "rotation" : [ -8.75435e-14, 0.0222144, 6.16118e-08, -0.999753 ]
    },
    {
      "name" : "hair_r_01",
      "children" : [ 10 ],
      "translation" : [ 0.165262, -0.0489716, 0.0118048 ],
      "rotation" : [ 0.713248, 0.0721688, 0.0140749, -0.697045 ]
    },
    {
      "name" : "hair_r_02",
      "children" : [ 11 ],
      "translation" : [ 0.0384982, -1.5255e-07, -5.74984e-07 ],
      "rotation" : [ -2.4586e-09, 0.142593, 4.55235e-10, -0.989781 ]
    },
    {
      "name" : "hair_r_03",
      "translation" : [ 0.0514268, 1.28431e-06, 8.86637e-07 ],
      "rotation" : [ -3.53191e-07, 1.16185e-07, -3.86846e-07, -1 ]
    },
    {
      "name" : "hair_l_01",
      "children" : [ 13 ],
      "translation" : [ 0.165262, 0.048969, 0.011805 ],
      "rotation" : [ 0.697043, 0.014075, 0.0721688, -0.713249 ]
    },
    {
      "name" : "hair_l_02",
      "children" : [ 14 ],
      "translation" : [ 0.038498, -1.10427e-09, 5.67803e-07 ],
      "rotation" : [ 2.71446e-07, -0.142593, 2.85364e-08, -0.989781 ]
    },
    {
      "name" : "hair_l_03",
      "translation" : [ 0.0514258, 1.00098e-06, 8.51296e-07 ],
      "rotation" : [ 2.46714e-07, 6.86689e-07, -6.59729e-07, -1 ]
    },
    {
      "name" : "hair_up_l_01",
      "children" : [ 16 ],
      "translation" : [ 0.0447721, 0.06127, -0.001945 ],
      "rotation" : [ -0.0543934, 0.000700419, 0.998505, -0.00535707 ]
    },
    {
      "name" : "hair_up_l_02",
      "children" : [ 17 ],
      "translation" : [ 0.063802, -4.28944e-07, -9.61234e-09 ],
      "rotation" : [ -0.000152432, -0.00445746, -0.00666671, -0.999968 ]
    },
    {
      "name" : "hair_up_l_03",
      "children" : [ 18 ],
      "translation" : [ 0.0438696, -2.36633e-07, -1.56207e-08 ],
      "rotation" : [ 0.000334491, 0.0138658, -0.00549403, -0.999889 ]
    },
    {
      "name" : "hair_up_l_04",
      "children" : [ 19 ],
      "translation" : [ 0.0370493, -1.97942e-07, -1.89811e-08 ],
      "rotation" : [ -0.0003085, -0.012932, 0.00270253, -0.999913 ]
    },
    {
      "name" : "hair_up_l_05",
      "translation" : [ 0.0361665, -4.61074e-07, -7.81919e-07 ],
      "rotation" : [ 8.38581e-05, 0.00677782, 0.00102262, -0.999977 ]
    },
    {
      "name" : "hair_up_r_01",
      "children" : [ 21 ],
      "translation" : [ 0.0447721, -0.0612697, -0.00194519 ],
      "rotation" : [ -0.00535745, -0.998505, -0.000701553, -0.0543934 ]
    },
    {
      "name" : "hair_up_r_02",
      "children" : [ 22 ],
      "translation" : [ 0.063802, -4.62843e-07, -4.23711e-09 ],
      "rotation" : [ 0.000152965, 0.00445747, -0.00666671, -0.999968 ]
    },
    {
      "name" : "hair_up_r_03",
      "children" : [ 23 ],
      "translation" : [ 0.0438696, -1.50165e-07, 3.22409e-08 ],
      "rotation" : [ -0.000335249, -0.0138658, -0.00549402, -0.999889 ]
    },
    {
      "name" : "hair_up_r_04",
      "children" : [ 24 ],
      "translation" : [ 0.0370493, -1.44749e-07, 9.8033e-09 ],
      "rotation" : [ 0.000308516, 0.0129319, 0.00270257, -0.999913 ]
    },
    {
      "name" : "hair_up_r_05",
      "translation" : [ 0.0361662, 3.46598e-07, 7.82476e-07 ],
      "rotation" : [ -8.33763e-05, -0.00677782, 0.00102385, -0.999977 ]
    },
    {
      "name" : "Bip001-L-Clavicle",
      "children" : [ 26 ],
      "translation" : [ 0.12441, 0.0347453, 0.0407508 ],
      "rotation" : [ -0.641868, -0.765332, 0.0362715, -0.0309381 ]
    },
    {
      "name" : "Bip001-L-UpperArm",
      "children" : [ 27, 34 ],
      "translation" : [ 0.0941497, -2.26544e-07, 4.20246e-07 ],
      "rotation" : [ -0.0903314, -0.0199667, 0.0881421, -0.991803 ]
    },
    {
      "name" : "Bip001-L-Forearm",
      "children" : [ 28, 33 ],
      "translation" : [ 0.1575, 7.62939e-08, -0 ],
      "rotation" : [ 1.35547e-17, 0.0116077, 2.79148e-17, -0.999933 ]
    },
    {
      "name" : "Bip001-L-Hand",
      "children" : [ 29, 31 ],
      "translation" : [ 0.161597, 4.68503e-07, -3.59506e-07 ],
      "rotation" : [ -0.997963, 0.0272493, 0.0378668, 0.0435171 ]
    },
    {
      "name" : "Bip001-L-Finger0",
      "children" : [ 30 ],
      "translation" : [ 0.086762, -0.0261932, -0.00299713 ],
      "rotation" : [ -0.637424, 0.113293, 0.175096, -0.741752 ]
    },
    {
      "name" : "Bip001-L-Finger01",
      "translation" : [ 0.0225621, 3.18571e-09, 1.50006e-08 ],
      "rotation" : [ 6.72911e-10, 0.0866904, 6.272e-09, -0.996235 ]
    },
    {
      "name" : "Bip001-L-Finger1",
      "children" : [ 32 ],
      "translation" : [ 0.10086, 0.00365232, -0.00651794 ],
      "rotation" : [ 0.000972247, -0.0464427, 0.0123738, -0.998844 ]
    },
    {
      "name" : "Bip001-L-Finger11",
      "translation" : [ 0.0527443, -2.80869e-08, 9.93277e-10 ],
      "rotation" : [ 0.000109904, 0.00577034, -0.0190426, -0.999802 ]
    },
    {
      "name" : "Bip001-L-ForeTwist",
      "translation" : [ -6.82653e-07, 2.59607e-07, -4.18984e-07 ],
      "rotation" : [ 5.67424e-07, 1.57052e-07, -7.32974e-07, -1 ]
    },
    {
      "name" : "Bip001-LUpArmTwist",
      "translation" : [ -6.13604e-07, 9.15898e-08, -4.70754e-07 ],
      "rotation" : [ 8.26354e-07, 1.5573e-07, 0.00557595, -0.999984 ]
    },
    {
      "name" : "Bip001-R-Clavicle",
      "children" : [ 36 ],
      "translation" : [ 0.12441, -0.0347455, 0.0407506 ],
      "rotation" : [ 0.641868, -0.765331, -0.0362736, -0.0309399 ]
    },
    {
      "name" : "Bip001-R-UpperArm",
      "children" : [ 37, 44 ],
      "translation" : [ 0.0941487, 5.88583e-08, 5.6888e-07 ],
      "rotation" : [ 0.0903316, -0.0199667, -0.0881407, -0.991803 ]
    },
    {
      "name" : "Bip001-R-Forearm",
      "children" : [ 38, 43 ],
      "translation" : [ 0.1575, 7.62939e-08, -1.77636e-17 ],
      "rotation" : [ 4.11357e-18, 0.0116077, -5.54671e-17, -0.999933 ]
    },
    {
      "name" : "Bip001-R-Hand",
      "children" : [ 39, 41 ],
      "translation" : [ 0.161598, 2.39347e-07, -3.96195e-07 ],
      "rotation" : [ -0.997963, -0.0272507, 0.0378666, -0.043517 ]
    },
    {
      "name" : "Bip001-R-Finger0",
      "children" : [ 40 ],
      "translation" : [ 0.0867619, 0.0261932, -0.00299713 ],
      "rotation" : [ 0.637424, 0.113293, -0.175096, -0.741752 ]
    },
    {
      "name" : "Bip001-R-Finger01",
      "translation" : [ 0.0225621, 2.42059e-09, 1.54855e-08 ],
      "rotation" : [ -9.02922e-10, 0.0866904, -8.34761e-09, -0.996235 ]
    },
    {
      "name" : "Bip001-R-Finger1",
      "children" : [ 42 ],
      "translation" : [ 0.10086, -0.00365232, -0.00651794 ],
      "rotation" : [ -0.000972246, -0.0464427, -0.0123738, -0.998844 ]
    },
    {
      "name" : "Bip001-R-Finger11",
      "translation" : [ 0.0527443, 3.34964e-08, 3.74044e-09 ],
      "rotation" : [ -0.000109905, 0.00577034, 0.0190426, -0.999802 ]
    },
    {
      "name" : "Bip001-R-ForeTwist",
      "translation" : [ 3.11116e-06, -8.88473e-07, -1.58852e-06 ],
      "rotation" : [ -1, -7.06999e-07, 9.849e-07, 1.21692e-06 ]
    },
    {
      "name" : "Bip001-RUpArmTwist",
      "translation" : [ -3.42068e-06, 1.27715e-06, -4.85234e-07 ],
      "rotation" : [ -0.999984, -0.00557731, 1.10811e-06, 1.44972e-06 ]
    },
    {
      "name" : "part_l_01",
      "children" : [ 46 ],
      "translation" : [ 0.0842972, 0.113265, 0.0034409 ],
      "rotation" : [ -0.0372028, -0.0769704, 0.9933, 0.0777632 ]
    },
    {
      "name" : "part_l_02",
      "children" : [ 47 ],
      "translation" : [ 0.0336791, 7.03962e-08, -1.21289e-08 ],
      "rotation" : [ 7.39198e-06, 0.0368993, -0.000204218, -0.999319 ]
    },
    {
      "name" : "part_l_03",
      "children" : [ 48 ],
      "translation" : [ 0.0840026, 1.16903e-08, -3.11713e-08 ],
      "rotation" : [ 0.0132594, 0.0190677, 0.00550514, -0.999715 ]
    },
    {
      "name" : "part_l_04",
      "children" : [ 49 ],
      "translation" : [ 0.107575, -8.52025e-08, -1.18041e-08 ],
      "rotation" : [ -0.0159085, 0.0104274, 0.0197356, -0.999624 ]
    },
    {
      "name" : "part_l_05",
      "children" : [ 50 ],
      "translation" : [ 0.122193, -8.24571e-08, -4.90448e-08 ],
      "rotation" : [ -0.00732793, -0.00445282, 0.014001, -0.999865 ]
    },
    {
      "name" : "part_l_06",
      "children" : [ 51 ],
      "translation" : [ 0.154715, -1.82052e-09, 2.7917e-08 ],
      "rotation" : [ 4.80712e-07, -6.60255e-09, 0.0162979, -0.999867 ]
    },
    {
      "name" : "part_l_07",
      "translation" : [ 0.11645, 3.03274e-07, 2.7129e-07 ],
      "rotation" : [ -0.0294528, 0.000160069, 0.00541105, -0.999552 ]
    },
    {
      "name" : "part_f_01",
      "children" : [ 53 ],
      "translation" : [ 0.117508, 0.0225747, 0.0505316 ],
      "rotation" : [ -0.0180109, -0.987632, 0.00345406, 0.155715 ]
    },
    {
      "name" : "part_f_02",
      "children" : [ 54 ],
      "translation" : [ 0.111361, 6.15104e-09, 1.52193e-07 ],
      "rotation" : [ 0.00594884, 0.000511799, -0.0324759, -0.999455 ]
    },
    {
      "name" : "part_f_03",
      "children" : [ 55 ],
      "translation" : [ 0.178462, -9.6353e-09, 7.02599e-09 ],
      "rotation" : [ 0.00540494, -0.0913187, -0.074233, -0.993036 ]
    },
    {
      "name" : "part_f_04",
      "children" : [ 56 ],
      "translation" : [ 0.195722, -2.88782e-09, 2.36509e-08 ],
      "rotation" : [ -0.0656263, 0.181329, -0.0974274, -0.976381 ]
    },
    {
      "name" : "part_f_05",
      "children" : [ 57 ],
      "translation" : [ 0.144438, 3.84231e-08, 2.12296e-08 ],
      "rotation" : [ -0.0450093, 0.0249516, -0.0707081, -0.996169 ]
    },
    {
      "name" : "part_f_06",
      "children" : [ 58 ],
      "translation" : [ 0.131919, 8.82579e-09, -2.6205e-08 ],
      "rotation" : [ -0.145003, 0.0071652, 0.0256108, -0.989074 ]
    },
    {
      "name" : "part_f_07",
      "children" : [ 59 ],
      "translation" : [ 0.089327, 2.46392e-08, 2.78788e-07 ],
      "rotation" : [ -0.512727, 0.360518, 0.504217, -0.594056 ]
    },
    {
      "name" : "part_f_08",
      "children" : [ 60 ],
      "translation" : [ 0.103634, -2.854e-08, -1.12023e-07 ],
      "rotation" : [ -0.00336911, -0.161974, -0.0699071, -0.98431 ]
    },
    {
      "name" : "part_f_09",
      "children" : [ 61 ],
      "translation" : [ 0.101917, -1.16689e-08, 6.94824e-08 ],
      "rotation" : [ -0.0502675, -0.492389, -0.100406, -0.863102 ]
    },
    {
      "name" : "part_f_010",
      "children" : [ 62 ],
      "translation" : [ 0.120661, -4.50605e-07, 1.07307e-06 ],
      "rotation" : [ -0.673859, -0.095944, 0.0375953, -0.731639 ]
    },
    {
      "name" : "part_f_011",
      "translation" : [ 0.0950339, 5.72204e-08, 1.90735e-08 ],
      "rotation" : [ 0.00869928, -0.0107452, -0.00841737, -0.999869 ]
    },
    {
      "name" : "cloth_b_01",
      "children" : [ 64 ],
      "translation" : [ 0.114478, -0.0239444, 0.0477111 ],
      "rotation" : [ 0.0830284, 0.638273, 0.750632, -0.149219 ]
    },
    {
      "name" : "cloth_b_02",
      "children" : [ 65 ],
      "translation" : [ 0.10792, -3.61759e-09, -9.34091e-09 ],
      "rotation" : [ -0.0371565, -0.0345106, -0.00363567, -0.998707 ]
    },
    {
      "name" : "cloth_b_03",
      "children" : [ 66 ],
      "translation" : [ 0.177685, -6.83659e-10, -3.78423e-08 ],
      "rotation" : [ -0.0234939, -0.0353473, -0.0133992, -0.999009 ]
    },
    {
      "name" : "cloth_b_04",
      "children" : [ 67 ],
      "translation" : [ 0.216715, -3.341e-08, 2.17695e-08 ],
      "rotation" : [ -0.0282779, -0.0824043, -0.031806, -0.99569 ]
    },
    {
      "name" : "cloth_b_05",
      "children" : [ 68 ],
      "translation" : [ 0.135397, -1.02735e-09, -1.74997e-08 ],
      "rotation" : [ 0.087112, -0.120875, 0.152786, -0.976963 ]
    },
    {
      "name" : "cloth_b_06",
      "children" : [ 69 ],
      "translation" : [ 0.16096, -1.30419e-07, -3.98861e-08 ],
      "rotation" : [ 0.081613, 0.410139, -0.0136231, -0.908262 ]
    },
    {
      "name" : "cloth_b_07",
      "children" : [ 70 ],
      "translation" : [ 0.10675, 9.03788e-08, -5.71498e-08 ],
      "rotation" : [ -0.074369, 0.267274, -0.0563597, -0.959092 ]
    },
    {
      "name" : "cloth_b_08",
      "children" : [ 71 ],
      "translation" : [ 0.0840789, -2.29088e-08, 3.73431e-08 ],
      "rotation" : [ -0.0307303, 0.26239, -0.0612183, -0.962528 ]
    },
    {
      "name" : "cloth_b_09",
      "children" : [ 72 ],
      "translation" : [ 0.0871264, -5.31739e-06, 2.30527e-06 ],
      "rotation" : [ 0.0792204, -0.624649, 0.0174866, -0.77668 ]
    },
    {
      "name" : "cloth_b_010",
      "translation" : [ 0.123778, 1.16043e-06, -4.61771e-08 ],
      "rotation" : [ 0.00943306, -0.450305, -0.00214021, -0.892822 ]
    },
    {
      "name" : "cloak_m_01",
      "children" : [ 74 ],
      "translation" : [ 0.0732686, -0.0896999, 0.0504705 ],
      "rotation" : [ 0.134505, -0.0509295, 0.986166, -0.0824093 ]
    },
    {
      "name" : "cloak_m_02",
      "children" : [ 75 ],
      "translation" : [ 0.0642585, -7.78732e-08, -4.21024e-08 ],
      "rotation" : [ 5.15821e-07, 0.000584599, 0.000346378, -1 ]
    },
    {
      "name" : "cloak_m_03",
      "children" : [ 76 ],
      "translation" : [ 0.135055, -6.82166e-08, -3.37513e-08 ],
      "rotation" : [ 0.0423501, 0.00038103, -0.00750834, -0.999075 ]
    },
    {
      "name" : "cloak_m_04",
      "children" : [ 77 ],
      "translation" : [ 0.137129, -2.54991e-07, -2.82507e-08 ],
      "rotation" : [ 0.0331451, 0.00399435, -0.0352863, -0.998819 ]
    },
    {
      "name" : "cloak_m_05",
      "children" : [ 78 ],
      "translation" : [ 0.120741, 8.29049e-08, -6.37897e-08 ],
      "rotation" : [ 0.0267198, 0.0121145, -0.0255428, -0.999243 ]
    },
    {
      "name" : "cloak_m_06",
      "translation" : [ 0.158632, 3.74637e-07, 6.38674e-07 ],
      "rotation" : [ 8.4332e-07, 8.3965e-07, -3.97764e-07, -1 ]
    },
    {
      "name" : "part_r_01",
      "children" : [ 80 ],
      "translation" : [ 0.084955, -0.11327, 0.00859838 ],
      "rotation" : [ 0.0879785, -0.986646, 0.136979, -0.00516801 ]
    },
    {
      "name" : "part_r_02",
      "children" : [ 81 ],
      "translation" : [ 0.0336792, 2.22147e-07, -9.29431e-08 ],
      "rotation" : [ -3.55053e-06, -0.0184962, -0.000204059, -0.999829 ]
    },
    {
      "name" : "part_r_03",
      "children" : [ 82 ],
      "translation" : [ 0.0840027, -2.96917e-07, -3.72936e-08 ],
      "rotation" : [ 0.0156116, -0.00580068, -0.00109159, -0.999861 ]
    },
    {
      "name" : "part_r_04",
      "children" : [ 83 ],
      "translation" : [ 0.107575, 8.83956e-08, 3.88986e-08 ],
      "rotation" : [ 0.0260179, -0.0073333, 0.0215381, -0.999403 ]
    },
    {
      "name" : "part_r_05",
      "children" : [ 84 ],
      "translation" : [ 0.122193, -1.45094e-08, 6.71525e-08 ],
      "rotation" : [ 0.00161423, 0.0198852, 0.0306752, -0.99933 ]
    },
    {
      "name" : "part_r_06",
      "children" : [ 85 ],
      "translation" : [ 0.154715, 5.98228e-09, -2.31562e-09 ],
      "rotation" : [ 0.000609202, 0.0373925, 0.0162866, -0.999168 ]
    },
    {
      "name" : "part_r_07",
      "translation" : [ 0.11645, -4.7499e-07, -1.344e-07 ],
      "rotation" : [ 0.0294527, -0.00015974, 0.00541263, -0.999552 ]
    },
    {
      "name" : "part_b_01",
      "children" : [ 87 ],
      "translation" : [ 0.0732686, 0.0896957, 0.0504707 ],
      "rotation" : [ -0.0453078, -0.988566, 0.0458402, 0.136323 ]
    },
    {
      "name" : "part_b_02",
      "children" : [ 88 ],
      "translation" : [ 0.0642585, -1.54336e-07, 4.79383e-08 ],
      "rotation" : [ -5.77584e-08, -1.88209e-08, 4.27033e-08, -1 ]
    },
    {
      "name" : "part_b_03",
      "children" : [ 89 ],
      "translation" : [ 0.140624, -7.52543e-08, -1.96161e-10 ],
      "rotation" : [ -0.0186882, -0.0173443, -0.0133706, -0.999586 ]
    },
    {
      "name" : "part_b_04",
      "children" : [ 90 ],
      "translation" : [ 0.146024, -1.45612e-07, 3.78072e-08 ],
      "rotation" : [ -0.0364034, 0.01141, -0.0292103, -0.998845 ]
    },
    {
      "name" : "part_b_05",
      "children" : [ 91 ],
      "translation" : [ 0.118415, 7.65718e-10, 3.67195e-08 ],
      "rotation" : [ -0.0439688, 0.0120133, -0.0162443, -0.998829 ]
    },
    {
      "name" : "part_b_06",
      "translation" : [ 0.146324, -4.57283e-07, -2.77915e-07 ],
      "rotation" : [ -5.54538e-07, 3.36558e-06, 9.31303e-07, -1 ]
    },
    {
      "name" : "Bip001-L-Thigh",
      "children" : [ 93 ],
      "translation" : [ 8.89246e-08, 0.0641221, -1.29146e-07 ],
      "rotation" : [ 0.0151603, 0.00146944, 0.999803, -0.0127032 ]
    },
    {
      "name" : "Bip001-L-Calf",
      "children" : [ 94 ],
      "translation" : [ 0.380702, 1.78818e-09, 1.07964e-10 ],
      "rotation" : [ -3.55919e-08, 0.0311076, 2.05202e-09, -0.999516 ]
    },
    {
      "name" : "Bip001-L-Foot",
      "children" : [ 95 ],
      "translation" : [ 0.333935, 5.91276e-10, 3.24711e-10 ],
      "rotation" : [ 0.00186328, -0.0462545, 0.0126521, -0.998848 ]
    },
    {
      "name" : "Bip001-L-Toe0",
      "translation" : [ 0.179998, 8.96955e-09, -0.0425427 ],
      "rotation" : [ 3.11549e-08, -0.707107, -3.06623e-08, -0.707107 ]
    },
    {
      "name" : "Bip001-R-Thigh",
      "children" : [ 97 ],
      "translation" : [ -8.89246e-08, -0.0641221, 4.80841e-08 ],
      "rotation" : [ 0.0151603, -0.00146808, 0.999803, 0.0127045 ]
    },
    {
      "name" : "Bip001-R-Calf",
      "children" : [ 98 ],
      "translation" : [ 0.380702, 4.91261e-10, -6.04348e-10 ],
      "rotation" : [ 4.37979e-08, 0.0311076, -2.36387e-09, -0.999516 ]
    },
    {
      "name" : "Bip001-R-Foot",
      "children" : [ 99 ],
      "translation" : [ 0.333935, -5.91817e-10, -3.08307e-09 ],
      "rotation" : [ -0.00186328, -0.0462545, -0.012652, -0.998848 ]
    },
    {
      "name" : "Bip001-R-Toe0",
      "translation" : [ 0.173336, 8.67835e-09, -0.0425427 ],
      "rotation" : [ 2.46294e-10, -0.707107, 2.46341e-10, -0.707107 ]
    },
    {
      "name" : "ik_foot_root",
      "children" : [ 101, 102 ],
      "translation" : [ 0, 0, -0 ],
      "rotation" : [ -0, -0, 0, -1 ]
    },
    {
      "name" : "ik_foot_l",
      "translation" : [ 0.0460855, 0.187559, -0.0087893 ],
      "rotation" : [ -0.707107, 0.707107, 6.22368e-07, -6.22368e-07 ]
    },
    {
      "name" : "ik_foot_r",
      "translation" : [ -0.0460858, 0.187559, -0.00878918 ],
      "rotation" : [ -0.707107, 0.707107, 5.38074e-07, -5.38074e-07 ]
    },
    {
      "name" : "ik_hand_root",
      "children" : [ 104 ],
      "translation" : [ 0, 0, -0 ],
      "rotation" : [ -0, -0, 0, -1 ]
    },
    {
      "name" : "ik_hand_gun",
      "children" : [ 105, 106, 107 ],
      "translation" : [ -0.426507, 1.16045, 0.0342189 ],
      "rotation" : [ 0.190439, -0.977585, -0.085956, 0.0259214 ]
    },
    {
      "name" : "ik_hand_r",
      "translation" : [ -3.8147e-08, 0, -1.71661e-07 ],
      "rotation" : [ 2.5332e-07, -1.86266e-09, 4.47035e-08, -1 ]
    },
    {
      "name" : "ik_hand_l",
      "translation" : [ -0.789995, -0.313811, -0.0711568 ],
      "rotation" : [ -0.0834178, -5.60789e-07, 0.926122, -0.367885 ]
    },
    {
      "name" : "SocketADS",
      "translation" : [ -3.8147e-08, 0, -1.90735e-08 ],
      "rotation" : [ -1.49012e-08, 8.56817e-08, 7.45058e-08, -1 ]
    }
  ],
  "skins" : [
    {
      "inverseBindMatrices" : 0,
      "skeleton" : 1,
      "joints" : [
        1,2,3,4,5,6,7,8,9,10,11,12,13,14,15,16,17,18,19,20,21,22,23,24,25,26,27,28,29,30,31,32,
        33,34,35,36,37,38,39,40,41,42,43,44,45,46,47,48,49,50,51,52,53,54,55,56,57,58,59,60,61,62,63,64,
        65,66,67,68,69,70,71,72,73,74,75,76,77,78,79,80,81,82,83,84,85,86,87,88,89,90,91,92,93,94,95,96,
        97,98,99,100,101,102,103,104,105,106,107
      ]
    }
  ],
  "materials" : [
    {
      "name" : "MI_Meredith_PPM_004",
      "pbrMetallicRoughness" : {
        "baseColorFactor" : [ 0.3, 0.3, 0.3, 1.0 ],
        "metallicFactor" : 0.1,
        "roughnessFactor" : 0.5
      }
    }
  ],
  "meshes" : [
    {
      "primitives" : [
        {
          "attributes" : {
            "POSITION" : 2,
            "NORMAL" : 3,
            "TANGENT" : 4,
            "JOINTS_0" : 5,
            "WEIGHTS_0" : 6,
            "TEXCOORD_0" : 7
          },
          "indices" : 1,
          "material" : 0
        }
      ],
      "name" : "Meredith_PPM_004"
    }
  ],
  "buffers" : [
    {
      "uri" : "Meredith_PPM_004.bin",
      "byteLength" : 156724
    }
  ],
  "bufferViews" : [
    {
      "buffer" : 0,
      "byteOffset" : 0,
      "byteLength" : 6848
    },
    {
      "buffer" : 0,
      "byteOffset" : 6848,
      "byteLength" : 15116
    },
    {
      "buffer" : 0,
      "byteOffset" : 21964,
      "byteLength" : 26952
    },
    {
      "buffer" : 0,
      "byteOffset" : 48916,
      "byteLength" : 26952
    },
    {
      "buffer" : 0,
      "byteOffset" : 75868,
      "byteLength" : 35936
    },
    {
      "buffer" : 0,
      "byteOffset" : 111804,
      "byteLength" : 17968
    },
    {
      "buffer" : 0,
      "byteOffset" : 129772,
      "byteLength" : 8984
    },
    {
      "buffer" : 0,
      "byteOffset" : 138756,
      "byteLength" : 17968
    }
  ],
  "accessors" : [
    {
      "bufferView" : 0,
      "componentType" : 5126,
      "count" : 107,
      "type" : "MAT4"
    },
    {
      "bufferView" : 1,
      "componentType" : 5123,
      "count" : 7557,
      "type" : "SCALAR"
    },
    {
      "bufferView" : 2,
      "min" : [ -0.610162, 0.00026618, -0.272997 ],
      "max" : [ 0.610162, 1.6272, 0.115565 ],
      "componentType" : 5126,
      "count" : 2246,
      "type" : "VEC3"
    },
    {
      "bufferView" : 3,
      "componentType" : 5126,
      "count" : 2246,
      "type" : "VEC3"
    },
    {
      "bufferView" : 4,
      "componentType" : 5126,
      "count" : 2246,
      "type" : "VEC4"
    },
    {
      "bufferView" : 5,
      "componentType" : 5123,
      "count" : 2246,
      "type" : "VEC4"
    },
    {
      "bufferView" : 6,
      "normalized" : true,
      "componentType" : 5121,
      "count" : 2246,
      "type" : "VEC4"
    },
    {
      "bufferView" : 7,
      "componentType" : 5126,
      "count" : 2246,
      "type" : "VEC2"
    }
  ]
}
