{
  "asset" : {
    "generator" : "UE Viewer (umodel) build 1579 based",
    "version" : "2.0"
  },
  "scene" : 0,
  "scenes" : [
    {
      "nodes" : [ 0 ]
    }
  ],
  "nodes" : [
    {
      "name" : "SK_Weap_G28_102_Sight_Mesh",
      "mesh" : 0,
      "skin" : 0,
      "children" : [ 1 ]
    },
    {
      "name" : "Root",
      "translation" : [ 0, 0, 0 ],
      "rotation" : [ -0, -0, -0, 1 ]
    }
  ],
  "skins" : [
    {
      "inverseBindMatrices" : 0,
      "skeleton" : 1,
      "joints" : [
        1
      ]
    }
  ],
  "materials" : [
    {
      "name" : "MI_Weap_G28_02_102",
      "pbrMetallicRoughness" : {
        "baseColorFactor" : [ 0.3, 0.3, 0.3, 1.0 ],
        "metallicFactor" : 0.1,
        "roughnessFactor" : 0.5
      }
    },
    {
      "name" : "MI_Weap_G28_03_102",
      "pbrMetallicRoughness" : {
        "baseColorFactor" : [ 0.9, 0.3, 0.3, 1.0 ],
        "metallicFactor" : 0.1,
        "roughnessFactor" : 0.5
      }
    }
  ],
  "meshes" : [
    {
      "primitives" : [
        {
          "attributes" : {
            "POSITION" : 2,
            "NORMAL" : 3,
            "TANGENT" : 4,
            "JOINTS_0" : 5,
            "WEIGHTS_0" : 6,
            "TEXCOORD_0" : 7
          },
          "indices" : 1,
          "material" : 0
        },
        {
          "attributes" : {
            "POSITION" : 9,
            "NORMAL" : 10,
            "TANGENT" : 11,
            "JOINTS_0" : 12,
            "WEIGHTS_0" : 13,
            "TEXCOORD_0" : 14
          },
          "indices" : 8,
          "material" : 1
        }
      ],
      "name" : "SK_Weap_G28_102_Sight_Mesh"
    }
  ],
  "buffers" : [
    {
      "uri" : "SK_Weap_G28_102_Sight_Mesh.bin",
      "byteLength" : 260356
    }
  ],
  "bufferViews" : [
    {
      "buffer" : 0,
      "byteOffset" : 0,
      "byteLength" : 64
    },
    {
      "buffer" : 0,
      "byteOffset" : 64,
      "byteLength" : 24060
    },
    {
      "buffer" : 0,
      "byteOffset" : 24124,
      "byteLength" : 44844
    },
    {
      "buffer" : 0,
      "byteOffset" : 68968,
      "byteLength" : 44844
    },
    {
      "buffer" : 0,
      "byteOffset" : 113812,
      "byteLength" : 59792
    },
    {
      "buffer" : 0,
      "byteOffset" : 173604,
      "byteLength" : 29896
    },
    {
      "buffer" : 0,
      "byteOffset" : 203500,
      "byteLength" : 14948
    },
    {
      "buffer" : 0,
      "byteOffset" : 218448,
      "byteLength" : 29896
    },
    {
      "buffer" : 0,
      "byteOffset" : 248344,
      "byteLength" : 1872
    },
    {
      "buffer" : 0,
      "byteOffset" : 250216,
      "byteLength" : 2028
    },
    {
      "buffer" : 0,
      "byteOffset" : 252244,
      "byteLength" : 2028
    },
    {
      "buffer" : 0,
      "byteOffset" : 254272,
      "byteLength" : 2704
    },
    {
      "buffer" : 0,
      "byteOffset" : 256976,
      "byteLength" : 1352
    },
    {
      "buffer" : 0,
      "byteOffset" : 258328,
      "byteLength" : 676
    },
    {
      "buffer" : 0,
      "byteOffset" : 259004,
      "byteLength" : 1352
    }
  ],
  "accessors" : [
    {
      "bufferView" : 0,
      "componentType" : 5126,
      "count" : 1,
      "type" : "MAT4"
    },
    {
      "bufferView" : 1,
      "componentType" : 5123,
      "count" : 12030,
      "type" : "SCALAR"
    },
    {
      "bufferView" : 2,
      "min" : [ -0.0363156, -0.0473269, -0.124795 ],
      "max" : [ 0.0363156, 0.0676927, 0.0633529 ],
      "componentType" : 5126,
      "count" : 3737,
      "type" : "VEC3"
    },
    {
      "bufferView" : 3,
      "componentType" : 5126,
      "count" : 3737,
      "type" : "VEC3"
    },
    {
      "bufferView" : 4,
      "componentType" : 5126,
      "count" : 3737,
      "type" : "VEC4"
    },
    {
      "bufferView" : 5,
      "componentType" : 5123,
      "count" : 3737,
      "type" : "VEC4"
    },
    {
      "bufferView" : 6,
      "normalized" : true,
      "componentType" : 5121,
      "count" : 3737,
      "type" : "VEC4"
    },
    {
      "bufferView" : 7,
      "componentType" : 5126,
      "count" : 3737,
      "type" : "VEC2"
    },
    {
      "bufferView" : 8,
      "componentType" : 5123,
      "count" : 936,
      "type" : "SCALAR"
    },
    {
      "bufferView" : 9,
      "min" : [ -0.022616, 0.0224622, -0.01124 ],
      "max" : [ 0.022616, 0.0522692, 0.0317122 ],
      "componentType" : 5126,
      "count" : 169,
      "type" : "VEC3"
    },
    {
      "bufferView" : 10,
      "componentType" : 5126,
      "count" : 169,
      "type" : "VEC3"
    },
    {
      "bufferView" : 11,
      "componentType" : 5126,
      "count" : 169,
      "type" : "VEC4"
    },
    {
      "bufferView" : 12,
      "componentType" : 5123,
      "count" : 169,
      "type" : "VEC4"
    },
    {
      "bufferView" : 13,
      "normalized" : true,
      "componentType" : 5121,
      "count" : 169,
      "type" : "VEC4"
    },
    {
      "bufferView" : 14,
      "componentType" : 5126,
      "count" : 169,
      "type" : "VEC2"
    }
  ]
}
