{
  "asset" : {
    "generator" : "UE Viewer (umodel) build 1579 based",
    "version" : "2.0"
  },
  "scene" : 0,
  "scenes" : [
    {
      "nodes" : [ 0 ]
    }
  ],
  "nodes" : [
    {
      "name" : "LuoXuan_WZ_009",
      "mesh" : 0
    }
  ],
  "materials" : [
    {
      "name" : "WorldGridMaterial",
      "pbrMetallicRoughness" : {
        "baseColorFactor" : [ 0.3, 0.3, 0.3, 1.0 ],
        "metallicFactor" : 0.1,
        "roughnessFactor" : 0.5
      }
    }
  ],
  "meshes" : [
    {
      "primitives" : [
        {
          "attributes" : {
            "POSITION" : 1,
            "NORMAL" : 2,
            "TANGENT" : 3,
            "TEXCOORD_0" : 4
          },
          "indices" : 0,
          "material" : 0
        }
      ],
      "name" : "LuoXuan_WZ_009"
    }
  ],
  "buffers" : [
    {
      "uri" : "LuoXuan_WZ_009.bin",
      "byteLength" : 8880
    }
  ],
  "bufferViews" : [
    {
      "buffer" : 0,
      "byteOffset" : 0,
      "byteLength" : 1440
    },
    {
      "buffer" : 0,
      "byteOffset" : 1440,
      "byteLength" : 1860
    },
    {
      "buffer" : 0,
      "byteOffset" : 3300,
      "byteLength" : 1860
    },
    {
      "buffer" : 0,
      "byteOffset" : 5160,
      "byteLength" : 2480
    },
    {
      "buffer" : 0,
      "byteOffset" : 7640,
      "byteLength" : 1240
    }
  ],
  "accessors" : [
    {
      "bufferView" : 0,
      "componentType" : 5123,
      "count" : 720,
      "type" : "SCALAR"
    },
    {
      "bufferView" : 1,
      "min" : [ -0.405477, -0.37973, -0.377649 ],
      "max" : [ 8.96071e-10, 0.37973, 0.377649 ],
      "componentType" : 5126,
      "count" : 155,
      "type" : "VEC3"
    },
    {
      "bufferView" : 2,
      "componentType" : 5126,
      "count" : 155,
      "type" : "VEC3"
    },
    {
      "bufferView" : 3,
      "componentType" : 5126,
      "count" : 155,
      "type" : "VEC4"
    },
    {
      "bufferView" : 4,
      "componentType" : 5126,
      "count" : 155,
      "type" : "VEC2"
    }
  ]
}
