{
  "asset" : {
    "generator" : "UE Viewer (umodel) build 1579 based",
    "version" : "2.0"
  },
  "scene" : 0,
  "scenes" : [
    {
      "nodes" : [ 0 ]
    }
  ],
  "nodes" : [
    {
      "name" : "S_babuluo_NB_001",
      "mesh" : 0
    }
  ],
  "materials" : [
    {
      "name" : "WorldGridMaterial",
      "pbrMetallicRoughness" : {
        "baseColorFactor" : [ 0.3, 0.3, 0.3, 1.0 ],
        "metallicFactor" : 0.1,
        "roughnessFactor" : 0.5
      }
    }
  ],
  "meshes" : [
    {
      "primitives" : [
        {
          "attributes" : {
            "POSITION" : 1,
            "NORMAL" : 2,
            "TANGENT" : 3,
            "TEXCOORD_0" : 4,
            "TEXCOORD_1" : 5,
            "TEXCOORD_2" : 6,
            "TEXCOORD_3" : 7
          },
          "indices" : 0,
          "material" : 0
        }
      ],
      "name" : "S_babuluo_NB_001"
    }
  ],
  "buffers" : [
    {
      "uri" : "S_babuluo_NB_001.bin",
      "byteLength" : 256692
    }
  ],
  "bufferViews" : [
    {
      "buffer" : 0,
      "byteOffset" : 0,
      "byteLength" : 11604
    },
    {
      "buffer" : 0,
      "byteOffset" : 11604,
      "byteLength" : 40848
    },
    {
      "buffer" : 0,
      "byteOffset" : 52452,
      "byteLength" : 40848
    },
    {
      "buffer" : 0,
      "byteOffset" : 93300,
      "byteLength" : 54464
    },
    {
      "buffer" : 0,
      "byteOffset" : 147764,
      "byteLength" : 27232
    },
    {
      "buffer" : 0,
      "byteOffset" : 174996,
      "byteLength" : 27232
    },
    {
      "buffer" : 0,
      "byteOffset" : 202228,
      "byteLength" : 27232
    },
    {
      "buffer" : 0,
      "byteOffset" : 229460,
      "byteLength" : 27232
    }
  ],
  "accessors" : [
    {
      "bufferView" : 0,
      "componentType" : 5123,
      "count" : 5802,
      "type" : "SCALAR"
    },
    {
      "bufferView" : 1,
      "min" : [ -0.067069, 0.000108, -0.101709 ],
      "max" : [ 0.078846, 0.296933, 0.100531 ],
      "componentType" : 5126,
      "count" : 3404,
      "type" : "VEC3"
    },
    {
      "bufferView" : 2,
      "componentType" : 5126,
      "count" : 3404,
      "type" : "VEC3"
    },
    {
      "bufferView" : 3,
      "componentType" : 5126,
      "count" : 3404,
      "type" : "VEC4"
    },
    {
      "bufferView" : 4,
      "componentType" : 5126,
      "count" : 3404,
      "type" : "VEC2"
    },
    {
      "bufferView" : 5,
      "componentType" : 5126,
      "count" : 3404,
      "type" : "VEC2"
    },
    {
      "bufferView" : 6,
      "componentType" : 5126,
      "count" : 3404,
      "type" : "VEC2"
    },
    {
      "bufferView" : 7,
      "componentType" : 5126,
      "count" : 3404,
      "type" : "VEC2"
    }
  ]
}
