{
  "asset" : {
    "generator" : "UE Viewer (umodel) build 1579 based",
    "version" : "2.0"
  },
  "scene" : 0,
  "scenes" : [
    {
      "nodes" : [ 0 ]
    }
  ],
  "nodes" : [
    {
      "name" : "S_Babuluo_LKL_005",
      "mesh" : 0
    }
  ],
  "materials" : [
    {
      "name" : "dummy_material_0",
      "pbrMetallicRoughness" : {
        "baseColorFactor" : [ 0.3, 0.3, 0.3, 1.0 ],
        "metallicFactor" : 0.1,
        "roughnessFactor" : 0.5
      }
    }
  ],
  "meshes" : [
    {
      "primitives" : [
        {
          "attributes" : {
            "POSITION" : 1,
            "NORMAL" : 2,
            "TANGENT" : 3,
            "TEXCOORD_0" : 4,
            "TEXCOORD_1" : 5,
            "TEXCOORD_2" : 6,
            "TEXCOORD_3" : 7
          },
          "indices" : 0,
          "material" : 0
        }
      ],
      "name" : "S_Babuluo_LKL_005"
    }
  ],
  "buffers" : [
    {
      "uri" : "S_Babuluo_LKL_005.bin",
      "byteLength" : 94188
    }
  ],
  "bufferViews" : [
    {
      "buffer" : 0,
      "byteOffset" : 0,
      "byteLength" : 3612
    },
    {
      "buffer" : 0,
      "byteOffset" : 3612,
      "byteLength" : 15096
    },
    {
      "buffer" : 0,
      "byteOffset" : 18708,
      "byteLength" : 15096
    },
    {
      "buffer" : 0,
      "byteOffset" : 33804,
      "byteLength" : 20128
    },
    {
      "buffer" : 0,
      "byteOffset" : 53932,
      "byteLength" : 10064
    },
    {
      "buffer" : 0,
      "byteOffset" : 63996,
      "byteLength" : 10064
    },
    {
      "buffer" : 0,
      "byteOffset" : 74060,
      "byteLength" : 10064
    },
    {
      "buffer" : 0,
      "byteOffset" : 84124,
      "byteLength" : 10064
    }
  ],
  "accessors" : [
    {
      "bufferView" : 0,
      "componentType" : 5123,
      "count" : 1806,
      "type" : "SCALAR"
    },
    {
      "bufferView" : 1,
      "min" : [ -0.064566, 0.000304, -0.0940055 ],
      "max" : [ -0.001054, 0.281863, 0.0206835 ],
      "componentType" : 5126,
      "count" : 1258,
      "type" : "VEC3"
    },
    {
      "bufferView" : 2,
      "componentType" : 5126,
      "count" : 1258,
      "type" : "VEC3"
    },
    {
      "bufferView" : 3,
      "componentType" : 5126,
      "count" : 1258,
      "type" : "VEC4"
    },
    {
      "bufferView" : 4,
      "componentType" : 5126,
      "count" : 1258,
      "type" : "VEC2"
    },
    {
      "bufferView" : 5,
      "componentType" : 5126,
      "count" : 1258,
      "type" : "VEC2"
    },
    {
      "bufferView" : 6,
      "componentType" : 5126,
      "count" : 1258,
      "type" : "VEC2"
    },
    {
      "bufferView" : 7,
      "componentType" : 5126,
      "count" : 1258,
      "type" : "VEC2"
    }
  ]
}
