{
  "asset" : {
    "generator" : "UE Viewer (umodel) build 1579 based",
    "version" : "2.0"
  },
  "scene" : 0,
  "scenes" : [
    {
      "nodes" : [ 0 ]
    }
  ],
  "nodes" : [
    {
      "name" : "S_Circle_003",
      "mesh" : 0
    }
  ],
  "materials" : [
    {
      "name" : "WorldGridMaterial",
      "pbrMetallicRoughness" : {
        "baseColorFactor" : [ 0.3, 0.3, 0.3, 1.0 ],
        "metallicFactor" : 0.1,
        "roughnessFactor" : 0.5
      }
    }
  ],
  "meshes" : [
    {
      "primitives" : [
        {
          "attributes" : {
            "POSITION" : 1,
            "NORMAL" : 2,
            "TANGENT" : 3,
            "TEXCOORD_0" : 4,
            "TEXCOORD_1" : 5
          },
          "indices" : 0,
          "material" : 0
        }
      ],
      "name" : "S_Circle_003"
    }
  ],
  "buffers" : [
    {
      "uri" : "S_Circle_003.bin",
      "byteLength" : 18952
    }
  ],
  "bufferViews" : [
    {
      "buffer" : 0,
      "byteOffset" : 0,
      "byteLength" : 2880
    },
    {
      "buffer" : 0,
      "byteOffset" : 2880,
      "byteLength" : 3444
    },
    {
      "buffer" : 0,
      "byteOffset" : 6324,
      "byteLength" : 3444
    },
    {
      "buffer" : 0,
      "byteOffset" : 9768,
      "byteLength" : 4592
    },
    {
      "buffer" : 0,
      "byteOffset" : 14360,
      "byteLength" : 2296
    },
    {
      "buffer" : 0,
      "byteOffset" : 16656,
      "byteLength" : 2296
    }
  ],
  "accessors" : [
    {
      "bufferView" : 0,
      "componentType" : 5123,
      "count" : 1440,
      "type" : "SCALAR"
    },
    {
      "bufferView" : 1,
      "min" : [ 0, -0.987764, -0.987765 ],
      "max" : [ 0, 0.987764, 0.987764 ],
      "componentType" : 5126,
      "count" : 287,
      "type" : "VEC3"
    },
    {
      "bufferView" : 2,
      "componentType" : 5126,
      "count" : 287,
      "type" : "VEC3"
    },
    {
      "bufferView" : 3,
      "componentType" : 5126,
      "count" : 287,
      "type" : "VEC4"
    },
    {
      "bufferView" : 4,
      "componentType" : 5126,
      "count" : 287,
      "type" : "VEC2"
    },
    {
      "bufferView" : 5,
      "componentType" : 5126,
      "count" : 287,
      "type" : "VEC2"
    }
  ]
}
