{
  "asset" : {
    "generator" : "UE Viewer (umodel) build 1579 based",
    "version" : "2.0"
  },
  "scene" : 0,
  "scenes" : [
    {
      "nodes" : [ 0 ]
    }
  ],
  "nodes" : [
    {
      "name" : "S_cone_5012",
      "mesh" : 0
    }
  ],
  "materials" : [
    {
      "name" : "WorldGridMaterial",
      "pbrMetallicRoughness" : {
        "baseColorFactor" : [ 0.3, 0.3, 0.3, 1.0 ],
        "metallicFactor" : 0.1,
        "roughnessFactor" : 0.5
      }
    }
  ],
  "meshes" : [
    {
      "primitives" : [
        {
          "attributes" : {
            "POSITION" : 1,
            "NORMAL" : 2,
            "TANGENT" : 3,
            "TEXCOORD_0" : 4
          },
          "indices" : 0,
          "material" : 0
        }
      ],
      "name" : "S_cone_5012"
    }
  ],
  "buffers" : [
    {
      "uri" : "S_cone_5012.bin",
      "byteLength" : 44136
    }
  ],
  "bufferViews" : [
    {
      "buffer" : 0,
      "byteOffset" : 0,
      "byteLength" : 7560
    },
    {
      "buffer" : 0,
      "byteOffset" : 7560,
      "byteLength" : 9144
    },
    {
      "buffer" : 0,
      "byteOffset" : 16704,
      "byteLength" : 9144
    },
    {
      "buffer" : 0,
      "byteOffset" : 25848,
      "byteLength" : 12192
    },
    {
      "buffer" : 0,
      "byteOffset" : 38040,
      "byteLength" : 6096
    }
  ],
  "accessors" : [
    {
      "bufferView" : 0,
      "componentType" : 5123,
      "count" : 3780,
      "type" : "SCALAR"
    },
    {
      "bufferView" : 1,
      "min" : [ -0.272967, -0.262032, -0.279097 ],
      "max" : [ 0.291641, 0.26815, 0.283975 ],
      "componentType" : 5126,
      "count" : 762,
      "type" : "VEC3"
    },
    {
      "bufferView" : 2,
      "componentType" : 5126,
      "count" : 762,
      "type" : "VEC3"
    },
    {
      "bufferView" : 3,
      "componentType" : 5126,
      "count" : 762,
      "type" : "VEC4"
    },
    {
      "bufferView" : 4,
      "componentType" : 5126,
      "count" : 762,
      "type" : "VEC2"
    }
  ]
}
