{
  "asset" : {
    "generator" : "UE Viewer (umodel) build 1579 based",
    "version" : "2.0"
  },
  "scene" : 0,
  "scenes" : [
    {
      "nodes" : [ 0 ]
    }
  ],
  "nodes" : [
    {
      "name" : "S_cone_5101_12_6",
      "mesh" : 0
    }
  ],
  "materials" : [
    {
      "name" : "WorldGridMaterial",
      "pbrMetallicRoughness" : {
        "baseColorFactor" : [ 0.3, 0.3, 0.3, 1.0 ],
        "metallicFactor" : 0.1,
        "roughnessFactor" : 0.5
      }
    }
  ],
  "meshes" : [
    {
      "primitives" : [
        {
          "attributes" : {
            "POSITION" : 1,
            "NORMAL" : 2,
            "TANGENT" : 3,
            "TEXCOORD_0" : 4
          },
          "indices" : 0,
          "material" : 0
        }
      ],
      "name" : "S_cone_5101_12_6"
    }
  ],
  "buffers" : [
    {
      "uri" : "S_cone_5101_12_6.bin",
      "byteLength" : 69648
    }
  ],
  "bufferViews" : [
    {
      "buffer" : 0,
      "byteOffset" : 0,
      "byteLength" : 13248
    },
    {
      "buffer" : 0,
      "byteOffset" : 13248,
      "byteLength" : 14100
    },
    {
      "buffer" : 0,
      "byteOffset" : 27348,
      "byteLength" : 14100
    },
    {
      "buffer" : 0,
      "byteOffset" : 41448,
      "byteLength" : 18800
    },
    {
      "buffer" : 0,
      "byteOffset" : 60248,
      "byteLength" : 9400
    }
  ],
  "accessors" : [
    {
      "bufferView" : 0,
      "componentType" : 5123,
      "count" : 6624,
      "type" : "SCALAR"
    },
    {
      "bufferView" : 1,
      "min" : [ -0.551418, -2.15459e-17, -0.522691 ],
      "max" : [ 0.551418, 1.64458, 0.522691 ],
      "componentType" : 5126,
      "count" : 1175,
      "type" : "VEC3"
    },
    {
      "bufferView" : 2,
      "componentType" : 5126,
      "count" : 1175,
      "type" : "VEC3"
    },
    {
      "bufferView" : 3,
      "componentType" : 5126,
      "count" : 1175,
      "type" : "VEC4"
    },
    {
      "bufferView" : 4,
      "componentType" : 5126,
      "count" : 1175,
      "type" : "VEC2"
    }
  ]
}
