{
  "asset" : {
    "generator" : "UE Viewer (umodel) build 1579 based",
    "version" : "2.0"
  },
  "scene" : 0,
  "scenes" : [
    {
      "nodes" : [ 0 ]
    }
  ],
  "nodes" : [
    {
      "name" : "S_Coil_003",
      "mesh" : 0
    }
  ],
  "materials" : [
    {
      "name" : "WorldGridMaterial",
      "pbrMetallicRoughness" : {
        "baseColorFactor" : [ 0.3, 0.3, 0.3, 1.0 ],
        "metallicFactor" : 0.1,
        "roughnessFactor" : 0.5
      }
    }
  ],
  "meshes" : [
    {
      "primitives" : [
        {
          "attributes" : {
            "POSITION" : 1,
            "NORMAL" : 2,
            "TANGENT" : 3,
            "TEXCOORD_0" : 4,
            "TEXCOORD_1" : 5
          },
          "indices" : 0,
          "material" : 0
        }
      ],
      "name" : "S_Coil_003"
    }
  ],
  "buffers" : [
    {
      "uri" : "S_Coil_003.bin",
      "byteLength" : 10236
    }
  ],
  "bufferViews" : [
    {
      "buffer" : 0,
      "byteOffset" : 0,
      "byteLength" : 1500
    },
    {
      "buffer" : 0,
      "byteOffset" : 1500,
      "byteLength" : 1872
    },
    {
      "buffer" : 0,
      "byteOffset" : 3372,
      "byteLength" : 1872
    },
    {
      "buffer" : 0,
      "byteOffset" : 5244,
      "byteLength" : 2496
    },
    {
      "buffer" : 0,
      "byteOffset" : 7740,
      "byteLength" : 1248
    },
    {
      "buffer" : 0,
      "byteOffset" : 8988,
      "byteLength" : 1248
    }
  ],
  "accessors" : [
    {
      "bufferView" : 0,
      "componentType" : 5123,
      "count" : 750,
      "type" : "SCALAR"
    },
    {
      "bufferView" : 1,
      "min" : [ -3.15904, -2.18557e-07, -3.16529 ],
      "max" : [ 3.15904, 2.18557e-07, 3.16529 ],
      "componentType" : 5126,
      "count" : 156,
      "type" : "VEC3"
    },
    {
      "bufferView" : 2,
      "componentType" : 5126,
      "count" : 156,
      "type" : "VEC3"
    },
    {
      "bufferView" : 3,
      "componentType" : 5126,
      "count" : 156,
      "type" : "VEC4"
    },
    {
      "bufferView" : 4,
      "componentType" : 5126,
      "count" : 156,
      "type" : "VEC2"
    },
    {
      "bufferView" : 5,
      "componentType" : 5126,
      "count" : 156,
      "type" : "VEC2"
    }
  ]
}
