{
  "asset" : {
    "generator" : "UE Viewer (umodel) build 1579 based",
    "version" : "2.0"
  },
  "scene" : 0,
  "scenes" : [
    {
      "nodes" : [ 0 ]
    }
  ],
  "nodes" : [
    {
      "name" : "S_cone_2001",
      "mesh" : 0
    }
  ],
  "materials" : [
    {
      "name" : "WorldGridMaterial",
      "pbrMetallicRoughness" : {
        "baseColorFactor" : [ 0.3, 0.3, 0.3, 1.0 ],
        "metallicFactor" : 0.1,
        "roughnessFactor" : 0.5
      }
    }
  ],
  "meshes" : [
    {
      "primitives" : [
        {
          "attributes" : {
            "POSITION" : 1,
            "NORMAL" : 2,
            "TANGENT" : 3,
            "TEXCOORD_0" : 4
          },
          "indices" : 0,
          "material" : 0
        }
      ],
      "name" : "S_cone_2001"
    }
  ],
  "buffers" : [
    {
      "uri" : "S_cone_2001.bin",
      "byteLength" : 5508
    }
  ],
  "bufferViews" : [
    {
      "buffer" : 0,
      "byteOffset" : 0,
      "byteLength" : 900
    },
    {
      "buffer" : 0,
      "byteOffset" : 900,
      "byteLength" : 1152
    },
    {
      "buffer" : 0,
      "byteOffset" : 2052,
      "byteLength" : 1152
    },
    {
      "buffer" : 0,
      "byteOffset" : 3204,
      "byteLength" : 1536
    },
    {
      "buffer" : 0,
      "byteOffset" : 4740,
      "byteLength" : 768
    }
  ],
  "accessors" : [
    {
      "bufferView" : 0,
      "componentType" : 5123,
      "count" : 450,
      "type" : "SCALAR"
    },
    {
      "bufferView" : 1,
      "min" : [ -0.331838, -1.90448e-17, -0.322354 ],
      "max" : [ 0.290169, 0.0845051, 0.332952 ],
      "componentType" : 5126,
      "count" : 96,
      "type" : "VEC3"
    },
    {
      "bufferView" : 2,
      "componentType" : 5126,
      "count" : 96,
      "type" : "VEC3"
    },
    {
      "bufferView" : 3,
      "componentType" : 5126,
      "count" : 96,
      "type" : "VEC4"
    },
    {
      "bufferView" : 4,
      "componentType" : 5126,
      "count" : 96,
      "type" : "VEC2"
    }
  ]
}
