{
  "asset" : {
    "generator" : "UE Viewer (umodel) build 1579 based",
    "version" : "2.0"
  },
  "scene" : 0,
  "scenes" : [
    {
      "nodes" : [ 0 ]
    }
  ],
  "nodes" : [
    {
      "name" : "S_Cylinder_MM_2",
      "mesh" : 0
    }
  ],
  "materials" : [
    {
      "name" : "WorldGridMaterial",
      "pbrMetallicRoughness" : {
        "baseColorFactor" : [ 0.3, 0.3, 0.3, 1.0 ],
        "metallicFactor" : 0.1,
        "roughnessFactor" : 0.5
      }
    }
  ],
  "meshes" : [
    {
      "primitives" : [
        {
          "attributes" : {
            "POSITION" : 1,
            "NORMAL" : 2,
            "TANGENT" : 3,
            "TEXCOORD_0" : 4
          },
          "indices" : 0,
          "material" : 0
        }
      ],
      "name" : "S_Cylinder_MM_2"
    }
  ],
  "buffers" : [
    {
      "uri" : "S_Cylinder_MM_2.bin",
      "byteLength" : 14208
    }
  ],
  "bufferViews" : [
    {
      "buffer" : 0,
      "byteOffset" : 0,
      "byteLength" : 2400
    },
    {
      "buffer" : 0,
      "byteOffset" : 2400,
      "byteLength" : 2952
    },
    {
      "buffer" : 0,
      "byteOffset" : 5352,
      "byteLength" : 2952
    },
    {
      "buffer" : 0,
      "byteOffset" : 8304,
      "byteLength" : 3936
    },
    {
      "buffer" : 0,
      "byteOffset" : 12240,
      "byteLength" : 1968
    }
  ],
  "accessors" : [
    {
      "bufferView" : 0,
      "componentType" : 5123,
      "count" : 1200,
      "type" : "SCALAR"
    },
    {
      "bufferView" : 1,
      "min" : [ -0.025, -0.1, -0.1 ],
      "max" : [ 0.025, 0.1, 0.1 ],
      "componentType" : 5126,
      "count" : 246,
      "type" : "VEC3"
    },
    {
      "bufferView" : 2,
      "componentType" : 5126,
      "count" : 246,
      "type" : "VEC3"
    },
    {
      "bufferView" : 3,
      "componentType" : 5126,
      "count" : 246,
      "type" : "VEC4"
    },
    {
      "bufferView" : 4,
      "componentType" : 5126,
      "count" : 246,
      "type" : "VEC2"
    }
  ]
}
