{
  "asset" : {
    "generator" : "UE Viewer (umodel) build 1579 based",
    "version" : "2.0"
  },
  "scene" : 0,
  "scenes" : [
    {
      "nodes" : [ 0 ]
    }
  ],
  "nodes" : [
    {
      "name" : "S_Cylinder_8002",
      "mesh" : 0
    }
  ],
  "materials" : [
    {
      "name" : "WorldGridMaterial",
      "pbrMetallicRoughness" : {
        "baseColorFactor" : [ 0.3, 0.3, 0.3, 1.0 ],
        "metallicFactor" : 0.1,
        "roughnessFactor" : 0.5
      }
    }
  ],
  "meshes" : [
    {
      "primitives" : [
        {
          "attributes" : {
            "POSITION" : 1,
            "NORMAL" : 2,
            "TANGENT" : 3,
            "COLOR_0" : 4,
            "TEXCOORD_0" : 5
          },
          "indices" : 0,
          "material" : 0
        }
      ],
      "name" : "S_Cylinder_8002"
    }
  ],
  "buffers" : [
    {
      "uri" : "S_Cylinder_8002.bin",
      "byteLength" : 7356
    }
  ],
  "bufferViews" : [
    {
      "buffer" : 0,
      "byteOffset" : 0,
      "byteLength" : 960
    },
    {
      "buffer" : 0,
      "byteOffset" : 960,
      "byteLength" : 1476
    },
    {
      "buffer" : 0,
      "byteOffset" : 2436,
      "byteLength" : 1476
    },
    {
      "buffer" : 0,
      "byteOffset" : 3912,
      "byteLength" : 1968
    },
    {
      "buffer" : 0,
      "byteOffset" : 5880,
      "byteLength" : 492
    },
    {
      "buffer" : 0,
      "byteOffset" : 6372,
      "byteLength" : 984
    }
  ],
  "accessors" : [
    {
      "bufferView" : 0,
      "componentType" : 5123,
      "count" : 480,
      "type" : "SCALAR"
    },
    {
      "bufferView" : 1,
      "min" : [ -0.05, -0.05, -0.05 ],
      "max" : [ 0.05, 0.05, 0.05 ],
      "componentType" : 5126,
      "count" : 123,
      "type" : "VEC3"
    },
    {
      "bufferView" : 2,
      "componentType" : 5126,
      "count" : 123,
      "type" : "VEC3"
    },
    {
      "bufferView" : 3,
      "componentType" : 5126,
      "count" : 123,
      "type" : "VEC4"
    },
    {
      "bufferView" : 4,
      "normalized" : true,
      "componentType" : 5121,
      "count" : 123,
      "type" : "VEC4"
    },
    {
      "bufferView" : 5,
      "componentType" : 5126,
      "count" : 123,
      "type" : "VEC2"
    }
  ]
}
