{
  "asset" : {
    "generator" : "UE Viewer (umodel) build 1579 based",
    "version" : "2.0"
  },
  "scene" : 0,
  "scenes" : [
    {
      "nodes" : [ 0 ]
    }
  ],
  "nodes" : [
    {
      "name" : "S_Cylinder_8001",
      "mesh" : 0
    }
  ],
  "materials" : [
    {
      "name" : "WorldGridMaterial",
      "pbrMetallicRoughness" : {
        "baseColorFactor" : [ 0.3, 0.3, 0.3, 1.0 ],
        "metallicFactor" : 0.1,
        "roughnessFactor" : 0.5
      }
    }
  ],
  "meshes" : [
    {
      "primitives" : [
        {
          "attributes" : {
            "POSITION" : 1,
            "NORMAL" : 2,
            "TANGENT" : 3,
            "COLOR_0" : 4,
            "TEXCOORD_0" : 5
          },
          "indices" : 0,
          "material" : 0
        }
      ],
      "name" : "S_Cylinder_8001"
    }
  ],
  "buffers" : [
    {
      "uri" : "S_Cylinder_8001.bin",
      "byteLength" : 43924
    }
  ],
  "bufferViews" : [
    {
      "buffer" : 0,
      "byteOffset" : 0,
      "byteLength" : 7680
    },
    {
      "buffer" : 0,
      "byteOffset" : 7680,
      "byteLength" : 8364
    },
    {
      "buffer" : 0,
      "byteOffset" : 16044,
      "byteLength" : 8364
    },
    {
      "buffer" : 0,
      "byteOffset" : 24408,
      "byteLength" : 11152
    },
    {
      "buffer" : 0,
      "byteOffset" : 35560,
      "byteLength" : 2788
    },
    {
      "buffer" : 0,
      "byteOffset" : 38348,
      "byteLength" : 5576
    }
  ],
  "accessors" : [
    {
      "bufferView" : 0,
      "componentType" : 5123,
      "count" : 3840,
      "type" : "SCALAR"
    },
    {
      "bufferView" : 1,
      "min" : [ -0.05, -0.05, -0.05 ],
      "max" : [ 0.05, 0.05, 0.05 ],
      "componentType" : 5126,
      "count" : 697,
      "type" : "VEC3"
    },
    {
      "bufferView" : 2,
      "componentType" : 5126,
      "count" : 697,
      "type" : "VEC3"
    },
    {
      "bufferView" : 3,
      "componentType" : 5126,
      "count" : 697,
      "type" : "VEC4"
    },
    {
      "bufferView" : 4,
      "normalized" : true,
      "componentType" : 5121,
      "count" : 697,
      "type" : "VEC4"
    },
    {
      "bufferView" : 5,
      "componentType" : 5126,
      "count" : 697,
      "type" : "VEC2"
    }
  ]
}
