{
  "asset" : {
    "generator" : "UE Viewer (umodel) build 1579 based",
    "version" : "2.0"
  },
  "scene" : 0,
  "scenes" : [
    {
      "nodes" : [ 0 ]
    }
  ],
  "nodes" : [
    {
      "name" : "S_Cylinder_NB_001",
      "mesh" : 0
    }
  ],
  "materials" : [
    {
      "name" : "dummy_material_0",
      "pbrMetallicRoughness" : {
        "baseColorFactor" : [ 0.3, 0.3, 0.3, 1.0 ],
        "metallicFactor" : 0.1,
        "roughnessFactor" : 0.5
      }
    }
  ],
  "meshes" : [
    {
      "primitives" : [
        {
          "attributes" : {
            "POSITION" : 1,
            "NORMAL" : 2,
            "TANGENT" : 3,
            "COLOR_0" : 4,
            "TEXCOORD_0" : 5
          },
          "indices" : 0,
          "material" : 0
        }
      ],
      "name" : "S_Cylinder_NB_001"
    }
  ],
  "buffers" : [
    {
      "uri" : "S_Cylinder_NB_001.bin",
      "byteLength" : 7528
    }
  ],
  "bufferViews" : [
    {
      "buffer" : 0,
      "byteOffset" : 0,
      "byteLength" : 1080
    },
    {
      "buffer" : 0,
      "byteOffset" : 1080,
      "byteLength" : 1488
    },
    {
      "buffer" : 0,
      "byteOffset" : 2568,
      "byteLength" : 1488
    },
    {
      "buffer" : 0,
      "byteOffset" : 4056,
      "byteLength" : 1984
    },
    {
      "buffer" : 0,
      "byteOffset" : 6040,
      "byteLength" : 496
    },
    {
      "buffer" : 0,
      "byteOffset" : 6536,
      "byteLength" : 992
    }
  ],
  "accessors" : [
    {
      "bufferView" : 0,
      "componentType" : 5123,
      "count" : 540,
      "type" : "SCALAR"
    },
    {
      "bufferView" : 1,
      "min" : [ -0.05, -0.05, -0.0497261 ],
      "max" : [ 0.05, 0.05, 0.0497261 ],
      "componentType" : 5126,
      "count" : 124,
      "type" : "VEC3"
    },
    {
      "bufferView" : 2,
      "componentType" : 5126,
      "count" : 124,
      "type" : "VEC3"
    },
    {
      "bufferView" : 3,
      "componentType" : 5126,
      "count" : 124,
      "type" : "VEC4"
    },
    {
      "bufferView" : 4,
      "normalized" : true,
      "componentType" : 5121,
      "count" : 124,
      "type" : "VEC4"
    },
    {
      "bufferView" : 5,
      "componentType" : 5126,
      "count" : 124,
      "type" : "VEC2"
    }
  ]
}
