{
  "asset" : {
    "generator" : "UE Viewer (umodel) build 1579 based",
    "version" : "2.0"
  },
  "scene" : 0,
  "scenes" : [
    {
      "nodes" : [ 0 ]
    }
  ],
  "nodes" : [
    {
      "name" : "S_Cylinder001_jq_002",
      "mesh" : 0
    }
  ],
  "materials" : [
    {
      "name" : "WorldGridMaterial",
      "pbrMetallicRoughness" : {
        "baseColorFactor" : [ 0.3, 0.3, 0.3, 1.0 ],
        "metallicFactor" : 0.1,
        "roughnessFactor" : 0.5
      }
    }
  ],
  "meshes" : [
    {
      "primitives" : [
        {
          "attributes" : {
            "POSITION" : 1,
            "NORMAL" : 2,
            "TANGENT" : 3,
            "TEXCOORD_0" : 4
          },
          "indices" : 0,
          "material" : 0
        }
      ],
      "name" : "S_Cylinder001_jq_002"
    }
  ],
  "buffers" : [
    {
      "uri" : "S_Cylinder001_jq_002.bin",
      "byteLength" : 9540
    }
  ],
  "bufferViews" : [
    {
      "buffer" : 0,
      "byteOffset" : 0,
      "byteLength" : 1476
    },
    {
      "buffer" : 0,
      "byteOffset" : 1476,
      "byteLength" : 2016
    },
    {
      "buffer" : 0,
      "byteOffset" : 3492,
      "byteLength" : 2016
    },
    {
      "buffer" : 0,
      "byteOffset" : 5508,
      "byteLength" : 2688
    },
    {
      "buffer" : 0,
      "byteOffset" : 8196,
      "byteLength" : 1344
    }
  ],
  "accessors" : [
    {
      "bufferView" : 0,
      "componentType" : 5123,
      "count" : 738,
      "type" : "SCALAR"
    },
    {
      "bufferView" : 1,
      "min" : [ -0.0197983, -0.0417743, -0.0418665 ],
      "max" : [ -0.0182154, 0.0418972, 0.0418665 ],
      "componentType" : 5126,
      "count" : 168,
      "type" : "VEC3"
    },
    {
      "bufferView" : 2,
      "componentType" : 5126,
      "count" : 168,
      "type" : "VEC3"
    },
    {
      "bufferView" : 3,
      "componentType" : 5126,
      "count" : 168,
      "type" : "VEC4"
    },
    {
      "bufferView" : 4,
      "componentType" : 5126,
      "count" : 168,
      "type" : "VEC2"
    }
  ]
}
