{
  "asset" : {
    "generator" : "UE Viewer (umodel) build 1579 based",
    "version" : "2.0"
  },
  "scene" : 0,
  "scenes" : [
    {
      "nodes" : [ 0 ]
    }
  ],
  "nodes" : [
    {
      "name" : "S_Envi_Umeda_Base_ConveyorBelt_05a",
      "mesh" : 0
    }
  ],
  "materials" : [
    {
      "name" : "MI_Hologram_Bridge",
      "pbrMetallicRoughness" : {
        "baseColorFactor" : [ 0.3, 0.3, 0.3, 1.0 ],
        "metallicFactor" : 0.1,
        "roughnessFactor" : 0.5
      }
    }
  ],
  "meshes" : [
    {
      "primitives" : [
        {
          "attributes" : {
            "POSITION" : 1,
            "NORMAL" : 2,
            "TANGENT" : 3,
            "TEXCOORD_0" : 4,
            "TEXCOORD_1" : 5,
            "TEXCOORD_2" : 6
          },
          "indices" : 0,
          "material" : 0
        }
      ],
      "name" : "S_Envi_Umeda_Base_ConveyorBelt_05a"
    }
  ],
  "buffers" : [
    {
      "uri" : "S_Envi_Umeda_Base_ConveyorBelt_05a.bin",
      "byteLength" : 55764
    }
  ],
  "bufferViews" : [
    {
      "buffer" : 0,
      "byteOffset" : 0,
      "byteLength" : 2708
    },
    {
      "buffer" : 0,
      "byteOffset" : 2708,
      "byteLength" : 9948
    },
    {
      "buffer" : 0,
      "byteOffset" : 12656,
      "byteLength" : 9948
    },
    {
      "buffer" : 0,
      "byteOffset" : 22604,
      "byteLength" : 13264
    },
    {
      "buffer" : 0,
      "byteOffset" : 35868,
      "byteLength" : 6632
    },
    {
      "buffer" : 0,
      "byteOffset" : 42500,
      "byteLength" : 6632
    },
    {
      "buffer" : 0,
      "byteOffset" : 49132,
      "byteLength" : 6632
    }
  ],
  "accessors" : [
    {
      "bufferView" : 0,
      "componentType" : 5123,
      "count" : 1353,
      "type" : "SCALAR"
    },
    {
      "bufferView" : 1,
      "min" : [ -1.2397, -0.653668, -2.32553 ],
      "max" : [ 1.23706, 4.76837e-08, 0.892078 ],
      "componentType" : 5126,
      "count" : 829,
      "type" : "VEC3"
    },
    {
      "bufferView" : 2,
      "componentType" : 5126,
      "count" : 829,
      "type" : "VEC3"
    },
    {
      "bufferView" : 3,
      "componentType" : 5126,
      "count" : 829,
      "type" : "VEC4"
    },
    {
      "bufferView" : 4,
      "componentType" : 5126,
      "count" : 829,
      "type" : "VEC2"
    },
    {
      "bufferView" : 5,
      "componentType" : 5126,
      "count" : 829,
      "type" : "VEC2"
    },
    {
      "bufferView" : 6,
      "componentType" : 5126,
      "count" : 829,
      "type" : "VEC2"
    }
  ]
}
