{
  "asset" : {
    "generator" : "UE Viewer (umodel) build 1579 based",
    "version" : "2.0"
  },
  "scene" : 0,
  "scenes" : [
    {
      "nodes" : [ 0 ]
    }
  ],
  "nodes" : [
    {
      "name" : "S_GeoSphere_5003",
      "mesh" : 0
    }
  ],
  "materials" : [
    {
      "name" : "WorldGridMaterial",
      "pbrMetallicRoughness" : {
        "baseColorFactor" : [ 0.3, 0.3, 0.3, 1.0 ],
        "metallicFactor" : 0.1,
        "roughnessFactor" : 0.5
      }
    }
  ],
  "meshes" : [
    {
      "primitives" : [
        {
          "attributes" : {
            "POSITION" : 1,
            "NORMAL" : 2,
            "TANGENT" : 3,
            "TEXCOORD_0" : 4
          },
          "indices" : 0,
          "material" : 0
        }
      ],
      "name" : "S_GeoSphere_5003"
    }
  ],
  "buffers" : [
    {
      "uri" : "S_GeoSphere_5003.bin",
      "byteLength" : 9456
    }
  ],
  "bufferViews" : [
    {
      "buffer" : 0,
      "byteOffset" : 0,
      "byteLength" : 1536
    },
    {
      "buffer" : 0,
      "byteOffset" : 1536,
      "byteLength" : 1980
    },
    {
      "buffer" : 0,
      "byteOffset" : 3516,
      "byteLength" : 1980
    },
    {
      "buffer" : 0,
      "byteOffset" : 5496,
      "byteLength" : 2640
    },
    {
      "buffer" : 0,
      "byteOffset" : 8136,
      "byteLength" : 1320
    }
  ],
  "accessors" : [
    {
      "bufferView" : 0,
      "componentType" : 5123,
      "count" : 768,
      "type" : "SCALAR"
    },
    {
      "bufferView" : 1,
      "min" : [ -0.485886, -0.18594, -0.485886 ],
      "max" : [ 0.485886, 0.18594, 0.485886 ],
      "componentType" : 5126,
      "count" : 165,
      "type" : "VEC3"
    },
    {
      "bufferView" : 2,
      "componentType" : 5126,
      "count" : 165,
      "type" : "VEC3"
    },
    {
      "bufferView" : 3,
      "componentType" : 5126,
      "count" : 165,
      "type" : "VEC4"
    },
    {
      "bufferView" : 4,
      "componentType" : 5126,
      "count" : 165,
      "type" : "VEC2"
    }
  ]
}
