{
  "asset" : {
    "generator" : "UE Viewer (umodel) build 1579 based",
    "version" : "2.0"
  },
  "scene" : 0,
  "scenes" : [
    {
      "nodes" : [ 0 ]
    }
  ],
  "nodes" : [
    {
      "name" : "S_Lightning_Shyh_109",
      "mesh" : 0
    }
  ],
  "materials" : [
    {
      "name" : "WorldGridMaterial",
      "pbrMetallicRoughness" : {
        "baseColorFactor" : [ 0.3, 0.3, 0.3, 1.0 ],
        "metallicFactor" : 0.1,
        "roughnessFactor" : 0.5
      }
    }
  ],
  "meshes" : [
    {
      "primitives" : [
        {
          "attributes" : {
            "POSITION" : 1,
            "NORMAL" : 2,
            "TANGENT" : 3,
            "TEXCOORD_0" : 4,
            "TEXCOORD_1" : 5
          },
          "indices" : 0,
          "material" : 0
        }
      ],
      "name" : "S_Lightning_Shyh_109"
    }
  ],
  "buffers" : [
    {
      "uri" : "S_Lightning_Shyh_109.bin",
      "byteLength" : 1032
    }
  ],
  "bufferViews" : [
    {
      "buffer" : 0,
      "byteOffset" : 0,
      "byteLength" : 80
    },
    {
      "buffer" : 0,
      "byteOffset" : 80,
      "byteLength" : 204
    },
    {
      "buffer" : 0,
      "byteOffset" : 284,
      "byteLength" : 204
    },
    {
      "buffer" : 0,
      "byteOffset" : 488,
      "byteLength" : 272
    },
    {
      "buffer" : 0,
      "byteOffset" : 760,
      "byteLength" : 136
    },
    {
      "buffer" : 0,
      "byteOffset" : 896,
      "byteLength" : 136
    }
  ],
  "accessors" : [
    {
      "bufferView" : 0,
      "componentType" : 5123,
      "count" : 39,
      "type" : "SCALAR"
    },
    {
      "bufferView" : 1,
      "min" : [ -0.0218077, -0.0199191, -0.0927155 ],
      "max" : [ 0.0343353, 0.0109969, 0.031995 ],
      "componentType" : 5126,
      "count" : 17,
      "type" : "VEC3"
    },
    {
      "bufferView" : 2,
      "componentType" : 5126,
      "count" : 17,
      "type" : "VEC3"
    },
    {
      "bufferView" : 3,
      "componentType" : 5126,
      "count" : 17,
      "type" : "VEC4"
    },
    {
      "bufferView" : 4,
      "componentType" : 5126,
      "count" : 17,
      "type" : "VEC2"
    },
    {
      "bufferView" : 5,
      "componentType" : 5126,
      "count" : 17,
      "type" : "VEC2"
    }
  ]
}
