{
  "asset" : {
    "generator" : "UE Viewer (umodel) build 1579 based",
    "version" : "2.0"
  },
  "scene" : 0,
  "scenes" : [
    {
      "nodes" : [ 0 ]
    }
  ],
  "nodes" : [
    {
      "name" : "S_Lightning_Shyh_105",
      "mesh" : 0
    }
  ],
  "materials" : [
    {
      "name" : "WorldGridMaterial",
      "pbrMetallicRoughness" : {
        "baseColorFactor" : [ 0.3, 0.3, 0.3, 1.0 ],
        "metallicFactor" : 0.1,
        "roughnessFactor" : 0.5
      }
    }
  ],
  "meshes" : [
    {
      "primitives" : [
        {
          "attributes" : {
            "POSITION" : 1,
            "NORMAL" : 2,
            "TANGENT" : 3,
            "TEXCOORD_0" : 4,
            "TEXCOORD_1" : 5
          },
          "indices" : 0,
          "material" : 0
        }
      ],
      "name" : "S_Lightning_Shyh_105"
    }
  ],
  "buffers" : [
    {
      "uri" : "S_Lightning_Shyh_105.bin",
      "byteLength" : 596
    }
  ],
  "bufferViews" : [
    {
      "buffer" : 0,
      "byteOffset" : 0,
      "byteLength" : 36
    },
    {
      "buffer" : 0,
      "byteOffset" : 36,
      "byteLength" : 120
    },
    {
      "buffer" : 0,
      "byteOffset" : 156,
      "byteLength" : 120
    },
    {
      "buffer" : 0,
      "byteOffset" : 276,
      "byteLength" : 160
    },
    {
      "buffer" : 0,
      "byteOffset" : 436,
      "byteLength" : 80
    },
    {
      "buffer" : 0,
      "byteOffset" : 516,
      "byteLength" : 80
    }
  ],
  "accessors" : [
    {
      "bufferView" : 0,
      "componentType" : 5123,
      "count" : 18,
      "type" : "SCALAR"
    },
    {
      "bufferView" : 1,
      "min" : [ -0.00221632, -0.0162699, -0.0403095 ],
      "max" : [ 0.00221632, 0.000150037, 0.0403095 ],
      "componentType" : 5126,
      "count" : 10,
      "type" : "VEC3"
    },
    {
      "bufferView" : 2,
      "componentType" : 5126,
      "count" : 10,
      "type" : "VEC3"
    },
    {
      "bufferView" : 3,
      "componentType" : 5126,
      "count" : 10,
      "type" : "VEC4"
    },
    {
      "bufferView" : 4,
      "componentType" : 5126,
      "count" : 10,
      "type" : "VEC2"
    },
    {
      "bufferView" : 5,
      "componentType" : 5126,
      "count" : 10,
      "type" : "VEC2"
    }
  ]
}
