{
  "asset" : {
    "generator" : "UE Viewer (umodel) build 1579 based",
    "version" : "2.0"
  },
  "scene" : 0,
  "scenes" : [
    {
      "nodes" : [ 0 ]
    }
  ],
  "nodes" : [
    {
      "name" : "S_Lightning_Shyh_103",
      "mesh" : 0
    }
  ],
  "materials" : [
    {
      "name" : "WorldGridMaterial",
      "pbrMetallicRoughness" : {
        "baseColorFactor" : [ 0.3, 0.3, 0.3, 1.0 ],
        "metallicFactor" : 0.1,
        "roughnessFactor" : 0.5
      }
    }
  ],
  "meshes" : [
    {
      "primitives" : [
        {
          "attributes" : {
            "POSITION" : 1,
            "NORMAL" : 2,
            "TANGENT" : 3,
            "TEXCOORD_0" : 4,
            "TEXCOORD_1" : 5
          },
          "indices" : 0,
          "material" : 0
        }
      ],
      "name" : "S_Lightning_Shyh_103"
    }
  ],
  "buffers" : [
    {
      "uri" : "S_Lightning_Shyh_103.bin",
      "byteLength" : 3016
    }
  ],
  "bufferViews" : [
    {
      "buffer" : 0,
      "byteOffset" : 0,
      "byteLength" : 272
    },
    {
      "buffer" : 0,
      "byteOffset" : 272,
      "byteLength" : 588
    },
    {
      "buffer" : 0,
      "byteOffset" : 860,
      "byteLength" : 588
    },
    {
      "buffer" : 0,
      "byteOffset" : 1448,
      "byteLength" : 784
    },
    {
      "buffer" : 0,
      "byteOffset" : 2232,
      "byteLength" : 392
    },
    {
      "buffer" : 0,
      "byteOffset" : 2624,
      "byteLength" : 392
    }
  ],
  "accessors" : [
    {
      "bufferView" : 0,
      "componentType" : 5123,
      "count" : 135,
      "type" : "SCALAR"
    },
    {
      "bufferView" : 1,
      "min" : [ -0.0584691, -0.0304596, -0.290257 ],
      "max" : [ -0.000142336, 0.0410329, 0.251366 ],
      "componentType" : 5126,
      "count" : 49,
      "type" : "VEC3"
    },
    {
      "bufferView" : 2,
      "componentType" : 5126,
      "count" : 49,
      "type" : "VEC3"
    },
    {
      "bufferView" : 3,
      "componentType" : 5126,
      "count" : 49,
      "type" : "VEC4"
    },
    {
      "bufferView" : 4,
      "componentType" : 5126,
      "count" : 49,
      "type" : "VEC2"
    },
    {
      "bufferView" : 5,
      "componentType" : 5126,
      "count" : 49,
      "type" : "VEC2"
    }
  ]
}
