{
  "asset" : {
    "generator" : "UE Viewer (umodel) build 1579 based",
    "version" : "2.0"
  },
  "scene" : 0,
  "scenes" : [
    {
      "nodes" : [ 0 ]
    }
  ],
  "nodes" : [
    {
      "name" : "S_Michele_Destroy_003",
      "mesh" : 0
    }
  ],
  "materials" : [
    {
      "name" : "WorldGridMaterial",
      "pbrMetallicRoughness" : {
        "baseColorFactor" : [ 0.3, 0.3, 0.3, 1.0 ],
        "metallicFactor" : 0.1,
        "roughnessFactor" : 0.5
      }
    }
  ],
  "meshes" : [
    {
      "primitives" : [
        {
          "attributes" : {
            "POSITION" : 1,
            "NORMAL" : 2,
            "TANGENT" : 3,
            "TEXCOORD_0" : 4,
            "TEXCOORD_1" : 5
          },
          "indices" : 0,
          "material" : 0
        }
      ],
      "name" : "S_Michele_Destroy_003"
    }
  ],
  "buffers" : [
    {
      "uri" : "S_Michele_Destroy_003.bin",
      "byteLength" : 10472
    }
  ],
  "bufferViews" : [
    {
      "buffer" : 0,
      "byteOffset" : 0,
      "byteLength" : 1176
    },
    {
      "buffer" : 0,
      "byteOffset" : 1176,
      "byteLength" : 1992
    },
    {
      "buffer" : 0,
      "byteOffset" : 3168,
      "byteLength" : 1992
    },
    {
      "buffer" : 0,
      "byteOffset" : 5160,
      "byteLength" : 2656
    },
    {
      "buffer" : 0,
      "byteOffset" : 7816,
      "byteLength" : 1328
    },
    {
      "buffer" : 0,
      "byteOffset" : 9144,
      "byteLength" : 1328
    }
  ],
  "accessors" : [
    {
      "bufferView" : 0,
      "componentType" : 5123,
      "count" : 588,
      "type" : "SCALAR"
    },
    {
      "bufferView" : 1,
      "min" : [ -0.1605, -0.0313709, -0.0503437 ],
      "max" : [ 0.166188, 0.0357244, 0.0478351 ],
      "componentType" : 5126,
      "count" : 166,
      "type" : "VEC3"
    },
    {
      "bufferView" : 2,
      "componentType" : 5126,
      "count" : 166,
      "type" : "VEC3"
    },
    {
      "bufferView" : 3,
      "componentType" : 5126,
      "count" : 166,
      "type" : "VEC4"
    },
    {
      "bufferView" : 4,
      "componentType" : 5126,
      "count" : 166,
      "type" : "VEC2"
    },
    {
      "bufferView" : 5,
      "componentType" : 5126,
      "count" : 166,
      "type" : "VEC2"
    }
  ]
}
