{
  "asset" : {
    "generator" : "UE Viewer (umodel) build 1579 based",
    "version" : "2.0"
  },
  "scene" : 0,
  "scenes" : [
    {
      "nodes" : [ 0 ]
    }
  ],
  "nodes" : [
    {
      "name" : "S_Object_Cbn_030",
      "mesh" : 0
    }
  ],
  "materials" : [
    {
      "name" : "WorldGridMaterial",
      "pbrMetallicRoughness" : {
        "baseColorFactor" : [ 0.3, 0.3, 0.3, 1.0 ],
        "metallicFactor" : 0.1,
        "roughnessFactor" : 0.5
      }
    },
    {
      "name" : "WorldGridMaterial",
      "pbrMetallicRoughness" : {
        "baseColorFactor" : [ 0.9, 0.3, 0.3, 1.0 ],
        "metallicFactor" : 0.1,
        "roughnessFactor" : 0.5
      }
    }
  ],
  "meshes" : [
    {
      "primitives" : [
        {
          "attributes" : {
            "POSITION" : 1,
            "NORMAL" : 2,
            "TANGENT" : 3,
            "TEXCOORD_0" : 4
          },
          "indices" : 0,
          "material" : 0
        },
        {
          "attributes" : {
            "POSITION" : 6,
            "NORMAL" : 7,
            "TANGENT" : 8,
            "TEXCOORD_0" : 9
          },
          "indices" : 5,
          "material" : 1
        }
      ],
      "name" : "S_Object_Cbn_030"
    }
  ],
  "buffers" : [
    {
      "uri" : "S_Object_Cbn_030.bin",
      "byteLength" : 1196
    }
  ],
  "bufferViews" : [
    {
      "buffer" : 0,
      "byteOffset" : 0,
      "byteLength" : 48
    },
    {
      "buffer" : 0,
      "byteOffset" : 48,
      "byteLength" : 144
    },
    {
      "buffer" : 0,
      "byteOffset" : 192,
      "byteLength" : 144
    },
    {
      "buffer" : 0,
      "byteOffset" : 336,
      "byteLength" : 192
    },
    {
      "buffer" : 0,
      "byteOffset" : 528,
      "byteLength" : 96
    },
    {
      "buffer" : 0,
      "byteOffset" : 624,
      "byteLength" : 44
    },
    {
      "buffer" : 0,
      "byteOffset" : 668,
      "byteLength" : 132
    },
    {
      "buffer" : 0,
      "byteOffset" : 800,
      "byteLength" : 132
    },
    {
      "buffer" : 0,
      "byteOffset" : 932,
      "byteLength" : 176
    },
    {
      "buffer" : 0,
      "byteOffset" : 1108,
      "byteLength" : 88
    }
  ],
  "accessors" : [
    {
      "bufferView" : 0,
      "componentType" : 5123,
      "count" : 24,
      "type" : "SCALAR"
    },
    {
      "bufferView" : 1,
      "min" : [ 5.69287e-13, -1.07759, -0.436585 ],
      "max" : [ 0.188193, 2.67331e-17, 0.436585 ],
      "componentType" : 5126,
      "count" : 12,
      "type" : "VEC3"
    },
    {
      "bufferView" : 2,
      "componentType" : 5126,
      "count" : 12,
      "type" : "VEC3"
    },
    {
      "bufferView" : 3,
      "componentType" : 5126,
      "count" : 12,
      "type" : "VEC4"
    },
    {
      "bufferView" : 4,
      "componentType" : 5126,
      "count" : 12,
      "type" : "VEC2"
    },
    {
      "bufferView" : 5,
      "componentType" : 5123,
      "count" : 21,
      "type" : "SCALAR"
    },
    {
      "bufferView" : 6,
      "min" : [ 5.69287e-13, -1.07759, -0.384081 ],
      "max" : [ 0.0892168, 2.35182e-17, 0.384081 ],
      "componentType" : 5126,
      "count" : 11,
      "type" : "VEC3"
    },
    {
      "bufferView" : 7,
      "componentType" : 5126,
      "count" : 11,
      "type" : "VEC3"
    },
    {
      "bufferView" : 8,
      "componentType" : 5126,
      "count" : 11,
      "type" : "VEC4"
    },
    {
      "bufferView" : 9,
      "componentType" : 5126,
      "count" : 11,
      "type" : "VEC2"
    }
  ]
}
