{
  "asset" : {
    "generator" : "UE Viewer (umodel) build 1579 based",
    "version" : "2.0"
  },
  "scene" : 0,
  "scenes" : [
    {
      "nodes" : [ 0 ]
    }
  ],
  "nodes" : [
    {
      "name" : "S_Object_Cbn_044",
      "mesh" : 0
    }
  ],
  "materials" : [
    {
      "name" : "WorldGridMaterial",
      "pbrMetallicRoughness" : {
        "baseColorFactor" : [ 0.3, 0.3, 0.3, 1.0 ],
        "metallicFactor" : 0.1,
        "roughnessFactor" : 0.5
      }
    }
  ],
  "meshes" : [
    {
      "primitives" : [
        {
          "attributes" : {
            "POSITION" : 1,
            "NORMAL" : 2,
            "TANGENT" : 3,
            "TEXCOORD_0" : 4,
            "TEXCOORD_1" : 5
          },
          "indices" : 0,
          "material" : 0
        }
      ],
      "name" : "S_Object_Cbn_044"
    }
  ],
  "buffers" : [
    {
      "uri" : "S_Object_Cbn_044.bin",
      "byteLength" : 30792
    }
  ],
  "bufferViews" : [
    {
      "buffer" : 0,
      "byteOffset" : 0,
      "byteLength" : 1224
    },
    {
      "buffer" : 0,
      "byteOffset" : 1224,
      "byteLength" : 6336
    },
    {
      "buffer" : 0,
      "byteOffset" : 7560,
      "byteLength" : 6336
    },
    {
      "buffer" : 0,
      "byteOffset" : 13896,
      "byteLength" : 8448
    },
    {
      "buffer" : 0,
      "byteOffset" : 22344,
      "byteLength" : 4224
    },
    {
      "buffer" : 0,
      "byteOffset" : 26568,
      "byteLength" : 4224
    }
  ],
  "accessors" : [
    {
      "bufferView" : 0,
      "componentType" : 5123,
      "count" : 612,
      "type" : "SCALAR"
    },
    {
      "bufferView" : 1,
      "min" : [ -0.00957883, -0.00428456, -0.0494611 ],
      "max" : [ 0.00957884, -0.00130504, -0.0386832 ],
      "componentType" : 5126,
      "count" : 528,
      "type" : "VEC3"
    },
    {
      "bufferView" : 2,
      "componentType" : 5126,
      "count" : 528,
      "type" : "VEC3"
    },
    {
      "bufferView" : 3,
      "componentType" : 5126,
      "count" : 528,
      "type" : "VEC4"
    },
    {
      "bufferView" : 4,
      "componentType" : 5126,
      "count" : 528,
      "type" : "VEC2"
    },
    {
      "bufferView" : 5,
      "componentType" : 5126,
      "count" : 528,
      "type" : "VEC2"
    }
  ]
}
