{
  "asset" : {
    "generator" : "UE Viewer (umodel) build 1579 based",
    "version" : "2.0"
  },
  "scene" : 0,
  "scenes" : [
    {
      "nodes" : [ 0 ]
    }
  ],
  "nodes" : [
    {
      "name" : "S_Object_Cbn_001",
      "mesh" : 0
    }
  ],
  "materials" : [
    {
      "name" : "WorldGridMaterial",
      "pbrMetallicRoughness" : {
        "baseColorFactor" : [ 0.3, 0.3, 0.3, 1.0 ],
        "metallicFactor" : 0.1,
        "roughnessFactor" : 0.5
      }
    }
  ],
  "meshes" : [
    {
      "primitives" : [
        {
          "attributes" : {
            "POSITION" : 1,
            "NORMAL" : 2,
            "TANGENT" : 3,
            "COLOR_0" : 4,
            "TEXCOORD_0" : 5,
            "TEXCOORD_1" : 6
          },
          "indices" : 0,
          "material" : 0
        }
      ],
      "name" : "S_Object_Cbn_001"
    }
  ],
  "buffers" : [
    {
      "uri" : "S_Object_Cbn_001.bin",
      "byteLength" : 8520
    }
  ],
  "bufferViews" : [
    {
      "buffer" : 0,
      "byteOffset" : 0,
      "byteLength" : 1080
    },
    {
      "buffer" : 0,
      "byteOffset" : 1080,
      "byteLength" : 1488
    },
    {
      "buffer" : 0,
      "byteOffset" : 2568,
      "byteLength" : 1488
    },
    {
      "buffer" : 0,
      "byteOffset" : 4056,
      "byteLength" : 1984
    },
    {
      "buffer" : 0,
      "byteOffset" : 6040,
      "byteLength" : 496
    },
    {
      "buffer" : 0,
      "byteOffset" : 6536,
      "byteLength" : 992
    },
    {
      "buffer" : 0,
      "byteOffset" : 7528,
      "byteLength" : 992
    }
  ],
  "accessors" : [
    {
      "bufferView" : 0,
      "componentType" : 5123,
      "count" : 540,
      "type" : "SCALAR"
    },
    {
      "bufferView" : 1,
      "min" : [ -0.254436, -0.169574, -0.0250764 ],
      "max" : [ 0.605518, 0.543213, 0.469553 ],
      "componentType" : 5126,
      "count" : 124,
      "type" : "VEC3"
    },
    {
      "bufferView" : 2,
      "componentType" : 5126,
      "count" : 124,
      "type" : "VEC3"
    },
    {
      "bufferView" : 3,
      "componentType" : 5126,
      "count" : 124,
      "type" : "VEC4"
    },
    {
      "bufferView" : 4,
      "normalized" : true,
      "componentType" : 5121,
      "count" : 124,
      "type" : "VEC4"
    },
    {
      "bufferView" : 5,
      "componentType" : 5126,
      "count" : 124,
      "type" : "VEC2"
    },
    {
      "bufferView" : 6,
      "componentType" : 5126,
      "count" : 124,
      "type" : "VEC2"
    }
  ]
}
