{
  "asset" : {
    "generator" : "UE Viewer (umodel) build 1579 based",
    "version" : "2.0"
  },
  "scene" : 0,
  "scenes" : [
    {
      "nodes" : [ 0 ]
    }
  ],
  "nodes" : [
    {
      "name" : "S_Object_Cbn_049",
      "mesh" : 0
    }
  ],
  "materials" : [
    {
      "name" : "WorldGridMaterial",
      "pbrMetallicRoughness" : {
        "baseColorFactor" : [ 0.3, 0.3, 0.3, 1.0 ],
        "metallicFactor" : 0.1,
        "roughnessFactor" : 0.5
      }
    }
  ],
  "meshes" : [
    {
      "primitives" : [
        {
          "attributes" : {
            "POSITION" : 1,
            "NORMAL" : 2,
            "TANGENT" : 3,
            "TEXCOORD_0" : 4,
            "TEXCOORD_1" : 5
          },
          "indices" : 0,
          "material" : 0
        }
      ],
      "name" : "S_Object_Cbn_049"
    }
  ],
  "buffers" : [
    {
      "uri" : "S_Object_Cbn_049.bin",
      "byteLength" : 345728
    }
  ],
  "bufferViews" : [
    {
      "buffer" : 0,
      "byteOffset" : 0,
      "byteLength" : 24960
    },
    {
      "buffer" : 0,
      "byteOffset" : 24960,
      "byteLength" : 68736
    },
    {
      "buffer" : 0,
      "byteOffset" : 93696,
      "byteLength" : 68736
    },
    {
      "buffer" : 0,
      "byteOffset" : 162432,
      "byteLength" : 91648
    },
    {
      "buffer" : 0,
      "byteOffset" : 254080,
      "byteLength" : 45824
    },
    {
      "buffer" : 0,
      "byteOffset" : 299904,
      "byteLength" : 45824
    }
  ],
  "accessors" : [
    {
      "bufferView" : 0,
      "componentType" : 5123,
      "count" : 12480,
      "type" : "SCALAR"
    },
    {
      "bufferView" : 1,
      "min" : [ -0.412673, -0.578216, -0.0075002 ],
      "max" : [ 0.435778, 0.515713, 0.00750004 ],
      "componentType" : 5126,
      "count" : 5728,
      "type" : "VEC3"
    },
    {
      "bufferView" : 2,
      "componentType" : 5126,
      "count" : 5728,
      "type" : "VEC3"
    },
    {
      "bufferView" : 3,
      "componentType" : 5126,
      "count" : 5728,
      "type" : "VEC4"
    },
    {
      "bufferView" : 4,
      "componentType" : 5126,
      "count" : 5728,
      "type" : "VEC2"
    },
    {
      "bufferView" : 5,
      "componentType" : 5126,
      "count" : 5728,
      "type" : "VEC2"
    }
  ]
}
