{
  "asset" : {
    "generator" : "UE Viewer (umodel) build 1579 based",
    "version" : "2.0"
  },
  "scene" : 0,
  "scenes" : [
    {
      "nodes" : [ 0 ]
    }
  ],
  "nodes" : [
    {
      "name" : "S_Object_Cbn_005",
      "mesh" : 0
    }
  ],
  "materials" : [
    {
      "name" : "dummy_material_0",
      "pbrMetallicRoughness" : {
        "baseColorFactor" : [ 0.3, 0.3, 0.3, 1.0 ],
        "metallicFactor" : 0.1,
        "roughnessFactor" : 0.5
      }
    }
  ],
  "meshes" : [
    {
      "primitives" : [
        {
          "attributes" : {
            "POSITION" : 1,
            "NORMAL" : 2,
            "TANGENT" : 3,
            "TEXCOORD_0" : 4,
            "TEXCOORD_1" : 5,
            "TEXCOORD_2" : 6,
            "TEXCOORD_3" : 7,
            "TEXCOORD_4" : 8
          },
          "indices" : 0,
          "material" : 0
        }
      ],
      "name" : "S_Object_Cbn_005"
    }
  ],
  "buffers" : [
    {
      "uri" : "S_Object_Cbn_005.bin",
      "byteLength" : 22464
    }
  ],
  "bufferViews" : [
    {
      "buffer" : 0,
      "byteOffset" : 0,
      "byteLength" : 864
    },
    {
      "buffer" : 0,
      "byteOffset" : 864,
      "byteLength" : 3240
    },
    {
      "buffer" : 0,
      "byteOffset" : 4104,
      "byteLength" : 3240
    },
    {
      "buffer" : 0,
      "byteOffset" : 7344,
      "byteLength" : 4320
    },
    {
      "buffer" : 0,
      "byteOffset" : 11664,
      "byteLength" : 2160
    },
    {
      "buffer" : 0,
      "byteOffset" : 13824,
      "byteLength" : 2160
    },
    {
      "buffer" : 0,
      "byteOffset" : 15984,
      "byteLength" : 2160
    },
    {
      "buffer" : 0,
      "byteOffset" : 18144,
      "byteLength" : 2160
    },
    {
      "buffer" : 0,
      "byteOffset" : 20304,
      "byteLength" : 2160
    }
  ],
  "accessors" : [
    {
      "bufferView" : 0,
      "componentType" : 5123,
      "count" : 432,
      "type" : "SCALAR"
    },
    {
      "bufferView" : 1,
      "min" : [ -0.19195, -0.121546, -0.00923676 ],
      "max" : [ 0.19195, 0.210922, 0.00923676 ],
      "componentType" : 5126,
      "count" : 270,
      "type" : "VEC3"
    },
    {
      "bufferView" : 2,
      "componentType" : 5126,
      "count" : 270,
      "type" : "VEC3"
    },
    {
      "bufferView" : 3,
      "componentType" : 5126,
      "count" : 270,
      "type" : "VEC4"
    },
    {
      "bufferView" : 4,
      "componentType" : 5126,
      "count" : 270,
      "type" : "VEC2"
    },
    {
      "bufferView" : 5,
      "componentType" : 5126,
      "count" : 270,
      "type" : "VEC2"
    },
    {
      "bufferView" : 6,
      "componentType" : 5126,
      "count" : 270,
      "type" : "VEC2"
    },
    {
      "bufferView" : 7,
      "componentType" : 5126,
      "count" : 270,
      "type" : "VEC2"
    },
    {
      "bufferView" : 8,
      "componentType" : 5126,
      "count" : 270,
      "type" : "VEC2"
    }
  ]
}
