{
  "asset" : {
    "generator" : "UE Viewer (umodel) build 1579 based",
    "version" : "2.0"
  },
  "scene" : 0,
  "scenes" : [
    {
      "nodes" : [ 0 ]
    }
  ],
  "nodes" : [
    {
      "name" : "S_Object_Cbn_020",
      "mesh" : 0
    }
  ],
  "materials" : [
    {
      "name" : "WorldGridMaterial",
      "pbrMetallicRoughness" : {
        "baseColorFactor" : [ 0.3, 0.3, 0.3, 1.0 ],
        "metallicFactor" : 0.1,
        "roughnessFactor" : 0.5
      }
    }
  ],
  "meshes" : [
    {
      "primitives" : [
        {
          "attributes" : {
            "POSITION" : 1,
            "NORMAL" : 2,
            "TANGENT" : 3,
            "COLOR_0" : 4,
            "TEXCOORD_0" : 5,
            "TEXCOORD_1" : 6
          },
          "indices" : 0,
          "material" : 0
        }
      ],
      "name" : "S_Object_Cbn_020"
    }
  ],
  "buffers" : [
    {
      "uri" : "S_Object_Cbn_020.bin",
      "byteLength" : 40188
    }
  ],
  "bufferViews" : [
    {
      "buffer" : 0,
      "byteOffset" : 0,
      "byteLength" : 3408
    },
    {
      "buffer" : 0,
      "byteOffset" : 3408,
      "byteLength" : 7356
    },
    {
      "buffer" : 0,
      "byteOffset" : 10764,
      "byteLength" : 7356
    },
    {
      "buffer" : 0,
      "byteOffset" : 18120,
      "byteLength" : 9808
    },
    {
      "buffer" : 0,
      "byteOffset" : 27928,
      "byteLength" : 2452
    },
    {
      "buffer" : 0,
      "byteOffset" : 30380,
      "byteLength" : 4904
    },
    {
      "buffer" : 0,
      "byteOffset" : 35284,
      "byteLength" : 4904
    }
  ],
  "accessors" : [
    {
      "bufferView" : 0,
      "componentType" : 5123,
      "count" : 1704,
      "type" : "SCALAR"
    },
    {
      "bufferView" : 1,
      "min" : [ -0.150001, 0.0125123, -0.150002 ],
      "max" : [ 0.150002, 0.900001, 0.15 ],
      "componentType" : 5126,
      "count" : 613,
      "type" : "VEC3"
    },
    {
      "bufferView" : 2,
      "componentType" : 5126,
      "count" : 613,
      "type" : "VEC3"
    },
    {
      "bufferView" : 3,
      "componentType" : 5126,
      "count" : 613,
      "type" : "VEC4"
    },
    {
      "bufferView" : 4,
      "normalized" : true,
      "componentType" : 5121,
      "count" : 613,
      "type" : "VEC4"
    },
    {
      "bufferView" : 5,
      "componentType" : 5126,
      "count" : 613,
      "type" : "VEC2"
    },
    {
      "bufferView" : 6,
      "componentType" : 5126,
      "count" : 613,
      "type" : "VEC2"
    }
  ]
}
