{
  "asset" : {
    "generator" : "UE Viewer (umodel) build 1579 based",
    "version" : "2.0"
  },
  "scene" : 0,
  "scenes" : [
    {
      "nodes" : [ 0 ]
    }
  ],
  "nodes" : [
    {
      "name" : "S_Object_Cbn_042",
      "mesh" : 0
    }
  ],
  "materials" : [
    {
      "name" : "WorldGridMaterial",
      "pbrMetallicRoughness" : {
        "baseColorFactor" : [ 0.3, 0.3, 0.3, 1.0 ],
        "metallicFactor" : 0.1,
        "roughnessFactor" : 0.5
      }
    }
  ],
  "meshes" : [
    {
      "primitives" : [
        {
          "attributes" : {
            "POSITION" : 1,
            "NORMAL" : 2,
            "TANGENT" : 3,
            "TEXCOORD_0" : 4,
            "TEXCOORD_1" : 5,
            "TEXCOORD_2" : 6
          },
          "indices" : 0,
          "material" : 0
        }
      ],
      "name" : "S_Object_Cbn_042"
    }
  ],
  "buffers" : [
    {
      "uri" : "S_Object_Cbn_042.bin",
      "byteLength" : 1487144
    }
  ],
  "bufferViews" : [
    {
      "buffer" : 0,
      "byteOffset" : 0,
      "byteLength" : 59496
    },
    {
      "buffer" : 0,
      "byteOffset" : 59496,
      "byteLength" : 267684
    },
    {
      "buffer" : 0,
      "byteOffset" : 327180,
      "byteLength" : 267684
    },
    {
      "buffer" : 0,
      "byteOffset" : 594864,
      "byteLength" : 356912
    },
    {
      "buffer" : 0,
      "byteOffset" : 951776,
      "byteLength" : 178456
    },
    {
      "buffer" : 0,
      "byteOffset" : 1130232,
      "byteLength" : 178456
    },
    {
      "buffer" : 0,
      "byteOffset" : 1308688,
      "byteLength" : 178456
    }
  ],
  "accessors" : [
    {
      "bufferView" : 0,
      "componentType" : 5123,
      "count" : 29748,
      "type" : "SCALAR"
    },
    {
      "bufferView" : 1,
      "min" : [ -3.66115, -5.77724e-08, -2.51413 ],
      "max" : [ 1.43149, 3.62926, 1.58659 ],
      "componentType" : 5126,
      "count" : 22307,
      "type" : "VEC3"
    },
    {
      "bufferView" : 2,
      "componentType" : 5126,
      "count" : 22307,
      "type" : "VEC3"
    },
    {
      "bufferView" : 3,
      "componentType" : 5126,
      "count" : 22307,
      "type" : "VEC4"
    },
    {
      "bufferView" : 4,
      "componentType" : 5126,
      "count" : 22307,
      "type" : "VEC2"
    },
    {
      "bufferView" : 5,
      "componentType" : 5126,
      "count" : 22307,
      "type" : "VEC2"
    },
    {
      "bufferView" : 6,
      "componentType" : 5126,
      "count" : 22307,
      "type" : "VEC2"
    }
  ]
}
