{
  "asset" : {
    "generator" : "UE Viewer (umodel) build 1579 based",
    "version" : "2.0"
  },
  "scene" : 0,
  "scenes" : [
    {
      "nodes" : [ 0 ]
    }
  ],
  "nodes" : [
    {
      "name" : "S_Object_Cbn_038",
      "mesh" : 0
    }
  ],
  "materials" : [
    {
      "name" : "WorldGridMaterial",
      "pbrMetallicRoughness" : {
        "baseColorFactor" : [ 0.3, 0.3, 0.3, 1.0 ],
        "metallicFactor" : 0.1,
        "roughnessFactor" : 0.5
      }
    }
  ],
  "meshes" : [
    {
      "primitives" : [
        {
          "attributes" : {
            "POSITION" : 1,
            "NORMAL" : 2,
            "TANGENT" : 3,
            "TEXCOORD_0" : 4,
            "TEXCOORD_1" : 5
          },
          "indices" : 0,
          "material" : 0
        }
      ],
      "name" : "S_Object_Cbn_038"
    }
  ],
  "buffers" : [
    {
      "uri" : "S_Object_Cbn_038.bin",
      "byteLength" : 1796388
    }
  ],
  "bufferViews" : [
    {
      "buffer" : 0,
      "byteOffset" : 0,
      "byteLength" : 207780
    },
    {
      "buffer" : 0,
      "byteOffset" : 207780,
      "byteLength" : 340416
    },
    {
      "buffer" : 0,
      "byteOffset" : 548196,
      "byteLength" : 340416
    },
    {
      "buffer" : 0,
      "byteOffset" : 888612,
      "byteLength" : 453888
    },
    {
      "buffer" : 0,
      "byteOffset" : 1342500,
      "byteLength" : 226944
    },
    {
      "buffer" : 0,
      "byteOffset" : 1569444,
      "byteLength" : 226944
    }
  ],
  "accessors" : [
    {
      "bufferView" : 0,
      "componentType" : 5123,
      "count" : 103890,
      "type" : "SCALAR"
    },
    {
      "bufferView" : 1,
      "min" : [ -0.459899, 0.0257019, -0.244087 ],
      "max" : [ 0.338747, 1.72157, 0.317985 ],
      "componentType" : 5126,
      "count" : 28368,
      "type" : "VEC3"
    },
    {
      "bufferView" : 2,
      "componentType" : 5126,
      "count" : 28368,
      "type" : "VEC3"
    },
    {
      "bufferView" : 3,
      "componentType" : 5126,
      "count" : 28368,
      "type" : "VEC4"
    },
    {
      "bufferView" : 4,
      "componentType" : 5126,
      "count" : 28368,
      "type" : "VEC2"
    },
    {
      "bufferView" : 5,
      "componentType" : 5126,
      "count" : 28368,
      "type" : "VEC2"
    }
  ]
}
