{
  "asset" : {
    "generator" : "UE Viewer (umodel) build 1579 based",
    "version" : "2.0"
  },
  "scene" : 0,
  "scenes" : [
    {
      "nodes" : [ 0 ]
    }
  ],
  "nodes" : [
    {
      "name" : "S_Orbit_wjh_002",
      "mesh" : 0
    }
  ],
  "materials" : [
    {
      "name" : "WorldGridMaterial",
      "pbrMetallicRoughness" : {
        "baseColorFactor" : [ 0.3, 0.3, 0.3, 1.0 ],
        "metallicFactor" : 0.1,
        "roughnessFactor" : 0.5
      }
    }
  ],
  "meshes" : [
    {
      "primitives" : [
        {
          "attributes" : {
            "POSITION" : 1,
            "NORMAL" : 2,
            "TANGENT" : 3,
            "TEXCOORD_0" : 4
          },
          "indices" : 0,
          "material" : 0
        }
      ],
      "name" : "S_Orbit_wjh_002"
    }
  ],
  "buffers" : [
    {
      "uri" : "S_Orbit_wjh_002.bin",
      "byteLength" : 154848
    }
  ],
  "bufferViews" : [
    {
      "buffer" : 0,
      "byteOffset" : 0,
      "byteLength" : 30000
    },
    {
      "buffer" : 0,
      "byteOffset" : 30000,
      "byteLength" : 31212
    },
    {
      "buffer" : 0,
      "byteOffset" : 61212,
      "byteLength" : 31212
    },
    {
      "buffer" : 0,
      "byteOffset" : 92424,
      "byteLength" : 41616
    },
    {
      "buffer" : 0,
      "byteOffset" : 134040,
      "byteLength" : 20808
    }
  ],
  "accessors" : [
    {
      "bufferView" : 0,
      "componentType" : 5123,
      "count" : 15000,
      "type" : "SCALAR"
    },
    {
      "bufferView" : 1,
      "min" : [ -0.225499, -9.95176e-18, -0.19194 ],
      "max" : [ 0.222273, 0.225102, 0.170568 ],
      "componentType" : 5126,
      "count" : 2601,
      "type" : "VEC3"
    },
    {
      "bufferView" : 2,
      "componentType" : 5126,
      "count" : 2601,
      "type" : "VEC3"
    },
    {
      "bufferView" : 3,
      "componentType" : 5126,
      "count" : 2601,
      "type" : "VEC4"
    },
    {
      "bufferView" : 4,
      "componentType" : 5126,
      "count" : 2601,
      "type" : "VEC2"
    }
  ]
}
