{
  "asset" : {
    "generator" : "UE Viewer (umodel) build 1579 based",
    "version" : "2.0"
  },
  "scene" : 0,
  "scenes" : [
    {
      "nodes" : [ 0 ]
    }
  ],
  "nodes" : [
    {
      "name" : "S_pian_ygw_001",
      "mesh" : 0
    }
  ],
  "materials" : [
    {
      "name" : "WorldGridMaterial",
      "pbrMetallicRoughness" : {
        "baseColorFactor" : [ 0.3, 0.3, 0.3, 1.0 ],
        "metallicFactor" : 0.1,
        "roughnessFactor" : 0.5
      }
    }
  ],
  "meshes" : [
    {
      "primitives" : [
        {
          "attributes" : {
            "POSITION" : 1,
            "NORMAL" : 2,
            "TANGENT" : 3,
            "TEXCOORD_0" : 4,
            "TEXCOORD_1" : 5,
            "TEXCOORD_2" : 6
          },
          "indices" : 0,
          "material" : 0
        }
      ],
      "name" : "S_pian_ygw_001"
    }
  ],
  "buffers" : [
    {
      "uri" : "S_pian_ygw_001.bin",
      "byteLength" : 202496
    }
  ],
  "bufferViews" : [
    {
      "buffer" : 0,
      "byteOffset" : 0,
      "byteLength" : 6144
    },
    {
      "buffer" : 0,
      "byteOffset" : 6144,
      "byteLength" : 36816
    },
    {
      "buffer" : 0,
      "byteOffset" : 42960,
      "byteLength" : 36816
    },
    {
      "buffer" : 0,
      "byteOffset" : 79776,
      "byteLength" : 49088
    },
    {
      "buffer" : 0,
      "byteOffset" : 128864,
      "byteLength" : 24544
    },
    {
      "buffer" : 0,
      "byteOffset" : 153408,
      "byteLength" : 24544
    },
    {
      "buffer" : 0,
      "byteOffset" : 177952,
      "byteLength" : 24544
    }
  ],
  "accessors" : [
    {
      "bufferView" : 0,
      "componentType" : 5123,
      "count" : 3072,
      "type" : "SCALAR"
    },
    {
      "bufferView" : 1,
      "min" : [ -0.00200024, -0.205135, -0.805016 ],
      "max" : [ 0.00200023, 0.20575, 0.805577 ],
      "componentType" : 5126,
      "count" : 3068,
      "type" : "VEC3"
    },
    {
      "bufferView" : 2,
      "componentType" : 5126,
      "count" : 3068,
      "type" : "VEC3"
    },
    {
      "bufferView" : 3,
      "componentType" : 5126,
      "count" : 3068,
      "type" : "VEC4"
    },
    {
      "bufferView" : 4,
      "componentType" : 5126,
      "count" : 3068,
      "type" : "VEC2"
    },
    {
      "bufferView" : 5,
      "componentType" : 5126,
      "count" : 3068,
      "type" : "VEC2"
    },
    {
      "bufferView" : 6,
      "componentType" : 5126,
      "count" : 3068,
      "type" : "VEC2"
    }
  ]
}
