{
  "asset" : {
    "generator" : "UE Viewer (umodel) build 1579 based",
    "version" : "2.0"
  },
  "scene" : 0,
  "scenes" : [
    {
      "nodes" : [ 0 ]
    }
  ],
  "nodes" : [
    {
      "name" : "S_pian_nb_004",
      "mesh" : 0
    }
  ],
  "materials" : [
    {
      "name" : "dummy_material_0",
      "pbrMetallicRoughness" : {
        "baseColorFactor" : [ 0.3, 0.3, 0.3, 1.0 ],
        "metallicFactor" : 0.1,
        "roughnessFactor" : 0.5
      }
    }
  ],
  "meshes" : [
    {
      "primitives" : [
        {
          "attributes" : {
            "POSITION" : 1,
            "NORMAL" : 2,
            "TANGENT" : 3,
            "TEXCOORD_0" : 4,
            "TEXCOORD_1" : 5,
            "TEXCOORD_2" : 6,
            "TEXCOORD_3" : 7
          },
          "indices" : 0,
          "material" : 0
        }
      ],
      "name" : "S_pian_nb_004"
    }
  ],
  "buffers" : [
    {
      "uri" : "S_pian_nb_004.bin",
      "byteLength" : 113520
    }
  ],
  "bufferViews" : [
    {
      "buffer" : 0,
      "byteOffset" : 0,
      "byteLength" : 3072
    },
    {
      "buffer" : 0,
      "byteOffset" : 3072,
      "byteLength" : 18408
    },
    {
      "buffer" : 0,
      "byteOffset" : 21480,
      "byteLength" : 18408
    },
    {
      "buffer" : 0,
      "byteOffset" : 39888,
      "byteLength" : 24544
    },
    {
      "buffer" : 0,
      "byteOffset" : 64432,
      "byteLength" : 12272
    },
    {
      "buffer" : 0,
      "byteOffset" : 76704,
      "byteLength" : 12272
    },
    {
      "buffer" : 0,
      "byteOffset" : 88976,
      "byteLength" : 12272
    },
    {
      "buffer" : 0,
      "byteOffset" : 101248,
      "byteLength" : 12272
    }
  ],
  "accessors" : [
    {
      "bufferView" : 0,
      "componentType" : 5123,
      "count" : 1536,
      "type" : "SCALAR"
    },
    {
      "bufferView" : 1,
      "min" : [ -0.00200024, -0.205135, -0.805016 ],
      "max" : [ -0.00199976, 0.20575, 0.805577 ],
      "componentType" : 5126,
      "count" : 1534,
      "type" : "VEC3"
    },
    {
      "bufferView" : 2,
      "componentType" : 5126,
      "count" : 1534,
      "type" : "VEC3"
    },
    {
      "bufferView" : 3,
      "componentType" : 5126,
      "count" : 1534,
      "type" : "VEC4"
    },
    {
      "bufferView" : 4,
      "componentType" : 5126,
      "count" : 1534,
      "type" : "VEC2"
    },
    {
      "bufferView" : 5,
      "componentType" : 5126,
      "count" : 1534,
      "type" : "VEC2"
    },
    {
      "bufferView" : 6,
      "componentType" : 5126,
      "count" : 1534,
      "type" : "VEC2"
    },
    {
      "bufferView" : 7,
      "componentType" : 5126,
      "count" : 1534,
      "type" : "VEC2"
    }
  ]
}
