{
  "asset" : {
    "generator" : "UE Viewer (umodel) build 1579 based",
    "version" : "2.0"
  },
  "scene" : 0,
  "scenes" : [
    {
      "nodes" : [ 0 ]
    }
  ],
  "nodes" : [
    {
      "name" : "S_Plane_5003_3",
      "mesh" : 0
    }
  ],
  "materials" : [
    {
      "name" : "dummy_material_0",
      "pbrMetallicRoughness" : {
        "baseColorFactor" : [ 0.3, 0.3, 0.3, 1.0 ],
        "metallicFactor" : 0.1,
        "roughnessFactor" : 0.5
      }
    }
  ],
  "meshes" : [
    {
      "primitives" : [
        {
          "attributes" : {
            "POSITION" : 1,
            "NORMAL" : 2,
            "TANGENT" : 3,
            "TEXCOORD_0" : 4,
            "TEXCOORD_1" : 5,
            "TEXCOORD_2" : 6
          },
          "indices" : 0,
          "material" : 0
        }
      ],
      "name" : "S_Plane_5003_3"
    }
  ],
  "buffers" : [
    {
      "uri" : "S_Plane_5003_3.bin",
      "byteLength" : 25560
    }
  ],
  "bufferViews" : [
    {
      "buffer" : 0,
      "byteOffset" : 0,
      "byteLength" : 3672
    },
    {
      "buffer" : 0,
      "byteOffset" : 3672,
      "byteLength" : 4104
    },
    {
      "buffer" : 0,
      "byteOffset" : 7776,
      "byteLength" : 4104
    },
    {
      "buffer" : 0,
      "byteOffset" : 11880,
      "byteLength" : 5472
    },
    {
      "buffer" : 0,
      "byteOffset" : 17352,
      "byteLength" : 2736
    },
    {
      "buffer" : 0,
      "byteOffset" : 20088,
      "byteLength" : 2736
    },
    {
      "buffer" : 0,
      "byteOffset" : 22824,
      "byteLength" : 2736
    }
  ],
  "accessors" : [
    {
      "bufferView" : 0,
      "componentType" : 5123,
      "count" : 1836,
      "type" : "SCALAR"
    },
    {
      "bufferView" : 1,
      "min" : [ -0.0154139, -3.15133e-19, -0.00756801 ],
      "max" : [ 0.00420893, 0.0278377, 0.00756801 ],
      "componentType" : 5126,
      "count" : 342,
      "type" : "VEC3"
    },
    {
      "bufferView" : 2,
      "componentType" : 5126,
      "count" : 342,
      "type" : "VEC3"
    },
    {
      "bufferView" : 3,
      "componentType" : 5126,
      "count" : 342,
      "type" : "VEC4"
    },
    {
      "bufferView" : 4,
      "componentType" : 5126,
      "count" : 342,
      "type" : "VEC2"
    },
    {
      "bufferView" : 5,
      "componentType" : 5126,
      "count" : 342,
      "type" : "VEC2"
    },
    {
      "bufferView" : 6,
      "componentType" : 5126,
      "count" : 342,
      "type" : "VEC2"
    }
  ]
}
