{
  "asset" : {
    "generator" : "UE Viewer (umodel) build 1579 based",
    "version" : "2.0"
  },
  "scene" : 0,
  "scenes" : [
    {
      "nodes" : [ 0 ]
    }
  ],
  "nodes" : [
    {
      "name" : "S_Plane_LKL_008",
      "mesh" : 0
    }
  ],
  "materials" : [
    {
      "name" : "dummy_material_0",
      "pbrMetallicRoughness" : {
        "baseColorFactor" : [ 0.3, 0.3, 0.3, 1.0 ],
        "metallicFactor" : 0.1,
        "roughnessFactor" : 0.5
      }
    }
  ],
  "meshes" : [
    {
      "primitives" : [
        {
          "attributes" : {
            "POSITION" : 1,
            "NORMAL" : 2,
            "TANGENT" : 3,
            "TEXCOORD_0" : 4,
            "TEXCOORD_1" : 5
          },
          "indices" : 0,
          "material" : 0
        }
      ],
      "name" : "S_Plane_LKL_008"
    }
  ],
  "buffers" : [
    {
      "uri" : "S_Plane_LKL_008.bin",
      "byteLength" : 7528
    }
  ],
  "bufferViews" : [
    {
      "buffer" : 0,
      "byteOffset" : 0,
      "byteLength" : 360
    },
    {
      "buffer" : 0,
      "byteOffset" : 360,
      "byteLength" : 1536
    },
    {
      "buffer" : 0,
      "byteOffset" : 1896,
      "byteLength" : 1536
    },
    {
      "buffer" : 0,
      "byteOffset" : 3432,
      "byteLength" : 2048
    },
    {
      "buffer" : 0,
      "byteOffset" : 5480,
      "byteLength" : 1024
    },
    {
      "buffer" : 0,
      "byteOffset" : 6504,
      "byteLength" : 1024
    }
  ],
  "accessors" : [
    {
      "bufferView" : 0,
      "componentType" : 5123,
      "count" : 180,
      "type" : "SCALAR"
    },
    {
      "bufferView" : 1,
      "min" : [ -0.278372, -0.0298653, -0.401906 ],
      "max" : [ 0.278372, 0.0298652, 0.401906 ],
      "componentType" : 5126,
      "count" : 128,
      "type" : "VEC3"
    },
    {
      "bufferView" : 2,
      "componentType" : 5126,
      "count" : 128,
      "type" : "VEC3"
    },
    {
      "bufferView" : 3,
      "componentType" : 5126,
      "count" : 128,
      "type" : "VEC4"
    },
    {
      "bufferView" : 4,
      "componentType" : 5126,
      "count" : 128,
      "type" : "VEC2"
    },
    {
      "bufferView" : 5,
      "componentType" : 5126,
      "count" : 128,
      "type" : "VEC2"
    }
  ]
}
