{
  "asset" : {
    "generator" : "UE Viewer (umodel) build 1579 based",
    "version" : "2.0"
  },
  "scene" : 0,
  "scenes" : [
    {
      "nodes" : [ 0 ]
    }
  ],
  "nodes" : [
    {
      "name" : "S_Plane_LKL_005",
      "mesh" : 0
    }
  ],
  "materials" : [
    {
      "name" : "dummy_material_0",
      "pbrMetallicRoughness" : {
        "baseColorFactor" : [ 0.3, 0.3, 0.3, 1.0 ],
        "metallicFactor" : 0.1,
        "roughnessFactor" : 0.5
      }
    }
  ],
  "meshes" : [
    {
      "primitives" : [
        {
          "attributes" : {
            "POSITION" : 1,
            "NORMAL" : 2,
            "TANGENT" : 3,
            "TEXCOORD_0" : 4,
            "TEXCOORD_1" : 5,
            "TEXCOORD_2" : 6
          },
          "indices" : 0,
          "material" : 0
        }
      ],
      "name" : "S_Plane_LKL_005"
    }
  ],
  "buffers" : [
    {
      "uri" : "S_Plane_LKL_005.bin",
      "byteLength" : 101120
    }
  ],
  "bufferViews" : [
    {
      "buffer" : 0,
      "byteOffset" : 0,
      "byteLength" : 3072
    },
    {
      "buffer" : 0,
      "byteOffset" : 3072,
      "byteLength" : 18384
    },
    {
      "buffer" : 0,
      "byteOffset" : 21456,
      "byteLength" : 18384
    },
    {
      "buffer" : 0,
      "byteOffset" : 39840,
      "byteLength" : 24512
    },
    {
      "buffer" : 0,
      "byteOffset" : 64352,
      "byteLength" : 12256
    },
    {
      "buffer" : 0,
      "byteOffset" : 76608,
      "byteLength" : 12256
    },
    {
      "buffer" : 0,
      "byteOffset" : 88864,
      "byteLength" : 12256
    }
  ],
  "accessors" : [
    {
      "bufferView" : 0,
      "componentType" : 5123,
      "count" : 1536,
      "type" : "SCALAR"
    },
    {
      "bufferView" : 1,
      "min" : [ -0.00200024, -0.205135, -0.805016 ],
      "max" : [ 0.00200003, 0.205266, 0.0037993 ],
      "componentType" : 5126,
      "count" : 1532,
      "type" : "VEC3"
    },
    {
      "bufferView" : 2,
      "componentType" : 5126,
      "count" : 1532,
      "type" : "VEC3"
    },
    {
      "bufferView" : 3,
      "componentType" : 5126,
      "count" : 1532,
      "type" : "VEC4"
    },
    {
      "bufferView" : 4,
      "componentType" : 5126,
      "count" : 1532,
      "type" : "VEC2"
    },
    {
      "bufferView" : 5,
      "componentType" : 5126,
      "count" : 1532,
      "type" : "VEC2"
    },
    {
      "bufferView" : 6,
      "componentType" : 5126,
      "count" : 1532,
      "type" : "VEC2"
    }
  ]
}
