{
  "asset" : {
    "generator" : "UE Viewer (umodel) build 1579 based",
    "version" : "2.0"
  },
  "scene" : 0,
  "scenes" : [
    {
      "nodes" : [ 0 ]
    }
  ],
  "nodes" : [
    {
      "name" : "S_Semicircle_003",
      "mesh" : 0
    }
  ],
  "materials" : [
    {
      "name" : "WorldGridMaterial",
      "pbrMetallicRoughness" : {
        "baseColorFactor" : [ 0.3, 0.3, 0.3, 1.0 ],
        "metallicFactor" : 0.1,
        "roughnessFactor" : 0.5
      }
    }
  ],
  "meshes" : [
    {
      "primitives" : [
        {
          "attributes" : {
            "POSITION" : 1,
            "NORMAL" : 2,
            "TANGENT" : 3,
            "TEXCOORD_0" : 4,
            "TEXCOORD_1" : 5
          },
          "indices" : 0,
          "material" : 0
        }
      ],
      "name" : "S_Semicircle_003"
    }
  ],
  "buffers" : [
    {
      "uri" : "S_Semicircle_003.bin",
      "byteLength" : 13704
    }
  ],
  "bufferViews" : [
    {
      "buffer" : 0,
      "byteOffset" : 0,
      "byteLength" : 2112
    },
    {
      "buffer" : 0,
      "byteOffset" : 2112,
      "byteLength" : 2484
    },
    {
      "buffer" : 0,
      "byteOffset" : 4596,
      "byteLength" : 2484
    },
    {
      "buffer" : 0,
      "byteOffset" : 7080,
      "byteLength" : 3312
    },
    {
      "buffer" : 0,
      "byteOffset" : 10392,
      "byteLength" : 1656
    },
    {
      "buffer" : 0,
      "byteOffset" : 12048,
      "byteLength" : 1656
    }
  ],
  "accessors" : [
    {
      "bufferView" : 0,
      "componentType" : 5123,
      "count" : 1056,
      "type" : "SCALAR"
    },
    {
      "bufferView" : 1,
      "min" : [ -0.5, -0.353553, -0.277786 ],
      "max" : [ 0.5, 0.353553, 0.5 ],
      "componentType" : 5126,
      "count" : 207,
      "type" : "VEC3"
    },
    {
      "bufferView" : 2,
      "componentType" : 5126,
      "count" : 207,
      "type" : "VEC3"
    },
    {
      "bufferView" : 3,
      "componentType" : 5126,
      "count" : 207,
      "type" : "VEC4"
    },
    {
      "bufferView" : 4,
      "componentType" : 5126,
      "count" : 207,
      "type" : "VEC2"
    },
    {
      "bufferView" : 5,
      "componentType" : 5126,
      "count" : 207,
      "type" : "VEC2"
    }
  ]
}
