{
  "asset" : {
    "generator" : "UE Viewer (umodel) build 1579 based",
    "version" : "2.0"
  },
  "scene" : 0,
  "scenes" : [
    {
      "nodes" : [ 0 ]
    }
  ],
  "nodes" : [
    {
      "name" : "S_Sphere_001",
      "mesh" : 0
    }
  ],
  "materials" : [
    {
      "name" : "WorldGridMaterial",
      "pbrMetallicRoughness" : {
        "baseColorFactor" : [ 0.3, 0.3, 0.3, 1.0 ],
        "metallicFactor" : 0.1,
        "roughnessFactor" : 0.5
      }
    }
  ],
  "meshes" : [
    {
      "primitives" : [
        {
          "attributes" : {
            "POSITION" : 1,
            "NORMAL" : 2,
            "TANGENT" : 3,
            "TEXCOORD_0" : 4,
            "TEXCOORD_1" : 5
          },
          "indices" : 0,
          "material" : 0
        }
      ],
      "name" : "S_Sphere_001"
    }
  ],
  "buffers" : [
    {
      "uri" : "S_Sphere_001.bin",
      "byteLength" : 75200
    }
  ],
  "bufferViews" : [
    {
      "buffer" : 0,
      "byteOffset" : 0,
      "byteLength" : 12144
    },
    {
      "buffer" : 0,
      "byteOffset" : 12144,
      "byteLength" : 13512
    },
    {
      "buffer" : 0,
      "byteOffset" : 25656,
      "byteLength" : 13512
    },
    {
      "buffer" : 0,
      "byteOffset" : 39168,
      "byteLength" : 18016
    },
    {
      "buffer" : 0,
      "byteOffset" : 57184,
      "byteLength" : 9008
    },
    {
      "buffer" : 0,
      "byteOffset" : 66192,
      "byteLength" : 9008
    }
  ],
  "accessors" : [
    {
      "bufferView" : 0,
      "componentType" : 5123,
      "count" : 6072,
      "type" : "SCALAR"
    },
    {
      "bufferView" : 1,
      "min" : [ -0.391867, -0.393701, -0.392783 ],
      "max" : [ 0.391867, 0.393701, 0.392783 ],
      "componentType" : 5126,
      "count" : 1126,
      "type" : "VEC3"
    },
    {
      "bufferView" : 2,
      "componentType" : 5126,
      "count" : 1126,
      "type" : "VEC3"
    },
    {
      "bufferView" : 3,
      "componentType" : 5126,
      "count" : 1126,
      "type" : "VEC4"
    },
    {
      "bufferView" : 4,
      "componentType" : 5126,
      "count" : 1126,
      "type" : "VEC2"
    },
    {
      "bufferView" : 5,
      "componentType" : 5126,
      "count" : 1126,
      "type" : "VEC2"
    }
  ]
}
