{
  "asset" : {
    "generator" : "UE Viewer (umodel) build 1579 based",
    "version" : "2.0"
  },
  "scene" : 0,
  "scenes" : [
    {
      "nodes" : [ 0 ]
    }
  ],
  "nodes" : [
    {
      "name" : "S_Sphere_Cbn_014",
      "mesh" : 0
    }
  ],
  "materials" : [
    {
      "name" : "WorldGridMaterial",
      "pbrMetallicRoughness" : {
        "baseColorFactor" : [ 0.3, 0.3, 0.3, 1.0 ],
        "metallicFactor" : 0.1,
        "roughnessFactor" : 0.5
      }
    }
  ],
  "meshes" : [
    {
      "primitives" : [
        {
          "attributes" : {
            "POSITION" : 1,
            "NORMAL" : 2,
            "TANGENT" : 3,
            "COLOR_0" : 4,
            "TEXCOORD_0" : 5
          },
          "indices" : 0,
          "material" : 0
        }
      ],
      "name" : "S_Sphere_Cbn_014"
    }
  ],
  "buffers" : [
    {
      "uri" : "S_Sphere_Cbn_014.bin",
      "byteLength" : 30800
    }
  ],
  "bufferViews" : [
    {
      "buffer" : 0,
      "byteOffset" : 0,
      "byteLength" : 4800
    },
    {
      "buffer" : 0,
      "byteOffset" : 4800,
      "byteLength" : 6000
    },
    {
      "buffer" : 0,
      "byteOffset" : 10800,
      "byteLength" : 6000
    },
    {
      "buffer" : 0,
      "byteOffset" : 16800,
      "byteLength" : 8000
    },
    {
      "buffer" : 0,
      "byteOffset" : 24800,
      "byteLength" : 2000
    },
    {
      "buffer" : 0,
      "byteOffset" : 26800,
      "byteLength" : 4000
    }
  ],
  "accessors" : [
    {
      "bufferView" : 0,
      "componentType" : 5123,
      "count" : 2400,
      "type" : "SCALAR"
    },
    {
      "bufferView" : 1,
      "min" : [ -0.769903, -0.0451941, -0.768384 ],
      "max" : [ 0.769903, 0.0451941, 0.768384 ],
      "componentType" : 5126,
      "count" : 500,
      "type" : "VEC3"
    },
    {
      "bufferView" : 2,
      "componentType" : 5126,
      "count" : 500,
      "type" : "VEC3"
    },
    {
      "bufferView" : 3,
      "componentType" : 5126,
      "count" : 500,
      "type" : "VEC4"
    },
    {
      "bufferView" : 4,
      "normalized" : true,
      "componentType" : 5121,
      "count" : 500,
      "type" : "VEC4"
    },
    {
      "bufferView" : 5,
      "componentType" : 5126,
      "count" : 500,
      "type" : "VEC2"
    }
  ]
}
