{
  "asset" : {
    "generator" : "UE Viewer (umodel) build 1579 based",
    "version" : "2.0"
  },
  "scene" : 0,
  "scenes" : [
    {
      "nodes" : [ 0 ]
    }
  ],
  "nodes" : [
    {
      "name" : "S_Sphere_2003",
      "mesh" : 0
    }
  ],
  "materials" : [
    {
      "name" : "WorldGridMaterial",
      "pbrMetallicRoughness" : {
        "baseColorFactor" : [ 0.3, 0.3, 0.3, 1.0 ],
        "metallicFactor" : 0.1,
        "roughnessFactor" : 0.5
      }
    }
  ],
  "meshes" : [
    {
      "primitives" : [
        {
          "attributes" : {
            "POSITION" : 1,
            "NORMAL" : 2,
            "TANGENT" : 3,
            "COLOR_0" : 4,
            "TEXCOORD_0" : 5,
            "TEXCOORD_1" : 6
          },
          "indices" : 0,
          "material" : 0
        }
      ],
      "name" : "S_Sphere_2003"
    }
  ],
  "buffers" : [
    {
      "uri" : "S_Sphere_2003.bin",
      "byteLength" : 39300
    }
  ],
  "bufferViews" : [
    {
      "buffer" : 0,
      "byteOffset" : 0,
      "byteLength" : 5760
    },
    {
      "buffer" : 0,
      "byteOffset" : 5760,
      "byteLength" : 6708
    },
    {
      "buffer" : 0,
      "byteOffset" : 12468,
      "byteLength" : 6708
    },
    {
      "buffer" : 0,
      "byteOffset" : 19176,
      "byteLength" : 8944
    },
    {
      "buffer" : 0,
      "byteOffset" : 28120,
      "byteLength" : 2236
    },
    {
      "buffer" : 0,
      "byteOffset" : 30356,
      "byteLength" : 4472
    },
    {
      "buffer" : 0,
      "byteOffset" : 34828,
      "byteLength" : 4472
    }
  ],
  "accessors" : [
    {
      "bufferView" : 0,
      "componentType" : 5123,
      "count" : 2880,
      "type" : "SCALAR"
    },
    {
      "bufferView" : 1,
      "min" : [ -1, -1, -1 ],
      "max" : [ 1, 1, 1 ],
      "componentType" : 5126,
      "count" : 559,
      "type" : "VEC3"
    },
    {
      "bufferView" : 2,
      "componentType" : 5126,
      "count" : 559,
      "type" : "VEC3"
    },
    {
      "bufferView" : 3,
      "componentType" : 5126,
      "count" : 559,
      "type" : "VEC4"
    },
    {
      "bufferView" : 4,
      "normalized" : true,
      "componentType" : 5121,
      "count" : 559,
      "type" : "VEC4"
    },
    {
      "bufferView" : 5,
      "componentType" : 5126,
      "count" : 559,
      "type" : "VEC2"
    },
    {
      "bufferView" : 6,
      "componentType" : 5126,
      "count" : 559,
      "type" : "VEC2"
    }
  ]
}
