{
  "asset" : {
    "generator" : "UE Viewer (umodel) build 1579 based",
    "version" : "2.0"
  },
  "scene" : 0,
  "scenes" : [
    {
      "nodes" : [ 0 ]
    }
  ],
  "nodes" : [
    {
      "name" : "S_Weap_M32_Ring02",
      "mesh" : 0
    }
  ],
  "materials" : [
    {
      "name" : "WorldGridMaterial",
      "pbrMetallicRoughness" : {
        "baseColorFactor" : [ 0.3, 0.3, 0.3, 1.0 ],
        "metallicFactor" : 0.1,
        "roughnessFactor" : 0.5
      }
    }
  ],
  "meshes" : [
    {
      "primitives" : [
        {
          "attributes" : {
            "POSITION" : 1,
            "NORMAL" : 2,
            "TANGENT" : 3,
            "TEXCOORD_0" : 4,
            "TEXCOORD_1" : 5,
            "TEXCOORD_2" : 6,
            "TEXCOORD_3" : 7,
            "TEXCOORD_4" : 8,
            "TEXCOORD_5" : 9
          },
          "indices" : 0,
          "material" : 0
        }
      ],
      "name" : "S_Weap_M32_Ring02"
    }
  ],
  "buffers" : [
    {
      "uri" : "S_Weap_M32_Ring02.bin",
      "byteLength" : 88720
    }
  ],
  "bufferViews" : [
    {
      "buffer" : 0,
      "byteOffset" : 0,
      "byteLength" : 5472
    },
    {
      "buffer" : 0,
      "byteOffset" : 5472,
      "byteLength" : 11352
    },
    {
      "buffer" : 0,
      "byteOffset" : 16824,
      "byteLength" : 11352
    },
    {
      "buffer" : 0,
      "byteOffset" : 28176,
      "byteLength" : 15136
    },
    {
      "buffer" : 0,
      "byteOffset" : 43312,
      "byteLength" : 7568
    },
    {
      "buffer" : 0,
      "byteOffset" : 50880,
      "byteLength" : 7568
    },
    {
      "buffer" : 0,
      "byteOffset" : 58448,
      "byteLength" : 7568
    },
    {
      "buffer" : 0,
      "byteOffset" : 66016,
      "byteLength" : 7568
    },
    {
      "buffer" : 0,
      "byteOffset" : 73584,
      "byteLength" : 7568
    },
    {
      "buffer" : 0,
      "byteOffset" : 81152,
      "byteLength" : 7568
    }
  ],
  "accessors" : [
    {
      "bufferView" : 0,
      "componentType" : 5123,
      "count" : 2736,
      "type" : "SCALAR"
    },
    {
      "bufferView" : 1,
      "min" : [ -0.061287, -0.0612876, -0.0104581 ],
      "max" : [ 0.0612883, 0.0612876, 0.0104581 ],
      "componentType" : 5126,
      "count" : 946,
      "type" : "VEC3"
    },
    {
      "bufferView" : 2,
      "componentType" : 5126,
      "count" : 946,
      "type" : "VEC3"
    },
    {
      "bufferView" : 3,
      "componentType" : 5126,
      "count" : 946,
      "type" : "VEC4"
    },
    {
      "bufferView" : 4,
      "componentType" : 5126,
      "count" : 946,
      "type" : "VEC2"
    },
    {
      "bufferView" : 5,
      "componentType" : 5126,
      "count" : 946,
      "type" : "VEC2"
    },
    {
      "bufferView" : 6,
      "componentType" : 5126,
      "count" : 946,
      "type" : "VEC2"
    },
    {
      "bufferView" : 7,
      "componentType" : 5126,
      "count" : 946,
      "type" : "VEC2"
    },
    {
      "bufferView" : 8,
      "componentType" : 5126,
      "count" : 946,
      "type" : "VEC2"
    },
    {
      "bufferView" : 9,
      "componentType" : 5126,
      "count" : 946,
      "type" : "VEC2"
    }
  ]
}
