{
  "asset" : {
    "generator" : "UE Viewer (umodel) build 1579 based",
    "version" : "2.0"
  },
  "scene" : 0,
  "scenes" : [
    {
      "nodes" : [ 0 ]
    }
  ],
  "nodes" : [
    {
      "name" : "S_Wlbl_Fish_02",
      "mesh" : 0
    }
  ],
  "materials" : [
    {
      "name" : "dummy_material_0",
      "pbrMetallicRoughness" : {
        "baseColorFactor" : [ 0.3, 0.3, 0.3, 1.0 ],
        "metallicFactor" : 0.1,
        "roughnessFactor" : 0.5
      }
    }
  ],
  "meshes" : [
    {
      "primitives" : [
        {
          "attributes" : {
            "POSITION" : 1,
            "NORMAL" : 2,
            "TANGENT" : 3,
            "TEXCOORD_0" : 4,
            "TEXCOORD_1" : 5,
            "TEXCOORD_2" : 6
          },
          "indices" : 0,
          "material" : 0
        }
      ],
      "name" : "S_Wlbl_Fish_02"
    }
  ],
  "buffers" : [
    {
      "uri" : "S_Wlbl_Fish_02.bin",
      "byteLength" : 3896
    }
  ],
  "bufferViews" : [
    {
      "buffer" : 0,
      "byteOffset" : 0,
      "byteLength" : 312
    },
    {
      "buffer" : 0,
      "byteOffset" : 312,
      "byteLength" : 672
    },
    {
      "buffer" : 0,
      "byteOffset" : 984,
      "byteLength" : 672
    },
    {
      "buffer" : 0,
      "byteOffset" : 1656,
      "byteLength" : 896
    },
    {
      "buffer" : 0,
      "byteOffset" : 2552,
      "byteLength" : 448
    },
    {
      "buffer" : 0,
      "byteOffset" : 3000,
      "byteLength" : 448
    },
    {
      "buffer" : 0,
      "byteOffset" : 3448,
      "byteLength" : 448
    }
  ],
  "accessors" : [
    {
      "bufferView" : 0,
      "componentType" : 5123,
      "count" : 156,
      "type" : "SCALAR"
    },
    {
      "bufferView" : 1,
      "min" : [ -0.0289472, -0.00713662, -0.0032718 ],
      "max" : [ 0.0286396, 0.00713662, 0.00273216 ],
      "componentType" : 5126,
      "count" : 56,
      "type" : "VEC3"
    },
    {
      "bufferView" : 2,
      "componentType" : 5126,
      "count" : 56,
      "type" : "VEC3"
    },
    {
      "bufferView" : 3,
      "componentType" : 5126,
      "count" : 56,
      "type" : "VEC4"
    },
    {
      "bufferView" : 4,
      "componentType" : 5126,
      "count" : 56,
      "type" : "VEC2"
    },
    {
      "bufferView" : 5,
      "componentType" : 5126,
      "count" : 56,
      "type" : "VEC2"
    },
    {
      "bufferView" : 6,
      "componentType" : 5126,
      "count" : 56,
      "type" : "VEC2"
    }
  ]
}
