{
  "asset" : {
    "generator" : "UE Viewer (umodel) build 1579 based",
    "version" : "2.0"
  },
  "scene" : 0,
  "scenes" : [
    {
      "nodes" : [ 0 ]
    }
  ],
  "nodes" : [
    {
      "name" : "S_Xinchang_Trap_003",
      "mesh" : 0
    }
  ],
  "materials" : [
    {
      "name" : "dummy_material_0",
      "pbrMetallicRoughness" : {
        "baseColorFactor" : [ 0.3, 0.3, 0.3, 1.0 ],
        "metallicFactor" : 0.1,
        "roughnessFactor" : 0.5
      }
    }
  ],
  "meshes" : [
    {
      "primitives" : [
        {
          "attributes" : {
            "POSITION" : 1,
            "NORMAL" : 2,
            "TANGENT" : 3,
            "TEXCOORD_0" : 4,
            "TEXCOORD_1" : 5
          },
          "indices" : 0,
          "material" : 0
        }
      ],
      "name" : "S_Xinchang_Trap_003"
    }
  ],
  "buffers" : [
    {
      "uri" : "S_Xinchang_Trap_003.bin",
      "byteLength" : 215048
    }
  ],
  "bufferViews" : [
    {
      "buffer" : 0,
      "byteOffset" : 0,
      "byteLength" : 17256
    },
    {
      "buffer" : 0,
      "byteOffset" : 17256,
      "byteLength" : 42384
    },
    {
      "buffer" : 0,
      "byteOffset" : 59640,
      "byteLength" : 42384
    },
    {
      "buffer" : 0,
      "byteOffset" : 102024,
      "byteLength" : 56512
    },
    {
      "buffer" : 0,
      "byteOffset" : 158536,
      "byteLength" : 28256
    },
    {
      "buffer" : 0,
      "byteOffset" : 186792,
      "byteLength" : 28256
    }
  ],
  "accessors" : [
    {
      "bufferView" : 0,
      "componentType" : 5123,
      "count" : 8628,
      "type" : "SCALAR"
    },
    {
      "bufferView" : 1,
      "min" : [ -0.094111, -3.84656e-09, -0.094111 ],
      "max" : [ 0.094111, 0.0720966, 0.094111 ],
      "componentType" : 5126,
      "count" : 3532,
      "type" : "VEC3"
    },
    {
      "bufferView" : 2,
      "componentType" : 5126,
      "count" : 3532,
      "type" : "VEC3"
    },
    {
      "bufferView" : 3,
      "componentType" : 5126,
      "count" : 3532,
      "type" : "VEC4"
    },
    {
      "bufferView" : 4,
      "componentType" : 5126,
      "count" : 3532,
      "type" : "VEC2"
    },
    {
      "bufferView" : 5,
      "componentType" : 5126,
      "count" : 3532,
      "type" : "VEC2"
    }
  ]
}
