{
  "asset" : {
    "generator" : "UE Viewer (umodel) build 1579 based",
    "version" : "2.0"
  },
  "scene" : 0,
  "scenes" : [
    {
      "nodes" : [ 0 ]
    }
  ],
  "nodes" : [
    {
      "name" : "S_yuan_ygw_002",
      "mesh" : 0
    }
  ],
  "materials" : [
    {
      "name" : "WorldGridMaterial",
      "pbrMetallicRoughness" : {
        "baseColorFactor" : [ 0.3, 0.3, 0.3, 1.0 ],
        "metallicFactor" : 0.1,
        "roughnessFactor" : 0.5
      }
    }
  ],
  "meshes" : [
    {
      "primitives" : [
        {
          "attributes" : {
            "POSITION" : 1,
            "NORMAL" : 2,
            "TANGENT" : 3,
            "TEXCOORD_0" : 4,
            "TEXCOORD_1" : 5
          },
          "indices" : 0,
          "material" : 0
        }
      ],
      "name" : "S_yuan_ygw_002"
    }
  ],
  "buffers" : [
    {
      "uri" : "S_yuan_ygw_002.bin",
      "byteLength" : 45356
    }
  ],
  "bufferViews" : [
    {
      "buffer" : 0,
      "byteOffset" : 0,
      "byteLength" : 7500
    },
    {
      "buffer" : 0,
      "byteOffset" : 7500,
      "byteLength" : 8112
    },
    {
      "buffer" : 0,
      "byteOffset" : 15612,
      "byteLength" : 8112
    },
    {
      "buffer" : 0,
      "byteOffset" : 23724,
      "byteLength" : 10816
    },
    {
      "buffer" : 0,
      "byteOffset" : 34540,
      "byteLength" : 5408
    },
    {
      "buffer" : 0,
      "byteOffset" : 39948,
      "byteLength" : 5408
    }
  ],
  "accessors" : [
    {
      "bufferView" : 0,
      "componentType" : 5123,
      "count" : 3750,
      "type" : "SCALAR"
    },
    {
      "bufferView" : 1,
      "min" : [ -0.0549945, -0.000324121, -0.0508098 ],
      "max" : [ 0.0549945, 0.114324, 0.0589621 ],
      "componentType" : 5126,
      "count" : 676,
      "type" : "VEC3"
    },
    {
      "bufferView" : 2,
      "componentType" : 5126,
      "count" : 676,
      "type" : "VEC3"
    },
    {
      "bufferView" : 3,
      "componentType" : 5126,
      "count" : 676,
      "type" : "VEC4"
    },
    {
      "bufferView" : 4,
      "componentType" : 5126,
      "count" : 676,
      "type" : "VEC2"
    },
    {
      "bufferView" : 5,
      "componentType" : 5126,
      "count" : 676,
      "type" : "VEC2"
    }
  ]
}
