{
  "asset" : {
    "generator" : "UE Viewer (umodel) build 1579 based",
    "version" : "2.0"
  },
  "scene" : 0,
  "scenes" : [
    {
      "nodes" : [ 0 ]
    }
  ],
  "nodes" : [
    {
      "name" : "S_yuan_ygw_001",
      "mesh" : 0
    }
  ],
  "materials" : [
    {
      "name" : "WorldGridMaterial",
      "pbrMetallicRoughness" : {
        "baseColorFactor" : [ 0.3, 0.3, 0.3, 1.0 ],
        "metallicFactor" : 0.1,
        "roughnessFactor" : 0.5
      }
    }
  ],
  "meshes" : [
    {
      "primitives" : [
        {
          "attributes" : {
            "POSITION" : 1,
            "NORMAL" : 2,
            "TANGENT" : 3,
            "TEXCOORD_0" : 4,
            "TEXCOORD_1" : 5
          },
          "indices" : 0,
          "material" : 0
        }
      ],
      "name" : "S_yuan_ygw_001"
    }
  ],
  "buffers" : [
    {
      "uri" : "S_yuan_ygw_001.bin",
      "byteLength" : 25640
    }
  ],
  "bufferViews" : [
    {
      "buffer" : 0,
      "byteOffset" : 0,
      "byteLength" : 4080
    },
    {
      "buffer" : 0,
      "byteOffset" : 4080,
      "byteLength" : 4620
    },
    {
      "buffer" : 0,
      "byteOffset" : 8700,
      "byteLength" : 4620
    },
    {
      "buffer" : 0,
      "byteOffset" : 13320,
      "byteLength" : 6160
    },
    {
      "buffer" : 0,
      "byteOffset" : 19480,
      "byteLength" : 3080
    },
    {
      "buffer" : 0,
      "byteOffset" : 22560,
      "byteLength" : 3080
    }
  ],
  "accessors" : [
    {
      "bufferView" : 0,
      "componentType" : 5123,
      "count" : 2040,
      "type" : "SCALAR"
    },
    {
      "bufferView" : 1,
      "min" : [ -0.204494, -1.22568e-17, -0.205986 ],
      "max" : [ 0.206855, 0.694007, 0.200169 ],
      "componentType" : 5126,
      "count" : 385,
      "type" : "VEC3"
    },
    {
      "bufferView" : 2,
      "componentType" : 5126,
      "count" : 385,
      "type" : "VEC3"
    },
    {
      "bufferView" : 3,
      "componentType" : 5126,
      "count" : 385,
      "type" : "VEC4"
    },
    {
      "bufferView" : 4,
      "componentType" : 5126,
      "count" : 385,
      "type" : "VEC2"
    },
    {
      "bufferView" : 5,
      "componentType" : 5126,
      "count" : 385,
      "type" : "VEC2"
    }
  ]
}
