{
  "asset" : {
    "generator" : "UE Viewer (umodel) build 1579 based",
    "version" : "2.0"
  },
  "scene" : 0,
  "scenes" : [
    {
      "nodes" : [ 0 ]
    }
  ],
  "nodes" : [
    {
      "name" : "SM_Audrey_Show_Smoke_01",
      "mesh" : 0
    }
  ],
  "materials" : [
    {
      "name" : "WorldGridMaterial",
      "pbrMetallicRoughness" : {
        "baseColorFactor" : [ 0.3, 0.3, 0.3, 1.0 ],
        "metallicFactor" : 0.1,
        "roughnessFactor" : 0.5
      }
    }
  ],
  "meshes" : [
    {
      "primitives" : [
        {
          "attributes" : {
            "POSITION" : 1,
            "NORMAL" : 2,
            "TANGENT" : 3,
            "TEXCOORD_0" : 4
          },
          "indices" : 0,
          "material" : 0
        }
      ],
      "name" : "SM_Audrey_Show_Smoke_01"
    }
  ],
  "buffers" : [
    {
      "uri" : "SM_Audrey_Show_Smoke_01.bin",
      "byteLength" : 3768
    }
  ],
  "bufferViews" : [
    {
      "buffer" : 0,
      "byteOffset" : 0,
      "byteLength" : 600
    },
    {
      "buffer" : 0,
      "byteOffset" : 600,
      "byteLength" : 792
    },
    {
      "buffer" : 0,
      "byteOffset" : 1392,
      "byteLength" : 792
    },
    {
      "buffer" : 0,
      "byteOffset" : 2184,
      "byteLength" : 1056
    },
    {
      "buffer" : 0,
      "byteOffset" : 3240,
      "byteLength" : 528
    }
  ],
  "accessors" : [
    {
      "bufferView" : 0,
      "componentType" : 5123,
      "count" : 300,
      "type" : "SCALAR"
    },
    {
      "bufferView" : 1,
      "min" : [ -1.46253, -0.0227412, -2.9457e-08 ],
      "max" : [ 0.00617644, 1.48914, 2.1686e-07 ],
      "componentType" : 5126,
      "count" : 66,
      "type" : "VEC3"
    },
    {
      "bufferView" : 2,
      "componentType" : 5126,
      "count" : 66,
      "type" : "VEC3"
    },
    {
      "bufferView" : 3,
      "componentType" : 5126,
      "count" : 66,
      "type" : "VEC4"
    },
    {
      "bufferView" : 4,
      "componentType" : 5126,
      "count" : 66,
      "type" : "VEC2"
    }
  ]
}
