{
  "asset" : {
    "generator" : "UE Viewer (umodel) build 1579 based",
    "version" : "2.0"
  },
  "scene" : 0,
  "scenes" : [
    {
      "nodes" : [ 0 ]
    }
  ],
  "nodes" : [
    {
      "name" : "SM_FZFBase_CSY_01",
      "mesh" : 0
    }
  ],
  "materials" : [
    {
      "name" : "WorldGridMaterial",
      "pbrMetallicRoughness" : {
        "baseColorFactor" : [ 0.3, 0.3, 0.3, 1.0 ],
        "metallicFactor" : 0.1,
        "roughnessFactor" : 0.5
      }
    }
  ],
  "meshes" : [
    {
      "primitives" : [
        {
          "attributes" : {
            "POSITION" : 1,
            "NORMAL" : 2,
            "TANGENT" : 3,
            "TEXCOORD_0" : 4
          },
          "indices" : 0,
          "material" : 0
        }
      ],
      "name" : "SM_FZFBase_CSY_01"
    }
  ],
  "buffers" : [
    {
      "uri" : "SM_FZFBase_CSY_01.bin",
      "byteLength" : 152400
    }
  ],
  "bufferViews" : [
    {
      "buffer" : 0,
      "byteOffset" : 0,
      "byteLength" : 6096
    },
    {
      "buffer" : 0,
      "byteOffset" : 6096,
      "byteLength" : 36576
    },
    {
      "buffer" : 0,
      "byteOffset" : 42672,
      "byteLength" : 36576
    },
    {
      "buffer" : 0,
      "byteOffset" : 79248,
      "byteLength" : 48768
    },
    {
      "buffer" : 0,
      "byteOffset" : 128016,
      "byteLength" : 24384
    }
  ],
  "accessors" : [
    {
      "bufferView" : 0,
      "componentType" : 5123,
      "count" : 3048,
      "type" : "SCALAR"
    },
    {
      "bufferView" : 1,
      "min" : [ 2.48785, 18.5465, 172.373 ],
      "max" : [ 23.4946, 68.5925, 222.511 ],
      "componentType" : 5126,
      "count" : 3048,
      "type" : "VEC3"
    },
    {
      "bufferView" : 2,
      "componentType" : 5126,
      "count" : 3048,
      "type" : "VEC3"
    },
    {
      "bufferView" : 3,
      "componentType" : 5126,
      "count" : 3048,
      "type" : "VEC4"
    },
    {
      "bufferView" : 4,
      "componentType" : 5126,
      "count" : 3048,
      "type" : "VEC2"
    }
  ]
}
