{
  "asset" : {
    "generator" : "UE Viewer (umodel) build 1579 based",
    "version" : "2.0"
  },
  "scene" : 0,
  "scenes" : [
    {
      "nodes" : [ 0 ]
    }
  ],
  "nodes" : [
    {
      "name" : "SM_Fyz_CSY_002",
      "mesh" : 0
    }
  ],
  "materials" : [
    {
      "name" : "WorldGridMaterial",
      "pbrMetallicRoughness" : {
        "baseColorFactor" : [ 0.3, 0.3, 0.3, 1.0 ],
        "metallicFactor" : 0.1,
        "roughnessFactor" : 0.5
      }
    }
  ],
  "meshes" : [
    {
      "primitives" : [
        {
          "attributes" : {
            "POSITION" : 1,
            "NORMAL" : 2,
            "TANGENT" : 3,
            "TEXCOORD_0" : 4,
            "TEXCOORD_1" : 5,
            "TEXCOORD_2" : 6
          },
          "indices" : 0,
          "material" : 0
        }
      ],
      "name" : "SM_Fyz_CSY_002"
    }
  ],
  "buffers" : [
    {
      "uri" : "SM_Fyz_CSY_002.bin",
      "byteLength" : 177992
    }
  ],
  "bufferViews" : [
    {
      "buffer" : 0,
      "byteOffset" : 0,
      "byteLength" : 6792
    },
    {
      "buffer" : 0,
      "byteOffset" : 6792,
      "byteLength" : 32100
    },
    {
      "buffer" : 0,
      "byteOffset" : 38892,
      "byteLength" : 32100
    },
    {
      "buffer" : 0,
      "byteOffset" : 70992,
      "byteLength" : 42800
    },
    {
      "buffer" : 0,
      "byteOffset" : 113792,
      "byteLength" : 21400
    },
    {
      "buffer" : 0,
      "byteOffset" : 135192,
      "byteLength" : 21400
    },
    {
      "buffer" : 0,
      "byteOffset" : 156592,
      "byteLength" : 21400
    }
  ],
  "accessors" : [
    {
      "bufferView" : 0,
      "componentType" : 5123,
      "count" : 3396,
      "type" : "SCALAR"
    },
    {
      "bufferView" : 1,
      "min" : [ -4.14066, -1.25679, -0.660978 ],
      "max" : [ 4.14066, 1.25639, 0.660979 ],
      "componentType" : 5126,
      "count" : 2675,
      "type" : "VEC3"
    },
    {
      "bufferView" : 2,
      "componentType" : 5126,
      "count" : 2675,
      "type" : "VEC3"
    },
    {
      "bufferView" : 3,
      "componentType" : 5126,
      "count" : 2675,
      "type" : "VEC4"
    },
    {
      "bufferView" : 4,
      "componentType" : 5126,
      "count" : 2675,
      "type" : "VEC2"
    },
    {
      "bufferView" : 5,
      "componentType" : 5126,
      "count" : 2675,
      "type" : "VEC2"
    },
    {
      "bufferView" : 6,
      "componentType" : 5126,
      "count" : 2675,
      "type" : "VEC2"
    }
  ]
}
