{
  "asset" : {
    "generator" : "UE Viewer (umodel) build 1579 based",
    "version" : "2.0"
  },
  "scene" : 0,
  "scenes" : [
    {
      "nodes" : [ 0 ]
    }
  ],
  "nodes" : [
    {
      "name" : "SM_Kanami_WZ_004",
      "mesh" : 0
    }
  ],
  "materials" : [
    {
      "name" : "dummy_material_0",
      "pbrMetallicRoughness" : {
        "baseColorFactor" : [ 0.3, 0.3, 0.3, 1.0 ],
        "metallicFactor" : 0.1,
        "roughnessFactor" : 0.5
      }
    }
  ],
  "meshes" : [
    {
      "primitives" : [
        {
          "attributes" : {
            "POSITION" : 1,
            "NORMAL" : 2,
            "TANGENT" : 3,
            "TEXCOORD_0" : 4
          },
          "indices" : 0,
          "material" : 0
        }
      ],
      "name" : "SM_Kanami_WZ_004"
    }
  ],
  "buffers" : [
    {
      "uri" : "SM_Kanami_WZ_004.bin",
      "byteLength" : 10356
    }
  ],
  "bufferViews" : [
    {
      "buffer" : 0,
      "byteOffset" : 0,
      "byteLength" : 1140
    },
    {
      "buffer" : 0,
      "byteOffset" : 1140,
      "byteLength" : 2304
    },
    {
      "buffer" : 0,
      "byteOffset" : 3444,
      "byteLength" : 2304
    },
    {
      "buffer" : 0,
      "byteOffset" : 5748,
      "byteLength" : 3072
    },
    {
      "buffer" : 0,
      "byteOffset" : 8820,
      "byteLength" : 1536
    }
  ],
  "accessors" : [
    {
      "bufferView" : 0,
      "componentType" : 5123,
      "count" : 570,
      "type" : "SCALAR"
    },
    {
      "bufferView" : 1,
      "min" : [ -0.892764, -0.142521, -2.04998 ],
      "max" : [ 0.473957, 0.142521, 0.0318628 ],
      "componentType" : 5126,
      "count" : 192,
      "type" : "VEC3"
    },
    {
      "bufferView" : 2,
      "componentType" : 5126,
      "count" : 192,
      "type" : "VEC3"
    },
    {
      "bufferView" : 3,
      "componentType" : 5126,
      "count" : 192,
      "type" : "VEC4"
    },
    {
      "bufferView" : 4,
      "componentType" : 5126,
      "count" : 192,
      "type" : "VEC2"
    }
  ]
}
