{
  "asset" : {
    "generator" : "UE Viewer (umodel) build 1579 based",
    "version" : "2.0"
  },
  "scene" : 0,
  "scenes" : [
    {
      "nodes" : [ 0 ]
    }
  ],
  "nodes" : [
    {
      "name" : "SM_Maddelena_Show_Circular_01",
      "mesh" : 0
    }
  ],
  "materials" : [
    {
      "name" : "WorldGridMaterial",
      "pbrMetallicRoughness" : {
        "baseColorFactor" : [ 0.3, 0.3, 0.3, 1.0 ],
        "metallicFactor" : 0.1,
        "roughnessFactor" : 0.5
      }
    }
  ],
  "meshes" : [
    {
      "primitives" : [
        {
          "attributes" : {
            "POSITION" : 1,
            "NORMAL" : 2,
            "TANGENT" : 3,
            "TEXCOORD_0" : 4
          },
          "indices" : 0,
          "material" : 0
        }
      ],
      "name" : "SM_Maddelena_Show_Circular_01"
    }
  ],
  "buffers" : [
    {
      "uri" : "SM_Maddelena_Show_Circular_01.bin",
      "byteLength" : 42672
    }
  ],
  "bufferViews" : [
    {
      "buffer" : 0,
      "byteOffset" : 0,
      "byteLength" : 7680
    },
    {
      "buffer" : 0,
      "byteOffset" : 7680,
      "byteLength" : 8748
    },
    {
      "buffer" : 0,
      "byteOffset" : 16428,
      "byteLength" : 8748
    },
    {
      "buffer" : 0,
      "byteOffset" : 25176,
      "byteLength" : 11664
    },
    {
      "buffer" : 0,
      "byteOffset" : 36840,
      "byteLength" : 5832
    }
  ],
  "accessors" : [
    {
      "bufferView" : 0,
      "componentType" : 5123,
      "count" : 3840,
      "type" : "SCALAR"
    },
    {
      "bufferView" : 1,
      "min" : [ -0.4235, -2.59319e-17, -0.4235 ],
      "max" : [ 0.4235, 2.59319e-17, 0.4235 ],
      "componentType" : 5126,
      "count" : 729,
      "type" : "VEC3"
    },
    {
      "bufferView" : 2,
      "componentType" : 5126,
      "count" : 729,
      "type" : "VEC3"
    },
    {
      "bufferView" : 3,
      "componentType" : 5126,
      "count" : 729,
      "type" : "VEC4"
    },
    {
      "bufferView" : 4,
      "componentType" : 5126,
      "count" : 729,
      "type" : "VEC2"
    }
  ]
}
