{
  "asset" : {
    "generator" : "UE Viewer (umodel) build 1579 based",
    "version" : "2.0"
  },
  "scene" : 0,
  "scenes" : [
    {
      "nodes" : [ 0 ]
    }
  ],
  "nodes" : [
    {
      "name" : "SM_Olgk_CSY_003",
      "mesh" : 0
    }
  ],
  "materials" : [
    {
      "name" : "WorldGridMaterial",
      "pbrMetallicRoughness" : {
        "baseColorFactor" : [ 0.3, 0.3, 0.3, 1.0 ],
        "metallicFactor" : 0.1,
        "roughnessFactor" : 0.5
      }
    }
  ],
  "meshes" : [
    {
      "primitives" : [
        {
          "attributes" : {
            "POSITION" : 1,
            "NORMAL" : 2,
            "TANGENT" : 3,
            "TEXCOORD_0" : 4,
            "TEXCOORD_1" : 5
          },
          "indices" : 0,
          "material" : 0
        }
      ],
      "name" : "SM_Olgk_CSY_003"
    }
  ],
  "buffers" : [
    {
      "uri" : "SM_Olgk_CSY_003.bin",
      "byteLength" : 16072
    }
  ],
  "bufferViews" : [
    {
      "buffer" : 0,
      "byteOffset" : 0,
      "byteLength" : 2520
    },
    {
      "buffer" : 0,
      "byteOffset" : 2520,
      "byteLength" : 2904
    },
    {
      "buffer" : 0,
      "byteOffset" : 5424,
      "byteLength" : 2904
    },
    {
      "buffer" : 0,
      "byteOffset" : 8328,
      "byteLength" : 3872
    },
    {
      "buffer" : 0,
      "byteOffset" : 12200,
      "byteLength" : 1936
    },
    {
      "buffer" : 0,
      "byteOffset" : 14136,
      "byteLength" : 1936
    }
  ],
  "accessors" : [
    {
      "bufferView" : 0,
      "componentType" : 5123,
      "count" : 1260,
      "type" : "SCALAR"
    },
    {
      "bufferView" : 1,
      "min" : [ -1.06322, -6.51037e-17, -1.06322 ],
      "max" : [ 1.06322, 1.72141, 1.06322 ],
      "componentType" : 5126,
      "count" : 242,
      "type" : "VEC3"
    },
    {
      "bufferView" : 2,
      "componentType" : 5126,
      "count" : 242,
      "type" : "VEC3"
    },
    {
      "bufferView" : 3,
      "componentType" : 5126,
      "count" : 242,
      "type" : "VEC4"
    },
    {
      "bufferView" : 4,
      "componentType" : 5126,
      "count" : 242,
      "type" : "VEC2"
    },
    {
      "bufferView" : 5,
      "componentType" : 5126,
      "count" : 242,
      "type" : "VEC2"
    }
  ]
}
