{
  "asset" : {
    "generator" : "UE Viewer (umodel) build 1579 based",
    "version" : "2.0"
  },
  "scene" : 0,
  "scenes" : [
    {
      "nodes" : [ 0 ]
    }
  ],
  "nodes" : [
    {
      "name" : "SM_SmokeBomb_NB_002",
      "mesh" : 0
    }
  ],
  "materials" : [
    {
      "name" : "dummy_material_0",
      "pbrMetallicRoughness" : {
        "baseColorFactor" : [ 0.3, 0.3, 0.3, 1.0 ],
        "metallicFactor" : 0.1,
        "roughnessFactor" : 0.5
      }
    }
  ],
  "meshes" : [
    {
      "primitives" : [
        {
          "attributes" : {
            "POSITION" : 1,
            "NORMAL" : 2,
            "TANGENT" : 3,
            "TEXCOORD_0" : 4,
            "TEXCOORD_1" : 5
          },
          "indices" : 0,
          "material" : 0
        }
      ],
      "name" : "SM_SmokeBomb_NB_002"
    }
  ],
  "buffers" : [
    {
      "uri" : "SM_SmokeBomb_NB_002.bin",
      "byteLength" : 34864
    }
  ],
  "bufferViews" : [
    {
      "buffer" : 0,
      "byteOffset" : 0,
      "byteLength" : 2160
    },
    {
      "buffer" : 0,
      "byteOffset" : 2160,
      "byteLength" : 7008
    },
    {
      "buffer" : 0,
      "byteOffset" : 9168,
      "byteLength" : 7008
    },
    {
      "buffer" : 0,
      "byteOffset" : 16176,
      "byteLength" : 9344
    },
    {
      "buffer" : 0,
      "byteOffset" : 25520,
      "byteLength" : 4672
    },
    {
      "buffer" : 0,
      "byteOffset" : 30192,
      "byteLength" : 4672
    }
  ],
  "accessors" : [
    {
      "bufferView" : 0,
      "componentType" : 5123,
      "count" : 1080,
      "type" : "SCALAR"
    },
    {
      "bufferView" : 1,
      "min" : [ -1.17133, -0.145668, -1.114 ],
      "max" : [ 1.17133, 1.27162, 1.114 ],
      "componentType" : 5126,
      "count" : 584,
      "type" : "VEC3"
    },
    {
      "bufferView" : 2,
      "componentType" : 5126,
      "count" : 584,
      "type" : "VEC3"
    },
    {
      "bufferView" : 3,
      "componentType" : 5126,
      "count" : 584,
      "type" : "VEC4"
    },
    {
      "bufferView" : 4,
      "componentType" : 5126,
      "count" : 584,
      "type" : "VEC2"
    },
    {
      "bufferView" : 5,
      "componentType" : 5126,
      "count" : 584,
      "type" : "VEC2"
    }
  ]
}
