{
  "asset" : {
    "generator" : "UE Viewer (umodel) build 1579 based",
    "version" : "2.0"
  },
  "scene" : 0,
  "scenes" : [
    {
      "nodes" : [ 0 ]
    }
  ],
  "nodes" : [
    {
      "name" : "SM_Xinghui_CSY_009",
      "mesh" : 0
    }
  ],
  "materials" : [
    {
      "name" : "WorldGridMaterial",
      "pbrMetallicRoughness" : {
        "baseColorFactor" : [ 0.3, 0.3, 0.3, 1.0 ],
        "metallicFactor" : 0.1,
        "roughnessFactor" : 0.5
      }
    }
  ],
  "meshes" : [
    {
      "primitives" : [
        {
          "attributes" : {
            "POSITION" : 1,
            "NORMAL" : 2,
            "TANGENT" : 3,
            "TEXCOORD_0" : 4,
            "TEXCOORD_1" : 5
          },
          "indices" : 0,
          "material" : 0
        }
      ],
      "name" : "SM_Xinghui_CSY_009"
    }
  ],
  "buffers" : [
    {
      "uri" : "SM_Xinghui_CSY_009.bin",
      "byteLength" : 50952
    }
  ],
  "bufferViews" : [
    {
      "buffer" : 0,
      "byteOffset" : 0,
      "byteLength" : 8448
    },
    {
      "buffer" : 0,
      "byteOffset" : 8448,
      "byteLength" : 9108
    },
    {
      "buffer" : 0,
      "byteOffset" : 17556,
      "byteLength" : 9108
    },
    {
      "buffer" : 0,
      "byteOffset" : 26664,
      "byteLength" : 12144
    },
    {
      "buffer" : 0,
      "byteOffset" : 38808,
      "byteLength" : 6072
    },
    {
      "buffer" : 0,
      "byteOffset" : 44880,
      "byteLength" : 6072
    }
  ],
  "accessors" : [
    {
      "bufferView" : 0,
      "componentType" : 5123,
      "count" : 4224,
      "type" : "SCALAR"
    },
    {
      "bufferView" : 1,
      "min" : [ -0.498054, -0.500034, -0.498054 ],
      "max" : [ 0.498054, 0.500558, 0.498054 ],
      "componentType" : 5126,
      "count" : 759,
      "type" : "VEC3"
    },
    {
      "bufferView" : 2,
      "componentType" : 5126,
      "count" : 759,
      "type" : "VEC3"
    },
    {
      "bufferView" : 3,
      "componentType" : 5126,
      "count" : 759,
      "type" : "VEC4"
    },
    {
      "bufferView" : 4,
      "componentType" : 5126,
      "count" : 759,
      "type" : "VEC2"
    },
    {
      "bufferView" : 5,
      "componentType" : 5126,
      "count" : 759,
      "type" : "VEC2"
    }
  ]
}
