{
  "asset" : {
    "generator" : "UE Viewer (umodel) build 1579 based",
    "version" : "2.0"
  },
  "scene" : 0,
  "scenes" : [
    {
      "nodes" : [ 0 ]
    }
  ],
  "nodes" : [
    {
      "name" : "SM_Xinghui_CSY_001",
      "mesh" : 0
    }
  ],
  "materials" : [
    {
      "name" : "WorldGridMaterial",
      "pbrMetallicRoughness" : {
        "baseColorFactor" : [ 0.3, 0.3, 0.3, 1.0 ],
        "metallicFactor" : 0.1,
        "roughnessFactor" : 0.5
      }
    }
  ],
  "meshes" : [
    {
      "primitives" : [
        {
          "attributes" : {
            "POSITION" : 1,
            "NORMAL" : 2,
            "TANGENT" : 3,
            "TEXCOORD_0" : 4,
            "TEXCOORD_1" : 5
          },
          "indices" : 0,
          "material" : 0
        }
      ],
      "name" : "SM_Xinghui_CSY_001"
    }
  ],
  "buffers" : [
    {
      "uri" : "SM_Xinghui_CSY_001.bin",
      "byteLength" : 10032
    }
  ],
  "bufferViews" : [
    {
      "buffer" : 0,
      "byteOffset" : 0,
      "byteLength" : 1352
    },
    {
      "buffer" : 0,
      "byteOffset" : 1352,
      "byteLength" : 1860
    },
    {
      "buffer" : 0,
      "byteOffset" : 3212,
      "byteLength" : 1860
    },
    {
      "buffer" : 0,
      "byteOffset" : 5072,
      "byteLength" : 2480
    },
    {
      "buffer" : 0,
      "byteOffset" : 7552,
      "byteLength" : 1240
    },
    {
      "buffer" : 0,
      "byteOffset" : 8792,
      "byteLength" : 1240
    }
  ],
  "accessors" : [
    {
      "bufferView" : 0,
      "componentType" : 5123,
      "count" : 675,
      "type" : "SCALAR"
    },
    {
      "bufferView" : 1,
      "min" : [ -0.033825, -0.690216, -0.687112 ],
      "max" : [ 0.0515461, 0.648471, 0.56205 ],
      "componentType" : 5126,
      "count" : 155,
      "type" : "VEC3"
    },
    {
      "bufferView" : 2,
      "componentType" : 5126,
      "count" : 155,
      "type" : "VEC3"
    },
    {
      "bufferView" : 3,
      "componentType" : 5126,
      "count" : 155,
      "type" : "VEC4"
    },
    {
      "bufferView" : 4,
      "componentType" : 5126,
      "count" : 155,
      "type" : "VEC2"
    },
    {
      "bufferView" : 5,
      "componentType" : 5126,
      "count" : 155,
      "type" : "VEC2"
    }
  ]
}
