{
  "asset" : {
    "generator" : "UE Viewer (umodel) build 1579 based",
    "version" : "2.0"
  },
  "scene" : 0,
  "scenes" : [
    {
      "nodes" : [ 0 ]
    }
  ],
  "nodes" : [
    {
      "name" : "SM_Xinghui_CSY_014",
      "mesh" : 0
    }
  ],
  "materials" : [
    {
      "name" : "WorldGridMaterial",
      "pbrMetallicRoughness" : {
        "baseColorFactor" : [ 0.3, 0.3, 0.3, 1.0 ],
        "metallicFactor" : 0.1,
        "roughnessFactor" : 0.5
      }
    }
  ],
  "meshes" : [
    {
      "primitives" : [
        {
          "attributes" : {
            "POSITION" : 1,
            "NORMAL" : 2,
            "TANGENT" : 3,
            "TEXCOORD_0" : 4
          },
          "indices" : 0,
          "material" : 0
        }
      ],
      "name" : "SM_Xinghui_CSY_014"
    }
  ],
  "buffers" : [
    {
      "uri" : "SM_Xinghui_CSY_014.bin",
      "byteLength" : 14640
    }
  ],
  "bufferViews" : [
    {
      "buffer" : 0,
      "byteOffset" : 0,
      "byteLength" : 2400
    },
    {
      "buffer" : 0,
      "byteOffset" : 2400,
      "byteLength" : 3060
    },
    {
      "buffer" : 0,
      "byteOffset" : 5460,
      "byteLength" : 3060
    },
    {
      "buffer" : 0,
      "byteOffset" : 8520,
      "byteLength" : 4080
    },
    {
      "buffer" : 0,
      "byteOffset" : 12600,
      "byteLength" : 2040
    }
  ],
  "accessors" : [
    {
      "bufferView" : 0,
      "componentType" : 5123,
      "count" : 1200,
      "type" : "SCALAR"
    },
    {
      "bufferView" : 1,
      "min" : [ -0.36584, -1.70316e-17, -0.343046 ],
      "max" : [ 0.205081, 0.0467969, 0.343046 ],
      "componentType" : 5126,
      "count" : 255,
      "type" : "VEC3"
    },
    {
      "bufferView" : 2,
      "componentType" : 5126,
      "count" : 255,
      "type" : "VEC3"
    },
    {
      "bufferView" : 3,
      "componentType" : 5126,
      "count" : 255,
      "type" : "VEC4"
    },
    {
      "bufferView" : 4,
      "componentType" : 5126,
      "count" : 255,
      "type" : "VEC2"
    }
  ]
}
