{
  "asset" : {
    "generator" : "UE Viewer (umodel) build 1579 based",
    "version" : "2.0"
  },
  "scene" : 0,
  "scenes" : [
    {
      "nodes" : [ 0 ]
    }
  ],
  "nodes" : [
    {
      "name" : "ManholeCover",
      "mesh" : 0
    }
  ],
  "materials" : [
    {
      "name" : "Manhole_Inst",
      "pbrMetallicRoughness" : {
        "baseColorFactor" : [ 0.3, 0.3, 0.3, 1.0 ],
        "metallicFactor" : 0.1,
        "roughnessFactor" : 0.5
      }
    }
  ],
  "meshes" : [
    {
      "primitives" : [
        {
          "attributes" : {
            "POSITION" : 1,
            "NORMAL" : 2,
            "TANGENT" : 3,
            "TEXCOORD_0" : 4,
            "TEXCOORD_1" : 5
          },
          "indices" : 0,
          "material" : 0
        }
      ],
      "name" : "ManholeCover"
    }
  ],
  "buffers" : [
    {
      "uri" : "ManholeCover.bin",
      "byteLength" : 11976
    }
  ],
  "bufferViews" : [
    {
      "buffer" : 0,
      "byteOffset" : 0,
      "byteLength" : 720
    },
    {
      "buffer" : 0,
      "byteOffset" : 720,
      "byteLength" : 2412
    },
    {
      "buffer" : 0,
      "byteOffset" : 3132,
      "byteLength" : 2412
    },
    {
      "buffer" : 0,
      "byteOffset" : 5544,
      "byteLength" : 3216
    },
    {
      "buffer" : 0,
      "byteOffset" : 8760,
      "byteLength" : 1608
    },
    {
      "buffer" : 0,
      "byteOffset" : 10368,
      "byteLength" : 1608
    }
  ],
  "accessors" : [
    {
      "bufferView" : 0,
      "componentType" : 5123,
      "count" : 360,
      "type" : "SCALAR"
    },
    {
      "bufferView" : 1,
      "min" : [ -0.536997, -7.62939e-08, -0.536997 ],
      "max" : [ 0.536997, 0.0127392, 0.536997 ],
      "componentType" : 5126,
      "count" : 201,
      "type" : "VEC3"
    },
    {
      "bufferView" : 2,
      "componentType" : 5126,
      "count" : 201,
      "type" : "VEC3"
    },
    {
      "bufferView" : 3,
      "componentType" : 5126,
      "count" : 201,
      "type" : "VEC4"
    },
    {
      "bufferView" : 4,
      "componentType" : 5126,
      "count" : 201,
      "type" : "VEC2"
    },
    {
      "bufferView" : 5,
      "componentType" : 5126,
      "count" : 201,
      "type" : "VEC2"
    }
  ]
}
