{
  "asset" : {
    "generator" : "UE Viewer (umodel) build 1579 based",
    "version" : "2.0"
  },
  "scene" : 0,
  "scenes" : [
    {
      "nodes" : [ 0 ]
    }
  ],
  "nodes" : [
    {
      "name" : "S_Envi_Wlbl_Indoor_01e",
      "mesh" : 0
    }
  ],
  "materials" : [
    {
      "name" : "MI_Envi_Wlbl_Indoor_7",
      "pbrMetallicRoughness" : {
        "baseColorFactor" : [ 0.3, 0.3, 0.3, 1.0 ],
        "metallicFactor" : 0.1,
        "roughnessFactor" : 0.5
      }
    }
  ],
  "meshes" : [
    {
      "primitives" : [
        {
          "attributes" : {
            "POSITION" : 1,
            "NORMAL" : 2,
            "TANGENT" : 3,
            "TEXCOORD_0" : 4,
            "TEXCOORD_1" : 5
          },
          "indices" : 0,
          "material" : 0
        }
      ],
      "name" : "S_Envi_Wlbl_Indoor_01e"
    }
  ],
  "buffers" : [
    {
      "uri" : "S_Envi_Wlbl_Indoor_01e.bin",
      "byteLength" : 54812
    }
  ],
  "bufferViews" : [
    {
      "buffer" : 0,
      "byteOffset" : 0,
      "byteLength" : 5924
    },
    {
      "buffer" : 0,
      "byteOffset" : 5924,
      "byteLength" : 10476
    },
    {
      "buffer" : 0,
      "byteOffset" : 16400,
      "byteLength" : 10476
    },
    {
      "buffer" : 0,
      "byteOffset" : 26876,
      "byteLength" : 13968
    },
    {
      "buffer" : 0,
      "byteOffset" : 40844,
      "byteLength" : 6984
    },
    {
      "buffer" : 0,
      "byteOffset" : 47828,
      "byteLength" : 6984
    }
  ],
  "accessors" : [
    {
      "bufferView" : 0,
      "componentType" : 5123,
      "count" : 2961,
      "type" : "SCALAR"
    },
    {
      "bufferView" : 1,
      "min" : [ -4.79818, -0.92091, -4.2043 ],
      "max" : [ 3.99668, -0.580568, 3.19459 ],
      "componentType" : 5126,
      "count" : 873,
      "type" : "VEC3"
    },
    {
      "bufferView" : 2,
      "componentType" : 5126,
      "count" : 873,
      "type" : "VEC3"
    },
    {
      "bufferView" : 3,
      "componentType" : 5126,
      "count" : 873,
      "type" : "VEC4"
    },
    {
      "bufferView" : 4,
      "componentType" : 5126,
      "count" : 873,
      "type" : "VEC2"
    },
    {
      "bufferView" : 5,
      "componentType" : 5126,
      "count" : 873,
      "type" : "VEC2"
    }
  ]
}
