{
  "asset" : {
    "generator" : "UE Viewer (umodel) build 1579 based",
    "version" : "2.0"
  },
  "scene" : 0,
  "scenes" : [
    {
      "nodes" : [ 0 ]
    }
  ],
  "nodes" : [
    {
      "name" : "S_Envi_Wlbl_Desk_03a",
      "mesh" : 0
    }
  ],
  "materials" : [
    {
      "name" : "MI_Envi_Wlbl_Indoor_8",
      "pbrMetallicRoughness" : {
        "baseColorFactor" : [ 0.3, 0.3, 0.3, 1.0 ],
        "metallicFactor" : 0.1,
        "roughnessFactor" : 0.5
      }
    }
  ],
  "meshes" : [
    {
      "primitives" : [
        {
          "attributes" : {
            "POSITION" : 1,
            "NORMAL" : 2,
            "TANGENT" : 3,
            "TEXCOORD_0" : 4,
            "TEXCOORD_1" : 5
          },
          "indices" : 0,
          "material" : 0
        }
      ],
      "name" : "S_Envi_Wlbl_Desk_03a"
    }
  ],
  "buffers" : [
    {
      "uri" : "S_Envi_Wlbl_Desk_03a.bin",
      "byteLength" : 225408
    }
  ],
  "bufferViews" : [
    {
      "buffer" : 0,
      "byteOffset" : 0,
      "byteLength" : 29016
    },
    {
      "buffer" : 0,
      "byteOffset" : 29016,
      "byteLength" : 42084
    },
    {
      "buffer" : 0,
      "byteOffset" : 71100,
      "byteLength" : 42084
    },
    {
      "buffer" : 0,
      "byteOffset" : 113184,
      "byteLength" : 56112
    },
    {
      "buffer" : 0,
      "byteOffset" : 169296,
      "byteLength" : 28056
    },
    {
      "buffer" : 0,
      "byteOffset" : 197352,
      "byteLength" : 28056
    }
  ],
  "accessors" : [
    {
      "bufferView" : 0,
      "componentType" : 5123,
      "count" : 14508,
      "type" : "SCALAR"
    },
    {
      "bufferView" : 1,
      "min" : [ -0.504939, -0.225579, -0.299962 ],
      "max" : [ 0.504939, 0.225579, 0.299962 ],
      "componentType" : 5126,
      "count" : 3507,
      "type" : "VEC3"
    },
    {
      "bufferView" : 2,
      "componentType" : 5126,
      "count" : 3507,
      "type" : "VEC3"
    },
    {
      "bufferView" : 3,
      "componentType" : 5126,
      "count" : 3507,
      "type" : "VEC4"
    },
    {
      "bufferView" : 4,
      "componentType" : 5126,
      "count" : 3507,
      "type" : "VEC2"
    },
    {
      "bufferView" : 5,
      "componentType" : 5126,
      "count" : 3507,
      "type" : "VEC2"
    }
  ]
}
