{
  "asset" : {
    "generator" : "UE Viewer (umodel) build 1579 based",
    "version" : "2.0"
  },
  "scene" : 0,
  "scenes" : [
    {
      "nodes" : [ 0 ]
    }
  ],
  "nodes" : [
    {
      "name" : "S_Envi_Wlbl_Slippers_01b",
      "mesh" : 0
    }
  ],
  "materials" : [
    {
      "name" : "MI_Envi_Wlbl_Chair_02a",
      "pbrMetallicRoughness" : {
        "baseColorFactor" : [ 0.3, 0.3, 0.3, 1.0 ],
        "metallicFactor" : 0.1,
        "roughnessFactor" : 0.5
      }
    }
  ],
  "meshes" : [
    {
      "primitives" : [
        {
          "attributes" : {
            "POSITION" : 1,
            "NORMAL" : 2,
            "TANGENT" : 3,
            "TEXCOORD_0" : 4,
            "TEXCOORD_1" : 5
          },
          "indices" : 0,
          "material" : 0
        }
      ],
      "name" : "S_Envi_Wlbl_Slippers_01b"
    }
  ],
  "buffers" : [
    {
      "uri" : "S_Envi_Wlbl_Slippers_01b.bin",
      "byteLength" : 89204
    }
  ],
  "bufferViews" : [
    {
      "buffer" : 0,
      "byteOffset" : 0,
      "byteLength" : 13212
    },
    {
      "buffer" : 0,
      "byteOffset" : 13212,
      "byteLength" : 16284
    },
    {
      "buffer" : 0,
      "byteOffset" : 29496,
      "byteLength" : 16284
    },
    {
      "buffer" : 0,
      "byteOffset" : 45780,
      "byteLength" : 21712
    },
    {
      "buffer" : 0,
      "byteOffset" : 67492,
      "byteLength" : 10856
    },
    {
      "buffer" : 0,
      "byteOffset" : 78348,
      "byteLength" : 10856
    }
  ],
  "accessors" : [
    {
      "bufferView" : 0,
      "componentType" : 5123,
      "count" : 6606,
      "type" : "SCALAR"
    },
    {
      "bufferView" : 1,
      "min" : [ -0.000443816, -2.00274e-07, -0.268444 ],
      "max" : [ 0.134408, 0.0794649, 0.00216893 ],
      "componentType" : 5126,
      "count" : 1357,
      "type" : "VEC3"
    },
    {
      "bufferView" : 2,
      "componentType" : 5126,
      "count" : 1357,
      "type" : "VEC3"
    },
    {
      "bufferView" : 3,
      "componentType" : 5126,
      "count" : 1357,
      "type" : "VEC4"
    },
    {
      "bufferView" : 4,
      "componentType" : 5126,
      "count" : 1357,
      "type" : "VEC2"
    },
    {
      "bufferView" : 5,
      "componentType" : 5126,
      "count" : 1357,
      "type" : "VEC2"
    }
  ]
}
