{
  "asset" : {
    "generator" : "UE Viewer (umodel) build 1579 based",
    "version" : "2.0"
  },
  "scene" : 0,
  "scenes" : [
    {
      "nodes" : [ 0 ]
    }
  ],
  "nodes" : [
    {
      "name" : "S_Envi_Wlbl_book_01j",
      "mesh" : 0
    }
  ],
  "materials" : [
    {
      "name" : "S_Envi_Wlbl_book_01H",
      "pbrMetallicRoughness" : {
        "baseColorFactor" : [ 0.3, 0.3, 0.3, 1.0 ],
        "metallicFactor" : 0.1,
        "roughnessFactor" : 0.5
      }
    }
  ],
  "meshes" : [
    {
      "primitives" : [
        {
          "attributes" : {
            "POSITION" : 1,
            "NORMAL" : 2,
            "TANGENT" : 3,
            "TEXCOORD_0" : 4,
            "TEXCOORD_1" : 5
          },
          "indices" : 0,
          "material" : 0
        }
      ],
      "name" : "S_Envi_Wlbl_book_01j"
    }
  ],
  "buffers" : [
    {
      "uri" : "S_Envi_Wlbl_book_01j.bin",
      "byteLength" : 472
    }
  ],
  "bufferViews" : [
    {
      "buffer" : 0,
      "byteOffset" : 0,
      "byteLength" : 24
    },
    {
      "buffer" : 0,
      "byteOffset" : 24,
      "byteLength" : 96
    },
    {
      "buffer" : 0,
      "byteOffset" : 120,
      "byteLength" : 96
    },
    {
      "buffer" : 0,
      "byteOffset" : 216,
      "byteLength" : 128
    },
    {
      "buffer" : 0,
      "byteOffset" : 344,
      "byteLength" : 64
    },
    {
      "buffer" : 0,
      "byteOffset" : 408,
      "byteLength" : 64
    }
  ],
  "accessors" : [
    {
      "bufferView" : 0,
      "componentType" : 5123,
      "count" : 12,
      "type" : "SCALAR"
    },
    {
      "bufferView" : 1,
      "min" : [ -7.6294e-08, -3.8147e-08, -7.31647e-08 ],
      "max" : [ 0.16359, 0.095526, 0.000253238 ],
      "componentType" : 5126,
      "count" : 8,
      "type" : "VEC3"
    },
    {
      "bufferView" : 2,
      "componentType" : 5126,
      "count" : 8,
      "type" : "VEC3"
    },
    {
      "bufferView" : 3,
      "componentType" : 5126,
      "count" : 8,
      "type" : "VEC4"
    },
    {
      "bufferView" : 4,
      "componentType" : 5126,
      "count" : 8,
      "type" : "VEC2"
    },
    {
      "bufferView" : 5,
      "componentType" : 5126,
      "count" : 8,
      "type" : "VEC2"
    }
  ]
}
