{
  "asset" : {
    "generator" : "UE Viewer (umodel) build 1579 based",
    "version" : "2.0"
  },
  "scene" : 0,
  "scenes" : [
    {
      "nodes" : [ 0 ]
    }
  ],
  "nodes" : [
    {
      "name" : "S_Envi_Wlbl_Bed_02f",
      "mesh" : 0
    }
  ],
  "materials" : [
    {
      "name" : "MI_Envi_Wlbl_Bed_02c",
      "pbrMetallicRoughness" : {
        "baseColorFactor" : [ 0.3, 0.3, 0.3, 1.0 ],
        "metallicFactor" : 0.1,
        "roughnessFactor" : 0.5
      }
    }
  ],
  "meshes" : [
    {
      "primitives" : [
        {
          "attributes" : {
            "POSITION" : 1,
            "NORMAL" : 2,
            "TANGENT" : 3,
            "TEXCOORD_0" : 4,
            "TEXCOORD_1" : 5
          },
          "indices" : 0,
          "material" : 0
        }
      ],
      "name" : "S_Envi_Wlbl_Bed_02f"
    }
  ],
  "buffers" : [
    {
      "uri" : "S_Envi_Wlbl_Bed_02f.bin",
      "byteLength" : 60524
    }
  ],
  "bufferViews" : [
    {
      "buffer" : 0,
      "byteOffset" : 0,
      "byteLength" : 9900
    },
    {
      "buffer" : 0,
      "byteOffset" : 9900,
      "byteLength" : 10848
    },
    {
      "buffer" : 0,
      "byteOffset" : 20748,
      "byteLength" : 10848
    },
    {
      "buffer" : 0,
      "byteOffset" : 31596,
      "byteLength" : 14464
    },
    {
      "buffer" : 0,
      "byteOffset" : 46060,
      "byteLength" : 7232
    },
    {
      "buffer" : 0,
      "byteOffset" : 53292,
      "byteLength" : 7232
    }
  ],
  "accessors" : [
    {
      "bufferView" : 0,
      "componentType" : 5123,
      "count" : 4950,
      "type" : "SCALAR"
    },
    {
      "bufferView" : 1,
      "min" : [ -0.364336, 0.553414, -1.06926 ],
      "max" : [ 0.364336, 0.751606, -0.750834 ],
      "componentType" : 5126,
      "count" : 904,
      "type" : "VEC3"
    },
    {
      "bufferView" : 2,
      "componentType" : 5126,
      "count" : 904,
      "type" : "VEC3"
    },
    {
      "bufferView" : 3,
      "componentType" : 5126,
      "count" : 904,
      "type" : "VEC4"
    },
    {
      "bufferView" : 4,
      "componentType" : 5126,
      "count" : 904,
      "type" : "VEC2"
    },
    {
      "bufferView" : 5,
      "componentType" : 5126,
      "count" : 904,
      "type" : "VEC2"
    }
  ]
}
