{
  "asset" : {
    "generator" : "UE Viewer (umodel) build 1579 based",
    "version" : "2.0"
  },
  "scene" : 0,
  "scenes" : [
    {
      "nodes" : [ 0 ]
    }
  ],
  "nodes" : [
    {
      "name" : "S_Envi_Wlbl_Astrograph_01b",
      "mesh" : 0
    }
  ],
  "materials" : [
    {
      "name" : "MI_Envi_Wlbl_Astrograph_01",
      "pbrMetallicRoughness" : {
        "baseColorFactor" : [ 0.3, 0.3, 0.3, 1.0 ],
        "metallicFactor" : 0.1,
        "roughnessFactor" : 0.5
      }
    }
  ],
  "meshes" : [
    {
      "primitives" : [
        {
          "attributes" : {
            "POSITION" : 1,
            "NORMAL" : 2,
            "TANGENT" : 3,
            "TEXCOORD_0" : 4,
            "TEXCOORD_1" : 5,
            "TEXCOORD_2" : 6
          },
          "indices" : 0,
          "material" : 0
        }
      ],
      "name" : "S_Envi_Wlbl_Astrograph_01b"
    }
  ],
  "buffers" : [
    {
      "uri" : "S_Envi_Wlbl_Astrograph_01b.bin",
      "byteLength" : 34088
    }
  ],
  "bufferViews" : [
    {
      "buffer" : 0,
      "byteOffset" : 0,
      "byteLength" : 3624
    },
    {
      "buffer" : 0,
      "byteOffset" : 3624,
      "byteLength" : 5712
    },
    {
      "buffer" : 0,
      "byteOffset" : 9336,
      "byteLength" : 5712
    },
    {
      "buffer" : 0,
      "byteOffset" : 15048,
      "byteLength" : 7616
    },
    {
      "buffer" : 0,
      "byteOffset" : 22664,
      "byteLength" : 3808
    },
    {
      "buffer" : 0,
      "byteOffset" : 26472,
      "byteLength" : 3808
    },
    {
      "buffer" : 0,
      "byteOffset" : 30280,
      "byteLength" : 3808
    }
  ],
  "accessors" : [
    {
      "bufferView" : 0,
      "componentType" : 5123,
      "count" : 1812,
      "type" : "SCALAR"
    },
    {
      "bufferView" : 1,
      "min" : [ -0.0805823, 0.162557, -0.09574 ],
      "max" : [ 0.0807263, 0.315681, 0.0934983 ],
      "componentType" : 5126,
      "count" : 476,
      "type" : "VEC3"
    },
    {
      "bufferView" : 2,
      "componentType" : 5126,
      "count" : 476,
      "type" : "VEC3"
    },
    {
      "bufferView" : 3,
      "componentType" : 5126,
      "count" : 476,
      "type" : "VEC4"
    },
    {
      "bufferView" : 4,
      "componentType" : 5126,
      "count" : 476,
      "type" : "VEC2"
    },
    {
      "bufferView" : 5,
      "componentType" : 5126,
      "count" : 476,
      "type" : "VEC2"
    },
    {
      "bufferView" : 6,
      "componentType" : 5126,
      "count" : 476,
      "type" : "VEC2"
    }
  ]
}
