{
  "asset" : {
    "generator" : "UE Viewer (umodel) build 1579 based",
    "version" : "2.0"
  },
  "scene" : 0,
  "scenes" : [
    {
      "nodes" : [ 0 ]
    }
  ],
  "nodes" : [
    {
      "name" : "S_Envi_Wlbl_Bed_02b",
      "mesh" : 0
    }
  ],
  "materials" : [
    {
      "name" : "MI_Envi_Wlbl_Bed_02b",
      "pbrMetallicRoughness" : {
        "baseColorFactor" : [ 0.3, 0.3, 0.3, 1.0 ],
        "metallicFactor" : 0.1,
        "roughnessFactor" : 0.5
      }
    }
  ],
  "meshes" : [
    {
      "primitives" : [
        {
          "attributes" : {
            "POSITION" : 1,
            "NORMAL" : 2,
            "TANGENT" : 3,
            "TEXCOORD_0" : 4,
            "TEXCOORD_1" : 5
          },
          "indices" : 0,
          "material" : 0
        }
      ],
      "name" : "S_Envi_Wlbl_Bed_02b"
    }
  ],
  "buffers" : [
    {
      "uri" : "S_Envi_Wlbl_Bed_02b.bin",
      "byteLength" : 306684
    }
  ],
  "bufferViews" : [
    {
      "buffer" : 0,
      "byteOffset" : 0,
      "byteLength" : 48300
    },
    {
      "buffer" : 0,
      "byteOffset" : 48300,
      "byteLength" : 55368
    },
    {
      "buffer" : 0,
      "byteOffset" : 103668,
      "byteLength" : 55368
    },
    {
      "buffer" : 0,
      "byteOffset" : 159036,
      "byteLength" : 73824
    },
    {
      "buffer" : 0,
      "byteOffset" : 232860,
      "byteLength" : 36912
    },
    {
      "buffer" : 0,
      "byteOffset" : 269772,
      "byteLength" : 36912
    }
  ],
  "accessors" : [
    {
      "bufferView" : 0,
      "componentType" : 5123,
      "count" : 24150,
      "type" : "SCALAR"
    },
    {
      "bufferView" : 1,
      "min" : [ -0.978253, 0.219213, -1.0951 ],
      "max" : [ 1.04383, 0.620001, 1.14198 ],
      "componentType" : 5126,
      "count" : 4614,
      "type" : "VEC3"
    },
    {
      "bufferView" : 2,
      "componentType" : 5126,
      "count" : 4614,
      "type" : "VEC3"
    },
    {
      "bufferView" : 3,
      "componentType" : 5126,
      "count" : 4614,
      "type" : "VEC4"
    },
    {
      "bufferView" : 4,
      "componentType" : 5126,
      "count" : 4614,
      "type" : "VEC2"
    },
    {
      "bufferView" : 5,
      "componentType" : 5126,
      "count" : 4614,
      "type" : "VEC2"
    }
  ]
}
