{
  "asset" : {
    "generator" : "UE Viewer (umodel) build 1579 based",
    "version" : "2.0"
  },
  "scene" : 0,
  "scenes" : [
    {
      "nodes" : [ 0 ]
    }
  ],
  "nodes" : [
    {
      "name" : "S_Envi_Wlbl_book_01s",
      "mesh" : 0
    }
  ],
  "materials" : [
    {
      "name" : "S_Envi_Wlbl_book_01H",
      "pbrMetallicRoughness" : {
        "baseColorFactor" : [ 0.3, 0.3, 0.3, 1.0 ],
        "metallicFactor" : 0.1,
        "roughnessFactor" : 0.5
      }
    }
  ],
  "meshes" : [
    {
      "primitives" : [
        {
          "attributes" : {
            "POSITION" : 1,
            "NORMAL" : 2,
            "TANGENT" : 3,
            "TEXCOORD_0" : 4,
            "TEXCOORD_1" : 5
          },
          "indices" : 0,
          "material" : 0
        }
      ],
      "name" : "S_Envi_Wlbl_book_01s"
    }
  ],
  "buffers" : [
    {
      "uri" : "S_Envi_Wlbl_book_01s.bin",
      "byteLength" : 23240
    }
  ],
  "bufferViews" : [
    {
      "buffer" : 0,
      "byteOffset" : 0,
      "byteLength" : 2184
    },
    {
      "buffer" : 0,
      "byteOffset" : 2184,
      "byteLength" : 4512
    },
    {
      "buffer" : 0,
      "byteOffset" : 6696,
      "byteLength" : 4512
    },
    {
      "buffer" : 0,
      "byteOffset" : 11208,
      "byteLength" : 6016
    },
    {
      "buffer" : 0,
      "byteOffset" : 17224,
      "byteLength" : 3008
    },
    {
      "buffer" : 0,
      "byteOffset" : 20232,
      "byteLength" : 3008
    }
  ],
  "accessors" : [
    {
      "bufferView" : 0,
      "componentType" : 5123,
      "count" : 1092,
      "type" : "SCALAR"
    },
    {
      "bufferView" : 1,
      "min" : [ 0, 2.52696e-10, -1.15795e-09 ],
      "max" : [ 0.77403, 0.566928, 0.019202 ],
      "componentType" : 5126,
      "count" : 376,
      "type" : "VEC3"
    },
    {
      "bufferView" : 2,
      "componentType" : 5126,
      "count" : 376,
      "type" : "VEC3"
    },
    {
      "bufferView" : 3,
      "componentType" : 5126,
      "count" : 376,
      "type" : "VEC4"
    },
    {
      "bufferView" : 4,
      "componentType" : 5126,
      "count" : 376,
      "type" : "VEC2"
    },
    {
      "bufferView" : 5,
      "componentType" : 5126,
      "count" : 376,
      "type" : "VEC2"
    }
  ]
}
