{
  "asset" : {
    "generator" : "UE Viewer (umodel) build 1579 based",
    "version" : "2.0"
  },
  "scene" : 0,
  "scenes" : [
    {
      "nodes" : [ 0 ]
    }
  ],
  "nodes" : [
    {
      "name" : "S_Envi_Wlbl_Indoor_01c",
      "mesh" : 0
    }
  ],
  "materials" : [
    {
      "name" : "MI_Envi_Wlbl_Indoor_9",
      "pbrMetallicRoughness" : {
        "baseColorFactor" : [ 0.3, 0.3, 0.3, 1.0 ],
        "metallicFactor" : 0.1,
        "roughnessFactor" : 0.5
      }
    }
  ],
  "meshes" : [
    {
      "primitives" : [
        {
          "attributes" : {
            "POSITION" : 1,
            "NORMAL" : 2,
            "TANGENT" : 3,
            "TEXCOORD_0" : 4,
            "TEXCOORD_1" : 5,
            "TEXCOORD_2" : 6
          },
          "indices" : 0,
          "material" : 0
        }
      ],
      "name" : "S_Envi_Wlbl_Indoor_01c"
    }
  ],
  "buffers" : [
    {
      "uri" : "S_Envi_Wlbl_Indoor_01c.bin",
      "byteLength" : 201624
    }
  ],
  "bufferViews" : [
    {
      "buffer" : 0,
      "byteOffset" : 0,
      "byteLength" : 23768
    },
    {
      "buffer" : 0,
      "byteOffset" : 23768,
      "byteLength" : 33348
    },
    {
      "buffer" : 0,
      "byteOffset" : 57116,
      "byteLength" : 33348
    },
    {
      "buffer" : 0,
      "byteOffset" : 90464,
      "byteLength" : 44464
    },
    {
      "buffer" : 0,
      "byteOffset" : 134928,
      "byteLength" : 22232
    },
    {
      "buffer" : 0,
      "byteOffset" : 157160,
      "byteLength" : 22232
    },
    {
      "buffer" : 0,
      "byteOffset" : 179392,
      "byteLength" : 22232
    }
  ],
  "accessors" : [
    {
      "bufferView" : 0,
      "componentType" : 5123,
      "count" : 11883,
      "type" : "SCALAR"
    },
    {
      "bufferView" : 1,
      "min" : [ -4.71832, -0.583416, -4.10342 ],
      "max" : [ 3.8104, 2.98845, 2.41335 ],
      "componentType" : 5126,
      "count" : 2779,
      "type" : "VEC3"
    },
    {
      "bufferView" : 2,
      "componentType" : 5126,
      "count" : 2779,
      "type" : "VEC3"
    },
    {
      "bufferView" : 3,
      "componentType" : 5126,
      "count" : 2779,
      "type" : "VEC4"
    },
    {
      "bufferView" : 4,
      "componentType" : 5126,
      "count" : 2779,
      "type" : "VEC2"
    },
    {
      "bufferView" : 5,
      "componentType" : 5126,
      "count" : 2779,
      "type" : "VEC2"
    },
    {
      "bufferView" : 6,
      "componentType" : 5126,
      "count" : 2779,
      "type" : "VEC2"
    }
  ]
}
