{
  "asset" : {
    "generator" : "UE Viewer (umodel) build 1579 based",
    "version" : "2.0"
  },
  "scene" : 0,
  "scenes" : [
    {
      "nodes" : [ 0 ]
    }
  ],
  "nodes" : [
    {
      "name" : "S_Envi_Wlbl_Giftbox_01a",
      "mesh" : 0
    }
  ],
  "materials" : [
    {
      "name" : "MI_Envi_Wlbl_Speaker_01",
      "pbrMetallicRoughness" : {
        "baseColorFactor" : [ 0.3, 0.3, 0.3, 1.0 ],
        "metallicFactor" : 0.1,
        "roughnessFactor" : 0.5
      }
    }
  ],
  "meshes" : [
    {
      "primitives" : [
        {
          "attributes" : {
            "POSITION" : 1,
            "NORMAL" : 2,
            "TANGENT" : 3,
            "TEXCOORD_0" : 4,
            "TEXCOORD_1" : 5
          },
          "indices" : 0,
          "material" : 0
        }
      ],
      "name" : "S_Envi_Wlbl_Giftbox_01a"
    }
  ],
  "buffers" : [
    {
      "uri" : "S_Envi_Wlbl_Giftbox_01a.bin",
      "byteLength" : 231888
    }
  ],
  "bufferViews" : [
    {
      "buffer" : 0,
      "byteOffset" : 0,
      "byteLength" : 34992
    },
    {
      "buffer" : 0,
      "byteOffset" : 34992,
      "byteLength" : 42192
    },
    {
      "buffer" : 0,
      "byteOffset" : 77184,
      "byteLength" : 42192
    },
    {
      "buffer" : 0,
      "byteOffset" : 119376,
      "byteLength" : 56256
    },
    {
      "buffer" : 0,
      "byteOffset" : 175632,
      "byteLength" : 28128
    },
    {
      "buffer" : 0,
      "byteOffset" : 203760,
      "byteLength" : 28128
    }
  ],
  "accessors" : [
    {
      "bufferView" : 0,
      "componentType" : 5123,
      "count" : 17496,
      "type" : "SCALAR"
    },
    {
      "bufferView" : 1,
      "min" : [ -0.136996, -0.0160192, -0.145446 ],
      "max" : [ 0.136996, 0.506194, 0.145446 ],
      "componentType" : 5126,
      "count" : 3516,
      "type" : "VEC3"
    },
    {
      "bufferView" : 2,
      "componentType" : 5126,
      "count" : 3516,
      "type" : "VEC3"
    },
    {
      "bufferView" : 3,
      "componentType" : 5126,
      "count" : 3516,
      "type" : "VEC4"
    },
    {
      "bufferView" : 4,
      "componentType" : 5126,
      "count" : 3516,
      "type" : "VEC2"
    },
    {
      "bufferView" : 5,
      "componentType" : 5126,
      "count" : 3516,
      "type" : "VEC2"
    }
  ]
}
