{
  "asset" : {
    "generator" : "UE Viewer (umodel) build 1579 based",
    "version" : "2.0"
  },
  "scene" : 0,
  "scenes" : [
    {
      "nodes" : [ 0 ]
    }
  ],
  "nodes" : [
    {
      "name" : "S_Envi_Wlbl_Musa_01",
      "mesh" : 0
    }
  ],
  "materials" : [
    {
      "name" : "MI_Envi_Foliage_Musa_01a",
      "pbrMetallicRoughness" : {
        "baseColorFactor" : [ 0.3, 0.3, 0.3, 1.0 ],
        "metallicFactor" : 0.1,
        "roughnessFactor" : 0.5
      }
    }
  ],
  "meshes" : [
    {
      "primitives" : [
        {
          "attributes" : {
            "POSITION" : 1,
            "NORMAL" : 2,
            "TANGENT" : 3,
            "TEXCOORD_0" : 4,
            "TEXCOORD_1" : 5
          },
          "indices" : 0,
          "material" : 0
        }
      ],
      "name" : "S_Envi_Wlbl_Musa_01"
    }
  ],
  "buffers" : [
    {
      "uri" : "S_Envi_Wlbl_Musa_01.bin",
      "byteLength" : 68992
    }
  ],
  "bufferViews" : [
    {
      "buffer" : 0,
      "byteOffset" : 0,
      "byteLength" : 8120
    },
    {
      "buffer" : 0,
      "byteOffset" : 8120,
      "byteLength" : 13044
    },
    {
      "buffer" : 0,
      "byteOffset" : 21164,
      "byteLength" : 13044
    },
    {
      "buffer" : 0,
      "byteOffset" : 34208,
      "byteLength" : 17392
    },
    {
      "buffer" : 0,
      "byteOffset" : 51600,
      "byteLength" : 8696
    },
    {
      "buffer" : 0,
      "byteOffset" : 60296,
      "byteLength" : 8696
    }
  ],
  "accessors" : [
    {
      "bufferView" : 0,
      "componentType" : 5123,
      "count" : 4059,
      "type" : "SCALAR"
    },
    {
      "bufferView" : 1,
      "min" : [ -0.617363, -4.89527e-05, -0.746959 ],
      "max" : [ 0.5629, 2.54357, 0.677256 ],
      "componentType" : 5126,
      "count" : 1087,
      "type" : "VEC3"
    },
    {
      "bufferView" : 2,
      "componentType" : 5126,
      "count" : 1087,
      "type" : "VEC3"
    },
    {
      "bufferView" : 3,
      "componentType" : 5126,
      "count" : 1087,
      "type" : "VEC4"
    },
    {
      "bufferView" : 4,
      "componentType" : 5126,
      "count" : 1087,
      "type" : "VEC2"
    },
    {
      "bufferView" : 5,
      "componentType" : 5126,
      "count" : 1087,
      "type" : "VEC2"
    }
  ]
}
