{
  "asset" : {
    "generator" : "UE Viewer (umodel) build 1579 based",
    "version" : "2.0"
  },
  "scene" : 0,
  "scenes" : [
    {
      "nodes" : [ 0 ]
    }
  ],
  "nodes" : [
    {
      "name" : "S_Envi_Wlbl_Clouds_01d",
      "mesh" : 0
    }
  ],
  "materials" : [
    {
      "name" : "MI_Envi_Wlbl_Clouds_01",
      "pbrMetallicRoughness" : {
        "baseColorFactor" : [ 0.3, 0.3, 0.3, 1.0 ],
        "metallicFactor" : 0.1,
        "roughnessFactor" : 0.5
      }
    }
  ],
  "meshes" : [
    {
      "primitives" : [
        {
          "attributes" : {
            "POSITION" : 1,
            "NORMAL" : 2,
            "TANGENT" : 3,
            "TEXCOORD_0" : 4,
            "TEXCOORD_1" : 5
          },
          "indices" : 0,
          "material" : 0
        }
      ],
      "name" : "S_Envi_Wlbl_Clouds_01d"
    }
  ],
  "buffers" : [
    {
      "uri" : "S_Envi_Wlbl_Clouds_01d.bin",
      "byteLength" : 1600
    }
  ],
  "bufferViews" : [
    {
      "buffer" : 0,
      "byteOffset" : 0,
      "byteLength" : 144
    },
    {
      "buffer" : 0,
      "byteOffset" : 144,
      "byteLength" : 312
    },
    {
      "buffer" : 0,
      "byteOffset" : 456,
      "byteLength" : 312
    },
    {
      "buffer" : 0,
      "byteOffset" : 768,
      "byteLength" : 416
    },
    {
      "buffer" : 0,
      "byteOffset" : 1184,
      "byteLength" : 208
    },
    {
      "buffer" : 0,
      "byteOffset" : 1392,
      "byteLength" : 208
    }
  ],
  "accessors" : [
    {
      "bufferView" : 0,
      "componentType" : 5123,
      "count" : 72,
      "type" : "SCALAR"
    },
    {
      "bufferView" : 1,
      "min" : [ -4.36507, -0.917626, -0.224389 ],
      "max" : [ 4.36507, 0.917627, 0.224387 ],
      "componentType" : 5126,
      "count" : 26,
      "type" : "VEC3"
    },
    {
      "bufferView" : 2,
      "componentType" : 5126,
      "count" : 26,
      "type" : "VEC3"
    },
    {
      "bufferView" : 3,
      "componentType" : 5126,
      "count" : 26,
      "type" : "VEC4"
    },
    {
      "bufferView" : 4,
      "componentType" : 5126,
      "count" : 26,
      "type" : "VEC2"
    },
    {
      "bufferView" : 5,
      "componentType" : 5126,
      "count" : 26,
      "type" : "VEC2"
    }
  ]
}
