{
  "asset" : {
    "generator" : "UE Viewer (umodel) build 1579 based",
    "version" : "2.0"
  },
  "scene" : 0,
  "scenes" : [
    {
      "nodes" : [ 0 ]
    }
  ],
  "nodes" : [
    {
      "name" : "S_Envi_Wlbl_pen_01a",
      "mesh" : 0
    }
  ],
  "materials" : [
    {
      "name" : "MI_Envi_Wlbl_pen_01",
      "pbrMetallicRoughness" : {
        "baseColorFactor" : [ 0.3, 0.3, 0.3, 1.0 ],
        "metallicFactor" : 0.1,
        "roughnessFactor" : 0.5
      }
    }
  ],
  "meshes" : [
    {
      "primitives" : [
        {
          "attributes" : {
            "POSITION" : 1,
            "NORMAL" : 2,
            "TANGENT" : 3,
            "TEXCOORD_0" : 4,
            "TEXCOORD_1" : 5,
            "TEXCOORD_2" : 6
          },
          "indices" : 0,
          "material" : 0
        }
      ],
      "name" : "S_Envi_Wlbl_pen_01a"
    }
  ],
  "buffers" : [
    {
      "uri" : "S_Envi_Wlbl_pen_01a.bin",
      "byteLength" : 347088
    }
  ],
  "bufferViews" : [
    {
      "buffer" : 0,
      "byteOffset" : 0,
      "byteLength" : 37584
    },
    {
      "buffer" : 0,
      "byteOffset" : 37584,
      "byteLength" : 58032
    },
    {
      "buffer" : 0,
      "byteOffset" : 95616,
      "byteLength" : 58032
    },
    {
      "buffer" : 0,
      "byteOffset" : 153648,
      "byteLength" : 77376
    },
    {
      "buffer" : 0,
      "byteOffset" : 231024,
      "byteLength" : 38688
    },
    {
      "buffer" : 0,
      "byteOffset" : 269712,
      "byteLength" : 38688
    },
    {
      "buffer" : 0,
      "byteOffset" : 308400,
      "byteLength" : 38688
    }
  ],
  "accessors" : [
    {
      "bufferView" : 0,
      "componentType" : 5123,
      "count" : 18792,
      "type" : "SCALAR"
    },
    {
      "bufferView" : 1,
      "min" : [ -0.00710081, -9.93948e-05, -0.00400743 ],
      "max" : [ 0.00710081, 0.153003, 0.0101942 ],
      "componentType" : 5126,
      "count" : 4836,
      "type" : "VEC3"
    },
    {
      "bufferView" : 2,
      "componentType" : 5126,
      "count" : 4836,
      "type" : "VEC3"
    },
    {
      "bufferView" : 3,
      "componentType" : 5126,
      "count" : 4836,
      "type" : "VEC4"
    },
    {
      "bufferView" : 4,
      "componentType" : 5126,
      "count" : 4836,
      "type" : "VEC2"
    },
    {
      "bufferView" : 5,
      "componentType" : 5126,
      "count" : 4836,
      "type" : "VEC2"
    },
    {
      "bufferView" : 6,
      "componentType" : 5126,
      "count" : 4836,
      "type" : "VEC2"
    }
  ]
}
