{
  "asset" : {
    "generator" : "UE Viewer (umodel) build 1579 based",
    "version" : "2.0"
  },
  "scene" : 0,
  "scenes" : [
    {
      "nodes" : [ 0 ]
    }
  ],
  "nodes" : [
    {
      "name" : "S_Envi_Wlbl_Indoor_01b",
      "mesh" : 0
    }
  ],
  "materials" : [
    {
      "name" : "MI_Envi_Wlbl_Indoor_5",
      "pbrMetallicRoughness" : {
        "baseColorFactor" : [ 0.3, 0.3, 0.3, 1.0 ],
        "metallicFactor" : 0.1,
        "roughnessFactor" : 0.5
      }
    }
  ],
  "meshes" : [
    {
      "primitives" : [
        {
          "attributes" : {
            "POSITION" : 1,
            "NORMAL" : 2,
            "TANGENT" : 3,
            "TEXCOORD_0" : 4,
            "TEXCOORD_1" : 5
          },
          "indices" : 0,
          "material" : 0
        }
      ],
      "name" : "S_Envi_Wlbl_Indoor_01b"
    }
  ],
  "buffers" : [
    {
      "uri" : "S_Envi_Wlbl_Indoor_01b.bin",
      "byteLength" : 154756
    }
  ],
  "bufferViews" : [
    {
      "buffer" : 0,
      "byteOffset" : 0,
      "byteLength" : 20468
    },
    {
      "buffer" : 0,
      "byteOffset" : 20468,
      "byteLength" : 28776
    },
    {
      "buffer" : 0,
      "byteOffset" : 49244,
      "byteLength" : 28776
    },
    {
      "buffer" : 0,
      "byteOffset" : 78020,
      "byteLength" : 38368
    },
    {
      "buffer" : 0,
      "byteOffset" : 116388,
      "byteLength" : 19184
    },
    {
      "buffer" : 0,
      "byteOffset" : 135572,
      "byteLength" : 19184
    }
  ],
  "accessors" : [
    {
      "bufferView" : 0,
      "componentType" : 5123,
      "count" : 10233,
      "type" : "SCALAR"
    },
    {
      "bufferView" : 1,
      "min" : [ 3.15341, -0.601773, -3.58689 ],
      "max" : [ 3.91466, 2.92872, 2.46309 ],
      "componentType" : 5126,
      "count" : 2398,
      "type" : "VEC3"
    },
    {
      "bufferView" : 2,
      "componentType" : 5126,
      "count" : 2398,
      "type" : "VEC3"
    },
    {
      "bufferView" : 3,
      "componentType" : 5126,
      "count" : 2398,
      "type" : "VEC4"
    },
    {
      "bufferView" : 4,
      "componentType" : 5126,
      "count" : 2398,
      "type" : "VEC2"
    },
    {
      "bufferView" : 5,
      "componentType" : 5126,
      "count" : 2398,
      "type" : "VEC2"
    }
  ]
}
