{
  "asset" : {
    "generator" : "UE Viewer (umodel) build 1579 based",
    "version" : "2.0"
  },
  "scene" : 0,
  "scenes" : [
    {
      "nodes" : [ 0 ]
    }
  ],
  "nodes" : [
    {
      "name" : "S_Envi_Wlbl_Chair_02a",
      "mesh" : 0
    }
  ],
  "materials" : [
    {
      "name" : "MI_Envi_Wlbl_Chair_02a",
      "pbrMetallicRoughness" : {
        "baseColorFactor" : [ 0.3, 0.3, 0.3, 1.0 ],
        "metallicFactor" : 0.1,
        "roughnessFactor" : 0.5
      }
    }
  ],
  "meshes" : [
    {
      "primitives" : [
        {
          "attributes" : {
            "POSITION" : 1,
            "NORMAL" : 2,
            "TANGENT" : 3,
            "TEXCOORD_0" : 4,
            "TEXCOORD_1" : 5
          },
          "indices" : 0,
          "material" : 0
        }
      ],
      "name" : "S_Envi_Wlbl_Chair_02a"
    }
  ],
  "buffers" : [
    {
      "uri" : "S_Envi_Wlbl_Chair_02a.bin",
      "byteLength" : 100584
    }
  ],
  "bufferViews" : [
    {
      "buffer" : 0,
      "byteOffset" : 0,
      "byteLength" : 15576
    },
    {
      "buffer" : 0,
      "byteOffset" : 15576,
      "byteLength" : 18216
    },
    {
      "buffer" : 0,
      "byteOffset" : 33792,
      "byteLength" : 18216
    },
    {
      "buffer" : 0,
      "byteOffset" : 52008,
      "byteLength" : 24288
    },
    {
      "buffer" : 0,
      "byteOffset" : 76296,
      "byteLength" : 12144
    },
    {
      "buffer" : 0,
      "byteOffset" : 88440,
      "byteLength" : 12144
    }
  ],
  "accessors" : [
    {
      "bufferView" : 0,
      "componentType" : 5123,
      "count" : 7788,
      "type" : "SCALAR"
    },
    {
      "bufferView" : 1,
      "min" : [ -0.577017, 0.00305905, -0.563607 ],
      "max" : [ 0.57722, 0.859129, 0.276196 ],
      "componentType" : 5126,
      "count" : 1518,
      "type" : "VEC3"
    },
    {
      "bufferView" : 2,
      "componentType" : 5126,
      "count" : 1518,
      "type" : "VEC3"
    },
    {
      "bufferView" : 3,
      "componentType" : 5126,
      "count" : 1518,
      "type" : "VEC4"
    },
    {
      "bufferView" : 4,
      "componentType" : 5126,
      "count" : 1518,
      "type" : "VEC2"
    },
    {
      "bufferView" : 5,
      "componentType" : 5126,
      "count" : 1518,
      "type" : "VEC2"
    }
  ]
}
