{
  "asset" : {
    "generator" : "UE Viewer (umodel) build 1579 based",
    "version" : "2.0"
  },
  "scene" : 0,
  "scenes" : [
    {
      "nodes" : [ 0 ]
    }
  ],
  "nodes" : [
    {
      "name" : "S_Envi_Wlbl_Botany_03a",
      "mesh" : 0
    }
  ],
  "materials" : [
    {
      "name" : "MI_Evni_Wlbl_Aquatic_03",
      "pbrMetallicRoughness" : {
        "baseColorFactor" : [ 0.3, 0.3, 0.3, 1.0 ],
        "metallicFactor" : 0.1,
        "roughnessFactor" : 0.5
      }
    },
    {
      "name" : "MI_Envi_Wlbl_ThrowPillow_03",
      "pbrMetallicRoughness" : {
        "baseColorFactor" : [ 0.9, 0.3, 0.3, 1.0 ],
        "metallicFactor" : 0.1,
        "roughnessFactor" : 0.5
      }
    }
  ],
  "meshes" : [
    {
      "primitives" : [
        {
          "attributes" : {
            "POSITION" : 1,
            "NORMAL" : 2,
            "TANGENT" : 3,
            "TEXCOORD_0" : 4,
            "TEXCOORD_1" : 5
          },
          "indices" : 0,
          "material" : 0
        },
        {
          "attributes" : {
            "POSITION" : 7,
            "NORMAL" : 8,
            "TANGENT" : 9,
            "TEXCOORD_0" : 10,
            "TEXCOORD_1" : 11
          },
          "indices" : 6,
          "material" : 1
        }
      ],
      "name" : "S_Envi_Wlbl_Botany_03a"
    }
  ],
  "buffers" : [
    {
      "uri" : "S_Envi_Wlbl_Botany_03a.bin",
      "byteLength" : 137204
    }
  ],
  "bufferViews" : [
    {
      "buffer" : 0,
      "byteOffset" : 0,
      "byteLength" : 15996
    },
    {
      "buffer" : 0,
      "byteOffset" : 15996,
      "byteLength" : 22788
    },
    {
      "buffer" : 0,
      "byteOffset" : 38784,
      "byteLength" : 22788
    },
    {
      "buffer" : 0,
      "byteOffset" : 61572,
      "byteLength" : 30384
    },
    {
      "buffer" : 0,
      "byteOffset" : 91956,
      "byteLength" : 15192
    },
    {
      "buffer" : 0,
      "byteOffset" : 107148,
      "byteLength" : 15192
    },
    {
      "buffer" : 0,
      "byteOffset" : 122340,
      "byteLength" : 1872
    },
    {
      "buffer" : 0,
      "byteOffset" : 124212,
      "byteLength" : 2784
    },
    {
      "buffer" : 0,
      "byteOffset" : 126996,
      "byteLength" : 2784
    },
    {
      "buffer" : 0,
      "byteOffset" : 129780,
      "byteLength" : 3712
    },
    {
      "buffer" : 0,
      "byteOffset" : 133492,
      "byteLength" : 1856
    },
    {
      "buffer" : 0,
      "byteOffset" : 135348,
      "byteLength" : 1856
    }
  ],
  "accessors" : [
    {
      "bufferView" : 0,
      "componentType" : 5123,
      "count" : 7998,
      "type" : "SCALAR"
    },
    {
      "bufferView" : 1,
      "min" : [ -0.382918, 0.346492, -0.367528 ],
      "max" : [ 0.382918, 1.23508, 0.367529 ],
      "componentType" : 5126,
      "count" : 1899,
      "type" : "VEC3"
    },
    {
      "bufferView" : 2,
      "componentType" : 5126,
      "count" : 1899,
      "type" : "VEC3"
    },
    {
      "bufferView" : 3,
      "componentType" : 5126,
      "count" : 1899,
      "type" : "VEC4"
    },
    {
      "bufferView" : 4,
      "componentType" : 5126,
      "count" : 1899,
      "type" : "VEC2"
    },
    {
      "bufferView" : 5,
      "componentType" : 5126,
      "count" : 1899,
      "type" : "VEC2"
    },
    {
      "bufferView" : 6,
      "componentType" : 5123,
      "count" : 936,
      "type" : "SCALAR"
    },
    {
      "bufferView" : 7,
      "min" : [ -0.106185, -5.57206e-06, -0.233783 ],
      "max" : [ 0.19615, 0.806364, 0.0680928 ],
      "componentType" : 5126,
      "count" : 232,
      "type" : "VEC3"
    },
    {
      "bufferView" : 8,
      "componentType" : 5126,
      "count" : 232,
      "type" : "VEC3"
    },
    {
      "bufferView" : 9,
      "componentType" : 5126,
      "count" : 232,
      "type" : "VEC4"
    },
    {
      "bufferView" : 10,
      "componentType" : 5126,
      "count" : 232,
      "type" : "VEC2"
    },
    {
      "bufferView" : 11,
      "componentType" : 5126,
      "count" : 232,
      "type" : "VEC2"
    }
  ]
}
