{
  "asset" : {
    "generator" : "UE Viewer (umodel) build 1579 based",
    "version" : "2.0"
  },
  "scene" : 0,
  "scenes" : [
    {
      "nodes" : [ 0 ]
    }
  ],
  "nodes" : [
    {
      "name" : "S_Envi_Wlbl_prop_01c",
      "mesh" : 0
    }
  ],
  "materials" : [
    {
      "name" : "MI_Envi_Wlbl_ThrowPillow_03",
      "pbrMetallicRoughness" : {
        "baseColorFactor" : [ 0.3, 0.3, 0.3, 1.0 ],
        "metallicFactor" : 0.1,
        "roughnessFactor" : 0.5
      }
    }
  ],
  "meshes" : [
    {
      "primitives" : [
        {
          "attributes" : {
            "POSITION" : 1,
            "NORMAL" : 2,
            "TANGENT" : 3,
            "TEXCOORD_0" : 4,
            "TEXCOORD_1" : 5
          },
          "indices" : 0,
          "material" : 0
        }
      ],
      "name" : "S_Envi_Wlbl_prop_01c"
    }
  ],
  "buffers" : [
    {
      "uri" : "S_Envi_Wlbl_prop_01c.bin",
      "byteLength" : 22844
    }
  ],
  "bufferViews" : [
    {
      "buffer" : 0,
      "byteOffset" : 0,
      "byteLength" : 3804
    },
    {
      "buffer" : 0,
      "byteOffset" : 3804,
      "byteLength" : 4080
    },
    {
      "buffer" : 0,
      "byteOffset" : 7884,
      "byteLength" : 4080
    },
    {
      "buffer" : 0,
      "byteOffset" : 11964,
      "byteLength" : 5440
    },
    {
      "buffer" : 0,
      "byteOffset" : 17404,
      "byteLength" : 2720
    },
    {
      "buffer" : 0,
      "byteOffset" : 20124,
      "byteLength" : 2720
    }
  ],
  "accessors" : [
    {
      "bufferView" : 0,
      "componentType" : 5123,
      "count" : 1902,
      "type" : "SCALAR"
    },
    {
      "bufferView" : 1,
      "min" : [ -0.0417577, 0.000327808, -0.00856914 ],
      "max" : [ 0.0417577, 0.0556522, 0.0103209 ],
      "componentType" : 5126,
      "count" : 340,
      "type" : "VEC3"
    },
    {
      "bufferView" : 2,
      "componentType" : 5126,
      "count" : 340,
      "type" : "VEC3"
    },
    {
      "bufferView" : 3,
      "componentType" : 5126,
      "count" : 340,
      "type" : "VEC4"
    },
    {
      "bufferView" : 4,
      "componentType" : 5126,
      "count" : 340,
      "type" : "VEC2"
    },
    {
      "bufferView" : 5,
      "componentType" : 5126,
      "count" : 340,
      "type" : "VEC2"
    }
  ]
}
