{
  "asset" : {
    "generator" : "UE Viewer (umodel) build 1579 based",
    "version" : "2.0"
  },
  "scene" : 0,
  "scenes" : [
    {
      "nodes" : [ 0 ]
    }
  ],
  "nodes" : [
    {
      "name" : "S_Envi_Wlbl_book_01m",
      "mesh" : 0
    }
  ],
  "materials" : [
    {
      "name" : "S_Envi_Wlbl_book_01H",
      "pbrMetallicRoughness" : {
        "baseColorFactor" : [ 0.3, 0.3, 0.3, 1.0 ],
        "metallicFactor" : 0.1,
        "roughnessFactor" : 0.5
      }
    }
  ],
  "meshes" : [
    {
      "primitives" : [
        {
          "attributes" : {
            "POSITION" : 1,
            "NORMAL" : 2,
            "TANGENT" : 3,
            "TEXCOORD_0" : 4,
            "TEXCOORD_1" : 5
          },
          "indices" : 0,
          "material" : 0
        }
      ],
      "name" : "S_Envi_Wlbl_book_01m"
    }
  ],
  "buffers" : [
    {
      "uri" : "S_Envi_Wlbl_book_01m.bin",
      "byteLength" : 1112
    }
  ],
  "bufferViews" : [
    {
      "buffer" : 0,
      "byteOffset" : 0,
      "byteLength" : 104
    },
    {
      "buffer" : 0,
      "byteOffset" : 104,
      "byteLength" : 216
    },
    {
      "buffer" : 0,
      "byteOffset" : 320,
      "byteLength" : 216
    },
    {
      "buffer" : 0,
      "byteOffset" : 536,
      "byteLength" : 288
    },
    {
      "buffer" : 0,
      "byteOffset" : 824,
      "byteLength" : 144
    },
    {
      "buffer" : 0,
      "byteOffset" : 968,
      "byteLength" : 144
    }
  ],
  "accessors" : [
    {
      "bufferView" : 0,
      "componentType" : 5123,
      "count" : 51,
      "type" : "SCALAR"
    },
    {
      "bufferView" : 1,
      "min" : [ 0, -1.94221e-08, -0.00188698 ],
      "max" : [ 0.12686, 0.163024, 0.00214002 ],
      "componentType" : 5126,
      "count" : 18,
      "type" : "VEC3"
    },
    {
      "bufferView" : 2,
      "componentType" : 5126,
      "count" : 18,
      "type" : "VEC3"
    },
    {
      "bufferView" : 3,
      "componentType" : 5126,
      "count" : 18,
      "type" : "VEC4"
    },
    {
      "bufferView" : 4,
      "componentType" : 5126,
      "count" : 18,
      "type" : "VEC2"
    },
    {
      "bufferView" : 5,
      "componentType" : 5126,
      "count" : 18,
      "type" : "VEC2"
    }
  ]
}
