{
  "asset" : {
    "generator" : "UE Viewer (umodel) build 1579 based",
    "version" : "2.0"
  },
  "scene" : 0,
  "scenes" : [
    {
      "nodes" : [ 0 ]
    }
  ],
  "nodes" : [
    {
      "name" : "S_Evni_Michele_melonpa",
      "mesh" : 0
    }
  ],
  "materials" : [
    {
      "name" : "MI_Evni_Michele_melonpa",
      "pbrMetallicRoughness" : {
        "baseColorFactor" : [ 0.3, 0.3, 0.3, 1.0 ],
        "metallicFactor" : 0.1,
        "roughnessFactor" : 0.5
      }
    }
  ],
  "meshes" : [
    {
      "primitives" : [
        {
          "attributes" : {
            "POSITION" : 1,
            "NORMAL" : 2,
            "TANGENT" : 3,
            "TEXCOORD_0" : 4
          },
          "indices" : 0,
          "material" : 0
        }
      ],
      "name" : "S_Evni_Michele_melonpa"
    }
  ],
  "buffers" : [
    {
      "uri" : "S_Evni_Michele_melonpa.bin",
      "byteLength" : 29112
    }
  ],
  "bufferViews" : [
    {
      "buffer" : 0,
      "byteOffset" : 0,
      "byteLength" : 5496
    },
    {
      "buffer" : 0,
      "byteOffset" : 5496,
      "byteLength" : 5904
    },
    {
      "buffer" : 0,
      "byteOffset" : 11400,
      "byteLength" : 5904
    },
    {
      "buffer" : 0,
      "byteOffset" : 17304,
      "byteLength" : 7872
    },
    {
      "buffer" : 0,
      "byteOffset" : 25176,
      "byteLength" : 3936
    }
  ],
  "accessors" : [
    {
      "bufferView" : 0,
      "componentType" : 5123,
      "count" : 2748,
      "type" : "SCALAR"
    },
    {
      "bufferView" : 1,
      "min" : [ -0.0872596, -0.000663476, -0.0847524 ],
      "max" : [ 0.0876934, 0.0691701, 0.0853858 ],
      "componentType" : 5126,
      "count" : 492,
      "type" : "VEC3"
    },
    {
      "bufferView" : 2,
      "componentType" : 5126,
      "count" : 492,
      "type" : "VEC3"
    },
    {
      "bufferView" : 3,
      "componentType" : 5126,
      "count" : 492,
      "type" : "VEC4"
    },
    {
      "bufferView" : 4,
      "componentType" : 5126,
      "count" : 492,
      "type" : "VEC2"
    }
  ]
}
