{
  "asset" : {
    "generator" : "UE Viewer (umodel) build 1579 based",
    "version" : "2.0"
  },
  "scene" : 0,
  "scenes" : [
    {
      "nodes" : [ 0 ]
    }
  ],
  "nodes" : [
    {
      "name" : "S_Evni_Wlbl_Rock_01b",
      "mesh" : 0
    }
  ],
  "materials" : [
    {
      "name" : "MI_Evni_Wlbl_Fish_02",
      "pbrMetallicRoughness" : {
        "baseColorFactor" : [ 0.3, 0.3, 0.3, 1.0 ],
        "metallicFactor" : 0.1,
        "roughnessFactor" : 0.5
      }
    }
  ],
  "meshes" : [
    {
      "primitives" : [
        {
          "attributes" : {
            "POSITION" : 1,
            "NORMAL" : 2,
            "TANGENT" : 3,
            "TEXCOORD_0" : 4,
            "TEXCOORD_1" : 5
          },
          "indices" : 0,
          "material" : 0
        }
      ],
      "name" : "S_Evni_Wlbl_Rock_01b"
    }
  ],
  "buffers" : [
    {
      "uri" : "S_Evni_Wlbl_Rock_01b.bin",
      "byteLength" : 27220
    }
  ],
  "bufferViews" : [
    {
      "buffer" : 0,
      "byteOffset" : 0,
      "byteLength" : 3980
    },
    {
      "buffer" : 0,
      "byteOffset" : 3980,
      "byteLength" : 4980
    },
    {
      "buffer" : 0,
      "byteOffset" : 8960,
      "byteLength" : 4980
    },
    {
      "buffer" : 0,
      "byteOffset" : 13940,
      "byteLength" : 6640
    },
    {
      "buffer" : 0,
      "byteOffset" : 20580,
      "byteLength" : 3320
    },
    {
      "buffer" : 0,
      "byteOffset" : 23900,
      "byteLength" : 3320
    }
  ],
  "accessors" : [
    {
      "bufferView" : 0,
      "componentType" : 5123,
      "count" : 1989,
      "type" : "SCALAR"
    },
    {
      "bufferView" : 1,
      "min" : [ -0.284752, -0.0216151, -0.246112 ],
      "max" : [ 0.284751, 0.400833, 0.246295 ],
      "componentType" : 5126,
      "count" : 415,
      "type" : "VEC3"
    },
    {
      "bufferView" : 2,
      "componentType" : 5126,
      "count" : 415,
      "type" : "VEC3"
    },
    {
      "bufferView" : 3,
      "componentType" : 5126,
      "count" : 415,
      "type" : "VEC4"
    },
    {
      "bufferView" : 4,
      "componentType" : 5126,
      "count" : 415,
      "type" : "VEC2"
    },
    {
      "bufferView" : 5,
      "componentType" : 5126,
      "count" : 415,
      "type" : "VEC2"
    }
  ]
}
