{
  "asset" : {
    "generator" : "UE Viewer (umodel) build 1579 based",
    "version" : "2.0"
  },
  "scene" : 0,
  "scenes" : [
    {
      "nodes" : [ 0 ]
    }
  ],
  "nodes" : [
    {
      "name" : "S_Evni_Blackteacup_02",
      "mesh" : 0
    }
  ],
  "materials" : [
    {
      "name" : "MI_Evni_Blackteacup",
      "pbrMetallicRoughness" : {
        "baseColorFactor" : [ 0.3, 0.3, 0.3, 1.0 ],
        "metallicFactor" : 0.1,
        "roughnessFactor" : 0.5
      }
    }
  ],
  "meshes" : [
    {
      "primitives" : [
        {
          "attributes" : {
            "POSITION" : 1,
            "NORMAL" : 2,
            "TANGENT" : 3,
            "TEXCOORD_0" : 4
          },
          "indices" : 0,
          "material" : 0
        }
      ],
      "name" : "S_Evni_Blackteacup_02"
    }
  ],
  "buffers" : [
    {
      "uri" : "S_Evni_Blackteacup_02.bin",
      "byteLength" : 18240
    }
  ],
  "bufferViews" : [
    {
      "buffer" : 0,
      "byteOffset" : 0,
      "byteLength" : 3168
    },
    {
      "buffer" : 0,
      "byteOffset" : 3168,
      "byteLength" : 3768
    },
    {
      "buffer" : 0,
      "byteOffset" : 6936,
      "byteLength" : 3768
    },
    {
      "buffer" : 0,
      "byteOffset" : 10704,
      "byteLength" : 5024
    },
    {
      "buffer" : 0,
      "byteOffset" : 15728,
      "byteLength" : 2512
    }
  ],
  "accessors" : [
    {
      "bufferView" : 0,
      "componentType" : 5123,
      "count" : 1584,
      "type" : "SCALAR"
    },
    {
      "bufferView" : 1,
      "min" : [ -0.064511, 0.000625, -0.06003 ],
      "max" : [ 0.064511, 0.012329, 0.06003 ],
      "componentType" : 5126,
      "count" : 314,
      "type" : "VEC3"
    },
    {
      "bufferView" : 2,
      "componentType" : 5126,
      "count" : 314,
      "type" : "VEC3"
    },
    {
      "bufferView" : 3,
      "componentType" : 5126,
      "count" : 314,
      "type" : "VEC4"
    },
    {
      "bufferView" : 4,
      "componentType" : 5126,
      "count" : 314,
      "type" : "VEC2"
    }
  ]
}
