{
  "asset" : {
    "generator" : "UE Viewer (umodel) build 1579 based",
    "version" : "2.0"
  },
  "scene" : 0,
  "scenes" : [
    {
      "nodes" : [ 0 ]
    }
  ],
  "nodes" : [
    {
      "name" : "S_Evni_Wlbl_Aquatic_14",
      "mesh" : 0
    }
  ],
  "materials" : [
    {
      "name" : "MI_Evni_Wlbl_Aquatic_5",
      "pbrMetallicRoughness" : {
        "baseColorFactor" : [ 0.3, 0.3, 0.3, 1.0 ],
        "metallicFactor" : 0.1,
        "roughnessFactor" : 0.5
      }
    }
  ],
  "meshes" : [
    {
      "primitives" : [
        {
          "attributes" : {
            "POSITION" : 1,
            "NORMAL" : 2,
            "TANGENT" : 3,
            "TEXCOORD_0" : 4,
            "TEXCOORD_1" : 5
          },
          "indices" : 0,
          "material" : 0
        }
      ],
      "name" : "S_Evni_Wlbl_Aquatic_14"
    }
  ],
  "buffers" : [
    {
      "uri" : "S_Evni_Wlbl_Aquatic_14.bin",
      "byteLength" : 60424
    }
  ],
  "bufferViews" : [
    {
      "buffer" : 0,
      "byteOffset" : 0,
      "byteLength" : 4536
    },
    {
      "buffer" : 0,
      "byteOffset" : 4536,
      "byteLength" : 11976
    },
    {
      "buffer" : 0,
      "byteOffset" : 16512,
      "byteLength" : 11976
    },
    {
      "buffer" : 0,
      "byteOffset" : 28488,
      "byteLength" : 15968
    },
    {
      "buffer" : 0,
      "byteOffset" : 44456,
      "byteLength" : 7984
    },
    {
      "buffer" : 0,
      "byteOffset" : 52440,
      "byteLength" : 7984
    }
  ],
  "accessors" : [
    {
      "bufferView" : 0,
      "componentType" : 5123,
      "count" : 2268,
      "type" : "SCALAR"
    },
    {
      "bufferView" : 1,
      "min" : [ -1.75155, -0.0690474, -1.08028 ],
      "max" : [ 2.32166, 0.235546, 2.43707 ],
      "componentType" : 5126,
      "count" : 998,
      "type" : "VEC3"
    },
    {
      "bufferView" : 2,
      "componentType" : 5126,
      "count" : 998,
      "type" : "VEC3"
    },
    {
      "bufferView" : 3,
      "componentType" : 5126,
      "count" : 998,
      "type" : "VEC4"
    },
    {
      "bufferView" : 4,
      "componentType" : 5126,
      "count" : 998,
      "type" : "VEC2"
    },
    {
      "bufferView" : 5,
      "componentType" : 5126,
      "count" : 998,
      "type" : "VEC2"
    }
  ]
}
