{
  "asset" : {
    "generator" : "UE Viewer (umodel) build 1579 based",
    "version" : "2.0"
  },
  "scene" : 0,
  "scenes" : [
    {
      "nodes" : [ 0 ]
    }
  ],
  "nodes" : [
    {
      "name" : "S_Evni_Wlbl_BoardGame_03",
      "mesh" : 0
    }
  ],
  "materials" : [
    {
      "name" : "MI_Evni_Wlbl_GameConsole_01",
      "pbrMetallicRoughness" : {
        "baseColorFactor" : [ 0.3, 0.3, 0.3, 1.0 ],
        "metallicFactor" : 0.1,
        "roughnessFactor" : 0.5
      }
    }
  ],
  "meshes" : [
    {
      "primitives" : [
        {
          "attributes" : {
            "POSITION" : 1,
            "NORMAL" : 2,
            "TANGENT" : 3,
            "TEXCOORD_0" : 4,
            "TEXCOORD_1" : 5
          },
          "indices" : 0,
          "material" : 0
        }
      ],
      "name" : "S_Evni_Wlbl_BoardGame_03"
    }
  ],
  "buffers" : [
    {
      "uri" : "S_Evni_Wlbl_BoardGame_03.bin",
      "byteLength" : 10200
    }
  ],
  "bufferViews" : [
    {
      "buffer" : 0,
      "byteOffset" : 0,
      "byteLength" : 792
    },
    {
      "buffer" : 0,
      "byteOffset" : 792,
      "byteLength" : 2016
    },
    {
      "buffer" : 0,
      "byteOffset" : 2808,
      "byteLength" : 2016
    },
    {
      "buffer" : 0,
      "byteOffset" : 4824,
      "byteLength" : 2688
    },
    {
      "buffer" : 0,
      "byteOffset" : 7512,
      "byteLength" : 1344
    },
    {
      "buffer" : 0,
      "byteOffset" : 8856,
      "byteLength" : 1344
    }
  ],
  "accessors" : [
    {
      "bufferView" : 0,
      "componentType" : 5123,
      "count" : 396,
      "type" : "SCALAR"
    },
    {
      "bufferView" : 1,
      "min" : [ -0.045619, -4.63257e-10, -0.06503 ],
      "max" : [ 0.0466634, 0.0432977, 0.0632645 ],
      "componentType" : 5126,
      "count" : 168,
      "type" : "VEC3"
    },
    {
      "bufferView" : 2,
      "componentType" : 5126,
      "count" : 168,
      "type" : "VEC3"
    },
    {
      "bufferView" : 3,
      "componentType" : 5126,
      "count" : 168,
      "type" : "VEC4"
    },
    {
      "bufferView" : 4,
      "componentType" : 5126,
      "count" : 168,
      "type" : "VEC2"
    },
    {
      "bufferView" : 5,
      "componentType" : 5126,
      "count" : 168,
      "type" : "VEC2"
    }
  ]
}
