{
  "asset" : {
    "generator" : "UE Viewer (umodel) build 1579 based",
    "version" : "2.0"
  },
  "scene" : 0,
  "scenes" : [
    {
      "nodes" : [ 0 ]
    }
  ],
  "nodes" : [
    {
      "name" : "S_Evni_Wlbl_Rock_01",
      "mesh" : 0
    }
  ],
  "materials" : [
    {
      "name" : "MI_Evni_Wlbl_Fish_02",
      "pbrMetallicRoughness" : {
        "baseColorFactor" : [ 0.3, 0.3, 0.3, 1.0 ],
        "metallicFactor" : 0.1,
        "roughnessFactor" : 0.5
      }
    }
  ],
  "meshes" : [
    {
      "primitives" : [
        {
          "attributes" : {
            "POSITION" : 1,
            "NORMAL" : 2,
            "TANGENT" : 3,
            "TEXCOORD_0" : 4,
            "TEXCOORD_1" : 5
          },
          "indices" : 0,
          "material" : 0
        }
      ],
      "name" : "S_Evni_Wlbl_Rock_01"
    }
  ],
  "buffers" : [
    {
      "uri" : "S_Evni_Wlbl_Rock_01.bin",
      "byteLength" : 22668
    }
  ],
  "bufferViews" : [
    {
      "buffer" : 0,
      "byteOffset" : 0,
      "byteLength" : 3180
    },
    {
      "buffer" : 0,
      "byteOffset" : 3180,
      "byteLength" : 4176
    },
    {
      "buffer" : 0,
      "byteOffset" : 7356,
      "byteLength" : 4176
    },
    {
      "buffer" : 0,
      "byteOffset" : 11532,
      "byteLength" : 5568
    },
    {
      "buffer" : 0,
      "byteOffset" : 17100,
      "byteLength" : 2784
    },
    {
      "buffer" : 0,
      "byteOffset" : 19884,
      "byteLength" : 2784
    }
  ],
  "accessors" : [
    {
      "bufferView" : 0,
      "componentType" : 5123,
      "count" : 1590,
      "type" : "SCALAR"
    },
    {
      "bufferView" : 1,
      "min" : [ -0.485159, -0.0360097, -0.459523 ],
      "max" : [ 0.432913, 0.880178, 0.530085 ],
      "componentType" : 5126,
      "count" : 348,
      "type" : "VEC3"
    },
    {
      "bufferView" : 2,
      "componentType" : 5126,
      "count" : 348,
      "type" : "VEC3"
    },
    {
      "bufferView" : 3,
      "componentType" : 5126,
      "count" : 348,
      "type" : "VEC4"
    },
    {
      "bufferView" : 4,
      "componentType" : 5126,
      "count" : 348,
      "type" : "VEC2"
    },
    {
      "bufferView" : 5,
      "componentType" : 5126,
      "count" : 348,
      "type" : "VEC2"
    }
  ]
}
