{
  "asset" : {
    "generator" : "UE Viewer (umodel) build 1579 based",
    "version" : "2.0"
  },
  "scene" : 0,
  "scenes" : [
    {
      "nodes" : [ 0 ]
    }
  ],
  "nodes" : [
    {
      "name" : "S_Evni_Wlbl_Building_08b",
      "mesh" : 0
    }
  ],
  "materials" : [
    {
      "name" : "MI_Evni_Wlbl_Color_02",
      "pbrMetallicRoughness" : {
        "baseColorFactor" : [ 0.3, 0.3, 0.3, 1.0 ],
        "metallicFactor" : 0.1,
        "roughnessFactor" : 0.5
      }
    },
    {
      "name" : "MI_PM_Glass_03b",
      "pbrMetallicRoughness" : {
        "baseColorFactor" : [ 0.9, 0.3, 0.3, 1.0 ],
        "metallicFactor" : 0.1,
        "roughnessFactor" : 0.5
      }
    }
  ],
  "meshes" : [
    {
      "primitives" : [
        {
          "attributes" : {
            "POSITION" : 1,
            "NORMAL" : 2,
            "TANGENT" : 3,
            "TEXCOORD_0" : 4,
            "TEXCOORD_1" : 5
          },
          "indices" : 0,
          "material" : 0
        },
        {
          "attributes" : {
            "POSITION" : 7,
            "NORMAL" : 8,
            "TANGENT" : 9,
            "TEXCOORD_0" : 10,
            "TEXCOORD_1" : 11
          },
          "indices" : 6,
          "material" : 1
        }
      ],
      "name" : "S_Evni_Wlbl_Building_08b"
    }
  ],
  "buffers" : [
    {
      "uri" : "S_Evni_Wlbl_Building_08b.bin",
      "byteLength" : 76632
    }
  ],
  "bufferViews" : [
    {
      "buffer" : 0,
      "byteOffset" : 0,
      "byteLength" : 8880
    },
    {
      "buffer" : 0,
      "byteOffset" : 8880,
      "byteLength" : 14112
    },
    {
      "buffer" : 0,
      "byteOffset" : 22992,
      "byteLength" : 14112
    },
    {
      "buffer" : 0,
      "byteOffset" : 37104,
      "byteLength" : 18816
    },
    {
      "buffer" : 0,
      "byteOffset" : 55920,
      "byteLength" : 9408
    },
    {
      "buffer" : 0,
      "byteOffset" : 65328,
      "byteLength" : 9408
    },
    {
      "buffer" : 0,
      "byteOffset" : 74736,
      "byteLength" : 216
    },
    {
      "buffer" : 0,
      "byteOffset" : 74952,
      "byteLength" : 360
    },
    {
      "buffer" : 0,
      "byteOffset" : 75312,
      "byteLength" : 360
    },
    {
      "buffer" : 0,
      "byteOffset" : 75672,
      "byteLength" : 480
    },
    {
      "buffer" : 0,
      "byteOffset" : 76152,
      "byteLength" : 240
    },
    {
      "buffer" : 0,
      "byteOffset" : 76392,
      "byteLength" : 240
    }
  ],
  "accessors" : [
    {
      "bufferView" : 0,
      "componentType" : 5123,
      "count" : 4440,
      "type" : "SCALAR"
    },
    {
      "bufferView" : 1,
      "min" : [ -2.57634, -1.61553, -0.801677 ],
      "max" : [ 2.57634, 1.2537, 0.945441 ],
      "componentType" : 5126,
      "count" : 1176,
      "type" : "VEC3"
    },
    {
      "bufferView" : 2,
      "componentType" : 5126,
      "count" : 1176,
      "type" : "VEC3"
    },
    {
      "bufferView" : 3,
      "componentType" : 5126,
      "count" : 1176,
      "type" : "VEC4"
    },
    {
      "bufferView" : 4,
      "componentType" : 5126,
      "count" : 1176,
      "type" : "VEC2"
    },
    {
      "bufferView" : 5,
      "componentType" : 5126,
      "count" : 1176,
      "type" : "VEC2"
    },
    {
      "bufferView" : 6,
      "componentType" : 5123,
      "count" : 108,
      "type" : "SCALAR"
    },
    {
      "bufferView" : 7,
      "min" : [ -2.39576, -1.46835, -0.729971 ],
      "max" : [ 2.39576, 1.22122, 0.516873 ],
      "componentType" : 5126,
      "count" : 30,
      "type" : "VEC3"
    },
    {
      "bufferView" : 8,
      "componentType" : 5126,
      "count" : 30,
      "type" : "VEC3"
    },
    {
      "bufferView" : 9,
      "componentType" : 5126,
      "count" : 30,
      "type" : "VEC4"
    },
    {
      "bufferView" : 10,
      "componentType" : 5126,
      "count" : 30,
      "type" : "VEC2"
    },
    {
      "bufferView" : 11,
      "componentType" : 5126,
      "count" : 30,
      "type" : "VEC2"
    }
  ]
}
