{
  "asset" : {
    "generator" : "UE Viewer (umodel) build 1579 based",
    "version" : "2.0"
  },
  "scene" : 0,
  "scenes" : [
    {
      "nodes" : [ 0 ]
    }
  ],
  "nodes" : [
    {
      "name" : "SK_Weap_SVD_102_Sight_Mesh",
      "mesh" : 0,
      "skin" : 0,
      "children" : [ 1 ]
    },
    {
      "name" : "Root",
      "translation" : [ 0, 0, 0 ],
      "rotation" : [ -0, -0, -0, 1 ]
    }
  ],
  "skins" : [
    {
      "inverseBindMatrices" : 0,
      "skeleton" : 1,
      "joints" : [
        1
      ]
    }
  ],
  "materials" : [
    {
      "name" : "MI_Weap_SVD_02_102",
      "pbrMetallicRoughness" : {
        "baseColorFactor" : [ 0.3, 0.3, 0.3, 1.0 ],
        "metallicFactor" : 0.1,
        "roughnessFactor" : 0.5
      }
    }
  ],
  "meshes" : [
    {
      "primitives" : [
        {
          "attributes" : {
            "POSITION" : 2,
            "NORMAL" : 3,
            "TANGENT" : 4,
            "JOINTS_0" : 5,
            "WEIGHTS_0" : 6,
            "TEXCOORD_0" : 7
          },
          "indices" : 1,
          "material" : 0
        }
      ],
      "name" : "SK_Weap_SVD_102_Sight_Mesh"
    }
  ],
  "buffers" : [
    {
      "uri" : "SK_Weap_SVD_102_Sight_Mesh.bin",
      "byteLength" : 205780
    }
  ],
  "bufferViews" : [
    {
      "buffer" : 0,
      "byteOffset" : 0,
      "byteLength" : 64
    },
    {
      "buffer" : 0,
      "byteOffset" : 64,
      "byteLength" : 23316
    },
    {
      "buffer" : 0,
      "byteOffset" : 23380,
      "byteLength" : 36480
    },
    {
      "buffer" : 0,
      "byteOffset" : 59860,
      "byteLength" : 36480
    },
    {
      "buffer" : 0,
      "byteOffset" : 96340,
      "byteLength" : 48640
    },
    {
      "buffer" : 0,
      "byteOffset" : 144980,
      "byteLength" : 24320
    },
    {
      "buffer" : 0,
      "byteOffset" : 169300,
      "byteLength" : 12160
    },
    {
      "buffer" : 0,
      "byteOffset" : 181460,
      "byteLength" : 24320
    }
  ],
  "accessors" : [
    {
      "bufferView" : 0,
      "componentType" : 5126,
      "count" : 1,
      "type" : "MAT4"
    },
    {
      "bufferView" : 1,
      "componentType" : 5123,
      "count" : 11658,
      "type" : "SCALAR"
    },
    {
      "bufferView" : 2,
      "min" : [ -0.0330365, -0.0201637, -0.0884738 ],
      "max" : [ 0.0330365, 0.0417355, 0.102172 ],
      "componentType" : 5126,
      "count" : 3040,
      "type" : "VEC3"
    },
    {
      "bufferView" : 3,
      "componentType" : 5126,
      "count" : 3040,
      "type" : "VEC3"
    },
    {
      "bufferView" : 4,
      "componentType" : 5126,
      "count" : 3040,
      "type" : "VEC4"
    },
    {
      "bufferView" : 5,
      "componentType" : 5123,
      "count" : 3040,
      "type" : "VEC4"
    },
    {
      "bufferView" : 6,
      "normalized" : true,
      "componentType" : 5121,
      "count" : 3040,
      "type" : "VEC4"
    },
    {
      "bufferView" : 7,
      "componentType" : 5126,
      "count" : 3040,
      "type" : "VEC2"
    }
  ]
}
