{
  "asset" : {
    "generator" : "UE Viewer (umodel) build 1579 based",
    "version" : "2.0"
  },
  "scene" : 0,
  "scenes" : [
    {
      "nodes" : [ 0 ]
    }
  ],
  "nodes" : [
    {
      "name" : "S_Envi_Fyz_Military_05c",
      "mesh" : 0
    }
  ],
  "materials" : [
    {
      "name" : "MI_Envi_Fyz_Military_03a",
      "pbrMetallicRoughness" : {
        "baseColorFactor" : [ 0.3, 0.3, 0.3, 1.0 ],
        "metallicFactor" : 0.1,
        "roughnessFactor" : 0.5
      }
    }
  ],
  "meshes" : [
    {
      "primitives" : [
        {
          "attributes" : {
            "POSITION" : 1,
            "NORMAL" : 2,
            "TANGENT" : 3,
            "TEXCOORD_0" : 4,
            "TEXCOORD_1" : 5
          },
          "indices" : 0,
          "material" : 0
        }
      ],
      "name" : "S_Envi_Fyz_Military_05c"
    }
  ],
  "buffers" : [
    {
      "uri" : "S_Envi_Fyz_Military_05c.bin",
      "byteLength" : 36040
    }
  ],
  "bufferViews" : [
    {
      "buffer" : 0,
      "byteOffset" : 0,
      "byteLength" : 1992
    },
    {
      "buffer" : 0,
      "byteOffset" : 1992,
      "byteLength" : 7296
    },
    {
      "buffer" : 0,
      "byteOffset" : 9288,
      "byteLength" : 7296
    },
    {
      "buffer" : 0,
      "byteOffset" : 16584,
      "byteLength" : 9728
    },
    {
      "buffer" : 0,
      "byteOffset" : 26312,
      "byteLength" : 4864
    },
    {
      "buffer" : 0,
      "byteOffset" : 31176,
      "byteLength" : 4864
    }
  ],
  "accessors" : [
    {
      "bufferView" : 0,
      "componentType" : 5123,
      "count" : 996,
      "type" : "SCALAR"
    },
    {
      "bufferView" : 1,
      "min" : [ -1.03212, -0.31993, -0.135064 ],
      "max" : [ 1.03212, 0.396838, 0.135067 ],
      "componentType" : 5126,
      "count" : 608,
      "type" : "VEC3"
    },
    {
      "bufferView" : 2,
      "componentType" : 5126,
      "count" : 608,
      "type" : "VEC3"
    },
    {
      "bufferView" : 3,
      "componentType" : 5126,
      "count" : 608,
      "type" : "VEC4"
    },
    {
      "bufferView" : 4,
      "componentType" : 5126,
      "count" : 608,
      "type" : "VEC2"
    },
    {
      "bufferView" : 5,
      "componentType" : 5126,
      "count" : 608,
      "type" : "VEC2"
    }
  ]
}
