{
  "asset" : {
    "generator" : "UE Viewer (umodel) build 1579 based",
    "version" : "2.0"
  },
  "scene" : 0,
  "scenes" : [
    {
      "nodes" : [ 0 ]
    }
  ],
  "nodes" : [
    {
      "name" : "S_Envi_Fyz_Show_03b",
      "mesh" : 0
    }
  ],
  "materials" : [
    {
      "name" : "MI_Envi_Olgk_Refine_01c",
      "pbrMetallicRoughness" : {
        "baseColorFactor" : [ 0.3, 0.3, 0.3, 1.0 ],
        "metallicFactor" : 0.1,
        "roughnessFactor" : 0.5
      }
    },
    {
      "name" : "M_Glass_Inst1",
      "pbrMetallicRoughness" : {
        "baseColorFactor" : [ 0.9, 0.3, 0.3, 1.0 ],
        "metallicFactor" : 0.1,
        "roughnessFactor" : 0.5
      }
    }
  ],
  "meshes" : [
    {
      "primitives" : [
        {
          "attributes" : {
            "POSITION" : 1,
            "NORMAL" : 2,
            "TANGENT" : 3,
            "TEXCOORD_0" : 4,
            "TEXCOORD_1" : 5
          },
          "indices" : 0,
          "material" : 0
        },
        {
          "attributes" : {
            "POSITION" : 7,
            "NORMAL" : 8,
            "TANGENT" : 9,
            "TEXCOORD_0" : 10,
            "TEXCOORD_1" : 11
          },
          "indices" : 6,
          "material" : 1
        }
      ],
      "name" : "S_Envi_Fyz_Show_03b"
    }
  ],
  "buffers" : [
    {
      "uri" : "S_Envi_Fyz_Show_03b.bin",
      "byteLength" : 16792
    }
  ],
  "bufferViews" : [
    {
      "buffer" : 0,
      "byteOffset" : 0,
      "byteLength" : 872
    },
    {
      "buffer" : 0,
      "byteOffset" : 872,
      "byteLength" : 3228
    },
    {
      "buffer" : 0,
      "byteOffset" : 4100,
      "byteLength" : 3228
    },
    {
      "buffer" : 0,
      "byteOffset" : 7328,
      "byteLength" : 4304
    },
    {
      "buffer" : 0,
      "byteOffset" : 11632,
      "byteLength" : 2152
    },
    {
      "buffer" : 0,
      "byteOffset" : 13784,
      "byteLength" : 2152
    },
    {
      "buffer" : 0,
      "byteOffset" : 15936,
      "byteLength" : 72
    },
    {
      "buffer" : 0,
      "byteOffset" : 16008,
      "byteLength" : 168
    },
    {
      "buffer" : 0,
      "byteOffset" : 16176,
      "byteLength" : 168
    },
    {
      "buffer" : 0,
      "byteOffset" : 16344,
      "byteLength" : 224
    },
    {
      "buffer" : 0,
      "byteOffset" : 16568,
      "byteLength" : 112
    },
    {
      "buffer" : 0,
      "byteOffset" : 16680,
      "byteLength" : 112
    }
  ],
  "accessors" : [
    {
      "bufferView" : 0,
      "componentType" : 5123,
      "count" : 435,
      "type" : "SCALAR"
    },
    {
      "bufferView" : 1,
      "min" : [ -0.0365998, 7.62939e-08, -0.0366379 ],
      "max" : [ 0.0365998, 0.211694, 0.0366379 ],
      "componentType" : 5126,
      "count" : 269,
      "type" : "VEC3"
    },
    {
      "bufferView" : 2,
      "componentType" : 5126,
      "count" : 269,
      "type" : "VEC3"
    },
    {
      "bufferView" : 3,
      "componentType" : 5126,
      "count" : 269,
      "type" : "VEC4"
    },
    {
      "bufferView" : 4,
      "componentType" : 5126,
      "count" : 269,
      "type" : "VEC2"
    },
    {
      "bufferView" : 5,
      "componentType" : 5126,
      "count" : 269,
      "type" : "VEC2"
    },
    {
      "bufferView" : 6,
      "componentType" : 5123,
      "count" : 36,
      "type" : "SCALAR"
    },
    {
      "bufferView" : 7,
      "min" : [ -0.0175553, 0.0851921, -0.0172753 ],
      "max" : [ 0.0137369, 0.187042, 0.0140169 ],
      "componentType" : 5126,
      "count" : 14,
      "type" : "VEC3"
    },
    {
      "bufferView" : 8,
      "componentType" : 5126,
      "count" : 14,
      "type" : "VEC3"
    },
    {
      "bufferView" : 9,
      "componentType" : 5126,
      "count" : 14,
      "type" : "VEC4"
    },
    {
      "bufferView" : 10,
      "componentType" : 5126,
      "count" : 14,
      "type" : "VEC2"
    },
    {
      "bufferView" : 11,
      "componentType" : 5126,
      "count" : 14,
      "type" : "VEC2"
    }
  ]
}
