{
  "asset" : {
    "generator" : "UE Viewer (umodel) build 1579 based",
    "version" : "2.0"
  },
  "scene" : 0,
  "scenes" : [
    {
      "nodes" : [ 0 ]
    }
  ],
  "nodes" : [
    {
      "name" : "S_Envi_Fyz_Painter_03a",
      "mesh" : 0
    }
  ],
  "materials" : [
    {
      "name" : "MI_Envi_Fyz_Paonter_03a",
      "pbrMetallicRoughness" : {
        "baseColorFactor" : [ 0.3, 0.3, 0.3, 1.0 ],
        "metallicFactor" : 0.1,
        "roughnessFactor" : 0.5
      }
    }
  ],
  "meshes" : [
    {
      "primitives" : [
        {
          "attributes" : {
            "POSITION" : 1,
            "NORMAL" : 2,
            "TANGENT" : 3,
            "TEXCOORD_0" : 4,
            "TEXCOORD_1" : 5
          },
          "indices" : 0,
          "material" : 0
        }
      ],
      "name" : "S_Envi_Fyz_Painter_03a"
    }
  ],
  "buffers" : [
    {
      "uri" : "S_Envi_Fyz_Painter_03a.bin",
      "byteLength" : 78788
    }
  ],
  "bufferViews" : [
    {
      "buffer" : 0,
      "byteOffset" : 0,
      "byteLength" : 4980
    },
    {
      "buffer" : 0,
      "byteOffset" : 4980,
      "byteLength" : 15816
    },
    {
      "buffer" : 0,
      "byteOffset" : 20796,
      "byteLength" : 15816
    },
    {
      "buffer" : 0,
      "byteOffset" : 36612,
      "byteLength" : 21088
    },
    {
      "buffer" : 0,
      "byteOffset" : 57700,
      "byteLength" : 10544
    },
    {
      "buffer" : 0,
      "byteOffset" : 68244,
      "byteLength" : 10544
    }
  ],
  "accessors" : [
    {
      "bufferView" : 0,
      "componentType" : 5123,
      "count" : 2490,
      "type" : "SCALAR"
    },
    {
      "bufferView" : 1,
      "min" : [ -1.48412, 4.16352, -1.15155 ],
      "max" : [ 0.900576, 7.56197, 0.544443 ],
      "componentType" : 5126,
      "count" : 1318,
      "type" : "VEC3"
    },
    {
      "bufferView" : 2,
      "componentType" : 5126,
      "count" : 1318,
      "type" : "VEC3"
    },
    {
      "bufferView" : 3,
      "componentType" : 5126,
      "count" : 1318,
      "type" : "VEC4"
    },
    {
      "bufferView" : 4,
      "componentType" : 5126,
      "count" : 1318,
      "type" : "VEC2"
    },
    {
      "bufferView" : 5,
      "componentType" : 5126,
      "count" : 1318,
      "type" : "VEC2"
    }
  ]
}
