{
  "asset" : {
    "generator" : "UE Viewer (umodel) build 1579 based",
    "version" : "2.0"
  },
  "scene" : 0,
  "scenes" : [
    {
      "nodes" : [ 0 ]
    }
  ],
  "nodes" : [
    {
      "name" : "S_Envi_Fyz_Bucket_02a",
      "mesh" : 0
    }
  ],
  "materials" : [
    {
      "name" : "MI_Envi_Fyz_FlowerBed_01a",
      "pbrMetallicRoughness" : {
        "baseColorFactor" : [ 0.3, 0.3, 0.3, 1.0 ],
        "metallicFactor" : 0.1,
        "roughnessFactor" : 0.5
      }
    }
  ],
  "meshes" : [
    {
      "primitives" : [
        {
          "attributes" : {
            "POSITION" : 1,
            "NORMAL" : 2,
            "TANGENT" : 3,
            "TEXCOORD_0" : 4,
            "TEXCOORD_1" : 5
          },
          "indices" : 0,
          "material" : 0
        }
      ],
      "name" : "S_Envi_Fyz_Bucket_02a"
    }
  ],
  "buffers" : [
    {
      "uri" : "S_Envi_Fyz_Bucket_02a.bin",
      "byteLength" : 8808
    }
  ],
  "bufferViews" : [
    {
      "buffer" : 0,
      "byteOffset" : 0,
      "byteLength" : 744
    },
    {
      "buffer" : 0,
      "byteOffset" : 744,
      "byteLength" : 1728
    },
    {
      "buffer" : 0,
      "byteOffset" : 2472,
      "byteLength" : 1728
    },
    {
      "buffer" : 0,
      "byteOffset" : 4200,
      "byteLength" : 2304
    },
    {
      "buffer" : 0,
      "byteOffset" : 6504,
      "byteLength" : 1152
    },
    {
      "buffer" : 0,
      "byteOffset" : 7656,
      "byteLength" : 1152
    }
  ],
  "accessors" : [
    {
      "bufferView" : 0,
      "componentType" : 5123,
      "count" : 372,
      "type" : "SCALAR"
    },
    {
      "bufferView" : 1,
      "min" : [ -0.137571, -0.00306374, -0.137219 ],
      "max" : [ 0.136766, 0.302239, 0.137117 ],
      "componentType" : 5126,
      "count" : 144,
      "type" : "VEC3"
    },
    {
      "bufferView" : 2,
      "componentType" : 5126,
      "count" : 144,
      "type" : "VEC3"
    },
    {
      "bufferView" : 3,
      "componentType" : 5126,
      "count" : 144,
      "type" : "VEC4"
    },
    {
      "bufferView" : 4,
      "componentType" : 5126,
      "count" : 144,
      "type" : "VEC2"
    },
    {
      "bufferView" : 5,
      "componentType" : 5126,
      "count" : 144,
      "type" : "VEC2"
    }
  ]
}
