{
  "asset" : {
    "generator" : "UE Viewer (umodel) build 1579 based",
    "version" : "2.0"
  },
  "scene" : 0,
  "scenes" : [
    {
      "nodes" : [ 0 ]
    }
  ],
  "nodes" : [
    {
      "name" : "S_Envi_Fyz_Spraycan_01b",
      "mesh" : 0
    }
  ],
  "materials" : [
    {
      "name" : "MI_Envi_Fyz_Store_03a",
      "pbrMetallicRoughness" : {
        "baseColorFactor" : [ 0.3, 0.3, 0.3, 1.0 ],
        "metallicFactor" : 0.1,
        "roughnessFactor" : 0.5
      }
    }
  ],
  "meshes" : [
    {
      "primitives" : [
        {
          "attributes" : {
            "POSITION" : 1,
            "NORMAL" : 2,
            "TANGENT" : 3,
            "TEXCOORD_0" : 4,
            "TEXCOORD_1" : 5
          },
          "indices" : 0,
          "material" : 0
        }
      ],
      "name" : "S_Envi_Fyz_Spraycan_01b"
    }
  ],
  "buffers" : [
    {
      "uri" : "S_Envi_Fyz_Spraycan_01b.bin",
      "byteLength" : 18116
    }
  ],
  "bufferViews" : [
    {
      "buffer" : 0,
      "byteOffset" : 0,
      "byteLength" : 2268
    },
    {
      "buffer" : 0,
      "byteOffset" : 2268,
      "byteLength" : 3396
    },
    {
      "buffer" : 0,
      "byteOffset" : 5664,
      "byteLength" : 3396
    },
    {
      "buffer" : 0,
      "byteOffset" : 9060,
      "byteLength" : 4528
    },
    {
      "buffer" : 0,
      "byteOffset" : 13588,
      "byteLength" : 2264
    },
    {
      "buffer" : 0,
      "byteOffset" : 15852,
      "byteLength" : 2264
    }
  ],
  "accessors" : [
    {
      "bufferView" : 0,
      "componentType" : 5123,
      "count" : 1134,
      "type" : "SCALAR"
    },
    {
      "bufferView" : 1,
      "min" : [ -0.0695953, -4.05501e-18, -0.0695953 ],
      "max" : [ 0.0695953, 0.292987, 0.0695953 ],
      "componentType" : 5126,
      "count" : 283,
      "type" : "VEC3"
    },
    {
      "bufferView" : 2,
      "componentType" : 5126,
      "count" : 283,
      "type" : "VEC3"
    },
    {
      "bufferView" : 3,
      "componentType" : 5126,
      "count" : 283,
      "type" : "VEC4"
    },
    {
      "bufferView" : 4,
      "componentType" : 5126,
      "count" : 283,
      "type" : "VEC2"
    },
    {
      "bufferView" : 5,
      "componentType" : 5126,
      "count" : 283,
      "type" : "VEC2"
    }
  ]
}
