{
  "asset" : {
    "generator" : "UE Viewer (umodel) build 1579 based",
    "version" : "2.0"
  },
  "scene" : 0,
  "scenes" : [
    {
      "nodes" : [ 0 ]
    }
  ],
  "nodes" : [
    {
      "name" : "S_Envi_Fyz_Beer_01a",
      "mesh" : 0
    }
  ],
  "materials" : [
    {
      "name" : "MI_Envi_Fyz_Store_03a",
      "pbrMetallicRoughness" : {
        "baseColorFactor" : [ 0.3, 0.3, 0.3, 1.0 ],
        "metallicFactor" : 0.1,
        "roughnessFactor" : 0.5
      }
    }
  ],
  "meshes" : [
    {
      "primitives" : [
        {
          "attributes" : {
            "POSITION" : 1,
            "NORMAL" : 2,
            "TANGENT" : 3,
            "TEXCOORD_0" : 4,
            "TEXCOORD_1" : 5
          },
          "indices" : 0,
          "material" : 0
        }
      ],
      "name" : "S_Envi_Fyz_Beer_01a"
    }
  ],
  "buffers" : [
    {
      "uri" : "S_Envi_Fyz_Beer_01a.bin",
      "byteLength" : 11792
    }
  ],
  "bufferViews" : [
    {
      "buffer" : 0,
      "byteOffset" : 0,
      "byteLength" : 1656
    },
    {
      "buffer" : 0,
      "byteOffset" : 1656,
      "byteLength" : 2172
    },
    {
      "buffer" : 0,
      "byteOffset" : 3828,
      "byteLength" : 2172
    },
    {
      "buffer" : 0,
      "byteOffset" : 6000,
      "byteLength" : 2896
    },
    {
      "buffer" : 0,
      "byteOffset" : 8896,
      "byteLength" : 1448
    },
    {
      "buffer" : 0,
      "byteOffset" : 10344,
      "byteLength" : 1448
    }
  ],
  "accessors" : [
    {
      "bufferView" : 0,
      "componentType" : 5123,
      "count" : 828,
      "type" : "SCALAR"
    },
    {
      "bufferView" : 1,
      "min" : [ -0.0529945, -2.82317e-18, -0.0529945 ],
      "max" : [ 0.0529945, 0.346142, 0.0529945 ],
      "componentType" : 5126,
      "count" : 181,
      "type" : "VEC3"
    },
    {
      "bufferView" : 2,
      "componentType" : 5126,
      "count" : 181,
      "type" : "VEC3"
    },
    {
      "bufferView" : 3,
      "componentType" : 5126,
      "count" : 181,
      "type" : "VEC4"
    },
    {
      "bufferView" : 4,
      "componentType" : 5126,
      "count" : 181,
      "type" : "VEC2"
    },
    {
      "bufferView" : 5,
      "componentType" : 5126,
      "count" : 181,
      "type" : "VEC2"
    }
  ]
}
