{
  "asset" : {
    "generator" : "UE Viewer (umodel) build 1579 based",
    "version" : "2.0"
  },
  "scene" : 0,
  "scenes" : [
    {
      "nodes" : [ 0 ]
    }
  ],
  "nodes" : [
    {
      "name" : "S_Envi_Fyz_Cans_01a",
      "mesh" : 0
    }
  ],
  "materials" : [
    {
      "name" : "MI_Envi_Fyz_Store_03a",
      "pbrMetallicRoughness" : {
        "baseColorFactor" : [ 0.3, 0.3, 0.3, 1.0 ],
        "metallicFactor" : 0.1,
        "roughnessFactor" : 0.5
      }
    }
  ],
  "meshes" : [
    {
      "primitives" : [
        {
          "attributes" : {
            "POSITION" : 1,
            "NORMAL" : 2,
            "TANGENT" : 3,
            "TEXCOORD_0" : 4,
            "TEXCOORD_1" : 5
          },
          "indices" : 0,
          "material" : 0
        }
      ],
      "name" : "S_Envi_Fyz_Cans_01a"
    }
  ],
  "buffers" : [
    {
      "uri" : "S_Envi_Fyz_Cans_01a.bin",
      "byteLength" : 10176
    }
  ],
  "bufferViews" : [
    {
      "buffer" : 0,
      "byteOffset" : 0,
      "byteLength" : 1440
    },
    {
      "buffer" : 0,
      "byteOffset" : 1440,
      "byteLength" : 1872
    },
    {
      "buffer" : 0,
      "byteOffset" : 3312,
      "byteLength" : 1872
    },
    {
      "buffer" : 0,
      "byteOffset" : 5184,
      "byteLength" : 2496
    },
    {
      "buffer" : 0,
      "byteOffset" : 7680,
      "byteLength" : 1248
    },
    {
      "buffer" : 0,
      "byteOffset" : 8928,
      "byteLength" : 1248
    }
  ],
  "accessors" : [
    {
      "bufferView" : 0,
      "componentType" : 5123,
      "count" : 720,
      "type" : "SCALAR"
    },
    {
      "bufferView" : 1,
      "min" : [ -0.0494601, 0.000133338, -0.0394601 ],
      "max" : [ 0.0294601, 0.130457, 0.0394601 ],
      "componentType" : 5126,
      "count" : 156,
      "type" : "VEC3"
    },
    {
      "bufferView" : 2,
      "componentType" : 5126,
      "count" : 156,
      "type" : "VEC3"
    },
    {
      "bufferView" : 3,
      "componentType" : 5126,
      "count" : 156,
      "type" : "VEC4"
    },
    {
      "bufferView" : 4,
      "componentType" : 5126,
      "count" : 156,
      "type" : "VEC2"
    },
    {
      "bufferView" : 5,
      "componentType" : 5126,
      "count" : 156,
      "type" : "VEC2"
    }
  ]
}
