{
  "asset" : {
    "generator" : "UE Viewer (umodel) build 1579 based",
    "version" : "2.0"
  },
  "scene" : 0,
  "scenes" : [
    {
      "nodes" : [ 0 ]
    }
  ],
  "nodes" : [
    {
      "name" : "S_Envi_Fyz_Breadstore_01r",
      "mesh" : 0
    }
  ],
  "materials" : [
    {
      "name" : "MI_Envi_Fyz_Store_03a",
      "pbrMetallicRoughness" : {
        "baseColorFactor" : [ 0.3, 0.3, 0.3, 1.0 ],
        "metallicFactor" : 0.1,
        "roughnessFactor" : 0.5
      }
    }
  ],
  "meshes" : [
    {
      "primitives" : [
        {
          "attributes" : {
            "POSITION" : 1,
            "NORMAL" : 2,
            "TANGENT" : 3,
            "TEXCOORD_0" : 4,
            "TEXCOORD_1" : 5
          },
          "indices" : 0,
          "material" : 0
        }
      ],
      "name" : "S_Envi_Fyz_Breadstore_01r"
    }
  ],
  "buffers" : [
    {
      "uri" : "S_Envi_Fyz_Breadstore_01r.bin",
      "byteLength" : 15524
    }
  ],
  "bufferViews" : [
    {
      "buffer" : 0,
      "byteOffset" : 0,
      "byteLength" : 1524
    },
    {
      "buffer" : 0,
      "byteOffset" : 1524,
      "byteLength" : 3000
    },
    {
      "buffer" : 0,
      "byteOffset" : 4524,
      "byteLength" : 3000
    },
    {
      "buffer" : 0,
      "byteOffset" : 7524,
      "byteLength" : 4000
    },
    {
      "buffer" : 0,
      "byteOffset" : 11524,
      "byteLength" : 2000
    },
    {
      "buffer" : 0,
      "byteOffset" : 13524,
      "byteLength" : 2000
    }
  ],
  "accessors" : [
    {
      "bufferView" : 0,
      "componentType" : 5123,
      "count" : 762,
      "type" : "SCALAR"
    },
    {
      "bufferView" : 1,
      "min" : [ -0.579309, -0.0018042, -0.579308 ],
      "max" : [ 0.57931, 1.01779, 0.579311 ],
      "componentType" : 5126,
      "count" : 250,
      "type" : "VEC3"
    },
    {
      "bufferView" : 2,
      "componentType" : 5126,
      "count" : 250,
      "type" : "VEC3"
    },
    {
      "bufferView" : 3,
      "componentType" : 5126,
      "count" : 250,
      "type" : "VEC4"
    },
    {
      "bufferView" : 4,
      "componentType" : 5126,
      "count" : 250,
      "type" : "VEC2"
    },
    {
      "bufferView" : 5,
      "componentType" : 5126,
      "count" : 250,
      "type" : "VEC2"
    }
  ]
}
