{
  "asset" : {
    "generator" : "UE Viewer (umodel) build 1579 based",
    "version" : "2.0"
  },
  "scene" : 0,
  "scenes" : [
    {
      "nodes" : [ 0 ]
    }
  ],
  "nodes" : [
    {
      "name" : "S_Envi_Fyz_Breadstore_01u",
      "mesh" : 0
    }
  ],
  "materials" : [
    {
      "name" : "MI_Envi_Fyz_Store_03a",
      "pbrMetallicRoughness" : {
        "baseColorFactor" : [ 0.3, 0.3, 0.3, 1.0 ],
        "metallicFactor" : 0.1,
        "roughnessFactor" : 0.5
      }
    }
  ],
  "meshes" : [
    {
      "primitives" : [
        {
          "attributes" : {
            "POSITION" : 1,
            "NORMAL" : 2,
            "TANGENT" : 3,
            "TEXCOORD_0" : 4,
            "TEXCOORD_1" : 5
          },
          "indices" : 0,
          "material" : 0
        }
      ],
      "name" : "S_Envi_Fyz_Breadstore_01u"
    }
  ],
  "buffers" : [
    {
      "uri" : "S_Envi_Fyz_Breadstore_01u.bin",
      "byteLength" : 6176
    }
  ],
  "bufferViews" : [
    {
      "buffer" : 0,
      "byteOffset" : 0,
      "byteLength" : 576
    },
    {
      "buffer" : 0,
      "byteOffset" : 576,
      "byteLength" : 1200
    },
    {
      "buffer" : 0,
      "byteOffset" : 1776,
      "byteLength" : 1200
    },
    {
      "buffer" : 0,
      "byteOffset" : 2976,
      "byteLength" : 1600
    },
    {
      "buffer" : 0,
      "byteOffset" : 4576,
      "byteLength" : 800
    },
    {
      "buffer" : 0,
      "byteOffset" : 5376,
      "byteLength" : 800
    }
  ],
  "accessors" : [
    {
      "bufferView" : 0,
      "componentType" : 5123,
      "count" : 288,
      "type" : "SCALAR"
    },
    {
      "bufferView" : 1,
      "min" : [ -0.122332, -6.96504e-18, -0.122332 ],
      "max" : [ 0.122332, 0.0102159, 0.122332 ],
      "componentType" : 5126,
      "count" : 100,
      "type" : "VEC3"
    },
    {
      "bufferView" : 2,
      "componentType" : 5126,
      "count" : 100,
      "type" : "VEC3"
    },
    {
      "bufferView" : 3,
      "componentType" : 5126,
      "count" : 100,
      "type" : "VEC4"
    },
    {
      "bufferView" : 4,
      "componentType" : 5126,
      "count" : 100,
      "type" : "VEC2"
    },
    {
      "bufferView" : 5,
      "componentType" : 5126,
      "count" : 100,
      "type" : "VEC2"
    }
  ]
}
