{
  "asset" : {
    "generator" : "UE Viewer (umodel) build 1579 based",
    "version" : "2.0"
  },
  "scene" : 0,
  "scenes" : [
    {
      "nodes" : [ 0 ]
    }
  ],
  "nodes" : [
    {
      "name" : "S_Envi_Fyz_Cdstore_01n",
      "mesh" : 0
    }
  ],
  "materials" : [
    {
      "name" : "MI_Envi_Fyz_Store_02a",
      "pbrMetallicRoughness" : {
        "baseColorFactor" : [ 0.3, 0.3, 0.3, 1.0 ],
        "metallicFactor" : 0.1,
        "roughnessFactor" : 0.5
      }
    }
  ],
  "meshes" : [
    {
      "primitives" : [
        {
          "attributes" : {
            "POSITION" : 1,
            "NORMAL" : 2,
            "TANGENT" : 3,
            "TEXCOORD_0" : 4,
            "TEXCOORD_1" : 5,
            "TEXCOORD_2" : 6,
            "TEXCOORD_3" : 7
          },
          "indices" : 0,
          "material" : 0
        }
      ],
      "name" : "S_Envi_Fyz_Cdstore_01n"
    }
  ],
  "buffers" : [
    {
      "uri" : "S_Envi_Fyz_Cdstore_01n.bin",
      "byteLength" : 18384
    }
  ],
  "bufferViews" : [
    {
      "buffer" : 0,
      "byteOffset" : 0,
      "byteLength" : 1104
    },
    {
      "buffer" : 0,
      "byteOffset" : 1104,
      "byteLength" : 2880
    },
    {
      "buffer" : 0,
      "byteOffset" : 3984,
      "byteLength" : 2880
    },
    {
      "buffer" : 0,
      "byteOffset" : 6864,
      "byteLength" : 3840
    },
    {
      "buffer" : 0,
      "byteOffset" : 10704,
      "byteLength" : 1920
    },
    {
      "buffer" : 0,
      "byteOffset" : 12624,
      "byteLength" : 1920
    },
    {
      "buffer" : 0,
      "byteOffset" : 14544,
      "byteLength" : 1920
    },
    {
      "buffer" : 0,
      "byteOffset" : 16464,
      "byteLength" : 1920
    }
  ],
  "accessors" : [
    {
      "bufferView" : 0,
      "componentType" : 5123,
      "count" : 552,
      "type" : "SCALAR"
    },
    {
      "bufferView" : 1,
      "min" : [ -13.4738, -0.594668, 3.8147e-08 ],
      "max" : [ 1.95312e-05, 0.0688306, 0.757939 ],
      "componentType" : 5126,
      "count" : 240,
      "type" : "VEC3"
    },
    {
      "bufferView" : 2,
      "componentType" : 5126,
      "count" : 240,
      "type" : "VEC3"
    },
    {
      "bufferView" : 3,
      "componentType" : 5126,
      "count" : 240,
      "type" : "VEC4"
    },
    {
      "bufferView" : 4,
      "componentType" : 5126,
      "count" : 240,
      "type" : "VEC2"
    },
    {
      "bufferView" : 5,
      "componentType" : 5126,
      "count" : 240,
      "type" : "VEC2"
    },
    {
      "bufferView" : 6,
      "componentType" : 5126,
      "count" : 240,
      "type" : "VEC2"
    },
    {
      "bufferView" : 7,
      "componentType" : 5126,
      "count" : 240,
      "type" : "VEC2"
    }
  ]
}
