{
  "asset" : {
    "generator" : "UE Viewer (umodel) build 1579 based",
    "version" : "2.0"
  },
  "scene" : 0,
  "scenes" : [
    {
      "nodes" : [ 0 ]
    }
  ],
  "nodes" : [
    {
      "name" : "S_Envi_Fyz_Military_08d",
      "mesh" : 0
    }
  ],
  "materials" : [
    {
      "name" : "MI_Envi_Fyz_Military_01a",
      "pbrMetallicRoughness" : {
        "baseColorFactor" : [ 0.3, 0.3, 0.3, 1.0 ],
        "metallicFactor" : 0.1,
        "roughnessFactor" : 0.5
      }
    }
  ],
  "meshes" : [
    {
      "primitives" : [
        {
          "attributes" : {
            "POSITION" : 1,
            "NORMAL" : 2,
            "TANGENT" : 3,
            "TEXCOORD_0" : 4,
            "TEXCOORD_1" : 5
          },
          "indices" : 0,
          "material" : 0
        }
      ],
      "name" : "S_Envi_Fyz_Military_08d"
    }
  ],
  "buffers" : [
    {
      "uri" : "S_Envi_Fyz_Military_08d.bin",
      "byteLength" : 9584
    }
  ],
  "bufferViews" : [
    {
      "buffer" : 0,
      "byteOffset" : 0,
      "byteLength" : 624
    },
    {
      "buffer" : 0,
      "byteOffset" : 624,
      "byteLength" : 1920
    },
    {
      "buffer" : 0,
      "byteOffset" : 2544,
      "byteLength" : 1920
    },
    {
      "buffer" : 0,
      "byteOffset" : 4464,
      "byteLength" : 2560
    },
    {
      "buffer" : 0,
      "byteOffset" : 7024,
      "byteLength" : 1280
    },
    {
      "buffer" : 0,
      "byteOffset" : 8304,
      "byteLength" : 1280
    }
  ],
  "accessors" : [
    {
      "bufferView" : 0,
      "componentType" : 5123,
      "count" : 312,
      "type" : "SCALAR"
    },
    {
      "bufferView" : 1,
      "min" : [ -0.379123, -0.176656, -0.0677768 ],
      "max" : [ 0.46948, 0.167802, 0.116546 ],
      "componentType" : 5126,
      "count" : 160,
      "type" : "VEC3"
    },
    {
      "bufferView" : 2,
      "componentType" : 5126,
      "count" : 160,
      "type" : "VEC3"
    },
    {
      "bufferView" : 3,
      "componentType" : 5126,
      "count" : 160,
      "type" : "VEC4"
    },
    {
      "bufferView" : 4,
      "componentType" : 5126,
      "count" : 160,
      "type" : "VEC2"
    },
    {
      "bufferView" : 5,
      "componentType" : 5126,
      "count" : 160,
      "type" : "VEC2"
    }
  ]
}
