{
  "asset" : {
    "generator" : "UE Viewer (umodel) build 1579 based",
    "version" : "2.0"
  },
  "scene" : 0,
  "scenes" : [
    {
      "nodes" : [ 0 ]
    }
  ],
  "nodes" : [
    {
      "name" : "S_Envi_Fyz_Show_01a",
      "mesh" : 0
    }
  ],
  "materials" : [
    {
      "name" : "MI_PM_Glass_02k",
      "pbrMetallicRoughness" : {
        "baseColorFactor" : [ 0.3, 0.3, 0.3, 1.0 ],
        "metallicFactor" : 0.1,
        "roughnessFactor" : 0.5
      }
    },
    {
      "name" : "MI_Envi_JQ_kemosita_01a",
      "pbrMetallicRoughness" : {
        "baseColorFactor" : [ 0.9, 0.3, 0.3, 1.0 ],
        "metallicFactor" : 0.1,
        "roughnessFactor" : 0.5
      }
    }
  ],
  "meshes" : [
    {
      "primitives" : [
        {
          "attributes" : {
            "POSITION" : 1,
            "NORMAL" : 2,
            "TANGENT" : 3,
            "TEXCOORD_0" : 4,
            "TEXCOORD_1" : 5
          },
          "indices" : 0,
          "material" : 0
        },
        {
          "attributes" : {
            "POSITION" : 7,
            "NORMAL" : 8,
            "TANGENT" : 9,
            "TEXCOORD_0" : 10,
            "TEXCOORD_1" : 11
          },
          "indices" : 6,
          "material" : 1
        }
      ],
      "name" : "S_Envi_Fyz_Show_01a"
    }
  ],
  "buffers" : [
    {
      "uri" : "S_Envi_Fyz_Show_01a.bin",
      "byteLength" : 236872
    }
  ],
  "bufferViews" : [
    {
      "buffer" : 0,
      "byteOffset" : 0,
      "byteLength" : 528
    },
    {
      "buffer" : 0,
      "byteOffset" : 528,
      "byteLength" : 1836
    },
    {
      "buffer" : 0,
      "byteOffset" : 2364,
      "byteLength" : 1836
    },
    {
      "buffer" : 0,
      "byteOffset" : 4200,
      "byteLength" : 2448
    },
    {
      "buffer" : 0,
      "byteOffset" : 6648,
      "byteLength" : 1224
    },
    {
      "buffer" : 0,
      "byteOffset" : 7872,
      "byteLength" : 1224
    },
    {
      "buffer" : 0,
      "byteOffset" : 9096,
      "byteLength" : 14192
    },
    {
      "buffer" : 0,
      "byteOffset" : 23288,
      "byteLength" : 45768
    },
    {
      "buffer" : 0,
      "byteOffset" : 69056,
      "byteLength" : 45768
    },
    {
      "buffer" : 0,
      "byteOffset" : 114824,
      "byteLength" : 61024
    },
    {
      "buffer" : 0,
      "byteOffset" : 175848,
      "byteLength" : 30512
    },
    {
      "buffer" : 0,
      "byteOffset" : 206360,
      "byteLength" : 30512
    }
  ],
  "accessors" : [
    {
      "bufferView" : 0,
      "componentType" : 5123,
      "count" : 264,
      "type" : "SCALAR"
    },
    {
      "bufferView" : 1,
      "min" : [ -0.365613, 0.0466449, -0.0671043 ],
      "max" : [ 0.365611, 0.283357, 0.12664 ],
      "componentType" : 5126,
      "count" : 153,
      "type" : "VEC3"
    },
    {
      "bufferView" : 2,
      "componentType" : 5126,
      "count" : 153,
      "type" : "VEC3"
    },
    {
      "bufferView" : 3,
      "componentType" : 5126,
      "count" : 153,
      "type" : "VEC4"
    },
    {
      "bufferView" : 4,
      "componentType" : 5126,
      "count" : 153,
      "type" : "VEC2"
    },
    {
      "bufferView" : 5,
      "componentType" : 5126,
      "count" : 153,
      "type" : "VEC2"
    },
    {
      "bufferView" : 6,
      "componentType" : 5123,
      "count" : 7095,
      "type" : "SCALAR"
    },
    {
      "bufferView" : 7,
      "min" : [ -0.629569, -0.0015521, -0.581386 ],
      "max" : [ 0.629568, 1.05749, 0.581386 ],
      "componentType" : 5126,
      "count" : 3814,
      "type" : "VEC3"
    },
    {
      "bufferView" : 8,
      "componentType" : 5126,
      "count" : 3814,
      "type" : "VEC3"
    },
    {
      "bufferView" : 9,
      "componentType" : 5126,
      "count" : 3814,
      "type" : "VEC4"
    },
    {
      "bufferView" : 10,
      "componentType" : 5126,
      "count" : 3814,
      "type" : "VEC2"
    },
    {
      "bufferView" : 11,
      "componentType" : 5126,
      "count" : 3814,
      "type" : "VEC2"
    }
  ]
}
