{
  "asset" : {
    "generator" : "UE Viewer (umodel) build 1579 based",
    "version" : "2.0"
  },
  "scene" : 0,
  "scenes" : [
    {
      "nodes" : [ 0 ]
    }
  ],
  "nodes" : [
    {
      "name" : "S_Envi_Fyz_Cdstore_02o",
      "mesh" : 0
    }
  ],
  "materials" : [
    {
      "name" : "MI_Envi_Fyz_Store_03a",
      "pbrMetallicRoughness" : {
        "baseColorFactor" : [ 0.3, 0.3, 0.3, 1.0 ],
        "metallicFactor" : 0.1,
        "roughnessFactor" : 0.5
      }
    }
  ],
  "meshes" : [
    {
      "primitives" : [
        {
          "attributes" : {
            "POSITION" : 1,
            "NORMAL" : 2,
            "TANGENT" : 3,
            "TEXCOORD_0" : 4,
            "TEXCOORD_1" : 5
          },
          "indices" : 0,
          "material" : 0
        }
      ],
      "name" : "S_Envi_Fyz_Cdstore_02o"
    }
  ],
  "buffers" : [
    {
      "uri" : "S_Envi_Fyz_Cdstore_02o.bin",
      "byteLength" : 25180
    }
  ],
  "bufferViews" : [
    {
      "buffer" : 0,
      "byteOffset" : 0,
      "byteLength" : 1884
    },
    {
      "buffer" : 0,
      "byteOffset" : 1884,
      "byteLength" : 4992
    },
    {
      "buffer" : 0,
      "byteOffset" : 6876,
      "byteLength" : 4992
    },
    {
      "buffer" : 0,
      "byteOffset" : 11868,
      "byteLength" : 6656
    },
    {
      "buffer" : 0,
      "byteOffset" : 18524,
      "byteLength" : 3328
    },
    {
      "buffer" : 0,
      "byteOffset" : 21852,
      "byteLength" : 3328
    }
  ],
  "accessors" : [
    {
      "bufferView" : 0,
      "componentType" : 5123,
      "count" : 942,
      "type" : "SCALAR"
    },
    {
      "bufferView" : 1,
      "min" : [ -0.234187, -0.178116, -0.225918 ],
      "max" : [ 0.234187, 0.178116, 0.225918 ],
      "componentType" : 5126,
      "count" : 416,
      "type" : "VEC3"
    },
    {
      "bufferView" : 2,
      "componentType" : 5126,
      "count" : 416,
      "type" : "VEC3"
    },
    {
      "bufferView" : 3,
      "componentType" : 5126,
      "count" : 416,
      "type" : "VEC4"
    },
    {
      "bufferView" : 4,
      "componentType" : 5126,
      "count" : 416,
      "type" : "VEC2"
    },
    {
      "bufferView" : 5,
      "componentType" : 5126,
      "count" : 416,
      "type" : "VEC2"
    }
  ]
}
