{
  "asset" : {
    "generator" : "UE Viewer (umodel) build 1579 based",
    "version" : "2.0"
  },
  "scene" : 0,
  "scenes" : [
    {
      "nodes" : [ 0 ]
    }
  ],
  "nodes" : [
    {
      "name" : "S_Envi_Fyz_AD_15r",
      "mesh" : 0
    }
  ],
  "materials" : [
    {
      "name" : "MI_Envi_Common_HBuilding_01a",
      "pbrMetallicRoughness" : {
        "baseColorFactor" : [ 0.3, 0.3, 0.3, 1.0 ],
        "metallicFactor" : 0.1,
        "roughnessFactor" : 0.5
      }
    },
    {
      "name" : "MI_Envi_FYZ_AD_01",
      "pbrMetallicRoughness" : {
        "baseColorFactor" : [ 0.9, 0.3, 0.3, 1.0 ],
        "metallicFactor" : 0.1,
        "roughnessFactor" : 0.5
      }
    }
  ],
  "meshes" : [
    {
      "primitives" : [
        {
          "attributes" : {
            "POSITION" : 1,
            "NORMAL" : 2,
            "TANGENT" : 3,
            "TEXCOORD_0" : 4,
            "TEXCOORD_1" : 5
          },
          "indices" : 0,
          "material" : 0
        },
        {
          "attributes" : {
            "POSITION" : 7,
            "NORMAL" : 8,
            "TANGENT" : 9,
            "TEXCOORD_0" : 10,
            "TEXCOORD_1" : 11
          },
          "indices" : 6,
          "material" : 1
        }
      ],
      "name" : "S_Envi_Fyz_AD_15r"
    }
  ],
  "buffers" : [
    {
      "uri" : "S_Envi_Fyz_AD_15r.bin",
      "byteLength" : 4392
    }
  ],
  "bufferViews" : [
    {
      "buffer" : 0,
      "byteOffset" : 0,
      "byteLength" : 336
    },
    {
      "buffer" : 0,
      "byteOffset" : 336,
      "byteLength" : 768
    },
    {
      "buffer" : 0,
      "byteOffset" : 1104,
      "byteLength" : 768
    },
    {
      "buffer" : 0,
      "byteOffset" : 1872,
      "byteLength" : 1024
    },
    {
      "buffer" : 0,
      "byteOffset" : 2896,
      "byteLength" : 512
    },
    {
      "buffer" : 0,
      "byteOffset" : 3408,
      "byteLength" : 512
    },
    {
      "buffer" : 0,
      "byteOffset" : 3920,
      "byteLength" : 24
    },
    {
      "buffer" : 0,
      "byteOffset" : 3944,
      "byteLength" : 96
    },
    {
      "buffer" : 0,
      "byteOffset" : 4040,
      "byteLength" : 96
    },
    {
      "buffer" : 0,
      "byteOffset" : 4136,
      "byteLength" : 128
    },
    {
      "buffer" : 0,
      "byteOffset" : 4264,
      "byteLength" : 64
    },
    {
      "buffer" : 0,
      "byteOffset" : 4328,
      "byteLength" : 64
    }
  ],
  "accessors" : [
    {
      "bufferView" : 0,
      "componentType" : 5123,
      "count" : 168,
      "type" : "SCALAR"
    },
    {
      "bufferView" : 1,
      "min" : [ -0.754061, -1.1168, -0.0497449 ],
      "max" : [ 0.754061, 1.1168, 0.0497443 ],
      "componentType" : 5126,
      "count" : 64,
      "type" : "VEC3"
    },
    {
      "bufferView" : 2,
      "componentType" : 5126,
      "count" : 64,
      "type" : "VEC3"
    },
    {
      "bufferView" : 3,
      "componentType" : 5126,
      "count" : 64,
      "type" : "VEC4"
    },
    {
      "bufferView" : 4,
      "componentType" : 5126,
      "count" : 64,
      "type" : "VEC2"
    },
    {
      "bufferView" : 5,
      "componentType" : 5126,
      "count" : 64,
      "type" : "VEC2"
    },
    {
      "bufferView" : 6,
      "componentType" : 5123,
      "count" : 12,
      "type" : "SCALAR"
    },
    {
      "bufferView" : 7,
      "min" : [ -0.699532, -1.05917, -0.0497448 ],
      "max" : [ 0.699532, 1.05876, 0.0497443 ],
      "componentType" : 5126,
      "count" : 8,
      "type" : "VEC3"
    },
    {
      "bufferView" : 8,
      "componentType" : 5126,
      "count" : 8,
      "type" : "VEC3"
    },
    {
      "bufferView" : 9,
      "componentType" : 5126,
      "count" : 8,
      "type" : "VEC4"
    },
    {
      "bufferView" : 10,
      "componentType" : 5126,
      "count" : 8,
      "type" : "VEC2"
    },
    {
      "bufferView" : 11,
      "componentType" : 5126,
      "count" : 8,
      "type" : "VEC2"
    }
  ]
}
