{
  "asset" : {
    "generator" : "UE Viewer (umodel) build 1579 based",
    "version" : "2.0"
  },
  "scene" : 0,
  "scenes" : [
    {
      "nodes" : [ 0 ]
    }
  ],
  "nodes" : [
    {
      "name" : "S_Envi_Fyz_Carpet_01b",
      "mesh" : 0
    }
  ],
  "materials" : [
    {
      "name" : "MI_Envi_Fyz_Carpet_01a",
      "pbrMetallicRoughness" : {
        "baseColorFactor" : [ 0.3, 0.3, 0.3, 1.0 ],
        "metallicFactor" : 0.1,
        "roughnessFactor" : 0.5
      }
    }
  ],
  "meshes" : [
    {
      "primitives" : [
        {
          "attributes" : {
            "POSITION" : 1,
            "NORMAL" : 2,
            "TANGENT" : 3,
            "TEXCOORD_0" : 4,
            "TEXCOORD_1" : 5,
            "TEXCOORD_2" : 6,
            "TEXCOORD_3" : 7
          },
          "indices" : 0,
          "material" : 0
        }
      ],
      "name" : "S_Envi_Fyz_Carpet_01b"
    }
  ],
  "buffers" : [
    {
      "uri" : "S_Envi_Fyz_Carpet_01b.bin",
      "byteLength" : 6176
    }
  ],
  "bufferViews" : [
    {
      "buffer" : 0,
      "byteOffset" : 0,
      "byteLength" : 632
    },
    {
      "buffer" : 0,
      "byteOffset" : 632,
      "byteLength" : 924
    },
    {
      "buffer" : 0,
      "byteOffset" : 1556,
      "byteLength" : 924
    },
    {
      "buffer" : 0,
      "byteOffset" : 2480,
      "byteLength" : 1232
    },
    {
      "buffer" : 0,
      "byteOffset" : 3712,
      "byteLength" : 616
    },
    {
      "buffer" : 0,
      "byteOffset" : 4328,
      "byteLength" : 616
    },
    {
      "buffer" : 0,
      "byteOffset" : 4944,
      "byteLength" : 616
    },
    {
      "buffer" : 0,
      "byteOffset" : 5560,
      "byteLength" : 616
    }
  ],
  "accessors" : [
    {
      "bufferView" : 0,
      "componentType" : 5123,
      "count" : 315,
      "type" : "SCALAR"
    },
    {
      "bufferView" : 1,
      "min" : [ -1.76431, 0.000963162, -4.56003 ],
      "max" : [ 3.66211e-06, 0.0299005, 4.21014e-11 ],
      "componentType" : 5126,
      "count" : 77,
      "type" : "VEC3"
    },
    {
      "bufferView" : 2,
      "componentType" : 5126,
      "count" : 77,
      "type" : "VEC3"
    },
    {
      "bufferView" : 3,
      "componentType" : 5126,
      "count" : 77,
      "type" : "VEC4"
    },
    {
      "bufferView" : 4,
      "componentType" : 5126,
      "count" : 77,
      "type" : "VEC2"
    },
    {
      "bufferView" : 5,
      "componentType" : 5126,
      "count" : 77,
      "type" : "VEC2"
    },
    {
      "bufferView" : 6,
      "componentType" : 5126,
      "count" : 77,
      "type" : "VEC2"
    },
    {
      "bufferView" : 7,
      "componentType" : 5126,
      "count" : 77,
      "type" : "VEC2"
    }
  ]
}
