{
  "asset" : {
    "generator" : "UE Viewer (umodel) build 1579 based",
    "version" : "2.0"
  },
  "scene" : 0,
  "scenes" : [
    {
      "nodes" : [ 0 ]
    }
  ],
  "nodes" : [
    {
      "name" : "S_Envi_Fyz_Bucket_01a",
      "mesh" : 0
    }
  ],
  "materials" : [
    {
      "name" : "MI_Envi_Fyz_FlowerBed_01a",
      "pbrMetallicRoughness" : {
        "baseColorFactor" : [ 0.3, 0.3, 0.3, 1.0 ],
        "metallicFactor" : 0.1,
        "roughnessFactor" : 0.5
      }
    }
  ],
  "meshes" : [
    {
      "primitives" : [
        {
          "attributes" : {
            "POSITION" : 1,
            "NORMAL" : 2,
            "TANGENT" : 3,
            "TEXCOORD_0" : 4,
            "TEXCOORD_1" : 5
          },
          "indices" : 0,
          "material" : 0
        }
      ],
      "name" : "S_Envi_Fyz_Bucket_01a"
    }
  ],
  "buffers" : [
    {
      "uri" : "S_Envi_Fyz_Bucket_01a.bin",
      "byteLength" : 41536
    }
  ],
  "bufferViews" : [
    {
      "buffer" : 0,
      "byteOffset" : 0,
      "byteLength" : 3792
    },
    {
      "buffer" : 0,
      "byteOffset" : 3792,
      "byteLength" : 8088
    },
    {
      "buffer" : 0,
      "byteOffset" : 11880,
      "byteLength" : 8088
    },
    {
      "buffer" : 0,
      "byteOffset" : 19968,
      "byteLength" : 10784
    },
    {
      "buffer" : 0,
      "byteOffset" : 30752,
      "byteLength" : 5392
    },
    {
      "buffer" : 0,
      "byteOffset" : 36144,
      "byteLength" : 5392
    }
  ],
  "accessors" : [
    {
      "bufferView" : 0,
      "componentType" : 5123,
      "count" : 1896,
      "type" : "SCALAR"
    },
    {
      "bufferView" : 1,
      "min" : [ -0.261751, -0.000367842, -0.394512 ],
      "max" : [ 0.258765, 1.00279, 0.256301 ],
      "componentType" : 5126,
      "count" : 674,
      "type" : "VEC3"
    },
    {
      "bufferView" : 2,
      "componentType" : 5126,
      "count" : 674,
      "type" : "VEC3"
    },
    {
      "bufferView" : 3,
      "componentType" : 5126,
      "count" : 674,
      "type" : "VEC4"
    },
    {
      "bufferView" : 4,
      "componentType" : 5126,
      "count" : 674,
      "type" : "VEC2"
    },
    {
      "bufferView" : 5,
      "componentType" : 5126,
      "count" : 674,
      "type" : "VEC2"
    }
  ]
}
