{
  "asset" : {
    "generator" : "UE Viewer (umodel) build 1579 based",
    "version" : "2.0"
  },
  "scene" : 0,
  "scenes" : [
    {
      "nodes" : [ 0 ]
    }
  ],
  "nodes" : [
    {
      "name" : "S_Envi_Fyz_Military_05b",
      "mesh" : 0
    }
  ],
  "materials" : [
    {
      "name" : "MI_Envi_Fyz_Military_03a",
      "pbrMetallicRoughness" : {
        "baseColorFactor" : [ 0.3, 0.3, 0.3, 1.0 ],
        "metallicFactor" : 0.1,
        "roughnessFactor" : 0.5
      }
    }
  ],
  "meshes" : [
    {
      "primitives" : [
        {
          "attributes" : {
            "POSITION" : 1,
            "NORMAL" : 2,
            "TANGENT" : 3,
            "TEXCOORD_0" : 4,
            "TEXCOORD_1" : 5
          },
          "indices" : 0,
          "material" : 0
        }
      ],
      "name" : "S_Envi_Fyz_Military_05b"
    }
  ],
  "buffers" : [
    {
      "uri" : "S_Envi_Fyz_Military_05b.bin",
      "byteLength" : 62632
    }
  ],
  "bufferViews" : [
    {
      "buffer" : 0,
      "byteOffset" : 0,
      "byteLength" : 4560
    },
    {
      "buffer" : 0,
      "byteOffset" : 4560,
      "byteLength" : 12444
    },
    {
      "buffer" : 0,
      "byteOffset" : 17004,
      "byteLength" : 12444
    },
    {
      "buffer" : 0,
      "byteOffset" : 29448,
      "byteLength" : 16592
    },
    {
      "buffer" : 0,
      "byteOffset" : 46040,
      "byteLength" : 8296
    },
    {
      "buffer" : 0,
      "byteOffset" : 54336,
      "byteLength" : 8296
    }
  ],
  "accessors" : [
    {
      "bufferView" : 0,
      "componentType" : 5123,
      "count" : 2280,
      "type" : "SCALAR"
    },
    {
      "bufferView" : 1,
      "min" : [ -0.491246, 3.62396e-07, -1.08097 ],
      "max" : [ 0.0101929, 11.418, 0.894559 ],
      "componentType" : 5126,
      "count" : 1037,
      "type" : "VEC3"
    },
    {
      "bufferView" : 2,
      "componentType" : 5126,
      "count" : 1037,
      "type" : "VEC3"
    },
    {
      "bufferView" : 3,
      "componentType" : 5126,
      "count" : 1037,
      "type" : "VEC4"
    },
    {
      "bufferView" : 4,
      "componentType" : 5126,
      "count" : 1037,
      "type" : "VEC2"
    },
    {
      "bufferView" : 5,
      "componentType" : 5126,
      "count" : 1037,
      "type" : "VEC2"
    }
  ]
}
