{
  "asset" : {
    "generator" : "UE Viewer (umodel) build 1579 based",
    "version" : "2.0"
  },
  "scene" : 0,
  "scenes" : [
    {
      "nodes" : [ 0 ]
    }
  ],
  "nodes" : [
    {
      "name" : "S_Envi_Fyz_Cdstore_02f",
      "mesh" : 0
    }
  ],
  "materials" : [
    {
      "name" : "MI_Envi_Fyz_Store_03a",
      "pbrMetallicRoughness" : {
        "baseColorFactor" : [ 0.3, 0.3, 0.3, 1.0 ],
        "metallicFactor" : 0.1,
        "roughnessFactor" : 0.5
      }
    }
  ],
  "meshes" : [
    {
      "primitives" : [
        {
          "attributes" : {
            "POSITION" : 1,
            "NORMAL" : 2,
            "TANGENT" : 3,
            "TEXCOORD_0" : 4,
            "TEXCOORD_1" : 5
          },
          "indices" : 0,
          "material" : 0
        }
      ],
      "name" : "S_Envi_Fyz_Cdstore_02f"
    }
  ],
  "buffers" : [
    {
      "uri" : "S_Envi_Fyz_Cdstore_02f.bin",
      "byteLength" : 47720
    }
  ],
  "bufferViews" : [
    {
      "buffer" : 0,
      "byteOffset" : 0,
      "byteLength" : 4152
    },
    {
      "buffer" : 0,
      "byteOffset" : 4152,
      "byteLength" : 9336
    },
    {
      "buffer" : 0,
      "byteOffset" : 13488,
      "byteLength" : 9336
    },
    {
      "buffer" : 0,
      "byteOffset" : 22824,
      "byteLength" : 12448
    },
    {
      "buffer" : 0,
      "byteOffset" : 35272,
      "byteLength" : 6224
    },
    {
      "buffer" : 0,
      "byteOffset" : 41496,
      "byteLength" : 6224
    }
  ],
  "accessors" : [
    {
      "bufferView" : 0,
      "componentType" : 5123,
      "count" : 2076,
      "type" : "SCALAR"
    },
    {
      "bufferView" : 1,
      "min" : [ -0.226594, 3.05176e-07, -0.0780111 ],
      "max" : [ 0.229553, 1.29251, 0.0303652 ],
      "componentType" : 5126,
      "count" : 778,
      "type" : "VEC3"
    },
    {
      "bufferView" : 2,
      "componentType" : 5126,
      "count" : 778,
      "type" : "VEC3"
    },
    {
      "bufferView" : 3,
      "componentType" : 5126,
      "count" : 778,
      "type" : "VEC4"
    },
    {
      "bufferView" : 4,
      "componentType" : 5126,
      "count" : 778,
      "type" : "VEC2"
    },
    {
      "bufferView" : 5,
      "componentType" : 5126,
      "count" : 778,
      "type" : "VEC2"
    }
  ]
}
