{
  "asset" : {
    "generator" : "UE Viewer (umodel) build 1579 based",
    "version" : "2.0"
  },
  "scene" : 0,
  "scenes" : [
    {
      "nodes" : [ 0 ]
    }
  ],
  "nodes" : [
    {
      "name" : "S_Envi_Fyz_Beer_01b",
      "mesh" : 0
    }
  ],
  "materials" : [
    {
      "name" : "MI_Envi_Fyz_Store_03a",
      "pbrMetallicRoughness" : {
        "baseColorFactor" : [ 0.3, 0.3, 0.3, 1.0 ],
        "metallicFactor" : 0.1,
        "roughnessFactor" : 0.5
      }
    }
  ],
  "meshes" : [
    {
      "primitives" : [
        {
          "attributes" : {
            "POSITION" : 1,
            "NORMAL" : 2,
            "TANGENT" : 3,
            "TEXCOORD_0" : 4,
            "TEXCOORD_1" : 5
          },
          "indices" : 0,
          "material" : 0
        }
      ],
      "name" : "S_Envi_Fyz_Beer_01b"
    }
  ],
  "buffers" : [
    {
      "uri" : "S_Envi_Fyz_Beer_01b.bin",
      "byteLength" : 23112
    }
  ],
  "bufferViews" : [
    {
      "buffer" : 0,
      "byteOffset" : 0,
      "byteLength" : 2448
    },
    {
      "buffer" : 0,
      "byteOffset" : 2448,
      "byteLength" : 4428
    },
    {
      "buffer" : 0,
      "byteOffset" : 6876,
      "byteLength" : 4428
    },
    {
      "buffer" : 0,
      "byteOffset" : 11304,
      "byteLength" : 5904
    },
    {
      "buffer" : 0,
      "byteOffset" : 17208,
      "byteLength" : 2952
    },
    {
      "buffer" : 0,
      "byteOffset" : 20160,
      "byteLength" : 2952
    }
  ],
  "accessors" : [
    {
      "bufferView" : 0,
      "componentType" : 5123,
      "count" : 1224,
      "type" : "SCALAR"
    },
    {
      "bufferView" : 1,
      "min" : [ -0.219075, -0.000292255, -0.154978 ],
      "max" : [ 0.219965, 0.109712, 0.157021 ],
      "componentType" : 5126,
      "count" : 369,
      "type" : "VEC3"
    },
    {
      "bufferView" : 2,
      "componentType" : 5126,
      "count" : 369,
      "type" : "VEC3"
    },
    {
      "bufferView" : 3,
      "componentType" : 5126,
      "count" : 369,
      "type" : "VEC4"
    },
    {
      "bufferView" : 4,
      "componentType" : 5126,
      "count" : 369,
      "type" : "VEC2"
    },
    {
      "bufferView" : 5,
      "componentType" : 5126,
      "count" : 369,
      "type" : "VEC2"
    }
  ]
}
