{
  "asset" : {
    "generator" : "UE Viewer (umodel) build 1579 based",
    "version" : "2.0"
  },
  "scene" : 0,
  "scenes" : [
    {
      "nodes" : [ 0 ]
    }
  ],
  "nodes" : [
    {
      "name" : "S_Envi_Fyz_Military_08f",
      "mesh" : 0
    }
  ],
  "materials" : [
    {
      "name" : "MI_Envi_Fyz_Military_01a",
      "pbrMetallicRoughness" : {
        "baseColorFactor" : [ 0.3, 0.3, 0.3, 1.0 ],
        "metallicFactor" : 0.1,
        "roughnessFactor" : 0.5
      }
    }
  ],
  "meshes" : [
    {
      "primitives" : [
        {
          "attributes" : {
            "POSITION" : 1,
            "NORMAL" : 2,
            "TANGENT" : 3,
            "TEXCOORD_0" : 4,
            "TEXCOORD_1" : 5
          },
          "indices" : 0,
          "material" : 0
        }
      ],
      "name" : "S_Envi_Fyz_Military_08f"
    }
  ],
  "buffers" : [
    {
      "uri" : "S_Envi_Fyz_Military_08f.bin",
      "byteLength" : 3452
    }
  ],
  "bufferViews" : [
    {
      "buffer" : 0,
      "byteOffset" : 0,
      "byteLength" : 204
    },
    {
      "buffer" : 0,
      "byteOffset" : 204,
      "byteLength" : 696
    },
    {
      "buffer" : 0,
      "byteOffset" : 900,
      "byteLength" : 696
    },
    {
      "buffer" : 0,
      "byteOffset" : 1596,
      "byteLength" : 928
    },
    {
      "buffer" : 0,
      "byteOffset" : 2524,
      "byteLength" : 464
    },
    {
      "buffer" : 0,
      "byteOffset" : 2988,
      "byteLength" : 464
    }
  ],
  "accessors" : [
    {
      "bufferView" : 0,
      "componentType" : 5123,
      "count" : 102,
      "type" : "SCALAR"
    },
    {
      "bufferView" : 1,
      "min" : [ -0.229408, -0.119071, -0.0993917 ],
      "max" : [ 0.288622, 0.284337, 0.0993961 ],
      "componentType" : 5126,
      "count" : 58,
      "type" : "VEC3"
    },
    {
      "bufferView" : 2,
      "componentType" : 5126,
      "count" : 58,
      "type" : "VEC3"
    },
    {
      "bufferView" : 3,
      "componentType" : 5126,
      "count" : 58,
      "type" : "VEC4"
    },
    {
      "bufferView" : 4,
      "componentType" : 5126,
      "count" : 58,
      "type" : "VEC2"
    },
    {
      "bufferView" : 5,
      "componentType" : 5126,
      "count" : 58,
      "type" : "VEC2"
    }
  ]
}
