{
  "asset" : {
    "generator" : "UE Viewer (umodel) build 1579 based",
    "version" : "2.0"
  },
  "scene" : 0,
  "scenes" : [
    {
      "nodes" : [ 0 ]
    }
  ],
  "nodes" : [
    {
      "name" : "S_Envi_Fyz_Paintbucket_01a",
      "mesh" : 0
    }
  ],
  "materials" : [
    {
      "name" : "MI_Envi_Fyz_Store_03a",
      "pbrMetallicRoughness" : {
        "baseColorFactor" : [ 0.3, 0.3, 0.3, 1.0 ],
        "metallicFactor" : 0.1,
        "roughnessFactor" : 0.5
      }
    }
  ],
  "meshes" : [
    {
      "primitives" : [
        {
          "attributes" : {
            "POSITION" : 1,
            "NORMAL" : 2,
            "TANGENT" : 3,
            "TEXCOORD_0" : 4,
            "TEXCOORD_1" : 5
          },
          "indices" : 0,
          "material" : 0
        }
      ],
      "name" : "S_Envi_Fyz_Paintbucket_01a"
    }
  ],
  "buffers" : [
    {
      "uri" : "S_Envi_Fyz_Paintbucket_01a.bin",
      "byteLength" : 15136
    }
  ],
  "bufferViews" : [
    {
      "buffer" : 0,
      "byteOffset" : 0,
      "byteLength" : 1920
    },
    {
      "buffer" : 0,
      "byteOffset" : 1920,
      "byteLength" : 2832
    },
    {
      "buffer" : 0,
      "byteOffset" : 4752,
      "byteLength" : 2832
    },
    {
      "buffer" : 0,
      "byteOffset" : 7584,
      "byteLength" : 3776
    },
    {
      "buffer" : 0,
      "byteOffset" : 11360,
      "byteLength" : 1888
    },
    {
      "buffer" : 0,
      "byteOffset" : 13248,
      "byteLength" : 1888
    }
  ],
  "accessors" : [
    {
      "bufferView" : 0,
      "componentType" : 5123,
      "count" : 960,
      "type" : "SCALAR"
    },
    {
      "bufferView" : 1,
      "min" : [ -0.160652, -9.67957e-18, -0.160653 ],
      "max" : [ 0.160652, 0.318097, 0.160653 ],
      "componentType" : 5126,
      "count" : 236,
      "type" : "VEC3"
    },
    {
      "bufferView" : 2,
      "componentType" : 5126,
      "count" : 236,
      "type" : "VEC3"
    },
    {
      "bufferView" : 3,
      "componentType" : 5126,
      "count" : 236,
      "type" : "VEC4"
    },
    {
      "bufferView" : 4,
      "componentType" : 5126,
      "count" : 236,
      "type" : "VEC2"
    },
    {
      "bufferView" : 5,
      "componentType" : 5126,
      "count" : 236,
      "type" : "VEC2"
    }
  ]
}
