{
  "asset" : {
    "generator" : "UE Viewer (umodel) build 1579 based",
    "version" : "2.0"
  },
  "scene" : 0,
  "scenes" : [
    {
      "nodes" : [ 0 ]
    }
  ],
  "nodes" : [
    {
      "name" : "S_Envi_Fyz_ManholeCover_01a",
      "mesh" : 0
    }
  ],
  "materials" : [
    {
      "name" : "MI_Envi_Fyz_FlowerBed_01a",
      "pbrMetallicRoughness" : {
        "baseColorFactor" : [ 0.3, 0.3, 0.3, 1.0 ],
        "metallicFactor" : 0.1,
        "roughnessFactor" : 0.5
      }
    }
  ],
  "meshes" : [
    {
      "primitives" : [
        {
          "attributes" : {
            "POSITION" : 1,
            "NORMAL" : 2,
            "TANGENT" : 3,
            "TEXCOORD_0" : 4,
            "TEXCOORD_1" : 5
          },
          "indices" : 0,
          "material" : 0
        }
      ],
      "name" : "S_Envi_Fyz_ManholeCover_01a"
    }
  ],
  "buffers" : [
    {
      "uri" : "S_Envi_Fyz_ManholeCover_01a.bin",
      "byteLength" : 13780
    }
  ],
  "bufferViews" : [
    {
      "buffer" : 0,
      "byteOffset" : 0,
      "byteLength" : 1964
    },
    {
      "buffer" : 0,
      "byteOffset" : 1964,
      "byteLength" : 2532
    },
    {
      "buffer" : 0,
      "byteOffset" : 4496,
      "byteLength" : 2532
    },
    {
      "buffer" : 0,
      "byteOffset" : 7028,
      "byteLength" : 3376
    },
    {
      "buffer" : 0,
      "byteOffset" : 10404,
      "byteLength" : 1688
    },
    {
      "buffer" : 0,
      "byteOffset" : 12092,
      "byteLength" : 1688
    }
  ],
  "accessors" : [
    {
      "bufferView" : 0,
      "componentType" : 5123,
      "count" : 981,
      "type" : "SCALAR"
    },
    {
      "bufferView" : 1,
      "min" : [ -0.577568, -0.00929855, -0.556953 ],
      "max" : [ 0.601208, 0.0153452, 0.560544 ],
      "componentType" : 5126,
      "count" : 211,
      "type" : "VEC3"
    },
    {
      "bufferView" : 2,
      "componentType" : 5126,
      "count" : 211,
      "type" : "VEC3"
    },
    {
      "bufferView" : 3,
      "componentType" : 5126,
      "count" : 211,
      "type" : "VEC4"
    },
    {
      "bufferView" : 4,
      "componentType" : 5126,
      "count" : 211,
      "type" : "VEC2"
    },
    {
      "bufferView" : 5,
      "componentType" : 5126,
      "count" : 211,
      "type" : "VEC2"
    }
  ]
}
