{
  "asset" : {
    "generator" : "UE Viewer (umodel) build 1579 based",
    "version" : "2.0"
  },
  "scene" : 0,
  "scenes" : [
    {
      "nodes" : [ 0 ]
    }
  ],
  "nodes" : [
    {
      "name" : "S_Envi_Fyz_Show_04a",
      "mesh" : 0
    }
  ],
  "materials" : [
    {
      "name" : "MI_Envi_Fyz_Space_01a",
      "pbrMetallicRoughness" : {
        "baseColorFactor" : [ 0.3, 0.3, 0.3, 1.0 ],
        "metallicFactor" : 0.1,
        "roughnessFactor" : 0.5
      }
    },
    {
      "name" : "MI_PM_Glass_11b",
      "pbrMetallicRoughness" : {
        "baseColorFactor" : [ 0.9, 0.3, 0.3, 1.0 ],
        "metallicFactor" : 0.1,
        "roughnessFactor" : 0.5
      }
    }
  ],
  "meshes" : [
    {
      "primitives" : [
        {
          "attributes" : {
            "POSITION" : 1,
            "NORMAL" : 2,
            "TANGENT" : 3,
            "TEXCOORD_0" : 4,
            "TEXCOORD_1" : 5,
            "TEXCOORD_2" : 6,
            "TEXCOORD_3" : 7
          },
          "indices" : 0,
          "material" : 0
        },
        {
          "attributes" : {
            "POSITION" : 9,
            "NORMAL" : 10,
            "TANGENT" : 11,
            "TEXCOORD_0" : 12,
            "TEXCOORD_1" : 13,
            "TEXCOORD_2" : 14,
            "TEXCOORD_3" : 15
          },
          "indices" : 8,
          "material" : 1
        }
      ],
      "name" : "S_Envi_Fyz_Show_04a"
    }
  ],
  "buffers" : [
    {
      "uri" : "S_Envi_Fyz_Show_04a.bin",
      "byteLength" : 417168
    }
  ],
  "bufferViews" : [
    {
      "buffer" : 0,
      "byteOffset" : 0,
      "byteLength" : 18168
    },
    {
      "buffer" : 0,
      "byteOffset" : 18168,
      "byteLength" : 66300
    },
    {
      "buffer" : 0,
      "byteOffset" : 84468,
      "byteLength" : 66300
    },
    {
      "buffer" : 0,
      "byteOffset" : 150768,
      "byteLength" : 88400
    },
    {
      "buffer" : 0,
      "byteOffset" : 239168,
      "byteLength" : 44200
    },
    {
      "buffer" : 0,
      "byteOffset" : 283368,
      "byteLength" : 44200
    },
    {
      "buffer" : 0,
      "byteOffset" : 327568,
      "byteLength" : 44200
    },
    {
      "buffer" : 0,
      "byteOffset" : 371768,
      "byteLength" : 44200
    },
    {
      "buffer" : 0,
      "byteOffset" : 415968,
      "byteLength" : 48
    },
    {
      "buffer" : 0,
      "byteOffset" : 416016,
      "byteLength" : 192
    },
    {
      "buffer" : 0,
      "byteOffset" : 416208,
      "byteLength" : 192
    },
    {
      "buffer" : 0,
      "byteOffset" : 416400,
      "byteLength" : 256
    },
    {
      "buffer" : 0,
      "byteOffset" : 416656,
      "byteLength" : 128
    },
    {
      "buffer" : 0,
      "byteOffset" : 416784,
      "byteLength" : 128
    },
    {
      "buffer" : 0,
      "byteOffset" : 416912,
      "byteLength" : 128
    },
    {
      "buffer" : 0,
      "byteOffset" : 417040,
      "byteLength" : 128
    }
  ],
  "accessors" : [
    {
      "bufferView" : 0,
      "componentType" : 5123,
      "count" : 9084,
      "type" : "SCALAR"
    },
    {
      "bufferView" : 1,
      "min" : [ -0.53192, 0.00221898, -0.117979 ],
      "max" : [ 0.347393, 0.843974, 0.0490085 ],
      "componentType" : 5126,
      "count" : 5525,
      "type" : "VEC3"
    },
    {
      "bufferView" : 2,
      "componentType" : 5126,
      "count" : 5525,
      "type" : "VEC3"
    },
    {
      "bufferView" : 3,
      "componentType" : 5126,
      "count" : 5525,
      "type" : "VEC4"
    },
    {
      "bufferView" : 4,
      "componentType" : 5126,
      "count" : 5525,
      "type" : "VEC2"
    },
    {
      "bufferView" : 5,
      "componentType" : 5126,
      "count" : 5525,
      "type" : "VEC2"
    },
    {
      "bufferView" : 6,
      "componentType" : 5126,
      "count" : 5525,
      "type" : "VEC2"
    },
    {
      "bufferView" : 7,
      "componentType" : 5126,
      "count" : 5525,
      "type" : "VEC2"
    },
    {
      "bufferView" : 8,
      "componentType" : 5123,
      "count" : 24,
      "type" : "SCALAR"
    },
    {
      "bufferView" : 9,
      "min" : [ -0.43426, 0.100632, -0.0836155 ],
      "max" : [ 0.249733, 0.745562, 0.0108763 ],
      "componentType" : 5126,
      "count" : 16,
      "type" : "VEC3"
    },
    {
      "bufferView" : 10,
      "componentType" : 5126,
      "count" : 16,
      "type" : "VEC3"
    },
    {
      "bufferView" : 11,
      "componentType" : 5126,
      "count" : 16,
      "type" : "VEC4"
    },
    {
      "bufferView" : 12,
      "componentType" : 5126,
      "count" : 16,
      "type" : "VEC2"
    },
    {
      "bufferView" : 13,
      "componentType" : 5126,
      "count" : 16,
      "type" : "VEC2"
    },
    {
      "bufferView" : 14,
      "componentType" : 5126,
      "count" : 16,
      "type" : "VEC2"
    },
    {
      "bufferView" : 15,
      "componentType" : 5126,
      "count" : 16,
      "type" : "VEC2"
    }
  ]
}
