{
  "asset" : {
    "generator" : "UE Viewer (umodel) build 1579 based",
    "version" : "2.0"
  },
  "scene" : 0,
  "scenes" : [
    {
      "nodes" : [ 0 ]
    }
  ],
  "nodes" : [
    {
      "name" : "S_Envi_Fyz_FlowerBed_04a",
      "mesh" : 0
    }
  ],
  "materials" : [
    {
      "name" : "MI_Envi_Fyz_House_01h",
      "pbrMetallicRoughness" : {
        "baseColorFactor" : [ 0.3, 0.3, 0.3, 1.0 ],
        "metallicFactor" : 0.1,
        "roughnessFactor" : 0.5
      }
    }
  ],
  "meshes" : [
    {
      "primitives" : [
        {
          "attributes" : {
            "POSITION" : 1,
            "NORMAL" : 2,
            "TANGENT" : 3,
            "TEXCOORD_0" : 4,
            "TEXCOORD_1" : 5
          },
          "indices" : 0,
          "material" : 0
        }
      ],
      "name" : "S_Envi_Fyz_FlowerBed_04a"
    }
  ],
  "buffers" : [
    {
      "uri" : "S_Envi_Fyz_FlowerBed_04a.bin",
      "byteLength" : 56324
    }
  ],
  "bufferViews" : [
    {
      "buffer" : 0,
      "byteOffset" : 0,
      "byteLength" : 3684
    },
    {
      "buffer" : 0,
      "byteOffset" : 3684,
      "byteLength" : 11280
    },
    {
      "buffer" : 0,
      "byteOffset" : 14964,
      "byteLength" : 11280
    },
    {
      "buffer" : 0,
      "byteOffset" : 26244,
      "byteLength" : 15040
    },
    {
      "buffer" : 0,
      "byteOffset" : 41284,
      "byteLength" : 7520
    },
    {
      "buffer" : 0,
      "byteOffset" : 48804,
      "byteLength" : 7520
    }
  ],
  "accessors" : [
    {
      "bufferView" : 0,
      "componentType" : 5123,
      "count" : 1842,
      "type" : "SCALAR"
    },
    {
      "bufferView" : 1,
      "min" : [ -3.00026, -0.00716946, -0.773848 ],
      "max" : [ 0.0409672, 0.593478, 0.0395586 ],
      "componentType" : 5126,
      "count" : 940,
      "type" : "VEC3"
    },
    {
      "bufferView" : 2,
      "componentType" : 5126,
      "count" : 940,
      "type" : "VEC3"
    },
    {
      "bufferView" : 3,
      "componentType" : 5126,
      "count" : 940,
      "type" : "VEC4"
    },
    {
      "bufferView" : 4,
      "componentType" : 5126,
      "count" : 940,
      "type" : "VEC2"
    },
    {
      "bufferView" : 5,
      "componentType" : 5126,
      "count" : 940,
      "type" : "VEC2"
    }
  ]
}
