{
  "asset" : {
    "generator" : "UE Viewer (umodel) build 1579 based",
    "version" : "2.0"
  },
  "scene" : 0,
  "scenes" : [
    {
      "nodes" : [ 0 ]
    }
  ],
  "nodes" : [
    {
      "name" : "S_Envi_Fyz_Cdstore_01i",
      "mesh" : 0
    }
  ],
  "materials" : [
    {
      "name" : "MI_Envi_Fyz_Store_01a",
      "pbrMetallicRoughness" : {
        "baseColorFactor" : [ 0.3, 0.3, 0.3, 1.0 ],
        "metallicFactor" : 0.1,
        "roughnessFactor" : 0.5
      }
    }
  ],
  "meshes" : [
    {
      "primitives" : [
        {
          "attributes" : {
            "POSITION" : 1,
            "NORMAL" : 2,
            "TANGENT" : 3,
            "TEXCOORD_0" : 4,
            "TEXCOORD_1" : 5
          },
          "indices" : 0,
          "material" : 0
        }
      ],
      "name" : "S_Envi_Fyz_Cdstore_01i"
    }
  ],
  "buffers" : [
    {
      "uri" : "S_Envi_Fyz_Cdstore_01i.bin",
      "byteLength" : 5372
    }
  ],
  "bufferViews" : [
    {
      "buffer" : 0,
      "byteOffset" : 0,
      "byteLength" : 444
    },
    {
      "buffer" : 0,
      "byteOffset" : 444,
      "byteLength" : 1056
    },
    {
      "buffer" : 0,
      "byteOffset" : 1500,
      "byteLength" : 1056
    },
    {
      "buffer" : 0,
      "byteOffset" : 2556,
      "byteLength" : 1408
    },
    {
      "buffer" : 0,
      "byteOffset" : 3964,
      "byteLength" : 704
    },
    {
      "buffer" : 0,
      "byteOffset" : 4668,
      "byteLength" : 704
    }
  ],
  "accessors" : [
    {
      "bufferView" : 0,
      "componentType" : 5123,
      "count" : 222,
      "type" : "SCALAR"
    },
    {
      "bufferView" : 1,
      "min" : [ -3.25166, -2.44141e-06, -0.292247 ],
      "max" : [ 2.44141e-06, 1.49063, 0.0343003 ],
      "componentType" : 5126,
      "count" : 88,
      "type" : "VEC3"
    },
    {
      "bufferView" : 2,
      "componentType" : 5126,
      "count" : 88,
      "type" : "VEC3"
    },
    {
      "bufferView" : 3,
      "componentType" : 5126,
      "count" : 88,
      "type" : "VEC4"
    },
    {
      "bufferView" : 4,
      "componentType" : 5126,
      "count" : 88,
      "type" : "VEC2"
    },
    {
      "bufferView" : 5,
      "componentType" : 5126,
      "count" : 88,
      "type" : "VEC2"
    }
  ]
}
