{
  "asset" : {
    "generator" : "UE Viewer (umodel) build 1579 based",
    "version" : "2.0"
  },
  "scene" : 0,
  "scenes" : [
    {
      "nodes" : [ 0 ]
    }
  ],
  "nodes" : [
    {
      "name" : "S_Envi_Fyz_Cdstore_02g",
      "mesh" : 0
    }
  ],
  "materials" : [
    {
      "name" : "MI_Envi_Fyz_Store_03a",
      "pbrMetallicRoughness" : {
        "baseColorFactor" : [ 0.3, 0.3, 0.3, 1.0 ],
        "metallicFactor" : 0.1,
        "roughnessFactor" : 0.5
      }
    }
  ],
  "meshes" : [
    {
      "primitives" : [
        {
          "attributes" : {
            "POSITION" : 1,
            "NORMAL" : 2,
            "TANGENT" : 3,
            "TEXCOORD_0" : 4,
            "TEXCOORD_1" : 5
          },
          "indices" : 0,
          "material" : 0
        }
      ],
      "name" : "S_Envi_Fyz_Cdstore_02g"
    }
  ],
  "buffers" : [
    {
      "uri" : "S_Envi_Fyz_Cdstore_02g.bin",
      "byteLength" : 49736
    }
  ],
  "bufferViews" : [
    {
      "buffer" : 0,
      "byteOffset" : 0,
      "byteLength" : 4152
    },
    {
      "buffer" : 0,
      "byteOffset" : 4152,
      "byteLength" : 9768
    },
    {
      "buffer" : 0,
      "byteOffset" : 13920,
      "byteLength" : 9768
    },
    {
      "buffer" : 0,
      "byteOffset" : 23688,
      "byteLength" : 13024
    },
    {
      "buffer" : 0,
      "byteOffset" : 36712,
      "byteLength" : 6512
    },
    {
      "buffer" : 0,
      "byteOffset" : 43224,
      "byteLength" : 6512
    }
  ],
  "accessors" : [
    {
      "bufferView" : 0,
      "componentType" : 5123,
      "count" : 2076,
      "type" : "SCALAR"
    },
    {
      "bufferView" : 1,
      "min" : [ -0.226297, 3.20435e-06, -0.0780112 ],
      "max" : [ 0.22985, 1.2925, 0.0299045 ],
      "componentType" : 5126,
      "count" : 814,
      "type" : "VEC3"
    },
    {
      "bufferView" : 2,
      "componentType" : 5126,
      "count" : 814,
      "type" : "VEC3"
    },
    {
      "bufferView" : 3,
      "componentType" : 5126,
      "count" : 814,
      "type" : "VEC4"
    },
    {
      "bufferView" : 4,
      "componentType" : 5126,
      "count" : 814,
      "type" : "VEC2"
    },
    {
      "bufferView" : 5,
      "componentType" : 5126,
      "count" : 814,
      "type" : "VEC2"
    }
  ]
}
