{
  "asset" : {
    "generator" : "UE Viewer (umodel) build 1579 based",
    "version" : "2.0"
  },
  "scene" : 0,
  "scenes" : [
    {
      "nodes" : [ 0 ]
    }
  ],
  "nodes" : [
    {
      "name" : "S_Envi_FZFBase_BlindBox_01c",
      "mesh" : 0
    }
  ],
  "materials" : [
    {
      "name" : "MI_Envi_Umeda_BlindBox_02",
      "pbrMetallicRoughness" : {
        "baseColorFactor" : [ 0.3, 0.3, 0.3, 1.0 ],
        "metallicFactor" : 0.1,
        "roughnessFactor" : 0.5
      }
    },
    {
      "name" : "MI_Envi_FZFBase_Artillery_01b",
      "pbrMetallicRoughness" : {
        "baseColorFactor" : [ 0.9, 0.3, 0.3, 1.0 ],
        "metallicFactor" : 0.1,
        "roughnessFactor" : 0.5
      }
    }
  ],
  "meshes" : [
    {
      "primitives" : [
        {
          "attributes" : {
            "POSITION" : 1,
            "NORMAL" : 2,
            "TANGENT" : 3,
            "TEXCOORD_0" : 4,
            "TEXCOORD_1" : 5,
            "TEXCOORD_2" : 6,
            "TEXCOORD_3" : 7
          },
          "indices" : 0,
          "material" : 0
        },
        {
          "attributes" : {
            "POSITION" : 9,
            "NORMAL" : 10,
            "TANGENT" : 11,
            "TEXCOORD_0" : 12,
            "TEXCOORD_1" : 13,
            "TEXCOORD_2" : 14,
            "TEXCOORD_3" : 15
          },
          "indices" : 8,
          "material" : 1
        }
      ],
      "name" : "S_Envi_FZFBase_BlindBox_01c"
    }
  ],
  "buffers" : [
    {
      "uri" : "S_Envi_FZFBase_BlindBox_01c.bin",
      "byteLength" : 472556
    }
  ],
  "bufferViews" : [
    {
      "buffer" : 0,
      "byteOffset" : 0,
      "byteLength" : 3224
    },
    {
      "buffer" : 0,
      "byteOffset" : 3224,
      "byteLength" : 10164
    },
    {
      "buffer" : 0,
      "byteOffset" : 13388,
      "byteLength" : 10164
    },
    {
      "buffer" : 0,
      "byteOffset" : 23552,
      "byteLength" : 13552
    },
    {
      "buffer" : 0,
      "byteOffset" : 37104,
      "byteLength" : 6776
    },
    {
      "buffer" : 0,
      "byteOffset" : 43880,
      "byteLength" : 6776
    },
    {
      "buffer" : 0,
      "byteOffset" : 50656,
      "byteLength" : 6776
    },
    {
      "buffer" : 0,
      "byteOffset" : 57432,
      "byteLength" : 6776
    },
    {
      "buffer" : 0,
      "byteOffset" : 64208,
      "byteLength" : 18684
    },
    {
      "buffer" : 0,
      "byteOffset" : 82892,
      "byteLength" : 64944
    },
    {
      "buffer" : 0,
      "byteOffset" : 147836,
      "byteLength" : 64944
    },
    {
      "buffer" : 0,
      "byteOffset" : 212780,
      "byteLength" : 86592
    },
    {
      "buffer" : 0,
      "byteOffset" : 299372,
      "byteLength" : 43296
    },
    {
      "buffer" : 0,
      "byteOffset" : 342668,
      "byteLength" : 43296
    },
    {
      "buffer" : 0,
      "byteOffset" : 385964,
      "byteLength" : 43296
    },
    {
      "buffer" : 0,
      "byteOffset" : 429260,
      "byteLength" : 43296
    }
  ],
  "accessors" : [
    {
      "bufferView" : 0,
      "componentType" : 5123,
      "count" : 1611,
      "type" : "SCALAR"
    },
    {
      "bufferView" : 1,
      "min" : [ -0.418269, -0.00604815, -0 ],
      "max" : [ 0.574204, 1.21416, 5.90587 ],
      "componentType" : 5126,
      "count" : 847,
      "type" : "VEC3"
    },
    {
      "bufferView" : 2,
      "componentType" : 5126,
      "count" : 847,
      "type" : "VEC3"
    },
    {
      "bufferView" : 3,
      "componentType" : 5126,
      "count" : 847,
      "type" : "VEC4"
    },
    {
      "bufferView" : 4,
      "componentType" : 5126,
      "count" : 847,
      "type" : "VEC2"
    },
    {
      "bufferView" : 5,
      "componentType" : 5126,
      "count" : 847,
      "type" : "VEC2"
    },
    {
      "bufferView" : 6,
      "componentType" : 5126,
      "count" : 847,
      "type" : "VEC2"
    },
    {
      "bufferView" : 7,
      "componentType" : 5126,
      "count" : 847,
      "type" : "VEC2"
    },
    {
      "bufferView" : 8,
      "componentType" : 5123,
      "count" : 9342,
      "type" : "SCALAR"
    },
    {
      "bufferView" : 9,
      "min" : [ -0.300627, 0.0387632, 0.628768 ],
      "max" : [ -0.00172119, 0.999177, 4.36554 ],
      "componentType" : 5126,
      "count" : 5412,
      "type" : "VEC3"
    },
    {
      "bufferView" : 10,
      "componentType" : 5126,
      "count" : 5412,
      "type" : "VEC3"
    },
    {
      "bufferView" : 11,
      "componentType" : 5126,
      "count" : 5412,
      "type" : "VEC4"
    },
    {
      "bufferView" : 12,
      "componentType" : 5126,
      "count" : 5412,
      "type" : "VEC2"
    },
    {
      "bufferView" : 13,
      "componentType" : 5126,
      "count" : 5412,
      "type" : "VEC2"
    },
    {
      "bufferView" : 14,
      "componentType" : 5126,
      "count" : 5412,
      "type" : "VEC2"
    },
    {
      "bufferView" : 15,
      "componentType" : 5126,
      "count" : 5412,
      "type" : "VEC2"
    }
  ]
}
