{
  "asset" : {
    "generator" : "UE Viewer (umodel) build 1579 based",
    "version" : "2.0"
  },
  "scene" : 0,
  "scenes" : [
    {
      "nodes" : [ 0 ]
    }
  ],
  "nodes" : [
    {
      "name" : "S_Envi_FZFBase_Server_01f",
      "mesh" : 0
    }
  ],
  "materials" : [
    {
      "name" : "MI_Envi_FZFBase_Server_01a",
      "pbrMetallicRoughness" : {
        "baseColorFactor" : [ 0.3, 0.3, 0.3, 1.0 ],
        "metallicFactor" : 0.1,
        "roughnessFactor" : 0.5
      }
    }
  ],
  "meshes" : [
    {
      "primitives" : [
        {
          "attributes" : {
            "POSITION" : 1,
            "NORMAL" : 2,
            "TANGENT" : 3,
            "TEXCOORD_0" : 4,
            "TEXCOORD_1" : 5,
            "TEXCOORD_2" : 6,
            "TEXCOORD_3" : 7
          },
          "indices" : 0,
          "material" : 0
        }
      ],
      "name" : "S_Envi_FZFBase_Server_01f"
    }
  ],
  "buffers" : [
    {
      "uri" : "S_Envi_FZFBase_Server_01f.bin",
      "byteLength" : 154592
    }
  ],
  "bufferViews" : [
    {
      "buffer" : 0,
      "byteOffset" : 0,
      "byteLength" : 7856
    },
    {
      "buffer" : 0,
      "byteOffset" : 7856,
      "byteLength" : 24456
    },
    {
      "buffer" : 0,
      "byteOffset" : 32312,
      "byteLength" : 24456
    },
    {
      "buffer" : 0,
      "byteOffset" : 56768,
      "byteLength" : 32608
    },
    {
      "buffer" : 0,
      "byteOffset" : 89376,
      "byteLength" : 16304
    },
    {
      "buffer" : 0,
      "byteOffset" : 105680,
      "byteLength" : 16304
    },
    {
      "buffer" : 0,
      "byteOffset" : 121984,
      "byteLength" : 16304
    },
    {
      "buffer" : 0,
      "byteOffset" : 138288,
      "byteLength" : 16304
    }
  ],
  "accessors" : [
    {
      "bufferView" : 0,
      "componentType" : 5123,
      "count" : 3927,
      "type" : "SCALAR"
    },
    {
      "bufferView" : 1,
      "min" : [ -1.03596, 0.011534, -0.755779 ],
      "max" : [ 1.04652, 2.01153, 0.747532 ],
      "componentType" : 5126,
      "count" : 2038,
      "type" : "VEC3"
    },
    {
      "bufferView" : 2,
      "componentType" : 5126,
      "count" : 2038,
      "type" : "VEC3"
    },
    {
      "bufferView" : 3,
      "componentType" : 5126,
      "count" : 2038,
      "type" : "VEC4"
    },
    {
      "bufferView" : 4,
      "componentType" : 5126,
      "count" : 2038,
      "type" : "VEC2"
    },
    {
      "bufferView" : 5,
      "componentType" : 5126,
      "count" : 2038,
      "type" : "VEC2"
    },
    {
      "bufferView" : 6,
      "componentType" : 5126,
      "count" : 2038,
      "type" : "VEC2"
    },
    {
      "bufferView" : 7,
      "componentType" : 5126,
      "count" : 2038,
      "type" : "VEC2"
    }
  ]
}
