{
  "asset" : {
    "generator" : "UE Viewer (umodel) build 1579 based",
    "version" : "2.0"
  },
  "scene" : 0,
  "scenes" : [
    {
      "nodes" : [ 0 ]
    }
  ],
  "nodes" : [
    {
      "name" : "S_Envi_FZFBase_Edition_01a",
      "mesh" : 0
    }
  ],
  "materials" : [
    {
      "name" : "MI_Envi_FZFBase_Searchlight_05a",
      "pbrMetallicRoughness" : {
        "baseColorFactor" : [ 0.3, 0.3, 0.3, 1.0 ],
        "metallicFactor" : 0.1,
        "roughnessFactor" : 0.5
      }
    }
  ],
  "meshes" : [
    {
      "primitives" : [
        {
          "attributes" : {
            "POSITION" : 1,
            "NORMAL" : 2,
            "TANGENT" : 3,
            "TEXCOORD_0" : 4,
            "TEXCOORD_1" : 5,
            "TEXCOORD_2" : 6,
            "TEXCOORD_3" : 7
          },
          "indices" : 0,
          "material" : 0
        }
      ],
      "name" : "S_Envi_FZFBase_Edition_01a"
    }
  ],
  "buffers" : [
    {
      "uri" : "S_Envi_FZFBase_Edition_01a.bin",
      "byteLength" : 137244
    }
  ],
  "bufferViews" : [
    {
      "buffer" : 0,
      "byteOffset" : 0,
      "byteLength" : 7428
    },
    {
      "buffer" : 0,
      "byteOffset" : 7428,
      "byteLength" : 21636
    },
    {
      "buffer" : 0,
      "byteOffset" : 29064,
      "byteLength" : 21636
    },
    {
      "buffer" : 0,
      "byteOffset" : 50700,
      "byteLength" : 28848
    },
    {
      "buffer" : 0,
      "byteOffset" : 79548,
      "byteLength" : 14424
    },
    {
      "buffer" : 0,
      "byteOffset" : 93972,
      "byteLength" : 14424
    },
    {
      "buffer" : 0,
      "byteOffset" : 108396,
      "byteLength" : 14424
    },
    {
      "buffer" : 0,
      "byteOffset" : 122820,
      "byteLength" : 14424
    }
  ],
  "accessors" : [
    {
      "bufferView" : 0,
      "componentType" : 5123,
      "count" : 3714,
      "type" : "SCALAR"
    },
    {
      "bufferView" : 1,
      "min" : [ -0.522784, -2.14577e-08, -0.318664 ],
      "max" : [ 0.522784, 0.703918, 0.318664 ],
      "componentType" : 5126,
      "count" : 1803,
      "type" : "VEC3"
    },
    {
      "bufferView" : 2,
      "componentType" : 5126,
      "count" : 1803,
      "type" : "VEC3"
    },
    {
      "bufferView" : 3,
      "componentType" : 5126,
      "count" : 1803,
      "type" : "VEC4"
    },
    {
      "bufferView" : 4,
      "componentType" : 5126,
      "count" : 1803,
      "type" : "VEC2"
    },
    {
      "bufferView" : 5,
      "componentType" : 5126,
      "count" : 1803,
      "type" : "VEC2"
    },
    {
      "bufferView" : 6,
      "componentType" : 5126,
      "count" : 1803,
      "type" : "VEC2"
    },
    {
      "bufferView" : 7,
      "componentType" : 5126,
      "count" : 1803,
      "type" : "VEC2"
    }
  ]
}
