{
  "asset" : {
    "generator" : "UE Viewer (umodel) build 1579 based",
    "version" : "2.0"
  },
  "scene" : 0,
  "scenes" : [
    {
      "nodes" : [ 0 ]
    }
  ],
  "nodes" : [
    {
      "name" : "S_Envi_FZFBase_Wall_09i",
      "mesh" : 0
    }
  ],
  "materials" : [
    {
      "name" : "MI_Envi_FZFBase_Wall_02b",
      "pbrMetallicRoughness" : {
        "baseColorFactor" : [ 0.3, 0.3, 0.3, 1.0 ],
        "metallicFactor" : 0.1,
        "roughnessFactor" : 0.5
      }
    },
    {
      "name" : "MI_Envi_FZFBase_Roof_01b",
      "pbrMetallicRoughness" : {
        "baseColorFactor" : [ 0.9, 0.3, 0.3, 1.0 ],
        "metallicFactor" : 0.1,
        "roughnessFactor" : 0.5
      }
    },
    {
      "name" : "MI_Envi_FZFBase_Screen_01b",
      "pbrMetallicRoughness" : {
        "baseColorFactor" : [ 0.3, 0.9, 0.3, 1.0 ],
        "metallicFactor" : 0.1,
        "roughnessFactor" : 0.5
      }
    }
  ],
  "meshes" : [
    {
      "primitives" : [
        {
          "attributes" : {
            "POSITION" : 1,
            "NORMAL" : 2,
            "TANGENT" : 3,
            "TEXCOORD_0" : 4,
            "TEXCOORD_1" : 5,
            "TEXCOORD_2" : 6,
            "TEXCOORD_3" : 7
          },
          "indices" : 0,
          "material" : 0
        },
        {
          "attributes" : {
            "POSITION" : 9,
            "NORMAL" : 10,
            "TANGENT" : 11,
            "TEXCOORD_0" : 12,
            "TEXCOORD_1" : 13,
            "TEXCOORD_2" : 14,
            "TEXCOORD_3" : 15
          },
          "indices" : 8,
          "material" : 1
        },
        {
          "attributes" : {
            "POSITION" : 17,
            "NORMAL" : 18,
            "TANGENT" : 19,
            "TEXCOORD_0" : 20,
            "TEXCOORD_1" : 21,
            "TEXCOORD_2" : 22,
            "TEXCOORD_3" : 23
          },
          "indices" : 16,
          "material" : 2
        }
      ],
      "name" : "S_Envi_FZFBase_Wall_09i"
    }
  ],
  "buffers" : [
    {
      "uri" : "S_Envi_FZFBase_Wall_09i.bin",
      "byteLength" : 136764
    }
  ],
  "bufferViews" : [
    {
      "buffer" : 0,
      "byteOffset" : 0,
      "byteLength" : 6396
    },
    {
      "buffer" : 0,
      "byteOffset" : 6396,
      "byteLength" : 18216
    },
    {
      "buffer" : 0,
      "byteOffset" : 24612,
      "byteLength" : 18216
    },
    {
      "buffer" : 0,
      "byteOffset" : 42828,
      "byteLength" : 24288
    },
    {
      "buffer" : 0,
      "byteOffset" : 67116,
      "byteLength" : 12144
    },
    {
      "buffer" : 0,
      "byteOffset" : 79260,
      "byteLength" : 12144
    },
    {
      "buffer" : 0,
      "byteOffset" : 91404,
      "byteLength" : 12144
    },
    {
      "buffer" : 0,
      "byteOffset" : 103548,
      "byteLength" : 12144
    },
    {
      "buffer" : 0,
      "byteOffset" : 115692,
      "byteLength" : 1032
    },
    {
      "buffer" : 0,
      "byteOffset" : 116724,
      "byteLength" : 3264
    },
    {
      "buffer" : 0,
      "byteOffset" : 119988,
      "byteLength" : 3264
    },
    {
      "buffer" : 0,
      "byteOffset" : 123252,
      "byteLength" : 4352
    },
    {
      "buffer" : 0,
      "byteOffset" : 127604,
      "byteLength" : 2176
    },
    {
      "buffer" : 0,
      "byteOffset" : 129780,
      "byteLength" : 2176
    },
    {
      "buffer" : 0,
      "byteOffset" : 131956,
      "byteLength" : 2176
    },
    {
      "buffer" : 0,
      "byteOffset" : 134132,
      "byteLength" : 2176
    },
    {
      "buffer" : 0,
      "byteOffset" : 136308,
      "byteLength" : 24
    },
    {
      "buffer" : 0,
      "byteOffset" : 136332,
      "byteLength" : 72
    },
    {
      "buffer" : 0,
      "byteOffset" : 136404,
      "byteLength" : 72
    },
    {
      "buffer" : 0,
      "byteOffset" : 136476,
      "byteLength" : 96
    },
    {
      "buffer" : 0,
      "byteOffset" : 136572,
      "byteLength" : 48
    },
    {
      "buffer" : 0,
      "byteOffset" : 136620,
      "byteLength" : 48
    },
    {
      "buffer" : 0,
      "byteOffset" : 136668,
      "byteLength" : 48
    },
    {
      "buffer" : 0,
      "byteOffset" : 136716,
      "byteLength" : 48
    }
  ],
  "accessors" : [
    {
      "bufferView" : 0,
      "componentType" : 5123,
      "count" : 3198,
      "type" : "SCALAR"
    },
    {
      "bufferView" : 1,
      "min" : [ 0.254642, 2.84433, -3.84818 ],
      "max" : [ 3.23259, 4.14808, 6.9462 ],
      "componentType" : 5126,
      "count" : 1518,
      "type" : "VEC3"
    },
    {
      "bufferView" : 2,
      "componentType" : 5126,
      "count" : 1518,
      "type" : "VEC3"
    },
    {
      "bufferView" : 3,
      "componentType" : 5126,
      "count" : 1518,
      "type" : "VEC4"
    },
    {
      "bufferView" : 4,
      "componentType" : 5126,
      "count" : 1518,
      "type" : "VEC2"
    },
    {
      "bufferView" : 5,
      "componentType" : 5126,
      "count" : 1518,
      "type" : "VEC2"
    },
    {
      "bufferView" : 6,
      "componentType" : 5126,
      "count" : 1518,
      "type" : "VEC2"
    },
    {
      "bufferView" : 7,
      "componentType" : 5126,
      "count" : 1518,
      "type" : "VEC2"
    },
    {
      "bufferView" : 8,
      "componentType" : 5123,
      "count" : 516,
      "type" : "SCALAR"
    },
    {
      "bufferView" : 9,
      "min" : [ 0.120145, -0.153759, -3.93752 ],
      "max" : [ 3.23805, 8.2083, 7.01186 ],
      "componentType" : 5126,
      "count" : 272,
      "type" : "VEC3"
    },
    {
      "bufferView" : 10,
      "componentType" : 5126,
      "count" : 272,
      "type" : "VEC3"
    },
    {
      "bufferView" : 11,
      "componentType" : 5126,
      "count" : 272,
      "type" : "VEC4"
    },
    {
      "bufferView" : 12,
      "componentType" : 5126,
      "count" : 272,
      "type" : "VEC2"
    },
    {
      "bufferView" : 13,
      "componentType" : 5126,
      "count" : 272,
      "type" : "VEC2"
    },
    {
      "bufferView" : 14,
      "componentType" : 5126,
      "count" : 272,
      "type" : "VEC2"
    },
    {
      "bufferView" : 15,
      "componentType" : 5126,
      "count" : 272,
      "type" : "VEC2"
    },
    {
      "bufferView" : 16,
      "componentType" : 5123,
      "count" : 12,
      "type" : "SCALAR"
    },
    {
      "bufferView" : 17,
      "min" : [ 0.359547, 2.98169, 1.6378 ],
      "max" : [ 0.359548, 4.01332, 5.29601 ],
      "componentType" : 5126,
      "count" : 6,
      "type" : "VEC3"
    },
    {
      "bufferView" : 18,
      "componentType" : 5126,
      "count" : 6,
      "type" : "VEC3"
    },
    {
      "bufferView" : 19,
      "componentType" : 5126,
      "count" : 6,
      "type" : "VEC4"
    },
    {
      "bufferView" : 20,
      "componentType" : 5126,
      "count" : 6,
      "type" : "VEC2"
    },
    {
      "bufferView" : 21,
      "componentType" : 5126,
      "count" : 6,
      "type" : "VEC2"
    },
    {
      "bufferView" : 22,
      "componentType" : 5126,
      "count" : 6,
      "type" : "VEC2"
    },
    {
      "bufferView" : 23,
      "componentType" : 5126,
      "count" : 6,
      "type" : "VEC2"
    }
  ]
}
