{
  "asset" : {
    "generator" : "UE Viewer (umodel) build 1579 based",
    "version" : "2.0"
  },
  "scene" : 0,
  "scenes" : [
    {
      "nodes" : [ 0 ]
    }
  ],
  "nodes" : [
    {
      "name" : "S_Envi_FZFBase_Server_01p",
      "mesh" : 0
    }
  ],
  "materials" : [
    {
      "name" : "MI_Envi_FZFBase_Server_01b",
      "pbrMetallicRoughness" : {
        "baseColorFactor" : [ 0.3, 0.3, 0.3, 1.0 ],
        "metallicFactor" : 0.1,
        "roughnessFactor" : 0.5
      }
    }
  ],
  "meshes" : [
    {
      "primitives" : [
        {
          "attributes" : {
            "POSITION" : 1,
            "NORMAL" : 2,
            "TANGENT" : 3,
            "TEXCOORD_0" : 4,
            "TEXCOORD_1" : 5
          },
          "indices" : 0,
          "material" : 0
        }
      ],
      "name" : "S_Envi_FZFBase_Server_01p"
    }
  ],
  "buffers" : [
    {
      "uri" : "S_Envi_FZFBase_Server_01p.bin",
      "byteLength" : 8076
    }
  ],
  "bufferViews" : [
    {
      "buffer" : 0,
      "byteOffset" : 0,
      "byteLength" : 684
    },
    {
      "buffer" : 0,
      "byteOffset" : 684,
      "byteLength" : 1584
    },
    {
      "buffer" : 0,
      "byteOffset" : 2268,
      "byteLength" : 1584
    },
    {
      "buffer" : 0,
      "byteOffset" : 3852,
      "byteLength" : 2112
    },
    {
      "buffer" : 0,
      "byteOffset" : 5964,
      "byteLength" : 1056
    },
    {
      "buffer" : 0,
      "byteOffset" : 7020,
      "byteLength" : 1056
    }
  ],
  "accessors" : [
    {
      "bufferView" : 0,
      "componentType" : 5123,
      "count" : 342,
      "type" : "SCALAR"
    },
    {
      "bufferView" : 1,
      "min" : [ -4.59594e-07, -7.64446e-07, 0.337386 ],
      "max" : [ 3.15, 3.1, 3.15 ],
      "componentType" : 5126,
      "count" : 132,
      "type" : "VEC3"
    },
    {
      "bufferView" : 2,
      "componentType" : 5126,
      "count" : 132,
      "type" : "VEC3"
    },
    {
      "bufferView" : 3,
      "componentType" : 5126,
      "count" : 132,
      "type" : "VEC4"
    },
    {
      "bufferView" : 4,
      "componentType" : 5126,
      "count" : 132,
      "type" : "VEC2"
    },
    {
      "bufferView" : 5,
      "componentType" : 5126,
      "count" : 132,
      "type" : "VEC2"
    }
  ]
}
