{
  "asset" : {
    "generator" : "UE Viewer (umodel) build 1579 based",
    "version" : "2.0"
  },
  "scene" : 0,
  "scenes" : [
    {
      "nodes" : [ 0 ]
    }
  ],
  "nodes" : [
    {
      "name" : "S_Envi_FZFBase_Transporter_01a",
      "mesh" : 0
    }
  ],
  "materials" : [
    {
      "name" : "MI_Envi_FZFBase_Transporter_01a",
      "pbrMetallicRoughness" : {
        "baseColorFactor" : [ 0.3, 0.3, 0.3, 1.0 ],
        "metallicFactor" : 0.1,
        "roughnessFactor" : 0.5
      }
    }
  ],
  "meshes" : [
    {
      "primitives" : [
        {
          "attributes" : {
            "POSITION" : 1,
            "NORMAL" : 2,
            "TANGENT" : 3,
            "TEXCOORD_0" : 4,
            "TEXCOORD_1" : 5,
            "TEXCOORD_2" : 6
          },
          "indices" : 0,
          "material" : 0
        }
      ],
      "name" : "S_Envi_FZFBase_Transporter_01a"
    }
  ],
  "buffers" : [
    {
      "uri" : "S_Envi_FZFBase_Transporter_01a.bin",
      "byteLength" : 372408
    }
  ],
  "bufferViews" : [
    {
      "buffer" : 0,
      "byteOffset" : 0,
      "byteLength" : 22776
    },
    {
      "buffer" : 0,
      "byteOffset" : 22776,
      "byteLength" : 65556
    },
    {
      "buffer" : 0,
      "byteOffset" : 88332,
      "byteLength" : 65556
    },
    {
      "buffer" : 0,
      "byteOffset" : 153888,
      "byteLength" : 87408
    },
    {
      "buffer" : 0,
      "byteOffset" : 241296,
      "byteLength" : 43704
    },
    {
      "buffer" : 0,
      "byteOffset" : 285000,
      "byteLength" : 43704
    },
    {
      "buffer" : 0,
      "byteOffset" : 328704,
      "byteLength" : 43704
    }
  ],
  "accessors" : [
    {
      "bufferView" : 0,
      "componentType" : 5123,
      "count" : 11388,
      "type" : "SCALAR"
    },
    {
      "bufferView" : 1,
      "min" : [ -2.976, -0.0003064, -5.53207 ],
      "max" : [ 2.976, 1.85623, 5.72149 ],
      "componentType" : 5126,
      "count" : 5463,
      "type" : "VEC3"
    },
    {
      "bufferView" : 2,
      "componentType" : 5126,
      "count" : 5463,
      "type" : "VEC3"
    },
    {
      "bufferView" : 3,
      "componentType" : 5126,
      "count" : 5463,
      "type" : "VEC4"
    },
    {
      "bufferView" : 4,
      "componentType" : 5126,
      "count" : 5463,
      "type" : "VEC2"
    },
    {
      "bufferView" : 5,
      "componentType" : 5126,
      "count" : 5463,
      "type" : "VEC2"
    },
    {
      "bufferView" : 6,
      "componentType" : 5126,
      "count" : 5463,
      "type" : "VEC2"
    }
  ]
}
