{
  "asset" : {
    "generator" : "UE Viewer (umodel) build 1579 based",
    "version" : "2.0"
  },
  "scene" : 0,
  "scenes" : [
    {
      "nodes" : [ 0 ]
    }
  ],
  "nodes" : [
    {
      "name" : "S_Envi_FZFBase_Coolingbox_02b",
      "mesh" : 0
    }
  ],
  "materials" : [
    {
      "name" : "MI_Envi_FZFBase_Component_02a",
      "pbrMetallicRoughness" : {
        "baseColorFactor" : [ 0.3, 0.3, 0.3, 1.0 ],
        "metallicFactor" : 0.1,
        "roughnessFactor" : 0.5
      }
    }
  ],
  "meshes" : [
    {
      "primitives" : [
        {
          "attributes" : {
            "POSITION" : 1,
            "NORMAL" : 2,
            "TANGENT" : 3,
            "TEXCOORD_0" : 4,
            "TEXCOORD_1" : 5
          },
          "indices" : 0,
          "material" : 0
        }
      ],
      "name" : "S_Envi_FZFBase_Coolingbox_02b"
    }
  ],
  "buffers" : [
    {
      "uri" : "S_Envi_FZFBase_Coolingbox_02b.bin",
      "byteLength" : 51688
    }
  ],
  "bufferViews" : [
    {
      "buffer" : 0,
      "byteOffset" : 0,
      "byteLength" : 5040
    },
    {
      "buffer" : 0,
      "byteOffset" : 5040,
      "byteLength" : 9996
    },
    {
      "buffer" : 0,
      "byteOffset" : 15036,
      "byteLength" : 9996
    },
    {
      "buffer" : 0,
      "byteOffset" : 25032,
      "byteLength" : 13328
    },
    {
      "buffer" : 0,
      "byteOffset" : 38360,
      "byteLength" : 6664
    },
    {
      "buffer" : 0,
      "byteOffset" : 45024,
      "byteLength" : 6664
    }
  ],
  "accessors" : [
    {
      "bufferView" : 0,
      "componentType" : 5123,
      "count" : 2520,
      "type" : "SCALAR"
    },
    {
      "bufferView" : 1,
      "min" : [ -2.56606, -0.0433817, -1.05577 ],
      "max" : [ 0, 1.30022, 0.224206 ],
      "componentType" : 5126,
      "count" : 833,
      "type" : "VEC3"
    },
    {
      "bufferView" : 2,
      "componentType" : 5126,
      "count" : 833,
      "type" : "VEC3"
    },
    {
      "bufferView" : 3,
      "componentType" : 5126,
      "count" : 833,
      "type" : "VEC4"
    },
    {
      "bufferView" : 4,
      "componentType" : 5126,
      "count" : 833,
      "type" : "VEC2"
    },
    {
      "bufferView" : 5,
      "componentType" : 5126,
      "count" : 833,
      "type" : "VEC2"
    }
  ]
}
