{
  "asset" : {
    "generator" : "UE Viewer (umodel) build 1579 based",
    "version" : "2.0"
  },
  "scene" : 0,
  "scenes" : [
    {
      "nodes" : [ 0 ]
    }
  ],
  "nodes" : [
    {
      "name" : "S_Envi_FZFBase_Door_02a",
      "mesh" : 0
    }
  ],
  "materials" : [
    {
      "name" : "MI_Envi_FZFBase_Door_02a",
      "pbrMetallicRoughness" : {
        "baseColorFactor" : [ 0.3, 0.3, 0.3, 1.0 ],
        "metallicFactor" : 0.1,
        "roughnessFactor" : 0.5
      }
    }
  ],
  "meshes" : [
    {
      "primitives" : [
        {
          "attributes" : {
            "POSITION" : 1,
            "NORMAL" : 2,
            "TANGENT" : 3,
            "TEXCOORD_0" : 4,
            "TEXCOORD_1" : 5,
            "TEXCOORD_2" : 6,
            "TEXCOORD_3" : 7
          },
          "indices" : 0,
          "material" : 0
        }
      ],
      "name" : "S_Envi_FZFBase_Door_02a"
    }
  ],
  "buffers" : [
    {
      "uri" : "S_Envi_FZFBase_Door_02a.bin",
      "byteLength" : 15804
    }
  ],
  "bufferViews" : [
    {
      "buffer" : 0,
      "byteOffset" : 0,
      "byteLength" : 684
    },
    {
      "buffer" : 0,
      "byteOffset" : 684,
      "byteLength" : 2520
    },
    {
      "buffer" : 0,
      "byteOffset" : 3204,
      "byteLength" : 2520
    },
    {
      "buffer" : 0,
      "byteOffset" : 5724,
      "byteLength" : 3360
    },
    {
      "buffer" : 0,
      "byteOffset" : 9084,
      "byteLength" : 1680
    },
    {
      "buffer" : 0,
      "byteOffset" : 10764,
      "byteLength" : 1680
    },
    {
      "buffer" : 0,
      "byteOffset" : 12444,
      "byteLength" : 1680
    },
    {
      "buffer" : 0,
      "byteOffset" : 14124,
      "byteLength" : 1680
    }
  ],
  "accessors" : [
    {
      "bufferView" : 0,
      "componentType" : 5123,
      "count" : 342,
      "type" : "SCALAR"
    },
    {
      "bufferView" : 1,
      "min" : [ 0, 2.38419e-09, -2.32541 ],
      "max" : [ 0.960867, 6.42439, 0.821997 ],
      "componentType" : 5126,
      "count" : 210,
      "type" : "VEC3"
    },
    {
      "bufferView" : 2,
      "componentType" : 5126,
      "count" : 210,
      "type" : "VEC3"
    },
    {
      "bufferView" : 3,
      "componentType" : 5126,
      "count" : 210,
      "type" : "VEC4"
    },
    {
      "bufferView" : 4,
      "componentType" : 5126,
      "count" : 210,
      "type" : "VEC2"
    },
    {
      "bufferView" : 5,
      "componentType" : 5126,
      "count" : 210,
      "type" : "VEC2"
    },
    {
      "bufferView" : 6,
      "componentType" : 5126,
      "count" : 210,
      "type" : "VEC2"
    },
    {
      "bufferView" : 7,
      "componentType" : 5126,
      "count" : 210,
      "type" : "VEC2"
    }
  ]
}
