{
  "asset" : {
    "generator" : "UE Viewer (umodel) build 1579 based",
    "version" : "2.0"
  },
  "scene" : 0,
  "scenes" : [
    {
      "nodes" : [ 0 ]
    }
  ],
  "nodes" : [
    {
      "name" : "S_Envi_FZFBase_Bridge_01a",
      "mesh" : 0
    }
  ],
  "materials" : [
    {
      "name" : "MI_Envi_FZFBase_MetalBox_01d",
      "pbrMetallicRoughness" : {
        "baseColorFactor" : [ 0.3, 0.3, 0.3, 1.0 ],
        "metallicFactor" : 0.1,
        "roughnessFactor" : 0.5
      }
    }
  ],
  "meshes" : [
    {
      "primitives" : [
        {
          "attributes" : {
            "POSITION" : 1,
            "NORMAL" : 2,
            "TANGENT" : 3,
            "TEXCOORD_0" : 4,
            "TEXCOORD_1" : 5,
            "TEXCOORD_2" : 6,
            "TEXCOORD_3" : 7
          },
          "indices" : 0,
          "material" : 0
        }
      ],
      "name" : "S_Envi_FZFBase_Bridge_01a"
    }
  ],
  "buffers" : [
    {
      "uri" : "S_Envi_FZFBase_Bridge_01a.bin",
      "byteLength" : 50208
    }
  ],
  "bufferViews" : [
    {
      "buffer" : 0,
      "byteOffset" : 0,
      "byteLength" : 2976
    },
    {
      "buffer" : 0,
      "byteOffset" : 2976,
      "byteLength" : 7872
    },
    {
      "buffer" : 0,
      "byteOffset" : 10848,
      "byteLength" : 7872
    },
    {
      "buffer" : 0,
      "byteOffset" : 18720,
      "byteLength" : 10496
    },
    {
      "buffer" : 0,
      "byteOffset" : 29216,
      "byteLength" : 5248
    },
    {
      "buffer" : 0,
      "byteOffset" : 34464,
      "byteLength" : 5248
    },
    {
      "buffer" : 0,
      "byteOffset" : 39712,
      "byteLength" : 5248
    },
    {
      "buffer" : 0,
      "byteOffset" : 44960,
      "byteLength" : 5248
    }
  ],
  "accessors" : [
    {
      "bufferView" : 0,
      "componentType" : 5123,
      "count" : 1488,
      "type" : "SCALAR"
    },
    {
      "bufferView" : 1,
      "min" : [ -20.2942, -1.71661e-07, -8.75 ],
      "max" : [ -4.88281e-06, 1.85613, -2.9743e-06 ],
      "componentType" : 5126,
      "count" : 656,
      "type" : "VEC3"
    },
    {
      "bufferView" : 2,
      "componentType" : 5126,
      "count" : 656,
      "type" : "VEC3"
    },
    {
      "bufferView" : 3,
      "componentType" : 5126,
      "count" : 656,
      "type" : "VEC4"
    },
    {
      "bufferView" : 4,
      "componentType" : 5126,
      "count" : 656,
      "type" : "VEC2"
    },
    {
      "bufferView" : 5,
      "componentType" : 5126,
      "count" : 656,
      "type" : "VEC2"
    },
    {
      "bufferView" : 6,
      "componentType" : 5126,
      "count" : 656,
      "type" : "VEC2"
    },
    {
      "bufferView" : 7,
      "componentType" : 5126,
      "count" : 656,
      "type" : "VEC2"
    }
  ]
}
