{
  "asset" : {
    "generator" : "UE Viewer (umodel) build 1579 based",
    "version" : "2.0"
  },
  "scene" : 0,
  "scenes" : [
    {
      "nodes" : [ 0 ]
    }
  ],
  "nodes" : [
    {
      "name" : "S_Envi_FZFBase_Roof_02a",
      "mesh" : 0
    }
  ],
  "materials" : [
    {
      "name" : "MI_Envi_FZFBase_Roof_01b",
      "pbrMetallicRoughness" : {
        "baseColorFactor" : [ 0.3, 0.3, 0.3, 1.0 ],
        "metallicFactor" : 0.1,
        "roughnessFactor" : 0.5
      }
    }
  ],
  "meshes" : [
    {
      "primitives" : [
        {
          "attributes" : {
            "POSITION" : 1,
            "NORMAL" : 2,
            "TANGENT" : 3,
            "TEXCOORD_0" : 4,
            "TEXCOORD_1" : 5,
            "TEXCOORD_2" : 6,
            "TEXCOORD_3" : 7
          },
          "indices" : 0,
          "material" : 0
        }
      ],
      "name" : "S_Envi_FZFBase_Roof_02a"
    }
  ],
  "buffers" : [
    {
      "uri" : "S_Envi_FZFBase_Roof_02a.bin",
      "byteLength" : 107480
    }
  ],
  "bufferViews" : [
    {
      "buffer" : 0,
      "byteOffset" : 0,
      "byteLength" : 6248
    },
    {
      "buffer" : 0,
      "byteOffset" : 6248,
      "byteLength" : 16872
    },
    {
      "buffer" : 0,
      "byteOffset" : 23120,
      "byteLength" : 16872
    },
    {
      "buffer" : 0,
      "byteOffset" : 39992,
      "byteLength" : 22496
    },
    {
      "buffer" : 0,
      "byteOffset" : 62488,
      "byteLength" : 11248
    },
    {
      "buffer" : 0,
      "byteOffset" : 73736,
      "byteLength" : 11248
    },
    {
      "buffer" : 0,
      "byteOffset" : 84984,
      "byteLength" : 11248
    },
    {
      "buffer" : 0,
      "byteOffset" : 96232,
      "byteLength" : 11248
    }
  ],
  "accessors" : [
    {
      "bufferView" : 0,
      "componentType" : 5123,
      "count" : 3123,
      "type" : "SCALAR"
    },
    {
      "bufferView" : 1,
      "min" : [ -16.6028, 8.61149, -50.5196 ],
      "max" : [ -7.8391, 8.89905, -25.608 ],
      "componentType" : 5126,
      "count" : 1406,
      "type" : "VEC3"
    },
    {
      "bufferView" : 2,
      "componentType" : 5126,
      "count" : 1406,
      "type" : "VEC3"
    },
    {
      "bufferView" : 3,
      "componentType" : 5126,
      "count" : 1406,
      "type" : "VEC4"
    },
    {
      "bufferView" : 4,
      "componentType" : 5126,
      "count" : 1406,
      "type" : "VEC2"
    },
    {
      "bufferView" : 5,
      "componentType" : 5126,
      "count" : 1406,
      "type" : "VEC2"
    },
    {
      "bufferView" : 6,
      "componentType" : 5126,
      "count" : 1406,
      "type" : "VEC2"
    },
    {
      "bufferView" : 7,
      "componentType" : 5126,
      "count" : 1406,
      "type" : "VEC2"
    }
  ]
}
