{
  "asset" : {
    "generator" : "UE Viewer (umodel) build 1579 based",
    "version" : "2.0"
  },
  "scene" : 0,
  "scenes" : [
    {
      "nodes" : [ 0 ]
    }
  ],
  "nodes" : [
    {
      "name" : "S_Envi_FZFBase_MetalBox_01d",
      "mesh" : 0
    }
  ],
  "materials" : [
    {
      "name" : "MI_Envi_FZFBase_MetalBox_01d",
      "pbrMetallicRoughness" : {
        "baseColorFactor" : [ 0.3, 0.3, 0.3, 1.0 ],
        "metallicFactor" : 0.1,
        "roughnessFactor" : 0.5
      }
    },
    {
      "name" : "MI_Envi_FZFBase_MetalBox_01e",
      "pbrMetallicRoughness" : {
        "baseColorFactor" : [ 0.9, 0.3, 0.3, 1.0 ],
        "metallicFactor" : 0.1,
        "roughnessFactor" : 0.5
      }
    },
    {
      "name" : "MI_PM_Glass_02n",
      "pbrMetallicRoughness" : {
        "baseColorFactor" : [ 0.3, 0.9, 0.3, 1.0 ],
        "metallicFactor" : 0.1,
        "roughnessFactor" : 0.5
      }
    }
  ],
  "meshes" : [
    {
      "primitives" : [
        {
          "attributes" : {
            "POSITION" : 1,
            "NORMAL" : 2,
            "TANGENT" : 3,
            "TEXCOORD_0" : 4,
            "TEXCOORD_1" : 5,
            "TEXCOORD_2" : 6,
            "TEXCOORD_3" : 7
          },
          "indices" : 0,
          "material" : 0
        },
        {
          "attributes" : {
            "POSITION" : 9,
            "NORMAL" : 10,
            "TANGENT" : 11,
            "TEXCOORD_0" : 12,
            "TEXCOORD_1" : 13,
            "TEXCOORD_2" : 14,
            "TEXCOORD_3" : 15
          },
          "indices" : 8,
          "material" : 1
        },
        {
          "attributes" : {
            "POSITION" : 17,
            "NORMAL" : 18,
            "TANGENT" : 19,
            "TEXCOORD_0" : 20,
            "TEXCOORD_1" : 21,
            "TEXCOORD_2" : 22,
            "TEXCOORD_3" : 23
          },
          "indices" : 16,
          "material" : 2
        }
      ],
      "name" : "S_Envi_FZFBase_MetalBox_01d"
    }
  ],
  "buffers" : [
    {
      "uri" : "S_Envi_FZFBase_MetalBox_01d.bin",
      "byteLength" : 323376
    }
  ],
  "bufferViews" : [
    {
      "buffer" : 0,
      "byteOffset" : 0,
      "byteLength" : 13572
    },
    {
      "buffer" : 0,
      "byteOffset" : 13572,
      "byteLength" : 47616
    },
    {
      "buffer" : 0,
      "byteOffset" : 61188,
      "byteLength" : 47616
    },
    {
      "buffer" : 0,
      "byteOffset" : 108804,
      "byteLength" : 63488
    },
    {
      "buffer" : 0,
      "byteOffset" : 172292,
      "byteLength" : 31744
    },
    {
      "buffer" : 0,
      "byteOffset" : 204036,
      "byteLength" : 31744
    },
    {
      "buffer" : 0,
      "byteOffset" : 235780,
      "byteLength" : 31744
    },
    {
      "buffer" : 0,
      "byteOffset" : 267524,
      "byteLength" : 31744
    },
    {
      "buffer" : 0,
      "byteOffset" : 299268,
      "byteLength" : 888
    },
    {
      "buffer" : 0,
      "byteOffset" : 300156,
      "byteLength" : 2904
    },
    {
      "buffer" : 0,
      "byteOffset" : 303060,
      "byteLength" : 2904
    },
    {
      "buffer" : 0,
      "byteOffset" : 305964,
      "byteLength" : 3872
    },
    {
      "buffer" : 0,
      "byteOffset" : 309836,
      "byteLength" : 1936
    },
    {
      "buffer" : 0,
      "byteOffset" : 311772,
      "byteLength" : 1936
    },
    {
      "buffer" : 0,
      "byteOffset" : 313708,
      "byteLength" : 1936
    },
    {
      "buffer" : 0,
      "byteOffset" : 315644,
      "byteLength" : 1936
    },
    {
      "buffer" : 0,
      "byteOffset" : 317580,
      "byteLength" : 324
    },
    {
      "buffer" : 0,
      "byteOffset" : 317904,
      "byteLength" : 912
    },
    {
      "buffer" : 0,
      "byteOffset" : 318816,
      "byteLength" : 912
    },
    {
      "buffer" : 0,
      "byteOffset" : 319728,
      "byteLength" : 1216
    },
    {
      "buffer" : 0,
      "byteOffset" : 320944,
      "byteLength" : 608
    },
    {
      "buffer" : 0,
      "byteOffset" : 321552,
      "byteLength" : 608
    },
    {
      "buffer" : 0,
      "byteOffset" : 322160,
      "byteLength" : 608
    },
    {
      "buffer" : 0,
      "byteOffset" : 322768,
      "byteLength" : 608
    }
  ],
  "accessors" : [
    {
      "bufferView" : 0,
      "componentType" : 5123,
      "count" : 6786,
      "type" : "SCALAR"
    },
    {
      "bufferView" : 1,
      "min" : [ -3.66211e-06, -9.15527e-07, -9.15527e-07 ],
      "max" : [ 11.5478, 4.78886, 5.05051 ],
      "componentType" : 5126,
      "count" : 3968,
      "type" : "VEC3"
    },
    {
      "bufferView" : 2,
      "componentType" : 5126,
      "count" : 3968,
      "type" : "VEC3"
    },
    {
      "bufferView" : 3,
      "componentType" : 5126,
      "count" : 3968,
      "type" : "VEC4"
    },
    {
      "bufferView" : 4,
      "componentType" : 5126,
      "count" : 3968,
      "type" : "VEC2"
    },
    {
      "bufferView" : 5,
      "componentType" : 5126,
      "count" : 3968,
      "type" : "VEC2"
    },
    {
      "bufferView" : 6,
      "componentType" : 5126,
      "count" : 3968,
      "type" : "VEC2"
    },
    {
      "bufferView" : 7,
      "componentType" : 5126,
      "count" : 3968,
      "type" : "VEC2"
    },
    {
      "bufferView" : 8,
      "componentType" : 5123,
      "count" : 444,
      "type" : "SCALAR"
    },
    {
      "bufferView" : 9,
      "min" : [ 0.0559045, 9.15527e-07, 0.0868628 ],
      "max" : [ 11.4919, 4.62101, 4.96365 ],
      "componentType" : 5126,
      "count" : 242,
      "type" : "VEC3"
    },
    {
      "bufferView" : 10,
      "componentType" : 5126,
      "count" : 242,
      "type" : "VEC3"
    },
    {
      "bufferView" : 11,
      "componentType" : 5126,
      "count" : 242,
      "type" : "VEC4"
    },
    {
      "bufferView" : 12,
      "componentType" : 5126,
      "count" : 242,
      "type" : "VEC2"
    },
    {
      "bufferView" : 13,
      "componentType" : 5126,
      "count" : 242,
      "type" : "VEC2"
    },
    {
      "bufferView" : 14,
      "componentType" : 5126,
      "count" : 242,
      "type" : "VEC2"
    },
    {
      "bufferView" : 15,
      "componentType" : 5126,
      "count" : 242,
      "type" : "VEC2"
    },
    {
      "bufferView" : 16,
      "componentType" : 5123,
      "count" : 162,
      "type" : "SCALAR"
    },
    {
      "bufferView" : 17,
      "min" : [ 0.368036, 2.99647, 0.120744 ],
      "max" : [ 11.1276, 4.67712, 4.92921 ],
      "componentType" : 5126,
      "count" : 76,
      "type" : "VEC3"
    },
    {
      "bufferView" : 18,
      "componentType" : 5126,
      "count" : 76,
      "type" : "VEC3"
    },
    {
      "bufferView" : 19,
      "componentType" : 5126,
      "count" : 76,
      "type" : "VEC4"
    },
    {
      "bufferView" : 20,
      "componentType" : 5126,
      "count" : 76,
      "type" : "VEC2"
    },
    {
      "bufferView" : 21,
      "componentType" : 5126,
      "count" : 76,
      "type" : "VEC2"
    },
    {
      "bufferView" : 22,
      "componentType" : 5126,
      "count" : 76,
      "type" : "VEC2"
    },
    {
      "bufferView" : 23,
      "componentType" : 5126,
      "count" : 76,
      "type" : "VEC2"
    }
  ]
}
