{
  "asset" : {
    "generator" : "UE Viewer (umodel) build 1579 based",
    "version" : "2.0"
  },
  "scene" : 0,
  "scenes" : [
    {
      "nodes" : [ 0 ]
    }
  ],
  "nodes" : [
    {
      "name" : "S_Envi_FZFBase_Screen_01d",
      "mesh" : 0
    }
  ],
  "materials" : [
    {
      "name" : "MI_Envi_FZFbase_Roof_01i_2",
      "pbrMetallicRoughness" : {
        "baseColorFactor" : [ 0.3, 0.3, 0.3, 1.0 ],
        "metallicFactor" : 0.1,
        "roughnessFactor" : 0.5
      }
    },
    {
      "name" : "MI_Envi_FZFBase_Screen_01b",
      "pbrMetallicRoughness" : {
        "baseColorFactor" : [ 0.9, 0.3, 0.3, 1.0 ],
        "metallicFactor" : 0.1,
        "roughnessFactor" : 0.5
      }
    }
  ],
  "meshes" : [
    {
      "primitives" : [
        {
          "attributes" : {
            "POSITION" : 1,
            "NORMAL" : 2,
            "TANGENT" : 3,
            "TEXCOORD_0" : 4,
            "TEXCOORD_1" : 5
          },
          "indices" : 0,
          "material" : 0
        },
        {
          "attributes" : {
            "POSITION" : 7,
            "NORMAL" : 8,
            "TANGENT" : 9,
            "TEXCOORD_0" : 10,
            "TEXCOORD_1" : 11
          },
          "indices" : 6,
          "material" : 1
        }
      ],
      "name" : "S_Envi_FZFBase_Screen_01d"
    }
  ],
  "buffers" : [
    {
      "uri" : "S_Envi_FZFBase_Screen_01d.bin",
      "byteLength" : 16200
    }
  ],
  "bufferViews" : [
    {
      "buffer" : 0,
      "byteOffset" : 0,
      "byteLength" : 1068
    },
    {
      "buffer" : 0,
      "byteOffset" : 1068,
      "byteLength" : 3192
    },
    {
      "buffer" : 0,
      "byteOffset" : 4260,
      "byteLength" : 3192
    },
    {
      "buffer" : 0,
      "byteOffset" : 7452,
      "byteLength" : 4256
    },
    {
      "buffer" : 0,
      "byteOffset" : 11708,
      "byteLength" : 2128
    },
    {
      "buffer" : 0,
      "byteOffset" : 13836,
      "byteLength" : 2128
    },
    {
      "buffer" : 0,
      "byteOffset" : 15964,
      "byteLength" : 12
    },
    {
      "buffer" : 0,
      "byteOffset" : 15976,
      "byteLength" : 48
    },
    {
      "buffer" : 0,
      "byteOffset" : 16024,
      "byteLength" : 48
    },
    {
      "buffer" : 0,
      "byteOffset" : 16072,
      "byteLength" : 64
    },
    {
      "buffer" : 0,
      "byteOffset" : 16136,
      "byteLength" : 32
    },
    {
      "buffer" : 0,
      "byteOffset" : 16168,
      "byteLength" : 32
    }
  ],
  "accessors" : [
    {
      "bufferView" : 0,
      "componentType" : 5123,
      "count" : 534,
      "type" : "SCALAR"
    },
    {
      "bufferView" : 1,
      "min" : [ -9.02321e-08, -1.0167, -1.19209e-09 ],
      "max" : [ 5.4599, 1.33593, 0.912612 ],
      "componentType" : 5126,
      "count" : 266,
      "type" : "VEC3"
    },
    {
      "bufferView" : 2,
      "componentType" : 5126,
      "count" : 266,
      "type" : "VEC3"
    },
    {
      "bufferView" : 3,
      "componentType" : 5126,
      "count" : 266,
      "type" : "VEC4"
    },
    {
      "bufferView" : 4,
      "componentType" : 5126,
      "count" : 266,
      "type" : "VEC2"
    },
    {
      "bufferView" : 5,
      "componentType" : 5126,
      "count" : 266,
      "type" : "VEC2"
    },
    {
      "bufferView" : 6,
      "componentType" : 5123,
      "count" : 6,
      "type" : "SCALAR"
    },
    {
      "bufferView" : 7,
      "min" : [ 0.253783, -0.874778, 0.297451 ],
      "max" : [ 5.20613, 1.17873, 0.847687 ],
      "componentType" : 5126,
      "count" : 4,
      "type" : "VEC3"
    },
    {
      "bufferView" : 8,
      "componentType" : 5126,
      "count" : 4,
      "type" : "VEC3"
    },
    {
      "bufferView" : 9,
      "componentType" : 5126,
      "count" : 4,
      "type" : "VEC4"
    },
    {
      "bufferView" : 10,
      "componentType" : 5126,
      "count" : 4,
      "type" : "VEC2"
    },
    {
      "bufferView" : 11,
      "componentType" : 5126,
      "count" : 4,
      "type" : "VEC2"
    }
  ]
}
