{
  "asset" : {
    "generator" : "UE Viewer (umodel) build 1579 based",
    "version" : "2.0"
  },
  "scene" : 0,
  "scenes" : [
    {
      "nodes" : [ 0 ]
    }
  ],
  "nodes" : [
    {
      "name" : "S_Envi_FZFBase_Server_01k",
      "mesh" : 0
    }
  ],
  "materials" : [
    {
      "name" : "MI_Envi_FZFBase_Server_01b_2",
      "pbrMetallicRoughness" : {
        "baseColorFactor" : [ 0.3, 0.3, 0.3, 1.0 ],
        "metallicFactor" : 0.1,
        "roughnessFactor" : 0.5
      }
    },
    {
      "name" : "MI_Envi_FZFBase_Server_01c",
      "pbrMetallicRoughness" : {
        "baseColorFactor" : [ 0.9, 0.3, 0.3, 1.0 ],
        "metallicFactor" : 0.1,
        "roughnessFactor" : 0.5
      }
    }
  ],
  "meshes" : [
    {
      "primitives" : [
        {
          "attributes" : {
            "POSITION" : 1,
            "NORMAL" : 2,
            "TANGENT" : 3,
            "TEXCOORD_0" : 4,
            "TEXCOORD_1" : 5
          },
          "indices" : 0,
          "material" : 0
        },
        {
          "attributes" : {
            "POSITION" : 7,
            "NORMAL" : 8,
            "TANGENT" : 9,
            "TEXCOORD_0" : 10,
            "TEXCOORD_1" : 11
          },
          "indices" : 6,
          "material" : 1
        }
      ],
      "name" : "S_Envi_FZFBase_Server_01k"
    }
  ],
  "buffers" : [
    {
      "uri" : "S_Envi_FZFBase_Server_01k.bin",
      "byteLength" : 78008
    }
  ],
  "bufferViews" : [
    {
      "buffer" : 0,
      "byteOffset" : 0,
      "byteLength" : 2568
    },
    {
      "buffer" : 0,
      "byteOffset" : 2568,
      "byteLength" : 6600
    },
    {
      "buffer" : 0,
      "byteOffset" : 9168,
      "byteLength" : 6600
    },
    {
      "buffer" : 0,
      "byteOffset" : 15768,
      "byteLength" : 8800
    },
    {
      "buffer" : 0,
      "byteOffset" : 24568,
      "byteLength" : 4400
    },
    {
      "buffer" : 0,
      "byteOffset" : 28968,
      "byteLength" : 4400
    },
    {
      "buffer" : 0,
      "byteOffset" : 33368,
      "byteLength" : 2640
    },
    {
      "buffer" : 0,
      "byteOffset" : 36008,
      "byteLength" : 9000
    },
    {
      "buffer" : 0,
      "byteOffset" : 45008,
      "byteLength" : 9000
    },
    {
      "buffer" : 0,
      "byteOffset" : 54008,
      "byteLength" : 12000
    },
    {
      "buffer" : 0,
      "byteOffset" : 66008,
      "byteLength" : 6000
    },
    {
      "buffer" : 0,
      "byteOffset" : 72008,
      "byteLength" : 6000
    }
  ],
  "accessors" : [
    {
      "bufferView" : 0,
      "componentType" : 5123,
      "count" : 1284,
      "type" : "SCALAR"
    },
    {
      "bufferView" : 1,
      "min" : [ -0.0402429, 3.33786e-08, -0.740853 ],
      "max" : [ 6.23343, 2.67586, 0.159266 ],
      "componentType" : 5126,
      "count" : 550,
      "type" : "VEC3"
    },
    {
      "bufferView" : 2,
      "componentType" : 5126,
      "count" : 550,
      "type" : "VEC3"
    },
    {
      "bufferView" : 3,
      "componentType" : 5126,
      "count" : 550,
      "type" : "VEC4"
    },
    {
      "bufferView" : 4,
      "componentType" : 5126,
      "count" : 550,
      "type" : "VEC2"
    },
    {
      "bufferView" : 5,
      "componentType" : 5126,
      "count" : 550,
      "type" : "VEC2"
    },
    {
      "bufferView" : 6,
      "componentType" : 5123,
      "count" : 1320,
      "type" : "SCALAR"
    },
    {
      "bufferView" : 7,
      "min" : [ 0.452297, 0.830169, -0.155784 ],
      "max" : [ 5.73147, 2.21616, -0.00293919 ],
      "componentType" : 5126,
      "count" : 750,
      "type" : "VEC3"
    },
    {
      "bufferView" : 8,
      "componentType" : 5126,
      "count" : 750,
      "type" : "VEC3"
    },
    {
      "bufferView" : 9,
      "componentType" : 5126,
      "count" : 750,
      "type" : "VEC4"
    },
    {
      "bufferView" : 10,
      "componentType" : 5126,
      "count" : 750,
      "type" : "VEC2"
    },
    {
      "bufferView" : 11,
      "componentType" : 5126,
      "count" : 750,
      "type" : "VEC2"
    }
  ]
}
