{
  "asset" : {
    "generator" : "UE Viewer (umodel) build 1579 based",
    "version" : "2.0"
  },
  "scene" : 0,
  "scenes" : [
    {
      "nodes" : [ 0 ]
    }
  ],
  "nodes" : [
    {
      "name" : "S_Envi_FZFBase_Roof_02e",
      "mesh" : 0
    }
  ],
  "materials" : [
    {
      "name" : "MI_Envi_FZFBase_Roof_01b",
      "pbrMetallicRoughness" : {
        "baseColorFactor" : [ 0.3, 0.3, 0.3, 1.0 ],
        "metallicFactor" : 0.1,
        "roughnessFactor" : 0.5
      }
    },
    {
      "name" : "MI_Envi_FZFBase_Lace_01a",
      "pbrMetallicRoughness" : {
        "baseColorFactor" : [ 0.9, 0.3, 0.3, 1.0 ],
        "metallicFactor" : 0.1,
        "roughnessFactor" : 0.5
      }
    },
    {
      "name" : "MI_Envi_FZFBase_Building_1e3",
      "pbrMetallicRoughness" : {
        "baseColorFactor" : [ 0.3, 0.9, 0.3, 1.0 ],
        "metallicFactor" : 0.1,
        "roughnessFactor" : 0.5
      }
    }
  ],
  "meshes" : [
    {
      "primitives" : [
        {
          "attributes" : {
            "POSITION" : 1,
            "NORMAL" : 2,
            "TANGENT" : 3,
            "TEXCOORD_0" : 4,
            "TEXCOORD_1" : 5
          },
          "indices" : 0,
          "material" : 0
        },
        {
          "attributes" : {
            "POSITION" : 7,
            "NORMAL" : 8,
            "TANGENT" : 9,
            "TEXCOORD_0" : 10,
            "TEXCOORD_1" : 11
          },
          "indices" : 6,
          "material" : 1
        },
        {
          "attributes" : {
            "POSITION" : 13,
            "NORMAL" : 14,
            "TANGENT" : 15,
            "TEXCOORD_0" : 16,
            "TEXCOORD_1" : 17
          },
          "indices" : 12,
          "material" : 2
        }
      ],
      "name" : "S_Envi_FZFBase_Roof_02e"
    }
  ],
  "buffers" : [
    {
      "uri" : "S_Envi_FZFBase_Roof_02e.bin",
      "byteLength" : 110520
    }
  ],
  "bufferViews" : [
    {
      "buffer" : 0,
      "byteOffset" : 0,
      "byteLength" : 8184
    },
    {
      "buffer" : 0,
      "byteOffset" : 8184,
      "byteLength" : 16956
    },
    {
      "buffer" : 0,
      "byteOffset" : 25140,
      "byteLength" : 16956
    },
    {
      "buffer" : 0,
      "byteOffset" : 42096,
      "byteLength" : 22608
    },
    {
      "buffer" : 0,
      "byteOffset" : 64704,
      "byteLength" : 11304
    },
    {
      "buffer" : 0,
      "byteOffset" : 76008,
      "byteLength" : 11304
    },
    {
      "buffer" : 0,
      "byteOffset" : 87312,
      "byteLength" : 1008
    },
    {
      "buffer" : 0,
      "byteOffset" : 88320,
      "byteLength" : 2784
    },
    {
      "buffer" : 0,
      "byteOffset" : 91104,
      "byteLength" : 2784
    },
    {
      "buffer" : 0,
      "byteOffset" : 93888,
      "byteLength" : 3712
    },
    {
      "buffer" : 0,
      "byteOffset" : 97600,
      "byteLength" : 1856
    },
    {
      "buffer" : 0,
      "byteOffset" : 99456,
      "byteLength" : 1856
    },
    {
      "buffer" : 0,
      "byteOffset" : 101312,
      "byteLength" : 696
    },
    {
      "buffer" : 0,
      "byteOffset" : 102008,
      "byteLength" : 1824
    },
    {
      "buffer" : 0,
      "byteOffset" : 103832,
      "byteLength" : 1824
    },
    {
      "buffer" : 0,
      "byteOffset" : 105656,
      "byteLength" : 2432
    },
    {
      "buffer" : 0,
      "byteOffset" : 108088,
      "byteLength" : 1216
    },
    {
      "buffer" : 0,
      "byteOffset" : 109304,
      "byteLength" : 1216
    }
  ],
  "accessors" : [
    {
      "bufferView" : 0,
      "componentType" : 5123,
      "count" : 4092,
      "type" : "SCALAR"
    },
    {
      "bufferView" : 1,
      "min" : [ -5.67789, -0.27259, -5.97778 ],
      "max" : [ 4.22372, 0.101612, 6.01611 ],
      "componentType" : 5126,
      "count" : 1413,
      "type" : "VEC3"
    },
    {
      "bufferView" : 2,
      "componentType" : 5126,
      "count" : 1413,
      "type" : "VEC3"
    },
    {
      "bufferView" : 3,
      "componentType" : 5126,
      "count" : 1413,
      "type" : "VEC4"
    },
    {
      "bufferView" : 4,
      "componentType" : 5126,
      "count" : 1413,
      "type" : "VEC2"
    },
    {
      "bufferView" : 5,
      "componentType" : 5126,
      "count" : 1413,
      "type" : "VEC2"
    },
    {
      "bufferView" : 6,
      "componentType" : 5123,
      "count" : 504,
      "type" : "SCALAR"
    },
    {
      "bufferView" : 7,
      "min" : [ -5.67789, -0.432805, -5.97778 ],
      "max" : [ 4.22372, 0.101612, 6.01611 ],
      "componentType" : 5126,
      "count" : 232,
      "type" : "VEC3"
    },
    {
      "bufferView" : 8,
      "componentType" : 5126,
      "count" : 232,
      "type" : "VEC3"
    },
    {
      "bufferView" : 9,
      "componentType" : 5126,
      "count" : 232,
      "type" : "VEC4"
    },
    {
      "bufferView" : 10,
      "componentType" : 5126,
      "count" : 232,
      "type" : "VEC2"
    },
    {
      "bufferView" : 11,
      "componentType" : 5126,
      "count" : 232,
      "type" : "VEC2"
    },
    {
      "bufferView" : 12,
      "componentType" : 5123,
      "count" : 348,
      "type" : "SCALAR"
    },
    {
      "bufferView" : 13,
      "min" : [ -5.02312, -0.230525, -5.31326 ],
      "max" : [ 3.54949, -0.229872, 5.33687 ],
      "componentType" : 5126,
      "count" : 152,
      "type" : "VEC3"
    },
    {
      "bufferView" : 14,
      "componentType" : 5126,
      "count" : 152,
      "type" : "VEC3"
    },
    {
      "bufferView" : 15,
      "componentType" : 5126,
      "count" : 152,
      "type" : "VEC4"
    },
    {
      "bufferView" : 16,
      "componentType" : 5126,
      "count" : 152,
      "type" : "VEC2"
    },
    {
      "bufferView" : 17,
      "componentType" : 5126,
      "count" : 152,
      "type" : "VEC2"
    }
  ]
}
