{
  "asset" : {
    "generator" : "UE Viewer (umodel) build 1579 based",
    "version" : "2.0"
  },
  "scene" : 0,
  "scenes" : [
    {
      "nodes" : [ 0 ]
    }
  ],
  "nodes" : [
    {
      "name" : "S_Envi_FZFBase_Cloth_01a",
      "mesh" : 0
    }
  ],
  "materials" : [
    {
      "name" : "MI_Envi_FZFBase_Cloth_01a",
      "pbrMetallicRoughness" : {
        "baseColorFactor" : [ 0.3, 0.3, 0.3, 1.0 ],
        "metallicFactor" : 0.1,
        "roughnessFactor" : 0.5
      }
    }
  ],
  "meshes" : [
    {
      "primitives" : [
        {
          "attributes" : {
            "POSITION" : 1,
            "NORMAL" : 2,
            "TANGENT" : 3,
            "TEXCOORD_0" : 4,
            "TEXCOORD_1" : 5
          },
          "indices" : 0,
          "material" : 0
        }
      ],
      "name" : "S_Envi_FZFBase_Cloth_01a"
    }
  ],
  "buffers" : [
    {
      "uri" : "S_Envi_FZFBase_Cloth_01a.bin",
      "byteLength" : 24724
    }
  ],
  "bufferViews" : [
    {
      "buffer" : 0,
      "byteOffset" : 0,
      "byteLength" : 4004
    },
    {
      "buffer" : 0,
      "byteOffset" : 4004,
      "byteLength" : 4440
    },
    {
      "buffer" : 0,
      "byteOffset" : 8444,
      "byteLength" : 4440
    },
    {
      "buffer" : 0,
      "byteOffset" : 12884,
      "byteLength" : 5920
    },
    {
      "buffer" : 0,
      "byteOffset" : 18804,
      "byteLength" : 2960
    },
    {
      "buffer" : 0,
      "byteOffset" : 21764,
      "byteLength" : 2960
    }
  ],
  "accessors" : [
    {
      "bufferView" : 0,
      "componentType" : 5123,
      "count" : 2001,
      "type" : "SCALAR"
    },
    {
      "bufferView" : 1,
      "min" : [ -5.83217, -4.03396, -4.037 ],
      "max" : [ 0, 0, 1.56624e-17 ],
      "componentType" : 5126,
      "count" : 370,
      "type" : "VEC3"
    },
    {
      "bufferView" : 2,
      "componentType" : 5126,
      "count" : 370,
      "type" : "VEC3"
    },
    {
      "bufferView" : 3,
      "componentType" : 5126,
      "count" : 370,
      "type" : "VEC4"
    },
    {
      "bufferView" : 4,
      "componentType" : 5126,
      "count" : 370,
      "type" : "VEC2"
    },
    {
      "bufferView" : 5,
      "componentType" : 5126,
      "count" : 370,
      "type" : "VEC2"
    }
  ]
}
