{
  "asset" : {
    "generator" : "UE Viewer (umodel) build 1579 based",
    "version" : "2.0"
  },
  "scene" : 0,
  "scenes" : [
    {
      "nodes" : [ 0 ]
    }
  ],
  "nodes" : [
    {
      "name" : "S_Envi_FZFBase_Handrail_01a",
      "mesh" : 0
    }
  ],
  "materials" : [
    {
      "name" : "MI_Envi_FZFBase_Handrail_01a",
      "pbrMetallicRoughness" : {
        "baseColorFactor" : [ 0.3, 0.3, 0.3, 1.0 ],
        "metallicFactor" : 0.1,
        "roughnessFactor" : 0.5
      }
    }
  ],
  "meshes" : [
    {
      "primitives" : [
        {
          "attributes" : {
            "POSITION" : 1,
            "NORMAL" : 2,
            "TANGENT" : 3,
            "TEXCOORD_0" : 4,
            "TEXCOORD_1" : 5,
            "TEXCOORD_2" : 6,
            "TEXCOORD_3" : 7
          },
          "indices" : 0,
          "material" : 0
        }
      ],
      "name" : "S_Envi_FZFBase_Handrail_01a"
    }
  ],
  "buffers" : [
    {
      "uri" : "S_Envi_FZFBase_Handrail_01a.bin",
      "byteLength" : 34368
    }
  ],
  "bufferViews" : [
    {
      "buffer" : 0,
      "byteOffset" : 0,
      "byteLength" : 1680
    },
    {
      "buffer" : 0,
      "byteOffset" : 1680,
      "byteLength" : 5448
    },
    {
      "buffer" : 0,
      "byteOffset" : 7128,
      "byteLength" : 5448
    },
    {
      "buffer" : 0,
      "byteOffset" : 12576,
      "byteLength" : 7264
    },
    {
      "buffer" : 0,
      "byteOffset" : 19840,
      "byteLength" : 3632
    },
    {
      "buffer" : 0,
      "byteOffset" : 23472,
      "byteLength" : 3632
    },
    {
      "buffer" : 0,
      "byteOffset" : 27104,
      "byteLength" : 3632
    },
    {
      "buffer" : 0,
      "byteOffset" : 30736,
      "byteLength" : 3632
    }
  ],
  "accessors" : [
    {
      "bufferView" : 0,
      "componentType" : 5123,
      "count" : 840,
      "type" : "SCALAR"
    },
    {
      "bufferView" : 1,
      "min" : [ -8.13514, 4.58002e-06, -0.379657 ],
      "max" : [ 0, 2.48001, 6.75201e-06 ],
      "componentType" : 5126,
      "count" : 454,
      "type" : "VEC3"
    },
    {
      "bufferView" : 2,
      "componentType" : 5126,
      "count" : 454,
      "type" : "VEC3"
    },
    {
      "bufferView" : 3,
      "componentType" : 5126,
      "count" : 454,
      "type" : "VEC4"
    },
    {
      "bufferView" : 4,
      "componentType" : 5126,
      "count" : 454,
      "type" : "VEC2"
    },
    {
      "bufferView" : 5,
      "componentType" : 5126,
      "count" : 454,
      "type" : "VEC2"
    },
    {
      "bufferView" : 6,
      "componentType" : 5126,
      "count" : 454,
      "type" : "VEC2"
    },
    {
      "bufferView" : 7,
      "componentType" : 5126,
      "count" : 454,
      "type" : "VEC2"
    }
  ]
}
