{
  "asset" : {
    "generator" : "UE Viewer (umodel) build 1579 based",
    "version" : "2.0"
  },
  "scene" : 0,
  "scenes" : [
    {
      "nodes" : [ 0 ]
    }
  ],
  "nodes" : [
    {
      "name" : "S_Envi_FZFBase_Wall_01z",
      "mesh" : 0
    }
  ],
  "materials" : [
    {
      "name" : "MI_Envi_FZFBase_Roof_01b",
      "pbrMetallicRoughness" : {
        "baseColorFactor" : [ 0.3, 0.3, 0.3, 1.0 ],
        "metallicFactor" : 0.1,
        "roughnessFactor" : 0.5
      }
    },
    {
      "name" : "MI_Envi_FZFBase_OuterDoor_01b",
      "pbrMetallicRoughness" : {
        "baseColorFactor" : [ 0.9, 0.3, 0.3, 1.0 ],
        "metallicFactor" : 0.1,
        "roughnessFactor" : 0.5
      }
    },
    {
      "name" : "MI_Envi_FZFBase_Lace_01a",
      "pbrMetallicRoughness" : {
        "baseColorFactor" : [ 0.3, 0.9, 0.3, 1.0 ],
        "metallicFactor" : 0.1,
        "roughnessFactor" : 0.5
      }
    }
  ],
  "meshes" : [
    {
      "primitives" : [
        {
          "attributes" : {
            "POSITION" : 1,
            "NORMAL" : 2,
            "TANGENT" : 3,
            "TEXCOORD_0" : 4,
            "TEXCOORD_1" : 5,
            "TEXCOORD_2" : 6,
            "TEXCOORD_3" : 7
          },
          "indices" : 0,
          "material" : 0
        },
        {
          "attributes" : {
            "POSITION" : 9,
            "NORMAL" : 10,
            "TANGENT" : 11,
            "TEXCOORD_0" : 12,
            "TEXCOORD_1" : 13,
            "TEXCOORD_2" : 14,
            "TEXCOORD_3" : 15
          },
          "indices" : 8,
          "material" : 1
        },
        {
          "attributes" : {
            "POSITION" : 17,
            "NORMAL" : 18,
            "TANGENT" : 19,
            "TEXCOORD_0" : 20,
            "TEXCOORD_1" : 21,
            "TEXCOORD_2" : 22,
            "TEXCOORD_3" : 23
          },
          "indices" : 16,
          "material" : 2
        }
      ],
      "name" : "S_Envi_FZFBase_Wall_01z"
    }
  ],
  "buffers" : [
    {
      "uri" : "S_Envi_FZFBase_Wall_01z.bin",
      "byteLength" : 598000
    }
  ],
  "bufferViews" : [
    {
      "buffer" : 0,
      "byteOffset" : 0,
      "byteLength" : 18864
    },
    {
      "buffer" : 0,
      "byteOffset" : 18864,
      "byteLength" : 51924
    },
    {
      "buffer" : 0,
      "byteOffset" : 70788,
      "byteLength" : 51924
    },
    {
      "buffer" : 0,
      "byteOffset" : 122712,
      "byteLength" : 69232
    },
    {
      "buffer" : 0,
      "byteOffset" : 191944,
      "byteLength" : 34616
    },
    {
      "buffer" : 0,
      "byteOffset" : 226560,
      "byteLength" : 34616
    },
    {
      "buffer" : 0,
      "byteOffset" : 261176,
      "byteLength" : 34616
    },
    {
      "buffer" : 0,
      "byteOffset" : 295792,
      "byteLength" : 34616
    },
    {
      "buffer" : 0,
      "byteOffset" : 330408,
      "byteLength" : 7028
    },
    {
      "buffer" : 0,
      "byteOffset" : 337436,
      "byteLength" : 13848
    },
    {
      "buffer" : 0,
      "byteOffset" : 351284,
      "byteLength" : 13848
    },
    {
      "buffer" : 0,
      "byteOffset" : 365132,
      "byteLength" : 18464
    },
    {
      "buffer" : 0,
      "byteOffset" : 383596,
      "byteLength" : 9232
    },
    {
      "buffer" : 0,
      "byteOffset" : 392828,
      "byteLength" : 9232
    },
    {
      "buffer" : 0,
      "byteOffset" : 402060,
      "byteLength" : 9232
    },
    {
      "buffer" : 0,
      "byteOffset" : 411292,
      "byteLength" : 9232
    },
    {
      "buffer" : 0,
      "byteOffset" : 420524,
      "byteLength" : 12020
    },
    {
      "buffer" : 0,
      "byteOffset" : 432544,
      "byteLength" : 27576
    },
    {
      "buffer" : 0,
      "byteOffset" : 460120,
      "byteLength" : 27576
    },
    {
      "buffer" : 0,
      "byteOffset" : 487696,
      "byteLength" : 36768
    },
    {
      "buffer" : 0,
      "byteOffset" : 524464,
      "byteLength" : 18384
    },
    {
      "buffer" : 0,
      "byteOffset" : 542848,
      "byteLength" : 18384
    },
    {
      "buffer" : 0,
      "byteOffset" : 561232,
      "byteLength" : 18384
    },
    {
      "buffer" : 0,
      "byteOffset" : 579616,
      "byteLength" : 18384
    }
  ],
  "accessors" : [
    {
      "bufferView" : 0,
      "componentType" : 5123,
      "count" : 9432,
      "type" : "SCALAR"
    },
    {
      "bufferView" : 1,
      "min" : [ 25.4013, 8.05972, -13.2443 ],
      "max" : [ 51.794, 8.93614, 15.378 ],
      "componentType" : 5126,
      "count" : 4327,
      "type" : "VEC3"
    },
    {
      "bufferView" : 2,
      "componentType" : 5126,
      "count" : 4327,
      "type" : "VEC3"
    },
    {
      "bufferView" : 3,
      "componentType" : 5126,
      "count" : 4327,
      "type" : "VEC4"
    },
    {
      "bufferView" : 4,
      "componentType" : 5126,
      "count" : 4327,
      "type" : "VEC2"
    },
    {
      "bufferView" : 5,
      "componentType" : 5126,
      "count" : 4327,
      "type" : "VEC2"
    },
    {
      "bufferView" : 6,
      "componentType" : 5126,
      "count" : 4327,
      "type" : "VEC2"
    },
    {
      "bufferView" : 7,
      "componentType" : 5126,
      "count" : 4327,
      "type" : "VEC2"
    },
    {
      "bufferView" : 8,
      "componentType" : 5123,
      "count" : 3513,
      "type" : "SCALAR"
    },
    {
      "bufferView" : 9,
      "min" : [ 35.3067, 8.01949, -12.8638 ],
      "max" : [ 51.4135, 8.45778, 15.1531 ],
      "componentType" : 5126,
      "count" : 1154,
      "type" : "VEC3"
    },
    {
      "bufferView" : 10,
      "componentType" : 5126,
      "count" : 1154,
      "type" : "VEC3"
    },
    {
      "bufferView" : 11,
      "componentType" : 5126,
      "count" : 1154,
      "type" : "VEC4"
    },
    {
      "bufferView" : 12,
      "componentType" : 5126,
      "count" : 1154,
      "type" : "VEC2"
    },
    {
      "bufferView" : 13,
      "componentType" : 5126,
      "count" : 1154,
      "type" : "VEC2"
    },
    {
      "bufferView" : 14,
      "componentType" : 5126,
      "count" : 1154,
      "type" : "VEC2"
    },
    {
      "bufferView" : 15,
      "componentType" : 5126,
      "count" : 1154,
      "type" : "VEC2"
    },
    {
      "bufferView" : 16,
      "componentType" : 5123,
      "count" : 6009,
      "type" : "SCALAR"
    },
    {
      "bufferView" : 17,
      "min" : [ 36.9503, 8.04427, -11.8367 ],
      "max" : [ 49.7791, 8.63552, 14.4539 ],
      "componentType" : 5126,
      "count" : 2298,
      "type" : "VEC3"
    },
    {
      "bufferView" : 18,
      "componentType" : 5126,
      "count" : 2298,
      "type" : "VEC3"
    },
    {
      "bufferView" : 19,
      "componentType" : 5126,
      "count" : 2298,
      "type" : "VEC4"
    },
    {
      "bufferView" : 20,
      "componentType" : 5126,
      "count" : 2298,
      "type" : "VEC2"
    },
    {
      "bufferView" : 21,
      "componentType" : 5126,
      "count" : 2298,
      "type" : "VEC2"
    },
    {
      "bufferView" : 22,
      "componentType" : 5126,
      "count" : 2298,
      "type" : "VEC2"
    },
    {
      "bufferView" : 23,
      "componentType" : 5126,
      "count" : 2298,
      "type" : "VEC2"
    }
  ]
}
