{
  "asset" : {
    "generator" : "UE Viewer (umodel) build 1579 based",
    "version" : "2.0"
  },
  "scene" : 0,
  "scenes" : [
    {
      "nodes" : [ 0 ]
    }
  ],
  "nodes" : [
    {
      "name" : "S_Envi_FZFBase_Building_02a",
      "mesh" : 0
    }
  ],
  "materials" : [
    {
      "name" : "MI_Envi_Fyz_Building_104m",
      "pbrMetallicRoughness" : {
        "baseColorFactor" : [ 0.3, 0.3, 0.3, 1.0 ],
        "metallicFactor" : 0.1,
        "roughnessFactor" : 0.5
      }
    }
  ],
  "meshes" : [
    {
      "primitives" : [
        {
          "attributes" : {
            "POSITION" : 1,
            "NORMAL" : 2,
            "TANGENT" : 3,
            "TEXCOORD_0" : 4,
            "TEXCOORD_1" : 5,
            "TEXCOORD_2" : 6,
            "TEXCOORD_3" : 7
          },
          "indices" : 0,
          "material" : 0
        }
      ],
      "name" : "S_Envi_FZFBase_Building_02a"
    }
  ],
  "buffers" : [
    {
      "uri" : "S_Envi_FZFBase_Building_02a.bin",
      "byteLength" : 88032
    }
  ],
  "bufferViews" : [
    {
      "buffer" : 0,
      "byteOffset" : 0,
      "byteLength" : 5952
    },
    {
      "buffer" : 0,
      "byteOffset" : 5952,
      "byteLength" : 13680
    },
    {
      "buffer" : 0,
      "byteOffset" : 19632,
      "byteLength" : 13680
    },
    {
      "buffer" : 0,
      "byteOffset" : 33312,
      "byteLength" : 18240
    },
    {
      "buffer" : 0,
      "byteOffset" : 51552,
      "byteLength" : 9120
    },
    {
      "buffer" : 0,
      "byteOffset" : 60672,
      "byteLength" : 9120
    },
    {
      "buffer" : 0,
      "byteOffset" : 69792,
      "byteLength" : 9120
    },
    {
      "buffer" : 0,
      "byteOffset" : 78912,
      "byteLength" : 9120
    }
  ],
  "accessors" : [
    {
      "bufferView" : 0,
      "componentType" : 5123,
      "count" : 2976,
      "type" : "SCALAR"
    },
    {
      "bufferView" : 1,
      "min" : [ -3.59523, -0.0176213, -3.58612 ],
      "max" : [ 3.59523, 0.0763734, 3.58612 ],
      "componentType" : 5126,
      "count" : 1140,
      "type" : "VEC3"
    },
    {
      "bufferView" : 2,
      "componentType" : 5126,
      "count" : 1140,
      "type" : "VEC3"
    },
    {
      "bufferView" : 3,
      "componentType" : 5126,
      "count" : 1140,
      "type" : "VEC4"
    },
    {
      "bufferView" : 4,
      "componentType" : 5126,
      "count" : 1140,
      "type" : "VEC2"
    },
    {
      "bufferView" : 5,
      "componentType" : 5126,
      "count" : 1140,
      "type" : "VEC2"
    },
    {
      "bufferView" : 6,
      "componentType" : 5126,
      "count" : 1140,
      "type" : "VEC2"
    },
    {
      "bufferView" : 7,
      "componentType" : 5126,
      "count" : 1140,
      "type" : "VEC2"
    }
  ]
}
