{
  "asset" : {
    "generator" : "UE Viewer (umodel) build 1579 based",
    "version" : "2.0"
  },
  "scene" : 0,
  "scenes" : [
    {
      "nodes" : [ 0 ]
    }
  ],
  "nodes" : [
    {
      "name" : "S_Envi_FZFBase_BlindBox_01a",
      "mesh" : 0
    }
  ],
  "materials" : [
    {
      "name" : "MI_Envi_FZFBase_BlindBox_01a",
      "pbrMetallicRoughness" : {
        "baseColorFactor" : [ 0.3, 0.3, 0.3, 1.0 ],
        "metallicFactor" : 0.1,
        "roughnessFactor" : 0.5
      }
    },
    {
      "name" : "MI_Envi_FZFBase_Artillery_01b",
      "pbrMetallicRoughness" : {
        "baseColorFactor" : [ 0.9, 0.3, 0.3, 1.0 ],
        "metallicFactor" : 0.1,
        "roughnessFactor" : 0.5
      }
    }
  ],
  "meshes" : [
    {
      "primitives" : [
        {
          "attributes" : {
            "POSITION" : 1,
            "NORMAL" : 2,
            "TANGENT" : 3,
            "TEXCOORD_0" : 4,
            "TEXCOORD_1" : 5,
            "TEXCOORD_2" : 6,
            "TEXCOORD_3" : 7
          },
          "indices" : 0,
          "material" : 0
        },
        {
          "attributes" : {
            "POSITION" : 9,
            "NORMAL" : 10,
            "TANGENT" : 11,
            "TEXCOORD_0" : 12,
            "TEXCOORD_1" : 13,
            "TEXCOORD_2" : 14,
            "TEXCOORD_3" : 15
          },
          "indices" : 8,
          "material" : 1
        }
      ],
      "name" : "S_Envi_FZFBase_BlindBox_01a"
    }
  ],
  "buffers" : [
    {
      "uri" : "S_Envi_FZFBase_BlindBox_01a.bin",
      "byteLength" : 85788
    }
  ],
  "bufferViews" : [
    {
      "buffer" : 0,
      "byteOffset" : 0,
      "byteLength" : 300
    },
    {
      "buffer" : 0,
      "byteOffset" : 300,
      "byteLength" : 1080
    },
    {
      "buffer" : 0,
      "byteOffset" : 1380,
      "byteLength" : 1080
    },
    {
      "buffer" : 0,
      "byteOffset" : 2460,
      "byteLength" : 1440
    },
    {
      "buffer" : 0,
      "byteOffset" : 3900,
      "byteLength" : 720
    },
    {
      "buffer" : 0,
      "byteOffset" : 4620,
      "byteLength" : 720
    },
    {
      "buffer" : 0,
      "byteOffset" : 5340,
      "byteLength" : 720
    },
    {
      "buffer" : 0,
      "byteOffset" : 6060,
      "byteLength" : 720
    },
    {
      "buffer" : 0,
      "byteOffset" : 6780,
      "byteLength" : 4128
    },
    {
      "buffer" : 0,
      "byteOffset" : 10908,
      "byteLength" : 12480
    },
    {
      "buffer" : 0,
      "byteOffset" : 23388,
      "byteLength" : 12480
    },
    {
      "buffer" : 0,
      "byteOffset" : 35868,
      "byteLength" : 16640
    },
    {
      "buffer" : 0,
      "byteOffset" : 52508,
      "byteLength" : 8320
    },
    {
      "buffer" : 0,
      "byteOffset" : 60828,
      "byteLength" : 8320
    },
    {
      "buffer" : 0,
      "byteOffset" : 69148,
      "byteLength" : 8320
    },
    {
      "buffer" : 0,
      "byteOffset" : 77468,
      "byteLength" : 8320
    }
  ],
  "accessors" : [
    {
      "bufferView" : 0,
      "componentType" : 5123,
      "count" : 150,
      "type" : "SCALAR"
    },
    {
      "bufferView" : 1,
      "min" : [ -1.2207e-06, -0.0948311, -0 ],
      "max" : [ 1.35749, 0, 0.375162 ],
      "componentType" : 5126,
      "count" : 90,
      "type" : "VEC3"
    },
    {
      "bufferView" : 2,
      "componentType" : 5126,
      "count" : 90,
      "type" : "VEC3"
    },
    {
      "bufferView" : 3,
      "componentType" : 5126,
      "count" : 90,
      "type" : "VEC4"
    },
    {
      "bufferView" : 4,
      "componentType" : 5126,
      "count" : 90,
      "type" : "VEC2"
    },
    {
      "bufferView" : 5,
      "componentType" : 5126,
      "count" : 90,
      "type" : "VEC2"
    },
    {
      "bufferView" : 6,
      "componentType" : 5126,
      "count" : 90,
      "type" : "VEC2"
    },
    {
      "bufferView" : 7,
      "componentType" : 5126,
      "count" : 90,
      "type" : "VEC2"
    },
    {
      "bufferView" : 8,
      "componentType" : 5123,
      "count" : 2064,
      "type" : "SCALAR"
    },
    {
      "bufferView" : 9,
      "min" : [ 0.235913, -0.139888, 0.0934879 ],
      "max" : [ 1.11768, -0.0185705, 0.37204 ],
      "componentType" : 5126,
      "count" : 1040,
      "type" : "VEC3"
    },
    {
      "bufferView" : 10,
      "componentType" : 5126,
      "count" : 1040,
      "type" : "VEC3"
    },
    {
      "bufferView" : 11,
      "componentType" : 5126,
      "count" : 1040,
      "type" : "VEC4"
    },
    {
      "bufferView" : 12,
      "componentType" : 5126,
      "count" : 1040,
      "type" : "VEC2"
    },
    {
      "bufferView" : 13,
      "componentType" : 5126,
      "count" : 1040,
      "type" : "VEC2"
    },
    {
      "bufferView" : 14,
      "componentType" : 5126,
      "count" : 1040,
      "type" : "VEC2"
    },
    {
      "bufferView" : 15,
      "componentType" : 5126,
      "count" : 1040,
      "type" : "VEC2"
    }
  ]
}
