{
  "asset" : {
    "generator" : "UE Viewer (umodel) build 1579 based",
    "version" : "2.0"
  },
  "scene" : 0,
  "scenes" : [
    {
      "nodes" : [ 0 ]
    }
  ],
  "nodes" : [
    {
      "name" : "S_Envi_FZFBase_Billboard_01b",
      "mesh" : 0
    }
  ],
  "materials" : [
    {
      "name" : "MI_Envi_FZFBase_Billboard_01a",
      "pbrMetallicRoughness" : {
        "baseColorFactor" : [ 0.3, 0.3, 0.3, 1.0 ],
        "metallicFactor" : 0.1,
        "roughnessFactor" : 0.5
      }
    },
    {
      "name" : "MI_Envi_FZFBase_Screen_01b",
      "pbrMetallicRoughness" : {
        "baseColorFactor" : [ 0.9, 0.3, 0.3, 1.0 ],
        "metallicFactor" : 0.1,
        "roughnessFactor" : 0.5
      }
    }
  ],
  "meshes" : [
    {
      "primitives" : [
        {
          "attributes" : {
            "POSITION" : 1,
            "NORMAL" : 2,
            "TANGENT" : 3,
            "TEXCOORD_0" : 4,
            "TEXCOORD_1" : 5
          },
          "indices" : 0,
          "material" : 0
        },
        {
          "attributes" : {
            "POSITION" : 7,
            "NORMAL" : 8,
            "TANGENT" : 9,
            "TEXCOORD_0" : 10,
            "TEXCOORD_1" : 11
          },
          "indices" : 6,
          "material" : 1
        }
      ],
      "name" : "S_Envi_FZFBase_Billboard_01b"
    }
  ],
  "buffers" : [
    {
      "uri" : "S_Envi_FZFBase_Billboard_01b.bin",
      "byteLength" : 46608
    }
  ],
  "bufferViews" : [
    {
      "buffer" : 0,
      "byteOffset" : 0,
      "byteLength" : 3576
    },
    {
      "buffer" : 0,
      "byteOffset" : 3576,
      "byteLength" : 9120
    },
    {
      "buffer" : 0,
      "byteOffset" : 12696,
      "byteLength" : 9120
    },
    {
      "buffer" : 0,
      "byteOffset" : 21816,
      "byteLength" : 12160
    },
    {
      "buffer" : 0,
      "byteOffset" : 33976,
      "byteLength" : 6080
    },
    {
      "buffer" : 0,
      "byteOffset" : 40056,
      "byteLength" : 6080
    },
    {
      "buffer" : 0,
      "byteOffset" : 46136,
      "byteLength" : 24
    },
    {
      "buffer" : 0,
      "byteOffset" : 46160,
      "byteLength" : 96
    },
    {
      "buffer" : 0,
      "byteOffset" : 46256,
      "byteLength" : 96
    },
    {
      "buffer" : 0,
      "byteOffset" : 46352,
      "byteLength" : 128
    },
    {
      "buffer" : 0,
      "byteOffset" : 46480,
      "byteLength" : 64
    },
    {
      "buffer" : 0,
      "byteOffset" : 46544,
      "byteLength" : 64
    }
  ],
  "accessors" : [
    {
      "bufferView" : 0,
      "componentType" : 5123,
      "count" : 1788,
      "type" : "SCALAR"
    },
    {
      "bufferView" : 1,
      "min" : [ -0.0546681, -0.00442413, 0.00884544 ],
      "max" : [ 5.09968, 2.99716, 2.03118 ],
      "componentType" : 5126,
      "count" : 760,
      "type" : "VEC3"
    },
    {
      "bufferView" : 2,
      "componentType" : 5126,
      "count" : 760,
      "type" : "VEC3"
    },
    {
      "bufferView" : 3,
      "componentType" : 5126,
      "count" : 760,
      "type" : "VEC4"
    },
    {
      "bufferView" : 4,
      "componentType" : 5126,
      "count" : 760,
      "type" : "VEC2"
    },
    {
      "bufferView" : 5,
      "componentType" : 5126,
      "count" : 760,
      "type" : "VEC2"
    },
    {
      "bufferView" : 6,
      "componentType" : 5123,
      "count" : 12,
      "type" : "SCALAR"
    },
    {
      "bufferView" : 7,
      "min" : [ 0.195763, 0.426842, 0.104336 ],
      "max" : [ 4.84454, 2.68706, 1.93569 ],
      "componentType" : 5126,
      "count" : 8,
      "type" : "VEC3"
    },
    {
      "bufferView" : 8,
      "componentType" : 5126,
      "count" : 8,
      "type" : "VEC3"
    },
    {
      "bufferView" : 9,
      "componentType" : 5126,
      "count" : 8,
      "type" : "VEC4"
    },
    {
      "bufferView" : 10,
      "componentType" : 5126,
      "count" : 8,
      "type" : "VEC2"
    },
    {
      "bufferView" : 11,
      "componentType" : 5126,
      "count" : 8,
      "type" : "VEC2"
    }
  ]
}
