{
  "asset" : {
    "generator" : "UE Viewer (umodel) build 1579 based",
    "version" : "2.0"
  },
  "scene" : 0,
  "scenes" : [
    {
      "nodes" : [ 0 ]
    }
  ],
  "nodes" : [
    {
      "name" : "S_Envi_FZFBase_Door_04b",
      "mesh" : 0
    }
  ],
  "materials" : [
    {
      "name" : "MI_Envi_FZFBase_component_01a",
      "pbrMetallicRoughness" : {
        "baseColorFactor" : [ 0.3, 0.3, 0.3, 1.0 ],
        "metallicFactor" : 0.1,
        "roughnessFactor" : 0.5
      }
    },
    {
      "name" : "MI_Envi_FZFbase_Roof_01i",
      "pbrMetallicRoughness" : {
        "baseColorFactor" : [ 0.9, 0.3, 0.3, 1.0 ],
        "metallicFactor" : 0.1,
        "roughnessFactor" : 0.5
      }
    },
    {
      "name" : "MI_Envi_FZFBase_Roof_01b",
      "pbrMetallicRoughness" : {
        "baseColorFactor" : [ 0.3, 0.9, 0.3, 1.0 ],
        "metallicFactor" : 0.1,
        "roughnessFactor" : 0.5
      }
    }
  ],
  "meshes" : [
    {
      "primitives" : [
        {
          "attributes" : {
            "POSITION" : 1,
            "NORMAL" : 2,
            "TANGENT" : 3,
            "TEXCOORD_0" : 4,
            "TEXCOORD_1" : 5,
            "TEXCOORD_2" : 6,
            "TEXCOORD_3" : 7
          },
          "indices" : 0,
          "material" : 0
        },
        {
          "attributes" : {
            "POSITION" : 9,
            "NORMAL" : 10,
            "TANGENT" : 11,
            "TEXCOORD_0" : 12,
            "TEXCOORD_1" : 13,
            "TEXCOORD_2" : 14,
            "TEXCOORD_3" : 15
          },
          "indices" : 8,
          "material" : 1
        },
        {
          "attributes" : {
            "POSITION" : 17,
            "NORMAL" : 18,
            "TANGENT" : 19,
            "TEXCOORD_0" : 20,
            "TEXCOORD_1" : 21,
            "TEXCOORD_2" : 22,
            "TEXCOORD_3" : 23
          },
          "indices" : 16,
          "material" : 2
        }
      ],
      "name" : "S_Envi_FZFBase_Door_04b"
    }
  ],
  "buffers" : [
    {
      "uri" : "S_Envi_FZFBase_Door_04b.bin",
      "byteLength" : 291516
    }
  ],
  "bufferViews" : [
    {
      "buffer" : 0,
      "byteOffset" : 0,
      "byteLength" : 11700
    },
    {
      "buffer" : 0,
      "byteOffset" : 11700,
      "byteLength" : 31524
    },
    {
      "buffer" : 0,
      "byteOffset" : 43224,
      "byteLength" : 31524
    },
    {
      "buffer" : 0,
      "byteOffset" : 74748,
      "byteLength" : 42032
    },
    {
      "buffer" : 0,
      "byteOffset" : 116780,
      "byteLength" : 21016
    },
    {
      "buffer" : 0,
      "byteOffset" : 137796,
      "byteLength" : 21016
    },
    {
      "buffer" : 0,
      "byteOffset" : 158812,
      "byteLength" : 21016
    },
    {
      "buffer" : 0,
      "byteOffset" : 179828,
      "byteLength" : 21016
    },
    {
      "buffer" : 0,
      "byteOffset" : 200844,
      "byteLength" : 3648
    },
    {
      "buffer" : 0,
      "byteOffset" : 204492,
      "byteLength" : 8736
    },
    {
      "buffer" : 0,
      "byteOffset" : 213228,
      "byteLength" : 8736
    },
    {
      "buffer" : 0,
      "byteOffset" : 221964,
      "byteLength" : 11648
    },
    {
      "buffer" : 0,
      "byteOffset" : 233612,
      "byteLength" : 5824
    },
    {
      "buffer" : 0,
      "byteOffset" : 239436,
      "byteLength" : 5824
    },
    {
      "buffer" : 0,
      "byteOffset" : 245260,
      "byteLength" : 5824
    },
    {
      "buffer" : 0,
      "byteOffset" : 251084,
      "byteLength" : 5824
    },
    {
      "buffer" : 0,
      "byteOffset" : 256908,
      "byteLength" : 2208
    },
    {
      "buffer" : 0,
      "byteOffset" : 259116,
      "byteLength" : 5400
    },
    {
      "buffer" : 0,
      "byteOffset" : 264516,
      "byteLength" : 5400
    },
    {
      "buffer" : 0,
      "byteOffset" : 269916,
      "byteLength" : 7200
    },
    {
      "buffer" : 0,
      "byteOffset" : 277116,
      "byteLength" : 3600
    },
    {
      "buffer" : 0,
      "byteOffset" : 280716,
      "byteLength" : 3600
    },
    {
      "buffer" : 0,
      "byteOffset" : 284316,
      "byteLength" : 3600
    },
    {
      "buffer" : 0,
      "byteOffset" : 287916,
      "byteLength" : 3600
    }
  ],
  "accessors" : [
    {
      "bufferView" : 0,
      "componentType" : 5123,
      "count" : 5850,
      "type" : "SCALAR"
    },
    {
      "bufferView" : 1,
      "min" : [ -5.94879, -0.00507465, -0.0257106 ],
      "max" : [ 0.00483398, 6.30844, 4.70777 ],
      "componentType" : 5126,
      "count" : 2627,
      "type" : "VEC3"
    },
    {
      "bufferView" : 2,
      "componentType" : 5126,
      "count" : 2627,
      "type" : "VEC3"
    },
    {
      "bufferView" : 3,
      "componentType" : 5126,
      "count" : 2627,
      "type" : "VEC4"
    },
    {
      "bufferView" : 4,
      "componentType" : 5126,
      "count" : 2627,
      "type" : "VEC2"
    },
    {
      "bufferView" : 5,
      "componentType" : 5126,
      "count" : 2627,
      "type" : "VEC2"
    },
    {
      "bufferView" : 6,
      "componentType" : 5126,
      "count" : 2627,
      "type" : "VEC2"
    },
    {
      "bufferView" : 7,
      "componentType" : 5126,
      "count" : 2627,
      "type" : "VEC2"
    },
    {
      "bufferView" : 8,
      "componentType" : 5123,
      "count" : 1824,
      "type" : "SCALAR"
    },
    {
      "bufferView" : 9,
      "min" : [ -5.51424, 3.95636, -0.0064368 ],
      "max" : [ -0.429714, 5.86328, 4.68849 ],
      "componentType" : 5126,
      "count" : 728,
      "type" : "VEC3"
    },
    {
      "bufferView" : 10,
      "componentType" : 5126,
      "count" : 728,
      "type" : "VEC3"
    },
    {
      "bufferView" : 11,
      "componentType" : 5126,
      "count" : 728,
      "type" : "VEC4"
    },
    {
      "bufferView" : 12,
      "componentType" : 5126,
      "count" : 728,
      "type" : "VEC2"
    },
    {
      "bufferView" : 13,
      "componentType" : 5126,
      "count" : 728,
      "type" : "VEC2"
    },
    {
      "bufferView" : 14,
      "componentType" : 5126,
      "count" : 728,
      "type" : "VEC2"
    },
    {
      "bufferView" : 15,
      "componentType" : 5126,
      "count" : 728,
      "type" : "VEC2"
    },
    {
      "bufferView" : 16,
      "componentType" : 5123,
      "count" : 1104,
      "type" : "SCALAR"
    },
    {
      "bufferView" : 17,
      "min" : [ -4.56482, 4.12088, 0.0403645 ],
      "max" : [ -1.37914, 5.55668, 4.6406 ],
      "componentType" : 5126,
      "count" : 450,
      "type" : "VEC3"
    },
    {
      "bufferView" : 18,
      "componentType" : 5126,
      "count" : 450,
      "type" : "VEC3"
    },
    {
      "bufferView" : 19,
      "componentType" : 5126,
      "count" : 450,
      "type" : "VEC4"
    },
    {
      "bufferView" : 20,
      "componentType" : 5126,
      "count" : 450,
      "type" : "VEC2"
    },
    {
      "bufferView" : 21,
      "componentType" : 5126,
      "count" : 450,
      "type" : "VEC2"
    },
    {
      "bufferView" : 22,
      "componentType" : 5126,
      "count" : 450,
      "type" : "VEC2"
    },
    {
      "bufferView" : 23,
      "componentType" : 5126,
      "count" : 450,
      "type" : "VEC2"
    }
  ]
}
