{
  "asset" : {
    "generator" : "UE Viewer (umodel) build 1579 based",
    "version" : "2.0"
  },
  "scene" : 0,
  "scenes" : [
    {
      "nodes" : [ 0 ]
    }
  ],
  "nodes" : [
    {
      "name" : "S_Envi_Common_Door_02b",
      "mesh" : 0
    }
  ],
  "materials" : [
    {
      "name" : "MI_Envi_Fyz_House_01h",
      "pbrMetallicRoughness" : {
        "baseColorFactor" : [ 0.3, 0.3, 0.3, 1.0 ],
        "metallicFactor" : 0.1,
        "roughnessFactor" : 0.5
      }
    }
  ],
  "meshes" : [
    {
      "primitives" : [
        {
          "attributes" : {
            "POSITION" : 1,
            "NORMAL" : 2,
            "TANGENT" : 3,
            "TEXCOORD_0" : 4,
            "TEXCOORD_1" : 5
          },
          "indices" : 0,
          "material" : 0
        }
      ],
      "name" : "S_Envi_Common_Door_02b"
    }
  ],
  "buffers" : [
    {
      "uri" : "S_Envi_Common_Door_02b.bin",
      "byteLength" : 4716
    }
  ],
  "bufferViews" : [
    {
      "buffer" : 0,
      "byteOffset" : 0,
      "byteLength" : 404
    },
    {
      "buffer" : 0,
      "byteOffset" : 404,
      "byteLength" : 924
    },
    {
      "buffer" : 0,
      "byteOffset" : 1328,
      "byteLength" : 924
    },
    {
      "buffer" : 0,
      "byteOffset" : 2252,
      "byteLength" : 1232
    },
    {
      "buffer" : 0,
      "byteOffset" : 3484,
      "byteLength" : 616
    },
    {
      "buffer" : 0,
      "byteOffset" : 4100,
      "byteLength" : 616
    }
  ],
  "accessors" : [
    {
      "bufferView" : 0,
      "componentType" : 5123,
      "count" : 201,
      "type" : "SCALAR"
    },
    {
      "bufferView" : 1,
      "min" : [ -1.02029, -2.15308e-17, -0.351673 ],
      "max" : [ 1.02029, 1.11175, 0.0333223 ],
      "componentType" : 5126,
      "count" : 77,
      "type" : "VEC3"
    },
    {
      "bufferView" : 2,
      "componentType" : 5126,
      "count" : 77,
      "type" : "VEC3"
    },
    {
      "bufferView" : 3,
      "componentType" : 5126,
      "count" : 77,
      "type" : "VEC4"
    },
    {
      "bufferView" : 4,
      "componentType" : 5126,
      "count" : 77,
      "type" : "VEC2"
    },
    {
      "bufferView" : 5,
      "componentType" : 5126,
      "count" : 77,
      "type" : "VEC2"
    }
  ]
}
