{
  "asset" : {
    "generator" : "UE Viewer (umodel) build 1579 based",
    "version" : "2.0"
  },
  "scene" : 0,
  "scenes" : [
    {
      "nodes" : [ 0 ]
    }
  ],
  "nodes" : [
    {
      "name" : "S_Envi_Common_Window_01e",
      "mesh" : 0
    }
  ],
  "materials" : [
    {
      "name" : "MI_Envi_Fyz_House_01a",
      "pbrMetallicRoughness" : {
        "baseColorFactor" : [ 0.3, 0.3, 0.3, 1.0 ],
        "metallicFactor" : 0.1,
        "roughnessFactor" : 0.5
      }
    }
  ],
  "meshes" : [
    {
      "primitives" : [
        {
          "attributes" : {
            "POSITION" : 1,
            "NORMAL" : 2,
            "TANGENT" : 3,
            "TEXCOORD_0" : 4,
            "TEXCOORD_1" : 5
          },
          "indices" : 0,
          "material" : 0
        }
      ],
      "name" : "S_Envi_Common_Window_01e"
    }
  ],
  "buffers" : [
    {
      "uri" : "S_Envi_Common_Window_01e.bin",
      "byteLength" : 3068
    }
  ],
  "bufferViews" : [
    {
      "buffer" : 0,
      "byteOffset" : 0,
      "byteLength" : 156
    },
    {
      "buffer" : 0,
      "byteOffset" : 156,
      "byteLength" : 624
    },
    {
      "buffer" : 0,
      "byteOffset" : 780,
      "byteLength" : 624
    },
    {
      "buffer" : 0,
      "byteOffset" : 1404,
      "byteLength" : 832
    },
    {
      "buffer" : 0,
      "byteOffset" : 2236,
      "byteLength" : 416
    },
    {
      "buffer" : 0,
      "byteOffset" : 2652,
      "byteLength" : 416
    }
  ],
  "accessors" : [
    {
      "bufferView" : 0,
      "componentType" : 5123,
      "count" : 78,
      "type" : "SCALAR"
    },
    {
      "bufferView" : 1,
      "min" : [ -0.508438, -0.0114566, 0.0928343 ],
      "max" : [ 0.50844, 1.19597, 0.142704 ],
      "componentType" : 5126,
      "count" : 52,
      "type" : "VEC3"
    },
    {
      "bufferView" : 2,
      "componentType" : 5126,
      "count" : 52,
      "type" : "VEC3"
    },
    {
      "bufferView" : 3,
      "componentType" : 5126,
      "count" : 52,
      "type" : "VEC4"
    },
    {
      "bufferView" : 4,
      "componentType" : 5126,
      "count" : 52,
      "type" : "VEC2"
    },
    {
      "bufferView" : 5,
      "componentType" : 5126,
      "count" : 52,
      "type" : "VEC2"
    }
  ]
}
