{
  "asset" : {
    "generator" : "UE Viewer (umodel) build 1579 based",
    "version" : "2.0"
  },
  "scene" : 0,
  "scenes" : [
    {
      "nodes" : [ 0 ]
    }
  ],
  "nodes" : [
    {
      "name" : "S_Envi_Common_Window_01a",
      "mesh" : 0
    }
  ],
  "materials" : [
    {
      "name" : "MI_Envi_Fyz_House_01h",
      "pbrMetallicRoughness" : {
        "baseColorFactor" : [ 0.3, 0.3, 0.3, 1.0 ],
        "metallicFactor" : 0.1,
        "roughnessFactor" : 0.5
      }
    },
    {
      "name" : "MI_Envi_Fyz_House_01a",
      "pbrMetallicRoughness" : {
        "baseColorFactor" : [ 0.9, 0.3, 0.3, 1.0 ],
        "metallicFactor" : 0.1,
        "roughnessFactor" : 0.5
      }
    }
  ],
  "meshes" : [
    {
      "primitives" : [
        {
          "attributes" : {
            "POSITION" : 1,
            "NORMAL" : 2,
            "TANGENT" : 3,
            "TEXCOORD_0" : 4,
            "TEXCOORD_1" : 5
          },
          "indices" : 0,
          "material" : 0
        },
        {
          "attributes" : {
            "POSITION" : 7,
            "NORMAL" : 8,
            "TANGENT" : 9,
            "TEXCOORD_0" : 10,
            "TEXCOORD_1" : 11
          },
          "indices" : 6,
          "material" : 1
        }
      ],
      "name" : "S_Envi_Common_Window_01a"
    }
  ],
  "buffers" : [
    {
      "uri" : "S_Envi_Common_Window_01a.bin",
      "byteLength" : 9116
    }
  ],
  "bufferViews" : [
    {
      "buffer" : 0,
      "byteOffset" : 0,
      "byteLength" : 240
    },
    {
      "buffer" : 0,
      "byteOffset" : 240,
      "byteLength" : 960
    },
    {
      "buffer" : 0,
      "byteOffset" : 1200,
      "byteLength" : 960
    },
    {
      "buffer" : 0,
      "byteOffset" : 2160,
      "byteLength" : 1280
    },
    {
      "buffer" : 0,
      "byteOffset" : 3440,
      "byteLength" : 640
    },
    {
      "buffer" : 0,
      "byteOffset" : 4080,
      "byteLength" : 640
    },
    {
      "buffer" : 0,
      "byteOffset" : 4720,
      "byteLength" : 252
    },
    {
      "buffer" : 0,
      "byteOffset" : 4972,
      "byteLength" : 888
    },
    {
      "buffer" : 0,
      "byteOffset" : 5860,
      "byteLength" : 888
    },
    {
      "buffer" : 0,
      "byteOffset" : 6748,
      "byteLength" : 1184
    },
    {
      "buffer" : 0,
      "byteOffset" : 7932,
      "byteLength" : 592
    },
    {
      "buffer" : 0,
      "byteOffset" : 8524,
      "byteLength" : 592
    }
  ],
  "accessors" : [
    {
      "bufferView" : 0,
      "componentType" : 5123,
      "count" : 120,
      "type" : "SCALAR"
    },
    {
      "bufferView" : 1,
      "min" : [ -0.774536, -0.729213, -0.00581923 ],
      "max" : [ 0.774537, 0.729577, 0.193082 ],
      "componentType" : 5126,
      "count" : 80,
      "type" : "VEC3"
    },
    {
      "bufferView" : 2,
      "componentType" : 5126,
      "count" : 80,
      "type" : "VEC3"
    },
    {
      "bufferView" : 3,
      "componentType" : 5126,
      "count" : 80,
      "type" : "VEC4"
    },
    {
      "bufferView" : 4,
      "componentType" : 5126,
      "count" : 80,
      "type" : "VEC2"
    },
    {
      "bufferView" : 5,
      "componentType" : 5126,
      "count" : 80,
      "type" : "VEC2"
    },
    {
      "bufferView" : 6,
      "componentType" : 5123,
      "count" : 126,
      "type" : "SCALAR"
    },
    {
      "bufferView" : 7,
      "min" : [ -0.532321, -0.871387, -0.0230144 ],
      "max" : [ 0.53336, 0.869576, 0.220536 ],
      "componentType" : 5126,
      "count" : 74,
      "type" : "VEC3"
    },
    {
      "bufferView" : 8,
      "componentType" : 5126,
      "count" : 74,
      "type" : "VEC3"
    },
    {
      "bufferView" : 9,
      "componentType" : 5126,
      "count" : 74,
      "type" : "VEC4"
    },
    {
      "bufferView" : 10,
      "componentType" : 5126,
      "count" : 74,
      "type" : "VEC2"
    },
    {
      "bufferView" : 11,
      "componentType" : 5126,
      "count" : 74,
      "type" : "VEC2"
    }
  ]
}
