{
  "asset" : {
    "generator" : "UE Viewer (umodel) build 1579 based",
    "version" : "2.0"
  },
  "scene" : 0,
  "scenes" : [
    {
      "nodes" : [ 0 ]
    }
  ],
  "nodes" : [
    {
      "name" : "S_Envi_Common_HBuilding_01n",
      "mesh" : 0
    }
  ],
  "materials" : [
    {
      "name" : "MI_Envi_Common_HBuilding_01c",
      "pbrMetallicRoughness" : {
        "baseColorFactor" : [ 0.3, 0.3, 0.3, 1.0 ],
        "metallicFactor" : 0.1,
        "roughnessFactor" : 0.5
      }
    }
  ],
  "meshes" : [
    {
      "primitives" : [
        {
          "attributes" : {
            "POSITION" : 1,
            "NORMAL" : 2,
            "TANGENT" : 3,
            "TEXCOORD_0" : 4,
            "TEXCOORD_1" : 5
          },
          "indices" : 0,
          "material" : 0
        }
      ],
      "name" : "S_Envi_Common_HBuilding_01n"
    }
  ],
  "buffers" : [
    {
      "uri" : "S_Envi_Common_HBuilding_01n.bin",
      "byteLength" : 11456
    }
  ],
  "bufferViews" : [
    {
      "buffer" : 0,
      "byteOffset" : 0,
      "byteLength" : 816
    },
    {
      "buffer" : 0,
      "byteOffset" : 816,
      "byteLength" : 2280
    },
    {
      "buffer" : 0,
      "byteOffset" : 3096,
      "byteLength" : 2280
    },
    {
      "buffer" : 0,
      "byteOffset" : 5376,
      "byteLength" : 3040
    },
    {
      "buffer" : 0,
      "byteOffset" : 8416,
      "byteLength" : 1520
    },
    {
      "buffer" : 0,
      "byteOffset" : 9936,
      "byteLength" : 1520
    }
  ],
  "accessors" : [
    {
      "bufferView" : 0,
      "componentType" : 5123,
      "count" : 408,
      "type" : "SCALAR"
    },
    {
      "bufferView" : 1,
      "min" : [ -1.4539e-07, -0.831543, -6.24963e-07 ],
      "max" : [ 4.75, 1.76404e-07, 0.949468 ],
      "componentType" : 5126,
      "count" : 190,
      "type" : "VEC3"
    },
    {
      "bufferView" : 2,
      "componentType" : 5126,
      "count" : 190,
      "type" : "VEC3"
    },
    {
      "bufferView" : 3,
      "componentType" : 5126,
      "count" : 190,
      "type" : "VEC4"
    },
    {
      "bufferView" : 4,
      "componentType" : 5126,
      "count" : 190,
      "type" : "VEC2"
    },
    {
      "bufferView" : 5,
      "componentType" : 5126,
      "count" : 190,
      "type" : "VEC2"
    }
  ]
}
