{
  "asset" : {
    "generator" : "UE Viewer (umodel) build 1579 based",
    "version" : "2.0"
  },
  "scene" : 0,
  "scenes" : [
    {
      "nodes" : [ 0 ]
    }
  ],
  "nodes" : [
    {
      "name" : "S_Envi_Common_Window_01m",
      "mesh" : 0
    }
  ],
  "materials" : [
    {
      "name" : "MI_Envi_Fyz_House_01a",
      "pbrMetallicRoughness" : {
        "baseColorFactor" : [ 0.3, 0.3, 0.3, 1.0 ],
        "metallicFactor" : 0.1,
        "roughnessFactor" : 0.5
      }
    }
  ],
  "meshes" : [
    {
      "primitives" : [
        {
          "attributes" : {
            "POSITION" : 1,
            "NORMAL" : 2,
            "TANGENT" : 3,
            "TEXCOORD_0" : 4,
            "TEXCOORD_1" : 5,
            "TEXCOORD_2" : 6
          },
          "indices" : 0,
          "material" : 0
        }
      ],
      "name" : "S_Envi_Common_Window_01m"
    }
  ],
  "buffers" : [
    {
      "uri" : "S_Envi_Common_Window_01m.bin",
      "byteLength" : 49528
    }
  ],
  "bufferViews" : [
    {
      "buffer" : 0,
      "byteOffset" : 0,
      "byteLength" : 2040
    },
    {
      "buffer" : 0,
      "byteOffset" : 2040,
      "byteLength" : 8904
    },
    {
      "buffer" : 0,
      "byteOffset" : 10944,
      "byteLength" : 8904
    },
    {
      "buffer" : 0,
      "byteOffset" : 19848,
      "byteLength" : 11872
    },
    {
      "buffer" : 0,
      "byteOffset" : 31720,
      "byteLength" : 5936
    },
    {
      "buffer" : 0,
      "byteOffset" : 37656,
      "byteLength" : 5936
    },
    {
      "buffer" : 0,
      "byteOffset" : 43592,
      "byteLength" : 5936
    }
  ],
  "accessors" : [
    {
      "bufferView" : 0,
      "componentType" : 5123,
      "count" : 1020,
      "type" : "SCALAR"
    },
    {
      "bufferView" : 1,
      "min" : [ -1.3286, -3.55271e-17, -2.28882e-07 ],
      "max" : [ 1.3286, 0.571354, 1.28507 ],
      "componentType" : 5126,
      "count" : 742,
      "type" : "VEC3"
    },
    {
      "bufferView" : 2,
      "componentType" : 5126,
      "count" : 742,
      "type" : "VEC3"
    },
    {
      "bufferView" : 3,
      "componentType" : 5126,
      "count" : 742,
      "type" : "VEC4"
    },
    {
      "bufferView" : 4,
      "componentType" : 5126,
      "count" : 742,
      "type" : "VEC2"
    },
    {
      "bufferView" : 5,
      "componentType" : 5126,
      "count" : 742,
      "type" : "VEC2"
    },
    {
      "bufferView" : 6,
      "componentType" : 5126,
      "count" : 742,
      "type" : "VEC2"
    }
  ]
}
