{
  "asset" : {
    "generator" : "UE Viewer (umodel) build 1579 based",
    "version" : "2.0"
  },
  "scene" : 0,
  "scenes" : [
    {
      "nodes" : [ 0 ]
    }
  ],
  "nodes" : [
    {
      "name" : "S_Envi_Common_Door_01f",
      "mesh" : 0
    }
  ],
  "materials" : [
    {
      "name" : "MI_Envi_Fyz_House_01c2",
      "pbrMetallicRoughness" : {
        "baseColorFactor" : [ 0.3, 0.3, 0.3, 1.0 ],
        "metallicFactor" : 0.1,
        "roughnessFactor" : 0.5
      }
    }
  ],
  "meshes" : [
    {
      "primitives" : [
        {
          "attributes" : {
            "POSITION" : 1,
            "NORMAL" : 2,
            "TANGENT" : 3,
            "TEXCOORD_0" : 4,
            "TEXCOORD_1" : 5,
            "TEXCOORD_2" : 6,
            "TEXCOORD_3" : 7
          },
          "indices" : 0,
          "material" : 0
        }
      ],
      "name" : "S_Envi_Common_Door_01f"
    }
  ],
  "buffers" : [
    {
      "uri" : "S_Envi_Common_Door_01f.bin",
      "byteLength" : 15456
    }
  ],
  "bufferViews" : [
    {
      "buffer" : 0,
      "byteOffset" : 0,
      "byteLength" : 624
    },
    {
      "buffer" : 0,
      "byteOffset" : 624,
      "byteLength" : 2472
    },
    {
      "buffer" : 0,
      "byteOffset" : 3096,
      "byteLength" : 2472
    },
    {
      "buffer" : 0,
      "byteOffset" : 5568,
      "byteLength" : 3296
    },
    {
      "buffer" : 0,
      "byteOffset" : 8864,
      "byteLength" : 1648
    },
    {
      "buffer" : 0,
      "byteOffset" : 10512,
      "byteLength" : 1648
    },
    {
      "buffer" : 0,
      "byteOffset" : 12160,
      "byteLength" : 1648
    },
    {
      "buffer" : 0,
      "byteOffset" : 13808,
      "byteLength" : 1648
    }
  ],
  "accessors" : [
    {
      "bufferView" : 0,
      "componentType" : 5123,
      "count" : 312,
      "type" : "SCALAR"
    },
    {
      "bufferView" : 1,
      "min" : [ -2.5337, 0.000463333, -0.567207 ],
      "max" : [ 2.54636, 4.81039, 0.567209 ],
      "componentType" : 5126,
      "count" : 206,
      "type" : "VEC3"
    },
    {
      "bufferView" : 2,
      "componentType" : 5126,
      "count" : 206,
      "type" : "VEC3"
    },
    {
      "bufferView" : 3,
      "componentType" : 5126,
      "count" : 206,
      "type" : "VEC4"
    },
    {
      "bufferView" : 4,
      "componentType" : 5126,
      "count" : 206,
      "type" : "VEC2"
    },
    {
      "bufferView" : 5,
      "componentType" : 5126,
      "count" : 206,
      "type" : "VEC2"
    },
    {
      "bufferView" : 6,
      "componentType" : 5126,
      "count" : 206,
      "type" : "VEC2"
    },
    {
      "bufferView" : 7,
      "componentType" : 5126,
      "count" : 206,
      "type" : "VEC2"
    }
  ]
}
