{
  "asset" : {
    "generator" : "UE Viewer (umodel) build 1579 based",
    "version" : "2.0"
  },
  "scene" : 0,
  "scenes" : [
    {
      "nodes" : [ 0 ]
    }
  ],
  "nodes" : [
    {
      "name" : "S_Envi_Common_Window_01b",
      "mesh" : 0
    }
  ],
  "materials" : [
    {
      "name" : "MI_Envi_Fyz_House_01a",
      "pbrMetallicRoughness" : {
        "baseColorFactor" : [ 0.3, 0.3, 0.3, 1.0 ],
        "metallicFactor" : 0.1,
        "roughnessFactor" : 0.5
      }
    }
  ],
  "meshes" : [
    {
      "primitives" : [
        {
          "attributes" : {
            "POSITION" : 1,
            "NORMAL" : 2,
            "TANGENT" : 3,
            "TEXCOORD_0" : 4,
            "TEXCOORD_1" : 5
          },
          "indices" : 0,
          "material" : 0
        }
      ],
      "name" : "S_Envi_Common_Window_01b"
    }
  ],
  "buffers" : [
    {
      "uri" : "S_Envi_Common_Window_01b.bin",
      "byteLength" : 6152
    }
  ],
  "bufferViews" : [
    {
      "buffer" : 0,
      "byteOffset" : 0,
      "byteLength" : 552
    },
    {
      "buffer" : 0,
      "byteOffset" : 552,
      "byteLength" : 1200
    },
    {
      "buffer" : 0,
      "byteOffset" : 1752,
      "byteLength" : 1200
    },
    {
      "buffer" : 0,
      "byteOffset" : 2952,
      "byteLength" : 1600
    },
    {
      "buffer" : 0,
      "byteOffset" : 4552,
      "byteLength" : 800
    },
    {
      "buffer" : 0,
      "byteOffset" : 5352,
      "byteLength" : 800
    }
  ],
  "accessors" : [
    {
      "bufferView" : 0,
      "componentType" : 5123,
      "count" : 276,
      "type" : "SCALAR"
    },
    {
      "bufferView" : 1,
      "min" : [ -0.267177, -0.00228188, -0.142636 ],
      "max" : [ 0.267177, 0.194327, 0.142346 ],
      "componentType" : 5126,
      "count" : 100,
      "type" : "VEC3"
    },
    {
      "bufferView" : 2,
      "componentType" : 5126,
      "count" : 100,
      "type" : "VEC3"
    },
    {
      "bufferView" : 3,
      "componentType" : 5126,
      "count" : 100,
      "type" : "VEC4"
    },
    {
      "bufferView" : 4,
      "componentType" : 5126,
      "count" : 100,
      "type" : "VEC2"
    },
    {
      "bufferView" : 5,
      "componentType" : 5126,
      "count" : 100,
      "type" : "VEC2"
    }
  ]
}
