{
  "asset" : {
    "generator" : "UE Viewer (umodel) build 1579 based",
    "version" : "2.0"
  },
  "scene" : 0,
  "scenes" : [
    {
      "nodes" : [ 0 ]
    }
  ],
  "nodes" : [
    {
      "name" : "S_Envi_Common_HBuilding_02f",
      "mesh" : 0
    }
  ],
  "materials" : [
    {
      "name" : "MI_Envi_Common_HBuilding_02a",
      "pbrMetallicRoughness" : {
        "baseColorFactor" : [ 0.3, 0.3, 0.3, 1.0 ],
        "metallicFactor" : 0.1,
        "roughnessFactor" : 0.5
      }
    }
  ],
  "meshes" : [
    {
      "primitives" : [
        {
          "attributes" : {
            "POSITION" : 1,
            "NORMAL" : 2,
            "TANGENT" : 3,
            "TEXCOORD_0" : 4,
            "TEXCOORD_1" : 5,
            "TEXCOORD_2" : 6
          },
          "indices" : 0,
          "material" : 0
        }
      ],
      "name" : "S_Envi_Common_HBuilding_02f"
    }
  ],
  "buffers" : [
    {
      "uri" : "S_Envi_Common_HBuilding_02f.bin",
      "byteLength" : 8916
    }
  ],
  "bufferViews" : [
    {
      "buffer" : 0,
      "byteOffset" : 0,
      "byteLength" : 404
    },
    {
      "buffer" : 0,
      "byteOffset" : 404,
      "byteLength" : 1596
    },
    {
      "buffer" : 0,
      "byteOffset" : 2000,
      "byteLength" : 1596
    },
    {
      "buffer" : 0,
      "byteOffset" : 3596,
      "byteLength" : 2128
    },
    {
      "buffer" : 0,
      "byteOffset" : 5724,
      "byteLength" : 1064
    },
    {
      "buffer" : 0,
      "byteOffset" : 6788,
      "byteLength" : 1064
    },
    {
      "buffer" : 0,
      "byteOffset" : 7852,
      "byteLength" : 1064
    }
  ],
  "accessors" : [
    {
      "bufferView" : 0,
      "componentType" : 5123,
      "count" : 201,
      "type" : "SCALAR"
    },
    {
      "bufferView" : 1,
      "min" : [ -1.09402, -0.00143794, 0.131175 ],
      "max" : [ 1.11108, 3.57142, 0.39868 ],
      "componentType" : 5126,
      "count" : 133,
      "type" : "VEC3"
    },
    {
      "bufferView" : 2,
      "componentType" : 5126,
      "count" : 133,
      "type" : "VEC3"
    },
    {
      "bufferView" : 3,
      "componentType" : 5126,
      "count" : 133,
      "type" : "VEC4"
    },
    {
      "bufferView" : 4,
      "componentType" : 5126,
      "count" : 133,
      "type" : "VEC2"
    },
    {
      "bufferView" : 5,
      "componentType" : 5126,
      "count" : 133,
      "type" : "VEC2"
    },
    {
      "bufferView" : 6,
      "componentType" : 5126,
      "count" : 133,
      "type" : "VEC2"
    }
  ]
}
