{
  "asset" : {
    "generator" : "UE Viewer (umodel) build 1579 based",
    "version" : "2.0"
  },
  "scene" : 0,
  "scenes" : [
    {
      "nodes" : [ 0 ]
    }
  ],
  "nodes" : [
    {
      "name" : "S_Envi_Umeda_Door_02a",
      "mesh" : 0
    }
  ],
  "materials" : [
    {
      "name" : "MI_Envi_Umeda_Prop_Billboard_01",
      "pbrMetallicRoughness" : {
        "baseColorFactor" : [ 0.3, 0.3, 0.3, 1.0 ],
        "metallicFactor" : 0.1,
        "roughnessFactor" : 0.5
      }
    }
  ],
  "meshes" : [
    {
      "primitives" : [
        {
          "attributes" : {
            "POSITION" : 1,
            "NORMAL" : 2,
            "TANGENT" : 3,
            "TEXCOORD_0" : 4,
            "TEXCOORD_1" : 5
          },
          "indices" : 0,
          "material" : 0
        }
      ],
      "name" : "S_Envi_Umeda_Door_02a"
    }
  ],
  "buffers" : [
    {
      "uri" : "S_Envi_Umeda_Door_02a.bin",
      "byteLength" : 39408
    }
  ],
  "bufferViews" : [
    {
      "buffer" : 0,
      "byteOffset" : 0,
      "byteLength" : 2448
    },
    {
      "buffer" : 0,
      "byteOffset" : 2448,
      "byteLength" : 7920
    },
    {
      "buffer" : 0,
      "byteOffset" : 10368,
      "byteLength" : 7920
    },
    {
      "buffer" : 0,
      "byteOffset" : 18288,
      "byteLength" : 10560
    },
    {
      "buffer" : 0,
      "byteOffset" : 28848,
      "byteLength" : 5280
    },
    {
      "buffer" : 0,
      "byteOffset" : 34128,
      "byteLength" : 5280
    }
  ],
  "accessors" : [
    {
      "bufferView" : 0,
      "componentType" : 5123,
      "count" : 1224,
      "type" : "SCALAR"
    },
    {
      "bufferView" : 1,
      "min" : [ -8.73048, -2.59399e-06, -0.767678 ],
      "max" : [ 9.57304e-13, 6.62451, 2.40163e-07 ],
      "componentType" : 5126,
      "count" : 660,
      "type" : "VEC3"
    },
    {
      "bufferView" : 2,
      "componentType" : 5126,
      "count" : 660,
      "type" : "VEC3"
    },
    {
      "bufferView" : 3,
      "componentType" : 5126,
      "count" : 660,
      "type" : "VEC4"
    },
    {
      "bufferView" : 4,
      "componentType" : 5126,
      "count" : 660,
      "type" : "VEC2"
    },
    {
      "bufferView" : 5,
      "componentType" : 5126,
      "count" : 660,
      "type" : "VEC2"
    }
  ]
}
