{
  "asset" : {
    "generator" : "UE Viewer (umodel) build 1579 based",
    "version" : "2.0"
  },
  "scene" : 0,
  "scenes" : [
    {
      "nodes" : [ 0 ]
    }
  ],
  "nodes" : [
    {
      "name" : "S_Envi_Umeda_Game_elevator_01_E",
      "mesh" : 0
    }
  ],
  "materials" : [
    {
      "name" : "MI_Envi_Umeda_Game_elevator_01_A",
      "pbrMetallicRoughness" : {
        "baseColorFactor" : [ 0.3, 0.3, 0.3, 1.0 ],
        "metallicFactor" : 0.1,
        "roughnessFactor" : 0.5
      }
    }
  ],
  "meshes" : [
    {
      "primitives" : [
        {
          "attributes" : {
            "POSITION" : 1,
            "NORMAL" : 2,
            "TANGENT" : 3,
            "TEXCOORD_0" : 4,
            "TEXCOORD_1" : 5
          },
          "indices" : 0,
          "material" : 0
        }
      ],
      "name" : "S_Envi_Umeda_Game_elevator_01_E"
    }
  ],
  "buffers" : [
    {
      "uri" : "S_Envi_Umeda_Game_elevator_01_E.bin",
      "byteLength" : 109468
    }
  ],
  "bufferViews" : [
    {
      "buffer" : 0,
      "byteOffset" : 0,
      "byteLength" : 8892
    },
    {
      "buffer" : 0,
      "byteOffset" : 8892,
      "byteLength" : 21552
    },
    {
      "buffer" : 0,
      "byteOffset" : 30444,
      "byteLength" : 21552
    },
    {
      "buffer" : 0,
      "byteOffset" : 51996,
      "byteLength" : 28736
    },
    {
      "buffer" : 0,
      "byteOffset" : 80732,
      "byteLength" : 14368
    },
    {
      "buffer" : 0,
      "byteOffset" : 95100,
      "byteLength" : 14368
    }
  ],
  "accessors" : [
    {
      "bufferView" : 0,
      "componentType" : 5123,
      "count" : 4446,
      "type" : "SCALAR"
    },
    {
      "bufferView" : 1,
      "min" : [ -0.676281, -1.70789, -0 ],
      "max" : [ 1.32372, 6.02266e-18, 2.14307 ],
      "componentType" : 5126,
      "count" : 1796,
      "type" : "VEC3"
    },
    {
      "bufferView" : 2,
      "componentType" : 5126,
      "count" : 1796,
      "type" : "VEC3"
    },
    {
      "bufferView" : 3,
      "componentType" : 5126,
      "count" : 1796,
      "type" : "VEC4"
    },
    {
      "bufferView" : 4,
      "componentType" : 5126,
      "count" : 1796,
      "type" : "VEC2"
    },
    {
      "bufferView" : 5,
      "componentType" : 5126,
      "count" : 1796,
      "type" : "VEC2"
    }
  ]
}
