{
  "asset" : {
    "generator" : "UE Viewer (umodel) build 1579 based",
    "version" : "2.0"
  },
  "scene" : 0,
  "scenes" : [
    {
      "nodes" : [ 0 ]
    }
  ],
  "nodes" : [
    {
      "name" : "S_Envi_Umeda_Aspot_elevator_01",
      "mesh" : 0
    }
  ],
  "materials" : [
    {
      "name" : "MI_Envi_Umeda_Aspot_elevator_01",
      "pbrMetallicRoughness" : {
        "baseColorFactor" : [ 0.3, 0.3, 0.3, 1.0 ],
        "metallicFactor" : 0.1,
        "roughnessFactor" : 0.5
      }
    }
  ],
  "meshes" : [
    {
      "primitives" : [
        {
          "attributes" : {
            "POSITION" : 1,
            "NORMAL" : 2,
            "TANGENT" : 3,
            "TEXCOORD_0" : 4,
            "TEXCOORD_1" : 5
          },
          "indices" : 0,
          "material" : 0
        }
      ],
      "name" : "S_Envi_Umeda_Aspot_elevator_01"
    }
  ],
  "buffers" : [
    {
      "uri" : "S_Envi_Umeda_Aspot_elevator_01.bin",
      "byteLength" : 198344
    }
  ],
  "bufferViews" : [
    {
      "buffer" : 0,
      "byteOffset" : 0,
      "byteLength" : 16848
    },
    {
      "buffer" : 0,
      "byteOffset" : 16848,
      "byteLength" : 38892
    },
    {
      "buffer" : 0,
      "byteOffset" : 55740,
      "byteLength" : 38892
    },
    {
      "buffer" : 0,
      "byteOffset" : 94632,
      "byteLength" : 51856
    },
    {
      "buffer" : 0,
      "byteOffset" : 146488,
      "byteLength" : 25928
    },
    {
      "buffer" : 0,
      "byteOffset" : 172416,
      "byteLength" : 25928
    }
  ],
  "accessors" : [
    {
      "bufferView" : 0,
      "componentType" : 5123,
      "count" : 8424,
      "type" : "SCALAR"
    },
    {
      "bufferView" : 1,
      "min" : [ -0.882939, -7.62939e-07, -12.2696 ],
      "max" : [ -3.8147e-08, 3.79185, 6.10352e-07 ],
      "componentType" : 5126,
      "count" : 3241,
      "type" : "VEC3"
    },
    {
      "bufferView" : 2,
      "componentType" : 5126,
      "count" : 3241,
      "type" : "VEC3"
    },
    {
      "bufferView" : 3,
      "componentType" : 5126,
      "count" : 3241,
      "type" : "VEC4"
    },
    {
      "bufferView" : 4,
      "componentType" : 5126,
      "count" : 3241,
      "type" : "VEC2"
    },
    {
      "bufferView" : 5,
      "componentType" : 5126,
      "count" : 3241,
      "type" : "VEC2"
    }
  ]
}
