{
  "asset" : {
    "generator" : "UE Viewer (umodel) build 1579 based",
    "version" : "2.0"
  },
  "scene" : 0,
  "scenes" : [
    {
      "nodes" : [ 0 ]
    }
  ],
  "nodes" : [
    {
      "name" : "S_Envi_Common_Parterre_Merge_01b",
      "mesh" : 0
    }
  ],
  "materials" : [
    {
      "name" : "MI_Envi_Common_Bathroom_Merge_01",
      "pbrMetallicRoughness" : {
        "baseColorFactor" : [ 0.3, 0.3, 0.3, 1.0 ],
        "metallicFactor" : 0.1,
        "roughnessFactor" : 0.5
      }
    }
  ],
  "meshes" : [
    {
      "primitives" : [
        {
          "attributes" : {
            "POSITION" : 1,
            "NORMAL" : 2,
            "TANGENT" : 3,
            "TEXCOORD_0" : 4,
            "TEXCOORD_1" : 5
          },
          "indices" : 0,
          "material" : 0
        }
      ],
      "name" : "S_Envi_Common_Parterre_Merge_01b"
    }
  ],
  "buffers" : [
    {
      "uri" : "S_Envi_Common_Parterre_Merge_01b.bin",
      "byteLength" : 447816
    }
  ],
  "bufferViews" : [
    {
      "buffer" : 0,
      "byteOffset" : 0,
      "byteLength" : 32856
    },
    {
      "buffer" : 0,
      "byteOffset" : 32856,
      "byteLength" : 88920
    },
    {
      "buffer" : 0,
      "byteOffset" : 121776,
      "byteLength" : 88920
    },
    {
      "buffer" : 0,
      "byteOffset" : 210696,
      "byteLength" : 118560
    },
    {
      "buffer" : 0,
      "byteOffset" : 329256,
      "byteLength" : 59280
    },
    {
      "buffer" : 0,
      "byteOffset" : 388536,
      "byteLength" : 59280
    }
  ],
  "accessors" : [
    {
      "bufferView" : 0,
      "componentType" : 5123,
      "count" : 16428,
      "type" : "SCALAR"
    },
    {
      "bufferView" : 1,
      "min" : [ -42.5511, 3.49029, 52.6252 ],
      "max" : [ 31.6022, 8.70527, 62.7523 ],
      "componentType" : 5126,
      "count" : 7410,
      "type" : "VEC3"
    },
    {
      "bufferView" : 2,
      "componentType" : 5126,
      "count" : 7410,
      "type" : "VEC3"
    },
    {
      "bufferView" : 3,
      "componentType" : 5126,
      "count" : 7410,
      "type" : "VEC4"
    },
    {
      "bufferView" : 4,
      "componentType" : 5126,
      "count" : 7410,
      "type" : "VEC2"
    },
    {
      "bufferView" : 5,
      "componentType" : 5126,
      "count" : 7410,
      "type" : "VEC2"
    }
  ]
}
