{
  "asset" : {
    "generator" : "UE Viewer (umodel) build 1579 based",
    "version" : "2.0"
  },
  "scene" : 0,
  "scenes" : [
    {
      "nodes" : [ 0 ]
    }
  ],
  "nodes" : [
    {
      "name" : "S_Envi_Umeda_ExperienceCenter_01_B",
      "mesh" : 0
    }
  ],
  "materials" : [
    {
      "name" : "MI_Envi_Umeda_ExperienceCenter_01_B01",
      "pbrMetallicRoughness" : {
        "baseColorFactor" : [ 0.3, 0.3, 0.3, 1.0 ],
        "metallicFactor" : 0.1,
        "roughnessFactor" : 0.5
      }
    },
    {
      "name" : "MI_screenScan_AD_03a",
      "pbrMetallicRoughness" : {
        "baseColorFactor" : [ 0.9, 0.3, 0.3, 1.0 ],
        "metallicFactor" : 0.1,
        "roughnessFactor" : 0.5
      }
    }
  ],
  "meshes" : [
    {
      "primitives" : [
        {
          "attributes" : {
            "POSITION" : 1,
            "NORMAL" : 2,
            "TANGENT" : 3,
            "TEXCOORD_0" : 4,
            "TEXCOORD_1" : 5
          },
          "indices" : 0,
          "material" : 0
        },
        {
          "attributes" : {
            "POSITION" : 7,
            "NORMAL" : 8,
            "TANGENT" : 9,
            "TEXCOORD_0" : 10,
            "TEXCOORD_1" : 11
          },
          "indices" : 6,
          "material" : 1
        }
      ],
      "name" : "S_Envi_Umeda_ExperienceCenter_01_B"
    }
  ],
  "buffers" : [
    {
      "uri" : "S_Envi_Umeda_ExperienceCenter_01_B.bin",
      "byteLength" : 275776
    }
  ],
  "bufferViews" : [
    {
      "buffer" : 0,
      "byteOffset" : 0,
      "byteLength" : 16464
    },
    {
      "buffer" : 0,
      "byteOffset" : 16464,
      "byteLength" : 55056
    },
    {
      "buffer" : 0,
      "byteOffset" : 71520,
      "byteLength" : 55056
    },
    {
      "buffer" : 0,
      "byteOffset" : 126576,
      "byteLength" : 73408
    },
    {
      "buffer" : 0,
      "byteOffset" : 199984,
      "byteLength" : 36704
    },
    {
      "buffer" : 0,
      "byteOffset" : 236688,
      "byteLength" : 36704
    },
    {
      "buffer" : 0,
      "byteOffset" : 273392,
      "byteLength" : 144
    },
    {
      "buffer" : 0,
      "byteOffset" : 273536,
      "byteLength" : 480
    },
    {
      "buffer" : 0,
      "byteOffset" : 274016,
      "byteLength" : 480
    },
    {
      "buffer" : 0,
      "byteOffset" : 274496,
      "byteLength" : 640
    },
    {
      "buffer" : 0,
      "byteOffset" : 275136,
      "byteLength" : 320
    },
    {
      "buffer" : 0,
      "byteOffset" : 275456,
      "byteLength" : 320
    }
  ],
  "accessors" : [
    {
      "bufferView" : 0,
      "componentType" : 5123,
      "count" : 8232,
      "type" : "SCALAR"
    },
    {
      "bufferView" : 1,
      "min" : [ -7.56665, -0.814182, -2.07491 ],
      "max" : [ 0.421879, 3.31745, 0.551155 ],
      "componentType" : 5126,
      "count" : 4588,
      "type" : "VEC3"
    },
    {
      "bufferView" : 2,
      "componentType" : 5126,
      "count" : 4588,
      "type" : "VEC3"
    },
    {
      "bufferView" : 3,
      "componentType" : 5126,
      "count" : 4588,
      "type" : "VEC4"
    },
    {
      "bufferView" : 4,
      "componentType" : 5126,
      "count" : 4588,
      "type" : "VEC2"
    },
    {
      "bufferView" : 5,
      "componentType" : 5126,
      "count" : 4588,
      "type" : "VEC2"
    },
    {
      "bufferView" : 6,
      "componentType" : 5123,
      "count" : 72,
      "type" : "SCALAR"
    },
    {
      "bufferView" : 7,
      "min" : [ -7.03279, -0.0253004, -0.116968 ],
      "max" : [ -0.265081, 2.36077, -0.0823158 ],
      "componentType" : 5126,
      "count" : 40,
      "type" : "VEC3"
    },
    {
      "bufferView" : 8,
      "componentType" : 5126,
      "count" : 40,
      "type" : "VEC3"
    },
    {
      "bufferView" : 9,
      "componentType" : 5126,
      "count" : 40,
      "type" : "VEC4"
    },
    {
      "bufferView" : 10,
      "componentType" : 5126,
      "count" : 40,
      "type" : "VEC2"
    },
    {
      "bufferView" : 11,
      "componentType" : 5126,
      "count" : 40,
      "type" : "VEC2"
    }
  ]
}
