{
  "asset" : {
    "generator" : "UE Viewer (umodel) build 1579 based",
    "version" : "2.0"
  },
  "scene" : 0,
  "scenes" : [
    {
      "nodes" : [ 0 ]
    }
  ],
  "nodes" : [
    {
      "name" : "S_Envi_Umeda_Japan_Column_02b",
      "mesh" : 0
    }
  ],
  "materials" : [
    {
      "name" : "MI_Envi_Umeda_japan_Temple_05",
      "pbrMetallicRoughness" : {
        "baseColorFactor" : [ 0.3, 0.3, 0.3, 1.0 ],
        "metallicFactor" : 0.1,
        "roughnessFactor" : 0.5
      }
    }
  ],
  "meshes" : [
    {
      "primitives" : [
        {
          "attributes" : {
            "POSITION" : 1,
            "NORMAL" : 2,
            "TANGENT" : 3,
            "TEXCOORD_0" : 4,
            "TEXCOORD_1" : 5,
            "TEXCOORD_2" : 6,
            "TEXCOORD_3" : 7
          },
          "indices" : 0,
          "material" : 0
        }
      ],
      "name" : "S_Envi_Umeda_Japan_Column_02b"
    }
  ],
  "buffers" : [
    {
      "uri" : "S_Envi_Umeda_Japan_Column_02b.bin",
      "byteLength" : 6060
    }
  ],
  "bufferViews" : [
    {
      "buffer" : 0,
      "byteOffset" : 0,
      "byteLength" : 300
    },
    {
      "buffer" : 0,
      "byteOffset" : 300,
      "byteLength" : 960
    },
    {
      "buffer" : 0,
      "byteOffset" : 1260,
      "byteLength" : 960
    },
    {
      "buffer" : 0,
      "byteOffset" : 2220,
      "byteLength" : 1280
    },
    {
      "buffer" : 0,
      "byteOffset" : 3500,
      "byteLength" : 640
    },
    {
      "buffer" : 0,
      "byteOffset" : 4140,
      "byteLength" : 640
    },
    {
      "buffer" : 0,
      "byteOffset" : 4780,
      "byteLength" : 640
    },
    {
      "buffer" : 0,
      "byteOffset" : 5420,
      "byteLength" : 640
    }
  ],
  "accessors" : [
    {
      "bufferView" : 0,
      "componentType" : 5123,
      "count" : 150,
      "type" : "SCALAR"
    },
    {
      "bufferView" : 1,
      "min" : [ -1.05096, -9.15527e-07, -0.157802 ],
      "max" : [ 0.645771, 5.27143, 1.83105e-06 ],
      "componentType" : 5126,
      "count" : 80,
      "type" : "VEC3"
    },
    {
      "bufferView" : 2,
      "componentType" : 5126,
      "count" : 80,
      "type" : "VEC3"
    },
    {
      "bufferView" : 3,
      "componentType" : 5126,
      "count" : 80,
      "type" : "VEC4"
    },
    {
      "bufferView" : 4,
      "componentType" : 5126,
      "count" : 80,
      "type" : "VEC2"
    },
    {
      "bufferView" : 5,
      "componentType" : 5126,
      "count" : 80,
      "type" : "VEC2"
    },
    {
      "bufferView" : 6,
      "componentType" : 5126,
      "count" : 80,
      "type" : "VEC2"
    },
    {
      "bufferView" : 7,
      "componentType" : 5126,
      "count" : 80,
      "type" : "VEC2"
    }
  ]
}
