{
  "asset" : {
    "generator" : "UE Viewer (umodel) build 1579 based",
    "version" : "2.0"
  },
  "scene" : 0,
  "scenes" : [
    {
      "nodes" : [ 0 ]
    }
  ],
  "nodes" : [
    {
      "name" : "S_Envi_Common_Parterre_Merge_01a",
      "mesh" : 0
    }
  ],
  "materials" : [
    {
      "name" : "MI_Envi_Common_Bathroom_Merge_01",
      "pbrMetallicRoughness" : {
        "baseColorFactor" : [ 0.3, 0.3, 0.3, 1.0 ],
        "metallicFactor" : 0.1,
        "roughnessFactor" : 0.5
      }
    }
  ],
  "meshes" : [
    {
      "primitives" : [
        {
          "attributes" : {
            "POSITION" : 1,
            "NORMAL" : 2,
            "TANGENT" : 3,
            "TEXCOORD_0" : 4,
            "TEXCOORD_1" : 5
          },
          "indices" : 0,
          "material" : 0
        }
      ],
      "name" : "S_Envi_Common_Parterre_Merge_01a"
    }
  ],
  "buffers" : [
    {
      "uri" : "S_Envi_Common_Parterre_Merge_01a.bin",
      "byteLength" : 125200
    }
  ],
  "bufferViews" : [
    {
      "buffer" : 0,
      "byteOffset" : 0,
      "byteLength" : 9168
    },
    {
      "buffer" : 0,
      "byteOffset" : 9168,
      "byteLength" : 24864
    },
    {
      "buffer" : 0,
      "byteOffset" : 34032,
      "byteLength" : 24864
    },
    {
      "buffer" : 0,
      "byteOffset" : 58896,
      "byteLength" : 33152
    },
    {
      "buffer" : 0,
      "byteOffset" : 92048,
      "byteLength" : 16576
    },
    {
      "buffer" : 0,
      "byteOffset" : 108624,
      "byteLength" : 16576
    }
  ],
  "accessors" : [
    {
      "bufferView" : 0,
      "componentType" : 5123,
      "count" : 4584,
      "type" : "SCALAR"
    },
    {
      "bufferView" : 1,
      "min" : [ 57.0146, 5.73648, 2.53869 ],
      "max" : [ 69.2412, 6.80215, 10.8653 ],
      "componentType" : 5126,
      "count" : 2072,
      "type" : "VEC3"
    },
    {
      "bufferView" : 2,
      "componentType" : 5126,
      "count" : 2072,
      "type" : "VEC3"
    },
    {
      "bufferView" : 3,
      "componentType" : 5126,
      "count" : 2072,
      "type" : "VEC4"
    },
    {
      "bufferView" : 4,
      "componentType" : 5126,
      "count" : 2072,
      "type" : "VEC2"
    },
    {
      "bufferView" : 5,
      "componentType" : 5126,
      "count" : 2072,
      "type" : "VEC2"
    }
  ]
}
