{
  "asset" : {
    "generator" : "UE Viewer (umodel) build 1579 based",
    "version" : "2.0"
  },
  "scene" : 0,
  "scenes" : [
    {
      "nodes" : [ 0 ]
    }
  ],
  "nodes" : [
    {
      "name" : "S_Envi_Umeda_Gamemachine_02a",
      "mesh" : 0
    }
  ],
  "materials" : [
    {
      "name" : "MI_Envi_Umeda_Gamemachine_01",
      "pbrMetallicRoughness" : {
        "baseColorFactor" : [ 0.3, 0.3, 0.3, 1.0 ],
        "metallicFactor" : 0.1,
        "roughnessFactor" : 0.5
      }
    }
  ],
  "meshes" : [
    {
      "primitives" : [
        {
          "attributes" : {
            "POSITION" : 1,
            "NORMAL" : 2,
            "TANGENT" : 3,
            "TEXCOORD_0" : 4,
            "TEXCOORD_1" : 5
          },
          "indices" : 0,
          "material" : 0
        }
      ],
      "name" : "S_Envi_Umeda_Gamemachine_02a"
    }
  ],
  "buffers" : [
    {
      "uri" : "S_Envi_Umeda_Gamemachine_02a.bin",
      "byteLength" : 108052
    }
  ],
  "bufferViews" : [
    {
      "buffer" : 0,
      "byteOffset" : 0,
      "byteLength" : 9212
    },
    {
      "buffer" : 0,
      "byteOffset" : 9212,
      "byteLength" : 21180
    },
    {
      "buffer" : 0,
      "byteOffset" : 30392,
      "byteLength" : 21180
    },
    {
      "buffer" : 0,
      "byteOffset" : 51572,
      "byteLength" : 28240
    },
    {
      "buffer" : 0,
      "byteOffset" : 79812,
      "byteLength" : 14120
    },
    {
      "buffer" : 0,
      "byteOffset" : 93932,
      "byteLength" : 14120
    }
  ],
  "accessors" : [
    {
      "bufferView" : 0,
      "componentType" : 5123,
      "count" : 4605,
      "type" : "SCALAR"
    },
    {
      "bufferView" : 1,
      "min" : [ -0.59906, -1.7433e-07, -6.20326e-15 ],
      "max" : [ 0.59906, 2.59574, 0.997671 ],
      "componentType" : 5126,
      "count" : 1765,
      "type" : "VEC3"
    },
    {
      "bufferView" : 2,
      "componentType" : 5126,
      "count" : 1765,
      "type" : "VEC3"
    },
    {
      "bufferView" : 3,
      "componentType" : 5126,
      "count" : 1765,
      "type" : "VEC4"
    },
    {
      "bufferView" : 4,
      "componentType" : 5126,
      "count" : 1765,
      "type" : "VEC2"
    },
    {
      "bufferView" : 5,
      "componentType" : 5126,
      "count" : 1765,
      "type" : "VEC2"
    }
  ]
}
