{
  "asset" : {
    "generator" : "UE Viewer (umodel) build 1579 based",
    "version" : "2.0"
  },
  "scene" : 0,
  "scenes" : [
    {
      "nodes" : [ 0 ]
    }
  ],
  "nodes" : [
    {
      "name" : "S_Envi_Umeda_FrontDesk_01b",
      "mesh" : 0
    }
  ],
  "materials" : [
    {
      "name" : "MI_Envi_QYDX_Securicar_01_03_Inst",
      "pbrMetallicRoughness" : {
        "baseColorFactor" : [ 0.3, 0.3, 0.3, 1.0 ],
        "metallicFactor" : 0.1,
        "roughnessFactor" : 0.5
      }
    },
    {
      "name" : "MI_PM_Glass_02i",
      "pbrMetallicRoughness" : {
        "baseColorFactor" : [ 0.9, 0.3, 0.3, 1.0 ],
        "metallicFactor" : 0.1,
        "roughnessFactor" : 0.5
      }
    }
  ],
  "meshes" : [
    {
      "primitives" : [
        {
          "attributes" : {
            "POSITION" : 1,
            "NORMAL" : 2,
            "TANGENT" : 3,
            "TEXCOORD_0" : 4,
            "TEXCOORD_1" : 5
          },
          "indices" : 0,
          "material" : 0
        },
        {
          "attributes" : {
            "POSITION" : 7,
            "NORMAL" : 8,
            "TANGENT" : 9,
            "TEXCOORD_0" : 10,
            "TEXCOORD_1" : 11
          },
          "indices" : 6,
          "material" : 1
        }
      ],
      "name" : "S_Envi_Umeda_FrontDesk_01b"
    }
  ],
  "buffers" : [
    {
      "uri" : "S_Envi_Umeda_FrontDesk_01b.bin",
      "byteLength" : 7568
    }
  ],
  "bufferViews" : [
    {
      "buffer" : 0,
      "byteOffset" : 0,
      "byteLength" : 24
    },
    {
      "buffer" : 0,
      "byteOffset" : 24,
      "byteLength" : 96
    },
    {
      "buffer" : 0,
      "byteOffset" : 120,
      "byteLength" : 96
    },
    {
      "buffer" : 0,
      "byteOffset" : 216,
      "byteLength" : 128
    },
    {
      "buffer" : 0,
      "byteOffset" : 344,
      "byteLength" : 64
    },
    {
      "buffer" : 0,
      "byteOffset" : 408,
      "byteLength" : 64
    },
    {
      "buffer" : 0,
      "byteOffset" : 472,
      "byteLength" : 600
    },
    {
      "buffer" : 0,
      "byteOffset" : 1072,
      "byteLength" : 1392
    },
    {
      "buffer" : 0,
      "byteOffset" : 2464,
      "byteLength" : 1392
    },
    {
      "buffer" : 0,
      "byteOffset" : 3856,
      "byteLength" : 1856
    },
    {
      "buffer" : 0,
      "byteOffset" : 5712,
      "byteLength" : 928
    },
    {
      "buffer" : 0,
      "byteOffset" : 6640,
      "byteLength" : 928
    }
  ],
  "accessors" : [
    {
      "bufferView" : 0,
      "componentType" : 5123,
      "count" : 12,
      "type" : "SCALAR"
    },
    {
      "bufferView" : 1,
      "min" : [ -1.79368, 0.209309, 0.094519 ],
      "max" : [ -0.967487, 0.553409, 0.923282 ],
      "componentType" : 5126,
      "count" : 8,
      "type" : "VEC3"
    },
    {
      "bufferView" : 2,
      "componentType" : 5126,
      "count" : 8,
      "type" : "VEC3"
    },
    {
      "bufferView" : 3,
      "componentType" : 5126,
      "count" : 8,
      "type" : "VEC4"
    },
    {
      "bufferView" : 4,
      "componentType" : 5126,
      "count" : 8,
      "type" : "VEC2"
    },
    {
      "bufferView" : 5,
      "componentType" : 5126,
      "count" : 8,
      "type" : "VEC2"
    },
    {
      "bufferView" : 6,
      "componentType" : 5123,
      "count" : 300,
      "type" : "SCALAR"
    },
    {
      "bufferView" : 7,
      "min" : [ -1.79822, 0.178961, 0.0361258 ],
      "max" : [ 1.32439, 0.998717, 0.926534 ],
      "componentType" : 5126,
      "count" : 116,
      "type" : "VEC3"
    },
    {
      "bufferView" : 8,
      "componentType" : 5126,
      "count" : 116,
      "type" : "VEC3"
    },
    {
      "bufferView" : 9,
      "componentType" : 5126,
      "count" : 116,
      "type" : "VEC4"
    },
    {
      "bufferView" : 10,
      "componentType" : 5126,
      "count" : 116,
      "type" : "VEC2"
    },
    {
      "bufferView" : 11,
      "componentType" : 5126,
      "count" : 116,
      "type" : "VEC2"
    }
  ]
}
