{
  "asset" : {
    "generator" : "UE Viewer (umodel) build 1579 based",
    "version" : "2.0"
  },
  "scene" : 0,
  "scenes" : [
    {
      "nodes" : [ 0 ]
    }
  ],
  "nodes" : [
    {
      "name" : "S_Envi_Umeda_Prop_Machine_01",
      "mesh" : 0
    }
  ],
  "materials" : [
    {
      "name" : "MI_Envi_Umeda_Prop_Light_01",
      "pbrMetallicRoughness" : {
        "baseColorFactor" : [ 0.3, 0.3, 0.3, 1.0 ],
        "metallicFactor" : 0.1,
        "roughnessFactor" : 0.5
      }
    }
  ],
  "meshes" : [
    {
      "primitives" : [
        {
          "attributes" : {
            "POSITION" : 1,
            "NORMAL" : 2,
            "TANGENT" : 3,
            "TEXCOORD_0" : 4,
            "TEXCOORD_1" : 5
          },
          "indices" : 0,
          "material" : 0
        }
      ],
      "name" : "S_Envi_Umeda_Prop_Machine_01"
    }
  ],
  "buffers" : [
    {
      "uri" : "S_Envi_Umeda_Prop_Machine_01.bin",
      "byteLength" : 28796
    }
  ],
  "bufferViews" : [
    {
      "buffer" : 0,
      "byteOffset" : 0,
      "byteLength" : 2364
    },
    {
      "buffer" : 0,
      "byteOffset" : 2364,
      "byteLength" : 5664
    },
    {
      "buffer" : 0,
      "byteOffset" : 8028,
      "byteLength" : 5664
    },
    {
      "buffer" : 0,
      "byteOffset" : 13692,
      "byteLength" : 7552
    },
    {
      "buffer" : 0,
      "byteOffset" : 21244,
      "byteLength" : 3776
    },
    {
      "buffer" : 0,
      "byteOffset" : 25020,
      "byteLength" : 3776
    }
  ],
  "accessors" : [
    {
      "bufferView" : 0,
      "componentType" : 5123,
      "count" : 1182,
      "type" : "SCALAR"
    },
    {
      "bufferView" : 1,
      "min" : [ -0.91646, -0.552644, -0.719551 ],
      "max" : [ 0.91646, 1.21165, 0.776445 ],
      "componentType" : 5126,
      "count" : 472,
      "type" : "VEC3"
    },
    {
      "bufferView" : 2,
      "componentType" : 5126,
      "count" : 472,
      "type" : "VEC3"
    },
    {
      "bufferView" : 3,
      "componentType" : 5126,
      "count" : 472,
      "type" : "VEC4"
    },
    {
      "bufferView" : 4,
      "componentType" : 5126,
      "count" : 472,
      "type" : "VEC2"
    },
    {
      "bufferView" : 5,
      "componentType" : 5126,
      "count" : 472,
      "type" : "VEC2"
    }
  ]
}
