{
  "asset" : {
    "generator" : "UE Viewer (umodel) build 1579 based",
    "version" : "2.0"
  },
  "scene" : 0,
  "scenes" : [
    {
      "nodes" : [ 0 ]
    }
  ],
  "nodes" : [
    {
      "name" : "S_Envi_Umeda_Prop_Container_01_B",
      "mesh" : 0
    }
  ],
  "materials" : [
    {
      "name" : "MI_Envi_Umeda_Prop_Container_02",
      "pbrMetallicRoughness" : {
        "baseColorFactor" : [ 0.3, 0.3, 0.3, 1.0 ],
        "metallicFactor" : 0.1,
        "roughnessFactor" : 0.5
      }
    }
  ],
  "meshes" : [
    {
      "primitives" : [
        {
          "attributes" : {
            "POSITION" : 1,
            "NORMAL" : 2,
            "TANGENT" : 3,
            "TEXCOORD_0" : 4,
            "TEXCOORD_1" : 5
          },
          "indices" : 0,
          "material" : 0
        }
      ],
      "name" : "S_Envi_Umeda_Prop_Container_01_B"
    }
  ],
  "buffers" : [
    {
      "uri" : "S_Envi_Umeda_Prop_Container_01_B.bin",
      "byteLength" : 64240
    }
  ],
  "bufferViews" : [
    {
      "buffer" : 0,
      "byteOffset" : 0,
      "byteLength" : 3984
    },
    {
      "buffer" : 0,
      "byteOffset" : 3984,
      "byteLength" : 12912
    },
    {
      "buffer" : 0,
      "byteOffset" : 16896,
      "byteLength" : 12912
    },
    {
      "buffer" : 0,
      "byteOffset" : 29808,
      "byteLength" : 17216
    },
    {
      "buffer" : 0,
      "byteOffset" : 47024,
      "byteLength" : 8608
    },
    {
      "buffer" : 0,
      "byteOffset" : 55632,
      "byteLength" : 8608
    }
  ],
  "accessors" : [
    {
      "bufferView" : 0,
      "componentType" : 5123,
      "count" : 1992,
      "type" : "SCALAR"
    },
    {
      "bufferView" : 1,
      "min" : [ 0, 0, -1.04612e-16 ],
      "max" : [ 8.204, 1.70845, 2.87639 ],
      "componentType" : 5126,
      "count" : 1076,
      "type" : "VEC3"
    },
    {
      "bufferView" : 2,
      "componentType" : 5126,
      "count" : 1076,
      "type" : "VEC3"
    },
    {
      "bufferView" : 3,
      "componentType" : 5126,
      "count" : 1076,
      "type" : "VEC4"
    },
    {
      "bufferView" : 4,
      "componentType" : 5126,
      "count" : 1076,
      "type" : "VEC2"
    },
    {
      "bufferView" : 5,
      "componentType" : 5126,
      "count" : 1076,
      "type" : "VEC2"
    }
  ]
}
