{
  "asset" : {
    "generator" : "UE Viewer (umodel) build 1579 based",
    "version" : "2.0"
  },
  "scene" : 0,
  "scenes" : [
    {
      "nodes" : [ 0 ]
    }
  ],
  "nodes" : [
    {
      "name" : "S_Envi_Umeda_hall_21",
      "mesh" : 0
    }
  ],
  "materials" : [
    {
      "name" : "MI_Envi_Umeda_Module_06_E",
      "pbrMetallicRoughness" : {
        "baseColorFactor" : [ 0.3, 0.3, 0.3, 1.0 ],
        "metallicFactor" : 0.1,
        "roughnessFactor" : 0.5
      }
    }
  ],
  "meshes" : [
    {
      "primitives" : [
        {
          "attributes" : {
            "POSITION" : 1,
            "NORMAL" : 2,
            "TANGENT" : 3,
            "TEXCOORD_0" : 4,
            "TEXCOORD_1" : 5
          },
          "indices" : 0,
          "material" : 0
        }
      ],
      "name" : "S_Envi_Umeda_hall_21"
    }
  ],
  "buffers" : [
    {
      "uri" : "S_Envi_Umeda_hall_21.bin",
      "byteLength" : 2248
    }
  ],
  "bufferViews" : [
    {
      "buffer" : 0,
      "byteOffset" : 0,
      "byteLength" : 120
    },
    {
      "buffer" : 0,
      "byteOffset" : 120,
      "byteLength" : 456
    },
    {
      "buffer" : 0,
      "byteOffset" : 576,
      "byteLength" : 456
    },
    {
      "buffer" : 0,
      "byteOffset" : 1032,
      "byteLength" : 608
    },
    {
      "buffer" : 0,
      "byteOffset" : 1640,
      "byteLength" : 304
    },
    {
      "buffer" : 0,
      "byteOffset" : 1944,
      "byteLength" : 304
    }
  ],
  "accessors" : [
    {
      "bufferView" : 0,
      "componentType" : 5123,
      "count" : 60,
      "type" : "SCALAR"
    },
    {
      "bufferView" : 1,
      "min" : [ -2.00108, -0.598059, -0.843538 ],
      "max" : [ 2.00108, 0.598059, 0.843536 ],
      "componentType" : 5126,
      "count" : 38,
      "type" : "VEC3"
    },
    {
      "bufferView" : 2,
      "componentType" : 5126,
      "count" : 38,
      "type" : "VEC3"
    },
    {
      "bufferView" : 3,
      "componentType" : 5126,
      "count" : 38,
      "type" : "VEC4"
    },
    {
      "bufferView" : 4,
      "componentType" : 5126,
      "count" : 38,
      "type" : "VEC2"
    },
    {
      "bufferView" : 5,
      "componentType" : 5126,
      "count" : 38,
      "type" : "VEC2"
    }
  ]
}
