{
  "asset" : {
    "generator" : "UE Viewer (umodel) build 1579 based",
    "version" : "2.0"
  },
  "scene" : 0,
  "scenes" : [
    {
      "nodes" : [ 0 ]
    }
  ],
  "nodes" : [
    {
      "name" : "S_Envi_Umeda_Aspot_structuralsteel_09",
      "mesh" : 0
    }
  ],
  "materials" : [
    {
      "name" : "MI_Envi_Umeda_Aspot_Merge_01",
      "pbrMetallicRoughness" : {
        "baseColorFactor" : [ 0.3, 0.3, 0.3, 1.0 ],
        "metallicFactor" : 0.1,
        "roughnessFactor" : 0.5
      }
    },
    {
      "name" : "MI_Envi_Umeda_Prop_Frame_01",
      "pbrMetallicRoughness" : {
        "baseColorFactor" : [ 0.9, 0.3, 0.3, 1.0 ],
        "metallicFactor" : 0.1,
        "roughnessFactor" : 0.5
      }
    }
  ],
  "meshes" : [
    {
      "primitives" : [
        {
          "attributes" : {
            "POSITION" : 1,
            "NORMAL" : 2,
            "TANGENT" : 3,
            "TEXCOORD_0" : 4,
            "TEXCOORD_1" : 5
          },
          "indices" : 0,
          "material" : 0
        },
        {
          "attributes" : {
            "POSITION" : 7,
            "NORMAL" : 8,
            "TANGENT" : 9,
            "TEXCOORD_0" : 10,
            "TEXCOORD_1" : 11
          },
          "indices" : 6,
          "material" : 1
        }
      ],
      "name" : "S_Envi_Umeda_Aspot_structuralsteel_09"
    }
  ],
  "buffers" : [
    {
      "uri" : "S_Envi_Umeda_Aspot_structuralsteel_09.bin",
      "byteLength" : 154584
    }
  ],
  "bufferViews" : [
    {
      "buffer" : 0,
      "byteOffset" : 0,
      "byteLength" : 8760
    },
    {
      "buffer" : 0,
      "byteOffset" : 8760,
      "byteLength" : 16248
    },
    {
      "buffer" : 0,
      "byteOffset" : 25008,
      "byteLength" : 16248
    },
    {
      "buffer" : 0,
      "byteOffset" : 41256,
      "byteLength" : 21664
    },
    {
      "buffer" : 0,
      "byteOffset" : 62920,
      "byteLength" : 10832
    },
    {
      "buffer" : 0,
      "byteOffset" : 73752,
      "byteLength" : 10832
    },
    {
      "buffer" : 0,
      "byteOffset" : 84584,
      "byteLength" : 4368
    },
    {
      "buffer" : 0,
      "byteOffset" : 88952,
      "byteLength" : 14064
    },
    {
      "buffer" : 0,
      "byteOffset" : 103016,
      "byteLength" : 14064
    },
    {
      "buffer" : 0,
      "byteOffset" : 117080,
      "byteLength" : 18752
    },
    {
      "buffer" : 0,
      "byteOffset" : 135832,
      "byteLength" : 9376
    },
    {
      "buffer" : 0,
      "byteOffset" : 145208,
      "byteLength" : 9376
    }
  ],
  "accessors" : [
    {
      "bufferView" : 0,
      "componentType" : 5123,
      "count" : 4380,
      "type" : "SCALAR"
    },
    {
      "bufferView" : 1,
      "min" : [ -1.25922, 1.01082, -3.37673 ],
      "max" : [ 0.134434, 11.7208, -0.849829 ],
      "componentType" : 5126,
      "count" : 1354,
      "type" : "VEC3"
    },
    {
      "bufferView" : 2,
      "componentType" : 5126,
      "count" : 1354,
      "type" : "VEC3"
    },
    {
      "bufferView" : 3,
      "componentType" : 5126,
      "count" : 1354,
      "type" : "VEC4"
    },
    {
      "bufferView" : 4,
      "componentType" : 5126,
      "count" : 1354,
      "type" : "VEC2"
    },
    {
      "bufferView" : 5,
      "componentType" : 5126,
      "count" : 1354,
      "type" : "VEC2"
    },
    {
      "bufferView" : 6,
      "componentType" : 5123,
      "count" : 2184,
      "type" : "SCALAR"
    },
    {
      "bufferView" : 7,
      "min" : [ -1.36903, -4.84744e-16, -3.95823 ],
      "max" : [ 0.0569775, 12.1234, -0 ],
      "componentType" : 5126,
      "count" : 1172,
      "type" : "VEC3"
    },
    {
      "bufferView" : 8,
      "componentType" : 5126,
      "count" : 1172,
      "type" : "VEC3"
    },
    {
      "bufferView" : 9,
      "componentType" : 5126,
      "count" : 1172,
      "type" : "VEC4"
    },
    {
      "bufferView" : 10,
      "componentType" : 5126,
      "count" : 1172,
      "type" : "VEC2"
    },
    {
      "bufferView" : 11,
      "componentType" : 5126,
      "count" : 1172,
      "type" : "VEC2"
    }
  ]
}
