{
  "asset" : {
    "generator" : "UE Viewer (umodel) build 1579 based",
    "version" : "2.0"
  },
  "scene" : 0,
  "scenes" : [
    {
      "nodes" : [ 0 ]
    }
  ],
  "nodes" : [
    {
      "name" : "S_Envi_Umeda_Pillar_02c",
      "mesh" : 0
    }
  ],
  "materials" : [
    {
      "name" : "MI_Envi_Umeda_Base_Pillar_01",
      "pbrMetallicRoughness" : {
        "baseColorFactor" : [ 0.3, 0.3, 0.3, 1.0 ],
        "metallicFactor" : 0.1,
        "roughnessFactor" : 0.5
      }
    }
  ],
  "meshes" : [
    {
      "primitives" : [
        {
          "attributes" : {
            "POSITION" : 1,
            "NORMAL" : 2,
            "TANGENT" : 3,
            "TEXCOORD_0" : 4,
            "TEXCOORD_1" : 5
          },
          "indices" : 0,
          "material" : 0
        }
      ],
      "name" : "S_Envi_Umeda_Pillar_02c"
    }
  ],
  "buffers" : [
    {
      "uri" : "S_Envi_Umeda_Pillar_02c.bin",
      "byteLength" : 21632
    }
  ],
  "bufferViews" : [
    {
      "buffer" : 0,
      "byteOffset" : 0,
      "byteLength" : 1920
    },
    {
      "buffer" : 0,
      "byteOffset" : 1920,
      "byteLength" : 4224
    },
    {
      "buffer" : 0,
      "byteOffset" : 6144,
      "byteLength" : 4224
    },
    {
      "buffer" : 0,
      "byteOffset" : 10368,
      "byteLength" : 5632
    },
    {
      "buffer" : 0,
      "byteOffset" : 16000,
      "byteLength" : 2816
    },
    {
      "buffer" : 0,
      "byteOffset" : 18816,
      "byteLength" : 2816
    }
  ],
  "accessors" : [
    {
      "bufferView" : 0,
      "componentType" : 5123,
      "count" : 960,
      "type" : "SCALAR"
    },
    {
      "bufferView" : 1,
      "min" : [ -1.5453, -0.255646, -1.37977 ],
      "max" : [ 1.54523, 0.302767, 1.37932 ],
      "componentType" : 5126,
      "count" : 352,
      "type" : "VEC3"
    },
    {
      "bufferView" : 2,
      "componentType" : 5126,
      "count" : 352,
      "type" : "VEC3"
    },
    {
      "bufferView" : 3,
      "componentType" : 5126,
      "count" : 352,
      "type" : "VEC4"
    },
    {
      "bufferView" : 4,
      "componentType" : 5126,
      "count" : 352,
      "type" : "VEC2"
    },
    {
      "bufferView" : 5,
      "componentType" : 5126,
      "count" : 352,
      "type" : "VEC2"
    }
  ]
}
