{
  "asset" : {
    "generator" : "UE Viewer (umodel) build 1579 based",
    "version" : "2.0"
  },
  "scene" : 0,
  "scenes" : [
    {
      "nodes" : [ 0 ]
    }
  ],
  "nodes" : [
    {
      "name" : "S_Envi_Umeda_Gamemachine_01a",
      "mesh" : 0
    }
  ],
  "materials" : [
    {
      "name" : "MI_Envi_Umeda_Gamemachine_01",
      "pbrMetallicRoughness" : {
        "baseColorFactor" : [ 0.3, 0.3, 0.3, 1.0 ],
        "metallicFactor" : 0.1,
        "roughnessFactor" : 0.5
      }
    },
    {
      "name" : "MI_Envi_Umeda_Gamemachine_01a",
      "pbrMetallicRoughness" : {
        "baseColorFactor" : [ 0.9, 0.3, 0.3, 1.0 ],
        "metallicFactor" : 0.1,
        "roughnessFactor" : 0.5
      }
    }
  ],
  "meshes" : [
    {
      "primitives" : [
        {
          "attributes" : {
            "POSITION" : 1,
            "NORMAL" : 2,
            "TANGENT" : 3,
            "TEXCOORD_0" : 4,
            "TEXCOORD_1" : 5
          },
          "indices" : 0,
          "material" : 0
        },
        {
          "attributes" : {
            "POSITION" : 7,
            "NORMAL" : 8,
            "TANGENT" : 9,
            "TEXCOORD_0" : 10,
            "TEXCOORD_1" : 11
          },
          "indices" : 6,
          "material" : 1
        }
      ],
      "name" : "S_Envi_Umeda_Gamemachine_01a"
    }
  ],
  "buffers" : [
    {
      "uri" : "S_Envi_Umeda_Gamemachine_01a.bin",
      "byteLength" : 80396
    }
  ],
  "bufferViews" : [
    {
      "buffer" : 0,
      "byteOffset" : 0,
      "byteLength" : 7236
    },
    {
      "buffer" : 0,
      "byteOffset" : 7236,
      "byteLength" : 15600
    },
    {
      "buffer" : 0,
      "byteOffset" : 22836,
      "byteLength" : 15600
    },
    {
      "buffer" : 0,
      "byteOffset" : 38436,
      "byteLength" : 20800
    },
    {
      "buffer" : 0,
      "byteOffset" : 59236,
      "byteLength" : 10400
    },
    {
      "buffer" : 0,
      "byteOffset" : 69636,
      "byteLength" : 10400
    },
    {
      "buffer" : 0,
      "byteOffset" : 80036,
      "byteLength" : 24
    },
    {
      "buffer" : 0,
      "byteOffset" : 80060,
      "byteLength" : 72
    },
    {
      "buffer" : 0,
      "byteOffset" : 80132,
      "byteLength" : 72
    },
    {
      "buffer" : 0,
      "byteOffset" : 80204,
      "byteLength" : 96
    },
    {
      "buffer" : 0,
      "byteOffset" : 80300,
      "byteLength" : 48
    },
    {
      "buffer" : 0,
      "byteOffset" : 80348,
      "byteLength" : 48
    }
  ],
  "accessors" : [
    {
      "bufferView" : 0,
      "componentType" : 5123,
      "count" : 3618,
      "type" : "SCALAR"
    },
    {
      "bufferView" : 1,
      "min" : [ -0.59906, -6.46973e-05, -6.82121e-15 ],
      "max" : [ 0.59906, 2.59574, 0.997671 ],
      "componentType" : 5126,
      "count" : 1300,
      "type" : "VEC3"
    },
    {
      "bufferView" : 2,
      "componentType" : 5126,
      "count" : 1300,
      "type" : "VEC3"
    },
    {
      "bufferView" : 3,
      "componentType" : 5126,
      "count" : 1300,
      "type" : "VEC4"
    },
    {
      "bufferView" : 4,
      "componentType" : 5126,
      "count" : 1300,
      "type" : "VEC2"
    },
    {
      "bufferView" : 5,
      "componentType" : 5126,
      "count" : 1300,
      "type" : "VEC2"
    },
    {
      "bufferView" : 6,
      "componentType" : 5123,
      "count" : 12,
      "type" : "SCALAR"
    },
    {
      "bufferView" : 7,
      "min" : [ -0.364004, 1.39759, 0.260648 ],
      "max" : [ 0.376226, 1.786, 0.449327 ],
      "componentType" : 5126,
      "count" : 6,
      "type" : "VEC3"
    },
    {
      "bufferView" : 8,
      "componentType" : 5126,
      "count" : 6,
      "type" : "VEC3"
    },
    {
      "bufferView" : 9,
      "componentType" : 5126,
      "count" : 6,
      "type" : "VEC4"
    },
    {
      "bufferView" : 10,
      "componentType" : 5126,
      "count" : 6,
      "type" : "VEC2"
    },
    {
      "bufferView" : 11,
      "componentType" : 5126,
      "count" : 6,
      "type" : "VEC2"
    }
  ]
}
