{
  "asset" : {
    "generator" : "UE Viewer (umodel) build 1579 based",
    "version" : "2.0"
  },
  "scene" : 0,
  "scenes" : [
    {
      "nodes" : [ 0 ]
    }
  ],
  "nodes" : [
    {
      "name" : "S_Envi_Umeda_doorsign_01",
      "mesh" : 0
    }
  ],
  "materials" : [
    {
      "name" : "MI_Envi_Umeda_doorsign_01",
      "pbrMetallicRoughness" : {
        "baseColorFactor" : [ 0.3, 0.3, 0.3, 1.0 ],
        "metallicFactor" : 0.1,
        "roughnessFactor" : 0.5
      }
    }
  ],
  "meshes" : [
    {
      "primitives" : [
        {
          "attributes" : {
            "POSITION" : 1,
            "NORMAL" : 2,
            "TANGENT" : 3,
            "TEXCOORD_0" : 4,
            "TEXCOORD_1" : 5
          },
          "indices" : 0,
          "material" : 0
        }
      ],
      "name" : "S_Envi_Umeda_doorsign_01"
    }
  ],
  "buffers" : [
    {
      "uri" : "S_Envi_Umeda_doorsign_01.bin",
      "byteLength" : 51836
    }
  ],
  "bufferViews" : [
    {
      "buffer" : 0,
      "byteOffset" : 0,
      "byteLength" : 6644
    },
    {
      "buffer" : 0,
      "byteOffset" : 6644,
      "byteLength" : 9684
    },
    {
      "buffer" : 0,
      "byteOffset" : 16328,
      "byteLength" : 9684
    },
    {
      "buffer" : 0,
      "byteOffset" : 26012,
      "byteLength" : 12912
    },
    {
      "buffer" : 0,
      "byteOffset" : 38924,
      "byteLength" : 6456
    },
    {
      "buffer" : 0,
      "byteOffset" : 45380,
      "byteLength" : 6456
    }
  ],
  "accessors" : [
    {
      "bufferView" : 0,
      "componentType" : 5123,
      "count" : 3321,
      "type" : "SCALAR"
    },
    {
      "bufferView" : 1,
      "min" : [ -1.47168, 4.21758e-08, -1.47168 ],
      "max" : [ 1.47168, 0.995929, 1.47168 ],
      "componentType" : 5126,
      "count" : 807,
      "type" : "VEC3"
    },
    {
      "bufferView" : 2,
      "componentType" : 5126,
      "count" : 807,
      "type" : "VEC3"
    },
    {
      "bufferView" : 3,
      "componentType" : 5126,
      "count" : 807,
      "type" : "VEC4"
    },
    {
      "bufferView" : 4,
      "componentType" : 5126,
      "count" : 807,
      "type" : "VEC2"
    },
    {
      "bufferView" : 5,
      "componentType" : 5126,
      "count" : 807,
      "type" : "VEC2"
    }
  ]
}
