{
  "asset" : {
    "generator" : "UE Viewer (umodel) build 1579 based",
    "version" : "2.0"
  },
  "scene" : 0,
  "scenes" : [
    {
      "nodes" : [ 0 ]
    }
  ],
  "nodes" : [
    {
      "name" : "S_Envi_Umeda_Base_Ladder_02d",
      "mesh" : 0
    }
  ],
  "materials" : [
    {
      "name" : "MI_Envi_Umeda_Base_Ladder_01",
      "pbrMetallicRoughness" : {
        "baseColorFactor" : [ 0.3, 0.3, 0.3, 1.0 ],
        "metallicFactor" : 0.1,
        "roughnessFactor" : 0.5
      }
    }
  ],
  "meshes" : [
    {
      "primitives" : [
        {
          "attributes" : {
            "POSITION" : 1,
            "NORMAL" : 2,
            "TANGENT" : 3,
            "TEXCOORD_0" : 4,
            "TEXCOORD_1" : 5
          },
          "indices" : 0,
          "material" : 0
        }
      ],
      "name" : "S_Envi_Umeda_Base_Ladder_02d"
    }
  ],
  "buffers" : [
    {
      "uri" : "S_Envi_Umeda_Base_Ladder_02d.bin",
      "byteLength" : 10172
    }
  ],
  "bufferViews" : [
    {
      "buffer" : 0,
      "byteOffset" : 0,
      "byteLength" : 708
    },
    {
      "buffer" : 0,
      "byteOffset" : 708,
      "byteLength" : 2028
    },
    {
      "buffer" : 0,
      "byteOffset" : 2736,
      "byteLength" : 2028
    },
    {
      "buffer" : 0,
      "byteOffset" : 4764,
      "byteLength" : 2704
    },
    {
      "buffer" : 0,
      "byteOffset" : 7468,
      "byteLength" : 1352
    },
    {
      "buffer" : 0,
      "byteOffset" : 8820,
      "byteLength" : 1352
    }
  ],
  "accessors" : [
    {
      "bufferView" : 0,
      "componentType" : 5123,
      "count" : 354,
      "type" : "SCALAR"
    },
    {
      "bufferView" : 1,
      "min" : [ -5.96456, -0.0665635, -2.86696 ],
      "max" : [ 0, 0.0798342, 2.92151e-18 ],
      "componentType" : 5126,
      "count" : 169,
      "type" : "VEC3"
    },
    {
      "bufferView" : 2,
      "componentType" : 5126,
      "count" : 169,
      "type" : "VEC3"
    },
    {
      "bufferView" : 3,
      "componentType" : 5126,
      "count" : 169,
      "type" : "VEC4"
    },
    {
      "bufferView" : 4,
      "componentType" : 5126,
      "count" : 169,
      "type" : "VEC2"
    },
    {
      "bufferView" : 5,
      "componentType" : 5126,
      "count" : 169,
      "type" : "VEC2"
    }
  ]
}
