{
  "asset" : {
    "generator" : "UE Viewer (umodel) build 1579 based",
    "version" : "2.0"
  },
  "scene" : 0,
  "scenes" : [
    {
      "nodes" : [ 0 ]
    }
  ],
  "nodes" : [
    {
      "name" : "S_Envi_Umeda_Prop_Container_07a_Logo",
      "mesh" : 0
    }
  ],
  "materials" : [
    {
      "name" : "MI_Envi_Umeda_Prop_Container_03",
      "pbrMetallicRoughness" : {
        "baseColorFactor" : [ 0.3, 0.3, 0.3, 1.0 ],
        "metallicFactor" : 0.1,
        "roughnessFactor" : 0.5
      }
    },
    {
      "name" : "MI_PM_Glass_02h",
      "pbrMetallicRoughness" : {
        "baseColorFactor" : [ 0.9, 0.3, 0.3, 1.0 ],
        "metallicFactor" : 0.1,
        "roughnessFactor" : 0.5
      }
    }
  ],
  "meshes" : [
    {
      "primitives" : [
        {
          "attributes" : {
            "POSITION" : 1,
            "NORMAL" : 2,
            "TANGENT" : 3,
            "TEXCOORD_0" : 4,
            "TEXCOORD_1" : 5,
            "TEXCOORD_2" : 6
          },
          "indices" : 0,
          "material" : 0
        },
        {
          "attributes" : {
            "POSITION" : 8,
            "NORMAL" : 9,
            "TANGENT" : 10,
            "TEXCOORD_0" : 11,
            "TEXCOORD_1" : 12,
            "TEXCOORD_2" : 13
          },
          "indices" : 7,
          "material" : 1
        }
      ],
      "name" : "S_Envi_Umeda_Prop_Container_07a_Logo"
    }
  ],
  "buffers" : [
    {
      "uri" : "S_Envi_Umeda_Prop_Container_07a_Logo.bin",
      "byteLength" : 40688
    }
  ],
  "bufferViews" : [
    {
      "buffer" : 0,
      "byteOffset" : 0,
      "byteLength" : 1536
    },
    {
      "buffer" : 0,
      "byteOffset" : 1536,
      "byteLength" : 6336
    },
    {
      "buffer" : 0,
      "byteOffset" : 7872,
      "byteLength" : 6336
    },
    {
      "buffer" : 0,
      "byteOffset" : 14208,
      "byteLength" : 8448
    },
    {
      "buffer" : 0,
      "byteOffset" : 22656,
      "byteLength" : 4224
    },
    {
      "buffer" : 0,
      "byteOffset" : 26880,
      "byteLength" : 4224
    },
    {
      "buffer" : 0,
      "byteOffset" : 31104,
      "byteLength" : 4224
    },
    {
      "buffer" : 0,
      "byteOffset" : 35328,
      "byteLength" : 240
    },
    {
      "buffer" : 0,
      "byteOffset" : 35568,
      "byteLength" : 960
    },
    {
      "buffer" : 0,
      "byteOffset" : 36528,
      "byteLength" : 960
    },
    {
      "buffer" : 0,
      "byteOffset" : 37488,
      "byteLength" : 1280
    },
    {
      "buffer" : 0,
      "byteOffset" : 38768,
      "byteLength" : 640
    },
    {
      "buffer" : 0,
      "byteOffset" : 39408,
      "byteLength" : 640
    },
    {
      "buffer" : 0,
      "byteOffset" : 40048,
      "byteLength" : 640
    }
  ],
  "accessors" : [
    {
      "bufferView" : 0,
      "componentType" : 5123,
      "count" : 768,
      "type" : "SCALAR"
    },
    {
      "bufferView" : 1,
      "min" : [ -25.6842, 3.71692, 60.9089 ],
      "max" : [ 21.7452, 24.3809, 98.7297 ],
      "componentType" : 5126,
      "count" : 528,
      "type" : "VEC3"
    },
    {
      "bufferView" : 2,
      "componentType" : 5126,
      "count" : 528,
      "type" : "VEC3"
    },
    {
      "bufferView" : 3,
      "componentType" : 5126,
      "count" : 528,
      "type" : "VEC4"
    },
    {
      "bufferView" : 4,
      "componentType" : 5126,
      "count" : 528,
      "type" : "VEC2"
    },
    {
      "bufferView" : 5,
      "componentType" : 5126,
      "count" : 528,
      "type" : "VEC2"
    },
    {
      "bufferView" : 6,
      "componentType" : 5126,
      "count" : 528,
      "type" : "VEC2"
    },
    {
      "bufferView" : 7,
      "componentType" : 5123,
      "count" : 120,
      "type" : "SCALAR"
    },
    {
      "bufferView" : 8,
      "min" : [ -26.1303, 8.22688, 63.9522 ],
      "max" : [ 13.277, 24.3271, 96.8917 ],
      "componentType" : 5126,
      "count" : 80,
      "type" : "VEC3"
    },
    {
      "bufferView" : 9,
      "componentType" : 5126,
      "count" : 80,
      "type" : "VEC3"
    },
    {
      "bufferView" : 10,
      "componentType" : 5126,
      "count" : 80,
      "type" : "VEC4"
    },
    {
      "bufferView" : 11,
      "componentType" : 5126,
      "count" : 80,
      "type" : "VEC2"
    },
    {
      "bufferView" : 12,
      "componentType" : 5126,
      "count" : 80,
      "type" : "VEC2"
    },
    {
      "bufferView" : 13,
      "componentType" : 5126,
      "count" : 80,
      "type" : "VEC2"
    }
  ]
}
