{
  "asset" : {
    "generator" : "UE Viewer (umodel) build 1579 based",
    "version" : "2.0"
  },
  "scene" : 0,
  "scenes" : [
    {
      "nodes" : [ 0 ]
    }
  ],
  "nodes" : [
    {
      "name" : "S_Envi_Umeda_Prop_Thermovent_01",
      "mesh" : 0
    }
  ],
  "materials" : [
    {
      "name" : "MI_Envi_Umeda_Base_Ladder_01",
      "pbrMetallicRoughness" : {
        "baseColorFactor" : [ 0.3, 0.3, 0.3, 1.0 ],
        "metallicFactor" : 0.1,
        "roughnessFactor" : 0.5
      }
    }
  ],
  "meshes" : [
    {
      "primitives" : [
        {
          "attributes" : {
            "POSITION" : 1,
            "NORMAL" : 2,
            "TANGENT" : 3,
            "TEXCOORD_0" : 4,
            "TEXCOORD_1" : 5
          },
          "indices" : 0,
          "material" : 0
        }
      ],
      "name" : "S_Envi_Umeda_Prop_Thermovent_01"
    }
  ],
  "buffers" : [
    {
      "uri" : "S_Envi_Umeda_Prop_Thermovent_01.bin",
      "byteLength" : 4804
    }
  ],
  "bufferViews" : [
    {
      "buffer" : 0,
      "byteOffset" : 0,
      "byteLength" : 324
    },
    {
      "buffer" : 0,
      "byteOffset" : 324,
      "byteLength" : 960
    },
    {
      "buffer" : 0,
      "byteOffset" : 1284,
      "byteLength" : 960
    },
    {
      "buffer" : 0,
      "byteOffset" : 2244,
      "byteLength" : 1280
    },
    {
      "buffer" : 0,
      "byteOffset" : 3524,
      "byteLength" : 640
    },
    {
      "buffer" : 0,
      "byteOffset" : 4164,
      "byteLength" : 640
    }
  ],
  "accessors" : [
    {
      "bufferView" : 0,
      "componentType" : 5123,
      "count" : 162,
      "type" : "SCALAR"
    },
    {
      "bufferView" : 1,
      "min" : [ 0, -7.62939e-08, -4.03322e-17 ],
      "max" : [ 1.87643, 0.658675, 0.0739453 ],
      "componentType" : 5126,
      "count" : 80,
      "type" : "VEC3"
    },
    {
      "bufferView" : 2,
      "componentType" : 5126,
      "count" : 80,
      "type" : "VEC3"
    },
    {
      "bufferView" : 3,
      "componentType" : 5126,
      "count" : 80,
      "type" : "VEC4"
    },
    {
      "bufferView" : 4,
      "componentType" : 5126,
      "count" : 80,
      "type" : "VEC2"
    },
    {
      "bufferView" : 5,
      "componentType" : 5126,
      "count" : 80,
      "type" : "VEC2"
    }
  ]
}
