{
  "asset" : {
    "generator" : "UE Viewer (umodel) build 1579 based",
    "version" : "2.0"
  },
  "scene" : 0,
  "scenes" : [
    {
      "nodes" : [ 0 ]
    }
  ],
  "nodes" : [
    {
      "name" : "S_Envi_Umeda_Pub_03_G",
      "mesh" : 0
    }
  ],
  "materials" : [
    {
      "name" : "MI_Envi_Umeda_Pub_02",
      "pbrMetallicRoughness" : {
        "baseColorFactor" : [ 0.3, 0.3, 0.3, 1.0 ],
        "metallicFactor" : 0.1,
        "roughnessFactor" : 0.5
      }
    },
    {
      "name" : "MI_Envi_Umeda_japan_Temple_04",
      "pbrMetallicRoughness" : {
        "baseColorFactor" : [ 0.9, 0.3, 0.3, 1.0 ],
        "metallicFactor" : 0.1,
        "roughnessFactor" : 0.5
      }
    },
    {
      "name" : "MI_Envi_Umeda_japan_Temple_03",
      "pbrMetallicRoughness" : {
        "baseColorFactor" : [ 0.3, 0.9, 0.3, 1.0 ],
        "metallicFactor" : 0.1,
        "roughnessFactor" : 0.5
      }
    }
  ],
  "meshes" : [
    {
      "primitives" : [
        {
          "attributes" : {
            "POSITION" : 1,
            "NORMAL" : 2,
            "TANGENT" : 3,
            "TEXCOORD_0" : 4,
            "TEXCOORD_1" : 5,
            "TEXCOORD_2" : 6,
            "TEXCOORD_3" : 7
          },
          "indices" : 0,
          "material" : 0
        },
        {
          "attributes" : {
            "POSITION" : 9,
            "NORMAL" : 10,
            "TANGENT" : 11,
            "TEXCOORD_0" : 12,
            "TEXCOORD_1" : 13,
            "TEXCOORD_2" : 14,
            "TEXCOORD_3" : 15
          },
          "indices" : 8,
          "material" : 1
        },
        {
          "attributes" : {
            "POSITION" : 17,
            "NORMAL" : 18,
            "TANGENT" : 19,
            "TEXCOORD_0" : 20,
            "TEXCOORD_1" : 21,
            "TEXCOORD_2" : 22,
            "TEXCOORD_3" : 23
          },
          "indices" : 16,
          "material" : 2
        }
      ],
      "name" : "S_Envi_Umeda_Pub_03_G"
    }
  ],
  "buffers" : [
    {
      "uri" : "S_Envi_Umeda_Pub_03_G.bin",
      "byteLength" : 38724
    }
  ],
  "bufferViews" : [
    {
      "buffer" : 0,
      "byteOffset" : 0,
      "byteLength" : 900
    },
    {
      "buffer" : 0,
      "byteOffset" : 900,
      "byteLength" : 3720
    },
    {
      "buffer" : 0,
      "byteOffset" : 4620,
      "byteLength" : 3720
    },
    {
      "buffer" : 0,
      "byteOffset" : 8340,
      "byteLength" : 4960
    },
    {
      "buffer" : 0,
      "byteOffset" : 13300,
      "byteLength" : 2480
    },
    {
      "buffer" : 0,
      "byteOffset" : 15780,
      "byteLength" : 2480
    },
    {
      "buffer" : 0,
      "byteOffset" : 18260,
      "byteLength" : 2480
    },
    {
      "buffer" : 0,
      "byteOffset" : 20740,
      "byteLength" : 2480
    },
    {
      "buffer" : 0,
      "byteOffset" : 23220,
      "byteLength" : 48
    },
    {
      "buffer" : 0,
      "byteOffset" : 23268,
      "byteLength" : 192
    },
    {
      "buffer" : 0,
      "byteOffset" : 23460,
      "byteLength" : 192
    },
    {
      "buffer" : 0,
      "byteOffset" : 23652,
      "byteLength" : 256
    },
    {
      "buffer" : 0,
      "byteOffset" : 23908,
      "byteLength" : 128
    },
    {
      "buffer" : 0,
      "byteOffset" : 24036,
      "byteLength" : 128
    },
    {
      "buffer" : 0,
      "byteOffset" : 24164,
      "byteLength" : 128
    },
    {
      "buffer" : 0,
      "byteOffset" : 24292,
      "byteLength" : 128
    },
    {
      "buffer" : 0,
      "byteOffset" : 24420,
      "byteLength" : 552
    },
    {
      "buffer" : 0,
      "byteOffset" : 24972,
      "byteLength" : 2292
    },
    {
      "buffer" : 0,
      "byteOffset" : 27264,
      "byteLength" : 2292
    },
    {
      "buffer" : 0,
      "byteOffset" : 29556,
      "byteLength" : 3056
    },
    {
      "buffer" : 0,
      "byteOffset" : 32612,
      "byteLength" : 1528
    },
    {
      "buffer" : 0,
      "byteOffset" : 34140,
      "byteLength" : 1528
    },
    {
      "buffer" : 0,
      "byteOffset" : 35668,
      "byteLength" : 1528
    },
    {
      "buffer" : 0,
      "byteOffset" : 37196,
      "byteLength" : 1528
    }
  ],
  "accessors" : [
    {
      "bufferView" : 0,
      "componentType" : 5123,
      "count" : 450,
      "type" : "SCALAR"
    },
    {
      "bufferView" : 1,
      "min" : [ -4.34653, 5.17426, 0.135645 ],
      "max" : [ -0.989424, 5.6603, 0.820507 ],
      "componentType" : 5126,
      "count" : 310,
      "type" : "VEC3"
    },
    {
      "bufferView" : 2,
      "componentType" : 5126,
      "count" : 310,
      "type" : "VEC3"
    },
    {
      "bufferView" : 3,
      "componentType" : 5126,
      "count" : 310,
      "type" : "VEC4"
    },
    {
      "bufferView" : 4,
      "componentType" : 5126,
      "count" : 310,
      "type" : "VEC2"
    },
    {
      "bufferView" : 5,
      "componentType" : 5126,
      "count" : 310,
      "type" : "VEC2"
    },
    {
      "bufferView" : 6,
      "componentType" : 5126,
      "count" : 310,
      "type" : "VEC2"
    },
    {
      "bufferView" : 7,
      "componentType" : 5126,
      "count" : 310,
      "type" : "VEC2"
    },
    {
      "bufferView" : 8,
      "componentType" : 5123,
      "count" : 24,
      "type" : "SCALAR"
    },
    {
      "bufferView" : 9,
      "min" : [ -4.98385, 5.25171, 5.18799e-06 ],
      "max" : [ -0.261247, 6.02013, 2.19162 ],
      "componentType" : 5126,
      "count" : 16,
      "type" : "VEC3"
    },
    {
      "bufferView" : 10,
      "componentType" : 5126,
      "count" : 16,
      "type" : "VEC3"
    },
    {
      "bufferView" : 11,
      "componentType" : 5126,
      "count" : 16,
      "type" : "VEC4"
    },
    {
      "bufferView" : 12,
      "componentType" : 5126,
      "count" : 16,
      "type" : "VEC2"
    },
    {
      "bufferView" : 13,
      "componentType" : 5126,
      "count" : 16,
      "type" : "VEC2"
    },
    {
      "bufferView" : 14,
      "componentType" : 5126,
      "count" : 16,
      "type" : "VEC2"
    },
    {
      "bufferView" : 15,
      "componentType" : 5126,
      "count" : 16,
      "type" : "VEC2"
    },
    {
      "bufferView" : 16,
      "componentType" : 5123,
      "count" : 276,
      "type" : "SCALAR"
    },
    {
      "bufferView" : 17,
      "min" : [ -3.11514, 5.47401, 1.991 ],
      "max" : [ -2.13004, 5.80216, 2.0657 ],
      "componentType" : 5126,
      "count" : 191,
      "type" : "VEC3"
    },
    {
      "bufferView" : 18,
      "componentType" : 5126,
      "count" : 191,
      "type" : "VEC3"
    },
    {
      "bufferView" : 19,
      "componentType" : 5126,
      "count" : 191,
      "type" : "VEC4"
    },
    {
      "bufferView" : 20,
      "componentType" : 5126,
      "count" : 191,
      "type" : "VEC2"
    },
    {
      "bufferView" : 21,
      "componentType" : 5126,
      "count" : 191,
      "type" : "VEC2"
    },
    {
      "bufferView" : 22,
      "componentType" : 5126,
      "count" : 191,
      "type" : "VEC2"
    },
    {
      "bufferView" : 23,
      "componentType" : 5126,
      "count" : 191,
      "type" : "VEC2"
    }
  ]
}
