{
  "asset" : {
    "generator" : "UE Viewer (umodel) build 1579 based",
    "version" : "2.0"
  },
  "scene" : 0,
  "scenes" : [
    {
      "nodes" : [ 0 ]
    }
  ],
  "nodes" : [
    {
      "name" : "S_Envi_Umeda_Pillar_01b",
      "mesh" : 0
    }
  ],
  "materials" : [
    {
      "name" : "MI_Envi_Umeda_Base_Pillar_01",
      "pbrMetallicRoughness" : {
        "baseColorFactor" : [ 0.3, 0.3, 0.3, 1.0 ],
        "metallicFactor" : 0.1,
        "roughnessFactor" : 0.5
      }
    }
  ],
  "meshes" : [
    {
      "primitives" : [
        {
          "attributes" : {
            "POSITION" : 1,
            "NORMAL" : 2,
            "TANGENT" : 3,
            "TEXCOORD_0" : 4,
            "TEXCOORD_1" : 5
          },
          "indices" : 0,
          "material" : 0
        }
      ],
      "name" : "S_Envi_Umeda_Pillar_01b"
    }
  ],
  "buffers" : [
    {
      "uri" : "S_Envi_Umeda_Pillar_01b.bin",
      "byteLength" : 87252
    }
  ],
  "bufferViews" : [
    {
      "buffer" : 0,
      "byteOffset" : 0,
      "byteLength" : 7116
    },
    {
      "buffer" : 0,
      "byteOffset" : 7116,
      "byteLength" : 17172
    },
    {
      "buffer" : 0,
      "byteOffset" : 24288,
      "byteLength" : 17172
    },
    {
      "buffer" : 0,
      "byteOffset" : 41460,
      "byteLength" : 22896
    },
    {
      "buffer" : 0,
      "byteOffset" : 64356,
      "byteLength" : 11448
    },
    {
      "buffer" : 0,
      "byteOffset" : 75804,
      "byteLength" : 11448
    }
  ],
  "accessors" : [
    {
      "bufferView" : 0,
      "componentType" : 5123,
      "count" : 3558,
      "type" : "SCALAR"
    },
    {
      "bufferView" : 1,
      "min" : [ -0.0845062, 1.43051e-08, -0.337909 ],
      "max" : [ 2.51501, 4.0074, 3.38891 ],
      "componentType" : 5126,
      "count" : 1431,
      "type" : "VEC3"
    },
    {
      "bufferView" : 2,
      "componentType" : 5126,
      "count" : 1431,
      "type" : "VEC3"
    },
    {
      "bufferView" : 3,
      "componentType" : 5126,
      "count" : 1431,
      "type" : "VEC4"
    },
    {
      "bufferView" : 4,
      "componentType" : 5126,
      "count" : 1431,
      "type" : "VEC2"
    },
    {
      "bufferView" : 5,
      "componentType" : 5126,
      "count" : 1431,
      "type" : "VEC2"
    }
  ]
}
