{
  "asset" : {
    "generator" : "UE Viewer (umodel) build 1579 based",
    "version" : "2.0"
  },
  "scene" : 0,
  "scenes" : [
    {
      "nodes" : [ 0 ]
    }
  ],
  "nodes" : [
    {
      "name" : "S_Envi_Umeda_Prop_Slideway_07b",
      "mesh" : 0
    }
  ],
  "materials" : [
    {
      "name" : "MI_Envi_Umeda_Prop_Frame_01",
      "pbrMetallicRoughness" : {
        "baseColorFactor" : [ 0.3, 0.3, 0.3, 1.0 ],
        "metallicFactor" : 0.1,
        "roughnessFactor" : 0.5
      }
    },
    {
      "name" : "MI_Envi_Umeda_Prop_Slideway_01a_01",
      "pbrMetallicRoughness" : {
        "baseColorFactor" : [ 0.9, 0.3, 0.3, 1.0 ],
        "metallicFactor" : 0.1,
        "roughnessFactor" : 0.5
      }
    },
    {
      "name" : "MI_Envi_Umeda_Base_Building_01_A_07a",
      "pbrMetallicRoughness" : {
        "baseColorFactor" : [ 0.3, 0.9, 0.3, 1.0 ],
        "metallicFactor" : 0.1,
        "roughnessFactor" : 0.5
      }
    }
  ],
  "meshes" : [
    {
      "primitives" : [
        {
          "attributes" : {
            "POSITION" : 1,
            "NORMAL" : 2,
            "TANGENT" : 3,
            "TEXCOORD_0" : 4,
            "TEXCOORD_1" : 5,
            "TEXCOORD_2" : 6,
            "TEXCOORD_3" : 7
          },
          "indices" : 0,
          "material" : 0
        },
        {
          "attributes" : {
            "POSITION" : 9,
            "NORMAL" : 10,
            "TANGENT" : 11,
            "TEXCOORD_0" : 12,
            "TEXCOORD_1" : 13,
            "TEXCOORD_2" : 14,
            "TEXCOORD_3" : 15
          },
          "indices" : 8,
          "material" : 1
        },
        {
          "attributes" : {
            "POSITION" : 17,
            "NORMAL" : 18,
            "TANGENT" : 19,
            "TEXCOORD_0" : 20,
            "TEXCOORD_1" : 21,
            "TEXCOORD_2" : 22,
            "TEXCOORD_3" : 23
          },
          "indices" : 16,
          "material" : 2
        }
      ],
      "name" : "S_Envi_Umeda_Prop_Slideway_07b"
    }
  ],
  "buffers" : [
    {
      "uri" : "S_Envi_Umeda_Prop_Slideway_07b.bin",
      "byteLength" : 1342148
    }
  ],
  "bufferViews" : [
    {
      "buffer" : 0,
      "byteOffset" : 0,
      "byteLength" : 26472
    },
    {
      "buffer" : 0,
      "byteOffset" : 26472,
      "byteLength" : 109848
    },
    {
      "buffer" : 0,
      "byteOffset" : 136320,
      "byteLength" : 109848
    },
    {
      "buffer" : 0,
      "byteOffset" : 246168,
      "byteLength" : 146464
    },
    {
      "buffer" : 0,
      "byteOffset" : 392632,
      "byteLength" : 73232
    },
    {
      "buffer" : 0,
      "byteOffset" : 465864,
      "byteLength" : 73232
    },
    {
      "buffer" : 0,
      "byteOffset" : 539096,
      "byteLength" : 73232
    },
    {
      "buffer" : 0,
      "byteOffset" : 612328,
      "byteLength" : 73232
    },
    {
      "buffer" : 0,
      "byteOffset" : 685560,
      "byteLength" : 4104
    },
    {
      "buffer" : 0,
      "byteOffset" : 689664,
      "byteLength" : 16584
    },
    {
      "buffer" : 0,
      "byteOffset" : 706248,
      "byteLength" : 16584
    },
    {
      "buffer" : 0,
      "byteOffset" : 722832,
      "byteLength" : 22112
    },
    {
      "buffer" : 0,
      "byteOffset" : 744944,
      "byteLength" : 11056
    },
    {
      "buffer" : 0,
      "byteOffset" : 756000,
      "byteLength" : 11056
    },
    {
      "buffer" : 0,
      "byteOffset" : 767056,
      "byteLength" : 11056
    },
    {
      "buffer" : 0,
      "byteOffset" : 778112,
      "byteLength" : 11056
    },
    {
      "buffer" : 0,
      "byteOffset" : 789168,
      "byteLength" : 18092
    },
    {
      "buffer" : 0,
      "byteOffset" : 807260,
      "byteLength" : 89148
    },
    {
      "buffer" : 0,
      "byteOffset" : 896408,
      "byteLength" : 89148
    },
    {
      "buffer" : 0,
      "byteOffset" : 985556,
      "byteLength" : 118864
    },
    {
      "buffer" : 0,
      "byteOffset" : 1104420,
      "byteLength" : 59432
    },
    {
      "buffer" : 0,
      "byteOffset" : 1163852,
      "byteLength" : 59432
    },
    {
      "buffer" : 0,
      "byteOffset" : 1223284,
      "byteLength" : 59432
    },
    {
      "buffer" : 0,
      "byteOffset" : 1282716,
      "byteLength" : 59432
    }
  ],
  "accessors" : [
    {
      "bufferView" : 0,
      "componentType" : 5123,
      "count" : 13236,
      "type" : "SCALAR"
    },
    {
      "bufferView" : 1,
      "min" : [ -83.5987, 3.59942, 11.1517 ],
      "max" : [ -54.8873, 18.4543, 67.8708 ],
      "componentType" : 5126,
      "count" : 9154,
      "type" : "VEC3"
    },
    {
      "bufferView" : 2,
      "componentType" : 5126,
      "count" : 9154,
      "type" : "VEC3"
    },
    {
      "bufferView" : 3,
      "componentType" : 5126,
      "count" : 9154,
      "type" : "VEC4"
    },
    {
      "bufferView" : 4,
      "componentType" : 5126,
      "count" : 9154,
      "type" : "VEC2"
    },
    {
      "bufferView" : 5,
      "componentType" : 5126,
      "count" : 9154,
      "type" : "VEC2"
    },
    {
      "bufferView" : 6,
      "componentType" : 5126,
      "count" : 9154,
      "type" : "VEC2"
    },
    {
      "bufferView" : 7,
      "componentType" : 5126,
      "count" : 9154,
      "type" : "VEC2"
    },
    {
      "bufferView" : 8,
      "componentType" : 5123,
      "count" : 2052,
      "type" : "SCALAR"
    },
    {
      "bufferView" : 9,
      "min" : [ -83.3536, 3.80736, 11.3517 ],
      "max" : [ -55.111, 18.4543, 67.7007 ],
      "componentType" : 5126,
      "count" : 1382,
      "type" : "VEC3"
    },
    {
      "bufferView" : 10,
      "componentType" : 5126,
      "count" : 1382,
      "type" : "VEC3"
    },
    {
      "bufferView" : 11,
      "componentType" : 5126,
      "count" : 1382,
      "type" : "VEC4"
    },
    {
      "bufferView" : 12,
      "componentType" : 5126,
      "count" : 1382,
      "type" : "VEC2"
    },
    {
      "bufferView" : 13,
      "componentType" : 5126,
      "count" : 1382,
      "type" : "VEC2"
    },
    {
      "bufferView" : 14,
      "componentType" : 5126,
      "count" : 1382,
      "type" : "VEC2"
    },
    {
      "bufferView" : 15,
      "componentType" : 5126,
      "count" : 1382,
      "type" : "VEC2"
    },
    {
      "bufferView" : 16,
      "componentType" : 5123,
      "count" : 9045,
      "type" : "SCALAR"
    },
    {
      "bufferView" : 17,
      "min" : [ -83.4704, 3.86711, 15.8848 ],
      "max" : [ -55.2788, 18.2969, 54.7139 ],
      "componentType" : 5126,
      "count" : 7429,
      "type" : "VEC3"
    },
    {
      "bufferView" : 18,
      "componentType" : 5126,
      "count" : 7429,
      "type" : "VEC3"
    },
    {
      "bufferView" : 19,
      "componentType" : 5126,
      "count" : 7429,
      "type" : "VEC4"
    },
    {
      "bufferView" : 20,
      "componentType" : 5126,
      "count" : 7429,
      "type" : "VEC2"
    },
    {
      "bufferView" : 21,
      "componentType" : 5126,
      "count" : 7429,
      "type" : "VEC2"
    },
    {
      "bufferView" : 22,
      "componentType" : 5126,
      "count" : 7429,
      "type" : "VEC2"
    },
    {
      "bufferView" : 23,
      "componentType" : 5126,
      "count" : 7429,
      "type" : "VEC2"
    }
  ]
}
