{
  "asset" : {
    "generator" : "UE Viewer (umodel) build 1579 based",
    "version" : "2.0"
  },
  "scene" : 0,
  "scenes" : [
    {
      "nodes" : [ 0 ]
    }
  ],
  "nodes" : [
    {
      "name" : "S_Envi_Umeda_Prop_ExhaustFan01b",
      "mesh" : 0
    }
  ],
  "materials" : [
    {
      "name" : "MI_Envi_Umeda_Prop_ExhaustFan_01a",
      "pbrMetallicRoughness" : {
        "baseColorFactor" : [ 0.3, 0.3, 0.3, 1.0 ],
        "metallicFactor" : 0.1,
        "roughnessFactor" : 0.5
      }
    }
  ],
  "meshes" : [
    {
      "primitives" : [
        {
          "attributes" : {
            "POSITION" : 1,
            "NORMAL" : 2,
            "TANGENT" : 3,
            "TEXCOORD_0" : 4,
            "TEXCOORD_1" : 5
          },
          "indices" : 0,
          "material" : 0
        }
      ],
      "name" : "S_Envi_Umeda_Prop_ExhaustFan01b"
    }
  ],
  "buffers" : [
    {
      "uri" : "S_Envi_Umeda_Prop_ExhaustFan01b.bin",
      "byteLength" : 45372
    }
  ],
  "bufferViews" : [
    {
      "buffer" : 0,
      "byteOffset" : 0,
      "byteLength" : 4884
    },
    {
      "buffer" : 0,
      "byteOffset" : 4884,
      "byteLength" : 8676
    },
    {
      "buffer" : 0,
      "byteOffset" : 13560,
      "byteLength" : 8676
    },
    {
      "buffer" : 0,
      "byteOffset" : 22236,
      "byteLength" : 11568
    },
    {
      "buffer" : 0,
      "byteOffset" : 33804,
      "byteLength" : 5784
    },
    {
      "buffer" : 0,
      "byteOffset" : 39588,
      "byteLength" : 5784
    }
  ],
  "accessors" : [
    {
      "bufferView" : 0,
      "componentType" : 5123,
      "count" : 2442,
      "type" : "SCALAR"
    },
    {
      "bufferView" : 1,
      "min" : [ -1.0744, -1.0744, -0.333542 ],
      "max" : [ 1.0744, 1.0744, 0.00469609 ],
      "componentType" : 5126,
      "count" : 723,
      "type" : "VEC3"
    },
    {
      "bufferView" : 2,
      "componentType" : 5126,
      "count" : 723,
      "type" : "VEC3"
    },
    {
      "bufferView" : 3,
      "componentType" : 5126,
      "count" : 723,
      "type" : "VEC4"
    },
    {
      "bufferView" : 4,
      "componentType" : 5126,
      "count" : 723,
      "type" : "VEC2"
    },
    {
      "bufferView" : 5,
      "componentType" : 5126,
      "count" : 723,
      "type" : "VEC2"
    }
  ]
}
