{
  "asset" : {
    "generator" : "UE Viewer (umodel) build 1579 based",
    "version" : "2.0"
  },
  "scene" : 0,
  "scenes" : [
    {
      "nodes" : [ 0 ]
    }
  ],
  "nodes" : [
    {
      "name" : "S_Envi_Common_Parterre_Merge_01j",
      "mesh" : 0
    }
  ],
  "materials" : [
    {
      "name" : "MI_Envi_Common_Bathroom_Merge_01",
      "pbrMetallicRoughness" : {
        "baseColorFactor" : [ 0.3, 0.3, 0.3, 1.0 ],
        "metallicFactor" : 0.1,
        "roughnessFactor" : 0.5
      }
    }
  ],
  "meshes" : [
    {
      "primitives" : [
        {
          "attributes" : {
            "POSITION" : 1,
            "NORMAL" : 2,
            "TANGENT" : 3,
            "TEXCOORD_0" : 4,
            "TEXCOORD_1" : 5
          },
          "indices" : 0,
          "material" : 0
        }
      ],
      "name" : "S_Envi_Common_Parterre_Merge_01j"
    }
  ],
  "buffers" : [
    {
      "uri" : "S_Envi_Common_Parterre_Merge_01j.bin",
      "byteLength" : 226080
    }
  ],
  "bufferViews" : [
    {
      "buffer" : 0,
      "byteOffset" : 0,
      "byteLength" : 15576
    },
    {
      "buffer" : 0,
      "byteOffset" : 15576,
      "byteLength" : 45108
    },
    {
      "buffer" : 0,
      "byteOffset" : 60684,
      "byteLength" : 45108
    },
    {
      "buffer" : 0,
      "byteOffset" : 105792,
      "byteLength" : 60144
    },
    {
      "buffer" : 0,
      "byteOffset" : 165936,
      "byteLength" : 30072
    },
    {
      "buffer" : 0,
      "byteOffset" : 196008,
      "byteLength" : 30072
    }
  ],
  "accessors" : [
    {
      "bufferView" : 0,
      "componentType" : 5123,
      "count" : 7788,
      "type" : "SCALAR"
    },
    {
      "bufferView" : 1,
      "min" : [ -29.3267, 7.61524, -55.5334 ],
      "max" : [ -21.4681, 8.67425, -46.4139 ],
      "componentType" : 5126,
      "count" : 3759,
      "type" : "VEC3"
    },
    {
      "bufferView" : 2,
      "componentType" : 5126,
      "count" : 3759,
      "type" : "VEC3"
    },
    {
      "bufferView" : 3,
      "componentType" : 5126,
      "count" : 3759,
      "type" : "VEC4"
    },
    {
      "bufferView" : 4,
      "componentType" : 5126,
      "count" : 3759,
      "type" : "VEC2"
    },
    {
      "bufferView" : 5,
      "componentType" : 5126,
      "count" : 3759,
      "type" : "VEC2"
    }
  ]
}
