{
  "asset" : {
    "generator" : "UE Viewer (umodel) build 1579 based",
    "version" : "2.0"
  },
  "scene" : 0,
  "scenes" : [
    {
      "nodes" : [ 0 ]
    }
  ],
  "nodes" : [
    {
      "name" : "S_Envi_Umeda_Prop_Signboard02",
      "mesh" : 0
    }
  ],
  "materials" : [
    {
      "name" : "MI_Envi_Umeda_Prop_Signboard02",
      "pbrMetallicRoughness" : {
        "baseColorFactor" : [ 0.3, 0.3, 0.3, 1.0 ],
        "metallicFactor" : 0.1,
        "roughnessFactor" : 0.5
      }
    }
  ],
  "meshes" : [
    {
      "primitives" : [
        {
          "attributes" : {
            "POSITION" : 1,
            "NORMAL" : 2,
            "TANGENT" : 3,
            "TEXCOORD_0" : 4,
            "TEXCOORD_1" : 5
          },
          "indices" : 0,
          "material" : 0
        }
      ],
      "name" : "S_Envi_Umeda_Prop_Signboard02"
    }
  ],
  "buffers" : [
    {
      "uri" : "S_Envi_Umeda_Prop_Signboard02.bin",
      "byteLength" : 119900
    }
  ],
  "bufferViews" : [
    {
      "buffer" : 0,
      "byteOffset" : 0,
      "byteLength" : 10476
    },
    {
      "buffer" : 0,
      "byteOffset" : 10476,
      "byteLength" : 23448
    },
    {
      "buffer" : 0,
      "byteOffset" : 33924,
      "byteLength" : 23448
    },
    {
      "buffer" : 0,
      "byteOffset" : 57372,
      "byteLength" : 31264
    },
    {
      "buffer" : 0,
      "byteOffset" : 88636,
      "byteLength" : 15632
    },
    {
      "buffer" : 0,
      "byteOffset" : 104268,
      "byteLength" : 15632
    }
  ],
  "accessors" : [
    {
      "bufferView" : 0,
      "componentType" : 5123,
      "count" : 5238,
      "type" : "SCALAR"
    },
    {
      "bufferView" : 1,
      "min" : [ -2.80669, -0.235363, -0.180608 ],
      "max" : [ 3.1231, 2.14536, 0.574895 ],
      "componentType" : 5126,
      "count" : 1954,
      "type" : "VEC3"
    },
    {
      "bufferView" : 2,
      "componentType" : 5126,
      "count" : 1954,
      "type" : "VEC3"
    },
    {
      "bufferView" : 3,
      "componentType" : 5126,
      "count" : 1954,
      "type" : "VEC4"
    },
    {
      "bufferView" : 4,
      "componentType" : 5126,
      "count" : 1954,
      "type" : "VEC2"
    },
    {
      "bufferView" : 5,
      "componentType" : 5126,
      "count" : 1954,
      "type" : "VEC2"
    }
  ]
}
