{
  "asset" : {
    "generator" : "UE Viewer (umodel) build 1579 based",
    "version" : "2.0"
  },
  "scene" : 0,
  "scenes" : [
    {
      "nodes" : [ 0 ]
    }
  ],
  "nodes" : [
    {
      "name" : "S_Envi_Umeda_Game_elevator_01_C",
      "mesh" : 0
    }
  ],
  "materials" : [
    {
      "name" : "MI_Envi_Umeda_Game_elevator_01_A",
      "pbrMetallicRoughness" : {
        "baseColorFactor" : [ 0.3, 0.3, 0.3, 1.0 ],
        "metallicFactor" : 0.1,
        "roughnessFactor" : 0.5
      }
    }
  ],
  "meshes" : [
    {
      "primitives" : [
        {
          "attributes" : {
            "POSITION" : 1,
            "NORMAL" : 2,
            "TANGENT" : 3,
            "TEXCOORD_0" : 4,
            "TEXCOORD_1" : 5
          },
          "indices" : 0,
          "material" : 0
        }
      ],
      "name" : "S_Envi_Umeda_Game_elevator_01_C"
    }
  ],
  "buffers" : [
    {
      "uri" : "S_Envi_Umeda_Game_elevator_01_C.bin",
      "byteLength" : 12972
    }
  ],
  "bufferViews" : [
    {
      "buffer" : 0,
      "byteOffset" : 0,
      "byteLength" : 876
    },
    {
      "buffer" : 0,
      "byteOffset" : 876,
      "byteLength" : 2592
    },
    {
      "buffer" : 0,
      "byteOffset" : 3468,
      "byteLength" : 2592
    },
    {
      "buffer" : 0,
      "byteOffset" : 6060,
      "byteLength" : 3456
    },
    {
      "buffer" : 0,
      "byteOffset" : 9516,
      "byteLength" : 1728
    },
    {
      "buffer" : 0,
      "byteOffset" : 11244,
      "byteLength" : 1728
    }
  ],
  "accessors" : [
    {
      "bufferView" : 0,
      "componentType" : 5123,
      "count" : 438,
      "type" : "SCALAR"
    },
    {
      "bufferView" : 1,
      "min" : [ -0.0301508, -0.1, -0.043215 ],
      "max" : [ 2.4901, 0.127616, 2.58335 ],
      "componentType" : 5126,
      "count" : 216,
      "type" : "VEC3"
    },
    {
      "bufferView" : 2,
      "componentType" : 5126,
      "count" : 216,
      "type" : "VEC3"
    },
    {
      "bufferView" : 3,
      "componentType" : 5126,
      "count" : 216,
      "type" : "VEC4"
    },
    {
      "bufferView" : 4,
      "componentType" : 5126,
      "count" : 216,
      "type" : "VEC2"
    },
    {
      "bufferView" : 5,
      "componentType" : 5126,
      "count" : 216,
      "type" : "VEC2"
    }
  ]
}
