{
  "asset" : {
    "generator" : "UE Viewer (umodel) build 1579 based",
    "version" : "2.0"
  },
  "scene" : 0,
  "scenes" : [
    {
      "nodes" : [ 0 ]
    }
  ],
  "nodes" : [
    {
      "name" : "S_Envi_Umeda_BlindBox_02a",
      "mesh" : 0
    }
  ],
  "materials" : [
    {
      "name" : "MI_Envi_Umeda_BlindBox_02",
      "pbrMetallicRoughness" : {
        "baseColorFactor" : [ 0.3, 0.3, 0.3, 1.0 ],
        "metallicFactor" : 0.1,
        "roughnessFactor" : 0.5
      }
    },
    {
      "name" : "MI_Envi_Umeda_BlindBox_02",
      "pbrMetallicRoughness" : {
        "baseColorFactor" : [ 0.9, 0.3, 0.3, 1.0 ],
        "metallicFactor" : 0.1,
        "roughnessFactor" : 0.5
      }
    }
  ],
  "meshes" : [
    {
      "primitives" : [
        {
          "attributes" : {
            "POSITION" : 1,
            "NORMAL" : 2,
            "TANGENT" : 3,
            "TEXCOORD_0" : 4,
            "TEXCOORD_1" : 5
          },
          "indices" : 0,
          "material" : 0
        },
        {
          "attributes" : {
            "POSITION" : 7,
            "NORMAL" : 8,
            "TANGENT" : 9,
            "TEXCOORD_0" : 10,
            "TEXCOORD_1" : 11
          },
          "indices" : 6,
          "material" : 1
        }
      ],
      "name" : "S_Envi_Umeda_BlindBox_02a"
    }
  ],
  "buffers" : [
    {
      "uri" : "S_Envi_Umeda_BlindBox_02a.bin",
      "byteLength" : 520928
    }
  ],
  "bufferViews" : [
    {
      "buffer" : 0,
      "byteOffset" : 0,
      "byteLength" : 34532
    },
    {
      "buffer" : 0,
      "byteOffset" : 34532,
      "byteLength" : 104124
    },
    {
      "buffer" : 0,
      "byteOffset" : 138656,
      "byteLength" : 104124
    },
    {
      "buffer" : 0,
      "byteOffset" : 242780,
      "byteLength" : 138832
    },
    {
      "buffer" : 0,
      "byteOffset" : 381612,
      "byteLength" : 69416
    },
    {
      "buffer" : 0,
      "byteOffset" : 451028,
      "byteLength" : 69416
    },
    {
      "buffer" : 0,
      "byteOffset" : 520444,
      "byteLength" : 36
    },
    {
      "buffer" : 0,
      "byteOffset" : 520480,
      "byteLength" : 96
    },
    {
      "buffer" : 0,
      "byteOffset" : 520576,
      "byteLength" : 96
    },
    {
      "buffer" : 0,
      "byteOffset" : 520672,
      "byteLength" : 128
    },
    {
      "buffer" : 0,
      "byteOffset" : 520800,
      "byteLength" : 64
    },
    {
      "buffer" : 0,
      "byteOffset" : 520864,
      "byteLength" : 64
    }
  ],
  "accessors" : [
    {
      "bufferView" : 0,
      "componentType" : 5123,
      "count" : 17265,
      "type" : "SCALAR"
    },
    {
      "bufferView" : 1,
      "min" : [ 44.6762, 3.97698, -37.2491 ],
      "max" : [ 55.9496, 22.1675, -15.7393 ],
      "componentType" : 5126,
      "count" : 8677,
      "type" : "VEC3"
    },
    {
      "bufferView" : 2,
      "componentType" : 5126,
      "count" : 8677,
      "type" : "VEC3"
    },
    {
      "bufferView" : 3,
      "componentType" : 5126,
      "count" : 8677,
      "type" : "VEC4"
    },
    {
      "bufferView" : 4,
      "componentType" : 5126,
      "count" : 8677,
      "type" : "VEC2"
    },
    {
      "bufferView" : 5,
      "componentType" : 5126,
      "count" : 8677,
      "type" : "VEC2"
    },
    {
      "bufferView" : 6,
      "componentType" : 5123,
      "count" : 18,
      "type" : "SCALAR"
    },
    {
      "bufferView" : 7,
      "min" : [ 48.9231, 5.47928, -22.1784 ],
      "max" : [ 48.9231, 7.12046, -19.8587 ],
      "componentType" : 5126,
      "count" : 8,
      "type" : "VEC3"
    },
    {
      "bufferView" : 8,
      "componentType" : 5126,
      "count" : 8,
      "type" : "VEC3"
    },
    {
      "bufferView" : 9,
      "componentType" : 5126,
      "count" : 8,
      "type" : "VEC4"
    },
    {
      "bufferView" : 10,
      "componentType" : 5126,
      "count" : 8,
      "type" : "VEC2"
    },
    {
      "bufferView" : 11,
      "componentType" : 5126,
      "count" : 8,
      "type" : "VEC2"
    }
  ]
}
