{
  "asset" : {
    "generator" : "UE Viewer (umodel) build 1579 based",
    "version" : "2.0"
  },
  "scene" : 0,
  "scenes" : [
    {
      "nodes" : [ 0 ]
    }
  ],
  "nodes" : [
    {
      "name" : "S_Envi_Umeda_Prop_Railing_01",
      "mesh" : 0
    }
  ],
  "materials" : [
    {
      "name" : "MI_Envi_Umeda_Prop_Platform_01",
      "pbrMetallicRoughness" : {
        "baseColorFactor" : [ 0.3, 0.3, 0.3, 1.0 ],
        "metallicFactor" : 0.1,
        "roughnessFactor" : 0.5
      }
    }
  ],
  "meshes" : [
    {
      "primitives" : [
        {
          "attributes" : {
            "POSITION" : 1,
            "NORMAL" : 2,
            "TANGENT" : 3,
            "TEXCOORD_0" : 4,
            "TEXCOORD_1" : 5
          },
          "indices" : 0,
          "material" : 0
        }
      ],
      "name" : "S_Envi_Umeda_Prop_Railing_01"
    }
  ],
  "buffers" : [
    {
      "uri" : "S_Envi_Umeda_Prop_Railing_01.bin",
      "byteLength" : 23252
    }
  ],
  "bufferViews" : [
    {
      "buffer" : 0,
      "byteOffset" : 0,
      "byteLength" : 1188
    },
    {
      "buffer" : 0,
      "byteOffset" : 1188,
      "byteLength" : 4728
    },
    {
      "buffer" : 0,
      "byteOffset" : 5916,
      "byteLength" : 4728
    },
    {
      "buffer" : 0,
      "byteOffset" : 10644,
      "byteLength" : 6304
    },
    {
      "buffer" : 0,
      "byteOffset" : 16948,
      "byteLength" : 3152
    },
    {
      "buffer" : 0,
      "byteOffset" : 20100,
      "byteLength" : 3152
    }
  ],
  "accessors" : [
    {
      "bufferView" : 0,
      "componentType" : 5123,
      "count" : 594,
      "type" : "SCALAR"
    },
    {
      "bufferView" : 1,
      "min" : [ -2.038, -0.0039819, -0.115962 ],
      "max" : [ -3.8147e-08, 1.08258, 0.00499996 ],
      "componentType" : 5126,
      "count" : 394,
      "type" : "VEC3"
    },
    {
      "bufferView" : 2,
      "componentType" : 5126,
      "count" : 394,
      "type" : "VEC3"
    },
    {
      "bufferView" : 3,
      "componentType" : 5126,
      "count" : 394,
      "type" : "VEC4"
    },
    {
      "bufferView" : 4,
      "componentType" : 5126,
      "count" : 394,
      "type" : "VEC2"
    },
    {
      "bufferView" : 5,
      "componentType" : 5126,
      "count" : 394,
      "type" : "VEC2"
    }
  ]
}
