{
  "asset" : {
    "generator" : "UE Viewer (umodel) build 1579 based",
    "version" : "2.0"
  },
  "scene" : 0,
  "scenes" : [
    {
      "nodes" : [ 0 ]
    }
  ],
  "nodes" : [
    {
      "name" : "S_Envi_Umeda_hall_39",
      "mesh" : 0
    }
  ],
  "materials" : [
    {
      "name" : "MI_Envi_Jdhcz_Machine_04_01",
      "pbrMetallicRoughness" : {
        "baseColorFactor" : [ 0.3, 0.3, 0.3, 1.0 ],
        "metallicFactor" : 0.1,
        "roughnessFactor" : 0.5
      }
    },
    {
      "name" : "MI_Envi_Jdhcz_Machine_04_02",
      "pbrMetallicRoughness" : {
        "baseColorFactor" : [ 0.9, 0.3, 0.3, 1.0 ],
        "metallicFactor" : 0.1,
        "roughnessFactor" : 0.5
      }
    },
    {
      "name" : "MI_Envi_Jdhcz_Machine_04_03",
      "pbrMetallicRoughness" : {
        "baseColorFactor" : [ 0.3, 0.9, 0.3, 1.0 ],
        "metallicFactor" : 0.1,
        "roughnessFactor" : 0.5
      }
    }
  ],
  "meshes" : [
    {
      "primitives" : [
        {
          "attributes" : {
            "POSITION" : 1,
            "NORMAL" : 2,
            "TANGENT" : 3,
            "TEXCOORD_0" : 4,
            "TEXCOORD_1" : 5
          },
          "indices" : 0,
          "material" : 0
        },
        {
          "attributes" : {
            "POSITION" : 7,
            "NORMAL" : 8,
            "TANGENT" : 9,
            "TEXCOORD_0" : 10,
            "TEXCOORD_1" : 11
          },
          "indices" : 6,
          "material" : 1
        },
        {
          "attributes" : {
            "POSITION" : 13,
            "NORMAL" : 14,
            "TANGENT" : 15,
            "TEXCOORD_0" : 16,
            "TEXCOORD_1" : 17
          },
          "indices" : 12,
          "material" : 2
        }
      ],
      "name" : "S_Envi_Umeda_hall_39"
    }
  ],
  "buffers" : [
    {
      "uri" : "S_Envi_Umeda_hall_39.bin",
      "byteLength" : 103348
    }
  ],
  "bufferViews" : [
    {
      "buffer" : 0,
      "byteOffset" : 0,
      "byteLength" : 3660
    },
    {
      "buffer" : 0,
      "byteOffset" : 3660,
      "byteLength" : 10068
    },
    {
      "buffer" : 0,
      "byteOffset" : 13728,
      "byteLength" : 10068
    },
    {
      "buffer" : 0,
      "byteOffset" : 23796,
      "byteLength" : 13424
    },
    {
      "buffer" : 0,
      "byteOffset" : 37220,
      "byteLength" : 6712
    },
    {
      "buffer" : 0,
      "byteOffset" : 43932,
      "byteLength" : 6712
    },
    {
      "buffer" : 0,
      "byteOffset" : 50644,
      "byteLength" : 1116
    },
    {
      "buffer" : 0,
      "byteOffset" : 51760,
      "byteLength" : 2592
    },
    {
      "buffer" : 0,
      "byteOffset" : 54352,
      "byteLength" : 2592
    },
    {
      "buffer" : 0,
      "byteOffset" : 56944,
      "byteLength" : 3456
    },
    {
      "buffer" : 0,
      "byteOffset" : 60400,
      "byteLength" : 1728
    },
    {
      "buffer" : 0,
      "byteOffset" : 62128,
      "byteLength" : 1728
    },
    {
      "buffer" : 0,
      "byteOffset" : 63856,
      "byteLength" : 3204
    },
    {
      "buffer" : 0,
      "byteOffset" : 67060,
      "byteLength" : 7776
    },
    {
      "buffer" : 0,
      "byteOffset" : 74836,
      "byteLength" : 7776
    },
    {
      "buffer" : 0,
      "byteOffset" : 82612,
      "byteLength" : 10368
    },
    {
      "buffer" : 0,
      "byteOffset" : 92980,
      "byteLength" : 5184
    },
    {
      "buffer" : 0,
      "byteOffset" : 98164,
      "byteLength" : 5184
    }
  ],
  "accessors" : [
    {
      "bufferView" : 0,
      "componentType" : 5123,
      "count" : 1830,
      "type" : "SCALAR"
    },
    {
      "bufferView" : 1,
      "min" : [ -6.10352e-07, -9.84382e-06, -0.347349 ],
      "max" : [ 3.90365, 1.17974, 0.0278761 ],
      "componentType" : 5126,
      "count" : 839,
      "type" : "VEC3"
    },
    {
      "bufferView" : 2,
      "componentType" : 5126,
      "count" : 839,
      "type" : "VEC3"
    },
    {
      "bufferView" : 3,
      "componentType" : 5126,
      "count" : 839,
      "type" : "VEC4"
    },
    {
      "bufferView" : 4,
      "componentType" : 5126,
      "count" : 839,
      "type" : "VEC2"
    },
    {
      "bufferView" : 5,
      "componentType" : 5126,
      "count" : 839,
      "type" : "VEC2"
    },
    {
      "bufferView" : 6,
      "componentType" : 5123,
      "count" : 558,
      "type" : "SCALAR"
    },
    {
      "bufferView" : 7,
      "min" : [ 0.154027, 0.0820054, -0.0102364 ],
      "max" : [ 3.8862, 1.04301, 0.0772404 ],
      "componentType" : 5126,
      "count" : 216,
      "type" : "VEC3"
    },
    {
      "bufferView" : 8,
      "componentType" : 5126,
      "count" : 216,
      "type" : "VEC3"
    },
    {
      "bufferView" : 9,
      "componentType" : 5126,
      "count" : 216,
      "type" : "VEC4"
    },
    {
      "bufferView" : 10,
      "componentType" : 5126,
      "count" : 216,
      "type" : "VEC2"
    },
    {
      "bufferView" : 11,
      "componentType" : 5126,
      "count" : 216,
      "type" : "VEC2"
    },
    {
      "bufferView" : 12,
      "componentType" : 5123,
      "count" : 1602,
      "type" : "SCALAR"
    },
    {
      "bufferView" : 13,
      "min" : [ 0.987488, 0.000720215, -0.343509 ],
      "max" : [ 3.59109, 1.01905, 0.00764011 ],
      "componentType" : 5126,
      "count" : 648,
      "type" : "VEC3"
    },
    {
      "bufferView" : 14,
      "componentType" : 5126,
      "count" : 648,
      "type" : "VEC3"
    },
    {
      "bufferView" : 15,
      "componentType" : 5126,
      "count" : 648,
      "type" : "VEC4"
    },
    {
      "bufferView" : 16,
      "componentType" : 5126,
      "count" : 648,
      "type" : "VEC2"
    },
    {
      "bufferView" : 17,
      "componentType" : 5126,
      "count" : 648,
      "type" : "VEC2"
    }
  ]
}
