{
  "asset" : {
    "generator" : "UE Viewer (umodel) build 1579 based",
    "version" : "2.0"
  },
  "scene" : 0,
  "scenes" : [
    {
      "nodes" : [ 0 ]
    }
  ],
  "nodes" : [
    {
      "name" : "S_Envi_Umeda_Prop_Gate_05a",
      "mesh" : 0
    }
  ],
  "materials" : [
    {
      "name" : "MI_Envi_QYDX_L3_01c_inside_11",
      "pbrMetallicRoughness" : {
        "baseColorFactor" : [ 0.3, 0.3, 0.3, 1.0 ],
        "metallicFactor" : 0.1,
        "roughnessFactor" : 0.5
      }
    }
  ],
  "meshes" : [
    {
      "primitives" : [
        {
          "attributes" : {
            "POSITION" : 1,
            "NORMAL" : 2,
            "TANGENT" : 3,
            "TEXCOORD_0" : 4,
            "TEXCOORD_1" : 5
          },
          "indices" : 0,
          "material" : 0
        }
      ],
      "name" : "S_Envi_Umeda_Prop_Gate_05a"
    }
  ],
  "buffers" : [
    {
      "uri" : "S_Envi_Umeda_Prop_Gate_05a.bin",
      "byteLength" : 44824
    }
  ],
  "bufferViews" : [
    {
      "buffer" : 0,
      "byteOffset" : 0,
      "byteLength" : 2544
    },
    {
      "buffer" : 0,
      "byteOffset" : 2544,
      "byteLength" : 9060
    },
    {
      "buffer" : 0,
      "byteOffset" : 11604,
      "byteLength" : 9060
    },
    {
      "buffer" : 0,
      "byteOffset" : 20664,
      "byteLength" : 12080
    },
    {
      "buffer" : 0,
      "byteOffset" : 32744,
      "byteLength" : 6040
    },
    {
      "buffer" : 0,
      "byteOffset" : 38784,
      "byteLength" : 6040
    }
  ],
  "accessors" : [
    {
      "bufferView" : 0,
      "componentType" : 5123,
      "count" : 1272,
      "type" : "SCALAR"
    },
    {
      "bufferView" : 1,
      "min" : [ -2.0122, 0.0068634, -0.013975 ],
      "max" : [ 2.0122, 3.23154, 0.240337 ],
      "componentType" : 5126,
      "count" : 755,
      "type" : "VEC3"
    },
    {
      "bufferView" : 2,
      "componentType" : 5126,
      "count" : 755,
      "type" : "VEC3"
    },
    {
      "bufferView" : 3,
      "componentType" : 5126,
      "count" : 755,
      "type" : "VEC4"
    },
    {
      "bufferView" : 4,
      "componentType" : 5126,
      "count" : 755,
      "type" : "VEC2"
    },
    {
      "bufferView" : 5,
      "componentType" : 5126,
      "count" : 755,
      "type" : "VEC2"
    }
  ]
}
