{
  "asset" : {
    "generator" : "UE Viewer (umodel) build 1579 based",
    "version" : "2.0"
  },
  "scene" : 0,
  "scenes" : [
    {
      "nodes" : [ 0 ]
    }
  ],
  "nodes" : [
    {
      "name" : "S_Envi_Umeda_Japan_Column_01b",
      "mesh" : 0
    }
  ],
  "materials" : [
    {
      "name" : "MI_Envi_Umeda_japan_Temple_07",
      "pbrMetallicRoughness" : {
        "baseColorFactor" : [ 0.3, 0.3, 0.3, 1.0 ],
        "metallicFactor" : 0.1,
        "roughnessFactor" : 0.5
      }
    }
  ],
  "meshes" : [
    {
      "primitives" : [
        {
          "attributes" : {
            "POSITION" : 1,
            "NORMAL" : 2,
            "TANGENT" : 3,
            "TEXCOORD_0" : 4,
            "TEXCOORD_1" : 5,
            "TEXCOORD_2" : 6,
            "TEXCOORD_3" : 7
          },
          "indices" : 0,
          "material" : 0
        }
      ],
      "name" : "S_Envi_Umeda_Japan_Column_01b"
    }
  ],
  "buffers" : [
    {
      "uri" : "S_Envi_Umeda_Japan_Column_01b.bin",
      "byteLength" : 73296
    }
  ],
  "bufferViews" : [
    {
      "buffer" : 0,
      "byteOffset" : 0,
      "byteLength" : 4320
    },
    {
      "buffer" : 0,
      "byteOffset" : 4320,
      "byteLength" : 11496
    },
    {
      "buffer" : 0,
      "byteOffset" : 15816,
      "byteLength" : 11496
    },
    {
      "buffer" : 0,
      "byteOffset" : 27312,
      "byteLength" : 15328
    },
    {
      "buffer" : 0,
      "byteOffset" : 42640,
      "byteLength" : 7664
    },
    {
      "buffer" : 0,
      "byteOffset" : 50304,
      "byteLength" : 7664
    },
    {
      "buffer" : 0,
      "byteOffset" : 57968,
      "byteLength" : 7664
    },
    {
      "buffer" : 0,
      "byteOffset" : 65632,
      "byteLength" : 7664
    }
  ],
  "accessors" : [
    {
      "bufferView" : 0,
      "componentType" : 5123,
      "count" : 2160,
      "type" : "SCALAR"
    },
    {
      "bufferView" : 1,
      "min" : [ -1.41608, -0.00114616, -1.41607 ],
      "max" : [ 1.41608, 8.45733, 1.41608 ],
      "componentType" : 5126,
      "count" : 958,
      "type" : "VEC3"
    },
    {
      "bufferView" : 2,
      "componentType" : 5126,
      "count" : 958,
      "type" : "VEC3"
    },
    {
      "bufferView" : 3,
      "componentType" : 5126,
      "count" : 958,
      "type" : "VEC4"
    },
    {
      "bufferView" : 4,
      "componentType" : 5126,
      "count" : 958,
      "type" : "VEC2"
    },
    {
      "bufferView" : 5,
      "componentType" : 5126,
      "count" : 958,
      "type" : "VEC2"
    },
    {
      "bufferView" : 6,
      "componentType" : 5126,
      "count" : 958,
      "type" : "VEC2"
    },
    {
      "bufferView" : 7,
      "componentType" : 5126,
      "count" : 958,
      "type" : "VEC2"
    }
  ]
}
