{
  "asset" : {
    "generator" : "UE Viewer (umodel) build 1579 based",
    "version" : "2.0"
  },
  "scene" : 0,
  "scenes" : [
    {
      "nodes" : [ 0 ]
    }
  ],
  "nodes" : [
    {
      "name" : "S_Envi_Umeda_Prop_Gate_02a",
      "mesh" : 0
    }
  ],
  "materials" : [
    {
      "name" : "MI_Envi_Umeda_Prop_Gate_02",
      "pbrMetallicRoughness" : {
        "baseColorFactor" : [ 0.3, 0.3, 0.3, 1.0 ],
        "metallicFactor" : 0.1,
        "roughnessFactor" : 0.5
      }
    }
  ],
  "meshes" : [
    {
      "primitives" : [
        {
          "attributes" : {
            "POSITION" : 1,
            "NORMAL" : 2,
            "TANGENT" : 3,
            "TEXCOORD_0" : 4,
            "TEXCOORD_1" : 5
          },
          "indices" : 0,
          "material" : 0
        }
      ],
      "name" : "S_Envi_Umeda_Prop_Gate_02a"
    }
  ],
  "buffers" : [
    {
      "uri" : "S_Envi_Umeda_Prop_Gate_02a.bin",
      "byteLength" : 30100
    }
  ],
  "bufferViews" : [
    {
      "buffer" : 0,
      "byteOffset" : 0,
      "byteLength" : 1820
    },
    {
      "buffer" : 0,
      "byteOffset" : 1820,
      "byteLength" : 6060
    },
    {
      "buffer" : 0,
      "byteOffset" : 7880,
      "byteLength" : 6060
    },
    {
      "buffer" : 0,
      "byteOffset" : 13940,
      "byteLength" : 8080
    },
    {
      "buffer" : 0,
      "byteOffset" : 22020,
      "byteLength" : 4040
    },
    {
      "buffer" : 0,
      "byteOffset" : 26060,
      "byteLength" : 4040
    }
  ],
  "accessors" : [
    {
      "bufferView" : 0,
      "componentType" : 5123,
      "count" : 909,
      "type" : "SCALAR"
    },
    {
      "bufferView" : 1,
      "min" : [ -0.142678, -1.12186, -1.16228 ],
      "max" : [ 0.252067, 1.7448, 1.15776 ],
      "componentType" : 5126,
      "count" : 505,
      "type" : "VEC3"
    },
    {
      "bufferView" : 2,
      "componentType" : 5126,
      "count" : 505,
      "type" : "VEC3"
    },
    {
      "bufferView" : 3,
      "componentType" : 5126,
      "count" : 505,
      "type" : "VEC4"
    },
    {
      "bufferView" : 4,
      "componentType" : 5126,
      "count" : 505,
      "type" : "VEC2"
    },
    {
      "bufferView" : 5,
      "componentType" : 5126,
      "count" : 505,
      "type" : "VEC2"
    }
  ]
}
