{
  "asset" : {
    "generator" : "UE Viewer (umodel) build 1579 based",
    "version" : "2.0"
  },
  "scene" : 0,
  "scenes" : [
    {
      "nodes" : [ 0 ]
    }
  ],
  "nodes" : [
    {
      "name" : "S_Envi_Umeda_TowerCrane_02a",
      "mesh" : 0
    }
  ],
  "materials" : [
    {
      "name" : "MI_Envi_Umeda_TowerCrane_02a",
      "pbrMetallicRoughness" : {
        "baseColorFactor" : [ 0.3, 0.3, 0.3, 1.0 ],
        "metallicFactor" : 0.1,
        "roughnessFactor" : 0.5
      }
    },
    {
      "name" : "MI_Envi_Umeda_TowerCrane_01_Logo",
      "pbrMetallicRoughness" : {
        "baseColorFactor" : [ 0.9, 0.3, 0.3, 1.0 ],
        "metallicFactor" : 0.1,
        "roughnessFactor" : 0.5
      }
    }
  ],
  "meshes" : [
    {
      "primitives" : [
        {
          "attributes" : {
            "POSITION" : 1,
            "NORMAL" : 2,
            "TANGENT" : 3,
            "TEXCOORD_0" : 4,
            "TEXCOORD_1" : 5
          },
          "indices" : 0,
          "material" : 0
        },
        {
          "attributes" : {
            "POSITION" : 7,
            "NORMAL" : 8,
            "TANGENT" : 9,
            "TEXCOORD_0" : 10,
            "TEXCOORD_1" : 11
          },
          "indices" : 6,
          "material" : 1
        }
      ],
      "name" : "S_Envi_Umeda_TowerCrane_02a"
    }
  ],
  "buffers" : [
    {
      "uri" : "S_Envi_Umeda_TowerCrane_02a.bin",
      "byteLength" : 349552
    }
  ],
  "bufferViews" : [
    {
      "buffer" : 0,
      "byteOffset" : 0,
      "byteLength" : 29484
    },
    {
      "buffer" : 0,
      "byteOffset" : 29484,
      "byteLength" : 68232
    },
    {
      "buffer" : 0,
      "byteOffset" : 97716,
      "byteLength" : 68232
    },
    {
      "buffer" : 0,
      "byteOffset" : 165948,
      "byteLength" : 90976
    },
    {
      "buffer" : 0,
      "byteOffset" : 256924,
      "byteLength" : 45488
    },
    {
      "buffer" : 0,
      "byteOffset" : 302412,
      "byteLength" : 45488
    },
    {
      "buffer" : 0,
      "byteOffset" : 347900,
      "byteLength" : 84
    },
    {
      "buffer" : 0,
      "byteOffset" : 347984,
      "byteLength" : 336
    },
    {
      "buffer" : 0,
      "byteOffset" : 348320,
      "byteLength" : 336
    },
    {
      "buffer" : 0,
      "byteOffset" : 348656,
      "byteLength" : 448
    },
    {
      "buffer" : 0,
      "byteOffset" : 349104,
      "byteLength" : 224
    },
    {
      "buffer" : 0,
      "byteOffset" : 349328,
      "byteLength" : 224
    }
  ],
  "accessors" : [
    {
      "bufferView" : 0,
      "componentType" : 5123,
      "count" : 14742,
      "type" : "SCALAR"
    },
    {
      "bufferView" : 1,
      "min" : [ -4.6019, -4.76837e-09, -3.32879 ],
      "max" : [ 12.0238, 12.8461, 2.31606 ],
      "componentType" : 5126,
      "count" : 5686,
      "type" : "VEC3"
    },
    {
      "bufferView" : 2,
      "componentType" : 5126,
      "count" : 5686,
      "type" : "VEC3"
    },
    {
      "bufferView" : 3,
      "componentType" : 5126,
      "count" : 5686,
      "type" : "VEC4"
    },
    {
      "bufferView" : 4,
      "componentType" : 5126,
      "count" : 5686,
      "type" : "VEC2"
    },
    {
      "bufferView" : 5,
      "componentType" : 5126,
      "count" : 5686,
      "type" : "VEC2"
    },
    {
      "bufferView" : 6,
      "componentType" : 5123,
      "count" : 42,
      "type" : "SCALAR"
    },
    {
      "bufferView" : 7,
      "min" : [ -2.9678, 3.99791, -0.460083 ],
      "max" : [ 4.15254, 10.5154, 2.04107 ],
      "componentType" : 5126,
      "count" : 28,
      "type" : "VEC3"
    },
    {
      "bufferView" : 8,
      "componentType" : 5126,
      "count" : 28,
      "type" : "VEC3"
    },
    {
      "bufferView" : 9,
      "componentType" : 5126,
      "count" : 28,
      "type" : "VEC4"
    },
    {
      "bufferView" : 10,
      "componentType" : 5126,
      "count" : 28,
      "type" : "VEC2"
    },
    {
      "bufferView" : 11,
      "componentType" : 5126,
      "count" : 28,
      "type" : "VEC2"
    }
  ]
}
