{
  "asset" : {
    "generator" : "UE Viewer (umodel) build 1579 based",
    "version" : "2.0"
  },
  "scene" : 0,
  "scenes" : [
    {
      "nodes" : [ 0 ]
    }
  ],
  "nodes" : [
    {
      "name" : "S_Envi_Umeda_Prop_FloorDrain_01",
      "mesh" : 0
    }
  ],
  "materials" : [
    {
      "name" : "MI_Envi_Umeda_Base_Ground_04",
      "pbrMetallicRoughness" : {
        "baseColorFactor" : [ 0.3, 0.3, 0.3, 1.0 ],
        "metallicFactor" : 0.1,
        "roughnessFactor" : 0.5
      }
    }
  ],
  "meshes" : [
    {
      "primitives" : [
        {
          "attributes" : {
            "POSITION" : 1,
            "NORMAL" : 2,
            "TANGENT" : 3,
            "TEXCOORD_0" : 4,
            "TEXCOORD_1" : 5
          },
          "indices" : 0,
          "material" : 0
        }
      ],
      "name" : "S_Envi_Umeda_Prop_FloorDrain_01"
    }
  ],
  "buffers" : [
    {
      "uri" : "S_Envi_Umeda_Prop_FloorDrain_01.bin",
      "byteLength" : 4532
    }
  ],
  "bufferViews" : [
    {
      "buffer" : 0,
      "byteOffset" : 0,
      "byteLength" : 276
    },
    {
      "buffer" : 0,
      "byteOffset" : 276,
      "byteLength" : 912
    },
    {
      "buffer" : 0,
      "byteOffset" : 1188,
      "byteLength" : 912
    },
    {
      "buffer" : 0,
      "byteOffset" : 2100,
      "byteLength" : 1216
    },
    {
      "buffer" : 0,
      "byteOffset" : 3316,
      "byteLength" : 608
    },
    {
      "buffer" : 0,
      "byteOffset" : 3924,
      "byteLength" : 608
    }
  ],
  "accessors" : [
    {
      "bufferView" : 0,
      "componentType" : 5123,
      "count" : 138,
      "type" : "SCALAR"
    },
    {
      "bufferView" : 1,
      "min" : [ -1.33314, 0, -3.20599e-18 ],
      "max" : [ 1.52588e-07, 0.0578485, 1.06458 ],
      "componentType" : 5126,
      "count" : 76,
      "type" : "VEC3"
    },
    {
      "bufferView" : 2,
      "componentType" : 5126,
      "count" : 76,
      "type" : "VEC3"
    },
    {
      "bufferView" : 3,
      "componentType" : 5126,
      "count" : 76,
      "type" : "VEC4"
    },
    {
      "bufferView" : 4,
      "componentType" : 5126,
      "count" : 76,
      "type" : "VEC2"
    },
    {
      "bufferView" : 5,
      "componentType" : 5126,
      "count" : 76,
      "type" : "VEC2"
    }
  ]
}
