{
  "asset" : {
    "generator" : "UE Viewer (umodel) build 1579 based",
    "version" : "2.0"
  },
  "scene" : 0,
  "scenes" : [
    {
      "nodes" : [ 0 ]
    }
  ],
  "nodes" : [
    {
      "name" : "S_Envi_Umeda_octopus_01",
      "mesh" : 0
    }
  ],
  "materials" : [
    {
      "name" : "mi_Envi_Umeda_octopus_01",
      "pbrMetallicRoughness" : {
        "baseColorFactor" : [ 0.3, 0.3, 0.3, 1.0 ],
        "metallicFactor" : 0.1,
        "roughnessFactor" : 0.5
      }
    }
  ],
  "meshes" : [
    {
      "primitives" : [
        {
          "attributes" : {
            "POSITION" : 1,
            "NORMAL" : 2,
            "TANGENT" : 3,
            "TEXCOORD_0" : 4,
            "TEXCOORD_1" : 5
          },
          "indices" : 0,
          "material" : 0
        }
      ],
      "name" : "S_Envi_Umeda_octopus_01"
    }
  ],
  "buffers" : [
    {
      "uri" : "S_Envi_Umeda_octopus_01.bin",
      "byteLength" : 297284
    }
  ],
  "bufferViews" : [
    {
      "buffer" : 0,
      "byteOffset" : 0,
      "byteLength" : 35988
    },
    {
      "buffer" : 0,
      "byteOffset" : 35988,
      "byteLength" : 55992
    },
    {
      "buffer" : 0,
      "byteOffset" : 91980,
      "byteLength" : 55992
    },
    {
      "buffer" : 0,
      "byteOffset" : 147972,
      "byteLength" : 74656
    },
    {
      "buffer" : 0,
      "byteOffset" : 222628,
      "byteLength" : 37328
    },
    {
      "buffer" : 0,
      "byteOffset" : 259956,
      "byteLength" : 37328
    }
  ],
  "accessors" : [
    {
      "bufferView" : 0,
      "componentType" : 5123,
      "count" : 17994,
      "type" : "SCALAR"
    },
    {
      "bufferView" : 1,
      "min" : [ -3.31514, -3.01324, -1.29396 ],
      "max" : [ 3.53966, 3.04266, 1.78784 ],
      "componentType" : 5126,
      "count" : 4666,
      "type" : "VEC3"
    },
    {
      "bufferView" : 2,
      "componentType" : 5126,
      "count" : 4666,
      "type" : "VEC3"
    },
    {
      "bufferView" : 3,
      "componentType" : 5126,
      "count" : 4666,
      "type" : "VEC4"
    },
    {
      "bufferView" : 4,
      "componentType" : 5126,
      "count" : 4666,
      "type" : "VEC2"
    },
    {
      "bufferView" : 5,
      "componentType" : 5126,
      "count" : 4666,
      "type" : "VEC2"
    }
  ]
}
