{
  "asset" : {
    "generator" : "UE Viewer (umodel) build 1579 based",
    "version" : "2.0"
  },
  "scene" : 0,
  "scenes" : [
    {
      "nodes" : [ 0 ]
    }
  ],
  "nodes" : [
    {
      "name" : "S_Envi_Umeda_Aspot_forklift_01",
      "mesh" : 0
    }
  ],
  "materials" : [
    {
      "name" : "MI_Envi_Umeda_Aspot_forklift_01",
      "pbrMetallicRoughness" : {
        "baseColorFactor" : [ 0.3, 0.3, 0.3, 1.0 ],
        "metallicFactor" : 0.1,
        "roughnessFactor" : 0.5
      }
    },
    {
      "name" : "MI_PM_Glass_02h",
      "pbrMetallicRoughness" : {
        "baseColorFactor" : [ 0.9, 0.3, 0.3, 1.0 ],
        "metallicFactor" : 0.1,
        "roughnessFactor" : 0.5
      }
    }
  ],
  "meshes" : [
    {
      "primitives" : [
        {
          "attributes" : {
            "POSITION" : 1,
            "NORMAL" : 2,
            "TANGENT" : 3,
            "TEXCOORD_0" : 4,
            "TEXCOORD_1" : 5
          },
          "indices" : 0,
          "material" : 0
        },
        {
          "attributes" : {
            "POSITION" : 7,
            "NORMAL" : 8,
            "TANGENT" : 9,
            "TEXCOORD_0" : 10,
            "TEXCOORD_1" : 11
          },
          "indices" : 6,
          "material" : 1
        }
      ],
      "name" : "S_Envi_Umeda_Aspot_forklift_01"
    }
  ],
  "buffers" : [
    {
      "uri" : "S_Envi_Umeda_Aspot_forklift_01.bin",
      "byteLength" : 223748
    }
  ],
  "bufferViews" : [
    {
      "buffer" : 0,
      "byteOffset" : 0,
      "byteLength" : 19724
    },
    {
      "buffer" : 0,
      "byteOffset" : 19724,
      "byteLength" : 43464
    },
    {
      "buffer" : 0,
      "byteOffset" : 63188,
      "byteLength" : 43464
    },
    {
      "buffer" : 0,
      "byteOffset" : 106652,
      "byteLength" : 57952
    },
    {
      "buffer" : 0,
      "byteOffset" : 164604,
      "byteLength" : 28976
    },
    {
      "buffer" : 0,
      "byteOffset" : 193580,
      "byteLength" : 28976
    },
    {
      "buffer" : 0,
      "byteOffset" : 222556,
      "byteLength" : 72
    },
    {
      "buffer" : 0,
      "byteOffset" : 222628,
      "byteLength" : 240
    },
    {
      "buffer" : 0,
      "byteOffset" : 222868,
      "byteLength" : 240
    },
    {
      "buffer" : 0,
      "byteOffset" : 223108,
      "byteLength" : 320
    },
    {
      "buffer" : 0,
      "byteOffset" : 223428,
      "byteLength" : 160
    },
    {
      "buffer" : 0,
      "byteOffset" : 223588,
      "byteLength" : 160
    }
  ],
  "accessors" : [
    {
      "bufferView" : 0,
      "componentType" : 5123,
      "count" : 9861,
      "type" : "SCALAR"
    },
    {
      "bufferView" : 1,
      "min" : [ -0.977416, -0.131796, -2.33799 ],
      "max" : [ 0.977416, 2.11684, 2.33799 ],
      "componentType" : 5126,
      "count" : 3622,
      "type" : "VEC3"
    },
    {
      "bufferView" : 2,
      "componentType" : 5126,
      "count" : 3622,
      "type" : "VEC3"
    },
    {
      "bufferView" : 3,
      "componentType" : 5126,
      "count" : 3622,
      "type" : "VEC4"
    },
    {
      "bufferView" : 4,
      "componentType" : 5126,
      "count" : 3622,
      "type" : "VEC2"
    },
    {
      "bufferView" : 5,
      "componentType" : 5126,
      "count" : 3622,
      "type" : "VEC2"
    },
    {
      "bufferView" : 6,
      "componentType" : 5123,
      "count" : 36,
      "type" : "SCALAR"
    },
    {
      "bufferView" : 7,
      "min" : [ -0.651771, 1.23226, -0.570607 ],
      "max" : [ 0.651766, 2.02335, 0.93618 ],
      "componentType" : 5126,
      "count" : 20,
      "type" : "VEC3"
    },
    {
      "bufferView" : 8,
      "componentType" : 5126,
      "count" : 20,
      "type" : "VEC3"
    },
    {
      "bufferView" : 9,
      "componentType" : 5126,
      "count" : 20,
      "type" : "VEC4"
    },
    {
      "bufferView" : 10,
      "componentType" : 5126,
      "count" : 20,
      "type" : "VEC2"
    },
    {
      "bufferView" : 11,
      "componentType" : 5126,
      "count" : 20,
      "type" : "VEC2"
    }
  ]
}
