{
  "asset" : {
    "generator" : "UE Viewer (umodel) build 1579 based",
    "version" : "2.0"
  },
  "scene" : 0,
  "scenes" : [
    {
      "nodes" : [ 0 ]
    }
  ],
  "nodes" : [
    {
      "name" : "S_Envi_Umeda_Prop_Container_07j",
      "mesh" : 0
    }
  ],
  "materials" : [
    {
      "name" : "MI_Envi_Umeda_Prop_Container_01h",
      "pbrMetallicRoughness" : {
        "baseColorFactor" : [ 0.3, 0.3, 0.3, 1.0 ],
        "metallicFactor" : 0.1,
        "roughnessFactor" : 0.5
      }
    },
    {
      "name" : "MI_Envi_Umeda_Prop_Container_03",
      "pbrMetallicRoughness" : {
        "baseColorFactor" : [ 0.9, 0.3, 0.3, 1.0 ],
        "metallicFactor" : 0.1,
        "roughnessFactor" : 0.5
      }
    }
  ],
  "meshes" : [
    {
      "primitives" : [
        {
          "attributes" : {
            "POSITION" : 1,
            "NORMAL" : 2,
            "TANGENT" : 3,
            "TEXCOORD_0" : 4,
            "TEXCOORD_1" : 5
          },
          "indices" : 0,
          "material" : 0
        },
        {
          "attributes" : {
            "POSITION" : 7,
            "NORMAL" : 8,
            "TANGENT" : 9,
            "TEXCOORD_0" : 10,
            "TEXCOORD_1" : 11
          },
          "indices" : 6,
          "material" : 1
        }
      ],
      "name" : "S_Envi_Umeda_Prop_Container_07j"
    }
  ],
  "buffers" : [
    {
      "uri" : "S_Envi_Umeda_Prop_Container_07j.bin",
      "byteLength" : 31296
    }
  ],
  "bufferViews" : [
    {
      "buffer" : 0,
      "byteOffset" : 0,
      "byteLength" : 3024
    },
    {
      "buffer" : 0,
      "byteOffset" : 3024,
      "byteLength" : 5856
    },
    {
      "buffer" : 0,
      "byteOffset" : 8880,
      "byteLength" : 5856
    },
    {
      "buffer" : 0,
      "byteOffset" : 14736,
      "byteLength" : 7808
    },
    {
      "buffer" : 0,
      "byteOffset" : 22544,
      "byteLength" : 3904
    },
    {
      "buffer" : 0,
      "byteOffset" : 26448,
      "byteLength" : 3904
    },
    {
      "buffer" : 0,
      "byteOffset" : 30352,
      "byteLength" : 48
    },
    {
      "buffer" : 0,
      "byteOffset" : 30400,
      "byteLength" : 192
    },
    {
      "buffer" : 0,
      "byteOffset" : 30592,
      "byteLength" : 192
    },
    {
      "buffer" : 0,
      "byteOffset" : 30784,
      "byteLength" : 256
    },
    {
      "buffer" : 0,
      "byteOffset" : 31040,
      "byteLength" : 128
    },
    {
      "buffer" : 0,
      "byteOffset" : 31168,
      "byteLength" : 128
    }
  ],
  "accessors" : [
    {
      "bufferView" : 0,
      "componentType" : 5123,
      "count" : 1512,
      "type" : "SCALAR"
    },
    {
      "bufferView" : 1,
      "min" : [ -83.5787, 10.6797, 45.495 ],
      "max" : [ -83.144, 14.1683, 49.2577 ],
      "componentType" : 5126,
      "count" : 488,
      "type" : "VEC3"
    },
    {
      "bufferView" : 2,
      "componentType" : 5126,
      "count" : 488,
      "type" : "VEC3"
    },
    {
      "bufferView" : 3,
      "componentType" : 5126,
      "count" : 488,
      "type" : "VEC4"
    },
    {
      "bufferView" : 4,
      "componentType" : 5126,
      "count" : 488,
      "type" : "VEC2"
    },
    {
      "bufferView" : 5,
      "componentType" : 5126,
      "count" : 488,
      "type" : "VEC2"
    },
    {
      "bufferView" : 6,
      "componentType" : 5123,
      "count" : 24,
      "type" : "SCALAR"
    },
    {
      "bufferView" : 7,
      "min" : [ -83.4196, 11.0366, 45.8785 ],
      "max" : [ -83.2606, 13.8114, 48.8742 ],
      "componentType" : 5126,
      "count" : 16,
      "type" : "VEC3"
    },
    {
      "bufferView" : 8,
      "componentType" : 5126,
      "count" : 16,
      "type" : "VEC3"
    },
    {
      "bufferView" : 9,
      "componentType" : 5126,
      "count" : 16,
      "type" : "VEC4"
    },
    {
      "bufferView" : 10,
      "componentType" : 5126,
      "count" : 16,
      "type" : "VEC2"
    },
    {
      "bufferView" : 11,
      "componentType" : 5126,
      "count" : 16,
      "type" : "VEC2"
    }
  ]
}
