{
  "asset" : {
    "generator" : "UE Viewer (umodel) build 1579 based",
    "version" : "2.0"
  },
  "scene" : 0,
  "scenes" : [
    {
      "nodes" : [ 0 ]
    }
  ],
  "nodes" : [
    {
      "name" : "S_Envi_Umeda_Aspot_electricitybox_01",
      "mesh" : 0
    }
  ],
  "materials" : [
    {
      "name" : "MI_Envi_Umeda_Aspot_Merge_01",
      "pbrMetallicRoughness" : {
        "baseColorFactor" : [ 0.3, 0.3, 0.3, 1.0 ],
        "metallicFactor" : 0.1,
        "roughnessFactor" : 0.5
      }
    },
    {
      "name" : "M_LEDBillboard_05",
      "pbrMetallicRoughness" : {
        "baseColorFactor" : [ 0.9, 0.3, 0.3, 1.0 ],
        "metallicFactor" : 0.1,
        "roughnessFactor" : 0.5
      }
    }
  ],
  "meshes" : [
    {
      "primitives" : [
        {
          "attributes" : {
            "POSITION" : 1,
            "NORMAL" : 2,
            "TANGENT" : 3,
            "TEXCOORD_0" : 4,
            "TEXCOORD_1" : 5
          },
          "indices" : 0,
          "material" : 0
        },
        {
          "attributes" : {
            "POSITION" : 7,
            "NORMAL" : 8,
            "TANGENT" : 9,
            "TEXCOORD_0" : 10,
            "TEXCOORD_1" : 11
          },
          "indices" : 6,
          "material" : 1
        }
      ],
      "name" : "S_Envi_Umeda_Aspot_electricitybox_01"
    }
  ],
  "buffers" : [
    {
      "uri" : "S_Envi_Umeda_Aspot_electricitybox_01.bin",
      "byteLength" : 35936
    }
  ],
  "bufferViews" : [
    {
      "buffer" : 0,
      "byteOffset" : 0,
      "byteLength" : 2132
    },
    {
      "buffer" : 0,
      "byteOffset" : 2132,
      "byteLength" : 7140
    },
    {
      "buffer" : 0,
      "byteOffset" : 9272,
      "byteLength" : 7140
    },
    {
      "buffer" : 0,
      "byteOffset" : 16412,
      "byteLength" : 9520
    },
    {
      "buffer" : 0,
      "byteOffset" : 25932,
      "byteLength" : 4760
    },
    {
      "buffer" : 0,
      "byteOffset" : 30692,
      "byteLength" : 4760
    },
    {
      "buffer" : 0,
      "byteOffset" : 35452,
      "byteLength" : 36
    },
    {
      "buffer" : 0,
      "byteOffset" : 35488,
      "byteLength" : 96
    },
    {
      "buffer" : 0,
      "byteOffset" : 35584,
      "byteLength" : 96
    },
    {
      "buffer" : 0,
      "byteOffset" : 35680,
      "byteLength" : 128
    },
    {
      "buffer" : 0,
      "byteOffset" : 35808,
      "byteLength" : 64
    },
    {
      "buffer" : 0,
      "byteOffset" : 35872,
      "byteLength" : 64
    }
  ],
  "accessors" : [
    {
      "bufferView" : 0,
      "componentType" : 5123,
      "count" : 1065,
      "type" : "SCALAR"
    },
    {
      "bufferView" : 1,
      "min" : [ -0.839111, -1.52588e-07, -0.961256 ],
      "max" : [ 0.839111, 2.47468, 0.961256 ],
      "componentType" : 5126,
      "count" : 595,
      "type" : "VEC3"
    },
    {
      "bufferView" : 2,
      "componentType" : 5126,
      "count" : 595,
      "type" : "VEC3"
    },
    {
      "bufferView" : 3,
      "componentType" : 5126,
      "count" : 595,
      "type" : "VEC4"
    },
    {
      "bufferView" : 4,
      "componentType" : 5126,
      "count" : 595,
      "type" : "VEC2"
    },
    {
      "bufferView" : 5,
      "componentType" : 5126,
      "count" : 595,
      "type" : "VEC2"
    },
    {
      "bufferView" : 6,
      "componentType" : 5123,
      "count" : 18,
      "type" : "SCALAR"
    },
    {
      "bufferView" : 7,
      "min" : [ -0.441156, 0.609624, -0.857934 ],
      "max" : [ 0.0550814, 1.10473, -0.857934 ],
      "componentType" : 5126,
      "count" : 8,
      "type" : "VEC3"
    },
    {
      "bufferView" : 8,
      "componentType" : 5126,
      "count" : 8,
      "type" : "VEC3"
    },
    {
      "bufferView" : 9,
      "componentType" : 5126,
      "count" : 8,
      "type" : "VEC4"
    },
    {
      "bufferView" : 10,
      "componentType" : 5126,
      "count" : 8,
      "type" : "VEC2"
    },
    {
      "bufferView" : 11,
      "componentType" : 5126,
      "count" : 8,
      "type" : "VEC2"
    }
  ]
}
