{
  "asset" : {
    "generator" : "UE Viewer (umodel) build 1579 based",
    "version" : "2.0"
  },
  "scene" : 0,
  "scenes" : [
    {
      "nodes" : [ 0 ]
    }
  ],
  "nodes" : [
    {
      "name" : "S_Envi_Umeda_Aspot_chargingpile_01",
      "mesh" : 0
    }
  ],
  "materials" : [
    {
      "name" : "MI_Envi_Umeda_Aspot_chargingpile_01",
      "pbrMetallicRoughness" : {
        "baseColorFactor" : [ 0.3, 0.3, 0.3, 1.0 ],
        "metallicFactor" : 0.1,
        "roughnessFactor" : 0.5
      }
    }
  ],
  "meshes" : [
    {
      "primitives" : [
        {
          "attributes" : {
            "POSITION" : 1,
            "NORMAL" : 2,
            "TANGENT" : 3,
            "TEXCOORD_0" : 4,
            "TEXCOORD_1" : 5
          },
          "indices" : 0,
          "material" : 0
        }
      ],
      "name" : "S_Envi_Umeda_Aspot_chargingpile_01"
    }
  ],
  "buffers" : [
    {
      "uri" : "S_Envi_Umeda_Aspot_chargingpile_01.bin",
      "byteLength" : 59140
    }
  ],
  "bufferViews" : [
    {
      "buffer" : 0,
      "byteOffset" : 0,
      "byteLength" : 5436
    },
    {
      "buffer" : 0,
      "byteOffset" : 5436,
      "byteLength" : 11508
    },
    {
      "buffer" : 0,
      "byteOffset" : 16944,
      "byteLength" : 11508
    },
    {
      "buffer" : 0,
      "byteOffset" : 28452,
      "byteLength" : 15344
    },
    {
      "buffer" : 0,
      "byteOffset" : 43796,
      "byteLength" : 7672
    },
    {
      "buffer" : 0,
      "byteOffset" : 51468,
      "byteLength" : 7672
    }
  ],
  "accessors" : [
    {
      "bufferView" : 0,
      "componentType" : 5123,
      "count" : 2718,
      "type" : "SCALAR"
    },
    {
      "bufferView" : 1,
      "min" : [ -0.84305, -1.52588e-07, -0.87448 ],
      "max" : [ 0.84305, 2.50353, 0.874481 ],
      "componentType" : 5126,
      "count" : 959,
      "type" : "VEC3"
    },
    {
      "bufferView" : 2,
      "componentType" : 5126,
      "count" : 959,
      "type" : "VEC3"
    },
    {
      "bufferView" : 3,
      "componentType" : 5126,
      "count" : 959,
      "type" : "VEC4"
    },
    {
      "bufferView" : 4,
      "componentType" : 5126,
      "count" : 959,
      "type" : "VEC2"
    },
    {
      "bufferView" : 5,
      "componentType" : 5126,
      "count" : 959,
      "type" : "VEC2"
    }
  ]
}
