{
  "asset" : {
    "generator" : "UE Viewer (umodel) build 1579 based",
    "version" : "2.0"
  },
  "scene" : 0,
  "scenes" : [
    {
      "nodes" : [ 0 ]
    }
  ],
  "nodes" : [
    {
      "name" : "S_Envi_Common_Parterre_Merge_01m",
      "mesh" : 0
    }
  ],
  "materials" : [
    {
      "name" : "MI_Envi_Common_Bathroom_Merge_01",
      "pbrMetallicRoughness" : {
        "baseColorFactor" : [ 0.3, 0.3, 0.3, 1.0 ],
        "metallicFactor" : 0.1,
        "roughnessFactor" : 0.5
      }
    }
  ],
  "meshes" : [
    {
      "primitives" : [
        {
          "attributes" : {
            "POSITION" : 1,
            "NORMAL" : 2,
            "TANGENT" : 3,
            "TEXCOORD_0" : 4,
            "TEXCOORD_1" : 5
          },
          "indices" : 0,
          "material" : 0
        }
      ],
      "name" : "S_Envi_Common_Parterre_Merge_01m"
    }
  ],
  "buffers" : [
    {
      "uri" : "S_Envi_Common_Parterre_Merge_01m.bin",
      "byteLength" : 169784
    }
  ],
  "bufferViews" : [
    {
      "buffer" : 0,
      "byteOffset" : 0,
      "byteLength" : 12648
    },
    {
      "buffer" : 0,
      "byteOffset" : 12648,
      "byteLength" : 33672
    },
    {
      "buffer" : 0,
      "byteOffset" : 46320,
      "byteLength" : 33672
    },
    {
      "buffer" : 0,
      "byteOffset" : 79992,
      "byteLength" : 44896
    },
    {
      "buffer" : 0,
      "byteOffset" : 124888,
      "byteLength" : 22448
    },
    {
      "buffer" : 0,
      "byteOffset" : 147336,
      "byteLength" : 22448
    }
  ],
  "accessors" : [
    {
      "bufferView" : 0,
      "componentType" : 5123,
      "count" : 6324,
      "type" : "SCALAR"
    },
    {
      "bufferView" : 1,
      "min" : [ 54.4245, 4.11592, -37.0695 ],
      "max" : [ 64.5046, 5.18575, -21.5959 ],
      "componentType" : 5126,
      "count" : 2806,
      "type" : "VEC3"
    },
    {
      "bufferView" : 2,
      "componentType" : 5126,
      "count" : 2806,
      "type" : "VEC3"
    },
    {
      "bufferView" : 3,
      "componentType" : 5126,
      "count" : 2806,
      "type" : "VEC4"
    },
    {
      "bufferView" : 4,
      "componentType" : 5126,
      "count" : 2806,
      "type" : "VEC2"
    },
    {
      "bufferView" : 5,
      "componentType" : 5126,
      "count" : 2806,
      "type" : "VEC2"
    }
  ]
}
