{
  "asset" : {
    "generator" : "UE Viewer (umodel) build 1579 based",
    "version" : "2.0"
  },
  "scene" : 0,
  "scenes" : [
    {
      "nodes" : [ 0 ]
    }
  ],
  "nodes" : [
    {
      "name" : "S_Envi_Umeda_Pillar_02a",
      "mesh" : 0
    }
  ],
  "materials" : [
    {
      "name" : "MI_Envi_Umeda_Base_Pillar_01",
      "pbrMetallicRoughness" : {
        "baseColorFactor" : [ 0.3, 0.3, 0.3, 1.0 ],
        "metallicFactor" : 0.1,
        "roughnessFactor" : 0.5
      }
    }
  ],
  "meshes" : [
    {
      "primitives" : [
        {
          "attributes" : {
            "POSITION" : 1,
            "NORMAL" : 2,
            "TANGENT" : 3,
            "TEXCOORD_0" : 4,
            "TEXCOORD_1" : 5
          },
          "indices" : 0,
          "material" : 0
        }
      ],
      "name" : "S_Envi_Umeda_Pillar_02a"
    }
  ],
  "buffers" : [
    {
      "uri" : "S_Envi_Umeda_Pillar_02a.bin",
      "byteLength" : 66944
    }
  ],
  "bufferViews" : [
    {
      "buffer" : 0,
      "byteOffset" : 0,
      "byteLength" : 5232
    },
    {
      "buffer" : 0,
      "byteOffset" : 5232,
      "byteLength" : 13224
    },
    {
      "buffer" : 0,
      "byteOffset" : 18456,
      "byteLength" : 13224
    },
    {
      "buffer" : 0,
      "byteOffset" : 31680,
      "byteLength" : 17632
    },
    {
      "buffer" : 0,
      "byteOffset" : 49312,
      "byteLength" : 8816
    },
    {
      "buffer" : 0,
      "byteOffset" : 58128,
      "byteLength" : 8816
    }
  ],
  "accessors" : [
    {
      "bufferView" : 0,
      "componentType" : 5123,
      "count" : 2616,
      "type" : "SCALAR"
    },
    {
      "bufferView" : 1,
      "min" : [ -1.165, -7.14076e-17, -1.16617 ],
      "max" : [ 1.165, 8.61994, 1.16617 ],
      "componentType" : 5126,
      "count" : 1102,
      "type" : "VEC3"
    },
    {
      "bufferView" : 2,
      "componentType" : 5126,
      "count" : 1102,
      "type" : "VEC3"
    },
    {
      "bufferView" : 3,
      "componentType" : 5126,
      "count" : 1102,
      "type" : "VEC4"
    },
    {
      "bufferView" : 4,
      "componentType" : 5126,
      "count" : 1102,
      "type" : "VEC2"
    },
    {
      "bufferView" : 5,
      "componentType" : 5126,
      "count" : 1102,
      "type" : "VEC2"
    }
  ]
}
