{
  "asset" : {
    "generator" : "UE Viewer (umodel) build 1579 based",
    "version" : "2.0"
  },
  "scene" : 0,
  "scenes" : [
    {
      "nodes" : [ 0 ]
    }
  ],
  "nodes" : [
    {
      "name" : "S_Envi_Umeda_Prop_tape_01a",
      "mesh" : 0
    }
  ],
  "materials" : [
    {
      "name" : "MI_Envi_Umeda_Prop_tape_01",
      "pbrMetallicRoughness" : {
        "baseColorFactor" : [ 0.3, 0.3, 0.3, 1.0 ],
        "metallicFactor" : 0.1,
        "roughnessFactor" : 0.5
      }
    }
  ],
  "meshes" : [
    {
      "primitives" : [
        {
          "attributes" : {
            "POSITION" : 1,
            "NORMAL" : 2,
            "TANGENT" : 3,
            "TEXCOORD_0" : 4,
            "TEXCOORD_1" : 5
          },
          "indices" : 0,
          "material" : 0
        }
      ],
      "name" : "S_Envi_Umeda_Prop_tape_01a"
    }
  ],
  "buffers" : [
    {
      "uri" : "S_Envi_Umeda_Prop_tape_01a.bin",
      "byteLength" : 21368
    }
  ],
  "bufferViews" : [
    {
      "buffer" : 0,
      "byteOffset" : 0,
      "byteLength" : 1656
    },
    {
      "buffer" : 0,
      "byteOffset" : 1656,
      "byteLength" : 4224
    },
    {
      "buffer" : 0,
      "byteOffset" : 5880,
      "byteLength" : 4224
    },
    {
      "buffer" : 0,
      "byteOffset" : 10104,
      "byteLength" : 5632
    },
    {
      "buffer" : 0,
      "byteOffset" : 15736,
      "byteLength" : 2816
    },
    {
      "buffer" : 0,
      "byteOffset" : 18552,
      "byteLength" : 2816
    }
  ],
  "accessors" : [
    {
      "bufferView" : 0,
      "componentType" : 5123,
      "count" : 828,
      "type" : "SCALAR"
    },
    {
      "bufferView" : 1,
      "min" : [ -0.112027, -1.33118, -2.60002 ],
      "max" : [ 0.112028, 1.33118, 2.60002 ],
      "componentType" : 5126,
      "count" : 352,
      "type" : "VEC3"
    },
    {
      "bufferView" : 2,
      "componentType" : 5126,
      "count" : 352,
      "type" : "VEC3"
    },
    {
      "bufferView" : 3,
      "componentType" : 5126,
      "count" : 352,
      "type" : "VEC4"
    },
    {
      "bufferView" : 4,
      "componentType" : 5126,
      "count" : 352,
      "type" : "VEC2"
    },
    {
      "bufferView" : 5,
      "componentType" : 5126,
      "count" : 352,
      "type" : "VEC2"
    }
  ]
}
