{
  "asset" : {
    "generator" : "UE Viewer (umodel) build 1579 based",
    "version" : "2.0"
  },
  "scene" : 0,
  "scenes" : [
    {
      "nodes" : [ 0 ]
    }
  ],
  "nodes" : [
    {
      "name" : "S_Envi_Umeda_Base_ConveyorBelt_03",
      "mesh" : 0
    }
  ],
  "materials" : [
    {
      "name" : "MI_Envi_Umeda_Base_ConveyorBelt_01",
      "pbrMetallicRoughness" : {
        "baseColorFactor" : [ 0.3, 0.3, 0.3, 1.0 ],
        "metallicFactor" : 0.1,
        "roughnessFactor" : 0.5
      }
    }
  ],
  "meshes" : [
    {
      "primitives" : [
        {
          "attributes" : {
            "POSITION" : 1,
            "NORMAL" : 2,
            "TANGENT" : 3,
            "TEXCOORD_0" : 4,
            "TEXCOORD_1" : 5
          },
          "indices" : 0,
          "material" : 0
        }
      ],
      "name" : "S_Envi_Umeda_Base_ConveyorBelt_03"
    }
  ],
  "buffers" : [
    {
      "uri" : "S_Envi_Umeda_Base_ConveyorBelt_03.bin",
      "byteLength" : 23492
    }
  ],
  "bufferViews" : [
    {
      "buffer" : 0,
      "byteOffset" : 0,
      "byteLength" : 1596
    },
    {
      "buffer" : 0,
      "byteOffset" : 1596,
      "byteLength" : 4692
    },
    {
      "buffer" : 0,
      "byteOffset" : 6288,
      "byteLength" : 4692
    },
    {
      "buffer" : 0,
      "byteOffset" : 10980,
      "byteLength" : 6256
    },
    {
      "buffer" : 0,
      "byteOffset" : 17236,
      "byteLength" : 3128
    },
    {
      "buffer" : 0,
      "byteOffset" : 20364,
      "byteLength" : 3128
    }
  ],
  "accessors" : [
    {
      "bufferView" : 0,
      "componentType" : 5123,
      "count" : 798,
      "type" : "SCALAR"
    },
    {
      "bufferView" : 1,
      "min" : [ -2.69894, -1.46657e-17, -0.474429 ],
      "max" : [ 0.0400024, 1.26539, -0 ],
      "componentType" : 5126,
      "count" : 391,
      "type" : "VEC3"
    },
    {
      "bufferView" : 2,
      "componentType" : 5126,
      "count" : 391,
      "type" : "VEC3"
    },
    {
      "bufferView" : 3,
      "componentType" : 5126,
      "count" : 391,
      "type" : "VEC4"
    },
    {
      "bufferView" : 4,
      "componentType" : 5126,
      "count" : 391,
      "type" : "VEC2"
    },
    {
      "bufferView" : 5,
      "componentType" : 5126,
      "count" : 391,
      "type" : "VEC2"
    }
  ]
}
