{
  "asset" : {
    "generator" : "UE Viewer (umodel) build 1579 based",
    "version" : "2.0"
  },
  "scene" : 0,
  "scenes" : [
    {
      "nodes" : [ 0 ]
    }
  ],
  "nodes" : [
    {
      "name" : "S_Envi_Umeda_Prop_Word_05",
      "mesh" : 0
    }
  ],
  "materials" : [
    {
      "name" : "MI_Envi_Umeda_Prop_Word_01",
      "pbrMetallicRoughness" : {
        "baseColorFactor" : [ 0.3, 0.3, 0.3, 1.0 ],
        "metallicFactor" : 0.1,
        "roughnessFactor" : 0.5
      }
    }
  ],
  "meshes" : [
    {
      "primitives" : [
        {
          "attributes" : {
            "POSITION" : 1,
            "NORMAL" : 2,
            "TANGENT" : 3,
            "TEXCOORD_0" : 4,
            "TEXCOORD_1" : 5
          },
          "indices" : 0,
          "material" : 0
        }
      ],
      "name" : "S_Envi_Umeda_Prop_Word_05"
    }
  ],
  "buffers" : [
    {
      "uri" : "S_Envi_Umeda_Prop_Word_05.bin",
      "byteLength" : 51860
    }
  ],
  "bufferViews" : [
    {
      "buffer" : 0,
      "byteOffset" : 0,
      "byteLength" : 3644
    },
    {
      "buffer" : 0,
      "byteOffset" : 3644,
      "byteLength" : 10332
    },
    {
      "buffer" : 0,
      "byteOffset" : 13976,
      "byteLength" : 10332
    },
    {
      "buffer" : 0,
      "byteOffset" : 24308,
      "byteLength" : 13776
    },
    {
      "buffer" : 0,
      "byteOffset" : 38084,
      "byteLength" : 6888
    },
    {
      "buffer" : 0,
      "byteOffset" : 44972,
      "byteLength" : 6888
    }
  ],
  "accessors" : [
    {
      "bufferView" : 0,
      "componentType" : 5123,
      "count" : 1821,
      "type" : "SCALAR"
    },
    {
      "bufferView" : 1,
      "min" : [ -5.91787, 0, -5.53317e-17 ],
      "max" : [ 0, 0.903635, 0.154624 ],
      "componentType" : 5126,
      "count" : 861,
      "type" : "VEC3"
    },
    {
      "bufferView" : 2,
      "componentType" : 5126,
      "count" : 861,
      "type" : "VEC3"
    },
    {
      "bufferView" : 3,
      "componentType" : 5126,
      "count" : 861,
      "type" : "VEC4"
    },
    {
      "bufferView" : 4,
      "componentType" : 5126,
      "count" : 861,
      "type" : "VEC2"
    },
    {
      "bufferView" : 5,
      "componentType" : 5126,
      "count" : 861,
      "type" : "VEC2"
    }
  ]
}
