{
  "asset" : {
    "generator" : "UE Viewer (umodel) build 1579 based",
    "version" : "2.0"
  },
  "scene" : 0,
  "scenes" : [
    {
      "nodes" : [ 0 ]
    }
  ],
  "nodes" : [
    {
      "name" : "S_Envi_Umeda_Base_ConveyorBelt_05",
      "mesh" : 0
    }
  ],
  "materials" : [
    {
      "name" : "MI_Envi_Umeda_Base_ConveyorBelt_04",
      "pbrMetallicRoughness" : {
        "baseColorFactor" : [ 0.3, 0.3, 0.3, 1.0 ],
        "metallicFactor" : 0.1,
        "roughnessFactor" : 0.5
      }
    }
  ],
  "meshes" : [
    {
      "primitives" : [
        {
          "attributes" : {
            "POSITION" : 1,
            "NORMAL" : 2,
            "TANGENT" : 3,
            "TEXCOORD_0" : 4,
            "TEXCOORD_1" : 5
          },
          "indices" : 0,
          "material" : 0
        }
      ],
      "name" : "S_Envi_Umeda_Base_ConveyorBelt_05"
    }
  ],
  "buffers" : [
    {
      "uri" : "S_Envi_Umeda_Base_ConveyorBelt_05.bin",
      "byteLength" : 113824
    }
  ],
  "bufferViews" : [
    {
      "buffer" : 0,
      "byteOffset" : 0,
      "byteLength" : 8712
    },
    {
      "buffer" : 0,
      "byteOffset" : 8712,
      "byteLength" : 22524
    },
    {
      "buffer" : 0,
      "byteOffset" : 31236,
      "byteLength" : 22524
    },
    {
      "buffer" : 0,
      "byteOffset" : 53760,
      "byteLength" : 30032
    },
    {
      "buffer" : 0,
      "byteOffset" : 83792,
      "byteLength" : 15016
    },
    {
      "buffer" : 0,
      "byteOffset" : 98808,
      "byteLength" : 15016
    }
  ],
  "accessors" : [
    {
      "bufferView" : 0,
      "componentType" : 5123,
      "count" : 4356,
      "type" : "SCALAR"
    },
    {
      "bufferView" : 1,
      "min" : [ -1.21121, -0.72193, -2.52333 ],
      "max" : [ 1.23838, 0.0437604, 2.51529e-06 ],
      "componentType" : 5126,
      "count" : 1877,
      "type" : "VEC3"
    },
    {
      "bufferView" : 2,
      "componentType" : 5126,
      "count" : 1877,
      "type" : "VEC3"
    },
    {
      "bufferView" : 3,
      "componentType" : 5126,
      "count" : 1877,
      "type" : "VEC4"
    },
    {
      "bufferView" : 4,
      "componentType" : 5126,
      "count" : 1877,
      "type" : "VEC2"
    },
    {
      "bufferView" : 5,
      "componentType" : 5126,
      "count" : 1877,
      "type" : "VEC2"
    }
  ]
}
