{
  "asset" : {
    "generator" : "UE Viewer (umodel) build 1579 based",
    "version" : "2.0"
  },
  "scene" : 0,
  "scenes" : [
    {
      "nodes" : [ 0 ]
    }
  ],
  "nodes" : [
    {
      "name" : "SM_RollingStock",
      "mesh" : 0
    }
  ],
  "materials" : [
    {
      "name" : "MI_RollingStock",
      "pbrMetallicRoughness" : {
        "baseColorFactor" : [ 0.3, 0.3, 0.3, 1.0 ],
        "metallicFactor" : 0.1,
        "roughnessFactor" : 0.5
      }
    }
  ],
  "meshes" : [
    {
      "primitives" : [
        {
          "attributes" : {
            "POSITION" : 1,
            "NORMAL" : 2,
            "TANGENT" : 3,
            "TEXCOORD_0" : 4,
            "TEXCOORD_1" : 5
          },
          "indices" : 0,
          "material" : 0
        }
      ],
      "name" : "SM_RollingStock"
    }
  ],
  "buffers" : [
    {
      "uri" : "SM_RollingStock.bin",
      "byteLength" : 116404
    }
  ],
  "bufferViews" : [
    {
      "buffer" : 0,
      "byteOffset" : 0,
      "byteLength" : 6420
    },
    {
      "buffer" : 0,
      "byteOffset" : 6420,
      "byteLength" : 23568
    },
    {
      "buffer" : 0,
      "byteOffset" : 29988,
      "byteLength" : 23568
    },
    {
      "buffer" : 0,
      "byteOffset" : 53556,
      "byteLength" : 31424
    },
    {
      "buffer" : 0,
      "byteOffset" : 84980,
      "byteLength" : 15712
    },
    {
      "buffer" : 0,
      "byteOffset" : 100692,
      "byteLength" : 15712
    }
  ],
  "accessors" : [
    {
      "bufferView" : 0,
      "componentType" : 5123,
      "count" : 3210,
      "type" : "SCALAR"
    },
    {
      "bufferView" : 1,
      "min" : [ -38.0695, -0.0331526, -1.74732 ],
      "max" : [ 38.0695, 4.57303, 1.75417 ],
      "componentType" : 5126,
      "count" : 1964,
      "type" : "VEC3"
    },
    {
      "bufferView" : 2,
      "componentType" : 5126,
      "count" : 1964,
      "type" : "VEC3"
    },
    {
      "bufferView" : 3,
      "componentType" : 5126,
      "count" : 1964,
      "type" : "VEC4"
    },
    {
      "bufferView" : 4,
      "componentType" : 5126,
      "count" : 1964,
      "type" : "VEC2"
    },
    {
      "bufferView" : 5,
      "componentType" : 5126,
      "count" : 1964,
      "type" : "VEC2"
    }
  ]
}
