{
  "asset" : {
    "generator" : "UE Viewer (umodel) build 1579 based",
    "version" : "2.0"
  },
  "scene" : 0,
  "scenes" : [
    {
      "nodes" : [ 0 ]
    }
  ],
  "nodes" : [
    {
      "name" : "SK_Weap_Scar_H_Sight_1P_103",
      "mesh" : 0
    }
  ],
  "materials" : [
    {
      "name" : "MI_Weap_Scar_H_02_103",
      "pbrMetallicRoughness" : {
        "baseColorFactor" : [ 0.3, 0.3, 0.3, 1.0 ],
        "metallicFactor" : 0.1,
        "roughnessFactor" : 0.5
      }
    }
  ],
  "meshes" : [
    {
      "primitives" : [
        {
          "attributes" : {
            "POSITION" : 1,
            "NORMAL" : 2,
            "TANGENT" : 3,
            "TEXCOORD_0" : 4,
            "TEXCOORD_1" : 5
          },
          "indices" : 0,
          "material" : 0
        }
      ],
      "name" : "SK_Weap_Scar_H_Sight_1P_103"
    }
  ],
  "buffers" : [
    {
      "uri" : "SK_Weap_Scar_H_Sight_1P_103.bin",
      "byteLength" : 197680
    }
  ],
  "bufferViews" : [
    {
      "buffer" : 0,
      "byteOffset" : 0,
      "byteLength" : 24696
    },
    {
      "buffer" : 0,
      "byteOffset" : 24696,
      "byteLength" : 37068
    },
    {
      "buffer" : 0,
      "byteOffset" : 61764,
      "byteLength" : 37068
    },
    {
      "buffer" : 0,
      "byteOffset" : 98832,
      "byteLength" : 49424
    },
    {
      "buffer" : 0,
      "byteOffset" : 148256,
      "byteLength" : 24712
    },
    {
      "buffer" : 0,
      "byteOffset" : 172968,
      "byteLength" : 24712
    }
  ],
  "accessors" : [
    {
      "bufferView" : 0,
      "componentType" : 5123,
      "count" : 12348,
      "type" : "SCALAR"
    },
    {
      "bufferView" : 1,
      "min" : [ -0.0273116, -0.0512262, -0.0565635 ],
      "max" : [ 0.0273116, -0.000700408, 0.0236887 ],
      "componentType" : 5126,
      "count" : 3089,
      "type" : "VEC3"
    },
    {
      "bufferView" : 2,
      "componentType" : 5126,
      "count" : 3089,
      "type" : "VEC3"
    },
    {
      "bufferView" : 3,
      "componentType" : 5126,
      "count" : 3089,
      "type" : "VEC4"
    },
    {
      "bufferView" : 4,
      "componentType" : 5126,
      "count" : 3089,
      "type" : "VEC2"
    },
    {
      "bufferView" : 5,
      "componentType" : 5126,
      "count" : 3089,
      "type" : "VEC2"
    }
  ]
}
