{
  "asset" : {
    "generator" : "UE Viewer (umodel) build 1579 based",
    "version" : "2.0"
  },
  "scene" : 0,
  "scenes" : [
    {
      "nodes" : [ 0 ]
    }
  ],
  "nodes" : [
    {
      "name" : "SK_Weap_Scar_H_ForeStock_103",
      "mesh" : 0
    }
  ],
  "materials" : [
    {
      "name" : "MI_Weap_Scar_H_02_103",
      "pbrMetallicRoughness" : {
        "baseColorFactor" : [ 0.3, 0.3, 0.3, 1.0 ],
        "metallicFactor" : 0.1,
        "roughnessFactor" : 0.5
      }
    }
  ],
  "meshes" : [
    {
      "primitives" : [
        {
          "attributes" : {
            "POSITION" : 1,
            "NORMAL" : 2,
            "TANGENT" : 3,
            "TEXCOORD_0" : 4,
            "TEXCOORD_1" : 5
          },
          "indices" : 0,
          "material" : 0
        }
      ],
      "name" : "SK_Weap_Scar_H_ForeStock_103"
    }
  ],
  "buffers" : [
    {
      "uri" : "SK_Weap_Scar_H_ForeStock_103.bin",
      "byteLength" : 8968
    }
  ],
  "bufferViews" : [
    {
      "buffer" : 0,
      "byteOffset" : 0,
      "byteLength" : 792
    },
    {
      "buffer" : 0,
      "byteOffset" : 792,
      "byteLength" : 1752
    },
    {
      "buffer" : 0,
      "byteOffset" : 2544,
      "byteLength" : 1752
    },
    {
      "buffer" : 0,
      "byteOffset" : 4296,
      "byteLength" : 2336
    },
    {
      "buffer" : 0,
      "byteOffset" : 6632,
      "byteLength" : 1168
    },
    {
      "buffer" : 0,
      "byteOffset" : 7800,
      "byteLength" : 1168
    }
  ],
  "accessors" : [
    {
      "bufferView" : 0,
      "componentType" : 5123,
      "count" : 396,
      "type" : "SCALAR"
    },
    {
      "bufferView" : 1,
      "min" : [ -0.00613992, -0.0542066, -0.0239306 ],
      "max" : [ 0.00612908, 0.0197499, 0.0575566 ],
      "componentType" : 5126,
      "count" : 146,
      "type" : "VEC3"
    },
    {
      "bufferView" : 2,
      "componentType" : 5126,
      "count" : 146,
      "type" : "VEC3"
    },
    {
      "bufferView" : 3,
      "componentType" : 5126,
      "count" : 146,
      "type" : "VEC4"
    },
    {
      "bufferView" : 4,
      "componentType" : 5126,
      "count" : 146,
      "type" : "VEC2"
    },
    {
      "bufferView" : 5,
      "componentType" : 5126,
      "count" : 146,
      "type" : "VEC2"
    }
  ]
}
