{
  "asset" : {
    "generator" : "UE Viewer (umodel) build 1579 based",
    "version" : "2.0"
  },
  "scene" : 0,
  "scenes" : [
    {
      "nodes" : [ 0 ]
    }
  ],
  "nodes" : [
    {
      "name" : "S_Envi_Fyz_Decal_03g",
      "mesh" : 0
    }
  ],
  "materials" : [
    {
      "name" : "MI_Envi_Fyz_Decal_04a",
      "pbrMetallicRoughness" : {
        "baseColorFactor" : [ 0.3, 0.3, 0.3, 1.0 ],
        "metallicFactor" : 0.1,
        "roughnessFactor" : 0.5
      }
    }
  ],
  "meshes" : [
    {
      "primitives" : [
        {
          "attributes" : {
            "POSITION" : 1,
            "NORMAL" : 2,
            "TANGENT" : 3,
            "TEXCOORD_0" : 4,
            "TEXCOORD_1" : 5
          },
          "indices" : 0,
          "material" : 0
        }
      ],
      "name" : "S_Envi_Fyz_Decal_03g"
    }
  ],
  "buffers" : [
    {
      "uri" : "S_Envi_Fyz_Decal_03g.bin",
      "byteLength" : 236
    }
  ],
  "bufferViews" : [
    {
      "buffer" : 0,
      "byteOffset" : 0,
      "byteLength" : 12
    },
    {
      "buffer" : 0,
      "byteOffset" : 12,
      "byteLength" : 48
    },
    {
      "buffer" : 0,
      "byteOffset" : 60,
      "byteLength" : 48
    },
    {
      "buffer" : 0,
      "byteOffset" : 108,
      "byteLength" : 64
    },
    {
      "buffer" : 0,
      "byteOffset" : 172,
      "byteLength" : 32
    },
    {
      "buffer" : 0,
      "byteOffset" : 204,
      "byteLength" : 32
    }
  ],
  "accessors" : [
    {
      "bufferView" : 0,
      "componentType" : 5123,
      "count" : 6,
      "type" : "SCALAR"
    },
    {
      "bufferView" : 1,
      "min" : [ -4.37719, 0.0156199, -5.16422e-07 ],
      "max" : [ 4.37719, 3.64597, 1.15822e-06 ],
      "componentType" : 5126,
      "count" : 4,
      "type" : "VEC3"
    },
    {
      "bufferView" : 2,
      "componentType" : 5126,
      "count" : 4,
      "type" : "VEC3"
    },
    {
      "bufferView" : 3,
      "componentType" : 5126,
      "count" : 4,
      "type" : "VEC4"
    },
    {
      "bufferView" : 4,
      "componentType" : 5126,
      "count" : 4,
      "type" : "VEC2"
    },
    {
      "bufferView" : 5,
      "componentType" : 5126,
      "count" : 4,
      "type" : "VEC2"
    }
  ]
}
