{
  "asset" : {
    "generator" : "UE Viewer (umodel) build 1579 based",
    "version" : "2.0"
  },
  "scene" : 0,
  "scenes" : [
    {
      "nodes" : [ 0 ]
    }
  ],
  "nodes" : [
    {
      "name" : "SK_Weap_AKM_Pendant_106",
      "mesh" : 0,
      "skin" : 0,
      "children" : [ 1 ]
    },
    {
      "name" : "Root",
      "children" : [ 2 ],
      "translation" : [ -1.90735e-08, 0, 0 ],
      "rotation" : [ -0, -0, -0, 1 ]
    },
    {
      "name" : "Root_End",
      "translation" : [ -4.16084e-09, -0.0365666, -2.23906e-18 ],
      "rotation" : [ -8.74228e-08, 1.19959e-21, 1.37217e-14, -1 ]
    }
  ],
  "skins" : [
    {
      "inverseBindMatrices" : 0,
      "skeleton" : 1,
      "joints" : [
        1,2
      ]
    }
  ],
  "materials" : [
    {
      "name" : "MI_Weap_AKM_01_106",
      "pbrMetallicRoughness" : {
        "baseColorFactor" : [ 0.3, 0.3, 0.3, 1.0 ],
        "metallicFactor" : 0.1,
        "roughnessFactor" : 0.5
      }
    }
  ],
  "meshes" : [
    {
      "primitives" : [
        {
          "attributes" : {
            "POSITION" : 2,
            "NORMAL" : 3,
            "TANGENT" : 4,
            "JOINTS_0" : 5,
            "WEIGHTS_0" : 6,
            "TEXCOORD_0" : 7
          },
          "indices" : 1,
          "material" : 0
        }
      ],
      "name" : "SK_Weap_AKM_Pendant_106"
    }
  ],
  "buffers" : [
    {
      "uri" : "SK_Weap_AKM_Pendant_106.bin",
      "byteLength" : 52340
    }
  ],
  "bufferViews" : [
    {
      "buffer" : 0,
      "byteOffset" : 0,
      "byteLength" : 128
    },
    {
      "buffer" : 0,
      "byteOffset" : 128,
      "byteLength" : 5832
    },
    {
      "buffer" : 0,
      "byteOffset" : 5960,
      "byteLength" : 9276
    },
    {
      "buffer" : 0,
      "byteOffset" : 15236,
      "byteLength" : 9276
    },
    {
      "buffer" : 0,
      "byteOffset" : 24512,
      "byteLength" : 12368
    },
    {
      "buffer" : 0,
      "byteOffset" : 36880,
      "byteLength" : 6184
    },
    {
      "buffer" : 0,
      "byteOffset" : 43064,
      "byteLength" : 3092
    },
    {
      "buffer" : 0,
      "byteOffset" : 46156,
      "byteLength" : 6184
    }
  ],
  "accessors" : [
    {
      "bufferView" : 0,
      "componentType" : 5126,
      "count" : 2,
      "type" : "MAT4"
    },
    {
      "bufferView" : 1,
      "componentType" : 5123,
      "count" : 2916,
      "type" : "SCALAR"
    },
    {
      "bufferView" : 2,
      "min" : [ -0.00256198, -0.0722534, -0.0285354 ],
      "max" : [ 0.00256182, 0.00362159, 0.0164196 ],
      "componentType" : 5126,
      "count" : 773,
      "type" : "VEC3"
    },
    {
      "bufferView" : 3,
      "componentType" : 5126,
      "count" : 773,
      "type" : "VEC3"
    },
    {
      "bufferView" : 4,
      "componentType" : 5126,
      "count" : 773,
      "type" : "VEC4"
    },
    {
      "bufferView" : 5,
      "componentType" : 5123,
      "count" : 773,
      "type" : "VEC4"
    },
    {
      "bufferView" : 6,
      "normalized" : true,
      "componentType" : 5121,
      "count" : 773,
      "type" : "VEC4"
    },
    {
      "bufferView" : 7,
      "componentType" : 5126,
      "count" : 773,
      "type" : "VEC2"
    }
  ]
}
