{
  "asset" : {
    "generator" : "UE Viewer (umodel) build 1579 based",
    "version" : "2.0"
  },
  "scene" : 0,
  "scenes" : [
    {
      "nodes" : [ 0 ]
    }
  ],
  "nodes" : [
    {
      "name" : "SK_Weap_XM8_Magazine",
      "mesh" : 0
    }
  ],
  "materials" : [
    {
      "name" : "MI_Weap_XM8_000_02",
      "pbrMetallicRoughness" : {
        "baseColorFactor" : [ 0.3, 0.3, 0.3, 1.0 ],
        "metallicFactor" : 0.1,
        "roughnessFactor" : 0.5
      }
    }
  ],
  "meshes" : [
    {
      "primitives" : [
        {
          "attributes" : {
            "POSITION" : 1,
            "NORMAL" : 2,
            "TANGENT" : 3,
            "TEXCOORD_0" : 4
          },
          "indices" : 0,
          "material" : 0
        }
      ],
      "name" : "SK_Weap_XM8_Magazine"
    }
  ],
  "buffers" : [
    {
      "uri" : "SK_Weap_XM8_Magazine.bin",
      "byteLength" : 19524
    }
  ],
  "bufferViews" : [
    {
      "buffer" : 0,
      "byteOffset" : 0,
      "byteLength" : 2532
    },
    {
      "buffer" : 0,
      "byteOffset" : 2532,
      "byteLength" : 4248
    },
    {
      "buffer" : 0,
      "byteOffset" : 6780,
      "byteLength" : 4248
    },
    {
      "buffer" : 0,
      "byteOffset" : 11028,
      "byteLength" : 5664
    },
    {
      "buffer" : 0,
      "byteOffset" : 16692,
      "byteLength" : 2832
    }
  ],
  "accessors" : [
    {
      "bufferView" : 0,
      "componentType" : 5123,
      "count" : 1266,
      "type" : "SCALAR"
    },
    {
      "bufferView" : 1,
      "min" : [ -0.0124226, -0.0501797, -0.0356319 ],
      "max" : [ 0.0123979, 0.0501798, 0.0356319 ],
      "componentType" : 5126,
      "count" : 354,
      "type" : "VEC3"
    },
    {
      "bufferView" : 2,
      "componentType" : 5126,
      "count" : 354,
      "type" : "VEC3"
    },
    {
      "bufferView" : 3,
      "componentType" : 5126,
      "count" : 354,
      "type" : "VEC4"
    },
    {
      "bufferView" : 4,
      "componentType" : 5126,
      "count" : 354,
      "type" : "VEC2"
    }
  ]
}
