{
  "asset" : {
    "generator" : "UE Viewer (umodel) build 1579 based",
    "version" : "2.0"
  },
  "scene" : 0,
  "scenes" : [
    {
      "nodes" : [ 0 ]
    }
  ],
  "nodes" : [
    {
      "name" : "SM_Sphere_1M_60x32",
      "mesh" : 0
    }
  ],
  "materials" : [
    {
      "name" : "WorldGridMaterial",
      "pbrMetallicRoughness" : {
        "baseColorFactor" : [ 0.3, 0.3, 0.3, 1.0 ],
        "metallicFactor" : 0.1,
        "roughnessFactor" : 0.5
      }
    }
  ],
  "meshes" : [
    {
      "primitives" : [
        {
          "attributes" : {
            "POSITION" : 1,
            "NORMAL" : 2,
            "TANGENT" : 3,
            "TEXCOORD_0" : 4
          },
          "indices" : 0,
          "material" : 0
        }
      ],
      "name" : "SM_Sphere_1M_60x32"
    }
  ],
  "buffers" : [
    {
      "uri" : "SM_Sphere_1M_60x32.bin",
      "byteLength" : 118848
    }
  ],
  "bufferViews" : [
    {
      "buffer" : 0,
      "byteOffset" : 0,
      "byteLength" : 22320
    },
    {
      "buffer" : 0,
      "byteOffset" : 22320,
      "byteLength" : 24132
    },
    {
      "buffer" : 0,
      "byteOffset" : 46452,
      "byteLength" : 24132
    },
    {
      "buffer" : 0,
      "byteOffset" : 70584,
      "byteLength" : 32176
    },
    {
      "buffer" : 0,
      "byteOffset" : 102760,
      "byteLength" : 16088
    }
  ],
  "accessors" : [
    {
      "bufferView" : 0,
      "componentType" : 5123,
      "count" : 11160,
      "type" : "SCALAR"
    },
    {
      "bufferView" : 1,
      "min" : [ -0.5, -0.5, -0.5 ],
      "max" : [ 0.5, 0.5, 0.5 ],
      "componentType" : 5126,
      "count" : 2011,
      "type" : "VEC3"
    },
    {
      "bufferView" : 2,
      "componentType" : 5126,
      "count" : 2011,
      "type" : "VEC3"
    },
    {
      "bufferView" : 3,
      "componentType" : 5126,
      "count" : 2011,
      "type" : "VEC4"
    },
    {
      "bufferView" : 4,
      "componentType" : 5126,
      "count" : 2011,
      "type" : "VEC2"
    }
  ]
}
