{
  "asset" : {
    "generator" : "UE Viewer (umodel) build 1579 based",
    "version" : "2.0"
  },
  "scene" : 0,
  "scenes" : [
    {
      "nodes" : [ 0 ]
    }
  ],
  "nodes" : [
    {
      "name" : "SK_Weap_SVD_104_Sight_1P_Mesh",
      "mesh" : 0,
      "skin" : 0,
      "children" : [ 1 ]
    },
    {
      "name" : "Root",
      "translation" : [ 0, 0, 0 ],
      "rotation" : [ -0, -0, -0, 1 ]
    }
  ],
  "skins" : [
    {
      "inverseBindMatrices" : 0,
      "skeleton" : 1,
      "joints" : [
        1
      ]
    }
  ],
  "materials" : [
    {
      "name" : "MI_Weap_SVD_02_104",
      "pbrMetallicRoughness" : {
        "baseColorFactor" : [ 0.3, 0.3, 0.3, 1.0 ],
        "metallicFactor" : 0.1,
        "roughnessFactor" : 0.5
      }
    }
  ],
  "meshes" : [
    {
      "primitives" : [
        {
          "attributes" : {
            "POSITION" : 2,
            "NORMAL" : 3,
            "TANGENT" : 4,
            "JOINTS_0" : 5,
            "WEIGHTS_0" : 6,
            "TEXCOORD_0" : 7
          },
          "indices" : 1,
          "material" : 0
        }
      ],
      "name" : "SK_Weap_SVD_104_Sight_1P_Mesh"
    }
  ],
  "buffers" : [
    {
      "uri" : "SK_Weap_SVD_104_Sight_1P_Mesh.bin",
      "byteLength" : 38028
    }
  ],
  "bufferViews" : [
    {
      "buffer" : 0,
      "byteOffset" : 0,
      "byteLength" : 64
    },
    {
      "buffer" : 0,
      "byteOffset" : 64,
      "byteLength" : 4964
    },
    {
      "buffer" : 0,
      "byteOffset" : 5028,
      "byteLength" : 6600
    },
    {
      "buffer" : 0,
      "byteOffset" : 11628,
      "byteLength" : 6600
    },
    {
      "buffer" : 0,
      "byteOffset" : 18228,
      "byteLength" : 8800
    },
    {
      "buffer" : 0,
      "byteOffset" : 27028,
      "byteLength" : 4400
    },
    {
      "buffer" : 0,
      "byteOffset" : 31428,
      "byteLength" : 2200
    },
    {
      "buffer" : 0,
      "byteOffset" : 33628,
      "byteLength" : 4400
    }
  ],
  "accessors" : [
    {
      "bufferView" : 0,
      "componentType" : 5126,
      "count" : 1,
      "type" : "MAT4"
    },
    {
      "bufferView" : 1,
      "componentType" : 5123,
      "count" : 2481,
      "type" : "SCALAR"
    },
    {
      "bufferView" : 2,
      "min" : [ -0.023203, -0.0361103, -0.08921 ],
      "max" : [ 0.023203, 0.0341861, -0.0209441 ],
      "componentType" : 5126,
      "count" : 550,
      "type" : "VEC3"
    },
    {
      "bufferView" : 3,
      "componentType" : 5126,
      "count" : 550,
      "type" : "VEC3"
    },
    {
      "bufferView" : 4,
      "componentType" : 5126,
      "count" : 550,
      "type" : "VEC4"
    },
    {
      "bufferView" : 5,
      "componentType" : 5123,
      "count" : 550,
      "type" : "VEC4"
    },
    {
      "bufferView" : 6,
      "normalized" : true,
      "componentType" : 5121,
      "count" : 550,
      "type" : "VEC4"
    },
    {
      "bufferView" : 7,
      "componentType" : 5126,
      "count" : 550,
      "type" : "VEC2"
    }
  ]
}
