{
  "asset" : {
    "generator" : "UE Viewer (umodel) build 1579 based",
    "version" : "2.0"
  },
  "scene" : 0,
  "scenes" : [
    {
      "nodes" : [ 0 ]
    }
  ],
  "nodes" : [
    {
      "name" : "S_Envi_Common_Roof_02o",
      "mesh" : 0
    }
  ],
  "materials" : [
    {
      "name" : "MI_Envi_Common_Roof_04a",
      "pbrMetallicRoughness" : {
        "baseColorFactor" : [ 0.3, 0.3, 0.3, 1.0 ],
        "metallicFactor" : 0.1,
        "roughnessFactor" : 0.5
      }
    }
  ],
  "meshes" : [
    {
      "primitives" : [
        {
          "attributes" : {
            "POSITION" : 1,
            "NORMAL" : 2,
            "TANGENT" : 3,
            "TEXCOORD_0" : 4,
            "TEXCOORD_1" : 5
          },
          "indices" : 0,
          "material" : 0
        }
      ],
      "name" : "S_Envi_Common_Roof_02o"
    }
  ],
  "buffers" : [
    {
      "uri" : "S_Envi_Common_Roof_02o.bin",
      "byteLength" : 19208
    }
  ],
  "bufferViews" : [
    {
      "buffer" : 0,
      "byteOffset" : 0,
      "byteLength" : 2688
    },
    {
      "buffer" : 0,
      "byteOffset" : 2688,
      "byteLength" : 3540
    },
    {
      "buffer" : 0,
      "byteOffset" : 6228,
      "byteLength" : 3540
    },
    {
      "buffer" : 0,
      "byteOffset" : 9768,
      "byteLength" : 4720
    },
    {
      "buffer" : 0,
      "byteOffset" : 14488,
      "byteLength" : 2360
    },
    {
      "buffer" : 0,
      "byteOffset" : 16848,
      "byteLength" : 2360
    }
  ],
  "accessors" : [
    {
      "bufferView" : 0,
      "componentType" : 5123,
      "count" : 1344,
      "type" : "SCALAR"
    },
    {
      "bufferView" : 1,
      "min" : [ -0.00675446, -0.610308, -0.642893 ],
      "max" : [ 1.83496, 0.107556, 0.134164 ],
      "componentType" : 5126,
      "count" : 295,
      "type" : "VEC3"
    },
    {
      "bufferView" : 2,
      "componentType" : 5126,
      "count" : 295,
      "type" : "VEC3"
    },
    {
      "bufferView" : 3,
      "componentType" : 5126,
      "count" : 295,
      "type" : "VEC4"
    },
    {
      "bufferView" : 4,
      "componentType" : 5126,
      "count" : 295,
      "type" : "VEC2"
    },
    {
      "bufferView" : 5,
      "componentType" : 5126,
      "count" : 295,
      "type" : "VEC2"
    }
  ]
}
