{
  "asset" : {
    "generator" : "UE Viewer (umodel) build 1579 based",
    "version" : "2.0"
  },
  "scene" : 0,
  "scenes" : [
    {
      "nodes" : [ 0 ]
    }
  ],
  "nodes" : [
    {
      "name" : "S_Envi_Common_Roof_01e",
      "mesh" : 0
    }
  ],
  "materials" : [
    {
      "name" : "MI_Envi_Common_Roof_01a",
      "pbrMetallicRoughness" : {
        "baseColorFactor" : [ 0.3, 0.3, 0.3, 1.0 ],
        "metallicFactor" : 0.1,
        "roughnessFactor" : 0.5
      }
    }
  ],
  "meshes" : [
    {
      "primitives" : [
        {
          "attributes" : {
            "POSITION" : 1,
            "NORMAL" : 2,
            "TANGENT" : 3,
            "TEXCOORD_0" : 4,
            "TEXCOORD_1" : 5
          },
          "indices" : 0,
          "material" : 0
        }
      ],
      "name" : "S_Envi_Common_Roof_01e"
    }
  ],
  "buffers" : [
    {
      "uri" : "S_Envi_Common_Roof_01e.bin",
      "byteLength" : 19428
    }
  ],
  "bufferViews" : [
    {
      "buffer" : 0,
      "byteOffset" : 0,
      "byteLength" : 1508
    },
    {
      "buffer" : 0,
      "byteOffset" : 1508,
      "byteLength" : 3840
    },
    {
      "buffer" : 0,
      "byteOffset" : 5348,
      "byteLength" : 3840
    },
    {
      "buffer" : 0,
      "byteOffset" : 9188,
      "byteLength" : 5120
    },
    {
      "buffer" : 0,
      "byteOffset" : 14308,
      "byteLength" : 2560
    },
    {
      "buffer" : 0,
      "byteOffset" : 16868,
      "byteLength" : 2560
    }
  ],
  "accessors" : [
    {
      "bufferView" : 0,
      "componentType" : 5123,
      "count" : 753,
      "type" : "SCALAR"
    },
    {
      "bufferView" : 1,
      "min" : [ -3.00001, -5.34058e-07, -2.00001 ],
      "max" : [ -1.52588e-07, 0.378323, 2.0409e-06 ],
      "componentType" : 5126,
      "count" : 320,
      "type" : "VEC3"
    },
    {
      "bufferView" : 2,
      "componentType" : 5126,
      "count" : 320,
      "type" : "VEC3"
    },
    {
      "bufferView" : 3,
      "componentType" : 5126,
      "count" : 320,
      "type" : "VEC4"
    },
    {
      "bufferView" : 4,
      "componentType" : 5126,
      "count" : 320,
      "type" : "VEC2"
    },
    {
      "bufferView" : 5,
      "componentType" : 5126,
      "count" : 320,
      "type" : "VEC2"
    }
  ]
}
