{
  "asset" : {
    "generator" : "UE Viewer (umodel) build 1579 based",
    "version" : "2.0"
  },
  "scene" : 0,
  "scenes" : [
    {
      "nodes" : [ 0 ]
    }
  ],
  "nodes" : [
    {
      "name" : "S_Envi_Common_Roof_01d",
      "mesh" : 0
    }
  ],
  "materials" : [
    {
      "name" : "MI_Envi_Common_Roof_01a",
      "pbrMetallicRoughness" : {
        "baseColorFactor" : [ 0.3, 0.3, 0.3, 1.0 ],
        "metallicFactor" : 0.1,
        "roughnessFactor" : 0.5
      }
    }
  ],
  "meshes" : [
    {
      "primitives" : [
        {
          "attributes" : {
            "POSITION" : 1,
            "NORMAL" : 2,
            "TANGENT" : 3,
            "TEXCOORD_0" : 4,
            "TEXCOORD_1" : 5
          },
          "indices" : 0,
          "material" : 0
        }
      ],
      "name" : "S_Envi_Common_Roof_01d"
    }
  ],
  "buffers" : [
    {
      "uri" : "S_Envi_Common_Roof_01d.bin",
      "byteLength" : 11160
    }
  ],
  "bufferViews" : [
    {
      "buffer" : 0,
      "byteOffset" : 0,
      "byteLength" : 744
    },
    {
      "buffer" : 0,
      "byteOffset" : 744,
      "byteLength" : 2232
    },
    {
      "buffer" : 0,
      "byteOffset" : 2976,
      "byteLength" : 2232
    },
    {
      "buffer" : 0,
      "byteOffset" : 5208,
      "byteLength" : 2976
    },
    {
      "buffer" : 0,
      "byteOffset" : 8184,
      "byteLength" : 1488
    },
    {
      "buffer" : 0,
      "byteOffset" : 9672,
      "byteLength" : 1488
    }
  ],
  "accessors" : [
    {
      "bufferView" : 0,
      "componentType" : 5123,
      "count" : 372,
      "type" : "SCALAR"
    },
    {
      "bufferView" : 1,
      "min" : [ -3.00001, -6.65981e-07, -2 ],
      "max" : [ -3.05176e-07, 0.378323, 1.1778e-06 ],
      "componentType" : 5126,
      "count" : 186,
      "type" : "VEC3"
    },
    {
      "bufferView" : 2,
      "componentType" : 5126,
      "count" : 186,
      "type" : "VEC3"
    },
    {
      "bufferView" : 3,
      "componentType" : 5126,
      "count" : 186,
      "type" : "VEC4"
    },
    {
      "bufferView" : 4,
      "componentType" : 5126,
      "count" : 186,
      "type" : "VEC2"
    },
    {
      "bufferView" : 5,
      "componentType" : 5126,
      "count" : 186,
      "type" : "VEC2"
    }
  ]
}
