{
  "asset" : {
    "generator" : "UE Viewer (umodel) build 1579 based",
    "version" : "2.0"
  },
  "scene" : 0,
  "scenes" : [
    {
      "nodes" : [ 0 ]
    }
  ],
  "nodes" : [
    {
      "name" : "S_Envi_Olgk_Buiding_Merge_04",
      "mesh" : 0
    }
  ],
  "materials" : [
    {
      "name" : "MI_Envi_Olgk_Buiding_Merge_04",
      "pbrMetallicRoughness" : {
        "baseColorFactor" : [ 0.3, 0.3, 0.3, 1.0 ],
        "metallicFactor" : 0.1,
        "roughnessFactor" : 0.5
      }
    }
  ],
  "meshes" : [
    {
      "primitives" : [
        {
          "attributes" : {
            "POSITION" : 1,
            "NORMAL" : 2,
            "TANGENT" : 3,
            "TEXCOORD_0" : 4,
            "TEXCOORD_1" : 5
          },
          "indices" : 0,
          "material" : 0
        }
      ],
      "name" : "S_Envi_Olgk_Buiding_Merge_04"
    }
  ],
  "buffers" : [
    {
      "uri" : "S_Envi_Olgk_Buiding_Merge_04.bin",
      "byteLength" : 542884
    }
  ],
  "bufferViews" : [
    {
      "buffer" : 0,
      "byteOffset" : 0,
      "byteLength" : 31548
    },
    {
      "buffer" : 0,
      "byteOffset" : 31548,
      "byteLength" : 109572
    },
    {
      "buffer" : 0,
      "byteOffset" : 141120,
      "byteLength" : 109572
    },
    {
      "buffer" : 0,
      "byteOffset" : 250692,
      "byteLength" : 146096
    },
    {
      "buffer" : 0,
      "byteOffset" : 396788,
      "byteLength" : 73048
    },
    {
      "buffer" : 0,
      "byteOffset" : 469836,
      "byteLength" : 73048
    }
  ],
  "accessors" : [
    {
      "bufferView" : 0,
      "componentType" : 5123,
      "count" : 15774,
      "type" : "SCALAR"
    },
    {
      "bufferView" : 1,
      "min" : [ 22.2536, 16.45, -50.875 ],
      "max" : [ 56.7177, 25.9, 8.89448 ],
      "componentType" : 5126,
      "count" : 9131,
      "type" : "VEC3"
    },
    {
      "bufferView" : 2,
      "componentType" : 5126,
      "count" : 9131,
      "type" : "VEC3"
    },
    {
      "bufferView" : 3,
      "componentType" : 5126,
      "count" : 9131,
      "type" : "VEC4"
    },
    {
      "bufferView" : 4,
      "componentType" : 5126,
      "count" : 9131,
      "type" : "VEC2"
    },
    {
      "bufferView" : 5,
      "componentType" : 5126,
      "count" : 9131,
      "type" : "VEC2"
    }
  ]
}
