{
  "asset" : {
    "generator" : "UE Viewer (umodel) build 1579 based",
    "version" : "2.0"
  },
  "scene" : 0,
  "scenes" : [
    {
      "nodes" : [ 0 ]
    }
  ],
  "nodes" : [
    {
      "name" : "S_Envi_Olgk_wall_Merge_01b",
      "mesh" : 0
    }
  ],
  "materials" : [
    {
      "name" : "MI_Envi_Olgk_wall_Merge_01b",
      "pbrMetallicRoughness" : {
        "baseColorFactor" : [ 0.3, 0.3, 0.3, 1.0 ],
        "metallicFactor" : 0.1,
        "roughnessFactor" : 0.5
      }
    }
  ],
  "meshes" : [
    {
      "primitives" : [
        {
          "attributes" : {
            "POSITION" : 1,
            "NORMAL" : 2,
            "TANGENT" : 3,
            "TEXCOORD_0" : 4,
            "TEXCOORD_1" : 5
          },
          "indices" : 0,
          "material" : 0
        }
      ],
      "name" : "S_Envi_Olgk_wall_Merge_01b"
    }
  ],
  "buffers" : [
    {
      "uri" : "S_Envi_Olgk_wall_Merge_01b.bin",
      "byteLength" : 342444
    }
  ],
  "bufferViews" : [
    {
      "buffer" : 0,
      "byteOffset" : 0,
      "byteLength" : 25260
    },
    {
      "buffer" : 0,
      "byteOffset" : 25260,
      "byteLength" : 67968
    },
    {
      "buffer" : 0,
      "byteOffset" : 93228,
      "byteLength" : 67968
    },
    {
      "buffer" : 0,
      "byteOffset" : 161196,
      "byteLength" : 90624
    },
    {
      "buffer" : 0,
      "byteOffset" : 251820,
      "byteLength" : 45312
    },
    {
      "buffer" : 0,
      "byteOffset" : 297132,
      "byteLength" : 45312
    }
  ],
  "accessors" : [
    {
      "bufferView" : 0,
      "componentType" : 5123,
      "count" : 12630,
      "type" : "SCALAR"
    },
    {
      "bufferView" : 1,
      "min" : [ -41.8, 4.64999, -58.188 ],
      "max" : [ 62.8268, 21.9425, 28.0742 ],
      "componentType" : 5126,
      "count" : 5664,
      "type" : "VEC3"
    },
    {
      "bufferView" : 2,
      "componentType" : 5126,
      "count" : 5664,
      "type" : "VEC3"
    },
    {
      "bufferView" : 3,
      "componentType" : 5126,
      "count" : 5664,
      "type" : "VEC4"
    },
    {
      "bufferView" : 4,
      "componentType" : 5126,
      "count" : 5664,
      "type" : "VEC2"
    },
    {
      "bufferView" : 5,
      "componentType" : 5126,
      "count" : 5664,
      "type" : "VEC2"
    }
  ]
}
