{
  "asset" : {
    "generator" : "UE Viewer (umodel) build 1579 based",
    "version" : "2.0"
  },
  "scene" : 0,
  "scenes" : [
    {
      "nodes" : [ 0 ]
    }
  ],
  "nodes" : [
    {
      "name" : "S_Envi_Common_Down_Wall_03d_Merge",
      "mesh" : 0
    }
  ],
  "materials" : [
    {
      "name" : "MI_Envi_Common_UPWall_03a",
      "pbrMetallicRoughness" : {
        "baseColorFactor" : [ 0.3, 0.3, 0.3, 1.0 ],
        "metallicFactor" : 0.1,
        "roughnessFactor" : 0.5
      }
    },
    {
      "name" : "MI_Envi_Common_DownWall_01a",
      "pbrMetallicRoughness" : {
        "baseColorFactor" : [ 0.9, 0.3, 0.3, 1.0 ],
        "metallicFactor" : 0.1,
        "roughnessFactor" : 0.5
      }
    }
  ],
  "meshes" : [
    {
      "primitives" : [
        {
          "attributes" : {
            "POSITION" : 1,
            "NORMAL" : 2,
            "TANGENT" : 3,
            "TEXCOORD_0" : 4,
            "TEXCOORD_1" : 5
          },
          "indices" : 0,
          "material" : 0
        },
        {
          "attributes" : {
            "POSITION" : 7,
            "NORMAL" : 8,
            "TANGENT" : 9,
            "TEXCOORD_0" : 10,
            "TEXCOORD_1" : 11
          },
          "indices" : 6,
          "material" : 1
        }
      ],
      "name" : "S_Envi_Common_Down_Wall_03d_Merge"
    }
  ],
  "buffers" : [
    {
      "uri" : "S_Envi_Common_Down_Wall_03d_Merge.bin",
      "byteLength" : 20392
    }
  ],
  "bufferViews" : [
    {
      "buffer" : 0,
      "byteOffset" : 0,
      "byteLength" : 648
    },
    {
      "buffer" : 0,
      "byteOffset" : 648,
      "byteLength" : 2400
    },
    {
      "buffer" : 0,
      "byteOffset" : 3048,
      "byteLength" : 2400
    },
    {
      "buffer" : 0,
      "byteOffset" : 5448,
      "byteLength" : 3200
    },
    {
      "buffer" : 0,
      "byteOffset" : 8648,
      "byteLength" : 1600
    },
    {
      "buffer" : 0,
      "byteOffset" : 10248,
      "byteLength" : 1600
    },
    {
      "buffer" : 0,
      "byteOffset" : 11848,
      "byteLength" : 480
    },
    {
      "buffer" : 0,
      "byteOffset" : 12328,
      "byteLength" : 1728
    },
    {
      "buffer" : 0,
      "byteOffset" : 14056,
      "byteLength" : 1728
    },
    {
      "buffer" : 0,
      "byteOffset" : 15784,
      "byteLength" : 2304
    },
    {
      "buffer" : 0,
      "byteOffset" : 18088,
      "byteLength" : 1152
    },
    {
      "buffer" : 0,
      "byteOffset" : 19240,
      "byteLength" : 1152
    }
  ],
  "accessors" : [
    {
      "bufferView" : 0,
      "componentType" : 5123,
      "count" : 324,
      "type" : "SCALAR"
    },
    {
      "bufferView" : 1,
      "min" : [ -30.9688, 12.8388, -44.0858 ],
      "max" : [ -19.2043, 13.8388, -37.8052 ],
      "componentType" : 5126,
      "count" : 200,
      "type" : "VEC3"
    },
    {
      "bufferView" : 2,
      "componentType" : 5126,
      "count" : 200,
      "type" : "VEC3"
    },
    {
      "bufferView" : 3,
      "componentType" : 5126,
      "count" : 200,
      "type" : "VEC4"
    },
    {
      "bufferView" : 4,
      "componentType" : 5126,
      "count" : 200,
      "type" : "VEC2"
    },
    {
      "bufferView" : 5,
      "componentType" : 5126,
      "count" : 200,
      "type" : "VEC2"
    },
    {
      "bufferView" : 6,
      "componentType" : 5123,
      "count" : 240,
      "type" : "SCALAR"
    },
    {
      "bufferView" : 7,
      "min" : [ -30.8288, 17.2909, -43.9445 ],
      "max" : [ -19.3545, 18.0408, -37.6256 ],
      "componentType" : 5126,
      "count" : 144,
      "type" : "VEC3"
    },
    {
      "bufferView" : 8,
      "componentType" : 5126,
      "count" : 144,
      "type" : "VEC3"
    },
    {
      "bufferView" : 9,
      "componentType" : 5126,
      "count" : 144,
      "type" : "VEC4"
    },
    {
      "bufferView" : 10,
      "componentType" : 5126,
      "count" : 144,
      "type" : "VEC2"
    },
    {
      "bufferView" : 11,
      "componentType" : 5126,
      "count" : 144,
      "type" : "VEC2"
    }
  ]
}
