{
  "asset" : {
    "generator" : "UE Viewer (umodel) build 1579 based",
    "version" : "2.0"
  },
  "scene" : 0,
  "scenes" : [
    {
      "nodes" : [ 0 ]
    }
  ],
  "nodes" : [
    {
      "name" : "S_Envi_Olgk_dj_82",
      "mesh" : 0
    }
  ],
  "materials" : [
    {
      "name" : "MI_Envi_Umeda_Module_02a",
      "pbrMetallicRoughness" : {
        "baseColorFactor" : [ 0.3, 0.3, 0.3, 1.0 ],
        "metallicFactor" : 0.1,
        "roughnessFactor" : 0.5
      }
    },
    {
      "name" : "MI_Envi_Umeda_Module_36",
      "pbrMetallicRoughness" : {
        "baseColorFactor" : [ 0.9, 0.3, 0.3, 1.0 ],
        "metallicFactor" : 0.1,
        "roughnessFactor" : 0.5
      }
    }
  ],
  "meshes" : [
    {
      "primitives" : [
        {
          "attributes" : {
            "POSITION" : 1,
            "NORMAL" : 2,
            "TANGENT" : 3,
            "TEXCOORD_0" : 4,
            "TEXCOORD_1" : 5
          },
          "indices" : 0,
          "material" : 0
        },
        {
          "attributes" : {
            "POSITION" : 7,
            "NORMAL" : 8,
            "TANGENT" : 9,
            "TEXCOORD_0" : 10,
            "TEXCOORD_1" : 11
          },
          "indices" : 6,
          "material" : 1
        }
      ],
      "name" : "S_Envi_Olgk_dj_82"
    }
  ],
  "buffers" : [
    {
      "uri" : "S_Envi_Olgk_dj_82.bin",
      "byteLength" : 15984
    }
  ],
  "bufferViews" : [
    {
      "buffer" : 0,
      "byteOffset" : 0,
      "byteLength" : 228
    },
    {
      "buffer" : 0,
      "byteOffset" : 228,
      "byteLength" : 864
    },
    {
      "buffer" : 0,
      "byteOffset" : 1092,
      "byteLength" : 864
    },
    {
      "buffer" : 0,
      "byteOffset" : 1956,
      "byteLength" : 1152
    },
    {
      "buffer" : 0,
      "byteOffset" : 3108,
      "byteLength" : 576
    },
    {
      "buffer" : 0,
      "byteOffset" : 3684,
      "byteLength" : 576
    },
    {
      "buffer" : 0,
      "byteOffset" : 4260,
      "byteLength" : 804
    },
    {
      "buffer" : 0,
      "byteOffset" : 5064,
      "byteLength" : 2340
    },
    {
      "buffer" : 0,
      "byteOffset" : 7404,
      "byteLength" : 2340
    },
    {
      "buffer" : 0,
      "byteOffset" : 9744,
      "byteLength" : 3120
    },
    {
      "buffer" : 0,
      "byteOffset" : 12864,
      "byteLength" : 1560
    },
    {
      "buffer" : 0,
      "byteOffset" : 14424,
      "byteLength" : 1560
    }
  ],
  "accessors" : [
    {
      "bufferView" : 0,
      "componentType" : 5123,
      "count" : 114,
      "type" : "SCALAR"
    },
    {
      "bufferView" : 1,
      "min" : [ 0.495906, -1.66341e-16, 0.476734 ],
      "max" : [ 5.55292, 0.31349, 2.71655 ],
      "componentType" : 5126,
      "count" : 72,
      "type" : "VEC3"
    },
    {
      "bufferView" : 2,
      "componentType" : 5126,
      "count" : 72,
      "type" : "VEC3"
    },
    {
      "bufferView" : 3,
      "componentType" : 5126,
      "count" : 72,
      "type" : "VEC4"
    },
    {
      "bufferView" : 4,
      "componentType" : 5126,
      "count" : 72,
      "type" : "VEC2"
    },
    {
      "bufferView" : 5,
      "componentType" : 5126,
      "count" : 72,
      "type" : "VEC2"
    },
    {
      "bufferView" : 6,
      "componentType" : 5123,
      "count" : 402,
      "type" : "SCALAR"
    },
    {
      "bufferView" : 7,
      "min" : [ 3.05176e-07, -1.95532e-16, -1.47153e-07 ],
      "max" : [ 6.04883, 0.5, 3.19329 ],
      "componentType" : 5126,
      "count" : 195,
      "type" : "VEC3"
    },
    {
      "bufferView" : 8,
      "componentType" : 5126,
      "count" : 195,
      "type" : "VEC3"
    },
    {
      "bufferView" : 9,
      "componentType" : 5126,
      "count" : 195,
      "type" : "VEC4"
    },
    {
      "bufferView" : 10,
      "componentType" : 5126,
      "count" : 195,
      "type" : "VEC2"
    },
    {
      "bufferView" : 11,
      "componentType" : 5126,
      "count" : 195,
      "type" : "VEC2"
    }
  ]
}
