{
  "asset" : {
    "generator" : "UE Viewer (umodel) build 1579 based",
    "version" : "2.0"
  },
  "scene" : 0,
  "scenes" : [
    {
      "nodes" : [ 0 ]
    }
  ],
  "nodes" : [
    {
      "name" : "S_Envi_Olgk_DistanceView_03c",
      "mesh" : 0
    }
  ],
  "materials" : [
    {
      "name" : "MI_Envi_Olgk_DistanceView_03c",
      "pbrMetallicRoughness" : {
        "baseColorFactor" : [ 0.3, 0.3, 0.3, 1.0 ],
        "metallicFactor" : 0.1,
        "roughnessFactor" : 0.5
      }
    }
  ],
  "meshes" : [
    {
      "primitives" : [
        {
          "attributes" : {
            "POSITION" : 1,
            "NORMAL" : 2,
            "TANGENT" : 3,
            "TEXCOORD_0" : 4,
            "TEXCOORD_1" : 5
          },
          "indices" : 0,
          "material" : 0
        }
      ],
      "name" : "S_Envi_Olgk_DistanceView_03c"
    }
  ],
  "buffers" : [
    {
      "uri" : "S_Envi_Olgk_DistanceView_03c.bin",
      "byteLength" : 14696
    }
  ],
  "bufferViews" : [
    {
      "buffer" : 0,
      "byteOffset" : 0,
      "byteLength" : 920
    },
    {
      "buffer" : 0,
      "byteOffset" : 920,
      "byteLength" : 2952
    },
    {
      "buffer" : 0,
      "byteOffset" : 3872,
      "byteLength" : 2952
    },
    {
      "buffer" : 0,
      "byteOffset" : 6824,
      "byteLength" : 3936
    },
    {
      "buffer" : 0,
      "byteOffset" : 10760,
      "byteLength" : 1968
    },
    {
      "buffer" : 0,
      "byteOffset" : 12728,
      "byteLength" : 1968
    }
  ],
  "accessors" : [
    {
      "bufferView" : 0,
      "componentType" : 5123,
      "count" : 459,
      "type" : "SCALAR"
    },
    {
      "bufferView" : 1,
      "min" : [ -45.7059, -2.74658e-06, -37.7569 ],
      "max" : [ 1.48433, 16.2501, 1.0928 ],
      "componentType" : 5126,
      "count" : 246,
      "type" : "VEC3"
    },
    {
      "bufferView" : 2,
      "componentType" : 5126,
      "count" : 246,
      "type" : "VEC3"
    },
    {
      "bufferView" : 3,
      "componentType" : 5126,
      "count" : 246,
      "type" : "VEC4"
    },
    {
      "bufferView" : 4,
      "componentType" : 5126,
      "count" : 246,
      "type" : "VEC2"
    },
    {
      "bufferView" : 5,
      "componentType" : 5126,
      "count" : 246,
      "type" : "VEC2"
    }
  ]
}
