{
  "asset" : {
    "generator" : "UE Viewer (umodel) build 1579 based",
    "version" : "2.0"
  },
  "scene" : 0,
  "scenes" : [
    {
      "nodes" : [ 0 ]
    }
  ],
  "nodes" : [
    {
      "name" : "S_Envi_Common_Up_Wall_Merge_02d",
      "mesh" : 0
    }
  ],
  "materials" : [
    {
      "name" : "MI_Envi_Common_UPWall_03a",
      "pbrMetallicRoughness" : {
        "baseColorFactor" : [ 0.3, 0.3, 0.3, 1.0 ],
        "metallicFactor" : 0.1,
        "roughnessFactor" : 0.5
      }
    }
  ],
  "meshes" : [
    {
      "primitives" : [
        {
          "attributes" : {
            "POSITION" : 1,
            "NORMAL" : 2,
            "TANGENT" : 3,
            "TEXCOORD_0" : 4,
            "TEXCOORD_1" : 5,
            "TEXCOORD_2" : 6,
            "TEXCOORD_3" : 7,
            "TEXCOORD_4" : 8
          },
          "indices" : 0,
          "material" : 0
        }
      ],
      "name" : "S_Envi_Common_Up_Wall_Merge_02d"
    }
  ],
  "buffers" : [
    {
      "uri" : "S_Envi_Common_Up_Wall_Merge_02d.bin",
      "byteLength" : 67768
    }
  ],
  "bufferViews" : [
    {
      "buffer" : 0,
      "byteOffset" : 0,
      "byteLength" : 2888
    },
    {
      "buffer" : 0,
      "byteOffset" : 2888,
      "byteLength" : 9732
    },
    {
      "buffer" : 0,
      "byteOffset" : 12620,
      "byteLength" : 9732
    },
    {
      "buffer" : 0,
      "byteOffset" : 22352,
      "byteLength" : 12976
    },
    {
      "buffer" : 0,
      "byteOffset" : 35328,
      "byteLength" : 6488
    },
    {
      "buffer" : 0,
      "byteOffset" : 41816,
      "byteLength" : 6488
    },
    {
      "buffer" : 0,
      "byteOffset" : 48304,
      "byteLength" : 6488
    },
    {
      "buffer" : 0,
      "byteOffset" : 54792,
      "byteLength" : 6488
    },
    {
      "buffer" : 0,
      "byteOffset" : 61280,
      "byteLength" : 6488
    }
  ],
  "accessors" : [
    {
      "bufferView" : 0,
      "componentType" : 5123,
      "count" : 1443,
      "type" : "SCALAR"
    },
    {
      "bufferView" : 1,
      "min" : [ -36.5343, 2.94454, -75.6064 ],
      "max" : [ -3.67376, 6.23185, -33.7281 ],
      "componentType" : 5126,
      "count" : 811,
      "type" : "VEC3"
    },
    {
      "bufferView" : 2,
      "componentType" : 5126,
      "count" : 811,
      "type" : "VEC3"
    },
    {
      "bufferView" : 3,
      "componentType" : 5126,
      "count" : 811,
      "type" : "VEC4"
    },
    {
      "bufferView" : 4,
      "componentType" : 5126,
      "count" : 811,
      "type" : "VEC2"
    },
    {
      "bufferView" : 5,
      "componentType" : 5126,
      "count" : 811,
      "type" : "VEC2"
    },
    {
      "bufferView" : 6,
      "componentType" : 5126,
      "count" : 811,
      "type" : "VEC2"
    },
    {
      "bufferView" : 7,
      "componentType" : 5126,
      "count" : 811,
      "type" : "VEC2"
    },
    {
      "bufferView" : 8,
      "componentType" : 5126,
      "count" : 811,
      "type" : "VEC2"
    }
  ]
}
