{
  "asset" : {
    "generator" : "UE Viewer (umodel) build 1579 based",
    "version" : "2.0"
  },
  "scene" : 0,
  "scenes" : [
    {
      "nodes" : [ 0 ]
    }
  ],
  "nodes" : [
    {
      "name" : "S_Envi_Olgk_Buiding_Optimizev_01a",
      "mesh" : 0
    }
  ],
  "materials" : [
    {
      "name" : "MI_Envi_Common_Wall_10d",
      "pbrMetallicRoughness" : {
        "baseColorFactor" : [ 0.3, 0.3, 0.3, 1.0 ],
        "metallicFactor" : 0.1,
        "roughnessFactor" : 0.5
      }
    }
  ],
  "meshes" : [
    {
      "primitives" : [
        {
          "attributes" : {
            "POSITION" : 1,
            "NORMAL" : 2,
            "TANGENT" : 3,
            "TEXCOORD_0" : 4,
            "TEXCOORD_1" : 5,
            "TEXCOORD_2" : 6,
            "TEXCOORD_3" : 7
          },
          "indices" : 0,
          "material" : 0
        }
      ],
      "name" : "S_Envi_Olgk_Buiding_Optimizev_01a"
    }
  ],
  "buffers" : [
    {
      "uri" : "S_Envi_Olgk_Buiding_Optimizev_01a.bin",
      "byteLength" : 33188
    }
  ],
  "bufferViews" : [
    {
      "buffer" : 0,
      "byteOffset" : 0,
      "byteLength" : 1436
    },
    {
      "buffer" : 0,
      "byteOffset" : 1436,
      "byteLength" : 5292
    },
    {
      "buffer" : 0,
      "byteOffset" : 6728,
      "byteLength" : 5292
    },
    {
      "buffer" : 0,
      "byteOffset" : 12020,
      "byteLength" : 7056
    },
    {
      "buffer" : 0,
      "byteOffset" : 19076,
      "byteLength" : 3528
    },
    {
      "buffer" : 0,
      "byteOffset" : 22604,
      "byteLength" : 3528
    },
    {
      "buffer" : 0,
      "byteOffset" : 26132,
      "byteLength" : 3528
    },
    {
      "buffer" : 0,
      "byteOffset" : 29660,
      "byteLength" : 3528
    }
  ],
  "accessors" : [
    {
      "bufferView" : 0,
      "componentType" : 5123,
      "count" : 717,
      "type" : "SCALAR"
    },
    {
      "bufferView" : 1,
      "min" : [ 21.6348, 2.00069, -36.7 ],
      "max" : [ 61.9575, 18.4007, 8.49732 ],
      "componentType" : 5126,
      "count" : 441,
      "type" : "VEC3"
    },
    {
      "bufferView" : 2,
      "componentType" : 5126,
      "count" : 441,
      "type" : "VEC3"
    },
    {
      "bufferView" : 3,
      "componentType" : 5126,
      "count" : 441,
      "type" : "VEC4"
    },
    {
      "bufferView" : 4,
      "componentType" : 5126,
      "count" : 441,
      "type" : "VEC2"
    },
    {
      "bufferView" : 5,
      "componentType" : 5126,
      "count" : 441,
      "type" : "VEC2"
    },
    {
      "bufferView" : 6,
      "componentType" : 5126,
      "count" : 441,
      "type" : "VEC2"
    },
    {
      "bufferView" : 7,
      "componentType" : 5126,
      "count" : 441,
      "type" : "VEC2"
    }
  ]
}
