{
  "asset" : {
    "generator" : "UE Viewer (umodel) build 1579 based",
    "version" : "2.0"
  },
  "scene" : 0,
  "scenes" : [
    {
      "nodes" : [ 0 ]
    }
  ],
  "nodes" : [
    {
      "name" : "S_Envi_Common_Up_Wall_Merge_02c",
      "mesh" : 0
    }
  ],
  "materials" : [
    {
      "name" : "MI_Envi_Common_UPWall_03a",
      "pbrMetallicRoughness" : {
        "baseColorFactor" : [ 0.3, 0.3, 0.3, 1.0 ],
        "metallicFactor" : 0.1,
        "roughnessFactor" : 0.5
      }
    }
  ],
  "meshes" : [
    {
      "primitives" : [
        {
          "attributes" : {
            "POSITION" : 1,
            "NORMAL" : 2,
            "TANGENT" : 3,
            "TEXCOORD_0" : 4,
            "TEXCOORD_1" : 5,
            "TEXCOORD_2" : 6,
            "TEXCOORD_3" : 7,
            "TEXCOORD_4" : 8
          },
          "indices" : 0,
          "material" : 0
        }
      ],
      "name" : "S_Envi_Common_Up_Wall_Merge_02c"
    }
  ],
  "buffers" : [
    {
      "uri" : "S_Envi_Common_Up_Wall_Merge_02c.bin",
      "byteLength" : 29988
    }
  ],
  "bufferViews" : [
    {
      "buffer" : 0,
      "byteOffset" : 0,
      "byteLength" : 1188
    },
    {
      "buffer" : 0,
      "byteOffset" : 1188,
      "byteLength" : 4320
    },
    {
      "buffer" : 0,
      "byteOffset" : 5508,
      "byteLength" : 4320
    },
    {
      "buffer" : 0,
      "byteOffset" : 9828,
      "byteLength" : 5760
    },
    {
      "buffer" : 0,
      "byteOffset" : 15588,
      "byteLength" : 2880
    },
    {
      "buffer" : 0,
      "byteOffset" : 18468,
      "byteLength" : 2880
    },
    {
      "buffer" : 0,
      "byteOffset" : 21348,
      "byteLength" : 2880
    },
    {
      "buffer" : 0,
      "byteOffset" : 24228,
      "byteLength" : 2880
    },
    {
      "buffer" : 0,
      "byteOffset" : 27108,
      "byteLength" : 2880
    }
  ],
  "accessors" : [
    {
      "bufferView" : 0,
      "componentType" : 5123,
      "count" : 594,
      "type" : "SCALAR"
    },
    {
      "bufferView" : 1,
      "min" : [ -4.09155, 4.95127, -67.2633 ],
      "max" : [ 15.6394, 5.45128, -56.8269 ],
      "componentType" : 5126,
      "count" : 360,
      "type" : "VEC3"
    },
    {
      "bufferView" : 2,
      "componentType" : 5126,
      "count" : 360,
      "type" : "VEC3"
    },
    {
      "bufferView" : 3,
      "componentType" : 5126,
      "count" : 360,
      "type" : "VEC4"
    },
    {
      "bufferView" : 4,
      "componentType" : 5126,
      "count" : 360,
      "type" : "VEC2"
    },
    {
      "bufferView" : 5,
      "componentType" : 5126,
      "count" : 360,
      "type" : "VEC2"
    },
    {
      "bufferView" : 6,
      "componentType" : 5126,
      "count" : 360,
      "type" : "VEC2"
    },
    {
      "bufferView" : 7,
      "componentType" : 5126,
      "count" : 360,
      "type" : "VEC2"
    },
    {
      "bufferView" : 8,
      "componentType" : 5126,
      "count" : 360,
      "type" : "VEC2"
    }
  ]
}
