{
  "asset" : {
    "generator" : "UE Viewer (umodel) build 1579 based",
    "version" : "2.0"
  },
  "scene" : 0,
  "scenes" : [
    {
      "nodes" : [ 0 ]
    }
  ],
  "nodes" : [
    {
      "name" : "S_Envi_Common_Ladder_Merge_02",
      "mesh" : 0
    }
  ],
  "materials" : [
    {
      "name" : "MI_Envi_Common_Ladder_Merge_01",
      "pbrMetallicRoughness" : {
        "baseColorFactor" : [ 0.3, 0.3, 0.3, 1.0 ],
        "metallicFactor" : 0.1,
        "roughnessFactor" : 0.5
      }
    }
  ],
  "meshes" : [
    {
      "primitives" : [
        {
          "attributes" : {
            "POSITION" : 1,
            "NORMAL" : 2,
            "TANGENT" : 3,
            "TEXCOORD_0" : 4,
            "TEXCOORD_1" : 5
          },
          "indices" : 0,
          "material" : 0
        }
      ],
      "name" : "S_Envi_Common_Ladder_Merge_02"
    }
  ],
  "buffers" : [
    {
      "uri" : "S_Envi_Common_Ladder_Merge_02.bin",
      "byteLength" : 204272
    }
  ],
  "bufferViews" : [
    {
      "buffer" : 0,
      "byteOffset" : 0,
      "byteLength" : 10848
    },
    {
      "buffer" : 0,
      "byteOffset" : 10848,
      "byteLength" : 41448
    },
    {
      "buffer" : 0,
      "byteOffset" : 52296,
      "byteLength" : 41448
    },
    {
      "buffer" : 0,
      "byteOffset" : 93744,
      "byteLength" : 55264
    },
    {
      "buffer" : 0,
      "byteOffset" : 149008,
      "byteLength" : 27632
    },
    {
      "buffer" : 0,
      "byteOffset" : 176640,
      "byteLength" : 27632
    }
  ],
  "accessors" : [
    {
      "bufferView" : 0,
      "componentType" : 5123,
      "count" : 5424,
      "type" : "SCALAR"
    },
    {
      "bufferView" : 1,
      "min" : [ -30.9672, 1.04987, -13.3099 ],
      "max" : [ -24.0156, 6.96726, -3.54912 ],
      "componentType" : 5126,
      "count" : 3454,
      "type" : "VEC3"
    },
    {
      "bufferView" : 2,
      "componentType" : 5126,
      "count" : 3454,
      "type" : "VEC3"
    },
    {
      "bufferView" : 3,
      "componentType" : 5126,
      "count" : 3454,
      "type" : "VEC4"
    },
    {
      "bufferView" : 4,
      "componentType" : 5126,
      "count" : 3454,
      "type" : "VEC2"
    },
    {
      "bufferView" : 5,
      "componentType" : 5126,
      "count" : 3454,
      "type" : "VEC2"
    }
  ]
}
