{
  "asset" : {
    "generator" : "UE Viewer (umodel) build 1579 based",
    "version" : "2.0"
  },
  "scene" : 0,
  "scenes" : [
    {
      "nodes" : [ 0 ]
    }
  ],
  "nodes" : [
    {
      "name" : "S_Envi_Olgk_Common_Roof_Merge_01a",
      "mesh" : 0
    }
  ],
  "materials" : [
    {
      "name" : "MI_Envi_Common_Roof_01a",
      "pbrMetallicRoughness" : {
        "baseColorFactor" : [ 0.3, 0.3, 0.3, 1.0 ],
        "metallicFactor" : 0.1,
        "roughnessFactor" : 0.5
      }
    }
  ],
  "meshes" : [
    {
      "primitives" : [
        {
          "attributes" : {
            "POSITION" : 1,
            "NORMAL" : 2,
            "TANGENT" : 3,
            "TEXCOORD_0" : 4,
            "TEXCOORD_1" : 5
          },
          "indices" : 0,
          "material" : 0
        }
      ],
      "name" : "S_Envi_Olgk_Common_Roof_Merge_01a"
    }
  ],
  "buffers" : [
    {
      "uri" : "S_Envi_Olgk_Common_Roof_Merge_01a.bin",
      "byteLength" : 116616
    }
  ],
  "bufferViews" : [
    {
      "buffer" : 0,
      "byteOffset" : 0,
      "byteLength" : 7136
    },
    {
      "buffer" : 0,
      "byteOffset" : 7136,
      "byteLength" : 23460
    },
    {
      "buffer" : 0,
      "byteOffset" : 30596,
      "byteLength" : 23460
    },
    {
      "buffer" : 0,
      "byteOffset" : 54056,
      "byteLength" : 31280
    },
    {
      "buffer" : 0,
      "byteOffset" : 85336,
      "byteLength" : 15640
    },
    {
      "buffer" : 0,
      "byteOffset" : 100976,
      "byteLength" : 15640
    }
  ],
  "accessors" : [
    {
      "bufferView" : 0,
      "componentType" : 5123,
      "count" : 3567,
      "type" : "SCALAR"
    },
    {
      "bufferView" : 1,
      "min" : [ 47.5085, 6.39997, -65.85 ],
      "max" : [ 61.45, 6.79953, -37.25 ],
      "componentType" : 5126,
      "count" : 1955,
      "type" : "VEC3"
    },
    {
      "bufferView" : 2,
      "componentType" : 5126,
      "count" : 1955,
      "type" : "VEC3"
    },
    {
      "bufferView" : 3,
      "componentType" : 5126,
      "count" : 1955,
      "type" : "VEC4"
    },
    {
      "bufferView" : 4,
      "componentType" : 5126,
      "count" : 1955,
      "type" : "VEC2"
    },
    {
      "bufferView" : 5,
      "componentType" : 5126,
      "count" : 1955,
      "type" : "VEC2"
    }
  ]
}
