{
  "asset" : {
    "generator" : "UE Viewer (umodel) build 1579 based",
    "version" : "2.0"
  },
  "scene" : 0,
  "scenes" : [
    {
      "nodes" : [ 0 ]
    }
  ],
  "nodes" : [
    {
      "name" : "S_Envi_Olgk_Building_02i_Merge",
      "mesh" : 0
    }
  ],
  "materials" : [
    {
      "name" : "MI_Envi_Common_Edging_01",
      "pbrMetallicRoughness" : {
        "baseColorFactor" : [ 0.3, 0.3, 0.3, 1.0 ],
        "metallicFactor" : 0.1,
        "roughnessFactor" : 0.5
      }
    }
  ],
  "meshes" : [
    {
      "primitives" : [
        {
          "attributes" : {
            "POSITION" : 1,
            "NORMAL" : 2,
            "TANGENT" : 3,
            "TEXCOORD_0" : 4,
            "TEXCOORD_1" : 5
          },
          "indices" : 0,
          "material" : 0
        }
      ],
      "name" : "S_Envi_Olgk_Building_02i_Merge"
    }
  ],
  "buffers" : [
    {
      "uri" : "S_Envi_Olgk_Building_02i_Merge.bin",
      "byteLength" : 43044
    }
  ],
  "bufferViews" : [
    {
      "buffer" : 0,
      "byteOffset" : 0,
      "byteLength" : 2724
    },
    {
      "buffer" : 0,
      "byteOffset" : 2724,
      "byteLength" : 8640
    },
    {
      "buffer" : 0,
      "byteOffset" : 11364,
      "byteLength" : 8640
    },
    {
      "buffer" : 0,
      "byteOffset" : 20004,
      "byteLength" : 11520
    },
    {
      "buffer" : 0,
      "byteOffset" : 31524,
      "byteLength" : 5760
    },
    {
      "buffer" : 0,
      "byteOffset" : 37284,
      "byteLength" : 5760
    }
  ],
  "accessors" : [
    {
      "bufferView" : 0,
      "componentType" : 5123,
      "count" : 1362,
      "type" : "SCALAR"
    },
    {
      "bufferView" : 1,
      "min" : [ -32.267, 10.7207, -39.2626 ],
      "max" : [ -17.4909, 18.7341, -36.8193 ],
      "componentType" : 5126,
      "count" : 720,
      "type" : "VEC3"
    },
    {
      "bufferView" : 2,
      "componentType" : 5126,
      "count" : 720,
      "type" : "VEC3"
    },
    {
      "bufferView" : 3,
      "componentType" : 5126,
      "count" : 720,
      "type" : "VEC4"
    },
    {
      "bufferView" : 4,
      "componentType" : 5126,
      "count" : 720,
      "type" : "VEC2"
    },
    {
      "bufferView" : 5,
      "componentType" : 5126,
      "count" : 720,
      "type" : "VEC2"
    }
  ]
}
