{
  "asset" : {
    "generator" : "UE Viewer (umodel) build 1579 based",
    "version" : "2.0"
  },
  "scene" : 0,
  "scenes" : [
    {
      "nodes" : [ 0 ]
    }
  ],
  "nodes" : [
    {
      "name" : "S_Envi_Common_Up_Wall_Merge_02a",
      "mesh" : 0
    }
  ],
  "materials" : [
    {
      "name" : "MI_Envi_Common_DownWall_01a",
      "pbrMetallicRoughness" : {
        "baseColorFactor" : [ 0.3, 0.3, 0.3, 1.0 ],
        "metallicFactor" : 0.1,
        "roughnessFactor" : 0.5
      }
    }
  ],
  "meshes" : [
    {
      "primitives" : [
        {
          "attributes" : {
            "POSITION" : 1,
            "NORMAL" : 2,
            "TANGENT" : 3,
            "TEXCOORD_0" : 4,
            "TEXCOORD_1" : 5
          },
          "indices" : 0,
          "material" : 0
        }
      ],
      "name" : "S_Envi_Common_Up_Wall_Merge_02a"
    }
  ],
  "buffers" : [
    {
      "uri" : "S_Envi_Common_Up_Wall_Merge_02a.bin",
      "byteLength" : 55116
    }
  ],
  "bufferViews" : [
    {
      "buffer" : 0,
      "byteOffset" : 0,
      "byteLength" : 2700
    },
    {
      "buffer" : 0,
      "byteOffset" : 2700,
      "byteLength" : 11232
    },
    {
      "buffer" : 0,
      "byteOffset" : 13932,
      "byteLength" : 11232
    },
    {
      "buffer" : 0,
      "byteOffset" : 25164,
      "byteLength" : 14976
    },
    {
      "buffer" : 0,
      "byteOffset" : 40140,
      "byteLength" : 7488
    },
    {
      "buffer" : 0,
      "byteOffset" : 47628,
      "byteLength" : 7488
    }
  ],
  "accessors" : [
    {
      "bufferView" : 0,
      "componentType" : 5123,
      "count" : 1350,
      "type" : "SCALAR"
    },
    {
      "bufferView" : 1,
      "min" : [ 18.6499, 2.05, -0.367482 ],
      "max" : [ 29.8096, 6.86011, 19.6401 ],
      "componentType" : 5126,
      "count" : 936,
      "type" : "VEC3"
    },
    {
      "bufferView" : 2,
      "componentType" : 5126,
      "count" : 936,
      "type" : "VEC3"
    },
    {
      "bufferView" : 3,
      "componentType" : 5126,
      "count" : 936,
      "type" : "VEC4"
    },
    {
      "bufferView" : 4,
      "componentType" : 5126,
      "count" : 936,
      "type" : "VEC2"
    },
    {
      "bufferView" : 5,
      "componentType" : 5126,
      "count" : 936,
      "type" : "VEC2"
    }
  ]
}
