{
  "asset" : {
    "generator" : "UE Viewer (umodel) build 1579 based",
    "version" : "2.0"
  },
  "scene" : 0,
  "scenes" : [
    {
      "nodes" : [ 0 ]
    }
  ],
  "nodes" : [
    {
      "name" : "S_Envi_Olgk_Common_Roof_Merge_03e",
      "mesh" : 0
    }
  ],
  "materials" : [
    {
      "name" : "MI_Envi_Common_DownWall_01a",
      "pbrMetallicRoughness" : {
        "baseColorFactor" : [ 0.3, 0.3, 0.3, 1.0 ],
        "metallicFactor" : 0.1,
        "roughnessFactor" : 0.5
      }
    }
  ],
  "meshes" : [
    {
      "primitives" : [
        {
          "attributes" : {
            "POSITION" : 1,
            "NORMAL" : 2,
            "TANGENT" : 3,
            "TEXCOORD_0" : 4,
            "TEXCOORD_1" : 5
          },
          "indices" : 0,
          "material" : 0
        }
      ],
      "name" : "S_Envi_Olgk_Common_Roof_Merge_03e"
    }
  ],
  "buffers" : [
    {
      "uri" : "S_Envi_Olgk_Common_Roof_Merge_03e.bin",
      "byteLength" : 44208
    }
  ],
  "bufferViews" : [
    {
      "buffer" : 0,
      "byteOffset" : 0,
      "byteLength" : 2600
    },
    {
      "buffer" : 0,
      "byteOffset" : 2600,
      "byteLength" : 8916
    },
    {
      "buffer" : 0,
      "byteOffset" : 11516,
      "byteLength" : 8916
    },
    {
      "buffer" : 0,
      "byteOffset" : 20432,
      "byteLength" : 11888
    },
    {
      "buffer" : 0,
      "byteOffset" : 32320,
      "byteLength" : 5944
    },
    {
      "buffer" : 0,
      "byteOffset" : 38264,
      "byteLength" : 5944
    }
  ],
  "accessors" : [
    {
      "bufferView" : 0,
      "componentType" : 5123,
      "count" : 1299,
      "type" : "SCALAR"
    },
    {
      "bufferView" : 1,
      "min" : [ -44.2097, 11.9889, -56.9954 ],
      "max" : [ -26.3139, 12.4949, -33.0618 ],
      "componentType" : 5126,
      "count" : 743,
      "type" : "VEC3"
    },
    {
      "bufferView" : 2,
      "componentType" : 5126,
      "count" : 743,
      "type" : "VEC3"
    },
    {
      "bufferView" : 3,
      "componentType" : 5126,
      "count" : 743,
      "type" : "VEC4"
    },
    {
      "bufferView" : 4,
      "componentType" : 5126,
      "count" : 743,
      "type" : "VEC2"
    },
    {
      "bufferView" : 5,
      "componentType" : 5126,
      "count" : 743,
      "type" : "VEC2"
    }
  ]
}
