{
  "asset" : {
    "generator" : "UE Viewer (umodel) build 1579 based",
    "version" : "2.0"
  },
  "scene" : 0,
  "scenes" : [
    {
      "nodes" : [ 0 ]
    }
  ],
  "nodes" : [
    {
      "name" : "S_Envi_Common_NoCoast_Merge_01",
      "mesh" : 0
    }
  ],
  "materials" : [
    {
      "name" : "MI_Envi_Common_NoCoast_Merge_01",
      "pbrMetallicRoughness" : {
        "baseColorFactor" : [ 0.3, 0.3, 0.3, 1.0 ],
        "metallicFactor" : 0.1,
        "roughnessFactor" : 0.5
      }
    },
    {
      "name" : "MI_Envi_Common_Wall_13b",
      "pbrMetallicRoughness" : {
        "baseColorFactor" : [ 0.9, 0.3, 0.3, 1.0 ],
        "metallicFactor" : 0.1,
        "roughnessFactor" : 0.5
      }
    }
  ],
  "meshes" : [
    {
      "primitives" : [
        {
          "attributes" : {
            "POSITION" : 1,
            "NORMAL" : 2,
            "TANGENT" : 3,
            "TEXCOORD_0" : 4,
            "TEXCOORD_1" : 5
          },
          "indices" : 0,
          "material" : 0
        },
        {
          "attributes" : {
            "POSITION" : 7,
            "NORMAL" : 8,
            "TANGENT" : 9,
            "TEXCOORD_0" : 10,
            "TEXCOORD_1" : 11
          },
          "indices" : 6,
          "material" : 1
        }
      ],
      "name" : "S_Envi_Common_NoCoast_Merge_01"
    }
  ],
  "buffers" : [
    {
      "uri" : "S_Envi_Common_NoCoast_Merge_01.bin",
      "byteLength" : 270416
    }
  ],
  "bufferViews" : [
    {
      "buffer" : 0,
      "byteOffset" : 0,
      "byteLength" : 15960
    },
    {
      "buffer" : 0,
      "byteOffset" : 15960,
      "byteLength" : 50880
    },
    {
      "buffer" : 0,
      "byteOffset" : 66840,
      "byteLength" : 50880
    },
    {
      "buffer" : 0,
      "byteOffset" : 117720,
      "byteLength" : 67840
    },
    {
      "buffer" : 0,
      "byteOffset" : 185560,
      "byteLength" : 33920
    },
    {
      "buffer" : 0,
      "byteOffset" : 219480,
      "byteLength" : 33920
    },
    {
      "buffer" : 0,
      "byteOffset" : 253400,
      "byteLength" : 1056
    },
    {
      "buffer" : 0,
      "byteOffset" : 254456,
      "byteLength" : 3420
    },
    {
      "buffer" : 0,
      "byteOffset" : 257876,
      "byteLength" : 3420
    },
    {
      "buffer" : 0,
      "byteOffset" : 261296,
      "byteLength" : 4560
    },
    {
      "buffer" : 0,
      "byteOffset" : 265856,
      "byteLength" : 2280
    },
    {
      "buffer" : 0,
      "byteOffset" : 268136,
      "byteLength" : 2280
    }
  ],
  "accessors" : [
    {
      "bufferView" : 0,
      "componentType" : 5123,
      "count" : 7980,
      "type" : "SCALAR"
    },
    {
      "bufferView" : 1,
      "min" : [ -48.7404, 2.34752, 22.52 ],
      "max" : [ -1.50123, 13.0062, 37.4086 ],
      "componentType" : 5126,
      "count" : 4240,
      "type" : "VEC3"
    },
    {
      "bufferView" : 2,
      "componentType" : 5126,
      "count" : 4240,
      "type" : "VEC3"
    },
    {
      "bufferView" : 3,
      "componentType" : 5126,
      "count" : 4240,
      "type" : "VEC4"
    },
    {
      "bufferView" : 4,
      "componentType" : 5126,
      "count" : 4240,
      "type" : "VEC2"
    },
    {
      "bufferView" : 5,
      "componentType" : 5126,
      "count" : 4240,
      "type" : "VEC2"
    },
    {
      "bufferView" : 6,
      "componentType" : 5123,
      "count" : 528,
      "type" : "SCALAR"
    },
    {
      "bufferView" : 7,
      "min" : [ -48.6356, 3.94193, 14.5637 ],
      "max" : [ -1.8, 21.1419, 34.4003 ],
      "componentType" : 5126,
      "count" : 285,
      "type" : "VEC3"
    },
    {
      "bufferView" : 8,
      "componentType" : 5126,
      "count" : 285,
      "type" : "VEC3"
    },
    {
      "bufferView" : 9,
      "componentType" : 5126,
      "count" : 285,
      "type" : "VEC4"
    },
    {
      "bufferView" : 10,
      "componentType" : 5126,
      "count" : 285,
      "type" : "VEC2"
    },
    {
      "bufferView" : 11,
      "componentType" : 5126,
      "count" : 285,
      "type" : "VEC2"
    }
  ]
}
