{
  "asset" : {
    "generator" : "UE Viewer (umodel) build 1579 based",
    "version" : "2.0"
  },
  "scene" : 0,
  "scenes" : [
    {
      "nodes" : [ 0 ]
    }
  ],
  "nodes" : [
    {
      "name" : "S_Envi_Olgk_Frame_Merge_01a",
      "mesh" : 0
    }
  ],
  "materials" : [
    {
      "name" : "MI_Envi_Olgk_Frame_Merge_01",
      "pbrMetallicRoughness" : {
        "baseColorFactor" : [ 0.3, 0.3, 0.3, 1.0 ],
        "metallicFactor" : 0.1,
        "roughnessFactor" : 0.5
      }
    }
  ],
  "meshes" : [
    {
      "primitives" : [
        {
          "attributes" : {
            "POSITION" : 1,
            "NORMAL" : 2,
            "TANGENT" : 3,
            "TEXCOORD_0" : 4,
            "TEXCOORD_1" : 5
          },
          "indices" : 0,
          "material" : 0
        }
      ],
      "name" : "S_Envi_Olgk_Frame_Merge_01a"
    }
  ],
  "buffers" : [
    {
      "uri" : "S_Envi_Olgk_Frame_Merge_01a.bin",
      "byteLength" : 546688
    }
  ],
  "bufferViews" : [
    {
      "buffer" : 0,
      "byteOffset" : 0,
      "byteLength" : 29808
    },
    {
      "buffer" : 0,
      "byteOffset" : 29808,
      "byteLength" : 110760
    },
    {
      "buffer" : 0,
      "byteOffset" : 140568,
      "byteLength" : 110760
    },
    {
      "buffer" : 0,
      "byteOffset" : 251328,
      "byteLength" : 147680
    },
    {
      "buffer" : 0,
      "byteOffset" : 399008,
      "byteLength" : 73840
    },
    {
      "buffer" : 0,
      "byteOffset" : 472848,
      "byteLength" : 73840
    }
  ],
  "accessors" : [
    {
      "bufferView" : 0,
      "componentType" : 5123,
      "count" : 14904,
      "type" : "SCALAR"
    },
    {
      "bufferView" : 1,
      "min" : [ -49.1155, -0.190005, 15.3959 ],
      "max" : [ 12.4192, 20.86, 38.5665 ],
      "componentType" : 5126,
      "count" : 9230,
      "type" : "VEC3"
    },
    {
      "bufferView" : 2,
      "componentType" : 5126,
      "count" : 9230,
      "type" : "VEC3"
    },
    {
      "bufferView" : 3,
      "componentType" : 5126,
      "count" : 9230,
      "type" : "VEC4"
    },
    {
      "bufferView" : 4,
      "componentType" : 5126,
      "count" : 9230,
      "type" : "VEC2"
    },
    {
      "bufferView" : 5,
      "componentType" : 5126,
      "count" : 9230,
      "type" : "VEC2"
    }
  ]
}
