{
  "asset" : {
    "generator" : "UE Viewer (umodel) build 1579 based",
    "version" : "2.0"
  },
  "scene" : 0,
  "scenes" : [
    {
      "nodes" : [ 0 ]
    }
  ],
  "nodes" : [
    {
      "name" : "S_Envi_Olgk_Buiding_Merge_08b",
      "mesh" : 0
    }
  ],
  "materials" : [
    {
      "name" : "MI_Envi_Common_Wall_05a",
      "pbrMetallicRoughness" : {
        "baseColorFactor" : [ 0.3, 0.3, 0.3, 1.0 ],
        "metallicFactor" : 0.1,
        "roughnessFactor" : 0.5
      }
    }
  ],
  "meshes" : [
    {
      "primitives" : [
        {
          "attributes" : {
            "POSITION" : 1,
            "NORMAL" : 2,
            "TANGENT" : 3,
            "TEXCOORD_0" : 4,
            "TEXCOORD_1" : 5,
            "TEXCOORD_2" : 6,
            "TEXCOORD_3" : 7,
            "TEXCOORD_4" : 8
          },
          "indices" : 0,
          "material" : 0
        }
      ],
      "name" : "S_Envi_Olgk_Buiding_Merge_08b"
    }
  ],
  "buffers" : [
    {
      "uri" : "S_Envi_Olgk_Buiding_Merge_08b.bin",
      "byteLength" : 627472
    }
  ],
  "bufferViews" : [
    {
      "buffer" : 0,
      "byteOffset" : 0,
      "byteLength" : 19152
    },
    {
      "buffer" : 0,
      "byteOffset" : 19152,
      "byteLength" : 91248
    },
    {
      "buffer" : 0,
      "byteOffset" : 110400,
      "byteLength" : 91248
    },
    {
      "buffer" : 0,
      "byteOffset" : 201648,
      "byteLength" : 121664
    },
    {
      "buffer" : 0,
      "byteOffset" : 323312,
      "byteLength" : 60832
    },
    {
      "buffer" : 0,
      "byteOffset" : 384144,
      "byteLength" : 60832
    },
    {
      "buffer" : 0,
      "byteOffset" : 444976,
      "byteLength" : 60832
    },
    {
      "buffer" : 0,
      "byteOffset" : 505808,
      "byteLength" : 60832
    },
    {
      "buffer" : 0,
      "byteOffset" : 566640,
      "byteLength" : 60832
    }
  ],
  "accessors" : [
    {
      "bufferView" : 0,
      "componentType" : 5123,
      "count" : 9576,
      "type" : "SCALAR"
    },
    {
      "bufferView" : 1,
      "min" : [ -38.5447, 3.4654, -75.9503 ],
      "max" : [ -13.517, 11.9906, -40.5807 ],
      "componentType" : 5126,
      "count" : 7604,
      "type" : "VEC3"
    },
    {
      "bufferView" : 2,
      "componentType" : 5126,
      "count" : 7604,
      "type" : "VEC3"
    },
    {
      "bufferView" : 3,
      "componentType" : 5126,
      "count" : 7604,
      "type" : "VEC4"
    },
    {
      "bufferView" : 4,
      "componentType" : 5126,
      "count" : 7604,
      "type" : "VEC2"
    },
    {
      "bufferView" : 5,
      "componentType" : 5126,
      "count" : 7604,
      "type" : "VEC2"
    },
    {
      "bufferView" : 6,
      "componentType" : 5126,
      "count" : 7604,
      "type" : "VEC2"
    },
    {
      "bufferView" : 7,
      "componentType" : 5126,
      "count" : 7604,
      "type" : "VEC2"
    },
    {
      "bufferView" : 8,
      "componentType" : 5126,
      "count" : 7604,
      "type" : "VEC2"
    }
  ]
}
