{
  "asset" : {
    "generator" : "UE Viewer (umodel) build 1579 based",
    "version" : "2.0"
  },
  "scene" : 0,
  "scenes" : [
    {
      "nodes" : [ 0 ]
    }
  ],
  "nodes" : [
    {
      "name" : "S_Envi_Common_Wall_01f_Merge_Glass",
      "mesh" : 0
    }
  ],
  "materials" : [
    {
      "name" : "MI_PM_Glass_02i",
      "pbrMetallicRoughness" : {
        "baseColorFactor" : [ 0.3, 0.3, 0.3, 1.0 ],
        "metallicFactor" : 0.1,
        "roughnessFactor" : 0.5
      }
    }
  ],
  "meshes" : [
    {
      "primitives" : [
        {
          "attributes" : {
            "POSITION" : 1,
            "NORMAL" : 2,
            "TANGENT" : 3,
            "TEXCOORD_0" : 4,
            "TEXCOORD_1" : 5,
            "TEXCOORD_2" : 6,
            "TEXCOORD_3" : 7
          },
          "indices" : 0,
          "material" : 0
        }
      ],
      "name" : "S_Envi_Common_Wall_01f_Merge_Glass"
    }
  ],
  "buffers" : [
    {
      "uri" : "S_Envi_Common_Wall_01f_Merge_Glass.bin",
      "byteLength" : 600
    }
  ],
  "bufferViews" : [
    {
      "buffer" : 0,
      "byteOffset" : 0,
      "byteLength" : 24
    },
    {
      "buffer" : 0,
      "byteOffset" : 24,
      "byteLength" : 96
    },
    {
      "buffer" : 0,
      "byteOffset" : 120,
      "byteLength" : 96
    },
    {
      "buffer" : 0,
      "byteOffset" : 216,
      "byteLength" : 128
    },
    {
      "buffer" : 0,
      "byteOffset" : 344,
      "byteLength" : 64
    },
    {
      "buffer" : 0,
      "byteOffset" : 408,
      "byteLength" : 64
    },
    {
      "buffer" : 0,
      "byteOffset" : 472,
      "byteLength" : 64
    },
    {
      "buffer" : 0,
      "byteOffset" : 536,
      "byteLength" : 64
    }
  ],
  "accessors" : [
    {
      "bufferView" : 0,
      "componentType" : 5123,
      "count" : 12,
      "type" : "SCALAR"
    },
    {
      "bufferView" : 1,
      "min" : [ 56.5428, 3.0674, -55.7503 ],
      "max" : [ 56.9514, 5.68784, -49.0892 ],
      "componentType" : 5126,
      "count" : 8,
      "type" : "VEC3"
    },
    {
      "bufferView" : 2,
      "componentType" : 5126,
      "count" : 8,
      "type" : "VEC3"
    },
    {
      "bufferView" : 3,
      "componentType" : 5126,
      "count" : 8,
      "type" : "VEC4"
    },
    {
      "bufferView" : 4,
      "componentType" : 5126,
      "count" : 8,
      "type" : "VEC2"
    },
    {
      "bufferView" : 5,
      "componentType" : 5126,
      "count" : 8,
      "type" : "VEC2"
    },
    {
      "bufferView" : 6,
      "componentType" : 5126,
      "count" : 8,
      "type" : "VEC2"
    },
    {
      "bufferView" : 7,
      "componentType" : 5126,
      "count" : 8,
      "type" : "VEC2"
    }
  ]
}
