{
  "asset" : {
    "generator" : "UE Viewer (umodel) build 1579 based",
    "version" : "2.0"
  },
  "scene" : 0,
  "scenes" : [
    {
      "nodes" : [ 0 ]
    }
  ],
  "nodes" : [
    {
      "name" : "S_Envi_Olgk_Buiding_Optimizev_01b",
      "mesh" : 0
    }
  ],
  "materials" : [
    {
      "name" : "MI_Envi_Common_Wall_10d",
      "pbrMetallicRoughness" : {
        "baseColorFactor" : [ 0.3, 0.3, 0.3, 1.0 ],
        "metallicFactor" : 0.1,
        "roughnessFactor" : 0.5
      }
    }
  ],
  "meshes" : [
    {
      "primitives" : [
        {
          "attributes" : {
            "POSITION" : 1,
            "NORMAL" : 2,
            "TANGENT" : 3,
            "TEXCOORD_0" : 4,
            "TEXCOORD_1" : 5,
            "TEXCOORD_2" : 6,
            "TEXCOORD_3" : 7
          },
          "indices" : 0,
          "material" : 0
        }
      ],
      "name" : "S_Envi_Olgk_Buiding_Optimizev_01b"
    }
  ],
  "buffers" : [
    {
      "uri" : "S_Envi_Olgk_Buiding_Optimizev_01b.bin",
      "byteLength" : 12824
    }
  ],
  "bufferViews" : [
    {
      "buffer" : 0,
      "byteOffset" : 0,
      "byteLength" : 584
    },
    {
      "buffer" : 0,
      "byteOffset" : 584,
      "byteLength" : 2040
    },
    {
      "buffer" : 0,
      "byteOffset" : 2624,
      "byteLength" : 2040
    },
    {
      "buffer" : 0,
      "byteOffset" : 4664,
      "byteLength" : 2720
    },
    {
      "buffer" : 0,
      "byteOffset" : 7384,
      "byteLength" : 1360
    },
    {
      "buffer" : 0,
      "byteOffset" : 8744,
      "byteLength" : 1360
    },
    {
      "buffer" : 0,
      "byteOffset" : 10104,
      "byteLength" : 1360
    },
    {
      "buffer" : 0,
      "byteOffset" : 11464,
      "byteLength" : 1360
    }
  ],
  "accessors" : [
    {
      "bufferView" : 0,
      "componentType" : 5123,
      "count" : 291,
      "type" : "SCALAR"
    },
    {
      "bufferView" : 1,
      "min" : [ 25.5575, 2.5357, -46.6878 ],
      "max" : [ 61.4575, 16.9832, -19.5497 ],
      "componentType" : 5126,
      "count" : 170,
      "type" : "VEC3"
    },
    {
      "bufferView" : 2,
      "componentType" : 5126,
      "count" : 170,
      "type" : "VEC3"
    },
    {
      "bufferView" : 3,
      "componentType" : 5126,
      "count" : 170,
      "type" : "VEC4"
    },
    {
      "bufferView" : 4,
      "componentType" : 5126,
      "count" : 170,
      "type" : "VEC2"
    },
    {
      "bufferView" : 5,
      "componentType" : 5126,
      "count" : 170,
      "type" : "VEC2"
    },
    {
      "bufferView" : 6,
      "componentType" : 5126,
      "count" : 170,
      "type" : "VEC2"
    },
    {
      "bufferView" : 7,
      "componentType" : 5126,
      "count" : 170,
      "type" : "VEC2"
    }
  ]
}
