{
  "asset" : {
    "generator" : "UE Viewer (umodel) build 1579 based",
    "version" : "2.0"
  },
  "scene" : 0,
  "scenes" : [
    {
      "nodes" : [ 0 ]
    }
  ],
  "nodes" : [
    {
      "name" : "S_Envi_Olgk_Common_Wall_01d_Merge",
      "mesh" : 0
    }
  ],
  "materials" : [
    {
      "name" : "MI_Envi_Common_Wall_11a",
      "pbrMetallicRoughness" : {
        "baseColorFactor" : [ 0.3, 0.3, 0.3, 1.0 ],
        "metallicFactor" : 0.1,
        "roughnessFactor" : 0.5
      }
    }
  ],
  "meshes" : [
    {
      "primitives" : [
        {
          "attributes" : {
            "POSITION" : 1,
            "NORMAL" : 2,
            "TANGENT" : 3,
            "TEXCOORD_0" : 4,
            "TEXCOORD_1" : 5,
            "TEXCOORD_2" : 6,
            "TEXCOORD_3" : 7
          },
          "indices" : 0,
          "material" : 0
        }
      ],
      "name" : "S_Envi_Olgk_Common_Wall_01d_Merge"
    }
  ],
  "buffers" : [
    {
      "uri" : "S_Envi_Olgk_Common_Wall_01d_Merge.bin",
      "byteLength" : 17784
    }
  ],
  "bufferViews" : [
    {
      "buffer" : 0,
      "byteOffset" : 0,
      "byteLength" : 792
    },
    {
      "buffer" : 0,
      "byteOffset" : 792,
      "byteLength" : 2832
    },
    {
      "buffer" : 0,
      "byteOffset" : 3624,
      "byteLength" : 2832
    },
    {
      "buffer" : 0,
      "byteOffset" : 6456,
      "byteLength" : 3776
    },
    {
      "buffer" : 0,
      "byteOffset" : 10232,
      "byteLength" : 1888
    },
    {
      "buffer" : 0,
      "byteOffset" : 12120,
      "byteLength" : 1888
    },
    {
      "buffer" : 0,
      "byteOffset" : 14008,
      "byteLength" : 1888
    },
    {
      "buffer" : 0,
      "byteOffset" : 15896,
      "byteLength" : 1888
    }
  ],
  "accessors" : [
    {
      "bufferView" : 0,
      "componentType" : 5123,
      "count" : 396,
      "type" : "SCALAR"
    },
    {
      "bufferView" : 1,
      "min" : [ 25.293, 7.35, -53.3875 ],
      "max" : [ 30.3911, 11.35, -42.1 ],
      "componentType" : 5126,
      "count" : 236,
      "type" : "VEC3"
    },
    {
      "bufferView" : 2,
      "componentType" : 5126,
      "count" : 236,
      "type" : "VEC3"
    },
    {
      "bufferView" : 3,
      "componentType" : 5126,
      "count" : 236,
      "type" : "VEC4"
    },
    {
      "bufferView" : 4,
      "componentType" : 5126,
      "count" : 236,
      "type" : "VEC2"
    },
    {
      "bufferView" : 5,
      "componentType" : 5126,
      "count" : 236,
      "type" : "VEC2"
    },
    {
      "bufferView" : 6,
      "componentType" : 5126,
      "count" : 236,
      "type" : "VEC2"
    },
    {
      "bufferView" : 7,
      "componentType" : 5126,
      "count" : 236,
      "type" : "VEC2"
    }
  ]
}
