{
  "asset" : {
    "generator" : "UE Viewer (umodel) build 1579 based",
    "version" : "2.0"
  },
  "scene" : 0,
  "scenes" : [
    {
      "nodes" : [ 0 ]
    }
  ],
  "nodes" : [
    {
      "name" : "S_Envi_Olgk_Common_Roof_01k_Merge",
      "mesh" : 0
    }
  ],
  "materials" : [
    {
      "name" : "MI_Envi_Common_Roof_01a",
      "pbrMetallicRoughness" : {
        "baseColorFactor" : [ 0.3, 0.3, 0.3, 1.0 ],
        "metallicFactor" : 0.1,
        "roughnessFactor" : 0.5
      }
    }
  ],
  "meshes" : [
    {
      "primitives" : [
        {
          "attributes" : {
            "POSITION" : 1,
            "NORMAL" : 2,
            "TANGENT" : 3,
            "TEXCOORD_0" : 4,
            "TEXCOORD_1" : 5
          },
          "indices" : 0,
          "material" : 0
        }
      ],
      "name" : "S_Envi_Olgk_Common_Roof_01k_Merge"
    }
  ],
  "buffers" : [
    {
      "uri" : "S_Envi_Olgk_Common_Roof_01k_Merge.bin",
      "byteLength" : 159532
    }
  ],
  "bufferViews" : [
    {
      "buffer" : 0,
      "byteOffset" : 0,
      "byteLength" : 10236
    },
    {
      "buffer" : 0,
      "byteOffset" : 10236,
      "byteLength" : 31992
    },
    {
      "buffer" : 0,
      "byteOffset" : 42228,
      "byteLength" : 31992
    },
    {
      "buffer" : 0,
      "byteOffset" : 74220,
      "byteLength" : 42656
    },
    {
      "buffer" : 0,
      "byteOffset" : 116876,
      "byteLength" : 21328
    },
    {
      "buffer" : 0,
      "byteOffset" : 138204,
      "byteLength" : 21328
    }
  ],
  "accessors" : [
    {
      "bufferView" : 0,
      "componentType" : 5123,
      "count" : 5118,
      "type" : "SCALAR"
    },
    {
      "bufferView" : 1,
      "min" : [ 18.95, 6.5, 0.0999939 ],
      "max" : [ 29.45, 6.89953, 19.225 ],
      "componentType" : 5126,
      "count" : 2666,
      "type" : "VEC3"
    },
    {
      "bufferView" : 2,
      "componentType" : 5126,
      "count" : 2666,
      "type" : "VEC3"
    },
    {
      "bufferView" : 3,
      "componentType" : 5126,
      "count" : 2666,
      "type" : "VEC4"
    },
    {
      "bufferView" : 4,
      "componentType" : 5126,
      "count" : 2666,
      "type" : "VEC2"
    },
    {
      "bufferView" : 5,
      "componentType" : 5126,
      "count" : 2666,
      "type" : "VEC2"
    }
  ]
}
