{
  "asset" : {
    "generator" : "UE Viewer (umodel) build 1579 based",
    "version" : "2.0"
  },
  "scene" : 0,
  "scenes" : [
    {
      "nodes" : [ 0 ]
    }
  ],
  "nodes" : [
    {
      "name" : "S_Envi_Olgk_Common_Roof_Merge_03d",
      "mesh" : 0
    }
  ],
  "materials" : [
    {
      "name" : "MI_Envi_Common_DownWall_01b",
      "pbrMetallicRoughness" : {
        "baseColorFactor" : [ 0.3, 0.3, 0.3, 1.0 ],
        "metallicFactor" : 0.1,
        "roughnessFactor" : 0.5
      }
    }
  ],
  "meshes" : [
    {
      "primitives" : [
        {
          "attributes" : {
            "POSITION" : 1,
            "NORMAL" : 2,
            "TANGENT" : 3,
            "TEXCOORD_0" : 4,
            "TEXCOORD_1" : 5
          },
          "indices" : 0,
          "material" : 0
        }
      ],
      "name" : "S_Envi_Olgk_Common_Roof_Merge_03d"
    }
  ],
  "buffers" : [
    {
      "uri" : "S_Envi_Olgk_Common_Roof_Merge_03d.bin",
      "byteLength" : 37484
    }
  ],
  "bufferViews" : [
    {
      "buffer" : 0,
      "byteOffset" : 0,
      "byteLength" : 2316
    },
    {
      "buffer" : 0,
      "byteOffset" : 2316,
      "byteLength" : 7536
    },
    {
      "buffer" : 0,
      "byteOffset" : 9852,
      "byteLength" : 7536
    },
    {
      "buffer" : 0,
      "byteOffset" : 17388,
      "byteLength" : 10048
    },
    {
      "buffer" : 0,
      "byteOffset" : 27436,
      "byteLength" : 5024
    },
    {
      "buffer" : 0,
      "byteOffset" : 32460,
      "byteLength" : 5024
    }
  ],
  "accessors" : [
    {
      "bufferView" : 0,
      "componentType" : 5123,
      "count" : 1158,
      "type" : "SCALAR"
    },
    {
      "bufferView" : 1,
      "min" : [ -43.9913, 8, -47.7783 ],
      "max" : [ -26.5204, 8.15083, -33.4778 ],
      "componentType" : 5126,
      "count" : 628,
      "type" : "VEC3"
    },
    {
      "bufferView" : 2,
      "componentType" : 5126,
      "count" : 628,
      "type" : "VEC3"
    },
    {
      "bufferView" : 3,
      "componentType" : 5126,
      "count" : 628,
      "type" : "VEC4"
    },
    {
      "bufferView" : 4,
      "componentType" : 5126,
      "count" : 628,
      "type" : "VEC2"
    },
    {
      "bufferView" : 5,
      "componentType" : 5126,
      "count" : 628,
      "type" : "VEC2"
    }
  ]
}
