{
  "asset" : {
    "generator" : "UE Viewer (umodel) build 1579 based",
    "version" : "2.0"
  },
  "scene" : 0,
  "scenes" : [
    {
      "nodes" : [ 0 ]
    }
  ],
  "nodes" : [
    {
      "name" : "S_Envi_FZFBase_Rough_01g",
      "mesh" : 0
    }
  ],
  "materials" : [
    {
      "name" : "MI_Envi_FZFBase_Rough_01b",
      "pbrMetallicRoughness" : {
        "baseColorFactor" : [ 0.3, 0.3, 0.3, 1.0 ],
        "metallicFactor" : 0.1,
        "roughnessFactor" : 0.5
      }
    }
  ],
  "meshes" : [
    {
      "primitives" : [
        {
          "attributes" : {
            "POSITION" : 1,
            "NORMAL" : 2,
            "TANGENT" : 3,
            "TEXCOORD_0" : 4,
            "TEXCOORD_1" : 5,
            "TEXCOORD_2" : 6,
            "TEXCOORD_3" : 7
          },
          "indices" : 0,
          "material" : 0
        }
      ],
      "name" : "S_Envi_FZFBase_Rough_01g"
    }
  ],
  "buffers" : [
    {
      "uri" : "S_Envi_FZFBase_Rough_01g.bin",
      "byteLength" : 58296
    }
  ],
  "bufferViews" : [
    {
      "buffer" : 0,
      "byteOffset" : 0,
      "byteLength" : 2496
    },
    {
      "buffer" : 0,
      "byteOffset" : 2496,
      "byteLength" : 9300
    },
    {
      "buffer" : 0,
      "byteOffset" : 11796,
      "byteLength" : 9300
    },
    {
      "buffer" : 0,
      "byteOffset" : 21096,
      "byteLength" : 12400
    },
    {
      "buffer" : 0,
      "byteOffset" : 33496,
      "byteLength" : 6200
    },
    {
      "buffer" : 0,
      "byteOffset" : 39696,
      "byteLength" : 6200
    },
    {
      "buffer" : 0,
      "byteOffset" : 45896,
      "byteLength" : 6200
    },
    {
      "buffer" : 0,
      "byteOffset" : 52096,
      "byteLength" : 6200
    }
  ],
  "accessors" : [
    {
      "bufferView" : 0,
      "componentType" : 5123,
      "count" : 1248,
      "type" : "SCALAR"
    },
    {
      "bufferView" : 1,
      "min" : [ -144.385, -36.9969, 244.967 ],
      "max" : [ -41.5569, 147.597, 291.47 ],
      "componentType" : 5126,
      "count" : 775,
      "type" : "VEC3"
    },
    {
      "bufferView" : 2,
      "componentType" : 5126,
      "count" : 775,
      "type" : "VEC3"
    },
    {
      "bufferView" : 3,
      "componentType" : 5126,
      "count" : 775,
      "type" : "VEC4"
    },
    {
      "bufferView" : 4,
      "componentType" : 5126,
      "count" : 775,
      "type" : "VEC2"
    },
    {
      "bufferView" : 5,
      "componentType" : 5126,
      "count" : 775,
      "type" : "VEC2"
    },
    {
      "bufferView" : 6,
      "componentType" : 5126,
      "count" : 775,
      "type" : "VEC2"
    },
    {
      "bufferView" : 7,
      "componentType" : 5126,
      "count" : 775,
      "type" : "VEC2"
    }
  ]
}
