{
  "asset" : {
    "generator" : "UE Viewer (umodel) build 1579 based",
    "version" : "2.0"
  },
  "scene" : 0,
  "scenes" : [
    {
      "nodes" : [ 0 ]
    }
  ],
  "nodes" : [
    {
      "name" : "S_Envi_Fyz_Building_41t",
      "mesh" : 0
    }
  ],
  "materials" : [
    {
      "name" : "MI_Envi_Fyz_FlowerBed_01a",
      "pbrMetallicRoughness" : {
        "baseColorFactor" : [ 0.3, 0.3, 0.3, 1.0 ],
        "metallicFactor" : 0.1,
        "roughnessFactor" : 0.5
      }
    }
  ],
  "meshes" : [
    {
      "primitives" : [
        {
          "attributes" : {
            "POSITION" : 1,
            "NORMAL" : 2,
            "TANGENT" : 3,
            "TEXCOORD_0" : 4,
            "TEXCOORD_1" : 5
          },
          "indices" : 0,
          "material" : 0
        }
      ],
      "name" : "S_Envi_Fyz_Building_41t"
    }
  ],
  "buffers" : [
    {
      "uri" : "S_Envi_Fyz_Building_41t.bin",
      "byteLength" : 46928
    }
  ],
  "bufferViews" : [
    {
      "buffer" : 0,
      "byteOffset" : 0,
      "byteLength" : 3696
    },
    {
      "buffer" : 0,
      "byteOffset" : 3696,
      "byteLength" : 9264
    },
    {
      "buffer" : 0,
      "byteOffset" : 12960,
      "byteLength" : 9264
    },
    {
      "buffer" : 0,
      "byteOffset" : 22224,
      "byteLength" : 12352
    },
    {
      "buffer" : 0,
      "byteOffset" : 34576,
      "byteLength" : 6176
    },
    {
      "buffer" : 0,
      "byteOffset" : 40752,
      "byteLength" : 6176
    }
  ],
  "accessors" : [
    {
      "bufferView" : 0,
      "componentType" : 5123,
      "count" : 1848,
      "type" : "SCALAR"
    },
    {
      "bufferView" : 1,
      "min" : [ -1.09039, -1.15918, -0.72655 ],
      "max" : [ 1.09039, -0.00812592, -4.97569e-19 ],
      "componentType" : 5126,
      "count" : 772,
      "type" : "VEC3"
    },
    {
      "bufferView" : 2,
      "componentType" : 5126,
      "count" : 772,
      "type" : "VEC3"
    },
    {
      "bufferView" : 3,
      "componentType" : 5126,
      "count" : 772,
      "type" : "VEC4"
    },
    {
      "bufferView" : 4,
      "componentType" : 5126,
      "count" : 772,
      "type" : "VEC2"
    },
    {
      "bufferView" : 5,
      "componentType" : 5126,
      "count" : 772,
      "type" : "VEC2"
    }
  ]
}
