{
  "asset" : {
    "generator" : "UE Viewer (umodel) build 1579 based",
    "version" : "2.0"
  },
  "scene" : 0,
  "scenes" : [
    {
      "nodes" : [ 0 ]
    }
  ],
  "nodes" : [
    {
      "name" : "S_Envi_Fyz_BuildingMerge_95b",
      "mesh" : 0
    }
  ],
  "materials" : [
    {
      "name" : "MI_Envi_Umeda_Prop_Frame_01",
      "pbrMetallicRoughness" : {
        "baseColorFactor" : [ 0.3, 0.3, 0.3, 1.0 ],
        "metallicFactor" : 0.1,
        "roughnessFactor" : 0.5
      }
    }
  ],
  "meshes" : [
    {
      "primitives" : [
        {
          "attributes" : {
            "POSITION" : 1,
            "NORMAL" : 2,
            "TANGENT" : 3,
            "TEXCOORD_0" : 4,
            "TEXCOORD_1" : 5
          },
          "indices" : 0,
          "material" : 0
        }
      ],
      "name" : "S_Envi_Fyz_BuildingMerge_95b"
    }
  ],
  "buffers" : [
    {
      "uri" : "S_Envi_Fyz_BuildingMerge_95b.bin",
      "byteLength" : 149156
    }
  ],
  "bufferViews" : [
    {
      "buffer" : 0,
      "byteOffset" : 0,
      "byteLength" : 6132
    },
    {
      "buffer" : 0,
      "byteOffset" : 6132,
      "byteLength" : 30648
    },
    {
      "buffer" : 0,
      "byteOffset" : 36780,
      "byteLength" : 30648
    },
    {
      "buffer" : 0,
      "byteOffset" : 67428,
      "byteLength" : 40864
    },
    {
      "buffer" : 0,
      "byteOffset" : 108292,
      "byteLength" : 20432
    },
    {
      "buffer" : 0,
      "byteOffset" : 128724,
      "byteLength" : 20432
    }
  ],
  "accessors" : [
    {
      "bufferView" : 0,
      "componentType" : 5123,
      "count" : 3066,
      "type" : "SCALAR"
    },
    {
      "bufferView" : 1,
      "min" : [ -12.5207, 0.00195525, -29.0003 ],
      "max" : [ -3.38302, 4.96198, -19.2026 ],
      "componentType" : 5126,
      "count" : 2554,
      "type" : "VEC3"
    },
    {
      "bufferView" : 2,
      "componentType" : 5126,
      "count" : 2554,
      "type" : "VEC3"
    },
    {
      "bufferView" : 3,
      "componentType" : 5126,
      "count" : 2554,
      "type" : "VEC4"
    },
    {
      "bufferView" : 4,
      "componentType" : 5126,
      "count" : 2554,
      "type" : "VEC2"
    },
    {
      "bufferView" : 5,
      "componentType" : 5126,
      "count" : 2554,
      "type" : "VEC2"
    }
  ]
}
