{
  "asset" : {
    "generator" : "UE Viewer (umodel) build 1579 based",
    "version" : "2.0"
  },
  "scene" : 0,
  "scenes" : [
    {
      "nodes" : [ 0 ]
    }
  ],
  "nodes" : [
    {
      "name" : "SK_Weap_M82_000_Sight_Mesh",
      "mesh" : 0,
      "skin" : 0,
      "children" : [ 1 ]
    },
    {
      "name" : "Root",
      "translation" : [ 0, 0, 0 ],
      "rotation" : [ -7.69108e-07, 1.2783e-07, 9.83147e-14, 1 ]
    }
  ],
  "skins" : [
    {
      "inverseBindMatrices" : 0,
      "skeleton" : 1,
      "joints" : [
        1
      ]
    }
  ],
  "materials" : [
    {
      "name" : "MI_Weap_M82_02_000",
      "pbrMetallicRoughness" : {
        "baseColorFactor" : [ 0.3, 0.3, 0.3, 1.0 ],
        "metallicFactor" : 0.1,
        "roughnessFactor" : 0.5
      }
    }
  ],
  "meshes" : [
    {
      "primitives" : [
        {
          "attributes" : {
            "POSITION" : 2,
            "NORMAL" : 3,
            "TANGENT" : 4,
            "JOINTS_0" : 5,
            "WEIGHTS_0" : 6,
            "TEXCOORD_0" : 7
          },
          "indices" : 1,
          "material" : 0
        }
      ],
      "name" : "SK_Weap_M82_000_Sight_Mesh"
    }
  ],
  "buffers" : [
    {
      "uri" : "SK_Weap_M82_000_Sight_Mesh.bin",
      "byteLength" : 73128
    }
  ],
  "bufferViews" : [
    {
      "buffer" : 0,
      "byteOffset" : 0,
      "byteLength" : 64
    },
    {
      "buffer" : 0,
      "byteOffset" : 64,
      "byteLength" : 5804
    },
    {
      "buffer" : 0,
      "byteOffset" : 5868,
      "byteLength" : 13452
    },
    {
      "buffer" : 0,
      "byteOffset" : 19320,
      "byteLength" : 13452
    },
    {
      "buffer" : 0,
      "byteOffset" : 32772,
      "byteLength" : 17936
    },
    {
      "buffer" : 0,
      "byteOffset" : 50708,
      "byteLength" : 8968
    },
    {
      "buffer" : 0,
      "byteOffset" : 59676,
      "byteLength" : 4484
    },
    {
      "buffer" : 0,
      "byteOffset" : 64160,
      "byteLength" : 8968
    }
  ],
  "accessors" : [
    {
      "bufferView" : 0,
      "componentType" : 5126,
      "count" : 1,
      "type" : "MAT4"
    },
    {
      "bufferView" : 1,
      "componentType" : 5123,
      "count" : 2901,
      "type" : "SCALAR"
    },
    {
      "bufferView" : 2,
      "min" : [ -0.0280609, -0.0565206, -0.109852 ],
      "max" : [ 0.0280583, 0.0165309, 0.177765 ],
      "componentType" : 5126,
      "count" : 1121,
      "type" : "VEC3"
    },
    {
      "bufferView" : 3,
      "componentType" : 5126,
      "count" : 1121,
      "type" : "VEC3"
    },
    {
      "bufferView" : 4,
      "componentType" : 5126,
      "count" : 1121,
      "type" : "VEC4"
    },
    {
      "bufferView" : 5,
      "componentType" : 5123,
      "count" : 1121,
      "type" : "VEC4"
    },
    {
      "bufferView" : 6,
      "normalized" : true,
      "componentType" : 5121,
      "count" : 1121,
      "type" : "VEC4"
    },
    {
      "bufferView" : 7,
      "componentType" : 5126,
      "count" : 1121,
      "type" : "VEC2"
    }
  ]
}
