{
  "asset" : {
    "generator" : "UE Viewer (umodel) build 1579 based",
    "version" : "2.0"
  },
  "scene" : 0,
  "scenes" : [
    {
      "nodes" : [ 0 ]
    }
  ],
  "nodes" : [
    {
      "name" : "S_Envi_FZFBase_Stone_05a",
      "mesh" : 0
    }
  ],
  "materials" : [
    {
      "name" : "MI_Envi_FZFBase_Rock_05a",
      "pbrMetallicRoughness" : {
        "baseColorFactor" : [ 0.3, 0.3, 0.3, 1.0 ],
        "metallicFactor" : 0.1,
        "roughnessFactor" : 0.5
      }
    }
  ],
  "meshes" : [
    {
      "primitives" : [
        {
          "attributes" : {
            "POSITION" : 1,
            "NORMAL" : 2,
            "TANGENT" : 3,
            "TEXCOORD_0" : 4,
            "TEXCOORD_1" : 5
          },
          "indices" : 0,
          "material" : 0
        }
      ],
      "name" : "S_Envi_FZFBase_Stone_05a"
    }
  ],
  "buffers" : [
    {
      "uri" : "S_Envi_FZFBase_Stone_05a.bin",
      "byteLength" : 36424
    }
  ],
  "bufferViews" : [
    {
      "buffer" : 0,
      "byteOffset" : 0,
      "byteLength" : 5232
    },
    {
      "buffer" : 0,
      "byteOffset" : 5232,
      "byteLength" : 6684
    },
    {
      "buffer" : 0,
      "byteOffset" : 11916,
      "byteLength" : 6684
    },
    {
      "buffer" : 0,
      "byteOffset" : 18600,
      "byteLength" : 8912
    },
    {
      "buffer" : 0,
      "byteOffset" : 27512,
      "byteLength" : 4456
    },
    {
      "buffer" : 0,
      "byteOffset" : 31968,
      "byteLength" : 4456
    }
  ],
  "accessors" : [
    {
      "bufferView" : 0,
      "componentType" : 5123,
      "count" : 2616,
      "type" : "SCALAR"
    },
    {
      "bufferView" : 1,
      "min" : [ -3.03142, -0.123232, -2.53076 ],
      "max" : [ 3.1496, 3.70934, 2.48673 ],
      "componentType" : 5126,
      "count" : 557,
      "type" : "VEC3"
    },
    {
      "bufferView" : 2,
      "componentType" : 5126,
      "count" : 557,
      "type" : "VEC3"
    },
    {
      "bufferView" : 3,
      "componentType" : 5126,
      "count" : 557,
      "type" : "VEC4"
    },
    {
      "bufferView" : 4,
      "componentType" : 5126,
      "count" : 557,
      "type" : "VEC2"
    },
    {
      "bufferView" : 5,
      "componentType" : 5126,
      "count" : 557,
      "type" : "VEC2"
    }
  ]
}
