{
  "asset" : {
    "generator" : "UE Viewer (umodel) build 1579 based",
    "version" : "2.0"
  },
  "scene" : 0,
  "scenes" : [
    {
      "nodes" : [ 0 ]
    }
  ],
  "nodes" : [
    {
      "name" : "S_Envi_FZFBase_Stone_05g",
      "mesh" : 0
    }
  ],
  "materials" : [
    {
      "name" : "MI_Envi_FZFBase_Rock_05b",
      "pbrMetallicRoughness" : {
        "baseColorFactor" : [ 0.3, 0.3, 0.3, 1.0 ],
        "metallicFactor" : 0.1,
        "roughnessFactor" : 0.5
      }
    }
  ],
  "meshes" : [
    {
      "primitives" : [
        {
          "attributes" : {
            "POSITION" : 1,
            "NORMAL" : 2,
            "TANGENT" : 3,
            "TEXCOORD_0" : 4,
            "TEXCOORD_1" : 5
          },
          "indices" : 0,
          "material" : 0
        }
      ],
      "name" : "S_Envi_FZFBase_Stone_05g"
    }
  ],
  "buffers" : [
    {
      "uri" : "S_Envi_FZFBase_Stone_05g.bin",
      "byteLength" : 55288
    }
  ],
  "bufferViews" : [
    {
      "buffer" : 0,
      "byteOffset" : 0,
      "byteLength" : 7968
    },
    {
      "buffer" : 0,
      "byteOffset" : 7968,
      "byteLength" : 10140
    },
    {
      "buffer" : 0,
      "byteOffset" : 18108,
      "byteLength" : 10140
    },
    {
      "buffer" : 0,
      "byteOffset" : 28248,
      "byteLength" : 13520
    },
    {
      "buffer" : 0,
      "byteOffset" : 41768,
      "byteLength" : 6760
    },
    {
      "buffer" : 0,
      "byteOffset" : 48528,
      "byteLength" : 6760
    }
  ],
  "accessors" : [
    {
      "bufferView" : 0,
      "componentType" : 5123,
      "count" : 3984,
      "type" : "SCALAR"
    },
    {
      "bufferView" : 1,
      "min" : [ -4.37831, -0.396538, -3.83288 ],
      "max" : [ 4.18636, 6.22006, 3.59514 ],
      "componentType" : 5126,
      "count" : 845,
      "type" : "VEC3"
    },
    {
      "bufferView" : 2,
      "componentType" : 5126,
      "count" : 845,
      "type" : "VEC3"
    },
    {
      "bufferView" : 3,
      "componentType" : 5126,
      "count" : 845,
      "type" : "VEC4"
    },
    {
      "bufferView" : 4,
      "componentType" : 5126,
      "count" : 845,
      "type" : "VEC2"
    },
    {
      "bufferView" : 5,
      "componentType" : 5126,
      "count" : 845,
      "type" : "VEC2"
    }
  ]
}
