{
  "asset" : {
    "generator" : "UE Viewer (umodel) build 1579 based",
    "version" : "2.0"
  },
  "scene" : 0,
  "scenes" : [
    {
      "nodes" : [ 0 ]
    }
  ],
  "nodes" : [
    {
      "name" : "S_Envi_FZFBase_Stone_02l",
      "mesh" : 0
    }
  ],
  "materials" : [
    {
      "name" : "MI_Envi_FZFBase_Stone_02b",
      "pbrMetallicRoughness" : {
        "baseColorFactor" : [ 0.3, 0.3, 0.3, 1.0 ],
        "metallicFactor" : 0.1,
        "roughnessFactor" : 0.5
      }
    },
    {
      "name" : "MI_Envi_FZFBase_Stone_05a",
      "pbrMetallicRoughness" : {
        "baseColorFactor" : [ 0.9, 0.3, 0.3, 1.0 ],
        "metallicFactor" : 0.1,
        "roughnessFactor" : 0.5
      }
    }
  ],
  "meshes" : [
    {
      "primitives" : [
        {
          "attributes" : {
            "POSITION" : 1,
            "NORMAL" : 2,
            "TANGENT" : 3,
            "TEXCOORD_0" : 4,
            "TEXCOORD_1" : 5
          },
          "indices" : 0,
          "material" : 0
        },
        {
          "attributes" : {
            "POSITION" : 7,
            "NORMAL" : 8,
            "TANGENT" : 9,
            "TEXCOORD_0" : 10,
            "TEXCOORD_1" : 11
          },
          "indices" : 6,
          "material" : 1
        }
      ],
      "name" : "S_Envi_FZFBase_Stone_02l"
    }
  ],
  "buffers" : [
    {
      "uri" : "S_Envi_FZFBase_Stone_02l.bin",
      "byteLength" : 120432
    }
  ],
  "bufferViews" : [
    {
      "buffer" : 0,
      "byteOffset" : 0,
      "byteLength" : 14160
    },
    {
      "buffer" : 0,
      "byteOffset" : 14160,
      "byteLength" : 16236
    },
    {
      "buffer" : 0,
      "byteOffset" : 30396,
      "byteLength" : 16236
    },
    {
      "buffer" : 0,
      "byteOffset" : 46632,
      "byteLength" : 21648
    },
    {
      "buffer" : 0,
      "byteOffset" : 68280,
      "byteLength" : 10824
    },
    {
      "buffer" : 0,
      "byteOffset" : 79104,
      "byteLength" : 10824
    },
    {
      "buffer" : 0,
      "byteOffset" : 89928,
      "byteLength" : 1608
    },
    {
      "buffer" : 0,
      "byteOffset" : 91536,
      "byteLength" : 6192
    },
    {
      "buffer" : 0,
      "byteOffset" : 97728,
      "byteLength" : 6192
    },
    {
      "buffer" : 0,
      "byteOffset" : 103920,
      "byteLength" : 8256
    },
    {
      "buffer" : 0,
      "byteOffset" : 112176,
      "byteLength" : 4128
    },
    {
      "buffer" : 0,
      "byteOffset" : 116304,
      "byteLength" : 4128
    }
  ],
  "accessors" : [
    {
      "bufferView" : 0,
      "componentType" : 5123,
      "count" : 7080,
      "type" : "SCALAR"
    },
    {
      "bufferView" : 1,
      "min" : [ -1.2918, -0.390724, -1.22328 ],
      "max" : [ 1.2319, 4.26127, 1.16968 ],
      "componentType" : 5126,
      "count" : 1353,
      "type" : "VEC3"
    },
    {
      "bufferView" : 2,
      "componentType" : 5126,
      "count" : 1353,
      "type" : "VEC3"
    },
    {
      "bufferView" : 3,
      "componentType" : 5126,
      "count" : 1353,
      "type" : "VEC4"
    },
    {
      "bufferView" : 4,
      "componentType" : 5126,
      "count" : 1353,
      "type" : "VEC2"
    },
    {
      "bufferView" : 5,
      "componentType" : 5126,
      "count" : 1353,
      "type" : "VEC2"
    },
    {
      "bufferView" : 6,
      "componentType" : 5123,
      "count" : 804,
      "type" : "SCALAR"
    },
    {
      "bufferView" : 7,
      "min" : [ -1.36154, -0.40246, -0.669869 ],
      "max" : [ 1.17202, 4.29953, 1.22401 ],
      "componentType" : 5126,
      "count" : 516,
      "type" : "VEC3"
    },
    {
      "bufferView" : 8,
      "componentType" : 5126,
      "count" : 516,
      "type" : "VEC3"
    },
    {
      "bufferView" : 9,
      "componentType" : 5126,
      "count" : 516,
      "type" : "VEC4"
    },
    {
      "bufferView" : 10,
      "componentType" : 5126,
      "count" : 516,
      "type" : "VEC2"
    },
    {
      "bufferView" : 11,
      "componentType" : 5126,
      "count" : 516,
      "type" : "VEC2"
    }
  ]
}
