{
  "asset" : {
    "generator" : "UE Viewer (umodel) build 1579 based",
    "version" : "2.0"
  },
  "scene" : 0,
  "scenes" : [
    {
      "nodes" : [ 0 ]
    }
  ],
  "nodes" : [
    {
      "name" : "S_Envi_FZFBase_Stone_05h",
      "mesh" : 0
    }
  ],
  "materials" : [
    {
      "name" : "MI_Envi_FZFBase_Rock_05c",
      "pbrMetallicRoughness" : {
        "baseColorFactor" : [ 0.3, 0.3, 0.3, 1.0 ],
        "metallicFactor" : 0.1,
        "roughnessFactor" : 0.5
      }
    }
  ],
  "meshes" : [
    {
      "primitives" : [
        {
          "attributes" : {
            "POSITION" : 1,
            "NORMAL" : 2,
            "TANGENT" : 3,
            "TEXCOORD_0" : 4,
            "TEXCOORD_1" : 5
          },
          "indices" : 0,
          "material" : 0
        }
      ],
      "name" : "S_Envi_FZFBase_Stone_05h"
    }
  ],
  "buffers" : [
    {
      "uri" : "S_Envi_FZFBase_Stone_05h.bin",
      "byteLength" : 51112
    }
  ],
  "bufferViews" : [
    {
      "buffer" : 0,
      "byteOffset" : 0,
      "byteLength" : 7152
    },
    {
      "buffer" : 0,
      "byteOffset" : 7152,
      "byteLength" : 9420
    },
    {
      "buffer" : 0,
      "byteOffset" : 16572,
      "byteLength" : 9420
    },
    {
      "buffer" : 0,
      "byteOffset" : 25992,
      "byteLength" : 12560
    },
    {
      "buffer" : 0,
      "byteOffset" : 38552,
      "byteLength" : 6280
    },
    {
      "buffer" : 0,
      "byteOffset" : 44832,
      "byteLength" : 6280
    }
  ],
  "accessors" : [
    {
      "bufferView" : 0,
      "componentType" : 5123,
      "count" : 3576,
      "type" : "SCALAR"
    },
    {
      "bufferView" : 1,
      "min" : [ -4.36061, -0.228213, -2.82055 ],
      "max" : [ 4.59138, 1.9998, 2.56221 ],
      "componentType" : 5126,
      "count" : 785,
      "type" : "VEC3"
    },
    {
      "bufferView" : 2,
      "componentType" : 5126,
      "count" : 785,
      "type" : "VEC3"
    },
    {
      "bufferView" : 3,
      "componentType" : 5126,
      "count" : 785,
      "type" : "VEC4"
    },
    {
      "bufferView" : 4,
      "componentType" : 5126,
      "count" : 785,
      "type" : "VEC2"
    },
    {
      "bufferView" : 5,
      "componentType" : 5126,
      "count" : 785,
      "type" : "VEC2"
    }
  ]
}
