{
  "asset" : {
    "generator" : "UE Viewer (umodel) build 1579 based",
    "version" : "2.0"
  },
  "scene" : 0,
  "scenes" : [
    {
      "nodes" : [ 0 ]
    }
  ],
  "nodes" : [
    {
      "name" : "S_Envi_FZFBase_Stone_02o",
      "mesh" : 0
    }
  ],
  "materials" : [
    {
      "name" : "MI_Envi_FZFBase_Rock_05d",
      "pbrMetallicRoughness" : {
        "baseColorFactor" : [ 0.3, 0.3, 0.3, 1.0 ],
        "metallicFactor" : 0.1,
        "roughnessFactor" : 0.5
      }
    }
  ],
  "meshes" : [
    {
      "primitives" : [
        {
          "attributes" : {
            "POSITION" : 1,
            "NORMAL" : 2,
            "TANGENT" : 3,
            "TEXCOORD_0" : 4,
            "TEXCOORD_1" : 5
          },
          "indices" : 0,
          "material" : 0
        }
      ],
      "name" : "S_Envi_FZFBase_Stone_02o"
    }
  ],
  "buffers" : [
    {
      "uri" : "S_Envi_FZFBase_Stone_02o.bin",
      "byteLength" : 140788
    }
  ],
  "bufferViews" : [
    {
      "buffer" : 0,
      "byteOffset" : 0,
      "byteLength" : 6500
    },
    {
      "buffer" : 0,
      "byteOffset" : 6500,
      "byteLength" : 28776
    },
    {
      "buffer" : 0,
      "byteOffset" : 35276,
      "byteLength" : 28776
    },
    {
      "buffer" : 0,
      "byteOffset" : 64052,
      "byteLength" : 38368
    },
    {
      "buffer" : 0,
      "byteOffset" : 102420,
      "byteLength" : 19184
    },
    {
      "buffer" : 0,
      "byteOffset" : 121604,
      "byteLength" : 19184
    }
  ],
  "accessors" : [
    {
      "bufferView" : 0,
      "componentType" : 5123,
      "count" : 3249,
      "type" : "SCALAR"
    },
    {
      "bufferView" : 1,
      "min" : [ -13.7016, -14.0462, -6.8128 ],
      "max" : [ 4.91545, 1.66158, 4.25069 ],
      "componentType" : 5126,
      "count" : 2398,
      "type" : "VEC3"
    },
    {
      "bufferView" : 2,
      "componentType" : 5126,
      "count" : 2398,
      "type" : "VEC3"
    },
    {
      "bufferView" : 3,
      "componentType" : 5126,
      "count" : 2398,
      "type" : "VEC4"
    },
    {
      "bufferView" : 4,
      "componentType" : 5126,
      "count" : 2398,
      "type" : "VEC2"
    },
    {
      "bufferView" : 5,
      "componentType" : 5126,
      "count" : 2398,
      "type" : "VEC2"
    }
  ]
}
