{
  "asset" : {
    "generator" : "UE Viewer (umodel) build 1579 based",
    "version" : "2.0"
  },
  "scene" : 0,
  "scenes" : [
    {
      "nodes" : [ 0 ]
    }
  ],
  "nodes" : [
    {
      "name" : "S_Envi_FZFBase_Stone_02k",
      "mesh" : 0
    }
  ],
  "materials" : [
    {
      "name" : "MI_Envi_FZFBase_Stone_05a",
      "pbrMetallicRoughness" : {
        "baseColorFactor" : [ 0.3, 0.3, 0.3, 1.0 ],
        "metallicFactor" : 0.1,
        "roughnessFactor" : 0.5
      }
    },
    {
      "name" : "MI_Envi_FZFBase_Stone_02b",
      "pbrMetallicRoughness" : {
        "baseColorFactor" : [ 0.9, 0.3, 0.3, 1.0 ],
        "metallicFactor" : 0.1,
        "roughnessFactor" : 0.5
      }
    }
  ],
  "meshes" : [
    {
      "primitives" : [
        {
          "attributes" : {
            "POSITION" : 1,
            "NORMAL" : 2,
            "TANGENT" : 3,
            "TEXCOORD_0" : 4,
            "TEXCOORD_1" : 5
          },
          "indices" : 0,
          "material" : 0
        },
        {
          "attributes" : {
            "POSITION" : 7,
            "NORMAL" : 8,
            "TANGENT" : 9,
            "TEXCOORD_0" : 10,
            "TEXCOORD_1" : 11
          },
          "indices" : 6,
          "material" : 1
        }
      ],
      "name" : "S_Envi_FZFBase_Stone_02k"
    }
  ],
  "buffers" : [
    {
      "uri" : "S_Envi_FZFBase_Stone_02k.bin",
      "byteLength" : 283960
    }
  ],
  "bufferViews" : [
    {
      "buffer" : 0,
      "byteOffset" : 0,
      "byteLength" : 9240
    },
    {
      "buffer" : 0,
      "byteOffset" : 9240,
      "byteLength" : 25692
    },
    {
      "buffer" : 0,
      "byteOffset" : 34932,
      "byteLength" : 25692
    },
    {
      "buffer" : 0,
      "byteOffset" : 60624,
      "byteLength" : 34256
    },
    {
      "buffer" : 0,
      "byteOffset" : 94880,
      "byteLength" : 17128
    },
    {
      "buffer" : 0,
      "byteOffset" : 112008,
      "byteLength" : 17128
    },
    {
      "buffer" : 0,
      "byteOffset" : 129136,
      "byteLength" : 19080
    },
    {
      "buffer" : 0,
      "byteOffset" : 148216,
      "byteLength" : 29088
    },
    {
      "buffer" : 0,
      "byteOffset" : 177304,
      "byteLength" : 29088
    },
    {
      "buffer" : 0,
      "byteOffset" : 206392,
      "byteLength" : 38784
    },
    {
      "buffer" : 0,
      "byteOffset" : 245176,
      "byteLength" : 19392
    },
    {
      "buffer" : 0,
      "byteOffset" : 264568,
      "byteLength" : 19392
    }
  ],
  "accessors" : [
    {
      "bufferView" : 0,
      "componentType" : 5123,
      "count" : 4620,
      "type" : "SCALAR"
    },
    {
      "bufferView" : 1,
      "min" : [ -0.945338, -0.370552, -2.11053 ],
      "max" : [ 3.13701, 1.92132, 1.89172 ],
      "componentType" : 5126,
      "count" : 2141,
      "type" : "VEC3"
    },
    {
      "bufferView" : 2,
      "componentType" : 5126,
      "count" : 2141,
      "type" : "VEC3"
    },
    {
      "bufferView" : 3,
      "componentType" : 5126,
      "count" : 2141,
      "type" : "VEC4"
    },
    {
      "bufferView" : 4,
      "componentType" : 5126,
      "count" : 2141,
      "type" : "VEC2"
    },
    {
      "bufferView" : 5,
      "componentType" : 5126,
      "count" : 2141,
      "type" : "VEC2"
    },
    {
      "bufferView" : 6,
      "componentType" : 5123,
      "count" : 9540,
      "type" : "SCALAR"
    },
    {
      "bufferView" : 7,
      "min" : [ -3.18198, -0.238852, -2.05749 ],
      "max" : [ 3.00152, 1.81473, 1.91708 ],
      "componentType" : 5126,
      "count" : 2424,
      "type" : "VEC3"
    },
    {
      "bufferView" : 8,
      "componentType" : 5126,
      "count" : 2424,
      "type" : "VEC3"
    },
    {
      "bufferView" : 9,
      "componentType" : 5126,
      "count" : 2424,
      "type" : "VEC4"
    },
    {
      "bufferView" : 10,
      "componentType" : 5126,
      "count" : 2424,
      "type" : "VEC2"
    },
    {
      "bufferView" : 11,
      "componentType" : 5126,
      "count" : 2424,
      "type" : "VEC2"
    }
  ]
}
