{
  "asset" : {
    "generator" : "UE Viewer (umodel) build 1579 based",
    "version" : "2.0"
  },
  "scene" : 0,
  "scenes" : [
    {
      "nodes" : [ 0 ]
    }
  ],
  "nodes" : [
    {
      "name" : "S_Envi_FZFBase_Stone_06c",
      "mesh" : 0
    }
  ],
  "materials" : [
    {
      "name" : "MI_Envi_FZFBase_Rock_05b",
      "pbrMetallicRoughness" : {
        "baseColorFactor" : [ 0.3, 0.3, 0.3, 1.0 ],
        "metallicFactor" : 0.1,
        "roughnessFactor" : 0.5
      }
    },
    {
      "name" : "MI_Envi_FZFBase_Rock_05c",
      "pbrMetallicRoughness" : {
        "baseColorFactor" : [ 0.9, 0.3, 0.3, 1.0 ],
        "metallicFactor" : 0.1,
        "roughnessFactor" : 0.5
      }
    },
    {
      "name" : "MI_Envi_FZFBase_Rock_05a",
      "pbrMetallicRoughness" : {
        "baseColorFactor" : [ 0.3, 0.9, 0.3, 1.0 ],
        "metallicFactor" : 0.1,
        "roughnessFactor" : 0.5
      }
    }
  ],
  "meshes" : [
    {
      "primitives" : [
        {
          "attributes" : {
            "POSITION" : 1,
            "NORMAL" : 2,
            "TANGENT" : 3,
            "TEXCOORD_0" : 4,
            "TEXCOORD_1" : 5
          },
          "indices" : 0,
          "material" : 0
        },
        {
          "attributes" : {
            "POSITION" : 7,
            "NORMAL" : 8,
            "TANGENT" : 9,
            "TEXCOORD_0" : 10,
            "TEXCOORD_1" : 11
          },
          "indices" : 6,
          "material" : 1
        },
        {
          "attributes" : {
            "POSITION" : 13,
            "NORMAL" : 14,
            "TANGENT" : 15,
            "TEXCOORD_0" : 16,
            "TEXCOORD_1" : 17
          },
          "indices" : 12,
          "material" : 2
        }
      ],
      "name" : "S_Envi_FZFBase_Stone_06c"
    }
  ],
  "buffers" : [
    {
      "uri" : "S_Envi_FZFBase_Stone_06c.bin",
      "byteLength" : 1516624
    }
  ],
  "bufferViews" : [
    {
      "buffer" : 0,
      "byteOffset" : 0,
      "byteLength" : 55776
    },
    {
      "buffer" : 0,
      "byteOffset" : 55776,
      "byteLength" : 70980
    },
    {
      "buffer" : 0,
      "byteOffset" : 126756,
      "byteLength" : 70980
    },
    {
      "buffer" : 0,
      "byteOffset" : 197736,
      "byteLength" : 94640
    },
    {
      "buffer" : 0,
      "byteOffset" : 292376,
      "byteLength" : 47320
    },
    {
      "buffer" : 0,
      "byteOffset" : 339696,
      "byteLength" : 47320
    },
    {
      "buffer" : 0,
      "byteOffset" : 387016,
      "byteLength" : 129360
    },
    {
      "buffer" : 0,
      "byteOffset" : 516376,
      "byteLength" : 172284
    },
    {
      "buffer" : 0,
      "byteOffset" : 688660,
      "byteLength" : 172284
    },
    {
      "buffer" : 0,
      "byteOffset" : 860944,
      "byteLength" : 229712
    },
    {
      "buffer" : 0,
      "byteOffset" : 1090656,
      "byteLength" : 114856
    },
    {
      "buffer" : 0,
      "byteOffset" : 1205512,
      "byteLength" : 114856
    },
    {
      "buffer" : 0,
      "byteOffset" : 1320368,
      "byteLength" : 27192
    },
    {
      "buffer" : 0,
      "byteOffset" : 1347560,
      "byteLength" : 36228
    },
    {
      "buffer" : 0,
      "byteOffset" : 1383788,
      "byteLength" : 36228
    },
    {
      "buffer" : 0,
      "byteOffset" : 1420016,
      "byteLength" : 48304
    },
    {
      "buffer" : 0,
      "byteOffset" : 1468320,
      "byteLength" : 24152
    },
    {
      "buffer" : 0,
      "byteOffset" : 1492472,
      "byteLength" : 24152
    }
  ],
  "accessors" : [
    {
      "bufferView" : 0,
      "componentType" : 5123,
      "count" : 27888,
      "type" : "SCALAR"
    },
    {
      "bufferView" : 1,
      "min" : [ -13.9018, -7.31169, -18.5519 ],
      "max" : [ 10.326, 5.70975, 6.40474 ],
      "componentType" : 5126,
      "count" : 5915,
      "type" : "VEC3"
    },
    {
      "bufferView" : 2,
      "componentType" : 5126,
      "count" : 5915,
      "type" : "VEC3"
    },
    {
      "bufferView" : 3,
      "componentType" : 5126,
      "count" : 5915,
      "type" : "VEC4"
    },
    {
      "bufferView" : 4,
      "componentType" : 5126,
      "count" : 5915,
      "type" : "VEC2"
    },
    {
      "bufferView" : 5,
      "componentType" : 5126,
      "count" : 5915,
      "type" : "VEC2"
    },
    {
      "bufferView" : 6,
      "componentType" : 5123,
      "count" : 64680,
      "type" : "SCALAR"
    },
    {
      "bufferView" : 7,
      "min" : [ -19.9335, -3.57993, -16.7156 ],
      "max" : [ 23.6026, 5.336, 8.44484 ],
      "componentType" : 5126,
      "count" : 14357,
      "type" : "VEC3"
    },
    {
      "bufferView" : 8,
      "componentType" : 5126,
      "count" : 14357,
      "type" : "VEC3"
    },
    {
      "bufferView" : 9,
      "componentType" : 5126,
      "count" : 14357,
      "type" : "VEC4"
    },
    {
      "bufferView" : 10,
      "componentType" : 5126,
      "count" : 14357,
      "type" : "VEC2"
    },
    {
      "bufferView" : 11,
      "componentType" : 5126,
      "count" : 14357,
      "type" : "VEC2"
    },
    {
      "bufferView" : 12,
      "componentType" : 5123,
      "count" : 13596,
      "type" : "SCALAR"
    },
    {
      "bufferView" : 13,
      "min" : [ -17.1169, -6.22105, -18.0524 ],
      "max" : [ 13.315, 5.22383, -1.67488 ],
      "componentType" : 5126,
      "count" : 3019,
      "type" : "VEC3"
    },
    {
      "bufferView" : 14,
      "componentType" : 5126,
      "count" : 3019,
      "type" : "VEC3"
    },
    {
      "bufferView" : 15,
      "componentType" : 5126,
      "count" : 3019,
      "type" : "VEC4"
    },
    {
      "bufferView" : 16,
      "componentType" : 5126,
      "count" : 3019,
      "type" : "VEC2"
    },
    {
      "bufferView" : 17,
      "componentType" : 5126,
      "count" : 3019,
      "type" : "VEC2"
    }
  ]
}
