{
  "asset" : {
    "generator" : "UE Viewer (umodel) build 1579 based",
    "version" : "2.0"
  },
  "scene" : 0,
  "scenes" : [
    {
      "nodes" : [ 0 ]
    }
  ],
  "nodes" : [
    {
      "name" : "S_Envi_FZFBase_Stone_02j",
      "mesh" : 0
    }
  ],
  "materials" : [
    {
      "name" : "MI_Envi_FZFBase_Stone_02a",
      "pbrMetallicRoughness" : {
        "baseColorFactor" : [ 0.3, 0.3, 0.3, 1.0 ],
        "metallicFactor" : 0.1,
        "roughnessFactor" : 0.5
      }
    },
    {
      "name" : "MI_Envi_FZFBase_Stone_05a",
      "pbrMetallicRoughness" : {
        "baseColorFactor" : [ 0.9, 0.3, 0.3, 1.0 ],
        "metallicFactor" : 0.1,
        "roughnessFactor" : 0.5
      }
    }
  ],
  "meshes" : [
    {
      "primitives" : [
        {
          "attributes" : {
            "POSITION" : 1,
            "NORMAL" : 2,
            "TANGENT" : 3,
            "TEXCOORD_0" : 4,
            "TEXCOORD_1" : 5
          },
          "indices" : 0,
          "material" : 0
        },
        {
          "attributes" : {
            "POSITION" : 7,
            "NORMAL" : 8,
            "TANGENT" : 9,
            "TEXCOORD_0" : 10,
            "TEXCOORD_1" : 11
          },
          "indices" : 6,
          "material" : 1
        }
      ],
      "name" : "S_Envi_FZFBase_Stone_02j"
    }
  ],
  "buffers" : [
    {
      "uri" : "S_Envi_FZFBase_Stone_02j.bin",
      "byteLength" : 191444
    }
  ],
  "bufferViews" : [
    {
      "buffer" : 0,
      "byteOffset" : 0,
      "byteLength" : 20532
    },
    {
      "buffer" : 0,
      "byteOffset" : 20532,
      "byteLength" : 23808
    },
    {
      "buffer" : 0,
      "byteOffset" : 44340,
      "byteLength" : 23808
    },
    {
      "buffer" : 0,
      "byteOffset" : 68148,
      "byteLength" : 31744
    },
    {
      "buffer" : 0,
      "byteOffset" : 99892,
      "byteLength" : 15872
    },
    {
      "buffer" : 0,
      "byteOffset" : 115764,
      "byteLength" : 15872
    },
    {
      "buffer" : 0,
      "byteOffset" : 131636,
      "byteLength" : 4368
    },
    {
      "buffer" : 0,
      "byteOffset" : 136004,
      "byteLength" : 11880
    },
    {
      "buffer" : 0,
      "byteOffset" : 147884,
      "byteLength" : 11880
    },
    {
      "buffer" : 0,
      "byteOffset" : 159764,
      "byteLength" : 15840
    },
    {
      "buffer" : 0,
      "byteOffset" : 175604,
      "byteLength" : 7920
    },
    {
      "buffer" : 0,
      "byteOffset" : 183524,
      "byteLength" : 7920
    }
  ],
  "accessors" : [
    {
      "bufferView" : 0,
      "componentType" : 5123,
      "count" : 10266,
      "type" : "SCALAR"
    },
    {
      "bufferView" : 1,
      "min" : [ -2.27472, -0.518469, -1.89225 ],
      "max" : [ 2.0394, 3.46077, 1.99234 ],
      "componentType" : 5126,
      "count" : 1984,
      "type" : "VEC3"
    },
    {
      "bufferView" : 2,
      "componentType" : 5126,
      "count" : 1984,
      "type" : "VEC3"
    },
    {
      "bufferView" : 3,
      "componentType" : 5126,
      "count" : 1984,
      "type" : "VEC4"
    },
    {
      "bufferView" : 4,
      "componentType" : 5126,
      "count" : 1984,
      "type" : "VEC2"
    },
    {
      "bufferView" : 5,
      "componentType" : 5126,
      "count" : 1984,
      "type" : "VEC2"
    },
    {
      "bufferView" : 6,
      "componentType" : 5123,
      "count" : 2184,
      "type" : "SCALAR"
    },
    {
      "bufferView" : 7,
      "min" : [ -2.4298, -0.640544, -1.77444 ],
      "max" : [ 1.16462, 3.75543, 2.0356 ],
      "componentType" : 5126,
      "count" : 990,
      "type" : "VEC3"
    },
    {
      "bufferView" : 8,
      "componentType" : 5126,
      "count" : 990,
      "type" : "VEC3"
    },
    {
      "bufferView" : 9,
      "componentType" : 5126,
      "count" : 990,
      "type" : "VEC4"
    },
    {
      "bufferView" : 10,
      "componentType" : 5126,
      "count" : 990,
      "type" : "VEC2"
    },
    {
      "bufferView" : 11,
      "componentType" : 5126,
      "count" : 990,
      "type" : "VEC2"
    }
  ]
}
