{
  "asset" : {
    "generator" : "UE Viewer (umodel) build 1579 based",
    "version" : "2.0"
  },
  "scene" : 0,
  "scenes" : [
    {
      "nodes" : [ 0 ]
    }
  ],
  "nodes" : [
    {
      "name" : "SK_Weap_FlameGun",
      "mesh" : 0,
      "skin" : 0,
      "children" : [ 1 ]
    },
    {
      "name" : "Root",
      "children" : [ 2, 3 ],
      "translation" : [ 0, 0, 0 ],
      "rotation" : [ -0, -0, -0, 1 ]
    },
    {
      "name" : "Muzzle",
      "translation" : [ 0, 0.0484245, 0.25562 ],
      "rotation" : [ -2.16489e-17, 0.707107, 2.16489e-17, -0.707107 ]
    },
    {
      "name" : "Magazine_Socket",
      "translation" : [ -2.25342e-09, -0.10965, 0.143898 ],
      "rotation" : [ -0.619695, 0.619694, -0.340557, -0.340556 ]
    }
  ],
  "skins" : [
    {
      "inverseBindMatrices" : 0,
      "skeleton" : 1,
      "joints" : [
        1,2,3
      ]
    }
  ],
  "materials" : [
    {
      "name" : "MI_Weap_FlameGun",
      "pbrMetallicRoughness" : {
        "baseColorFactor" : [ 0.3, 0.3, 0.3, 1.0 ],
        "metallicFactor" : 0.1,
        "roughnessFactor" : 0.5
      }
    },
    {
      "name" : "MI_Weap_FlameGun_Boli",
      "pbrMetallicRoughness" : {
        "baseColorFactor" : [ 0.9, 0.3, 0.3, 1.0 ],
        "metallicFactor" : 0.1,
        "roughnessFactor" : 0.5
      }
    }
  ],
  "meshes" : [
    {
      "primitives" : [
        {
          "attributes" : {
            "POSITION" : 2,
            "NORMAL" : 3,
            "TANGENT" : 4,
            "JOINTS_0" : 5,
            "WEIGHTS_0" : 6,
            "TEXCOORD_0" : 7
          },
          "indices" : 1,
          "material" : 0
        },
        {
          "attributes" : {
            "POSITION" : 9,
            "NORMAL" : 10,
            "TANGENT" : 11,
            "JOINTS_0" : 12,
            "WEIGHTS_0" : 13,
            "TEXCOORD_0" : 14
          },
          "indices" : 8,
          "material" : 1
        }
      ],
      "name" : "SK_Weap_FlameGun"
    }
  ],
  "buffers" : [
    {
      "uri" : "SK_Weap_FlameGun.bin",
      "byteLength" : 297200
    }
  ],
  "bufferViews" : [
    {
      "buffer" : 0,
      "byteOffset" : 0,
      "byteLength" : 192
    },
    {
      "buffer" : 0,
      "byteOffset" : 192,
      "byteLength" : 27176
    },
    {
      "buffer" : 0,
      "byteOffset" : 27368,
      "byteLength" : 53520
    },
    {
      "buffer" : 0,
      "byteOffset" : 80888,
      "byteLength" : 53520
    },
    {
      "buffer" : 0,
      "byteOffset" : 134408,
      "byteLength" : 71360
    },
    {
      "buffer" : 0,
      "byteOffset" : 205768,
      "byteLength" : 35680
    },
    {
      "buffer" : 0,
      "byteOffset" : 241448,
      "byteLength" : 17840
    },
    {
      "buffer" : 0,
      "byteOffset" : 259288,
      "byteLength" : 35680
    },
    {
      "buffer" : 0,
      "byteOffset" : 294968,
      "byteLength" : 192
    },
    {
      "buffer" : 0,
      "byteOffset" : 295160,
      "byteLength" : 408
    },
    {
      "buffer" : 0,
      "byteOffset" : 295568,
      "byteLength" : 408
    },
    {
      "buffer" : 0,
      "byteOffset" : 295976,
      "byteLength" : 544
    },
    {
      "buffer" : 0,
      "byteOffset" : 296520,
      "byteLength" : 272
    },
    {
      "buffer" : 0,
      "byteOffset" : 296792,
      "byteLength" : 136
    },
    {
      "buffer" : 0,
      "byteOffset" : 296928,
      "byteLength" : 272
    }
  ],
  "accessors" : [
    {
      "bufferView" : 0,
      "componentType" : 5126,
      "count" : 3,
      "type" : "MAT4"
    },
    {
      "bufferView" : 1,
      "componentType" : 5123,
      "count" : 13587,
      "type" : "SCALAR"
    },
    {
      "bufferView" : 2,
      "min" : [ -0.0403785, -0.184376, -0.0662485 ],
      "max" : [ 0.0403738, 0.103357, 0.259576 ],
      "componentType" : 5126,
      "count" : 4460,
      "type" : "VEC3"
    },
    {
      "bufferView" : 3,
      "componentType" : 5126,
      "count" : 4460,
      "type" : "VEC3"
    },
    {
      "bufferView" : 4,
      "componentType" : 5126,
      "count" : 4460,
      "type" : "VEC4"
    },
    {
      "bufferView" : 5,
      "componentType" : 5123,
      "count" : 4460,
      "type" : "VEC4"
    },
    {
      "bufferView" : 6,
      "normalized" : true,
      "componentType" : 5121,
      "count" : 4460,
      "type" : "VEC4"
    },
    {
      "bufferView" : 7,
      "componentType" : 5126,
      "count" : 4460,
      "type" : "VEC2"
    },
    {
      "bufferView" : 8,
      "componentType" : 5123,
      "count" : 96,
      "type" : "SCALAR"
    },
    {
      "bufferView" : 9,
      "min" : [ -0.0364329, -0.179718, 0.0824633 ],
      "max" : [ 0.0363064, -0.0782915, 0.1835 ],
      "componentType" : 5126,
      "count" : 34,
      "type" : "VEC3"
    },
    {
      "bufferView" : 10,
      "componentType" : 5126,
      "count" : 34,
      "type" : "VEC3"
    },
    {
      "bufferView" : 11,
      "componentType" : 5126,
      "count" : 34,
      "type" : "VEC4"
    },
    {
      "bufferView" : 12,
      "componentType" : 5123,
      "count" : 34,
      "type" : "VEC4"
    },
    {
      "bufferView" : 13,
      "normalized" : true,
      "componentType" : 5121,
      "count" : 34,
      "type" : "VEC4"
    },
    {
      "bufferView" : 14,
      "componentType" : 5126,
      "count" : 34,
      "type" : "VEC2"
    }
  ]
}
