{
  "asset" : {
    "generator" : "UE Viewer (umodel) build 1579 based",
    "version" : "2.0"
  },
  "scene" : 0,
  "scenes" : [
    {
      "nodes" : [ 0 ]
    }
  ],
  "nodes" : [
    {
      "name" : "JQ_BBLCrystal_Mesh",
      "mesh" : 0
    }
  ],
  "materials" : [
    {
      "name" : "MI_JQ_BBLCrystal_02",
      "pbrMetallicRoughness" : {
        "baseColorFactor" : [ 0.3, 0.3, 0.3, 1.0 ],
        "metallicFactor" : 0.1,
        "roughnessFactor" : 0.5
      }
    },
    {
      "name" : "MI_JQ_BBLCrystal_02",
      "pbrMetallicRoughness" : {
        "baseColorFactor" : [ 0.9, 0.3, 0.3, 1.0 ],
        "metallicFactor" : 0.1,
        "roughnessFactor" : 0.5
      }
    }
  ],
  "meshes" : [
    {
      "primitives" : [
        {
          "attributes" : {
            "POSITION" : 1,
            "NORMAL" : 2,
            "TANGENT" : 3,
            "TEXCOORD_0" : 4
          },
          "indices" : 0,
          "material" : 0
        },
        {
          "attributes" : {
            "POSITION" : 6,
            "NORMAL" : 7,
            "TANGENT" : 8,
            "TEXCOORD_0" : 9
          },
          "indices" : 5,
          "material" : 1
        }
      ],
      "name" : "JQ_BBLCrystal_Mesh"
    }
  ],
  "buffers" : [
    {
      "uri" : "JQ_BBLCrystal_Mesh.bin",
      "byteLength" : 162444
    }
  ],
  "bufferViews" : [
    {
      "buffer" : 0,
      "byteOffset" : 0,
      "byteLength" : 10932
    },
    {
      "buffer" : 0,
      "byteOffset" : 10932,
      "byteLength" : 36324
    },
    {
      "buffer" : 0,
      "byteOffset" : 47256,
      "byteLength" : 36324
    },
    {
      "buffer" : 0,
      "byteOffset" : 83580,
      "byteLength" : 48432
    },
    {
      "buffer" : 0,
      "byteOffset" : 132012,
      "byteLength" : 24216
    },
    {
      "buffer" : 0,
      "byteOffset" : 156228,
      "byteLength" : 456
    },
    {
      "buffer" : 0,
      "byteOffset" : 156684,
      "byteLength" : 1440
    },
    {
      "buffer" : 0,
      "byteOffset" : 158124,
      "byteLength" : 1440
    },
    {
      "buffer" : 0,
      "byteOffset" : 159564,
      "byteLength" : 1920
    },
    {
      "buffer" : 0,
      "byteOffset" : 161484,
      "byteLength" : 960
    }
  ],
  "accessors" : [
    {
      "bufferView" : 0,
      "componentType" : 5123,
      "count" : 5466,
      "type" : "SCALAR"
    },
    {
      "bufferView" : 1,
      "min" : [ -0.067069, 0.000108, -0.101398 ],
      "max" : [ 0.078846, 0.296933, 0.100841 ],
      "componentType" : 5126,
      "count" : 3027,
      "type" : "VEC3"
    },
    {
      "bufferView" : 2,
      "componentType" : 5126,
      "count" : 3027,
      "type" : "VEC3"
    },
    {
      "bufferView" : 3,
      "componentType" : 5126,
      "count" : 3027,
      "type" : "VEC4"
    },
    {
      "bufferView" : 4,
      "componentType" : 5126,
      "count" : 3027,
      "type" : "VEC2"
    },
    {
      "bufferView" : 5,
      "componentType" : 5123,
      "count" : 228,
      "type" : "SCALAR"
    },
    {
      "bufferView" : 6,
      "min" : [ -0.047688, 0.006393, -0.092168 ],
      "max" : [ 0.065313, 0.28521, 0.083037 ],
      "componentType" : 5126,
      "count" : 120,
      "type" : "VEC3"
    },
    {
      "bufferView" : 7,
      "componentType" : 5126,
      "count" : 120,
      "type" : "VEC3"
    },
    {
      "bufferView" : 8,
      "componentType" : 5126,
      "count" : 120,
      "type" : "VEC4"
    },
    {
      "bufferView" : 9,
      "componentType" : 5126,
      "count" : 120,
      "type" : "VEC2"
    }
  ]
}
