{
  "asset" : {
    "generator" : "UE Viewer (umodel) build 1579 based",
    "version" : "2.0"
  },
  "scene" : 0,
  "scenes" : [
    {
      "nodes" : [ 0 ]
    }
  ],
  "nodes" : [
    {
      "name" : "SK_Weap_M4A1",
      "mesh" : 0,
      "skin" : 0,
      "children" : [ 1 ]
    },
    {
      "name" : "Root",
      "children" : [ 2, 3, 4, 5, 6, 7, 8, 9, 10 ],
      "translation" : [ 0, 0, 0 ],
      "rotation" : [ 2.61806e-06, 4.99355e-12, 1.90735e-06, 1 ]
    },
    {
      "name" : "Muzzle",
      "translation" : [ -8.46129e-08, 0.0718891, 0.605834 ],
      "rotation" : [ 1.64628e-09, 0.707107, 3.35528e-07, -0.707107 ]
    },
    {
      "name" : "Suppressor",
      "translation" : [ -8.20616e-08, 0.0718888, 0.54747 ],
      "rotation" : [ 1.19209e-06, -2.31123e-09, 4.96768e-06, -1 ]
    },
    {
      "name" : "Sight",
      "translation" : [ -1.2952e-08, 0.117832, 0.126117 ],
      "rotation" : [ -3.06164e-17, 1.16791e-22, -3.57572e-39, -1 ]
    },
    {
      "name" : "ShellDrop",
      "translation" : [ -0.0160138, 0.0665766, 0.128256 ],
      "rotation" : [ 3.61904e-13, -1, -4.76837e-07, -7.58967e-07 ]
    },
    {
      "name" : "ButtStock",
      "translation" : [ -1.2952e-08, 0.0525837, -0.102942 ],
      "rotation" : [ 2.86102e-06, -5.45697e-12, 1.90735e-06, -1 ]
    },
    {
      "name" : "Magazine",
      "translation" : [ 8.39232e-09, -0.0313878, 0.13714 ],
      "rotation" : [ 2.86102e-06, -5.45697e-12, 1.90735e-06, -1 ]
    },
    {
      "name" : "Throw",
      "translation" : [ -0.0160138, 0.0665766, 0.128256 ],
      "rotation" : [ -4.54571e-09, 5.58801e-09, 1.49009e-08, -1 ]
    },
    {
      "name" : "Foregrip",
      "translation" : [ -1.43839e-08, 2.96548e-08, 0.274452 ],
      "rotation" : [ 2.86102e-06, -5.45697e-12, 1.90735e-06, -1 ]
    },
    {
      "name" : "Pull",
      "translation" : [ -1.2992e-08, 0.0788322, 0.0202362 ],
      "rotation" : [ -6.93308e-09, -4.8872e-22, 3.38833e-30, -1 ]
    }
  ],
  "skins" : [
    {
      "inverseBindMatrices" : 0,
      "skeleton" : 1,
      "joints" : [
        1,2,3,4,5,6,7,8,9,10
      ]
    }
  ],
  "materials" : [
    {
      "name" : "MI_Weap_M4A1",
      "pbrMetallicRoughness" : {
        "baseColorFactor" : [ 0.3, 0.3, 0.3, 1.0 ],
        "metallicFactor" : 0.1,
        "roughnessFactor" : 0.5
      }
    }
  ],
  "meshes" : [
    {
      "primitives" : [
        {
          "attributes" : {
            "POSITION" : 2,
            "NORMAL" : 3,
            "TANGENT" : 4,
            "JOINTS_0" : 5,
            "WEIGHTS_0" : 6,
            "TEXCOORD_0" : 7
          },
          "indices" : 1,
          "material" : 0
        }
      ],
      "name" : "SK_Weap_M4A1"
    }
  ],
  "buffers" : [
    {
      "uri" : "SK_Weap_M4A1.bin",
      "byteLength" : 421576
    }
  ],
  "bufferViews" : [
    {
      "buffer" : 0,
      "byteOffset" : 0,
      "byteLength" : 640
    },
    {
      "buffer" : 0,
      "byteOffset" : 640,
      "byteLength" : 36156
    },
    {
      "buffer" : 0,
      "byteOffset" : 36796,
      "byteLength" : 76956
    },
    {
      "buffer" : 0,
      "byteOffset" : 113752,
      "byteLength" : 76956
    },
    {
      "buffer" : 0,
      "byteOffset" : 190708,
      "byteLength" : 102608
    },
    {
      "buffer" : 0,
      "byteOffset" : 293316,
      "byteLength" : 51304
    },
    {
      "buffer" : 0,
      "byteOffset" : 344620,
      "byteLength" : 25652
    },
    {
      "buffer" : 0,
      "byteOffset" : 370272,
      "byteLength" : 51304
    }
  ],
  "accessors" : [
    {
      "bufferView" : 0,
      "componentType" : 5126,
      "count" : 10,
      "type" : "MAT4"
    },
    {
      "bufferView" : 1,
      "componentType" : 5123,
      "count" : 18078,
      "type" : "SCALAR"
    },
    {
      "bufferView" : 2,
      "min" : [ -0.0301451, -0.0996605, -0.193388 ],
      "max" : [ 0.0227655, 0.119431, 0.606027 ],
      "componentType" : 5126,
      "count" : 6413,
      "type" : "VEC3"
    },
    {
      "bufferView" : 3,
      "componentType" : 5126,
      "count" : 6413,
      "type" : "VEC3"
    },
    {
      "bufferView" : 4,
      "componentType" : 5126,
      "count" : 6413,
      "type" : "VEC4"
    },
    {
      "bufferView" : 5,
      "componentType" : 5123,
      "count" : 6413,
      "type" : "VEC4"
    },
    {
      "bufferView" : 6,
      "normalized" : true,
      "componentType" : 5121,
      "count" : 6413,
      "type" : "VEC4"
    },
    {
      "bufferView" : 7,
      "componentType" : 5126,
      "count" : 6413,
      "type" : "VEC2"
    }
  ]
}
