{
  "asset" : {
    "generator" : "UE Viewer (umodel) build 1579 based",
    "version" : "2.0"
  },
  "scene" : 0,
  "scenes" : [
    {
      "nodes" : [ 0 ]
    }
  ],
  "nodes" : [
    {
      "name" : "SK_Envi_Train_AI_01a",
      "mesh" : 0,
      "skin" : 0,
      "children" : [ 1 ]
    },
    {
      "name" : "root",
      "children" : [ 2, 71, 74 ],
      "translation" : [ 0, 0, 0 ],
      "rotation" : [ -0, -0, -0, 1 ]
    },
    {
      "name" : "Bip001",
      "children" : [ 3 ],
      "translation" : [ 0, 1.00433, 0.0336379 ],
      "rotation" : [ -0, 0.707106, -0, -0.707107 ]
    },
    {
      "name" : "Bip001-Pelvis",
      "children" : [ 4, 61, 66 ],
      "translation" : [ 0, 0, -0 ],
      "rotation" : [ 0.5, 0.499999, -0.5, -0.500001 ]
    },
    {
      "name" : "Bip001-Spine",
      "children" : [ 5 ],
      "translation" : [ 0.0728006, -1.50019e-07, -0.0153353 ],
      "rotation" : [ 2.05868e-06, -0.0297158, 6.72489e-07, -0.999558 ]
    },
    {
      "name" : "Bip001-Spine1",
      "children" : [ 6 ],
      "translation" : [ 0.130743, -3.57859e-10, 0.000129025 ],
      "rotation" : [ -6.32099e-14, 0.0320063, 8.87726e-08, -0.999488 ]
    },
    {
      "name" : "Bip001-Spine2",
      "children" : [ 7, 10, 36 ],
      "translation" : [ 0.162341, -3.78047e-10, 0.000136298 ],
      "rotation" : [ 2.26019e-13, 0.0610826, 1.69419e-07, -0.998133 ]
    },
    {
      "name" : "Bip001-Neck",
      "children" : [ 8 ],
      "translation" : [ 0.184056, -1.4949e-08, 0.0197802 ],
      "rotation" : [ 1.57309e-13, -0.135896, -3.76922e-07, -0.990723 ]
    },
    {
      "name" : "Bip001-Head",
      "children" : [ 9 ],
      "translation" : [ 0.0520594, -1.38584e-14, 5.94357e-09 ],
      "rotation" : [ -1.64865e-13, 0.0222144, 6.16119e-08, -0.999753 ]
    },
    {
      "name" : "Bip001-HeadNub",
      "translation" : [ 0.198044, 1.10149e-06, -1.08851e-06 ],
      "rotation" : [ 7.01758e-08, -6.88499e-07, -6.89842e-07, -1 ]
    },
    {
      "name" : "Bip001-L-Clavicle",
      "children" : [ 11 ],
      "translation" : [ 0.107834, 0.0630341, 0.0487779 ],
      "rotation" : [ -0.628917, -0.77601, 0.0367862, -0.0303242 ]
    },
    {
      "name" : "Bip001-L-UpperArm",
      "children" : [ 12 ],
      "translation" : [ 0.111046, 2.77602e-08, 5.83474e-10 ],
      "rotation" : [ -0.0837973, -0.0917784, 0.0789767, -0.989099 ]
    },
    {
      "name" : "Bip001-L-Forearm",
      "children" : [ 13, 35 ],
      "translation" : [ 0.192545, 3.3038e-08, -2.8573e-09 ],
      "rotation" : [ 5.97738e-09, 0.0664834, -3.28176e-09, -0.997788 ]
    },
    {
      "name" : "Bip001-L-Hand",
      "children" : [ 14, 18, 22, 26, 30, 34 ],
      "translation" : [ 0.262339, -1.13541e-07, 3.55399e-09 ],
      "rotation" : [ 0.706825, -0.0397768, 0.000878872, -0.706269 ]
    },
    {
      "name" : "Bip001-L-Finger0",
      "children" : [ 15 ],
      "translation" : [ 0.0471838, -0.0336962, -0.0114286 ],
      "rotation" : [ -0.843963, 0.225531, 0.313913, -0.371916 ]
    },
    {
      "name" : "Bip001-L-Finger01",
      "children" : [ 16 ],
      "translation" : [ 0.0327107, -1.61006e-08, 1.05597e-08 ],
      "rotation" : [ -6.38095e-09, -0.0322797, -4.8868e-09, -0.999479 ]
    },
    {
      "name" : "Bip001-L-Finger02",
      "children" : [ 17 ],
      "translation" : [ 0.0211923, 3.32042e-08, -8.6126e-09 ],
      "rotation" : [ -1.02145e-08, -0.00304013, -4.59684e-09, -0.999995 ]
    },
    {
      "name" : "Bip001-L-Finger0Nub",
      "translation" : [ 0.0338853, -6.71588e-07, 1.79663e-07 ],
      "rotation" : [ -3.73361e-08, 3.22597e-07, 8.86849e-07, -1 ]
    },
    {
      "name" : "Bip001-L-Finger1",
      "children" : [ 19 ],
      "translation" : [ 0.103837, -0.0291866, 0.00104593 ],
      "rotation" : [ 0.00475249, 0.0189835, 0.0716028, -0.997241 ]
    },
    {
      "name" : "Bip001-L-Finger11",
      "children" : [ 20 ],
      "translation" : [ 0.0393565, -4.0131e-09, -1.69787e-08 ],
      "rotation" : [ 7.39993e-10, 0.0253631, -1.96467e-09, -0.999678 ]
    },
    {
      "name" : "Bip001-L-Finger12",
      "children" : [ 21 ],
      "translation" : [ 0.0281723, -6.45479e-10, 6.31231e-08 ],
      "rotation" : [ -1.12232e-09, 0.00996423, 3.22371e-09, -0.99995 ]
    },
    {
      "name" : "Bip001-L-Finger1Nub",
      "translation" : [ 0.0345921, -2.10735e-07, -9.83013e-07 ],
      "rotation" : [ -5.60715e-07, -8.15994e-07, -1.86609e-07, -1 ]
    },
    {
      "name" : "Bip001-L-Finger2",
      "children" : [ 23 ],
      "translation" : [ 0.104723, -0.00763444, 0.00260818 ],
      "rotation" : [ 0.000206438, 0.0486688, 0.00826584, -0.998781 ]
    },
    {
      "name" : "Bip001-L-Finger21",
      "children" : [ 24 ],
      "translation" : [ 0.040501, -1.29186e-09, 4.4914e-09 ],
      "rotation" : [ -6.31058e-10, -0.0235178, 3.18119e-09, -0.999723 ]
    },
    {
      "name" : "Bip001-L-Finger22",
      "children" : [ 25 ],
      "translation" : [ 0.0295816, 4.70236e-09, 6.18565e-09 ],
      "rotation" : [ 9.42636e-10, 0.0263525, -3.64707e-09, -0.999653 ]
    },
    {
      "name" : "Bip001-L-Finger2Nub",
      "translation" : [ 0.0369533, -3.19296e-07, -9.43933e-07 ],
      "rotation" : [ -6.49338e-07, -7.08898e-07, -1.7544e-07, -1 ]
    },
    {
      "name" : "Bip001-L-Finger3",
      "children" : [ 27 ],
      "translation" : [ 0.105425, 0.0143853, -0.00083503 ],
      "rotation" : [ 0.0435178, 0.059217, -0.0163612, -0.997162 ]
    },
    {
      "name" : "Bip001-L-Finger31",
      "children" : [ 28 ],
      "translation" : [ 0.0392455, 4.53831e-10, -3.01728e-08 ],
      "rotation" : [ -2.22937e-10, -0.0432455, 6.95186e-10, -0.999064 ]
    },
    {
      "name" : "Bip001-L-Finger32",
      "children" : [ 29 ],
      "translation" : [ 0.0309808, -1.26973e-10, 4.58696e-09 ],
      "rotation" : [ 6.07365e-11, 0.0103161, -3.14674e-10, -0.999947 ]
    },
    {
      "name" : "Bip001-L-Finger3Nub",
      "translation" : [ 0.0267645, -2.79723e-07, -7.91923e-07 ],
      "rotation" : [ -6.59956e-07, -6.81235e-07, -2.69555e-07, -1 ]
    },
    {
      "name" : "Bip001-L-Finger4",
      "children" : [ 31 ],
      "translation" : [ 0.105305, 0.032525, -0.0122557 ],
      "rotation" : [ 0.108764, -3.40433e-05, -0.0484276, -0.992887 ]
    },
    {
      "name" : "Bip001-L-Finger41",
      "children" : [ 32 ],
      "translation" : [ 0.0227337, 7.86236e-09, -5.3521e-08 ],
      "rotation" : [ -8.55559e-10, 0.024841, 1.81275e-09, -0.999691 ]
    },
    {
      "name" : "Bip001-L-Finger42",
      "children" : [ 33 ],
      "translation" : [ 0.023, -1.2315e-08, 9.56407e-08 ],
      "rotation" : [ 1.37956e-09, -0.00238502, -3.80408e-09, -0.999997 ]
    },
    {
      "name" : "Bip001-L-Finger4Nub",
      "translation" : [ 0.0364862, -1.99372e-07, -1.01408e-06 ],
      "rotation" : [ -7.22512e-07, -5.60622e-07, -3.54312e-07, -1 ]
    },
    {
      "name" : "LHS_Socket",
      "translation" : [ 6.44005e-07, -4.07376e-07, -3.9749e-07 ],
      "rotation" : [ 1.30441e-06, -8.11795e-07, -1.65293e-07, -1 ]
    },
    {
      "name" : "Bip001-L-ForeTwist",
      "translation" : [ 0, 0, -0 ],
      "rotation" : [ -0.000199038, 5.20417e-18, -1.03583e-21, -1 ]
    },
    {
      "name" : "Bip001-R-Clavicle",
      "children" : [ 37 ],
      "translation" : [ 0.107834, -0.0630343, 0.0487775 ],
      "rotation" : [ 0.628917, -0.776009, -0.0367884, -0.0303259 ]
    },
    {
      "name" : "Bip001-R-UpperArm",
      "children" : [ 38 ],
      "translation" : [ 0.111046, -2.4208e-08, 1.70344e-09 ],
      "rotation" : [ 0.0837973, -0.0917784, -0.0789768, -0.989099 ]
    },
    {
      "name" : "Bip001-R-Forearm",
      "children" : [ 39, 60 ],
      "translation" : [ 0.192545, -3.84108e-08, -2.30079e-09 ],
      "rotation" : [ -3.54448e-09, 0.0664834, 4.06081e-09, -0.997788 ]
    },
    {
      "name" : "Bip001-R-Hand",
      "children" : [ 40, 44, 48, 52, 56 ],
      "translation" : [ 0.262339, 1.04815e-07, 2.84559e-09 ],
      "rotation" : [ -0.706825, -0.0397768, -0.000878876, -0.706269 ]
    },
    {
      "name" : "Bip001-R-Finger0",
      "children" : [ 41 ],
      "translation" : [ 0.0471838, 0.0336962, -0.0114286 ],
      "rotation" : [ -0.843963, -0.225531, 0.313913, 0.371916 ]
    },
    {
      "name" : "Bip001-R-Finger01",
      "children" : [ 42 ],
      "translation" : [ 0.0327107, 1.6901e-08, -4.98419e-09 ],
      "rotation" : [ -6.96651e-09, -0.0322797, -5.67104e-09, -0.999479 ]
    },
    {
      "name" : "Bip001-R-Finger02",
      "children" : [ 43 ],
      "translation" : [ 0.0211923, -3.81628e-08, 3.60823e-08 ],
      "rotation" : [ -6.22334e-09, -0.00304014, -2.06667e-08, -0.999995 ]
    },
    {
      "name" : "Bip001-R-Finger0Nub",
      "translation" : [ 0.0338837, -6.78823e-07, 8.37046e-08 ],
      "rotation" : [ 2.35368e-07, -1, 7.87572e-07, 5.58634e-07 ]
    },
    {
      "name" : "Bip001-R-Finger1",
      "children" : [ 45 ],
      "translation" : [ 0.103837, 0.0291866, 0.00104592 ],
      "rotation" : [ -0.00475248, 0.0189835, -0.0716028, -0.997241 ]
    },
    {
      "name" : "Bip001-R-Finger11",
      "children" : [ 46 ],
      "translation" : [ 0.0393566, -9.6189e-09, 1.85837e-08 ],
      "rotation" : [ 1.05938e-09, 0.0253631, -2.84697e-09, -0.999678 ]
    },
    {
      "name" : "Bip001-R-Finger12",
      "children" : [ 47 ],
      "translation" : [ 0.0281723, 6.13404e-09, 4.23852e-08 ],
      "rotation" : [ 6.52531e-10, 0.00996423, -1.81167e-09, -0.99995 ]
    },
    {
      "name" : "Bip001-R-Finger1Nub",
      "translation" : [ 0.0345907, 3.3997e-07, 1.04356e-06 ],
      "rotation" : [ -2.5637e-07, -1, 7.73999e-07, -5.08803e-07 ]
    },
    {
      "name" : "Bip001-R-Finger2",
      "children" : [ 49 ],
      "translation" : [ 0.104723, 0.00763444, 0.00260821 ],
      "rotation" : [ -0.000206437, 0.0486689, -0.00826584, -0.998781 ]
    },
    {
      "name" : "Bip001-R-Finger21",
      "children" : [ 50 ],
      "translation" : [ 0.040501, -1.00203e-09, 5.88133e-09 ],
      "rotation" : [ 8.98031e-11, -0.0235178, -1.08623e-09, -0.999723 ]
    },
    {
      "name" : "Bip001-R-Finger22",
      "children" : [ 51 ],
      "translation" : [ 0.0295816, -3.55347e-09, 6.90557e-09 ],
      "rotation" : [ -6.14729e-10, 0.0263525, 2.12656e-09, -0.999653 ]
    },
    {
      "name" : "Bip001-R-Finger2Nub",
      "translation" : [ 0.036952, 2.73918e-07, 9.10173e-07 ],
      "rotation" : [ -2.64519e-07, -1, 6.9055e-07, -6.13622e-07 ]
    },
    {
      "name" : "Bip001-R-Finger3",
      "children" : [ 53 ],
      "translation" : [ 0.105425, -0.0143853, -0.000835025 ],
      "rotation" : [ -0.0435178, 0.059217, 0.0163612, -0.997162 ]
    },
    {
      "name" : "Bip001-R-Finger31",
      "children" : [ 54 ],
      "translation" : [ 0.0392455, -4.10958e-10, -2.94793e-08 ],
      "rotation" : [ 1.87907e-10, -0.0432455, -4.83486e-10, -0.999064 ]
    },
    {
      "name" : "Bip001-R-Finger32",
      "children" : [ 55 ],
      "translation" : [ 0.0309808, 2.4483e-10, 5.2831e-09 ],
      "rotation" : [ -1.20274e-10, 0.0103161, 4.37972e-10, -0.999947 ]
    },
    {
      "name" : "Bip001-R-Finger3Nub",
      "translation" : [ 0.0267632, 3.18958e-07, 1.15912e-06 ],
      "rotation" : [ -2.35383e-07, -1, 6.35501e-07, -6.78844e-07 ]
    },
    {
      "name" : "Bip001-R-Finger4",
      "children" : [ 57 ],
      "translation" : [ 0.105305, -0.032525, -0.0122558 ],
      "rotation" : [ -0.108764, -3.40364e-05, 0.0484276, -0.992887 ]
    },
    {
      "name" : "Bip001-R-Finger41",
      "children" : [ 58 ],
      "translation" : [ 0.0227337, -9.6329e-09, -5.49481e-08 ],
      "rotation" : [ -1.01457e-09, 0.024841, 2.31522e-09, -0.999691 ]
    },
    {
      "name" : "Bip001-R-Finger42",
      "children" : [ 59 ],
      "translation" : [ 0.023, 1.35758e-08, 9.39339e-08 ],
      "rotation" : [ 2.228e-09, -0.00238501, -6.35726e-09, -0.999997 ]
    },
    {
      "name" : "Bip001-R-Finger4Nub",
      "translation" : [ 0.036485, 4.25459e-07, 1.19746e-06 ],
      "rotation" : [ -1.44317e-07, -1, 6.27169e-07, -7.72875e-07 ]
    },
    {
      "name" : "Bip001-R-ForeTwist",
      "translation" : [ 0, 0, -0 ],
      "rotation" : [ 0.00019903, -5.52419e-21, 2.77556e-17, -1 ]
    },
    {
      "name" : "Bip001-L-Thigh",
      "children" : [ 62 ],
      "translation" : [ 8.89246e-08, 0.0641221, -1.31531e-07 ],
      "rotation" : [ 0.0189037, 0.00348567, 0.999283, 0.0326286 ]
    },
    {
      "name" : "Bip001-L-Calf",
      "children" : [ 63 ],
      "translation" : [ 0.39579, 1.99574e-09, 1.87122e-10 ],
      "rotation" : [ -7.52129e-09, 0.0524366, 4.67193e-09, -0.998624 ]
    },
    {
      "name" : "Bip001-L-Foot",
      "children" : [ 64 ],
      "translation" : [ 0.478497, -3.0035e-09, -1.04087e-08 ],
      "rotation" : [ 0.00176931, -0.0712767, -0.0327657, -0.996917 ]
    },
    {
      "name" : "Bip001-L-Toe0",
      "children" : [ 65 ],
      "translation" : [ 0.129086, 1.85502e-09, -0.136368 ],
      "rotation" : [ 3.09086e-08, -0.707107, -3.09086e-08, -0.707107 ]
    },
    {
      "name" : "Bip001-L-Toe0Nub",
      "translation" : [ 0.0604586, 1.38128e-06, 3.61624e-07 ],
      "rotation" : [ -8.64386e-10, -1, 6.99703e-07, -7.04583e-07 ]
    },
    {
      "name" : "Bip001-R-Thigh",
      "children" : [ 67 ],
      "translation" : [ -8.89246e-08, -0.0641221, 4.56999e-08 ],
      "rotation" : [ 0.0189038, -0.00348431, 0.999283, -0.0326273 ]
    },
    {
      "name" : "Bip001-R-Calf",
      "children" : [ 68 ],
      "translation" : [ 0.39579, 3.894e-10, -5.51508e-10 ],
      "rotation" : [ 1.22277e-08, 0.0524366, -3.54038e-09, -0.998624 ]
    },
    {
      "name" : "Bip001-R-Foot",
      "children" : [ 69 ],
      "translation" : [ 0.478497, -9.81512e-10, -1.23038e-09 ],
      "rotation" : [ -0.0017693, -0.0712767, 0.0327658, -0.996917 ]
    },
    {
      "name" : "Bip001-R-Toe0",
      "children" : [ 70 ],
      "translation" : [ 0.129086, 1.85502e-09, -0.136368 ],
      "rotation" : [ -2.40483e-14, -0.707107, 2.29679e-14, -0.707107 ]
    },
    {
      "name" : "Bip001-R-Toe0Nub",
      "translation" : [ 0.0604586, 1.39206e-06, 7.4224e-08 ],
      "rotation" : [ 6.91838e-07, 6.98752e-07, 6.27039e-10, -1 ]
    },
    {
      "name" : "ik_foot_root",
      "children" : [ 72, 73 ],
      "translation" : [ 0, 0, -0 ],
      "rotation" : [ -0, -0, 0, -1 ]
    },
    {
      "name" : "ik_foot_l",
      "translation" : [ 0.121364, 0.137065, -0.0492483 ],
      "rotation" : [ -0.707107, 0.707107, 2.15118e-05, 1.82439e-05 ]
    },
    {
      "name" : "ik_foot_r",
      "translation" : [ -0.121364, 0.137065, -0.049248 ],
      "rotation" : [ 0.707107, -0.707107, -1.88987e-05, -2.0857e-05 ]
    },
    {
      "name" : "ik_hand_root",
      "children" : [ 75 ],
      "translation" : [ 0, 0, -0 ],
      "rotation" : [ -0, -0, 0, -1 ]
    },
    {
      "name" : "ik_hand_gun",
      "children" : [ 76, 77, 78 ],
      "translation" : [ -0.595438, 1.28808, 0.0133855 ],
      "rotation" : [ -0.138247, 0.668064, 0.714204, -0.156497 ]
    },
    {
      "name" : "ik_hand_r",
      "translation" : [ -1.14441e-07, -2.75612e-06, -3.05176e-07 ],
      "rotation" : [ 1.9211e-13, -1.3411e-07, 1.43237e-06, -1 ]
    },
    {
      "name" : "ik_hand_l",
      "translation" : [ -1.08702, 0.0462335, -0.484179 ],
      "rotation" : [ -0.406573, 6.53818e-07, 0.912793, 0.0388243 ]
    },
    {
      "name" : "SocketADS",
      "translation" : [ -3.8147e-08, 0, -1.52588e-07 ],
      "rotation" : [ 9.31322e-09, 8.9407e-08, 7.26432e-08, -1 ]
    }
  ],
  "skins" : [
    {
      "inverseBindMatrices" : 0,
      "skeleton" : 1,
      "joints" : [
        1,2,3,4,5,6,7,8,9,10,11,12,13,14,15,16,17,18,19,20,21,22,23,24,25,26,27,28,29,30,31,32,
        33,34,35,36,37,38,39,40,41,42,43,44,45,46,47,48,49,50,51,52,53,54,55,56,57,58,59,60,61,62,63,64,
        65,66,67,68,69,70,71,72,73,74,75,76,77,78
      ]
    }
  ],
  "materials" : [
    {
      "name" : "M_AI_Body",
      "pbrMetallicRoughness" : {
        "baseColorFactor" : [ 0.3, 0.3, 0.3, 1.0 ],
        "metallicFactor" : 0.1,
        "roughnessFactor" : 0.5
      }
    },
    {
      "name" : "M_AI_Body",
      "pbrMetallicRoughness" : {
        "baseColorFactor" : [ 0.9, 0.3, 0.3, 1.0 ],
        "metallicFactor" : 0.1,
        "roughnessFactor" : 0.5
      }
    }
  ],
  "meshes" : [
    {
      "primitives" : [
        {
          "attributes" : {
            "POSITION" : 2,
            "NORMAL" : 3,
            "TANGENT" : 4,
            "JOINTS_0" : 5,
            "WEIGHTS_0" : 6,
            "TEXCOORD_0" : 7
          },
          "indices" : 1,
          "material" : 0
        },
        {
          "attributes" : {
            "POSITION" : 9,
            "NORMAL" : 10,
            "TANGENT" : 11,
            "JOINTS_0" : 12,
            "WEIGHTS_0" : 13,
            "TEXCOORD_0" : 14
          },
          "indices" : 8,
          "material" : 1
        }
      ],
      "name" : "SK_Envi_Train_AI_01a"
    }
  ],
  "buffers" : [
    {
      "uri" : "SK_Envi_Train_AI_01a.bin",
      "byteLength" : 595980
    }
  ],
  "bufferViews" : [
    {
      "buffer" : 0,
      "byteOffset" : 0,
      "byteLength" : 4992
    },
    {
      "buffer" : 0,
      "byteOffset" : 4992,
      "byteLength" : 21624
    },
    {
      "buffer" : 0,
      "byteOffset" : 26616,
      "byteLength" : 30348
    },
    {
      "buffer" : 0,
      "byteOffset" : 56964,
      "byteLength" : 30348
    },
    {
      "buffer" : 0,
      "byteOffset" : 87312,
      "byteLength" : 40464
    },
    {
      "buffer" : 0,
      "byteOffset" : 127776,
      "byteLength" : 20232
    },
    {
      "buffer" : 0,
      "byteOffset" : 148008,
      "byteLength" : 10116
    },
    {
      "buffer" : 0,
      "byteOffset" : 158124,
      "byteLength" : 20232
    },
    {
      "buffer" : 0,
      "byteOffset" : 178356,
      "byteLength" : 42924
    },
    {
      "buffer" : 0,
      "byteOffset" : 221280,
      "byteLength" : 74940
    },
    {
      "buffer" : 0,
      "byteOffset" : 296220,
      "byteLength" : 74940
    },
    {
      "buffer" : 0,
      "byteOffset" : 371160,
      "byteLength" : 99920
    },
    {
      "buffer" : 0,
      "byteOffset" : 471080,
      "byteLength" : 49960
    },
    {
      "buffer" : 0,
      "byteOffset" : 521040,
      "byteLength" : 24980
    },
    {
      "buffer" : 0,
      "byteOffset" : 546020,
      "byteLength" : 49960
    }
  ],
  "accessors" : [
    {
      "bufferView" : 0,
      "componentType" : 5126,
      "count" : 78,
      "type" : "MAT4"
    },
    {
      "bufferView" : 1,
      "componentType" : 5123,
      "count" : 10812,
      "type" : "SCALAR"
    },
    {
      "bufferView" : 2,
      "min" : [ -0.168606, 0.008376, -0.092644 ],
      "max" : [ 0.168606, 1.79845, 0.150921 ],
      "componentType" : 5126,
      "count" : 2529,
      "type" : "VEC3"
    },
    {
      "bufferView" : 3,
      "componentType" : 5126,
      "count" : 2529,
      "type" : "VEC3"
    },
    {
      "bufferView" : 4,
      "componentType" : 5126,
      "count" : 2529,
      "type" : "VEC4"
    },
    {
      "bufferView" : 5,
      "componentType" : 5123,
      "count" : 2529,
      "type" : "VEC4"
    },
    {
      "bufferView" : 6,
      "normalized" : true,
      "componentType" : 5121,
      "count" : 2529,
      "type" : "VEC4"
    },
    {
      "bufferView" : 7,
      "componentType" : 5126,
      "count" : 2529,
      "type" : "VEC2"
    },
    {
      "bufferView" : 8,
      "componentType" : 5123,
      "count" : 21462,
      "type" : "SCALAR"
    },
    {
      "bufferView" : 9,
      "min" : [ -0.795905, 0.117787, -0.095971 ],
      "max" : [ 0.795905, 1.80254, 0.185413 ],
      "componentType" : 5126,
      "count" : 6245,
      "type" : "VEC3"
    },
    {
      "bufferView" : 10,
      "componentType" : 5126,
      "count" : 6245,
      "type" : "VEC3"
    },
    {
      "bufferView" : 11,
      "componentType" : 5126,
      "count" : 6245,
      "type" : "VEC4"
    },
    {
      "bufferView" : 12,
      "componentType" : 5123,
      "count" : 6245,
      "type" : "VEC4"
    },
    {
      "bufferView" : 13,
      "normalized" : true,
      "componentType" : 5121,
      "count" : 6245,
      "type" : "VEC4"
    },
    {
      "bufferView" : 14,
      "componentType" : 5126,
      "count" : 6245,
      "type" : "VEC2"
    }
  ]
}
