{
  "asset" : {
    "generator" : "UE Viewer (umodel) build 1579 based",
    "version" : "2.0"
  },
  "scene" : 0,
  "scenes" : [
    {
      "nodes" : [ 0 ]
    }
  ],
  "nodes" : [
    {
      "name" : "SK_Weap_SVD_101_Sight",
      "mesh" : 0,
      "skin" : 0,
      "children" : [ 1 ]
    },
    {
      "name" : "Root",
      "translation" : [ 0, 0, 0 ],
      "rotation" : [ -0, -0, -0, 1 ]
    }
  ],
  "skins" : [
    {
      "inverseBindMatrices" : 0,
      "skeleton" : 1,
      "joints" : [
        1
      ]
    }
  ],
  "materials" : [
    {
      "name" : "MI_Weap_SVD_01_101",
      "pbrMetallicRoughness" : {
        "baseColorFactor" : [ 0.3, 0.3, 0.3, 1.0 ],
        "metallicFactor" : 0.1,
        "roughnessFactor" : 0.5
      }
    }
  ],
  "meshes" : [
    {
      "primitives" : [
        {
          "attributes" : {
            "POSITION" : 2,
            "NORMAL" : 3,
            "TANGENT" : 4,
            "JOINTS_0" : 5,
            "WEIGHTS_0" : 6,
            "TEXCOORD_0" : 7
          },
          "indices" : 1,
          "material" : 0
        }
      ],
      "name" : "SK_Weap_SVD_101_Sight"
    }
  ],
  "buffers" : [
    {
      "uri" : "SK_Weap_SVD_101_Sight.bin",
      "byteLength" : 103528
    }
  ],
  "bufferViews" : [
    {
      "buffer" : 0,
      "byteOffset" : 0,
      "byteLength" : 64
    },
    {
      "buffer" : 0,
      "byteOffset" : 64,
      "byteLength" : 9084
    },
    {
      "buffer" : 0,
      "byteOffset" : 9148,
      "byteLength" : 18876
    },
    {
      "buffer" : 0,
      "byteOffset" : 28024,
      "byteLength" : 18876
    },
    {
      "buffer" : 0,
      "byteOffset" : 46900,
      "byteLength" : 25168
    },
    {
      "buffer" : 0,
      "byteOffset" : 72068,
      "byteLength" : 12584
    },
    {
      "buffer" : 0,
      "byteOffset" : 84652,
      "byteLength" : 6292
    },
    {
      "buffer" : 0,
      "byteOffset" : 90944,
      "byteLength" : 12584
    }
  ],
  "accessors" : [
    {
      "bufferView" : 0,
      "componentType" : 5126,
      "count" : 1,
      "type" : "MAT4"
    },
    {
      "bufferView" : 1,
      "componentType" : 5123,
      "count" : 4542,
      "type" : "SCALAR"
    },
    {
      "bufferView" : 2,
      "min" : [ -0.0372731, -0.034461, -0.0658568 ],
      "max" : [ 0.0372731, 0.033934, 0.121343 ],
      "componentType" : 5126,
      "count" : 1573,
      "type" : "VEC3"
    },
    {
      "bufferView" : 3,
      "componentType" : 5126,
      "count" : 1573,
      "type" : "VEC3"
    },
    {
      "bufferView" : 4,
      "componentType" : 5126,
      "count" : 1573,
      "type" : "VEC4"
    },
    {
      "bufferView" : 5,
      "componentType" : 5123,
      "count" : 1573,
      "type" : "VEC4"
    },
    {
      "bufferView" : 6,
      "normalized" : true,
      "componentType" : 5121,
      "count" : 1573,
      "type" : "VEC4"
    },
    {
      "bufferView" : 7,
      "componentType" : 5126,
      "count" : 1573,
      "type" : "VEC2"
    }
  ]
}
