{
  "asset" : {
    "generator" : "UE Viewer (umodel) build 1579 based",
    "version" : "2.0"
  },
  "scene" : 0,
  "scenes" : [
    {
      "nodes" : [ 0 ]
    }
  ],
  "nodes" : [
    {
      "name" : "Shape_Cube",
      "mesh" : 0
    }
  ],
  "materials" : [
    {
      "name" : "dummy_material_0",
      "pbrMetallicRoughness" : {
        "baseColorFactor" : [ 0.3, 0.3, 0.3, 1.0 ],
        "metallicFactor" : 0.1,
        "roughnessFactor" : 0.5
      }
    }
  ],
  "meshes" : [
    {
      "primitives" : [
        {
          "attributes" : {
            "POSITION" : 1,
            "NORMAL" : 2,
            "TANGENT" : 3,
            "TEXCOORD_0" : 4,
            "TEXCOORD_1" : 5
          },
          "indices" : 0,
          "material" : 0
        }
      ],
      "name" : "Shape_Cube"
    }
  ],
  "buffers" : [
    {
      "uri" : "Shape_Cube.bin",
      "byteLength" : 3312
    }
  ],
  "bufferViews" : [
    {
      "buffer" : 0,
      "byteOffset" : 0,
      "byteLength" : 288
    },
    {
      "buffer" : 0,
      "byteOffset" : 288,
      "byteLength" : 648
    },
    {
      "buffer" : 0,
      "byteOffset" : 936,
      "byteLength" : 648
    },
    {
      "buffer" : 0,
      "byteOffset" : 1584,
      "byteLength" : 864
    },
    {
      "buffer" : 0,
      "byteOffset" : 2448,
      "byteLength" : 432
    },
    {
      "buffer" : 0,
      "byteOffset" : 2880,
      "byteLength" : 432
    }
  ],
  "accessors" : [
    {
      "bufferView" : 0,
      "componentType" : 5123,
      "count" : 144,
      "type" : "SCALAR"
    },
    {
      "bufferView" : 1,
      "min" : [ -0.5, -3.06162e-17, -0.5 ],
      "max" : [ 0.5, 1, 0.5 ],
      "componentType" : 5126,
      "count" : 54,
      "type" : "VEC3"
    },
    {
      "bufferView" : 2,
      "componentType" : 5126,
      "count" : 54,
      "type" : "VEC3"
    },
    {
      "bufferView" : 3,
      "componentType" : 5126,
      "count" : 54,
      "type" : "VEC4"
    },
    {
      "bufferView" : 4,
      "componentType" : 5126,
      "count" : 54,
      "type" : "VEC2"
    },
    {
      "bufferView" : 5,
      "componentType" : 5126,
      "count" : 54,
      "type" : "VEC2"
    }
  ]
}
