{
  "asset" : {
    "generator" : "UE Viewer (umodel) build 1579 based",
    "version" : "2.0"
  },
  "scene" : 0,
  "scenes" : [
    {
      "nodes" : [ 0 ]
    }
  ],
  "nodes" : [
    {
      "name" : "S_Envi_FZFBase_Ground_01o",
      "mesh" : 0
    }
  ],
  "materials" : [
    {
      "name" : "MI_Envi_FZFBase_GoodsShelves_01a_2",
      "pbrMetallicRoughness" : {
        "baseColorFactor" : [ 0.3, 0.3, 0.3, 1.0 ],
        "metallicFactor" : 0.1,
        "roughnessFactor" : 0.5
      }
    },
    {
      "name" : "MI__Envi_Olgk_Ground_Merge_02g_2",
      "pbrMetallicRoughness" : {
        "baseColorFactor" : [ 0.9, 0.3, 0.3, 1.0 ],
        "metallicFactor" : 0.1,
        "roughnessFactor" : 0.5
      }
    },
    {
      "name" : "MI_Envi_FZFBase_Concrete_01c_3b",
      "pbrMetallicRoughness" : {
        "baseColorFactor" : [ 0.3, 0.9, 0.3, 1.0 ],
        "metallicFactor" : 0.1,
        "roughnessFactor" : 0.5
      }
    }
  ],
  "meshes" : [
    {
      "primitives" : [
        {
          "attributes" : {
            "POSITION" : 1,
            "NORMAL" : 2,
            "TANGENT" : 3,
            "TEXCOORD_0" : 4,
            "TEXCOORD_1" : 5,
            "TEXCOORD_2" : 6,
            "TEXCOORD_3" : 7,
            "TEXCOORD_4" : 8
          },
          "indices" : 0,
          "material" : 0
        },
        {
          "attributes" : {
            "POSITION" : 10,
            "NORMAL" : 11,
            "TANGENT" : 12,
            "TEXCOORD_0" : 13,
            "TEXCOORD_1" : 14,
            "TEXCOORD_2" : 15,
            "TEXCOORD_3" : 16,
            "TEXCOORD_4" : 17
          },
          "indices" : 9,
          "material" : 1
        },
        {
          "attributes" : {
            "POSITION" : 19,
            "NORMAL" : 20,
            "TANGENT" : 21,
            "TEXCOORD_0" : 22,
            "TEXCOORD_1" : 23,
            "TEXCOORD_2" : 24,
            "TEXCOORD_3" : 25,
            "TEXCOORD_4" : 26
          },
          "indices" : 18,
          "material" : 2
        }
      ],
      "name" : "S_Envi_FZFBase_Ground_01o"
    }
  ],
  "buffers" : [
    {
      "uri" : "S_Envi_FZFBase_Ground_01o.bin",
      "byteLength" : 438884
    }
  ],
  "bufferViews" : [
    {
      "buffer" : 0,
      "byteOffset" : 0,
      "byteLength" : 120
    },
    {
      "buffer" : 0,
      "byteOffset" : 120,
      "byteLength" : 480
    },
    {
      "buffer" : 0,
      "byteOffset" : 600,
      "byteLength" : 480
    },
    {
      "buffer" : 0,
      "byteOffset" : 1080,
      "byteLength" : 640
    },
    {
      "buffer" : 0,
      "byteOffset" : 1720,
      "byteLength" : 320
    },
    {
      "buffer" : 0,
      "byteOffset" : 2040,
      "byteLength" : 320
    },
    {
      "buffer" : 0,
      "byteOffset" : 2360,
      "byteLength" : 320
    },
    {
      "buffer" : 0,
      "byteOffset" : 2680,
      "byteLength" : 320
    },
    {
      "buffer" : 0,
      "byteOffset" : 3000,
      "byteLength" : 320
    },
    {
      "buffer" : 0,
      "byteOffset" : 3320,
      "byteLength" : 1200
    },
    {
      "buffer" : 0,
      "byteOffset" : 4520,
      "byteLength" : 4752
    },
    {
      "buffer" : 0,
      "byteOffset" : 9272,
      "byteLength" : 4752
    },
    {
      "buffer" : 0,
      "byteOffset" : 14024,
      "byteLength" : 6336
    },
    {
      "buffer" : 0,
      "byteOffset" : 20360,
      "byteLength" : 3168
    },
    {
      "buffer" : 0,
      "byteOffset" : 23528,
      "byteLength" : 3168
    },
    {
      "buffer" : 0,
      "byteOffset" : 26696,
      "byteLength" : 3168
    },
    {
      "buffer" : 0,
      "byteOffset" : 29864,
      "byteLength" : 3168
    },
    {
      "buffer" : 0,
      "byteOffset" : 33032,
      "byteLength" : 3168
    },
    {
      "buffer" : 0,
      "byteOffset" : 36200,
      "byteLength" : 49244
    },
    {
      "buffer" : 0,
      "byteOffset" : 85444,
      "byteLength" : 53016
    },
    {
      "buffer" : 0,
      "byteOffset" : 138460,
      "byteLength" : 53016
    },
    {
      "buffer" : 0,
      "byteOffset" : 191476,
      "byteLength" : 70688
    },
    {
      "buffer" : 0,
      "byteOffset" : 262164,
      "byteLength" : 35344
    },
    {
      "buffer" : 0,
      "byteOffset" : 297508,
      "byteLength" : 35344
    },
    {
      "buffer" : 0,
      "byteOffset" : 332852,
      "byteLength" : 35344
    },
    {
      "buffer" : 0,
      "byteOffset" : 368196,
      "byteLength" : 35344
    },
    {
      "buffer" : 0,
      "byteOffset" : 403540,
      "byteLength" : 35344
    }
  ],
  "accessors" : [
    {
      "bufferView" : 0,
      "componentType" : 5123,
      "count" : 60,
      "type" : "SCALAR"
    },
    {
      "bufferView" : 1,
      "min" : [ 4.19552, -0.0038189, -5.1485 ],
      "max" : [ 22.8625, 0.0209802, 0.922513 ],
      "componentType" : 5126,
      "count" : 40,
      "type" : "VEC3"
    },
    {
      "bufferView" : 2,
      "componentType" : 5126,
      "count" : 40,
      "type" : "VEC3"
    },
    {
      "bufferView" : 3,
      "componentType" : 5126,
      "count" : 40,
      "type" : "VEC4"
    },
    {
      "bufferView" : 4,
      "componentType" : 5126,
      "count" : 40,
      "type" : "VEC2"
    },
    {
      "bufferView" : 5,
      "componentType" : 5126,
      "count" : 40,
      "type" : "VEC2"
    },
    {
      "bufferView" : 6,
      "componentType" : 5126,
      "count" : 40,
      "type" : "VEC2"
    },
    {
      "bufferView" : 7,
      "componentType" : 5126,
      "count" : 40,
      "type" : "VEC2"
    },
    {
      "bufferView" : 8,
      "componentType" : 5126,
      "count" : 40,
      "type" : "VEC2"
    },
    {
      "bufferView" : 9,
      "componentType" : 5123,
      "count" : 600,
      "type" : "SCALAR"
    },
    {
      "bufferView" : 10,
      "min" : [ 3.7433, -0.0038189, -5.56823 ],
      "max" : [ 23.276, 0.0217114, 1.35357 ],
      "componentType" : 5126,
      "count" : 396,
      "type" : "VEC3"
    },
    {
      "bufferView" : 11,
      "componentType" : 5126,
      "count" : 396,
      "type" : "VEC3"
    },
    {
      "bufferView" : 12,
      "componentType" : 5126,
      "count" : 396,
      "type" : "VEC4"
    },
    {
      "bufferView" : 13,
      "componentType" : 5126,
      "count" : 396,
      "type" : "VEC2"
    },
    {
      "bufferView" : 14,
      "componentType" : 5126,
      "count" : 396,
      "type" : "VEC2"
    },
    {
      "bufferView" : 15,
      "componentType" : 5126,
      "count" : 396,
      "type" : "VEC2"
    },
    {
      "bufferView" : 16,
      "componentType" : 5126,
      "count" : 396,
      "type" : "VEC2"
    },
    {
      "bufferView" : 17,
      "componentType" : 5126,
      "count" : 396,
      "type" : "VEC2"
    },
    {
      "bufferView" : 18,
      "componentType" : 5123,
      "count" : 24621,
      "type" : "SCALAR"
    },
    {
      "bufferView" : 19,
      "min" : [ -13.6583, -5.72205e-08, -22.4422 ],
      "max" : [ 36.1004, 1.35743e-15, 11.0842 ],
      "componentType" : 5126,
      "count" : 4418,
      "type" : "VEC3"
    },
    {
      "bufferView" : 20,
      "componentType" : 5126,
      "count" : 4418,
      "type" : "VEC3"
    },
    {
      "bufferView" : 21,
      "componentType" : 5126,
      "count" : 4418,
      "type" : "VEC4"
    },
    {
      "bufferView" : 22,
      "componentType" : 5126,
      "count" : 4418,
      "type" : "VEC2"
    },
    {
      "bufferView" : 23,
      "componentType" : 5126,
      "count" : 4418,
      "type" : "VEC2"
    },
    {
      "bufferView" : 24,
      "componentType" : 5126,
      "count" : 4418,
      "type" : "VEC2"
    },
    {
      "bufferView" : 25,
      "componentType" : 5126,
      "count" : 4418,
      "type" : "VEC2"
    },
    {
      "bufferView" : 26,
      "componentType" : 5126,
      "count" : 4418,
      "type" : "VEC2"
    }
  ]
}
