{
  "asset" : {
    "generator" : "UE Viewer (umodel) build 1579 based",
    "version" : "2.0"
  },
  "scene" : 0,
  "scenes" : [
    {
      "nodes" : [ 0 ]
    }
  ],
  "nodes" : [
    {
      "name" : "S_Envi_FZFBase_Ground_01i",
      "mesh" : 0
    }
  ],
  "materials" : [
    {
      "name" : "MI_Envi_FZFBase_Concrete_01c_3b",
      "pbrMetallicRoughness" : {
        "baseColorFactor" : [ 0.3, 0.3, 0.3, 1.0 ],
        "metallicFactor" : 0.1,
        "roughnessFactor" : 0.5
      }
    },
    {
      "name" : "MI_Envi_Common_Platform_01",
      "pbrMetallicRoughness" : {
        "baseColorFactor" : [ 0.9, 0.3, 0.3, 1.0 ],
        "metallicFactor" : 0.1,
        "roughnessFactor" : 0.5
      }
    }
  ],
  "meshes" : [
    {
      "primitives" : [
        {
          "attributes" : {
            "POSITION" : 1,
            "NORMAL" : 2,
            "TANGENT" : 3,
            "TEXCOORD_0" : 4,
            "TEXCOORD_1" : 5,
            "TEXCOORD_2" : 6,
            "TEXCOORD_3" : 7
          },
          "indices" : 0,
          "material" : 0
        },
        {
          "attributes" : {
            "POSITION" : 9,
            "NORMAL" : 10,
            "TANGENT" : 11,
            "TEXCOORD_0" : 12,
            "TEXCOORD_1" : 13,
            "TEXCOORD_2" : 14,
            "TEXCOORD_3" : 15
          },
          "indices" : 8,
          "material" : 1
        }
      ],
      "name" : "S_Envi_FZFBase_Ground_01i"
    }
  ],
  "buffers" : [
    {
      "uri" : "S_Envi_FZFBase_Ground_01i.bin",
      "byteLength" : 176300
    }
  ],
  "bufferViews" : [
    {
      "buffer" : 0,
      "byteOffset" : 0,
      "byteLength" : 20436
    },
    {
      "buffer" : 0,
      "byteOffset" : 20436,
      "byteLength" : 22440
    },
    {
      "buffer" : 0,
      "byteOffset" : 42876,
      "byteLength" : 22440
    },
    {
      "buffer" : 0,
      "byteOffset" : 65316,
      "byteLength" : 29920
    },
    {
      "buffer" : 0,
      "byteOffset" : 95236,
      "byteLength" : 14960
    },
    {
      "buffer" : 0,
      "byteOffset" : 110196,
      "byteLength" : 14960
    },
    {
      "buffer" : 0,
      "byteOffset" : 125156,
      "byteLength" : 14960
    },
    {
      "buffer" : 0,
      "byteOffset" : 140116,
      "byteLength" : 14960
    },
    {
      "buffer" : 0,
      "byteOffset" : 155076,
      "byteLength" : 848
    },
    {
      "buffer" : 0,
      "byteOffset" : 155924,
      "byteLength" : 3396
    },
    {
      "buffer" : 0,
      "byteOffset" : 159320,
      "byteLength" : 3396
    },
    {
      "buffer" : 0,
      "byteOffset" : 162716,
      "byteLength" : 4528
    },
    {
      "buffer" : 0,
      "byteOffset" : 167244,
      "byteLength" : 2264
    },
    {
      "buffer" : 0,
      "byteOffset" : 169508,
      "byteLength" : 2264
    },
    {
      "buffer" : 0,
      "byteOffset" : 171772,
      "byteLength" : 2264
    },
    {
      "buffer" : 0,
      "byteOffset" : 174036,
      "byteLength" : 2264
    }
  ],
  "accessors" : [
    {
      "bufferView" : 0,
      "componentType" : 5123,
      "count" : 10218,
      "type" : "SCALAR"
    },
    {
      "bufferView" : 1,
      "min" : [ -59.6032, -3.9319, -50.0306 ],
      "max" : [ -34.0657, -3.9319, -30.3716 ],
      "componentType" : 5126,
      "count" : 1870,
      "type" : "VEC3"
    },
    {
      "bufferView" : 2,
      "componentType" : 5126,
      "count" : 1870,
      "type" : "VEC3"
    },
    {
      "bufferView" : 3,
      "componentType" : 5126,
      "count" : 1870,
      "type" : "VEC4"
    },
    {
      "bufferView" : 4,
      "componentType" : 5126,
      "count" : 1870,
      "type" : "VEC2"
    },
    {
      "bufferView" : 5,
      "componentType" : 5126,
      "count" : 1870,
      "type" : "VEC2"
    },
    {
      "bufferView" : 6,
      "componentType" : 5126,
      "count" : 1870,
      "type" : "VEC2"
    },
    {
      "bufferView" : 7,
      "componentType" : 5126,
      "count" : 1870,
      "type" : "VEC2"
    },
    {
      "bufferView" : 8,
      "componentType" : 5123,
      "count" : 423,
      "type" : "SCALAR"
    },
    {
      "bufferView" : 9,
      "min" : [ -55.6709, -4.05916, -49.9408 ],
      "max" : [ -34.0583, -3.91404, -32.4485 ],
      "componentType" : 5126,
      "count" : 283,
      "type" : "VEC3"
    },
    {
      "bufferView" : 10,
      "componentType" : 5126,
      "count" : 283,
      "type" : "VEC3"
    },
    {
      "bufferView" : 11,
      "componentType" : 5126,
      "count" : 283,
      "type" : "VEC4"
    },
    {
      "bufferView" : 12,
      "componentType" : 5126,
      "count" : 283,
      "type" : "VEC2"
    },
    {
      "bufferView" : 13,
      "componentType" : 5126,
      "count" : 283,
      "type" : "VEC2"
    },
    {
      "bufferView" : 14,
      "componentType" : 5126,
      "count" : 283,
      "type" : "VEC2"
    },
    {
      "bufferView" : 15,
      "componentType" : 5126,
      "count" : 283,
      "type" : "VEC2"
    }
  ]
}
