{
  "asset" : {
    "generator" : "UE Viewer (umodel) build 1579 based",
    "version" : "2.0"
  },
  "scene" : 0,
  "scenes" : [
    {
      "nodes" : [ 0 ]
    }
  ],
  "nodes" : [
    {
      "name" : "S_Envi_FZFBase_Ground_05a",
      "mesh" : 0
    }
  ],
  "materials" : [
    {
      "name" : "MI_Envi_FZFBase_Ground_05c",
      "pbrMetallicRoughness" : {
        "baseColorFactor" : [ 0.3, 0.3, 0.3, 1.0 ],
        "metallicFactor" : 0.1,
        "roughnessFactor" : 0.5
      }
    },
    {
      "name" : "MI_Envi_FZFBase_Ground_05a",
      "pbrMetallicRoughness" : {
        "baseColorFactor" : [ 0.9, 0.3, 0.3, 1.0 ],
        "metallicFactor" : 0.1,
        "roughnessFactor" : 0.5
      }
    },
    {
      "name" : "MI_Envi_FZFBase_Ground_01c",
      "pbrMetallicRoughness" : {
        "baseColorFactor" : [ 0.3, 0.9, 0.3, 1.0 ],
        "metallicFactor" : 0.1,
        "roughnessFactor" : 0.5
      }
    }
  ],
  "meshes" : [
    {
      "primitives" : [
        {
          "attributes" : {
            "POSITION" : 1,
            "NORMAL" : 2,
            "TANGENT" : 3,
            "TEXCOORD_0" : 4,
            "TEXCOORD_1" : 5,
            "TEXCOORD_2" : 6,
            "TEXCOORD_3" : 7
          },
          "indices" : 0,
          "material" : 0
        },
        {
          "attributes" : {
            "POSITION" : 9,
            "NORMAL" : 10,
            "TANGENT" : 11,
            "TEXCOORD_0" : 12,
            "TEXCOORD_1" : 13,
            "TEXCOORD_2" : 14,
            "TEXCOORD_3" : 15
          },
          "indices" : 8,
          "material" : 1
        },
        {
          "attributes" : {
            "POSITION" : 17,
            "NORMAL" : 18,
            "TANGENT" : 19,
            "TEXCOORD_0" : 20,
            "TEXCOORD_1" : 21,
            "TEXCOORD_2" : 22,
            "TEXCOORD_3" : 23
          },
          "indices" : 16,
          "material" : 2
        }
      ],
      "name" : "S_Envi_FZFBase_Ground_05a"
    }
  ],
  "buffers" : [
    {
      "uri" : "S_Envi_FZFBase_Ground_05a.bin",
      "byteLength" : 52352
    }
  ],
  "bufferViews" : [
    {
      "buffer" : 0,
      "byteOffset" : 0,
      "byteLength" : 1968
    },
    {
      "buffer" : 0,
      "byteOffset" : 1968,
      "byteLength" : 4428
    },
    {
      "buffer" : 0,
      "byteOffset" : 6396,
      "byteLength" : 4428
    },
    {
      "buffer" : 0,
      "byteOffset" : 10824,
      "byteLength" : 5904
    },
    {
      "buffer" : 0,
      "byteOffset" : 16728,
      "byteLength" : 2952
    },
    {
      "buffer" : 0,
      "byteOffset" : 19680,
      "byteLength" : 2952
    },
    {
      "buffer" : 0,
      "byteOffset" : 22632,
      "byteLength" : 2952
    },
    {
      "buffer" : 0,
      "byteOffset" : 25584,
      "byteLength" : 2952
    },
    {
      "buffer" : 0,
      "byteOffset" : 28536,
      "byteLength" : 1364
    },
    {
      "buffer" : 0,
      "byteOffset" : 29900,
      "byteLength" : 3540
    },
    {
      "buffer" : 0,
      "byteOffset" : 33440,
      "byteLength" : 3540
    },
    {
      "buffer" : 0,
      "byteOffset" : 36980,
      "byteLength" : 4720
    },
    {
      "buffer" : 0,
      "byteOffset" : 41700,
      "byteLength" : 2360
    },
    {
      "buffer" : 0,
      "byteOffset" : 44060,
      "byteLength" : 2360
    },
    {
      "buffer" : 0,
      "byteOffset" : 46420,
      "byteLength" : 2360
    },
    {
      "buffer" : 0,
      "byteOffset" : 48780,
      "byteLength" : 2360
    },
    {
      "buffer" : 0,
      "byteOffset" : 51140,
      "byteLength" : 60
    },
    {
      "buffer" : 0,
      "byteOffset" : 51200,
      "byteLength" : 192
    },
    {
      "buffer" : 0,
      "byteOffset" : 51392,
      "byteLength" : 192
    },
    {
      "buffer" : 0,
      "byteOffset" : 51584,
      "byteLength" : 256
    },
    {
      "buffer" : 0,
      "byteOffset" : 51840,
      "byteLength" : 128
    },
    {
      "buffer" : 0,
      "byteOffset" : 51968,
      "byteLength" : 128
    },
    {
      "buffer" : 0,
      "byteOffset" : 52096,
      "byteLength" : 128
    },
    {
      "buffer" : 0,
      "byteOffset" : 52224,
      "byteLength" : 128
    }
  ],
  "accessors" : [
    {
      "bufferView" : 0,
      "componentType" : 5123,
      "count" : 984,
      "type" : "SCALAR"
    },
    {
      "bufferView" : 1,
      "min" : [ 16.0203, -0.000272222, -44.5543 ],
      "max" : [ 29.9878, 1.03024, -20.3133 ],
      "componentType" : 5126,
      "count" : 369,
      "type" : "VEC3"
    },
    {
      "bufferView" : 2,
      "componentType" : 5126,
      "count" : 369,
      "type" : "VEC3"
    },
    {
      "bufferView" : 3,
      "componentType" : 5126,
      "count" : 369,
      "type" : "VEC4"
    },
    {
      "bufferView" : 4,
      "componentType" : 5126,
      "count" : 369,
      "type" : "VEC2"
    },
    {
      "bufferView" : 5,
      "componentType" : 5126,
      "count" : 369,
      "type" : "VEC2"
    },
    {
      "bufferView" : 6,
      "componentType" : 5126,
      "count" : 369,
      "type" : "VEC2"
    },
    {
      "bufferView" : 7,
      "componentType" : 5126,
      "count" : 369,
      "type" : "VEC2"
    },
    {
      "bufferView" : 8,
      "componentType" : 5123,
      "count" : 681,
      "type" : "SCALAR"
    },
    {
      "bufferView" : 9,
      "min" : [ 17.9165, -1.50666e-13, -35.1337 ],
      "max" : [ 30.5611, 2.69678e-07, -19.7392 ],
      "componentType" : 5126,
      "count" : 295,
      "type" : "VEC3"
    },
    {
      "bufferView" : 10,
      "componentType" : 5126,
      "count" : 295,
      "type" : "VEC3"
    },
    {
      "bufferView" : 11,
      "componentType" : 5126,
      "count" : 295,
      "type" : "VEC4"
    },
    {
      "bufferView" : 12,
      "componentType" : 5126,
      "count" : 295,
      "type" : "VEC2"
    },
    {
      "bufferView" : 13,
      "componentType" : 5126,
      "count" : 295,
      "type" : "VEC2"
    },
    {
      "bufferView" : 14,
      "componentType" : 5126,
      "count" : 295,
      "type" : "VEC2"
    },
    {
      "bufferView" : 15,
      "componentType" : 5126,
      "count" : 295,
      "type" : "VEC2"
    },
    {
      "bufferView" : 16,
      "componentType" : 5123,
      "count" : 30,
      "type" : "SCALAR"
    },
    {
      "bufferView" : 17,
      "min" : [ 19.9955, -2.16553e-15, -35.3657 ],
      "max" : [ 30.5611, -1.90957e-15, -31.1857 ],
      "componentType" : 5126,
      "count" : 16,
      "type" : "VEC3"
    },
    {
      "bufferView" : 18,
      "componentType" : 5126,
      "count" : 16,
      "type" : "VEC3"
    },
    {
      "bufferView" : 19,
      "componentType" : 5126,
      "count" : 16,
      "type" : "VEC4"
    },
    {
      "bufferView" : 20,
      "componentType" : 5126,
      "count" : 16,
      "type" : "VEC2"
    },
    {
      "bufferView" : 21,
      "componentType" : 5126,
      "count" : 16,
      "type" : "VEC2"
    },
    {
      "bufferView" : 22,
      "componentType" : 5126,
      "count" : 16,
      "type" : "VEC2"
    },
    {
      "bufferView" : 23,
      "componentType" : 5126,
      "count" : 16,
      "type" : "VEC2"
    }
  ]
}
