{
  "asset" : {
    "generator" : "UE Viewer (umodel) build 1579 based",
    "version" : "2.0"
  },
  "scene" : 0,
  "scenes" : [
    {
      "nodes" : [ 0 ]
    }
  ],
  "nodes" : [
    {
      "name" : "S_Envi_FZFBase_Brick_01a",
      "mesh" : 0
    }
  ],
  "materials" : [
    {
      "name" : "MI_Envi_FZFBase_sand_12a_4",
      "pbrMetallicRoughness" : {
        "baseColorFactor" : [ 0.3, 0.3, 0.3, 1.0 ],
        "metallicFactor" : 0.1,
        "roughnessFactor" : 0.5
      }
    }
  ],
  "meshes" : [
    {
      "primitives" : [
        {
          "attributes" : {
            "POSITION" : 1,
            "NORMAL" : 2,
            "TANGENT" : 3,
            "TEXCOORD_0" : 4,
            "TEXCOORD_1" : 5
          },
          "indices" : 0,
          "material" : 0
        }
      ],
      "name" : "S_Envi_FZFBase_Brick_01a"
    }
  ],
  "buffers" : [
    {
      "uri" : "S_Envi_FZFBase_Brick_01a.bin",
      "byteLength" : 2644
    }
  ],
  "bufferViews" : [
    {
      "buffer" : 0,
      "byteOffset" : 0,
      "byteLength" : 180
    },
    {
      "buffer" : 0,
      "byteOffset" : 180,
      "byteLength" : 528
    },
    {
      "buffer" : 0,
      "byteOffset" : 708,
      "byteLength" : 528
    },
    {
      "buffer" : 0,
      "byteOffset" : 1236,
      "byteLength" : 704
    },
    {
      "buffer" : 0,
      "byteOffset" : 1940,
      "byteLength" : 352
    },
    {
      "buffer" : 0,
      "byteOffset" : 2292,
      "byteLength" : 352
    }
  ],
  "accessors" : [
    {
      "bufferView" : 0,
      "componentType" : 5123,
      "count" : 90,
      "type" : "SCALAR"
    },
    {
      "bufferView" : 1,
      "min" : [ -1.47179, -0.0415012, -1.47179 ],
      "max" : [ 1.47179, 0.0626162, 1.47179 ],
      "componentType" : 5126,
      "count" : 44,
      "type" : "VEC3"
    },
    {
      "bufferView" : 2,
      "componentType" : 5126,
      "count" : 44,
      "type" : "VEC3"
    },
    {
      "bufferView" : 3,
      "componentType" : 5126,
      "count" : 44,
      "type" : "VEC4"
    },
    {
      "bufferView" : 4,
      "componentType" : 5126,
      "count" : 44,
      "type" : "VEC2"
    },
    {
      "bufferView" : 5,
      "componentType" : 5126,
      "count" : 44,
      "type" : "VEC2"
    }
  ]
}
