{
  "asset" : {
    "generator" : "UE Viewer (umodel) build 1579 based",
    "version" : "2.0"
  },
  "scene" : 0,
  "scenes" : [
    {
      "nodes" : [ 0 ]
    }
  ],
  "nodes" : [
    {
      "name" : "S_Envi_FZFBase_Ground_01l",
      "mesh" : 0
    }
  ],
  "materials" : [
    {
      "name" : "MI__Envi_Olgk_Ground_Merge_02g_2",
      "pbrMetallicRoughness" : {
        "baseColorFactor" : [ 0.3, 0.3, 0.3, 1.0 ],
        "metallicFactor" : 0.1,
        "roughnessFactor" : 0.5
      }
    }
  ],
  "meshes" : [
    {
      "primitives" : [
        {
          "attributes" : {
            "POSITION" : 1,
            "NORMAL" : 2,
            "TANGENT" : 3,
            "TEXCOORD_0" : 4,
            "TEXCOORD_1" : 5
          },
          "indices" : 0,
          "material" : 0
        }
      ],
      "name" : "S_Envi_FZFBase_Ground_01l"
    }
  ],
  "buffers" : [
    {
      "uri" : "S_Envi_FZFBase_Ground_01l.bin",
      "byteLength" : 293324
    }
  ],
  "bufferViews" : [
    {
      "buffer" : 0,
      "byteOffset" : 0,
      "byteLength" : 14892
    },
    {
      "buffer" : 0,
      "byteOffset" : 14892,
      "byteLength" : 59664
    },
    {
      "buffer" : 0,
      "byteOffset" : 74556,
      "byteLength" : 59664
    },
    {
      "buffer" : 0,
      "byteOffset" : 134220,
      "byteLength" : 79552
    },
    {
      "buffer" : 0,
      "byteOffset" : 213772,
      "byteLength" : 39776
    },
    {
      "buffer" : 0,
      "byteOffset" : 253548,
      "byteLength" : 39776
    }
  ],
  "accessors" : [
    {
      "bufferView" : 0,
      "componentType" : 5123,
      "count" : 7446,
      "type" : "SCALAR"
    },
    {
      "bufferView" : 1,
      "min" : [ -0.846012, -10.9342, -30.5349 ],
      "max" : [ 14.0357, -2.18012, -2.25927 ],
      "componentType" : 5126,
      "count" : 4972,
      "type" : "VEC3"
    },
    {
      "bufferView" : 2,
      "componentType" : 5126,
      "count" : 4972,
      "type" : "VEC3"
    },
    {
      "bufferView" : 3,
      "componentType" : 5126,
      "count" : 4972,
      "type" : "VEC4"
    },
    {
      "bufferView" : 4,
      "componentType" : 5126,
      "count" : 4972,
      "type" : "VEC2"
    },
    {
      "bufferView" : 5,
      "componentType" : 5126,
      "count" : 4972,
      "type" : "VEC2"
    }
  ]
}
