{
  "asset" : {
    "generator" : "UE Viewer (umodel) build 1579 based",
    "version" : "2.0"
  },
  "scene" : 0,
  "scenes" : [
    {
      "nodes" : [ 0 ]
    }
  ],
  "nodes" : [
    {
      "name" : "S_Envi_FZFBase_Ground_01c",
      "mesh" : 0
    }
  ],
  "materials" : [
    {
      "name" : "MI_Envi_FZFBase_Ground_02b_3",
      "pbrMetallicRoughness" : {
        "baseColorFactor" : [ 0.3, 0.3, 0.3, 1.0 ],
        "metallicFactor" : 0.1,
        "roughnessFactor" : 0.5
      }
    }
  ],
  "meshes" : [
    {
      "primitives" : [
        {
          "attributes" : {
            "POSITION" : 1,
            "NORMAL" : 2,
            "TANGENT" : 3,
            "TEXCOORD_0" : 4,
            "TEXCOORD_1" : 5
          },
          "indices" : 0,
          "material" : 0
        }
      ],
      "name" : "S_Envi_FZFBase_Ground_01c"
    }
  ],
  "buffers" : [
    {
      "uri" : "S_Envi_FZFBase_Ground_01c.bin",
      "byteLength" : 382880
    }
  ],
  "bufferViews" : [
    {
      "buffer" : 0,
      "byteOffset" : 0,
      "byteLength" : 65472
    },
    {
      "buffer" : 0,
      "byteOffset" : 65472,
      "byteLength" : 68016
    },
    {
      "buffer" : 0,
      "byteOffset" : 133488,
      "byteLength" : 68016
    },
    {
      "buffer" : 0,
      "byteOffset" : 201504,
      "byteLength" : 90688
    },
    {
      "buffer" : 0,
      "byteOffset" : 292192,
      "byteLength" : 45344
    },
    {
      "buffer" : 0,
      "byteOffset" : 337536,
      "byteLength" : 45344
    }
  ],
  "accessors" : [
    {
      "bufferView" : 0,
      "componentType" : 5123,
      "count" : 32736,
      "type" : "SCALAR"
    },
    {
      "bufferView" : 1,
      "min" : [ 0, -1.90155e-15, -31.0547 ],
      "max" : [ 38.0711, 1.48917e-16, -0 ],
      "componentType" : 5126,
      "count" : 5668,
      "type" : "VEC3"
    },
    {
      "bufferView" : 2,
      "componentType" : 5126,
      "count" : 5668,
      "type" : "VEC3"
    },
    {
      "bufferView" : 3,
      "componentType" : 5126,
      "count" : 5668,
      "type" : "VEC4"
    },
    {
      "bufferView" : 4,
      "componentType" : 5126,
      "count" : 5668,
      "type" : "VEC2"
    },
    {
      "bufferView" : 5,
      "componentType" : 5126,
      "count" : 5668,
      "type" : "VEC2"
    }
  ]
}
