{
  "asset" : {
    "generator" : "UE Viewer (umodel) build 1579 based",
    "version" : "2.0"
  },
  "scene" : 0,
  "scenes" : [
    {
      "nodes" : [ 0 ]
    }
  ],
  "nodes" : [
    {
      "name" : "S_Envi_FZFBase_Ground_1o",
      "mesh" : 0
    }
  ],
  "materials" : [
    {
      "name" : "MI_Envi_FZFBase_Ground_05a",
      "pbrMetallicRoughness" : {
        "baseColorFactor" : [ 0.3, 0.3, 0.3, 1.0 ],
        "metallicFactor" : 0.1,
        "roughnessFactor" : 0.5
      }
    },
    {
      "name" : "MI_Envi_FZFBase_Ground_01a",
      "pbrMetallicRoughness" : {
        "baseColorFactor" : [ 0.9, 0.3, 0.3, 1.0 ],
        "metallicFactor" : 0.1,
        "roughnessFactor" : 0.5
      }
    },
    {
      "name" : "MI_Envi_FZFBase_Ground_05b",
      "pbrMetallicRoughness" : {
        "baseColorFactor" : [ 0.3, 0.9, 0.3, 1.0 ],
        "metallicFactor" : 0.1,
        "roughnessFactor" : 0.5
      }
    }
  ],
  "meshes" : [
    {
      "primitives" : [
        {
          "attributes" : {
            "POSITION" : 1,
            "NORMAL" : 2,
            "TANGENT" : 3,
            "TEXCOORD_0" : 4,
            "TEXCOORD_1" : 5,
            "TEXCOORD_2" : 6,
            "TEXCOORD_3" : 7
          },
          "indices" : 0,
          "material" : 0
        },
        {
          "attributes" : {
            "POSITION" : 9,
            "NORMAL" : 10,
            "TANGENT" : 11,
            "TEXCOORD_0" : 12,
            "TEXCOORD_1" : 13,
            "TEXCOORD_2" : 14,
            "TEXCOORD_3" : 15
          },
          "indices" : 8,
          "material" : 1
        },
        {
          "attributes" : {
            "POSITION" : 17,
            "NORMAL" : 18,
            "TANGENT" : 19,
            "TEXCOORD_0" : 20,
            "TEXCOORD_1" : 21,
            "TEXCOORD_2" : 22,
            "TEXCOORD_3" : 23
          },
          "indices" : 16,
          "material" : 2
        }
      ],
      "name" : "S_Envi_FZFBase_Ground_1o"
    }
  ],
  "buffers" : [
    {
      "uri" : "S_Envi_FZFBase_Ground_1o.bin",
      "byteLength" : 278960
    }
  ],
  "bufferViews" : [
    {
      "buffer" : 0,
      "byteOffset" : 0,
      "byteLength" : 9252
    },
    {
      "buffer" : 0,
      "byteOffset" : 9252,
      "byteLength" : 17748
    },
    {
      "buffer" : 0,
      "byteOffset" : 27000,
      "byteLength" : 17748
    },
    {
      "buffer" : 0,
      "byteOffset" : 44748,
      "byteLength" : 23664
    },
    {
      "buffer" : 0,
      "byteOffset" : 68412,
      "byteLength" : 11832
    },
    {
      "buffer" : 0,
      "byteOffset" : 80244,
      "byteLength" : 11832
    },
    {
      "buffer" : 0,
      "byteOffset" : 92076,
      "byteLength" : 11832
    },
    {
      "buffer" : 0,
      "byteOffset" : 103908,
      "byteLength" : 11832
    },
    {
      "buffer" : 0,
      "byteOffset" : 115740,
      "byteLength" : 8892
    },
    {
      "buffer" : 0,
      "byteOffset" : 124632,
      "byteLength" : 22404
    },
    {
      "buffer" : 0,
      "byteOffset" : 147036,
      "byteLength" : 22404
    },
    {
      "buffer" : 0,
      "byteOffset" : 169440,
      "byteLength" : 29872
    },
    {
      "buffer" : 0,
      "byteOffset" : 199312,
      "byteLength" : 14936
    },
    {
      "buffer" : 0,
      "byteOffset" : 214248,
      "byteLength" : 14936
    },
    {
      "buffer" : 0,
      "byteOffset" : 229184,
      "byteLength" : 14936
    },
    {
      "buffer" : 0,
      "byteOffset" : 244120,
      "byteLength" : 14936
    },
    {
      "buffer" : 0,
      "byteOffset" : 259056,
      "byteLength" : 1040
    },
    {
      "buffer" : 0,
      "byteOffset" : 260096,
      "byteLength" : 3144
    },
    {
      "buffer" : 0,
      "byteOffset" : 263240,
      "byteLength" : 3144
    },
    {
      "buffer" : 0,
      "byteOffset" : 266384,
      "byteLength" : 4192
    },
    {
      "buffer" : 0,
      "byteOffset" : 270576,
      "byteLength" : 2096
    },
    {
      "buffer" : 0,
      "byteOffset" : 272672,
      "byteLength" : 2096
    },
    {
      "buffer" : 0,
      "byteOffset" : 274768,
      "byteLength" : 2096
    },
    {
      "buffer" : 0,
      "byteOffset" : 276864,
      "byteLength" : 2096
    }
  ],
  "accessors" : [
    {
      "bufferView" : 0,
      "componentType" : 5123,
      "count" : 4626,
      "type" : "SCALAR"
    },
    {
      "bufferView" : 1,
      "min" : [ 26.1338, -0.00352417, -11.2046 ],
      "max" : [ 51.7937, 2.02728, 11.7449 ],
      "componentType" : 5126,
      "count" : 1479,
      "type" : "VEC3"
    },
    {
      "bufferView" : 2,
      "componentType" : 5126,
      "count" : 1479,
      "type" : "VEC3"
    },
    {
      "bufferView" : 3,
      "componentType" : 5126,
      "count" : 1479,
      "type" : "VEC4"
    },
    {
      "bufferView" : 4,
      "componentType" : 5126,
      "count" : 1479,
      "type" : "VEC2"
    },
    {
      "bufferView" : 5,
      "componentType" : 5126,
      "count" : 1479,
      "type" : "VEC2"
    },
    {
      "bufferView" : 6,
      "componentType" : 5126,
      "count" : 1479,
      "type" : "VEC2"
    },
    {
      "bufferView" : 7,
      "componentType" : 5126,
      "count" : 1479,
      "type" : "VEC2"
    },
    {
      "bufferView" : 8,
      "componentType" : 5123,
      "count" : 4446,
      "type" : "SCALAR"
    },
    {
      "bufferView" : 9,
      "min" : [ 25.3973, -0.00538836, -13.3749 ],
      "max" : [ 51.963, 1.98015, 13.5734 ],
      "componentType" : 5126,
      "count" : 1867,
      "type" : "VEC3"
    },
    {
      "bufferView" : 10,
      "componentType" : 5126,
      "count" : 1867,
      "type" : "VEC3"
    },
    {
      "bufferView" : 11,
      "componentType" : 5126,
      "count" : 1867,
      "type" : "VEC4"
    },
    {
      "bufferView" : 12,
      "componentType" : 5126,
      "count" : 1867,
      "type" : "VEC2"
    },
    {
      "bufferView" : 13,
      "componentType" : 5126,
      "count" : 1867,
      "type" : "VEC2"
    },
    {
      "bufferView" : 14,
      "componentType" : 5126,
      "count" : 1867,
      "type" : "VEC2"
    },
    {
      "bufferView" : 15,
      "componentType" : 5126,
      "count" : 1867,
      "type" : "VEC2"
    },
    {
      "bufferView" : 16,
      "componentType" : 5123,
      "count" : 519,
      "type" : "SCALAR"
    },
    {
      "bufferView" : 17,
      "min" : [ 34.4123, 1.96709, -14.0464 ],
      "max" : [ 52.0186, 1.98015, -2.47854 ],
      "componentType" : 5126,
      "count" : 262,
      "type" : "VEC3"
    },
    {
      "bufferView" : 18,
      "componentType" : 5126,
      "count" : 262,
      "type" : "VEC3"
    },
    {
      "bufferView" : 19,
      "componentType" : 5126,
      "count" : 262,
      "type" : "VEC4"
    },
    {
      "bufferView" : 20,
      "componentType" : 5126,
      "count" : 262,
      "type" : "VEC2"
    },
    {
      "bufferView" : 21,
      "componentType" : 5126,
      "count" : 262,
      "type" : "VEC2"
    },
    {
      "bufferView" : 22,
      "componentType" : 5126,
      "count" : 262,
      "type" : "VEC2"
    },
    {
      "bufferView" : 23,
      "componentType" : 5126,
      "count" : 262,
      "type" : "VEC2"
    }
  ]
}
