{
  "asset" : {
    "generator" : "UE Viewer (umodel) build 1579 based",
    "version" : "2.0"
  },
  "scene" : 0,
  "scenes" : [
    {
      "nodes" : [ 0 ]
    }
  ],
  "nodes" : [
    {
      "name" : "S_Envi_FZFBase_metal_01k",
      "mesh" : 0
    }
  ],
  "materials" : [
    {
      "name" : "MI_Envi_FZFBase_metal_01b",
      "pbrMetallicRoughness" : {
        "baseColorFactor" : [ 0.3, 0.3, 0.3, 1.0 ],
        "metallicFactor" : 0.1,
        "roughnessFactor" : 0.5
      }
    }
  ],
  "meshes" : [
    {
      "primitives" : [
        {
          "attributes" : {
            "POSITION" : 1,
            "NORMAL" : 2,
            "TANGENT" : 3,
            "TEXCOORD_0" : 4,
            "TEXCOORD_1" : 5
          },
          "indices" : 0,
          "material" : 0
        }
      ],
      "name" : "S_Envi_FZFBase_metal_01k"
    }
  ],
  "buffers" : [
    {
      "uri" : "S_Envi_FZFBase_metal_01k.bin",
      "byteLength" : 16464
    }
  ],
  "bufferViews" : [
    {
      "buffer" : 0,
      "byteOffset" : 0,
      "byteLength" : 2016
    },
    {
      "buffer" : 0,
      "byteOffset" : 2016,
      "byteLength" : 3096
    },
    {
      "buffer" : 0,
      "byteOffset" : 5112,
      "byteLength" : 3096
    },
    {
      "buffer" : 0,
      "byteOffset" : 8208,
      "byteLength" : 4128
    },
    {
      "buffer" : 0,
      "byteOffset" : 12336,
      "byteLength" : 2064
    },
    {
      "buffer" : 0,
      "byteOffset" : 14400,
      "byteLength" : 2064
    }
  ],
  "accessors" : [
    {
      "bufferView" : 0,
      "componentType" : 5123,
      "count" : 1008,
      "type" : "SCALAR"
    },
    {
      "bufferView" : 1,
      "min" : [ -0.5, 4.76837e-09, 3.05176e-07 ],
      "max" : [ 0, 0.0663921, 2 ],
      "componentType" : 5126,
      "count" : 258,
      "type" : "VEC3"
    },
    {
      "bufferView" : 2,
      "componentType" : 5126,
      "count" : 258,
      "type" : "VEC3"
    },
    {
      "bufferView" : 3,
      "componentType" : 5126,
      "count" : 258,
      "type" : "VEC4"
    },
    {
      "bufferView" : 4,
      "componentType" : 5126,
      "count" : 258,
      "type" : "VEC2"
    },
    {
      "bufferView" : 5,
      "componentType" : 5126,
      "count" : 258,
      "type" : "VEC2"
    }
  ]
}
