{
  "asset" : {
    "generator" : "UE Viewer (umodel) build 1579 based",
    "version" : "2.0"
  },
  "scene" : 0,
  "scenes" : [
    {
      "nodes" : [ 0 ]
    }
  ],
  "nodes" : [
    {
      "name" : "S_Envi_FZFBase_metal_01o",
      "mesh" : 0
    }
  ],
  "materials" : [
    {
      "name" : "MI_Envi_FZFBase_metal_01b",
      "pbrMetallicRoughness" : {
        "baseColorFactor" : [ 0.3, 0.3, 0.3, 1.0 ],
        "metallicFactor" : 0.1,
        "roughnessFactor" : 0.5
      }
    }
  ],
  "meshes" : [
    {
      "primitives" : [
        {
          "attributes" : {
            "POSITION" : 1,
            "NORMAL" : 2,
            "TANGENT" : 3,
            "TEXCOORD_0" : 4
          },
          "indices" : 0,
          "material" : 0
        }
      ],
      "name" : "S_Envi_FZFBase_metal_01o"
    }
  ],
  "buffers" : [
    {
      "uri" : "S_Envi_FZFBase_metal_01o.bin",
      "byteLength" : 8064
    }
  ],
  "bufferViews" : [
    {
      "buffer" : 0,
      "byteOffset" : 0,
      "byteLength" : 1056
    },
    {
      "buffer" : 0,
      "byteOffset" : 1056,
      "byteLength" : 1752
    },
    {
      "buffer" : 0,
      "byteOffset" : 2808,
      "byteLength" : 1752
    },
    {
      "buffer" : 0,
      "byteOffset" : 4560,
      "byteLength" : 2336
    },
    {
      "buffer" : 0,
      "byteOffset" : 6896,
      "byteLength" : 1168
    }
  ],
  "accessors" : [
    {
      "bufferView" : 0,
      "componentType" : 5123,
      "count" : 528,
      "type" : "SCALAR"
    },
    {
      "bufferView" : 1,
      "min" : [ 0, 5.3801e-16, -0.496865 ],
      "max" : [ 1.0001, 0.0663921, -0 ],
      "componentType" : 5126,
      "count" : 146,
      "type" : "VEC3"
    },
    {
      "bufferView" : 2,
      "componentType" : 5126,
      "count" : 146,
      "type" : "VEC3"
    },
    {
      "bufferView" : 3,
      "componentType" : 5126,
      "count" : 146,
      "type" : "VEC4"
    },
    {
      "bufferView" : 4,
      "componentType" : 5126,
      "count" : 146,
      "type" : "VEC2"
    }
  ]
}
