{
  "asset" : {
    "generator" : "UE Viewer (umodel) build 1579 based",
    "version" : "2.0"
  },
  "scene" : 0,
  "scenes" : [
    {
      "nodes" : [ 0 ]
    }
  ],
  "nodes" : [
    {
      "name" : "S_Envi_Umeda_GodRay_03",
      "mesh" : 0
    }
  ],
  "materials" : [
    {
      "name" : "Mi_Envi_Umeda_GodRay_03",
      "pbrMetallicRoughness" : {
        "baseColorFactor" : [ 0.3, 0.3, 0.3, 1.0 ],
        "metallicFactor" : 0.1,
        "roughnessFactor" : 0.5
      }
    }
  ],
  "meshes" : [
    {
      "primitives" : [
        {
          "attributes" : {
            "POSITION" : 1,
            "NORMAL" : 2,
            "TANGENT" : 3,
            "TEXCOORD_0" : 4,
            "TEXCOORD_1" : 5
          },
          "indices" : 0,
          "material" : 0
        }
      ],
      "name" : "S_Envi_Umeda_GodRay_03"
    }
  ],
  "buffers" : [
    {
      "uri" : "S_Envi_Umeda_GodRay_03.bin",
      "byteLength" : 944
    }
  ],
  "bufferViews" : [
    {
      "buffer" : 0,
      "byteOffset" : 0,
      "byteLength" : 48
    },
    {
      "buffer" : 0,
      "byteOffset" : 48,
      "byteLength" : 192
    },
    {
      "buffer" : 0,
      "byteOffset" : 240,
      "byteLength" : 192
    },
    {
      "buffer" : 0,
      "byteOffset" : 432,
      "byteLength" : 256
    },
    {
      "buffer" : 0,
      "byteOffset" : 688,
      "byteLength" : 128
    },
    {
      "buffer" : 0,
      "byteOffset" : 816,
      "byteLength" : 128
    }
  ],
  "accessors" : [
    {
      "bufferView" : 0,
      "componentType" : 5123,
      "count" : 24,
      "type" : "SCALAR"
    },
    {
      "bufferView" : 1,
      "min" : [ -0.578445, -0.00904125, -0.293512 ],
      "max" : [ 0.578445, 1.05361, 0.293512 ],
      "componentType" : 5126,
      "count" : 16,
      "type" : "VEC3"
    },
    {
      "bufferView" : 2,
      "componentType" : 5126,
      "count" : 16,
      "type" : "VEC3"
    },
    {
      "bufferView" : 3,
      "componentType" : 5126,
      "count" : 16,
      "type" : "VEC4"
    },
    {
      "bufferView" : 4,
      "componentType" : 5126,
      "count" : 16,
      "type" : "VEC2"
    },
    {
      "bufferView" : 5,
      "componentType" : 5126,
      "count" : 16,
      "type" : "VEC2"
    }
  ]
}
