{
  "asset" : {
    "generator" : "UE Viewer (umodel) build 1579 based",
    "version" : "2.0"
  },
  "scene" : 0,
  "scenes" : [
    {
      "nodes" : [ 0 ]
    }
  ],
  "nodes" : [
    {
      "name" : "SK_Weap_Scar_H_102_Sight_Mesh",
      "mesh" : 0,
      "skin" : 0,
      "children" : [ 1 ]
    },
    {
      "name" : "Root",
      "translation" : [ -5.68434e-16, 0, 0 ],
      "rotation" : [ -1.36497e-07, -0, -0, 1 ]
    }
  ],
  "skins" : [
    {
      "inverseBindMatrices" : 0,
      "skeleton" : 1,
      "joints" : [
        1
      ]
    }
  ],
  "materials" : [
    {
      "name" : "MI_Weap_Scar_H_01_102",
      "pbrMetallicRoughness" : {
        "baseColorFactor" : [ 0.3, 0.3, 0.3, 1.0 ],
        "metallicFactor" : 0.1,
        "roughnessFactor" : 0.5
      }
    }
  ],
  "meshes" : [
    {
      "primitives" : [
        {
          "attributes" : {
            "POSITION" : 2,
            "NORMAL" : 3,
            "TANGENT" : 4,
            "JOINTS_0" : 5,
            "WEIGHTS_0" : 6,
            "TEXCOORD_0" : 7
          },
          "indices" : 1,
          "material" : 0
        }
      ],
      "name" : "SK_Weap_Scar_H_102_Sight_Mesh"
    }
  ],
  "buffers" : [
    {
      "uri" : "SK_Weap_Scar_H_102_Sight_Mesh.bin",
      "byteLength" : 71472
    }
  ],
  "bufferViews" : [
    {
      "buffer" : 0,
      "byteOffset" : 0,
      "byteLength" : 64
    },
    {
      "buffer" : 0,
      "byteOffset" : 64,
      "byteLength" : 6128
    },
    {
      "buffer" : 0,
      "byteOffset" : 6192,
      "byteLength" : 13056
    },
    {
      "buffer" : 0,
      "byteOffset" : 19248,
      "byteLength" : 13056
    },
    {
      "buffer" : 0,
      "byteOffset" : 32304,
      "byteLength" : 17408
    },
    {
      "buffer" : 0,
      "byteOffset" : 49712,
      "byteLength" : 8704
    },
    {
      "buffer" : 0,
      "byteOffset" : 58416,
      "byteLength" : 4352
    },
    {
      "buffer" : 0,
      "byteOffset" : 62768,
      "byteLength" : 8704
    }
  ],
  "accessors" : [
    {
      "bufferView" : 0,
      "componentType" : 5126,
      "count" : 1,
      "type" : "MAT4"
    },
    {
      "bufferView" : 1,
      "componentType" : 5123,
      "count" : 3063,
      "type" : "SCALAR"
    },
    {
      "bufferView" : 2,
      "min" : [ -0.0197076, -0.0412662, -0.0749692 ],
      "max" : [ 0.022594, -0.0154667, -0.00398078 ],
      "componentType" : 5126,
      "count" : 1088,
      "type" : "VEC3"
    },
    {
      "bufferView" : 3,
      "componentType" : 5126,
      "count" : 1088,
      "type" : "VEC3"
    },
    {
      "bufferView" : 4,
      "componentType" : 5126,
      "count" : 1088,
      "type" : "VEC4"
    },
    {
      "bufferView" : 5,
      "componentType" : 5123,
      "count" : 1088,
      "type" : "VEC4"
    },
    {
      "bufferView" : 6,
      "normalized" : true,
      "componentType" : 5121,
      "count" : 1088,
      "type" : "VEC4"
    },
    {
      "bufferView" : 7,
      "componentType" : 5126,
      "count" : 1088,
      "type" : "VEC2"
    }
  ]
}
