{
  "asset" : {
    "generator" : "UE Viewer (umodel) build 1579 based",
    "version" : "2.0"
  },
  "scene" : 0,
  "scenes" : [
    {
      "nodes" : [ 0 ]
    }
  ],
  "nodes" : [
    {
      "name" : "S_Envi_cap02",
      "mesh" : 0
    }
  ],
  "materials" : [
    {
      "name" : "MI_Envi_WiresWall_02",
      "pbrMetallicRoughness" : {
        "baseColorFactor" : [ 0.3, 0.3, 0.3, 1.0 ],
        "metallicFactor" : 0.1,
        "roughnessFactor" : 0.5
      }
    }
  ],
  "meshes" : [
    {
      "primitives" : [
        {
          "attributes" : {
            "POSITION" : 1,
            "NORMAL" : 2,
            "TANGENT" : 3,
            "TEXCOORD_0" : 4,
            "TEXCOORD_1" : 5
          },
          "indices" : 0,
          "material" : 0
        }
      ],
      "name" : "S_Envi_cap02"
    }
  ],
  "buffers" : [
    {
      "uri" : "S_Envi_cap02.bin",
      "byteLength" : 10600
    }
  ],
  "bufferViews" : [
    {
      "buffer" : 0,
      "byteOffset" : 0,
      "byteLength" : 1080
    },
    {
      "buffer" : 0,
      "byteOffset" : 1080,
      "byteLength" : 2040
    },
    {
      "buffer" : 0,
      "byteOffset" : 3120,
      "byteLength" : 2040
    },
    {
      "buffer" : 0,
      "byteOffset" : 5160,
      "byteLength" : 2720
    },
    {
      "buffer" : 0,
      "byteOffset" : 7880,
      "byteLength" : 1360
    },
    {
      "buffer" : 0,
      "byteOffset" : 9240,
      "byteLength" : 1360
    }
  ],
  "accessors" : [
    {
      "bufferView" : 0,
      "componentType" : 5123,
      "count" : 540,
      "type" : "SCALAR"
    },
    {
      "bufferView" : 1,
      "min" : [ -0.0922044, -0.0620562, -0.0630136 ],
      "max" : [ 0.0427553, 0.0620562, 0.0630136 ],
      "componentType" : 5126,
      "count" : 170,
      "type" : "VEC3"
    },
    {
      "bufferView" : 2,
      "componentType" : 5126,
      "count" : 170,
      "type" : "VEC3"
    },
    {
      "bufferView" : 3,
      "componentType" : 5126,
      "count" : 170,
      "type" : "VEC4"
    },
    {
      "bufferView" : 4,
      "componentType" : 5126,
      "count" : 170,
      "type" : "VEC2"
    },
    {
      "bufferView" : 5,
      "componentType" : 5126,
      "count" : 170,
      "type" : "VEC2"
    }
  ]
}
