{
  "asset" : {
    "generator" : "UE Viewer (umodel) build 1579 based",
    "version" : "2.0"
  },
  "scene" : 0,
  "scenes" : [
    {
      "nodes" : [ 0 ]
    }
  ],
  "nodes" : [
    {
      "name" : "S_Envi_Fyz_Disbuild_01a",
      "mesh" : 0
    }
  ],
  "materials" : [
    {
      "name" : "MI_Envi_Fyz_Disbuild_01",
      "pbrMetallicRoughness" : {
        "baseColorFactor" : [ 0.3, 0.3, 0.3, 1.0 ],
        "metallicFactor" : 0.1,
        "roughnessFactor" : 0.5
      }
    }
  ],
  "meshes" : [
    {
      "primitives" : [
        {
          "attributes" : {
            "POSITION" : 1,
            "NORMAL" : 2,
            "TANGENT" : 3,
            "TEXCOORD_0" : 4,
            "TEXCOORD_1" : 5
          },
          "indices" : 0,
          "material" : 0
        }
      ],
      "name" : "S_Envi_Fyz_Disbuild_01a"
    }
  ],
  "buffers" : [
    {
      "uri" : "S_Envi_Fyz_Disbuild_01a.bin",
      "byteLength" : 4596
    }
  ],
  "bufferViews" : [
    {
      "buffer" : 0,
      "byteOffset" : 0,
      "byteLength" : 228
    },
    {
      "buffer" : 0,
      "byteOffset" : 228,
      "byteLength" : 936
    },
    {
      "buffer" : 0,
      "byteOffset" : 1164,
      "byteLength" : 936
    },
    {
      "buffer" : 0,
      "byteOffset" : 2100,
      "byteLength" : 1248
    },
    {
      "buffer" : 0,
      "byteOffset" : 3348,
      "byteLength" : 624
    },
    {
      "buffer" : 0,
      "byteOffset" : 3972,
      "byteLength" : 624
    }
  ],
  "accessors" : [
    {
      "bufferView" : 0,
      "componentType" : 5123,
      "count" : 114,
      "type" : "SCALAR"
    },
    {
      "bufferView" : 1,
      "min" : [ -1.57958, -3.4551, -1.95926 ],
      "max" : [ 1.57958, 3.4551, 1.95926 ],
      "componentType" : 5126,
      "count" : 78,
      "type" : "VEC3"
    },
    {
      "bufferView" : 2,
      "componentType" : 5126,
      "count" : 78,
      "type" : "VEC3"
    },
    {
      "bufferView" : 3,
      "componentType" : 5126,
      "count" : 78,
      "type" : "VEC4"
    },
    {
      "bufferView" : 4,
      "componentType" : 5126,
      "count" : 78,
      "type" : "VEC2"
    },
    {
      "bufferView" : 5,
      "componentType" : 5126,
      "count" : 78,
      "type" : "VEC2"
    }
  ]
}
