{
  "asset" : {
    "generator" : "UE Viewer (umodel) build 1579 based",
    "version" : "2.0"
  },
  "scene" : 0,
  "scenes" : [
    {
      "nodes" : [ 0 ]
    }
  ],
  "nodes" : [
    {
      "name" : "S_Envi_Fyz_Distance_01v",
      "mesh" : 0
    }
  ],
  "materials" : [
    {
      "name" : "MI_Envi_Fyz_Floor_02a",
      "pbrMetallicRoughness" : {
        "baseColorFactor" : [ 0.3, 0.3, 0.3, 1.0 ],
        "metallicFactor" : 0.1,
        "roughnessFactor" : 0.5
      }
    },
    {
      "name" : "MI_Envi_Umeda_Base_Building_03_B",
      "pbrMetallicRoughness" : {
        "baseColorFactor" : [ 0.9, 0.3, 0.3, 1.0 ],
        "metallicFactor" : 0.1,
        "roughnessFactor" : 0.5
      }
    },
    {
      "name" : "MI_Envi_Fyz_Floor_03a",
      "pbrMetallicRoughness" : {
        "baseColorFactor" : [ 0.3, 0.9, 0.3, 1.0 ],
        "metallicFactor" : 0.1,
        "roughnessFactor" : 0.5
      }
    }
  ],
  "meshes" : [
    {
      "primitives" : [
        {
          "attributes" : {
            "POSITION" : 1,
            "NORMAL" : 2,
            "TANGENT" : 3,
            "TEXCOORD_0" : 4,
            "TEXCOORD_1" : 5,
            "TEXCOORD_2" : 6
          },
          "indices" : 0,
          "material" : 0
        },
        {
          "attributes" : {
            "POSITION" : 8,
            "NORMAL" : 9,
            "TANGENT" : 10,
            "TEXCOORD_0" : 11,
            "TEXCOORD_1" : 12,
            "TEXCOORD_2" : 13
          },
          "indices" : 7,
          "material" : 1
        },
        {
          "attributes" : {
            "POSITION" : 15,
            "NORMAL" : 16,
            "TANGENT" : 17,
            "TEXCOORD_0" : 18,
            "TEXCOORD_1" : 19,
            "TEXCOORD_2" : 20
          },
          "indices" : 14,
          "material" : 2
        }
      ],
      "name" : "S_Envi_Fyz_Distance_01v"
    }
  ],
  "buffers" : [
    {
      "uri" : "S_Envi_Fyz_Distance_01v.bin",
      "byteLength" : 63756
    }
  ],
  "bufferViews" : [
    {
      "buffer" : 0,
      "byteOffset" : 0,
      "byteLength" : 8592
    },
    {
      "buffer" : 0,
      "byteOffset" : 8592,
      "byteLength" : 9312
    },
    {
      "buffer" : 0,
      "byteOffset" : 17904,
      "byteLength" : 9312
    },
    {
      "buffer" : 0,
      "byteOffset" : 27216,
      "byteLength" : 12416
    },
    {
      "buffer" : 0,
      "byteOffset" : 39632,
      "byteLength" : 6208
    },
    {
      "buffer" : 0,
      "byteOffset" : 45840,
      "byteLength" : 6208
    },
    {
      "buffer" : 0,
      "byteOffset" : 52048,
      "byteLength" : 6208
    },
    {
      "buffer" : 0,
      "byteOffset" : 58256,
      "byteLength" : 168
    },
    {
      "buffer" : 0,
      "byteOffset" : 58424,
      "byteLength" : 336
    },
    {
      "buffer" : 0,
      "byteOffset" : 58760,
      "byteLength" : 336
    },
    {
      "buffer" : 0,
      "byteOffset" : 59096,
      "byteLength" : 448
    },
    {
      "buffer" : 0,
      "byteOffset" : 59544,
      "byteLength" : 224
    },
    {
      "buffer" : 0,
      "byteOffset" : 59768,
      "byteLength" : 224
    },
    {
      "buffer" : 0,
      "byteOffset" : 59992,
      "byteLength" : 224
    },
    {
      "buffer" : 0,
      "byteOffset" : 60216,
      "byteLength" : 404
    },
    {
      "buffer" : 0,
      "byteOffset" : 60620,
      "byteLength" : 588
    },
    {
      "buffer" : 0,
      "byteOffset" : 61208,
      "byteLength" : 588
    },
    {
      "buffer" : 0,
      "byteOffset" : 61796,
      "byteLength" : 784
    },
    {
      "buffer" : 0,
      "byteOffset" : 62580,
      "byteLength" : 392
    },
    {
      "buffer" : 0,
      "byteOffset" : 62972,
      "byteLength" : 392
    },
    {
      "buffer" : 0,
      "byteOffset" : 63364,
      "byteLength" : 392
    }
  ],
  "accessors" : [
    {
      "bufferView" : 0,
      "componentType" : 5123,
      "count" : 4296,
      "type" : "SCALAR"
    },
    {
      "bufferView" : 1,
      "min" : [ -14.1376, 0.0389551, -22.8104 ],
      "max" : [ 19.5709, 0.0389551, 20.3956 ],
      "componentType" : 5126,
      "count" : 776,
      "type" : "VEC3"
    },
    {
      "bufferView" : 2,
      "componentType" : 5126,
      "count" : 776,
      "type" : "VEC3"
    },
    {
      "bufferView" : 3,
      "componentType" : 5126,
      "count" : 776,
      "type" : "VEC4"
    },
    {
      "bufferView" : 4,
      "componentType" : 5126,
      "count" : 776,
      "type" : "VEC2"
    },
    {
      "bufferView" : 5,
      "componentType" : 5126,
      "count" : 776,
      "type" : "VEC2"
    },
    {
      "bufferView" : 6,
      "componentType" : 5126,
      "count" : 776,
      "type" : "VEC2"
    },
    {
      "bufferView" : 7,
      "componentType" : 5123,
      "count" : 84,
      "type" : "SCALAR"
    },
    {
      "bufferView" : 8,
      "min" : [ -14.1376, 0.0389551, -16.1231 ],
      "max" : [ 8.34961, 0.0389551, 20.3956 ],
      "componentType" : 5126,
      "count" : 28,
      "type" : "VEC3"
    },
    {
      "bufferView" : 9,
      "componentType" : 5126,
      "count" : 28,
      "type" : "VEC3"
    },
    {
      "bufferView" : 10,
      "componentType" : 5126,
      "count" : 28,
      "type" : "VEC4"
    },
    {
      "bufferView" : 11,
      "componentType" : 5126,
      "count" : 28,
      "type" : "VEC2"
    },
    {
      "bufferView" : 12,
      "componentType" : 5126,
      "count" : 28,
      "type" : "VEC2"
    },
    {
      "bufferView" : 13,
      "componentType" : 5126,
      "count" : 28,
      "type" : "VEC2"
    },
    {
      "bufferView" : 14,
      "componentType" : 5123,
      "count" : 201,
      "type" : "SCALAR"
    },
    {
      "bufferView" : 15,
      "min" : [ -19.5745, 0.0389551, -8.91407 ],
      "max" : [ -9.99354, 0.0389551, 3.13169 ],
      "componentType" : 5126,
      "count" : 49,
      "type" : "VEC3"
    },
    {
      "bufferView" : 16,
      "componentType" : 5126,
      "count" : 49,
      "type" : "VEC3"
    },
    {
      "bufferView" : 17,
      "componentType" : 5126,
      "count" : 49,
      "type" : "VEC4"
    },
    {
      "bufferView" : 18,
      "componentType" : 5126,
      "count" : 49,
      "type" : "VEC2"
    },
    {
      "bufferView" : 19,
      "componentType" : 5126,
      "count" : 49,
      "type" : "VEC2"
    },
    {
      "bufferView" : 20,
      "componentType" : 5126,
      "count" : 49,
      "type" : "VEC2"
    }
  ]
}
