{
  "asset" : {
    "generator" : "UE Viewer (umodel) build 1579 based",
    "version" : "2.0"
  },
  "scene" : 0,
  "scenes" : [
    {
      "nodes" : [ 0 ]
    }
  ],
  "nodes" : [
    {
      "name" : "S_Envi_Fyz_Space_02c",
      "mesh" : 0
    }
  ],
  "materials" : [
    {
      "name" : "MI_Envi_Fyz_Space_02b",
      "pbrMetallicRoughness" : {
        "baseColorFactor" : [ 0.3, 0.3, 0.3, 1.0 ],
        "metallicFactor" : 0.1,
        "roughnessFactor" : 0.5
      }
    },
    {
      "name" : "MI_Envi_Fyz_Space_02c",
      "pbrMetallicRoughness" : {
        "baseColorFactor" : [ 0.9, 0.3, 0.3, 1.0 ],
        "metallicFactor" : 0.1,
        "roughnessFactor" : 0.5
      }
    },
    {
      "name" : "MI_Envi_Fyz_Space_02a",
      "pbrMetallicRoughness" : {
        "baseColorFactor" : [ 0.3, 0.9, 0.3, 1.0 ],
        "metallicFactor" : 0.1,
        "roughnessFactor" : 0.5
      }
    }
  ],
  "meshes" : [
    {
      "primitives" : [
        {
          "attributes" : {
            "POSITION" : 1,
            "NORMAL" : 2,
            "TANGENT" : 3,
            "TEXCOORD_0" : 4,
            "TEXCOORD_1" : 5,
            "TEXCOORD_2" : 6,
            "TEXCOORD_3" : 7
          },
          "indices" : 0,
          "material" : 0
        },
        {
          "attributes" : {
            "POSITION" : 9,
            "NORMAL" : 10,
            "TANGENT" : 11,
            "TEXCOORD_0" : 12,
            "TEXCOORD_1" : 13,
            "TEXCOORD_2" : 14,
            "TEXCOORD_3" : 15
          },
          "indices" : 8,
          "material" : 1
        },
        {
          "attributes" : {
            "POSITION" : 17,
            "NORMAL" : 18,
            "TANGENT" : 19,
            "TEXCOORD_0" : 20,
            "TEXCOORD_1" : 21,
            "TEXCOORD_2" : 22,
            "TEXCOORD_3" : 23
          },
          "indices" : 16,
          "material" : 2
        }
      ],
      "name" : "S_Envi_Fyz_Space_02c"
    }
  ],
  "buffers" : [
    {
      "uri" : "S_Envi_Fyz_Space_02c.bin",
      "byteLength" : 148500
    }
  ],
  "bufferViews" : [
    {
      "buffer" : 0,
      "byteOffset" : 0,
      "byteLength" : 2724
    },
    {
      "buffer" : 0,
      "byteOffset" : 2724,
      "byteLength" : 5928
    },
    {
      "buffer" : 0,
      "byteOffset" : 8652,
      "byteLength" : 5928
    },
    {
      "buffer" : 0,
      "byteOffset" : 14580,
      "byteLength" : 7904
    },
    {
      "buffer" : 0,
      "byteOffset" : 22484,
      "byteLength" : 3952
    },
    {
      "buffer" : 0,
      "byteOffset" : 26436,
      "byteLength" : 3952
    },
    {
      "buffer" : 0,
      "byteOffset" : 30388,
      "byteLength" : 3952
    },
    {
      "buffer" : 0,
      "byteOffset" : 34340,
      "byteLength" : 3952
    },
    {
      "buffer" : 0,
      "byteOffset" : 38292,
      "byteLength" : 2280
    },
    {
      "buffer" : 0,
      "byteOffset" : 40572,
      "byteLength" : 7392
    },
    {
      "buffer" : 0,
      "byteOffset" : 47964,
      "byteLength" : 7392
    },
    {
      "buffer" : 0,
      "byteOffset" : 55356,
      "byteLength" : 9856
    },
    {
      "buffer" : 0,
      "byteOffset" : 65212,
      "byteLength" : 4928
    },
    {
      "buffer" : 0,
      "byteOffset" : 70140,
      "byteLength" : 4928
    },
    {
      "buffer" : 0,
      "byteOffset" : 75068,
      "byteLength" : 4928
    },
    {
      "buffer" : 0,
      "byteOffset" : 79996,
      "byteLength" : 4928
    },
    {
      "buffer" : 0,
      "byteOffset" : 84924,
      "byteLength" : 4680
    },
    {
      "buffer" : 0,
      "byteOffset" : 89604,
      "byteLength" : 9816
    },
    {
      "buffer" : 0,
      "byteOffset" : 99420,
      "byteLength" : 9816
    },
    {
      "buffer" : 0,
      "byteOffset" : 109236,
      "byteLength" : 13088
    },
    {
      "buffer" : 0,
      "byteOffset" : 122324,
      "byteLength" : 6544
    },
    {
      "buffer" : 0,
      "byteOffset" : 128868,
      "byteLength" : 6544
    },
    {
      "buffer" : 0,
      "byteOffset" : 135412,
      "byteLength" : 6544
    },
    {
      "buffer" : 0,
      "byteOffset" : 141956,
      "byteLength" : 6544
    }
  ],
  "accessors" : [
    {
      "bufferView" : 0,
      "componentType" : 5123,
      "count" : 1362,
      "type" : "SCALAR"
    },
    {
      "bufferView" : 1,
      "min" : [ -17.1085, -0.0169727, -14.8044 ],
      "max" : [ 19.2076, 7.00347, 13.2464 ],
      "componentType" : 5126,
      "count" : 494,
      "type" : "VEC3"
    },
    {
      "bufferView" : 2,
      "componentType" : 5126,
      "count" : 494,
      "type" : "VEC3"
    },
    {
      "bufferView" : 3,
      "componentType" : 5126,
      "count" : 494,
      "type" : "VEC4"
    },
    {
      "bufferView" : 4,
      "componentType" : 5126,
      "count" : 494,
      "type" : "VEC2"
    },
    {
      "bufferView" : 5,
      "componentType" : 5126,
      "count" : 494,
      "type" : "VEC2"
    },
    {
      "bufferView" : 6,
      "componentType" : 5126,
      "count" : 494,
      "type" : "VEC2"
    },
    {
      "bufferView" : 7,
      "componentType" : 5126,
      "count" : 494,
      "type" : "VEC2"
    },
    {
      "bufferView" : 8,
      "componentType" : 5123,
      "count" : 1140,
      "type" : "SCALAR"
    },
    {
      "bufferView" : 9,
      "min" : [ -15.6748, 0.767665, -16.4919 ],
      "max" : [ 17.7537, 7.09688, 11.0613 ],
      "componentType" : 5126,
      "count" : 616,
      "type" : "VEC3"
    },
    {
      "bufferView" : 10,
      "componentType" : 5126,
      "count" : 616,
      "type" : "VEC3"
    },
    {
      "bufferView" : 11,
      "componentType" : 5126,
      "count" : 616,
      "type" : "VEC4"
    },
    {
      "bufferView" : 12,
      "componentType" : 5126,
      "count" : 616,
      "type" : "VEC2"
    },
    {
      "bufferView" : 13,
      "componentType" : 5126,
      "count" : 616,
      "type" : "VEC2"
    },
    {
      "bufferView" : 14,
      "componentType" : 5126,
      "count" : 616,
      "type" : "VEC2"
    },
    {
      "bufferView" : 15,
      "componentType" : 5126,
      "count" : 616,
      "type" : "VEC2"
    },
    {
      "bufferView" : 16,
      "componentType" : 5123,
      "count" : 2340,
      "type" : "SCALAR"
    },
    {
      "bufferView" : 17,
      "min" : [ -12.9768, 0.00244385, -13.8777 ],
      "max" : [ 15.1342, 5.7019, 11.7206 ],
      "componentType" : 5126,
      "count" : 818,
      "type" : "VEC3"
    },
    {
      "bufferView" : 18,
      "componentType" : 5126,
      "count" : 818,
      "type" : "VEC3"
    },
    {
      "bufferView" : 19,
      "componentType" : 5126,
      "count" : 818,
      "type" : "VEC4"
    },
    {
      "bufferView" : 20,
      "componentType" : 5126,
      "count" : 818,
      "type" : "VEC2"
    },
    {
      "bufferView" : 21,
      "componentType" : 5126,
      "count" : 818,
      "type" : "VEC2"
    },
    {
      "bufferView" : 22,
      "componentType" : 5126,
      "count" : 818,
      "type" : "VEC2"
    },
    {
      "bufferView" : 23,
      "componentType" : 5126,
      "count" : 818,
      "type" : "VEC2"
    }
  ]
}
