{
  "asset" : {
    "generator" : "UE Viewer (umodel) build 1579 based",
    "version" : "2.0"
  },
  "scene" : 0,
  "scenes" : [
    {
      "nodes" : [ 0 ]
    }
  ],
  "nodes" : [
    {
      "name" : "S_Envi_Fyz_Distance_01t",
      "mesh" : 0
    }
  ],
  "materials" : [
    {
      "name" : "S_Envi_Fyz_Distance_01u",
      "pbrMetallicRoughness" : {
        "baseColorFactor" : [ 0.3, 0.3, 0.3, 1.0 ],
        "metallicFactor" : 0.1,
        "roughnessFactor" : 0.5
      }
    }
  ],
  "meshes" : [
    {
      "primitives" : [
        {
          "attributes" : {
            "POSITION" : 1,
            "NORMAL" : 2,
            "TANGENT" : 3,
            "TEXCOORD_0" : 4,
            "TEXCOORD_1" : 5
          },
          "indices" : 0,
          "material" : 0
        }
      ],
      "name" : "S_Envi_Fyz_Distance_01t"
    }
  ],
  "buffers" : [
    {
      "uri" : "S_Envi_Fyz_Distance_01t.bin",
      "byteLength" : 71084
    }
  ],
  "bufferViews" : [
    {
      "buffer" : 0,
      "byteOffset" : 0,
      "byteLength" : 11612
    },
    {
      "buffer" : 0,
      "byteOffset" : 11612,
      "byteLength" : 12744
    },
    {
      "buffer" : 0,
      "byteOffset" : 24356,
      "byteLength" : 12744
    },
    {
      "buffer" : 0,
      "byteOffset" : 37100,
      "byteLength" : 16992
    },
    {
      "buffer" : 0,
      "byteOffset" : 54092,
      "byteLength" : 8496
    },
    {
      "buffer" : 0,
      "byteOffset" : 62588,
      "byteLength" : 8496
    }
  ],
  "accessors" : [
    {
      "bufferView" : 0,
      "componentType" : 5123,
      "count" : 5805,
      "type" : "SCALAR"
    },
    {
      "bufferView" : 1,
      "min" : [ -488.649, -161.026, -298.395 ],
      "max" : [ -52.7386, -4.19255, 290.355 ],
      "componentType" : 5126,
      "count" : 1062,
      "type" : "VEC3"
    },
    {
      "bufferView" : 2,
      "componentType" : 5126,
      "count" : 1062,
      "type" : "VEC3"
    },
    {
      "bufferView" : 3,
      "componentType" : 5126,
      "count" : 1062,
      "type" : "VEC4"
    },
    {
      "bufferView" : 4,
      "componentType" : 5126,
      "count" : 1062,
      "type" : "VEC2"
    },
    {
      "bufferView" : 5,
      "componentType" : 5126,
      "count" : 1062,
      "type" : "VEC2"
    }
  ]
}
