{
  "asset" : {
    "generator" : "UE Viewer (umodel) build 1579 based",
    "version" : "2.0"
  },
  "scene" : 0,
  "scenes" : [
    {
      "nodes" : [ 0 ]
    }
  ],
  "nodes" : [
    {
      "name" : "S_Envi_Fyz_Space_01a",
      "mesh" : 0
    }
  ],
  "materials" : [
    {
      "name" : "MI_Envi_Fyz_Space_01a",
      "pbrMetallicRoughness" : {
        "baseColorFactor" : [ 0.3, 0.3, 0.3, 1.0 ],
        "metallicFactor" : 0.1,
        "roughnessFactor" : 0.5
      }
    },
    {
      "name" : "MI_PM_Glass_11b",
      "pbrMetallicRoughness" : {
        "baseColorFactor" : [ 0.9, 0.3, 0.3, 1.0 ],
        "metallicFactor" : 0.1,
        "roughnessFactor" : 0.5
      }
    }
  ],
  "meshes" : [
    {
      "primitives" : [
        {
          "attributes" : {
            "POSITION" : 1,
            "NORMAL" : 2,
            "TANGENT" : 3,
            "TEXCOORD_0" : 4,
            "TEXCOORD_1" : 5,
            "TEXCOORD_2" : 6,
            "TEXCOORD_3" : 7
          },
          "indices" : 0,
          "material" : 0
        },
        {
          "attributes" : {
            "POSITION" : 9,
            "NORMAL" : 10,
            "TANGENT" : 11,
            "TEXCOORD_0" : 12,
            "TEXCOORD_1" : 13,
            "TEXCOORD_2" : 14,
            "TEXCOORD_3" : 15
          },
          "indices" : 8,
          "material" : 1
        }
      ],
      "name" : "S_Envi_Fyz_Space_01a"
    }
  ],
  "buffers" : [
    {
      "uri" : "S_Envi_Fyz_Space_01a.bin",
      "byteLength" : 682812
    }
  ],
  "bufferViews" : [
    {
      "buffer" : 0,
      "byteOffset" : 0,
      "byteLength" : 29940
    },
    {
      "buffer" : 0,
      "byteOffset" : 29940,
      "byteLength" : 108612
    },
    {
      "buffer" : 0,
      "byteOffset" : 138552,
      "byteLength" : 108612
    },
    {
      "buffer" : 0,
      "byteOffset" : 247164,
      "byteLength" : 144816
    },
    {
      "buffer" : 0,
      "byteOffset" : 391980,
      "byteLength" : 72408
    },
    {
      "buffer" : 0,
      "byteOffset" : 464388,
      "byteLength" : 72408
    },
    {
      "buffer" : 0,
      "byteOffset" : 536796,
      "byteLength" : 72408
    },
    {
      "buffer" : 0,
      "byteOffset" : 609204,
      "byteLength" : 72408
    },
    {
      "buffer" : 0,
      "byteOffset" : 681612,
      "byteLength" : 48
    },
    {
      "buffer" : 0,
      "byteOffset" : 681660,
      "byteLength" : 192
    },
    {
      "buffer" : 0,
      "byteOffset" : 681852,
      "byteLength" : 192
    },
    {
      "buffer" : 0,
      "byteOffset" : 682044,
      "byteLength" : 256
    },
    {
      "buffer" : 0,
      "byteOffset" : 682300,
      "byteLength" : 128
    },
    {
      "buffer" : 0,
      "byteOffset" : 682428,
      "byteLength" : 128
    },
    {
      "buffer" : 0,
      "byteOffset" : 682556,
      "byteLength" : 128
    },
    {
      "buffer" : 0,
      "byteOffset" : 682684,
      "byteLength" : 128
    }
  ],
  "accessors" : [
    {
      "bufferView" : 0,
      "componentType" : 5123,
      "count" : 14970,
      "type" : "SCALAR"
    },
    {
      "bufferView" : 1,
      "min" : [ -380.629, -0.354922, -84.2725 ],
      "max" : [ 248.824, 604.779, 35.0077 ],
      "componentType" : 5126,
      "count" : 9051,
      "type" : "VEC3"
    },
    {
      "bufferView" : 2,
      "componentType" : 5126,
      "count" : 9051,
      "type" : "VEC3"
    },
    {
      "bufferView" : 3,
      "componentType" : 5126,
      "count" : 9051,
      "type" : "VEC4"
    },
    {
      "bufferView" : 4,
      "componentType" : 5126,
      "count" : 9051,
      "type" : "VEC2"
    },
    {
      "bufferView" : 5,
      "componentType" : 5126,
      "count" : 9051,
      "type" : "VEC2"
    },
    {
      "bufferView" : 6,
      "componentType" : 5126,
      "count" : 9051,
      "type" : "VEC2"
    },
    {
      "bufferView" : 7,
      "componentType" : 5126,
      "count" : 9051,
      "type" : "VEC2"
    },
    {
      "bufferView" : 8,
      "componentType" : 5123,
      "count" : 24,
      "type" : "SCALAR"
    },
    {
      "bufferView" : 9,
      "min" : [ -310.186, 71.8797, -59.7254 ],
      "max" : [ 178.381, 532.544, 7.76883 ],
      "componentType" : 5126,
      "count" : 16,
      "type" : "VEC3"
    },
    {
      "bufferView" : 10,
      "componentType" : 5126,
      "count" : 16,
      "type" : "VEC3"
    },
    {
      "bufferView" : 11,
      "componentType" : 5126,
      "count" : 16,
      "type" : "VEC4"
    },
    {
      "bufferView" : 12,
      "componentType" : 5126,
      "count" : 16,
      "type" : "VEC2"
    },
    {
      "bufferView" : 13,
      "componentType" : 5126,
      "count" : 16,
      "type" : "VEC2"
    },
    {
      "bufferView" : 14,
      "componentType" : 5126,
      "count" : 16,
      "type" : "VEC2"
    },
    {
      "bufferView" : 15,
      "componentType" : 5126,
      "count" : 16,
      "type" : "VEC2"
    }
  ]
}
