{
  "asset" : {
    "generator" : "UE Viewer (umodel) build 1579 based",
    "version" : "2.0"
  },
  "scene" : 0,
  "scenes" : [
    {
      "nodes" : [ 0 ]
    }
  ],
  "nodes" : [
    {
      "name" : "S_Envi_Fyz_Space_02e",
      "mesh" : 0
    }
  ],
  "materials" : [
    {
      "name" : "MI_Envi_Fyz_Space_02c",
      "pbrMetallicRoughness" : {
        "baseColorFactor" : [ 0.3, 0.3, 0.3, 1.0 ],
        "metallicFactor" : 0.1,
        "roughnessFactor" : 0.5
      }
    },
    {
      "name" : "MI_Envi_Fyz_Space_02a",
      "pbrMetallicRoughness" : {
        "baseColorFactor" : [ 0.9, 0.3, 0.3, 1.0 ],
        "metallicFactor" : 0.1,
        "roughnessFactor" : 0.5
      }
    },
    {
      "name" : "MI_Envi_Fyz_Space_02b",
      "pbrMetallicRoughness" : {
        "baseColorFactor" : [ 0.3, 0.9, 0.3, 1.0 ],
        "metallicFactor" : 0.1,
        "roughnessFactor" : 0.5
      }
    }
  ],
  "meshes" : [
    {
      "primitives" : [
        {
          "attributes" : {
            "POSITION" : 1,
            "NORMAL" : 2,
            "TANGENT" : 3,
            "TEXCOORD_0" : 4,
            "TEXCOORD_1" : 5,
            "TEXCOORD_2" : 6,
            "TEXCOORD_3" : 7
          },
          "indices" : 0,
          "material" : 0
        },
        {
          "attributes" : {
            "POSITION" : 9,
            "NORMAL" : 10,
            "TANGENT" : 11,
            "TEXCOORD_0" : 12,
            "TEXCOORD_1" : 13,
            "TEXCOORD_2" : 14,
            "TEXCOORD_3" : 15
          },
          "indices" : 8,
          "material" : 1
        },
        {
          "attributes" : {
            "POSITION" : 17,
            "NORMAL" : 18,
            "TANGENT" : 19,
            "TEXCOORD_0" : 20,
            "TEXCOORD_1" : 21,
            "TEXCOORD_2" : 22,
            "TEXCOORD_3" : 23
          },
          "indices" : 16,
          "material" : 2
        }
      ],
      "name" : "S_Envi_Fyz_Space_02e"
    }
  ],
  "buffers" : [
    {
      "uri" : "S_Envi_Fyz_Space_02e.bin",
      "byteLength" : 658688
    }
  ],
  "bufferViews" : [
    {
      "buffer" : 0,
      "byteOffset" : 0,
      "byteLength" : 15168
    },
    {
      "buffer" : 0,
      "byteOffset" : 15168,
      "byteLength" : 52140
    },
    {
      "buffer" : 0,
      "byteOffset" : 67308,
      "byteLength" : 52140
    },
    {
      "buffer" : 0,
      "byteOffset" : 119448,
      "byteLength" : 69520
    },
    {
      "buffer" : 0,
      "byteOffset" : 188968,
      "byteLength" : 34760
    },
    {
      "buffer" : 0,
      "byteOffset" : 223728,
      "byteLength" : 34760
    },
    {
      "buffer" : 0,
      "byteOffset" : 258488,
      "byteLength" : 34760
    },
    {
      "buffer" : 0,
      "byteOffset" : 293248,
      "byteLength" : 34760
    },
    {
      "buffer" : 0,
      "byteOffset" : 328008,
      "byteLength" : 12488
    },
    {
      "buffer" : 0,
      "byteOffset" : 340496,
      "byteLength" : 46812
    },
    {
      "buffer" : 0,
      "byteOffset" : 387308,
      "byteLength" : 46812
    },
    {
      "buffer" : 0,
      "byteOffset" : 434120,
      "byteLength" : 62416
    },
    {
      "buffer" : 0,
      "byteOffset" : 496536,
      "byteLength" : 31208
    },
    {
      "buffer" : 0,
      "byteOffset" : 527744,
      "byteLength" : 31208
    },
    {
      "buffer" : 0,
      "byteOffset" : 558952,
      "byteLength" : 31208
    },
    {
      "buffer" : 0,
      "byteOffset" : 590160,
      "byteLength" : 31208
    },
    {
      "buffer" : 0,
      "byteOffset" : 621368,
      "byteLength" : 1752
    },
    {
      "buffer" : 0,
      "byteOffset" : 623120,
      "byteLength" : 5928
    },
    {
      "buffer" : 0,
      "byteOffset" : 629048,
      "byteLength" : 5928
    },
    {
      "buffer" : 0,
      "byteOffset" : 634976,
      "byteLength" : 7904
    },
    {
      "buffer" : 0,
      "byteOffset" : 642880,
      "byteLength" : 3952
    },
    {
      "buffer" : 0,
      "byteOffset" : 646832,
      "byteLength" : 3952
    },
    {
      "buffer" : 0,
      "byteOffset" : 650784,
      "byteLength" : 3952
    },
    {
      "buffer" : 0,
      "byteOffset" : 654736,
      "byteLength" : 3952
    }
  ],
  "accessors" : [
    {
      "bufferView" : 0,
      "componentType" : 5123,
      "count" : 7584,
      "type" : "SCALAR"
    },
    {
      "bufferView" : 1,
      "min" : [ -191.751, 0.240565, -52.9847 ],
      "max" : [ -1.75128, 50.0333, 4.06369 ],
      "componentType" : 5126,
      "count" : 4345,
      "type" : "VEC3"
    },
    {
      "bufferView" : 2,
      "componentType" : 5126,
      "count" : 4345,
      "type" : "VEC3"
    },
    {
      "bufferView" : 3,
      "componentType" : 5126,
      "count" : 4345,
      "type" : "VEC4"
    },
    {
      "bufferView" : 4,
      "componentType" : 5126,
      "count" : 4345,
      "type" : "VEC2"
    },
    {
      "bufferView" : 5,
      "componentType" : 5126,
      "count" : 4345,
      "type" : "VEC2"
    },
    {
      "bufferView" : 6,
      "componentType" : 5126,
      "count" : 4345,
      "type" : "VEC2"
    },
    {
      "bufferView" : 7,
      "componentType" : 5126,
      "count" : 4345,
      "type" : "VEC2"
    },
    {
      "bufferView" : 8,
      "componentType" : 5123,
      "count" : 6243,
      "type" : "SCALAR"
    },
    {
      "bufferView" : 9,
      "min" : [ -194.34, -2.28587, -49.5667 ],
      "max" : [ -44.7674, 49.667, -0.420815 ],
      "componentType" : 5126,
      "count" : 3901,
      "type" : "VEC3"
    },
    {
      "bufferView" : 10,
      "componentType" : 5126,
      "count" : 3901,
      "type" : "VEC3"
    },
    {
      "bufferView" : 11,
      "componentType" : 5126,
      "count" : 3901,
      "type" : "VEC4"
    },
    {
      "bufferView" : 12,
      "componentType" : 5126,
      "count" : 3901,
      "type" : "VEC2"
    },
    {
      "bufferView" : 13,
      "componentType" : 5126,
      "count" : 3901,
      "type" : "VEC2"
    },
    {
      "bufferView" : 14,
      "componentType" : 5126,
      "count" : 3901,
      "type" : "VEC2"
    },
    {
      "bufferView" : 15,
      "componentType" : 5126,
      "count" : 3901,
      "type" : "VEC2"
    },
    {
      "bufferView" : 16,
      "componentType" : 5123,
      "count" : 876,
      "type" : "SCALAR"
    },
    {
      "bufferView" : 17,
      "min" : [ -168.281, 4.16802, -30.5687 ],
      "max" : [ -56.4687, 48.1017, -13.1001 ],
      "componentType" : 5126,
      "count" : 494,
      "type" : "VEC3"
    },
    {
      "bufferView" : 18,
      "componentType" : 5126,
      "count" : 494,
      "type" : "VEC3"
    },
    {
      "bufferView" : 19,
      "componentType" : 5126,
      "count" : 494,
      "type" : "VEC4"
    },
    {
      "bufferView" : 20,
      "componentType" : 5126,
      "count" : 494,
      "type" : "VEC2"
    },
    {
      "bufferView" : 21,
      "componentType" : 5126,
      "count" : 494,
      "type" : "VEC2"
    },
    {
      "bufferView" : 22,
      "componentType" : 5126,
      "count" : 494,
      "type" : "VEC2"
    },
    {
      "bufferView" : 23,
      "componentType" : 5126,
      "count" : 494,
      "type" : "VEC2"
    }
  ]
}
