{
  "asset" : {
    "generator" : "UE Viewer (umodel) build 1579 based",
    "version" : "2.0"
  },
  "scene" : 0,
  "scenes" : [
    {
      "nodes" : [ 0 ]
    }
  ],
  "nodes" : [
    {
      "name" : "S_Envi_Fyz_Space_02d",
      "mesh" : 0
    }
  ],
  "materials" : [
    {
      "name" : "MI_Envi_Fyz_Space_02b",
      "pbrMetallicRoughness" : {
        "baseColorFactor" : [ 0.3, 0.3, 0.3, 1.0 ],
        "metallicFactor" : 0.1,
        "roughnessFactor" : 0.5
      }
    },
    {
      "name" : "MI_Envi_Fyz_Space_02c",
      "pbrMetallicRoughness" : {
        "baseColorFactor" : [ 0.9, 0.3, 0.3, 1.0 ],
        "metallicFactor" : 0.1,
        "roughnessFactor" : 0.5
      }
    },
    {
      "name" : "MI_Envi_Fyz_Space_02a",
      "pbrMetallicRoughness" : {
        "baseColorFactor" : [ 0.3, 0.9, 0.3, 1.0 ],
        "metallicFactor" : 0.1,
        "roughnessFactor" : 0.5
      }
    }
  ],
  "meshes" : [
    {
      "primitives" : [
        {
          "attributes" : {
            "POSITION" : 1,
            "NORMAL" : 2,
            "TANGENT" : 3,
            "TEXCOORD_0" : 4,
            "TEXCOORD_1" : 5,
            "TEXCOORD_2" : 6,
            "TEXCOORD_3" : 7
          },
          "indices" : 0,
          "material" : 0
        },
        {
          "attributes" : {
            "POSITION" : 9,
            "NORMAL" : 10,
            "TANGENT" : 11,
            "TEXCOORD_0" : 12,
            "TEXCOORD_1" : 13,
            "TEXCOORD_2" : 14,
            "TEXCOORD_3" : 15
          },
          "indices" : 8,
          "material" : 1
        },
        {
          "attributes" : {
            "POSITION" : 17,
            "NORMAL" : 18,
            "TANGENT" : 19,
            "TEXCOORD_0" : 20,
            "TEXCOORD_1" : 21,
            "TEXCOORD_2" : 22,
            "TEXCOORD_3" : 23
          },
          "indices" : 16,
          "material" : 2
        }
      ],
      "name" : "S_Envi_Fyz_Space_02d"
    }
  ],
  "buffers" : [
    {
      "uri" : "S_Envi_Fyz_Space_02d.bin",
      "byteLength" : 95484
    }
  ],
  "bufferViews" : [
    {
      "buffer" : 0,
      "byteOffset" : 0,
      "byteLength" : 1632
    },
    {
      "buffer" : 0,
      "byteOffset" : 1632,
      "byteLength" : 5328
    },
    {
      "buffer" : 0,
      "byteOffset" : 6960,
      "byteLength" : 5328
    },
    {
      "buffer" : 0,
      "byteOffset" : 12288,
      "byteLength" : 7104
    },
    {
      "buffer" : 0,
      "byteOffset" : 19392,
      "byteLength" : 3552
    },
    {
      "buffer" : 0,
      "byteOffset" : 22944,
      "byteLength" : 3552
    },
    {
      "buffer" : 0,
      "byteOffset" : 26496,
      "byteLength" : 3552
    },
    {
      "buffer" : 0,
      "byteOffset" : 30048,
      "byteLength" : 3552
    },
    {
      "buffer" : 0,
      "byteOffset" : 33600,
      "byteLength" : 1824
    },
    {
      "buffer" : 0,
      "byteOffset" : 35424,
      "byteLength" : 6336
    },
    {
      "buffer" : 0,
      "byteOffset" : 41760,
      "byteLength" : 6336
    },
    {
      "buffer" : 0,
      "byteOffset" : 48096,
      "byteLength" : 8448
    },
    {
      "buffer" : 0,
      "byteOffset" : 56544,
      "byteLength" : 4224
    },
    {
      "buffer" : 0,
      "byteOffset" : 60768,
      "byteLength" : 4224
    },
    {
      "buffer" : 0,
      "byteOffset" : 64992,
      "byteLength" : 4224
    },
    {
      "buffer" : 0,
      "byteOffset" : 69216,
      "byteLength" : 4224
    },
    {
      "buffer" : 0,
      "byteOffset" : 73440,
      "byteLength" : 1020
    },
    {
      "buffer" : 0,
      "byteOffset" : 74460,
      "byteLength" : 3504
    },
    {
      "buffer" : 0,
      "byteOffset" : 77964,
      "byteLength" : 3504
    },
    {
      "buffer" : 0,
      "byteOffset" : 81468,
      "byteLength" : 4672
    },
    {
      "buffer" : 0,
      "byteOffset" : 86140,
      "byteLength" : 2336
    },
    {
      "buffer" : 0,
      "byteOffset" : 88476,
      "byteLength" : 2336
    },
    {
      "buffer" : 0,
      "byteOffset" : 90812,
      "byteLength" : 2336
    },
    {
      "buffer" : 0,
      "byteOffset" : 93148,
      "byteLength" : 2336
    }
  ],
  "accessors" : [
    {
      "bufferView" : 0,
      "componentType" : 5123,
      "count" : 816,
      "type" : "SCALAR"
    },
    {
      "bufferView" : 1,
      "min" : [ -24.3806, 0.441974, -20.4739 ],
      "max" : [ 24.3806, 4.34382, 20.1077 ],
      "componentType" : 5126,
      "count" : 444,
      "type" : "VEC3"
    },
    {
      "bufferView" : 2,
      "componentType" : 5126,
      "count" : 444,
      "type" : "VEC3"
    },
    {
      "bufferView" : 3,
      "componentType" : 5126,
      "count" : 444,
      "type" : "VEC4"
    },
    {
      "bufferView" : 4,
      "componentType" : 5126,
      "count" : 444,
      "type" : "VEC2"
    },
    {
      "bufferView" : 5,
      "componentType" : 5126,
      "count" : 444,
      "type" : "VEC2"
    },
    {
      "bufferView" : 6,
      "componentType" : 5126,
      "count" : 444,
      "type" : "VEC2"
    },
    {
      "bufferView" : 7,
      "componentType" : 5126,
      "count" : 444,
      "type" : "VEC2"
    },
    {
      "bufferView" : 8,
      "componentType" : 5123,
      "count" : 912,
      "type" : "SCALAR"
    },
    {
      "bufferView" : 9,
      "min" : [ -17.2779, 1.4542, -14.8125 ],
      "max" : [ 18.3243, 4.62987, 22.5637 ],
      "componentType" : 5126,
      "count" : 528,
      "type" : "VEC3"
    },
    {
      "bufferView" : 10,
      "componentType" : 5126,
      "count" : 528,
      "type" : "VEC3"
    },
    {
      "bufferView" : 11,
      "componentType" : 5126,
      "count" : 528,
      "type" : "VEC4"
    },
    {
      "bufferView" : 12,
      "componentType" : 5126,
      "count" : 528,
      "type" : "VEC2"
    },
    {
      "bufferView" : 13,
      "componentType" : 5126,
      "count" : 528,
      "type" : "VEC2"
    },
    {
      "bufferView" : 14,
      "componentType" : 5126,
      "count" : 528,
      "type" : "VEC2"
    },
    {
      "bufferView" : 15,
      "componentType" : 5126,
      "count" : 528,
      "type" : "VEC2"
    },
    {
      "bufferView" : 16,
      "componentType" : 5123,
      "count" : 510,
      "type" : "SCALAR"
    },
    {
      "bufferView" : 17,
      "min" : [ -7.44155, 2.46934, 7.46277 ],
      "max" : [ 15.6651, 2.84108, 15.7042 ],
      "componentType" : 5126,
      "count" : 292,
      "type" : "VEC3"
    },
    {
      "bufferView" : 18,
      "componentType" : 5126,
      "count" : 292,
      "type" : "VEC3"
    },
    {
      "bufferView" : 19,
      "componentType" : 5126,
      "count" : 292,
      "type" : "VEC4"
    },
    {
      "bufferView" : 20,
      "componentType" : 5126,
      "count" : 292,
      "type" : "VEC2"
    },
    {
      "bufferView" : 21,
      "componentType" : 5126,
      "count" : 292,
      "type" : "VEC2"
    },
    {
      "bufferView" : 22,
      "componentType" : 5126,
      "count" : 292,
      "type" : "VEC2"
    },
    {
      "bufferView" : 23,
      "componentType" : 5126,
      "count" : 292,
      "type" : "VEC2"
    }
  ]
}
