{
  "asset" : {
    "generator" : "UE Viewer (umodel) build 1579 based",
    "version" : "2.0"
  },
  "scene" : 0,
  "scenes" : [
    {
      "nodes" : [ 0 ]
    }
  ],
  "nodes" : [
    {
      "name" : "Audrey_PPM_skin_101",
      "mesh" : 0,
      "skin" : 0,
      "children" : [ 1 ]
    },
    {
      "name" : "root",
      "children" : [ 2, 84, 87 ],
      "translation" : [ 0, 0, 0 ],
      "rotation" : [ 3.06162e-17, -0, -0, 1 ]
    },
    {
      "name" : "Bip001",
      "children" : [ 3 ],
      "translation" : [ -5.22028e-08, 1.00024, -0.00444114 ],
      "rotation" : [ -4.156e-39, 0.707106, -4.156e-39, -0.707107 ]
    },
    {
      "name" : "Bip001-Pelvis",
      "children" : [ 4, 76, 80 ],
      "translation" : [ -6.10623e-17, 0, -9.31736e-23 ],
      "rotation" : [ 0.5, 0.499999, -0.5, -0.500001 ]
    },
    {
      "name" : "Bip001-Spine",
      "children" : [ 5, 37, 42, 45, 52, 56, 63, 67, 71 ],
      "translation" : [ 0.0770749, -1.33099e-07, -0.000982296 ],
      "rotation" : [ 2.05388e-06, -0.0297158, 8.04125e-07, -0.999558 ]
    },
    {
      "name" : "Bip001-Spine1",
      "children" : [ 6 ],
      "translation" : [ 0.0944991, -2.24419e-10, 8.09554e-05 ],
      "rotation" : [ -4.09862e-10, 0.0320063, 1.22902e-07, -0.999488 ]
    },
    {
      "name" : "Bip001-Spine2",
      "children" : [ 7, 17, 27 ],
      "translation" : [ 0.101875, -3.78026e-10, 0.000137261 ],
      "rotation" : [ 1.13788e-08, 0.0163827, -5.00693e-08, -0.999866 ]
    },
    {
      "name" : "Bip001-Neck",
      "children" : [ 8 ],
      "translation" : [ 0.185182, -4.05938e-08, -0.00528221 ],
      "rotation" : [ -4.00879e-10, -0.0139018, -5.29881e-08, -0.999903 ]
    },
    {
      "name" : "Bip001-Head",
      "children" : [ 9, 13 ],
      "translation" : [ 0.0528164, -1.45097e-15, 5.90714e-10 ],
      "rotation" : [ -1.18263e-08, 0.00420906, 9.19748e-08, -0.999991 ]
    },
    {
      "name" : "hair_up_l_01",
      "children" : [ 10 ],
      "translation" : [ 0.0127419, 0.0577907, 0.00918416 ],
      "rotation" : [ -0.0528075, -0.992161, -0.00602037, -0.113104 ]
    },
    {
      "name" : "hair_up_l_02",
      "children" : [ 11 ],
      "translation" : [ 0.0533814, 2.7358e-08, -3.98595e-07 ],
      "rotation" : [ -0.0256588, -0.00601203, -0.0307175, -0.999181 ]
    },
    {
      "name" : "hair_up_l_03",
      "children" : [ 12 ],
      "translation" : [ 0.0483815, -3.68758e-07, -1.48996e-07 ],
      "rotation" : [ -0.0152273, -0.041253, 0.151018, -0.987552 ]
    },
    {
      "name" : "hair_up_l_04",
      "translation" : [ 0.0612601, 3.20504e-07, -3.51357e-06 ],
      "rotation" : [ -0.00226736, -0.0252177, -0.0895201, -0.995663 ]
    },
    {
      "name" : "hair_up_r_01",
      "children" : [ 14 ],
      "translation" : [ 0.0127423, -0.0577876, 0.00918401 ],
      "rotation" : [ -0.113104, 0.0060204, 0.992161, -0.0528074 ]
    },
    {
      "name" : "hair_up_r_02",
      "children" : [ 15 ],
      "translation" : [ 0.0533814, -1.63543e-08, 3.87411e-07 ],
      "rotation" : [ 0.0256592, 0.00601182, -0.0307177, -0.999181 ]
    },
    {
      "name" : "hair_up_r_03",
      "children" : [ 16 ],
      "translation" : [ 0.0483813, 1.94365e-09, -7.7024e-08 ],
      "rotation" : [ 0.0152266, 0.0412532, 0.151018, -0.987552 ]
    },
    {
      "name" : "hair_up_r_04",
      "translation" : [ 0.0612605, 4.77903e-09, 3.49819e-06 ],
      "rotation" : [ 0.00226714, 0.0252174, -0.0895202, -0.995663 ]
    },
    {
      "name" : "Bip001-L-Clavicle",
      "children" : [ 18 ],
      "translation" : [ 0.155509, 0.0144977, -0.00393351 ],
      "rotation" : [ -0.656989, -0.753844, 0.00670407, -0.00637081 ]
    },
    {
      "name" : "Bip001-L-UpperArm",
      "children" : [ 19, 26 ],
      "translation" : [ 0.0849461, -9.73735e-08, 6.23839e-07 ],
      "rotation" : [ 0.0240737, -0.006865, 0.140054, -0.989827 ]
    },
    {
      "name" : "Bip001-L-Forearm",
      "children" : [ 20, 25 ],
      "translation" : [ 0.220671, 2.84217e-16, -1.77636e-17 ],
      "rotation" : [ -3.03046e-20, 0.00109184, 2.77556e-17, -0.999999 ]
    },
    {
      "name" : "Bip001-L-Hand",
      "children" : [ 21, 23 ],
      "translation" : [ 0.245752, 7.53578e-07, -2.82571e-07 ],
      "rotation" : [ -0.999584, -0.023934, -0.0114425, -0.0113186 ]
    },
    {
      "name" : "Bip001-L-Finger0",
      "children" : [ 22 ],
      "translation" : [ 0.057094, -0.0294122, 0.00136461 ],
      "rotation" : [ -0.416851, 0.0935555, 0.212511, -0.878818 ]
    },
    {
      "name" : "Bip001-L-Finger01",
      "translation" : [ 0.0208843, -3.73606e-09, 5.01043e-09 ],
      "rotation" : [ -1.48805e-09, 0.00783672, -2.00256e-09, -0.999969 ]
    },
    {
      "name" : "Bip001-L-Finger1",
      "children" : [ 24 ],
      "translation" : [ 0.0746777, -1.68981e-08, -6.71777e-10 ],
      "rotation" : [ 0.000398143, -0.00605745, 2.38011e-06, -0.999982 ]
    },
    {
      "name" : "Bip001-L-Finger11",
      "translation" : [ 0.0389924, -3.53564e-08, -5.26633e-09 ],
      "rotation" : [ -1.1222e-08, -0.0263142, 3.1522e-09, -0.999654 ]
    },
    {
      "name" : "Bip001-L-ForeTwist",
      "translation" : [ -6.58504e-07, 3.5204e-07, -4.63407e-07 ],
      "rotation" : [ 1.00729e-06, 3.61611e-07, -9.79871e-07, -1 ]
    },
    {
      "name" : "Bip001-LUpArmTwist",
      "translation" : [ -6.56685e-07, 6.05336e-09, -6.26638e-07 ],
      "rotation" : [ 8.37243e-07, 3.55972e-07, -7.22247e-07, -1 ]
    },
    {
      "name" : "Bip001-R-Clavicle",
      "children" : [ 28 ],
      "translation" : [ 0.155509, -0.0144977, -0.00393359 ],
      "rotation" : [ 0.656989, -0.753844, -0.00670616, -0.00637263 ]
    },
    {
      "name" : "Bip001-R-UpperArm",
      "children" : [ 29, 36 ],
      "translation" : [ 0.0849448, -2.57613e-08, 6.5926e-07 ],
      "rotation" : [ -0.0240731, -0.00686846, -0.140052, -0.989828 ]
    },
    {
      "name" : "Bip001-R-Forearm",
      "children" : [ 30, 35 ],
      "translation" : [ 0.220671, 0, -0 ],
      "rotation" : [ 6.96285e-18, 0.000863193, -2.77496e-17, -1 ]
    },
    {
      "name" : "Bip001-R-Hand",
      "children" : [ 31, 33 ],
      "translation" : [ 0.245753, 4.41002e-07, -4.07157e-07 ],
      "rotation" : [ -0.999584, 0.0239325, -0.0114424, 0.0113187 ]
    },
    {
      "name" : "Bip001-R-Finger0",
      "children" : [ 32 ],
      "translation" : [ 0.057094, 0.0294122, 0.00136461 ],
      "rotation" : [ 0.416851, 0.0935555, -0.212511, -0.878818 ]
    },
    {
      "name" : "Bip001-R-Finger01",
      "translation" : [ 0.0208843, -4.19694e-08, -3.99267e-08 ],
      "rotation" : [ 8.53676e-08, 0.00783672, -3.34154e-09, -0.999969 ]
    },
    {
      "name" : "Bip001-R-Finger1",
      "children" : [ 34 ],
      "translation" : [ 0.0746776, -1.75358e-09, -2.21106e-09 ],
      "rotation" : [ -0.000398144, -0.00605745, -2.42718e-06, -0.999982 ]
    },
    {
      "name" : "Bip001-R-Finger11",
      "translation" : [ 0.0389924, 5.81844e-09, -5.43083e-10 ],
      "rotation" : [ 1.00166e-08, -0.0263142, -3.50905e-08, -0.999654 ]
    },
    {
      "name" : "Bip001-R-ForeTwist",
      "translation" : [ 6.7079e-07, 6.98161e-08, -5.31403e-07 ],
      "rotation" : [ -6.53472e-07, 4.8731e-07, -5.19404e-07, -1 ]
    },
    {
      "name" : "Bip001-RUpArmTwist",
      "translation" : [ 6.32308e-07, -2.60844e-07, -6.40096e-07 ],
      "rotation" : [ -6.42015e-07, 1.3183e-08, -6.79661e-07, -1 ]
    },
    {
      "name" : "dress_m_r_01",
      "children" : [ 38 ],
      "translation" : [ 0.0966689, 0.0775797, 0.00225599 ],
      "rotation" : [ -0.115511, -0.732832, 0.65932, 0.122112 ]
    },
    {
      "name" : "dress_m_r_02",
      "children" : [ 39 ],
      "translation" : [ 0.0458648, -7.11637e-08, 6.54922e-08 ],
      "rotation" : [ 7.18287e-07, -0.0391326, -1.18641e-08, -0.999234 ]
    },
    {
      "name" : "dress_m_r_03",
      "children" : [ 40 ],
      "translation" : [ 0.0874535, -8.10577e-08, -8.68737e-08 ],
      "rotation" : [ 2.05788e-06, 0.0960553, 2.4705e-07, -0.995376 ]
    },
    {
      "name" : "dress_m_r_04",
      "children" : [ 41 ],
      "translation" : [ 0.079293, 7.77717e-08, 1.83976e-09 ],
      "rotation" : [ -5.02226e-08, 7.8088e-10, -1.4116e-09, -1 ]
    },
    {
      "name" : "dress_m_r_05",
      "translation" : [ 0.0761912, -8.27467e-08, -7.29359e-08 ],
      "rotation" : [ -7.37546e-07, -2.45444e-09, -1.75418e-09, -1 ]
    },
    {
      "name" : "dress_fm_l_01",
      "children" : [ 43 ],
      "translation" : [ 0.0939617, 0.0605572, -0.0128399 ],
      "rotation" : [ -0.071744, -0.880486, 0.466842, -0.040687 ]
    },
    {
      "name" : "dress_fm_l_02",
      "children" : [ 44 ],
      "translation" : [ 0.0541979, 3.58041e-08, 1.95995e-08 ],
      "rotation" : [ 3.32772e-07, -8.30341e-09, -0.0201518, -0.999797 ]
    },
    {
      "name" : "dress_fm_l_03",
      "translation" : [ 0.0851821, -3.90729e-09, -3.99177e-08 ],
      "rotation" : [ 6.86928e-07, -1.36239e-10, -0.00734303, -0.999973 ]
    },
    {
      "name" : "dress_bm_l_01",
      "children" : [ 46 ],
      "translation" : [ 0.0871012, 0.0291802, 0.0187476 ],
      "rotation" : [ -0.261336, -0.952612, 0.0588305, 0.144126 ]
    },
    {
      "name" : "dress_bm_l_02",
      "children" : [ 47 ],
      "translation" : [ 0.0470819, -1.69017e-07, -7.00389e-09 ],
      "rotation" : [ 1.56345e-06, -0, -0, -1 ]
    },
    {
      "name" : "dress_bm_l_03",
      "children" : [ 48 ],
      "translation" : [ 0.0867091, -7.94988e-08, 2.12621e-09 ],
      "rotation" : [ -9.26091e-07, 0.00498689, -7.41363e-09, -0.999988 ]
    },
    {
      "name" : "dress_bm_l_04",
      "children" : [ 49 ],
      "translation" : [ 0.084923, 8.54066e-08, -4.20957e-08 ],
      "rotation" : [ 2.85196e-09, -1.00241e-06, 9.58665e-07, -1 ]
    },
    {
      "name" : "dress_bm_l_05",
      "children" : [ 50 ],
      "translation" : [ 0.0841591, -5.70252e-08, 3.44394e-08 ],
      "rotation" : [ -1.49407e-09, 3.73235e-09, 4.83554e-08, -1 ]
    },
    {
      "name" : "dress_bm_l_06",
      "children" : [ 51 ],
      "translation" : [ 0.0938222, -4.37997e-07, -1.40408e-07 ],
      "rotation" : [ -7.95123e-07, -0.0493561, -3.84963e-07, -0.998781 ]
    },
    {
      "name" : "dress_bm_l_07",
      "translation" : [ 0.107275, -7.10543e-17, -3.8147e-08 ],
      "rotation" : [ 2.65478e-17, -0.0426064, -2.89129e-17, -0.999092 ]
    },
    {
      "name" : "dress_m_l_01",
      "children" : [ 53 ],
      "translation" : [ 0.0907351, -3.05176e-07, -0.0179407 ],
      "rotation" : [ -0.114661, -4.30269e-07, 0.993405, -4.96625e-08 ]
    },
    {
      "name" : "dress_m_l_02",
      "children" : [ 54 ],
      "translation" : [ 0.0544451, 7.40395e-08, -3.4846e-09 ],
      "rotation" : [ -1.14698e-07, 1.38778e-17, 1.16431e-23, -1 ]
    },
    {
      "name" : "dress_m_l_03",
      "children" : [ 55 ],
      "translation" : [ 0.085066, -3.75793e-15, -2.78891e-08 ],
      "rotation" : [ 2.38419e-07, -1.38778e-17, -1.65436e-23, -1 ]
    },
    {
      "name" : "dress_m_l_04",
      "translation" : [ 0.0883379, 1.19207e-09, 4.07905e-08 ],
      "rotation" : [ -2.38419e-07, 2.77556e-17, -1.98523e-23, -1 ]
    },
    {
      "name" : "dress_ffm_l_01",
      "children" : [ 57 ],
      "translation" : [ 0.0882088, -0.0301527, 0.0181639 ],
      "rotation" : [ 0.123761, 0.0102177, 0.954946, -0.26955 ]
    },
    {
      "name" : "dress_ffm_l_02",
      "children" : [ 58 ],
      "translation" : [ 0.047082, -2.18719e-07, -3.18136e-08 ],
      "rotation" : [ -1.51465e-06, -1.50701e-07, 3.70632e-09, -1 ]
    },
    {
      "name" : "dress_ffm_l_03",
      "children" : [ 59 ],
      "translation" : [ 0.0867092, -5.41201e-09, -8.1194e-08 ],
      "rotation" : [ 1.12976e-06, -0.00281828, -4.30031e-08, -0.999996 ]
    },
    {
      "name" : "dress_ffm_l_04",
      "children" : [ 60 ],
      "translation" : [ 0.084923, 1.54913e-07, -1.97254e-09 ],
      "rotation" : [ -2.9389e-07, 9.95174e-07, 9.25692e-07, -1 ]
    },
    {
      "name" : "dress_ffm_l_05",
      "children" : [ 61 ],
      "translation" : [ 0.084159, -2.15899e-07, -1.09705e-07 ],
      "rotation" : [ 2.14423e-07, -1.95531e-07, 5.47765e-08, -1 ]
    },
    {
      "name" : "dress_ffm_l_06",
      "children" : [ 62 ],
      "translation" : [ 0.0938217, 6.21443e-07, 2.30362e-07 ],
      "rotation" : [ 4.16209e-07, 0.0493562, -1.93342e-06, -0.998781 ]
    },
    {
      "name" : "dress_ffm_l_07",
      "translation" : [ 0.107275, -3.8147e-08, 7.62939e-08 ],
      "rotation" : [ -3.17719e-07, 0.0426064, 1.05768e-07, -0.999092 ]
    },
    {
      "name" : "dress_fm_r_01",
      "children" : [ 64 ],
      "translation" : [ 0.0834082, -0.061162, -0.00801322 ],
      "rotation" : [ -0.0335228, -0.480887, 0.864836, -0.140293 ]
    },
    {
      "name" : "dress_fm_r_02",
      "children" : [ 65 ],
      "translation" : [ 0.0400377, -1.45572e-07, 1.63923e-08 ],
      "rotation" : [ -1.59104e-07, 1.91947e-07, 9.11963e-07, -1 ]
    },
    {
      "name" : "dress_fm_r_03",
      "children" : [ 66 ],
      "translation" : [ 0.0828086, -1.88315e-07, 1.34976e-07 ],
      "rotation" : [ 9.23864e-07, -4.41091e-08, -4.24812e-08, -1 ]
    },
    {
      "name" : "dress_fm_r_04",
      "translation" : [ 0.104206, -8.13862e-08, 2.47398e-08 ],
      "rotation" : [ -3.89204e-07, -4.41091e-08, -4.24812e-08, -1 ]
    },
    {
      "name" : "dress_bm_r_01",
      "children" : [ 68 ],
      "translation" : [ 0.0829493, -0.0848124, 0.00286276 ],
      "rotation" : [ 0.102434, -0.694172, 0.70794, -0.0803369 ]
    },
    {
      "name" : "dress_bm_r_02",
      "children" : [ 69 ],
      "translation" : [ 0.031801, -8.95997e-09, 2.89392e-09 ],
      "rotation" : [ 3.0425e-08, 0.0504063, -3.76076e-09, -0.998729 ]
    },
    {
      "name" : "dress_bm_r_03",
      "children" : [ 70 ],
      "translation" : [ 0.0889078, -8.37952e-08, 9.35236e-08 ],
      "rotation" : [ -2.20191e-07, -0.0717193, 1.27715e-07, -0.997425 ]
    },
    {
      "name" : "dress_bm_r_04",
      "translation" : [ 0.111769, -1.31989e-07, 8.89439e-09 ],
      "rotation" : [ 7.0631e-07, -0.0251335, 4.1803e-08, -0.999684 ]
    },
    {
      "name" : "dress_ffm_r_01",
      "children" : [ 72 ],
      "translation" : [ 0.0894845, -1.5168e-07, 0.0115054 ],
      "rotation" : [ 0.0755603, 8.15396e-08, 0.997141, -1.9988e-07 ]
    },
    {
      "name" : "dress_ffm_r_02",
      "children" : [ 73 ],
      "translation" : [ 0.045842, -3.73413e-14, 3.29339e-09 ],
      "rotation" : [ 3.8111e-07, 8.08754e-15, 8.60216e-09, -1 ]
    },
    {
      "name" : "dress_ffm_r_03",
      "children" : [ 74 ],
      "translation" : [ 0.0938631, 9.86423e-09, -4.52764e-07 ],
      "rotation" : [ 1.19209e-06, -9.83501e-07, 3.99753e-07, -1 ]
    },
    {
      "name" : "dress_ffm_r_04",
      "children" : [ 75 ],
      "translation" : [ 0.0813157, 7.64237e-08, -8.18602e-09 ],
      "rotation" : [ -4.19326e-07, -1.45716e-08, 1.45428e-08, -1 ]
    },
    {
      "name" : "dress_ffm_r_05",
      "translation" : [ 0.08408, 5.96031e-10, -3.05354e-08 ],
      "rotation" : [ 8.77189e-09, 0.0122668, -7.15202e-07, -0.999925 ]
    },
    {
      "name" : "Bip001-L-Thigh",
      "children" : [ 77 ],
      "translation" : [ 9.74604e-08, 0.0641221, -1.32748e-07 ],
      "rotation" : [ 0.00916328, 0.00173072, 0.999952, -0.00310451 ]
    },
    {
      "name" : "Bip001-L-Calf",
      "children" : [ 78 ],
      "translation" : [ 0.442659, 2.15069e-09, 1.30608e-09 ],
      "rotation" : [ -4.11591e-09, 0.0258587, 3.64337e-10, -0.999666 ]
    },
    {
      "name" : "Bip001-L-Foot",
      "children" : [ 79 ],
      "translation" : [ 0.40145, -1.27812e-09, 7.28601e-09 ],
      "rotation" : [ 0.00180975, -0.0350153, 0.00305968, -0.99938 ]
    },
    {
      "name" : "Bip001-L-Toe0",
      "translation" : [ 0.157078, -1.5446e-09, -0.0148699 ],
      "rotation" : [ -7.09724e-09, -0.707107, -7.09737e-09, -0.707107 ]
    },
    {
      "name" : "Bip001-R-Thigh",
      "children" : [ 81 ],
      "translation" : [ -9.74604e-08, -0.0641221, 4.5129e-08 ],
      "rotation" : [ 0.00915673, -0.00172933, 0.999952, 0.00310616 ]
    },
    {
      "name" : "Bip001-R-Calf",
      "children" : [ 82 ],
      "translation" : [ 0.442659, -7.53692e-11, 1.54323e-09 ],
      "rotation" : [ -7.01272e-09, 0.0258697, -3.73945e-10, -0.999665 ]
    },
    {
      "name" : "Bip001-R-Foot",
      "children" : [ 83 ],
      "translation" : [ 0.401451, 1.77872e-09, 5.20077e-09 ],
      "rotation" : [ -0.00180976, -0.0350197, -0.00305941, -0.99938 ]
    },
    {
      "name" : "Bip001-R-Toe0",
      "translation" : [ 0.157078, -5.83834e-10, -0.0148699 ],
      "rotation" : [ -8.86777e-09, -0.707107, -2.99414e-08, -0.707107 ]
    },
    {
      "name" : "ik_foot_root",
      "children" : [ 85, 86 ],
      "translation" : [ 0, 0, -0 ],
      "rotation" : [ -0, -0, 0, -1 ]
    },
    {
      "name" : "ik_foot_l",
      "translation" : [ 0.0589831, 0.157204, -0.0406554 ],
      "rotation" : [ -0.707107, 0.707107, 3.27754e-07, -3.27754e-07 ]
    },
    {
      "name" : "ik_foot_r",
      "translation" : [ -0.0589826, 0.157205, -0.0406564 ],
      "rotation" : [ -0.707107, 0.707106, 4.43777e-07, -4.43777e-07 ]
    },
    {
      "name" : "ik_hand_root",
      "children" : [ 88 ],
      "translation" : [ 0, 0, -0 ],
      "rotation" : [ -0, -0, 0, -1 ]
    },
    {
      "name" : "ik_hand_gun",
      "children" : [ 89, 90, 91 ],
      "translation" : [ -0.524805, 1.2284, 0.0141047 ],
      "rotation" : [ 0.183761, -0.981393, 0.0540477, 0.0133921 ]
    },
    {
      "name" : "ik_hand_r",
      "translation" : [ 7.10542e-17, -2.84217e-16, 3.8147e-08 ],
      "rotation" : [ -6.9389e-18, 1.86264e-09, -1.29247e-26, -1 ]
    },
    {
      "name" : "ik_hand_l",
      "translation" : [ -0.978349, -0.380098, -0.00674326 ],
      "rotation" : [ -0.0064263, 6.19418e-07, 0.932105, -0.362132 ]
    },
    {
      "name" : "SocketADS",
      "translation" : [ -7.10542e-17, -2.84217e-16, -7.62939e-08 ],
      "rotation" : [ -3.72529e-09, 8.75443e-08, -2.98373e-16, -1 ]
    }
  ],
  "skins" : [
    {
      "inverseBindMatrices" : 0,
      "skeleton" : 1,
      "joints" : [
        1,2,3,4,5,6,7,8,9,10,11,12,13,14,15,16,17,18,19,20,21,22,23,24,25,26,27,28,29,30,31,32,
        33,34,35,36,37,38,39,40,41,42,43,44,45,46,47,48,49,50,51,52,53,54,55,56,57,58,59,60,61,62,63,64,
        65,66,67,68,69,70,71,72,73,74,75,76,77,78,79,80,81,82,83,84,85,86,87,88,89,90,91
      ]
    }
  ],
  "materials" : [
    {
      "name" : "MI_Audrey_PPM_101",
      "pbrMetallicRoughness" : {
        "baseColorFactor" : [ 0.3, 0.3, 0.3, 1.0 ],
        "metallicFactor" : 0.1,
        "roughnessFactor" : 0.5
      }
    }
  ],
  "meshes" : [
    {
      "primitives" : [
        {
          "attributes" : {
            "POSITION" : 2,
            "NORMAL" : 3,
            "TANGENT" : 4,
            "JOINTS_0" : 5,
            "WEIGHTS_0" : 6,
            "TEXCOORD_0" : 7
          },
          "indices" : 1,
          "material" : 0
        }
      ],
      "name" : "Audrey_PPM_skin_101"
    }
  ],
  "buffers" : [
    {
      "uri" : "Audrey_PPM_skin_101.bin",
      "byteLength" : 155788
    }
  ],
  "bufferViews" : [
    {
      "buffer" : 0,
      "byteOffset" : 0,
      "byteLength" : 5824
    },
    {
      "buffer" : 0,
      "byteOffset" : 5824,
      "byteLength" : 15864
    },
    {
      "buffer" : 0,
      "byteOffset" : 21688,
      "byteLength" : 26820
    },
    {
      "buffer" : 0,
      "byteOffset" : 48508,
      "byteLength" : 26820
    },
    {
      "buffer" : 0,
      "byteOffset" : 75328,
      "byteLength" : 35760
    },
    {
      "buffer" : 0,
      "byteOffset" : 111088,
      "byteLength" : 17880
    },
    {
      "buffer" : 0,
      "byteOffset" : 128968,
      "byteLength" : 8940
    },
    {
      "buffer" : 0,
      "byteOffset" : 137908,
      "byteLength" : 17880
    }
  ],
  "accessors" : [
    {
      "bufferView" : 0,
      "componentType" : 5126,
      "count" : 91,
      "type" : "MAT4"
    },
    {
      "bufferView" : 1,
      "componentType" : 5123,
      "count" : 7932,
      "type" : "SCALAR"
    },
    {
      "bufferView" : 2,
      "min" : [ -0.661405, -4e-08, -0.149719 ],
      "max" : [ 0.661405, 1.74481, 0.0666206 ],
      "componentType" : 5126,
      "count" : 2235,
      "type" : "VEC3"
    },
    {
      "bufferView" : 3,
      "componentType" : 5126,
      "count" : 2235,
      "type" : "VEC3"
    },
    {
      "bufferView" : 4,
      "componentType" : 5126,
      "count" : 2235,
      "type" : "VEC4"
    },
    {
      "bufferView" : 5,
      "componentType" : 5123,
      "count" : 2235,
      "type" : "VEC4"
    },
    {
      "bufferView" : 6,
      "normalized" : true,
      "componentType" : 5121,
      "count" : 2235,
      "type" : "VEC4"
    },
    {
      "bufferView" : 7,
      "componentType" : 5126,
      "count" : 2235,
      "type" : "VEC2"
    }
  ]
}
