{
  "asset" : {
    "generator" : "UE Viewer (umodel) build 1579 based",
    "version" : "2.0"
  },
  "scene" : 0,
  "scenes" : [
    {
      "nodes" : [ 0 ]
    }
  ],
  "nodes" : [
    {
      "name" : "S_Envi_Olgk_Ground_07a",
      "mesh" : 0
    }
  ],
  "materials" : [
    {
      "name" : "MI_Envi_common_Floor_03cb",
      "pbrMetallicRoughness" : {
        "baseColorFactor" : [ 0.3, 0.3, 0.3, 1.0 ],
        "metallicFactor" : 0.1,
        "roughnessFactor" : 0.5
      }
    }
  ],
  "meshes" : [
    {
      "primitives" : [
        {
          "attributes" : {
            "POSITION" : 1,
            "NORMAL" : 2,
            "TANGENT" : 3,
            "TEXCOORD_0" : 4,
            "TEXCOORD_1" : 5,
            "TEXCOORD_2" : 6,
            "TEXCOORD_3" : 7
          },
          "indices" : 0,
          "material" : 0
        }
      ],
      "name" : "S_Envi_Olgk_Ground_07a"
    }
  ],
  "buffers" : [
    {
      "uri" : "S_Envi_Olgk_Ground_07a.bin",
      "byteLength" : 23880
    }
  ],
  "bufferViews" : [
    {
      "buffer" : 0,
      "byteOffset" : 0,
      "byteLength" : 3072
    },
    {
      "buffer" : 0,
      "byteOffset" : 3072,
      "byteLength" : 3468
    },
    {
      "buffer" : 0,
      "byteOffset" : 6540,
      "byteLength" : 3468
    },
    {
      "buffer" : 0,
      "byteOffset" : 10008,
      "byteLength" : 4624
    },
    {
      "buffer" : 0,
      "byteOffset" : 14632,
      "byteLength" : 2312
    },
    {
      "buffer" : 0,
      "byteOffset" : 16944,
      "byteLength" : 2312
    },
    {
      "buffer" : 0,
      "byteOffset" : 19256,
      "byteLength" : 2312
    },
    {
      "buffer" : 0,
      "byteOffset" : 21568,
      "byteLength" : 2312
    }
  ],
  "accessors" : [
    {
      "bufferView" : 0,
      "componentType" : 5123,
      "count" : 1536,
      "type" : "SCALAR"
    },
    {
      "bufferView" : 1,
      "min" : [ -15.066, -9.39611e-16, -15.345 ],
      "max" : [ 15.066, 9.39611e-16, 15.345 ],
      "componentType" : 5126,
      "count" : 289,
      "type" : "VEC3"
    },
    {
      "bufferView" : 2,
      "componentType" : 5126,
      "count" : 289,
      "type" : "VEC3"
    },
    {
      "bufferView" : 3,
      "componentType" : 5126,
      "count" : 289,
      "type" : "VEC4"
    },
    {
      "bufferView" : 4,
      "componentType" : 5126,
      "count" : 289,
      "type" : "VEC2"
    },
    {
      "bufferView" : 5,
      "componentType" : 5126,
      "count" : 289,
      "type" : "VEC2"
    },
    {
      "bufferView" : 6,
      "componentType" : 5126,
      "count" : 289,
      "type" : "VEC2"
    },
    {
      "bufferView" : 7,
      "componentType" : 5126,
      "count" : 289,
      "type" : "VEC2"
    }
  ]
}
