{
  "asset" : {
    "generator" : "UE Viewer (umodel) build 1579 based",
    "version" : "2.0"
  },
  "scene" : 0,
  "scenes" : [
    {
      "nodes" : [ 0 ]
    }
  ],
  "nodes" : [
    {
      "name" : "S_Envi_Olgk_Ground_Merge_02g",
      "mesh" : 0
    }
  ],
  "materials" : [
    {
      "name" : "MI_Envi_Umeda_Prop_Platform_02c",
      "pbrMetallicRoughness" : {
        "baseColorFactor" : [ 0.3, 0.3, 0.3, 1.0 ],
        "metallicFactor" : 0.1,
        "roughnessFactor" : 0.5
      }
    }
  ],
  "meshes" : [
    {
      "primitives" : [
        {
          "attributes" : {
            "POSITION" : 1,
            "NORMAL" : 2,
            "TANGENT" : 3,
            "TEXCOORD_0" : 4,
            "TEXCOORD_1" : 5,
            "TEXCOORD_2" : 6,
            "TEXCOORD_3" : 7
          },
          "indices" : 0,
          "material" : 0
        }
      ],
      "name" : "S_Envi_Olgk_Ground_Merge_02g"
    }
  ],
  "buffers" : [
    {
      "uri" : "S_Envi_Olgk_Ground_Merge_02g.bin",
      "byteLength" : 90204
    }
  ],
  "bufferViews" : [
    {
      "buffer" : 0,
      "byteOffset" : 0,
      "byteLength" : 6324
    },
    {
      "buffer" : 0,
      "byteOffset" : 6324,
      "byteLength" : 13980
    },
    {
      "buffer" : 0,
      "byteOffset" : 20304,
      "byteLength" : 13980
    },
    {
      "buffer" : 0,
      "byteOffset" : 34284,
      "byteLength" : 18640
    },
    {
      "buffer" : 0,
      "byteOffset" : 52924,
      "byteLength" : 9320
    },
    {
      "buffer" : 0,
      "byteOffset" : 62244,
      "byteLength" : 9320
    },
    {
      "buffer" : 0,
      "byteOffset" : 71564,
      "byteLength" : 9320
    },
    {
      "buffer" : 0,
      "byteOffset" : 80884,
      "byteLength" : 9320
    }
  ],
  "accessors" : [
    {
      "bufferView" : 0,
      "componentType" : 5123,
      "count" : 3162,
      "type" : "SCALAR"
    },
    {
      "bufferView" : 1,
      "min" : [ -40.4017, 2.78487, -38.9342 ],
      "max" : [ -2.42987, 2.9836, 22.102 ],
      "componentType" : 5126,
      "count" : 1165,
      "type" : "VEC3"
    },
    {
      "bufferView" : 2,
      "componentType" : 5126,
      "count" : 1165,
      "type" : "VEC3"
    },
    {
      "bufferView" : 3,
      "componentType" : 5126,
      "count" : 1165,
      "type" : "VEC4"
    },
    {
      "bufferView" : 4,
      "componentType" : 5126,
      "count" : 1165,
      "type" : "VEC2"
    },
    {
      "bufferView" : 5,
      "componentType" : 5126,
      "count" : 1165,
      "type" : "VEC2"
    },
    {
      "bufferView" : 6,
      "componentType" : 5126,
      "count" : 1165,
      "type" : "VEC2"
    },
    {
      "bufferView" : 7,
      "componentType" : 5126,
      "count" : 1165,
      "type" : "VEC2"
    }
  ]
}
