{
  "asset" : {
    "generator" : "UE Viewer (umodel) build 1579 based",
    "version" : "2.0"
  },
  "scene" : 0,
  "scenes" : [
    {
      "nodes" : [ 0 ]
    }
  ],
  "nodes" : [
    {
      "name" : "S_Envi_Olgk_Ground_03e",
      "mesh" : 0
    }
  ],
  "materials" : [
    {
      "name" : "MI_Envi_common_Floor_03cb",
      "pbrMetallicRoughness" : {
        "baseColorFactor" : [ 0.3, 0.3, 0.3, 1.0 ],
        "metallicFactor" : 0.1,
        "roughnessFactor" : 0.5
      }
    }
  ],
  "meshes" : [
    {
      "primitives" : [
        {
          "attributes" : {
            "POSITION" : 1,
            "NORMAL" : 2,
            "TANGENT" : 3,
            "TEXCOORD_0" : 4,
            "TEXCOORD_1" : 5,
            "TEXCOORD_2" : 6,
            "TEXCOORD_3" : 7
          },
          "indices" : 0,
          "material" : 0
        }
      ],
      "name" : "S_Envi_Olgk_Ground_03e"
    }
  ],
  "buffers" : [
    {
      "uri" : "S_Envi_Olgk_Ground_03e.bin",
      "byteLength" : 34224
    }
  ],
  "bufferViews" : [
    {
      "buffer" : 0,
      "byteOffset" : 0,
      "byteLength" : 2184
    },
    {
      "buffer" : 0,
      "byteOffset" : 2184,
      "byteLength" : 5340
    },
    {
      "buffer" : 0,
      "byteOffset" : 7524,
      "byteLength" : 5340
    },
    {
      "buffer" : 0,
      "byteOffset" : 12864,
      "byteLength" : 7120
    },
    {
      "buffer" : 0,
      "byteOffset" : 19984,
      "byteLength" : 3560
    },
    {
      "buffer" : 0,
      "byteOffset" : 23544,
      "byteLength" : 3560
    },
    {
      "buffer" : 0,
      "byteOffset" : 27104,
      "byteLength" : 3560
    },
    {
      "buffer" : 0,
      "byteOffset" : 30664,
      "byteLength" : 3560
    }
  ],
  "accessors" : [
    {
      "bufferView" : 0,
      "componentType" : 5123,
      "count" : 1092,
      "type" : "SCALAR"
    },
    {
      "bufferView" : 1,
      "min" : [ -36.1669, 0.145595, 16.2097 ],
      "max" : [ 30.7081, 0.145596, 66.7799 ],
      "componentType" : 5126,
      "count" : 445,
      "type" : "VEC3"
    },
    {
      "bufferView" : 2,
      "componentType" : 5126,
      "count" : 445,
      "type" : "VEC3"
    },
    {
      "bufferView" : 3,
      "componentType" : 5126,
      "count" : 445,
      "type" : "VEC4"
    },
    {
      "bufferView" : 4,
      "componentType" : 5126,
      "count" : 445,
      "type" : "VEC2"
    },
    {
      "bufferView" : 5,
      "componentType" : 5126,
      "count" : 445,
      "type" : "VEC2"
    },
    {
      "bufferView" : 6,
      "componentType" : 5126,
      "count" : 445,
      "type" : "VEC2"
    },
    {
      "bufferView" : 7,
      "componentType" : 5126,
      "count" : 445,
      "type" : "VEC2"
    }
  ]
}
