{
  "asset" : {
    "generator" : "UE Viewer (umodel) build 1579 based",
    "version" : "2.0"
  },
  "scene" : 0,
  "scenes" : [
    {
      "nodes" : [ 0 ]
    }
  ],
  "nodes" : [
    {
      "name" : "S_Envi_Olgk_Ground_03d_Merge",
      "mesh" : 0
    }
  ],
  "materials" : [
    {
      "name" : "MI_Envi_common_Floor_02ac",
      "pbrMetallicRoughness" : {
        "baseColorFactor" : [ 0.3, 0.3, 0.3, 1.0 ],
        "metallicFactor" : 0.1,
        "roughnessFactor" : 0.5
      }
    }
  ],
  "meshes" : [
    {
      "primitives" : [
        {
          "attributes" : {
            "POSITION" : 1,
            "NORMAL" : 2,
            "TANGENT" : 3,
            "TEXCOORD_0" : 4,
            "TEXCOORD_1" : 5,
            "TEXCOORD_2" : 6,
            "TEXCOORD_3" : 7
          },
          "indices" : 0,
          "material" : 0
        }
      ],
      "name" : "S_Envi_Olgk_Ground_03d_Merge"
    }
  ],
  "buffers" : [
    {
      "uri" : "S_Envi_Olgk_Ground_03d_Merge.bin",
      "byteLength" : 260352
    }
  ],
  "bufferViews" : [
    {
      "buffer" : 0,
      "byteOffset" : 0,
      "byteLength" : 20448
    },
    {
      "buffer" : 0,
      "byteOffset" : 20448,
      "byteLength" : 39984
    },
    {
      "buffer" : 0,
      "byteOffset" : 60432,
      "byteLength" : 39984
    },
    {
      "buffer" : 0,
      "byteOffset" : 100416,
      "byteLength" : 53312
    },
    {
      "buffer" : 0,
      "byteOffset" : 153728,
      "byteLength" : 26656
    },
    {
      "buffer" : 0,
      "byteOffset" : 180384,
      "byteLength" : 26656
    },
    {
      "buffer" : 0,
      "byteOffset" : 207040,
      "byteLength" : 26656
    },
    {
      "buffer" : 0,
      "byteOffset" : 233696,
      "byteLength" : 26656
    }
  ],
  "accessors" : [
    {
      "bufferView" : 0,
      "componentType" : 5123,
      "count" : 10224,
      "type" : "SCALAR"
    },
    {
      "bufferView" : 1,
      "min" : [ -1.84718, 1.90263, -94.4582 ],
      "max" : [ 285.903, 1.90263, -77.555 ],
      "componentType" : 5126,
      "count" : 3332,
      "type" : "VEC3"
    },
    {
      "bufferView" : 2,
      "componentType" : 5126,
      "count" : 3332,
      "type" : "VEC3"
    },
    {
      "bufferView" : 3,
      "componentType" : 5126,
      "count" : 3332,
      "type" : "VEC4"
    },
    {
      "bufferView" : 4,
      "componentType" : 5126,
      "count" : 3332,
      "type" : "VEC2"
    },
    {
      "bufferView" : 5,
      "componentType" : 5126,
      "count" : 3332,
      "type" : "VEC2"
    },
    {
      "bufferView" : 6,
      "componentType" : 5126,
      "count" : 3332,
      "type" : "VEC2"
    },
    {
      "bufferView" : 7,
      "componentType" : 5126,
      "count" : 3332,
      "type" : "VEC2"
    }
  ]
}
