{
  "asset" : {
    "generator" : "UE Viewer (umodel) build 1579 based",
    "version" : "2.0"
  },
  "scene" : 0,
  "scenes" : [
    {
      "nodes" : [ 0 ]
    }
  ],
  "nodes" : [
    {
      "name" : "S_Envi_Olgk_Ground_03q_Merge",
      "mesh" : 0
    }
  ],
  "materials" : [
    {
      "name" : "MI_Envi_common_Floor_02ac",
      "pbrMetallicRoughness" : {
        "baseColorFactor" : [ 0.3, 0.3, 0.3, 1.0 ],
        "metallicFactor" : 0.1,
        "roughnessFactor" : 0.5
      }
    }
  ],
  "meshes" : [
    {
      "primitives" : [
        {
          "attributes" : {
            "POSITION" : 1,
            "NORMAL" : 2,
            "TANGENT" : 3,
            "TEXCOORD_0" : 4,
            "TEXCOORD_1" : 5,
            "TEXCOORD_2" : 6,
            "TEXCOORD_3" : 7
          },
          "indices" : 0,
          "material" : 0
        }
      ],
      "name" : "S_Envi_Olgk_Ground_03q_Merge"
    }
  ],
  "buffers" : [
    {
      "uri" : "S_Envi_Olgk_Ground_03q_Merge.bin",
      "byteLength" : 133824
    }
  ],
  "bufferViews" : [
    {
      "buffer" : 0,
      "byteOffset" : 0,
      "byteLength" : 9408
    },
    {
      "buffer" : 0,
      "byteOffset" : 9408,
      "byteLength" : 20736
    },
    {
      "buffer" : 0,
      "byteOffset" : 30144,
      "byteLength" : 20736
    },
    {
      "buffer" : 0,
      "byteOffset" : 50880,
      "byteLength" : 27648
    },
    {
      "buffer" : 0,
      "byteOffset" : 78528,
      "byteLength" : 13824
    },
    {
      "buffer" : 0,
      "byteOffset" : 92352,
      "byteLength" : 13824
    },
    {
      "buffer" : 0,
      "byteOffset" : 106176,
      "byteLength" : 13824
    },
    {
      "buffer" : 0,
      "byteOffset" : 120000,
      "byteLength" : 13824
    }
  ],
  "accessors" : [
    {
      "bufferView" : 0,
      "componentType" : 5123,
      "count" : 4704,
      "type" : "SCALAR"
    },
    {
      "bufferView" : 1,
      "min" : [ -113.166, 2.88917, -125.446 ],
      "max" : [ 66.132, 3.03917, 118.823 ],
      "componentType" : 5126,
      "count" : 1728,
      "type" : "VEC3"
    },
    {
      "bufferView" : 2,
      "componentType" : 5126,
      "count" : 1728,
      "type" : "VEC3"
    },
    {
      "bufferView" : 3,
      "componentType" : 5126,
      "count" : 1728,
      "type" : "VEC4"
    },
    {
      "bufferView" : 4,
      "componentType" : 5126,
      "count" : 1728,
      "type" : "VEC2"
    },
    {
      "bufferView" : 5,
      "componentType" : 5126,
      "count" : 1728,
      "type" : "VEC2"
    },
    {
      "bufferView" : 6,
      "componentType" : 5126,
      "count" : 1728,
      "type" : "VEC2"
    },
    {
      "bufferView" : 7,
      "componentType" : 5126,
      "count" : 1728,
      "type" : "VEC2"
    }
  ]
}
