{
  "asset" : {
    "generator" : "UE Viewer (umodel) build 1579 based",
    "version" : "2.0"
  },
  "scene" : 0,
  "scenes" : [
    {
      "nodes" : [ 0 ]
    }
  ],
  "nodes" : [
    {
      "name" : "S_Envi_Olgk_Ground_05c",
      "mesh" : 0
    }
  ],
  "materials" : [
    {
      "name" : "MI_Envi_Umeda_Aspot_floor_01a",
      "pbrMetallicRoughness" : {
        "baseColorFactor" : [ 0.3, 0.3, 0.3, 1.0 ],
        "metallicFactor" : 0.1,
        "roughnessFactor" : 0.5
      }
    }
  ],
  "meshes" : [
    {
      "primitives" : [
        {
          "attributes" : {
            "POSITION" : 1,
            "NORMAL" : 2,
            "TANGENT" : 3,
            "TEXCOORD_0" : 4,
            "TEXCOORD_1" : 5,
            "TEXCOORD_2" : 6,
            "TEXCOORD_3" : 7
          },
          "indices" : 0,
          "material" : 0
        }
      ],
      "name" : "S_Envi_Olgk_Ground_05c"
    }
  ],
  "buffers" : [
    {
      "uri" : "S_Envi_Olgk_Ground_05c.bin",
      "byteLength" : 42684
    }
  ],
  "bufferViews" : [
    {
      "buffer" : 0,
      "byteOffset" : 0,
      "byteLength" : 1932
    },
    {
      "buffer" : 0,
      "byteOffset" : 1932,
      "byteLength" : 6792
    },
    {
      "buffer" : 0,
      "byteOffset" : 8724,
      "byteLength" : 6792
    },
    {
      "buffer" : 0,
      "byteOffset" : 15516,
      "byteLength" : 9056
    },
    {
      "buffer" : 0,
      "byteOffset" : 24572,
      "byteLength" : 4528
    },
    {
      "buffer" : 0,
      "byteOffset" : 29100,
      "byteLength" : 4528
    },
    {
      "buffer" : 0,
      "byteOffset" : 33628,
      "byteLength" : 4528
    },
    {
      "buffer" : 0,
      "byteOffset" : 38156,
      "byteLength" : 4528
    }
  ],
  "accessors" : [
    {
      "bufferView" : 0,
      "componentType" : 5123,
      "count" : 966,
      "type" : "SCALAR"
    },
    {
      "bufferView" : 1,
      "min" : [ -4.98737, -0.000169716, -11.1181 ],
      "max" : [ 0.0172403, 0.253823, 0.00110687 ],
      "componentType" : 5126,
      "count" : 566,
      "type" : "VEC3"
    },
    {
      "bufferView" : 2,
      "componentType" : 5126,
      "count" : 566,
      "type" : "VEC3"
    },
    {
      "bufferView" : 3,
      "componentType" : 5126,
      "count" : 566,
      "type" : "VEC4"
    },
    {
      "bufferView" : 4,
      "componentType" : 5126,
      "count" : 566,
      "type" : "VEC2"
    },
    {
      "bufferView" : 5,
      "componentType" : 5126,
      "count" : 566,
      "type" : "VEC2"
    },
    {
      "bufferView" : 6,
      "componentType" : 5126,
      "count" : 566,
      "type" : "VEC2"
    },
    {
      "bufferView" : 7,
      "componentType" : 5126,
      "count" : 566,
      "type" : "VEC2"
    }
  ]
}
