{
  "asset" : {
    "generator" : "UE Viewer (umodel) build 1579 based",
    "version" : "2.0"
  },
  "scene" : 0,
  "scenes" : [
    {
      "nodes" : [ 0 ]
    }
  ],
  "nodes" : [
    {
      "name" : "S_Envi_Olgk_Ground_Merge_01",
      "mesh" : 0
    }
  ],
  "materials" : [
    {
      "name" : "MI_Envi_Olgk_Ground_Merge_01",
      "pbrMetallicRoughness" : {
        "baseColorFactor" : [ 0.3, 0.3, 0.3, 1.0 ],
        "metallicFactor" : 0.1,
        "roughnessFactor" : 0.5
      }
    },
    {
      "name" : "MI_Envi_Umeda_Aspot_slope_01",
      "pbrMetallicRoughness" : {
        "baseColorFactor" : [ 0.9, 0.3, 0.3, 1.0 ],
        "metallicFactor" : 0.1,
        "roughnessFactor" : 0.5
      }
    },
    {
      "name" : "MI_Envi_Umeda_Prop_Platform_02",
      "pbrMetallicRoughness" : {
        "baseColorFactor" : [ 0.3, 0.9, 0.3, 1.0 ],
        "metallicFactor" : 0.1,
        "roughnessFactor" : 0.5
      }
    }
  ],
  "meshes" : [
    {
      "primitives" : [
        {
          "attributes" : {
            "POSITION" : 1,
            "NORMAL" : 2,
            "TANGENT" : 3,
            "TEXCOORD_0" : 4,
            "TEXCOORD_1" : 5
          },
          "indices" : 0,
          "material" : 0
        },
        {
          "attributes" : {
            "POSITION" : 7,
            "NORMAL" : 8,
            "TANGENT" : 9,
            "TEXCOORD_0" : 10,
            "TEXCOORD_1" : 11
          },
          "indices" : 6,
          "material" : 1
        },
        {
          "attributes" : {
            "POSITION" : 13,
            "NORMAL" : 14,
            "TANGENT" : 15,
            "TEXCOORD_0" : 16,
            "TEXCOORD_1" : 17
          },
          "indices" : 12,
          "material" : 2
        }
      ],
      "name" : "S_Envi_Olgk_Ground_Merge_01"
    }
  ],
  "buffers" : [
    {
      "uri" : "S_Envi_Olgk_Ground_Merge_01.bin",
      "byteLength" : 977128
    }
  ],
  "bufferViews" : [
    {
      "buffer" : 0,
      "byteOffset" : 0,
      "byteLength" : 31164
    },
    {
      "buffer" : 0,
      "byteOffset" : 31164,
      "byteLength" : 92760
    },
    {
      "buffer" : 0,
      "byteOffset" : 123924,
      "byteLength" : 92760
    },
    {
      "buffer" : 0,
      "byteOffset" : 216684,
      "byteLength" : 123680
    },
    {
      "buffer" : 0,
      "byteOffset" : 340364,
      "byteLength" : 61840
    },
    {
      "buffer" : 0,
      "byteOffset" : 402204,
      "byteLength" : 61840
    },
    {
      "buffer" : 0,
      "byteOffset" : 464044,
      "byteLength" : 30240
    },
    {
      "buffer" : 0,
      "byteOffset" : 494284,
      "byteLength" : 99600
    },
    {
      "buffer" : 0,
      "byteOffset" : 593884,
      "byteLength" : 99600
    },
    {
      "buffer" : 0,
      "byteOffset" : 693484,
      "byteLength" : 132800
    },
    {
      "buffer" : 0,
      "byteOffset" : 826284,
      "byteLength" : 66400
    },
    {
      "buffer" : 0,
      "byteOffset" : 892684,
      "byteLength" : 66400
    },
    {
      "buffer" : 0,
      "byteOffset" : 959084,
      "byteLength" : 1020
    },
    {
      "buffer" : 0,
      "byteOffset" : 960104,
      "byteLength" : 3648
    },
    {
      "buffer" : 0,
      "byteOffset" : 963752,
      "byteLength" : 3648
    },
    {
      "buffer" : 0,
      "byteOffset" : 967400,
      "byteLength" : 4864
    },
    {
      "buffer" : 0,
      "byteOffset" : 972264,
      "byteLength" : 2432
    },
    {
      "buffer" : 0,
      "byteOffset" : 974696,
      "byteLength" : 2432
    }
  ],
  "accessors" : [
    {
      "bufferView" : 0,
      "componentType" : 5123,
      "count" : 15582,
      "type" : "SCALAR"
    },
    {
      "bufferView" : 1,
      "min" : [ -32.2666, 2.7566, 57.6438 ],
      "max" : [ 44.8543, 6.01807, 108.848 ],
      "componentType" : 5126,
      "count" : 7730,
      "type" : "VEC3"
    },
    {
      "bufferView" : 2,
      "componentType" : 5126,
      "count" : 7730,
      "type" : "VEC3"
    },
    {
      "bufferView" : 3,
      "componentType" : 5126,
      "count" : 7730,
      "type" : "VEC4"
    },
    {
      "bufferView" : 4,
      "componentType" : 5126,
      "count" : 7730,
      "type" : "VEC2"
    },
    {
      "bufferView" : 5,
      "componentType" : 5126,
      "count" : 7730,
      "type" : "VEC2"
    },
    {
      "bufferView" : 6,
      "componentType" : 5123,
      "count" : 15120,
      "type" : "SCALAR"
    },
    {
      "bufferView" : 7,
      "min" : [ -31.7613, 2.99801, 66.0866 ],
      "max" : [ 35.9592, 4.14498, 84.1195 ],
      "componentType" : 5126,
      "count" : 8300,
      "type" : "VEC3"
    },
    {
      "bufferView" : 8,
      "componentType" : 5126,
      "count" : 8300,
      "type" : "VEC3"
    },
    {
      "bufferView" : 9,
      "componentType" : 5126,
      "count" : 8300,
      "type" : "VEC4"
    },
    {
      "bufferView" : 10,
      "componentType" : 5126,
      "count" : 8300,
      "type" : "VEC2"
    },
    {
      "bufferView" : 11,
      "componentType" : 5126,
      "count" : 8300,
      "type" : "VEC2"
    },
    {
      "bufferView" : 12,
      "componentType" : 5123,
      "count" : 510,
      "type" : "SCALAR"
    },
    {
      "bufferView" : 13,
      "min" : [ -31.2452, 3.99528, 77.8864 ],
      "max" : [ 29.8071, 4.96237, 108.061 ],
      "componentType" : 5126,
      "count" : 304,
      "type" : "VEC3"
    },
    {
      "bufferView" : 14,
      "componentType" : 5126,
      "count" : 304,
      "type" : "VEC3"
    },
    {
      "bufferView" : 15,
      "componentType" : 5126,
      "count" : 304,
      "type" : "VEC4"
    },
    {
      "bufferView" : 16,
      "componentType" : 5126,
      "count" : 304,
      "type" : "VEC2"
    },
    {
      "bufferView" : 17,
      "componentType" : 5126,
      "count" : 304,
      "type" : "VEC2"
    }
  ]
}
