{
  "asset" : {
    "generator" : "UE Viewer (umodel) build 1579 based",
    "version" : "2.0"
  },
  "scene" : 0,
  "scenes" : [
    {
      "nodes" : [ 0 ]
    }
  ],
  "nodes" : [
    {
      "name" : "S_Envi_Olgk_Ground_Merge_02h",
      "mesh" : 0
    }
  ],
  "materials" : [
    {
      "name" : "MI__Envi_Olgk_Ground_Merge_02g",
      "pbrMetallicRoughness" : {
        "baseColorFactor" : [ 0.3, 0.3, 0.3, 1.0 ],
        "metallicFactor" : 0.1,
        "roughnessFactor" : 0.5
      }
    }
  ],
  "meshes" : [
    {
      "primitives" : [
        {
          "attributes" : {
            "POSITION" : 1,
            "NORMAL" : 2,
            "TANGENT" : 3,
            "TEXCOORD_0" : 4,
            "TEXCOORD_1" : 5,
            "TEXCOORD_2" : 6,
            "TEXCOORD_3" : 7
          },
          "indices" : 0,
          "material" : 0
        }
      ],
      "name" : "S_Envi_Olgk_Ground_Merge_02h"
    }
  ],
  "buffers" : [
    {
      "uri" : "S_Envi_Olgk_Ground_Merge_02h.bin",
      "byteLength" : 518000
    }
  ],
  "bufferViews" : [
    {
      "buffer" : 0,
      "byteOffset" : 0,
      "byteLength" : 28040
    },
    {
      "buffer" : 0,
      "byteOffset" : 28040,
      "byteLength" : 81660
    },
    {
      "buffer" : 0,
      "byteOffset" : 109700,
      "byteLength" : 81660
    },
    {
      "buffer" : 0,
      "byteOffset" : 191360,
      "byteLength" : 108880
    },
    {
      "buffer" : 0,
      "byteOffset" : 300240,
      "byteLength" : 54440
    },
    {
      "buffer" : 0,
      "byteOffset" : 354680,
      "byteLength" : 54440
    },
    {
      "buffer" : 0,
      "byteOffset" : 409120,
      "byteLength" : 54440
    },
    {
      "buffer" : 0,
      "byteOffset" : 463560,
      "byteLength" : 54440
    }
  ],
  "accessors" : [
    {
      "bufferView" : 0,
      "componentType" : 5123,
      "count" : 14019,
      "type" : "SCALAR"
    },
    {
      "bufferView" : 1,
      "min" : [ -30.797, -9.47003, -47.2118 ],
      "max" : [ -17.69, 5.91931, -20.15 ],
      "componentType" : 5126,
      "count" : 6805,
      "type" : "VEC3"
    },
    {
      "bufferView" : 2,
      "componentType" : 5126,
      "count" : 6805,
      "type" : "VEC3"
    },
    {
      "bufferView" : 3,
      "componentType" : 5126,
      "count" : 6805,
      "type" : "VEC4"
    },
    {
      "bufferView" : 4,
      "componentType" : 5126,
      "count" : 6805,
      "type" : "VEC2"
    },
    {
      "bufferView" : 5,
      "componentType" : 5126,
      "count" : 6805,
      "type" : "VEC2"
    },
    {
      "bufferView" : 6,
      "componentType" : 5126,
      "count" : 6805,
      "type" : "VEC2"
    },
    {
      "bufferView" : 7,
      "componentType" : 5126,
      "count" : 6805,
      "type" : "VEC2"
    }
  ]
}
