{
  "asset" : {
    "generator" : "UE Viewer (umodel) build 1579 based",
    "version" : "2.0"
  },
  "scene" : 0,
  "scenes" : [
    {
      "nodes" : [ 0 ]
    }
  ],
  "nodes" : [
    {
      "name" : "S_Envi_Olgk_dustbin_01a",
      "mesh" : 0
    }
  ],
  "materials" : [
    {
      "name" : "MI_Envi_Olgk_dustbin_01a",
      "pbrMetallicRoughness" : {
        "baseColorFactor" : [ 0.3, 0.3, 0.3, 1.0 ],
        "metallicFactor" : 0.1,
        "roughnessFactor" : 0.5
      }
    }
  ],
  "meshes" : [
    {
      "primitives" : [
        {
          "attributes" : {
            "POSITION" : 1,
            "NORMAL" : 2,
            "TANGENT" : 3,
            "TEXCOORD_0" : 4,
            "TEXCOORD_1" : 5
          },
          "indices" : 0,
          "material" : 0
        }
      ],
      "name" : "S_Envi_Olgk_dustbin_01a"
    }
  ],
  "buffers" : [
    {
      "uri" : "S_Envi_Olgk_dustbin_01a.bin",
      "byteLength" : 102924
    }
  ],
  "bufferViews" : [
    {
      "buffer" : 0,
      "byteOffset" : 0,
      "byteLength" : 7836
    },
    {
      "buffer" : 0,
      "byteOffset" : 7836,
      "byteLength" : 20376
    },
    {
      "buffer" : 0,
      "byteOffset" : 28212,
      "byteLength" : 20376
    },
    {
      "buffer" : 0,
      "byteOffset" : 48588,
      "byteLength" : 27168
    },
    {
      "buffer" : 0,
      "byteOffset" : 75756,
      "byteLength" : 13584
    },
    {
      "buffer" : 0,
      "byteOffset" : 89340,
      "byteLength" : 13584
    }
  ],
  "accessors" : [
    {
      "bufferView" : 0,
      "componentType" : 5123,
      "count" : 3918,
      "type" : "SCALAR"
    },
    {
      "bufferView" : 1,
      "min" : [ -1.63724, -0.010189, -0.959886 ],
      "max" : [ 1.63724, 2.4904, 1.18579 ],
      "componentType" : 5126,
      "count" : 1698,
      "type" : "VEC3"
    },
    {
      "bufferView" : 2,
      "componentType" : 5126,
      "count" : 1698,
      "type" : "VEC3"
    },
    {
      "bufferView" : 3,
      "componentType" : 5126,
      "count" : 1698,
      "type" : "VEC4"
    },
    {
      "bufferView" : 4,
      "componentType" : 5126,
      "count" : 1698,
      "type" : "VEC2"
    },
    {
      "bufferView" : 5,
      "componentType" : 5126,
      "count" : 1698,
      "type" : "VEC2"
    }
  ]
}
