{
  "asset" : {
    "generator" : "UE Viewer (umodel) build 1579 based",
    "version" : "2.0"
  },
  "scene" : 0,
  "scenes" : [
    {
      "nodes" : [ 0 ]
    }
  ],
  "nodes" : [
    {
      "name" : "S_Envi_Plant_Decal_10a_Merge",
      "mesh" : 0
    }
  ],
  "materials" : [
    {
      "name" : "MI_Envi_Plant_Decal_03",
      "pbrMetallicRoughness" : {
        "baseColorFactor" : [ 0.3, 0.3, 0.3, 1.0 ],
        "metallicFactor" : 0.1,
        "roughnessFactor" : 0.5
      }
    }
  ],
  "meshes" : [
    {
      "primitives" : [
        {
          "attributes" : {
            "POSITION" : 1,
            "NORMAL" : 2,
            "TANGENT" : 3,
            "TEXCOORD_0" : 4,
            "TEXCOORD_1" : 5
          },
          "indices" : 0,
          "material" : 0
        }
      ],
      "name" : "S_Envi_Plant_Decal_10a_Merge"
    }
  ],
  "buffers" : [
    {
      "uri" : "S_Envi_Plant_Decal_10a_Merge.bin",
      "byteLength" : 11568
    }
  ],
  "bufferViews" : [
    {
      "buffer" : 0,
      "byteOffset" : 0,
      "byteLength" : 1040
    },
    {
      "buffer" : 0,
      "byteOffset" : 1040,
      "byteLength" : 2256
    },
    {
      "buffer" : 0,
      "byteOffset" : 3296,
      "byteLength" : 2256
    },
    {
      "buffer" : 0,
      "byteOffset" : 5552,
      "byteLength" : 3008
    },
    {
      "buffer" : 0,
      "byteOffset" : 8560,
      "byteLength" : 1504
    },
    {
      "buffer" : 0,
      "byteOffset" : 10064,
      "byteLength" : 1504
    }
  ],
  "accessors" : [
    {
      "bufferView" : 0,
      "componentType" : 5123,
      "count" : 519,
      "type" : "SCALAR"
    },
    {
      "bufferView" : 1,
      "min" : [ 1.62889, 3.57647, -16.3927 ],
      "max" : [ 18.429, 9.16542, 17.4033 ],
      "componentType" : 5126,
      "count" : 188,
      "type" : "VEC3"
    },
    {
      "bufferView" : 2,
      "componentType" : 5126,
      "count" : 188,
      "type" : "VEC3"
    },
    {
      "bufferView" : 3,
      "componentType" : 5126,
      "count" : 188,
      "type" : "VEC4"
    },
    {
      "bufferView" : 4,
      "componentType" : 5126,
      "count" : 188,
      "type" : "VEC2"
    },
    {
      "bufferView" : 5,
      "componentType" : 5126,
      "count" : 188,
      "type" : "VEC2"
    }
  ]
}
