{
  "asset" : {
    "generator" : "UE Viewer (umodel) build 1579 based",
    "version" : "2.0"
  },
  "scene" : 0,
  "scenes" : [
    {
      "nodes" : [ 0 ]
    }
  ],
  "nodes" : [
    {
      "name" : "S_Envi_Olgk_Checkpoint_01c",
      "mesh" : 0
    }
  ],
  "materials" : [
    {
      "name" : "MI_Envi_Olgk_Checkpoint_01d",
      "pbrMetallicRoughness" : {
        "baseColorFactor" : [ 0.3, 0.3, 0.3, 1.0 ],
        "metallicFactor" : 0.1,
        "roughnessFactor" : 0.5
      }
    }
  ],
  "meshes" : [
    {
      "primitives" : [
        {
          "attributes" : {
            "POSITION" : 1,
            "NORMAL" : 2,
            "TANGENT" : 3,
            "TEXCOORD_0" : 4,
            "TEXCOORD_1" : 5,
            "TEXCOORD_2" : 6,
            "TEXCOORD_3" : 7
          },
          "indices" : 0,
          "material" : 0
        }
      ],
      "name" : "S_Envi_Olgk_Checkpoint_01c"
    }
  ],
  "buffers" : [
    {
      "uri" : "S_Envi_Olgk_Checkpoint_01c.bin",
      "byteLength" : 8520
    }
  ],
  "bufferViews" : [
    {
      "buffer" : 0,
      "byteOffset" : 0,
      "byteLength" : 456
    },
    {
      "buffer" : 0,
      "byteOffset" : 456,
      "byteLength" : 1344
    },
    {
      "buffer" : 0,
      "byteOffset" : 1800,
      "byteLength" : 1344
    },
    {
      "buffer" : 0,
      "byteOffset" : 3144,
      "byteLength" : 1792
    },
    {
      "buffer" : 0,
      "byteOffset" : 4936,
      "byteLength" : 896
    },
    {
      "buffer" : 0,
      "byteOffset" : 5832,
      "byteLength" : 896
    },
    {
      "buffer" : 0,
      "byteOffset" : 6728,
      "byteLength" : 896
    },
    {
      "buffer" : 0,
      "byteOffset" : 7624,
      "byteLength" : 896
    }
  ],
  "accessors" : [
    {
      "bufferView" : 0,
      "componentType" : 5123,
      "count" : 228,
      "type" : "SCALAR"
    },
    {
      "bufferView" : 1,
      "min" : [ -6.47229, -9.53674e-07, -1.05 ],
      "max" : [ -2.44141e-06, 0.917318, 0.0493529 ],
      "componentType" : 5126,
      "count" : 112,
      "type" : "VEC3"
    },
    {
      "bufferView" : 2,
      "componentType" : 5126,
      "count" : 112,
      "type" : "VEC3"
    },
    {
      "bufferView" : 3,
      "componentType" : 5126,
      "count" : 112,
      "type" : "VEC4"
    },
    {
      "bufferView" : 4,
      "componentType" : 5126,
      "count" : 112,
      "type" : "VEC2"
    },
    {
      "bufferView" : 5,
      "componentType" : 5126,
      "count" : 112,
      "type" : "VEC2"
    },
    {
      "bufferView" : 6,
      "componentType" : 5126,
      "count" : 112,
      "type" : "VEC2"
    },
    {
      "bufferView" : 7,
      "componentType" : 5126,
      "count" : 112,
      "type" : "VEC2"
    }
  ]
}
