{
  "asset" : {
    "generator" : "UE Viewer (umodel) build 1579 based",
    "version" : "2.0"
  },
  "scene" : 0,
  "scenes" : [
    {
      "nodes" : [ 0 ]
    }
  ],
  "nodes" : [
    {
      "name" : "S_Envi_Olgk_Pier_01i",
      "mesh" : 0
    }
  ],
  "materials" : [
    {
      "name" : "MI_Envi_Olgk_Pier_01h",
      "pbrMetallicRoughness" : {
        "baseColorFactor" : [ 0.3, 0.3, 0.3, 1.0 ],
        "metallicFactor" : 0.1,
        "roughnessFactor" : 0.5
      }
    }
  ],
  "meshes" : [
    {
      "primitives" : [
        {
          "attributes" : {
            "POSITION" : 1,
            "NORMAL" : 2,
            "TANGENT" : 3,
            "TEXCOORD_0" : 4,
            "TEXCOORD_1" : 5,
            "TEXCOORD_2" : 6,
            "TEXCOORD_3" : 7
          },
          "indices" : 0,
          "material" : 0
        }
      ],
      "name" : "S_Envi_Olgk_Pier_01i"
    }
  ],
  "buffers" : [
    {
      "uri" : "S_Envi_Olgk_Pier_01i.bin",
      "byteLength" : 1592
    }
  ],
  "bufferViews" : [
    {
      "buffer" : 0,
      "byteOffset" : 0,
      "byteLength" : 80
    },
    {
      "buffer" : 0,
      "byteOffset" : 80,
      "byteLength" : 252
    },
    {
      "buffer" : 0,
      "byteOffset" : 332,
      "byteLength" : 252
    },
    {
      "buffer" : 0,
      "byteOffset" : 584,
      "byteLength" : 336
    },
    {
      "buffer" : 0,
      "byteOffset" : 920,
      "byteLength" : 168
    },
    {
      "buffer" : 0,
      "byteOffset" : 1088,
      "byteLength" : 168
    },
    {
      "buffer" : 0,
      "byteOffset" : 1256,
      "byteLength" : 168
    },
    {
      "buffer" : 0,
      "byteOffset" : 1424,
      "byteLength" : 168
    }
  ],
  "accessors" : [
    {
      "bufferView" : 0,
      "componentType" : 5123,
      "count" : 39,
      "type" : "SCALAR"
    },
    {
      "bufferView" : 1,
      "min" : [ -2.84057, 2.36453, 1.50533 ],
      "max" : [ 2.74008, 7.07506, 3.32949 ],
      "componentType" : 5126,
      "count" : 21,
      "type" : "VEC3"
    },
    {
      "bufferView" : 2,
      "componentType" : 5126,
      "count" : 21,
      "type" : "VEC3"
    },
    {
      "bufferView" : 3,
      "componentType" : 5126,
      "count" : 21,
      "type" : "VEC4"
    },
    {
      "bufferView" : 4,
      "componentType" : 5126,
      "count" : 21,
      "type" : "VEC2"
    },
    {
      "bufferView" : 5,
      "componentType" : 5126,
      "count" : 21,
      "type" : "VEC2"
    },
    {
      "bufferView" : 6,
      "componentType" : 5126,
      "count" : 21,
      "type" : "VEC2"
    },
    {
      "bufferView" : 7,
      "componentType" : 5126,
      "count" : 21,
      "type" : "VEC2"
    }
  ]
}
