{
  "asset" : {
    "generator" : "UE Viewer (umodel) build 1579 based",
    "version" : "2.0"
  },
  "scene" : 0,
  "scenes" : [
    {
      "nodes" : [ 0 ]
    }
  ],
  "nodes" : [
    {
      "name" : "S_Envi_Olgk_Platform_Merge_13",
      "mesh" : 0
    }
  ],
  "materials" : [
    {
      "name" : "MI_Envi_Olgk_Platform_12a",
      "pbrMetallicRoughness" : {
        "baseColorFactor" : [ 0.3, 0.3, 0.3, 1.0 ],
        "metallicFactor" : 0.1,
        "roughnessFactor" : 0.5
      }
    },
    {
      "name" : "MI_Envi_Olgk_Platform_13a",
      "pbrMetallicRoughness" : {
        "baseColorFactor" : [ 0.9, 0.3, 0.3, 1.0 ],
        "metallicFactor" : 0.1,
        "roughnessFactor" : 0.5
      }
    }
  ],
  "meshes" : [
    {
      "primitives" : [
        {
          "attributes" : {
            "POSITION" : 1,
            "NORMAL" : 2,
            "TANGENT" : 3,
            "TEXCOORD_0" : 4,
            "TEXCOORD_1" : 5
          },
          "indices" : 0,
          "material" : 0
        },
        {
          "attributes" : {
            "POSITION" : 7,
            "NORMAL" : 8,
            "TANGENT" : 9,
            "TEXCOORD_0" : 10,
            "TEXCOORD_1" : 11
          },
          "indices" : 6,
          "material" : 1
        }
      ],
      "name" : "S_Envi_Olgk_Platform_Merge_13"
    }
  ],
  "buffers" : [
    {
      "uri" : "S_Envi_Olgk_Platform_Merge_13.bin",
      "byteLength" : 369692
    }
  ],
  "bufferViews" : [
    {
      "buffer" : 0,
      "byteOffset" : 0,
      "byteLength" : 8520
    },
    {
      "buffer" : 0,
      "byteOffset" : 8520,
      "byteLength" : 33876
    },
    {
      "buffer" : 0,
      "byteOffset" : 42396,
      "byteLength" : 33876
    },
    {
      "buffer" : 0,
      "byteOffset" : 76272,
      "byteLength" : 45168
    },
    {
      "buffer" : 0,
      "byteOffset" : 121440,
      "byteLength" : 22584
    },
    {
      "buffer" : 0,
      "byteOffset" : 144024,
      "byteLength" : 22584
    },
    {
      "buffer" : 0,
      "byteOffset" : 166608,
      "byteLength" : 10388
    },
    {
      "buffer" : 0,
      "byteOffset" : 176996,
      "byteLength" : 41292
    },
    {
      "buffer" : 0,
      "byteOffset" : 218288,
      "byteLength" : 41292
    },
    {
      "buffer" : 0,
      "byteOffset" : 259580,
      "byteLength" : 55056
    },
    {
      "buffer" : 0,
      "byteOffset" : 314636,
      "byteLength" : 27528
    },
    {
      "buffer" : 0,
      "byteOffset" : 342164,
      "byteLength" : 27528
    }
  ],
  "accessors" : [
    {
      "bufferView" : 0,
      "componentType" : 5123,
      "count" : 4260,
      "type" : "SCALAR"
    },
    {
      "bufferView" : 1,
      "min" : [ 36.3089, 2.03625, -39.3367 ],
      "max" : [ 48.3672, 7.82874, -20.8488 ],
      "componentType" : 5126,
      "count" : 2823,
      "type" : "VEC3"
    },
    {
      "bufferView" : 2,
      "componentType" : 5126,
      "count" : 2823,
      "type" : "VEC3"
    },
    {
      "bufferView" : 3,
      "componentType" : 5126,
      "count" : 2823,
      "type" : "VEC4"
    },
    {
      "bufferView" : 4,
      "componentType" : 5126,
      "count" : 2823,
      "type" : "VEC2"
    },
    {
      "bufferView" : 5,
      "componentType" : 5126,
      "count" : 2823,
      "type" : "VEC2"
    },
    {
      "bufferView" : 6,
      "componentType" : 5123,
      "count" : 5193,
      "type" : "SCALAR"
    },
    {
      "bufferView" : 7,
      "min" : [ 36.6407, 6.74566, -39.0586 ],
      "max" : [ 48.3365, 7.7808, -20.9367 ],
      "componentType" : 5126,
      "count" : 3441,
      "type" : "VEC3"
    },
    {
      "bufferView" : 8,
      "componentType" : 5126,
      "count" : 3441,
      "type" : "VEC3"
    },
    {
      "bufferView" : 9,
      "componentType" : 5126,
      "count" : 3441,
      "type" : "VEC4"
    },
    {
      "bufferView" : 10,
      "componentType" : 5126,
      "count" : 3441,
      "type" : "VEC2"
    },
    {
      "bufferView" : 11,
      "componentType" : 5126,
      "count" : 3441,
      "type" : "VEC2"
    }
  ]
}
