{
  "asset" : {
    "generator" : "UE Viewer (umodel) build 1579 based",
    "version" : "2.0"
  },
  "scene" : 0,
  "scenes" : [
    {
      "nodes" : [ 0 ]
    }
  ],
  "nodes" : [
    {
      "name" : "S_Envi_Common_Pipeline_Merge_01f",
      "mesh" : 0
    }
  ],
  "materials" : [
    {
      "name" : "MI_Envi_Olgk_Pier_01f",
      "pbrMetallicRoughness" : {
        "baseColorFactor" : [ 0.3, 0.3, 0.3, 1.0 ],
        "metallicFactor" : 0.1,
        "roughnessFactor" : 0.5
      }
    }
  ],
  "meshes" : [
    {
      "primitives" : [
        {
          "attributes" : {
            "POSITION" : 1,
            "NORMAL" : 2,
            "TANGENT" : 3,
            "TEXCOORD_0" : 4,
            "TEXCOORD_1" : 5
          },
          "indices" : 0,
          "material" : 0
        }
      ],
      "name" : "S_Envi_Common_Pipeline_Merge_01f"
    }
  ],
  "buffers" : [
    {
      "uri" : "S_Envi_Common_Pipeline_Merge_01f.bin",
      "byteLength" : 461128
    }
  ],
  "bufferViews" : [
    {
      "buffer" : 0,
      "byteOffset" : 0,
      "byteLength" : 27240
    },
    {
      "buffer" : 0,
      "byteOffset" : 27240,
      "byteLength" : 92976
    },
    {
      "buffer" : 0,
      "byteOffset" : 120216,
      "byteLength" : 92976
    },
    {
      "buffer" : 0,
      "byteOffset" : 213192,
      "byteLength" : 123968
    },
    {
      "buffer" : 0,
      "byteOffset" : 337160,
      "byteLength" : 61984
    },
    {
      "buffer" : 0,
      "byteOffset" : 399144,
      "byteLength" : 61984
    }
  ],
  "accessors" : [
    {
      "bufferView" : 0,
      "componentType" : 5123,
      "count" : 13620,
      "type" : "SCALAR"
    },
    {
      "bufferView" : 1,
      "min" : [ -3.34409, 11.302, -66.9128 ],
      "max" : [ 15.5152, 16.3044, -57.4188 ],
      "componentType" : 5126,
      "count" : 7748,
      "type" : "VEC3"
    },
    {
      "bufferView" : 2,
      "componentType" : 5126,
      "count" : 7748,
      "type" : "VEC3"
    },
    {
      "bufferView" : 3,
      "componentType" : 5126,
      "count" : 7748,
      "type" : "VEC4"
    },
    {
      "bufferView" : 4,
      "componentType" : 5126,
      "count" : 7748,
      "type" : "VEC2"
    },
    {
      "bufferView" : 5,
      "componentType" : 5126,
      "count" : 7748,
      "type" : "VEC2"
    }
  ]
}
