{
  "asset" : {
    "generator" : "UE Viewer (umodel) build 1579 based",
    "version" : "2.0"
  },
  "scene" : 0,
  "scenes" : [
    {
      "nodes" : [ 0 ]
    }
  ],
  "nodes" : [
    {
      "name" : "S_Envi_Olgk_Prop_Container_Merge_01a",
      "mesh" : 0
    }
  ],
  "materials" : [
    {
      "name" : "MI_Envi_Olgk_Prop_Container_Merge_01a",
      "pbrMetallicRoughness" : {
        "baseColorFactor" : [ 0.3, 0.3, 0.3, 1.0 ],
        "metallicFactor" : 0.1,
        "roughnessFactor" : 0.5
      }
    },
    {
      "name" : "MI_Envi_Olgk_Prop_Container_Merge_01b",
      "pbrMetallicRoughness" : {
        "baseColorFactor" : [ 0.9, 0.3, 0.3, 1.0 ],
        "metallicFactor" : 0.1,
        "roughnessFactor" : 0.5
      }
    }
  ],
  "meshes" : [
    {
      "primitives" : [
        {
          "attributes" : {
            "POSITION" : 1,
            "NORMAL" : 2,
            "TANGENT" : 3,
            "TEXCOORD_0" : 4,
            "TEXCOORD_1" : 5
          },
          "indices" : 0,
          "material" : 0
        },
        {
          "attributes" : {
            "POSITION" : 7,
            "NORMAL" : 8,
            "TANGENT" : 9,
            "TEXCOORD_0" : 10,
            "TEXCOORD_1" : 11
          },
          "indices" : 6,
          "material" : 1
        }
      ],
      "name" : "S_Envi_Olgk_Prop_Container_Merge_01a"
    }
  ],
  "buffers" : [
    {
      "uri" : "S_Envi_Olgk_Prop_Container_Merge_01a.bin",
      "byteLength" : 1186376
    }
  ],
  "bufferViews" : [
    {
      "buffer" : 0,
      "byteOffset" : 0,
      "byteLength" : 46404
    },
    {
      "buffer" : 0,
      "byteOffset" : 46404,
      "byteLength" : 187596
    },
    {
      "buffer" : 0,
      "byteOffset" : 234000,
      "byteLength" : 187596
    },
    {
      "buffer" : 0,
      "byteOffset" : 421596,
      "byteLength" : 250128
    },
    {
      "buffer" : 0,
      "byteOffset" : 671724,
      "byteLength" : 125064
    },
    {
      "buffer" : 0,
      "byteOffset" : 796788,
      "byteLength" : 125064
    },
    {
      "buffer" : 0,
      "byteOffset" : 921852,
      "byteLength" : 13308
    },
    {
      "buffer" : 0,
      "byteOffset" : 935160,
      "byteLength" : 53832
    },
    {
      "buffer" : 0,
      "byteOffset" : 988992,
      "byteLength" : 53832
    },
    {
      "buffer" : 0,
      "byteOffset" : 1042824,
      "byteLength" : 71776
    },
    {
      "buffer" : 0,
      "byteOffset" : 1114600,
      "byteLength" : 35888
    },
    {
      "buffer" : 0,
      "byteOffset" : 1150488,
      "byteLength" : 35888
    }
  ],
  "accessors" : [
    {
      "bufferView" : 0,
      "componentType" : 5123,
      "count" : 23202,
      "type" : "SCALAR"
    },
    {
      "bufferView" : 1,
      "min" : [ -48.5904, 3.01533, 59.4901 ],
      "max" : [ -28.9344, 14.8251, 109.216 ],
      "componentType" : 5126,
      "count" : 15633,
      "type" : "VEC3"
    },
    {
      "bufferView" : 2,
      "componentType" : 5126,
      "count" : 15633,
      "type" : "VEC3"
    },
    {
      "bufferView" : 3,
      "componentType" : 5126,
      "count" : 15633,
      "type" : "VEC4"
    },
    {
      "bufferView" : 4,
      "componentType" : 5126,
      "count" : 15633,
      "type" : "VEC2"
    },
    {
      "bufferView" : 5,
      "componentType" : 5126,
      "count" : 15633,
      "type" : "VEC2"
    },
    {
      "bufferView" : 6,
      "componentType" : 5123,
      "count" : 6654,
      "type" : "SCALAR"
    },
    {
      "bufferView" : 7,
      "min" : [ -43.2005, 3.15083, 62.6325 ],
      "max" : [ -31.7273, 14.8248, 109.16 ],
      "componentType" : 5126,
      "count" : 4486,
      "type" : "VEC3"
    },
    {
      "bufferView" : 8,
      "componentType" : 5126,
      "count" : 4486,
      "type" : "VEC3"
    },
    {
      "bufferView" : 9,
      "componentType" : 5126,
      "count" : 4486,
      "type" : "VEC4"
    },
    {
      "bufferView" : 10,
      "componentType" : 5126,
      "count" : 4486,
      "type" : "VEC2"
    },
    {
      "bufferView" : 11,
      "componentType" : 5126,
      "count" : 4486,
      "type" : "VEC2"
    }
  ]
}
