{
  "asset" : {
    "generator" : "UE Viewer (umodel) build 1579 based",
    "version" : "2.0"
  },
  "scene" : 0,
  "scenes" : [
    {
      "nodes" : [ 0 ]
    }
  ],
  "nodes" : [
    {
      "name" : "S_Envi_Olgk_Door_01a",
      "mesh" : 0
    }
  ],
  "materials" : [
    {
      "name" : "MI_Envi_Olgk_Door_01a",
      "pbrMetallicRoughness" : {
        "baseColorFactor" : [ 0.3, 0.3, 0.3, 1.0 ],
        "metallicFactor" : 0.1,
        "roughnessFactor" : 0.5
      }
    }
  ],
  "meshes" : [
    {
      "primitives" : [
        {
          "attributes" : {
            "POSITION" : 1,
            "NORMAL" : 2,
            "TANGENT" : 3,
            "TEXCOORD_0" : 4,
            "TEXCOORD_1" : 5,
            "TEXCOORD_2" : 6,
            "TEXCOORD_3" : 7
          },
          "indices" : 0,
          "material" : 0
        }
      ],
      "name" : "S_Envi_Olgk_Door_01a"
    }
  ],
  "buffers" : [
    {
      "uri" : "S_Envi_Olgk_Door_01a.bin",
      "byteLength" : 532632
    }
  ],
  "bufferViews" : [
    {
      "buffer" : 0,
      "byteOffset" : 0,
      "byteLength" : 24816
    },
    {
      "buffer" : 0,
      "byteOffset" : 24816,
      "byteLength" : 84636
    },
    {
      "buffer" : 0,
      "byteOffset" : 109452,
      "byteLength" : 84636
    },
    {
      "buffer" : 0,
      "byteOffset" : 194088,
      "byteLength" : 112848
    },
    {
      "buffer" : 0,
      "byteOffset" : 306936,
      "byteLength" : 56424
    },
    {
      "buffer" : 0,
      "byteOffset" : 363360,
      "byteLength" : 56424
    },
    {
      "buffer" : 0,
      "byteOffset" : 419784,
      "byteLength" : 56424
    },
    {
      "buffer" : 0,
      "byteOffset" : 476208,
      "byteLength" : 56424
    }
  ],
  "accessors" : [
    {
      "bufferView" : 0,
      "componentType" : 5123,
      "count" : 12408,
      "type" : "SCALAR"
    },
    {
      "bufferView" : 1,
      "min" : [ -1.5, 0, -12.5613 ],
      "max" : [ 1.5, 8.1894, 12.641 ],
      "componentType" : 5126,
      "count" : 7053,
      "type" : "VEC3"
    },
    {
      "bufferView" : 2,
      "componentType" : 5126,
      "count" : 7053,
      "type" : "VEC3"
    },
    {
      "bufferView" : 3,
      "componentType" : 5126,
      "count" : 7053,
      "type" : "VEC4"
    },
    {
      "bufferView" : 4,
      "componentType" : 5126,
      "count" : 7053,
      "type" : "VEC2"
    },
    {
      "bufferView" : 5,
      "componentType" : 5126,
      "count" : 7053,
      "type" : "VEC2"
    },
    {
      "bufferView" : 6,
      "componentType" : 5126,
      "count" : 7053,
      "type" : "VEC2"
    },
    {
      "bufferView" : 7,
      "componentType" : 5126,
      "count" : 7053,
      "type" : "VEC2"
    }
  ]
}
