{
  "asset" : {
    "generator" : "UE Viewer (umodel) build 1579 based",
    "version" : "2.0"
  },
  "scene" : 0,
  "scenes" : [
    {
      "nodes" : [ 0 ]
    }
  ],
  "nodes" : [
    {
      "name" : "S_Envi_Olgk_Checkpoint_01d",
      "mesh" : 0
    }
  ],
  "materials" : [
    {
      "name" : "MI_Envi_Olgk_Checkpoint_01d",
      "pbrMetallicRoughness" : {
        "baseColorFactor" : [ 0.3, 0.3, 0.3, 1.0 ],
        "metallicFactor" : 0.1,
        "roughnessFactor" : 0.5
      }
    }
  ],
  "meshes" : [
    {
      "primitives" : [
        {
          "attributes" : {
            "POSITION" : 1,
            "NORMAL" : 2,
            "TANGENT" : 3,
            "TEXCOORD_0" : 4,
            "TEXCOORD_1" : 5
          },
          "indices" : 0,
          "material" : 0
        }
      ],
      "name" : "S_Envi_Olgk_Checkpoint_01d"
    }
  ],
  "buffers" : [
    {
      "uri" : "S_Envi_Olgk_Checkpoint_01d.bin",
      "byteLength" : 47256
    }
  ],
  "bufferViews" : [
    {
      "buffer" : 0,
      "byteOffset" : 0,
      "byteLength" : 2568
    },
    {
      "buffer" : 0,
      "byteOffset" : 2568,
      "byteLength" : 9576
    },
    {
      "buffer" : 0,
      "byteOffset" : 12144,
      "byteLength" : 9576
    },
    {
      "buffer" : 0,
      "byteOffset" : 21720,
      "byteLength" : 12768
    },
    {
      "buffer" : 0,
      "byteOffset" : 34488,
      "byteLength" : 6384
    },
    {
      "buffer" : 0,
      "byteOffset" : 40872,
      "byteLength" : 6384
    }
  ],
  "accessors" : [
    {
      "bufferView" : 0,
      "componentType" : 5123,
      "count" : 1284,
      "type" : "SCALAR"
    },
    {
      "bufferView" : 1,
      "min" : [ -13.07, -0.783452, -0.295365 ],
      "max" : [ -3.62396e-07, 0.204342, 0.0449689 ],
      "componentType" : 5126,
      "count" : 798,
      "type" : "VEC3"
    },
    {
      "bufferView" : 2,
      "componentType" : 5126,
      "count" : 798,
      "type" : "VEC3"
    },
    {
      "bufferView" : 3,
      "componentType" : 5126,
      "count" : 798,
      "type" : "VEC4"
    },
    {
      "bufferView" : 4,
      "componentType" : 5126,
      "count" : 798,
      "type" : "VEC2"
    },
    {
      "bufferView" : 5,
      "componentType" : 5126,
      "count" : 798,
      "type" : "VEC2"
    }
  ]
}
