{
  "asset" : {
    "generator" : "UE Viewer (umodel) build 1579 based",
    "version" : "2.0"
  },
  "scene" : 0,
  "scenes" : [
    {
      "nodes" : [ 0 ]
    }
  ],
  "nodes" : [
    {
      "name" : "S_Envi_Olgk_GoodsShelves_Merge_01c",
      "mesh" : 0
    }
  ],
  "materials" : [
    {
      "name" : "MI_Envi_Olgk_GoodsShelves_Merge_01",
      "pbrMetallicRoughness" : {
        "baseColorFactor" : [ 0.3, 0.3, 0.3, 1.0 ],
        "metallicFactor" : 0.1,
        "roughnessFactor" : 0.5
      }
    }
  ],
  "meshes" : [
    {
      "primitives" : [
        {
          "attributes" : {
            "POSITION" : 1,
            "NORMAL" : 2,
            "TANGENT" : 3,
            "TEXCOORD_0" : 4,
            "TEXCOORD_1" : 5
          },
          "indices" : 0,
          "material" : 0
        }
      ],
      "name" : "S_Envi_Olgk_GoodsShelves_Merge_01c"
    }
  ],
  "buffers" : [
    {
      "uri" : "S_Envi_Olgk_GoodsShelves_Merge_01c.bin",
      "byteLength" : 530468
    }
  ],
  "bufferViews" : [
    {
      "buffer" : 0,
      "byteOffset" : 0,
      "byteLength" : 27084
    },
    {
      "buffer" : 0,
      "byteOffset" : 27084,
      "byteLength" : 107868
    },
    {
      "buffer" : 0,
      "byteOffset" : 134952,
      "byteLength" : 107868
    },
    {
      "buffer" : 0,
      "byteOffset" : 242820,
      "byteLength" : 143824
    },
    {
      "buffer" : 0,
      "byteOffset" : 386644,
      "byteLength" : 71912
    },
    {
      "buffer" : 0,
      "byteOffset" : 458556,
      "byteLength" : 71912
    }
  ],
  "accessors" : [
    {
      "bufferView" : 0,
      "componentType" : 5123,
      "count" : 13542,
      "type" : "SCALAR"
    },
    {
      "bufferView" : 1,
      "min" : [ -7.90008, 2.90728, -14.765 ],
      "max" : [ -2.63501, 17.4863, -7.67268 ],
      "componentType" : 5126,
      "count" : 8989,
      "type" : "VEC3"
    },
    {
      "bufferView" : 2,
      "componentType" : 5126,
      "count" : 8989,
      "type" : "VEC3"
    },
    {
      "bufferView" : 3,
      "componentType" : 5126,
      "count" : 8989,
      "type" : "VEC4"
    },
    {
      "bufferView" : 4,
      "componentType" : 5126,
      "count" : 8989,
      "type" : "VEC2"
    },
    {
      "bufferView" : 5,
      "componentType" : 5126,
      "count" : 8989,
      "type" : "VEC2"
    }
  ]
}
