{
  "asset" : {
    "generator" : "UE Viewer (umodel) build 1579 based",
    "version" : "2.0"
  },
  "scene" : 0,
  "scenes" : [
    {
      "nodes" : [ 0 ]
    }
  ],
  "nodes" : [
    {
      "name" : "S_Envi_olgk_Prop_Container_Merge_01c",
      "mesh" : 0
    }
  ],
  "materials" : [
    {
      "name" : "MI_Envi_Olgk_Prop_Container_Merge_01a",
      "pbrMetallicRoughness" : {
        "baseColorFactor" : [ 0.3, 0.3, 0.3, 1.0 ],
        "metallicFactor" : 0.1,
        "roughnessFactor" : 0.5
      }
    },
    {
      "name" : "MI_Envi_Olgk_Prop_Container_Merge_01b",
      "pbrMetallicRoughness" : {
        "baseColorFactor" : [ 0.9, 0.3, 0.3, 1.0 ],
        "metallicFactor" : 0.1,
        "roughnessFactor" : 0.5
      }
    }
  ],
  "meshes" : [
    {
      "primitives" : [
        {
          "attributes" : {
            "POSITION" : 1,
            "NORMAL" : 2,
            "TANGENT" : 3,
            "TEXCOORD_0" : 4,
            "TEXCOORD_1" : 5
          },
          "indices" : 0,
          "material" : 0
        },
        {
          "attributes" : {
            "POSITION" : 7,
            "NORMAL" : 8,
            "TANGENT" : 9,
            "TEXCOORD_0" : 10,
            "TEXCOORD_1" : 11
          },
          "indices" : 6,
          "material" : 1
        }
      ],
      "name" : "S_Envi_olgk_Prop_Container_Merge_01c"
    }
  ],
  "buffers" : [
    {
      "uri" : "S_Envi_olgk_Prop_Container_Merge_01c.bin",
      "byteLength" : 445312
    }
  ],
  "bufferViews" : [
    {
      "buffer" : 0,
      "byteOffset" : 0,
      "byteLength" : 12120
    },
    {
      "buffer" : 0,
      "byteOffset" : 12120,
      "byteLength" : 36072
    },
    {
      "buffer" : 0,
      "byteOffset" : 48192,
      "byteLength" : 36072
    },
    {
      "buffer" : 0,
      "byteOffset" : 84264,
      "byteLength" : 48096
    },
    {
      "buffer" : 0,
      "byteOffset" : 132360,
      "byteLength" : 24048
    },
    {
      "buffer" : 0,
      "byteOffset" : 156408,
      "byteLength" : 24048
    },
    {
      "buffer" : 0,
      "byteOffset" : 180456,
      "byteLength" : 18120
    },
    {
      "buffer" : 0,
      "byteOffset" : 198576,
      "byteLength" : 52872
    },
    {
      "buffer" : 0,
      "byteOffset" : 251448,
      "byteLength" : 52872
    },
    {
      "buffer" : 0,
      "byteOffset" : 304320,
      "byteLength" : 70496
    },
    {
      "buffer" : 0,
      "byteOffset" : 374816,
      "byteLength" : 35248
    },
    {
      "buffer" : 0,
      "byteOffset" : 410064,
      "byteLength" : 35248
    }
  ],
  "accessors" : [
    {
      "bufferView" : 0,
      "componentType" : 5123,
      "count" : 6060,
      "type" : "SCALAR"
    },
    {
      "bufferView" : 1,
      "min" : [ 16.6641, 3.16511, 62.7205 ],
      "max" : [ 24.9646, 6.11936, 73.8086 ],
      "componentType" : 5126,
      "count" : 3006,
      "type" : "VEC3"
    },
    {
      "bufferView" : 2,
      "componentType" : 5126,
      "count" : 3006,
      "type" : "VEC3"
    },
    {
      "bufferView" : 3,
      "componentType" : 5126,
      "count" : 3006,
      "type" : "VEC4"
    },
    {
      "bufferView" : 4,
      "componentType" : 5126,
      "count" : 3006,
      "type" : "VEC2"
    },
    {
      "bufferView" : 5,
      "componentType" : 5126,
      "count" : 3006,
      "type" : "VEC2"
    },
    {
      "bufferView" : 6,
      "componentType" : 5123,
      "count" : 9060,
      "type" : "SCALAR"
    },
    {
      "bufferView" : 7,
      "min" : [ -3.25638, 2.88336, 51.9665 ],
      "max" : [ 25.0124, 8.27139, 73.7894 ],
      "componentType" : 5126,
      "count" : 4406,
      "type" : "VEC3"
    },
    {
      "bufferView" : 8,
      "componentType" : 5126,
      "count" : 4406,
      "type" : "VEC3"
    },
    {
      "bufferView" : 9,
      "componentType" : 5126,
      "count" : 4406,
      "type" : "VEC4"
    },
    {
      "bufferView" : 10,
      "componentType" : 5126,
      "count" : 4406,
      "type" : "VEC2"
    },
    {
      "bufferView" : 11,
      "componentType" : 5126,
      "count" : 4406,
      "type" : "VEC2"
    }
  ]
}
