{
  "asset" : {
    "generator" : "UE Viewer (umodel) build 1579 based",
    "version" : "2.0"
  },
  "scene" : 0,
  "scenes" : [
    {
      "nodes" : [ 0 ]
    }
  ],
  "nodes" : [
    {
      "name" : "S_Envi_Olgk_Container_07a",
      "mesh" : 0
    }
  ],
  "materials" : [
    {
      "name" : "MI_Envi_Olgk_Container_07a",
      "pbrMetallicRoughness" : {
        "baseColorFactor" : [ 0.3, 0.3, 0.3, 1.0 ],
        "metallicFactor" : 0.1,
        "roughnessFactor" : 0.5
      }
    }
  ],
  "meshes" : [
    {
      "primitives" : [
        {
          "attributes" : {
            "POSITION" : 1,
            "NORMAL" : 2,
            "TANGENT" : 3,
            "TEXCOORD_0" : 4,
            "TEXCOORD_1" : 5
          },
          "indices" : 0,
          "material" : 0
        }
      ],
      "name" : "S_Envi_Olgk_Container_07a"
    }
  ],
  "buffers" : [
    {
      "uri" : "S_Envi_Olgk_Container_07a.bin",
      "byteLength" : 354244
    }
  ],
  "bufferViews" : [
    {
      "buffer" : 0,
      "byteOffset" : 0,
      "byteLength" : 24852
    },
    {
      "buffer" : 0,
      "byteOffset" : 24852,
      "byteLength" : 70584
    },
    {
      "buffer" : 0,
      "byteOffset" : 95436,
      "byteLength" : 70584
    },
    {
      "buffer" : 0,
      "byteOffset" : 166020,
      "byteLength" : 94112
    },
    {
      "buffer" : 0,
      "byteOffset" : 260132,
      "byteLength" : 47056
    },
    {
      "buffer" : 0,
      "byteOffset" : 307188,
      "byteLength" : 47056
    }
  ],
  "accessors" : [
    {
      "bufferView" : 0,
      "componentType" : 5123,
      "count" : 12426,
      "type" : "SCALAR"
    },
    {
      "bufferView" : 1,
      "min" : [ -4.57764e-06, -3.05176e-07, -3.01722 ],
      "max" : [ 8, 3, 0.0663657 ],
      "componentType" : 5126,
      "count" : 5882,
      "type" : "VEC3"
    },
    {
      "bufferView" : 2,
      "componentType" : 5126,
      "count" : 5882,
      "type" : "VEC3"
    },
    {
      "bufferView" : 3,
      "componentType" : 5126,
      "count" : 5882,
      "type" : "VEC4"
    },
    {
      "bufferView" : 4,
      "componentType" : 5126,
      "count" : 5882,
      "type" : "VEC2"
    },
    {
      "bufferView" : 5,
      "componentType" : 5126,
      "count" : 5882,
      "type" : "VEC2"
    }
  ]
}
