{
  "asset" : {
    "generator" : "UE Viewer (umodel) build 1579 based",
    "version" : "2.0"
  },
  "scene" : 0,
  "scenes" : [
    {
      "nodes" : [ 0 ]
    }
  ],
  "nodes" : [
    {
      "name" : "S_Envi_Olgk_Shelf_01m",
      "mesh" : 0
    }
  ],
  "materials" : [
    {
      "name" : "MI_Envi_Umeda_Prop_Frame_01",
      "pbrMetallicRoughness" : {
        "baseColorFactor" : [ 0.3, 0.3, 0.3, 1.0 ],
        "metallicFactor" : 0.1,
        "roughnessFactor" : 0.5
      }
    }
  ],
  "meshes" : [
    {
      "primitives" : [
        {
          "attributes" : {
            "POSITION" : 1,
            "NORMAL" : 2,
            "TANGENT" : 3,
            "TEXCOORD_0" : 4,
            "TEXCOORD_1" : 5,
            "TEXCOORD_2" : 6
          },
          "indices" : 0,
          "material" : 0
        }
      ],
      "name" : "S_Envi_Olgk_Shelf_01m"
    }
  ],
  "buffers" : [
    {
      "uri" : "S_Envi_Olgk_Shelf_01m.bin",
      "byteLength" : 12248
    }
  ],
  "bufferViews" : [
    {
      "buffer" : 0,
      "byteOffset" : 0,
      "byteLength" : 792
    },
    {
      "buffer" : 0,
      "byteOffset" : 792,
      "byteLength" : 2148
    },
    {
      "buffer" : 0,
      "byteOffset" : 2940,
      "byteLength" : 2148
    },
    {
      "buffer" : 0,
      "byteOffset" : 5088,
      "byteLength" : 2864
    },
    {
      "buffer" : 0,
      "byteOffset" : 7952,
      "byteLength" : 1432
    },
    {
      "buffer" : 0,
      "byteOffset" : 9384,
      "byteLength" : 1432
    },
    {
      "buffer" : 0,
      "byteOffset" : 10816,
      "byteLength" : 1432
    }
  ],
  "accessors" : [
    {
      "bufferView" : 0,
      "componentType" : 5123,
      "count" : 396,
      "type" : "SCALAR"
    },
    {
      "bufferView" : 1,
      "min" : [ -0.0106664, -3.06162e-17, -0 ],
      "max" : [ 0.489334, 3.0557, 0.5 ],
      "componentType" : 5126,
      "count" : 179,
      "type" : "VEC3"
    },
    {
      "bufferView" : 2,
      "componentType" : 5126,
      "count" : 179,
      "type" : "VEC3"
    },
    {
      "bufferView" : 3,
      "componentType" : 5126,
      "count" : 179,
      "type" : "VEC4"
    },
    {
      "bufferView" : 4,
      "componentType" : 5126,
      "count" : 179,
      "type" : "VEC2"
    },
    {
      "bufferView" : 5,
      "componentType" : 5126,
      "count" : 179,
      "type" : "VEC2"
    },
    {
      "bufferView" : 6,
      "componentType" : 5126,
      "count" : 179,
      "type" : "VEC2"
    }
  ]
}
