{
  "asset" : {
    "generator" : "UE Viewer (umodel) build 1579 based",
    "version" : "2.0"
  },
  "scene" : 0,
  "scenes" : [
    {
      "nodes" : [ 0 ]
    }
  ],
  "nodes" : [
    {
      "name" : "S_Envi_Olgk_Pipebox_02b",
      "mesh" : 0
    }
  ],
  "materials" : [
    {
      "name" : "MI_Envi_Olgk_Pipebox_01a",
      "pbrMetallicRoughness" : {
        "baseColorFactor" : [ 0.3, 0.3, 0.3, 1.0 ],
        "metallicFactor" : 0.1,
        "roughnessFactor" : 0.5
      }
    }
  ],
  "meshes" : [
    {
      "primitives" : [
        {
          "attributes" : {
            "POSITION" : 1,
            "NORMAL" : 2,
            "TANGENT" : 3,
            "TEXCOORD_0" : 4,
            "TEXCOORD_1" : 5
          },
          "indices" : 0,
          "material" : 0
        }
      ],
      "name" : "S_Envi_Olgk_Pipebox_02b"
    }
  ],
  "buffers" : [
    {
      "uri" : "S_Envi_Olgk_Pipebox_02b.bin",
      "byteLength" : 3176
    }
  ],
  "bufferViews" : [
    {
      "buffer" : 0,
      "byteOffset" : 0,
      "byteLength" : 264
    },
    {
      "buffer" : 0,
      "byteOffset" : 264,
      "byteLength" : 624
    },
    {
      "buffer" : 0,
      "byteOffset" : 888,
      "byteLength" : 624
    },
    {
      "buffer" : 0,
      "byteOffset" : 1512,
      "byteLength" : 832
    },
    {
      "buffer" : 0,
      "byteOffset" : 2344,
      "byteLength" : 416
    },
    {
      "buffer" : 0,
      "byteOffset" : 2760,
      "byteLength" : 416
    }
  ],
  "accessors" : [
    {
      "bufferView" : 0,
      "componentType" : 5123,
      "count" : 132,
      "type" : "SCALAR"
    },
    {
      "bufferView" : 1,
      "min" : [ -2.5573, -3.05176e-07, -0.0501914 ],
      "max" : [ 0.08, 1.10894, 0.0445105 ],
      "componentType" : 5126,
      "count" : 52,
      "type" : "VEC3"
    },
    {
      "bufferView" : 2,
      "componentType" : 5126,
      "count" : 52,
      "type" : "VEC3"
    },
    {
      "bufferView" : 3,
      "componentType" : 5126,
      "count" : 52,
      "type" : "VEC4"
    },
    {
      "bufferView" : 4,
      "componentType" : 5126,
      "count" : 52,
      "type" : "VEC2"
    },
    {
      "bufferView" : 5,
      "componentType" : 5126,
      "count" : 52,
      "type" : "VEC2"
    }
  ]
}
