{
  "asset" : {
    "generator" : "UE Viewer (umodel) build 1579 based",
    "version" : "2.0"
  },
  "scene" : 0,
  "scenes" : [
    {
      "nodes" : [ 0 ]
    }
  ],
  "nodes" : [
    {
      "name" : "S_Envi_Olgk_Fence_01d",
      "mesh" : 0
    }
  ],
  "materials" : [
    {
      "name" : "MI_Envi_Olgk_Fence_01a",
      "pbrMetallicRoughness" : {
        "baseColorFactor" : [ 0.3, 0.3, 0.3, 1.0 ],
        "metallicFactor" : 0.1,
        "roughnessFactor" : 0.5
      }
    }
  ],
  "meshes" : [
    {
      "primitives" : [
        {
          "attributes" : {
            "POSITION" : 1,
            "NORMAL" : 2,
            "TANGENT" : 3,
            "TEXCOORD_0" : 4,
            "TEXCOORD_1" : 5
          },
          "indices" : 0,
          "material" : 0
        }
      ],
      "name" : "S_Envi_Olgk_Fence_01d"
    }
  ],
  "buffers" : [
    {
      "uri" : "S_Envi_Olgk_Fence_01d.bin",
      "byteLength" : 11624
    }
  ],
  "bufferViews" : [
    {
      "buffer" : 0,
      "byteOffset" : 0,
      "byteLength" : 648
    },
    {
      "buffer" : 0,
      "byteOffset" : 648,
      "byteLength" : 2352
    },
    {
      "buffer" : 0,
      "byteOffset" : 3000,
      "byteLength" : 2352
    },
    {
      "buffer" : 0,
      "byteOffset" : 5352,
      "byteLength" : 3136
    },
    {
      "buffer" : 0,
      "byteOffset" : 8488,
      "byteLength" : 1568
    },
    {
      "buffer" : 0,
      "byteOffset" : 10056,
      "byteLength" : 1568
    }
  ],
  "accessors" : [
    {
      "bufferView" : 0,
      "componentType" : 5123,
      "count" : 324,
      "type" : "SCALAR"
    },
    {
      "bufferView" : 1,
      "min" : [ -4, 1.52588e-07, -0.352681 ],
      "max" : [ -1.52588e-07, 0.814552, 0.352681 ],
      "componentType" : 5126,
      "count" : 196,
      "type" : "VEC3"
    },
    {
      "bufferView" : 2,
      "componentType" : 5126,
      "count" : 196,
      "type" : "VEC3"
    },
    {
      "bufferView" : 3,
      "componentType" : 5126,
      "count" : 196,
      "type" : "VEC4"
    },
    {
      "bufferView" : 4,
      "componentType" : 5126,
      "count" : 196,
      "type" : "VEC2"
    },
    {
      "bufferView" : 5,
      "componentType" : 5126,
      "count" : 196,
      "type" : "VEC2"
    }
  ]
}
