{
  "asset" : {
    "generator" : "UE Viewer (umodel) build 1579 based",
    "version" : "2.0"
  },
  "scene" : 0,
  "scenes" : [
    {
      "nodes" : [ 0 ]
    }
  ],
  "nodes" : [
    {
      "name" : "S_Envi_Common_ReWall_Merge_01a_a",
      "mesh" : 0
    }
  ],
  "materials" : [
    {
      "name" : "MI_Envi_Common_ReWall_Merge_01a",
      "pbrMetallicRoughness" : {
        "baseColorFactor" : [ 0.3, 0.3, 0.3, 1.0 ],
        "metallicFactor" : 0.1,
        "roughnessFactor" : 0.5
      }
    }
  ],
  "meshes" : [
    {
      "primitives" : [
        {
          "attributes" : {
            "POSITION" : 1,
            "NORMAL" : 2,
            "TANGENT" : 3,
            "TEXCOORD_0" : 4,
            "TEXCOORD_1" : 5
          },
          "indices" : 0,
          "material" : 0
        }
      ],
      "name" : "S_Envi_Common_ReWall_Merge_01a_a"
    }
  ],
  "buffers" : [
    {
      "uri" : "S_Envi_Common_ReWall_Merge_01a_a.bin",
      "byteLength" : 521968
    }
  ],
  "bufferViews" : [
    {
      "buffer" : 0,
      "byteOffset" : 0,
      "byteLength" : 27432
    },
    {
      "buffer" : 0,
      "byteOffset" : 27432,
      "byteLength" : 105972
    },
    {
      "buffer" : 0,
      "byteOffset" : 133404,
      "byteLength" : 105972
    },
    {
      "buffer" : 0,
      "byteOffset" : 239376,
      "byteLength" : 141296
    },
    {
      "buffer" : 0,
      "byteOffset" : 380672,
      "byteLength" : 70648
    },
    {
      "buffer" : 0,
      "byteOffset" : 451320,
      "byteLength" : 70648
    }
  ],
  "accessors" : [
    {
      "bufferView" : 0,
      "componentType" : 5123,
      "count" : 13716,
      "type" : "SCALAR"
    },
    {
      "bufferView" : 1,
      "min" : [ -1.65132, 0.0010318, -4.2112 ],
      "max" : [ 1.65132, 3.39149, 4.2112 ],
      "componentType" : 5126,
      "count" : 8831,
      "type" : "VEC3"
    },
    {
      "bufferView" : 2,
      "componentType" : 5126,
      "count" : 8831,
      "type" : "VEC3"
    },
    {
      "bufferView" : 3,
      "componentType" : 5126,
      "count" : 8831,
      "type" : "VEC4"
    },
    {
      "bufferView" : 4,
      "componentType" : 5126,
      "count" : 8831,
      "type" : "VEC2"
    },
    {
      "bufferView" : 5,
      "componentType" : 5126,
      "count" : 8831,
      "type" : "VEC2"
    }
  ]
}
