{
  "asset" : {
    "generator" : "UE Viewer (umodel) build 1579 based",
    "version" : "2.0"
  },
  "scene" : 0,
  "scenes" : [
    {
      "nodes" : [ 0 ]
    }
  ],
  "nodes" : [
    {
      "name" : "S_Envi_Umeda_Game_wall_01_Merge",
      "mesh" : 0
    }
  ],
  "materials" : [
    {
      "name" : "MI_Envi_Umeda_Game_wall_01",
      "pbrMetallicRoughness" : {
        "baseColorFactor" : [ 0.3, 0.3, 0.3, 1.0 ],
        "metallicFactor" : 0.1,
        "roughnessFactor" : 0.5
      }
    }
  ],
  "meshes" : [
    {
      "primitives" : [
        {
          "attributes" : {
            "POSITION" : 1,
            "NORMAL" : 2,
            "TANGENT" : 3,
            "TEXCOORD_0" : 4,
            "TEXCOORD_1" : 5,
            "TEXCOORD_2" : 6,
            "TEXCOORD_3" : 7
          },
          "indices" : 0,
          "material" : 0
        }
      ],
      "name" : "S_Envi_Umeda_Game_wall_01_Merge"
    }
  ],
  "buffers" : [
    {
      "uri" : "S_Envi_Umeda_Game_wall_01_Merge.bin",
      "byteLength" : 85824
    }
  ],
  "bufferViews" : [
    {
      "buffer" : 0,
      "byteOffset" : 0,
      "byteLength" : 4608
    },
    {
      "buffer" : 0,
      "byteOffset" : 4608,
      "byteLength" : 13536
    },
    {
      "buffer" : 0,
      "byteOffset" : 18144,
      "byteLength" : 13536
    },
    {
      "buffer" : 0,
      "byteOffset" : 31680,
      "byteLength" : 18048
    },
    {
      "buffer" : 0,
      "byteOffset" : 49728,
      "byteLength" : 9024
    },
    {
      "buffer" : 0,
      "byteOffset" : 58752,
      "byteLength" : 9024
    },
    {
      "buffer" : 0,
      "byteOffset" : 67776,
      "byteLength" : 9024
    },
    {
      "buffer" : 0,
      "byteOffset" : 76800,
      "byteLength" : 9024
    }
  ],
  "accessors" : [
    {
      "bufferView" : 0,
      "componentType" : 5123,
      "count" : 2304,
      "type" : "SCALAR"
    },
    {
      "bufferView" : 1,
      "min" : [ -41.2054, 4.00493, 22.5197 ],
      "max" : [ -38.1789, 10.2836, 22.9478 ],
      "componentType" : 5126,
      "count" : 1128,
      "type" : "VEC3"
    },
    {
      "bufferView" : 2,
      "componentType" : 5126,
      "count" : 1128,
      "type" : "VEC3"
    },
    {
      "bufferView" : 3,
      "componentType" : 5126,
      "count" : 1128,
      "type" : "VEC4"
    },
    {
      "bufferView" : 4,
      "componentType" : 5126,
      "count" : 1128,
      "type" : "VEC2"
    },
    {
      "bufferView" : 5,
      "componentType" : 5126,
      "count" : 1128,
      "type" : "VEC2"
    },
    {
      "bufferView" : 6,
      "componentType" : 5126,
      "count" : 1128,
      "type" : "VEC2"
    },
    {
      "bufferView" : 7,
      "componentType" : 5126,
      "count" : 1128,
      "type" : "VEC2"
    }
  ]
}
