{
  "asset" : {
    "generator" : "UE Viewer (umodel) build 1579 based",
    "version" : "2.0"
  },
  "scene" : 0,
  "scenes" : [
    {
      "nodes" : [ 0 ]
    }
  ],
  "nodes" : [
    {
      "name" : "S_Envi_Olgk_Checkpoint_merge_01b",
      "mesh" : 0
    }
  ],
  "materials" : [
    {
      "name" : "MI_Envi_Olgk_Checkpoint_merge_01",
      "pbrMetallicRoughness" : {
        "baseColorFactor" : [ 0.3, 0.3, 0.3, 1.0 ],
        "metallicFactor" : 0.1,
        "roughnessFactor" : 0.5
      }
    },
    {
      "name" : "MI_Envi_Olgk_Checkpoint_01d",
      "pbrMetallicRoughness" : {
        "baseColorFactor" : [ 0.9, 0.3, 0.3, 1.0 ],
        "metallicFactor" : 0.1,
        "roughnessFactor" : 0.5
      }
    }
  ],
  "meshes" : [
    {
      "primitives" : [
        {
          "attributes" : {
            "POSITION" : 1,
            "NORMAL" : 2,
            "TANGENT" : 3,
            "TEXCOORD_0" : 4,
            "TEXCOORD_1" : 5,
            "TEXCOORD_2" : 6,
            "TEXCOORD_3" : 7
          },
          "indices" : 0,
          "material" : 0
        },
        {
          "attributes" : {
            "POSITION" : 9,
            "NORMAL" : 10,
            "TANGENT" : 11,
            "TEXCOORD_0" : 12,
            "TEXCOORD_1" : 13,
            "TEXCOORD_2" : 14,
            "TEXCOORD_3" : 15
          },
          "indices" : 8,
          "material" : 1
        }
      ],
      "name" : "S_Envi_Olgk_Checkpoint_merge_01b"
    }
  ],
  "buffers" : [
    {
      "uri" : "S_Envi_Olgk_Checkpoint_merge_01b.bin",
      "byteLength" : 536528
    }
  ],
  "bufferViews" : [
    {
      "buffer" : 0,
      "byteOffset" : 0,
      "byteLength" : 4392
    },
    {
      "buffer" : 0,
      "byteOffset" : 4392,
      "byteLength" : 15336
    },
    {
      "buffer" : 0,
      "byteOffset" : 19728,
      "byteLength" : 15336
    },
    {
      "buffer" : 0,
      "byteOffset" : 35064,
      "byteLength" : 20448
    },
    {
      "buffer" : 0,
      "byteOffset" : 55512,
      "byteLength" : 10224
    },
    {
      "buffer" : 0,
      "byteOffset" : 65736,
      "byteLength" : 10224
    },
    {
      "buffer" : 0,
      "byteOffset" : 75960,
      "byteLength" : 10224
    },
    {
      "buffer" : 0,
      "byteOffset" : 86184,
      "byteLength" : 10224
    },
    {
      "buffer" : 0,
      "byteOffset" : 96408,
      "byteLength" : 22160
    },
    {
      "buffer" : 0,
      "byteOffset" : 118568,
      "byteLength" : 69660
    },
    {
      "buffer" : 0,
      "byteOffset" : 188228,
      "byteLength" : 69660
    },
    {
      "buffer" : 0,
      "byteOffset" : 257888,
      "byteLength" : 92880
    },
    {
      "buffer" : 0,
      "byteOffset" : 350768,
      "byteLength" : 46440
    },
    {
      "buffer" : 0,
      "byteOffset" : 397208,
      "byteLength" : 46440
    },
    {
      "buffer" : 0,
      "byteOffset" : 443648,
      "byteLength" : 46440
    },
    {
      "buffer" : 0,
      "byteOffset" : 490088,
      "byteLength" : 46440
    }
  ],
  "accessors" : [
    {
      "bufferView" : 0,
      "componentType" : 5123,
      "count" : 2196,
      "type" : "SCALAR"
    },
    {
      "bufferView" : 1,
      "min" : [ -50.8784, 3.05001, 38.1377 ],
      "max" : [ -44.3683, 10.5771, 62.893 ],
      "componentType" : 5126,
      "count" : 1278,
      "type" : "VEC3"
    },
    {
      "bufferView" : 2,
      "componentType" : 5126,
      "count" : 1278,
      "type" : "VEC3"
    },
    {
      "bufferView" : 3,
      "componentType" : 5126,
      "count" : 1278,
      "type" : "VEC4"
    },
    {
      "bufferView" : 4,
      "componentType" : 5126,
      "count" : 1278,
      "type" : "VEC2"
    },
    {
      "bufferView" : 5,
      "componentType" : 5126,
      "count" : 1278,
      "type" : "VEC2"
    },
    {
      "bufferView" : 6,
      "componentType" : 5126,
      "count" : 1278,
      "type" : "VEC2"
    },
    {
      "bufferView" : 7,
      "componentType" : 5126,
      "count" : 1278,
      "type" : "VEC2"
    },
    {
      "bufferView" : 8,
      "componentType" : 5123,
      "count" : 11079,
      "type" : "SCALAR"
    },
    {
      "bufferView" : 9,
      "min" : [ -51.1539, 2.35556, 39.4477 ],
      "max" : [ -44.4683, 10.05, 62.893 ],
      "componentType" : 5126,
      "count" : 5805,
      "type" : "VEC3"
    },
    {
      "bufferView" : 10,
      "componentType" : 5126,
      "count" : 5805,
      "type" : "VEC3"
    },
    {
      "bufferView" : 11,
      "componentType" : 5126,
      "count" : 5805,
      "type" : "VEC4"
    },
    {
      "bufferView" : 12,
      "componentType" : 5126,
      "count" : 5805,
      "type" : "VEC2"
    },
    {
      "bufferView" : 13,
      "componentType" : 5126,
      "count" : 5805,
      "type" : "VEC2"
    },
    {
      "bufferView" : 14,
      "componentType" : 5126,
      "count" : 5805,
      "type" : "VEC2"
    },
    {
      "bufferView" : 15,
      "componentType" : 5126,
      "count" : 5805,
      "type" : "VEC2"
    }
  ]
}
