{
  "asset" : {
    "generator" : "UE Viewer (umodel) build 1579 based",
    "version" : "2.0"
  },
  "scene" : 0,
  "scenes" : [
    {
      "nodes" : [ 0 ]
    }
  ],
  "nodes" : [
    {
      "name" : "S_Envi_Olgk_HWR_01d",
      "mesh" : 0
    }
  ],
  "materials" : [
    {
      "name" : "MI_Envi_Olgk_HWR_01f",
      "pbrMetallicRoughness" : {
        "baseColorFactor" : [ 0.3, 0.3, 0.3, 1.0 ],
        "metallicFactor" : 0.1,
        "roughnessFactor" : 0.5
      }
    }
  ],
  "meshes" : [
    {
      "primitives" : [
        {
          "attributes" : {
            "POSITION" : 1,
            "NORMAL" : 2,
            "TANGENT" : 3,
            "TEXCOORD_0" : 4,
            "TEXCOORD_1" : 5,
            "TEXCOORD_2" : 6,
            "TEXCOORD_3" : 7
          },
          "indices" : 0,
          "material" : 0
        }
      ],
      "name" : "S_Envi_Olgk_HWR_01d"
    }
  ],
  "buffers" : [
    {
      "uri" : "S_Envi_Olgk_HWR_01d.bin",
      "byteLength" : 9972
    }
  ],
  "bufferViews" : [
    {
      "buffer" : 0,
      "byteOffset" : 0,
      "byteLength" : 612
    },
    {
      "buffer" : 0,
      "byteOffset" : 612,
      "byteLength" : 1560
    },
    {
      "buffer" : 0,
      "byteOffset" : 2172,
      "byteLength" : 1560
    },
    {
      "buffer" : 0,
      "byteOffset" : 3732,
      "byteLength" : 2080
    },
    {
      "buffer" : 0,
      "byteOffset" : 5812,
      "byteLength" : 1040
    },
    {
      "buffer" : 0,
      "byteOffset" : 6852,
      "byteLength" : 1040
    },
    {
      "buffer" : 0,
      "byteOffset" : 7892,
      "byteLength" : 1040
    },
    {
      "buffer" : 0,
      "byteOffset" : 8932,
      "byteLength" : 1040
    }
  ],
  "accessors" : [
    {
      "bufferView" : 0,
      "componentType" : 5123,
      "count" : 306,
      "type" : "SCALAR"
    },
    {
      "bufferView" : 1,
      "min" : [ -3.98072, 7.28197, -3.9821 ],
      "max" : [ 3.98546, 14.9359, 3.98407 ],
      "componentType" : 5126,
      "count" : 130,
      "type" : "VEC3"
    },
    {
      "bufferView" : 2,
      "componentType" : 5126,
      "count" : 130,
      "type" : "VEC3"
    },
    {
      "bufferView" : 3,
      "componentType" : 5126,
      "count" : 130,
      "type" : "VEC4"
    },
    {
      "bufferView" : 4,
      "componentType" : 5126,
      "count" : 130,
      "type" : "VEC2"
    },
    {
      "bufferView" : 5,
      "componentType" : 5126,
      "count" : 130,
      "type" : "VEC2"
    },
    {
      "bufferView" : 6,
      "componentType" : 5126,
      "count" : 130,
      "type" : "VEC2"
    },
    {
      "bufferView" : 7,
      "componentType" : 5126,
      "count" : 130,
      "type" : "VEC2"
    }
  ]
}
