{
  "asset" : {
    "generator" : "UE Viewer (umodel) build 1579 based",
    "version" : "2.0"
  },
  "scene" : 0,
  "scenes" : [
    {
      "nodes" : [ 0 ]
    }
  ],
  "nodes" : [
    {
      "name" : "S_Envi_Olgk_Water_a",
      "mesh" : 0
    }
  ],
  "materials" : [
    {
      "name" : "S_Envi_Olgk_Water_02",
      "pbrMetallicRoughness" : {
        "baseColorFactor" : [ 0.3, 0.3, 0.3, 1.0 ],
        "metallicFactor" : 0.1,
        "roughnessFactor" : 0.5
      }
    }
  ],
  "meshes" : [
    {
      "primitives" : [
        {
          "attributes" : {
            "POSITION" : 1,
            "NORMAL" : 2,
            "TANGENT" : 3,
            "TEXCOORD_0" : 4,
            "TEXCOORD_1" : 5
          },
          "indices" : 0,
          "material" : 0
        }
      ],
      "name" : "S_Envi_Olgk_Water_a"
    }
  ],
  "buffers" : [
    {
      "uri" : "S_Envi_Olgk_Water_a.bin",
      "byteLength" : 151616
    }
  ],
  "bufferViews" : [
    {
      "buffer" : 0,
      "byteOffset" : 0,
      "byteLength" : 25728
    },
    {
      "buffer" : 0,
      "byteOffset" : 25728,
      "byteLength" : 26976
    },
    {
      "buffer" : 0,
      "byteOffset" : 52704,
      "byteLength" : 26976
    },
    {
      "buffer" : 0,
      "byteOffset" : 79680,
      "byteLength" : 35968
    },
    {
      "buffer" : 0,
      "byteOffset" : 115648,
      "byteLength" : 17984
    },
    {
      "buffer" : 0,
      "byteOffset" : 133632,
      "byteLength" : 17984
    }
  ],
  "accessors" : [
    {
      "bufferView" : 0,
      "componentType" : 5123,
      "count" : 12864,
      "type" : "SCALAR"
    },
    {
      "bufferView" : 1,
      "min" : [ -7.10639, -8.57909e-16, -14.0107 ],
      "max" : [ 48, 7.34132e-16, 11.9893 ],
      "componentType" : 5126,
      "count" : 2248,
      "type" : "VEC3"
    },
    {
      "bufferView" : 2,
      "componentType" : 5126,
      "count" : 2248,
      "type" : "VEC3"
    },
    {
      "bufferView" : 3,
      "componentType" : 5126,
      "count" : 2248,
      "type" : "VEC4"
    },
    {
      "bufferView" : 4,
      "componentType" : 5126,
      "count" : 2248,
      "type" : "VEC2"
    },
    {
      "bufferView" : 5,
      "componentType" : 5126,
      "count" : 2248,
      "type" : "VEC2"
    }
  ]
}
