{
  "asset" : {
    "generator" : "UE Viewer (umodel) build 1579 based",
    "version" : "2.0"
  },
  "scene" : 0,
  "scenes" : [
    {
      "nodes" : [ 0 ]
    }
  ],
  "nodes" : [
    {
      "name" : "S_Envi_Olgk_Platform_13b",
      "mesh" : 0
    }
  ],
  "materials" : [
    {
      "name" : "MI_Envi_Olgk_Platform_12a",
      "pbrMetallicRoughness" : {
        "baseColorFactor" : [ 0.3, 0.3, 0.3, 1.0 ],
        "metallicFactor" : 0.1,
        "roughnessFactor" : 0.5
      }
    }
  ],
  "meshes" : [
    {
      "primitives" : [
        {
          "attributes" : {
            "POSITION" : 1,
            "NORMAL" : 2,
            "TANGENT" : 3,
            "TEXCOORD_0" : 4,
            "TEXCOORD_1" : 5
          },
          "indices" : 0,
          "material" : 0
        }
      ],
      "name" : "S_Envi_Olgk_Platform_13b"
    }
  ],
  "buffers" : [
    {
      "uri" : "S_Envi_Olgk_Platform_13b.bin",
      "byteLength" : 9156
    }
  ],
  "bufferViews" : [
    {
      "buffer" : 0,
      "byteOffset" : 0,
      "byteLength" : 756
    },
    {
      "buffer" : 0,
      "byteOffset" : 756,
      "byteLength" : 1800
    },
    {
      "buffer" : 0,
      "byteOffset" : 2556,
      "byteLength" : 1800
    },
    {
      "buffer" : 0,
      "byteOffset" : 4356,
      "byteLength" : 2400
    },
    {
      "buffer" : 0,
      "byteOffset" : 6756,
      "byteLength" : 1200
    },
    {
      "buffer" : 0,
      "byteOffset" : 7956,
      "byteLength" : 1200
    }
  ],
  "accessors" : [
    {
      "bufferView" : 0,
      "componentType" : 5123,
      "count" : 378,
      "type" : "SCALAR"
    },
    {
      "bufferView" : 1,
      "min" : [ -0.191192, -0.0329034, 7.65991e-05 ],
      "max" : [ 0.0858887, 0.309442, 0.446805 ],
      "componentType" : 5126,
      "count" : 150,
      "type" : "VEC3"
    },
    {
      "bufferView" : 2,
      "componentType" : 5126,
      "count" : 150,
      "type" : "VEC3"
    },
    {
      "bufferView" : 3,
      "componentType" : 5126,
      "count" : 150,
      "type" : "VEC4"
    },
    {
      "bufferView" : 4,
      "componentType" : 5126,
      "count" : 150,
      "type" : "VEC2"
    },
    {
      "bufferView" : 5,
      "componentType" : 5126,
      "count" : 150,
      "type" : "VEC2"
    }
  ]
}
