{
  "asset" : {
    "generator" : "UE Viewer (umodel) build 1579 based",
    "version" : "2.0"
  },
  "scene" : 0,
  "scenes" : [
    {
      "nodes" : [ 0 ]
    }
  ],
  "nodes" : [
    {
      "name" : "S_Envi_Olgk_Door_03c",
      "mesh" : 0
    }
  ],
  "materials" : [
    {
      "name" : "MI_Envi_Olgk_Door_03b",
      "pbrMetallicRoughness" : {
        "baseColorFactor" : [ 0.3, 0.3, 0.3, 1.0 ],
        "metallicFactor" : 0.1,
        "roughnessFactor" : 0.5
      }
    },
    {
      "name" : "M_ControlPanelEF",
      "pbrMetallicRoughness" : {
        "baseColorFactor" : [ 0.9, 0.3, 0.3, 1.0 ],
        "metallicFactor" : 0.1,
        "roughnessFactor" : 0.5
      }
    }
  ],
  "meshes" : [
    {
      "primitives" : [
        {
          "attributes" : {
            "POSITION" : 1,
            "NORMAL" : 2,
            "TANGENT" : 3,
            "TEXCOORD_0" : 4,
            "TEXCOORD_1" : 5
          },
          "indices" : 0,
          "material" : 0
        },
        {
          "attributes" : {
            "POSITION" : 7,
            "NORMAL" : 8,
            "TANGENT" : 9,
            "TEXCOORD_0" : 10,
            "TEXCOORD_1" : 11
          },
          "indices" : 6,
          "material" : 1
        }
      ],
      "name" : "S_Envi_Olgk_Door_03c"
    }
  ],
  "buffers" : [
    {
      "uri" : "S_Envi_Olgk_Door_03c.bin",
      "byteLength" : 42244
    }
  ],
  "bufferViews" : [
    {
      "buffer" : 0,
      "byteOffset" : 0,
      "byteLength" : 2784
    },
    {
      "buffer" : 0,
      "byteOffset" : 2784,
      "byteLength" : 8352
    },
    {
      "buffer" : 0,
      "byteOffset" : 11136,
      "byteLength" : 8352
    },
    {
      "buffer" : 0,
      "byteOffset" : 19488,
      "byteLength" : 11136
    },
    {
      "buffer" : 0,
      "byteOffset" : 30624,
      "byteLength" : 5568
    },
    {
      "buffer" : 0,
      "byteOffset" : 36192,
      "byteLength" : 5568
    },
    {
      "buffer" : 0,
      "byteOffset" : 41760,
      "byteLength" : 36
    },
    {
      "buffer" : 0,
      "byteOffset" : 41796,
      "byteLength" : 96
    },
    {
      "buffer" : 0,
      "byteOffset" : 41892,
      "byteLength" : 96
    },
    {
      "buffer" : 0,
      "byteOffset" : 41988,
      "byteLength" : 128
    },
    {
      "buffer" : 0,
      "byteOffset" : 42116,
      "byteLength" : 64
    },
    {
      "buffer" : 0,
      "byteOffset" : 42180,
      "byteLength" : 64
    }
  ],
  "accessors" : [
    {
      "bufferView" : 0,
      "componentType" : 5123,
      "count" : 1392,
      "type" : "SCALAR"
    },
    {
      "bufferView" : 1,
      "min" : [ -0.40593, -2.7774e-07, -0.354463 ],
      "max" : [ 0.385878, 2.20387, 0.354463 ],
      "componentType" : 5126,
      "count" : 696,
      "type" : "VEC3"
    },
    {
      "bufferView" : 2,
      "componentType" : 5126,
      "count" : 696,
      "type" : "VEC3"
    },
    {
      "bufferView" : 3,
      "componentType" : 5126,
      "count" : 696,
      "type" : "VEC4"
    },
    {
      "bufferView" : 4,
      "componentType" : 5126,
      "count" : 696,
      "type" : "VEC2"
    },
    {
      "bufferView" : 5,
      "componentType" : 5126,
      "count" : 696,
      "type" : "VEC2"
    },
    {
      "bufferView" : 6,
      "componentType" : 5123,
      "count" : 18,
      "type" : "SCALAR"
    },
    {
      "bufferView" : 7,
      "min" : [ -0.335486, 1.21417, 0.0830137 ],
      "max" : [ 0.335478, 1.65071, 0.305444 ],
      "componentType" : 5126,
      "count" : 8,
      "type" : "VEC3"
    },
    {
      "bufferView" : 8,
      "componentType" : 5126,
      "count" : 8,
      "type" : "VEC3"
    },
    {
      "bufferView" : 9,
      "componentType" : 5126,
      "count" : 8,
      "type" : "VEC4"
    },
    {
      "bufferView" : 10,
      "componentType" : 5126,
      "count" : 8,
      "type" : "VEC2"
    },
    {
      "bufferView" : 11,
      "componentType" : 5126,
      "count" : 8,
      "type" : "VEC2"
    }
  ]
}
