{
  "asset" : {
    "generator" : "UE Viewer (umodel) build 1579 based",
    "version" : "2.0"
  },
  "scene" : 0,
  "scenes" : [
    {
      "nodes" : [ 0 ]
    }
  ],
  "nodes" : [
    {
      "name" : "S_Envi_Olgk_GoodsShelves_01t",
      "mesh" : 0
    }
  ],
  "materials" : [
    {
      "name" : "MI_Envi_Olgk_GoodsShelves_01a",
      "pbrMetallicRoughness" : {
        "baseColorFactor" : [ 0.3, 0.3, 0.3, 1.0 ],
        "metallicFactor" : 0.1,
        "roughnessFactor" : 0.5
      }
    }
  ],
  "meshes" : [
    {
      "primitives" : [
        {
          "attributes" : {
            "POSITION" : 1,
            "NORMAL" : 2,
            "TANGENT" : 3,
            "TEXCOORD_0" : 4,
            "TEXCOORD_1" : 5
          },
          "indices" : 0,
          "material" : 0
        }
      ],
      "name" : "S_Envi_Olgk_GoodsShelves_01t"
    }
  ],
  "buffers" : [
    {
      "uri" : "S_Envi_Olgk_GoodsShelves_01t.bin",
      "byteLength" : 22800
    }
  ],
  "bufferViews" : [
    {
      "buffer" : 0,
      "byteOffset" : 0,
      "byteLength" : 1296
    },
    {
      "buffer" : 0,
      "byteOffset" : 1296,
      "byteLength" : 4608
    },
    {
      "buffer" : 0,
      "byteOffset" : 5904,
      "byteLength" : 4608
    },
    {
      "buffer" : 0,
      "byteOffset" : 10512,
      "byteLength" : 6144
    },
    {
      "buffer" : 0,
      "byteOffset" : 16656,
      "byteLength" : 3072
    },
    {
      "buffer" : 0,
      "byteOffset" : 19728,
      "byteLength" : 3072
    }
  ],
  "accessors" : [
    {
      "bufferView" : 0,
      "componentType" : 5123,
      "count" : 648,
      "type" : "SCALAR"
    },
    {
      "bufferView" : 1,
      "min" : [ -2.54683, -0.340209, -0.140397 ],
      "max" : [ 2.54683, 0.340209, 0.140397 ],
      "componentType" : 5126,
      "count" : 384,
      "type" : "VEC3"
    },
    {
      "bufferView" : 2,
      "componentType" : 5126,
      "count" : 384,
      "type" : "VEC3"
    },
    {
      "bufferView" : 3,
      "componentType" : 5126,
      "count" : 384,
      "type" : "VEC4"
    },
    {
      "bufferView" : 4,
      "componentType" : 5126,
      "count" : 384,
      "type" : "VEC2"
    },
    {
      "bufferView" : 5,
      "componentType" : 5126,
      "count" : 384,
      "type" : "VEC2"
    }
  ]
}
