{
  "asset" : {
    "generator" : "UE Viewer (umodel) build 1579 based",
    "version" : "2.0"
  },
  "scene" : 0,
  "scenes" : [
    {
      "nodes" : [ 0 ]
    }
  ],
  "nodes" : [
    {
      "name" : "S_Envi_Olgk_RTgantryCrane_01_Low",
      "mesh" : 0
    }
  ],
  "materials" : [
    {
      "name" : "MI_Envi_Olgk_RTgantryCrane_01c",
      "pbrMetallicRoughness" : {
        "baseColorFactor" : [ 0.3, 0.3, 0.3, 1.0 ],
        "metallicFactor" : 0.1,
        "roughnessFactor" : 0.5
      }
    },
    {
      "name" : "MI_Envi_Olgk_RTgantryCrane_01a",
      "pbrMetallicRoughness" : {
        "baseColorFactor" : [ 0.9, 0.3, 0.3, 1.0 ],
        "metallicFactor" : 0.1,
        "roughnessFactor" : 0.5
      }
    },
    {
      "name" : "MI_Envi_Olgk_RTgantryCrane_01b",
      "pbrMetallicRoughness" : {
        "baseColorFactor" : [ 0.3, 0.9, 0.3, 1.0 ],
        "metallicFactor" : 0.1,
        "roughnessFactor" : 0.5
      }
    }
  ],
  "meshes" : [
    {
      "primitives" : [
        {
          "attributes" : {
            "POSITION" : 1,
            "NORMAL" : 2,
            "TANGENT" : 3,
            "TEXCOORD_0" : 4,
            "TEXCOORD_1" : 5,
            "TEXCOORD_2" : 6,
            "TEXCOORD_3" : 7
          },
          "indices" : 0,
          "material" : 0
        },
        {
          "attributes" : {
            "POSITION" : 9,
            "NORMAL" : 10,
            "TANGENT" : 11,
            "TEXCOORD_0" : 12,
            "TEXCOORD_1" : 13,
            "TEXCOORD_2" : 14,
            "TEXCOORD_3" : 15
          },
          "indices" : 8,
          "material" : 1
        },
        {
          "attributes" : {
            "POSITION" : 17,
            "NORMAL" : 18,
            "TANGENT" : 19,
            "TEXCOORD_0" : 20,
            "TEXCOORD_1" : 21,
            "TEXCOORD_2" : 22,
            "TEXCOORD_3" : 23
          },
          "indices" : 16,
          "material" : 2
        }
      ],
      "name" : "S_Envi_Olgk_RTgantryCrane_01_Low"
    }
  ],
  "buffers" : [
    {
      "uri" : "S_Envi_Olgk_RTgantryCrane_01_Low.bin",
      "byteLength" : 511644
    }
  ],
  "bufferViews" : [
    {
      "buffer" : 0,
      "byteOffset" : 0,
      "byteLength" : 6372
    },
    {
      "buffer" : 0,
      "byteOffset" : 6372,
      "byteLength" : 28536
    },
    {
      "buffer" : 0,
      "byteOffset" : 34908,
      "byteLength" : 28536
    },
    {
      "buffer" : 0,
      "byteOffset" : 63444,
      "byteLength" : 38048
    },
    {
      "buffer" : 0,
      "byteOffset" : 101492,
      "byteLength" : 19024
    },
    {
      "buffer" : 0,
      "byteOffset" : 120516,
      "byteLength" : 19024
    },
    {
      "buffer" : 0,
      "byteOffset" : 139540,
      "byteLength" : 19024
    },
    {
      "buffer" : 0,
      "byteOffset" : 158564,
      "byteLength" : 19024
    },
    {
      "buffer" : 0,
      "byteOffset" : 177588,
      "byteLength" : 8760
    },
    {
      "buffer" : 0,
      "byteOffset" : 186348,
      "byteLength" : 32184
    },
    {
      "buffer" : 0,
      "byteOffset" : 218532,
      "byteLength" : 32184
    },
    {
      "buffer" : 0,
      "byteOffset" : 250716,
      "byteLength" : 42912
    },
    {
      "buffer" : 0,
      "byteOffset" : 293628,
      "byteLength" : 21456
    },
    {
      "buffer" : 0,
      "byteOffset" : 315084,
      "byteLength" : 21456
    },
    {
      "buffer" : 0,
      "byteOffset" : 336540,
      "byteLength" : 21456
    },
    {
      "buffer" : 0,
      "byteOffset" : 357996,
      "byteLength" : 21456
    },
    {
      "buffer" : 0,
      "byteOffset" : 379452,
      "byteLength" : 5760
    },
    {
      "buffer" : 0,
      "byteOffset" : 385212,
      "byteLength" : 21072
    },
    {
      "buffer" : 0,
      "byteOffset" : 406284,
      "byteLength" : 21072
    },
    {
      "buffer" : 0,
      "byteOffset" : 427356,
      "byteLength" : 28096
    },
    {
      "buffer" : 0,
      "byteOffset" : 455452,
      "byteLength" : 14048
    },
    {
      "buffer" : 0,
      "byteOffset" : 469500,
      "byteLength" : 14048
    },
    {
      "buffer" : 0,
      "byteOffset" : 483548,
      "byteLength" : 14048
    },
    {
      "buffer" : 0,
      "byteOffset" : 497596,
      "byteLength" : 14048
    }
  ],
  "accessors" : [
    {
      "bufferView" : 0,
      "componentType" : 5123,
      "count" : 3186,
      "type" : "SCALAR"
    },
    {
      "bufferView" : 1,
      "min" : [ -19.5121, -0.124151, -12.985 ],
      "max" : [ 22.5291, 37.7543, 15.3185 ],
      "componentType" : 5126,
      "count" : 2378,
      "type" : "VEC3"
    },
    {
      "bufferView" : 2,
      "componentType" : 5126,
      "count" : 2378,
      "type" : "VEC3"
    },
    {
      "bufferView" : 3,
      "componentType" : 5126,
      "count" : 2378,
      "type" : "VEC4"
    },
    {
      "bufferView" : 4,
      "componentType" : 5126,
      "count" : 2378,
      "type" : "VEC2"
    },
    {
      "bufferView" : 5,
      "componentType" : 5126,
      "count" : 2378,
      "type" : "VEC2"
    },
    {
      "bufferView" : 6,
      "componentType" : 5126,
      "count" : 2378,
      "type" : "VEC2"
    },
    {
      "bufferView" : 7,
      "componentType" : 5126,
      "count" : 2378,
      "type" : "VEC2"
    },
    {
      "bufferView" : 8,
      "componentType" : 5123,
      "count" : 4380,
      "type" : "SCALAR"
    },
    {
      "bufferView" : 9,
      "min" : [ -21.2822, 1.02996, -12.0489 ],
      "max" : [ 22.7269, 42.4718, 15.4736 ],
      "componentType" : 5126,
      "count" : 2682,
      "type" : "VEC3"
    },
    {
      "bufferView" : 10,
      "componentType" : 5126,
      "count" : 2682,
      "type" : "VEC3"
    },
    {
      "bufferView" : 11,
      "componentType" : 5126,
      "count" : 2682,
      "type" : "VEC4"
    },
    {
      "bufferView" : 12,
      "componentType" : 5126,
      "count" : 2682,
      "type" : "VEC2"
    },
    {
      "bufferView" : 13,
      "componentType" : 5126,
      "count" : 2682,
      "type" : "VEC2"
    },
    {
      "bufferView" : 14,
      "componentType" : 5126,
      "count" : 2682,
      "type" : "VEC2"
    },
    {
      "bufferView" : 15,
      "componentType" : 5126,
      "count" : 2682,
      "type" : "VEC2"
    },
    {
      "bufferView" : 16,
      "componentType" : 5123,
      "count" : 2880,
      "type" : "SCALAR"
    },
    {
      "bufferView" : 17,
      "min" : [ -21.2822, 0, -11.9231 ],
      "max" : [ 22.7269, 34.6984, 17.008 ],
      "componentType" : 5126,
      "count" : 1756,
      "type" : "VEC3"
    },
    {
      "bufferView" : 18,
      "componentType" : 5126,
      "count" : 1756,
      "type" : "VEC3"
    },
    {
      "bufferView" : 19,
      "componentType" : 5126,
      "count" : 1756,
      "type" : "VEC4"
    },
    {
      "bufferView" : 20,
      "componentType" : 5126,
      "count" : 1756,
      "type" : "VEC2"
    },
    {
      "bufferView" : 21,
      "componentType" : 5126,
      "count" : 1756,
      "type" : "VEC2"
    },
    {
      "bufferView" : 22,
      "componentType" : 5126,
      "count" : 1756,
      "type" : "VEC2"
    },
    {
      "bufferView" : 23,
      "componentType" : 5126,
      "count" : 1756,
      "type" : "VEC2"
    }
  ]
}
