{
  "asset" : {
    "generator" : "UE Viewer (umodel) build 1579 based",
    "version" : "2.0"
  },
  "scene" : 0,
  "scenes" : [
    {
      "nodes" : [ 0 ]
    }
  ],
  "nodes" : [
    {
      "name" : "S_Envi_Common_ReWall_Merge_01",
      "mesh" : 0
    }
  ],
  "materials" : [
    {
      "name" : "MI_Envi_Common_ReWall_Merge_01",
      "pbrMetallicRoughness" : {
        "baseColorFactor" : [ 0.3, 0.3, 0.3, 1.0 ],
        "metallicFactor" : 0.1,
        "roughnessFactor" : 0.5
      }
    }
  ],
  "meshes" : [
    {
      "primitives" : [
        {
          "attributes" : {
            "POSITION" : 1,
            "NORMAL" : 2,
            "TANGENT" : 3,
            "TEXCOORD_0" : 4,
            "TEXCOORD_1" : 5
          },
          "indices" : 0,
          "material" : 0
        }
      ],
      "name" : "S_Envi_Common_ReWall_Merge_01"
    }
  ],
  "buffers" : [
    {
      "uri" : "S_Envi_Common_ReWall_Merge_01.bin",
      "byteLength" : 803860
    }
  ],
  "bufferViews" : [
    {
      "buffer" : 0,
      "byteOffset" : 0,
      "byteLength" : 50100
    },
    {
      "buffer" : 0,
      "byteOffset" : 50100,
      "byteLength" : 161520
    },
    {
      "buffer" : 0,
      "byteOffset" : 211620,
      "byteLength" : 161520
    },
    {
      "buffer" : 0,
      "byteOffset" : 373140,
      "byteLength" : 215360
    },
    {
      "buffer" : 0,
      "byteOffset" : 588500,
      "byteLength" : 107680
    },
    {
      "buffer" : 0,
      "byteOffset" : 696180,
      "byteLength" : 107680
    }
  ],
  "accessors" : [
    {
      "bufferView" : 0,
      "componentType" : 5123,
      "count" : 25050,
      "type" : "SCALAR"
    },
    {
      "bufferView" : 1,
      "min" : [ 20.9855, 2.03247, -33.3901 ],
      "max" : [ 61.4814, 17.2219, 9.74018 ],
      "componentType" : 5126,
      "count" : 13460,
      "type" : "VEC3"
    },
    {
      "bufferView" : 2,
      "componentType" : 5126,
      "count" : 13460,
      "type" : "VEC3"
    },
    {
      "bufferView" : 3,
      "componentType" : 5126,
      "count" : 13460,
      "type" : "VEC4"
    },
    {
      "bufferView" : 4,
      "componentType" : 5126,
      "count" : 13460,
      "type" : "VEC2"
    },
    {
      "bufferView" : 5,
      "componentType" : 5126,
      "count" : 13460,
      "type" : "VEC2"
    }
  ]
}
