{
  "asset" : {
    "generator" : "UE Viewer (umodel) build 1579 based",
    "version" : "2.0"
  },
  "scene" : 0,
  "scenes" : [
    {
      "nodes" : [ 0 ]
    }
  ],
  "nodes" : [
    {
      "name" : "S_Envi_Olgk_Common_Pipe_Merge_01c",
      "mesh" : 0
    }
  ],
  "materials" : [
    {
      "name" : "MI_Envi_Common_Pipe_01a",
      "pbrMetallicRoughness" : {
        "baseColorFactor" : [ 0.3, 0.3, 0.3, 1.0 ],
        "metallicFactor" : 0.1,
        "roughnessFactor" : 0.5
      }
    },
    {
      "name" : "MI_Envi_Common_Pipe_02a",
      "pbrMetallicRoughness" : {
        "baseColorFactor" : [ 0.9, 0.3, 0.3, 1.0 ],
        "metallicFactor" : 0.1,
        "roughnessFactor" : 0.5
      }
    }
  ],
  "meshes" : [
    {
      "primitives" : [
        {
          "attributes" : {
            "POSITION" : 1,
            "NORMAL" : 2,
            "TANGENT" : 3,
            "TEXCOORD_0" : 4,
            "TEXCOORD_1" : 5
          },
          "indices" : 0,
          "material" : 0
        },
        {
          "attributes" : {
            "POSITION" : 7,
            "NORMAL" : 8,
            "TANGENT" : 9,
            "TEXCOORD_0" : 10,
            "TEXCOORD_1" : 11
          },
          "indices" : 6,
          "material" : 1
        }
      ],
      "name" : "S_Envi_Olgk_Common_Pipe_Merge_01c"
    }
  ],
  "buffers" : [
    {
      "uri" : "S_Envi_Olgk_Common_Pipe_Merge_01c.bin",
      "byteLength" : 447216
    }
  ],
  "bufferViews" : [
    {
      "buffer" : 0,
      "byteOffset" : 0,
      "byteLength" : 24504
    },
    {
      "buffer" : 0,
      "byteOffset" : 24504,
      "byteLength" : 65868
    },
    {
      "buffer" : 0,
      "byteOffset" : 90372,
      "byteLength" : 65868
    },
    {
      "buffer" : 0,
      "byteOffset" : 156240,
      "byteLength" : 87824
    },
    {
      "buffer" : 0,
      "byteOffset" : 244064,
      "byteLength" : 43912
    },
    {
      "buffer" : 0,
      "byteOffset" : 287976,
      "byteLength" : 43912
    },
    {
      "buffer" : 0,
      "byteOffset" : 331888,
      "byteLength" : 10160
    },
    {
      "buffer" : 0,
      "byteOffset" : 342048,
      "byteLength" : 22536
    },
    {
      "buffer" : 0,
      "byteOffset" : 364584,
      "byteLength" : 22536
    },
    {
      "buffer" : 0,
      "byteOffset" : 387120,
      "byteLength" : 30048
    },
    {
      "buffer" : 0,
      "byteOffset" : 417168,
      "byteLength" : 15024
    },
    {
      "buffer" : 0,
      "byteOffset" : 432192,
      "byteLength" : 15024
    }
  ],
  "accessors" : [
    {
      "bufferView" : 0,
      "componentType" : 5123,
      "count" : 12252,
      "type" : "SCALAR"
    },
    {
      "bufferView" : 1,
      "min" : [ 25.3165, 6.9318, -38.85 ],
      "max" : [ 57.3903, 26.1457, 8.5794 ],
      "componentType" : 5126,
      "count" : 5489,
      "type" : "VEC3"
    },
    {
      "bufferView" : 2,
      "componentType" : 5126,
      "count" : 5489,
      "type" : "VEC3"
    },
    {
      "bufferView" : 3,
      "componentType" : 5126,
      "count" : 5489,
      "type" : "VEC4"
    },
    {
      "bufferView" : 4,
      "componentType" : 5126,
      "count" : 5489,
      "type" : "VEC2"
    },
    {
      "bufferView" : 5,
      "componentType" : 5126,
      "count" : 5489,
      "type" : "VEC2"
    },
    {
      "bufferView" : 6,
      "componentType" : 5123,
      "count" : 5079,
      "type" : "SCALAR"
    },
    {
      "bufferView" : 7,
      "min" : [ 25.4663, 2.76326, -43.4 ],
      "max" : [ 70.2317, 28.1345, 9.99924 ],
      "componentType" : 5126,
      "count" : 1878,
      "type" : "VEC3"
    },
    {
      "bufferView" : 8,
      "componentType" : 5126,
      "count" : 1878,
      "type" : "VEC3"
    },
    {
      "bufferView" : 9,
      "componentType" : 5126,
      "count" : 1878,
      "type" : "VEC4"
    },
    {
      "bufferView" : 10,
      "componentType" : 5126,
      "count" : 1878,
      "type" : "VEC2"
    },
    {
      "bufferView" : 11,
      "componentType" : 5126,
      "count" : 1878,
      "type" : "VEC2"
    }
  ]
}
