{
  "asset" : {
    "generator" : "UE Viewer (umodel) build 1579 based",
    "version" : "2.0"
  },
  "scene" : 0,
  "scenes" : [
    {
      "nodes" : [ 0 ]
    }
  ],
  "nodes" : [
    {
      "name" : "S_Envi_Olgk_Fence_Merge_01c",
      "mesh" : 0
    }
  ],
  "materials" : [
    {
      "name" : "MI_Envi_Olgk_Fence_01a",
      "pbrMetallicRoughness" : {
        "baseColorFactor" : [ 0.3, 0.3, 0.3, 1.0 ],
        "metallicFactor" : 0.1,
        "roughnessFactor" : 0.5
      }
    }
  ],
  "meshes" : [
    {
      "primitives" : [
        {
          "attributes" : {
            "POSITION" : 1,
            "NORMAL" : 2,
            "TANGENT" : 3,
            "TEXCOORD_0" : 4,
            "TEXCOORD_1" : 5
          },
          "indices" : 0,
          "material" : 0
        }
      ],
      "name" : "S_Envi_Olgk_Fence_Merge_01c"
    }
  ],
  "buffers" : [
    {
      "uri" : "S_Envi_Olgk_Fence_Merge_01c.bin",
      "byteLength" : 262704
    }
  ],
  "bufferViews" : [
    {
      "buffer" : 0,
      "byteOffset" : 0,
      "byteLength" : 23304
    },
    {
      "buffer" : 0,
      "byteOffset" : 23304,
      "byteLength" : 51300
    },
    {
      "buffer" : 0,
      "byteOffset" : 74604,
      "byteLength" : 51300
    },
    {
      "buffer" : 0,
      "byteOffset" : 125904,
      "byteLength" : 68400
    },
    {
      "buffer" : 0,
      "byteOffset" : 194304,
      "byteLength" : 34200
    },
    {
      "buffer" : 0,
      "byteOffset" : 228504,
      "byteLength" : 34200
    }
  ],
  "accessors" : [
    {
      "bufferView" : 0,
      "componentType" : 5123,
      "count" : 11652,
      "type" : "SCALAR"
    },
    {
      "bufferView" : 1,
      "min" : [ 5.04749, 2.83524, 99.702 ],
      "max" : [ 31.6921, 7.87137, 118.165 ],
      "componentType" : 5126,
      "count" : 4275,
      "type" : "VEC3"
    },
    {
      "bufferView" : 2,
      "componentType" : 5126,
      "count" : 4275,
      "type" : "VEC3"
    },
    {
      "bufferView" : 3,
      "componentType" : 5126,
      "count" : 4275,
      "type" : "VEC4"
    },
    {
      "bufferView" : 4,
      "componentType" : 5126,
      "count" : 4275,
      "type" : "VEC2"
    },
    {
      "bufferView" : 5,
      "componentType" : 5126,
      "count" : 4275,
      "type" : "VEC2"
    }
  ]
}
