{
  "asset" : {
    "generator" : "UE Viewer (umodel) build 1579 based",
    "version" : "2.0"
  },
  "scene" : 0,
  "scenes" : [
    {
      "nodes" : [ 0 ]
    }
  ],
  "nodes" : [
    {
      "name" : "S_Envi_Olgk_Transporter_01a",
      "mesh" : 0
    }
  ],
  "materials" : [
    {
      "name" : "MI_Envi_Olgk_Transporter_01a",
      "pbrMetallicRoughness" : {
        "baseColorFactor" : [ 0.3, 0.3, 0.3, 1.0 ],
        "metallicFactor" : 0.1,
        "roughnessFactor" : 0.5
      }
    }
  ],
  "meshes" : [
    {
      "primitives" : [
        {
          "attributes" : {
            "POSITION" : 1,
            "NORMAL" : 2,
            "TANGENT" : 3,
            "TEXCOORD_0" : 4,
            "TEXCOORD_1" : 5
          },
          "indices" : 0,
          "material" : 0
        }
      ],
      "name" : "S_Envi_Olgk_Transporter_01a"
    }
  ],
  "buffers" : [
    {
      "uri" : "S_Envi_Olgk_Transporter_01a.bin",
      "byteLength" : 586388
    }
  ],
  "bufferViews" : [
    {
      "buffer" : 0,
      "byteOffset" : 0,
      "byteLength" : 27900
    },
    {
      "buffer" : 0,
      "byteOffset" : 27900,
      "byteLength" : 119676
    },
    {
      "buffer" : 0,
      "byteOffset" : 147576,
      "byteLength" : 119676
    },
    {
      "buffer" : 0,
      "byteOffset" : 267252,
      "byteLength" : 159568
    },
    {
      "buffer" : 0,
      "byteOffset" : 426820,
      "byteLength" : 79784
    },
    {
      "buffer" : 0,
      "byteOffset" : 506604,
      "byteLength" : 79784
    }
  ],
  "accessors" : [
    {
      "bufferView" : 0,
      "componentType" : 5123,
      "count" : 13950,
      "type" : "SCALAR"
    },
    {
      "bufferView" : 1,
      "min" : [ -1.9919, -0.00867279, -5.50013 ],
      "max" : [ 1.9919, 2.53519, 5.50013 ],
      "componentType" : 5126,
      "count" : 9973,
      "type" : "VEC3"
    },
    {
      "bufferView" : 2,
      "componentType" : 5126,
      "count" : 9973,
      "type" : "VEC3"
    },
    {
      "bufferView" : 3,
      "componentType" : 5126,
      "count" : 9973,
      "type" : "VEC4"
    },
    {
      "bufferView" : 4,
      "componentType" : 5126,
      "count" : 9973,
      "type" : "VEC2"
    },
    {
      "bufferView" : 5,
      "componentType" : 5126,
      "count" : 9973,
      "type" : "VEC2"
    }
  ]
}
