{
  "asset" : {
    "generator" : "UE Viewer (umodel) build 1579 based",
    "version" : "2.0"
  },
  "scene" : 0,
  "scenes" : [
    {
      "nodes" : [ 0 ]
    }
  ],
  "nodes" : [
    {
      "name" : "S_Envi_Olgk_GoodsShelves_04a",
      "mesh" : 0
    }
  ],
  "materials" : [
    {
      "name" : "MI_Envi_Olgk_GoodsShelves_04a",
      "pbrMetallicRoughness" : {
        "baseColorFactor" : [ 0.3, 0.3, 0.3, 1.0 ],
        "metallicFactor" : 0.1,
        "roughnessFactor" : 0.5
      }
    }
  ],
  "meshes" : [
    {
      "primitives" : [
        {
          "attributes" : {
            "POSITION" : 1,
            "NORMAL" : 2,
            "TANGENT" : 3,
            "TEXCOORD_0" : 4,
            "TEXCOORD_1" : 5
          },
          "indices" : 0,
          "material" : 0
        }
      ],
      "name" : "S_Envi_Olgk_GoodsShelves_04a"
    }
  ],
  "buffers" : [
    {
      "uri" : "S_Envi_Olgk_GoodsShelves_04a.bin",
      "byteLength" : 5192
    }
  ],
  "bufferViews" : [
    {
      "buffer" : 0,
      "byteOffset" : 0,
      "byteLength" : 264
    },
    {
      "buffer" : 0,
      "byteOffset" : 264,
      "byteLength" : 1056
    },
    {
      "buffer" : 0,
      "byteOffset" : 1320,
      "byteLength" : 1056
    },
    {
      "buffer" : 0,
      "byteOffset" : 2376,
      "byteLength" : 1408
    },
    {
      "buffer" : 0,
      "byteOffset" : 3784,
      "byteLength" : 704
    },
    {
      "buffer" : 0,
      "byteOffset" : 4488,
      "byteLength" : 704
    }
  ],
  "accessors" : [
    {
      "bufferView" : 0,
      "componentType" : 5123,
      "count" : 132,
      "type" : "SCALAR"
    },
    {
      "bufferView" : 1,
      "min" : [ -2.61563, -4.57764e-07, -0.114179 ],
      "max" : [ 2.61563, 3.08787, 0.114179 ],
      "componentType" : 5126,
      "count" : 88,
      "type" : "VEC3"
    },
    {
      "bufferView" : 2,
      "componentType" : 5126,
      "count" : 88,
      "type" : "VEC3"
    },
    {
      "bufferView" : 3,
      "componentType" : 5126,
      "count" : 88,
      "type" : "VEC4"
    },
    {
      "bufferView" : 4,
      "componentType" : 5126,
      "count" : 88,
      "type" : "VEC2"
    },
    {
      "bufferView" : 5,
      "componentType" : 5126,
      "count" : 88,
      "type" : "VEC2"
    }
  ]
}
