{
  "asset" : {
    "generator" : "UE Viewer (umodel) build 1579 based",
    "version" : "2.0"
  },
  "scene" : 0,
  "scenes" : [
    {
      "nodes" : [ 0 ]
    }
  ],
  "nodes" : [
    {
      "name" : "S_Envi_Olgk_Freighter_01j",
      "mesh" : 0
    }
  ],
  "materials" : [
    {
      "name" : "MI_Envi_Olgk_Freighter_01b",
      "pbrMetallicRoughness" : {
        "baseColorFactor" : [ 0.3, 0.3, 0.3, 1.0 ],
        "metallicFactor" : 0.1,
        "roughnessFactor" : 0.5
      }
    },
    {
      "name" : "MI_Envi_Olgk_Freighter_01g",
      "pbrMetallicRoughness" : {
        "baseColorFactor" : [ 0.9, 0.3, 0.3, 1.0 ],
        "metallicFactor" : 0.1,
        "roughnessFactor" : 0.5
      }
    },
    {
      "name" : "MI_Envi_Olgk_Freighter_01a",
      "pbrMetallicRoughness" : {
        "baseColorFactor" : [ 0.3, 0.9, 0.3, 1.0 ],
        "metallicFactor" : 0.1,
        "roughnessFactor" : 0.5
      }
    }
  ],
  "meshes" : [
    {
      "primitives" : [
        {
          "attributes" : {
            "POSITION" : 1,
            "NORMAL" : 2,
            "TANGENT" : 3,
            "TEXCOORD_0" : 4,
            "TEXCOORD_1" : 5,
            "TEXCOORD_2" : 6,
            "TEXCOORD_3" : 7
          },
          "indices" : 0,
          "material" : 0
        },
        {
          "attributes" : {
            "POSITION" : 9,
            "NORMAL" : 10,
            "TANGENT" : 11,
            "TEXCOORD_0" : 12,
            "TEXCOORD_1" : 13,
            "TEXCOORD_2" : 14,
            "TEXCOORD_3" : 15
          },
          "indices" : 8,
          "material" : 1
        },
        {
          "attributes" : {
            "POSITION" : 17,
            "NORMAL" : 18,
            "TANGENT" : 19,
            "TEXCOORD_0" : 20,
            "TEXCOORD_1" : 21,
            "TEXCOORD_2" : 22,
            "TEXCOORD_3" : 23
          },
          "indices" : 16,
          "material" : 2
        }
      ],
      "name" : "S_Envi_Olgk_Freighter_01j"
    }
  ],
  "buffers" : [
    {
      "uri" : "S_Envi_Olgk_Freighter_01j.bin",
      "byteLength" : 58368
    }
  ],
  "bufferViews" : [
    {
      "buffer" : 0,
      "byteOffset" : 0,
      "byteLength" : 3504
    },
    {
      "buffer" : 0,
      "byteOffset" : 3504,
      "byteLength" : 6804
    },
    {
      "buffer" : 0,
      "byteOffset" : 10308,
      "byteLength" : 6804
    },
    {
      "buffer" : 0,
      "byteOffset" : 17112,
      "byteLength" : 9072
    },
    {
      "buffer" : 0,
      "byteOffset" : 26184,
      "byteLength" : 4536
    },
    {
      "buffer" : 0,
      "byteOffset" : 30720,
      "byteLength" : 4536
    },
    {
      "buffer" : 0,
      "byteOffset" : 35256,
      "byteLength" : 4536
    },
    {
      "buffer" : 0,
      "byteOffset" : 39792,
      "byteLength" : 4536
    },
    {
      "buffer" : 0,
      "byteOffset" : 44328,
      "byteLength" : 1020
    },
    {
      "buffer" : 0,
      "byteOffset" : 45348,
      "byteLength" : 1392
    },
    {
      "buffer" : 0,
      "byteOffset" : 46740,
      "byteLength" : 1392
    },
    {
      "buffer" : 0,
      "byteOffset" : 48132,
      "byteLength" : 1856
    },
    {
      "buffer" : 0,
      "byteOffset" : 49988,
      "byteLength" : 928
    },
    {
      "buffer" : 0,
      "byteOffset" : 50916,
      "byteLength" : 928
    },
    {
      "buffer" : 0,
      "byteOffset" : 51844,
      "byteLength" : 928
    },
    {
      "buffer" : 0,
      "byteOffset" : 52772,
      "byteLength" : 928
    },
    {
      "buffer" : 0,
      "byteOffset" : 53700,
      "byteLength" : 276
    },
    {
      "buffer" : 0,
      "byteOffset" : 53976,
      "byteLength" : 732
    },
    {
      "buffer" : 0,
      "byteOffset" : 54708,
      "byteLength" : 732
    },
    {
      "buffer" : 0,
      "byteOffset" : 55440,
      "byteLength" : 976
    },
    {
      "buffer" : 0,
      "byteOffset" : 56416,
      "byteLength" : 488
    },
    {
      "buffer" : 0,
      "byteOffset" : 56904,
      "byteLength" : 488
    },
    {
      "buffer" : 0,
      "byteOffset" : 57392,
      "byteLength" : 488
    },
    {
      "buffer" : 0,
      "byteOffset" : 57880,
      "byteLength" : 488
    }
  ],
  "accessors" : [
    {
      "bufferView" : 0,
      "componentType" : 5123,
      "count" : 1752,
      "type" : "SCALAR"
    },
    {
      "bufferView" : 1,
      "min" : [ -21.1667, 31.7184, -133.073 ],
      "max" : [ 10.0536, 37.759, -106.444 ],
      "componentType" : 5126,
      "count" : 567,
      "type" : "VEC3"
    },
    {
      "bufferView" : 2,
      "componentType" : 5126,
      "count" : 567,
      "type" : "VEC3"
    },
    {
      "bufferView" : 3,
      "componentType" : 5126,
      "count" : 567,
      "type" : "VEC4"
    },
    {
      "bufferView" : 4,
      "componentType" : 5126,
      "count" : 567,
      "type" : "VEC2"
    },
    {
      "bufferView" : 5,
      "componentType" : 5126,
      "count" : 567,
      "type" : "VEC2"
    },
    {
      "bufferView" : 6,
      "componentType" : 5126,
      "count" : 567,
      "type" : "VEC2"
    },
    {
      "bufferView" : 7,
      "componentType" : 5126,
      "count" : 567,
      "type" : "VEC2"
    },
    {
      "bufferView" : 8,
      "componentType" : 5123,
      "count" : 510,
      "type" : "SCALAR"
    },
    {
      "bufferView" : 9,
      "min" : [ -13.5475, 32.5792, -133.485 ],
      "max" : [ 9.72285, 36.5442, -108.227 ],
      "componentType" : 5126,
      "count" : 116,
      "type" : "VEC3"
    },
    {
      "bufferView" : 10,
      "componentType" : 5126,
      "count" : 116,
      "type" : "VEC3"
    },
    {
      "bufferView" : 11,
      "componentType" : 5126,
      "count" : 116,
      "type" : "VEC4"
    },
    {
      "bufferView" : 12,
      "componentType" : 5126,
      "count" : 116,
      "type" : "VEC2"
    },
    {
      "bufferView" : 13,
      "componentType" : 5126,
      "count" : 116,
      "type" : "VEC2"
    },
    {
      "bufferView" : 14,
      "componentType" : 5126,
      "count" : 116,
      "type" : "VEC2"
    },
    {
      "bufferView" : 15,
      "componentType" : 5126,
      "count" : 116,
      "type" : "VEC2"
    },
    {
      "bufferView" : 16,
      "componentType" : 5123,
      "count" : 138,
      "type" : "SCALAR"
    },
    {
      "bufferView" : 17,
      "min" : [ 1.46234, 32.2878, -110.042 ],
      "max" : [ 9.37368, 37.1116, -107.278 ],
      "componentType" : 5126,
      "count" : 61,
      "type" : "VEC3"
    },
    {
      "bufferView" : 18,
      "componentType" : 5126,
      "count" : 61,
      "type" : "VEC3"
    },
    {
      "bufferView" : 19,
      "componentType" : 5126,
      "count" : 61,
      "type" : "VEC4"
    },
    {
      "bufferView" : 20,
      "componentType" : 5126,
      "count" : 61,
      "type" : "VEC2"
    },
    {
      "bufferView" : 21,
      "componentType" : 5126,
      "count" : 61,
      "type" : "VEC2"
    },
    {
      "bufferView" : 22,
      "componentType" : 5126,
      "count" : 61,
      "type" : "VEC2"
    },
    {
      "bufferView" : 23,
      "componentType" : 5126,
      "count" : 61,
      "type" : "VEC2"
    }
  ]
}
