{
  "asset" : {
    "generator" : "UE Viewer (umodel) build 1579 based",
    "version" : "2.0"
  },
  "scene" : 0,
  "scenes" : [
    {
      "nodes" : [ 0 ]
    }
  ],
  "nodes" : [
    {
      "name" : "S_Envi_Olgk_Transporter_01a_Low",
      "mesh" : 0
    }
  ],
  "materials" : [
    {
      "name" : "MI_Envi_Olgk_Transporter_01a",
      "pbrMetallicRoughness" : {
        "baseColorFactor" : [ 0.3, 0.3, 0.3, 1.0 ],
        "metallicFactor" : 0.1,
        "roughnessFactor" : 0.5
      }
    }
  ],
  "meshes" : [
    {
      "primitives" : [
        {
          "attributes" : {
            "POSITION" : 1,
            "NORMAL" : 2,
            "TANGENT" : 3,
            "TEXCOORD_0" : 4,
            "TEXCOORD_1" : 5
          },
          "indices" : 0,
          "material" : 0
        }
      ],
      "name" : "S_Envi_Olgk_Transporter_01a_Low"
    }
  ],
  "buffers" : [
    {
      "uri" : "S_Envi_Olgk_Transporter_01a_Low.bin",
      "byteLength" : 107128
    }
  ],
  "bufferViews" : [
    {
      "buffer" : 0,
      "byteOffset" : 0,
      "byteLength" : 6216
    },
    {
      "buffer" : 0,
      "byteOffset" : 6216,
      "byteLength" : 21624
    },
    {
      "buffer" : 0,
      "byteOffset" : 27840,
      "byteLength" : 21624
    },
    {
      "buffer" : 0,
      "byteOffset" : 49464,
      "byteLength" : 28832
    },
    {
      "buffer" : 0,
      "byteOffset" : 78296,
      "byteLength" : 14416
    },
    {
      "buffer" : 0,
      "byteOffset" : 92712,
      "byteLength" : 14416
    }
  ],
  "accessors" : [
    {
      "bufferView" : 0,
      "componentType" : 5123,
      "count" : 3108,
      "type" : "SCALAR"
    },
    {
      "bufferView" : 1,
      "min" : [ -1.9919, 0.0109235, -5.42229 ],
      "max" : [ 1.9919, 2.53519, 5.42535 ],
      "componentType" : 5126,
      "count" : 1802,
      "type" : "VEC3"
    },
    {
      "bufferView" : 2,
      "componentType" : 5126,
      "count" : 1802,
      "type" : "VEC3"
    },
    {
      "bufferView" : 3,
      "componentType" : 5126,
      "count" : 1802,
      "type" : "VEC4"
    },
    {
      "bufferView" : 4,
      "componentType" : 5126,
      "count" : 1802,
      "type" : "VEC2"
    },
    {
      "bufferView" : 5,
      "componentType" : 5126,
      "count" : 1802,
      "type" : "VEC2"
    }
  ]
}
