{
  "asset" : {
    "generator" : "UE Viewer (umodel) build 1579 based",
    "version" : "2.0"
  },
  "scene" : 0,
  "scenes" : [
    {
      "nodes" : [ 0 ]
    }
  ],
  "nodes" : [
    {
      "name" : "S_Envi_Olgk_Crane_Merge_01",
      "mesh" : 0
    }
  ],
  "materials" : [
    {
      "name" : "MI_Envi_Umeda_TowerCrane_02b",
      "pbrMetallicRoughness" : {
        "baseColorFactor" : [ 0.3, 0.3, 0.3, 1.0 ],
        "metallicFactor" : 0.1,
        "roughnessFactor" : 0.5
      }
    },
    {
      "name" : "MI_Envi_Umeda_TowerCrane_02a",
      "pbrMetallicRoughness" : {
        "baseColorFactor" : [ 0.9, 0.3, 0.3, 1.0 ],
        "metallicFactor" : 0.1,
        "roughnessFactor" : 0.5
      }
    }
  ],
  "meshes" : [
    {
      "primitives" : [
        {
          "attributes" : {
            "POSITION" : 1,
            "NORMAL" : 2,
            "TANGENT" : 3,
            "TEXCOORD_0" : 4,
            "TEXCOORD_1" : 5
          },
          "indices" : 0,
          "material" : 0
        },
        {
          "attributes" : {
            "POSITION" : 7,
            "NORMAL" : 8,
            "TANGENT" : 9,
            "TEXCOORD_0" : 10,
            "TEXCOORD_1" : 11
          },
          "indices" : 6,
          "material" : 1
        }
      ],
      "name" : "S_Envi_Olgk_Crane_Merge_01"
    }
  ],
  "buffers" : [
    {
      "uri" : "S_Envi_Olgk_Crane_Merge_01.bin",
      "byteLength" : 752796
    }
  ],
  "bufferViews" : [
    {
      "buffer" : 0,
      "byteOffset" : 0,
      "byteLength" : 49028
    },
    {
      "buffer" : 0,
      "byteOffset" : 49028,
      "byteLength" : 120864
    },
    {
      "buffer" : 0,
      "byteOffset" : 169892,
      "byteLength" : 120864
    },
    {
      "buffer" : 0,
      "byteOffset" : 290756,
      "byteLength" : 161152
    },
    {
      "buffer" : 0,
      "byteOffset" : 451908,
      "byteLength" : 80576
    },
    {
      "buffer" : 0,
      "byteOffset" : 532484,
      "byteLength" : 80576
    },
    {
      "buffer" : 0,
      "byteOffset" : 613060,
      "byteLength" : 10880
    },
    {
      "buffer" : 0,
      "byteOffset" : 623940,
      "byteLength" : 27612
    },
    {
      "buffer" : 0,
      "byteOffset" : 651552,
      "byteLength" : 27612
    },
    {
      "buffer" : 0,
      "byteOffset" : 679164,
      "byteLength" : 36816
    },
    {
      "buffer" : 0,
      "byteOffset" : 715980,
      "byteLength" : 18408
    },
    {
      "buffer" : 0,
      "byteOffset" : 734388,
      "byteLength" : 18408
    }
  ],
  "accessors" : [
    {
      "bufferView" : 0,
      "componentType" : 5123,
      "count" : 24513,
      "type" : "SCALAR"
    },
    {
      "bufferView" : 1,
      "min" : [ 26.85, 2.9091, 19.3397 ],
      "max" : [ 50.228, 15.0726, 42.5844 ],
      "componentType" : 5126,
      "count" : 10072,
      "type" : "VEC3"
    },
    {
      "bufferView" : 2,
      "componentType" : 5126,
      "count" : 10072,
      "type" : "VEC3"
    },
    {
      "bufferView" : 3,
      "componentType" : 5126,
      "count" : 10072,
      "type" : "VEC4"
    },
    {
      "bufferView" : 4,
      "componentType" : 5126,
      "count" : 10072,
      "type" : "VEC2"
    },
    {
      "bufferView" : 5,
      "componentType" : 5126,
      "count" : 10072,
      "type" : "VEC2"
    },
    {
      "bufferView" : 6,
      "componentType" : 5123,
      "count" : 5439,
      "type" : "SCALAR"
    },
    {
      "bufferView" : 7,
      "min" : [ 26.782, 2.72419, 19.2115 ],
      "max" : [ 50.3477, 14.9302, 42.9013 ],
      "componentType" : 5126,
      "count" : 2301,
      "type" : "VEC3"
    },
    {
      "bufferView" : 8,
      "componentType" : 5126,
      "count" : 2301,
      "type" : "VEC3"
    },
    {
      "bufferView" : 9,
      "componentType" : 5126,
      "count" : 2301,
      "type" : "VEC4"
    },
    {
      "bufferView" : 10,
      "componentType" : 5126,
      "count" : 2301,
      "type" : "VEC2"
    },
    {
      "bufferView" : 11,
      "componentType" : 5126,
      "count" : 2301,
      "type" : "VEC2"
    }
  ]
}
