{
  "asset" : {
    "generator" : "UE Viewer (umodel) build 1579 based",
    "version" : "2.0"
  },
  "scene" : 0,
  "scenes" : [
    {
      "nodes" : [ 0 ]
    }
  ],
  "nodes" : [
    {
      "name" : "S_Envi_Common_Wall_06b_Merge",
      "mesh" : 0
    }
  ],
  "materials" : [
    {
      "name" : "MI_Envi_Common_Wall_05a",
      "pbrMetallicRoughness" : {
        "baseColorFactor" : [ 0.3, 0.3, 0.3, 1.0 ],
        "metallicFactor" : 0.1,
        "roughnessFactor" : 0.5
      }
    },
    {
      "name" : "MI_PM_Glass_02i",
      "pbrMetallicRoughness" : {
        "baseColorFactor" : [ 0.9, 0.3, 0.3, 1.0 ],
        "metallicFactor" : 0.1,
        "roughnessFactor" : 0.5
      }
    }
  ],
  "meshes" : [
    {
      "primitives" : [
        {
          "attributes" : {
            "POSITION" : 1,
            "NORMAL" : 2,
            "TANGENT" : 3,
            "TEXCOORD_0" : 4,
            "TEXCOORD_1" : 5
          },
          "indices" : 0,
          "material" : 0
        },
        {
          "attributes" : {
            "POSITION" : 7,
            "NORMAL" : 8,
            "TANGENT" : 9,
            "TEXCOORD_0" : 10,
            "TEXCOORD_1" : 11
          },
          "indices" : 6,
          "material" : 1
        }
      ],
      "name" : "S_Envi_Common_Wall_06b_Merge"
    }
  ],
  "buffers" : [
    {
      "uri" : "S_Envi_Common_Wall_06b_Merge.bin",
      "byteLength" : 182336
    }
  ],
  "bufferViews" : [
    {
      "buffer" : 0,
      "byteOffset" : 0,
      "byteLength" : 10032
    },
    {
      "buffer" : 0,
      "byteOffset" : 10032,
      "byteLength" : 36720
    },
    {
      "buffer" : 0,
      "byteOffset" : 46752,
      "byteLength" : 36720
    },
    {
      "buffer" : 0,
      "byteOffset" : 83472,
      "byteLength" : 48960
    },
    {
      "buffer" : 0,
      "byteOffset" : 132432,
      "byteLength" : 24480
    },
    {
      "buffer" : 0,
      "byteOffset" : 156912,
      "byteLength" : 24480
    },
    {
      "buffer" : 0,
      "byteOffset" : 181392,
      "byteLength" : 48
    },
    {
      "buffer" : 0,
      "byteOffset" : 181440,
      "byteLength" : 192
    },
    {
      "buffer" : 0,
      "byteOffset" : 181632,
      "byteLength" : 192
    },
    {
      "buffer" : 0,
      "byteOffset" : 181824,
      "byteLength" : 256
    },
    {
      "buffer" : 0,
      "byteOffset" : 182080,
      "byteLength" : 128
    },
    {
      "buffer" : 0,
      "byteOffset" : 182208,
      "byteLength" : 128
    }
  ],
  "accessors" : [
    {
      "bufferView" : 0,
      "componentType" : 5123,
      "count" : 5016,
      "type" : "SCALAR"
    },
    {
      "bufferView" : 1,
      "min" : [ 31.86, 12.9019, -41.9056 ],
      "max" : [ 62.0056, 21.2, 3.30002 ],
      "componentType" : 5126,
      "count" : 3060,
      "type" : "VEC3"
    },
    {
      "bufferView" : 2,
      "componentType" : 5126,
      "count" : 3060,
      "type" : "VEC3"
    },
    {
      "bufferView" : 3,
      "componentType" : 5126,
      "count" : 3060,
      "type" : "VEC4"
    },
    {
      "bufferView" : 4,
      "componentType" : 5126,
      "count" : 3060,
      "type" : "VEC2"
    },
    {
      "bufferView" : 5,
      "componentType" : 5126,
      "count" : 3060,
      "type" : "VEC2"
    },
    {
      "bufferView" : 6,
      "componentType" : 5123,
      "count" : 24,
      "type" : "SCALAR"
    },
    {
      "bufferView" : 7,
      "min" : [ 31.8997, 12.9944, -41.7928 ],
      "max" : [ 61.912, 21.1108, 3.19966 ],
      "componentType" : 5126,
      "count" : 16,
      "type" : "VEC3"
    },
    {
      "bufferView" : 8,
      "componentType" : 5126,
      "count" : 16,
      "type" : "VEC3"
    },
    {
      "bufferView" : 9,
      "componentType" : 5126,
      "count" : 16,
      "type" : "VEC4"
    },
    {
      "bufferView" : 10,
      "componentType" : 5126,
      "count" : 16,
      "type" : "VEC2"
    },
    {
      "bufferView" : 11,
      "componentType" : 5126,
      "count" : 16,
      "type" : "VEC2"
    }
  ]
}
