{
  "asset" : {
    "generator" : "UE Viewer (umodel) build 1579 based",
    "version" : "2.0"
  },
  "scene" : 0,
  "scenes" : [
    {
      "nodes" : [ 0 ]
    }
  ],
  "nodes" : [
    {
      "name" : "S_Envi_Common_DownWall_Merge_05a",
      "mesh" : 0
    }
  ],
  "materials" : [
    {
      "name" : "MI_Envi_Umeda_Prop_Frame_01",
      "pbrMetallicRoughness" : {
        "baseColorFactor" : [ 0.3, 0.3, 0.3, 1.0 ],
        "metallicFactor" : 0.1,
        "roughnessFactor" : 0.5
      }
    }
  ],
  "meshes" : [
    {
      "primitives" : [
        {
          "attributes" : {
            "POSITION" : 1,
            "NORMAL" : 2,
            "TANGENT" : 3,
            "TEXCOORD_0" : 4,
            "TEXCOORD_1" : 5,
            "TEXCOORD_2" : 6
          },
          "indices" : 0,
          "material" : 0
        }
      ],
      "name" : "S_Envi_Common_DownWall_Merge_05a"
    }
  ],
  "buffers" : [
    {
      "uri" : "S_Envi_Common_DownWall_Merge_05a.bin",
      "byteLength" : 275860
    }
  ],
  "bufferViews" : [
    {
      "buffer" : 0,
      "byteOffset" : 0,
      "byteLength" : 12756
    },
    {
      "buffer" : 0,
      "byteOffset" : 12756,
      "byteLength" : 49332
    },
    {
      "buffer" : 0,
      "byteOffset" : 62088,
      "byteLength" : 49332
    },
    {
      "buffer" : 0,
      "byteOffset" : 111420,
      "byteLength" : 65776
    },
    {
      "buffer" : 0,
      "byteOffset" : 177196,
      "byteLength" : 32888
    },
    {
      "buffer" : 0,
      "byteOffset" : 210084,
      "byteLength" : 32888
    },
    {
      "buffer" : 0,
      "byteOffset" : 242972,
      "byteLength" : 32888
    }
  ],
  "accessors" : [
    {
      "bufferView" : 0,
      "componentType" : 5123,
      "count" : 6378,
      "type" : "SCALAR"
    },
    {
      "bufferView" : 1,
      "min" : [ -8.03697, -4.35394, -39.2068 ],
      "max" : [ 24.7732, 29.8012, 15.9167 ],
      "componentType" : 5126,
      "count" : 4111,
      "type" : "VEC3"
    },
    {
      "bufferView" : 2,
      "componentType" : 5126,
      "count" : 4111,
      "type" : "VEC3"
    },
    {
      "bufferView" : 3,
      "componentType" : 5126,
      "count" : 4111,
      "type" : "VEC4"
    },
    {
      "bufferView" : 4,
      "componentType" : 5126,
      "count" : 4111,
      "type" : "VEC2"
    },
    {
      "bufferView" : 5,
      "componentType" : 5126,
      "count" : 4111,
      "type" : "VEC2"
    },
    {
      "bufferView" : 6,
      "componentType" : 5126,
      "count" : 4111,
      "type" : "VEC2"
    }
  ]
}
