{
  "asset" : {
    "generator" : "UE Viewer (umodel) build 1579 based",
    "version" : "2.0"
  },
  "scene" : 0,
  "scenes" : [
    {
      "nodes" : [ 0 ]
    }
  ],
  "nodes" : [
    {
      "name" : "S_Envi_Olgk_GoodsShelves_Merge_01b",
      "mesh" : 0
    }
  ],
  "materials" : [
    {
      "name" : "MI_Envi_Olgk_GoodsShelves_Merge_01",
      "pbrMetallicRoughness" : {
        "baseColorFactor" : [ 0.3, 0.3, 0.3, 1.0 ],
        "metallicFactor" : 0.1,
        "roughnessFactor" : 0.5
      }
    }
  ],
  "meshes" : [
    {
      "primitives" : [
        {
          "attributes" : {
            "POSITION" : 1,
            "NORMAL" : 2,
            "TANGENT" : 3,
            "TEXCOORD_0" : 4,
            "TEXCOORD_1" : 5
          },
          "indices" : 0,
          "material" : 0
        }
      ],
      "name" : "S_Envi_Olgk_GoodsShelves_Merge_01b"
    }
  ],
  "buffers" : [
    {
      "uri" : "S_Envi_Olgk_GoodsShelves_Merge_01b.bin",
      "byteLength" : 307644
    }
  ],
  "bufferViews" : [
    {
      "buffer" : 0,
      "byteOffset" : 0,
      "byteLength" : 18180
    },
    {
      "buffer" : 0,
      "byteOffset" : 18180,
      "byteLength" : 62028
    },
    {
      "buffer" : 0,
      "byteOffset" : 80208,
      "byteLength" : 62028
    },
    {
      "buffer" : 0,
      "byteOffset" : 142236,
      "byteLength" : 82704
    },
    {
      "buffer" : 0,
      "byteOffset" : 224940,
      "byteLength" : 41352
    },
    {
      "buffer" : 0,
      "byteOffset" : 266292,
      "byteLength" : 41352
    }
  ],
  "accessors" : [
    {
      "bufferView" : 0,
      "componentType" : 5123,
      "count" : 9090,
      "type" : "SCALAR"
    },
    {
      "bufferView" : 1,
      "min" : [ -44.2399, 3.00171, -3.74096 ],
      "max" : [ -40.2661, 17.7509, 1.84004 ],
      "componentType" : 5126,
      "count" : 5169,
      "type" : "VEC3"
    },
    {
      "bufferView" : 2,
      "componentType" : 5126,
      "count" : 5169,
      "type" : "VEC3"
    },
    {
      "bufferView" : 3,
      "componentType" : 5126,
      "count" : 5169,
      "type" : "VEC4"
    },
    {
      "bufferView" : 4,
      "componentType" : 5126,
      "count" : 5169,
      "type" : "VEC2"
    },
    {
      "bufferView" : 5,
      "componentType" : 5126,
      "count" : 5169,
      "type" : "VEC2"
    }
  ]
}
