{
  "asset" : {
    "generator" : "UE Viewer (umodel) build 1579 based",
    "version" : "2.0"
  },
  "scene" : 0,
  "scenes" : [
    {
      "nodes" : [ 0 ]
    }
  ],
  "nodes" : [
    {
      "name" : "S_Envi_Olgk_Track_01a_Merge",
      "mesh" : 0
    }
  ],
  "materials" : [
    {
      "name" : "MI_Envi_Olgk_Track_01b",
      "pbrMetallicRoughness" : {
        "baseColorFactor" : [ 0.3, 0.3, 0.3, 1.0 ],
        "metallicFactor" : 0.1,
        "roughnessFactor" : 0.5
      }
    },
    {
      "name" : "MI_Envi_Olgk_Track_01c",
      "pbrMetallicRoughness" : {
        "baseColorFactor" : [ 0.9, 0.3, 0.3, 1.0 ],
        "metallicFactor" : 0.1,
        "roughnessFactor" : 0.5
      }
    }
  ],
  "meshes" : [
    {
      "primitives" : [
        {
          "attributes" : {
            "POSITION" : 1,
            "NORMAL" : 2,
            "TANGENT" : 3,
            "TEXCOORD_0" : 4,
            "TEXCOORD_1" : 5
          },
          "indices" : 0,
          "material" : 0
        },
        {
          "attributes" : {
            "POSITION" : 7,
            "NORMAL" : 8,
            "TANGENT" : 9,
            "TEXCOORD_0" : 10,
            "TEXCOORD_1" : 11
          },
          "indices" : 6,
          "material" : 1
        }
      ],
      "name" : "S_Envi_Olgk_Track_01a_Merge"
    }
  ],
  "buffers" : [
    {
      "uri" : "S_Envi_Olgk_Track_01a_Merge.bin",
      "byteLength" : 1013304
    }
  ],
  "bufferViews" : [
    {
      "buffer" : 0,
      "byteOffset" : 0,
      "byteLength" : 3072
    },
    {
      "buffer" : 0,
      "byteOffset" : 3072,
      "byteLength" : 10704
    },
    {
      "buffer" : 0,
      "byteOffset" : 13776,
      "byteLength" : 10704
    },
    {
      "buffer" : 0,
      "byteOffset" : 24480,
      "byteLength" : 14272
    },
    {
      "buffer" : 0,
      "byteOffset" : 38752,
      "byteLength" : 7136
    },
    {
      "buffer" : 0,
      "byteOffset" : 45888,
      "byteLength" : 7136
    },
    {
      "buffer" : 0,
      "byteOffset" : 53024,
      "byteLength" : 82200
    },
    {
      "buffer" : 0,
      "byteOffset" : 135224,
      "byteLength" : 188160
    },
    {
      "buffer" : 0,
      "byteOffset" : 323384,
      "byteLength" : 188160
    },
    {
      "buffer" : 0,
      "byteOffset" : 511544,
      "byteLength" : 250880
    },
    {
      "buffer" : 0,
      "byteOffset" : 762424,
      "byteLength" : 125440
    },
    {
      "buffer" : 0,
      "byteOffset" : 887864,
      "byteLength" : 125440
    }
  ],
  "accessors" : [
    {
      "bufferView" : 0,
      "componentType" : 5123,
      "count" : 1536,
      "type" : "SCALAR"
    },
    {
      "bufferView" : 1,
      "min" : [ -26.2684, 15.745, 4.89793 ],
      "max" : [ -18.5144, 17.7734, 8.21327 ],
      "componentType" : 5126,
      "count" : 892,
      "type" : "VEC3"
    },
    {
      "bufferView" : 2,
      "componentType" : 5126,
      "count" : 892,
      "type" : "VEC3"
    },
    {
      "bufferView" : 3,
      "componentType" : 5126,
      "count" : 892,
      "type" : "VEC4"
    },
    {
      "bufferView" : 4,
      "componentType" : 5126,
      "count" : 892,
      "type" : "VEC2"
    },
    {
      "bufferView" : 5,
      "componentType" : 5126,
      "count" : 892,
      "type" : "VEC2"
    },
    {
      "bufferView" : 6,
      "componentType" : 5123,
      "count" : 41100,
      "type" : "SCALAR"
    },
    {
      "bufferView" : 7,
      "min" : [ -25.6148, 15.6905, -13.0889 ],
      "max" : [ 41.5932, 17.423, 12.8067 ],
      "componentType" : 5126,
      "count" : 15680,
      "type" : "VEC3"
    },
    {
      "bufferView" : 8,
      "componentType" : 5126,
      "count" : 15680,
      "type" : "VEC3"
    },
    {
      "bufferView" : 9,
      "componentType" : 5126,
      "count" : 15680,
      "type" : "VEC4"
    },
    {
      "bufferView" : 10,
      "componentType" : 5126,
      "count" : 15680,
      "type" : "VEC2"
    },
    {
      "bufferView" : 11,
      "componentType" : 5126,
      "count" : 15680,
      "type" : "VEC2"
    }
  ]
}
