{
  "asset" : {
    "generator" : "UE Viewer (umodel) build 1579 based",
    "version" : "2.0"
  },
  "scene" : 0,
  "scenes" : [
    {
      "nodes" : [ 0 ]
    }
  ],
  "nodes" : [
    {
      "name" : "S_Envi_Umeda_Game_wall_02_Merge",
      "mesh" : 0
    }
  ],
  "materials" : [
    {
      "name" : "MI_Envi_Umeda_Game_wall_01",
      "pbrMetallicRoughness" : {
        "baseColorFactor" : [ 0.3, 0.3, 0.3, 1.0 ],
        "metallicFactor" : 0.1,
        "roughnessFactor" : 0.5
      }
    }
  ],
  "meshes" : [
    {
      "primitives" : [
        {
          "attributes" : {
            "POSITION" : 1,
            "NORMAL" : 2,
            "TANGENT" : 3,
            "TEXCOORD_0" : 4,
            "TEXCOORD_1" : 5,
            "TEXCOORD_2" : 6,
            "TEXCOORD_3" : 7
          },
          "indices" : 0,
          "material" : 0
        }
      ],
      "name" : "S_Envi_Umeda_Game_wall_02_Merge"
    }
  ],
  "buffers" : [
    {
      "uri" : "S_Envi_Umeda_Game_wall_02_Merge.bin",
      "byteLength" : 230304
    }
  ],
  "bufferViews" : [
    {
      "buffer" : 0,
      "byteOffset" : 0,
      "byteLength" : 12288
    },
    {
      "buffer" : 0,
      "byteOffset" : 12288,
      "byteLength" : 36336
    },
    {
      "buffer" : 0,
      "byteOffset" : 48624,
      "byteLength" : 36336
    },
    {
      "buffer" : 0,
      "byteOffset" : 84960,
      "byteLength" : 48448
    },
    {
      "buffer" : 0,
      "byteOffset" : 133408,
      "byteLength" : 24224
    },
    {
      "buffer" : 0,
      "byteOffset" : 157632,
      "byteLength" : 24224
    },
    {
      "buffer" : 0,
      "byteOffset" : 181856,
      "byteLength" : 24224
    },
    {
      "buffer" : 0,
      "byteOffset" : 206080,
      "byteLength" : 24224
    }
  ],
  "accessors" : [
    {
      "bufferView" : 0,
      "componentType" : 5123,
      "count" : 6144,
      "type" : "SCALAR"
    },
    {
      "bufferView" : 1,
      "min" : [ -1.83792, 3.00982, 14.3641 ],
      "max" : [ 3.27617, 9.24879, 24.5234 ],
      "componentType" : 5126,
      "count" : 3028,
      "type" : "VEC3"
    },
    {
      "bufferView" : 2,
      "componentType" : 5126,
      "count" : 3028,
      "type" : "VEC3"
    },
    {
      "bufferView" : 3,
      "componentType" : 5126,
      "count" : 3028,
      "type" : "VEC4"
    },
    {
      "bufferView" : 4,
      "componentType" : 5126,
      "count" : 3028,
      "type" : "VEC2"
    },
    {
      "bufferView" : 5,
      "componentType" : 5126,
      "count" : 3028,
      "type" : "VEC2"
    },
    {
      "bufferView" : 6,
      "componentType" : 5126,
      "count" : 3028,
      "type" : "VEC2"
    },
    {
      "bufferView" : 7,
      "componentType" : 5126,
      "count" : 3028,
      "type" : "VEC2"
    }
  ]
}
