{
  "asset" : {
    "generator" : "UE Viewer (umodel) build 1579 based",
    "version" : "2.0"
  },
  "scene" : 0,
  "scenes" : [
    {
      "nodes" : [ 0 ]
    }
  ],
  "nodes" : [
    {
      "name" : "S_Envi_Olgk_Server_01c",
      "mesh" : 0
    }
  ],
  "materials" : [
    {
      "name" : "MI_Envi_Olgk_Server_01",
      "pbrMetallicRoughness" : {
        "baseColorFactor" : [ 0.3, 0.3, 0.3, 1.0 ],
        "metallicFactor" : 0.1,
        "roughnessFactor" : 0.5
      }
    }
  ],
  "meshes" : [
    {
      "primitives" : [
        {
          "attributes" : {
            "POSITION" : 1,
            "NORMAL" : 2,
            "TANGENT" : 3,
            "TEXCOORD_0" : 4,
            "TEXCOORD_1" : 5
          },
          "indices" : 0,
          "material" : 0
        }
      ],
      "name" : "S_Envi_Olgk_Server_01c"
    }
  ],
  "buffers" : [
    {
      "uri" : "S_Envi_Olgk_Server_01c.bin",
      "byteLength" : 18716
    }
  ],
  "bufferViews" : [
    {
      "buffer" : 0,
      "byteOffset" : 0,
      "byteLength" : 1020
    },
    {
      "buffer" : 0,
      "byteOffset" : 1020,
      "byteLength" : 3792
    },
    {
      "buffer" : 0,
      "byteOffset" : 4812,
      "byteLength" : 3792
    },
    {
      "buffer" : 0,
      "byteOffset" : 8604,
      "byteLength" : 5056
    },
    {
      "buffer" : 0,
      "byteOffset" : 13660,
      "byteLength" : 2528
    },
    {
      "buffer" : 0,
      "byteOffset" : 16188,
      "byteLength" : 2528
    }
  ],
  "accessors" : [
    {
      "bufferView" : 0,
      "componentType" : 5123,
      "count" : 510,
      "type" : "SCALAR"
    },
    {
      "bufferView" : 1,
      "min" : [ -0.214666, -4.57764e-07, -0.869999 ],
      "max" : [ 0.214666, 0.851866, 0.0750011 ],
      "componentType" : 5126,
      "count" : 316,
      "type" : "VEC3"
    },
    {
      "bufferView" : 2,
      "componentType" : 5126,
      "count" : 316,
      "type" : "VEC3"
    },
    {
      "bufferView" : 3,
      "componentType" : 5126,
      "count" : 316,
      "type" : "VEC4"
    },
    {
      "bufferView" : 4,
      "componentType" : 5126,
      "count" : 316,
      "type" : "VEC2"
    },
    {
      "bufferView" : 5,
      "componentType" : 5126,
      "count" : 316,
      "type" : "VEC2"
    }
  ]
}
