{
  "asset" : {
    "generator" : "UE Viewer (umodel) build 1579 based",
    "version" : "2.0"
  },
  "scene" : 0,
  "scenes" : [
    {
      "nodes" : [ 0 ]
    }
  ],
  "nodes" : [
    {
      "name" : "S_Envi_Olgk_HWR_01c",
      "mesh" : 0
    }
  ],
  "materials" : [
    {
      "name" : "MI_Envi_Olgk_HWR_01a",
      "pbrMetallicRoughness" : {
        "baseColorFactor" : [ 0.3, 0.3, 0.3, 1.0 ],
        "metallicFactor" : 0.1,
        "roughnessFactor" : 0.5
      }
    }
  ],
  "meshes" : [
    {
      "primitives" : [
        {
          "attributes" : {
            "POSITION" : 1,
            "NORMAL" : 2,
            "TANGENT" : 3,
            "TEXCOORD_0" : 4,
            "TEXCOORD_1" : 5,
            "TEXCOORD_2" : 6
          },
          "indices" : 0,
          "material" : 0
        }
      ],
      "name" : "S_Envi_Olgk_HWR_01c"
    }
  ],
  "buffers" : [
    {
      "uri" : "S_Envi_Olgk_HWR_01c.bin",
      "byteLength" : 102352
    }
  ],
  "bufferViews" : [
    {
      "buffer" : 0,
      "byteOffset" : 0,
      "byteLength" : 9360
    },
    {
      "buffer" : 0,
      "byteOffset" : 9360,
      "byteLength" : 17436
    },
    {
      "buffer" : 0,
      "byteOffset" : 26796,
      "byteLength" : 17436
    },
    {
      "buffer" : 0,
      "byteOffset" : 44232,
      "byteLength" : 23248
    },
    {
      "buffer" : 0,
      "byteOffset" : 67480,
      "byteLength" : 11624
    },
    {
      "buffer" : 0,
      "byteOffset" : 79104,
      "byteLength" : 11624
    },
    {
      "buffer" : 0,
      "byteOffset" : 90728,
      "byteLength" : 11624
    }
  ],
  "accessors" : [
    {
      "bufferView" : 0,
      "componentType" : 5123,
      "count" : 4680,
      "type" : "SCALAR"
    },
    {
      "bufferView" : 1,
      "min" : [ -0.25847, -5.91758, 0.0124172 ],
      "max" : [ 1.36069, 0.484617, 1.50229 ],
      "componentType" : 5126,
      "count" : 1453,
      "type" : "VEC3"
    },
    {
      "bufferView" : 2,
      "componentType" : 5126,
      "count" : 1453,
      "type" : "VEC3"
    },
    {
      "bufferView" : 3,
      "componentType" : 5126,
      "count" : 1453,
      "type" : "VEC4"
    },
    {
      "bufferView" : 4,
      "componentType" : 5126,
      "count" : 1453,
      "type" : "VEC2"
    },
    {
      "bufferView" : 5,
      "componentType" : 5126,
      "count" : 1453,
      "type" : "VEC2"
    },
    {
      "bufferView" : 6,
      "componentType" : 5126,
      "count" : 1453,
      "type" : "VEC2"
    }
  ]
}
