{
  "asset" : {
    "generator" : "UE Viewer (umodel) build 1579 based",
    "version" : "2.0"
  },
  "scene" : 0,
  "scenes" : [
    {
      "nodes" : [ 0 ]
    }
  ],
  "nodes" : [
    {
      "name" : "S_rock_01_Merge",
      "mesh" : 0
    }
  ],
  "materials" : [
    {
      "name" : "MI_Envi_Umeda_Base_Building_03_A_07",
      "pbrMetallicRoughness" : {
        "baseColorFactor" : [ 0.3, 0.3, 0.3, 1.0 ],
        "metallicFactor" : 0.1,
        "roughnessFactor" : 0.5
      }
    }
  ],
  "meshes" : [
    {
      "primitives" : [
        {
          "attributes" : {
            "POSITION" : 1,
            "NORMAL" : 2,
            "TANGENT" : 3,
            "TEXCOORD_0" : 4,
            "TEXCOORD_1" : 5,
            "TEXCOORD_2" : 6
          },
          "indices" : 0,
          "material" : 0
        }
      ],
      "name" : "S_rock_01_Merge"
    }
  ],
  "buffers" : [
    {
      "uri" : "S_rock_01_Merge.bin",
      "byteLength" : 78136
    }
  ],
  "bufferViews" : [
    {
      "buffer" : 0,
      "byteOffset" : 0,
      "byteLength" : 2552
    },
    {
      "buffer" : 0,
      "byteOffset" : 2552,
      "byteLength" : 14172
    },
    {
      "buffer" : 0,
      "byteOffset" : 16724,
      "byteLength" : 14172
    },
    {
      "buffer" : 0,
      "byteOffset" : 30896,
      "byteLength" : 18896
    },
    {
      "buffer" : 0,
      "byteOffset" : 49792,
      "byteLength" : 9448
    },
    {
      "buffer" : 0,
      "byteOffset" : 59240,
      "byteLength" : 9448
    },
    {
      "buffer" : 0,
      "byteOffset" : 68688,
      "byteLength" : 9448
    }
  ],
  "accessors" : [
    {
      "bufferView" : 0,
      "componentType" : 5123,
      "count" : 1275,
      "type" : "SCALAR"
    },
    {
      "bufferView" : 1,
      "min" : [ -3.7432, 3.70428, -54.8405 ],
      "max" : [ 15.8074, 9.72643, -39.2228 ],
      "componentType" : 5126,
      "count" : 1181,
      "type" : "VEC3"
    },
    {
      "bufferView" : 2,
      "componentType" : 5126,
      "count" : 1181,
      "type" : "VEC3"
    },
    {
      "bufferView" : 3,
      "componentType" : 5126,
      "count" : 1181,
      "type" : "VEC4"
    },
    {
      "bufferView" : 4,
      "componentType" : 5126,
      "count" : 1181,
      "type" : "VEC2"
    },
    {
      "bufferView" : 5,
      "componentType" : 5126,
      "count" : 1181,
      "type" : "VEC2"
    },
    {
      "bufferView" : 6,
      "componentType" : 5126,
      "count" : 1181,
      "type" : "VEC2"
    }
  ]
}
