{
  "asset" : {
    "generator" : "UE Viewer (umodel) build 1579 based",
    "version" : "2.0"
  },
  "scene" : 0,
  "scenes" : [
    {
      "nodes" : [ 0 ]
    }
  ],
  "nodes" : [
    {
      "name" : "Nobunaga_PPM_101_Skin",
      "mesh" : 0,
      "skin" : 0,
      "children" : [ 1 ]
    },
    {
      "name" : "root",
      "children" : [ 2, 37, 40 ],
      "translation" : [ 0, 0, 0 ],
      "rotation" : [ 3.06162e-17, -0, -0, 1 ]
    },
    {
      "name" : "Bip001",
      "children" : [ 3 ],
      "translation" : [ 1.12003e-09, 1.00433, 0.0130058 ],
      "rotation" : [ -4.156e-39, 0.707106, -4.156e-39, -0.707107 ]
    },
    {
      "name" : "Bip001-Pelvis",
      "children" : [ 4, 29, 33 ],
      "translation" : [ -6.21725e-17, 0, -8.47033e-23 ],
      "rotation" : [ 0.5, 0.499999, -0.5, -0.500001 ]
    },
    {
      "name" : "Bip001-Spine",
      "children" : [ 5 ],
      "translation" : [ 0.0727962, -1.35705e-07, -0.00164196 ],
      "rotation" : [ 2.07521e-06, -0.00854, 8.91934e-07, -0.999964 ]
    },
    {
      "name" : "Bip001-Spine1",
      "children" : [ 6 ],
      "translation" : [ 0.130745, -3.58189e-10, 0.000129158 ],
      "rotation" : [ 1.52696e-09, 0.0216364, -2.21824e-09, -0.999766 ]
    },
    {
      "name" : "Bip001-Spine2",
      "children" : [ 7, 9, 19 ],
      "translation" : [ 0.162359, -3.76707e-10, 0.000137331 ],
      "rotation" : [ 1.51429e-08, -0.00429336, -4.74352e-08, -0.999991 ]
    },
    {
      "name" : "Bip001-Neck",
      "children" : [ 8 ],
      "translation" : [ 0.183837, 1.74362e-09, 0.00786356 ],
      "rotation" : [ 8.05725e-08, -0.0191758, 1.06951e-07, -0.999816 ]
    },
    {
      "name" : "Bip001-Head",
      "translation" : [ 0.0582066, -2.80272e-14, -1.58561e-09 ],
      "rotation" : [ -9.14597e-08, 0.00735234, 1.89627e-08, -0.999973 ]
    },
    {
      "name" : "Bip001-L-Clavicle",
      "children" : [ 10 ],
      "translation" : [ 0.138415, 0.0328235, 0.00275146 ],
      "rotation" : [ -0.629611, -0.776899, -0.00358025, 0.00238901 ]
    },
    {
      "name" : "Bip001-L-UpperArm",
      "children" : [ 11, 18 ],
      "translation" : [ 0.123753, -4.15354e-08, 7.03586e-07 ],
      "rotation" : [ -0.0503434, -0.0162121, 0.295876, -0.953761 ]
    },
    {
      "name" : "Bip001-L-Forearm",
      "children" : [ 12, 17 ],
      "translation" : [ 0.271305, -1.52588e-07, -0 ],
      "rotation" : [ -3.75312e-18, 0.0533086, 1.1098e-16, -0.998578 ]
    },
    {
      "name" : "Bip001-L-Hand",
      "children" : [ 13, 15 ],
      "translation" : [ 0.252318, 8.69047e-07, 2.60627e-06 ],
      "rotation" : [ -0.99928, -0.0285336, 0.0249639, 0.00172334 ]
    },
    {
      "name" : "Bip001-L-Finger0",
      "children" : [ 14 ],
      "translation" : [ 0.0555469, -0.0362414, 0.00115066 ],
      "rotation" : [ -0.632273, 0.272951, 0.246748, -0.681795 ]
    },
    {
      "name" : "Bip001-L-Finger01",
      "translation" : [ 0.0205528, -4.92625e-10, 2.38949e-08 ],
      "rotation" : [ 7.44815e-09, -0.000467062, 1.02927e-09, -1 ]
    },
    {
      "name" : "Bip001-L-Finger1",
      "children" : [ 16 ],
      "translation" : [ 0.0883158, -2.18071e-08, 1.99675e-09 ],
      "rotation" : [ 0.000398163, 4.64542e-10, -3.21025e-11, -1 ]
    },
    {
      "name" : "Bip001-L-Finger11",
      "translation" : [ 0.0248478, -2.47425e-09, 1.03552e-10 ],
      "rotation" : [ -8.8361e-10, -0.00046706, 5.29821e-08, -1 ]
    },
    {
      "name" : "Bip001-L-ForeTwist",
      "translation" : [ -6.41742e-07, 1.63047e-07, 6.84784e-07 ],
      "rotation" : [ 5.47449e-07, 3.83683e-06, -1.41426e-06, -1 ]
    },
    {
      "name" : "Bip001-LUpArmTwist",
      "translation" : [ -5.17866e-07, -3.03215e-07, -7.01022e-07 ],
      "rotation" : [ 8.13723e-07, 2.41308e-06, -1.13364e-06, -1 ]
    },
    {
      "name" : "Bip001-R-Clavicle",
      "children" : [ 20 ],
      "translation" : [ 0.138415, -0.0328236, 0.00275128 ],
      "rotation" : [ 0.629611, -0.776899, 0.0035781, 0.00238727 ]
    },
    {
      "name" : "Bip001-R-UpperArm",
      "children" : [ 21, 28 ],
      "translation" : [ 0.123751, -1.3086e-07, 6.26737e-07 ],
      "rotation" : [ 0.0503433, -0.0162123, -0.295875, -0.953761 ]
    },
    {
      "name" : "Bip001-R-Forearm",
      "children" : [ 22, 27 ],
      "translation" : [ 0.271305, 7.62939e-08, -0 ],
      "rotation" : [ 2.67061e-18, 0.0533086, 5.57328e-17, -0.998578 ]
    },
    {
      "name" : "Bip001-R-Hand",
      "children" : [ 23, 25 ],
      "translation" : [ 0.252319, 1.56832e-07, -5.04519e-07 ],
      "rotation" : [ -0.999279, 0.0285319, 0.0249685, -0.0017237 ]
    },
    {
      "name" : "Bip001-R-Finger0",
      "children" : [ 24 ],
      "translation" : [ 0.0555469, 0.0362414, 0.00115066 ],
      "rotation" : [ 0.632273, 0.272951, -0.246748, -0.681795 ]
    },
    {
      "name" : "Bip001-R-Finger01",
      "translation" : [ 0.0205528, -3.1745e-10, 2.47705e-08 ],
      "rotation" : [ -3.25947e-08, -0.000467062, -4.58346e-10, -1 ]
    },
    {
      "name" : "Bip001-R-Finger1",
      "children" : [ 26 ],
      "translation" : [ 0.0883158, 2.58749e-08, 1.92211e-09 ],
      "rotation" : [ -0.000398159, -1.28752e-09, 4.21397e-08, -1 ]
    },
    {
      "name" : "Bip001-R-Finger11",
      "translation" : [ 0.0248479, -4.97173e-08, -3.20335e-09 ],
      "rotation" : [ 1.9661e-09, -0.000467061, -1.21956e-08, -1 ]
    },
    {
      "name" : "Bip001-R-ForeTwist",
      "translation" : [ 7.39863e-07, -1.67657e-07, -5.73414e-08 ],
      "rotation" : [ -1.07457e-06, -6.40645e-07, -2.42051e-07, -1 ]
    },
    {
      "name" : "Bip001-RUpArmTwist",
      "translation" : [ 6.83488e-07, -4.99374e-07, -5.8347e-07 ],
      "rotation" : [ -7.70518e-07, 8.94882e-07, -5.18383e-07, -1 ]
    },
    {
      "name" : "Bip001-L-Thigh",
      "children" : [ 30 ],
      "translation" : [ 1.21076e-07, 0.0796594, -1.55144e-07 ],
      "rotation" : [ -0.0155116, 0.00305898, 0.999762, 0.0150232 ]
    },
    {
      "name" : "Bip001-L-Calf",
      "children" : [ 31 ],
      "translation" : [ 0.436352, 1.83274e-09, 3.09237e-09 ],
      "rotation" : [ -6.6016e-09, 0.065673, 6.928e-10, -0.997841 ]
    },
    {
      "name" : "Bip001-L-Foot",
      "children" : [ 32 ],
      "translation" : [ 0.423454, -4.90869e-09, -4.88085e-09 ],
      "rotation" : [ 0.00206515, -0.0501775, -0.0151907, -0.998623 ]
    },
    {
      "name" : "Bip001-L-Toe0",
      "translation" : [ 0.150158, 3.44387e-09, -0.0150957 ],
      "rotation" : [ -4.08372e-08, -0.707107, -6.19106e-08, -0.707107 ]
    },
    {
      "name" : "Bip001-R-Thigh",
      "children" : [ 34 ],
      "translation" : [ -1.21076e-07, -0.0796594, 6.6929e-08 ],
      "rotation" : [ -0.0155115, -0.00305755, 0.999762, -0.0150216 ]
    },
    {
      "name" : "Bip001-R-Calf",
      "children" : [ 35 ],
      "translation" : [ 0.436352, 1.86502e-10, -1.96101e-10 ],
      "rotation" : [ 3.69898e-08, 0.0656705, -4.07797e-10, -0.997841 ]
    },
    {
      "name" : "Bip001-R-Foot",
      "children" : [ 36 ],
      "translation" : [ 0.423454, 4.37753e-09, 2.07056e-09 ],
      "rotation" : [ -0.00206516, -0.0501752, 0.0151909, -0.998623 ]
    },
    {
      "name" : "Bip001-R-Toe0",
      "translation" : [ 0.150158, -2.16449e-09, -0.0150957 ],
      "rotation" : [ -2.57602e-08, -0.707107, 3.74601e-08, -0.707107 ]
    },
    {
      "name" : "ik_foot_root",
      "children" : [ 38, 39 ],
      "translation" : [ 0, 0, -0 ],
      "rotation" : [ -0, -0, 0, -1 ]
    },
    {
      "name" : "ik_foot_l",
      "translation" : [ 0.10566, 0.147266, -0.0159081 ],
      "rotation" : [ -0.707107, 0.707107, 2.15118e-05, 1.82439e-05 ]
    },
    {
      "name" : "ik_foot_r",
      "translation" : [ -0.10566, 0.147266, -0.0159079 ],
      "rotation" : [ 0.707107, -0.707107, -1.88987e-05, -2.0857e-05 ]
    },
    {
      "name" : "ik_hand_root",
      "children" : [ 41 ],
      "translation" : [ 0, 0, -0 ],
      "rotation" : [ -0, -0, 0, -1 ]
    },
    {
      "name" : "ik_hand_gun",
      "children" : [ 42, 43, 44 ],
      "translation" : [ -0.513546, 1.10331, 0.00552015 ],
      "rotation" : [ 0.368553, -0.928952, -0.0309303, 0.0161085 ]
    },
    {
      "name" : "ik_hand_r",
      "translation" : [ -1.14441e-07, -2.74658e-06, -3.19481e-07 ],
      "rotation" : [ -1.86243e-09, -1.50874e-07, 1.41561e-06, -1 ]
    },
    {
      "name" : "ik_hand_l",
      "translation" : [ -0.747533, -0.702265, -0.0541541 ],
      "rotation" : [ -0.0527253, -5.46857e-07, 0.727817, -0.683742 ]
    },
    {
      "name" : "SocketADS",
      "translation" : [ -3.8147e-08, 1.42109e-16, -0 ],
      "rotation" : [ 1.86264e-09, 8.75443e-08, 7.45058e-08, -1 ]
    }
  ],
  "skins" : [
    {
      "inverseBindMatrices" : 0,
      "skeleton" : 1,
      "joints" : [
        1,2,3,4,5,6,7,8,9,10,11,12,13,14,15,16,17,18,19,20,21,22,23,24,25,26,27,28,29,30,31,32,
        33,34,35,36,37,38,39,40,41,42,43,44
      ]
    }
  ],
  "materials" : [
    {
      "name" : "MI_Nobunaga_PPM",
      "pbrMetallicRoughness" : {
        "baseColorFactor" : [ 0.3, 0.3, 0.3, 1.0 ],
        "metallicFactor" : 0.1,
        "roughnessFactor" : 0.5
      }
    }
  ],
  "meshes" : [
    {
      "primitives" : [
        {
          "attributes" : {
            "POSITION" : 2,
            "NORMAL" : 3,
            "TANGENT" : 4,
            "COLOR_0" : 5,
            "JOINTS_0" : 6,
            "WEIGHTS_0" : 7,
            "TEXCOORD_0" : 8
          },
          "indices" : 1,
          "material" : 0
        }
      ],
      "name" : "Nobunaga_PPM_101_Skin"
    }
  ],
  "buffers" : [
    {
      "uri" : "Nobunaga_PPM_101_Skin.bin",
      "byteLength" : 119016
    }
  ],
  "bufferViews" : [
    {
      "buffer" : 0,
      "byteOffset" : 0,
      "byteLength" : 2816
    },
    {
      "buffer" : 0,
      "byteOffset" : 2816,
      "byteLength" : 11048
    },
    {
      "buffer" : 0,
      "byteOffset" : 13864,
      "byteLength" : 19716
    },
    {
      "buffer" : 0,
      "byteOffset" : 33580,
      "byteLength" : 19716
    },
    {
      "buffer" : 0,
      "byteOffset" : 53296,
      "byteLength" : 26288
    },
    {
      "buffer" : 0,
      "byteOffset" : 79584,
      "byteLength" : 6572
    },
    {
      "buffer" : 0,
      "byteOffset" : 86156,
      "byteLength" : 13144
    },
    {
      "buffer" : 0,
      "byteOffset" : 99300,
      "byteLength" : 6572
    },
    {
      "buffer" : 0,
      "byteOffset" : 105872,
      "byteLength" : 13144
    }
  ],
  "accessors" : [
    {
      "bufferView" : 0,
      "componentType" : 5126,
      "count" : 44,
      "type" : "MAT4"
    },
    {
      "bufferView" : 1,
      "componentType" : 5123,
      "count" : 5523,
      "type" : "SCALAR"
    },
    {
      "bufferView" : 2,
      "min" : [ -0.640682, -3.2438e-18, -0.0332299 ],
      "max" : [ 0.640693, 1.81749, 0.0594512 ],
      "componentType" : 5126,
      "count" : 1643,
      "type" : "VEC3"
    },
    {
      "bufferView" : 3,
      "componentType" : 5126,
      "count" : 1643,
      "type" : "VEC3"
    },
    {
      "bufferView" : 4,
      "componentType" : 5126,
      "count" : 1643,
      "type" : "VEC4"
    },
    {
      "bufferView" : 5,
      "normalized" : true,
      "componentType" : 5121,
      "count" : 1643,
      "type" : "VEC4"
    },
    {
      "bufferView" : 6,
      "componentType" : 5123,
      "count" : 1643,
      "type" : "VEC4"
    },
    {
      "bufferView" : 7,
      "normalized" : true,
      "componentType" : 5121,
      "count" : 1643,
      "type" : "VEC4"
    },
    {
      "bufferView" : 8,
      "componentType" : 5126,
      "count" : 1643,
      "type" : "VEC2"
    }
  ]
}
