{
  "asset" : {
    "generator" : "UE Viewer (umodel) build 1579 based",
    "version" : "2.0"
  },
  "scene" : 0,
  "scenes" : [
    {
      "nodes" : [ 0 ]
    }
  ],
  "nodes" : [
    {
      "name" : "S_Envi_Fyz_Building_Merge_105f",
      "mesh" : 0
    }
  ],
  "materials" : [
    {
      "name" : "MI_Envi_Fyz_Brick_01c1",
      "pbrMetallicRoughness" : {
        "baseColorFactor" : [ 0.3, 0.3, 0.3, 1.0 ],
        "metallicFactor" : 0.1,
        "roughnessFactor" : 0.5
      }
    }
  ],
  "meshes" : [
    {
      "primitives" : [
        {
          "attributes" : {
            "POSITION" : 1,
            "NORMAL" : 2,
            "TANGENT" : 3,
            "TEXCOORD_0" : 4,
            "TEXCOORD_1" : 5
          },
          "indices" : 0,
          "material" : 0
        }
      ],
      "name" : "S_Envi_Fyz_Building_Merge_105f"
    }
  ],
  "buffers" : [
    {
      "uri" : "S_Envi_Fyz_Building_Merge_105f.bin",
      "byteLength" : 13856
    }
  ],
  "bufferViews" : [
    {
      "buffer" : 0,
      "byteOffset" : 0,
      "byteLength" : 864
    },
    {
      "buffer" : 0,
      "byteOffset" : 864,
      "byteLength" : 2784
    },
    {
      "buffer" : 0,
      "byteOffset" : 3648,
      "byteLength" : 2784
    },
    {
      "buffer" : 0,
      "byteOffset" : 6432,
      "byteLength" : 3712
    },
    {
      "buffer" : 0,
      "byteOffset" : 10144,
      "byteLength" : 1856
    },
    {
      "buffer" : 0,
      "byteOffset" : 12000,
      "byteLength" : 1856
    }
  ],
  "accessors" : [
    {
      "bufferView" : 0,
      "componentType" : 5123,
      "count" : 432,
      "type" : "SCALAR"
    },
    {
      "bufferView" : 1,
      "min" : [ -61.0398, 4.94354, 26.1525 ],
      "max" : [ -46.7462, 5.11965, 53.7672 ],
      "componentType" : 5126,
      "count" : 232,
      "type" : "VEC3"
    },
    {
      "bufferView" : 2,
      "componentType" : 5126,
      "count" : 232,
      "type" : "VEC3"
    },
    {
      "bufferView" : 3,
      "componentType" : 5126,
      "count" : 232,
      "type" : "VEC4"
    },
    {
      "bufferView" : 4,
      "componentType" : 5126,
      "count" : 232,
      "type" : "VEC2"
    },
    {
      "bufferView" : 5,
      "componentType" : 5126,
      "count" : 232,
      "type" : "VEC2"
    }
  ]
}
