{
  "asset" : {
    "generator" : "UE Viewer (umodel) build 1579 based",
    "version" : "2.0"
  },
  "scene" : 0,
  "scenes" : [
    {
      "nodes" : [ 0 ]
    }
  ],
  "nodes" : [
    {
      "name" : "S_Envi_Fyz_Building_65f",
      "mesh" : 0
    }
  ],
  "materials" : [
    {
      "name" : "MI_Envi_Umeda_japan_Temple_05",
      "pbrMetallicRoughness" : {
        "baseColorFactor" : [ 0.3, 0.3, 0.3, 1.0 ],
        "metallicFactor" : 0.1,
        "roughnessFactor" : 0.5
      }
    },
    {
      "name" : "MI_Envi_Umeda_japan_Temple_04b",
      "pbrMetallicRoughness" : {
        "baseColorFactor" : [ 0.9, 0.3, 0.3, 1.0 ],
        "metallicFactor" : 0.1,
        "roughnessFactor" : 0.5
      }
    }
  ],
  "meshes" : [
    {
      "primitives" : [
        {
          "attributes" : {
            "POSITION" : 1,
            "NORMAL" : 2,
            "TANGENT" : 3,
            "TEXCOORD_0" : 4,
            "TEXCOORD_1" : 5,
            "TEXCOORD_2" : 6,
            "TEXCOORD_3" : 7
          },
          "indices" : 0,
          "material" : 0
        },
        {
          "attributes" : {
            "POSITION" : 9,
            "NORMAL" : 10,
            "TANGENT" : 11,
            "TEXCOORD_0" : 12,
            "TEXCOORD_1" : 13,
            "TEXCOORD_2" : 14,
            "TEXCOORD_3" : 15
          },
          "indices" : 8,
          "material" : 1
        }
      ],
      "name" : "S_Envi_Fyz_Building_65f"
    }
  ],
  "buffers" : [
    {
      "uri" : "S_Envi_Fyz_Building_65f.bin",
      "byteLength" : 70860
    }
  ],
  "bufferViews" : [
    {
      "buffer" : 0,
      "byteOffset" : 0,
      "byteLength" : 2700
    },
    {
      "buffer" : 0,
      "byteOffset" : 2700,
      "byteLength" : 11160
    },
    {
      "buffer" : 0,
      "byteOffset" : 13860,
      "byteLength" : 11160
    },
    {
      "buffer" : 0,
      "byteOffset" : 25020,
      "byteLength" : 14880
    },
    {
      "buffer" : 0,
      "byteOffset" : 39900,
      "byteLength" : 7440
    },
    {
      "buffer" : 0,
      "byteOffset" : 47340,
      "byteLength" : 7440
    },
    {
      "buffer" : 0,
      "byteOffset" : 54780,
      "byteLength" : 7440
    },
    {
      "buffer" : 0,
      "byteOffset" : 62220,
      "byteLength" : 7440
    },
    {
      "buffer" : 0,
      "byteOffset" : 69660,
      "byteLength" : 48
    },
    {
      "buffer" : 0,
      "byteOffset" : 69708,
      "byteLength" : 192
    },
    {
      "buffer" : 0,
      "byteOffset" : 69900,
      "byteLength" : 192
    },
    {
      "buffer" : 0,
      "byteOffset" : 70092,
      "byteLength" : 256
    },
    {
      "buffer" : 0,
      "byteOffset" : 70348,
      "byteLength" : 128
    },
    {
      "buffer" : 0,
      "byteOffset" : 70476,
      "byteLength" : 128
    },
    {
      "buffer" : 0,
      "byteOffset" : 70604,
      "byteLength" : 128
    },
    {
      "buffer" : 0,
      "byteOffset" : 70732,
      "byteLength" : 128
    }
  ],
  "accessors" : [
    {
      "bufferView" : 0,
      "componentType" : 5123,
      "count" : 1350,
      "type" : "SCALAR"
    },
    {
      "bufferView" : 1,
      "min" : [ -0.74208, -0.401733, -3.17271 ],
      "max" : [ 0.742084, 1.07181, 6.33963 ],
      "componentType" : 5126,
      "count" : 930,
      "type" : "VEC3"
    },
    {
      "bufferView" : 2,
      "componentType" : 5126,
      "count" : 930,
      "type" : "VEC3"
    },
    {
      "bufferView" : 3,
      "componentType" : 5126,
      "count" : 930,
      "type" : "VEC4"
    },
    {
      "bufferView" : 4,
      "componentType" : 5126,
      "count" : 930,
      "type" : "VEC2"
    },
    {
      "bufferView" : 5,
      "componentType" : 5126,
      "count" : 930,
      "type" : "VEC2"
    },
    {
      "bufferView" : 6,
      "componentType" : 5126,
      "count" : 930,
      "type" : "VEC2"
    },
    {
      "bufferView" : 7,
      "componentType" : 5126,
      "count" : 930,
      "type" : "VEC2"
    },
    {
      "bufferView" : 8,
      "componentType" : 5123,
      "count" : 24,
      "type" : "SCALAR"
    },
    {
      "bufferView" : 9,
      "min" : [ -0.591657, 1.05025, -2.95537 ],
      "max" : [ 0.714306, 1.05026, 6.14997 ],
      "componentType" : 5126,
      "count" : 16,
      "type" : "VEC3"
    },
    {
      "bufferView" : 10,
      "componentType" : 5126,
      "count" : 16,
      "type" : "VEC3"
    },
    {
      "bufferView" : 11,
      "componentType" : 5126,
      "count" : 16,
      "type" : "VEC4"
    },
    {
      "bufferView" : 12,
      "componentType" : 5126,
      "count" : 16,
      "type" : "VEC2"
    },
    {
      "bufferView" : 13,
      "componentType" : 5126,
      "count" : 16,
      "type" : "VEC2"
    },
    {
      "bufferView" : 14,
      "componentType" : 5126,
      "count" : 16,
      "type" : "VEC2"
    },
    {
      "bufferView" : 15,
      "componentType" : 5126,
      "count" : 16,
      "type" : "VEC2"
    }
  ]
}
