{
  "asset" : {
    "generator" : "UE Viewer (umodel) build 1579 based",
    "version" : "2.0"
  },
  "scene" : 0,
  "scenes" : [
    {
      "nodes" : [ 0 ]
    }
  ],
  "nodes" : [
    {
      "name" : "S_Envi_Fyz_Building_88h",
      "mesh" : 0
    }
  ],
  "materials" : [
    {
      "name" : "MI_Envi_Fyz_Wall_02c",
      "pbrMetallicRoughness" : {
        "baseColorFactor" : [ 0.3, 0.3, 0.3, 1.0 ],
        "metallicFactor" : 0.1,
        "roughnessFactor" : 0.5
      }
    }
  ],
  "meshes" : [
    {
      "primitives" : [
        {
          "attributes" : {
            "POSITION" : 1,
            "NORMAL" : 2,
            "TANGENT" : 3,
            "TEXCOORD_0" : 4,
            "TEXCOORD_1" : 5,
            "TEXCOORD_2" : 6,
            "TEXCOORD_3" : 7
          },
          "indices" : 0,
          "material" : 0
        }
      ],
      "name" : "S_Envi_Fyz_Building_88h"
    }
  ],
  "buffers" : [
    {
      "uri" : "S_Envi_Fyz_Building_88h.bin",
      "byteLength" : 90648
    }
  ],
  "bufferViews" : [
    {
      "buffer" : 0,
      "byteOffset" : 0,
      "byteLength" : 11016
    },
    {
      "buffer" : 0,
      "byteOffset" : 11016,
      "byteLength" : 13272
    },
    {
      "buffer" : 0,
      "byteOffset" : 24288,
      "byteLength" : 13272
    },
    {
      "buffer" : 0,
      "byteOffset" : 37560,
      "byteLength" : 17696
    },
    {
      "buffer" : 0,
      "byteOffset" : 55256,
      "byteLength" : 8848
    },
    {
      "buffer" : 0,
      "byteOffset" : 64104,
      "byteLength" : 8848
    },
    {
      "buffer" : 0,
      "byteOffset" : 72952,
      "byteLength" : 8848
    },
    {
      "buffer" : 0,
      "byteOffset" : 81800,
      "byteLength" : 8848
    }
  ],
  "accessors" : [
    {
      "bufferView" : 0,
      "componentType" : 5123,
      "count" : 5508,
      "type" : "SCALAR"
    },
    {
      "bufferView" : 1,
      "min" : [ -2.88917, -0.0114111, 11.0093 ],
      "max" : [ 7.80471, 12.0305, 35.1168 ],
      "componentType" : 5126,
      "count" : 1106,
      "type" : "VEC3"
    },
    {
      "bufferView" : 2,
      "componentType" : 5126,
      "count" : 1106,
      "type" : "VEC3"
    },
    {
      "bufferView" : 3,
      "componentType" : 5126,
      "count" : 1106,
      "type" : "VEC4"
    },
    {
      "bufferView" : 4,
      "componentType" : 5126,
      "count" : 1106,
      "type" : "VEC2"
    },
    {
      "bufferView" : 5,
      "componentType" : 5126,
      "count" : 1106,
      "type" : "VEC2"
    },
    {
      "bufferView" : 6,
      "componentType" : 5126,
      "count" : 1106,
      "type" : "VEC2"
    },
    {
      "bufferView" : 7,
      "componentType" : 5126,
      "count" : 1106,
      "type" : "VEC2"
    }
  ]
}
