{
  "asset" : {
    "generator" : "UE Viewer (umodel) build 1579 based",
    "version" : "2.0"
  },
  "scene" : 0,
  "scenes" : [
    {
      "nodes" : [ 0 ]
    }
  ],
  "nodes" : [
    {
      "name" : "S_Envi_Fyz_Building_88d",
      "mesh" : 0
    }
  ],
  "materials" : [
    {
      "name" : "MI_Envi_Fyz_Store_01E",
      "pbrMetallicRoughness" : {
        "baseColorFactor" : [ 0.3, 0.3, 0.3, 1.0 ],
        "metallicFactor" : 0.1,
        "roughnessFactor" : 0.5
      }
    },
    {
      "name" : "MI_PM_Glass_02k",
      "pbrMetallicRoughness" : {
        "baseColorFactor" : [ 0.9, 0.3, 0.3, 1.0 ],
        "metallicFactor" : 0.1,
        "roughnessFactor" : 0.5
      }
    },
    {
      "name" : "MI_Envi_Fyz_Store_02B",
      "pbrMetallicRoughness" : {
        "baseColorFactor" : [ 0.3, 0.9, 0.3, 1.0 ],
        "metallicFactor" : 0.1,
        "roughnessFactor" : 0.5
      }
    }
  ],
  "meshes" : [
    {
      "primitives" : [
        {
          "attributes" : {
            "POSITION" : 1,
            "NORMAL" : 2,
            "TANGENT" : 3,
            "TEXCOORD_0" : 4,
            "TEXCOORD_1" : 5,
            "TEXCOORD_2" : 6,
            "TEXCOORD_3" : 7
          },
          "indices" : 0,
          "material" : 0
        },
        {
          "attributes" : {
            "POSITION" : 9,
            "NORMAL" : 10,
            "TANGENT" : 11,
            "TEXCOORD_0" : 12,
            "TEXCOORD_1" : 13,
            "TEXCOORD_2" : 14,
            "TEXCOORD_3" : 15
          },
          "indices" : 8,
          "material" : 1
        },
        {
          "attributes" : {
            "POSITION" : 17,
            "NORMAL" : 18,
            "TANGENT" : 19,
            "TEXCOORD_0" : 20,
            "TEXCOORD_1" : 21,
            "TEXCOORD_2" : 22,
            "TEXCOORD_3" : 23
          },
          "indices" : 16,
          "material" : 2
        }
      ],
      "name" : "S_Envi_Fyz_Building_88d"
    }
  ],
  "buffers" : [
    {
      "uri" : "S_Envi_Fyz_Building_88d.bin",
      "byteLength" : 162884
    }
  ],
  "bufferViews" : [
    {
      "buffer" : 0,
      "byteOffset" : 0,
      "byteLength" : 5348
    },
    {
      "buffer" : 0,
      "byteOffset" : 5348,
      "byteLength" : 16812
    },
    {
      "buffer" : 0,
      "byteOffset" : 22160,
      "byteLength" : 16812
    },
    {
      "buffer" : 0,
      "byteOffset" : 38972,
      "byteLength" : 22416
    },
    {
      "buffer" : 0,
      "byteOffset" : 61388,
      "byteLength" : 11208
    },
    {
      "buffer" : 0,
      "byteOffset" : 72596,
      "byteLength" : 11208
    },
    {
      "buffer" : 0,
      "byteOffset" : 83804,
      "byteLength" : 11208
    },
    {
      "buffer" : 0,
      "byteOffset" : 95012,
      "byteLength" : 11208
    },
    {
      "buffer" : 0,
      "byteOffset" : 106220,
      "byteLength" : 108
    },
    {
      "buffer" : 0,
      "byteOffset" : 106328,
      "byteLength" : 312
    },
    {
      "buffer" : 0,
      "byteOffset" : 106640,
      "byteLength" : 312
    },
    {
      "buffer" : 0,
      "byteOffset" : 106952,
      "byteLength" : 416
    },
    {
      "buffer" : 0,
      "byteOffset" : 107368,
      "byteLength" : 208
    },
    {
      "buffer" : 0,
      "byteOffset" : 107576,
      "byteLength" : 208
    },
    {
      "buffer" : 0,
      "byteOffset" : 107784,
      "byteLength" : 208
    },
    {
      "buffer" : 0,
      "byteOffset" : 107992,
      "byteLength" : 208
    },
    {
      "buffer" : 0,
      "byteOffset" : 108200,
      "byteLength" : 5724
    },
    {
      "buffer" : 0,
      "byteOffset" : 113924,
      "byteLength" : 8160
    },
    {
      "buffer" : 0,
      "byteOffset" : 122084,
      "byteLength" : 8160
    },
    {
      "buffer" : 0,
      "byteOffset" : 130244,
      "byteLength" : 10880
    },
    {
      "buffer" : 0,
      "byteOffset" : 141124,
      "byteLength" : 5440
    },
    {
      "buffer" : 0,
      "byteOffset" : 146564,
      "byteLength" : 5440
    },
    {
      "buffer" : 0,
      "byteOffset" : 152004,
      "byteLength" : 5440
    },
    {
      "buffer" : 0,
      "byteOffset" : 157444,
      "byteLength" : 5440
    }
  ],
  "accessors" : [
    {
      "bufferView" : 0,
      "componentType" : 5123,
      "count" : 2673,
      "type" : "SCALAR"
    },
    {
      "bufferView" : 1,
      "min" : [ 0.0811059, -0.00634155, -1.39851 ],
      "max" : [ 13.2436, 4.40279, 0.282979 ],
      "componentType" : 5126,
      "count" : 1401,
      "type" : "VEC3"
    },
    {
      "bufferView" : 2,
      "componentType" : 5126,
      "count" : 1401,
      "type" : "VEC3"
    },
    {
      "bufferView" : 3,
      "componentType" : 5126,
      "count" : 1401,
      "type" : "VEC4"
    },
    {
      "bufferView" : 4,
      "componentType" : 5126,
      "count" : 1401,
      "type" : "VEC2"
    },
    {
      "bufferView" : 5,
      "componentType" : 5126,
      "count" : 1401,
      "type" : "VEC2"
    },
    {
      "bufferView" : 6,
      "componentType" : 5126,
      "count" : 1401,
      "type" : "VEC2"
    },
    {
      "bufferView" : 7,
      "componentType" : 5126,
      "count" : 1401,
      "type" : "VEC2"
    },
    {
      "bufferView" : 8,
      "componentType" : 5123,
      "count" : 54,
      "type" : "SCALAR"
    },
    {
      "bufferView" : 9,
      "min" : [ 1.90495, 0.80399, -1.11853 ],
      "max" : [ 12.6018, 3.31497, -0.986323 ],
      "componentType" : 5126,
      "count" : 26,
      "type" : "VEC3"
    },
    {
      "bufferView" : 10,
      "componentType" : 5126,
      "count" : 26,
      "type" : "VEC3"
    },
    {
      "bufferView" : 11,
      "componentType" : 5126,
      "count" : 26,
      "type" : "VEC4"
    },
    {
      "bufferView" : 12,
      "componentType" : 5126,
      "count" : 26,
      "type" : "VEC2"
    },
    {
      "bufferView" : 13,
      "componentType" : 5126,
      "count" : 26,
      "type" : "VEC2"
    },
    {
      "bufferView" : 14,
      "componentType" : 5126,
      "count" : 26,
      "type" : "VEC2"
    },
    {
      "bufferView" : 15,
      "componentType" : 5126,
      "count" : 26,
      "type" : "VEC2"
    },
    {
      "bufferView" : 16,
      "componentType" : 5123,
      "count" : 2862,
      "type" : "SCALAR"
    },
    {
      "bufferView" : 17,
      "min" : [ 10.6225, -0.0459595, -1.15487 ],
      "max" : [ 12.8218, 2.74201, -0.814482 ],
      "componentType" : 5126,
      "count" : 680,
      "type" : "VEC3"
    },
    {
      "bufferView" : 18,
      "componentType" : 5126,
      "count" : 680,
      "type" : "VEC3"
    },
    {
      "bufferView" : 19,
      "componentType" : 5126,
      "count" : 680,
      "type" : "VEC4"
    },
    {
      "bufferView" : 20,
      "componentType" : 5126,
      "count" : 680,
      "type" : "VEC2"
    },
    {
      "bufferView" : 21,
      "componentType" : 5126,
      "count" : 680,
      "type" : "VEC2"
    },
    {
      "bufferView" : 22,
      "componentType" : 5126,
      "count" : 680,
      "type" : "VEC2"
    },
    {
      "bufferView" : 23,
      "componentType" : 5126,
      "count" : 680,
      "type" : "VEC2"
    }
  ]
}
