{
  "asset" : {
    "generator" : "UE Viewer (umodel) build 1579 based",
    "version" : "2.0"
  },
  "scene" : 0,
  "scenes" : [
    {
      "nodes" : [ 0 ]
    }
  ],
  "nodes" : [
    {
      "name" : "S_Envi_Fyz_Building_60p",
      "mesh" : 0
    }
  ],
  "materials" : [
    {
      "name" : "MI_Envi_commontrim_03",
      "pbrMetallicRoughness" : {
        "baseColorFactor" : [ 0.3, 0.3, 0.3, 1.0 ],
        "metallicFactor" : 0.1,
        "roughnessFactor" : 0.5
      }
    },
    {
      "name" : "MI_Envi_Fyz_Floor_04a",
      "pbrMetallicRoughness" : {
        "baseColorFactor" : [ 0.9, 0.3, 0.3, 1.0 ],
        "metallicFactor" : 0.1,
        "roughnessFactor" : 0.5
      }
    },
    {
      "name" : "MI_Envi_Fyz_Floor_02b",
      "pbrMetallicRoughness" : {
        "baseColorFactor" : [ 0.3, 0.9, 0.3, 1.0 ],
        "metallicFactor" : 0.1,
        "roughnessFactor" : 0.5
      }
    }
  ],
  "meshes" : [
    {
      "primitives" : [
        {
          "attributes" : {
            "POSITION" : 1,
            "NORMAL" : 2,
            "TANGENT" : 3,
            "TEXCOORD_0" : 4,
            "TEXCOORD_1" : 5
          },
          "indices" : 0,
          "material" : 0
        },
        {
          "attributes" : {
            "POSITION" : 7,
            "NORMAL" : 8,
            "TANGENT" : 9,
            "TEXCOORD_0" : 10,
            "TEXCOORD_1" : 11
          },
          "indices" : 6,
          "material" : 1
        },
        {
          "attributes" : {
            "POSITION" : 13,
            "NORMAL" : 14,
            "TANGENT" : 15,
            "TEXCOORD_0" : 16,
            "TEXCOORD_1" : 17
          },
          "indices" : 12,
          "material" : 2
        }
      ],
      "name" : "S_Envi_Fyz_Building_60p"
    }
  ],
  "buffers" : [
    {
      "uri" : "S_Envi_Fyz_Building_60p.bin",
      "byteLength" : 141736
    }
  ],
  "bufferViews" : [
    {
      "buffer" : 0,
      "byteOffset" : 0,
      "byteLength" : 3096
    },
    {
      "buffer" : 0,
      "byteOffset" : 3096,
      "byteLength" : 6720
    },
    {
      "buffer" : 0,
      "byteOffset" : 9816,
      "byteLength" : 6720
    },
    {
      "buffer" : 0,
      "byteOffset" : 16536,
      "byteLength" : 8960
    },
    {
      "buffer" : 0,
      "byteOffset" : 25496,
      "byteLength" : 4480
    },
    {
      "buffer" : 0,
      "byteOffset" : 29976,
      "byteLength" : 4480
    },
    {
      "buffer" : 0,
      "byteOffset" : 34456,
      "byteLength" : 4584
    },
    {
      "buffer" : 0,
      "byteOffset" : 39040,
      "byteLength" : 5412
    },
    {
      "buffer" : 0,
      "byteOffset" : 44452,
      "byteLength" : 5412
    },
    {
      "buffer" : 0,
      "byteOffset" : 49864,
      "byteLength" : 7216
    },
    {
      "buffer" : 0,
      "byteOffset" : 57080,
      "byteLength" : 3608
    },
    {
      "buffer" : 0,
      "byteOffset" : 60688,
      "byteLength" : 3608
    },
    {
      "buffer" : 0,
      "byteOffset" : 64296,
      "byteLength" : 10968
    },
    {
      "buffer" : 0,
      "byteOffset" : 75264,
      "byteLength" : 14244
    },
    {
      "buffer" : 0,
      "byteOffset" : 89508,
      "byteLength" : 14244
    },
    {
      "buffer" : 0,
      "byteOffset" : 103752,
      "byteLength" : 18992
    },
    {
      "buffer" : 0,
      "byteOffset" : 122744,
      "byteLength" : 9496
    },
    {
      "buffer" : 0,
      "byteOffset" : 132240,
      "byteLength" : 9496
    }
  ],
  "accessors" : [
    {
      "bufferView" : 0,
      "componentType" : 5123,
      "count" : 1548,
      "type" : "SCALAR"
    },
    {
      "bufferView" : 1,
      "min" : [ -73.0098, 4.96739, -22.8689 ],
      "max" : [ -41.3775, 6.97261, 19.1084 ],
      "componentType" : 5126,
      "count" : 560,
      "type" : "VEC3"
    },
    {
      "bufferView" : 2,
      "componentType" : 5126,
      "count" : 560,
      "type" : "VEC3"
    },
    {
      "bufferView" : 3,
      "componentType" : 5126,
      "count" : 560,
      "type" : "VEC4"
    },
    {
      "bufferView" : 4,
      "componentType" : 5126,
      "count" : 560,
      "type" : "VEC2"
    },
    {
      "bufferView" : 5,
      "componentType" : 5126,
      "count" : 560,
      "type" : "VEC2"
    },
    {
      "bufferView" : 6,
      "componentType" : 5123,
      "count" : 2292,
      "type" : "SCALAR"
    },
    {
      "bufferView" : 7,
      "min" : [ -73.0098, 4.96064, -31.2084 ],
      "max" : [ -67.018, 5.05775, 18.7584 ],
      "componentType" : 5126,
      "count" : 451,
      "type" : "VEC3"
    },
    {
      "bufferView" : 8,
      "componentType" : 5126,
      "count" : 451,
      "type" : "VEC3"
    },
    {
      "bufferView" : 9,
      "componentType" : 5126,
      "count" : 451,
      "type" : "VEC4"
    },
    {
      "bufferView" : 10,
      "componentType" : 5126,
      "count" : 451,
      "type" : "VEC2"
    },
    {
      "bufferView" : 11,
      "componentType" : 5126,
      "count" : 451,
      "type" : "VEC2"
    },
    {
      "bufferView" : 12,
      "componentType" : 5123,
      "count" : 5484,
      "type" : "SCALAR"
    },
    {
      "bufferView" : 13,
      "min" : [ -73.0098, 4.96762, -22.5189 ],
      "max" : [ -41.8797, 7.00294, 21.1801 ],
      "componentType" : 5126,
      "count" : 1187,
      "type" : "VEC3"
    },
    {
      "bufferView" : 14,
      "componentType" : 5126,
      "count" : 1187,
      "type" : "VEC3"
    },
    {
      "bufferView" : 15,
      "componentType" : 5126,
      "count" : 1187,
      "type" : "VEC4"
    },
    {
      "bufferView" : 16,
      "componentType" : 5126,
      "count" : 1187,
      "type" : "VEC2"
    },
    {
      "bufferView" : 17,
      "componentType" : 5126,
      "count" : 1187,
      "type" : "VEC2"
    }
  ]
}
