{
  "asset" : {
    "generator" : "UE Viewer (umodel) build 1579 based",
    "version" : "2.0"
  },
  "scene" : 0,
  "scenes" : [
    {
      "nodes" : [ 0 ]
    }
  ],
  "nodes" : [
    {
      "name" : "S_Envi_Fyz_Building_92e",
      "mesh" : 0
    }
  ],
  "materials" : [
    {
      "name" : "MI_Envi_Umeda_Base_Ground_7",
      "pbrMetallicRoughness" : {
        "baseColorFactor" : [ 0.3, 0.3, 0.3, 1.0 ],
        "metallicFactor" : 0.1,
        "roughnessFactor" : 0.5
      }
    }
  ],
  "meshes" : [
    {
      "primitives" : [
        {
          "attributes" : {
            "POSITION" : 1,
            "NORMAL" : 2,
            "TANGENT" : 3,
            "TEXCOORD_0" : 4,
            "TEXCOORD_1" : 5
          },
          "indices" : 0,
          "material" : 0
        }
      ],
      "name" : "S_Envi_Fyz_Building_92e"
    }
  ],
  "buffers" : [
    {
      "uri" : "S_Envi_Fyz_Building_92e.bin",
      "byteLength" : 1020
    }
  ],
  "bufferViews" : [
    {
      "buffer" : 0,
      "byteOffset" : 0,
      "byteLength" : 68
    },
    {
      "buffer" : 0,
      "byteOffset" : 68,
      "byteLength" : 204
    },
    {
      "buffer" : 0,
      "byteOffset" : 272,
      "byteLength" : 204
    },
    {
      "buffer" : 0,
      "byteOffset" : 476,
      "byteLength" : 272
    },
    {
      "buffer" : 0,
      "byteOffset" : 748,
      "byteLength" : 136
    },
    {
      "buffer" : 0,
      "byteOffset" : 884,
      "byteLength" : 136
    }
  ],
  "accessors" : [
    {
      "bufferView" : 0,
      "componentType" : 5123,
      "count" : 33,
      "type" : "SCALAR"
    },
    {
      "bufferView" : 1,
      "min" : [ -31.8888, -0.00944697, -21.3036 ],
      "max" : [ 24.5014, 0.00944697, 21.3036 ],
      "componentType" : 5126,
      "count" : 17,
      "type" : "VEC3"
    },
    {
      "bufferView" : 2,
      "componentType" : 5126,
      "count" : 17,
      "type" : "VEC3"
    },
    {
      "bufferView" : 3,
      "componentType" : 5126,
      "count" : 17,
      "type" : "VEC4"
    },
    {
      "bufferView" : 4,
      "componentType" : 5126,
      "count" : 17,
      "type" : "VEC2"
    },
    {
      "bufferView" : 5,
      "componentType" : 5126,
      "count" : 17,
      "type" : "VEC2"
    }
  ]
}
