{
  "asset" : {
    "generator" : "UE Viewer (umodel) build 1579 based",
    "version" : "2.0"
  },
  "scene" : 0,
  "scenes" : [
    {
      "nodes" : [ 0 ]
    }
  ],
  "nodes" : [
    {
      "name" : "S_Envi_Fyz_Building_87p",
      "mesh" : 0
    }
  ],
  "materials" : [
    {
      "name" : "MI_Envi_Fyz_Store_01E",
      "pbrMetallicRoughness" : {
        "baseColorFactor" : [ 0.3, 0.3, 0.3, 1.0 ],
        "metallicFactor" : 0.1,
        "roughnessFactor" : 0.5
      }
    },
    {
      "name" : "MI_PM_Glass_02k",
      "pbrMetallicRoughness" : {
        "baseColorFactor" : [ 0.9, 0.3, 0.3, 1.0 ],
        "metallicFactor" : 0.1,
        "roughnessFactor" : 0.5
      }
    },
    {
      "name" : "MI_Envi_Fyz_Store_02B",
      "pbrMetallicRoughness" : {
        "baseColorFactor" : [ 0.3, 0.9, 0.3, 1.0 ],
        "metallicFactor" : 0.1,
        "roughnessFactor" : 0.5
      }
    }
  ],
  "meshes" : [
    {
      "primitives" : [
        {
          "attributes" : {
            "POSITION" : 1,
            "NORMAL" : 2,
            "TANGENT" : 3,
            "TEXCOORD_0" : 4,
            "TEXCOORD_1" : 5,
            "TEXCOORD_2" : 6,
            "TEXCOORD_3" : 7
          },
          "indices" : 0,
          "material" : 0
        },
        {
          "attributes" : {
            "POSITION" : 9,
            "NORMAL" : 10,
            "TANGENT" : 11,
            "TEXCOORD_0" : 12,
            "TEXCOORD_1" : 13,
            "TEXCOORD_2" : 14,
            "TEXCOORD_3" : 15
          },
          "indices" : 8,
          "material" : 1
        },
        {
          "attributes" : {
            "POSITION" : 17,
            "NORMAL" : 18,
            "TANGENT" : 19,
            "TEXCOORD_0" : 20,
            "TEXCOORD_1" : 21,
            "TEXCOORD_2" : 22,
            "TEXCOORD_3" : 23
          },
          "indices" : 16,
          "material" : 2
        }
      ],
      "name" : "S_Envi_Fyz_Building_87p"
    }
  ],
  "buffers" : [
    {
      "uri" : "S_Envi_Fyz_Building_87p.bin",
      "byteLength" : 195012
    }
  ],
  "bufferViews" : [
    {
      "buffer" : 0,
      "byteOffset" : 0,
      "byteLength" : 4956
    },
    {
      "buffer" : 0,
      "byteOffset" : 4956,
      "byteLength" : 21576
    },
    {
      "buffer" : 0,
      "byteOffset" : 26532,
      "byteLength" : 21576
    },
    {
      "buffer" : 0,
      "byteOffset" : 48108,
      "byteLength" : 28768
    },
    {
      "buffer" : 0,
      "byteOffset" : 76876,
      "byteLength" : 14384
    },
    {
      "buffer" : 0,
      "byteOffset" : 91260,
      "byteLength" : 14384
    },
    {
      "buffer" : 0,
      "byteOffset" : 105644,
      "byteLength" : 14384
    },
    {
      "buffer" : 0,
      "byteOffset" : 120028,
      "byteLength" : 14384
    },
    {
      "buffer" : 0,
      "byteOffset" : 134412,
      "byteLength" : 96
    },
    {
      "buffer" : 0,
      "byteOffset" : 134508,
      "byteLength" : 384
    },
    {
      "buffer" : 0,
      "byteOffset" : 134892,
      "byteLength" : 384
    },
    {
      "buffer" : 0,
      "byteOffset" : 135276,
      "byteLength" : 512
    },
    {
      "buffer" : 0,
      "byteOffset" : 135788,
      "byteLength" : 256
    },
    {
      "buffer" : 0,
      "byteOffset" : 136044,
      "byteLength" : 256
    },
    {
      "buffer" : 0,
      "byteOffset" : 136300,
      "byteLength" : 256
    },
    {
      "buffer" : 0,
      "byteOffset" : 136556,
      "byteLength" : 256
    },
    {
      "buffer" : 0,
      "byteOffset" : 136812,
      "byteLength" : 5784
    },
    {
      "buffer" : 0,
      "byteOffset" : 142596,
      "byteLength" : 8736
    },
    {
      "buffer" : 0,
      "byteOffset" : 151332,
      "byteLength" : 8736
    },
    {
      "buffer" : 0,
      "byteOffset" : 160068,
      "byteLength" : 11648
    },
    {
      "buffer" : 0,
      "byteOffset" : 171716,
      "byteLength" : 5824
    },
    {
      "buffer" : 0,
      "byteOffset" : 177540,
      "byteLength" : 5824
    },
    {
      "buffer" : 0,
      "byteOffset" : 183364,
      "byteLength" : 5824
    },
    {
      "buffer" : 0,
      "byteOffset" : 189188,
      "byteLength" : 5824
    }
  ],
  "accessors" : [
    {
      "bufferView" : 0,
      "componentType" : 5123,
      "count" : 2478,
      "type" : "SCALAR"
    },
    {
      "bufferView" : 1,
      "min" : [ -0.652208, -2.40093, -4.18659 ],
      "max" : [ 6.73517, 2.39645, 4.21175 ],
      "componentType" : 5126,
      "count" : 1798,
      "type" : "VEC3"
    },
    {
      "bufferView" : 2,
      "componentType" : 5126,
      "count" : 1798,
      "type" : "VEC3"
    },
    {
      "bufferView" : 3,
      "componentType" : 5126,
      "count" : 1798,
      "type" : "VEC4"
    },
    {
      "bufferView" : 4,
      "componentType" : 5126,
      "count" : 1798,
      "type" : "VEC2"
    },
    {
      "bufferView" : 5,
      "componentType" : 5126,
      "count" : 1798,
      "type" : "VEC2"
    },
    {
      "bufferView" : 6,
      "componentType" : 5126,
      "count" : 1798,
      "type" : "VEC2"
    },
    {
      "bufferView" : 7,
      "componentType" : 5126,
      "count" : 1798,
      "type" : "VEC2"
    },
    {
      "bufferView" : 8,
      "componentType" : 5123,
      "count" : 48,
      "type" : "SCALAR"
    },
    {
      "bufferView" : 9,
      "min" : [ -0.331333, -1.81383, -3.72255 ],
      "max" : [ -0.157417, 1.21481, 3.73605 ],
      "componentType" : 5126,
      "count" : 32,
      "type" : "VEC3"
    },
    {
      "bufferView" : 10,
      "componentType" : 5126,
      "count" : 32,
      "type" : "VEC3"
    },
    {
      "bufferView" : 11,
      "componentType" : 5126,
      "count" : 32,
      "type" : "VEC4"
    },
    {
      "bufferView" : 12,
      "componentType" : 5126,
      "count" : 32,
      "type" : "VEC2"
    },
    {
      "bufferView" : 13,
      "componentType" : 5126,
      "count" : 32,
      "type" : "VEC2"
    },
    {
      "bufferView" : 14,
      "componentType" : 5126,
      "count" : 32,
      "type" : "VEC2"
    },
    {
      "bufferView" : 15,
      "componentType" : 5126,
      "count" : 32,
      "type" : "VEC2"
    },
    {
      "bufferView" : 16,
      "componentType" : 5123,
      "count" : 2892,
      "type" : "SCALAR"
    },
    {
      "bufferView" : 17,
      "min" : [ -0.345629, -2.44055, -1.08609 ],
      "max" : [ -0.00524536, 0.347418, 1.1132 ],
      "componentType" : 5126,
      "count" : 728,
      "type" : "VEC3"
    },
    {
      "bufferView" : 18,
      "componentType" : 5126,
      "count" : 728,
      "type" : "VEC3"
    },
    {
      "bufferView" : 19,
      "componentType" : 5126,
      "count" : 728,
      "type" : "VEC4"
    },
    {
      "bufferView" : 20,
      "componentType" : 5126,
      "count" : 728,
      "type" : "VEC2"
    },
    {
      "bufferView" : 21,
      "componentType" : 5126,
      "count" : 728,
      "type" : "VEC2"
    },
    {
      "bufferView" : 22,
      "componentType" : 5126,
      "count" : 728,
      "type" : "VEC2"
    },
    {
      "bufferView" : 23,
      "componentType" : 5126,
      "count" : 728,
      "type" : "VEC2"
    }
  ]
}
