{
  "asset" : {
    "generator" : "UE Viewer (umodel) build 1579 based",
    "version" : "2.0"
  },
  "scene" : 0,
  "scenes" : [
    {
      "nodes" : [ 0 ]
    }
  ],
  "nodes" : [
    {
      "name" : "S_Envi_Fyz_BuildingRoom_05e",
      "mesh" : 0
    }
  ],
  "materials" : [
    {
      "name" : "MI_Envi_Common_HBuilding_01a",
      "pbrMetallicRoughness" : {
        "baseColorFactor" : [ 0.3, 0.3, 0.3, 1.0 ],
        "metallicFactor" : 0.1,
        "roughnessFactor" : 0.5
      }
    }
  ],
  "meshes" : [
    {
      "primitives" : [
        {
          "attributes" : {
            "POSITION" : 1,
            "NORMAL" : 2,
            "TANGENT" : 3,
            "TEXCOORD_0" : 4,
            "TEXCOORD_1" : 5
          },
          "indices" : 0,
          "material" : 0
        }
      ],
      "name" : "S_Envi_Fyz_BuildingRoom_05e"
    }
  ],
  "buffers" : [
    {
      "uri" : "S_Envi_Fyz_BuildingRoom_05e.bin",
      "byteLength" : 155176
    }
  ],
  "bufferViews" : [
    {
      "buffer" : 0,
      "byteOffset" : 0,
      "byteLength" : 8568
    },
    {
      "buffer" : 0,
      "byteOffset" : 8568,
      "byteLength" : 31416
    },
    {
      "buffer" : 0,
      "byteOffset" : 39984,
      "byteLength" : 31416
    },
    {
      "buffer" : 0,
      "byteOffset" : 71400,
      "byteLength" : 41888
    },
    {
      "buffer" : 0,
      "byteOffset" : 113288,
      "byteLength" : 20944
    },
    {
      "buffer" : 0,
      "byteOffset" : 134232,
      "byteLength" : 20944
    }
  ],
  "accessors" : [
    {
      "bufferView" : 0,
      "componentType" : 5123,
      "count" : 4284,
      "type" : "SCALAR"
    },
    {
      "bufferView" : 1,
      "min" : [ 4.63543, 4.9787, -37.455 ],
      "max" : [ 17.4828, 12.1702, -9.44489 ],
      "componentType" : 5126,
      "count" : 2618,
      "type" : "VEC3"
    },
    {
      "bufferView" : 2,
      "componentType" : 5126,
      "count" : 2618,
      "type" : "VEC3"
    },
    {
      "bufferView" : 3,
      "componentType" : 5126,
      "count" : 2618,
      "type" : "VEC4"
    },
    {
      "bufferView" : 4,
      "componentType" : 5126,
      "count" : 2618,
      "type" : "VEC2"
    },
    {
      "bufferView" : 5,
      "componentType" : 5126,
      "count" : 2618,
      "type" : "VEC2"
    }
  ]
}
