{
  "asset" : {
    "generator" : "UE Viewer (umodel) build 1579 based",
    "version" : "2.0"
  },
  "scene" : 0,
  "scenes" : [
    {
      "nodes" : [ 0 ]
    }
  ],
  "nodes" : [
    {
      "name" : "S_Envi_Fyz_Building_129f",
      "mesh" : 0
    }
  ],
  "materials" : [
    {
      "name" : "MI_Envi_Fyz_Wall_02c",
      "pbrMetallicRoughness" : {
        "baseColorFactor" : [ 0.3, 0.3, 0.3, 1.0 ],
        "metallicFactor" : 0.1,
        "roughnessFactor" : 0.5
      }
    }
  ],
  "meshes" : [
    {
      "primitives" : [
        {
          "attributes" : {
            "POSITION" : 1,
            "NORMAL" : 2,
            "TANGENT" : 3,
            "TEXCOORD_0" : 4,
            "TEXCOORD_1" : 5
          },
          "indices" : 0,
          "material" : 0
        }
      ],
      "name" : "S_Envi_Fyz_Building_129f"
    }
  ],
  "buffers" : [
    {
      "uri" : "S_Envi_Fyz_Building_129f.bin",
      "byteLength" : 3488
    }
  ],
  "bufferViews" : [
    {
      "buffer" : 0,
      "byteOffset" : 0,
      "byteLength" : 240
    },
    {
      "buffer" : 0,
      "byteOffset" : 240,
      "byteLength" : 696
    },
    {
      "buffer" : 0,
      "byteOffset" : 936,
      "byteLength" : 696
    },
    {
      "buffer" : 0,
      "byteOffset" : 1632,
      "byteLength" : 928
    },
    {
      "buffer" : 0,
      "byteOffset" : 2560,
      "byteLength" : 464
    },
    {
      "buffer" : 0,
      "byteOffset" : 3024,
      "byteLength" : 464
    }
  ],
  "accessors" : [
    {
      "bufferView" : 0,
      "componentType" : 5123,
      "count" : 120,
      "type" : "SCALAR"
    },
    {
      "bufferView" : 1,
      "min" : [ -7.22896, -0.631696, -11.7812 ],
      "max" : [ 6.84598, 4.70108, 11.0767 ],
      "componentType" : 5126,
      "count" : 58,
      "type" : "VEC3"
    },
    {
      "bufferView" : 2,
      "componentType" : 5126,
      "count" : 58,
      "type" : "VEC3"
    },
    {
      "bufferView" : 3,
      "componentType" : 5126,
      "count" : 58,
      "type" : "VEC4"
    },
    {
      "bufferView" : 4,
      "componentType" : 5126,
      "count" : 58,
      "type" : "VEC2"
    },
    {
      "bufferView" : 5,
      "componentType" : 5126,
      "count" : 58,
      "type" : "VEC2"
    }
  ]
}
