{
  "asset" : {
    "generator" : "UE Viewer (umodel) build 1579 based",
    "version" : "2.0"
  },
  "scene" : 0,
  "scenes" : [
    {
      "nodes" : [ 0 ]
    }
  ],
  "nodes" : [
    {
      "name" : "S_Envi_Fyz_Building_110d",
      "mesh" : 0
    }
  ],
  "materials" : [
    {
      "name" : "MI_Envi_Fyz_Wall_05a",
      "pbrMetallicRoughness" : {
        "baseColorFactor" : [ 0.3, 0.3, 0.3, 1.0 ],
        "metallicFactor" : 0.1,
        "roughnessFactor" : 0.5
      }
    }
  ],
  "meshes" : [
    {
      "primitives" : [
        {
          "attributes" : {
            "POSITION" : 1,
            "NORMAL" : 2,
            "TANGENT" : 3,
            "TEXCOORD_0" : 4,
            "TEXCOORD_1" : 5,
            "TEXCOORD_2" : 6
          },
          "indices" : 0,
          "material" : 0
        }
      ],
      "name" : "S_Envi_Fyz_Building_110d"
    }
  ],
  "buffers" : [
    {
      "uri" : "S_Envi_Fyz_Building_110d.bin",
      "byteLength" : 16716
    }
  ],
  "bufferViews" : [
    {
      "buffer" : 0,
      "byteOffset" : 0,
      "byteLength" : 1868
    },
    {
      "buffer" : 0,
      "byteOffset" : 1868,
      "byteLength" : 2784
    },
    {
      "buffer" : 0,
      "byteOffset" : 4652,
      "byteLength" : 2784
    },
    {
      "buffer" : 0,
      "byteOffset" : 7436,
      "byteLength" : 3712
    },
    {
      "buffer" : 0,
      "byteOffset" : 11148,
      "byteLength" : 1856
    },
    {
      "buffer" : 0,
      "byteOffset" : 13004,
      "byteLength" : 1856
    },
    {
      "buffer" : 0,
      "byteOffset" : 14860,
      "byteLength" : 1856
    }
  ],
  "accessors" : [
    {
      "bufferView" : 0,
      "componentType" : 5123,
      "count" : 933,
      "type" : "SCALAR"
    },
    {
      "bufferView" : 1,
      "min" : [ -16.3298, -4.49456, -0.43521 ],
      "max" : [ 0.0138188, 11.9081, 17.8127 ],
      "componentType" : 5126,
      "count" : 232,
      "type" : "VEC3"
    },
    {
      "bufferView" : 2,
      "componentType" : 5126,
      "count" : 232,
      "type" : "VEC3"
    },
    {
      "bufferView" : 3,
      "componentType" : 5126,
      "count" : 232,
      "type" : "VEC4"
    },
    {
      "bufferView" : 4,
      "componentType" : 5126,
      "count" : 232,
      "type" : "VEC2"
    },
    {
      "bufferView" : 5,
      "componentType" : 5126,
      "count" : 232,
      "type" : "VEC2"
    },
    {
      "bufferView" : 6,
      "componentType" : 5126,
      "count" : 232,
      "type" : "VEC2"
    }
  ]
}
