{
  "asset" : {
    "generator" : "UE Viewer (umodel) build 1579 based",
    "version" : "2.0"
  },
  "scene" : 0,
  "scenes" : [
    {
      "nodes" : [ 0 ]
    }
  ],
  "nodes" : [
    {
      "name" : "S_Envi_Fyz_Building_100k",
      "mesh" : 0
    }
  ],
  "materials" : [
    {
      "name" : "MI_Envi_Fyz_House_01b",
      "pbrMetallicRoughness" : {
        "baseColorFactor" : [ 0.3, 0.3, 0.3, 1.0 ],
        "metallicFactor" : 0.1,
        "roughnessFactor" : 0.5
      }
    }
  ],
  "meshes" : [
    {
      "primitives" : [
        {
          "attributes" : {
            "POSITION" : 1,
            "NORMAL" : 2,
            "TANGENT" : 3,
            "TEXCOORD_0" : 4,
            "TEXCOORD_1" : 5,
            "TEXCOORD_2" : 6
          },
          "indices" : 0,
          "material" : 0
        }
      ],
      "name" : "S_Envi_Fyz_Building_100k"
    }
  ],
  "buffers" : [
    {
      "uri" : "S_Envi_Fyz_Building_100k.bin",
      "byteLength" : 3892
    }
  ],
  "bufferViews" : [
    {
      "buffer" : 0,
      "byteOffset" : 0,
      "byteLength" : 180
    },
    {
      "buffer" : 0,
      "byteOffset" : 180,
      "byteLength" : 696
    },
    {
      "buffer" : 0,
      "byteOffset" : 876,
      "byteLength" : 696
    },
    {
      "buffer" : 0,
      "byteOffset" : 1572,
      "byteLength" : 928
    },
    {
      "buffer" : 0,
      "byteOffset" : 2500,
      "byteLength" : 464
    },
    {
      "buffer" : 0,
      "byteOffset" : 2964,
      "byteLength" : 464
    },
    {
      "buffer" : 0,
      "byteOffset" : 3428,
      "byteLength" : 464
    }
  ],
  "accessors" : [
    {
      "bufferView" : 0,
      "componentType" : 5123,
      "count" : 90,
      "type" : "SCALAR"
    },
    {
      "bufferView" : 1,
      "min" : [ -0.436088, -2.83053, -4.56263 ],
      "max" : [ -7.6294e-08, -5.18688e-07, 4.56263 ],
      "componentType" : 5126,
      "count" : 58,
      "type" : "VEC3"
    },
    {
      "bufferView" : 2,
      "componentType" : 5126,
      "count" : 58,
      "type" : "VEC3"
    },
    {
      "bufferView" : 3,
      "componentType" : 5126,
      "count" : 58,
      "type" : "VEC4"
    },
    {
      "bufferView" : 4,
      "componentType" : 5126,
      "count" : 58,
      "type" : "VEC2"
    },
    {
      "bufferView" : 5,
      "componentType" : 5126,
      "count" : 58,
      "type" : "VEC2"
    },
    {
      "bufferView" : 6,
      "componentType" : 5126,
      "count" : 58,
      "type" : "VEC2"
    }
  ]
}
