{
  "asset" : {
    "generator" : "UE Viewer (umodel) build 1579 based",
    "version" : "2.0"
  },
  "scene" : 0,
  "scenes" : [
    {
      "nodes" : [ 0 ]
    }
  ],
  "nodes" : [
    {
      "name" : "S_Envi_Fyz_Building_Merge_93c",
      "mesh" : 0
    }
  ],
  "materials" : [
    {
      "name" : "MI_Envi_Fyz_House_01e",
      "pbrMetallicRoughness" : {
        "baseColorFactor" : [ 0.3, 0.3, 0.3, 1.0 ],
        "metallicFactor" : 0.1,
        "roughnessFactor" : 0.5
      }
    },
    {
      "name" : "MI_Envi_Fyz_House_01a",
      "pbrMetallicRoughness" : {
        "baseColorFactor" : [ 0.9, 0.3, 0.3, 1.0 ],
        "metallicFactor" : 0.1,
        "roughnessFactor" : 0.5
      }
    },
    {
      "name" : "MI_Envi_Fyz_House_01h",
      "pbrMetallicRoughness" : {
        "baseColorFactor" : [ 0.3, 0.9, 0.3, 1.0 ],
        "metallicFactor" : 0.1,
        "roughnessFactor" : 0.5
      }
    }
  ],
  "meshes" : [
    {
      "primitives" : [
        {
          "attributes" : {
            "POSITION" : 1,
            "NORMAL" : 2,
            "TANGENT" : 3,
            "TEXCOORD_0" : 4,
            "TEXCOORD_1" : 5
          },
          "indices" : 0,
          "material" : 0
        },
        {
          "attributes" : {
            "POSITION" : 7,
            "NORMAL" : 8,
            "TANGENT" : 9,
            "TEXCOORD_0" : 10,
            "TEXCOORD_1" : 11
          },
          "indices" : 6,
          "material" : 1
        },
        {
          "attributes" : {
            "POSITION" : 13,
            "NORMAL" : 14,
            "TANGENT" : 15,
            "TEXCOORD_0" : 16,
            "TEXCOORD_1" : 17
          },
          "indices" : 12,
          "material" : 2
        }
      ],
      "name" : "S_Envi_Fyz_Building_Merge_93c"
    }
  ],
  "buffers" : [
    {
      "uri" : "S_Envi_Fyz_Building_Merge_93c.bin",
      "byteLength" : 1115888
    }
  ],
  "bufferViews" : [
    {
      "buffer" : 0,
      "byteOffset" : 0,
      "byteLength" : 37496
    },
    {
      "buffer" : 0,
      "byteOffset" : 37496,
      "byteLength" : 117480
    },
    {
      "buffer" : 0,
      "byteOffset" : 154976,
      "byteLength" : 117480
    },
    {
      "buffer" : 0,
      "byteOffset" : 272456,
      "byteLength" : 156640
    },
    {
      "buffer" : 0,
      "byteOffset" : 429096,
      "byteLength" : 78320
    },
    {
      "buffer" : 0,
      "byteOffset" : 507416,
      "byteLength" : 78320
    },
    {
      "buffer" : 0,
      "byteOffset" : 585736,
      "byteLength" : 26408
    },
    {
      "buffer" : 0,
      "byteOffset" : 612144,
      "byteLength" : 88728
    },
    {
      "buffer" : 0,
      "byteOffset" : 700872,
      "byteLength" : 88728
    },
    {
      "buffer" : 0,
      "byteOffset" : 789600,
      "byteLength" : 118304
    },
    {
      "buffer" : 0,
      "byteOffset" : 907904,
      "byteLength" : 59152
    },
    {
      "buffer" : 0,
      "byteOffset" : 967056,
      "byteLength" : 59152
    },
    {
      "buffer" : 0,
      "byteOffset" : 1026208,
      "byteLength" : 4560
    },
    {
      "buffer" : 0,
      "byteOffset" : 1030768,
      "byteLength" : 18240
    },
    {
      "buffer" : 0,
      "byteOffset" : 1049008,
      "byteLength" : 18240
    },
    {
      "buffer" : 0,
      "byteOffset" : 1067248,
      "byteLength" : 24320
    },
    {
      "buffer" : 0,
      "byteOffset" : 1091568,
      "byteLength" : 12160
    },
    {
      "buffer" : 0,
      "byteOffset" : 1103728,
      "byteLength" : 12160
    }
  ],
  "accessors" : [
    {
      "bufferView" : 0,
      "componentType" : 5123,
      "count" : 18747,
      "type" : "SCALAR"
    },
    {
      "bufferView" : 1,
      "min" : [ -8.34031, -16.7021, -90.728 ],
      "max" : [ 77.4925, -0.0804492, -30.5175 ],
      "componentType" : 5126,
      "count" : 9790,
      "type" : "VEC3"
    },
    {
      "bufferView" : 2,
      "componentType" : 5126,
      "count" : 9790,
      "type" : "VEC3"
    },
    {
      "bufferView" : 3,
      "componentType" : 5126,
      "count" : 9790,
      "type" : "VEC4"
    },
    {
      "bufferView" : 4,
      "componentType" : 5126,
      "count" : 9790,
      "type" : "VEC2"
    },
    {
      "bufferView" : 5,
      "componentType" : 5126,
      "count" : 9790,
      "type" : "VEC2"
    },
    {
      "bufferView" : 6,
      "componentType" : 5123,
      "count" : 13203,
      "type" : "SCALAR"
    },
    {
      "bufferView" : 7,
      "min" : [ -6.20125, -16.6785, -88.3081 ],
      "max" : [ 100.304, 1.45084, -25.4937 ],
      "componentType" : 5126,
      "count" : 7394,
      "type" : "VEC3"
    },
    {
      "bufferView" : 8,
      "componentType" : 5126,
      "count" : 7394,
      "type" : "VEC3"
    },
    {
      "bufferView" : 9,
      "componentType" : 5126,
      "count" : 7394,
      "type" : "VEC4"
    },
    {
      "bufferView" : 10,
      "componentType" : 5126,
      "count" : 7394,
      "type" : "VEC2"
    },
    {
      "bufferView" : 11,
      "componentType" : 5126,
      "count" : 7394,
      "type" : "VEC2"
    },
    {
      "bufferView" : 12,
      "componentType" : 5123,
      "count" : 2280,
      "type" : "SCALAR"
    },
    {
      "bufferView" : 13,
      "min" : [ -6.43031, -7.28594, -78.3361 ],
      "max" : [ 97.6059, -3.13212, -31.3891 ],
      "componentType" : 5126,
      "count" : 1520,
      "type" : "VEC3"
    },
    {
      "bufferView" : 14,
      "componentType" : 5126,
      "count" : 1520,
      "type" : "VEC3"
    },
    {
      "bufferView" : 15,
      "componentType" : 5126,
      "count" : 1520,
      "type" : "VEC4"
    },
    {
      "bufferView" : 16,
      "componentType" : 5126,
      "count" : 1520,
      "type" : "VEC2"
    },
    {
      "bufferView" : 17,
      "componentType" : 5126,
      "count" : 1520,
      "type" : "VEC2"
    }
  ]
}
