{
  "asset" : {
    "generator" : "UE Viewer (umodel) build 1579 based",
    "version" : "2.0"
  },
  "scene" : 0,
  "scenes" : [
    {
      "nodes" : [ 0 ]
    }
  ],
  "nodes" : [
    {
      "name" : "S_Envi_Fyz_Grass_Merge_05a",
      "mesh" : 0
    }
  ],
  "materials" : [
    {
      "name" : "MI_Envi_Foliage_shrub_08",
      "pbrMetallicRoughness" : {
        "baseColorFactor" : [ 0.3, 0.3, 0.3, 1.0 ],
        "metallicFactor" : 0.1,
        "roughnessFactor" : 0.5
      }
    }
  ],
  "meshes" : [
    {
      "primitives" : [
        {
          "attributes" : {
            "POSITION" : 1,
            "NORMAL" : 2,
            "TANGENT" : 3,
            "TEXCOORD_0" : 4,
            "TEXCOORD_1" : 5
          },
          "indices" : 0,
          "material" : 0
        }
      ],
      "name" : "S_Envi_Fyz_Grass_Merge_05a"
    }
  ],
  "buffers" : [
    {
      "uri" : "S_Envi_Fyz_Grass_Merge_05a.bin",
      "byteLength" : 391576
    }
  ],
  "bufferViews" : [
    {
      "buffer" : 0,
      "byteOffset" : 0,
      "byteLength" : 31272
    },
    {
      "buffer" : 0,
      "byteOffset" : 31272,
      "byteLength" : 77208
    },
    {
      "buffer" : 0,
      "byteOffset" : 108480,
      "byteLength" : 77208
    },
    {
      "buffer" : 0,
      "byteOffset" : 185688,
      "byteLength" : 102944
    },
    {
      "buffer" : 0,
      "byteOffset" : 288632,
      "byteLength" : 51472
    },
    {
      "buffer" : 0,
      "byteOffset" : 340104,
      "byteLength" : 51472
    }
  ],
  "accessors" : [
    {
      "bufferView" : 0,
      "componentType" : 5123,
      "count" : 15636,
      "type" : "SCALAR"
    },
    {
      "bufferView" : 1,
      "min" : [ -4.71889, 8.50102, 85.3509 ],
      "max" : [ -0.523597, 9.43131, 96.1812 ],
      "componentType" : 5126,
      "count" : 6434,
      "type" : "VEC3"
    },
    {
      "bufferView" : 2,
      "componentType" : 5126,
      "count" : 6434,
      "type" : "VEC3"
    },
    {
      "bufferView" : 3,
      "componentType" : 5126,
      "count" : 6434,
      "type" : "VEC4"
    },
    {
      "bufferView" : 4,
      "componentType" : 5126,
      "count" : 6434,
      "type" : "VEC2"
    },
    {
      "bufferView" : 5,
      "componentType" : 5126,
      "count" : 6434,
      "type" : "VEC2"
    }
  ]
}
