{
  "asset" : {
    "generator" : "UE Viewer (umodel) build 1579 based",
    "version" : "2.0"
  },
  "scene" : 0,
  "scenes" : [
    {
      "nodes" : [ 0 ]
    }
  ],
  "nodes" : [
    {
      "name" : "S_Envi_Fyz_Building_Merge_100l",
      "mesh" : 0
    }
  ],
  "materials" : [
    {
      "name" : "MI_Envi_Fyz_Wall_02e",
      "pbrMetallicRoughness" : {
        "baseColorFactor" : [ 0.3, 0.3, 0.3, 1.0 ],
        "metallicFactor" : 0.1,
        "roughnessFactor" : 0.5
      }
    },
    {
      "name" : "MI_Envi_Fyz_Wall_02c",
      "pbrMetallicRoughness" : {
        "baseColorFactor" : [ 0.9, 0.3, 0.3, 1.0 ],
        "metallicFactor" : 0.1,
        "roughnessFactor" : 0.5
      }
    }
  ],
  "meshes" : [
    {
      "primitives" : [
        {
          "attributes" : {
            "POSITION" : 1,
            "NORMAL" : 2,
            "TANGENT" : 3,
            "TEXCOORD_0" : 4,
            "TEXCOORD_1" : 5,
            "TEXCOORD_2" : 6,
            "TEXCOORD_3" : 7
          },
          "indices" : 0,
          "material" : 0
        },
        {
          "attributes" : {
            "POSITION" : 9,
            "NORMAL" : 10,
            "TANGENT" : 11,
            "TEXCOORD_0" : 12,
            "TEXCOORD_1" : 13,
            "TEXCOORD_2" : 14,
            "TEXCOORD_3" : 15
          },
          "indices" : 8,
          "material" : 1
        }
      ],
      "name" : "S_Envi_Fyz_Building_Merge_100l"
    }
  ],
  "buffers" : [
    {
      "uri" : "S_Envi_Fyz_Building_Merge_100l.bin",
      "byteLength" : 91904
    }
  ],
  "bufferViews" : [
    {
      "buffer" : 0,
      "byteOffset" : 0,
      "byteLength" : 7148
    },
    {
      "buffer" : 0,
      "byteOffset" : 7148,
      "byteLength" : 10560
    },
    {
      "buffer" : 0,
      "byteOffset" : 17708,
      "byteLength" : 10560
    },
    {
      "buffer" : 0,
      "byteOffset" : 28268,
      "byteLength" : 14080
    },
    {
      "buffer" : 0,
      "byteOffset" : 42348,
      "byteLength" : 7040
    },
    {
      "buffer" : 0,
      "byteOffset" : 49388,
      "byteLength" : 7040
    },
    {
      "buffer" : 0,
      "byteOffset" : 56428,
      "byteLength" : 7040
    },
    {
      "buffer" : 0,
      "byteOffset" : 63468,
      "byteLength" : 7040
    },
    {
      "buffer" : 0,
      "byteOffset" : 70508,
      "byteLength" : 1812
    },
    {
      "buffer" : 0,
      "byteOffset" : 72320,
      "byteLength" : 3264
    },
    {
      "buffer" : 0,
      "byteOffset" : 75584,
      "byteLength" : 3264
    },
    {
      "buffer" : 0,
      "byteOffset" : 78848,
      "byteLength" : 4352
    },
    {
      "buffer" : 0,
      "byteOffset" : 83200,
      "byteLength" : 2176
    },
    {
      "buffer" : 0,
      "byteOffset" : 85376,
      "byteLength" : 2176
    },
    {
      "buffer" : 0,
      "byteOffset" : 87552,
      "byteLength" : 2176
    },
    {
      "buffer" : 0,
      "byteOffset" : 89728,
      "byteLength" : 2176
    }
  ],
  "accessors" : [
    {
      "bufferView" : 0,
      "componentType" : 5123,
      "count" : 3573,
      "type" : "SCALAR"
    },
    {
      "bufferView" : 1,
      "min" : [ -134.333, -12.8899, -52.0575 ],
      "max" : [ -83.0242, 13.7298, -14.5637 ],
      "componentType" : 5126,
      "count" : 880,
      "type" : "VEC3"
    },
    {
      "bufferView" : 2,
      "componentType" : 5126,
      "count" : 880,
      "type" : "VEC3"
    },
    {
      "bufferView" : 3,
      "componentType" : 5126,
      "count" : 880,
      "type" : "VEC4"
    },
    {
      "bufferView" : 4,
      "componentType" : 5126,
      "count" : 880,
      "type" : "VEC2"
    },
    {
      "bufferView" : 5,
      "componentType" : 5126,
      "count" : 880,
      "type" : "VEC2"
    },
    {
      "bufferView" : 6,
      "componentType" : 5126,
      "count" : 880,
      "type" : "VEC2"
    },
    {
      "bufferView" : 7,
      "componentType" : 5126,
      "count" : 880,
      "type" : "VEC2"
    },
    {
      "bufferView" : 8,
      "componentType" : 5123,
      "count" : 906,
      "type" : "SCALAR"
    },
    {
      "bufferView" : 9,
      "min" : [ -102.192, -5.04348, -63.271 ],
      "max" : [ -94.1224, 21.5195, -47.7219 ],
      "componentType" : 5126,
      "count" : 272,
      "type" : "VEC3"
    },
    {
      "bufferView" : 10,
      "componentType" : 5126,
      "count" : 272,
      "type" : "VEC3"
    },
    {
      "bufferView" : 11,
      "componentType" : 5126,
      "count" : 272,
      "type" : "VEC4"
    },
    {
      "bufferView" : 12,
      "componentType" : 5126,
      "count" : 272,
      "type" : "VEC2"
    },
    {
      "bufferView" : 13,
      "componentType" : 5126,
      "count" : 272,
      "type" : "VEC2"
    },
    {
      "bufferView" : 14,
      "componentType" : 5126,
      "count" : 272,
      "type" : "VEC2"
    },
    {
      "bufferView" : 15,
      "componentType" : 5126,
      "count" : 272,
      "type" : "VEC2"
    }
  ]
}
