{
  "asset" : {
    "generator" : "UE Viewer (umodel) build 1579 based",
    "version" : "2.0"
  },
  "scene" : 0,
  "scenes" : [
    {
      "nodes" : [ 0 ]
    }
  ],
  "nodes" : [
    {
      "name" : "S_Envi_Fyz_Building_116h",
      "mesh" : 0
    }
  ],
  "materials" : [
    {
      "name" : "MI_Envi_Foliage_Grass_01a",
      "pbrMetallicRoughness" : {
        "baseColorFactor" : [ 0.3, 0.3, 0.3, 1.0 ],
        "metallicFactor" : 0.1,
        "roughnessFactor" : 0.5
      }
    }
  ],
  "meshes" : [
    {
      "primitives" : [
        {
          "attributes" : {
            "POSITION" : 1,
            "NORMAL" : 2,
            "TANGENT" : 3,
            "TEXCOORD_0" : 4,
            "TEXCOORD_1" : 5,
            "TEXCOORD_2" : 6
          },
          "indices" : 0,
          "material" : 0
        }
      ],
      "name" : "S_Envi_Fyz_Building_116h"
    }
  ],
  "buffers" : [
    {
      "uri" : "S_Envi_Fyz_Building_116h.bin",
      "byteLength" : 6012
    }
  ],
  "bufferViews" : [
    {
      "buffer" : 0,
      "byteOffset" : 0,
      "byteLength" : 444
    },
    {
      "buffer" : 0,
      "byteOffset" : 444,
      "byteLength" : 1044
    },
    {
      "buffer" : 0,
      "byteOffset" : 1488,
      "byteLength" : 1044
    },
    {
      "buffer" : 0,
      "byteOffset" : 2532,
      "byteLength" : 1392
    },
    {
      "buffer" : 0,
      "byteOffset" : 3924,
      "byteLength" : 696
    },
    {
      "buffer" : 0,
      "byteOffset" : 4620,
      "byteLength" : 696
    },
    {
      "buffer" : 0,
      "byteOffset" : 5316,
      "byteLength" : 696
    }
  ],
  "accessors" : [
    {
      "bufferView" : 0,
      "componentType" : 5123,
      "count" : 222,
      "type" : "SCALAR"
    },
    {
      "bufferView" : 1,
      "min" : [ -16.2705, -0.0363132, -1.74626 ],
      "max" : [ 23.6798, -0.0363112, 25.1495 ],
      "componentType" : 5126,
      "count" : 87,
      "type" : "VEC3"
    },
    {
      "bufferView" : 2,
      "componentType" : 5126,
      "count" : 87,
      "type" : "VEC3"
    },
    {
      "bufferView" : 3,
      "componentType" : 5126,
      "count" : 87,
      "type" : "VEC4"
    },
    {
      "bufferView" : 4,
      "componentType" : 5126,
      "count" : 87,
      "type" : "VEC2"
    },
    {
      "bufferView" : 5,
      "componentType" : 5126,
      "count" : 87,
      "type" : "VEC2"
    },
    {
      "bufferView" : 6,
      "componentType" : 5126,
      "count" : 87,
      "type" : "VEC2"
    }
  ]
}
