{
  "asset" : {
    "generator" : "UE Viewer (umodel) build 1579 based",
    "version" : "2.0"
  },
  "scene" : 0,
  "scenes" : [
    {
      "nodes" : [ 0 ]
    }
  ],
  "nodes" : [
    {
      "name" : "S_Envi_Fyz_Building_88s",
      "mesh" : 0
    }
  ],
  "materials" : [
    {
      "name" : "MI_Envi_Fyz_Store_01f",
      "pbrMetallicRoughness" : {
        "baseColorFactor" : [ 0.3, 0.3, 0.3, 1.0 ],
        "metallicFactor" : 0.1,
        "roughnessFactor" : 0.5
      }
    },
    {
      "name" : "MI_PM_Glass_02i",
      "pbrMetallicRoughness" : {
        "baseColorFactor" : [ 0.9, 0.3, 0.3, 1.0 ],
        "metallicFactor" : 0.1,
        "roughnessFactor" : 0.5
      }
    },
    {
      "name" : "MI_Envi_Fyz_Store_02d",
      "pbrMetallicRoughness" : {
        "baseColorFactor" : [ 0.3, 0.9, 0.3, 1.0 ],
        "metallicFactor" : 0.1,
        "roughnessFactor" : 0.5
      }
    }
  ],
  "meshes" : [
    {
      "primitives" : [
        {
          "attributes" : {
            "POSITION" : 1,
            "NORMAL" : 2,
            "TANGENT" : 3,
            "TEXCOORD_0" : 4,
            "TEXCOORD_1" : 5,
            "TEXCOORD_2" : 6,
            "TEXCOORD_3" : 7
          },
          "indices" : 0,
          "material" : 0
        },
        {
          "attributes" : {
            "POSITION" : 9,
            "NORMAL" : 10,
            "TANGENT" : 11,
            "TEXCOORD_0" : 12,
            "TEXCOORD_1" : 13,
            "TEXCOORD_2" : 14,
            "TEXCOORD_3" : 15
          },
          "indices" : 8,
          "material" : 1
        },
        {
          "attributes" : {
            "POSITION" : 17,
            "NORMAL" : 18,
            "TANGENT" : 19,
            "TEXCOORD_0" : 20,
            "TEXCOORD_1" : 21,
            "TEXCOORD_2" : 22,
            "TEXCOORD_3" : 23
          },
          "indices" : 16,
          "material" : 2
        }
      ],
      "name" : "S_Envi_Fyz_Building_88s"
    }
  ],
  "buffers" : [
    {
      "uri" : "S_Envi_Fyz_Building_88s.bin",
      "byteLength" : 250632
    }
  ],
  "bufferViews" : [
    {
      "buffer" : 0,
      "byteOffset" : 0,
      "byteLength" : 8100
    },
    {
      "buffer" : 0,
      "byteOffset" : 8100,
      "byteLength" : 30384
    },
    {
      "buffer" : 0,
      "byteOffset" : 38484,
      "byteLength" : 30384
    },
    {
      "buffer" : 0,
      "byteOffset" : 68868,
      "byteLength" : 40512
    },
    {
      "buffer" : 0,
      "byteOffset" : 109380,
      "byteLength" : 20256
    },
    {
      "buffer" : 0,
      "byteOffset" : 129636,
      "byteLength" : 20256
    },
    {
      "buffer" : 0,
      "byteOffset" : 149892,
      "byteLength" : 20256
    },
    {
      "buffer" : 0,
      "byteOffset" : 170148,
      "byteLength" : 20256
    },
    {
      "buffer" : 0,
      "byteOffset" : 190404,
      "byteLength" : 156
    },
    {
      "buffer" : 0,
      "byteOffset" : 190560,
      "byteLength" : 552
    },
    {
      "buffer" : 0,
      "byteOffset" : 191112,
      "byteLength" : 552
    },
    {
      "buffer" : 0,
      "byteOffset" : 191664,
      "byteLength" : 736
    },
    {
      "buffer" : 0,
      "byteOffset" : 192400,
      "byteLength" : 368
    },
    {
      "buffer" : 0,
      "byteOffset" : 192768,
      "byteLength" : 368
    },
    {
      "buffer" : 0,
      "byteOffset" : 193136,
      "byteLength" : 368
    },
    {
      "buffer" : 0,
      "byteOffset" : 193504,
      "byteLength" : 368
    },
    {
      "buffer" : 0,
      "byteOffset" : 193872,
      "byteLength" : 5784
    },
    {
      "buffer" : 0,
      "byteOffset" : 199656,
      "byteLength" : 8496
    },
    {
      "buffer" : 0,
      "byteOffset" : 208152,
      "byteLength" : 8496
    },
    {
      "buffer" : 0,
      "byteOffset" : 216648,
      "byteLength" : 11328
    },
    {
      "buffer" : 0,
      "byteOffset" : 227976,
      "byteLength" : 5664
    },
    {
      "buffer" : 0,
      "byteOffset" : 233640,
      "byteLength" : 5664
    },
    {
      "buffer" : 0,
      "byteOffset" : 239304,
      "byteLength" : 5664
    },
    {
      "buffer" : 0,
      "byteOffset" : 244968,
      "byteLength" : 5664
    }
  ],
  "accessors" : [
    {
      "bufferView" : 0,
      "componentType" : 5123,
      "count" : 4050,
      "type" : "SCALAR"
    },
    {
      "bufferView" : 1,
      "min" : [ -11.1941, -2.3772, 1.11816 ],
      "max" : [ 11.5992, 2.43158, 2.62899 ],
      "componentType" : 5126,
      "count" : 2532,
      "type" : "VEC3"
    },
    {
      "bufferView" : 2,
      "componentType" : 5126,
      "count" : 2532,
      "type" : "VEC3"
    },
    {
      "bufferView" : 3,
      "componentType" : 5126,
      "count" : 2532,
      "type" : "VEC4"
    },
    {
      "bufferView" : 4,
      "componentType" : 5126,
      "count" : 2532,
      "type" : "VEC2"
    },
    {
      "bufferView" : 5,
      "componentType" : 5126,
      "count" : 2532,
      "type" : "VEC2"
    },
    {
      "bufferView" : 6,
      "componentType" : 5126,
      "count" : 2532,
      "type" : "VEC2"
    },
    {
      "bufferView" : 7,
      "componentType" : 5126,
      "count" : 2532,
      "type" : "VEC2"
    },
    {
      "bufferView" : 8,
      "componentType" : 5123,
      "count" : 78,
      "type" : "SCALAR"
    },
    {
      "bufferView" : 9,
      "min" : [ -10.5979, -1.7901, 2.12923 ],
      "max" : [ 11.176, 1.23853, 2.30315 ],
      "componentType" : 5126,
      "count" : 46,
      "type" : "VEC3"
    },
    {
      "bufferView" : 10,
      "componentType" : 5126,
      "count" : 46,
      "type" : "VEC3"
    },
    {
      "bufferView" : 11,
      "componentType" : 5126,
      "count" : 46,
      "type" : "VEC4"
    },
    {
      "bufferView" : 12,
      "componentType" : 5126,
      "count" : 46,
      "type" : "VEC2"
    },
    {
      "bufferView" : 13,
      "componentType" : 5126,
      "count" : 46,
      "type" : "VEC2"
    },
    {
      "bufferView" : 14,
      "componentType" : 5126,
      "count" : 46,
      "type" : "VEC2"
    },
    {
      "bufferView" : 15,
      "componentType" : 5126,
      "count" : 46,
      "type" : "VEC2"
    },
    {
      "bufferView" : 16,
      "componentType" : 5123,
      "count" : 2892,
      "type" : "SCALAR"
    },
    {
      "bufferView" : 17,
      "min" : [ 4.26646, -2.41682, 1.97706 ],
      "max" : [ 6.46575, 0.37115, 2.31744 ],
      "componentType" : 5126,
      "count" : 708,
      "type" : "VEC3"
    },
    {
      "bufferView" : 18,
      "componentType" : 5126,
      "count" : 708,
      "type" : "VEC3"
    },
    {
      "bufferView" : 19,
      "componentType" : 5126,
      "count" : 708,
      "type" : "VEC4"
    },
    {
      "bufferView" : 20,
      "componentType" : 5126,
      "count" : 708,
      "type" : "VEC2"
    },
    {
      "bufferView" : 21,
      "componentType" : 5126,
      "count" : 708,
      "type" : "VEC2"
    },
    {
      "bufferView" : 22,
      "componentType" : 5126,
      "count" : 708,
      "type" : "VEC2"
    },
    {
      "bufferView" : 23,
      "componentType" : 5126,
      "count" : 708,
      "type" : "VEC2"
    }
  ]
}
