{
  "asset" : {
    "generator" : "UE Viewer (umodel) build 1579 based",
    "version" : "2.0"
  },
  "scene" : 0,
  "scenes" : [
    {
      "nodes" : [ 0 ]
    }
  ],
  "nodes" : [
    {
      "name" : "S_Envi_Fyz_Building_105k",
      "mesh" : 0
    }
  ],
  "materials" : [
    {
      "name" : "MI_Envi_Common_Wall_15l",
      "pbrMetallicRoughness" : {
        "baseColorFactor" : [ 0.3, 0.3, 0.3, 1.0 ],
        "metallicFactor" : 0.1,
        "roughnessFactor" : 0.5
      }
    },
    {
      "name" : "MI_Envi_Olgk_Platform_13a1",
      "pbrMetallicRoughness" : {
        "baseColorFactor" : [ 0.9, 0.3, 0.3, 1.0 ],
        "metallicFactor" : 0.1,
        "roughnessFactor" : 0.5
      }
    }
  ],
  "meshes" : [
    {
      "primitives" : [
        {
          "attributes" : {
            "POSITION" : 1,
            "NORMAL" : 2,
            "TANGENT" : 3,
            "TEXCOORD_0" : 4,
            "TEXCOORD_1" : 5,
            "TEXCOORD_2" : 6,
            "TEXCOORD_3" : 7
          },
          "indices" : 0,
          "material" : 0
        },
        {
          "attributes" : {
            "POSITION" : 9,
            "NORMAL" : 10,
            "TANGENT" : 11,
            "TEXCOORD_0" : 12,
            "TEXCOORD_1" : 13,
            "TEXCOORD_2" : 14,
            "TEXCOORD_3" : 15
          },
          "indices" : 8,
          "material" : 1
        }
      ],
      "name" : "S_Envi_Fyz_Building_105k"
    }
  ],
  "buffers" : [
    {
      "uri" : "S_Envi_Fyz_Building_105k.bin",
      "byteLength" : 17808
    }
  ],
  "bufferViews" : [
    {
      "buffer" : 0,
      "byteOffset" : 0,
      "byteLength" : 720
    },
    {
      "buffer" : 0,
      "byteOffset" : 720,
      "byteLength" : 2040
    },
    {
      "buffer" : 0,
      "byteOffset" : 2760,
      "byteLength" : 2040
    },
    {
      "buffer" : 0,
      "byteOffset" : 4800,
      "byteLength" : 2720
    },
    {
      "buffer" : 0,
      "byteOffset" : 7520,
      "byteLength" : 1360
    },
    {
      "buffer" : 0,
      "byteOffset" : 8880,
      "byteLength" : 1360
    },
    {
      "buffer" : 0,
      "byteOffset" : 10240,
      "byteLength" : 1360
    },
    {
      "buffer" : 0,
      "byteOffset" : 11600,
      "byteLength" : 1360
    },
    {
      "buffer" : 0,
      "byteOffset" : 12960,
      "byteLength" : 240
    },
    {
      "buffer" : 0,
      "byteOffset" : 13200,
      "byteLength" : 768
    },
    {
      "buffer" : 0,
      "byteOffset" : 13968,
      "byteLength" : 768
    },
    {
      "buffer" : 0,
      "byteOffset" : 14736,
      "byteLength" : 1024
    },
    {
      "buffer" : 0,
      "byteOffset" : 15760,
      "byteLength" : 512
    },
    {
      "buffer" : 0,
      "byteOffset" : 16272,
      "byteLength" : 512
    },
    {
      "buffer" : 0,
      "byteOffset" : 16784,
      "byteLength" : 512
    },
    {
      "buffer" : 0,
      "byteOffset" : 17296,
      "byteLength" : 512
    }
  ],
  "accessors" : [
    {
      "bufferView" : 0,
      "componentType" : 5123,
      "count" : 360,
      "type" : "SCALAR"
    },
    {
      "bufferView" : 1,
      "min" : [ -13.0381, -1.17869, -3.86351 ],
      "max" : [ 0.0330997, 5.38731, -3.67361 ],
      "componentType" : 5126,
      "count" : 170,
      "type" : "VEC3"
    },
    {
      "bufferView" : 2,
      "componentType" : 5126,
      "count" : 170,
      "type" : "VEC3"
    },
    {
      "bufferView" : 3,
      "componentType" : 5126,
      "count" : 170,
      "type" : "VEC4"
    },
    {
      "bufferView" : 4,
      "componentType" : 5126,
      "count" : 170,
      "type" : "VEC2"
    },
    {
      "bufferView" : 5,
      "componentType" : 5126,
      "count" : 170,
      "type" : "VEC2"
    },
    {
      "bufferView" : 6,
      "componentType" : 5126,
      "count" : 170,
      "type" : "VEC2"
    },
    {
      "bufferView" : 7,
      "componentType" : 5126,
      "count" : 170,
      "type" : "VEC2"
    },
    {
      "bufferView" : 8,
      "componentType" : 5123,
      "count" : 120,
      "type" : "SCALAR"
    },
    {
      "bufferView" : 9,
      "min" : [ -12.5514, -0.628827, -3.86351 ],
      "max" : [ -0.453641, 5.39394, -3.77737 ],
      "componentType" : 5126,
      "count" : 64,
      "type" : "VEC3"
    },
    {
      "bufferView" : 10,
      "componentType" : 5126,
      "count" : 64,
      "type" : "VEC3"
    },
    {
      "bufferView" : 11,
      "componentType" : 5126,
      "count" : 64,
      "type" : "VEC4"
    },
    {
      "bufferView" : 12,
      "componentType" : 5126,
      "count" : 64,
      "type" : "VEC2"
    },
    {
      "bufferView" : 13,
      "componentType" : 5126,
      "count" : 64,
      "type" : "VEC2"
    },
    {
      "bufferView" : 14,
      "componentType" : 5126,
      "count" : 64,
      "type" : "VEC2"
    },
    {
      "bufferView" : 15,
      "componentType" : 5126,
      "count" : 64,
      "type" : "VEC2"
    }
  ]
}
