{
  "asset" : {
    "generator" : "UE Viewer (umodel) build 1579 based",
    "version" : "2.0"
  },
  "scene" : 0,
  "scenes" : [
    {
      "nodes" : [ 0 ]
    }
  ],
  "nodes" : [
    {
      "name" : "S_Envi_Fyz_BuildingRoof_02c",
      "mesh" : 0
    }
  ],
  "materials" : [
    {
      "name" : "MI_Envi_Common_Rooftop_01a",
      "pbrMetallicRoughness" : {
        "baseColorFactor" : [ 0.3, 0.3, 0.3, 1.0 ],
        "metallicFactor" : 0.1,
        "roughnessFactor" : 0.5
      }
    }
  ],
  "meshes" : [
    {
      "primitives" : [
        {
          "attributes" : {
            "POSITION" : 1,
            "NORMAL" : 2,
            "TANGENT" : 3,
            "TEXCOORD_0" : 4,
            "TEXCOORD_1" : 5,
            "TEXCOORD_2" : 6,
            "TEXCOORD_3" : 7
          },
          "indices" : 0,
          "material" : 0
        }
      ],
      "name" : "S_Envi_Fyz_BuildingRoof_02c"
    }
  ],
  "buffers" : [
    {
      "uri" : "S_Envi_Fyz_BuildingRoof_02c.bin",
      "byteLength" : 62796
    }
  ],
  "bufferViews" : [
    {
      "buffer" : 0,
      "byteOffset" : 0,
      "byteLength" : 3468
    },
    {
      "buffer" : 0,
      "byteOffset" : 3468,
      "byteLength" : 9888
    },
    {
      "buffer" : 0,
      "byteOffset" : 13356,
      "byteLength" : 9888
    },
    {
      "buffer" : 0,
      "byteOffset" : 23244,
      "byteLength" : 13184
    },
    {
      "buffer" : 0,
      "byteOffset" : 36428,
      "byteLength" : 6592
    },
    {
      "buffer" : 0,
      "byteOffset" : 43020,
      "byteLength" : 6592
    },
    {
      "buffer" : 0,
      "byteOffset" : 49612,
      "byteLength" : 6592
    },
    {
      "buffer" : 0,
      "byteOffset" : 56204,
      "byteLength" : 6592
    }
  ],
  "accessors" : [
    {
      "bufferView" : 0,
      "componentType" : 5123,
      "count" : 1734,
      "type" : "SCALAR"
    },
    {
      "bufferView" : 1,
      "min" : [ -134.687, 7.89233, -52.4505 ],
      "max" : [ -117.992, 14.4594, -14.3169 ],
      "componentType" : 5126,
      "count" : 824,
      "type" : "VEC3"
    },
    {
      "bufferView" : 2,
      "componentType" : 5126,
      "count" : 824,
      "type" : "VEC3"
    },
    {
      "bufferView" : 3,
      "componentType" : 5126,
      "count" : 824,
      "type" : "VEC4"
    },
    {
      "bufferView" : 4,
      "componentType" : 5126,
      "count" : 824,
      "type" : "VEC2"
    },
    {
      "bufferView" : 5,
      "componentType" : 5126,
      "count" : 824,
      "type" : "VEC2"
    },
    {
      "bufferView" : 6,
      "componentType" : 5126,
      "count" : 824,
      "type" : "VEC2"
    },
    {
      "bufferView" : 7,
      "componentType" : 5126,
      "count" : 824,
      "type" : "VEC2"
    }
  ]
}
