{
  "asset" : {
    "generator" : "UE Viewer (umodel) build 1579 based",
    "version" : "2.0"
  },
  "scene" : 0,
  "scenes" : [
    {
      "nodes" : [ 0 ]
    }
  ],
  "nodes" : [
    {
      "name" : "S_Envi_Fyz_Building_61a",
      "mesh" : 0
    }
  ],
  "materials" : [
    {
      "name" : "MI_Envi_Fyz_Floor_04a",
      "pbrMetallicRoughness" : {
        "baseColorFactor" : [ 0.3, 0.3, 0.3, 1.0 ],
        "metallicFactor" : 0.1,
        "roughnessFactor" : 0.5
      }
    },
    {
      "name" : "MI_Envi_Fyz_Floor_02a",
      "pbrMetallicRoughness" : {
        "baseColorFactor" : [ 0.9, 0.3, 0.3, 1.0 ],
        "metallicFactor" : 0.1,
        "roughnessFactor" : 0.5
      }
    },
    {
      "name" : "MI_Envi_commontrim_04",
      "pbrMetallicRoughness" : {
        "baseColorFactor" : [ 0.3, 0.9, 0.3, 1.0 ],
        "metallicFactor" : 0.1,
        "roughnessFactor" : 0.5
      }
    }
  ],
  "meshes" : [
    {
      "primitives" : [
        {
          "attributes" : {
            "POSITION" : 1,
            "NORMAL" : 2,
            "TANGENT" : 3,
            "TEXCOORD_0" : 4,
            "TEXCOORD_1" : 5
          },
          "indices" : 0,
          "material" : 0
        },
        {
          "attributes" : {
            "POSITION" : 7,
            "NORMAL" : 8,
            "TANGENT" : 9,
            "TEXCOORD_0" : 10,
            "TEXCOORD_1" : 11
          },
          "indices" : 6,
          "material" : 1
        },
        {
          "attributes" : {
            "POSITION" : 13,
            "NORMAL" : 14,
            "TANGENT" : 15,
            "TEXCOORD_0" : 16,
            "TEXCOORD_1" : 17
          },
          "indices" : 12,
          "material" : 2
        }
      ],
      "name" : "S_Envi_Fyz_Building_61a"
    }
  ],
  "buffers" : [
    {
      "uri" : "S_Envi_Fyz_Building_61a.bin",
      "byteLength" : 120652
    }
  ],
  "bufferViews" : [
    {
      "buffer" : 0,
      "byteOffset" : 0,
      "byteLength" : 5312
    },
    {
      "buffer" : 0,
      "byteOffset" : 5312,
      "byteLength" : 6192
    },
    {
      "buffer" : 0,
      "byteOffset" : 11504,
      "byteLength" : 6192
    },
    {
      "buffer" : 0,
      "byteOffset" : 17696,
      "byteLength" : 8256
    },
    {
      "buffer" : 0,
      "byteOffset" : 25952,
      "byteLength" : 4128
    },
    {
      "buffer" : 0,
      "byteOffset" : 30080,
      "byteLength" : 4128
    },
    {
      "buffer" : 0,
      "byteOffset" : 34208,
      "byteLength" : 9024
    },
    {
      "buffer" : 0,
      "byteOffset" : 43232,
      "byteLength" : 10548
    },
    {
      "buffer" : 0,
      "byteOffset" : 53780,
      "byteLength" : 10548
    },
    {
      "buffer" : 0,
      "byteOffset" : 64328,
      "byteLength" : 14064
    },
    {
      "buffer" : 0,
      "byteOffset" : 78392,
      "byteLength" : 7032
    },
    {
      "buffer" : 0,
      "byteOffset" : 85424,
      "byteLength" : 7032
    },
    {
      "buffer" : 0,
      "byteOffset" : 92456,
      "byteLength" : 2436
    },
    {
      "buffer" : 0,
      "byteOffset" : 94892,
      "byteLength" : 5520
    },
    {
      "buffer" : 0,
      "byteOffset" : 100412,
      "byteLength" : 5520
    },
    {
      "buffer" : 0,
      "byteOffset" : 105932,
      "byteLength" : 7360
    },
    {
      "buffer" : 0,
      "byteOffset" : 113292,
      "byteLength" : 3680
    },
    {
      "buffer" : 0,
      "byteOffset" : 116972,
      "byteLength" : 3680
    }
  ],
  "accessors" : [
    {
      "bufferView" : 0,
      "componentType" : 5123,
      "count" : 2655,
      "type" : "SCALAR"
    },
    {
      "bufferView" : 1,
      "min" : [ -63.6208, 5.01026, -59.0358 ],
      "max" : [ -27.765, 5.05781, -47.4148 ],
      "componentType" : 5126,
      "count" : 516,
      "type" : "VEC3"
    },
    {
      "bufferView" : 2,
      "componentType" : 5126,
      "count" : 516,
      "type" : "VEC3"
    },
    {
      "bufferView" : 3,
      "componentType" : 5126,
      "count" : 516,
      "type" : "VEC4"
    },
    {
      "bufferView" : 4,
      "componentType" : 5126,
      "count" : 516,
      "type" : "VEC2"
    },
    {
      "bufferView" : 5,
      "componentType" : 5126,
      "count" : 516,
      "type" : "VEC2"
    },
    {
      "bufferView" : 6,
      "componentType" : 5123,
      "count" : 4512,
      "type" : "SCALAR"
    },
    {
      "bufferView" : 7,
      "min" : [ -50.924, 5.01026, -55.9981 ],
      "max" : [ -23.7379, 5.04788, -44.0721 ],
      "componentType" : 5126,
      "count" : 879,
      "type" : "VEC3"
    },
    {
      "bufferView" : 8,
      "componentType" : 5126,
      "count" : 879,
      "type" : "VEC3"
    },
    {
      "bufferView" : 9,
      "componentType" : 5126,
      "count" : 879,
      "type" : "VEC4"
    },
    {
      "bufferView" : 10,
      "componentType" : 5126,
      "count" : 879,
      "type" : "VEC2"
    },
    {
      "bufferView" : 11,
      "componentType" : 5126,
      "count" : 879,
      "type" : "VEC2"
    },
    {
      "bufferView" : 12,
      "componentType" : 5123,
      "count" : 1218,
      "type" : "SCALAR"
    },
    {
      "bufferView" : 13,
      "min" : [ -51.2176, 2.75716, -55.9981 ],
      "max" : [ -19.0636, 5.01027, -49.4852 ],
      "componentType" : 5126,
      "count" : 460,
      "type" : "VEC3"
    },
    {
      "bufferView" : 14,
      "componentType" : 5126,
      "count" : 460,
      "type" : "VEC3"
    },
    {
      "bufferView" : 15,
      "componentType" : 5126,
      "count" : 460,
      "type" : "VEC4"
    },
    {
      "bufferView" : 16,
      "componentType" : 5126,
      "count" : 460,
      "type" : "VEC2"
    },
    {
      "bufferView" : 17,
      "componentType" : 5126,
      "count" : 460,
      "type" : "VEC2"
    }
  ]
}
