{
  "asset" : {
    "generator" : "UE Viewer (umodel) build 1579 based",
    "version" : "2.0"
  },
  "scene" : 0,
  "scenes" : [
    {
      "nodes" : [ 0 ]
    }
  ],
  "nodes" : [
    {
      "name" : "S_Envi_Fyz_BuildingRoof_04a",
      "mesh" : 0
    }
  ],
  "materials" : [
    {
      "name" : "MI_Envi_Common_Rooftop_01c",
      "pbrMetallicRoughness" : {
        "baseColorFactor" : [ 0.3, 0.3, 0.3, 1.0 ],
        "metallicFactor" : 0.1,
        "roughnessFactor" : 0.5
      }
    }
  ],
  "meshes" : [
    {
      "primitives" : [
        {
          "attributes" : {
            "POSITION" : 1,
            "NORMAL" : 2,
            "TANGENT" : 3,
            "TEXCOORD_0" : 4,
            "TEXCOORD_1" : 5,
            "TEXCOORD_2" : 6,
            "TEXCOORD_3" : 7
          },
          "indices" : 0,
          "material" : 0
        }
      ],
      "name" : "S_Envi_Fyz_BuildingRoof_04a"
    }
  ],
  "buffers" : [
    {
      "uri" : "S_Envi_Fyz_BuildingRoof_04a.bin",
      "byteLength" : 42516
    }
  ],
  "bufferViews" : [
    {
      "buffer" : 0,
      "byteOffset" : 0,
      "byteLength" : 1620
    },
    {
      "buffer" : 0,
      "byteOffset" : 1620,
      "byteLength" : 6816
    },
    {
      "buffer" : 0,
      "byteOffset" : 8436,
      "byteLength" : 6816
    },
    {
      "buffer" : 0,
      "byteOffset" : 15252,
      "byteLength" : 9088
    },
    {
      "buffer" : 0,
      "byteOffset" : 24340,
      "byteLength" : 4544
    },
    {
      "buffer" : 0,
      "byteOffset" : 28884,
      "byteLength" : 4544
    },
    {
      "buffer" : 0,
      "byteOffset" : 33428,
      "byteLength" : 4544
    },
    {
      "buffer" : 0,
      "byteOffset" : 37972,
      "byteLength" : 4544
    }
  ],
  "accessors" : [
    {
      "bufferView" : 0,
      "componentType" : 5123,
      "count" : 810,
      "type" : "SCALAR"
    },
    {
      "bufferView" : 1,
      "min" : [ -5.64419, 7.32533, 53.3984 ],
      "max" : [ 38.7583, 19.6111, 96.6351 ],
      "componentType" : 5126,
      "count" : 568,
      "type" : "VEC3"
    },
    {
      "bufferView" : 2,
      "componentType" : 5126,
      "count" : 568,
      "type" : "VEC3"
    },
    {
      "bufferView" : 3,
      "componentType" : 5126,
      "count" : 568,
      "type" : "VEC4"
    },
    {
      "bufferView" : 4,
      "componentType" : 5126,
      "count" : 568,
      "type" : "VEC2"
    },
    {
      "bufferView" : 5,
      "componentType" : 5126,
      "count" : 568,
      "type" : "VEC2"
    },
    {
      "bufferView" : 6,
      "componentType" : 5126,
      "count" : 568,
      "type" : "VEC2"
    },
    {
      "bufferView" : 7,
      "componentType" : 5126,
      "count" : 568,
      "type" : "VEC2"
    }
  ]
}
