{
  "asset" : {
    "generator" : "UE Viewer (umodel) build 1579 based",
    "version" : "2.0"
  },
  "scene" : 0,
  "scenes" : [
    {
      "nodes" : [ 0 ]
    }
  ],
  "nodes" : [
    {
      "name" : "S_Envi_Fyz_Building_Merge_103c",
      "mesh" : 0
    }
  ],
  "materials" : [
    {
      "name" : "MI_Envi_Fyz_Wall_02d",
      "pbrMetallicRoughness" : {
        "baseColorFactor" : [ 0.3, 0.3, 0.3, 1.0 ],
        "metallicFactor" : 0.1,
        "roughnessFactor" : 0.5
      }
    }
  ],
  "meshes" : [
    {
      "primitives" : [
        {
          "attributes" : {
            "POSITION" : 1,
            "NORMAL" : 2,
            "TANGENT" : 3,
            "TEXCOORD_0" : 4,
            "TEXCOORD_1" : 5,
            "TEXCOORD_2" : 6,
            "TEXCOORD_3" : 7
          },
          "indices" : 0,
          "material" : 0
        }
      ],
      "name" : "S_Envi_Fyz_Building_Merge_103c"
    }
  ],
  "buffers" : [
    {
      "uri" : "S_Envi_Fyz_Building_Merge_103c.bin",
      "byteLength" : 52416
    }
  ],
  "bufferViews" : [
    {
      "buffer" : 0,
      "byteOffset" : 0,
      "byteLength" : 5616
    },
    {
      "buffer" : 0,
      "byteOffset" : 5616,
      "byteLength" : 7800
    },
    {
      "buffer" : 0,
      "byteOffset" : 13416,
      "byteLength" : 7800
    },
    {
      "buffer" : 0,
      "byteOffset" : 21216,
      "byteLength" : 10400
    },
    {
      "buffer" : 0,
      "byteOffset" : 31616,
      "byteLength" : 5200
    },
    {
      "buffer" : 0,
      "byteOffset" : 36816,
      "byteLength" : 5200
    },
    {
      "buffer" : 0,
      "byteOffset" : 42016,
      "byteLength" : 5200
    },
    {
      "buffer" : 0,
      "byteOffset" : 47216,
      "byteLength" : 5200
    }
  ],
  "accessors" : [
    {
      "bufferView" : 0,
      "componentType" : 5123,
      "count" : 2808,
      "type" : "SCALAR"
    },
    {
      "bufferView" : 1,
      "min" : [ 117.699, -39.0714, 41.9773 ],
      "max" : [ 167.022, -9.38659, 102.634 ],
      "componentType" : 5126,
      "count" : 650,
      "type" : "VEC3"
    },
    {
      "bufferView" : 2,
      "componentType" : 5126,
      "count" : 650,
      "type" : "VEC3"
    },
    {
      "bufferView" : 3,
      "componentType" : 5126,
      "count" : 650,
      "type" : "VEC4"
    },
    {
      "bufferView" : 4,
      "componentType" : 5126,
      "count" : 650,
      "type" : "VEC2"
    },
    {
      "bufferView" : 5,
      "componentType" : 5126,
      "count" : 650,
      "type" : "VEC2"
    },
    {
      "bufferView" : 6,
      "componentType" : 5126,
      "count" : 650,
      "type" : "VEC2"
    },
    {
      "bufferView" : 7,
      "componentType" : 5126,
      "count" : 650,
      "type" : "VEC2"
    }
  ]
}
