{
  "asset" : {
    "generator" : "UE Viewer (umodel) build 1579 based",
    "version" : "2.0"
  },
  "scene" : 0,
  "scenes" : [
    {
      "nodes" : [ 0 ]
    }
  ],
  "nodes" : [
    {
      "name" : "S_Envi_Fyz_Building_Merge_100f",
      "mesh" : 0
    }
  ],
  "materials" : [
    {
      "name" : "MI_Envi_Fyz_Wall_02b",
      "pbrMetallicRoughness" : {
        "baseColorFactor" : [ 0.3, 0.3, 0.3, 1.0 ],
        "metallicFactor" : 0.1,
        "roughnessFactor" : 0.5
      }
    }
  ],
  "meshes" : [
    {
      "primitives" : [
        {
          "attributes" : {
            "POSITION" : 1,
            "NORMAL" : 2,
            "TANGENT" : 3,
            "TEXCOORD_0" : 4,
            "TEXCOORD_1" : 5,
            "TEXCOORD_2" : 6,
            "TEXCOORD_3" : 7,
            "TEXCOORD_4" : 8
          },
          "indices" : 0,
          "material" : 0
        }
      ],
      "name" : "S_Envi_Fyz_Building_Merge_100f"
    }
  ],
  "buffers" : [
    {
      "uri" : "S_Envi_Fyz_Building_Merge_100f.bin",
      "byteLength" : 81112
    }
  ],
  "bufferViews" : [
    {
      "buffer" : 0,
      "byteOffset" : 0,
      "byteLength" : 7352
    },
    {
      "buffer" : 0,
      "byteOffset" : 7352,
      "byteLength" : 11064
    },
    {
      "buffer" : 0,
      "byteOffset" : 18416,
      "byteLength" : 11064
    },
    {
      "buffer" : 0,
      "byteOffset" : 29480,
      "byteLength" : 14752
    },
    {
      "buffer" : 0,
      "byteOffset" : 44232,
      "byteLength" : 7376
    },
    {
      "buffer" : 0,
      "byteOffset" : 51608,
      "byteLength" : 7376
    },
    {
      "buffer" : 0,
      "byteOffset" : 58984,
      "byteLength" : 7376
    },
    {
      "buffer" : 0,
      "byteOffset" : 66360,
      "byteLength" : 7376
    },
    {
      "buffer" : 0,
      "byteOffset" : 73736,
      "byteLength" : 7376
    }
  ],
  "accessors" : [
    {
      "bufferView" : 0,
      "componentType" : 5123,
      "count" : 3675,
      "type" : "SCALAR"
    },
    {
      "bufferView" : 1,
      "min" : [ -63.7605, -0.374929, -51.6642 ],
      "max" : [ -16.7613, 12.7835, -28.7942 ],
      "componentType" : 5126,
      "count" : 922,
      "type" : "VEC3"
    },
    {
      "bufferView" : 2,
      "componentType" : 5126,
      "count" : 922,
      "type" : "VEC3"
    },
    {
      "bufferView" : 3,
      "componentType" : 5126,
      "count" : 922,
      "type" : "VEC4"
    },
    {
      "bufferView" : 4,
      "componentType" : 5126,
      "count" : 922,
      "type" : "VEC2"
    },
    {
      "bufferView" : 5,
      "componentType" : 5126,
      "count" : 922,
      "type" : "VEC2"
    },
    {
      "bufferView" : 6,
      "componentType" : 5126,
      "count" : 922,
      "type" : "VEC2"
    },
    {
      "bufferView" : 7,
      "componentType" : 5126,
      "count" : 922,
      "type" : "VEC2"
    },
    {
      "bufferView" : 8,
      "componentType" : 5126,
      "count" : 922,
      "type" : "VEC2"
    }
  ]
}
