{
  "asset" : {
    "generator" : "UE Viewer (umodel) build 1579 based",
    "version" : "2.0"
  },
  "scene" : 0,
  "scenes" : [
    {
      "nodes" : [ 0 ]
    }
  ],
  "nodes" : [
    {
      "name" : "S_Envi_Fyz_BuildingMerge_94h",
      "mesh" : 0
    }
  ],
  "materials" : [
    {
      "name" : "MI_Envi_Fyz_House_01b",
      "pbrMetallicRoughness" : {
        "baseColorFactor" : [ 0.3, 0.3, 0.3, 1.0 ],
        "metallicFactor" : 0.1,
        "roughnessFactor" : 0.5
      }
    },
    {
      "name" : "MI_Envi_commontrim_03",
      "pbrMetallicRoughness" : {
        "baseColorFactor" : [ 0.9, 0.3, 0.3, 1.0 ],
        "metallicFactor" : 0.1,
        "roughnessFactor" : 0.5
      }
    },
    {
      "name" : "MI_Envi_Common_HBuilding_01c",
      "pbrMetallicRoughness" : {
        "baseColorFactor" : [ 0.3, 0.9, 0.3, 1.0 ],
        "metallicFactor" : 0.1,
        "roughnessFactor" : 0.5
      }
    }
  ],
  "meshes" : [
    {
      "primitives" : [
        {
          "attributes" : {
            "POSITION" : 1,
            "NORMAL" : 2,
            "TANGENT" : 3,
            "TEXCOORD_0" : 4,
            "TEXCOORD_1" : 5,
            "TEXCOORD_2" : 6
          },
          "indices" : 0,
          "material" : 0
        },
        {
          "attributes" : {
            "POSITION" : 8,
            "NORMAL" : 9,
            "TANGENT" : 10,
            "TEXCOORD_0" : 11,
            "TEXCOORD_1" : 12,
            "TEXCOORD_2" : 13
          },
          "indices" : 7,
          "material" : 1
        },
        {
          "attributes" : {
            "POSITION" : 15,
            "NORMAL" : 16,
            "TANGENT" : 17,
            "TEXCOORD_0" : 18,
            "TEXCOORD_1" : 19,
            "TEXCOORD_2" : 20
          },
          "indices" : 14,
          "material" : 2
        }
      ],
      "name" : "S_Envi_Fyz_BuildingMerge_94h"
    }
  ],
  "buffers" : [
    {
      "uri" : "S_Envi_Fyz_BuildingMerge_94h.bin",
      "byteLength" : 25996
    }
  ],
  "bufferViews" : [
    {
      "buffer" : 0,
      "byteOffset" : 0,
      "byteLength" : 360
    },
    {
      "buffer" : 0,
      "byteOffset" : 360,
      "byteLength" : 1440
    },
    {
      "buffer" : 0,
      "byteOffset" : 1800,
      "byteLength" : 1440
    },
    {
      "buffer" : 0,
      "byteOffset" : 3240,
      "byteLength" : 1920
    },
    {
      "buffer" : 0,
      "byteOffset" : 5160,
      "byteLength" : 960
    },
    {
      "buffer" : 0,
      "byteOffset" : 6120,
      "byteLength" : 960
    },
    {
      "buffer" : 0,
      "byteOffset" : 7080,
      "byteLength" : 960
    },
    {
      "buffer" : 0,
      "byteOffset" : 8040,
      "byteLength" : 144
    },
    {
      "buffer" : 0,
      "byteOffset" : 8184,
      "byteLength" : 576
    },
    {
      "buffer" : 0,
      "byteOffset" : 8760,
      "byteLength" : 576
    },
    {
      "buffer" : 0,
      "byteOffset" : 9336,
      "byteLength" : 768
    },
    {
      "buffer" : 0,
      "byteOffset" : 10104,
      "byteLength" : 384
    },
    {
      "buffer" : 0,
      "byteOffset" : 10488,
      "byteLength" : 384
    },
    {
      "buffer" : 0,
      "byteOffset" : 10872,
      "byteLength" : 384
    },
    {
      "buffer" : 0,
      "byteOffset" : 11256,
      "byteLength" : 660
    },
    {
      "buffer" : 0,
      "byteOffset" : 11916,
      "byteLength" : 2640
    },
    {
      "buffer" : 0,
      "byteOffset" : 14556,
      "byteLength" : 2640
    },
    {
      "buffer" : 0,
      "byteOffset" : 17196,
      "byteLength" : 3520
    },
    {
      "buffer" : 0,
      "byteOffset" : 20716,
      "byteLength" : 1760
    },
    {
      "buffer" : 0,
      "byteOffset" : 22476,
      "byteLength" : 1760
    },
    {
      "buffer" : 0,
      "byteOffset" : 24236,
      "byteLength" : 1760
    }
  ],
  "accessors" : [
    {
      "bufferView" : 0,
      "componentType" : 5123,
      "count" : 180,
      "type" : "SCALAR"
    },
    {
      "bufferView" : 1,
      "min" : [ 33.0243, 4.92582, -86.6183 ],
      "max" : [ 49.026, 7.90642, -70.3009 ],
      "componentType" : 5126,
      "count" : 120,
      "type" : "VEC3"
    },
    {
      "bufferView" : 2,
      "componentType" : 5126,
      "count" : 120,
      "type" : "VEC3"
    },
    {
      "bufferView" : 3,
      "componentType" : 5126,
      "count" : 120,
      "type" : "VEC4"
    },
    {
      "bufferView" : 4,
      "componentType" : 5126,
      "count" : 120,
      "type" : "VEC2"
    },
    {
      "bufferView" : 5,
      "componentType" : 5126,
      "count" : 120,
      "type" : "VEC2"
    },
    {
      "bufferView" : 6,
      "componentType" : 5126,
      "count" : 120,
      "type" : "VEC2"
    },
    {
      "bufferView" : 7,
      "componentType" : 5123,
      "count" : 72,
      "type" : "SCALAR"
    },
    {
      "bufferView" : 8,
      "min" : [ 45.34, 4.91, -79.82 ],
      "max" : [ 45.69, 5.01, -70.3604 ],
      "componentType" : 5126,
      "count" : 48,
      "type" : "VEC3"
    },
    {
      "bufferView" : 9,
      "componentType" : 5126,
      "count" : 48,
      "type" : "VEC3"
    },
    {
      "bufferView" : 10,
      "componentType" : 5126,
      "count" : 48,
      "type" : "VEC4"
    },
    {
      "bufferView" : 11,
      "componentType" : 5126,
      "count" : 48,
      "type" : "VEC2"
    },
    {
      "bufferView" : 12,
      "componentType" : 5126,
      "count" : 48,
      "type" : "VEC2"
    },
    {
      "bufferView" : 13,
      "componentType" : 5126,
      "count" : 48,
      "type" : "VEC2"
    },
    {
      "bufferView" : 14,
      "componentType" : 5123,
      "count" : 330,
      "type" : "SCALAR"
    },
    {
      "bufferView" : 15,
      "min" : [ 44.0958, 8.28164, -89.9375 ],
      "max" : [ 49.3843, 10.671, -70.3527 ],
      "componentType" : 5126,
      "count" : 220,
      "type" : "VEC3"
    },
    {
      "bufferView" : 16,
      "componentType" : 5126,
      "count" : 220,
      "type" : "VEC3"
    },
    {
      "bufferView" : 17,
      "componentType" : 5126,
      "count" : 220,
      "type" : "VEC4"
    },
    {
      "bufferView" : 18,
      "componentType" : 5126,
      "count" : 220,
      "type" : "VEC2"
    },
    {
      "bufferView" : 19,
      "componentType" : 5126,
      "count" : 220,
      "type" : "VEC2"
    },
    {
      "bufferView" : 20,
      "componentType" : 5126,
      "count" : 220,
      "type" : "VEC2"
    }
  ]
}
