{
  "asset" : {
    "generator" : "UE Viewer (umodel) build 1579 based",
    "version" : "2.0"
  },
  "scene" : 0,
  "scenes" : [
    {
      "nodes" : [ 0 ]
    }
  ],
  "nodes" : [
    {
      "name" : "S_Envi_Fyz_Building_101d",
      "mesh" : 0
    }
  ],
  "materials" : [
    {
      "name" : "MI_Envi_Fyz_Wall_05a",
      "pbrMetallicRoughness" : {
        "baseColorFactor" : [ 0.3, 0.3, 0.3, 1.0 ],
        "metallicFactor" : 0.1,
        "roughnessFactor" : 0.5
      }
    },
    {
      "name" : "MI_Envi_Foliage_Grass_01a",
      "pbrMetallicRoughness" : {
        "baseColorFactor" : [ 0.9, 0.3, 0.3, 1.0 ],
        "metallicFactor" : 0.1,
        "roughnessFactor" : 0.5
      }
    }
  ],
  "meshes" : [
    {
      "primitives" : [
        {
          "attributes" : {
            "POSITION" : 1,
            "NORMAL" : 2,
            "TANGENT" : 3,
            "TEXCOORD_0" : 4,
            "TEXCOORD_1" : 5,
            "TEXCOORD_2" : 6,
            "TEXCOORD_3" : 7
          },
          "indices" : 0,
          "material" : 0
        },
        {
          "attributes" : {
            "POSITION" : 9,
            "NORMAL" : 10,
            "TANGENT" : 11,
            "TEXCOORD_0" : 12,
            "TEXCOORD_1" : 13,
            "TEXCOORD_2" : 14,
            "TEXCOORD_3" : 15
          },
          "indices" : 8,
          "material" : 1
        }
      ],
      "name" : "S_Envi_Fyz_Building_101d"
    }
  ],
  "buffers" : [
    {
      "uri" : "S_Envi_Fyz_Building_101d.bin",
      "byteLength" : 23764
    }
  ],
  "bufferViews" : [
    {
      "buffer" : 0,
      "byteOffset" : 0,
      "byteLength" : 2096
    },
    {
      "buffer" : 0,
      "byteOffset" : 2096,
      "byteLength" : 3132
    },
    {
      "buffer" : 0,
      "byteOffset" : 5228,
      "byteLength" : 3132
    },
    {
      "buffer" : 0,
      "byteOffset" : 8360,
      "byteLength" : 4176
    },
    {
      "buffer" : 0,
      "byteOffset" : 12536,
      "byteLength" : 2088
    },
    {
      "buffer" : 0,
      "byteOffset" : 14624,
      "byteLength" : 2088
    },
    {
      "buffer" : 0,
      "byteOffset" : 16712,
      "byteLength" : 2088
    },
    {
      "buffer" : 0,
      "byteOffset" : 18800,
      "byteLength" : 2088
    },
    {
      "buffer" : 0,
      "byteOffset" : 20888,
      "byteLength" : 212
    },
    {
      "buffer" : 0,
      "byteOffset" : 21100,
      "byteLength" : 444
    },
    {
      "buffer" : 0,
      "byteOffset" : 21544,
      "byteLength" : 444
    },
    {
      "buffer" : 0,
      "byteOffset" : 21988,
      "byteLength" : 592
    },
    {
      "buffer" : 0,
      "byteOffset" : 22580,
      "byteLength" : 296
    },
    {
      "buffer" : 0,
      "byteOffset" : 22876,
      "byteLength" : 296
    },
    {
      "buffer" : 0,
      "byteOffset" : 23172,
      "byteLength" : 296
    },
    {
      "buffer" : 0,
      "byteOffset" : 23468,
      "byteLength" : 296
    }
  ],
  "accessors" : [
    {
      "bufferView" : 0,
      "componentType" : 5123,
      "count" : 1047,
      "type" : "SCALAR"
    },
    {
      "bufferView" : 1,
      "min" : [ -10.6767, -0.409282, -8.32816 ],
      "max" : [ 9.01392, 4, 3.05176e-07 ],
      "componentType" : 5126,
      "count" : 261,
      "type" : "VEC3"
    },
    {
      "bufferView" : 2,
      "componentType" : 5126,
      "count" : 261,
      "type" : "VEC3"
    },
    {
      "bufferView" : 3,
      "componentType" : 5126,
      "count" : 261,
      "type" : "VEC4"
    },
    {
      "bufferView" : 4,
      "componentType" : 5126,
      "count" : 261,
      "type" : "VEC2"
    },
    {
      "bufferView" : 5,
      "componentType" : 5126,
      "count" : 261,
      "type" : "VEC2"
    },
    {
      "bufferView" : 6,
      "componentType" : 5126,
      "count" : 261,
      "type" : "VEC2"
    },
    {
      "bufferView" : 7,
      "componentType" : 5126,
      "count" : 261,
      "type" : "VEC2"
    },
    {
      "bufferView" : 8,
      "componentType" : 5123,
      "count" : 105,
      "type" : "SCALAR"
    },
    {
      "bufferView" : 9,
      "min" : [ 1.45012, -6.10352e-07, -7.95413 ],
      "max" : [ 6.94706, 4, -4.58335 ],
      "componentType" : 5126,
      "count" : 37,
      "type" : "VEC3"
    },
    {
      "bufferView" : 10,
      "componentType" : 5126,
      "count" : 37,
      "type" : "VEC3"
    },
    {
      "bufferView" : 11,
      "componentType" : 5126,
      "count" : 37,
      "type" : "VEC4"
    },
    {
      "bufferView" : 12,
      "componentType" : 5126,
      "count" : 37,
      "type" : "VEC2"
    },
    {
      "bufferView" : 13,
      "componentType" : 5126,
      "count" : 37,
      "type" : "VEC2"
    },
    {
      "bufferView" : 14,
      "componentType" : 5126,
      "count" : 37,
      "type" : "VEC2"
    },
    {
      "bufferView" : 15,
      "componentType" : 5126,
      "count" : 37,
      "type" : "VEC2"
    }
  ]
}
