{
  "asset" : {
    "generator" : "UE Viewer (umodel) build 1579 based",
    "version" : "2.0"
  },
  "scene" : 0,
  "scenes" : [
    {
      "nodes" : [ 0 ]
    }
  ],
  "nodes" : [
    {
      "name" : "S_Envi_Fyz_Building_108c",
      "mesh" : 0
    }
  ],
  "materials" : [
    {
      "name" : "MI_Envi_Fyz_Floor_04a",
      "pbrMetallicRoughness" : {
        "baseColorFactor" : [ 0.3, 0.3, 0.3, 1.0 ],
        "metallicFactor" : 0.1,
        "roughnessFactor" : 0.5
      }
    },
    {
      "name" : "MI_Envi_Fyz_Floor_04b",
      "pbrMetallicRoughness" : {
        "baseColorFactor" : [ 0.9, 0.3, 0.3, 1.0 ],
        "metallicFactor" : 0.1,
        "roughnessFactor" : 0.5
      }
    }
  ],
  "meshes" : [
    {
      "primitives" : [
        {
          "attributes" : {
            "POSITION" : 1,
            "NORMAL" : 2,
            "TANGENT" : 3,
            "TEXCOORD_0" : 4,
            "TEXCOORD_1" : 5
          },
          "indices" : 0,
          "material" : 0
        },
        {
          "attributes" : {
            "POSITION" : 7,
            "NORMAL" : 8,
            "TANGENT" : 9,
            "TEXCOORD_0" : 10,
            "TEXCOORD_1" : 11
          },
          "indices" : 6,
          "material" : 1
        }
      ],
      "name" : "S_Envi_Fyz_Building_108c"
    }
  ],
  "buffers" : [
    {
      "uri" : "S_Envi_Fyz_Building_108c.bin",
      "byteLength" : 2716
    }
  ],
  "bufferViews" : [
    {
      "buffer" : 0,
      "byteOffset" : 0,
      "byteLength" : 204
    },
    {
      "buffer" : 0,
      "byteOffset" : 204,
      "byteLength" : 384
    },
    {
      "buffer" : 0,
      "byteOffset" : 588,
      "byteLength" : 384
    },
    {
      "buffer" : 0,
      "byteOffset" : 972,
      "byteLength" : 512
    },
    {
      "buffer" : 0,
      "byteOffset" : 1484,
      "byteLength" : 256
    },
    {
      "buffer" : 0,
      "byteOffset" : 1740,
      "byteLength" : 256
    },
    {
      "buffer" : 0,
      "byteOffset" : 1996,
      "byteLength" : 48
    },
    {
      "buffer" : 0,
      "byteOffset" : 2044,
      "byteLength" : 144
    },
    {
      "buffer" : 0,
      "byteOffset" : 2188,
      "byteLength" : 144
    },
    {
      "buffer" : 0,
      "byteOffset" : 2332,
      "byteLength" : 192
    },
    {
      "buffer" : 0,
      "byteOffset" : 2524,
      "byteLength" : 96
    },
    {
      "buffer" : 0,
      "byteOffset" : 2620,
      "byteLength" : 96
    }
  ],
  "accessors" : [
    {
      "bufferView" : 0,
      "componentType" : 5123,
      "count" : 102,
      "type" : "SCALAR"
    },
    {
      "bufferView" : 1,
      "min" : [ -7.30695, -2.44141e-06, -7.96767 ],
      "max" : [ 7.30696, -4.87879e-16, 7.96768 ],
      "componentType" : 5126,
      "count" : 32,
      "type" : "VEC3"
    },
    {
      "bufferView" : 2,
      "componentType" : 5126,
      "count" : 32,
      "type" : "VEC3"
    },
    {
      "bufferView" : 3,
      "componentType" : 5126,
      "count" : 32,
      "type" : "VEC4"
    },
    {
      "bufferView" : 4,
      "componentType" : 5126,
      "count" : 32,
      "type" : "VEC2"
    },
    {
      "bufferView" : 5,
      "componentType" : 5126,
      "count" : 32,
      "type" : "VEC2"
    },
    {
      "bufferView" : 6,
      "componentType" : 5123,
      "count" : 24,
      "type" : "SCALAR"
    },
    {
      "bufferView" : 7,
      "min" : [ -6.37874, -2.44141e-06, -7.31842 ],
      "max" : [ 6.26357, -1.2207e-06, 7.09586 ],
      "componentType" : 5126,
      "count" : 12,
      "type" : "VEC3"
    },
    {
      "bufferView" : 8,
      "componentType" : 5126,
      "count" : 12,
      "type" : "VEC3"
    },
    {
      "bufferView" : 9,
      "componentType" : 5126,
      "count" : 12,
      "type" : "VEC4"
    },
    {
      "bufferView" : 10,
      "componentType" : 5126,
      "count" : 12,
      "type" : "VEC2"
    },
    {
      "bufferView" : 11,
      "componentType" : 5126,
      "count" : 12,
      "type" : "VEC2"
    }
  ]
}
