{
  "asset" : {
    "generator" : "UE Viewer (umodel) build 1579 based",
    "version" : "2.0"
  },
  "scene" : 0,
  "scenes" : [
    {
      "nodes" : [ 0 ]
    }
  ],
  "nodes" : [
    {
      "name" : "S_Envi_Fyz_Grass_Merge_01m",
      "mesh" : 0
    }
  ],
  "materials" : [
    {
      "name" : "MI_Envi_Foliage_shrub_08",
      "pbrMetallicRoughness" : {
        "baseColorFactor" : [ 0.3, 0.3, 0.3, 1.0 ],
        "metallicFactor" : 0.1,
        "roughnessFactor" : 0.5
      }
    }
  ],
  "meshes" : [
    {
      "primitives" : [
        {
          "attributes" : {
            "POSITION" : 1,
            "NORMAL" : 2,
            "TANGENT" : 3,
            "TEXCOORD_0" : 4,
            "TEXCOORD_1" : 5
          },
          "indices" : 0,
          "material" : 0
        }
      ],
      "name" : "S_Envi_Fyz_Grass_Merge_01m"
    }
  ],
  "buffers" : [
    {
      "uri" : "S_Envi_Fyz_Grass_Merge_01m.bin",
      "byteLength" : 122068
    }
  ],
  "bufferViews" : [
    {
      "buffer" : 0,
      "byteOffset" : 0,
      "byteLength" : 9284
    },
    {
      "buffer" : 0,
      "byteOffset" : 9284,
      "byteLength" : 24168
    },
    {
      "buffer" : 0,
      "byteOffset" : 33452,
      "byteLength" : 24168
    },
    {
      "buffer" : 0,
      "byteOffset" : 57620,
      "byteLength" : 32224
    },
    {
      "buffer" : 0,
      "byteOffset" : 89844,
      "byteLength" : 16112
    },
    {
      "buffer" : 0,
      "byteOffset" : 105956,
      "byteLength" : 16112
    }
  ],
  "accessors" : [
    {
      "bufferView" : 0,
      "componentType" : 5123,
      "count" : 4641,
      "type" : "SCALAR"
    },
    {
      "bufferView" : 1,
      "min" : [ -34.4405, -0.474635, 78.0235 ],
      "max" : [ -30.1223, 14.1728, 82.6975 ],
      "componentType" : 5126,
      "count" : 2014,
      "type" : "VEC3"
    },
    {
      "bufferView" : 2,
      "componentType" : 5126,
      "count" : 2014,
      "type" : "VEC3"
    },
    {
      "bufferView" : 3,
      "componentType" : 5126,
      "count" : 2014,
      "type" : "VEC4"
    },
    {
      "bufferView" : 4,
      "componentType" : 5126,
      "count" : 2014,
      "type" : "VEC2"
    },
    {
      "bufferView" : 5,
      "componentType" : 5126,
      "count" : 2014,
      "type" : "VEC2"
    }
  ]
}
