{
  "asset" : {
    "generator" : "UE Viewer (umodel) build 1579 based",
    "version" : "2.0"
  },
  "scene" : 0,
  "scenes" : [
    {
      "nodes" : [ 0 ]
    }
  ],
  "nodes" : [
    {
      "name" : "S_Envi_Fyz_Building_62g",
      "mesh" : 0
    }
  ],
  "materials" : [
    {
      "name" : "MI_Envi_Fyz_Wall_02d",
      "pbrMetallicRoughness" : {
        "baseColorFactor" : [ 0.3, 0.3, 0.3, 1.0 ],
        "metallicFactor" : 0.1,
        "roughnessFactor" : 0.5
      }
    },
    {
      "name" : "MI_Envi_Fyz_Wall_02c3",
      "pbrMetallicRoughness" : {
        "baseColorFactor" : [ 0.9, 0.3, 0.3, 1.0 ],
        "metallicFactor" : 0.1,
        "roughnessFactor" : 0.5
      }
    }
  ],
  "meshes" : [
    {
      "primitives" : [
        {
          "attributes" : {
            "POSITION" : 1,
            "NORMAL" : 2,
            "TANGENT" : 3,
            "TEXCOORD_0" : 4,
            "TEXCOORD_1" : 5,
            "TEXCOORD_2" : 6,
            "TEXCOORD_3" : 7
          },
          "indices" : 0,
          "material" : 0
        },
        {
          "attributes" : {
            "POSITION" : 9,
            "NORMAL" : 10,
            "TANGENT" : 11,
            "TEXCOORD_0" : 12,
            "TEXCOORD_1" : 13,
            "TEXCOORD_2" : 14,
            "TEXCOORD_3" : 15
          },
          "indices" : 8,
          "material" : 1
        }
      ],
      "name" : "S_Envi_Fyz_Building_62g"
    }
  ],
  "buffers" : [
    {
      "uri" : "S_Envi_Fyz_Building_62g.bin",
      "byteLength" : 75536
    }
  ],
  "bufferViews" : [
    {
      "buffer" : 0,
      "byteOffset" : 0,
      "byteLength" : 4916
    },
    {
      "buffer" : 0,
      "byteOffset" : 4916,
      "byteLength" : 6000
    },
    {
      "buffer" : 0,
      "byteOffset" : 10916,
      "byteLength" : 6000
    },
    {
      "buffer" : 0,
      "byteOffset" : 16916,
      "byteLength" : 8000
    },
    {
      "buffer" : 0,
      "byteOffset" : 24916,
      "byteLength" : 4000
    },
    {
      "buffer" : 0,
      "byteOffset" : 28916,
      "byteLength" : 4000
    },
    {
      "buffer" : 0,
      "byteOffset" : 32916,
      "byteLength" : 4000
    },
    {
      "buffer" : 0,
      "byteOffset" : 36916,
      "byteLength" : 4000
    },
    {
      "buffer" : 0,
      "byteOffset" : 40916,
      "byteLength" : 3948
    },
    {
      "buffer" : 0,
      "byteOffset" : 44864,
      "byteLength" : 5112
    },
    {
      "buffer" : 0,
      "byteOffset" : 49976,
      "byteLength" : 5112
    },
    {
      "buffer" : 0,
      "byteOffset" : 55088,
      "byteLength" : 6816
    },
    {
      "buffer" : 0,
      "byteOffset" : 61904,
      "byteLength" : 3408
    },
    {
      "buffer" : 0,
      "byteOffset" : 65312,
      "byteLength" : 3408
    },
    {
      "buffer" : 0,
      "byteOffset" : 68720,
      "byteLength" : 3408
    },
    {
      "buffer" : 0,
      "byteOffset" : 72128,
      "byteLength" : 3408
    }
  ],
  "accessors" : [
    {
      "bufferView" : 0,
      "componentType" : 5123,
      "count" : 2457,
      "type" : "SCALAR"
    },
    {
      "bufferView" : 1,
      "min" : [ -67.013, 4.97845, 11.4918 ],
      "max" : [ -55.3, 10.5002, 37.9944 ],
      "componentType" : 5126,
      "count" : 500,
      "type" : "VEC3"
    },
    {
      "bufferView" : 2,
      "componentType" : 5126,
      "count" : 500,
      "type" : "VEC3"
    },
    {
      "bufferView" : 3,
      "componentType" : 5126,
      "count" : 500,
      "type" : "VEC4"
    },
    {
      "bufferView" : 4,
      "componentType" : 5126,
      "count" : 500,
      "type" : "VEC2"
    },
    {
      "bufferView" : 5,
      "componentType" : 5126,
      "count" : 500,
      "type" : "VEC2"
    },
    {
      "bufferView" : 6,
      "componentType" : 5126,
      "count" : 500,
      "type" : "VEC2"
    },
    {
      "bufferView" : 7,
      "componentType" : 5126,
      "count" : 500,
      "type" : "VEC2"
    },
    {
      "bufferView" : 8,
      "componentType" : 5123,
      "count" : 1974,
      "type" : "SCALAR"
    },
    {
      "bufferView" : 9,
      "min" : [ -67.5701, 4.98302, 37.9607 ],
      "max" : [ -54.987, 15.0495, 55.0453 ],
      "componentType" : 5126,
      "count" : 426,
      "type" : "VEC3"
    },
    {
      "bufferView" : 10,
      "componentType" : 5126,
      "count" : 426,
      "type" : "VEC3"
    },
    {
      "bufferView" : 11,
      "componentType" : 5126,
      "count" : 426,
      "type" : "VEC4"
    },
    {
      "bufferView" : 12,
      "componentType" : 5126,
      "count" : 426,
      "type" : "VEC2"
    },
    {
      "bufferView" : 13,
      "componentType" : 5126,
      "count" : 426,
      "type" : "VEC2"
    },
    {
      "bufferView" : 14,
      "componentType" : 5126,
      "count" : 426,
      "type" : "VEC2"
    },
    {
      "bufferView" : 15,
      "componentType" : 5126,
      "count" : 426,
      "type" : "VEC2"
    }
  ]
}
