{
  "asset" : {
    "generator" : "UE Viewer (umodel) build 1579 based",
    "version" : "2.0"
  },
  "scene" : 0,
  "scenes" : [
    {
      "nodes" : [ 0 ]
    }
  ],
  "nodes" : [
    {
      "name" : "S_Envi_Fyz_Building_117a",
      "mesh" : 0
    }
  ],
  "materials" : [
    {
      "name" : "MI_Envi_commontrim_04",
      "pbrMetallicRoughness" : {
        "baseColorFactor" : [ 0.3, 0.3, 0.3, 1.0 ],
        "metallicFactor" : 0.1,
        "roughnessFactor" : 0.5
      }
    },
    {
      "name" : "MI_Envi_Foliage_Grass_01a",
      "pbrMetallicRoughness" : {
        "baseColorFactor" : [ 0.9, 0.3, 0.3, 1.0 ],
        "metallicFactor" : 0.1,
        "roughnessFactor" : 0.5
      }
    }
  ],
  "meshes" : [
    {
      "primitives" : [
        {
          "attributes" : {
            "POSITION" : 1,
            "NORMAL" : 2,
            "TANGENT" : 3,
            "TEXCOORD_0" : 4,
            "TEXCOORD_1" : 5
          },
          "indices" : 0,
          "material" : 0
        },
        {
          "attributes" : {
            "POSITION" : 7,
            "NORMAL" : 8,
            "TANGENT" : 9,
            "TEXCOORD_0" : 10,
            "TEXCOORD_1" : 11
          },
          "indices" : 6,
          "material" : 1
        }
      ],
      "name" : "S_Envi_Fyz_Building_117a"
    }
  ],
  "buffers" : [
    {
      "uri" : "S_Envi_Fyz_Building_117a.bin",
      "byteLength" : 41928
    }
  ],
  "bufferViews" : [
    {
      "buffer" : 0,
      "byteOffset" : 0,
      "byteLength" : 2108
    },
    {
      "buffer" : 0,
      "byteOffset" : 2108,
      "byteLength" : 5964
    },
    {
      "buffer" : 0,
      "byteOffset" : 8072,
      "byteLength" : 5964
    },
    {
      "buffer" : 0,
      "byteOffset" : 14036,
      "byteLength" : 7952
    },
    {
      "buffer" : 0,
      "byteOffset" : 21988,
      "byteLength" : 3976
    },
    {
      "buffer" : 0,
      "byteOffset" : 25964,
      "byteLength" : 3976
    },
    {
      "buffer" : 0,
      "byteOffset" : 29940,
      "byteLength" : 1796
    },
    {
      "buffer" : 0,
      "byteOffset" : 31736,
      "byteLength" : 2184
    },
    {
      "buffer" : 0,
      "byteOffset" : 33920,
      "byteLength" : 2184
    },
    {
      "buffer" : 0,
      "byteOffset" : 36104,
      "byteLength" : 2912
    },
    {
      "buffer" : 0,
      "byteOffset" : 39016,
      "byteLength" : 1456
    },
    {
      "buffer" : 0,
      "byteOffset" : 40472,
      "byteLength" : 1456
    }
  ],
  "accessors" : [
    {
      "bufferView" : 0,
      "componentType" : 5123,
      "count" : 1053,
      "type" : "SCALAR"
    },
    {
      "bufferView" : 1,
      "min" : [ -4.98177, -0.0874659, -5.30573 ],
      "max" : [ 4.98176, 0.0874659, 5.6118 ],
      "componentType" : 5126,
      "count" : 497,
      "type" : "VEC3"
    },
    {
      "bufferView" : 2,
      "componentType" : 5126,
      "count" : 497,
      "type" : "VEC3"
    },
    {
      "bufferView" : 3,
      "componentType" : 5126,
      "count" : 497,
      "type" : "VEC4"
    },
    {
      "bufferView" : 4,
      "componentType" : 5126,
      "count" : 497,
      "type" : "VEC2"
    },
    {
      "bufferView" : 5,
      "componentType" : 5126,
      "count" : 497,
      "type" : "VEC2"
    },
    {
      "bufferView" : 6,
      "componentType" : 5123,
      "count" : 897,
      "type" : "SCALAR"
    },
    {
      "bufferView" : 7,
      "min" : [ -4.87718, -0.0118458, -5.19375 ],
      "max" : [ 4.78427, 0.0806536, 5.44768 ],
      "componentType" : 5126,
      "count" : 182,
      "type" : "VEC3"
    },
    {
      "bufferView" : 8,
      "componentType" : 5126,
      "count" : 182,
      "type" : "VEC3"
    },
    {
      "bufferView" : 9,
      "componentType" : 5126,
      "count" : 182,
      "type" : "VEC4"
    },
    {
      "bufferView" : 10,
      "componentType" : 5126,
      "count" : 182,
      "type" : "VEC2"
    },
    {
      "bufferView" : 11,
      "componentType" : 5126,
      "count" : 182,
      "type" : "VEC2"
    }
  ]
}
