{
  "asset" : {
    "generator" : "UE Viewer (umodel) build 1579 based",
    "version" : "2.0"
  },
  "scene" : 0,
  "scenes" : [
    {
      "nodes" : [ 0 ]
    }
  ],
  "nodes" : [
    {
      "name" : "S_Envi_Fyz_Building_107f",
      "mesh" : 0
    }
  ],
  "materials" : [
    {
      "name" : "MI_Envi_Fyz_Wall_05a",
      "pbrMetallicRoughness" : {
        "baseColorFactor" : [ 0.3, 0.3, 0.3, 1.0 ],
        "metallicFactor" : 0.1,
        "roughnessFactor" : 0.5
      }
    }
  ],
  "meshes" : [
    {
      "primitives" : [
        {
          "attributes" : {
            "POSITION" : 1,
            "NORMAL" : 2,
            "TANGENT" : 3,
            "TEXCOORD_0" : 4,
            "TEXCOORD_1" : 5,
            "TEXCOORD_2" : 6,
            "TEXCOORD_3" : 7,
            "TEXCOORD_4" : 8,
            "TEXCOORD_5" : 9,
            "TEXCOORD_6" : 10,
            "TEXCOORD_7" : 11
          },
          "indices" : 0,
          "material" : 0
        }
      ],
      "name" : "S_Envi_Fyz_Building_107f"
    }
  ],
  "buffers" : [
    {
      "uri" : "S_Envi_Fyz_Building_107f.bin",
      "byteLength" : 87760
    }
  ],
  "bufferViews" : [
    {
      "buffer" : 0,
      "byteOffset" : 0,
      "byteLength" : 5288
    },
    {
      "buffer" : 0,
      "byteOffset" : 5288,
      "byteLength" : 9516
    },
    {
      "buffer" : 0,
      "byteOffset" : 14804,
      "byteLength" : 9516
    },
    {
      "buffer" : 0,
      "byteOffset" : 24320,
      "byteLength" : 12688
    },
    {
      "buffer" : 0,
      "byteOffset" : 37008,
      "byteLength" : 6344
    },
    {
      "buffer" : 0,
      "byteOffset" : 43352,
      "byteLength" : 6344
    },
    {
      "buffer" : 0,
      "byteOffset" : 49696,
      "byteLength" : 6344
    },
    {
      "buffer" : 0,
      "byteOffset" : 56040,
      "byteLength" : 6344
    },
    {
      "buffer" : 0,
      "byteOffset" : 62384,
      "byteLength" : 6344
    },
    {
      "buffer" : 0,
      "byteOffset" : 68728,
      "byteLength" : 6344
    },
    {
      "buffer" : 0,
      "byteOffset" : 75072,
      "byteLength" : 6344
    },
    {
      "buffer" : 0,
      "byteOffset" : 81416,
      "byteLength" : 6344
    }
  ],
  "accessors" : [
    {
      "bufferView" : 0,
      "componentType" : 5123,
      "count" : 2643,
      "type" : "SCALAR"
    },
    {
      "bufferView" : 1,
      "min" : [ -0.400001, 0.357504, -6.06576 ],
      "max" : [ 22.6343, 16.6671, 29.6038 ],
      "componentType" : 5126,
      "count" : 793,
      "type" : "VEC3"
    },
    {
      "bufferView" : 2,
      "componentType" : 5126,
      "count" : 793,
      "type" : "VEC3"
    },
    {
      "bufferView" : 3,
      "componentType" : 5126,
      "count" : 793,
      "type" : "VEC4"
    },
    {
      "bufferView" : 4,
      "componentType" : 5126,
      "count" : 793,
      "type" : "VEC2"
    },
    {
      "bufferView" : 5,
      "componentType" : 5126,
      "count" : 793,
      "type" : "VEC2"
    },
    {
      "bufferView" : 6,
      "componentType" : 5126,
      "count" : 793,
      "type" : "VEC2"
    },
    {
      "bufferView" : 7,
      "componentType" : 5126,
      "count" : 793,
      "type" : "VEC2"
    },
    {
      "bufferView" : 8,
      "componentType" : 5126,
      "count" : 793,
      "type" : "VEC2"
    },
    {
      "bufferView" : 9,
      "componentType" : 5126,
      "count" : 793,
      "type" : "VEC2"
    },
    {
      "bufferView" : 10,
      "componentType" : 5126,
      "count" : 793,
      "type" : "VEC2"
    },
    {
      "bufferView" : 11,
      "componentType" : 5126,
      "count" : 793,
      "type" : "VEC2"
    }
  ]
}
