{
  "asset" : {
    "generator" : "UE Viewer (umodel) build 1579 based",
    "version" : "2.0"
  },
  "scene" : 0,
  "scenes" : [
    {
      "nodes" : [ 0 ]
    }
  ],
  "nodes" : [
    {
      "name" : "S_Envi_Fyz_BuildingMerge_05g",
      "mesh" : 0
    }
  ],
  "materials" : [
    {
      "name" : "MI_Envi_Common_HBuilding_01c",
      "pbrMetallicRoughness" : {
        "baseColorFactor" : [ 0.3, 0.3, 0.3, 1.0 ],
        "metallicFactor" : 0.1,
        "roughnessFactor" : 0.5
      }
    },
    {
      "name" : "MI_Envi_Common_HBuilding_02a",
      "pbrMetallicRoughness" : {
        "baseColorFactor" : [ 0.9, 0.3, 0.3, 1.0 ],
        "metallicFactor" : 0.1,
        "roughnessFactor" : 0.5
      }
    },
    {
      "name" : "MI_Envi_Common_HBuilding_01a",
      "pbrMetallicRoughness" : {
        "baseColorFactor" : [ 0.3, 0.9, 0.3, 1.0 ],
        "metallicFactor" : 0.1,
        "roughnessFactor" : 0.5
      }
    }
  ],
  "meshes" : [
    {
      "primitives" : [
        {
          "attributes" : {
            "POSITION" : 1,
            "NORMAL" : 2,
            "TANGENT" : 3,
            "TEXCOORD_0" : 4,
            "TEXCOORD_1" : 5
          },
          "indices" : 0,
          "material" : 0
        },
        {
          "attributes" : {
            "POSITION" : 7,
            "NORMAL" : 8,
            "TANGENT" : 9,
            "TEXCOORD_0" : 10,
            "TEXCOORD_1" : 11
          },
          "indices" : 6,
          "material" : 1
        },
        {
          "attributes" : {
            "POSITION" : 13,
            "NORMAL" : 14,
            "TANGENT" : 15,
            "TEXCOORD_0" : 16,
            "TEXCOORD_1" : 17
          },
          "indices" : 12,
          "material" : 2
        }
      ],
      "name" : "S_Envi_Fyz_BuildingMerge_05g"
    }
  ],
  "buffers" : [
    {
      "uri" : "S_Envi_Fyz_BuildingMerge_05g.bin",
      "byteLength" : 1146448
    }
  ],
  "bufferViews" : [
    {
      "buffer" : 0,
      "byteOffset" : 0,
      "byteLength" : 13692
    },
    {
      "buffer" : 0,
      "byteOffset" : 13692,
      "byteLength" : 35772
    },
    {
      "buffer" : 0,
      "byteOffset" : 49464,
      "byteLength" : 35772
    },
    {
      "buffer" : 0,
      "byteOffset" : 85236,
      "byteLength" : 47696
    },
    {
      "buffer" : 0,
      "byteOffset" : 132932,
      "byteLength" : 23848
    },
    {
      "buffer" : 0,
      "byteOffset" : 156780,
      "byteLength" : 23848
    },
    {
      "buffer" : 0,
      "byteOffset" : 180628,
      "byteLength" : 19752
    },
    {
      "buffer" : 0,
      "byteOffset" : 200380,
      "byteLength" : 52140
    },
    {
      "buffer" : 0,
      "byteOffset" : 252520,
      "byteLength" : 52140
    },
    {
      "buffer" : 0,
      "byteOffset" : 304660,
      "byteLength" : 69520
    },
    {
      "buffer" : 0,
      "byteOffset" : 374180,
      "byteLength" : 34760
    },
    {
      "buffer" : 0,
      "byteOffset" : 408940,
      "byteLength" : 34760
    },
    {
      "buffer" : 0,
      "byteOffset" : 443700,
      "byteLength" : 50628
    },
    {
      "buffer" : 0,
      "byteOffset" : 494328,
      "byteLength" : 139740
    },
    {
      "buffer" : 0,
      "byteOffset" : 634068,
      "byteLength" : 139740
    },
    {
      "buffer" : 0,
      "byteOffset" : 773808,
      "byteLength" : 186320
    },
    {
      "buffer" : 0,
      "byteOffset" : 960128,
      "byteLength" : 93160
    },
    {
      "buffer" : 0,
      "byteOffset" : 1053288,
      "byteLength" : 93160
    }
  ],
  "accessors" : [
    {
      "bufferView" : 0,
      "componentType" : 5123,
      "count" : 6846,
      "type" : "SCALAR"
    },
    {
      "bufferView" : 1,
      "min" : [ -20.234, -0.0826804, 12.2682 ],
      "max" : [ 3.95561, 24.7811, 40.3595 ],
      "componentType" : 5126,
      "count" : 2981,
      "type" : "VEC3"
    },
    {
      "bufferView" : 2,
      "componentType" : 5126,
      "count" : 2981,
      "type" : "VEC3"
    },
    {
      "bufferView" : 3,
      "componentType" : 5126,
      "count" : 2981,
      "type" : "VEC4"
    },
    {
      "bufferView" : 4,
      "componentType" : 5126,
      "count" : 2981,
      "type" : "VEC2"
    },
    {
      "bufferView" : 5,
      "componentType" : 5126,
      "count" : 2981,
      "type" : "VEC2"
    },
    {
      "bufferView" : 6,
      "componentType" : 5123,
      "count" : 9876,
      "type" : "SCALAR"
    },
    {
      "bufferView" : 7,
      "min" : [ -21.4211, -0.0574011, 12.2006 ],
      "max" : [ 2.06101, 21.8077, 41.3487 ],
      "componentType" : 5126,
      "count" : 4345,
      "type" : "VEC3"
    },
    {
      "bufferView" : 8,
      "componentType" : 5126,
      "count" : 4345,
      "type" : "VEC3"
    },
    {
      "bufferView" : 9,
      "componentType" : 5126,
      "count" : 4345,
      "type" : "VEC4"
    },
    {
      "bufferView" : 10,
      "componentType" : 5126,
      "count" : 4345,
      "type" : "VEC2"
    },
    {
      "bufferView" : 11,
      "componentType" : 5126,
      "count" : 4345,
      "type" : "VEC2"
    },
    {
      "bufferView" : 12,
      "componentType" : 5123,
      "count" : 25314,
      "type" : "SCALAR"
    },
    {
      "bufferView" : 13,
      "min" : [ -21.3481, -0.05408, 12.2648 ],
      "max" : [ 3.77234, 25.0942, 40.9679 ],
      "componentType" : 5126,
      "count" : 11645,
      "type" : "VEC3"
    },
    {
      "bufferView" : 14,
      "componentType" : 5126,
      "count" : 11645,
      "type" : "VEC3"
    },
    {
      "bufferView" : 15,
      "componentType" : 5126,
      "count" : 11645,
      "type" : "VEC4"
    },
    {
      "bufferView" : 16,
      "componentType" : 5126,
      "count" : 11645,
      "type" : "VEC2"
    },
    {
      "bufferView" : 17,
      "componentType" : 5126,
      "count" : 11645,
      "type" : "VEC2"
    }
  ]
}
