{
  "asset" : {
    "generator" : "UE Viewer (umodel) build 1579 based",
    "version" : "2.0"
  },
  "scene" : 0,
  "scenes" : [
    {
      "nodes" : [ 0 ]
    }
  ],
  "nodes" : [
    {
      "name" : "S_Envi_Fyz_Building_105r",
      "mesh" : 0
    }
  ],
  "materials" : [
    {
      "name" : "MI_Envi_Olgk_Platform_14d",
      "pbrMetallicRoughness" : {
        "baseColorFactor" : [ 0.3, 0.3, 0.3, 1.0 ],
        "metallicFactor" : 0.1,
        "roughnessFactor" : 0.5
      }
    },
    {
      "name" : "MI_Envi_Common_Wall_15n",
      "pbrMetallicRoughness" : {
        "baseColorFactor" : [ 0.9, 0.3, 0.3, 1.0 ],
        "metallicFactor" : 0.1,
        "roughnessFactor" : 0.5
      }
    },
    {
      "name" : "MI_Envi_Umeda_wall_04c",
      "pbrMetallicRoughness" : {
        "baseColorFactor" : [ 0.3, 0.9, 0.3, 1.0 ],
        "metallicFactor" : 0.1,
        "roughnessFactor" : 0.5
      }
    }
  ],
  "meshes" : [
    {
      "primitives" : [
        {
          "attributes" : {
            "POSITION" : 1,
            "NORMAL" : 2,
            "TANGENT" : 3,
            "TEXCOORD_0" : 4,
            "TEXCOORD_1" : 5,
            "TEXCOORD_2" : 6,
            "TEXCOORD_3" : 7
          },
          "indices" : 0,
          "material" : 0
        },
        {
          "attributes" : {
            "POSITION" : 9,
            "NORMAL" : 10,
            "TANGENT" : 11,
            "TEXCOORD_0" : 12,
            "TEXCOORD_1" : 13,
            "TEXCOORD_2" : 14,
            "TEXCOORD_3" : 15
          },
          "indices" : 8,
          "material" : 1
        },
        {
          "attributes" : {
            "POSITION" : 17,
            "NORMAL" : 18,
            "TANGENT" : 19,
            "TEXCOORD_0" : 20,
            "TEXCOORD_1" : 21,
            "TEXCOORD_2" : 22,
            "TEXCOORD_3" : 23
          },
          "indices" : 16,
          "material" : 2
        }
      ],
      "name" : "S_Envi_Fyz_Building_105r"
    }
  ],
  "buffers" : [
    {
      "uri" : "S_Envi_Fyz_Building_105r.bin",
      "byteLength" : 54828
    }
  ],
  "bufferViews" : [
    {
      "buffer" : 0,
      "byteOffset" : 0,
      "byteLength" : 984
    },
    {
      "buffer" : 0,
      "byteOffset" : 984,
      "byteLength" : 3192
    },
    {
      "buffer" : 0,
      "byteOffset" : 4176,
      "byteLength" : 3192
    },
    {
      "buffer" : 0,
      "byteOffset" : 7368,
      "byteLength" : 4256
    },
    {
      "buffer" : 0,
      "byteOffset" : 11624,
      "byteLength" : 2128
    },
    {
      "buffer" : 0,
      "byteOffset" : 13752,
      "byteLength" : 2128
    },
    {
      "buffer" : 0,
      "byteOffset" : 15880,
      "byteLength" : 2128
    },
    {
      "buffer" : 0,
      "byteOffset" : 18008,
      "byteLength" : 2128
    },
    {
      "buffer" : 0,
      "byteOffset" : 20136,
      "byteLength" : 1632
    },
    {
      "buffer" : 0,
      "byteOffset" : 21768,
      "byteLength" : 4464
    },
    {
      "buffer" : 0,
      "byteOffset" : 26232,
      "byteLength" : 4464
    },
    {
      "buffer" : 0,
      "byteOffset" : 30696,
      "byteLength" : 5952
    },
    {
      "buffer" : 0,
      "byteOffset" : 36648,
      "byteLength" : 2976
    },
    {
      "buffer" : 0,
      "byteOffset" : 39624,
      "byteLength" : 2976
    },
    {
      "buffer" : 0,
      "byteOffset" : 42600,
      "byteLength" : 2976
    },
    {
      "buffer" : 0,
      "byteOffset" : 45576,
      "byteLength" : 2976
    },
    {
      "buffer" : 0,
      "byteOffset" : 48552,
      "byteLength" : 516
    },
    {
      "buffer" : 0,
      "byteOffset" : 49068,
      "byteLength" : 960
    },
    {
      "buffer" : 0,
      "byteOffset" : 50028,
      "byteLength" : 960
    },
    {
      "buffer" : 0,
      "byteOffset" : 50988,
      "byteLength" : 1280
    },
    {
      "buffer" : 0,
      "byteOffset" : 52268,
      "byteLength" : 640
    },
    {
      "buffer" : 0,
      "byteOffset" : 52908,
      "byteLength" : 640
    },
    {
      "buffer" : 0,
      "byteOffset" : 53548,
      "byteLength" : 640
    },
    {
      "buffer" : 0,
      "byteOffset" : 54188,
      "byteLength" : 640
    }
  ],
  "accessors" : [
    {
      "bufferView" : 0,
      "componentType" : 5123,
      "count" : 492,
      "type" : "SCALAR"
    },
    {
      "bufferView" : 1,
      "min" : [ -13.089, 0.13113, -2.4253 ],
      "max" : [ 0.130209, 5.37946, 2.0752e-05 ],
      "componentType" : 5126,
      "count" : 266,
      "type" : "VEC3"
    },
    {
      "bufferView" : 2,
      "componentType" : 5126,
      "count" : 266,
      "type" : "VEC3"
    },
    {
      "bufferView" : 3,
      "componentType" : 5126,
      "count" : 266,
      "type" : "VEC4"
    },
    {
      "bufferView" : 4,
      "componentType" : 5126,
      "count" : 266,
      "type" : "VEC2"
    },
    {
      "bufferView" : 5,
      "componentType" : 5126,
      "count" : 266,
      "type" : "VEC2"
    },
    {
      "bufferView" : 6,
      "componentType" : 5126,
      "count" : 266,
      "type" : "VEC2"
    },
    {
      "bufferView" : 7,
      "componentType" : 5126,
      "count" : 266,
      "type" : "VEC2"
    },
    {
      "bufferView" : 8,
      "componentType" : 5123,
      "count" : 816,
      "type" : "SCALAR"
    },
    {
      "bufferView" : 9,
      "min" : [ -13.089, 0.262263, -2.12701 ],
      "max" : [ 0.130209, 5.37946, 2.0752e-05 ],
      "componentType" : 5126,
      "count" : 372,
      "type" : "VEC3"
    },
    {
      "bufferView" : 10,
      "componentType" : 5126,
      "count" : 372,
      "type" : "VEC3"
    },
    {
      "bufferView" : 11,
      "componentType" : 5126,
      "count" : 372,
      "type" : "VEC4"
    },
    {
      "bufferView" : 12,
      "componentType" : 5126,
      "count" : 372,
      "type" : "VEC2"
    },
    {
      "bufferView" : 13,
      "componentType" : 5126,
      "count" : 372,
      "type" : "VEC2"
    },
    {
      "bufferView" : 14,
      "componentType" : 5126,
      "count" : 372,
      "type" : "VEC2"
    },
    {
      "bufferView" : 15,
      "componentType" : 5126,
      "count" : 372,
      "type" : "VEC2"
    },
    {
      "bufferView" : 16,
      "componentType" : 5123,
      "count" : 258,
      "type" : "SCALAR"
    },
    {
      "bufferView" : 17,
      "min" : [ -9.66467, 1.95184, -2.07334 ],
      "max" : [ 1.60754e-15, 4.35086, -2.057 ],
      "componentType" : 5126,
      "count" : 80,
      "type" : "VEC3"
    },
    {
      "bufferView" : 18,
      "componentType" : 5126,
      "count" : 80,
      "type" : "VEC3"
    },
    {
      "bufferView" : 19,
      "componentType" : 5126,
      "count" : 80,
      "type" : "VEC4"
    },
    {
      "bufferView" : 20,
      "componentType" : 5126,
      "count" : 80,
      "type" : "VEC2"
    },
    {
      "bufferView" : 21,
      "componentType" : 5126,
      "count" : 80,
      "type" : "VEC2"
    },
    {
      "bufferView" : 22,
      "componentType" : 5126,
      "count" : 80,
      "type" : "VEC2"
    },
    {
      "bufferView" : 23,
      "componentType" : 5126,
      "count" : 80,
      "type" : "VEC2"
    }
  ]
}
