{
  "asset" : {
    "generator" : "UE Viewer (umodel) build 1579 based",
    "version" : "2.0"
  },
  "scene" : 0,
  "scenes" : [
    {
      "nodes" : [ 0 ]
    }
  ],
  "nodes" : [
    {
      "name" : "S_Envi_Fyz_BuildingMerge_04a",
      "mesh" : 0
    }
  ],
  "materials" : [
    {
      "name" : "MI_Envi_Fyz_House_01e",
      "pbrMetallicRoughness" : {
        "baseColorFactor" : [ 0.3, 0.3, 0.3, 1.0 ],
        "metallicFactor" : 0.1,
        "roughnessFactor" : 0.5
      }
    },
    {
      "name" : "MI_Envi_Fyz_House_01b",
      "pbrMetallicRoughness" : {
        "baseColorFactor" : [ 0.9, 0.3, 0.3, 1.0 ],
        "metallicFactor" : 0.1,
        "roughnessFactor" : 0.5
      }
    },
    {
      "name" : "MI_Envi_Fyz_House_01c",
      "pbrMetallicRoughness" : {
        "baseColorFactor" : [ 0.3, 0.9, 0.3, 1.0 ],
        "metallicFactor" : 0.1,
        "roughnessFactor" : 0.5
      }
    }
  ],
  "meshes" : [
    {
      "primitives" : [
        {
          "attributes" : {
            "POSITION" : 1,
            "NORMAL" : 2,
            "TANGENT" : 3,
            "TEXCOORD_0" : 4,
            "TEXCOORD_1" : 5
          },
          "indices" : 0,
          "material" : 0
        },
        {
          "attributes" : {
            "POSITION" : 7,
            "NORMAL" : 8,
            "TANGENT" : 9,
            "TEXCOORD_0" : 10,
            "TEXCOORD_1" : 11
          },
          "indices" : 6,
          "material" : 1
        },
        {
          "attributes" : {
            "POSITION" : 13,
            "NORMAL" : 14,
            "TANGENT" : 15,
            "TEXCOORD_0" : 16,
            "TEXCOORD_1" : 17
          },
          "indices" : 12,
          "material" : 2
        }
      ],
      "name" : "S_Envi_Fyz_BuildingMerge_04a"
    }
  ],
  "buffers" : [
    {
      "uri" : "S_Envi_Fyz_BuildingMerge_04a.bin",
      "byteLength" : 879488
    }
  ],
  "bufferViews" : [
    {
      "buffer" : 0,
      "byteOffset" : 0,
      "byteLength" : 52136
    },
    {
      "buffer" : 0,
      "byteOffset" : 52136,
      "byteLength" : 156468
    },
    {
      "buffer" : 0,
      "byteOffset" : 208604,
      "byteLength" : 156468
    },
    {
      "buffer" : 0,
      "byteOffset" : 365072,
      "byteLength" : 208624
    },
    {
      "buffer" : 0,
      "byteOffset" : 573696,
      "byteLength" : 104312
    },
    {
      "buffer" : 0,
      "byteOffset" : 678008,
      "byteLength" : 104312
    },
    {
      "buffer" : 0,
      "byteOffset" : 782320,
      "byteLength" : 3828
    },
    {
      "buffer" : 0,
      "byteOffset" : 786148,
      "byteLength" : 10896
    },
    {
      "buffer" : 0,
      "byteOffset" : 797044,
      "byteLength" : 10896
    },
    {
      "buffer" : 0,
      "byteOffset" : 807940,
      "byteLength" : 14528
    },
    {
      "buffer" : 0,
      "byteOffset" : 822468,
      "byteLength" : 7264
    },
    {
      "buffer" : 0,
      "byteOffset" : 829732,
      "byteLength" : 7264
    },
    {
      "buffer" : 0,
      "byteOffset" : 836996,
      "byteLength" : 2172
    },
    {
      "buffer" : 0,
      "byteOffset" : 839168,
      "byteLength" : 8640
    },
    {
      "buffer" : 0,
      "byteOffset" : 847808,
      "byteLength" : 8640
    },
    {
      "buffer" : 0,
      "byteOffset" : 856448,
      "byteLength" : 11520
    },
    {
      "buffer" : 0,
      "byteOffset" : 867968,
      "byteLength" : 5760
    },
    {
      "buffer" : 0,
      "byteOffset" : 873728,
      "byteLength" : 5760
    }
  ],
  "accessors" : [
    {
      "bufferView" : 0,
      "componentType" : 5123,
      "count" : 26067,
      "type" : "SCALAR"
    },
    {
      "bufferView" : 1,
      "min" : [ -5.81152, -1.70295, 66.6768 ],
      "max" : [ 36.1786, 15.4125, 96.7712 ],
      "componentType" : 5126,
      "count" : 13039,
      "type" : "VEC3"
    },
    {
      "bufferView" : 2,
      "componentType" : 5126,
      "count" : 13039,
      "type" : "VEC3"
    },
    {
      "bufferView" : 3,
      "componentType" : 5126,
      "count" : 13039,
      "type" : "VEC4"
    },
    {
      "bufferView" : 4,
      "componentType" : 5126,
      "count" : 13039,
      "type" : "VEC2"
    },
    {
      "bufferView" : 5,
      "componentType" : 5126,
      "count" : 13039,
      "type" : "VEC2"
    },
    {
      "bufferView" : 6,
      "componentType" : 5123,
      "count" : 1914,
      "type" : "SCALAR"
    },
    {
      "bufferView" : 7,
      "min" : [ -5.64697, -0.173981, 66.5522 ],
      "max" : [ 38.7657, 12.8837, 96.8508 ],
      "componentType" : 5126,
      "count" : 908,
      "type" : "VEC3"
    },
    {
      "bufferView" : 8,
      "componentType" : 5126,
      "count" : 908,
      "type" : "VEC3"
    },
    {
      "bufferView" : 9,
      "componentType" : 5126,
      "count" : 908,
      "type" : "VEC4"
    },
    {
      "bufferView" : 10,
      "componentType" : 5126,
      "count" : 908,
      "type" : "VEC2"
    },
    {
      "bufferView" : 11,
      "componentType" : 5126,
      "count" : 908,
      "type" : "VEC2"
    },
    {
      "bufferView" : 12,
      "componentType" : 5123,
      "count" : 1086,
      "type" : "SCALAR"
    },
    {
      "bufferView" : 13,
      "min" : [ -5.00762, 0.197511, 67.0395 ],
      "max" : [ 24.3403, 12.2229, 96.5054 ],
      "componentType" : 5126,
      "count" : 720,
      "type" : "VEC3"
    },
    {
      "bufferView" : 14,
      "componentType" : 5126,
      "count" : 720,
      "type" : "VEC3"
    },
    {
      "bufferView" : 15,
      "componentType" : 5126,
      "count" : 720,
      "type" : "VEC4"
    },
    {
      "bufferView" : 16,
      "componentType" : 5126,
      "count" : 720,
      "type" : "VEC2"
    },
    {
      "bufferView" : 17,
      "componentType" : 5126,
      "count" : 720,
      "type" : "VEC2"
    }
  ]
}
