{
  "asset" : {
    "generator" : "UE Viewer (umodel) build 1579 based",
    "version" : "2.0"
  },
  "scene" : 0,
  "scenes" : [
    {
      "nodes" : [ 0 ]
    }
  ],
  "nodes" : [
    {
      "name" : "S_Envi_Fyz_Building_105x",
      "mesh" : 0
    }
  ],
  "materials" : [
    {
      "name" : "MI_fzfbase_battery_Yy_003",
      "pbrMetallicRoughness" : {
        "baseColorFactor" : [ 0.3, 0.3, 0.3, 1.0 ],
        "metallicFactor" : 0.1,
        "roughnessFactor" : 0.5
      }
    }
  ],
  "meshes" : [
    {
      "primitives" : [
        {
          "attributes" : {
            "POSITION" : 1,
            "NORMAL" : 2,
            "TANGENT" : 3,
            "TEXCOORD_0" : 4,
            "TEXCOORD_1" : 5,
            "TEXCOORD_2" : 6,
            "TEXCOORD_3" : 7
          },
          "indices" : 0,
          "material" : 0
        }
      ],
      "name" : "S_Envi_Fyz_Building_105x"
    }
  ],
  "buffers" : [
    {
      "uri" : "S_Envi_Fyz_Building_105x.bin",
      "byteLength" : 1056
    }
  ],
  "bufferViews" : [
    {
      "buffer" : 0,
      "byteOffset" : 0,
      "byteLength" : 48
    },
    {
      "buffer" : 0,
      "byteOffset" : 48,
      "byteLength" : 168
    },
    {
      "buffer" : 0,
      "byteOffset" : 216,
      "byteLength" : 168
    },
    {
      "buffer" : 0,
      "byteOffset" : 384,
      "byteLength" : 224
    },
    {
      "buffer" : 0,
      "byteOffset" : 608,
      "byteLength" : 112
    },
    {
      "buffer" : 0,
      "byteOffset" : 720,
      "byteLength" : 112
    },
    {
      "buffer" : 0,
      "byteOffset" : 832,
      "byteLength" : 112
    },
    {
      "buffer" : 0,
      "byteOffset" : 944,
      "byteLength" : 112
    }
  ],
  "accessors" : [
    {
      "bufferView" : 0,
      "componentType" : 5123,
      "count" : 24,
      "type" : "SCALAR"
    },
    {
      "bufferView" : 1,
      "min" : [ -6.08821, -1.75664, -0.00537476 ],
      "max" : [ 6.08821, 4.28235, -0 ],
      "componentType" : 5126,
      "count" : 14,
      "type" : "VEC3"
    },
    {
      "bufferView" : 2,
      "componentType" : 5126,
      "count" : 14,
      "type" : "VEC3"
    },
    {
      "bufferView" : 3,
      "componentType" : 5126,
      "count" : 14,
      "type" : "VEC4"
    },
    {
      "bufferView" : 4,
      "componentType" : 5126,
      "count" : 14,
      "type" : "VEC2"
    },
    {
      "bufferView" : 5,
      "componentType" : 5126,
      "count" : 14,
      "type" : "VEC2"
    },
    {
      "bufferView" : 6,
      "componentType" : 5126,
      "count" : 14,
      "type" : "VEC2"
    },
    {
      "bufferView" : 7,
      "componentType" : 5126,
      "count" : 14,
      "type" : "VEC2"
    }
  ]
}
