{
  "asset" : {
    "generator" : "UE Viewer (umodel) build 1579 based",
    "version" : "2.0"
  },
  "scene" : 0,
  "scenes" : [
    {
      "nodes" : [ 0 ]
    }
  ],
  "nodes" : [
    {
      "name" : "S_Envi_Fyz_Grass_Merge_03b",
      "mesh" : 0
    }
  ],
  "materials" : [
    {
      "name" : "MI_Envi_Foliage_shrub_08",
      "pbrMetallicRoughness" : {
        "baseColorFactor" : [ 0.3, 0.3, 0.3, 1.0 ],
        "metallicFactor" : 0.1,
        "roughnessFactor" : 0.5
      }
    },
    {
      "name" : "MI_Envi_Foliage_shrub_09",
      "pbrMetallicRoughness" : {
        "baseColorFactor" : [ 0.9, 0.3, 0.3, 1.0 ],
        "metallicFactor" : 0.1,
        "roughnessFactor" : 0.5
      }
    }
  ],
  "meshes" : [
    {
      "primitives" : [
        {
          "attributes" : {
            "POSITION" : 1,
            "NORMAL" : 2,
            "TANGENT" : 3,
            "TEXCOORD_0" : 4,
            "TEXCOORD_1" : 5
          },
          "indices" : 0,
          "material" : 0
        },
        {
          "attributes" : {
            "POSITION" : 7,
            "NORMAL" : 8,
            "TANGENT" : 9,
            "TEXCOORD_0" : 10,
            "TEXCOORD_1" : 11
          },
          "indices" : 6,
          "material" : 1
        }
      ],
      "name" : "S_Envi_Fyz_Grass_Merge_03b"
    }
  ],
  "buffers" : [
    {
      "uri" : "S_Envi_Fyz_Grass_Merge_03b.bin",
      "byteLength" : 240884
    }
  ],
  "bufferViews" : [
    {
      "buffer" : 0,
      "byteOffset" : 0,
      "byteLength" : 14100
    },
    {
      "buffer" : 0,
      "byteOffset" : 14100,
      "byteLength" : 38796
    },
    {
      "buffer" : 0,
      "byteOffset" : 52896,
      "byteLength" : 38796
    },
    {
      "buffer" : 0,
      "byteOffset" : 91692,
      "byteLength" : 51728
    },
    {
      "buffer" : 0,
      "byteOffset" : 143420,
      "byteLength" : 25864
    },
    {
      "buffer" : 0,
      "byteOffset" : 169284,
      "byteLength" : 25864
    },
    {
      "buffer" : 0,
      "byteOffset" : 195148,
      "byteLength" : 3680
    },
    {
      "buffer" : 0,
      "byteOffset" : 198828,
      "byteLength" : 9012
    },
    {
      "buffer" : 0,
      "byteOffset" : 207840,
      "byteLength" : 9012
    },
    {
      "buffer" : 0,
      "byteOffset" : 216852,
      "byteLength" : 12016
    },
    {
      "buffer" : 0,
      "byteOffset" : 228868,
      "byteLength" : 6008
    },
    {
      "buffer" : 0,
      "byteOffset" : 234876,
      "byteLength" : 6008
    }
  ],
  "accessors" : [
    {
      "bufferView" : 0,
      "componentType" : 5123,
      "count" : 7050,
      "type" : "SCALAR"
    },
    {
      "bufferView" : 1,
      "min" : [ 12.2072, 0.0272101, -78.7374 ],
      "max" : [ 26.6622, 12.9992, -74.8618 ],
      "componentType" : 5126,
      "count" : 3233,
      "type" : "VEC3"
    },
    {
      "bufferView" : 2,
      "componentType" : 5126,
      "count" : 3233,
      "type" : "VEC3"
    },
    {
      "bufferView" : 3,
      "componentType" : 5126,
      "count" : 3233,
      "type" : "VEC4"
    },
    {
      "bufferView" : 4,
      "componentType" : 5126,
      "count" : 3233,
      "type" : "VEC2"
    },
    {
      "bufferView" : 5,
      "componentType" : 5126,
      "count" : 3233,
      "type" : "VEC2"
    },
    {
      "bufferView" : 6,
      "componentType" : 5123,
      "count" : 1839,
      "type" : "SCALAR"
    },
    {
      "bufferView" : 7,
      "min" : [ 26.336, 12.3222, -77.9444 ],
      "max" : [ 27.179, 12.9548, -75.1408 ],
      "componentType" : 5126,
      "count" : 751,
      "type" : "VEC3"
    },
    {
      "bufferView" : 8,
      "componentType" : 5126,
      "count" : 751,
      "type" : "VEC3"
    },
    {
      "bufferView" : 9,
      "componentType" : 5126,
      "count" : 751,
      "type" : "VEC4"
    },
    {
      "bufferView" : 10,
      "componentType" : 5126,
      "count" : 751,
      "type" : "VEC2"
    },
    {
      "bufferView" : 11,
      "componentType" : 5126,
      "count" : 751,
      "type" : "VEC2"
    }
  ]
}
