{
  "asset" : {
    "generator" : "UE Viewer (umodel) build 1579 based",
    "version" : "2.0"
  },
  "scene" : 0,
  "scenes" : [
    {
      "nodes" : [ 0 ]
    }
  ],
  "nodes" : [
    {
      "name" : "S_Envi_Fyz_BuildingRoom_05d",
      "mesh" : 0
    }
  ],
  "materials" : [
    {
      "name" : "MI_Envi_Common_HBuilding_01a",
      "pbrMetallicRoughness" : {
        "baseColorFactor" : [ 0.3, 0.3, 0.3, 1.0 ],
        "metallicFactor" : 0.1,
        "roughnessFactor" : 0.5
      }
    }
  ],
  "meshes" : [
    {
      "primitives" : [
        {
          "attributes" : {
            "POSITION" : 1,
            "NORMAL" : 2,
            "TANGENT" : 3,
            "TEXCOORD_0" : 4,
            "TEXCOORD_1" : 5
          },
          "indices" : 0,
          "material" : 0
        }
      ],
      "name" : "S_Envi_Fyz_BuildingRoom_05d"
    }
  ],
  "buffers" : [
    {
      "uri" : "S_Envi_Fyz_BuildingRoom_05d.bin",
      "byteLength" : 104556
    }
  ],
  "bufferViews" : [
    {
      "buffer" : 0,
      "byteOffset" : 0,
      "byteLength" : 6108
    },
    {
      "buffer" : 0,
      "byteOffset" : 6108,
      "byteLength" : 21096
    },
    {
      "buffer" : 0,
      "byteOffset" : 27204,
      "byteLength" : 21096
    },
    {
      "buffer" : 0,
      "byteOffset" : 48300,
      "byteLength" : 28128
    },
    {
      "buffer" : 0,
      "byteOffset" : 76428,
      "byteLength" : 14064
    },
    {
      "buffer" : 0,
      "byteOffset" : 90492,
      "byteLength" : 14064
    }
  ],
  "accessors" : [
    {
      "bufferView" : 0,
      "componentType" : 5123,
      "count" : 3054,
      "type" : "SCALAR"
    },
    {
      "bufferView" : 1,
      "min" : [ -41.3634, 4.9787, -28.3269 ],
      "max" : [ -21.2327, 11.5618, -5.63456 ],
      "componentType" : 5126,
      "count" : 1758,
      "type" : "VEC3"
    },
    {
      "bufferView" : 2,
      "componentType" : 5126,
      "count" : 1758,
      "type" : "VEC3"
    },
    {
      "bufferView" : 3,
      "componentType" : 5126,
      "count" : 1758,
      "type" : "VEC4"
    },
    {
      "bufferView" : 4,
      "componentType" : 5126,
      "count" : 1758,
      "type" : "VEC2"
    },
    {
      "bufferView" : 5,
      "componentType" : 5126,
      "count" : 1758,
      "type" : "VEC2"
    }
  ]
}
