{
  "asset" : {
    "generator" : "UE Viewer (umodel) build 1579 based",
    "version" : "2.0"
  },
  "scene" : 0,
  "scenes" : [
    {
      "nodes" : [ 0 ]
    }
  ],
  "nodes" : [
    {
      "name" : "S_Envi_Fyz_BuildingRoof_04b",
      "mesh" : 0
    }
  ],
  "materials" : [
    {
      "name" : "MI_Envi_Common_Rooftop_01c",
      "pbrMetallicRoughness" : {
        "baseColorFactor" : [ 0.3, 0.3, 0.3, 1.0 ],
        "metallicFactor" : 0.1,
        "roughnessFactor" : 0.5
      }
    }
  ],
  "meshes" : [
    {
      "primitives" : [
        {
          "attributes" : {
            "POSITION" : 1,
            "NORMAL" : 2,
            "TANGENT" : 3,
            "TEXCOORD_0" : 4,
            "TEXCOORD_1" : 5,
            "TEXCOORD_2" : 6,
            "TEXCOORD_3" : 7
          },
          "indices" : 0,
          "material" : 0
        }
      ],
      "name" : "S_Envi_Fyz_BuildingRoof_04b"
    }
  ],
  "buffers" : [
    {
      "uri" : "S_Envi_Fyz_BuildingRoof_04b.bin",
      "byteLength" : 35660
    }
  ],
  "bufferViews" : [
    {
      "buffer" : 0,
      "byteOffset" : 0,
      "byteLength" : 1604
    },
    {
      "buffer" : 0,
      "byteOffset" : 1604,
      "byteLength" : 5676
    },
    {
      "buffer" : 0,
      "byteOffset" : 7280,
      "byteLength" : 5676
    },
    {
      "buffer" : 0,
      "byteOffset" : 12956,
      "byteLength" : 7568
    },
    {
      "buffer" : 0,
      "byteOffset" : 20524,
      "byteLength" : 3784
    },
    {
      "buffer" : 0,
      "byteOffset" : 24308,
      "byteLength" : 3784
    },
    {
      "buffer" : 0,
      "byteOffset" : 28092,
      "byteLength" : 3784
    },
    {
      "buffer" : 0,
      "byteOffset" : 31876,
      "byteLength" : 3784
    }
  ],
  "accessors" : [
    {
      "bufferView" : 0,
      "componentType" : 5123,
      "count" : 801,
      "type" : "SCALAR"
    },
    {
      "bufferView" : 1,
      "min" : [ 30.5472, 10.749, -10.4944 ],
      "max" : [ 78.6624, 30.5767, 43.8373 ],
      "componentType" : 5126,
      "count" : 473,
      "type" : "VEC3"
    },
    {
      "bufferView" : 2,
      "componentType" : 5126,
      "count" : 473,
      "type" : "VEC3"
    },
    {
      "bufferView" : 3,
      "componentType" : 5126,
      "count" : 473,
      "type" : "VEC4"
    },
    {
      "bufferView" : 4,
      "componentType" : 5126,
      "count" : 473,
      "type" : "VEC2"
    },
    {
      "bufferView" : 5,
      "componentType" : 5126,
      "count" : 473,
      "type" : "VEC2"
    },
    {
      "bufferView" : 6,
      "componentType" : 5126,
      "count" : 473,
      "type" : "VEC2"
    },
    {
      "bufferView" : 7,
      "componentType" : 5126,
      "count" : 473,
      "type" : "VEC2"
    }
  ]
}
