{
  "asset" : {
    "generator" : "UE Viewer (umodel) build 1579 based",
    "version" : "2.0"
  },
  "scene" : 0,
  "scenes" : [
    {
      "nodes" : [ 0 ]
    }
  ],
  "nodes" : [
    {
      "name" : "S_Envi_Fyz_Building_103a",
      "mesh" : 0
    }
  ],
  "materials" : [
    {
      "name" : "MI_Envi_Fyz_Wall_04a",
      "pbrMetallicRoughness" : {
        "baseColorFactor" : [ 0.3, 0.3, 0.3, 1.0 ],
        "metallicFactor" : 0.1,
        "roughnessFactor" : 0.5
      }
    }
  ],
  "meshes" : [
    {
      "primitives" : [
        {
          "attributes" : {
            "POSITION" : 1,
            "NORMAL" : 2,
            "TANGENT" : 3,
            "TEXCOORD_0" : 4,
            "TEXCOORD_1" : 5
          },
          "indices" : 0,
          "material" : 0
        }
      ],
      "name" : "S_Envi_Fyz_Building_103a"
    }
  ],
  "buffers" : [
    {
      "uri" : "S_Envi_Fyz_Building_103a.bin",
      "byteLength" : 100108
    }
  ],
  "bufferViews" : [
    {
      "buffer" : 0,
      "byteOffset" : 0,
      "byteLength" : 10676
    },
    {
      "buffer" : 0,
      "byteOffset" : 10676,
      "byteLength" : 19164
    },
    {
      "buffer" : 0,
      "byteOffset" : 29840,
      "byteLength" : 19164
    },
    {
      "buffer" : 0,
      "byteOffset" : 49004,
      "byteLength" : 25552
    },
    {
      "buffer" : 0,
      "byteOffset" : 74556,
      "byteLength" : 12776
    },
    {
      "buffer" : 0,
      "byteOffset" : 87332,
      "byteLength" : 12776
    }
  ],
  "accessors" : [
    {
      "bufferView" : 0,
      "componentType" : 5123,
      "count" : 5337,
      "type" : "SCALAR"
    },
    {
      "bufferView" : 1,
      "min" : [ -41.2932, -18.1913, -34.8974 ],
      "max" : [ 8.32253, -0.0363843, 26.8117 ],
      "componentType" : 5126,
      "count" : 1597,
      "type" : "VEC3"
    },
    {
      "bufferView" : 2,
      "componentType" : 5126,
      "count" : 1597,
      "type" : "VEC3"
    },
    {
      "bufferView" : 3,
      "componentType" : 5126,
      "count" : 1597,
      "type" : "VEC4"
    },
    {
      "bufferView" : 4,
      "componentType" : 5126,
      "count" : 1597,
      "type" : "VEC2"
    },
    {
      "bufferView" : 5,
      "componentType" : 5126,
      "count" : 1597,
      "type" : "VEC2"
    }
  ]
}
