{
  "asset" : {
    "generator" : "UE Viewer (umodel) build 1579 based",
    "version" : "2.0"
  },
  "scene" : 0,
  "scenes" : [
    {
      "nodes" : [ 0 ]
    }
  ],
  "nodes" : [
    {
      "name" : "S_Envi_Fyz_Grass_Merge_02e",
      "mesh" : 0
    }
  ],
  "materials" : [
    {
      "name" : "MI_Envi_Foliage_shrub_08",
      "pbrMetallicRoughness" : {
        "baseColorFactor" : [ 0.3, 0.3, 0.3, 1.0 ],
        "metallicFactor" : 0.1,
        "roughnessFactor" : 0.5
      }
    },
    {
      "name" : "MI_Envi_Foliage_shrub_09",
      "pbrMetallicRoughness" : {
        "baseColorFactor" : [ 0.9, 0.3, 0.3, 1.0 ],
        "metallicFactor" : 0.1,
        "roughnessFactor" : 0.5
      }
    }
  ],
  "meshes" : [
    {
      "primitives" : [
        {
          "attributes" : {
            "POSITION" : 1,
            "NORMAL" : 2,
            "TANGENT" : 3,
            "TEXCOORD_0" : 4,
            "TEXCOORD_1" : 5
          },
          "indices" : 0,
          "material" : 0
        },
        {
          "attributes" : {
            "POSITION" : 7,
            "NORMAL" : 8,
            "TANGENT" : 9,
            "TEXCOORD_0" : 10,
            "TEXCOORD_1" : 11
          },
          "indices" : 6,
          "material" : 1
        }
      ],
      "name" : "S_Envi_Fyz_Grass_Merge_02e"
    }
  ],
  "buffers" : [
    {
      "uri" : "S_Envi_Fyz_Grass_Merge_02e.bin",
      "byteLength" : 652828
    }
  ],
  "bufferViews" : [
    {
      "buffer" : 0,
      "byteOffset" : 0,
      "byteLength" : 10952
    },
    {
      "buffer" : 0,
      "byteOffset" : 10952,
      "byteLength" : 27132
    },
    {
      "buffer" : 0,
      "byteOffset" : 38084,
      "byteLength" : 27132
    },
    {
      "buffer" : 0,
      "byteOffset" : 65216,
      "byteLength" : 36176
    },
    {
      "buffer" : 0,
      "byteOffset" : 101392,
      "byteLength" : 18088
    },
    {
      "buffer" : 0,
      "byteOffset" : 119480,
      "byteLength" : 18088
    },
    {
      "buffer" : 0,
      "byteOffset" : 137568,
      "byteLength" : 35228
    },
    {
      "buffer" : 0,
      "byteOffset" : 172796,
      "byteLength" : 102864
    },
    {
      "buffer" : 0,
      "byteOffset" : 275660,
      "byteLength" : 102864
    },
    {
      "buffer" : 0,
      "byteOffset" : 378524,
      "byteLength" : 137152
    },
    {
      "buffer" : 0,
      "byteOffset" : 515676,
      "byteLength" : 68576
    },
    {
      "buffer" : 0,
      "byteOffset" : 584252,
      "byteLength" : 68576
    }
  ],
  "accessors" : [
    {
      "bufferView" : 0,
      "componentType" : 5123,
      "count" : 5475,
      "type" : "SCALAR"
    },
    {
      "bufferView" : 1,
      "min" : [ 26.8379, 4.81156, -63.94 ],
      "max" : [ 28.4422, 5.60555, -50.1219 ],
      "componentType" : 5126,
      "count" : 2261,
      "type" : "VEC3"
    },
    {
      "bufferView" : 2,
      "componentType" : 5126,
      "count" : 2261,
      "type" : "VEC3"
    },
    {
      "bufferView" : 3,
      "componentType" : 5126,
      "count" : 2261,
      "type" : "VEC4"
    },
    {
      "bufferView" : 4,
      "componentType" : 5126,
      "count" : 2261,
      "type" : "VEC2"
    },
    {
      "bufferView" : 5,
      "componentType" : 5126,
      "count" : 2261,
      "type" : "VEC2"
    },
    {
      "bufferView" : 6,
      "componentType" : 5123,
      "count" : 17613,
      "type" : "SCALAR"
    },
    {
      "bufferView" : 7,
      "min" : [ 26.8131, 4.84148, -64.5726 ],
      "max" : [ 39.6878, 11.7057, -41.9918 ],
      "componentType" : 5126,
      "count" : 8572,
      "type" : "VEC3"
    },
    {
      "bufferView" : 8,
      "componentType" : 5126,
      "count" : 8572,
      "type" : "VEC3"
    },
    {
      "bufferView" : 9,
      "componentType" : 5126,
      "count" : 8572,
      "type" : "VEC4"
    },
    {
      "bufferView" : 10,
      "componentType" : 5126,
      "count" : 8572,
      "type" : "VEC2"
    },
    {
      "bufferView" : 11,
      "componentType" : 5126,
      "count" : 8572,
      "type" : "VEC2"
    }
  ]
}
