{
  "asset" : {
    "generator" : "UE Viewer (umodel) build 1579 based",
    "version" : "2.0"
  },
  "scene" : 0,
  "scenes" : [
    {
      "nodes" : [ 0 ]
    }
  ],
  "nodes" : [
    {
      "name" : "S_Envi_Fyz_Building_89l",
      "mesh" : 0
    }
  ],
  "materials" : [
    {
      "name" : "MI_Envi_Umeda_japan_Temple_05",
      "pbrMetallicRoughness" : {
        "baseColorFactor" : [ 0.3, 0.3, 0.3, 1.0 ],
        "metallicFactor" : 0.1,
        "roughnessFactor" : 0.5
      }
    },
    {
      "name" : "MI_Envi_Fyz_Wall_02c",
      "pbrMetallicRoughness" : {
        "baseColorFactor" : [ 0.9, 0.3, 0.3, 1.0 ],
        "metallicFactor" : 0.1,
        "roughnessFactor" : 0.5
      }
    }
  ],
  "meshes" : [
    {
      "primitives" : [
        {
          "attributes" : {
            "POSITION" : 1,
            "NORMAL" : 2,
            "TANGENT" : 3,
            "TEXCOORD_0" : 4,
            "TEXCOORD_1" : 5
          },
          "indices" : 0,
          "material" : 0
        },
        {
          "attributes" : {
            "POSITION" : 7,
            "NORMAL" : 8,
            "TANGENT" : 9,
            "TEXCOORD_0" : 10,
            "TEXCOORD_1" : 11
          },
          "indices" : 6,
          "material" : 1
        }
      ],
      "name" : "S_Envi_Fyz_Building_89l"
    }
  ],
  "buffers" : [
    {
      "uri" : "S_Envi_Fyz_Building_89l.bin",
      "byteLength" : 61008
    }
  ],
  "bufferViews" : [
    {
      "buffer" : 0,
      "byteOffset" : 0,
      "byteLength" : 2964
    },
    {
      "buffer" : 0,
      "byteOffset" : 2964,
      "byteLength" : 11856
    },
    {
      "buffer" : 0,
      "byteOffset" : 14820,
      "byteLength" : 11856
    },
    {
      "buffer" : 0,
      "byteOffset" : 26676,
      "byteLength" : 15808
    },
    {
      "buffer" : 0,
      "byteOffset" : 42484,
      "byteLength" : 7904
    },
    {
      "buffer" : 0,
      "byteOffset" : 50388,
      "byteLength" : 7904
    },
    {
      "buffer" : 0,
      "byteOffset" : 58292,
      "byteLength" : 252
    },
    {
      "buffer" : 0,
      "byteOffset" : 58544,
      "byteLength" : 528
    },
    {
      "buffer" : 0,
      "byteOffset" : 59072,
      "byteLength" : 528
    },
    {
      "buffer" : 0,
      "byteOffset" : 59600,
      "byteLength" : 704
    },
    {
      "buffer" : 0,
      "byteOffset" : 60304,
      "byteLength" : 352
    },
    {
      "buffer" : 0,
      "byteOffset" : 60656,
      "byteLength" : 352
    }
  ],
  "accessors" : [
    {
      "bufferView" : 0,
      "componentType" : 5123,
      "count" : 1482,
      "type" : "SCALAR"
    },
    {
      "bufferView" : 1,
      "min" : [ -5.47644, -3.2224, -2.15135 ],
      "max" : [ -1.90735e-08, 3.13604e-06, 0.00538437 ],
      "componentType" : 5126,
      "count" : 988,
      "type" : "VEC3"
    },
    {
      "bufferView" : 2,
      "componentType" : 5126,
      "count" : 988,
      "type" : "VEC3"
    },
    {
      "bufferView" : 3,
      "componentType" : 5126,
      "count" : 988,
      "type" : "VEC4"
    },
    {
      "bufferView" : 4,
      "componentType" : 5126,
      "count" : 988,
      "type" : "VEC2"
    },
    {
      "bufferView" : 5,
      "componentType" : 5126,
      "count" : 988,
      "type" : "VEC2"
    },
    {
      "bufferView" : 6,
      "componentType" : 5123,
      "count" : 126,
      "type" : "SCALAR"
    },
    {
      "bufferView" : 7,
      "min" : [ -5.44022, -3.2224, -3.79643e-07 ],
      "max" : [ -1.90735e-08, -9.53674e-09, 0.00538437 ],
      "componentType" : 5126,
      "count" : 44,
      "type" : "VEC3"
    },
    {
      "bufferView" : 8,
      "componentType" : 5126,
      "count" : 44,
      "type" : "VEC3"
    },
    {
      "bufferView" : 9,
      "componentType" : 5126,
      "count" : 44,
      "type" : "VEC4"
    },
    {
      "bufferView" : 10,
      "componentType" : 5126,
      "count" : 44,
      "type" : "VEC2"
    },
    {
      "bufferView" : 11,
      "componentType" : 5126,
      "count" : 44,
      "type" : "VEC2"
    }
  ]
}
