{
  "asset" : {
    "generator" : "UE Viewer (umodel) build 1579 based",
    "version" : "2.0"
  },
  "scene" : 0,
  "scenes" : [
    {
      "nodes" : [ 0 ]
    }
  ],
  "nodes" : [
    {
      "name" : "S_Envi_Fyz_Building_101a",
      "mesh" : 0
    }
  ],
  "materials" : [
    {
      "name" : "MI_Envi_Fyz_Wall_02c",
      "pbrMetallicRoughness" : {
        "baseColorFactor" : [ 0.3, 0.3, 0.3, 1.0 ],
        "metallicFactor" : 0.1,
        "roughnessFactor" : 0.5
      }
    }
  ],
  "meshes" : [
    {
      "primitives" : [
        {
          "attributes" : {
            "POSITION" : 1,
            "NORMAL" : 2,
            "TANGENT" : 3,
            "TEXCOORD_0" : 4,
            "TEXCOORD_1" : 5,
            "TEXCOORD_2" : 6,
            "TEXCOORD_3" : 7
          },
          "indices" : 0,
          "material" : 0
        }
      ],
      "name" : "S_Envi_Fyz_Building_101a"
    }
  ],
  "buffers" : [
    {
      "uri" : "S_Envi_Fyz_Building_101a.bin",
      "byteLength" : 84816
    }
  ],
  "bufferViews" : [
    {
      "buffer" : 0,
      "byteOffset" : 0,
      "byteLength" : 10800
    },
    {
      "buffer" : 0,
      "byteOffset" : 10800,
      "byteLength" : 12336
    },
    {
      "buffer" : 0,
      "byteOffset" : 23136,
      "byteLength" : 12336
    },
    {
      "buffer" : 0,
      "byteOffset" : 35472,
      "byteLength" : 16448
    },
    {
      "buffer" : 0,
      "byteOffset" : 51920,
      "byteLength" : 8224
    },
    {
      "buffer" : 0,
      "byteOffset" : 60144,
      "byteLength" : 8224
    },
    {
      "buffer" : 0,
      "byteOffset" : 68368,
      "byteLength" : 8224
    },
    {
      "buffer" : 0,
      "byteOffset" : 76592,
      "byteLength" : 8224
    }
  ],
  "accessors" : [
    {
      "bufferView" : 0,
      "componentType" : 5123,
      "count" : 5400,
      "type" : "SCALAR"
    },
    {
      "bufferView" : 1,
      "min" : [ -7.55344, 4.57764e-07, -0.05 ],
      "max" : [ 0.232399, 9.70541, 21.9394 ],
      "componentType" : 5126,
      "count" : 1028,
      "type" : "VEC3"
    },
    {
      "bufferView" : 2,
      "componentType" : 5126,
      "count" : 1028,
      "type" : "VEC3"
    },
    {
      "bufferView" : 3,
      "componentType" : 5126,
      "count" : 1028,
      "type" : "VEC4"
    },
    {
      "bufferView" : 4,
      "componentType" : 5126,
      "count" : 1028,
      "type" : "VEC2"
    },
    {
      "bufferView" : 5,
      "componentType" : 5126,
      "count" : 1028,
      "type" : "VEC2"
    },
    {
      "bufferView" : 6,
      "componentType" : 5126,
      "count" : 1028,
      "type" : "VEC2"
    },
    {
      "bufferView" : 7,
      "componentType" : 5126,
      "count" : 1028,
      "type" : "VEC2"
    }
  ]
}
