{
  "asset" : {
    "generator" : "UE Viewer (umodel) build 1579 based",
    "version" : "2.0"
  },
  "scene" : 0,
  "scenes" : [
    {
      "nodes" : [ 0 ]
    }
  ],
  "nodes" : [
    {
      "name" : "S_Envi_Fyz_Building_89q",
      "mesh" : 0
    }
  ],
  "materials" : [
    {
      "name" : "MI_Envi_Umeda_japan_Temple_07",
      "pbrMetallicRoughness" : {
        "baseColorFactor" : [ 0.3, 0.3, 0.3, 1.0 ],
        "metallicFactor" : 0.1,
        "roughnessFactor" : 0.5
      }
    },
    {
      "name" : "WorldGridMaterial",
      "pbrMetallicRoughness" : {
        "baseColorFactor" : [ 0.9, 0.3, 0.3, 1.0 ],
        "metallicFactor" : 0.1,
        "roughnessFactor" : 0.5
      }
    }
  ],
  "meshes" : [
    {
      "primitives" : [
        {
          "attributes" : {
            "POSITION" : 1,
            "NORMAL" : 2,
            "TANGENT" : 3,
            "TEXCOORD_0" : 4,
            "TEXCOORD_1" : 5,
            "TEXCOORD_2" : 6,
            "TEXCOORD_3" : 7
          },
          "indices" : 0,
          "material" : 0
        },
        {
          "attributes" : {
            "POSITION" : 9,
            "NORMAL" : 10,
            "TANGENT" : 11,
            "TEXCOORD_0" : 12,
            "TEXCOORD_1" : 13,
            "TEXCOORD_2" : 14,
            "TEXCOORD_3" : 15
          },
          "indices" : 8,
          "material" : 1
        }
      ],
      "name" : "S_Envi_Fyz_Building_89q"
    }
  ],
  "buffers" : [
    {
      "uri" : "S_Envi_Fyz_Building_89q.bin",
      "byteLength" : 90648
    }
  ],
  "bufferViews" : [
    {
      "buffer" : 0,
      "byteOffset" : 0,
      "byteLength" : 5280
    },
    {
      "buffer" : 0,
      "byteOffset" : 5280,
      "byteLength" : 13728
    },
    {
      "buffer" : 0,
      "byteOffset" : 19008,
      "byteLength" : 13728
    },
    {
      "buffer" : 0,
      "byteOffset" : 32736,
      "byteLength" : 18304
    },
    {
      "buffer" : 0,
      "byteOffset" : 51040,
      "byteLength" : 9152
    },
    {
      "buffer" : 0,
      "byteOffset" : 60192,
      "byteLength" : 9152
    },
    {
      "buffer" : 0,
      "byteOffset" : 69344,
      "byteLength" : 9152
    },
    {
      "buffer" : 0,
      "byteOffset" : 78496,
      "byteLength" : 9152
    },
    {
      "buffer" : 0,
      "byteOffset" : 87648,
      "byteLength" : 120
    },
    {
      "buffer" : 0,
      "byteOffset" : 87768,
      "byteLength" : 480
    },
    {
      "buffer" : 0,
      "byteOffset" : 88248,
      "byteLength" : 480
    },
    {
      "buffer" : 0,
      "byteOffset" : 88728,
      "byteLength" : 640
    },
    {
      "buffer" : 0,
      "byteOffset" : 89368,
      "byteLength" : 320
    },
    {
      "buffer" : 0,
      "byteOffset" : 89688,
      "byteLength" : 320
    },
    {
      "buffer" : 0,
      "byteOffset" : 90008,
      "byteLength" : 320
    },
    {
      "buffer" : 0,
      "byteOffset" : 90328,
      "byteLength" : 320
    }
  ],
  "accessors" : [
    {
      "bufferView" : 0,
      "componentType" : 5123,
      "count" : 2640,
      "type" : "SCALAR"
    },
    {
      "bufferView" : 1,
      "min" : [ -2.34141, -0.468849, -1.60809 ],
      "max" : [ 2.27951, 0.589821, 1.66999 ],
      "componentType" : 5126,
      "count" : 1144,
      "type" : "VEC3"
    },
    {
      "bufferView" : 2,
      "componentType" : 5126,
      "count" : 1144,
      "type" : "VEC3"
    },
    {
      "bufferView" : 3,
      "componentType" : 5126,
      "count" : 1144,
      "type" : "VEC4"
    },
    {
      "bufferView" : 4,
      "componentType" : 5126,
      "count" : 1144,
      "type" : "VEC2"
    },
    {
      "bufferView" : 5,
      "componentType" : 5126,
      "count" : 1144,
      "type" : "VEC2"
    },
    {
      "bufferView" : 6,
      "componentType" : 5126,
      "count" : 1144,
      "type" : "VEC2"
    },
    {
      "bufferView" : 7,
      "componentType" : 5126,
      "count" : 1144,
      "type" : "VEC2"
    },
    {
      "bufferView" : 8,
      "componentType" : 5123,
      "count" : 60,
      "type" : "SCALAR"
    },
    {
      "bufferView" : 9,
      "min" : [ -2.05626, -0.589821, -1.66999 ],
      "max" : [ 2.34141, 0.50476, 1.38644 ],
      "componentType" : 5126,
      "count" : 40,
      "type" : "VEC3"
    },
    {
      "bufferView" : 10,
      "componentType" : 5126,
      "count" : 40,
      "type" : "VEC3"
    },
    {
      "bufferView" : 11,
      "componentType" : 5126,
      "count" : 40,
      "type" : "VEC4"
    },
    {
      "bufferView" : 12,
      "componentType" : 5126,
      "count" : 40,
      "type" : "VEC2"
    },
    {
      "bufferView" : 13,
      "componentType" : 5126,
      "count" : 40,
      "type" : "VEC2"
    },
    {
      "bufferView" : 14,
      "componentType" : 5126,
      "count" : 40,
      "type" : "VEC2"
    },
    {
      "bufferView" : 15,
      "componentType" : 5126,
      "count" : 40,
      "type" : "VEC2"
    }
  ]
}
