{
  "asset" : {
    "generator" : "UE Viewer (umodel) build 1579 based",
    "version" : "2.0"
  },
  "scene" : 0,
  "scenes" : [
    {
      "nodes" : [ 0 ]
    }
  ],
  "nodes" : [
    {
      "name" : "S_Envi_Fyz_Building_104g",
      "mesh" : 0
    }
  ],
  "materials" : [
    {
      "name" : "MI_Envi_Umeda_japan_Temple_05",
      "pbrMetallicRoughness" : {
        "baseColorFactor" : [ 0.3, 0.3, 0.3, 1.0 ],
        "metallicFactor" : 0.1,
        "roughnessFactor" : 0.5
      }
    },
    {
      "name" : "MI_Envi_Umeda_japan_Temple_04b",
      "pbrMetallicRoughness" : {
        "baseColorFactor" : [ 0.9, 0.3, 0.3, 1.0 ],
        "metallicFactor" : 0.1,
        "roughnessFactor" : 0.5
      }
    }
  ],
  "meshes" : [
    {
      "primitives" : [
        {
          "attributes" : {
            "POSITION" : 1,
            "NORMAL" : 2,
            "TANGENT" : 3,
            "TEXCOORD_0" : 4,
            "TEXCOORD_1" : 5,
            "TEXCOORD_2" : 6,
            "TEXCOORD_3" : 7
          },
          "indices" : 0,
          "material" : 0
        },
        {
          "attributes" : {
            "POSITION" : 9,
            "NORMAL" : 10,
            "TANGENT" : 11,
            "TEXCOORD_0" : 12,
            "TEXCOORD_1" : 13,
            "TEXCOORD_2" : 14,
            "TEXCOORD_3" : 15
          },
          "indices" : 8,
          "material" : 1
        }
      ],
      "name" : "S_Envi_Fyz_Building_104g"
    }
  ],
  "buffers" : [
    {
      "uri" : "S_Envi_Fyz_Building_104g.bin",
      "byteLength" : 145232
    }
  ],
  "bufferViews" : [
    {
      "buffer" : 0,
      "byteOffset" : 0,
      "byteLength" : 6128
    },
    {
      "buffer" : 0,
      "byteOffset" : 6128,
      "byteLength" : 18684
    },
    {
      "buffer" : 0,
      "byteOffset" : 24812,
      "byteLength" : 18684
    },
    {
      "buffer" : 0,
      "byteOffset" : 43496,
      "byteLength" : 24912
    },
    {
      "buffer" : 0,
      "byteOffset" : 68408,
      "byteLength" : 12456
    },
    {
      "buffer" : 0,
      "byteOffset" : 80864,
      "byteLength" : 12456
    },
    {
      "buffer" : 0,
      "byteOffset" : 93320,
      "byteLength" : 12456
    },
    {
      "buffer" : 0,
      "byteOffset" : 105776,
      "byteLength" : 12456
    },
    {
      "buffer" : 0,
      "byteOffset" : 118232,
      "byteLength" : 1080
    },
    {
      "buffer" : 0,
      "byteOffset" : 119312,
      "byteLength" : 4320
    },
    {
      "buffer" : 0,
      "byteOffset" : 123632,
      "byteLength" : 4320
    },
    {
      "buffer" : 0,
      "byteOffset" : 127952,
      "byteLength" : 5760
    },
    {
      "buffer" : 0,
      "byteOffset" : 133712,
      "byteLength" : 2880
    },
    {
      "buffer" : 0,
      "byteOffset" : 136592,
      "byteLength" : 2880
    },
    {
      "buffer" : 0,
      "byteOffset" : 139472,
      "byteLength" : 2880
    },
    {
      "buffer" : 0,
      "byteOffset" : 142352,
      "byteLength" : 2880
    }
  ],
  "accessors" : [
    {
      "bufferView" : 0,
      "componentType" : 5123,
      "count" : 3063,
      "type" : "SCALAR"
    },
    {
      "bufferView" : 1,
      "min" : [ -3.31489, -0.629568, -4.78466 ],
      "max" : [ 1.93022, 0.562325, 6.40599 ],
      "componentType" : 5126,
      "count" : 1557,
      "type" : "VEC3"
    },
    {
      "bufferView" : 2,
      "componentType" : 5126,
      "count" : 1557,
      "type" : "VEC3"
    },
    {
      "bufferView" : 3,
      "componentType" : 5126,
      "count" : 1557,
      "type" : "VEC4"
    },
    {
      "bufferView" : 4,
      "componentType" : 5126,
      "count" : 1557,
      "type" : "VEC2"
    },
    {
      "bufferView" : 5,
      "componentType" : 5126,
      "count" : 1557,
      "type" : "VEC2"
    },
    {
      "bufferView" : 6,
      "componentType" : 5126,
      "count" : 1557,
      "type" : "VEC2"
    },
    {
      "bufferView" : 7,
      "componentType" : 5126,
      "count" : 1557,
      "type" : "VEC2"
    },
    {
      "bufferView" : 8,
      "componentType" : 5123,
      "count" : 540,
      "type" : "SCALAR"
    },
    {
      "bufferView" : 9,
      "min" : [ -3.3862, -0.795761, -4.83912 ],
      "max" : [ 2.00244, 0.484224, 6.38211 ],
      "componentType" : 5126,
      "count" : 360,
      "type" : "VEC3"
    },
    {
      "bufferView" : 10,
      "componentType" : 5126,
      "count" : 360,
      "type" : "VEC3"
    },
    {
      "bufferView" : 11,
      "componentType" : 5126,
      "count" : 360,
      "type" : "VEC4"
    },
    {
      "bufferView" : 12,
      "componentType" : 5126,
      "count" : 360,
      "type" : "VEC2"
    },
    {
      "bufferView" : 13,
      "componentType" : 5126,
      "count" : 360,
      "type" : "VEC2"
    },
    {
      "bufferView" : 14,
      "componentType" : 5126,
      "count" : 360,
      "type" : "VEC2"
    },
    {
      "bufferView" : 15,
      "componentType" : 5126,
      "count" : 360,
      "type" : "VEC2"
    }
  ]
}
