{
  "asset" : {
    "generator" : "UE Viewer (umodel) build 1579 based",
    "version" : "2.0"
  },
  "scene" : 0,
  "scenes" : [
    {
      "nodes" : [ 0 ]
    }
  ],
  "nodes" : [
    {
      "name" : "S_Envi_Fyz_Building_64c",
      "mesh" : 0
    }
  ],
  "materials" : [
    {
      "name" : "MI_Envi_Fyz_Wall_02e",
      "pbrMetallicRoughness" : {
        "baseColorFactor" : [ 0.3, 0.3, 0.3, 1.0 ],
        "metallicFactor" : 0.1,
        "roughnessFactor" : 0.5
      }
    },
    {
      "name" : "MI_Envi_Fyz_Wall_01h",
      "pbrMetallicRoughness" : {
        "baseColorFactor" : [ 0.9, 0.3, 0.3, 1.0 ],
        "metallicFactor" : 0.1,
        "roughnessFactor" : 0.5
      }
    }
  ],
  "meshes" : [
    {
      "primitives" : [
        {
          "attributes" : {
            "POSITION" : 1,
            "NORMAL" : 2,
            "TANGENT" : 3,
            "TEXCOORD_0" : 4,
            "TEXCOORD_1" : 5,
            "TEXCOORD_2" : 6,
            "TEXCOORD_3" : 7
          },
          "indices" : 0,
          "material" : 0
        },
        {
          "attributes" : {
            "POSITION" : 9,
            "NORMAL" : 10,
            "TANGENT" : 11,
            "TEXCOORD_0" : 12,
            "TEXCOORD_1" : 13,
            "TEXCOORD_2" : 14,
            "TEXCOORD_3" : 15
          },
          "indices" : 8,
          "material" : 1
        }
      ],
      "name" : "S_Envi_Fyz_Building_64c"
    }
  ],
  "buffers" : [
    {
      "uri" : "S_Envi_Fyz_Building_64c.bin",
      "byteLength" : 49364
    }
  ],
  "bufferViews" : [
    {
      "buffer" : 0,
      "byteOffset" : 0,
      "byteLength" : 4844
    },
    {
      "buffer" : 0,
      "byteOffset" : 4844,
      "byteLength" : 6408
    },
    {
      "buffer" : 0,
      "byteOffset" : 11252,
      "byteLength" : 6408
    },
    {
      "buffer" : 0,
      "byteOffset" : 17660,
      "byteLength" : 8544
    },
    {
      "buffer" : 0,
      "byteOffset" : 26204,
      "byteLength" : 4272
    },
    {
      "buffer" : 0,
      "byteOffset" : 30476,
      "byteLength" : 4272
    },
    {
      "buffer" : 0,
      "byteOffset" : 34748,
      "byteLength" : 4272
    },
    {
      "buffer" : 0,
      "byteOffset" : 39020,
      "byteLength" : 4272
    },
    {
      "buffer" : 0,
      "byteOffset" : 43292,
      "byteLength" : 600
    },
    {
      "buffer" : 0,
      "byteOffset" : 43892,
      "byteLength" : 912
    },
    {
      "buffer" : 0,
      "byteOffset" : 44804,
      "byteLength" : 912
    },
    {
      "buffer" : 0,
      "byteOffset" : 45716,
      "byteLength" : 1216
    },
    {
      "buffer" : 0,
      "byteOffset" : 46932,
      "byteLength" : 608
    },
    {
      "buffer" : 0,
      "byteOffset" : 47540,
      "byteLength" : 608
    },
    {
      "buffer" : 0,
      "byteOffset" : 48148,
      "byteLength" : 608
    },
    {
      "buffer" : 0,
      "byteOffset" : 48756,
      "byteLength" : 608
    }
  ],
  "accessors" : [
    {
      "bufferView" : 0,
      "componentType" : 5123,
      "count" : 2421,
      "type" : "SCALAR"
    },
    {
      "bufferView" : 1,
      "min" : [ -72.9515, 0.0646228, -64.2422 ],
      "max" : [ -47.5499, 15.4436, -38.3391 ],
      "componentType" : 5126,
      "count" : 534,
      "type" : "VEC3"
    },
    {
      "bufferView" : 2,
      "componentType" : 5126,
      "count" : 534,
      "type" : "VEC3"
    },
    {
      "bufferView" : 3,
      "componentType" : 5126,
      "count" : 534,
      "type" : "VEC4"
    },
    {
      "bufferView" : 4,
      "componentType" : 5126,
      "count" : 534,
      "type" : "VEC2"
    },
    {
      "bufferView" : 5,
      "componentType" : 5126,
      "count" : 534,
      "type" : "VEC2"
    },
    {
      "bufferView" : 6,
      "componentType" : 5126,
      "count" : 534,
      "type" : "VEC2"
    },
    {
      "bufferView" : 7,
      "componentType" : 5126,
      "count" : 534,
      "type" : "VEC2"
    },
    {
      "bufferView" : 8,
      "componentType" : 5123,
      "count" : 300,
      "type" : "SCALAR"
    },
    {
      "bufferView" : 9,
      "min" : [ -57.2015, 5.05154, -55.7132 ],
      "max" : [ -47.5499, 8.98489, -55.6859 ],
      "componentType" : 5126,
      "count" : 76,
      "type" : "VEC3"
    },
    {
      "bufferView" : 10,
      "componentType" : 5126,
      "count" : 76,
      "type" : "VEC3"
    },
    {
      "bufferView" : 11,
      "componentType" : 5126,
      "count" : 76,
      "type" : "VEC4"
    },
    {
      "bufferView" : 12,
      "componentType" : 5126,
      "count" : 76,
      "type" : "VEC2"
    },
    {
      "bufferView" : 13,
      "componentType" : 5126,
      "count" : 76,
      "type" : "VEC2"
    },
    {
      "bufferView" : 14,
      "componentType" : 5126,
      "count" : 76,
      "type" : "VEC2"
    },
    {
      "bufferView" : 15,
      "componentType" : 5126,
      "count" : 76,
      "type" : "VEC2"
    }
  ]
}
