{
  "asset" : {
    "generator" : "UE Viewer (umodel) build 1579 based",
    "version" : "2.0"
  },
  "scene" : 0,
  "scenes" : [
    {
      "nodes" : [ 0 ]
    }
  ],
  "nodes" : [
    {
      "name" : "S_Envi_Fyz_Grass_Merge_04a",
      "mesh" : 0
    }
  ],
  "materials" : [
    {
      "name" : "MI_Envi_Foliage_shrub_08",
      "pbrMetallicRoughness" : {
        "baseColorFactor" : [ 0.3, 0.3, 0.3, 1.0 ],
        "metallicFactor" : 0.1,
        "roughnessFactor" : 0.5
      }
    }
  ],
  "meshes" : [
    {
      "primitives" : [
        {
          "attributes" : {
            "POSITION" : 1,
            "NORMAL" : 2,
            "TANGENT" : 3,
            "TEXCOORD_0" : 4,
            "TEXCOORD_1" : 5
          },
          "indices" : 0,
          "material" : 0
        }
      ],
      "name" : "S_Envi_Fyz_Grass_Merge_04a"
    }
  ],
  "buffers" : [
    {
      "uri" : "S_Envi_Fyz_Grass_Merge_04a.bin",
      "byteLength" : 740580
    }
  ],
  "bufferViews" : [
    {
      "buffer" : 0,
      "byteOffset" : 0,
      "byteLength" : 55868
    },
    {
      "buffer" : 0,
      "byteOffset" : 55868,
      "byteLength" : 146724
    },
    {
      "buffer" : 0,
      "byteOffset" : 202592,
      "byteLength" : 146724
    },
    {
      "buffer" : 0,
      "byteOffset" : 349316,
      "byteLength" : 195632
    },
    {
      "buffer" : 0,
      "byteOffset" : 544948,
      "byteLength" : 97816
    },
    {
      "buffer" : 0,
      "byteOffset" : 642764,
      "byteLength" : 97816
    }
  ],
  "accessors" : [
    {
      "bufferView" : 0,
      "componentType" : 5123,
      "count" : 27933,
      "type" : "SCALAR"
    },
    {
      "bufferView" : 1,
      "min" : [ -21.3332, 4.59473, -13.9643 ],
      "max" : [ 4.6929, 6.08168, -11.6791 ],
      "componentType" : 5126,
      "count" : 12227,
      "type" : "VEC3"
    },
    {
      "bufferView" : 2,
      "componentType" : 5126,
      "count" : 12227,
      "type" : "VEC3"
    },
    {
      "bufferView" : 3,
      "componentType" : 5126,
      "count" : 12227,
      "type" : "VEC4"
    },
    {
      "bufferView" : 4,
      "componentType" : 5126,
      "count" : 12227,
      "type" : "VEC2"
    },
    {
      "bufferView" : 5,
      "componentType" : 5126,
      "count" : 12227,
      "type" : "VEC2"
    }
  ]
}
