{
  "asset" : {
    "generator" : "UE Viewer (umodel) build 1579 based",
    "version" : "2.0"
  },
  "scene" : 0,
  "scenes" : [
    {
      "nodes" : [ 0 ]
    }
  ],
  "nodes" : [
    {
      "name" : "S_Envi_Fyz_Building_108i",
      "mesh" : 0
    }
  ],
  "materials" : [
    {
      "name" : "MI_Envi_Common_HBuilding_03a",
      "pbrMetallicRoughness" : {
        "baseColorFactor" : [ 0.3, 0.3, 0.3, 1.0 ],
        "metallicFactor" : 0.1,
        "roughnessFactor" : 0.5
      }
    }
  ],
  "meshes" : [
    {
      "primitives" : [
        {
          "attributes" : {
            "POSITION" : 1,
            "NORMAL" : 2,
            "TANGENT" : 3,
            "TEXCOORD_0" : 4,
            "TEXCOORD_1" : 5
          },
          "indices" : 0,
          "material" : 0
        }
      ],
      "name" : "S_Envi_Fyz_Building_108i"
    }
  ],
  "buffers" : [
    {
      "uri" : "S_Envi_Fyz_Building_108i.bin",
      "byteLength" : 1184
    }
  ],
  "bufferViews" : [
    {
      "buffer" : 0,
      "byteOffset" : 0,
      "byteLength" : 120
    },
    {
      "buffer" : 0,
      "byteOffset" : 120,
      "byteLength" : 228
    },
    {
      "buffer" : 0,
      "byteOffset" : 348,
      "byteLength" : 228
    },
    {
      "buffer" : 0,
      "byteOffset" : 576,
      "byteLength" : 304
    },
    {
      "buffer" : 0,
      "byteOffset" : 880,
      "byteLength" : 152
    },
    {
      "buffer" : 0,
      "byteOffset" : 1032,
      "byteLength" : 152
    }
  ],
  "accessors" : [
    {
      "bufferView" : 0,
      "componentType" : 5123,
      "count" : 60,
      "type" : "SCALAR"
    },
    {
      "bufferView" : 1,
      "min" : [ -11.9795, 7.24792e-07, -11.5988 ],
      "max" : [ 7.18393, 7.24792e-07, 10.2634 ],
      "componentType" : 5126,
      "count" : 19,
      "type" : "VEC3"
    },
    {
      "bufferView" : 2,
      "componentType" : 5126,
      "count" : 19,
      "type" : "VEC3"
    },
    {
      "bufferView" : 3,
      "componentType" : 5126,
      "count" : 19,
      "type" : "VEC4"
    },
    {
      "bufferView" : 4,
      "componentType" : 5126,
      "count" : 19,
      "type" : "VEC2"
    },
    {
      "bufferView" : 5,
      "componentType" : 5126,
      "count" : 19,
      "type" : "VEC2"
    }
  ]
}
