{
  "asset" : {
    "generator" : "UE Viewer (umodel) build 1579 based",
    "version" : "2.0"
  },
  "scene" : 0,
  "scenes" : [
    {
      "nodes" : [ 0 ]
    }
  ],
  "nodes" : [
    {
      "name" : "S_Envi_Fyz_Building_105t",
      "mesh" : 0
    }
  ],
  "materials" : [
    {
      "name" : "MI_Envi_Umeda_Base_Ladder_01",
      "pbrMetallicRoughness" : {
        "baseColorFactor" : [ 0.3, 0.3, 0.3, 1.0 ],
        "metallicFactor" : 0.1,
        "roughnessFactor" : 0.5
      }
    },
    {
      "name" : "MI_Envi_Common_Wall_02a",
      "pbrMetallicRoughness" : {
        "baseColorFactor" : [ 0.9, 0.3, 0.3, 1.0 ],
        "metallicFactor" : 0.1,
        "roughnessFactor" : 0.5
      }
    },
    {
      "name" : "MI_Envi_Olgk_Platform_14d",
      "pbrMetallicRoughness" : {
        "baseColorFactor" : [ 0.3, 0.9, 0.3, 1.0 ],
        "metallicFactor" : 0.1,
        "roughnessFactor" : 0.5
      }
    }
  ],
  "meshes" : [
    {
      "primitives" : [
        {
          "attributes" : {
            "POSITION" : 1,
            "NORMAL" : 2,
            "TANGENT" : 3,
            "TEXCOORD_0" : 4,
            "TEXCOORD_1" : 5,
            "TEXCOORD_2" : 6,
            "TEXCOORD_3" : 7
          },
          "indices" : 0,
          "material" : 0
        },
        {
          "attributes" : {
            "POSITION" : 9,
            "NORMAL" : 10,
            "TANGENT" : 11,
            "TEXCOORD_0" : 12,
            "TEXCOORD_1" : 13,
            "TEXCOORD_2" : 14,
            "TEXCOORD_3" : 15
          },
          "indices" : 8,
          "material" : 1
        },
        {
          "attributes" : {
            "POSITION" : 17,
            "NORMAL" : 18,
            "TANGENT" : 19,
            "TEXCOORD_0" : 20,
            "TEXCOORD_1" : 21,
            "TEXCOORD_2" : 22,
            "TEXCOORD_3" : 23
          },
          "indices" : 16,
          "material" : 2
        }
      ],
      "name" : "S_Envi_Fyz_Building_105t"
    }
  ],
  "buffers" : [
    {
      "uri" : "S_Envi_Fyz_Building_105t.bin",
      "byteLength" : 22176
    }
  ],
  "bufferViews" : [
    {
      "buffer" : 0,
      "byteOffset" : 0,
      "byteLength" : 168
    },
    {
      "buffer" : 0,
      "byteOffset" : 168,
      "byteLength" : 672
    },
    {
      "buffer" : 0,
      "byteOffset" : 840,
      "byteLength" : 672
    },
    {
      "buffer" : 0,
      "byteOffset" : 1512,
      "byteLength" : 896
    },
    {
      "buffer" : 0,
      "byteOffset" : 2408,
      "byteLength" : 448
    },
    {
      "buffer" : 0,
      "byteOffset" : 2856,
      "byteLength" : 448
    },
    {
      "buffer" : 0,
      "byteOffset" : 3304,
      "byteLength" : 448
    },
    {
      "buffer" : 0,
      "byteOffset" : 3752,
      "byteLength" : 448
    },
    {
      "buffer" : 0,
      "byteOffset" : 4200,
      "byteLength" : 432
    },
    {
      "buffer" : 0,
      "byteOffset" : 4632,
      "byteLength" : 1824
    },
    {
      "buffer" : 0,
      "byteOffset" : 6456,
      "byteLength" : 1824
    },
    {
      "buffer" : 0,
      "byteOffset" : 8280,
      "byteLength" : 2432
    },
    {
      "buffer" : 0,
      "byteOffset" : 10712,
      "byteLength" : 1216
    },
    {
      "buffer" : 0,
      "byteOffset" : 11928,
      "byteLength" : 1216
    },
    {
      "buffer" : 0,
      "byteOffset" : 13144,
      "byteLength" : 1216
    },
    {
      "buffer" : 0,
      "byteOffset" : 14360,
      "byteLength" : 1216
    },
    {
      "buffer" : 0,
      "byteOffset" : 15576,
      "byteLength" : 264
    },
    {
      "buffer" : 0,
      "byteOffset" : 15840,
      "byteLength" : 1056
    },
    {
      "buffer" : 0,
      "byteOffset" : 16896,
      "byteLength" : 1056
    },
    {
      "buffer" : 0,
      "byteOffset" : 17952,
      "byteLength" : 1408
    },
    {
      "buffer" : 0,
      "byteOffset" : 19360,
      "byteLength" : 704
    },
    {
      "buffer" : 0,
      "byteOffset" : 20064,
      "byteLength" : 704
    },
    {
      "buffer" : 0,
      "byteOffset" : 20768,
      "byteLength" : 704
    },
    {
      "buffer" : 0,
      "byteOffset" : 21472,
      "byteLength" : 704
    }
  ],
  "accessors" : [
    {
      "bufferView" : 0,
      "componentType" : 5123,
      "count" : 84,
      "type" : "SCALAR"
    },
    {
      "bufferView" : 1,
      "min" : [ -6.21587, -1.87021e-07, -1.47117 ],
      "max" : [ 8.8501e-06, 1.77722, 9.35105e-08 ],
      "componentType" : 5126,
      "count" : 56,
      "type" : "VEC3"
    },
    {
      "bufferView" : 2,
      "componentType" : 5126,
      "count" : 56,
      "type" : "VEC3"
    },
    {
      "bufferView" : 3,
      "componentType" : 5126,
      "count" : 56,
      "type" : "VEC4"
    },
    {
      "bufferView" : 4,
      "componentType" : 5126,
      "count" : 56,
      "type" : "VEC2"
    },
    {
      "bufferView" : 5,
      "componentType" : 5126,
      "count" : 56,
      "type" : "VEC2"
    },
    {
      "bufferView" : 6,
      "componentType" : 5126,
      "count" : 56,
      "type" : "VEC2"
    },
    {
      "bufferView" : 7,
      "componentType" : 5126,
      "count" : 56,
      "type" : "VEC2"
    },
    {
      "bufferView" : 8,
      "componentType" : 5123,
      "count" : 216,
      "type" : "SCALAR"
    },
    {
      "bufferView" : 9,
      "min" : [ -6.21587, -3.87745e-16, -0.0672394 ],
      "max" : [ 1.2207e-06, 1.44653, 0.0672394 ],
      "componentType" : 5126,
      "count" : 152,
      "type" : "VEC3"
    },
    {
      "bufferView" : 10,
      "componentType" : 5126,
      "count" : 152,
      "type" : "VEC3"
    },
    {
      "bufferView" : 11,
      "componentType" : 5126,
      "count" : 152,
      "type" : "VEC4"
    },
    {
      "bufferView" : 12,
      "componentType" : 5126,
      "count" : 152,
      "type" : "VEC2"
    },
    {
      "bufferView" : 13,
      "componentType" : 5126,
      "count" : 152,
      "type" : "VEC2"
    },
    {
      "bufferView" : 14,
      "componentType" : 5126,
      "count" : 152,
      "type" : "VEC2"
    },
    {
      "bufferView" : 15,
      "componentType" : 5126,
      "count" : 152,
      "type" : "VEC2"
    },
    {
      "bufferView" : 16,
      "componentType" : 5123,
      "count" : 132,
      "type" : "SCALAR"
    },
    {
      "bufferView" : 17,
      "min" : [ -6.21588, -1.87021e-07, -1.67831 ],
      "max" : [ 1.15018e-05, 1.77512, 9.35105e-08 ],
      "componentType" : 5126,
      "count" : 88,
      "type" : "VEC3"
    },
    {
      "bufferView" : 18,
      "componentType" : 5126,
      "count" : 88,
      "type" : "VEC3"
    },
    {
      "bufferView" : 19,
      "componentType" : 5126,
      "count" : 88,
      "type" : "VEC4"
    },
    {
      "bufferView" : 20,
      "componentType" : 5126,
      "count" : 88,
      "type" : "VEC2"
    },
    {
      "bufferView" : 21,
      "componentType" : 5126,
      "count" : 88,
      "type" : "VEC2"
    },
    {
      "bufferView" : 22,
      "componentType" : 5126,
      "count" : 88,
      "type" : "VEC2"
    },
    {
      "bufferView" : 23,
      "componentType" : 5126,
      "count" : 88,
      "type" : "VEC2"
    }
  ]
}
