{
  "asset" : {
    "generator" : "UE Viewer (umodel) build 1579 based",
    "version" : "2.0"
  },
  "scene" : 0,
  "scenes" : [
    {
      "nodes" : [ 0 ]
    }
  ],
  "nodes" : [
    {
      "name" : "S_Envi_Fyz_Building_115a",
      "mesh" : 0
    }
  ],
  "materials" : [
    {
      "name" : "MI_Envi_Fyz_Floor_04b",
      "pbrMetallicRoughness" : {
        "baseColorFactor" : [ 0.3, 0.3, 0.3, 1.0 ],
        "metallicFactor" : 0.1,
        "roughnessFactor" : 0.5
      }
    },
    {
      "name" : "MI_Envi_commontrim_04",
      "pbrMetallicRoughness" : {
        "baseColorFactor" : [ 0.9, 0.3, 0.3, 1.0 ],
        "metallicFactor" : 0.1,
        "roughnessFactor" : 0.5
      }
    },
    {
      "name" : "MI_Envi_Fyz_Floor_04a",
      "pbrMetallicRoughness" : {
        "baseColorFactor" : [ 0.3, 0.9, 0.3, 1.0 ],
        "metallicFactor" : 0.1,
        "roughnessFactor" : 0.5
      }
    }
  ],
  "meshes" : [
    {
      "primitives" : [
        {
          "attributes" : {
            "POSITION" : 1,
            "NORMAL" : 2,
            "TANGENT" : 3,
            "TEXCOORD_0" : 4,
            "TEXCOORD_1" : 5,
            "TEXCOORD_2" : 6
          },
          "indices" : 0,
          "material" : 0
        },
        {
          "attributes" : {
            "POSITION" : 8,
            "NORMAL" : 9,
            "TANGENT" : 10,
            "TEXCOORD_0" : 11,
            "TEXCOORD_1" : 12,
            "TEXCOORD_2" : 13
          },
          "indices" : 7,
          "material" : 1
        },
        {
          "attributes" : {
            "POSITION" : 15,
            "NORMAL" : 16,
            "TANGENT" : 17,
            "TEXCOORD_0" : 18,
            "TEXCOORD_1" : 19,
            "TEXCOORD_2" : 20
          },
          "indices" : 14,
          "material" : 2
        }
      ],
      "name" : "S_Envi_Fyz_Building_115a"
    }
  ],
  "buffers" : [
    {
      "uri" : "S_Envi_Fyz_Building_115a.bin",
      "byteLength" : 47600
    }
  ],
  "bufferViews" : [
    {
      "buffer" : 0,
      "byteOffset" : 0,
      "byteLength" : 2976
    },
    {
      "buffer" : 0,
      "byteOffset" : 2976,
      "byteLength" : 4068
    },
    {
      "buffer" : 0,
      "byteOffset" : 7044,
      "byteLength" : 4068
    },
    {
      "buffer" : 0,
      "byteOffset" : 11112,
      "byteLength" : 5424
    },
    {
      "buffer" : 0,
      "byteOffset" : 16536,
      "byteLength" : 2712
    },
    {
      "buffer" : 0,
      "byteOffset" : 19248,
      "byteLength" : 2712
    },
    {
      "buffer" : 0,
      "byteOffset" : 21960,
      "byteLength" : 2712
    },
    {
      "buffer" : 0,
      "byteOffset" : 24672,
      "byteLength" : 696
    },
    {
      "buffer" : 0,
      "byteOffset" : 25368,
      "byteLength" : 1488
    },
    {
      "buffer" : 0,
      "byteOffset" : 26856,
      "byteLength" : 1488
    },
    {
      "buffer" : 0,
      "byteOffset" : 28344,
      "byteLength" : 1984
    },
    {
      "buffer" : 0,
      "byteOffset" : 30328,
      "byteLength" : 992
    },
    {
      "buffer" : 0,
      "byteOffset" : 31320,
      "byteLength" : 992
    },
    {
      "buffer" : 0,
      "byteOffset" : 32312,
      "byteLength" : 992
    },
    {
      "buffer" : 0,
      "byteOffset" : 33304,
      "byteLength" : 1944
    },
    {
      "buffer" : 0,
      "byteOffset" : 35248,
      "byteLength" : 2316
    },
    {
      "buffer" : 0,
      "byteOffset" : 37564,
      "byteLength" : 2316
    },
    {
      "buffer" : 0,
      "byteOffset" : 39880,
      "byteLength" : 3088
    },
    {
      "buffer" : 0,
      "byteOffset" : 42968,
      "byteLength" : 1544
    },
    {
      "buffer" : 0,
      "byteOffset" : 44512,
      "byteLength" : 1544
    },
    {
      "buffer" : 0,
      "byteOffset" : 46056,
      "byteLength" : 1544
    }
  ],
  "accessors" : [
    {
      "bufferView" : 0,
      "componentType" : 5123,
      "count" : 1488,
      "type" : "SCALAR"
    },
    {
      "bufferView" : 1,
      "min" : [ -2.78285, -2.59595e-07, -3.79286 ],
      "max" : [ 3.47856, 1.65791e-07, 5.93885 ],
      "componentType" : 5126,
      "count" : 339,
      "type" : "VEC3"
    },
    {
      "bufferView" : 2,
      "componentType" : 5126,
      "count" : 339,
      "type" : "VEC3"
    },
    {
      "bufferView" : 3,
      "componentType" : 5126,
      "count" : 339,
      "type" : "VEC4"
    },
    {
      "bufferView" : 4,
      "componentType" : 5126,
      "count" : 339,
      "type" : "VEC2"
    },
    {
      "bufferView" : 5,
      "componentType" : 5126,
      "count" : 339,
      "type" : "VEC2"
    },
    {
      "bufferView" : 6,
      "componentType" : 5126,
      "count" : 339,
      "type" : "VEC2"
    },
    {
      "bufferView" : 7,
      "componentType" : 5123,
      "count" : 348,
      "type" : "SCALAR"
    },
    {
      "bufferView" : 8,
      "min" : [ -1.52413, -2.11305e-07, -2.65965 ],
      "max" : [ 2.4041, 1.16257e-07, 4.8341 ],
      "componentType" : 5126,
      "count" : 124,
      "type" : "VEC3"
    },
    {
      "bufferView" : 9,
      "componentType" : 5126,
      "count" : 124,
      "type" : "VEC3"
    },
    {
      "bufferView" : 10,
      "componentType" : 5126,
      "count" : 124,
      "type" : "VEC4"
    },
    {
      "bufferView" : 11,
      "componentType" : 5126,
      "count" : 124,
      "type" : "VEC2"
    },
    {
      "bufferView" : 12,
      "componentType" : 5126,
      "count" : 124,
      "type" : "VEC2"
    },
    {
      "bufferView" : 13,
      "componentType" : 5126,
      "count" : 124,
      "type" : "VEC2"
    },
    {
      "bufferView" : 14,
      "componentType" : 5123,
      "count" : 972,
      "type" : "SCALAR"
    },
    {
      "bufferView" : 15,
      "min" : [ -1.17413, -1.96006e-07, -2.28812 ],
      "max" : [ 2.03275, 1.00017e-07, 4.4841 ],
      "componentType" : 5126,
      "count" : 193,
      "type" : "VEC3"
    },
    {
      "bufferView" : 16,
      "componentType" : 5126,
      "count" : 193,
      "type" : "VEC3"
    },
    {
      "bufferView" : 17,
      "componentType" : 5126,
      "count" : 193,
      "type" : "VEC4"
    },
    {
      "bufferView" : 18,
      "componentType" : 5126,
      "count" : 193,
      "type" : "VEC2"
    },
    {
      "bufferView" : 19,
      "componentType" : 5126,
      "count" : 193,
      "type" : "VEC2"
    },
    {
      "bufferView" : 20,
      "componentType" : 5126,
      "count" : 193,
      "type" : "VEC2"
    }
  ]
}
