{
  "asset" : {
    "generator" : "UE Viewer (umodel) build 1579 based",
    "version" : "2.0"
  },
  "scene" : 0,
  "scenes" : [
    {
      "nodes" : [ 0 ]
    }
  ],
  "nodes" : [
    {
      "name" : "S_Envi_Fyz_Grass_Merge_01a",
      "mesh" : 0
    }
  ],
  "materials" : [
    {
      "name" : "MI_Envi_Foliage_shrub_08",
      "pbrMetallicRoughness" : {
        "baseColorFactor" : [ 0.3, 0.3, 0.3, 1.0 ],
        "metallicFactor" : 0.1,
        "roughnessFactor" : 0.5
      }
    }
  ],
  "meshes" : [
    {
      "primitives" : [
        {
          "attributes" : {
            "POSITION" : 1,
            "NORMAL" : 2,
            "TANGENT" : 3,
            "TEXCOORD_0" : 4,
            "TEXCOORD_1" : 5
          },
          "indices" : 0,
          "material" : 0
        }
      ],
      "name" : "S_Envi_Fyz_Grass_Merge_01a"
    }
  ],
  "buffers" : [
    {
      "uri" : "S_Envi_Fyz_Grass_Merge_01a.bin",
      "byteLength" : 238020
    }
  ],
  "bufferViews" : [
    {
      "buffer" : 0,
      "byteOffset" : 0,
      "byteLength" : 19284
    },
    {
      "buffer" : 0,
      "byteOffset" : 19284,
      "byteLength" : 46872
    },
    {
      "buffer" : 0,
      "byteOffset" : 66156,
      "byteLength" : 46872
    },
    {
      "buffer" : 0,
      "byteOffset" : 113028,
      "byteLength" : 62496
    },
    {
      "buffer" : 0,
      "byteOffset" : 175524,
      "byteLength" : 31248
    },
    {
      "buffer" : 0,
      "byteOffset" : 206772,
      "byteLength" : 31248
    }
  ],
  "accessors" : [
    {
      "bufferView" : 0,
      "componentType" : 5123,
      "count" : 9642,
      "type" : "SCALAR"
    },
    {
      "bufferView" : 1,
      "min" : [ 40.6612, 4.68415, -70.2796 ],
      "max" : [ 57.4478, 9.09568, -63.3816 ],
      "componentType" : 5126,
      "count" : 3906,
      "type" : "VEC3"
    },
    {
      "bufferView" : 2,
      "componentType" : 5126,
      "count" : 3906,
      "type" : "VEC3"
    },
    {
      "bufferView" : 3,
      "componentType" : 5126,
      "count" : 3906,
      "type" : "VEC4"
    },
    {
      "bufferView" : 4,
      "componentType" : 5126,
      "count" : 3906,
      "type" : "VEC2"
    },
    {
      "bufferView" : 5,
      "componentType" : 5126,
      "count" : 3906,
      "type" : "VEC2"
    }
  ]
}
