{
  "asset" : {
    "generator" : "UE Viewer (umodel) build 1579 based",
    "version" : "2.0"
  },
  "scene" : 0,
  "scenes" : [
    {
      "nodes" : [ 0 ]
    }
  ],
  "nodes" : [
    {
      "name" : "S_Envi_Fyz_BuildingRoof_02b",
      "mesh" : 0
    }
  ],
  "materials" : [
    {
      "name" : "MI_Envi_Common_Rooftop_01a",
      "pbrMetallicRoughness" : {
        "baseColorFactor" : [ 0.3, 0.3, 0.3, 1.0 ],
        "metallicFactor" : 0.1,
        "roughnessFactor" : 0.5
      }
    }
  ],
  "meshes" : [
    {
      "primitives" : [
        {
          "attributes" : {
            "POSITION" : 1,
            "NORMAL" : 2,
            "TANGENT" : 3,
            "TEXCOORD_0" : 4,
            "TEXCOORD_1" : 5,
            "TEXCOORD_2" : 6,
            "TEXCOORD_3" : 7
          },
          "indices" : 0,
          "material" : 0
        }
      ],
      "name" : "S_Envi_Fyz_BuildingRoof_02b"
    }
  ],
  "buffers" : [
    {
      "uri" : "S_Envi_Fyz_BuildingRoof_02b.bin",
      "byteLength" : 71564
    }
  ],
  "bufferViews" : [
    {
      "buffer" : 0,
      "byteOffset" : 0,
      "byteLength" : 3524
    },
    {
      "buffer" : 0,
      "byteOffset" : 3524,
      "byteLength" : 11340
    },
    {
      "buffer" : 0,
      "byteOffset" : 14864,
      "byteLength" : 11340
    },
    {
      "buffer" : 0,
      "byteOffset" : 26204,
      "byteLength" : 15120
    },
    {
      "buffer" : 0,
      "byteOffset" : 41324,
      "byteLength" : 7560
    },
    {
      "buffer" : 0,
      "byteOffset" : 48884,
      "byteLength" : 7560
    },
    {
      "buffer" : 0,
      "byteOffset" : 56444,
      "byteLength" : 7560
    },
    {
      "buffer" : 0,
      "byteOffset" : 64004,
      "byteLength" : 7560
    }
  ],
  "accessors" : [
    {
      "bufferView" : 0,
      "componentType" : 5123,
      "count" : 1761,
      "type" : "SCALAR"
    },
    {
      "bufferView" : 1,
      "min" : [ -110.462, 12.4001, -63.4546 ],
      "max" : [ -76.3828, 22.0503, 5.8784 ],
      "componentType" : 5126,
      "count" : 945,
      "type" : "VEC3"
    },
    {
      "bufferView" : 2,
      "componentType" : 5126,
      "count" : 945,
      "type" : "VEC3"
    },
    {
      "bufferView" : 3,
      "componentType" : 5126,
      "count" : 945,
      "type" : "VEC4"
    },
    {
      "bufferView" : 4,
      "componentType" : 5126,
      "count" : 945,
      "type" : "VEC2"
    },
    {
      "bufferView" : 5,
      "componentType" : 5126,
      "count" : 945,
      "type" : "VEC2"
    },
    {
      "bufferView" : 6,
      "componentType" : 5126,
      "count" : 945,
      "type" : "VEC2"
    },
    {
      "bufferView" : 7,
      "componentType" : 5126,
      "count" : 945,
      "type" : "VEC2"
    }
  ]
}
