{
  "asset" : {
    "generator" : "UE Viewer (umodel) build 1579 based",
    "version" : "2.0"
  },
  "scene" : 0,
  "scenes" : [
    {
      "nodes" : [ 0 ]
    }
  ],
  "nodes" : [
    {
      "name" : "S_Envi_Fyz_Building_89o",
      "mesh" : 0
    }
  ],
  "materials" : [
    {
      "name" : "MI_Envi_Common_HBuilding_03b",
      "pbrMetallicRoughness" : {
        "baseColorFactor" : [ 0.3, 0.3, 0.3, 1.0 ],
        "metallicFactor" : 0.1,
        "roughnessFactor" : 0.5
      }
    },
    {
      "name" : "MI_Envi_Fyz_Store_01f",
      "pbrMetallicRoughness" : {
        "baseColorFactor" : [ 0.9, 0.3, 0.3, 1.0 ],
        "metallicFactor" : 0.1,
        "roughnessFactor" : 0.5
      }
    },
    {
      "name" : "MI_PM_Glass_02i",
      "pbrMetallicRoughness" : {
        "baseColorFactor" : [ 0.3, 0.9, 0.3, 1.0 ],
        "metallicFactor" : 0.1,
        "roughnessFactor" : 0.5
      }
    }
  ],
  "meshes" : [
    {
      "primitives" : [
        {
          "attributes" : {
            "POSITION" : 1,
            "NORMAL" : 2,
            "TANGENT" : 3,
            "TEXCOORD_0" : 4,
            "TEXCOORD_1" : 5,
            "TEXCOORD_2" : 6
          },
          "indices" : 0,
          "material" : 0
        },
        {
          "attributes" : {
            "POSITION" : 8,
            "NORMAL" : 9,
            "TANGENT" : 10,
            "TEXCOORD_0" : 11,
            "TEXCOORD_1" : 12,
            "TEXCOORD_2" : 13
          },
          "indices" : 7,
          "material" : 1
        },
        {
          "attributes" : {
            "POSITION" : 15,
            "NORMAL" : 16,
            "TANGENT" : 17,
            "TEXCOORD_0" : 18,
            "TEXCOORD_1" : 19,
            "TEXCOORD_2" : 20
          },
          "indices" : 14,
          "material" : 2
        }
      ],
      "name" : "S_Envi_Fyz_Building_89o"
    }
  ],
  "buffers" : [
    {
      "uri" : "S_Envi_Fyz_Building_89o.bin",
      "byteLength" : 10404
    }
  ],
  "bufferViews" : [
    {
      "buffer" : 0,
      "byteOffset" : 0,
      "byteLength" : 420
    },
    {
      "buffer" : 0,
      "byteOffset" : 420,
      "byteLength" : 1068
    },
    {
      "buffer" : 0,
      "byteOffset" : 1488,
      "byteLength" : 1068
    },
    {
      "buffer" : 0,
      "byteOffset" : 2556,
      "byteLength" : 1424
    },
    {
      "buffer" : 0,
      "byteOffset" : 3980,
      "byteLength" : 712
    },
    {
      "buffer" : 0,
      "byteOffset" : 4692,
      "byteLength" : 712
    },
    {
      "buffer" : 0,
      "byteOffset" : 5404,
      "byteLength" : 712
    },
    {
      "buffer" : 0,
      "byteOffset" : 6116,
      "byteLength" : 180
    },
    {
      "buffer" : 0,
      "byteOffset" : 6296,
      "byteLength" : 720
    },
    {
      "buffer" : 0,
      "byteOffset" : 7016,
      "byteLength" : 720
    },
    {
      "buffer" : 0,
      "byteOffset" : 7736,
      "byteLength" : 960
    },
    {
      "buffer" : 0,
      "byteOffset" : 8696,
      "byteLength" : 480
    },
    {
      "buffer" : 0,
      "byteOffset" : 9176,
      "byteLength" : 480
    },
    {
      "buffer" : 0,
      "byteOffset" : 9656,
      "byteLength" : 480
    },
    {
      "buffer" : 0,
      "byteOffset" : 10136,
      "byteLength" : 12
    },
    {
      "buffer" : 0,
      "byteOffset" : 10148,
      "byteLength" : 48
    },
    {
      "buffer" : 0,
      "byteOffset" : 10196,
      "byteLength" : 48
    },
    {
      "buffer" : 0,
      "byteOffset" : 10244,
      "byteLength" : 64
    },
    {
      "buffer" : 0,
      "byteOffset" : 10308,
      "byteLength" : 32
    },
    {
      "buffer" : 0,
      "byteOffset" : 10340,
      "byteLength" : 32
    },
    {
      "buffer" : 0,
      "byteOffset" : 10372,
      "byteLength" : 32
    }
  ],
  "accessors" : [
    {
      "bufferView" : 0,
      "componentType" : 5123,
      "count" : 210,
      "type" : "SCALAR"
    },
    {
      "bufferView" : 1,
      "min" : [ -5.94348, -2.29026, -1.74319 ],
      "max" : [ 2.75289, 3.02855, 5.47444 ],
      "componentType" : 5126,
      "count" : 89,
      "type" : "VEC3"
    },
    {
      "bufferView" : 2,
      "componentType" : 5126,
      "count" : 89,
      "type" : "VEC3"
    },
    {
      "bufferView" : 3,
      "componentType" : 5126,
      "count" : 89,
      "type" : "VEC4"
    },
    {
      "bufferView" : 4,
      "componentType" : 5126,
      "count" : 89,
      "type" : "VEC2"
    },
    {
      "bufferView" : 5,
      "componentType" : 5126,
      "count" : 89,
      "type" : "VEC2"
    },
    {
      "bufferView" : 6,
      "componentType" : 5126,
      "count" : 89,
      "type" : "VEC2"
    },
    {
      "bufferView" : 7,
      "componentType" : 5123,
      "count" : 90,
      "type" : "SCALAR"
    },
    {
      "bufferView" : 8,
      "min" : [ -4.8788, -1.59518, -1.74774 ],
      "max" : [ 2.74953, -0.664219, -1.48218 ],
      "componentType" : 5126,
      "count" : 60,
      "type" : "VEC3"
    },
    {
      "bufferView" : 9,
      "componentType" : 5126,
      "count" : 60,
      "type" : "VEC3"
    },
    {
      "bufferView" : 10,
      "componentType" : 5126,
      "count" : 60,
      "type" : "VEC4"
    },
    {
      "bufferView" : 11,
      "componentType" : 5126,
      "count" : 60,
      "type" : "VEC2"
    },
    {
      "bufferView" : 12,
      "componentType" : 5126,
      "count" : 60,
      "type" : "VEC2"
    },
    {
      "bufferView" : 13,
      "componentType" : 5126,
      "count" : 60,
      "type" : "VEC2"
    },
    {
      "bufferView" : 14,
      "componentType" : 5123,
      "count" : 6,
      "type" : "SCALAR"
    },
    {
      "bufferView" : 15,
      "min" : [ -4.88959, -0.712766, -1.70606 ],
      "max" : [ 2.73931, 2.56663, -1.70606 ],
      "componentType" : 5126,
      "count" : 4,
      "type" : "VEC3"
    },
    {
      "bufferView" : 16,
      "componentType" : 5126,
      "count" : 4,
      "type" : "VEC3"
    },
    {
      "bufferView" : 17,
      "componentType" : 5126,
      "count" : 4,
      "type" : "VEC4"
    },
    {
      "bufferView" : 18,
      "componentType" : 5126,
      "count" : 4,
      "type" : "VEC2"
    },
    {
      "bufferView" : 19,
      "componentType" : 5126,
      "count" : 4,
      "type" : "VEC2"
    },
    {
      "bufferView" : 20,
      "componentType" : 5126,
      "count" : 4,
      "type" : "VEC2"
    }
  ]
}
