{
  "asset" : {
    "generator" : "UE Viewer (umodel) build 1579 based",
    "version" : "2.0"
  },
  "scene" : 0,
  "scenes" : [
    {
      "nodes" : [ 0 ]
    }
  ],
  "nodes" : [
    {
      "name" : "S_Envi_Fyz_Building_104s",
      "mesh" : 0
    }
  ],
  "materials" : [
    {
      "name" : "MI_Envi_Fyz_Wall_03c",
      "pbrMetallicRoughness" : {
        "baseColorFactor" : [ 0.3, 0.3, 0.3, 1.0 ],
        "metallicFactor" : 0.1,
        "roughnessFactor" : 0.5
      }
    },
    {
      "name" : "MI_Envi_Common_HBuilding_02a",
      "pbrMetallicRoughness" : {
        "baseColorFactor" : [ 0.9, 0.3, 0.3, 1.0 ],
        "metallicFactor" : 0.1,
        "roughnessFactor" : 0.5
      }
    },
    {
      "name" : "MI_Envi_Common_HBuilding_01a",
      "pbrMetallicRoughness" : {
        "baseColorFactor" : [ 0.3, 0.9, 0.3, 1.0 ],
        "metallicFactor" : 0.1,
        "roughnessFactor" : 0.5
      }
    }
  ],
  "meshes" : [
    {
      "primitives" : [
        {
          "attributes" : {
            "POSITION" : 1,
            "NORMAL" : 2,
            "TANGENT" : 3,
            "TEXCOORD_0" : 4,
            "TEXCOORD_1" : 5
          },
          "indices" : 0,
          "material" : 0
        },
        {
          "attributes" : {
            "POSITION" : 7,
            "NORMAL" : 8,
            "TANGENT" : 9,
            "TEXCOORD_0" : 10,
            "TEXCOORD_1" : 11
          },
          "indices" : 6,
          "material" : 1
        },
        {
          "attributes" : {
            "POSITION" : 13,
            "NORMAL" : 14,
            "TANGENT" : 15,
            "TEXCOORD_0" : 16,
            "TEXCOORD_1" : 17
          },
          "indices" : 12,
          "material" : 2
        }
      ],
      "name" : "S_Envi_Fyz_Building_104s"
    }
  ],
  "buffers" : [
    {
      "uri" : "S_Envi_Fyz_Building_104s.bin",
      "byteLength" : 422900
    }
  ],
  "bufferViews" : [
    {
      "buffer" : 0,
      "byteOffset" : 0,
      "byteLength" : 480
    },
    {
      "buffer" : 0,
      "byteOffset" : 480,
      "byteLength" : 1920
    },
    {
      "buffer" : 0,
      "byteOffset" : 2400,
      "byteLength" : 1920
    },
    {
      "buffer" : 0,
      "byteOffset" : 4320,
      "byteLength" : 2560
    },
    {
      "buffer" : 0,
      "byteOffset" : 6880,
      "byteLength" : 1280
    },
    {
      "buffer" : 0,
      "byteOffset" : 8160,
      "byteLength" : 1280
    },
    {
      "buffer" : 0,
      "byteOffset" : 9440,
      "byteLength" : 4020
    },
    {
      "buffer" : 0,
      "byteOffset" : 13460,
      "byteLength" : 16200
    },
    {
      "buffer" : 0,
      "byteOffset" : 29660,
      "byteLength" : 16200
    },
    {
      "buffer" : 0,
      "byteOffset" : 45860,
      "byteLength" : 21600
    },
    {
      "buffer" : 0,
      "byteOffset" : 67460,
      "byteLength" : 10800
    },
    {
      "buffer" : 0,
      "byteOffset" : 78260,
      "byteLength" : 10800
    },
    {
      "buffer" : 0,
      "byteOffset" : 89060,
      "byteLength" : 24720
    },
    {
      "buffer" : 0,
      "byteOffset" : 113780,
      "byteLength" : 66240
    },
    {
      "buffer" : 0,
      "byteOffset" : 180020,
      "byteLength" : 66240
    },
    {
      "buffer" : 0,
      "byteOffset" : 246260,
      "byteLength" : 88320
    },
    {
      "buffer" : 0,
      "byteOffset" : 334580,
      "byteLength" : 44160
    },
    {
      "buffer" : 0,
      "byteOffset" : 378740,
      "byteLength" : 44160
    }
  ],
  "accessors" : [
    {
      "bufferView" : 0,
      "componentType" : 5123,
      "count" : 240,
      "type" : "SCALAR"
    },
    {
      "bufferView" : 1,
      "min" : [ -6.00029, 1.53996, -5.95684 ],
      "max" : [ 6.00029, 7.41365, 5.95684 ],
      "componentType" : 5126,
      "count" : 160,
      "type" : "VEC3"
    },
    {
      "bufferView" : 2,
      "componentType" : 5126,
      "count" : 160,
      "type" : "VEC3"
    },
    {
      "bufferView" : 3,
      "componentType" : 5126,
      "count" : 160,
      "type" : "VEC4"
    },
    {
      "bufferView" : 4,
      "componentType" : 5126,
      "count" : 160,
      "type" : "VEC2"
    },
    {
      "bufferView" : 5,
      "componentType" : 5126,
      "count" : 160,
      "type" : "VEC2"
    },
    {
      "bufferView" : 6,
      "componentType" : 5123,
      "count" : 2010,
      "type" : "SCALAR"
    },
    {
      "bufferView" : 7,
      "min" : [ -5.9961, 2.64548, -5.99979 ],
      "max" : [ 5.9961, 5.568, 5.99979 ],
      "componentType" : 5126,
      "count" : 1350,
      "type" : "VEC3"
    },
    {
      "bufferView" : 8,
      "componentType" : 5126,
      "count" : 1350,
      "type" : "VEC3"
    },
    {
      "bufferView" : 9,
      "componentType" : 5126,
      "count" : 1350,
      "type" : "VEC4"
    },
    {
      "bufferView" : 10,
      "componentType" : 5126,
      "count" : 1350,
      "type" : "VEC2"
    },
    {
      "bufferView" : 11,
      "componentType" : 5126,
      "count" : 1350,
      "type" : "VEC2"
    },
    {
      "bufferView" : 12,
      "componentType" : 5123,
      "count" : 12360,
      "type" : "SCALAR"
    },
    {
      "bufferView" : 13,
      "min" : [ -6.59172, 1.6617, -6.46699 ],
      "max" : [ 6.59172, 6.23625, 6.46699 ],
      "componentType" : 5126,
      "count" : 5520,
      "type" : "VEC3"
    },
    {
      "bufferView" : 14,
      "componentType" : 5126,
      "count" : 5520,
      "type" : "VEC3"
    },
    {
      "bufferView" : 15,
      "componentType" : 5126,
      "count" : 5520,
      "type" : "VEC4"
    },
    {
      "bufferView" : 16,
      "componentType" : 5126,
      "count" : 5520,
      "type" : "VEC2"
    },
    {
      "bufferView" : 17,
      "componentType" : 5126,
      "count" : 5520,
      "type" : "VEC2"
    }
  ]
}
