{
  "asset" : {
    "generator" : "UE Viewer (umodel) build 1579 based",
    "version" : "2.0"
  },
  "scene" : 0,
  "scenes" : [
    {
      "nodes" : [ 0 ]
    }
  ],
  "nodes" : [
    {
      "name" : "S_Envi_Fyz_Building_63h",
      "mesh" : 0
    }
  ],
  "materials" : [
    {
      "name" : "MI_Envi_Fyz_Wall_02f",
      "pbrMetallicRoughness" : {
        "baseColorFactor" : [ 0.3, 0.3, 0.3, 1.0 ],
        "metallicFactor" : 0.1,
        "roughnessFactor" : 0.5
      }
    }
  ],
  "meshes" : [
    {
      "primitives" : [
        {
          "attributes" : {
            "POSITION" : 1,
            "NORMAL" : 2,
            "TANGENT" : 3,
            "TEXCOORD_0" : 4,
            "TEXCOORD_1" : 5,
            "TEXCOORD_2" : 6,
            "TEXCOORD_3" : 7
          },
          "indices" : 0,
          "material" : 0
        }
      ],
      "name" : "S_Envi_Fyz_Building_63h"
    }
  ],
  "buffers" : [
    {
      "uri" : "S_Envi_Fyz_Building_63h.bin",
      "byteLength" : 51804
    }
  ],
  "bufferViews" : [
    {
      "buffer" : 0,
      "byteOffset" : 0,
      "byteLength" : 5868
    },
    {
      "buffer" : 0,
      "byteOffset" : 5868,
      "byteLength" : 7656
    },
    {
      "buffer" : 0,
      "byteOffset" : 13524,
      "byteLength" : 7656
    },
    {
      "buffer" : 0,
      "byteOffset" : 21180,
      "byteLength" : 10208
    },
    {
      "buffer" : 0,
      "byteOffset" : 31388,
      "byteLength" : 5104
    },
    {
      "buffer" : 0,
      "byteOffset" : 36492,
      "byteLength" : 5104
    },
    {
      "buffer" : 0,
      "byteOffset" : 41596,
      "byteLength" : 5104
    },
    {
      "buffer" : 0,
      "byteOffset" : 46700,
      "byteLength" : 5104
    }
  ],
  "accessors" : [
    {
      "bufferView" : 0,
      "componentType" : 5123,
      "count" : 2934,
      "type" : "SCALAR"
    },
    {
      "bufferView" : 1,
      "min" : [ -46.169, 0.155176, 29.0379 ],
      "max" : [ -30.8666, 10.4208, 49.0743 ],
      "componentType" : 5126,
      "count" : 638,
      "type" : "VEC3"
    },
    {
      "bufferView" : 2,
      "componentType" : 5126,
      "count" : 638,
      "type" : "VEC3"
    },
    {
      "bufferView" : 3,
      "componentType" : 5126,
      "count" : 638,
      "type" : "VEC4"
    },
    {
      "bufferView" : 4,
      "componentType" : 5126,
      "count" : 638,
      "type" : "VEC2"
    },
    {
      "bufferView" : 5,
      "componentType" : 5126,
      "count" : 638,
      "type" : "VEC2"
    },
    {
      "bufferView" : 6,
      "componentType" : 5126,
      "count" : 638,
      "type" : "VEC2"
    },
    {
      "bufferView" : 7,
      "componentType" : 5126,
      "count" : 638,
      "type" : "VEC2"
    }
  ]
}
