{
  "asset" : {
    "generator" : "UE Viewer (umodel) build 1579 based",
    "version" : "2.0"
  },
  "scene" : 0,
  "scenes" : [
    {
      "nodes" : [ 0 ]
    }
  ],
  "nodes" : [
    {
      "name" : "S_Envi_Fyz_Building_108k",
      "mesh" : 0
    }
  ],
  "materials" : [
    {
      "name" : "MI_Envi_Common_HBuilding_03a",
      "pbrMetallicRoughness" : {
        "baseColorFactor" : [ 0.3, 0.3, 0.3, 1.0 ],
        "metallicFactor" : 0.1,
        "roughnessFactor" : 0.5
      }
    }
  ],
  "meshes" : [
    {
      "primitives" : [
        {
          "attributes" : {
            "POSITION" : 1,
            "NORMAL" : 2,
            "TANGENT" : 3,
            "TEXCOORD_0" : 4,
            "TEXCOORD_1" : 5
          },
          "indices" : 0,
          "material" : 0
        }
      ],
      "name" : "S_Envi_Fyz_Building_108k"
    }
  ],
  "buffers" : [
    {
      "uri" : "S_Envi_Fyz_Building_108k.bin",
      "byteLength" : 1296
    }
  ],
  "bufferViews" : [
    {
      "buffer" : 0,
      "byteOffset" : 0,
      "byteLength" : 120
    },
    {
      "buffer" : 0,
      "byteOffset" : 120,
      "byteLength" : 252
    },
    {
      "buffer" : 0,
      "byteOffset" : 372,
      "byteLength" : 252
    },
    {
      "buffer" : 0,
      "byteOffset" : 624,
      "byteLength" : 336
    },
    {
      "buffer" : 0,
      "byteOffset" : 960,
      "byteLength" : 168
    },
    {
      "buffer" : 0,
      "byteOffset" : 1128,
      "byteLength" : 168
    }
  ],
  "accessors" : [
    {
      "bufferView" : 0,
      "componentType" : 5123,
      "count" : 60,
      "type" : "SCALAR"
    },
    {
      "bufferView" : 1,
      "min" : [ -6.65315, -4.95911e-07, -5.28863 ],
      "max" : [ 5.30479, -4.95911e-07, 13.3963 ],
      "componentType" : 5126,
      "count" : 21,
      "type" : "VEC3"
    },
    {
      "bufferView" : 2,
      "componentType" : 5126,
      "count" : 21,
      "type" : "VEC3"
    },
    {
      "bufferView" : 3,
      "componentType" : 5126,
      "count" : 21,
      "type" : "VEC4"
    },
    {
      "bufferView" : 4,
      "componentType" : 5126,
      "count" : 21,
      "type" : "VEC2"
    },
    {
      "bufferView" : 5,
      "componentType" : 5126,
      "count" : 21,
      "type" : "VEC2"
    }
  ]
}
