{
  "asset" : {
    "generator" : "UE Viewer (umodel) build 1579 based",
    "version" : "2.0"
  },
  "scene" : 0,
  "scenes" : [
    {
      "nodes" : [ 0 ]
    }
  ],
  "nodes" : [
    {
      "name" : "S_Envi_Fyz_Building_113k",
      "mesh" : 0
    }
  ],
  "materials" : [
    {
      "name" : "MI_Envi_Fyz_Floor_04a",
      "pbrMetallicRoughness" : {
        "baseColorFactor" : [ 0.3, 0.3, 0.3, 1.0 ],
        "metallicFactor" : 0.1,
        "roughnessFactor" : 0.5
      }
    }
  ],
  "meshes" : [
    {
      "primitives" : [
        {
          "attributes" : {
            "POSITION" : 1,
            "NORMAL" : 2,
            "TANGENT" : 3,
            "TEXCOORD_0" : 4,
            "TEXCOORD_1" : 5
          },
          "indices" : 0,
          "material" : 0
        }
      ],
      "name" : "S_Envi_Fyz_Building_113k"
    }
  ],
  "buffers" : [
    {
      "uri" : "S_Envi_Fyz_Building_113k.bin",
      "byteLength" : 616
    }
  ],
  "bufferViews" : [
    {
      "buffer" : 0,
      "byteOffset" : 0,
      "byteLength" : 56
    },
    {
      "buffer" : 0,
      "byteOffset" : 56,
      "byteLength" : 120
    },
    {
      "buffer" : 0,
      "byteOffset" : 176,
      "byteLength" : 120
    },
    {
      "buffer" : 0,
      "byteOffset" : 296,
      "byteLength" : 160
    },
    {
      "buffer" : 0,
      "byteOffset" : 456,
      "byteLength" : 80
    },
    {
      "buffer" : 0,
      "byteOffset" : 536,
      "byteLength" : 80
    }
  ],
  "accessors" : [
    {
      "bufferView" : 0,
      "componentType" : 5123,
      "count" : 27,
      "type" : "SCALAR"
    },
    {
      "bufferView" : 1,
      "min" : [ -10.2163, -6.56486e-07, -7.00422 ],
      "max" : [ 6.4217, 9.04827e-07, 10.9794 ],
      "componentType" : 5126,
      "count" : 10,
      "type" : "VEC3"
    },
    {
      "bufferView" : 2,
      "componentType" : 5126,
      "count" : 10,
      "type" : "VEC3"
    },
    {
      "bufferView" : 3,
      "componentType" : 5126,
      "count" : 10,
      "type" : "VEC4"
    },
    {
      "bufferView" : 4,
      "componentType" : 5126,
      "count" : 10,
      "type" : "VEC2"
    },
    {
      "bufferView" : 5,
      "componentType" : 5126,
      "count" : 10,
      "type" : "VEC2"
    }
  ]
}
