{
  "asset" : {
    "generator" : "UE Viewer (umodel) build 1579 based",
    "version" : "2.0"
  },
  "scene" : 0,
  "scenes" : [
    {
      "nodes" : [ 0 ]
    }
  ],
  "nodes" : [
    {
      "name" : "S_Envi_Fyz_BuildingMerge_02g",
      "mesh" : 0
    }
  ],
  "materials" : [
    {
      "name" : "MI_Envi_Fyz_House_01c",
      "pbrMetallicRoughness" : {
        "baseColorFactor" : [ 0.3, 0.3, 0.3, 1.0 ],
        "metallicFactor" : 0.1,
        "roughnessFactor" : 0.5
      }
    },
    {
      "name" : "MI_Envi_Fyz_House_01b",
      "pbrMetallicRoughness" : {
        "baseColorFactor" : [ 0.9, 0.3, 0.3, 1.0 ],
        "metallicFactor" : 0.1,
        "roughnessFactor" : 0.5
      }
    },
    {
      "name" : "MI_Envi_Fyz_House_01a",
      "pbrMetallicRoughness" : {
        "baseColorFactor" : [ 0.3, 0.9, 0.3, 1.0 ],
        "metallicFactor" : 0.1,
        "roughnessFactor" : 0.5
      }
    }
  ],
  "meshes" : [
    {
      "primitives" : [
        {
          "attributes" : {
            "POSITION" : 1,
            "NORMAL" : 2,
            "TANGENT" : 3,
            "TEXCOORD_0" : 4,
            "TEXCOORD_1" : 5,
            "TEXCOORD_2" : 6,
            "TEXCOORD_3" : 7
          },
          "indices" : 0,
          "material" : 0
        },
        {
          "attributes" : {
            "POSITION" : 9,
            "NORMAL" : 10,
            "TANGENT" : 11,
            "TEXCOORD_0" : 12,
            "TEXCOORD_1" : 13,
            "TEXCOORD_2" : 14,
            "TEXCOORD_3" : 15
          },
          "indices" : 8,
          "material" : 1
        },
        {
          "attributes" : {
            "POSITION" : 17,
            "NORMAL" : 18,
            "TANGENT" : 19,
            "TEXCOORD_0" : 20,
            "TEXCOORD_1" : 21,
            "TEXCOORD_2" : 22,
            "TEXCOORD_3" : 23
          },
          "indices" : 16,
          "material" : 2
        }
      ],
      "name" : "S_Envi_Fyz_BuildingMerge_02g"
    }
  ],
  "buffers" : [
    {
      "uri" : "S_Envi_Fyz_BuildingMerge_02g.bin",
      "byteLength" : 1062632
    }
  ],
  "bufferViews" : [
    {
      "buffer" : 0,
      "byteOffset" : 0,
      "byteLength" : 1068
    },
    {
      "buffer" : 0,
      "byteOffset" : 1068,
      "byteLength" : 4272
    },
    {
      "buffer" : 0,
      "byteOffset" : 5340,
      "byteLength" : 4272
    },
    {
      "buffer" : 0,
      "byteOffset" : 9612,
      "byteLength" : 5696
    },
    {
      "buffer" : 0,
      "byteOffset" : 15308,
      "byteLength" : 2848
    },
    {
      "buffer" : 0,
      "byteOffset" : 18156,
      "byteLength" : 2848
    },
    {
      "buffer" : 0,
      "byteOffset" : 21004,
      "byteLength" : 2848
    },
    {
      "buffer" : 0,
      "byteOffset" : 23852,
      "byteLength" : 2848
    },
    {
      "buffer" : 0,
      "byteOffset" : 26700,
      "byteLength" : 7464
    },
    {
      "buffer" : 0,
      "byteOffset" : 34164,
      "byteLength" : 19368
    },
    {
      "buffer" : 0,
      "byteOffset" : 53532,
      "byteLength" : 19368
    },
    {
      "buffer" : 0,
      "byteOffset" : 72900,
      "byteLength" : 25824
    },
    {
      "buffer" : 0,
      "byteOffset" : 98724,
      "byteLength" : 12912
    },
    {
      "buffer" : 0,
      "byteOffset" : 111636,
      "byteLength" : 12912
    },
    {
      "buffer" : 0,
      "byteOffset" : 124548,
      "byteLength" : 12912
    },
    {
      "buffer" : 0,
      "byteOffset" : 137460,
      "byteLength" : 12912
    },
    {
      "buffer" : 0,
      "byteOffset" : 150372,
      "byteLength" : 53156
    },
    {
      "buffer" : 0,
      "byteOffset" : 203528,
      "byteLength" : 143184
    },
    {
      "buffer" : 0,
      "byteOffset" : 346712,
      "byteLength" : 143184
    },
    {
      "buffer" : 0,
      "byteOffset" : 489896,
      "byteLength" : 190912
    },
    {
      "buffer" : 0,
      "byteOffset" : 680808,
      "byteLength" : 95456
    },
    {
      "buffer" : 0,
      "byteOffset" : 776264,
      "byteLength" : 95456
    },
    {
      "buffer" : 0,
      "byteOffset" : 871720,
      "byteLength" : 95456
    },
    {
      "buffer" : 0,
      "byteOffset" : 967176,
      "byteLength" : 95456
    }
  ],
  "accessors" : [
    {
      "bufferView" : 0,
      "componentType" : 5123,
      "count" : 534,
      "type" : "SCALAR"
    },
    {
      "bufferView" : 1,
      "min" : [ -91.0846, 6.08929, 22.1036 ],
      "max" : [ -77.7478, 15.5432, 55.2587 ],
      "componentType" : 5126,
      "count" : 356,
      "type" : "VEC3"
    },
    {
      "bufferView" : 2,
      "componentType" : 5126,
      "count" : 356,
      "type" : "VEC3"
    },
    {
      "bufferView" : 3,
      "componentType" : 5126,
      "count" : 356,
      "type" : "VEC4"
    },
    {
      "bufferView" : 4,
      "componentType" : 5126,
      "count" : 356,
      "type" : "VEC2"
    },
    {
      "bufferView" : 5,
      "componentType" : 5126,
      "count" : 356,
      "type" : "VEC2"
    },
    {
      "bufferView" : 6,
      "componentType" : 5126,
      "count" : 356,
      "type" : "VEC2"
    },
    {
      "bufferView" : 7,
      "componentType" : 5126,
      "count" : 356,
      "type" : "VEC2"
    },
    {
      "bufferView" : 8,
      "componentType" : 5123,
      "count" : 3732,
      "type" : "SCALAR"
    },
    {
      "bufferView" : 9,
      "min" : [ -99.0489, 10.9393, 1.47976 ],
      "max" : [ -77.3035, 21.4963, 55.6864 ],
      "componentType" : 5126,
      "count" : 1614,
      "type" : "VEC3"
    },
    {
      "bufferView" : 10,
      "componentType" : 5126,
      "count" : 1614,
      "type" : "VEC3"
    },
    {
      "bufferView" : 11,
      "componentType" : 5126,
      "count" : 1614,
      "type" : "VEC4"
    },
    {
      "bufferView" : 12,
      "componentType" : 5126,
      "count" : 1614,
      "type" : "VEC2"
    },
    {
      "bufferView" : 13,
      "componentType" : 5126,
      "count" : 1614,
      "type" : "VEC2"
    },
    {
      "bufferView" : 14,
      "componentType" : 5126,
      "count" : 1614,
      "type" : "VEC2"
    },
    {
      "bufferView" : 15,
      "componentType" : 5126,
      "count" : 1614,
      "type" : "VEC2"
    },
    {
      "bufferView" : 16,
      "componentType" : 5123,
      "count" : 26577,
      "type" : "SCALAR"
    },
    {
      "bufferView" : 17,
      "min" : [ -98.4803, 5.56666, 1.45125 ],
      "max" : [ -77.4578, 22.3457, 55.1505 ],
      "componentType" : 5126,
      "count" : 11932,
      "type" : "VEC3"
    },
    {
      "bufferView" : 18,
      "componentType" : 5126,
      "count" : 11932,
      "type" : "VEC3"
    },
    {
      "bufferView" : 19,
      "componentType" : 5126,
      "count" : 11932,
      "type" : "VEC4"
    },
    {
      "bufferView" : 20,
      "componentType" : 5126,
      "count" : 11932,
      "type" : "VEC2"
    },
    {
      "bufferView" : 21,
      "componentType" : 5126,
      "count" : 11932,
      "type" : "VEC2"
    },
    {
      "bufferView" : 22,
      "componentType" : 5126,
      "count" : 11932,
      "type" : "VEC2"
    },
    {
      "bufferView" : 23,
      "componentType" : 5126,
      "count" : 11932,
      "type" : "VEC2"
    }
  ]
}
