{
  "asset" : {
    "generator" : "UE Viewer (umodel) build 1579 based",
    "version" : "2.0"
  },
  "scene" : 0,
  "scenes" : [
    {
      "nodes" : [ 0 ]
    }
  ],
  "nodes" : [
    {
      "name" : "S_Envi_Fyz_Building_60h",
      "mesh" : 0
    }
  ],
  "materials" : [
    {
      "name" : "MI_Envi_Fyz_Wall_02e",
      "pbrMetallicRoughness" : {
        "baseColorFactor" : [ 0.3, 0.3, 0.3, 1.0 ],
        "metallicFactor" : 0.1,
        "roughnessFactor" : 0.5
      }
    }
  ],
  "meshes" : [
    {
      "primitives" : [
        {
          "attributes" : {
            "POSITION" : 1,
            "NORMAL" : 2,
            "TANGENT" : 3,
            "TEXCOORD_0" : 4,
            "TEXCOORD_1" : 5,
            "TEXCOORD_2" : 6,
            "TEXCOORD_3" : 7
          },
          "indices" : 0,
          "material" : 0
        }
      ],
      "name" : "S_Envi_Fyz_Building_60h"
    }
  ],
  "buffers" : [
    {
      "uri" : "S_Envi_Fyz_Building_60h.bin",
      "byteLength" : 29172
    }
  ],
  "bufferViews" : [
    {
      "buffer" : 0,
      "byteOffset" : 0,
      "byteLength" : 2748
    },
    {
      "buffer" : 0,
      "byteOffset" : 2748,
      "byteLength" : 4404
    },
    {
      "buffer" : 0,
      "byteOffset" : 7152,
      "byteLength" : 4404
    },
    {
      "buffer" : 0,
      "byteOffset" : 11556,
      "byteLength" : 5872
    },
    {
      "buffer" : 0,
      "byteOffset" : 17428,
      "byteLength" : 2936
    },
    {
      "buffer" : 0,
      "byteOffset" : 20364,
      "byteLength" : 2936
    },
    {
      "buffer" : 0,
      "byteOffset" : 23300,
      "byteLength" : 2936
    },
    {
      "buffer" : 0,
      "byteOffset" : 26236,
      "byteLength" : 2936
    }
  ],
  "accessors" : [
    {
      "bufferView" : 0,
      "componentType" : 5123,
      "count" : 1374,
      "type" : "SCALAR"
    },
    {
      "bufferView" : 1,
      "min" : [ -83.1929, -2.12736, -38.3268 ],
      "max" : [ -72.9328, 17.2356, -15.4462 ],
      "componentType" : 5126,
      "count" : 367,
      "type" : "VEC3"
    },
    {
      "bufferView" : 2,
      "componentType" : 5126,
      "count" : 367,
      "type" : "VEC3"
    },
    {
      "bufferView" : 3,
      "componentType" : 5126,
      "count" : 367,
      "type" : "VEC4"
    },
    {
      "bufferView" : 4,
      "componentType" : 5126,
      "count" : 367,
      "type" : "VEC2"
    },
    {
      "bufferView" : 5,
      "componentType" : 5126,
      "count" : 367,
      "type" : "VEC2"
    },
    {
      "bufferView" : 6,
      "componentType" : 5126,
      "count" : 367,
      "type" : "VEC2"
    },
    {
      "bufferView" : 7,
      "componentType" : 5126,
      "count" : 367,
      "type" : "VEC2"
    }
  ]
}
