{
  "asset" : {
    "generator" : "UE Viewer (umodel) build 1579 based",
    "version" : "2.0"
  },
  "scene" : 0,
  "scenes" : [
    {
      "nodes" : [ 0 ]
    }
  ],
  "nodes" : [
    {
      "name" : "S_Envi_Fyz_Building_105u",
      "mesh" : 0
    }
  ],
  "materials" : [
    {
      "name" : "MI_Envi_Fyz_Color_12",
      "pbrMetallicRoughness" : {
        "baseColorFactor" : [ 0.3, 0.3, 0.3, 1.0 ],
        "metallicFactor" : 0.1,
        "roughnessFactor" : 0.5
      }
    },
    {
      "name" : "MI_PM_Glass_11b_3",
      "pbrMetallicRoughness" : {
        "baseColorFactor" : [ 0.9, 0.3, 0.3, 1.0 ],
        "metallicFactor" : 0.1,
        "roughnessFactor" : 0.5
      }
    }
  ],
  "meshes" : [
    {
      "primitives" : [
        {
          "attributes" : {
            "POSITION" : 1,
            "NORMAL" : 2,
            "TANGENT" : 3,
            "TEXCOORD_0" : 4,
            "TEXCOORD_1" : 5,
            "TEXCOORD_2" : 6,
            "TEXCOORD_3" : 7
          },
          "indices" : 0,
          "material" : 0
        },
        {
          "attributes" : {
            "POSITION" : 9,
            "NORMAL" : 10,
            "TANGENT" : 11,
            "TEXCOORD_0" : 12,
            "TEXCOORD_1" : 13,
            "TEXCOORD_2" : 14,
            "TEXCOORD_3" : 15
          },
          "indices" : 8,
          "material" : 1
        }
      ],
      "name" : "S_Envi_Fyz_Building_105u"
    }
  ],
  "buffers" : [
    {
      "uri" : "S_Envi_Fyz_Building_105u.bin",
      "byteLength" : 54648
    }
  ],
  "bufferViews" : [
    {
      "buffer" : 0,
      "byteOffset" : 0,
      "byteLength" : 3384
    },
    {
      "buffer" : 0,
      "byteOffset" : 3384,
      "byteLength" : 6936
    },
    {
      "buffer" : 0,
      "byteOffset" : 10320,
      "byteLength" : 6936
    },
    {
      "buffer" : 0,
      "byteOffset" : 17256,
      "byteLength" : 9248
    },
    {
      "buffer" : 0,
      "byteOffset" : 26504,
      "byteLength" : 4624
    },
    {
      "buffer" : 0,
      "byteOffset" : 31128,
      "byteLength" : 4624
    },
    {
      "buffer" : 0,
      "byteOffset" : 35752,
      "byteLength" : 4624
    },
    {
      "buffer" : 0,
      "byteOffset" : 40376,
      "byteLength" : 4624
    },
    {
      "buffer" : 0,
      "byteOffset" : 45000,
      "byteLength" : 432
    },
    {
      "buffer" : 0,
      "byteOffset" : 45432,
      "byteLength" : 1536
    },
    {
      "buffer" : 0,
      "byteOffset" : 46968,
      "byteLength" : 1536
    },
    {
      "buffer" : 0,
      "byteOffset" : 48504,
      "byteLength" : 2048
    },
    {
      "buffer" : 0,
      "byteOffset" : 50552,
      "byteLength" : 1024
    },
    {
      "buffer" : 0,
      "byteOffset" : 51576,
      "byteLength" : 1024
    },
    {
      "buffer" : 0,
      "byteOffset" : 52600,
      "byteLength" : 1024
    },
    {
      "buffer" : 0,
      "byteOffset" : 53624,
      "byteLength" : 1024
    }
  ],
  "accessors" : [
    {
      "bufferView" : 0,
      "componentType" : 5123,
      "count" : 1692,
      "type" : "SCALAR"
    },
    {
      "bufferView" : 1,
      "min" : [ -5.15266, 0.968544, -1.02803 ],
      "max" : [ -1.9305, 1.06307, -1.02803 ],
      "componentType" : 5126,
      "count" : 578,
      "type" : "VEC3"
    },
    {
      "bufferView" : 2,
      "componentType" : 5126,
      "count" : 578,
      "type" : "VEC3"
    },
    {
      "bufferView" : 3,
      "componentType" : 5126,
      "count" : 578,
      "type" : "VEC4"
    },
    {
      "bufferView" : 4,
      "componentType" : 5126,
      "count" : 578,
      "type" : "VEC2"
    },
    {
      "bufferView" : 5,
      "componentType" : 5126,
      "count" : 578,
      "type" : "VEC2"
    },
    {
      "bufferView" : 6,
      "componentType" : 5126,
      "count" : 578,
      "type" : "VEC2"
    },
    {
      "bufferView" : 7,
      "componentType" : 5126,
      "count" : 578,
      "type" : "VEC2"
    },
    {
      "bufferView" : 8,
      "componentType" : 5123,
      "count" : 216,
      "type" : "SCALAR"
    },
    {
      "bufferView" : 9,
      "min" : [ -11.5206, -0.11931, -3.46965 ],
      "max" : [ -1.43822, 1.11691, -1.03801 ],
      "componentType" : 5126,
      "count" : 128,
      "type" : "VEC3"
    },
    {
      "bufferView" : 10,
      "componentType" : 5126,
      "count" : 128,
      "type" : "VEC3"
    },
    {
      "bufferView" : 11,
      "componentType" : 5126,
      "count" : 128,
      "type" : "VEC4"
    },
    {
      "bufferView" : 12,
      "componentType" : 5126,
      "count" : 128,
      "type" : "VEC2"
    },
    {
      "bufferView" : 13,
      "componentType" : 5126,
      "count" : 128,
      "type" : "VEC2"
    },
    {
      "bufferView" : 14,
      "componentType" : 5126,
      "count" : 128,
      "type" : "VEC2"
    },
    {
      "bufferView" : 15,
      "componentType" : 5126,
      "count" : 128,
      "type" : "VEC2"
    }
  ]
}
