{
  "asset" : {
    "generator" : "UE Viewer (umodel) build 1579 based",
    "version" : "2.0"
  },
  "scene" : 0,
  "scenes" : [
    {
      "nodes" : [ 0 ]
    }
  ],
  "nodes" : [
    {
      "name" : "S_Envi_Fyz_Building_Merge_93f",
      "mesh" : 0
    }
  ],
  "materials" : [
    {
      "name" : "MI_Envi_Fyz_Wall_02c",
      "pbrMetallicRoughness" : {
        "baseColorFactor" : [ 0.3, 0.3, 0.3, 1.0 ],
        "metallicFactor" : 0.1,
        "roughnessFactor" : 0.5
      }
    },
    {
      "name" : "MI_Envi_Common_HBuilding_01a",
      "pbrMetallicRoughness" : {
        "baseColorFactor" : [ 0.9, 0.3, 0.3, 1.0 ],
        "metallicFactor" : 0.1,
        "roughnessFactor" : 0.5
      }
    }
  ],
  "meshes" : [
    {
      "primitives" : [
        {
          "attributes" : {
            "POSITION" : 1,
            "NORMAL" : 2,
            "TANGENT" : 3,
            "TEXCOORD_0" : 4,
            "TEXCOORD_1" : 5
          },
          "indices" : 0,
          "material" : 0
        },
        {
          "attributes" : {
            "POSITION" : 7,
            "NORMAL" : 8,
            "TANGENT" : 9,
            "TEXCOORD_0" : 10,
            "TEXCOORD_1" : 11
          },
          "indices" : 6,
          "material" : 1
        }
      ],
      "name" : "S_Envi_Fyz_Building_Merge_93f"
    }
  ],
  "buffers" : [
    {
      "uri" : "S_Envi_Fyz_Building_Merge_93f.bin",
      "byteLength" : 92376
    }
  ],
  "bufferViews" : [
    {
      "buffer" : 0,
      "byteOffset" : 0,
      "byteLength" : 704
    },
    {
      "buffer" : 0,
      "byteOffset" : 704,
      "byteLength" : 1284
    },
    {
      "buffer" : 0,
      "byteOffset" : 1988,
      "byteLength" : 1284
    },
    {
      "buffer" : 0,
      "byteOffset" : 3272,
      "byteLength" : 1712
    },
    {
      "buffer" : 0,
      "byteOffset" : 4984,
      "byteLength" : 856
    },
    {
      "buffer" : 0,
      "byteOffset" : 5840,
      "byteLength" : 856
    },
    {
      "buffer" : 0,
      "byteOffset" : 6696,
      "byteLength" : 8064
    },
    {
      "buffer" : 0,
      "byteOffset" : 14760,
      "byteLength" : 16632
    },
    {
      "buffer" : 0,
      "byteOffset" : 31392,
      "byteLength" : 16632
    },
    {
      "buffer" : 0,
      "byteOffset" : 48024,
      "byteLength" : 22176
    },
    {
      "buffer" : 0,
      "byteOffset" : 70200,
      "byteLength" : 11088
    },
    {
      "buffer" : 0,
      "byteOffset" : 81288,
      "byteLength" : 11088
    }
  ],
  "accessors" : [
    {
      "bufferView" : 0,
      "componentType" : 5123,
      "count" : 351,
      "type" : "SCALAR"
    },
    {
      "bufferView" : 1,
      "min" : [ -13.7744, -0.029444, -89.4242 ],
      "max" : [ 46.8262, 21.2211, 4.96078 ],
      "componentType" : 5126,
      "count" : 107,
      "type" : "VEC3"
    },
    {
      "bufferView" : 2,
      "componentType" : 5126,
      "count" : 107,
      "type" : "VEC3"
    },
    {
      "bufferView" : 3,
      "componentType" : 5126,
      "count" : 107,
      "type" : "VEC4"
    },
    {
      "bufferView" : 4,
      "componentType" : 5126,
      "count" : 107,
      "type" : "VEC2"
    },
    {
      "bufferView" : 5,
      "componentType" : 5126,
      "count" : 107,
      "type" : "VEC2"
    },
    {
      "bufferView" : 6,
      "componentType" : 5123,
      "count" : 4032,
      "type" : "SCALAR"
    },
    {
      "bufferView" : 7,
      "min" : [ -35.8491, 17.8467, -86.2917 ],
      "max" : [ 45.9987, 21.7582, -1.69562 ],
      "componentType" : 5126,
      "count" : 1386,
      "type" : "VEC3"
    },
    {
      "bufferView" : 8,
      "componentType" : 5126,
      "count" : 1386,
      "type" : "VEC3"
    },
    {
      "bufferView" : 9,
      "componentType" : 5126,
      "count" : 1386,
      "type" : "VEC4"
    },
    {
      "bufferView" : 10,
      "componentType" : 5126,
      "count" : 1386,
      "type" : "VEC2"
    },
    {
      "bufferView" : 11,
      "componentType" : 5126,
      "count" : 1386,
      "type" : "VEC2"
    }
  ]
}
