{
  "asset" : {
    "generator" : "UE Viewer (umodel) build 1579 based",
    "version" : "2.0"
  },
  "scene" : 0,
  "scenes" : [
    {
      "nodes" : [ 0 ]
    }
  ],
  "nodes" : [
    {
      "name" : "S_Envi_Fyz_Building_89z",
      "mesh" : 0
    }
  ],
  "materials" : [
    {
      "name" : "MI_Envi_Fyz_Wall_02f",
      "pbrMetallicRoughness" : {
        "baseColorFactor" : [ 0.3, 0.3, 0.3, 1.0 ],
        "metallicFactor" : 0.1,
        "roughnessFactor" : 0.5
      }
    }
  ],
  "meshes" : [
    {
      "primitives" : [
        {
          "attributes" : {
            "POSITION" : 1,
            "NORMAL" : 2,
            "TANGENT" : 3,
            "TEXCOORD_0" : 4,
            "TEXCOORD_1" : 5
          },
          "indices" : 0,
          "material" : 0
        }
      ],
      "name" : "S_Envi_Fyz_Building_89z"
    }
  ],
  "buffers" : [
    {
      "uri" : "S_Envi_Fyz_Building_89z.bin",
      "byteLength" : 12432
    }
  ],
  "bufferViews" : [
    {
      "buffer" : 0,
      "byteOffset" : 0,
      "byteLength" : 1680
    },
    {
      "buffer" : 0,
      "byteOffset" : 1680,
      "byteLength" : 2304
    },
    {
      "buffer" : 0,
      "byteOffset" : 3984,
      "byteLength" : 2304
    },
    {
      "buffer" : 0,
      "byteOffset" : 6288,
      "byteLength" : 3072
    },
    {
      "buffer" : 0,
      "byteOffset" : 9360,
      "byteLength" : 1536
    },
    {
      "buffer" : 0,
      "byteOffset" : 10896,
      "byteLength" : 1536
    }
  ],
  "accessors" : [
    {
      "bufferView" : 0,
      "componentType" : 5123,
      "count" : 840,
      "type" : "SCALAR"
    },
    {
      "bufferView" : 1,
      "min" : [ -2.44141e-06, -23.4145, -2.44141e-06 ],
      "max" : [ 39.41, 7.32422e-06, 11.0859 ],
      "componentType" : 5126,
      "count" : 192,
      "type" : "VEC3"
    },
    {
      "bufferView" : 2,
      "componentType" : 5126,
      "count" : 192,
      "type" : "VEC3"
    },
    {
      "bufferView" : 3,
      "componentType" : 5126,
      "count" : 192,
      "type" : "VEC4"
    },
    {
      "bufferView" : 4,
      "componentType" : 5126,
      "count" : 192,
      "type" : "VEC2"
    },
    {
      "bufferView" : 5,
      "componentType" : 5126,
      "count" : 192,
      "type" : "VEC2"
    }
  ]
}
