{
  "asset" : {
    "generator" : "UE Viewer (umodel) build 1579 based",
    "version" : "2.0"
  },
  "scene" : 0,
  "scenes" : [
    {
      "nodes" : [ 0 ]
    }
  ],
  "nodes" : [
    {
      "name" : "S_Envi_Fyz_Building_125c",
      "mesh" : 0
    }
  ],
  "materials" : [
    {
      "name" : "S_Envi_Olgk_Water_01",
      "pbrMetallicRoughness" : {
        "baseColorFactor" : [ 0.3, 0.3, 0.3, 1.0 ],
        "metallicFactor" : 0.1,
        "roughnessFactor" : 0.5
      }
    }
  ],
  "meshes" : [
    {
      "primitives" : [
        {
          "attributes" : {
            "POSITION" : 1,
            "NORMAL" : 2,
            "TANGENT" : 3,
            "TEXCOORD_0" : 4,
            "TEXCOORD_1" : 5
          },
          "indices" : 0,
          "material" : 0
        }
      ],
      "name" : "S_Envi_Fyz_Building_125c"
    }
  ],
  "buffers" : [
    {
      "uri" : "S_Envi_Fyz_Building_125c.bin",
      "byteLength" : 31792
    }
  ],
  "bufferViews" : [
    {
      "buffer" : 0,
      "byteOffset" : 0,
      "byteLength" : 4968
    },
    {
      "buffer" : 0,
      "byteOffset" : 4968,
      "byteLength" : 5748
    },
    {
      "buffer" : 0,
      "byteOffset" : 10716,
      "byteLength" : 5748
    },
    {
      "buffer" : 0,
      "byteOffset" : 16464,
      "byteLength" : 7664
    },
    {
      "buffer" : 0,
      "byteOffset" : 24128,
      "byteLength" : 3832
    },
    {
      "buffer" : 0,
      "byteOffset" : 27960,
      "byteLength" : 3832
    }
  ],
  "accessors" : [
    {
      "bufferView" : 0,
      "componentType" : 5123,
      "count" : 2484,
      "type" : "SCALAR"
    },
    {
      "bufferView" : 1,
      "min" : [ -691.796, -3.88538e-14, -210.237 ],
      "max" : [ 60.8051, 4.39365e-14, 168.734 ],
      "componentType" : 5126,
      "count" : 479,
      "type" : "VEC3"
    },
    {
      "bufferView" : 2,
      "componentType" : 5126,
      "count" : 479,
      "type" : "VEC3"
    },
    {
      "bufferView" : 3,
      "componentType" : 5126,
      "count" : 479,
      "type" : "VEC4"
    },
    {
      "bufferView" : 4,
      "componentType" : 5126,
      "count" : 479,
      "type" : "VEC2"
    },
    {
      "bufferView" : 5,
      "componentType" : 5126,
      "count" : 479,
      "type" : "VEC2"
    }
  ]
}
