{
  "asset" : {
    "generator" : "UE Viewer (umodel) build 1579 based",
    "version" : "2.0"
  },
  "scene" : 0,
  "scenes" : [
    {
      "nodes" : [ 0 ]
    }
  ],
  "nodes" : [
    {
      "name" : "S_Envi_Fyz_BuildingRoof_02d",
      "mesh" : 0
    }
  ],
  "materials" : [
    {
      "name" : "MI_Envi_Common_Rooftop_01a",
      "pbrMetallicRoughness" : {
        "baseColorFactor" : [ 0.3, 0.3, 0.3, 1.0 ],
        "metallicFactor" : 0.1,
        "roughnessFactor" : 0.5
      }
    }
  ],
  "meshes" : [
    {
      "primitives" : [
        {
          "attributes" : {
            "POSITION" : 1,
            "NORMAL" : 2,
            "TANGENT" : 3,
            "TEXCOORD_0" : 4,
            "TEXCOORD_1" : 5,
            "TEXCOORD_2" : 6,
            "TEXCOORD_3" : 7
          },
          "indices" : 0,
          "material" : 0
        }
      ],
      "name" : "S_Envi_Fyz_BuildingRoof_02d"
    }
  ],
  "buffers" : [
    {
      "uri" : "S_Envi_Fyz_BuildingRoof_02d.bin",
      "byteLength" : 42932
    }
  ],
  "bufferViews" : [
    {
      "buffer" : 0,
      "byteOffset" : 0,
      "byteLength" : 1820
    },
    {
      "buffer" : 0,
      "byteOffset" : 1820,
      "byteLength" : 6852
    },
    {
      "buffer" : 0,
      "byteOffset" : 8672,
      "byteLength" : 6852
    },
    {
      "buffer" : 0,
      "byteOffset" : 15524,
      "byteLength" : 9136
    },
    {
      "buffer" : 0,
      "byteOffset" : 24660,
      "byteLength" : 4568
    },
    {
      "buffer" : 0,
      "byteOffset" : 29228,
      "byteLength" : 4568
    },
    {
      "buffer" : 0,
      "byteOffset" : 33796,
      "byteLength" : 4568
    },
    {
      "buffer" : 0,
      "byteOffset" : 38364,
      "byteLength" : 4568
    }
  ],
  "accessors" : [
    {
      "bufferView" : 0,
      "componentType" : 5123,
      "count" : 909,
      "type" : "SCALAR"
    },
    {
      "bufferView" : 1,
      "min" : [ -98.864, 11.5781, 1.68745 ],
      "max" : [ -77.7247, 22.2803, 54.8794 ],
      "componentType" : 5126,
      "count" : 571,
      "type" : "VEC3"
    },
    {
      "bufferView" : 2,
      "componentType" : 5126,
      "count" : 571,
      "type" : "VEC3"
    },
    {
      "bufferView" : 3,
      "componentType" : 5126,
      "count" : 571,
      "type" : "VEC4"
    },
    {
      "bufferView" : 4,
      "componentType" : 5126,
      "count" : 571,
      "type" : "VEC2"
    },
    {
      "bufferView" : 5,
      "componentType" : 5126,
      "count" : 571,
      "type" : "VEC2"
    },
    {
      "bufferView" : 6,
      "componentType" : 5126,
      "count" : 571,
      "type" : "VEC2"
    },
    {
      "bufferView" : 7,
      "componentType" : 5126,
      "count" : 571,
      "type" : "VEC2"
    }
  ]
}
