{
  "asset" : {
    "generator" : "UE Viewer (umodel) build 1579 based",
    "version" : "2.0"
  },
  "scene" : 0,
  "scenes" : [
    {
      "nodes" : [ 0 ]
    }
  ],
  "nodes" : [
    {
      "name" : "S_Envi_Fyz_Building_113d",
      "mesh" : 0
    }
  ],
  "materials" : [
    {
      "name" : "MI_Envi_Fyz_Floor_05a",
      "pbrMetallicRoughness" : {
        "baseColorFactor" : [ 0.3, 0.3, 0.3, 1.0 ],
        "metallicFactor" : 0.1,
        "roughnessFactor" : 0.5
      }
    },
    {
      "name" : "MI_Envi_Fyz_House_01h",
      "pbrMetallicRoughness" : {
        "baseColorFactor" : [ 0.9, 0.3, 0.3, 1.0 ],
        "metallicFactor" : 0.1,
        "roughnessFactor" : 0.5
      }
    }
  ],
  "meshes" : [
    {
      "primitives" : [
        {
          "attributes" : {
            "POSITION" : 1,
            "NORMAL" : 2,
            "TANGENT" : 3,
            "TEXCOORD_0" : 4,
            "TEXCOORD_1" : 5
          },
          "indices" : 0,
          "material" : 0
        },
        {
          "attributes" : {
            "POSITION" : 7,
            "NORMAL" : 8,
            "TANGENT" : 9,
            "TEXCOORD_0" : 10,
            "TEXCOORD_1" : 11
          },
          "indices" : 6,
          "material" : 1
        }
      ],
      "name" : "S_Envi_Fyz_Building_113d"
    }
  ],
  "buffers" : [
    {
      "uri" : "S_Envi_Fyz_Building_113d.bin",
      "byteLength" : 12968
    }
  ],
  "bufferViews" : [
    {
      "buffer" : 0,
      "byteOffset" : 0,
      "byteLength" : 336
    },
    {
      "buffer" : 0,
      "byteOffset" : 336,
      "byteLength" : 696
    },
    {
      "buffer" : 0,
      "byteOffset" : 1032,
      "byteLength" : 696
    },
    {
      "buffer" : 0,
      "byteOffset" : 1728,
      "byteLength" : 928
    },
    {
      "buffer" : 0,
      "byteOffset" : 2656,
      "byteLength" : 464
    },
    {
      "buffer" : 0,
      "byteOffset" : 3120,
      "byteLength" : 464
    },
    {
      "buffer" : 0,
      "byteOffset" : 3584,
      "byteLength" : 648
    },
    {
      "buffer" : 0,
      "byteOffset" : 4232,
      "byteLength" : 1872
    },
    {
      "buffer" : 0,
      "byteOffset" : 6104,
      "byteLength" : 1872
    },
    {
      "buffer" : 0,
      "byteOffset" : 7976,
      "byteLength" : 2496
    },
    {
      "buffer" : 0,
      "byteOffset" : 10472,
      "byteLength" : 1248
    },
    {
      "buffer" : 0,
      "byteOffset" : 11720,
      "byteLength" : 1248
    }
  ],
  "accessors" : [
    {
      "bufferView" : 0,
      "componentType" : 5123,
      "count" : 168,
      "type" : "SCALAR"
    },
    {
      "bufferView" : 1,
      "min" : [ -3.36646, -1.92868e-07, -4.41231 ],
      "max" : [ 3.35547, 1.98852e-07, 4.5492 ],
      "componentType" : 5126,
      "count" : 58,
      "type" : "VEC3"
    },
    {
      "bufferView" : 2,
      "componentType" : 5126,
      "count" : 58,
      "type" : "VEC3"
    },
    {
      "bufferView" : 3,
      "componentType" : 5126,
      "count" : 58,
      "type" : "VEC4"
    },
    {
      "bufferView" : 4,
      "componentType" : 5126,
      "count" : 58,
      "type" : "VEC2"
    },
    {
      "bufferView" : 5,
      "componentType" : 5126,
      "count" : 58,
      "type" : "VEC2"
    },
    {
      "bufferView" : 6,
      "componentType" : 5123,
      "count" : 324,
      "type" : "SCALAR"
    },
    {
      "bufferView" : 7,
      "min" : [ -4.24235, -2.35959e-07, -5.3981 ],
      "max" : [ 4.1052, 2.3285e-07, 5.32698 ],
      "componentType" : 5126,
      "count" : 156,
      "type" : "VEC3"
    },
    {
      "bufferView" : 8,
      "componentType" : 5126,
      "count" : 156,
      "type" : "VEC3"
    },
    {
      "bufferView" : 9,
      "componentType" : 5126,
      "count" : 156,
      "type" : "VEC4"
    },
    {
      "bufferView" : 10,
      "componentType" : 5126,
      "count" : 156,
      "type" : "VEC2"
    },
    {
      "bufferView" : 11,
      "componentType" : 5126,
      "count" : 156,
      "type" : "VEC2"
    }
  ]
}
