{
  "asset" : {
    "generator" : "UE Viewer (umodel) build 1579 based",
    "version" : "2.0"
  },
  "scene" : 0,
  "scenes" : [
    {
      "nodes" : [ 0 ]
    }
  ],
  "nodes" : [
    {
      "name" : "S_Envi_Fyz_Building_Merge_100i",
      "mesh" : 0
    }
  ],
  "materials" : [
    {
      "name" : "MI_Envi_Fyz_Wall_02c",
      "pbrMetallicRoughness" : {
        "baseColorFactor" : [ 0.3, 0.3, 0.3, 1.0 ],
        "metallicFactor" : 0.1,
        "roughnessFactor" : 0.5
      }
    }
  ],
  "meshes" : [
    {
      "primitives" : [
        {
          "attributes" : {
            "POSITION" : 1,
            "NORMAL" : 2,
            "TANGENT" : 3,
            "TEXCOORD_0" : 4,
            "TEXCOORD_1" : 5,
            "TEXCOORD_2" : 6,
            "TEXCOORD_3" : 7,
            "TEXCOORD_4" : 8
          },
          "indices" : 0,
          "material" : 0
        }
      ],
      "name" : "S_Envi_Fyz_Building_Merge_100i"
    }
  ],
  "buffers" : [
    {
      "uri" : "S_Envi_Fyz_Building_Merge_100i.bin",
      "byteLength" : 314948
    }
  ],
  "bufferViews" : [
    {
      "buffer" : 0,
      "byteOffset" : 0,
      "byteLength" : 27428
    },
    {
      "buffer" : 0,
      "byteOffset" : 27428,
      "byteLength" : 43128
    },
    {
      "buffer" : 0,
      "byteOffset" : 70556,
      "byteLength" : 43128
    },
    {
      "buffer" : 0,
      "byteOffset" : 113684,
      "byteLength" : 57504
    },
    {
      "buffer" : 0,
      "byteOffset" : 171188,
      "byteLength" : 28752
    },
    {
      "buffer" : 0,
      "byteOffset" : 199940,
      "byteLength" : 28752
    },
    {
      "buffer" : 0,
      "byteOffset" : 228692,
      "byteLength" : 28752
    },
    {
      "buffer" : 0,
      "byteOffset" : 257444,
      "byteLength" : 28752
    },
    {
      "buffer" : 0,
      "byteOffset" : 286196,
      "byteLength" : 28752
    }
  ],
  "accessors" : [
    {
      "bufferView" : 0,
      "componentType" : 5123,
      "count" : 13713,
      "type" : "SCALAR"
    },
    {
      "bufferView" : 1,
      "min" : [ -20.9316, -26.2324, 1.2207e-06 ],
      "max" : [ 17.2691, 8.54724, 27.61 ],
      "componentType" : 5126,
      "count" : 3594,
      "type" : "VEC3"
    },
    {
      "bufferView" : 2,
      "componentType" : 5126,
      "count" : 3594,
      "type" : "VEC3"
    },
    {
      "bufferView" : 3,
      "componentType" : 5126,
      "count" : 3594,
      "type" : "VEC4"
    },
    {
      "bufferView" : 4,
      "componentType" : 5126,
      "count" : 3594,
      "type" : "VEC2"
    },
    {
      "bufferView" : 5,
      "componentType" : 5126,
      "count" : 3594,
      "type" : "VEC2"
    },
    {
      "bufferView" : 6,
      "componentType" : 5126,
      "count" : 3594,
      "type" : "VEC2"
    },
    {
      "bufferView" : 7,
      "componentType" : 5126,
      "count" : 3594,
      "type" : "VEC2"
    },
    {
      "bufferView" : 8,
      "componentType" : 5126,
      "count" : 3594,
      "type" : "VEC2"
    }
  ]
}
