{
  "asset" : {
    "generator" : "UE Viewer (umodel) build 1579 based",
    "version" : "2.0"
  },
  "scene" : 0,
  "scenes" : [
    {
      "nodes" : [ 0 ]
    }
  ],
  "nodes" : [
    {
      "name" : "S_Envi_Fyz_Grass_Merge_01j",
      "mesh" : 0
    }
  ],
  "materials" : [
    {
      "name" : "MI_Envi_Foliage_shrub_08",
      "pbrMetallicRoughness" : {
        "baseColorFactor" : [ 0.3, 0.3, 0.3, 1.0 ],
        "metallicFactor" : 0.1,
        "roughnessFactor" : 0.5
      }
    }
  ],
  "meshes" : [
    {
      "primitives" : [
        {
          "attributes" : {
            "POSITION" : 1,
            "NORMAL" : 2,
            "TANGENT" : 3,
            "TEXCOORD_0" : 4,
            "TEXCOORD_1" : 5
          },
          "indices" : 0,
          "material" : 0
        }
      ],
      "name" : "S_Envi_Fyz_Grass_Merge_01j"
    }
  ],
  "buffers" : [
    {
      "uri" : "S_Envi_Fyz_Grass_Merge_01j.bin",
      "byteLength" : 84408
    }
  ],
  "bufferViews" : [
    {
      "buffer" : 0,
      "byteOffset" : 0,
      "byteLength" : 6960
    },
    {
      "buffer" : 0,
      "byteOffset" : 6960,
      "byteLength" : 16596
    },
    {
      "buffer" : 0,
      "byteOffset" : 23556,
      "byteLength" : 16596
    },
    {
      "buffer" : 0,
      "byteOffset" : 40152,
      "byteLength" : 22128
    },
    {
      "buffer" : 0,
      "byteOffset" : 62280,
      "byteLength" : 11064
    },
    {
      "buffer" : 0,
      "byteOffset" : 73344,
      "byteLength" : 11064
    }
  ],
  "accessors" : [
    {
      "bufferView" : 0,
      "componentType" : 5123,
      "count" : 3480,
      "type" : "SCALAR"
    },
    {
      "bufferView" : 1,
      "min" : [ 19.3202, 8.09872, 46.9014 ],
      "max" : [ 27.7964, 17.4127, 55.0063 ],
      "componentType" : 5126,
      "count" : 1383,
      "type" : "VEC3"
    },
    {
      "bufferView" : 2,
      "componentType" : 5126,
      "count" : 1383,
      "type" : "VEC3"
    },
    {
      "bufferView" : 3,
      "componentType" : 5126,
      "count" : 1383,
      "type" : "VEC4"
    },
    {
      "bufferView" : 4,
      "componentType" : 5126,
      "count" : 1383,
      "type" : "VEC2"
    },
    {
      "bufferView" : 5,
      "componentType" : 5126,
      "count" : 1383,
      "type" : "VEC2"
    }
  ]
}
