{
  "asset" : {
    "generator" : "UE Viewer (umodel) build 1579 based",
    "version" : "2.0"
  },
  "scene" : 0,
  "scenes" : [
    {
      "nodes" : [ 0 ]
    }
  ],
  "nodes" : [
    {
      "name" : "S_Envi_Fyz_Building_Merge_93i",
      "mesh" : 0
    }
  ],
  "materials" : [
    {
      "name" : "MI_Envi_Fyz_Wall_04a",
      "pbrMetallicRoughness" : {
        "baseColorFactor" : [ 0.3, 0.3, 0.3, 1.0 ],
        "metallicFactor" : 0.1,
        "roughnessFactor" : 0.5
      }
    },
    {
      "name" : "MI_Envi_Fyz_Floor_04a",
      "pbrMetallicRoughness" : {
        "baseColorFactor" : [ 0.9, 0.3, 0.3, 1.0 ],
        "metallicFactor" : 0.1,
        "roughnessFactor" : 0.5
      }
    },
    {
      "name" : "MI_Envi_Common_HBuilding_02a1",
      "pbrMetallicRoughness" : {
        "baseColorFactor" : [ 0.3, 0.9, 0.3, 1.0 ],
        "metallicFactor" : 0.1,
        "roughnessFactor" : 0.5
      }
    }
  ],
  "meshes" : [
    {
      "primitives" : [
        {
          "attributes" : {
            "POSITION" : 1,
            "NORMAL" : 2,
            "TANGENT" : 3,
            "TEXCOORD_0" : 4,
            "TEXCOORD_1" : 5
          },
          "indices" : 0,
          "material" : 0
        },
        {
          "attributes" : {
            "POSITION" : 7,
            "NORMAL" : 8,
            "TANGENT" : 9,
            "TEXCOORD_0" : 10,
            "TEXCOORD_1" : 11
          },
          "indices" : 6,
          "material" : 1
        },
        {
          "attributes" : {
            "POSITION" : 13,
            "NORMAL" : 14,
            "TANGENT" : 15,
            "TEXCOORD_0" : 16,
            "TEXCOORD_1" : 17
          },
          "indices" : 12,
          "material" : 2
        }
      ],
      "name" : "S_Envi_Fyz_Building_Merge_93i"
    }
  ],
  "buffers" : [
    {
      "uri" : "S_Envi_Fyz_Building_Merge_93i.bin",
      "byteLength" : 20196
    }
  ],
  "bufferViews" : [
    {
      "buffer" : 0,
      "byteOffset" : 0,
      "byteLength" : 252
    },
    {
      "buffer" : 0,
      "byteOffset" : 252,
      "byteLength" : 648
    },
    {
      "buffer" : 0,
      "byteOffset" : 900,
      "byteLength" : 648
    },
    {
      "buffer" : 0,
      "byteOffset" : 1548,
      "byteLength" : 864
    },
    {
      "buffer" : 0,
      "byteOffset" : 2412,
      "byteLength" : 432
    },
    {
      "buffer" : 0,
      "byteOffset" : 2844,
      "byteLength" : 432
    },
    {
      "buffer" : 0,
      "byteOffset" : 3276,
      "byteLength" : 264
    },
    {
      "buffer" : 0,
      "byteOffset" : 3540,
      "byteLength" : 636
    },
    {
      "buffer" : 0,
      "byteOffset" : 4176,
      "byteLength" : 636
    },
    {
      "buffer" : 0,
      "byteOffset" : 4812,
      "byteLength" : 848
    },
    {
      "buffer" : 0,
      "byteOffset" : 5660,
      "byteLength" : 424
    },
    {
      "buffer" : 0,
      "byteOffset" : 6084,
      "byteLength" : 424
    },
    {
      "buffer" : 0,
      "byteOffset" : 6508,
      "byteLength" : 696
    },
    {
      "buffer" : 0,
      "byteOffset" : 7204,
      "byteLength" : 2784
    },
    {
      "buffer" : 0,
      "byteOffset" : 9988,
      "byteLength" : 2784
    },
    {
      "buffer" : 0,
      "byteOffset" : 12772,
      "byteLength" : 3712
    },
    {
      "buffer" : 0,
      "byteOffset" : 16484,
      "byteLength" : 1856
    },
    {
      "buffer" : 0,
      "byteOffset" : 18340,
      "byteLength" : 1856
    }
  ],
  "accessors" : [
    {
      "bufferView" : 0,
      "componentType" : 5123,
      "count" : 126,
      "type" : "SCALAR"
    },
    {
      "bufferView" : 1,
      "min" : [ -75.0394, -10.9943, -76.8191 ],
      "max" : [ 43.7703, 6.10352e-07, 18.7878 ],
      "componentType" : 5126,
      "count" : 54,
      "type" : "VEC3"
    },
    {
      "bufferView" : 2,
      "componentType" : 5126,
      "count" : 54,
      "type" : "VEC3"
    },
    {
      "bufferView" : 3,
      "componentType" : 5126,
      "count" : 54,
      "type" : "VEC4"
    },
    {
      "bufferView" : 4,
      "componentType" : 5126,
      "count" : 54,
      "type" : "VEC2"
    },
    {
      "bufferView" : 5,
      "componentType" : 5126,
      "count" : 54,
      "type" : "VEC2"
    },
    {
      "bufferView" : 6,
      "componentType" : 5123,
      "count" : 132,
      "type" : "SCALAR"
    },
    {
      "bufferView" : 7,
      "min" : [ -74.9497, -4.56, -76.8069 ],
      "max" : [ 50.5094, 0.849643, -20.0017 ],
      "componentType" : 5126,
      "count" : 53,
      "type" : "VEC3"
    },
    {
      "bufferView" : 8,
      "componentType" : 5126,
      "count" : 53,
      "type" : "VEC3"
    },
    {
      "bufferView" : 9,
      "componentType" : 5126,
      "count" : 53,
      "type" : "VEC4"
    },
    {
      "bufferView" : 10,
      "componentType" : 5126,
      "count" : 53,
      "type" : "VEC2"
    },
    {
      "bufferView" : 11,
      "componentType" : 5126,
      "count" : 53,
      "type" : "VEC2"
    },
    {
      "bufferView" : 12,
      "componentType" : 5123,
      "count" : 348,
      "type" : "SCALAR"
    },
    {
      "bufferView" : 13,
      "min" : [ -22.5484, -4.93731, -49.8944 ],
      "max" : [ 18.4216, 0.903267, 26.6709 ],
      "componentType" : 5126,
      "count" : 232,
      "type" : "VEC3"
    },
    {
      "bufferView" : 14,
      "componentType" : 5126,
      "count" : 232,
      "type" : "VEC3"
    },
    {
      "bufferView" : 15,
      "componentType" : 5126,
      "count" : 232,
      "type" : "VEC4"
    },
    {
      "bufferView" : 16,
      "componentType" : 5126,
      "count" : 232,
      "type" : "VEC2"
    },
    {
      "bufferView" : 17,
      "componentType" : 5126,
      "count" : 232,
      "type" : "VEC2"
    }
  ]
}
