{
  "asset" : {
    "generator" : "UE Viewer (umodel) build 1579 based",
    "version" : "2.0"
  },
  "scene" : 0,
  "scenes" : [
    {
      "nodes" : [ 0 ]
    }
  ],
  "nodes" : [
    {
      "name" : "S_Envi_Fyz_Building_60l",
      "mesh" : 0
    }
  ],
  "materials" : [
    {
      "name" : "MI_Envi_Fyz_Floor_04f",
      "pbrMetallicRoughness" : {
        "baseColorFactor" : [ 0.3, 0.3, 0.3, 1.0 ],
        "metallicFactor" : 0.1,
        "roughnessFactor" : 0.5
      }
    }
  ],
  "meshes" : [
    {
      "primitives" : [
        {
          "attributes" : {
            "POSITION" : 1,
            "NORMAL" : 2,
            "TANGENT" : 3,
            "TEXCOORD_0" : 4,
            "TEXCOORD_1" : 5
          },
          "indices" : 0,
          "material" : 0
        }
      ],
      "name" : "S_Envi_Fyz_Building_60l"
    }
  ],
  "buffers" : [
    {
      "uri" : "S_Envi_Fyz_Building_60l.bin",
      "byteLength" : 12212
    }
  ],
  "bufferViews" : [
    {
      "buffer" : 0,
      "byteOffset" : 0,
      "byteLength" : 1796
    },
    {
      "buffer" : 0,
      "byteOffset" : 1796,
      "byteLength" : 2232
    },
    {
      "buffer" : 0,
      "byteOffset" : 4028,
      "byteLength" : 2232
    },
    {
      "buffer" : 0,
      "byteOffset" : 6260,
      "byteLength" : 2976
    },
    {
      "buffer" : 0,
      "byteOffset" : 9236,
      "byteLength" : 1488
    },
    {
      "buffer" : 0,
      "byteOffset" : 10724,
      "byteLength" : 1488
    }
  ],
  "accessors" : [
    {
      "bufferView" : 0,
      "componentType" : 5123,
      "count" : 897,
      "type" : "SCALAR"
    },
    {
      "bufferView" : 1,
      "min" : [ -66.5803, 5.00869, 11.9356 ],
      "max" : [ -55.2389, 5.01103, 25.7965 ],
      "componentType" : 5126,
      "count" : 186,
      "type" : "VEC3"
    },
    {
      "bufferView" : 2,
      "componentType" : 5126,
      "count" : 186,
      "type" : "VEC3"
    },
    {
      "bufferView" : 3,
      "componentType" : 5126,
      "count" : 186,
      "type" : "VEC4"
    },
    {
      "bufferView" : 4,
      "componentType" : 5126,
      "count" : 186,
      "type" : "VEC2"
    },
    {
      "bufferView" : 5,
      "componentType" : 5126,
      "count" : 186,
      "type" : "VEC2"
    }
  ]
}
