{
  "asset" : {
    "generator" : "UE Viewer (umodel) build 1579 based",
    "version" : "2.0"
  },
  "scene" : 0,
  "scenes" : [
    {
      "nodes" : [ 0 ]
    }
  ],
  "nodes" : [
    {
      "name" : "S_Envi_Fyz_BuildingMerge_03b",
      "mesh" : 0
    }
  ],
  "materials" : [
    {
      "name" : "MI_Envi_Fyz_House_01a",
      "pbrMetallicRoughness" : {
        "baseColorFactor" : [ 0.3, 0.3, 0.3, 1.0 ],
        "metallicFactor" : 0.1,
        "roughnessFactor" : 0.5
      }
    },
    {
      "name" : "MI_Envi_Fyz_House_01c",
      "pbrMetallicRoughness" : {
        "baseColorFactor" : [ 0.9, 0.3, 0.3, 1.0 ],
        "metallicFactor" : 0.1,
        "roughnessFactor" : 0.5
      }
    },
    {
      "name" : "MI_Envi_Fyz_House_01b",
      "pbrMetallicRoughness" : {
        "baseColorFactor" : [ 0.3, 0.9, 0.3, 1.0 ],
        "metallicFactor" : 0.1,
        "roughnessFactor" : 0.5
      }
    }
  ],
  "meshes" : [
    {
      "primitives" : [
        {
          "attributes" : {
            "POSITION" : 1,
            "NORMAL" : 2,
            "TANGENT" : 3,
            "TEXCOORD_0" : 4,
            "TEXCOORD_1" : 5,
            "TEXCOORD_2" : 6,
            "TEXCOORD_3" : 7,
            "TEXCOORD_4" : 8
          },
          "indices" : 0,
          "material" : 0
        },
        {
          "attributes" : {
            "POSITION" : 10,
            "NORMAL" : 11,
            "TANGENT" : 12,
            "TEXCOORD_0" : 13,
            "TEXCOORD_1" : 14,
            "TEXCOORD_2" : 15,
            "TEXCOORD_3" : 16,
            "TEXCOORD_4" : 17
          },
          "indices" : 9,
          "material" : 1
        },
        {
          "attributes" : {
            "POSITION" : 19,
            "NORMAL" : 20,
            "TANGENT" : 21,
            "TEXCOORD_0" : 22,
            "TEXCOORD_1" : 23,
            "TEXCOORD_2" : 24,
            "TEXCOORD_3" : 25,
            "TEXCOORD_4" : 26
          },
          "indices" : 18,
          "material" : 2
        }
      ],
      "name" : "S_Envi_Fyz_BuildingMerge_03b"
    }
  ],
  "buffers" : [
    {
      "uri" : "S_Envi_Fyz_BuildingMerge_03b.bin",
      "byteLength" : 1876796
    }
  ],
  "bufferViews" : [
    {
      "buffer" : 0,
      "byteOffset" : 0,
      "byteLength" : 72432
    },
    {
      "buffer" : 0,
      "byteOffset" : 72432,
      "byteLength" : 247308
    },
    {
      "buffer" : 0,
      "byteOffset" : 319740,
      "byteLength" : 247308
    },
    {
      "buffer" : 0,
      "byteOffset" : 567048,
      "byteLength" : 329744
    },
    {
      "buffer" : 0,
      "byteOffset" : 896792,
      "byteLength" : 164872
    },
    {
      "buffer" : 0,
      "byteOffset" : 1061664,
      "byteLength" : 164872
    },
    {
      "buffer" : 0,
      "byteOffset" : 1226536,
      "byteLength" : 164872
    },
    {
      "buffer" : 0,
      "byteOffset" : 1391408,
      "byteLength" : 164872
    },
    {
      "buffer" : 0,
      "byteOffset" : 1556280,
      "byteLength" : 164872
    },
    {
      "buffer" : 0,
      "byteOffset" : 1721152,
      "byteLength" : 2256
    },
    {
      "buffer" : 0,
      "byteOffset" : 1723408,
      "byteLength" : 8928
    },
    {
      "buffer" : 0,
      "byteOffset" : 1732336,
      "byteLength" : 8928
    },
    {
      "buffer" : 0,
      "byteOffset" : 1741264,
      "byteLength" : 11904
    },
    {
      "buffer" : 0,
      "byteOffset" : 1753168,
      "byteLength" : 5952
    },
    {
      "buffer" : 0,
      "byteOffset" : 1759120,
      "byteLength" : 5952
    },
    {
      "buffer" : 0,
      "byteOffset" : 1765072,
      "byteLength" : 5952
    },
    {
      "buffer" : 0,
      "byteOffset" : 1771024,
      "byteLength" : 5952
    },
    {
      "buffer" : 0,
      "byteOffset" : 1776976,
      "byteLength" : 5952
    },
    {
      "buffer" : 0,
      "byteOffset" : 1782928,
      "byteLength" : 4908
    },
    {
      "buffer" : 0,
      "byteOffset" : 1787836,
      "byteLength" : 13344
    },
    {
      "buffer" : 0,
      "byteOffset" : 1801180,
      "byteLength" : 13344
    },
    {
      "buffer" : 0,
      "byteOffset" : 1814524,
      "byteLength" : 17792
    },
    {
      "buffer" : 0,
      "byteOffset" : 1832316,
      "byteLength" : 8896
    },
    {
      "buffer" : 0,
      "byteOffset" : 1841212,
      "byteLength" : 8896
    },
    {
      "buffer" : 0,
      "byteOffset" : 1850108,
      "byteLength" : 8896
    },
    {
      "buffer" : 0,
      "byteOffset" : 1859004,
      "byteLength" : 8896
    },
    {
      "buffer" : 0,
      "byteOffset" : 1867900,
      "byteLength" : 8896
    }
  ],
  "accessors" : [
    {
      "bufferView" : 0,
      "componentType" : 5123,
      "count" : 36216,
      "type" : "SCALAR"
    },
    {
      "bufferView" : 1,
      "min" : [ -41.6536, -0.55488, 54.5779 ],
      "max" : [ -29.2243, 18.3431, 111.587 ],
      "componentType" : 5126,
      "count" : 20609,
      "type" : "VEC3"
    },
    {
      "bufferView" : 2,
      "componentType" : 5126,
      "count" : 20609,
      "type" : "VEC3"
    },
    {
      "bufferView" : 3,
      "componentType" : 5126,
      "count" : 20609,
      "type" : "VEC4"
    },
    {
      "bufferView" : 4,
      "componentType" : 5126,
      "count" : 20609,
      "type" : "VEC2"
    },
    {
      "bufferView" : 5,
      "componentType" : 5126,
      "count" : 20609,
      "type" : "VEC2"
    },
    {
      "bufferView" : 6,
      "componentType" : 5126,
      "count" : 20609,
      "type" : "VEC2"
    },
    {
      "bufferView" : 7,
      "componentType" : 5126,
      "count" : 20609,
      "type" : "VEC2"
    },
    {
      "bufferView" : 8,
      "componentType" : 5126,
      "count" : 20609,
      "type" : "VEC2"
    },
    {
      "bufferView" : 9,
      "componentType" : 5123,
      "count" : 1128,
      "type" : "SCALAR"
    },
    {
      "bufferView" : 10,
      "min" : [ -41.6084, -0.144126, 54.9554 ],
      "max" : [ -29.9819, 14.2728, 101.165 ],
      "componentType" : 5126,
      "count" : 744,
      "type" : "VEC3"
    },
    {
      "bufferView" : 11,
      "componentType" : 5126,
      "count" : 744,
      "type" : "VEC3"
    },
    {
      "bufferView" : 12,
      "componentType" : 5126,
      "count" : 744,
      "type" : "VEC4"
    },
    {
      "bufferView" : 13,
      "componentType" : 5126,
      "count" : 744,
      "type" : "VEC2"
    },
    {
      "bufferView" : 14,
      "componentType" : 5126,
      "count" : 744,
      "type" : "VEC2"
    },
    {
      "bufferView" : 15,
      "componentType" : 5126,
      "count" : 744,
      "type" : "VEC2"
    },
    {
      "bufferView" : 16,
      "componentType" : 5126,
      "count" : 744,
      "type" : "VEC2"
    },
    {
      "bufferView" : 17,
      "componentType" : 5126,
      "count" : 744,
      "type" : "VEC2"
    },
    {
      "bufferView" : 18,
      "componentType" : 5123,
      "count" : 2454,
      "type" : "SCALAR"
    },
    {
      "bufferView" : 19,
      "min" : [ -45.9257, -0.218663, 54.4195 ],
      "max" : [ -29.469, 14.9407, 111.638 ],
      "componentType" : 5126,
      "count" : 1112,
      "type" : "VEC3"
    },
    {
      "bufferView" : 20,
      "componentType" : 5126,
      "count" : 1112,
      "type" : "VEC3"
    },
    {
      "bufferView" : 21,
      "componentType" : 5126,
      "count" : 1112,
      "type" : "VEC4"
    },
    {
      "bufferView" : 22,
      "componentType" : 5126,
      "count" : 1112,
      "type" : "VEC2"
    },
    {
      "bufferView" : 23,
      "componentType" : 5126,
      "count" : 1112,
      "type" : "VEC2"
    },
    {
      "bufferView" : 24,
      "componentType" : 5126,
      "count" : 1112,
      "type" : "VEC2"
    },
    {
      "bufferView" : 25,
      "componentType" : 5126,
      "count" : 1112,
      "type" : "VEC2"
    },
    {
      "bufferView" : 26,
      "componentType" : 5126,
      "count" : 1112,
      "type" : "VEC2"
    }
  ]
}
