{
  "asset" : {
    "generator" : "UE Viewer (umodel) build 1579 based",
    "version" : "2.0"
  },
  "scene" : 0,
  "scenes" : [
    {
      "nodes" : [ 0 ]
    }
  ],
  "nodes" : [
    {
      "name" : "S_Envi_Fyz_BuildingRoom_04c",
      "mesh" : 0
    }
  ],
  "materials" : [
    {
      "name" : "MI_Envi_Common_HBuilding_01a",
      "pbrMetallicRoughness" : {
        "baseColorFactor" : [ 0.3, 0.3, 0.3, 1.0 ],
        "metallicFactor" : 0.1,
        "roughnessFactor" : 0.5
      }
    }
  ],
  "meshes" : [
    {
      "primitives" : [
        {
          "attributes" : {
            "POSITION" : 1,
            "NORMAL" : 2,
            "TANGENT" : 3,
            "TEXCOORD_0" : 4,
            "TEXCOORD_1" : 5
          },
          "indices" : 0,
          "material" : 0
        }
      ],
      "name" : "S_Envi_Fyz_BuildingRoom_04c"
    }
  ],
  "buffers" : [
    {
      "uri" : "S_Envi_Fyz_BuildingRoom_04c.bin",
      "byteLength" : 77420
    }
  ],
  "bufferViews" : [
    {
      "buffer" : 0,
      "byteOffset" : 0,
      "byteLength" : 4620
    },
    {
      "buffer" : 0,
      "byteOffset" : 4620,
      "byteLength" : 15600
    },
    {
      "buffer" : 0,
      "byteOffset" : 20220,
      "byteLength" : 15600
    },
    {
      "buffer" : 0,
      "byteOffset" : 35820,
      "byteLength" : 20800
    },
    {
      "buffer" : 0,
      "byteOffset" : 56620,
      "byteLength" : 10400
    },
    {
      "buffer" : 0,
      "byteOffset" : 67020,
      "byteLength" : 10400
    }
  ],
  "accessors" : [
    {
      "bufferView" : 0,
      "componentType" : 5123,
      "count" : 2310,
      "type" : "SCALAR"
    },
    {
      "bufferView" : 1,
      "min" : [ 22.089, 9.59573, 29.3163 ],
      "max" : [ 34.9012, 10.056, 48.8695 ],
      "componentType" : 5126,
      "count" : 1300,
      "type" : "VEC3"
    },
    {
      "bufferView" : 2,
      "componentType" : 5126,
      "count" : 1300,
      "type" : "VEC3"
    },
    {
      "bufferView" : 3,
      "componentType" : 5126,
      "count" : 1300,
      "type" : "VEC4"
    },
    {
      "bufferView" : 4,
      "componentType" : 5126,
      "count" : 1300,
      "type" : "VEC2"
    },
    {
      "bufferView" : 5,
      "componentType" : 5126,
      "count" : 1300,
      "type" : "VEC2"
    }
  ]
}
