{
  "asset" : {
    "generator" : "UE Viewer (umodel) build 1579 based",
    "version" : "2.0"
  },
  "scene" : 0,
  "scenes" : [
    {
      "nodes" : [ 0 ]
    }
  ],
  "nodes" : [
    {
      "name" : "S_Envi_Fyz_Building_89r",
      "mesh" : 0
    }
  ],
  "materials" : [
    {
      "name" : "MI_Envi_Fyz_Wall_04a",
      "pbrMetallicRoughness" : {
        "baseColorFactor" : [ 0.3, 0.3, 0.3, 1.0 ],
        "metallicFactor" : 0.1,
        "roughnessFactor" : 0.5
      }
    }
  ],
  "meshes" : [
    {
      "primitives" : [
        {
          "attributes" : {
            "POSITION" : 1,
            "NORMAL" : 2,
            "TANGENT" : 3,
            "TEXCOORD_0" : 4,
            "TEXCOORD_1" : 5
          },
          "indices" : 0,
          "material" : 0
        }
      ],
      "name" : "S_Envi_Fyz_Building_89r"
    }
  ],
  "buffers" : [
    {
      "uri" : "S_Envi_Fyz_Building_89r.bin",
      "byteLength" : 2260
    }
  ],
  "bufferViews" : [
    {
      "buffer" : 0,
      "byteOffset" : 0,
      "byteLength" : 132
    },
    {
      "buffer" : 0,
      "byteOffset" : 132,
      "byteLength" : 456
    },
    {
      "buffer" : 0,
      "byteOffset" : 588,
      "byteLength" : 456
    },
    {
      "buffer" : 0,
      "byteOffset" : 1044,
      "byteLength" : 608
    },
    {
      "buffer" : 0,
      "byteOffset" : 1652,
      "byteLength" : 304
    },
    {
      "buffer" : 0,
      "byteOffset" : 1956,
      "byteLength" : 304
    }
  ],
  "accessors" : [
    {
      "bufferView" : 0,
      "componentType" : 5123,
      "count" : 66,
      "type" : "SCALAR"
    },
    {
      "bufferView" : 1,
      "min" : [ -26.008, -1.43864, 9.42935 ],
      "max" : [ -0.00651184, 0.601427, 46.3622 ],
      "componentType" : 5126,
      "count" : 38,
      "type" : "VEC3"
    },
    {
      "bufferView" : 2,
      "componentType" : 5126,
      "count" : 38,
      "type" : "VEC3"
    },
    {
      "bufferView" : 3,
      "componentType" : 5126,
      "count" : 38,
      "type" : "VEC4"
    },
    {
      "bufferView" : 4,
      "componentType" : 5126,
      "count" : 38,
      "type" : "VEC2"
    },
    {
      "bufferView" : 5,
      "componentType" : 5126,
      "count" : 38,
      "type" : "VEC2"
    }
  ]
}
