{
  "asset" : {
    "generator" : "UE Viewer (umodel) build 1579 based",
    "version" : "2.0"
  },
  "scene" : 0,
  "scenes" : [
    {
      "nodes" : [ 0 ]
    }
  ],
  "nodes" : [
    {
      "name" : "S_Envi_Fyz_BuildingMerge_94r",
      "mesh" : 0
    }
  ],
  "materials" : [
    {
      "name" : "MI_Envi_Umeda_Prop_Storagebox_01_B",
      "pbrMetallicRoughness" : {
        "baseColorFactor" : [ 0.3, 0.3, 0.3, 1.0 ],
        "metallicFactor" : 0.1,
        "roughnessFactor" : 0.5
      }
    }
  ],
  "meshes" : [
    {
      "primitives" : [
        {
          "attributes" : {
            "POSITION" : 1,
            "NORMAL" : 2,
            "TANGENT" : 3,
            "TEXCOORD_0" : 4,
            "TEXCOORD_1" : 5
          },
          "indices" : 0,
          "material" : 0
        }
      ],
      "name" : "S_Envi_Fyz_BuildingMerge_94r"
    }
  ],
  "buffers" : [
    {
      "uri" : "S_Envi_Fyz_BuildingMerge_94r.bin",
      "byteLength" : 304804
    }
  ],
  "bufferViews" : [
    {
      "buffer" : 0,
      "byteOffset" : 0,
      "byteLength" : 18756
    },
    {
      "buffer" : 0,
      "byteOffset" : 18756,
      "byteLength" : 61296
    },
    {
      "buffer" : 0,
      "byteOffset" : 80052,
      "byteLength" : 61296
    },
    {
      "buffer" : 0,
      "byteOffset" : 141348,
      "byteLength" : 81728
    },
    {
      "buffer" : 0,
      "byteOffset" : 223076,
      "byteLength" : 40864
    },
    {
      "buffer" : 0,
      "byteOffset" : 263940,
      "byteLength" : 40864
    }
  ],
  "accessors" : [
    {
      "bufferView" : 0,
      "componentType" : 5123,
      "count" : 9378,
      "type" : "SCALAR"
    },
    {
      "bufferView" : 1,
      "min" : [ 35.801, 5.0389, 16.8107 ],
      "max" : [ 39.1953, 7.03544, 29.1698 ],
      "componentType" : 5126,
      "count" : 5108,
      "type" : "VEC3"
    },
    {
      "bufferView" : 2,
      "componentType" : 5126,
      "count" : 5108,
      "type" : "VEC3"
    },
    {
      "bufferView" : 3,
      "componentType" : 5126,
      "count" : 5108,
      "type" : "VEC4"
    },
    {
      "bufferView" : 4,
      "componentType" : 5126,
      "count" : 5108,
      "type" : "VEC2"
    },
    {
      "bufferView" : 5,
      "componentType" : 5126,
      "count" : 5108,
      "type" : "VEC2"
    }
  ]
}
