{
  "asset" : {
    "generator" : "UE Viewer (umodel) build 1579 based",
    "version" : "2.0"
  },
  "scene" : 0,
  "scenes" : [
    {
      "nodes" : [ 0 ]
    }
  ],
  "nodes" : [
    {
      "name" : "S_Envi_Fyz_Building_112a",
      "mesh" : 0
    }
  ],
  "materials" : [
    {
      "name" : "MI_Envi_Fyz_Wall_02c",
      "pbrMetallicRoughness" : {
        "baseColorFactor" : [ 0.3, 0.3, 0.3, 1.0 ],
        "metallicFactor" : 0.1,
        "roughnessFactor" : 0.5
      }
    }
  ],
  "meshes" : [
    {
      "primitives" : [
        {
          "attributes" : {
            "POSITION" : 1,
            "NORMAL" : 2,
            "TANGENT" : 3,
            "TEXCOORD_0" : 4,
            "TEXCOORD_1" : 5,
            "TEXCOORD_2" : 6,
            "TEXCOORD_3" : 7
          },
          "indices" : 0,
          "material" : 0
        }
      ],
      "name" : "S_Envi_Fyz_Building_112a"
    }
  ],
  "buffers" : [
    {
      "uri" : "S_Envi_Fyz_Building_112a.bin",
      "byteLength" : 96068
    }
  ],
  "bufferViews" : [
    {
      "buffer" : 0,
      "byteOffset" : 0,
      "byteLength" : 11468
    },
    {
      "buffer" : 0,
      "byteOffset" : 11468,
      "byteLength" : 14100
    },
    {
      "buffer" : 0,
      "byteOffset" : 25568,
      "byteLength" : 14100
    },
    {
      "buffer" : 0,
      "byteOffset" : 39668,
      "byteLength" : 18800
    },
    {
      "buffer" : 0,
      "byteOffset" : 58468,
      "byteLength" : 9400
    },
    {
      "buffer" : 0,
      "byteOffset" : 67868,
      "byteLength" : 9400
    },
    {
      "buffer" : 0,
      "byteOffset" : 77268,
      "byteLength" : 9400
    },
    {
      "buffer" : 0,
      "byteOffset" : 86668,
      "byteLength" : 9400
    }
  ],
  "accessors" : [
    {
      "bufferView" : 0,
      "componentType" : 5123,
      "count" : 5733,
      "type" : "SCALAR"
    },
    {
      "bufferView" : 1,
      "min" : [ -12.4249, -0.0428206, -11.5022 ],
      "max" : [ 5.15273, 4.82449, 13.6383 ],
      "componentType" : 5126,
      "count" : 1175,
      "type" : "VEC3"
    },
    {
      "bufferView" : 2,
      "componentType" : 5126,
      "count" : 1175,
      "type" : "VEC3"
    },
    {
      "bufferView" : 3,
      "componentType" : 5126,
      "count" : 1175,
      "type" : "VEC4"
    },
    {
      "bufferView" : 4,
      "componentType" : 5126,
      "count" : 1175,
      "type" : "VEC2"
    },
    {
      "bufferView" : 5,
      "componentType" : 5126,
      "count" : 1175,
      "type" : "VEC2"
    },
    {
      "bufferView" : 6,
      "componentType" : 5126,
      "count" : 1175,
      "type" : "VEC2"
    },
    {
      "bufferView" : 7,
      "componentType" : 5126,
      "count" : 1175,
      "type" : "VEC2"
    }
  ]
}
