{
  "asset" : {
    "generator" : "UE Viewer (umodel) build 1579 based",
    "version" : "2.0"
  },
  "scene" : 0,
  "scenes" : [
    {
      "nodes" : [ 0 ]
    }
  ],
  "nodes" : [
    {
      "name" : "S_Envi_Fyz_Building_105f",
      "mesh" : 0
    }
  ],
  "materials" : [
    {
      "name" : "MI_Envi_Fyz_FlowerBed_01a",
      "pbrMetallicRoughness" : {
        "baseColorFactor" : [ 0.3, 0.3, 0.3, 1.0 ],
        "metallicFactor" : 0.1,
        "roughnessFactor" : 0.5
      }
    }
  ],
  "meshes" : [
    {
      "primitives" : [
        {
          "attributes" : {
            "POSITION" : 1,
            "NORMAL" : 2,
            "TANGENT" : 3,
            "TEXCOORD_0" : 4,
            "TEXCOORD_1" : 5
          },
          "indices" : 0,
          "material" : 0
        }
      ],
      "name" : "S_Envi_Fyz_Building_105f"
    }
  ],
  "buffers" : [
    {
      "uri" : "S_Envi_Fyz_Building_105f.bin",
      "byteLength" : 232456
    }
  ],
  "bufferViews" : [
    {
      "buffer" : 0,
      "byteOffset" : 0,
      "byteLength" : 14280
    },
    {
      "buffer" : 0,
      "byteOffset" : 14280,
      "byteLength" : 46752
    },
    {
      "buffer" : 0,
      "byteOffset" : 61032,
      "byteLength" : 46752
    },
    {
      "buffer" : 0,
      "byteOffset" : 107784,
      "byteLength" : 62336
    },
    {
      "buffer" : 0,
      "byteOffset" : 170120,
      "byteLength" : 31168
    },
    {
      "buffer" : 0,
      "byteOffset" : 201288,
      "byteLength" : 31168
    }
  ],
  "accessors" : [
    {
      "bufferView" : 0,
      "componentType" : 5123,
      "count" : 7140,
      "type" : "SCALAR"
    },
    {
      "bufferView" : 1,
      "min" : [ -0.101985, 0.106859, -0.838809 ],
      "max" : [ 0.00500199, 3.29177, 0.838811 ],
      "componentType" : 5126,
      "count" : 3896,
      "type" : "VEC3"
    },
    {
      "bufferView" : 2,
      "componentType" : 5126,
      "count" : 3896,
      "type" : "VEC3"
    },
    {
      "bufferView" : 3,
      "componentType" : 5126,
      "count" : 3896,
      "type" : "VEC4"
    },
    {
      "bufferView" : 4,
      "componentType" : 5126,
      "count" : 3896,
      "type" : "VEC2"
    },
    {
      "bufferView" : 5,
      "componentType" : 5126,
      "count" : 3896,
      "type" : "VEC2"
    }
  ]
}
