{
  "asset" : {
    "generator" : "UE Viewer (umodel) build 1579 based",
    "version" : "2.0"
  },
  "scene" : 0,
  "scenes" : [
    {
      "nodes" : [ 0 ]
    }
  ],
  "nodes" : [
    {
      "name" : "S_Envi_Fyz_Building_87j",
      "mesh" : 0
    }
  ],
  "materials" : [
    {
      "name" : "MI_Envi_Foliage_Grass_01a",
      "pbrMetallicRoughness" : {
        "baseColorFactor" : [ 0.3, 0.3, 0.3, 1.0 ],
        "metallicFactor" : 0.1,
        "roughnessFactor" : 0.5
      }
    }
  ],
  "meshes" : [
    {
      "primitives" : [
        {
          "attributes" : {
            "POSITION" : 1,
            "NORMAL" : 2,
            "TANGENT" : 3,
            "TEXCOORD_0" : 4,
            "TEXCOORD_1" : 5
          },
          "indices" : 0,
          "material" : 0
        }
      ],
      "name" : "S_Envi_Fyz_Building_87j"
    }
  ],
  "buffers" : [
    {
      "uri" : "S_Envi_Fyz_Building_87j.bin",
      "byteLength" : 548
    }
  ],
  "bufferViews" : [
    {
      "buffer" : 0,
      "byteOffset" : 0,
      "byteLength" : 44
    },
    {
      "buffer" : 0,
      "byteOffset" : 44,
      "byteLength" : 108
    },
    {
      "buffer" : 0,
      "byteOffset" : 152,
      "byteLength" : 108
    },
    {
      "buffer" : 0,
      "byteOffset" : 260,
      "byteLength" : 144
    },
    {
      "buffer" : 0,
      "byteOffset" : 404,
      "byteLength" : 72
    },
    {
      "buffer" : 0,
      "byteOffset" : 476,
      "byteLength" : 72
    }
  ],
  "accessors" : [
    {
      "bufferView" : 0,
      "componentType" : 5123,
      "count" : 21,
      "type" : "SCALAR"
    },
    {
      "bufferView" : 1,
      "min" : [ -17.6571, 0, 10.0315 ],
      "max" : [ 0.219512, 0, 16.7027 ],
      "componentType" : 5126,
      "count" : 9,
      "type" : "VEC3"
    },
    {
      "bufferView" : 2,
      "componentType" : 5126,
      "count" : 9,
      "type" : "VEC3"
    },
    {
      "bufferView" : 3,
      "componentType" : 5126,
      "count" : 9,
      "type" : "VEC4"
    },
    {
      "bufferView" : 4,
      "componentType" : 5126,
      "count" : 9,
      "type" : "VEC2"
    },
    {
      "bufferView" : 5,
      "componentType" : 5126,
      "count" : 9,
      "type" : "VEC2"
    }
  ]
}
