{
  "asset" : {
    "generator" : "UE Viewer (umodel) build 1579 based",
    "version" : "2.0"
  },
  "scene" : 0,
  "scenes" : [
    {
      "nodes" : [ 0 ]
    }
  ],
  "nodes" : [
    {
      "name" : "S_Envi_Fyz_Building_125e",
      "mesh" : 0
    }
  ],
  "materials" : [
    {
      "name" : "MI_Envi_Fyz_Floor_02d",
      "pbrMetallicRoughness" : {
        "baseColorFactor" : [ 0.3, 0.3, 0.3, 1.0 ],
        "metallicFactor" : 0.1,
        "roughnessFactor" : 0.5
      }
    },
    {
      "name" : "MI_Envi_Fyz_Floor_02c",
      "pbrMetallicRoughness" : {
        "baseColorFactor" : [ 0.9, 0.3, 0.3, 1.0 ],
        "metallicFactor" : 0.1,
        "roughnessFactor" : 0.5
      }
    },
    {
      "name" : "MI_Envi_commontrim_04",
      "pbrMetallicRoughness" : {
        "baseColorFactor" : [ 0.3, 0.9, 0.3, 1.0 ],
        "metallicFactor" : 0.1,
        "roughnessFactor" : 0.5
      }
    }
  ],
  "meshes" : [
    {
      "primitives" : [
        {
          "attributes" : {
            "POSITION" : 1,
            "NORMAL" : 2,
            "TANGENT" : 3,
            "TEXCOORD_0" : 4,
            "TEXCOORD_1" : 5,
            "TEXCOORD_2" : 6
          },
          "indices" : 0,
          "material" : 0
        },
        {
          "attributes" : {
            "POSITION" : 8,
            "NORMAL" : 9,
            "TANGENT" : 10,
            "TEXCOORD_0" : 11,
            "TEXCOORD_1" : 12,
            "TEXCOORD_2" : 13
          },
          "indices" : 7,
          "material" : 1
        },
        {
          "attributes" : {
            "POSITION" : 15,
            "NORMAL" : 16,
            "TANGENT" : 17,
            "TEXCOORD_0" : 18,
            "TEXCOORD_1" : 19,
            "TEXCOORD_2" : 20
          },
          "indices" : 14,
          "material" : 2
        }
      ],
      "name" : "S_Envi_Fyz_Building_125e"
    }
  ],
  "buffers" : [
    {
      "uri" : "S_Envi_Fyz_Building_125e.bin",
      "byteLength" : 210416
    }
  ],
  "bufferViews" : [
    {
      "buffer" : 0,
      "byteOffset" : 0,
      "byteLength" : 11520
    },
    {
      "buffer" : 0,
      "byteOffset" : 11520,
      "byteLength" : 13536
    },
    {
      "buffer" : 0,
      "byteOffset" : 25056,
      "byteLength" : 13536
    },
    {
      "buffer" : 0,
      "byteOffset" : 38592,
      "byteLength" : 18048
    },
    {
      "buffer" : 0,
      "byteOffset" : 56640,
      "byteLength" : 9024
    },
    {
      "buffer" : 0,
      "byteOffset" : 65664,
      "byteLength" : 9024
    },
    {
      "buffer" : 0,
      "byteOffset" : 74688,
      "byteLength" : 9024
    },
    {
      "buffer" : 0,
      "byteOffset" : 83712,
      "byteLength" : 1008
    },
    {
      "buffer" : 0,
      "byteOffset" : 84720,
      "byteLength" : 1200
    },
    {
      "buffer" : 0,
      "byteOffset" : 85920,
      "byteLength" : 1200
    },
    {
      "buffer" : 0,
      "byteOffset" : 87120,
      "byteLength" : 1600
    },
    {
      "buffer" : 0,
      "byteOffset" : 88720,
      "byteLength" : 800
    },
    {
      "buffer" : 0,
      "byteOffset" : 89520,
      "byteLength" : 800
    },
    {
      "buffer" : 0,
      "byteOffset" : 90320,
      "byteLength" : 800
    },
    {
      "buffer" : 0,
      "byteOffset" : 91120,
      "byteLength" : 4608
    },
    {
      "buffer" : 0,
      "byteOffset" : 95728,
      "byteLength" : 21504
    },
    {
      "buffer" : 0,
      "byteOffset" : 117232,
      "byteLength" : 21504
    },
    {
      "buffer" : 0,
      "byteOffset" : 138736,
      "byteLength" : 28672
    },
    {
      "buffer" : 0,
      "byteOffset" : 167408,
      "byteLength" : 14336
    },
    {
      "buffer" : 0,
      "byteOffset" : 181744,
      "byteLength" : 14336
    },
    {
      "buffer" : 0,
      "byteOffset" : 196080,
      "byteLength" : 14336
    }
  ],
  "accessors" : [
    {
      "bufferView" : 0,
      "componentType" : 5123,
      "count" : 5760,
      "type" : "SCALAR"
    },
    {
      "bufferView" : 1,
      "min" : [ -67.0446, -0.302814, -14.9598 ],
      "max" : [ 29.4256, 0.00891405, 50.2623 ],
      "componentType" : 5126,
      "count" : 1128,
      "type" : "VEC3"
    },
    {
      "bufferView" : 2,
      "componentType" : 5126,
      "count" : 1128,
      "type" : "VEC3"
    },
    {
      "bufferView" : 3,
      "componentType" : 5126,
      "count" : 1128,
      "type" : "VEC4"
    },
    {
      "bufferView" : 4,
      "componentType" : 5126,
      "count" : 1128,
      "type" : "VEC2"
    },
    {
      "bufferView" : 5,
      "componentType" : 5126,
      "count" : 1128,
      "type" : "VEC2"
    },
    {
      "bufferView" : 6,
      "componentType" : 5126,
      "count" : 1128,
      "type" : "VEC2"
    },
    {
      "bufferView" : 7,
      "componentType" : 5123,
      "count" : 504,
      "type" : "SCALAR"
    },
    {
      "bufferView" : 8,
      "min" : [ 7.24616, 0.0067, 2.08627 ],
      "max" : [ 15.3833, 0.00671467, 10.2428 ],
      "componentType" : 5126,
      "count" : 100,
      "type" : "VEC3"
    },
    {
      "bufferView" : 9,
      "componentType" : 5126,
      "count" : 100,
      "type" : "VEC3"
    },
    {
      "bufferView" : 10,
      "componentType" : 5126,
      "count" : 100,
      "type" : "VEC4"
    },
    {
      "bufferView" : 11,
      "componentType" : 5126,
      "count" : 100,
      "type" : "VEC2"
    },
    {
      "bufferView" : 12,
      "componentType" : 5126,
      "count" : 100,
      "type" : "VEC2"
    },
    {
      "bufferView" : 13,
      "componentType" : 5126,
      "count" : 100,
      "type" : "VEC2"
    },
    {
      "bufferView" : 14,
      "componentType" : 5123,
      "count" : 2304,
      "type" : "SCALAR"
    },
    {
      "bufferView" : 15,
      "min" : [ 7.04139, -0.0392695, 1.92709 ],
      "max" : [ 15.5418, 0.0321891, 10.4274 ],
      "componentType" : 5126,
      "count" : 1792,
      "type" : "VEC3"
    },
    {
      "bufferView" : 16,
      "componentType" : 5126,
      "count" : 1792,
      "type" : "VEC3"
    },
    {
      "bufferView" : 17,
      "componentType" : 5126,
      "count" : 1792,
      "type" : "VEC4"
    },
    {
      "bufferView" : 18,
      "componentType" : 5126,
      "count" : 1792,
      "type" : "VEC2"
    },
    {
      "bufferView" : 19,
      "componentType" : 5126,
      "count" : 1792,
      "type" : "VEC2"
    },
    {
      "bufferView" : 20,
      "componentType" : 5126,
      "count" : 1792,
      "type" : "VEC2"
    }
  ]
}
