{
  "asset" : {
    "generator" : "UE Viewer (umodel) build 1579 based",
    "version" : "2.0"
  },
  "scene" : 0,
  "scenes" : [
    {
      "nodes" : [ 0 ]
    }
  ],
  "nodes" : [
    {
      "name" : "S_Envi_Fyz_Grass_Merge_02a",
      "mesh" : 0
    }
  ],
  "materials" : [
    {
      "name" : "MI_Envi_Foliage_shrub_08",
      "pbrMetallicRoughness" : {
        "baseColorFactor" : [ 0.3, 0.3, 0.3, 1.0 ],
        "metallicFactor" : 0.1,
        "roughnessFactor" : 0.5
      }
    }
  ],
  "meshes" : [
    {
      "primitives" : [
        {
          "attributes" : {
            "POSITION" : 1,
            "NORMAL" : 2,
            "TANGENT" : 3,
            "TEXCOORD_0" : 4,
            "TEXCOORD_1" : 5
          },
          "indices" : 0,
          "material" : 0
        }
      ],
      "name" : "S_Envi_Fyz_Grass_Merge_02a"
    }
  ],
  "buffers" : [
    {
      "uri" : "S_Envi_Fyz_Grass_Merge_02a.bin",
      "byteLength" : 1062144
    }
  ],
  "bufferViews" : [
    {
      "buffer" : 0,
      "byteOffset" : 0,
      "byteLength" : 70328
    },
    {
      "buffer" : 0,
      "byteOffset" : 70328,
      "byteLength" : 212532
    },
    {
      "buffer" : 0,
      "byteOffset" : 282860,
      "byteLength" : 212532
    },
    {
      "buffer" : 0,
      "byteOffset" : 495392,
      "byteLength" : 283376
    },
    {
      "buffer" : 0,
      "byteOffset" : 778768,
      "byteLength" : 141688
    },
    {
      "buffer" : 0,
      "byteOffset" : 920456,
      "byteLength" : 141688
    }
  ],
  "accessors" : [
    {
      "bufferView" : 0,
      "componentType" : 5123,
      "count" : 35163,
      "type" : "SCALAR"
    },
    {
      "bufferView" : 1,
      "min" : [ -6.53517, -18.2233, -116.657 ],
      "max" : [ 17.0435, -14.8028, -93.608 ],
      "componentType" : 5126,
      "count" : 17711,
      "type" : "VEC3"
    },
    {
      "bufferView" : 2,
      "componentType" : 5126,
      "count" : 17711,
      "type" : "VEC3"
    },
    {
      "bufferView" : 3,
      "componentType" : 5126,
      "count" : 17711,
      "type" : "VEC4"
    },
    {
      "bufferView" : 4,
      "componentType" : 5126,
      "count" : 17711,
      "type" : "VEC2"
    },
    {
      "bufferView" : 5,
      "componentType" : 5126,
      "count" : 17711,
      "type" : "VEC2"
    }
  ]
}
