{
  "asset" : {
    "generator" : "UE Viewer (umodel) build 1579 based",
    "version" : "2.0"
  },
  "scene" : 0,
  "scenes" : [
    {
      "nodes" : [ 0 ]
    }
  ],
  "nodes" : [
    {
      "name" : "S_Envi_Fyz_Building_91z",
      "mesh" : 0
    }
  ],
  "materials" : [
    {
      "name" : "MI_Envi_Foliage_Grass_01a",
      "pbrMetallicRoughness" : {
        "baseColorFactor" : [ 0.3, 0.3, 0.3, 1.0 ],
        "metallicFactor" : 0.1,
        "roughnessFactor" : 0.5
      }
    },
    {
      "name" : "MI_Envi_Fyz_Floor_02a",
      "pbrMetallicRoughness" : {
        "baseColorFactor" : [ 0.9, 0.3, 0.3, 1.0 ],
        "metallicFactor" : 0.1,
        "roughnessFactor" : 0.5
      }
    },
    {
      "name" : "MI_Envi_commontrim_04",
      "pbrMetallicRoughness" : {
        "baseColorFactor" : [ 0.3, 0.9, 0.3, 1.0 ],
        "metallicFactor" : 0.1,
        "roughnessFactor" : 0.5
      }
    }
  ],
  "meshes" : [
    {
      "primitives" : [
        {
          "attributes" : {
            "POSITION" : 1,
            "NORMAL" : 2,
            "TANGENT" : 3,
            "TEXCOORD_0" : 4,
            "TEXCOORD_1" : 5,
            "TEXCOORD_2" : 6
          },
          "indices" : 0,
          "material" : 0
        },
        {
          "attributes" : {
            "POSITION" : 8,
            "NORMAL" : 9,
            "TANGENT" : 10,
            "TEXCOORD_0" : 11,
            "TEXCOORD_1" : 12,
            "TEXCOORD_2" : 13
          },
          "indices" : 7,
          "material" : 1
        },
        {
          "attributes" : {
            "POSITION" : 15,
            "NORMAL" : 16,
            "TANGENT" : 17,
            "TEXCOORD_0" : 18,
            "TEXCOORD_1" : 19,
            "TEXCOORD_2" : 20
          },
          "indices" : 14,
          "material" : 2
        }
      ],
      "name" : "S_Envi_Fyz_Building_91z"
    }
  ],
  "buffers" : [
    {
      "uri" : "S_Envi_Fyz_Building_91z.bin",
      "byteLength" : 51292
    }
  ],
  "bufferViews" : [
    {
      "buffer" : 0,
      "byteOffset" : 0,
      "byteLength" : 152
    },
    {
      "buffer" : 0,
      "byteOffset" : 152,
      "byteLength" : 324
    },
    {
      "buffer" : 0,
      "byteOffset" : 476,
      "byteLength" : 324
    },
    {
      "buffer" : 0,
      "byteOffset" : 800,
      "byteLength" : 432
    },
    {
      "buffer" : 0,
      "byteOffset" : 1232,
      "byteLength" : 216
    },
    {
      "buffer" : 0,
      "byteOffset" : 1448,
      "byteLength" : 216
    },
    {
      "buffer" : 0,
      "byteOffset" : 1664,
      "byteLength" : 216
    },
    {
      "buffer" : 0,
      "byteOffset" : 1880,
      "byteLength" : 3284
    },
    {
      "buffer" : 0,
      "byteOffset" : 5164,
      "byteLength" : 4668
    },
    {
      "buffer" : 0,
      "byteOffset" : 9832,
      "byteLength" : 4668
    },
    {
      "buffer" : 0,
      "byteOffset" : 14500,
      "byteLength" : 6224
    },
    {
      "buffer" : 0,
      "byteOffset" : 20724,
      "byteLength" : 3112
    },
    {
      "buffer" : 0,
      "byteOffset" : 23836,
      "byteLength" : 3112
    },
    {
      "buffer" : 0,
      "byteOffset" : 26948,
      "byteLength" : 3112
    },
    {
      "buffer" : 0,
      "byteOffset" : 30060,
      "byteLength" : 1392
    },
    {
      "buffer" : 0,
      "byteOffset" : 31452,
      "byteLength" : 3720
    },
    {
      "buffer" : 0,
      "byteOffset" : 35172,
      "byteLength" : 3720
    },
    {
      "buffer" : 0,
      "byteOffset" : 38892,
      "byteLength" : 4960
    },
    {
      "buffer" : 0,
      "byteOffset" : 43852,
      "byteLength" : 2480
    },
    {
      "buffer" : 0,
      "byteOffset" : 46332,
      "byteLength" : 2480
    },
    {
      "buffer" : 0,
      "byteOffset" : 48812,
      "byteLength" : 2480
    }
  ],
  "accessors" : [
    {
      "bufferView" : 0,
      "componentType" : 5123,
      "count" : 75,
      "type" : "SCALAR"
    },
    {
      "bufferView" : 1,
      "min" : [ -48.3528, 0.107625, 10.297 ],
      "max" : [ -43.2992, 0.107693, 23.0438 ],
      "componentType" : 5126,
      "count" : 27,
      "type" : "VEC3"
    },
    {
      "bufferView" : 2,
      "componentType" : 5126,
      "count" : 27,
      "type" : "VEC3"
    },
    {
      "bufferView" : 3,
      "componentType" : 5126,
      "count" : 27,
      "type" : "VEC4"
    },
    {
      "bufferView" : 4,
      "componentType" : 5126,
      "count" : 27,
      "type" : "VEC2"
    },
    {
      "bufferView" : 5,
      "componentType" : 5126,
      "count" : 27,
      "type" : "VEC2"
    },
    {
      "bufferView" : 6,
      "componentType" : 5126,
      "count" : 27,
      "type" : "VEC2"
    },
    {
      "bufferView" : 7,
      "componentType" : 5123,
      "count" : 1641,
      "type" : "SCALAR"
    },
    {
      "bufferView" : 8,
      "min" : [ -48.3528, 0.107591, 8.89621 ],
      "max" : [ -14.5423, 0.616214, 71.8076 ],
      "componentType" : 5126,
      "count" : 389,
      "type" : "VEC3"
    },
    {
      "bufferView" : 9,
      "componentType" : 5126,
      "count" : 389,
      "type" : "VEC3"
    },
    {
      "bufferView" : 10,
      "componentType" : 5126,
      "count" : 389,
      "type" : "VEC4"
    },
    {
      "bufferView" : 11,
      "componentType" : 5126,
      "count" : 389,
      "type" : "VEC2"
    },
    {
      "bufferView" : 12,
      "componentType" : 5126,
      "count" : 389,
      "type" : "VEC2"
    },
    {
      "bufferView" : 13,
      "componentType" : 5126,
      "count" : 389,
      "type" : "VEC2"
    },
    {
      "bufferView" : 14,
      "componentType" : 5123,
      "count" : 696,
      "type" : "SCALAR"
    },
    {
      "bufferView" : 15,
      "min" : [ -45.6443, 0.00755903, 8.69621 ],
      "max" : [ -14.5423, 0.107698, 33.2608 ],
      "componentType" : 5126,
      "count" : 310,
      "type" : "VEC3"
    },
    {
      "bufferView" : 16,
      "componentType" : 5126,
      "count" : 310,
      "type" : "VEC3"
    },
    {
      "bufferView" : 17,
      "componentType" : 5126,
      "count" : 310,
      "type" : "VEC4"
    },
    {
      "bufferView" : 18,
      "componentType" : 5126,
      "count" : 310,
      "type" : "VEC2"
    },
    {
      "bufferView" : 19,
      "componentType" : 5126,
      "count" : 310,
      "type" : "VEC2"
    },
    {
      "bufferView" : 20,
      "componentType" : 5126,
      "count" : 310,
      "type" : "VEC2"
    }
  ]
}
