{
  "asset" : {
    "generator" : "UE Viewer (umodel) build 1579 based",
    "version" : "2.0"
  },
  "scene" : 0,
  "scenes" : [
    {
      "nodes" : [ 0 ]
    }
  ],
  "nodes" : [
    {
      "name" : "S_Envi_Fyz_Building_115d",
      "mesh" : 0
    }
  ],
  "materials" : [
    {
      "name" : "MI_Envi_Fyz_Floor_04a",
      "pbrMetallicRoughness" : {
        "baseColorFactor" : [ 0.3, 0.3, 0.3, 1.0 ],
        "metallicFactor" : 0.1,
        "roughnessFactor" : 0.5
      }
    },
    {
      "name" : "MI_Envi_Fyz_Floor_04b",
      "pbrMetallicRoughness" : {
        "baseColorFactor" : [ 0.9, 0.3, 0.3, 1.0 ],
        "metallicFactor" : 0.1,
        "roughnessFactor" : 0.5
      }
    }
  ],
  "meshes" : [
    {
      "primitives" : [
        {
          "attributes" : {
            "POSITION" : 1,
            "NORMAL" : 2,
            "TANGENT" : 3,
            "TEXCOORD_0" : 4,
            "TEXCOORD_1" : 5
          },
          "indices" : 0,
          "material" : 0
        },
        {
          "attributes" : {
            "POSITION" : 7,
            "NORMAL" : 8,
            "TANGENT" : 9,
            "TEXCOORD_0" : 10,
            "TEXCOORD_1" : 11
          },
          "indices" : 6,
          "material" : 1
        }
      ],
      "name" : "S_Envi_Fyz_Building_115d"
    }
  ],
  "buffers" : [
    {
      "uri" : "S_Envi_Fyz_Building_115d.bin",
      "byteLength" : 11652
    }
  ],
  "bufferViews" : [
    {
      "buffer" : 0,
      "byteOffset" : 0,
      "byteLength" : 1104
    },
    {
      "buffer" : 0,
      "byteOffset" : 1104,
      "byteLength" : 1656
    },
    {
      "buffer" : 0,
      "byteOffset" : 2760,
      "byteLength" : 1656
    },
    {
      "buffer" : 0,
      "byteOffset" : 4416,
      "byteLength" : 2208
    },
    {
      "buffer" : 0,
      "byteOffset" : 6624,
      "byteLength" : 1104
    },
    {
      "buffer" : 0,
      "byteOffset" : 7728,
      "byteLength" : 1104
    },
    {
      "buffer" : 0,
      "byteOffset" : 8832,
      "byteLength" : 300
    },
    {
      "buffer" : 0,
      "byteOffset" : 9132,
      "byteLength" : 540
    },
    {
      "buffer" : 0,
      "byteOffset" : 9672,
      "byteLength" : 540
    },
    {
      "buffer" : 0,
      "byteOffset" : 10212,
      "byteLength" : 720
    },
    {
      "buffer" : 0,
      "byteOffset" : 10932,
      "byteLength" : 360
    },
    {
      "buffer" : 0,
      "byteOffset" : 11292,
      "byteLength" : 360
    }
  ],
  "accessors" : [
    {
      "bufferView" : 0,
      "componentType" : 5123,
      "count" : 552,
      "type" : "SCALAR"
    },
    {
      "bufferView" : 1,
      "min" : [ -4.20225, -6.10352e-07, -4.80329 ],
      "max" : [ 8.4128, 1.2207e-06, 3.89569 ],
      "componentType" : 5126,
      "count" : 138,
      "type" : "VEC3"
    },
    {
      "bufferView" : 2,
      "componentType" : 5126,
      "count" : 138,
      "type" : "VEC3"
    },
    {
      "bufferView" : 3,
      "componentType" : 5126,
      "count" : 138,
      "type" : "VEC4"
    },
    {
      "bufferView" : 4,
      "componentType" : 5126,
      "count" : 138,
      "type" : "VEC2"
    },
    {
      "bufferView" : 5,
      "componentType" : 5126,
      "count" : 138,
      "type" : "VEC2"
    },
    {
      "bufferView" : 6,
      "componentType" : 5123,
      "count" : 150,
      "type" : "SCALAR"
    },
    {
      "bufferView" : 7,
      "min" : [ -3.07718, -4.57764e-07, -3.9791 ],
      "max" : [ 7.60549, 9.15527e-07, 2.91987 ],
      "componentType" : 5126,
      "count" : 45,
      "type" : "VEC3"
    },
    {
      "bufferView" : 8,
      "componentType" : 5126,
      "count" : 45,
      "type" : "VEC3"
    },
    {
      "bufferView" : 9,
      "componentType" : 5126,
      "count" : 45,
      "type" : "VEC4"
    },
    {
      "bufferView" : 10,
      "componentType" : 5126,
      "count" : 45,
      "type" : "VEC2"
    },
    {
      "bufferView" : 11,
      "componentType" : 5126,
      "count" : 45,
      "type" : "VEC2"
    }
  ]
}
