{
  "asset" : {
    "generator" : "UE Viewer (umodel) build 1579 based",
    "version" : "2.0"
  },
  "scene" : 0,
  "scenes" : [
    {
      "nodes" : [ 0 ]
    }
  ],
  "nodes" : [
    {
      "name" : "S_Envi_Fyz_BuildingMerge_02f",
      "mesh" : 0
    }
  ],
  "materials" : [
    {
      "name" : "MI_Envi_Fyz_House_01c",
      "pbrMetallicRoughness" : {
        "baseColorFactor" : [ 0.3, 0.3, 0.3, 1.0 ],
        "metallicFactor" : 0.1,
        "roughnessFactor" : 0.5
      }
    },
    {
      "name" : "MI_Envi_Fyz_House_01a",
      "pbrMetallicRoughness" : {
        "baseColorFactor" : [ 0.9, 0.3, 0.3, 1.0 ],
        "metallicFactor" : 0.1,
        "roughnessFactor" : 0.5
      }
    },
    {
      "name" : "MI_Envi_Fyz_House_01b1",
      "pbrMetallicRoughness" : {
        "baseColorFactor" : [ 0.3, 0.9, 0.3, 1.0 ],
        "metallicFactor" : 0.1,
        "roughnessFactor" : 0.5
      }
    }
  ],
  "meshes" : [
    {
      "primitives" : [
        {
          "attributes" : {
            "POSITION" : 1,
            "NORMAL" : 2,
            "TANGENT" : 3,
            "TEXCOORD_0" : 4,
            "TEXCOORD_1" : 5,
            "TEXCOORD_2" : 6,
            "TEXCOORD_3" : 7
          },
          "indices" : 0,
          "material" : 0
        },
        {
          "attributes" : {
            "POSITION" : 9,
            "NORMAL" : 10,
            "TANGENT" : 11,
            "TEXCOORD_0" : 12,
            "TEXCOORD_1" : 13,
            "TEXCOORD_2" : 14,
            "TEXCOORD_3" : 15
          },
          "indices" : 8,
          "material" : 1
        },
        {
          "attributes" : {
            "POSITION" : 17,
            "NORMAL" : 18,
            "TANGENT" : 19,
            "TEXCOORD_0" : 20,
            "TEXCOORD_1" : 21,
            "TEXCOORD_2" : 22,
            "TEXCOORD_3" : 23
          },
          "indices" : 16,
          "material" : 2
        }
      ],
      "name" : "S_Envi_Fyz_BuildingMerge_02f"
    }
  ],
  "buffers" : [
    {
      "uri" : "S_Envi_Fyz_BuildingMerge_02f.bin",
      "byteLength" : 348216
    }
  ],
  "bufferViews" : [
    {
      "buffer" : 0,
      "byteOffset" : 0,
      "byteLength" : 912
    },
    {
      "buffer" : 0,
      "byteOffset" : 912,
      "byteLength" : 3600
    },
    {
      "buffer" : 0,
      "byteOffset" : 4512,
      "byteLength" : 3600
    },
    {
      "buffer" : 0,
      "byteOffset" : 8112,
      "byteLength" : 4800
    },
    {
      "buffer" : 0,
      "byteOffset" : 12912,
      "byteLength" : 2400
    },
    {
      "buffer" : 0,
      "byteOffset" : 15312,
      "byteLength" : 2400
    },
    {
      "buffer" : 0,
      "byteOffset" : 17712,
      "byteLength" : 2400
    },
    {
      "buffer" : 0,
      "byteOffset" : 20112,
      "byteLength" : 2400
    },
    {
      "buffer" : 0,
      "byteOffset" : 22512,
      "byteLength" : 12636
    },
    {
      "buffer" : 0,
      "byteOffset" : 35148,
      "byteLength" : 38904
    },
    {
      "buffer" : 0,
      "byteOffset" : 74052,
      "byteLength" : 38904
    },
    {
      "buffer" : 0,
      "byteOffset" : 112956,
      "byteLength" : 51872
    },
    {
      "buffer" : 0,
      "byteOffset" : 164828,
      "byteLength" : 25936
    },
    {
      "buffer" : 0,
      "byteOffset" : 190764,
      "byteLength" : 25936
    },
    {
      "buffer" : 0,
      "byteOffset" : 216700,
      "byteLength" : 25936
    },
    {
      "buffer" : 0,
      "byteOffset" : 242636,
      "byteLength" : 25936
    },
    {
      "buffer" : 0,
      "byteOffset" : 268572,
      "byteLength" : 4476
    },
    {
      "buffer" : 0,
      "byteOffset" : 273048,
      "byteLength" : 12528
    },
    {
      "buffer" : 0,
      "byteOffset" : 285576,
      "byteLength" : 12528
    },
    {
      "buffer" : 0,
      "byteOffset" : 298104,
      "byteLength" : 16704
    },
    {
      "buffer" : 0,
      "byteOffset" : 314808,
      "byteLength" : 8352
    },
    {
      "buffer" : 0,
      "byteOffset" : 323160,
      "byteLength" : 8352
    },
    {
      "buffer" : 0,
      "byteOffset" : 331512,
      "byteLength" : 8352
    },
    {
      "buffer" : 0,
      "byteOffset" : 339864,
      "byteLength" : 8352
    }
  ],
  "accessors" : [
    {
      "bufferView" : 0,
      "componentType" : 5123,
      "count" : 456,
      "type" : "SCALAR"
    },
    {
      "bufferView" : 1,
      "min" : [ -119.11, -0.78729, -38.0753 ],
      "max" : [ -118.286, 10.5469, -24.1416 ],
      "componentType" : 5126,
      "count" : 300,
      "type" : "VEC3"
    },
    {
      "bufferView" : 2,
      "componentType" : 5126,
      "count" : 300,
      "type" : "VEC3"
    },
    {
      "bufferView" : 3,
      "componentType" : 5126,
      "count" : 300,
      "type" : "VEC4"
    },
    {
      "bufferView" : 4,
      "componentType" : 5126,
      "count" : 300,
      "type" : "VEC2"
    },
    {
      "bufferView" : 5,
      "componentType" : 5126,
      "count" : 300,
      "type" : "VEC2"
    },
    {
      "bufferView" : 6,
      "componentType" : 5126,
      "count" : 300,
      "type" : "VEC2"
    },
    {
      "bufferView" : 7,
      "componentType" : 5126,
      "count" : 300,
      "type" : "VEC2"
    },
    {
      "bufferView" : 8,
      "componentType" : 5123,
      "count" : 6318,
      "type" : "SCALAR"
    },
    {
      "bufferView" : 9,
      "min" : [ -125.537, -1.00972, -50.0917 ],
      "max" : [ -118.231, 10.0861, -19.575 ],
      "componentType" : 5126,
      "count" : 3242,
      "type" : "VEC3"
    },
    {
      "bufferView" : 10,
      "componentType" : 5126,
      "count" : 3242,
      "type" : "VEC3"
    },
    {
      "bufferView" : 11,
      "componentType" : 5126,
      "count" : 3242,
      "type" : "VEC4"
    },
    {
      "bufferView" : 12,
      "componentType" : 5126,
      "count" : 3242,
      "type" : "VEC2"
    },
    {
      "bufferView" : 13,
      "componentType" : 5126,
      "count" : 3242,
      "type" : "VEC2"
    },
    {
      "bufferView" : 14,
      "componentType" : 5126,
      "count" : 3242,
      "type" : "VEC2"
    },
    {
      "bufferView" : 15,
      "componentType" : 5126,
      "count" : 3242,
      "type" : "VEC2"
    },
    {
      "bufferView" : 16,
      "componentType" : 5123,
      "count" : 2238,
      "type" : "SCALAR"
    },
    {
      "bufferView" : 17,
      "min" : [ -133.51, -1.03737, -52.7463 ],
      "max" : [ -117.849, 11.3656, -13.9273 ],
      "componentType" : 5126,
      "count" : 1044,
      "type" : "VEC3"
    },
    {
      "bufferView" : 18,
      "componentType" : 5126,
      "count" : 1044,
      "type" : "VEC3"
    },
    {
      "bufferView" : 19,
      "componentType" : 5126,
      "count" : 1044,
      "type" : "VEC4"
    },
    {
      "bufferView" : 20,
      "componentType" : 5126,
      "count" : 1044,
      "type" : "VEC2"
    },
    {
      "bufferView" : 21,
      "componentType" : 5126,
      "count" : 1044,
      "type" : "VEC2"
    },
    {
      "bufferView" : 22,
      "componentType" : 5126,
      "count" : 1044,
      "type" : "VEC2"
    },
    {
      "bufferView" : 23,
      "componentType" : 5126,
      "count" : 1044,
      "type" : "VEC2"
    }
  ]
}
