{
  "asset" : {
    "generator" : "UE Viewer (umodel) build 1579 based",
    "version" : "2.0"
  },
  "scene" : 0,
  "scenes" : [
    {
      "nodes" : [ 0 ]
    }
  ],
  "nodes" : [
    {
      "name" : "S_Envi_Fyz_Building_87z",
      "mesh" : 0
    }
  ],
  "materials" : [
    {
      "name" : "MI_Envi_Fyz_Store_01E",
      "pbrMetallicRoughness" : {
        "baseColorFactor" : [ 0.3, 0.3, 0.3, 1.0 ],
        "metallicFactor" : 0.1,
        "roughnessFactor" : 0.5
      }
    }
  ],
  "meshes" : [
    {
      "primitives" : [
        {
          "attributes" : {
            "POSITION" : 1,
            "NORMAL" : 2,
            "TANGENT" : 3,
            "TEXCOORD_0" : 4,
            "TEXCOORD_1" : 5
          },
          "indices" : 0,
          "material" : 0
        }
      ],
      "name" : "S_Envi_Fyz_Building_87z"
    }
  ],
  "buffers" : [
    {
      "uri" : "S_Envi_Fyz_Building_87z.bin",
      "byteLength" : 74392
    }
  ],
  "bufferViews" : [
    {
      "buffer" : 0,
      "byteOffset" : 0,
      "byteLength" : 4896
    },
    {
      "buffer" : 0,
      "byteOffset" : 4896,
      "byteLength" : 14892
    },
    {
      "buffer" : 0,
      "byteOffset" : 19788,
      "byteLength" : 14892
    },
    {
      "buffer" : 0,
      "byteOffset" : 34680,
      "byteLength" : 19856
    },
    {
      "buffer" : 0,
      "byteOffset" : 54536,
      "byteLength" : 9928
    },
    {
      "buffer" : 0,
      "byteOffset" : 64464,
      "byteLength" : 9928
    }
  ],
  "accessors" : [
    {
      "bufferView" : 0,
      "componentType" : 5123,
      "count" : 2448,
      "type" : "SCALAR"
    },
    {
      "bufferView" : 1,
      "min" : [ -0.0813629, 4.39572, -1.48712 ],
      "max" : [ 15.7998, 4.79105, 29.8466 ],
      "componentType" : 5126,
      "count" : 1241,
      "type" : "VEC3"
    },
    {
      "bufferView" : 2,
      "componentType" : 5126,
      "count" : 1241,
      "type" : "VEC3"
    },
    {
      "bufferView" : 3,
      "componentType" : 5126,
      "count" : 1241,
      "type" : "VEC4"
    },
    {
      "bufferView" : 4,
      "componentType" : 5126,
      "count" : 1241,
      "type" : "VEC2"
    },
    {
      "bufferView" : 5,
      "componentType" : 5126,
      "count" : 1241,
      "type" : "VEC2"
    }
  ]
}
