{
  "asset" : {
    "generator" : "UE Viewer (umodel) build 1579 based",
    "version" : "2.0"
  },
  "scene" : 0,
  "scenes" : [
    {
      "nodes" : [ 0 ]
    }
  ],
  "nodes" : [
    {
      "name" : "S_Envi_Fyz_Grass_Merge_04i",
      "mesh" : 0
    }
  ],
  "materials" : [
    {
      "name" : "MI_Envi_Foliage_shrub_08",
      "pbrMetallicRoughness" : {
        "baseColorFactor" : [ 0.3, 0.3, 0.3, 1.0 ],
        "metallicFactor" : 0.1,
        "roughnessFactor" : 0.5
      }
    }
  ],
  "meshes" : [
    {
      "primitives" : [
        {
          "attributes" : {
            "POSITION" : 1,
            "NORMAL" : 2,
            "TANGENT" : 3,
            "TEXCOORD_0" : 4,
            "TEXCOORD_1" : 5
          },
          "indices" : 0,
          "material" : 0
        }
      ],
      "name" : "S_Envi_Fyz_Grass_Merge_04i"
    }
  ],
  "buffers" : [
    {
      "uri" : "S_Envi_Fyz_Grass_Merge_04i.bin",
      "byteLength" : 93316
    }
  ],
  "bufferViews" : [
    {
      "buffer" : 0,
      "byteOffset" : 0,
      "byteLength" : 7356
    },
    {
      "buffer" : 0,
      "byteOffset" : 7356,
      "byteLength" : 18420
    },
    {
      "buffer" : 0,
      "byteOffset" : 25776,
      "byteLength" : 18420
    },
    {
      "buffer" : 0,
      "byteOffset" : 44196,
      "byteLength" : 24560
    },
    {
      "buffer" : 0,
      "byteOffset" : 68756,
      "byteLength" : 12280
    },
    {
      "buffer" : 0,
      "byteOffset" : 81036,
      "byteLength" : 12280
    }
  ],
  "accessors" : [
    {
      "bufferView" : 0,
      "componentType" : 5123,
      "count" : 3678,
      "type" : "SCALAR"
    },
    {
      "bufferView" : 1,
      "min" : [ 74.4887, 10.2189, -60.2701 ],
      "max" : [ 75.7212, 11.1207, -57.7277 ],
      "componentType" : 5126,
      "count" : 1535,
      "type" : "VEC3"
    },
    {
      "bufferView" : 2,
      "componentType" : 5126,
      "count" : 1535,
      "type" : "VEC3"
    },
    {
      "bufferView" : 3,
      "componentType" : 5126,
      "count" : 1535,
      "type" : "VEC4"
    },
    {
      "bufferView" : 4,
      "componentType" : 5126,
      "count" : 1535,
      "type" : "VEC2"
    },
    {
      "bufferView" : 5,
      "componentType" : 5126,
      "count" : 1535,
      "type" : "VEC2"
    }
  ]
}
