{
  "asset" : {
    "generator" : "UE Viewer (umodel) build 1579 based",
    "version" : "2.0"
  },
  "scene" : 0,
  "scenes" : [
    {
      "nodes" : [ 0 ]
    }
  ],
  "nodes" : [
    {
      "name" : "S_Envi_Fyz_Grass_Merge_01k",
      "mesh" : 0
    }
  ],
  "materials" : [
    {
      "name" : "MI_Envi_Foliage_shrub_08",
      "pbrMetallicRoughness" : {
        "baseColorFactor" : [ 0.3, 0.3, 0.3, 1.0 ],
        "metallicFactor" : 0.1,
        "roughnessFactor" : 0.5
      }
    }
  ],
  "meshes" : [
    {
      "primitives" : [
        {
          "attributes" : {
            "POSITION" : 1,
            "NORMAL" : 2,
            "TANGENT" : 3,
            "TEXCOORD_0" : 4,
            "TEXCOORD_1" : 5
          },
          "indices" : 0,
          "material" : 0
        }
      ],
      "name" : "S_Envi_Fyz_Grass_Merge_01k"
    }
  ],
  "buffers" : [
    {
      "uri" : "S_Envi_Fyz_Grass_Merge_01k.bin",
      "byteLength" : 30392
    }
  ],
  "bufferViews" : [
    {
      "buffer" : 0,
      "byteOffset" : 0,
      "byteLength" : 2616
    },
    {
      "buffer" : 0,
      "byteOffset" : 2616,
      "byteLength" : 5952
    },
    {
      "buffer" : 0,
      "byteOffset" : 8568,
      "byteLength" : 5952
    },
    {
      "buffer" : 0,
      "byteOffset" : 14520,
      "byteLength" : 7936
    },
    {
      "buffer" : 0,
      "byteOffset" : 22456,
      "byteLength" : 3968
    },
    {
      "buffer" : 0,
      "byteOffset" : 26424,
      "byteLength" : 3968
    }
  ],
  "accessors" : [
    {
      "bufferView" : 0,
      "componentType" : 5123,
      "count" : 1308,
      "type" : "SCALAR"
    },
    {
      "bufferView" : 1,
      "min" : [ 22.9669, 5.45819, 63.8844 ],
      "max" : [ 24.0137, 13.0531, 73.9044 ],
      "componentType" : 5126,
      "count" : 496,
      "type" : "VEC3"
    },
    {
      "bufferView" : 2,
      "componentType" : 5126,
      "count" : 496,
      "type" : "VEC3"
    },
    {
      "bufferView" : 3,
      "componentType" : 5126,
      "count" : 496,
      "type" : "VEC4"
    },
    {
      "bufferView" : 4,
      "componentType" : 5126,
      "count" : 496,
      "type" : "VEC2"
    },
    {
      "bufferView" : 5,
      "componentType" : 5126,
      "count" : 496,
      "type" : "VEC2"
    }
  ]
}
