{
  "asset" : {
    "generator" : "UE Viewer (umodel) build 1579 based",
    "version" : "2.0"
  },
  "scene" : 0,
  "scenes" : [
    {
      "nodes" : [ 0 ]
    }
  ],
  "nodes" : [
    {
      "name" : "S_Envi_Fyz_Building_65l",
      "mesh" : 0
    }
  ],
  "materials" : [
    {
      "name" : "MI_Envi_Fyz_Wall_02c3",
      "pbrMetallicRoughness" : {
        "baseColorFactor" : [ 0.3, 0.3, 0.3, 1.0 ],
        "metallicFactor" : 0.1,
        "roughnessFactor" : 0.5
      }
    },
    {
      "name" : "MI_Envi_Fyz_Wall_02f",
      "pbrMetallicRoughness" : {
        "baseColorFactor" : [ 0.9, 0.3, 0.3, 1.0 ],
        "metallicFactor" : 0.1,
        "roughnessFactor" : 0.5
      }
    }
  ],
  "meshes" : [
    {
      "primitives" : [
        {
          "attributes" : {
            "POSITION" : 1,
            "NORMAL" : 2,
            "TANGENT" : 3,
            "TEXCOORD_0" : 4,
            "TEXCOORD_1" : 5,
            "TEXCOORD_2" : 6,
            "TEXCOORD_3" : 7
          },
          "indices" : 0,
          "material" : 0
        },
        {
          "attributes" : {
            "POSITION" : 9,
            "NORMAL" : 10,
            "TANGENT" : 11,
            "TEXCOORD_0" : 12,
            "TEXCOORD_1" : 13,
            "TEXCOORD_2" : 14,
            "TEXCOORD_3" : 15
          },
          "indices" : 8,
          "material" : 1
        }
      ],
      "name" : "S_Envi_Fyz_Building_65l"
    }
  ],
  "buffers" : [
    {
      "uri" : "S_Envi_Fyz_Building_65l.bin",
      "byteLength" : 22164
    }
  ],
  "bufferViews" : [
    {
      "buffer" : 0,
      "byteOffset" : 0,
      "byteLength" : 612
    },
    {
      "buffer" : 0,
      "byteOffset" : 612,
      "byteLength" : 900
    },
    {
      "buffer" : 0,
      "byteOffset" : 1512,
      "byteLength" : 900
    },
    {
      "buffer" : 0,
      "byteOffset" : 2412,
      "byteLength" : 1200
    },
    {
      "buffer" : 0,
      "byteOffset" : 3612,
      "byteLength" : 600
    },
    {
      "buffer" : 0,
      "byteOffset" : 4212,
      "byteLength" : 600
    },
    {
      "buffer" : 0,
      "byteOffset" : 4812,
      "byteLength" : 600
    },
    {
      "buffer" : 0,
      "byteOffset" : 5412,
      "byteLength" : 600
    },
    {
      "buffer" : 0,
      "byteOffset" : 6012,
      "byteLength" : 1608
    },
    {
      "buffer" : 0,
      "byteOffset" : 7620,
      "byteLength" : 2424
    },
    {
      "buffer" : 0,
      "byteOffset" : 10044,
      "byteLength" : 2424
    },
    {
      "buffer" : 0,
      "byteOffset" : 12468,
      "byteLength" : 3232
    },
    {
      "buffer" : 0,
      "byteOffset" : 15700,
      "byteLength" : 1616
    },
    {
      "buffer" : 0,
      "byteOffset" : 17316,
      "byteLength" : 1616
    },
    {
      "buffer" : 0,
      "byteOffset" : 18932,
      "byteLength" : 1616
    },
    {
      "buffer" : 0,
      "byteOffset" : 20548,
      "byteLength" : 1616
    }
  ],
  "accessors" : [
    {
      "bufferView" : 0,
      "componentType" : 5123,
      "count" : 306,
      "type" : "SCALAR"
    },
    {
      "bufferView" : 1,
      "min" : [ -64.1605, 2.82291, 55.0873 ],
      "max" : [ -40.5372, 10.1325, 63.2774 ],
      "componentType" : 5126,
      "count" : 75,
      "type" : "VEC3"
    },
    {
      "bufferView" : 2,
      "componentType" : 5126,
      "count" : 75,
      "type" : "VEC3"
    },
    {
      "bufferView" : 3,
      "componentType" : 5126,
      "count" : 75,
      "type" : "VEC4"
    },
    {
      "bufferView" : 4,
      "componentType" : 5126,
      "count" : 75,
      "type" : "VEC2"
    },
    {
      "bufferView" : 5,
      "componentType" : 5126,
      "count" : 75,
      "type" : "VEC2"
    },
    {
      "bufferView" : 6,
      "componentType" : 5126,
      "count" : 75,
      "type" : "VEC2"
    },
    {
      "bufferView" : 7,
      "componentType" : 5126,
      "count" : 75,
      "type" : "VEC2"
    },
    {
      "bufferView" : 8,
      "componentType" : 5123,
      "count" : 804,
      "type" : "SCALAR"
    },
    {
      "bufferView" : 9,
      "min" : [ -87.3007, 4.29351, 38.8616 ],
      "max" : [ -52.5241, 15.8807, 69.794 ],
      "componentType" : 5126,
      "count" : 202,
      "type" : "VEC3"
    },
    {
      "bufferView" : 10,
      "componentType" : 5126,
      "count" : 202,
      "type" : "VEC3"
    },
    {
      "bufferView" : 11,
      "componentType" : 5126,
      "count" : 202,
      "type" : "VEC4"
    },
    {
      "bufferView" : 12,
      "componentType" : 5126,
      "count" : 202,
      "type" : "VEC2"
    },
    {
      "bufferView" : 13,
      "componentType" : 5126,
      "count" : 202,
      "type" : "VEC2"
    },
    {
      "bufferView" : 14,
      "componentType" : 5126,
      "count" : 202,
      "type" : "VEC2"
    },
    {
      "bufferView" : 15,
      "componentType" : 5126,
      "count" : 202,
      "type" : "VEC2"
    }
  ]
}
