{
  "asset" : {
    "generator" : "UE Viewer (umodel) build 1579 based",
    "version" : "2.0"
  },
  "scene" : 0,
  "scenes" : [
    {
      "nodes" : [ 0 ]
    }
  ],
  "nodes" : [
    {
      "name" : "S_Envi_Fyz_Building_105w",
      "mesh" : 0
    }
  ],
  "materials" : [
    {
      "name" : "MI_fzfbase_battery_Yy_003",
      "pbrMetallicRoughness" : {
        "baseColorFactor" : [ 0.3, 0.3, 0.3, 1.0 ],
        "metallicFactor" : 0.1,
        "roughnessFactor" : 0.5
      }
    }
  ],
  "meshes" : [
    {
      "primitives" : [
        {
          "attributes" : {
            "POSITION" : 1,
            "NORMAL" : 2,
            "TANGENT" : 3,
            "TEXCOORD_0" : 4,
            "TEXCOORD_1" : 5,
            "TEXCOORD_2" : 6,
            "TEXCOORD_3" : 7
          },
          "indices" : 0,
          "material" : 0
        }
      ],
      "name" : "S_Envi_Fyz_Building_105w"
    }
  ],
  "buffers" : [
    {
      "uri" : "S_Envi_Fyz_Building_105w.bin",
      "byteLength" : 1668
    }
  ],
  "bufferViews" : [
    {
      "buffer" : 0,
      "byteOffset" : 0,
      "byteLength" : 84
    },
    {
      "buffer" : 0,
      "byteOffset" : 84,
      "byteLength" : 264
    },
    {
      "buffer" : 0,
      "byteOffset" : 348,
      "byteLength" : 264
    },
    {
      "buffer" : 0,
      "byteOffset" : 612,
      "byteLength" : 352
    },
    {
      "buffer" : 0,
      "byteOffset" : 964,
      "byteLength" : 176
    },
    {
      "buffer" : 0,
      "byteOffset" : 1140,
      "byteLength" : 176
    },
    {
      "buffer" : 0,
      "byteOffset" : 1316,
      "byteLength" : 176
    },
    {
      "buffer" : 0,
      "byteOffset" : 1492,
      "byteLength" : 176
    }
  ],
  "accessors" : [
    {
      "bufferView" : 0,
      "componentType" : 5123,
      "count" : 42,
      "type" : "SCALAR"
    },
    {
      "bufferView" : 1,
      "min" : [ -2.05593, 0, -1.57166e-05 ],
      "max" : [ 5.44406, 4.98606, 2.13623e-06 ],
      "componentType" : 5126,
      "count" : 22,
      "type" : "VEC3"
    },
    {
      "bufferView" : 2,
      "componentType" : 5126,
      "count" : 22,
      "type" : "VEC3"
    },
    {
      "bufferView" : 3,
      "componentType" : 5126,
      "count" : 22,
      "type" : "VEC4"
    },
    {
      "bufferView" : 4,
      "componentType" : 5126,
      "count" : 22,
      "type" : "VEC2"
    },
    {
      "bufferView" : 5,
      "componentType" : 5126,
      "count" : 22,
      "type" : "VEC2"
    },
    {
      "bufferView" : 6,
      "componentType" : 5126,
      "count" : 22,
      "type" : "VEC2"
    },
    {
      "bufferView" : 7,
      "componentType" : 5126,
      "count" : 22,
      "type" : "VEC2"
    }
  ]
}
