{
  "asset" : {
    "generator" : "UE Viewer (umodel) build 1579 based",
    "version" : "2.0"
  },
  "scene" : 0,
  "scenes" : [
    {
      "nodes" : [ 0 ]
    }
  ],
  "nodes" : [
    {
      "name" : "S_Envi_Fyz_Building_101l",
      "mesh" : 0
    }
  ],
  "materials" : [
    {
      "name" : "MI_Envi_Common_HBuilding_01a",
      "pbrMetallicRoughness" : {
        "baseColorFactor" : [ 0.3, 0.3, 0.3, 1.0 ],
        "metallicFactor" : 0.1,
        "roughnessFactor" : 0.5
      }
    }
  ],
  "meshes" : [
    {
      "primitives" : [
        {
          "attributes" : {
            "POSITION" : 1,
            "NORMAL" : 2,
            "TANGENT" : 3,
            "TEXCOORD_0" : 4,
            "TEXCOORD_1" : 5
          },
          "indices" : 0,
          "material" : 0
        }
      ],
      "name" : "S_Envi_Fyz_Building_101l"
    }
  ],
  "buffers" : [
    {
      "uri" : "S_Envi_Fyz_Building_101l.bin",
      "byteLength" : 61624
    }
  ],
  "bufferViews" : [
    {
      "buffer" : 0,
      "byteOffset" : 0,
      "byteLength" : 5456
    },
    {
      "buffer" : 0,
      "byteOffset" : 5456,
      "byteLength" : 12036
    },
    {
      "buffer" : 0,
      "byteOffset" : 17492,
      "byteLength" : 12036
    },
    {
      "buffer" : 0,
      "byteOffset" : 29528,
      "byteLength" : 16048
    },
    {
      "buffer" : 0,
      "byteOffset" : 45576,
      "byteLength" : 8024
    },
    {
      "buffer" : 0,
      "byteOffset" : 53600,
      "byteLength" : 8024
    }
  ],
  "accessors" : [
    {
      "bufferView" : 0,
      "componentType" : 5123,
      "count" : 2727,
      "type" : "SCALAR"
    },
    {
      "bufferView" : 1,
      "min" : [ -4.60537, -0.0175574, -0.366935 ],
      "max" : [ 4.60536, 3.92101, 0.24316 ],
      "componentType" : 5126,
      "count" : 1003,
      "type" : "VEC3"
    },
    {
      "bufferView" : 2,
      "componentType" : 5126,
      "count" : 1003,
      "type" : "VEC3"
    },
    {
      "bufferView" : 3,
      "componentType" : 5126,
      "count" : 1003,
      "type" : "VEC4"
    },
    {
      "bufferView" : 4,
      "componentType" : 5126,
      "count" : 1003,
      "type" : "VEC2"
    },
    {
      "bufferView" : 5,
      "componentType" : 5126,
      "count" : 1003,
      "type" : "VEC2"
    }
  ]
}
