{
  "asset" : {
    "generator" : "UE Viewer (umodel) build 1579 based",
    "version" : "2.0"
  },
  "scene" : 0,
  "scenes" : [
    {
      "nodes" : [ 0 ]
    }
  ],
  "nodes" : [
    {
      "name" : "S_Envi_Fyz_BuildingMerge_02i",
      "mesh" : 0
    }
  ],
  "materials" : [
    {
      "name" : "MI_Envi_Fyz_House_01h",
      "pbrMetallicRoughness" : {
        "baseColorFactor" : [ 0.3, 0.3, 0.3, 1.0 ],
        "metallicFactor" : 0.1,
        "roughnessFactor" : 0.5
      }
    }
  ],
  "meshes" : [
    {
      "primitives" : [
        {
          "attributes" : {
            "POSITION" : 1,
            "NORMAL" : 2,
            "TANGENT" : 3,
            "TEXCOORD_0" : 4,
            "TEXCOORD_1" : 5,
            "TEXCOORD_2" : 6,
            "TEXCOORD_3" : 7
          },
          "indices" : 0,
          "material" : 0
        }
      ],
      "name" : "S_Envi_Fyz_BuildingMerge_02i"
    }
  ],
  "buffers" : [
    {
      "uri" : "S_Envi_Fyz_BuildingMerge_02i.bin",
      "byteLength" : 86768
    }
  ],
  "bufferViews" : [
    {
      "buffer" : 0,
      "byteOffset" : 0,
      "byteLength" : 3752
    },
    {
      "buffer" : 0,
      "byteOffset" : 3752,
      "byteLength" : 13836
    },
    {
      "buffer" : 0,
      "byteOffset" : 17588,
      "byteLength" : 13836
    },
    {
      "buffer" : 0,
      "byteOffset" : 31424,
      "byteLength" : 18448
    },
    {
      "buffer" : 0,
      "byteOffset" : 49872,
      "byteLength" : 9224
    },
    {
      "buffer" : 0,
      "byteOffset" : 59096,
      "byteLength" : 9224
    },
    {
      "buffer" : 0,
      "byteOffset" : 68320,
      "byteLength" : 9224
    },
    {
      "buffer" : 0,
      "byteOffset" : 77544,
      "byteLength" : 9224
    }
  ],
  "accessors" : [
    {
      "bufferView" : 0,
      "componentType" : 5123,
      "count" : 1875,
      "type" : "SCALAR"
    },
    {
      "bufferView" : 1,
      "min" : [ -118.673, -0.787266, -60.5211 ],
      "max" : [ -83.7154, 17.4313, 28.1306 ],
      "componentType" : 5126,
      "count" : 1153,
      "type" : "VEC3"
    },
    {
      "bufferView" : 2,
      "componentType" : 5126,
      "count" : 1153,
      "type" : "VEC3"
    },
    {
      "bufferView" : 3,
      "componentType" : 5126,
      "count" : 1153,
      "type" : "VEC4"
    },
    {
      "bufferView" : 4,
      "componentType" : 5126,
      "count" : 1153,
      "type" : "VEC2"
    },
    {
      "bufferView" : 5,
      "componentType" : 5126,
      "count" : 1153,
      "type" : "VEC2"
    },
    {
      "bufferView" : 6,
      "componentType" : 5126,
      "count" : 1153,
      "type" : "VEC2"
    },
    {
      "bufferView" : 7,
      "componentType" : 5126,
      "count" : 1153,
      "type" : "VEC2"
    }
  ]
}
