{
  "asset" : {
    "generator" : "UE Viewer (umodel) build 1579 based",
    "version" : "2.0"
  },
  "scene" : 0,
  "scenes" : [
    {
      "nodes" : [ 0 ]
    }
  ],
  "nodes" : [
    {
      "name" : "S_Envi_Fyz_Grass_Merge_02i",
      "mesh" : 0
    }
  ],
  "materials" : [
    {
      "name" : "MI_Envi_Foliage_shrub_08",
      "pbrMetallicRoughness" : {
        "baseColorFactor" : [ 0.3, 0.3, 0.3, 1.0 ],
        "metallicFactor" : 0.1,
        "roughnessFactor" : 0.5
      }
    }
  ],
  "meshes" : [
    {
      "primitives" : [
        {
          "attributes" : {
            "POSITION" : 1,
            "NORMAL" : 2,
            "TANGENT" : 3,
            "TEXCOORD_0" : 4,
            "TEXCOORD_1" : 5
          },
          "indices" : 0,
          "material" : 0
        }
      ],
      "name" : "S_Envi_Fyz_Grass_Merge_02i"
    }
  ],
  "buffers" : [
    {
      "uri" : "S_Envi_Fyz_Grass_Merge_02i.bin",
      "byteLength" : 566500
    }
  ],
  "bufferViews" : [
    {
      "buffer" : 0,
      "byteOffset" : 0,
      "byteLength" : 37076
    },
    {
      "buffer" : 0,
      "byteOffset" : 37076,
      "byteLength" : 113448
    },
    {
      "buffer" : 0,
      "byteOffset" : 150524,
      "byteLength" : 113448
    },
    {
      "buffer" : 0,
      "byteOffset" : 263972,
      "byteLength" : 151264
    },
    {
      "buffer" : 0,
      "byteOffset" : 415236,
      "byteLength" : 75632
    },
    {
      "buffer" : 0,
      "byteOffset" : 490868,
      "byteLength" : 75632
    }
  ],
  "accessors" : [
    {
      "bufferView" : 0,
      "componentType" : 5123,
      "count" : 18537,
      "type" : "SCALAR"
    },
    {
      "bufferView" : 1,
      "min" : [ -15.9319, -9.6168, -87.8769 ],
      "max" : [ 0.0914912, -4.38568, -75.9443 ],
      "componentType" : 5126,
      "count" : 9454,
      "type" : "VEC3"
    },
    {
      "bufferView" : 2,
      "componentType" : 5126,
      "count" : 9454,
      "type" : "VEC3"
    },
    {
      "bufferView" : 3,
      "componentType" : 5126,
      "count" : 9454,
      "type" : "VEC4"
    },
    {
      "bufferView" : 4,
      "componentType" : 5126,
      "count" : 9454,
      "type" : "VEC2"
    },
    {
      "bufferView" : 5,
      "componentType" : 5126,
      "count" : 9454,
      "type" : "VEC2"
    }
  ]
}
