{
  "asset" : {
    "generator" : "UE Viewer (umodel) build 1579 based",
    "version" : "2.0"
  },
  "scene" : 0,
  "scenes" : [
    {
      "nodes" : [ 0 ]
    }
  ],
  "nodes" : [
    {
      "name" : "S_Envi_Fyz_Building_90s",
      "mesh" : 0
    }
  ],
  "materials" : [
    {
      "name" : "MI_Envi_commontrim_04",
      "pbrMetallicRoughness" : {
        "baseColorFactor" : [ 0.3, 0.3, 0.3, 1.0 ],
        "metallicFactor" : 0.1,
        "roughnessFactor" : 0.5
      }
    },
    {
      "name" : "MI_Envi_Fyz_Floor_04e",
      "pbrMetallicRoughness" : {
        "baseColorFactor" : [ 0.9, 0.3, 0.3, 1.0 ],
        "metallicFactor" : 0.1,
        "roughnessFactor" : 0.5
      }
    },
    {
      "name" : "MI_Envi_Fyz_Floor_04d",
      "pbrMetallicRoughness" : {
        "baseColorFactor" : [ 0.3, 0.9, 0.3, 1.0 ],
        "metallicFactor" : 0.1,
        "roughnessFactor" : 0.5
      }
    }
  ],
  "meshes" : [
    {
      "primitives" : [
        {
          "attributes" : {
            "POSITION" : 1,
            "NORMAL" : 2,
            "TANGENT" : 3,
            "TEXCOORD_0" : 4,
            "TEXCOORD_1" : 5
          },
          "indices" : 0,
          "material" : 0
        },
        {
          "attributes" : {
            "POSITION" : 7,
            "NORMAL" : 8,
            "TANGENT" : 9,
            "TEXCOORD_0" : 10,
            "TEXCOORD_1" : 11
          },
          "indices" : 6,
          "material" : 1
        },
        {
          "attributes" : {
            "POSITION" : 13,
            "NORMAL" : 14,
            "TANGENT" : 15,
            "TEXCOORD_0" : 16,
            "TEXCOORD_1" : 17
          },
          "indices" : 12,
          "material" : 2
        }
      ],
      "name" : "S_Envi_Fyz_Building_90s"
    }
  ],
  "buffers" : [
    {
      "uri" : "S_Envi_Fyz_Building_90s.bin",
      "byteLength" : 66412
    }
  ],
  "bufferViews" : [
    {
      "buffer" : 0,
      "byteOffset" : 0,
      "byteLength" : 204
    },
    {
      "buffer" : 0,
      "byteOffset" : 204,
      "byteLength" : 528
    },
    {
      "buffer" : 0,
      "byteOffset" : 732,
      "byteLength" : 528
    },
    {
      "buffer" : 0,
      "byteOffset" : 1260,
      "byteLength" : 704
    },
    {
      "buffer" : 0,
      "byteOffset" : 1964,
      "byteLength" : 352
    },
    {
      "buffer" : 0,
      "byteOffset" : 2316,
      "byteLength" : 352
    },
    {
      "buffer" : 0,
      "byteOffset" : 2668,
      "byteLength" : 2852
    },
    {
      "buffer" : 0,
      "byteOffset" : 5520,
      "byteLength" : 3756
    },
    {
      "buffer" : 0,
      "byteOffset" : 9276,
      "byteLength" : 3756
    },
    {
      "buffer" : 0,
      "byteOffset" : 13032,
      "byteLength" : 5008
    },
    {
      "buffer" : 0,
      "byteOffset" : 18040,
      "byteLength" : 2504
    },
    {
      "buffer" : 0,
      "byteOffset" : 20544,
      "byteLength" : 2504
    },
    {
      "buffer" : 0,
      "byteOffset" : 23048,
      "byteLength" : 6684
    },
    {
      "buffer" : 0,
      "byteOffset" : 29732,
      "byteLength" : 7860
    },
    {
      "buffer" : 0,
      "byteOffset" : 37592,
      "byteLength" : 7860
    },
    {
      "buffer" : 0,
      "byteOffset" : 45452,
      "byteLength" : 10480
    },
    {
      "buffer" : 0,
      "byteOffset" : 55932,
      "byteLength" : 5240
    },
    {
      "buffer" : 0,
      "byteOffset" : 61172,
      "byteLength" : 5240
    }
  ],
  "accessors" : [
    {
      "bufferView" : 0,
      "componentType" : 5123,
      "count" : 102,
      "type" : "SCALAR"
    },
    {
      "bufferView" : 1,
      "min" : [ 1.92998, 0.0659727, -45.1884 ],
      "max" : [ 14.8004, 0.134927, -12.9393 ],
      "componentType" : 5126,
      "count" : 44,
      "type" : "VEC3"
    },
    {
      "bufferView" : 2,
      "componentType" : 5126,
      "count" : 44,
      "type" : "VEC3"
    },
    {
      "bufferView" : 3,
      "componentType" : 5126,
      "count" : 44,
      "type" : "VEC4"
    },
    {
      "bufferView" : 4,
      "componentType" : 5126,
      "count" : 44,
      "type" : "VEC2"
    },
    {
      "bufferView" : 5,
      "componentType" : 5126,
      "count" : 44,
      "type" : "VEC2"
    },
    {
      "bufferView" : 6,
      "componentType" : 5123,
      "count" : 1425,
      "type" : "SCALAR"
    },
    {
      "bufferView" : 7,
      "min" : [ 1.92998, 0.0956901, -35.3384 ],
      "max" : [ 16.2916, 0.0956908, -13.2891 ],
      "componentType" : 5126,
      "count" : 313,
      "type" : "VEC3"
    },
    {
      "bufferView" : 8,
      "componentType" : 5126,
      "count" : 313,
      "type" : "VEC3"
    },
    {
      "bufferView" : 9,
      "componentType" : 5126,
      "count" : 313,
      "type" : "VEC4"
    },
    {
      "bufferView" : 10,
      "componentType" : 5126,
      "count" : 313,
      "type" : "VEC2"
    },
    {
      "bufferView" : 11,
      "componentType" : 5126,
      "count" : 313,
      "type" : "VEC2"
    },
    {
      "bufferView" : 12,
      "componentType" : 5123,
      "count" : 3342,
      "type" : "SCALAR"
    },
    {
      "bufferView" : 13,
      "min" : [ 10.68, 0.0956908, -44.8387 ],
      "max" : [ 27.4551, 0.0956908, -21.2419 ],
      "componentType" : 5126,
      "count" : 655,
      "type" : "VEC3"
    },
    {
      "bufferView" : 14,
      "componentType" : 5126,
      "count" : 655,
      "type" : "VEC3"
    },
    {
      "bufferView" : 15,
      "componentType" : 5126,
      "count" : 655,
      "type" : "VEC4"
    },
    {
      "bufferView" : 16,
      "componentType" : 5126,
      "count" : 655,
      "type" : "VEC2"
    },
    {
      "bufferView" : 17,
      "componentType" : 5126,
      "count" : 655,
      "type" : "VEC2"
    }
  ]
}
