{
  "asset" : {
    "generator" : "UE Viewer (umodel) build 1579 based",
    "version" : "2.0"
  },
  "scene" : 0,
  "scenes" : [
    {
      "nodes" : [ 0 ]
    }
  ],
  "nodes" : [
    {
      "name" : "S_Envi_Fyz_Building_109f",
      "mesh" : 0
    }
  ],
  "materials" : [
    {
      "name" : "MI_Envi_Fyz_Wall_02d",
      "pbrMetallicRoughness" : {
        "baseColorFactor" : [ 0.3, 0.3, 0.3, 1.0 ],
        "metallicFactor" : 0.1,
        "roughnessFactor" : 0.5
      }
    }
  ],
  "meshes" : [
    {
      "primitives" : [
        {
          "attributes" : {
            "POSITION" : 1,
            "NORMAL" : 2,
            "TANGENT" : 3,
            "TEXCOORD_0" : 4,
            "TEXCOORD_1" : 5,
            "TEXCOORD_2" : 6,
            "TEXCOORD_3" : 7
          },
          "indices" : 0,
          "material" : 0
        }
      ],
      "name" : "S_Envi_Fyz_Building_109f"
    }
  ],
  "buffers" : [
    {
      "uri" : "S_Envi_Fyz_Building_109f.bin",
      "byteLength" : 4368
    }
  ],
  "bufferViews" : [
    {
      "buffer" : 0,
      "byteOffset" : 0,
      "byteLength" : 480
    },
    {
      "buffer" : 0,
      "byteOffset" : 480,
      "byteLength" : 648
    },
    {
      "buffer" : 0,
      "byteOffset" : 1128,
      "byteLength" : 648
    },
    {
      "buffer" : 0,
      "byteOffset" : 1776,
      "byteLength" : 864
    },
    {
      "buffer" : 0,
      "byteOffset" : 2640,
      "byteLength" : 432
    },
    {
      "buffer" : 0,
      "byteOffset" : 3072,
      "byteLength" : 432
    },
    {
      "buffer" : 0,
      "byteOffset" : 3504,
      "byteLength" : 432
    },
    {
      "buffer" : 0,
      "byteOffset" : 3936,
      "byteLength" : 432
    }
  ],
  "accessors" : [
    {
      "bufferView" : 0,
      "componentType" : 5123,
      "count" : 240,
      "type" : "SCALAR"
    },
    {
      "bufferView" : 1,
      "min" : [ -5.8312, -9.82122, -2.77389 ],
      "max" : [ 5.07332, -6.10352e-07, 3.05176e-07 ],
      "componentType" : 5126,
      "count" : 54,
      "type" : "VEC3"
    },
    {
      "bufferView" : 2,
      "componentType" : 5126,
      "count" : 54,
      "type" : "VEC3"
    },
    {
      "bufferView" : 3,
      "componentType" : 5126,
      "count" : 54,
      "type" : "VEC4"
    },
    {
      "bufferView" : 4,
      "componentType" : 5126,
      "count" : 54,
      "type" : "VEC2"
    },
    {
      "bufferView" : 5,
      "componentType" : 5126,
      "count" : 54,
      "type" : "VEC2"
    },
    {
      "bufferView" : 6,
      "componentType" : 5126,
      "count" : 54,
      "type" : "VEC2"
    },
    {
      "bufferView" : 7,
      "componentType" : 5126,
      "count" : 54,
      "type" : "VEC2"
    }
  ]
}
