{
  "asset" : {
    "generator" : "UE Viewer (umodel) build 1579 based",
    "version" : "2.0"
  },
  "scene" : 0,
  "scenes" : [
    {
      "nodes" : [ 0 ]
    }
  ],
  "nodes" : [
    {
      "name" : "S_Envi_Fyz_Building_88a",
      "mesh" : 0
    }
  ],
  "materials" : [
    {
      "name" : "MI_Envi_Fyz_Store_01E",
      "pbrMetallicRoughness" : {
        "baseColorFactor" : [ 0.3, 0.3, 0.3, 1.0 ],
        "metallicFactor" : 0.1,
        "roughnessFactor" : 0.5
      }
    },
    {
      "name" : "MI_Envi_Fyz_Store_02B",
      "pbrMetallicRoughness" : {
        "baseColorFactor" : [ 0.9, 0.3, 0.3, 1.0 ],
        "metallicFactor" : 0.1,
        "roughnessFactor" : 0.5
      }
    },
    {
      "name" : "MI_PM_Glass_02k",
      "pbrMetallicRoughness" : {
        "baseColorFactor" : [ 0.3, 0.9, 0.3, 1.0 ],
        "metallicFactor" : 0.1,
        "roughnessFactor" : 0.5
      }
    }
  ],
  "meshes" : [
    {
      "primitives" : [
        {
          "attributes" : {
            "POSITION" : 1,
            "NORMAL" : 2,
            "TANGENT" : 3,
            "TEXCOORD_0" : 4,
            "TEXCOORD_1" : 5,
            "TEXCOORD_2" : 6,
            "TEXCOORD_3" : 7
          },
          "indices" : 0,
          "material" : 0
        },
        {
          "attributes" : {
            "POSITION" : 9,
            "NORMAL" : 10,
            "TANGENT" : 11,
            "TEXCOORD_0" : 12,
            "TEXCOORD_1" : 13,
            "TEXCOORD_2" : 14,
            "TEXCOORD_3" : 15
          },
          "indices" : 8,
          "material" : 1
        },
        {
          "attributes" : {
            "POSITION" : 17,
            "NORMAL" : 18,
            "TANGENT" : 19,
            "TEXCOORD_0" : 20,
            "TEXCOORD_1" : 21,
            "TEXCOORD_2" : 22,
            "TEXCOORD_3" : 23
          },
          "indices" : 16,
          "material" : 2
        }
      ],
      "name" : "S_Envi_Fyz_Building_88a"
    }
  ],
  "buffers" : [
    {
      "uri" : "S_Envi_Fyz_Building_88a.bin",
      "byteLength" : 162728
    }
  ],
  "bufferViews" : [
    {
      "buffer" : 0,
      "byteOffset" : 0,
      "byteLength" : 5348
    },
    {
      "buffer" : 0,
      "byteOffset" : 5348,
      "byteLength" : 16812
    },
    {
      "buffer" : 0,
      "byteOffset" : 22160,
      "byteLength" : 16812
    },
    {
      "buffer" : 0,
      "byteOffset" : 38972,
      "byteLength" : 22416
    },
    {
      "buffer" : 0,
      "byteOffset" : 61388,
      "byteLength" : 11208
    },
    {
      "buffer" : 0,
      "byteOffset" : 72596,
      "byteLength" : 11208
    },
    {
      "buffer" : 0,
      "byteOffset" : 83804,
      "byteLength" : 11208
    },
    {
      "buffer" : 0,
      "byteOffset" : 95012,
      "byteLength" : 11208
    },
    {
      "buffer" : 0,
      "byteOffset" : 106220,
      "byteLength" : 5724
    },
    {
      "buffer" : 0,
      "byteOffset" : 111944,
      "byteLength" : 8160
    },
    {
      "buffer" : 0,
      "byteOffset" : 120104,
      "byteLength" : 8160
    },
    {
      "buffer" : 0,
      "byteOffset" : 128264,
      "byteLength" : 10880
    },
    {
      "buffer" : 0,
      "byteOffset" : 139144,
      "byteLength" : 5440
    },
    {
      "buffer" : 0,
      "byteOffset" : 144584,
      "byteLength" : 5440
    },
    {
      "buffer" : 0,
      "byteOffset" : 150024,
      "byteLength" : 5440
    },
    {
      "buffer" : 0,
      "byteOffset" : 155464,
      "byteLength" : 5440
    },
    {
      "buffer" : 0,
      "byteOffset" : 160904,
      "byteLength" : 96
    },
    {
      "buffer" : 0,
      "byteOffset" : 161000,
      "byteLength" : 288
    },
    {
      "buffer" : 0,
      "byteOffset" : 161288,
      "byteLength" : 288
    },
    {
      "buffer" : 0,
      "byteOffset" : 161576,
      "byteLength" : 384
    },
    {
      "buffer" : 0,
      "byteOffset" : 161960,
      "byteLength" : 192
    },
    {
      "buffer" : 0,
      "byteOffset" : 162152,
      "byteLength" : 192
    },
    {
      "buffer" : 0,
      "byteOffset" : 162344,
      "byteLength" : 192
    },
    {
      "buffer" : 0,
      "byteOffset" : 162536,
      "byteLength" : 192
    }
  ],
  "accessors" : [
    {
      "bufferView" : 0,
      "componentType" : 5123,
      "count" : 2673,
      "type" : "SCALAR"
    },
    {
      "bufferView" : 1,
      "min" : [ 0.0118866, -0.00634216, 0.117578 ],
      "max" : [ 1.94804, 4.40279, 12.012 ],
      "componentType" : 5126,
      "count" : 1401,
      "type" : "VEC3"
    },
    {
      "bufferView" : 2,
      "componentType" : 5126,
      "count" : 1401,
      "type" : "VEC3"
    },
    {
      "bufferView" : 3,
      "componentType" : 5126,
      "count" : 1401,
      "type" : "VEC4"
    },
    {
      "bufferView" : 4,
      "componentType" : 5126,
      "count" : 1401,
      "type" : "VEC2"
    },
    {
      "bufferView" : 5,
      "componentType" : 5126,
      "count" : 1401,
      "type" : "VEC2"
    },
    {
      "bufferView" : 6,
      "componentType" : 5126,
      "count" : 1401,
      "type" : "VEC2"
    },
    {
      "bufferView" : 7,
      "componentType" : 5126,
      "count" : 1401,
      "type" : "VEC2"
    },
    {
      "bufferView" : 8,
      "componentType" : 5123,
      "count" : 2862,
      "type" : "SCALAR"
    },
    {
      "bufferView" : 9,
      "min" : [ 0.255532, -0.0459601, 0.539417 ],
      "max" : [ 0.595916, 2.74201, 2.73871 ],
      "componentType" : 5126,
      "count" : 680,
      "type" : "VEC3"
    },
    {
      "bufferView" : 10,
      "componentType" : 5126,
      "count" : 680,
      "type" : "VEC3"
    },
    {
      "bufferView" : 11,
      "componentType" : 5126,
      "count" : 680,
      "type" : "VEC4"
    },
    {
      "bufferView" : 12,
      "componentType" : 5126,
      "count" : 680,
      "type" : "VEC2"
    },
    {
      "bufferView" : 13,
      "componentType" : 5126,
      "count" : 680,
      "type" : "VEC2"
    },
    {
      "bufferView" : 14,
      "componentType" : 5126,
      "count" : 680,
      "type" : "VEC2"
    },
    {
      "bufferView" : 15,
      "componentType" : 5126,
      "count" : 680,
      "type" : "VEC2"
    },
    {
      "bufferView" : 16,
      "componentType" : 5123,
      "count" : 48,
      "type" : "SCALAR"
    },
    {
      "bufferView" : 17,
      "min" : [ 0.291865, 0.80399, 0.759351 ],
      "max" : [ 0.424075, 3.28585, 9.94165 ],
      "componentType" : 5126,
      "count" : 24,
      "type" : "VEC3"
    },
    {
      "bufferView" : 18,
      "componentType" : 5126,
      "count" : 24,
      "type" : "VEC3"
    },
    {
      "bufferView" : 19,
      "componentType" : 5126,
      "count" : 24,
      "type" : "VEC4"
    },
    {
      "bufferView" : 20,
      "componentType" : 5126,
      "count" : 24,
      "type" : "VEC2"
    },
    {
      "bufferView" : 21,
      "componentType" : 5126,
      "count" : 24,
      "type" : "VEC2"
    },
    {
      "bufferView" : 22,
      "componentType" : 5126,
      "count" : 24,
      "type" : "VEC2"
    },
    {
      "bufferView" : 23,
      "componentType" : 5126,
      "count" : 24,
      "type" : "VEC2"
    }
  ]
}
