{
  "asset" : {
    "generator" : "UE Viewer (umodel) build 1579 based",
    "version" : "2.0"
  },
  "scene" : 0,
  "scenes" : [
    {
      "nodes" : [ 0 ]
    }
  ],
  "nodes" : [
    {
      "name" : "S_Envi_Fyz_BuildingMerge_94e",
      "mesh" : 0
    }
  ],
  "materials" : [
    {
      "name" : "MI_Envi_Fyz_House_01b1",
      "pbrMetallicRoughness" : {
        "baseColorFactor" : [ 0.3, 0.3, 0.3, 1.0 ],
        "metallicFactor" : 0.1,
        "roughnessFactor" : 0.5
      }
    },
    {
      "name" : "MI_Envi_Fyz_House_01b",
      "pbrMetallicRoughness" : {
        "baseColorFactor" : [ 0.9, 0.3, 0.3, 1.0 ],
        "metallicFactor" : 0.1,
        "roughnessFactor" : 0.5
      }
    },
    {
      "name" : "MI_Envi_Fyz_House_01a",
      "pbrMetallicRoughness" : {
        "baseColorFactor" : [ 0.3, 0.9, 0.3, 1.0 ],
        "metallicFactor" : 0.1,
        "roughnessFactor" : 0.5
      }
    }
  ],
  "meshes" : [
    {
      "primitives" : [
        {
          "attributes" : {
            "POSITION" : 1,
            "NORMAL" : 2,
            "TANGENT" : 3,
            "TEXCOORD_0" : 4,
            "TEXCOORD_1" : 5,
            "TEXCOORD_2" : 6,
            "TEXCOORD_3" : 7
          },
          "indices" : 0,
          "material" : 0
        },
        {
          "attributes" : {
            "POSITION" : 9,
            "NORMAL" : 10,
            "TANGENT" : 11,
            "TEXCOORD_0" : 12,
            "TEXCOORD_1" : 13,
            "TEXCOORD_2" : 14,
            "TEXCOORD_3" : 15
          },
          "indices" : 8,
          "material" : 1
        },
        {
          "attributes" : {
            "POSITION" : 17,
            "NORMAL" : 18,
            "TANGENT" : 19,
            "TEXCOORD_0" : 20,
            "TEXCOORD_1" : 21,
            "TEXCOORD_2" : 22,
            "TEXCOORD_3" : 23
          },
          "indices" : 16,
          "material" : 2
        }
      ],
      "name" : "S_Envi_Fyz_BuildingMerge_94e"
    }
  ],
  "buffers" : [
    {
      "uri" : "S_Envi_Fyz_BuildingMerge_94e.bin",
      "byteLength" : 119460
    }
  ],
  "bufferViews" : [
    {
      "buffer" : 0,
      "byteOffset" : 0,
      "byteLength" : 2748
    },
    {
      "buffer" : 0,
      "byteOffset" : 2748,
      "byteLength" : 6912
    },
    {
      "buffer" : 0,
      "byteOffset" : 9660,
      "byteLength" : 6912
    },
    {
      "buffer" : 0,
      "byteOffset" : 16572,
      "byteLength" : 9216
    },
    {
      "buffer" : 0,
      "byteOffset" : 25788,
      "byteLength" : 4608
    },
    {
      "buffer" : 0,
      "byteOffset" : 30396,
      "byteLength" : 4608
    },
    {
      "buffer" : 0,
      "byteOffset" : 35004,
      "byteLength" : 4608
    },
    {
      "buffer" : 0,
      "byteOffset" : 39612,
      "byteLength" : 4608
    },
    {
      "buffer" : 0,
      "byteOffset" : 44220,
      "byteLength" : 3024
    },
    {
      "buffer" : 0,
      "byteOffset" : 47244,
      "byteLength" : 9528
    },
    {
      "buffer" : 0,
      "byteOffset" : 56772,
      "byteLength" : 9528
    },
    {
      "buffer" : 0,
      "byteOffset" : 66300,
      "byteLength" : 12704
    },
    {
      "buffer" : 0,
      "byteOffset" : 79004,
      "byteLength" : 6352
    },
    {
      "buffer" : 0,
      "byteOffset" : 85356,
      "byteLength" : 6352
    },
    {
      "buffer" : 0,
      "byteOffset" : 91708,
      "byteLength" : 6352
    },
    {
      "buffer" : 0,
      "byteOffset" : 98060,
      "byteLength" : 6352
    },
    {
      "buffer" : 0,
      "byteOffset" : 104412,
      "byteLength" : 648
    },
    {
      "buffer" : 0,
      "byteOffset" : 105060,
      "byteLength" : 2400
    },
    {
      "buffer" : 0,
      "byteOffset" : 107460,
      "byteLength" : 2400
    },
    {
      "buffer" : 0,
      "byteOffset" : 109860,
      "byteLength" : 3200
    },
    {
      "buffer" : 0,
      "byteOffset" : 113060,
      "byteLength" : 1600
    },
    {
      "buffer" : 0,
      "byteOffset" : 114660,
      "byteLength" : 1600
    },
    {
      "buffer" : 0,
      "byteOffset" : 116260,
      "byteLength" : 1600
    },
    {
      "buffer" : 0,
      "byteOffset" : 117860,
      "byteLength" : 1600
    }
  ],
  "accessors" : [
    {
      "bufferView" : 0,
      "componentType" : 5123,
      "count" : 1374,
      "type" : "SCALAR"
    },
    {
      "bufferView" : 1,
      "min" : [ -73.1161, -0.211243, -39.1671 ],
      "max" : [ -46.7346, 0.0687626, -13.8677 ],
      "componentType" : 5126,
      "count" : 576,
      "type" : "VEC3"
    },
    {
      "bufferView" : 2,
      "componentType" : 5126,
      "count" : 576,
      "type" : "VEC3"
    },
    {
      "bufferView" : 3,
      "componentType" : 5126,
      "count" : 576,
      "type" : "VEC4"
    },
    {
      "bufferView" : 4,
      "componentType" : 5126,
      "count" : 576,
      "type" : "VEC2"
    },
    {
      "bufferView" : 5,
      "componentType" : 5126,
      "count" : 576,
      "type" : "VEC2"
    },
    {
      "bufferView" : 6,
      "componentType" : 5126,
      "count" : 576,
      "type" : "VEC2"
    },
    {
      "bufferView" : 7,
      "componentType" : 5126,
      "count" : 576,
      "type" : "VEC2"
    },
    {
      "bufferView" : 8,
      "componentType" : 5123,
      "count" : 1512,
      "type" : "SCALAR"
    },
    {
      "bufferView" : 9,
      "min" : [ -83.077, -0.704085, -38.526 ],
      "max" : [ -41.8674, 7.0166, -21.8441 ],
      "componentType" : 5126,
      "count" : 794,
      "type" : "VEC3"
    },
    {
      "bufferView" : 10,
      "componentType" : 5126,
      "count" : 794,
      "type" : "VEC3"
    },
    {
      "bufferView" : 11,
      "componentType" : 5126,
      "count" : 794,
      "type" : "VEC4"
    },
    {
      "bufferView" : 12,
      "componentType" : 5126,
      "count" : 794,
      "type" : "VEC2"
    },
    {
      "bufferView" : 13,
      "componentType" : 5126,
      "count" : 794,
      "type" : "VEC2"
    },
    {
      "bufferView" : 14,
      "componentType" : 5126,
      "count" : 794,
      "type" : "VEC2"
    },
    {
      "bufferView" : 15,
      "componentType" : 5126,
      "count" : 794,
      "type" : "VEC2"
    },
    {
      "bufferView" : 16,
      "componentType" : 5123,
      "count" : 324,
      "type" : "SCALAR"
    },
    {
      "bufferView" : 17,
      "min" : [ -55.1924, 0.0434723, -22.6165 ],
      "max" : [ -46.8355, 5.72998, -21.7805 ],
      "componentType" : 5126,
      "count" : 200,
      "type" : "VEC3"
    },
    {
      "bufferView" : 18,
      "componentType" : 5126,
      "count" : 200,
      "type" : "VEC3"
    },
    {
      "bufferView" : 19,
      "componentType" : 5126,
      "count" : 200,
      "type" : "VEC4"
    },
    {
      "bufferView" : 20,
      "componentType" : 5126,
      "count" : 200,
      "type" : "VEC2"
    },
    {
      "bufferView" : 21,
      "componentType" : 5126,
      "count" : 200,
      "type" : "VEC2"
    },
    {
      "bufferView" : 22,
      "componentType" : 5126,
      "count" : 200,
      "type" : "VEC2"
    },
    {
      "bufferView" : 23,
      "componentType" : 5126,
      "count" : 200,
      "type" : "VEC2"
    }
  ]
}
