{
  "asset" : {
    "generator" : "UE Viewer (umodel) build 1579 based",
    "version" : "2.0"
  },
  "scene" : 0,
  "scenes" : [
    {
      "nodes" : [ 0 ]
    }
  ],
  "nodes" : [
    {
      "name" : "S_Envi_Fyz_Grass_Merge_02h",
      "mesh" : 0
    }
  ],
  "materials" : [
    {
      "name" : "MI_Envi_Foliage_shrub_08",
      "pbrMetallicRoughness" : {
        "baseColorFactor" : [ 0.3, 0.3, 0.3, 1.0 ],
        "metallicFactor" : 0.1,
        "roughnessFactor" : 0.5
      }
    },
    {
      "name" : "MI_Envi_Foliage_shrub_09",
      "pbrMetallicRoughness" : {
        "baseColorFactor" : [ 0.9, 0.3, 0.3, 1.0 ],
        "metallicFactor" : 0.1,
        "roughnessFactor" : 0.5
      }
    }
  ],
  "meshes" : [
    {
      "primitives" : [
        {
          "attributes" : {
            "POSITION" : 1,
            "NORMAL" : 2,
            "TANGENT" : 3,
            "TEXCOORD_0" : 4,
            "TEXCOORD_1" : 5
          },
          "indices" : 0,
          "material" : 0
        },
        {
          "attributes" : {
            "POSITION" : 7,
            "NORMAL" : 8,
            "TANGENT" : 9,
            "TEXCOORD_0" : 10,
            "TEXCOORD_1" : 11
          },
          "indices" : 6,
          "material" : 1
        }
      ],
      "name" : "S_Envi_Fyz_Grass_Merge_02h"
    }
  ],
  "buffers" : [
    {
      "uri" : "S_Envi_Fyz_Grass_Merge_02h.bin",
      "byteLength" : 518520
    }
  ],
  "bufferViews" : [
    {
      "buffer" : 0,
      "byteOffset" : 0,
      "byteLength" : 6156
    },
    {
      "buffer" : 0,
      "byteOffset" : 6156,
      "byteLength" : 15252
    },
    {
      "buffer" : 0,
      "byteOffset" : 21408,
      "byteLength" : 15252
    },
    {
      "buffer" : 0,
      "byteOffset" : 36660,
      "byteLength" : 20336
    },
    {
      "buffer" : 0,
      "byteOffset" : 56996,
      "byteLength" : 10168
    },
    {
      "buffer" : 0,
      "byteOffset" : 67164,
      "byteLength" : 10168
    },
    {
      "buffer" : 0,
      "byteOffset" : 77332,
      "byteLength" : 30540
    },
    {
      "buffer" : 0,
      "byteOffset" : 107872,
      "byteLength" : 87996
    },
    {
      "buffer" : 0,
      "byteOffset" : 195868,
      "byteLength" : 87996
    },
    {
      "buffer" : 0,
      "byteOffset" : 283864,
      "byteLength" : 117328
    },
    {
      "buffer" : 0,
      "byteOffset" : 401192,
      "byteLength" : 58664
    },
    {
      "buffer" : 0,
      "byteOffset" : 459856,
      "byteLength" : 58664
    }
  ],
  "accessors" : [
    {
      "bufferView" : 0,
      "componentType" : 5123,
      "count" : 3078,
      "type" : "SCALAR"
    },
    {
      "bufferView" : 1,
      "min" : [ 48.2071, 5.03067, -52.9815 ],
      "max" : [ 66.6475, 5.15069, -43.7015 ],
      "componentType" : 5126,
      "count" : 1271,
      "type" : "VEC3"
    },
    {
      "bufferView" : 2,
      "componentType" : 5126,
      "count" : 1271,
      "type" : "VEC3"
    },
    {
      "bufferView" : 3,
      "componentType" : 5126,
      "count" : 1271,
      "type" : "VEC4"
    },
    {
      "bufferView" : 4,
      "componentType" : 5126,
      "count" : 1271,
      "type" : "VEC2"
    },
    {
      "bufferView" : 5,
      "componentType" : 5126,
      "count" : 1271,
      "type" : "VEC2"
    },
    {
      "bufferView" : 6,
      "componentType" : 5123,
      "count" : 15270,
      "type" : "SCALAR"
    },
    {
      "bufferView" : 7,
      "min" : [ 48.3532, 4.93854, -50.7619 ],
      "max" : [ 66.966, 5.94871, -43.3884 ],
      "componentType" : 5126,
      "count" : 7333,
      "type" : "VEC3"
    },
    {
      "bufferView" : 8,
      "componentType" : 5126,
      "count" : 7333,
      "type" : "VEC3"
    },
    {
      "bufferView" : 9,
      "componentType" : 5126,
      "count" : 7333,
      "type" : "VEC4"
    },
    {
      "bufferView" : 10,
      "componentType" : 5126,
      "count" : 7333,
      "type" : "VEC2"
    },
    {
      "bufferView" : 11,
      "componentType" : 5126,
      "count" : 7333,
      "type" : "VEC2"
    }
  ]
}
