{
  "asset" : {
    "generator" : "UE Viewer (umodel) build 1579 based",
    "version" : "2.0"
  },
  "scene" : 0,
  "scenes" : [
    {
      "nodes" : [ 0 ]
    }
  ],
  "nodes" : [
    {
      "name" : "SK_Weap_G28_Sight_1P_Mesh",
      "mesh" : 0,
      "skin" : 0,
      "children" : [ 1 ]
    },
    {
      "name" : "Root",
      "translation" : [ 0, 0, 0 ],
      "rotation" : [ -0, -0, -0, 1 ]
    }
  ],
  "skins" : [
    {
      "inverseBindMatrices" : 0,
      "skeleton" : 1,
      "joints" : [
        1
      ]
    }
  ],
  "materials" : [
    {
      "name" : "MI_Weap_G28",
      "pbrMetallicRoughness" : {
        "baseColorFactor" : [ 0.3, 0.3, 0.3, 1.0 ],
        "metallicFactor" : 0.1,
        "roughnessFactor" : 0.5
      }
    }
  ],
  "meshes" : [
    {
      "primitives" : [
        {
          "attributes" : {
            "POSITION" : 2,
            "NORMAL" : 3,
            "TANGENT" : 4,
            "JOINTS_0" : 5,
            "WEIGHTS_0" : 6,
            "TEXCOORD_0" : 7
          },
          "indices" : 1,
          "material" : 0
        }
      ],
      "name" : "SK_Weap_G28_Sight_1P_Mesh"
    }
  ],
  "buffers" : [
    {
      "uri" : "SK_Weap_G28_Sight_1P_Mesh.bin",
      "byteLength" : 81592
    }
  ],
  "bufferViews" : [
    {
      "buffer" : 0,
      "byteOffset" : 0,
      "byteLength" : 64
    },
    {
      "buffer" : 0,
      "byteOffset" : 64,
      "byteLength" : 8388
    },
    {
      "buffer" : 0,
      "byteOffset" : 8452,
      "byteLength" : 14628
    },
    {
      "buffer" : 0,
      "byteOffset" : 23080,
      "byteLength" : 14628
    },
    {
      "buffer" : 0,
      "byteOffset" : 37708,
      "byteLength" : 19504
    },
    {
      "buffer" : 0,
      "byteOffset" : 57212,
      "byteLength" : 9752
    },
    {
      "buffer" : 0,
      "byteOffset" : 66964,
      "byteLength" : 4876
    },
    {
      "buffer" : 0,
      "byteOffset" : 71840,
      "byteLength" : 9752
    }
  ],
  "accessors" : [
    {
      "bufferView" : 0,
      "componentType" : 5126,
      "count" : 1,
      "type" : "MAT4"
    },
    {
      "bufferView" : 1,
      "componentType" : 5123,
      "count" : 4194,
      "type" : "SCALAR"
    },
    {
      "bufferView" : 2,
      "min" : [ -0.029378, -0.0241224, -0.0789281 ],
      "max" : [ 0.029378, 0.0296434, 0.0242854 ],
      "componentType" : 5126,
      "count" : 1219,
      "type" : "VEC3"
    },
    {
      "bufferView" : 3,
      "componentType" : 5126,
      "count" : 1219,
      "type" : "VEC3"
    },
    {
      "bufferView" : 4,
      "componentType" : 5126,
      "count" : 1219,
      "type" : "VEC4"
    },
    {
      "bufferView" : 5,
      "componentType" : 5123,
      "count" : 1219,
      "type" : "VEC4"
    },
    {
      "bufferView" : 6,
      "normalized" : true,
      "componentType" : 5121,
      "count" : 1219,
      "type" : "VEC4"
    },
    {
      "bufferView" : 7,
      "componentType" : 5126,
      "count" : 1219,
      "type" : "VEC2"
    }
  ]
}
