{
  "asset" : {
    "generator" : "UE Viewer (umodel) build 1579 based",
    "version" : "2.0"
  },
  "scene" : 0,
  "scenes" : [
    {
      "nodes" : [ 0 ]
    }
  ],
  "nodes" : [
    {
      "name" : "S_Envi_FyzBP_Block_10q",
      "mesh" : 0
    }
  ],
  "materials" : [
    {
      "name" : "MI_Envi_FYZ_AD_04",
      "pbrMetallicRoughness" : {
        "baseColorFactor" : [ 0.3, 0.3, 0.3, 1.0 ],
        "metallicFactor" : 0.1,
        "roughnessFactor" : 0.5
      }
    },
    {
      "name" : "MI_Envi_Olgk_Door_03a",
      "pbrMetallicRoughness" : {
        "baseColorFactor" : [ 0.9, 0.3, 0.3, 1.0 ],
        "metallicFactor" : 0.1,
        "roughnessFactor" : 0.5
      }
    }
  ],
  "meshes" : [
    {
      "primitives" : [
        {
          "attributes" : {
            "POSITION" : 1,
            "NORMAL" : 2,
            "TANGENT" : 3,
            "TEXCOORD_0" : 4,
            "TEXCOORD_1" : 5
          },
          "indices" : 0,
          "material" : 0
        },
        {
          "attributes" : {
            "POSITION" : 7,
            "NORMAL" : 8,
            "TANGENT" : 9,
            "TEXCOORD_0" : 10,
            "TEXCOORD_1" : 11
          },
          "indices" : 6,
          "material" : 1
        }
      ],
      "name" : "S_Envi_FyzBP_Block_10q"
    }
  ],
  "buffers" : [
    {
      "uri" : "S_Envi_FyzBP_Block_10q.bin",
      "byteLength" : 153248
    }
  ],
  "bufferViews" : [
    {
      "buffer" : 0,
      "byteOffset" : 0,
      "byteLength" : 24
    },
    {
      "buffer" : 0,
      "byteOffset" : 24,
      "byteLength" : 72
    },
    {
      "buffer" : 0,
      "byteOffset" : 96,
      "byteLength" : 72
    },
    {
      "buffer" : 0,
      "byteOffset" : 168,
      "byteLength" : 96
    },
    {
      "buffer" : 0,
      "byteOffset" : 264,
      "byteLength" : 48
    },
    {
      "buffer" : 0,
      "byteOffset" : 312,
      "byteLength" : 48
    },
    {
      "buffer" : 0,
      "byteOffset" : 360,
      "byteLength" : 8520
    },
    {
      "buffer" : 0,
      "byteOffset" : 8880,
      "byteLength" : 30936
    },
    {
      "buffer" : 0,
      "byteOffset" : 39816,
      "byteLength" : 30936
    },
    {
      "buffer" : 0,
      "byteOffset" : 70752,
      "byteLength" : 41248
    },
    {
      "buffer" : 0,
      "byteOffset" : 112000,
      "byteLength" : 20624
    },
    {
      "buffer" : 0,
      "byteOffset" : 132624,
      "byteLength" : 20624
    }
  ],
  "accessors" : [
    {
      "bufferView" : 0,
      "componentType" : 5123,
      "count" : 12,
      "type" : "SCALAR"
    },
    {
      "bufferView" : 1,
      "min" : [ -3.89354, 3.64821, 0.428353 ],
      "max" : [ 3.97328, 4.12434, 0.428353 ],
      "componentType" : 5126,
      "count" : 6,
      "type" : "VEC3"
    },
    {
      "bufferView" : 2,
      "componentType" : 5126,
      "count" : 6,
      "type" : "VEC3"
    },
    {
      "bufferView" : 3,
      "componentType" : 5126,
      "count" : 6,
      "type" : "VEC4"
    },
    {
      "bufferView" : 4,
      "componentType" : 5126,
      "count" : 6,
      "type" : "VEC2"
    },
    {
      "bufferView" : 5,
      "componentType" : 5126,
      "count" : 6,
      "type" : "VEC2"
    },
    {
      "bufferView" : 6,
      "componentType" : 5123,
      "count" : 4260,
      "type" : "SCALAR"
    },
    {
      "bufferView" : 7,
      "min" : [ -5.09313, -8.81249e-07, -0.6 ],
      "max" : [ 5.09374, 4.40003, 0.6 ],
      "componentType" : 5126,
      "count" : 2578,
      "type" : "VEC3"
    },
    {
      "bufferView" : 8,
      "componentType" : 5126,
      "count" : 2578,
      "type" : "VEC3"
    },
    {
      "bufferView" : 9,
      "componentType" : 5126,
      "count" : 2578,
      "type" : "VEC4"
    },
    {
      "bufferView" : 10,
      "componentType" : 5126,
      "count" : 2578,
      "type" : "VEC2"
    },
    {
      "bufferView" : 11,
      "componentType" : 5126,
      "count" : 2578,
      "type" : "VEC2"
    }
  ]
}
