{
  "asset" : {
    "generator" : "UE Viewer (umodel) build 1579 based",
    "version" : "2.0"
  },
  "scene" : 0,
  "scenes" : [
    {
      "nodes" : [ 0 ]
    }
  ],
  "nodes" : [
    {
      "name" : "SK_Weap_Scar_H_Sight_1P_Mesh",
      "mesh" : 0,
      "skin" : 0,
      "children" : [ 1 ]
    },
    {
      "name" : "Root",
      "translation" : [ 0, 0, 0 ],
      "rotation" : [ -2.10734e-08, -0, -0, 1 ]
    }
  ],
  "skins" : [
    {
      "inverseBindMatrices" : 0,
      "skeleton" : 1,
      "joints" : [
        1
      ]
    }
  ],
  "materials" : [
    {
      "name" : "MI_Weap_Scar_H_01",
      "pbrMetallicRoughness" : {
        "baseColorFactor" : [ 0.3, 0.3, 0.3, 1.0 ],
        "metallicFactor" : 0.1,
        "roughnessFactor" : 0.5
      }
    }
  ],
  "meshes" : [
    {
      "primitives" : [
        {
          "attributes" : {
            "POSITION" : 2,
            "NORMAL" : 3,
            "TANGENT" : 4,
            "JOINTS_0" : 5,
            "WEIGHTS_0" : 6,
            "TEXCOORD_0" : 7
          },
          "indices" : 1,
          "material" : 0
        }
      ],
      "name" : "SK_Weap_Scar_H_Sight_1P_Mesh"
    }
  ],
  "buffers" : [
    {
      "uri" : "SK_Weap_Scar_H_Sight_1P_Mesh.bin",
      "byteLength" : 196540
    }
  ],
  "bufferViews" : [
    {
      "buffer" : 0,
      "byteOffset" : 0,
      "byteLength" : 64
    },
    {
      "buffer" : 0,
      "byteOffset" : 64,
      "byteLength" : 18216
    },
    {
      "buffer" : 0,
      "byteOffset" : 18280,
      "byteLength" : 35652
    },
    {
      "buffer" : 0,
      "byteOffset" : 53932,
      "byteLength" : 35652
    },
    {
      "buffer" : 0,
      "byteOffset" : 89584,
      "byteLength" : 47536
    },
    {
      "buffer" : 0,
      "byteOffset" : 137120,
      "byteLength" : 23768
    },
    {
      "buffer" : 0,
      "byteOffset" : 160888,
      "byteLength" : 11884
    },
    {
      "buffer" : 0,
      "byteOffset" : 172772,
      "byteLength" : 23768
    }
  ],
  "accessors" : [
    {
      "bufferView" : 0,
      "componentType" : 5126,
      "count" : 1,
      "type" : "MAT4"
    },
    {
      "bufferView" : 1,
      "componentType" : 5123,
      "count" : 9108,
      "type" : "SCALAR"
    },
    {
      "bufferView" : 2,
      "min" : [ -0.022803, -0.038903, -0.0744575 ],
      "max" : [ 0.0215461, 0.0217507, -0.00795091 ],
      "componentType" : 5126,
      "count" : 2971,
      "type" : "VEC3"
    },
    {
      "bufferView" : 3,
      "componentType" : 5126,
      "count" : 2971,
      "type" : "VEC3"
    },
    {
      "bufferView" : 4,
      "componentType" : 5126,
      "count" : 2971,
      "type" : "VEC4"
    },
    {
      "bufferView" : 5,
      "componentType" : 5123,
      "count" : 2971,
      "type" : "VEC4"
    },
    {
      "bufferView" : 6,
      "normalized" : true,
      "componentType" : 5121,
      "count" : 2971,
      "type" : "VEC4"
    },
    {
      "bufferView" : 7,
      "componentType" : 5126,
      "count" : 2971,
      "type" : "VEC2"
    }
  ]
}
