{
  "asset" : {
    "generator" : "UE Viewer (umodel) build 1579 based",
    "version" : "2.0"
  },
  "scene" : 0,
  "scenes" : [
    {
      "nodes" : [ 0 ]
    }
  ],
  "nodes" : [
    {
      "name" : "S_Envi_Train_Decal_06g",
      "mesh" : 0
    }
  ],
  "materials" : [
    {
      "name" : "MI_Envi_Train_Decal_06a",
      "pbrMetallicRoughness" : {
        "baseColorFactor" : [ 0.3, 0.3, 0.3, 1.0 ],
        "metallicFactor" : 0.1,
        "roughnessFactor" : 0.5
      }
    },
    {
      "name" : "MI_Envi_Train_Decal_07a",
      "pbrMetallicRoughness" : {
        "baseColorFactor" : [ 0.9, 0.3, 0.3, 1.0 ],
        "metallicFactor" : 0.1,
        "roughnessFactor" : 0.5
      }
    }
  ],
  "meshes" : [
    {
      "primitives" : [
        {
          "attributes" : {
            "POSITION" : 1,
            "NORMAL" : 2,
            "TANGENT" : 3,
            "TEXCOORD_0" : 4,
            "TEXCOORD_1" : 5
          },
          "indices" : 0,
          "material" : 0
        },
        {
          "attributes" : {
            "POSITION" : 7,
            "NORMAL" : 8,
            "TANGENT" : 9,
            "TEXCOORD_0" : 10,
            "TEXCOORD_1" : 11
          },
          "indices" : 6,
          "material" : 1
        }
      ],
      "name" : "S_Envi_Train_Decal_06g"
    }
  ],
  "buffers" : [
    {
      "uri" : "S_Envi_Train_Decal_06g.bin",
      "byteLength" : 4248
    }
  ],
  "bufferViews" : [
    {
      "buffer" : 0,
      "byteOffset" : 0,
      "byteLength" : 120
    },
    {
      "buffer" : 0,
      "byteOffset" : 120,
      "byteLength" : 480
    },
    {
      "buffer" : 0,
      "byteOffset" : 600,
      "byteLength" : 480
    },
    {
      "buffer" : 0,
      "byteOffset" : 1080,
      "byteLength" : 640
    },
    {
      "buffer" : 0,
      "byteOffset" : 1720,
      "byteLength" : 320
    },
    {
      "buffer" : 0,
      "byteOffset" : 2040,
      "byteLength" : 320
    },
    {
      "buffer" : 0,
      "byteOffset" : 2360,
      "byteLength" : 96
    },
    {
      "buffer" : 0,
      "byteOffset" : 2456,
      "byteLength" : 384
    },
    {
      "buffer" : 0,
      "byteOffset" : 2840,
      "byteLength" : 384
    },
    {
      "buffer" : 0,
      "byteOffset" : 3224,
      "byteLength" : 512
    },
    {
      "buffer" : 0,
      "byteOffset" : 3736,
      "byteLength" : 256
    },
    {
      "buffer" : 0,
      "byteOffset" : 3992,
      "byteLength" : 256
    }
  ],
  "accessors" : [
    {
      "bufferView" : 0,
      "componentType" : 5123,
      "count" : 60,
      "type" : "SCALAR"
    },
    {
      "bufferView" : 1,
      "min" : [ 0, -0.0847472, -4.2012 ],
      "max" : [ 4.82335, 4.81097, 4.34577 ],
      "componentType" : 5126,
      "count" : 40,
      "type" : "VEC3"
    },
    {
      "bufferView" : 2,
      "componentType" : 5126,
      "count" : 40,
      "type" : "VEC3"
    },
    {
      "bufferView" : 3,
      "componentType" : 5126,
      "count" : 40,
      "type" : "VEC4"
    },
    {
      "bufferView" : 4,
      "componentType" : 5126,
      "count" : 40,
      "type" : "VEC2"
    },
    {
      "bufferView" : 5,
      "componentType" : 5126,
      "count" : 40,
      "type" : "VEC2"
    },
    {
      "bufferView" : 6,
      "componentType" : 5123,
      "count" : 48,
      "type" : "SCALAR"
    },
    {
      "bufferView" : 7,
      "min" : [ 0, 0.649944, -2.98623 ],
      "max" : [ 0, 1.35605, 3.43493 ],
      "componentType" : 5126,
      "count" : 32,
      "type" : "VEC3"
    },
    {
      "bufferView" : 8,
      "componentType" : 5126,
      "count" : 32,
      "type" : "VEC3"
    },
    {
      "bufferView" : 9,
      "componentType" : 5126,
      "count" : 32,
      "type" : "VEC4"
    },
    {
      "bufferView" : 10,
      "componentType" : 5126,
      "count" : 32,
      "type" : "VEC2"
    },
    {
      "bufferView" : 11,
      "componentType" : 5126,
      "count" : 32,
      "type" : "VEC2"
    }
  ]
}
