{
  "asset" : {
    "generator" : "UE Viewer (umodel) build 1579 based",
    "version" : "2.0"
  },
  "scene" : 0,
  "scenes" : [
    {
      "nodes" : [ 0 ]
    }
  ],
  "nodes" : [
    {
      "name" : "S_Envi_Train_Decal_06m",
      "mesh" : 0
    }
  ],
  "materials" : [
    {
      "name" : "MI_Envi_Train_Decal_06a",
      "pbrMetallicRoughness" : {
        "baseColorFactor" : [ 0.3, 0.3, 0.3, 1.0 ],
        "metallicFactor" : 0.1,
        "roughnessFactor" : 0.5
      }
    }
  ],
  "meshes" : [
    {
      "primitives" : [
        {
          "attributes" : {
            "POSITION" : 1,
            "NORMAL" : 2,
            "TANGENT" : 3,
            "TEXCOORD_0" : 4,
            "TEXCOORD_1" : 5,
            "TEXCOORD_2" : 6
          },
          "indices" : 0,
          "material" : 0
        }
      ],
      "name" : "S_Envi_Train_Decal_06m"
    }
  ],
  "buffers" : [
    {
      "uri" : "S_Envi_Train_Decal_06m.bin",
      "byteLength" : 2436
    }
  ],
  "bufferViews" : [
    {
      "buffer" : 0,
      "byteOffset" : 0,
      "byteLength" : 132
    },
    {
      "buffer" : 0,
      "byteOffset" : 132,
      "byteLength" : 432
    },
    {
      "buffer" : 0,
      "byteOffset" : 564,
      "byteLength" : 432
    },
    {
      "buffer" : 0,
      "byteOffset" : 996,
      "byteLength" : 576
    },
    {
      "buffer" : 0,
      "byteOffset" : 1572,
      "byteLength" : 288
    },
    {
      "buffer" : 0,
      "byteOffset" : 1860,
      "byteLength" : 288
    },
    {
      "buffer" : 0,
      "byteOffset" : 2148,
      "byteLength" : 288
    }
  ],
  "accessors" : [
    {
      "bufferView" : 0,
      "componentType" : 5123,
      "count" : 66,
      "type" : "SCALAR"
    },
    {
      "bufferView" : 1,
      "min" : [ 0, -5.41778, 0.0508268 ],
      "max" : [ 20.3919, 0.250032, 0.531133 ],
      "componentType" : 5126,
      "count" : 36,
      "type" : "VEC3"
    },
    {
      "bufferView" : 2,
      "componentType" : 5126,
      "count" : 36,
      "type" : "VEC3"
    },
    {
      "bufferView" : 3,
      "componentType" : 5126,
      "count" : 36,
      "type" : "VEC4"
    },
    {
      "bufferView" : 4,
      "componentType" : 5126,
      "count" : 36,
      "type" : "VEC2"
    },
    {
      "bufferView" : 5,
      "componentType" : 5126,
      "count" : 36,
      "type" : "VEC2"
    },
    {
      "bufferView" : 6,
      "componentType" : 5126,
      "count" : 36,
      "type" : "VEC2"
    }
  ]
}
