{
  "asset" : {
    "generator" : "UE Viewer (umodel) build 1579 based",
    "version" : "2.0"
  },
  "scene" : 0,
  "scenes" : [
    {
      "nodes" : [ 0 ]
    }
  ],
  "nodes" : [
    {
      "name" : "S_Envi_Train_Decal_08a",
      "mesh" : 0
    }
  ],
  "materials" : [
    {
      "name" : "MI_Envi_Train_Decal_06a",
      "pbrMetallicRoughness" : {
        "baseColorFactor" : [ 0.3, 0.3, 0.3, 1.0 ],
        "metallicFactor" : 0.1,
        "roughnessFactor" : 0.5
      }
    },
    {
      "name" : "MI_Envi_Train_Decal_07a",
      "pbrMetallicRoughness" : {
        "baseColorFactor" : [ 0.9, 0.3, 0.3, 1.0 ],
        "metallicFactor" : 0.1,
        "roughnessFactor" : 0.5
      }
    }
  ],
  "meshes" : [
    {
      "primitives" : [
        {
          "attributes" : {
            "POSITION" : 1,
            "NORMAL" : 2,
            "TANGENT" : 3,
            "TEXCOORD_0" : 4,
            "TEXCOORD_1" : 5
          },
          "indices" : 0,
          "material" : 0
        },
        {
          "attributes" : {
            "POSITION" : 7,
            "NORMAL" : 8,
            "TANGENT" : 9,
            "TEXCOORD_0" : 10,
            "TEXCOORD_1" : 11
          },
          "indices" : 6,
          "material" : 1
        }
      ],
      "name" : "S_Envi_Train_Decal_08a"
    }
  ],
  "buffers" : [
    {
      "uri" : "S_Envi_Train_Decal_08a.bin",
      "byteLength" : 4248
    }
  ],
  "bufferViews" : [
    {
      "buffer" : 0,
      "byteOffset" : 0,
      "byteLength" : 132
    },
    {
      "buffer" : 0,
      "byteOffset" : 132,
      "byteLength" : 528
    },
    {
      "buffer" : 0,
      "byteOffset" : 660,
      "byteLength" : 528
    },
    {
      "buffer" : 0,
      "byteOffset" : 1188,
      "byteLength" : 704
    },
    {
      "buffer" : 0,
      "byteOffset" : 1892,
      "byteLength" : 352
    },
    {
      "buffer" : 0,
      "byteOffset" : 2244,
      "byteLength" : 352
    },
    {
      "buffer" : 0,
      "byteOffset" : 2596,
      "byteLength" : 84
    },
    {
      "buffer" : 0,
      "byteOffset" : 2680,
      "byteLength" : 336
    },
    {
      "buffer" : 0,
      "byteOffset" : 3016,
      "byteLength" : 336
    },
    {
      "buffer" : 0,
      "byteOffset" : 3352,
      "byteLength" : 448
    },
    {
      "buffer" : 0,
      "byteOffset" : 3800,
      "byteLength" : 224
    },
    {
      "buffer" : 0,
      "byteOffset" : 4024,
      "byteLength" : 224
    }
  ],
  "accessors" : [
    {
      "bufferView" : 0,
      "componentType" : 5123,
      "count" : 66,
      "type" : "SCALAR"
    },
    {
      "bufferView" : 1,
      "min" : [ -99.7036, -0.339146, 28.4527 ],
      "max" : [ -58.8938, 5.49101, 48.0086 ],
      "componentType" : 5126,
      "count" : 44,
      "type" : "VEC3"
    },
    {
      "bufferView" : 2,
      "componentType" : 5126,
      "count" : 44,
      "type" : "VEC3"
    },
    {
      "bufferView" : 3,
      "componentType" : 5126,
      "count" : 44,
      "type" : "VEC4"
    },
    {
      "bufferView" : 4,
      "componentType" : 5126,
      "count" : 44,
      "type" : "VEC2"
    },
    {
      "bufferView" : 5,
      "componentType" : 5126,
      "count" : 44,
      "type" : "VEC2"
    },
    {
      "bufferView" : 6,
      "componentType" : 5123,
      "count" : 42,
      "type" : "SCALAR"
    },
    {
      "bufferView" : 7,
      "min" : [ -99.5681, -0.306996, 44.8156 ],
      "max" : [ -61.0415, 1.25093, 48.4369 ],
      "componentType" : 5126,
      "count" : 28,
      "type" : "VEC3"
    },
    {
      "bufferView" : 8,
      "componentType" : 5126,
      "count" : 28,
      "type" : "VEC3"
    },
    {
      "bufferView" : 9,
      "componentType" : 5126,
      "count" : 28,
      "type" : "VEC4"
    },
    {
      "bufferView" : 10,
      "componentType" : 5126,
      "count" : 28,
      "type" : "VEC2"
    },
    {
      "bufferView" : 11,
      "componentType" : 5126,
      "count" : 28,
      "type" : "VEC2"
    }
  ]
}
