{
  "asset" : {
    "generator" : "UE Viewer (umodel) build 1579 based",
    "version" : "2.0"
  },
  "scene" : 0,
  "scenes" : [
    {
      "nodes" : [ 0 ]
    }
  ],
  "nodes" : [
    {
      "name" : "S_Cyg_005",
      "mesh" : 0
    }
  ],
  "materials" : [
    {
      "name" : "WorldGridMaterial",
      "pbrMetallicRoughness" : {
        "baseColorFactor" : [ 0.3, 0.3, 0.3, 1.0 ],
        "metallicFactor" : 0.1,
        "roughnessFactor" : 0.5
      }
    }
  ],
  "meshes" : [
    {
      "primitives" : [
        {
          "attributes" : {
            "POSITION" : 1,
            "NORMAL" : 2,
            "TANGENT" : 3,
            "TEXCOORD_0" : 4
          },
          "indices" : 0,
          "material" : 0
        }
      ],
      "name" : "S_Cyg_005"
    }
  ],
  "buffers" : [
    {
      "uri" : "S_Cyg_005.bin",
      "byteLength" : 9288
    }
  ],
  "bufferViews" : [
    {
      "buffer" : 0,
      "byteOffset" : 0,
      "byteLength" : 1608
    },
    {
      "buffer" : 0,
      "byteOffset" : 1608,
      "byteLength" : 1920
    },
    {
      "buffer" : 0,
      "byteOffset" : 3528,
      "byteLength" : 1920
    },
    {
      "buffer" : 0,
      "byteOffset" : 5448,
      "byteLength" : 2560
    },
    {
      "buffer" : 0,
      "byteOffset" : 8008,
      "byteLength" : 1280
    }
  ],
  "accessors" : [
    {
      "bufferView" : 0,
      "componentType" : 5123,
      "count" : 804,
      "type" : "SCALAR"
    },
    {
      "bufferView" : 1,
      "min" : [ -0.0176479, 0.0675399, 0.305362 ],
      "max" : [ -0.0152458, 0.0874738, 0.354149 ],
      "componentType" : 5126,
      "count" : 160,
      "type" : "VEC3"
    },
    {
      "bufferView" : 2,
      "componentType" : 5126,
      "count" : 160,
      "type" : "VEC3"
    },
    {
      "bufferView" : 3,
      "componentType" : 5126,
      "count" : 160,
      "type" : "VEC4"
    },
    {
      "bufferView" : 4,
      "componentType" : 5126,
      "count" : 160,
      "type" : "VEC2"
    }
  ]
}
