{
  "asset" : {
    "generator" : "UE Viewer (umodel) build 1579 based",
    "version" : "2.0"
  },
  "scene" : 0,
  "scenes" : [
    {
      "nodes" : [ 0 ]
    }
  ],
  "nodes" : [
    {
      "name" : "S_Shyh_203",
      "mesh" : 0
    }
  ],
  "materials" : [
    {
      "name" : "WorldGridMaterial",
      "pbrMetallicRoughness" : {
        "baseColorFactor" : [ 0.3, 0.3, 0.3, 1.0 ],
        "metallicFactor" : 0.1,
        "roughnessFactor" : 0.5
      }
    }
  ],
  "meshes" : [
    {
      "primitives" : [
        {
          "attributes" : {
            "POSITION" : 1,
            "NORMAL" : 2,
            "TANGENT" : 3,
            "TEXCOORD_0" : 4,
            "TEXCOORD_1" : 5
          },
          "indices" : 0,
          "material" : 0
        }
      ],
      "name" : "S_Shyh_203"
    }
  ],
  "buffers" : [
    {
      "uri" : "S_Shyh_203.bin",
      "byteLength" : 10312
    }
  ],
  "bufferViews" : [
    {
      "buffer" : 0,
      "byteOffset" : 0,
      "byteLength" : 848
    },
    {
      "buffer" : 0,
      "byteOffset" : 848,
      "byteLength" : 2028
    },
    {
      "buffer" : 0,
      "byteOffset" : 2876,
      "byteLength" : 2028
    },
    {
      "buffer" : 0,
      "byteOffset" : 4904,
      "byteLength" : 2704
    },
    {
      "buffer" : 0,
      "byteOffset" : 7608,
      "byteLength" : 1352
    },
    {
      "buffer" : 0,
      "byteOffset" : 8960,
      "byteLength" : 1352
    }
  ],
  "accessors" : [
    {
      "bufferView" : 0,
      "componentType" : 5123,
      "count" : 423,
      "type" : "SCALAR"
    },
    {
      "bufferView" : 1,
      "min" : [ -0.0415557, -0.04272, -0.290257 ],
      "max" : [ 0.00673681, 0.0410329, 0.251366 ],
      "componentType" : 5126,
      "count" : 169,
      "type" : "VEC3"
    },
    {
      "bufferView" : 2,
      "componentType" : 5126,
      "count" : 169,
      "type" : "VEC3"
    },
    {
      "bufferView" : 3,
      "componentType" : 5126,
      "count" : 169,
      "type" : "VEC4"
    },
    {
      "bufferView" : 4,
      "componentType" : 5126,
      "count" : 169,
      "type" : "VEC2"
    },
    {
      "bufferView" : 5,
      "componentType" : 5126,
      "count" : 169,
      "type" : "VEC2"
    }
  ]
}
