{
  "asset" : {
    "generator" : "UE Viewer (umodel) build 1579 based",
    "version" : "2.0"
  },
  "scene" : 0,
  "scenes" : [
    {
      "nodes" : [ 0 ]
    }
  ],
  "nodes" : [
    {
      "name" : "S_Shyh_102",
      "mesh" : 0
    }
  ],
  "materials" : [
    {
      "name" : "WorldGridMaterial",
      "pbrMetallicRoughness" : {
        "baseColorFactor" : [ 0.3, 0.3, 0.3, 1.0 ],
        "metallicFactor" : 0.1,
        "roughnessFactor" : 0.5
      }
    }
  ],
  "meshes" : [
    {
      "primitives" : [
        {
          "attributes" : {
            "POSITION" : 1,
            "NORMAL" : 2,
            "TANGENT" : 3,
            "TEXCOORD_0" : 4
          },
          "indices" : 0,
          "material" : 0
        }
      ],
      "name" : "S_Shyh_102"
    }
  ],
  "buffers" : [
    {
      "uri" : "S_Shyh_102.bin",
      "byteLength" : 11088
    }
  ],
  "bufferViews" : [
    {
      "buffer" : 0,
      "byteOffset" : 0,
      "byteLength" : 1824
    },
    {
      "buffer" : 0,
      "byteOffset" : 1824,
      "byteLength" : 2316
    },
    {
      "buffer" : 0,
      "byteOffset" : 4140,
      "byteLength" : 2316
    },
    {
      "buffer" : 0,
      "byteOffset" : 6456,
      "byteLength" : 3088
    },
    {
      "buffer" : 0,
      "byteOffset" : 9544,
      "byteLength" : 1544
    }
  ],
  "accessors" : [
    {
      "bufferView" : 0,
      "componentType" : 5123,
      "count" : 912,
      "type" : "SCALAR"
    },
    {
      "bufferView" : 1,
      "min" : [ -0.243447, -3.94714e-09, -0.289896 ],
      "max" : [ 0.239471, 3.94714e-09, -0.0492184 ],
      "componentType" : 5126,
      "count" : 193,
      "type" : "VEC3"
    },
    {
      "bufferView" : 2,
      "componentType" : 5126,
      "count" : 193,
      "type" : "VEC3"
    },
    {
      "bufferView" : 3,
      "componentType" : 5126,
      "count" : 193,
      "type" : "VEC4"
    },
    {
      "bufferView" : 4,
      "componentType" : 5126,
      "count" : 193,
      "type" : "VEC2"
    }
  ]
}
