{
  "asset" : {
    "generator" : "UE Viewer (umodel) build 1579 based",
    "version" : "2.0"
  },
  "scene" : 0,
  "scenes" : [
    {
      "nodes" : [ 0 ]
    }
  ],
  "nodes" : [
    {
      "name" : "S_wb_Qhl_002",
      "mesh" : 0
    }
  ],
  "materials" : [
    {
      "name" : "dummy_material_0",
      "pbrMetallicRoughness" : {
        "baseColorFactor" : [ 0.3, 0.3, 0.3, 1.0 ],
        "metallicFactor" : 0.1,
        "roughnessFactor" : 0.5
      }
    }
  ],
  "meshes" : [
    {
      "primitives" : [
        {
          "attributes" : {
            "POSITION" : 1,
            "NORMAL" : 2,
            "TANGENT" : 3,
            "TEXCOORD_0" : 4
          },
          "indices" : 0,
          "material" : 0
        }
      ],
      "name" : "S_wb_Qhl_002"
    }
  ],
  "buffers" : [
    {
      "uri" : "S_wb_Qhl_002.bin",
      "byteLength" : 32160
    }
  ],
  "bufferViews" : [
    {
      "buffer" : 0,
      "byteOffset" : 0,
      "byteLength" : 5280
    },
    {
      "buffer" : 0,
      "byteOffset" : 5280,
      "byteLength" : 6720
    },
    {
      "buffer" : 0,
      "byteOffset" : 12000,
      "byteLength" : 6720
    },
    {
      "buffer" : 0,
      "byteOffset" : 18720,
      "byteLength" : 8960
    },
    {
      "buffer" : 0,
      "byteOffset" : 27680,
      "byteLength" : 4480
    }
  ],
  "accessors" : [
    {
      "bufferView" : 0,
      "componentType" : 5123,
      "count" : 2640,
      "type" : "SCALAR"
    },
    {
      "bufferView" : 1,
      "min" : [ -0.350476, 0.123514, -0.547273 ],
      "max" : [ 1.28483, 1.57129, 5.1944 ],
      "componentType" : 5126,
      "count" : 560,
      "type" : "VEC3"
    },
    {
      "bufferView" : 2,
      "componentType" : 5126,
      "count" : 560,
      "type" : "VEC3"
    },
    {
      "bufferView" : 3,
      "componentType" : 5126,
      "count" : 560,
      "type" : "VEC4"
    },
    {
      "bufferView" : 4,
      "componentType" : 5126,
      "count" : 560,
      "type" : "VEC2"
    }
  ]
}
