{
  "asset" : {
    "generator" : "UE Viewer (umodel) build 1579 based",
    "version" : "2.0"
  },
  "scene" : 0,
  "scenes" : [
    {
      "nodes" : [ 0 ]
    }
  ],
  "nodes" : [
    {
      "name" : "S_wb_Wcc_016",
      "mesh" : 0
    }
  ],
  "materials" : [
    {
      "name" : "WorldGridMaterial",
      "pbrMetallicRoughness" : {
        "baseColorFactor" : [ 0.3, 0.3, 0.3, 1.0 ],
        "metallicFactor" : 0.1,
        "roughnessFactor" : 0.5
      }
    }
  ],
  "meshes" : [
    {
      "primitives" : [
        {
          "attributes" : {
            "POSITION" : 1,
            "NORMAL" : 2,
            "TANGENT" : 3,
            "TEXCOORD_0" : 4
          },
          "indices" : 0,
          "material" : 0
        }
      ],
      "name" : "S_wb_Wcc_016"
    }
  ],
  "buffers" : [
    {
      "uri" : "S_wb_Wcc_016.bin",
      "byteLength" : 12960
    }
  ],
  "bufferViews" : [
    {
      "buffer" : 0,
      "byteOffset" : 0,
      "byteLength" : 1728
    },
    {
      "buffer" : 0,
      "byteOffset" : 1728,
      "byteLength" : 2808
    },
    {
      "buffer" : 0,
      "byteOffset" : 4536,
      "byteLength" : 2808
    },
    {
      "buffer" : 0,
      "byteOffset" : 7344,
      "byteLength" : 3744
    },
    {
      "buffer" : 0,
      "byteOffset" : 11088,
      "byteLength" : 1872
    }
  ],
  "accessors" : [
    {
      "bufferView" : 0,
      "componentType" : 5123,
      "count" : 864,
      "type" : "SCALAR"
    },
    {
      "bufferView" : 1,
      "min" : [ -0.0722097, 0.0133827, -0.142392 ],
      "max" : [ 0.0722054, 0.140993, -0.0523139 ],
      "componentType" : 5126,
      "count" : 234,
      "type" : "VEC3"
    },
    {
      "bufferView" : 2,
      "componentType" : 5126,
      "count" : 234,
      "type" : "VEC3"
    },
    {
      "bufferView" : 3,
      "componentType" : 5126,
      "count" : 234,
      "type" : "VEC4"
    },
    {
      "bufferView" : 4,
      "componentType" : 5126,
      "count" : 234,
      "type" : "VEC2"
    }
  ]
}
