{
  "asset" : {
    "generator" : "UE Viewer (umodel) build 1579 based",
    "version" : "2.0"
  },
  "scene" : 0,
  "scenes" : [
    {
      "nodes" : [ 0 ]
    }
  ],
  "nodes" : [
    {
      "name" : "Lawine_ppm_skin",
      "mesh" : 0,
      "skin" : 0,
      "children" : [ 1 ]
    },
    {
      "name" : "root",
      "children" : [ 2, 91, 94 ],
      "translation" : [ 0, 0, 0 ],
      "rotation" : [ 3.06162e-17, -0, -0, 1 ]
    },
    {
      "name" : "Bip001",
      "children" : [ 3 ],
      "translation" : [ 0, 1.00024, -0 ],
      "rotation" : [ -0, 0.707106, -0, -0.707107 ]
    },
    {
      "name" : "Bip001-Pelvis",
      "children" : [ 4, 81, 86 ],
      "translation" : [ 0, 0, -0 ],
      "rotation" : [ 0.5, 0.499999, -0.5, -0.500001 ]
    },
    {
      "name" : "Bip001-Spine",
      "children" : [ 5, 78 ],
      "translation" : [ 0.0671851, 4.78921e-08, -0.0126104 ],
      "rotation" : [ 2.09989e-06, -0.0297158, -7.13699e-07, -0.999558 ]
    },
    {
      "name" : "Bip001-Spine1",
      "children" : [ 6 ],
      "translation" : [ 0.094499, -2.24536e-10, 8.09574e-05 ],
      "rotation" : [ 6.1772e-14, 0.0320063, 8.87726e-08, -0.999488 ]
    },
    {
      "name" : "Bip001-Spine2",
      "children" : [ 7, 37, 49, 61, 67, 73 ],
      "translation" : [ 0.101862, -3.78059e-10, 0.000136306 ],
      "rotation" : [ -1.09966e-13, 0.0610825, 1.69419e-07, -0.998133 ]
    },
    {
      "name" : "Bip001-Neck",
      "children" : [ 8 ],
      "translation" : [ 0.186403, -4.05668e-08, 0.03818 ],
      "rotation" : [ -1.07861e-13, -0.135896, -3.76922e-07, -0.990723 ]
    },
    {
      "name" : "Bip001-Head",
      "children" : [ 9, 10, 15, 20, 25, 31 ],
      "translation" : [ 0.064035, 7.27596e-14, -1.90735e-08 ],
      "rotation" : [ 6.50712e-14, 0.0222144, 6.16119e-08, -0.999753 ]
    },
    {
      "name" : "Bip001-HeadNub",
      "translation" : [ 0.198044, -2.71051e-22, -0 ],
      "rotation" : [ -3.55271e-14, 1.38778e-17, -1.42109e-14, -1 ]
    },
    {
      "name" : "hair_r_01",
      "children" : [ 11 ],
      "translation" : [ 0.0962147, -0.0714858, -0.0190351 ],
      "rotation" : [ 0.0402009, -0.858945, -0.496458, 0.118854 ]
    },
    {
      "name" : "hair_r_02",
      "children" : [ 12 ],
      "translation" : [ 0.108584, 1.33514e-07, 1.42109e-16 ],
      "rotation" : [ -9.3936e-05, -0.0211104, -0.0081186, -0.999744 ]
    },
    {
      "name" : "hair_r_03",
      "children" : [ 13 ],
      "translation" : [ 0.0986253, -3.8147e-08, 2.67029e-07 ],
      "rotation" : [ -0.00414064, 0.0530569, -0.0342382, -0.997996 ]
    },
    {
      "name" : "hair_r_04",
      "children" : [ 14 ],
      "translation" : [ 0.106712, -2.67029e-07, 1.14441e-07 ],
      "rotation" : [ 0.00830964, 0.133636, -0.0174328, -0.990842 ]
    },
    {
      "name" : "hair_r_05",
      "translation" : [ 0.113447, -3.47137e-06, 4.76837e-07 ],
      "rotation" : [ -0.0306078, 0.0622816, 0.0502785, -0.996321 ]
    },
    {
      "name" : "hair_l_01",
      "children" : [ 16 ],
      "translation" : [ 0.0864166, 0.00169874, 0.00913137 ],
      "rotation" : [ 0.0933662, -0.0375484, 0.994918, 0.00332038 ]
    },
    {
      "name" : "hair_l_02",
      "children" : [ 17 ],
      "translation" : [ 0.115766, 2.38419e-09, -0 ],
      "rotation" : [ 0.000620128, 0.0136915, -0.00518664, -0.999893 ]
    },
    {
      "name" : "hair_l_03",
      "children" : [ 18 ],
      "translation" : [ 0.11987, -4.76837e-09, 1.90735e-07 ],
      "rotation" : [ -0.00127437, -0.0506563, -0.014678, -0.998607 ]
    },
    {
      "name" : "hair_l_04",
      "children" : [ 19 ],
      "translation" : [ 0.119329, -7.51019e-08, -0 ],
      "rotation" : [ 4.76752e-07, -0.000140823, -1.42965e-06, -1 ]
    },
    {
      "name" : "hair_l_05",
      "translation" : [ 0.140318, -4.74453e-07, 1.14441e-07 ],
      "rotation" : [ -7.68341e-09, 8.9407e-08, 1.21072e-08, -1 ]
    },
    {
      "name" : "ponytail_hair_m_01",
      "children" : [ 21 ],
      "translation" : [ 0.0962147, 0.0714903, -0.0190349 ],
      "rotation" : [ 0.118854, 0.496457, 0.858946, 0.0402007 ]
    },
    {
      "name" : "ponytail_hair_r_01",
      "children" : [ 22 ],
      "translation" : [ 0.108584, 4.95911e-07, -0 ],
      "rotation" : [ 9.38637e-05, 0.0211105, -0.00811829, -0.999744 ]
    },
    {
      "name" : "ponytail_hair_r_02",
      "children" : [ 23 ],
      "translation" : [ 0.0986249, -2.86102e-07, -3.05176e-07 ],
      "rotation" : [ 0.0041404, -0.053057, -0.0342384, -0.997996 ]
    },
    {
      "name" : "ponytail_hair_r_03",
      "children" : [ 24 ],
      "translation" : [ 0.106712, -1.33514e-07, -7.10543e-17 ],
      "rotation" : [ -0.00830952, -0.133636, -0.0174328, -0.990842 ]
    },
    {
      "name" : "ponytail_hair_r_04",
      "translation" : [ 0.113447, -3.70026e-06, -5.72205e-07 ],
      "rotation" : [ 0.0306075, -0.0622817, 0.0502784, -0.996321 ]
    },
    {
      "name" : "hair_ribbon_l_01",
      "children" : [ 26 ],
      "translation" : [ 0.0848807, 0.0654239, -0.0390534 ],
      "rotation" : [ 0.0402333, -0.811338, -0.574426, -0.100734 ]
    },
    {
      "name" : "hair_ribbon_l_02",
      "children" : [ 27 ],
      "translation" : [ 0.0466612, -2.95639e-07, 4.76837e-07 ],
      "rotation" : [ 0.00394022, -0.00564348, 0.182672, -0.98315 ]
    },
    {
      "name" : "hair_ribbon_l_03",
      "children" : [ 28 ],
      "translation" : [ 0.0483064, 1.52588e-07, -0 ],
      "rotation" : [ 0.0493051, 0.00514261, -0.12204, -0.991286 ]
    },
    {
      "name" : "hair_ribbon_l_04",
      "children" : [ 29 ],
      "translation" : [ 0.068215, 2.28882e-07, -1.04904e-07 ],
      "rotation" : [ 0.067532, 0.00670001, -0.0502364, -0.996429 ]
    },
    {
      "name" : "hair_ribbon_l_05",
      "children" : [ 30 ],
      "translation" : [ 0.0627821, 2.31583e-07, -4.82018e-09 ],
      "rotation" : [ 0.0427802, 0.0044907, -0.0441303, -0.998099 ]
    },
    {
      "name" : "hair_ribbon_l_06",
      "translation" : [ 0.0685699, -1.52588e-07, 1.04904e-07 ],
      "rotation" : [ 0.0397129, -0.0179615, -0.0628536, -0.997071 ]
    },
    {
      "name" : "hair_ribbon_r_01",
      "children" : [ 32 ],
      "translation" : [ 0.0842912, -0.0660925, -0.0332595 ],
      "rotation" : [ -0.118837, 0.572768, 0.809575, 0.0490204 ]
    },
    {
      "name" : "hair_ribbon_r_02",
      "children" : [ 33 ],
      "translation" : [ 0.0466612, 1.90735e-08, -6.10351e-07 ],
      "rotation" : [ -0.00355441, 0.0102694, 0.153113, -0.988149 ]
    },
    {
      "name" : "hair_ribbon_r_03",
      "children" : [ 34 ],
      "translation" : [ 0.0551511, -3.8147e-08, -1.90735e-08 ],
      "rotation" : [ -0.0468922, -0.00800618, 0.0145753, -0.998762 ]
    },
    {
      "name" : "hair_ribbon_r_04",
      "children" : [ 35 ],
      "translation" : [ 0.0484994, 7.62939e-08, 5.72205e-08 ],
      "rotation" : [ -0.0653282, -0.0160034, -0.0473914, -0.996609 ]
    },
    {
      "name" : "hair_ribbon_r_05",
      "children" : [ 36 ],
      "translation" : [ 0.0754444, 4.84288e-10, 1.99012e-08 ],
      "rotation" : [ -0.0443315, -0.000862595, -0.0624159, -0.997065 ]
    },
    {
      "name" : "hair_ribbon_r_06",
      "translation" : [ 0.0685698, -3.43323e-07, -8.10623e-08 ],
      "rotation" : [ -0.0397129, 0.0179619, -0.0628563, -0.99707 ]
    },
    {
      "name" : "Bip001-L-Clavicle",
      "children" : [ 38 ],
      "translation" : [ 0.148999, 0.0347453, 0.000213585 ],
      "rotation" : [ -0.642577, -0.766209, -0.00356912, 0.00247359 ]
    },
    {
      "name" : "Bip001-L-UpperArm",
      "children" : [ 39, 48 ],
      "translation" : [ 0.0941492, -2.84217e-16, -3.55271e-17 ],
      "rotation" : [ -0.0938419, 0.0271063, 0.0910745, -0.991042 ]
    },
    {
      "name" : "Bip001-L-Forearm",
      "children" : [ 40, 47 ],
      "translation" : [ 0.196093, 0, 8.88178e-18 ],
      "rotation" : [ -3.55924e-18, 0.0295914, -5.56408e-17, -0.999562 ]
    },
    {
      "name" : "Bip001-L-Hand",
      "children" : [ 41, 44 ],
      "translation" : [ 0.20196, -1.52588e-07, 4.76837e-09 ],
      "rotation" : [ -0.999628, 0.0068987, 0.0263919, 0.00011552 ]
    },
    {
      "name" : "Bip001-L-Finger0",
      "children" : [ 42 ],
      "translation" : [ 0.0767592, -0.0277859, 0.00635437 ],
      "rotation" : [ -0.661991, 0.276954, 0.252473, -0.649093 ]
    },
    {
      "name" : "Bip001-L-Finger01",
      "children" : [ 43 ],
      "translation" : [ 0.0249402, 9.53674e-09, 7.62939e-08 ],
      "rotation" : [ 7.66937e-08, 0.066015, -2.39287e-09, -0.997819 ]
    },
    {
      "name" : "Bip001-L-Finger0Nub",
      "translation" : [ 0.0209021, 4.76837e-09, -7.62939e-08 ],
      "rotation" : [ 3.72529e-09, -1.49012e-08, -9.31323e-10, -1 ]
    },
    {
      "name" : "Bip001-L-Finger1",
      "children" : [ 45 ],
      "translation" : [ 0.0863528, 1.52588e-06, 0.00195973 ],
      "rotation" : [ 0.000398131, 0.0156598, -6.17877e-06, -0.999877 ]
    },
    {
      "name" : "Bip001-L-Finger11",
      "children" : [ 46 ],
      "translation" : [ 0.0282047, 0, 4.76837e-09 ],
      "rotation" : [ 3.99976e-09, -0.0184623, 1.48298e-08, -0.99983 ]
    },
    {
      "name" : "Bip001-L-Finger1Nub",
      "translation" : [ 0.0365048, 1.52588e-07, -4.76837e-09 ],
      "rotation" : [ 3.72529e-09, 1.86265e-09, 1.49012e-08, -1 ]
    },
    {
      "name" : "Bip001-L-ForeTwist",
      "translation" : [ 1.52588e-07, 0, -4.76837e-09 ],
      "rotation" : [ 1.86264e-09, -9.31323e-10, 2.98023e-08, -1 ]
    },
    {
      "name" : "Bip001-LUpArmTwist",
      "translation" : [ -3.8147e-08, 3.05176e-07, -2.38419e-08 ],
      "rotation" : [ 4.74975e-07, -4.65548e-10, -2.38419e-07, -1 ]
    },
    {
      "name" : "Bip001-R-Clavicle",
      "children" : [ 50 ],
      "translation" : [ 0.148999, -0.0347453, 0.000213394 ],
      "rotation" : [ 0.642577, -0.766209, 0.00356699, 0.00247181 ]
    },
    {
      "name" : "Bip001-R-UpperArm",
      "children" : [ 51, 60 ],
      "translation" : [ 0.0941492, 1.52588e-07, -0 ],
      "rotation" : [ 0.0938419, 0.0271063, -0.0910745, -0.991042 ]
    },
    {
      "name" : "Bip001-R-Forearm",
      "children" : [ 52, 59 ],
      "translation" : [ 0.196093, -1.52588e-07, 8.88178e-18 ],
      "rotation" : [ 1.73396e-18, 0.0295914, 5.13329e-20, -0.999562 ]
    },
    {
      "name" : "Bip001-R-Hand",
      "children" : [ 53, 56 ],
      "translation" : [ 0.201959, 0, 9.53674e-09 ],
      "rotation" : [ -0.999628, -0.00689867, 0.0263919, -0.000115521 ]
    },
    {
      "name" : "Bip001-R-Finger0",
      "children" : [ 54 ],
      "translation" : [ 0.0767592, 0.0277859, 0.00635439 ],
      "rotation" : [ 0.661991, 0.276954, -0.252473, -0.649093 ]
    },
    {
      "name" : "Bip001-R-Finger01",
      "children" : [ 55 ],
      "translation" : [ 0.0249401, -4.76837e-09, -0 ],
      "rotation" : [ -7.86753e-08, 0.066015, 4.12849e-09, -0.997819 ]
    },
    {
      "name" : "Bip001-R-Finger0Nub",
      "translation" : [ 0.0209022, 4.76837e-09, -0 ],
      "rotation" : [ 2.79397e-09, -1, -1.86265e-09, 6.64365e-17 ]
    },
    {
      "name" : "Bip001-R-Finger1",
      "children" : [ 57 ],
      "translation" : [ 0.0863529, -1.52588e-06, 0.00195973 ],
      "rotation" : [ -0.000398127, 0.0156598, 6.16393e-06, -0.999877 ]
    },
    {
      "name" : "Bip001-R-Finger11",
      "children" : [ 58 ],
      "translation" : [ 0.0282047, 0, -0 ],
      "rotation" : [ -4.54998e-09, -0.0184622, -4.46271e-08, -0.99983 ]
    },
    {
      "name" : "Bip001-R-Finger1Nub",
      "translation" : [ 0.0365047, -1.52588e-07, 8.88178e-18 ],
      "rotation" : [ 1.49012e-08, -1, -3.1225e-17, 2.32831e-09 ]
    },
    {
      "name" : "Bip001-R-ForeTwist",
      "translation" : [ 2.63214e-06, -7.62939e-07, -1.28746e-06 ],
      "rotation" : [ -1, -1.49005e-08, 1.37999e-06, 4.75906e-07 ]
    },
    {
      "name" : "Bip001-RUpArmTwist",
      "translation" : [ -2.02179e-06, 4.57764e-07, -1.66893e-07 ],
      "rotation" : [ -1, -4.47023e-08, 1.2652e-06, 9.57399e-07 ]
    },
    {
      "name" : "cloth_r_01",
      "children" : [ 62 ],
      "translation" : [ 0.154462, -0.111277, 0.0276857 ],
      "rotation" : [ 0.0638645, 0.62141, 0.762188, -0.169824 ]
    },
    {
      "name" : "cloth_r_02",
      "children" : [ 63 ],
      "translation" : [ 0.229333, 3.8147e-08, -2.28882e-07 ],
      "rotation" : [ -2.35624e-07, 0.00288319, -6.79351e-10, -0.999996 ]
    },
    {
      "name" : "cloth_r_03",
      "children" : [ 64 ],
      "translation" : [ 0.213489, 7.10543e-17, -3.55271e-17 ],
      "rotation" : [ 3.35273e-08, 0.00423445, 1.41971e-10, -0.999991 ]
    },
    {
      "name" : "cloth_r_04",
      "children" : [ 65 ],
      "translation" : [ 0.213436, 0, 1.90735e-08 ],
      "rotation" : [ 1.78813e-07, -0.0038633, -6.90811e-10, -0.999993 ]
    },
    {
      "name" : "cloth_r_05",
      "children" : [ 66 ],
      "translation" : [ 0.186659, -7.62939e-08, -2.17438e-06 ],
      "rotation" : [ 9.42969e-07, -0.0158068, 2.23504e-08, -0.999875 ]
    },
    {
      "name" : "cloth_r_06",
      "translation" : [ 0.192316, 3.8147e-08, 3.8147e-08 ],
      "rotation" : [ 2.45869e-07, 1.49011e-08, 6.70552e-08, -1 ]
    },
    {
      "name" : "cloth_l_01",
      "children" : [ 68 ],
      "translation" : [ 0.0904627, -0.0825354, -0.0166941 ],
      "rotation" : [ 0.0170062, -0.477436, 0.876161, -0.0640928 ]
    },
    {
      "name" : "cloth_l_02",
      "children" : [ 69 ],
      "translation" : [ 0.181104, 3.8147e-08, 1.90735e-08 ],
      "rotation" : [ 0.0556069, -0.037994, -0.000183139, -0.99773 ]
    },
    {
      "name" : "cloth_l_03",
      "children" : [ 70 ],
      "translation" : [ 0.197247, 7.10543e-17, -1.66893e-08 ],
      "rotation" : [ -0.0549237, -0.00983884, -0.000939266, -0.998442 ]
    },
    {
      "name" : "cloth_l_04",
      "children" : [ 71 ],
      "translation" : [ 0.201892, 3.8147e-08, -5.72205e-08 ],
      "rotation" : [ -4.50871e-05, 0.00341739, 0.00712974, -0.999969 ]
    },
    {
      "name" : "cloth_l_05",
      "children" : [ 72 ],
      "translation" : [ 0.19792, -3.8147e-08, 2.57492e-07 ],
      "rotation" : [ 0.000378779, -0.00301018, 0.00499443, -0.999983 ]
    },
    {
      "name" : "cloth_l_06",
      "translation" : [ 0.236487, 7.62939e-08, -5.00679e-08 ],
      "rotation" : [ 1.90921e-07, 3.72528e-09, 5.21541e-08, -1 ]
    },
    {
      "name" : "cloak_m_l_01",
      "children" : [ 74 ],
      "translation" : [ 0.141516, -0.152445, -0.0142092 ],
      "rotation" : [ 0.00367825, -0.280028, 0.950005, -0.138059 ]
    },
    {
      "name" : "cloak_m_l_02",
      "children" : [ 75 ],
      "translation" : [ 0.192821, 7.10543e-17, 2.6226e-08 ],
      "rotation" : [ 0.0635021, -0.00393928, 0.0685676, -0.995616 ]
    },
    {
      "name" : "cloak_m_l_03",
      "children" : [ 76 ],
      "translation" : [ 0.208894, 3.8147e-08, -5.72205e-08 ],
      "rotation" : [ -0.0557152, 0.0119331, 0.00066643, -0.998375 ]
    },
    {
      "name" : "cloak_m_l_04",
      "children" : [ 77 ],
      "translation" : [ 0.178573, -3.8147e-08, -4.29153e-08 ],
      "rotation" : [ -1.41249e-07, -0.00704202, -5.10293e-05, -0.999975 ]
    },
    {
      "name" : "cloak_m_l_05",
      "translation" : [ 0.196713, -7.62939e-08, 4.76837e-08 ],
      "rotation" : [ 2.41736e-07, -9.0804e-08, -7.4506e-09, -1 ]
    },
    {
      "name" : "ribbon_b",
      "children" : [ 79 ],
      "translation" : [ 0.0382658, 0.126084, 0.0315101 ],
      "rotation" : [ -0.136726, -0.957108, -0.253025, 0.0350518 ]
    },
    {
      "name" : "ribbon_l_01",
      "children" : [ 80 ],
      "translation" : [ 0.119732, -0.00152332, 0.0437608 ],
      "rotation" : [ -0.251539, -0.0683933, 0.0478253, -0.964242 ]
    },
    {
      "name" : "ribbon_l_02",
      "translation" : [ 0.205003, -1.90735e-08, 7.6294e-08 ],
      "rotation" : [ 1.86265e-09, 8.9407e-08, 1.52656e-16, -1 ]
    },
    {
      "name" : "Bip001-L-Thigh",
      "children" : [ 82 ],
      "translation" : [ -7.62939e-08, 0.0641221, -1.32646e-07 ],
      "rotation" : [ -0.00481113, 0.0019595, 0.999986, -0.00124473 ]
    },
    {
      "name" : "Bip001-L-Calf",
      "children" : [ 83 ],
      "translation" : [ 0.393703, 0, -0 ],
      "rotation" : [ 4.17125e-19, 0.0511013, -1.95781e-19, -0.998693 ]
    },
    {
      "name" : "Bip001-L-Foot",
      "children" : [ 84 ],
      "translation" : [ 0.46569, 4.76837e-09, 9.53674e-09 ],
      "rotation" : [ 0.00201982, -0.0462957, 0.00114231, -0.998925 ]
    },
    {
      "name" : "Bip001-L-Toe0",
      "children" : [ 85 ],
      "translation" : [ 0.141861, 0, -0.0214373 ],
      "rotation" : [ 1.54543e-08, -0.707107, -1.54543e-08, -0.707107 ]
    },
    {
      "name" : "Bip001-L-Toe0Nub",
      "translation" : [ 0.0359878, 0, -0 ],
      "rotation" : [ -9.55342e-16, -1, -1.75553e-30, -1.83759e-15 ]
    },
    {
      "name" : "Bip001-R-Thigh",
      "children" : [ 87 ],
      "translation" : [ 7.62939e-08, -0.0641221, 4.52028e-08 ],
      "rotation" : [ -0.00481113, -0.00195812, 0.999986, 0.00124325 ]
    },
    {
      "name" : "Bip001-R-Calf",
      "children" : [ 88 ],
      "translation" : [ 0.393703, -4.76837e-09, -0 ],
      "rotation" : [ 4.30584e-20, 0.0511013, 2.19327e-19, -0.998693 ]
    },
    {
      "name" : "Bip001-R-Foot",
      "children" : [ 89 ],
      "translation" : [ 0.46569, 8.88178e-18, 4.76837e-09 ],
      "rotation" : [ -0.00201981, -0.0462957, -0.00114222, -0.998925 ]
    },
    {
      "name" : "Bip001-R-Toe0",
      "children" : [ 90 ],
      "translation" : [ 0.141861, -8.88178e-18, -0.0214373 ],
      "rotation" : [ -1.54543e-08, -0.707107, 1.54543e-08, -0.707107 ]
    },
    {
      "name" : "Bip001-R-Toe0Nub",
      "translation" : [ 0.0359878, 0, -1.38778e-19 ],
      "rotation" : [ 1.69703e-30, 1.77636e-15, -9.55344e-16, -1 ]
    },
    {
      "name" : "ik_foot_root",
      "children" : [ 92, 93 ],
      "translation" : [ 0, 0, -0 ],
      "rotation" : [ -0, -0, 0, -1 ]
    },
    {
      "name" : "ik_foot_l",
      "translation" : [ 0.0621594, 0.142863, -0.0392885 ],
      "rotation" : [ -0.707107, 0.707107, 4.22872e-07, -4.22872e-07 ]
    },
    {
      "name" : "ik_foot_r",
      "translation" : [ -0.0621597, 0.142863, -0.0392883 ],
      "rotation" : [ -0.707107, 0.707107, 7.90955e-07, -7.90955e-07 ]
    },
    {
      "name" : "ik_hand_root",
      "children" : [ 95 ],
      "translation" : [ 0, 0, -0 ],
      "rotation" : [ -0, -0, 0, -1 ]
    },
    {
      "name" : "ik_hand_gun",
      "children" : [ 96, 97, 98 ],
      "translation" : [ -0.498147, 1.25644, 0.0408321 ],
      "rotation" : [ 0.182265, -0.981815, -0.0277496, 0.0452553 ]
    },
    {
      "name" : "ik_hand_r",
      "translation" : [ -7.10543e-17, 0, 4.76837e-09 ],
      "rotation" : [ 2.21655e-07, -2.51457e-08, 1.49012e-08, -1 ]
    },
    {
      "name" : "ik_hand_l",
      "translation" : [ -0.926019, -0.354072, -0.098612 ],
      "rotation" : [ -0.098979, 7.87551e-08, 0.929463, -0.355389 ]
    },
    {
      "name" : "SocketADS",
      "translation" : [ -7.10543e-17, 0, 3.05176e-07 ],
      "rotation" : [ 3.72529e-09, 9.73232e-08, 1.49012e-08, -1 ]
    }
  ],
  "skins" : [
    {
      "inverseBindMatrices" : 0,
      "skeleton" : 1,
      "joints" : [
        1,2,3,4,5,6,7,8,9,10,11,12,13,14,15,16,17,18,19,20,21,22,23,24,25,26,27,28,29,30,31,32,
        33,34,35,36,37,38,39,40,41,42,43,44,45,46,47,48,49,50,51,52,53,54,55,56,57,58,59,60,61,62,63,64,
        65,66,67,68,69,70,71,72,73,74,75,76,77,78,79,80,81,82,83,84,85,86,87,88,89,90,91,92,93,94,95,96,
        97,98
      ]
    }
  ],
  "materials" : [
    {
      "name" : "MI_Lawine_PPM_001",
      "pbrMetallicRoughness" : {
        "baseColorFactor" : [ 0.3, 0.3, 0.3, 1.0 ],
        "metallicFactor" : 0.1,
        "roughnessFactor" : 0.5
      }
    }
  ],
  "meshes" : [
    {
      "primitives" : [
        {
          "attributes" : {
            "POSITION" : 2,
            "NORMAL" : 3,
            "TANGENT" : 4,
            "JOINTS_0" : 5,
            "WEIGHTS_0" : 6,
            "TEXCOORD_0" : 7
          },
          "indices" : 1,
          "material" : 0
        }
      ],
      "name" : "Lawine_ppm_skin"
    }
  ],
  "buffers" : [
    {
      "uri" : "Lawine_ppm_skin.bin",
      "byteLength" : 141644
    }
  ],
  "bufferViews" : [
    {
      "buffer" : 0,
      "byteOffset" : 0,
      "byteLength" : 6272
    },
    {
      "buffer" : 0,
      "byteOffset" : 6272,
      "byteLength" : 12432
    },
    {
      "buffer" : 0,
      "byteOffset" : 18704,
      "byteLength" : 24588
    },
    {
      "buffer" : 0,
      "byteOffset" : 43292,
      "byteLength" : 24588
    },
    {
      "buffer" : 0,
      "byteOffset" : 67880,
      "byteLength" : 32784
    },
    {
      "buffer" : 0,
      "byteOffset" : 100664,
      "byteLength" : 16392
    },
    {
      "buffer" : 0,
      "byteOffset" : 117056,
      "byteLength" : 8196
    },
    {
      "buffer" : 0,
      "byteOffset" : 125252,
      "byteLength" : 16392
    }
  ],
  "accessors" : [
    {
      "bufferView" : 0,
      "componentType" : 5126,
      "count" : 98,
      "type" : "MAT4"
    },
    {
      "bufferView" : 1,
      "componentType" : 5123,
      "count" : 6216,
      "type" : "SCALAR"
    },
    {
      "bufferView" : 2,
      "min" : [ -0.643089, 0.000178728, -0.230691 ],
      "max" : [ 0.643089, 1.70937, 0.191994 ],
      "componentType" : 5126,
      "count" : 2049,
      "type" : "VEC3"
    },
    {
      "bufferView" : 3,
      "componentType" : 5126,
      "count" : 2049,
      "type" : "VEC3"
    },
    {
      "bufferView" : 4,
      "componentType" : 5126,
      "count" : 2049,
      "type" : "VEC4"
    },
    {
      "bufferView" : 5,
      "componentType" : 5123,
      "count" : 2049,
      "type" : "VEC4"
    },
    {
      "bufferView" : 6,
      "normalized" : true,
      "componentType" : 5121,
      "count" : 2049,
      "type" : "VEC4"
    },
    {
      "bufferView" : 7,
      "componentType" : 5126,
      "count" : 2049,
      "type" : "VEC2"
    }
  ]
}
