{
  "asset" : {
    "generator" : "UE Viewer (umodel) build 1579 based",
    "version" : "2.0"
  },
  "scene" : 0,
  "scenes" : [
    {
      "nodes" : [ 0 ]
    }
  ],
  "nodes" : [
    {
      "name" : "Maddelena_PPM_101",
      "mesh" : 0,
      "skin" : 0,
      "children" : [ 1 ]
    },
    {
      "name" : "root",
      "children" : [ 2, 5, 10 ],
      "translation" : [ 0, 0, 0 ],
      "rotation" : [ 3.06162e-17, -0, -0, 1 ]
    },
    {
      "name" : "ik_foot_root",
      "children" : [ 3, 4 ],
      "translation" : [ 0, 0, -0 ],
      "rotation" : [ -0, -0, 0, -1 ]
    },
    {
      "name" : "ik_foot_l",
      "translation" : [ 0.0588691, 0.108729, -0.0295798 ],
      "rotation" : [ -0.707107, 0.707107, 4.22872e-07, -4.22872e-07 ]
    },
    {
      "name" : "ik_foot_r",
      "translation" : [ -0.0588694, 0.108729, -0.0295796 ],
      "rotation" : [ -0.707107, 0.707107, 6.22367e-07, -6.22368e-07 ]
    },
    {
      "name" : "ik_hand_root",
      "children" : [ 6 ],
      "translation" : [ 0, 0, -0 ],
      "rotation" : [ -0, -0, 0, -1 ]
    },
    {
      "name" : "ik_hand_gun",
      "children" : [ 7, 8, 9 ],
      "translation" : [ -0.470624, 1.18472, -0.00353163 ],
      "rotation" : [ 0.19843, -0.978896, -0.0426841, 0.0238139 ]
    },
    {
      "name" : "ik_hand_r",
      "translation" : [ -7.10543e-17, 2.28882e-07, 3.8147e-08 ],
      "rotation" : [ -3.72528e-09, 8.47503e-08, -8.94069e-08, -1 ]
    },
    {
      "name" : "ik_hand_l",
      "translation" : [ -0.866059, -0.363747, -0.0598253 ],
      "rotation" : [ -0.0635543, 2.71672e-06, 0.920117, -0.386451 ]
    },
    {
      "name" : "SocketADS",
      "translation" : [ -3.8147e-08, 1.42109e-16, -0 ],
      "rotation" : [ 1.49012e-07, 8.3819e-08, 5.96047e-08, -1 ]
    },
    {
      "name" : "Bip001",
      "children" : [ 11 ],
      "translation" : [ 0, 0.979564, 3.65453e-09 ],
      "rotation" : [ -4.156e-39, 0.707106, -4.156e-39, -0.707107 ]
    },
    {
      "name" : "Bip001-Pelvis",
      "children" : [ 12, 38, 42 ],
      "translation" : [ -5.9981e-17, 0, -8.22283e-23 ],
      "rotation" : [ 0.5, 0.499999, -0.5, -0.500001 ]
    },
    {
      "name" : "Bip001-Spine",
      "children" : [ 13 ],
      "translation" : [ 0.0684767, -9.48473e-08, 8.38329e-05 ],
      "rotation" : [ 2.07992e-06, -0.000398159, 6.93124e-07, -1 ]
    },
    {
      "name" : "Bip001-Spine1",
      "children" : [ 14 ],
      "translation" : [ 0.105339, -2.62213e-10, 9.45387e-05 ],
      "rotation" : [ 1.48348e-22, -0, -0, -1 ]
    },
    {
      "name" : "Bip001-Spine2",
      "children" : [ 15, 17, 18, 28 ],
      "translation" : [ 0.118726, -2.4236e-10, 8.73809e-05 ],
      "rotation" : [ 1.48348e-22, -0, -0, -1 ]
    },
    {
      "name" : "Bip001-Neck",
      "children" : [ 16 ],
      "translation" : [ 0.109737, -1.30376e-10, 4.70061e-05 ],
      "rotation" : [ 1.48348e-22, -0, -0, -1 ]
    },
    {
      "name" : "Bip001-Head",
      "translation" : [ 0.0590326, 2.72727e-17, -9.66551e-12 ],
      "rotation" : [ 2.67457e-10, 0.000398159, -6.7044e-07, -1 ]
    },
    {
      "name" : "part_b_01",
      "translation" : [ -0.0427803, -1.11555e-07, 0.032159 ],
      "rotation" : [ -0.706881, -0.70688, -0.0178752, -0.0178752 ]
    },
    {
      "name" : "Bip001-L-Clavicle",
      "children" : [ 19 ],
      "translation" : [ 0.0815726, 0.0353005, -2.23444e-05 ],
      "rotation" : [ -0.623897, -0.781506, -0.000249498, -0.000310295 ]
    },
    {
      "name" : "Bip001-L-UpperArm",
      "children" : [ 20, 27 ],
      "translation" : [ 0.0741563, -3.6653e-08, -9.92127e-15 ],
      "rotation" : [ -0.0485886, -0.0258395, 0.0860111, -0.994773 ]
    },
    {
      "name" : "Bip001-L-Forearm",
      "children" : [ 21, 26 ],
      "translation" : [ 0.17028, -7.31064e-09, 7.40294e-10 ],
      "rotation" : [ 3.62048e-09, 0.0449156, 1.75611e-09, -0.998991 ]
    },
    {
      "name" : "Bip001-L-Hand",
      "children" : [ 22, 24 ],
      "translation" : [ 0.223882, -8.20177e-09, 6.58952e-10 ],
      "rotation" : [ -1, -2.77556e-17, 1.10505e-20, 0.000398138 ]
    },
    {
      "name" : "Bip001-L-Finger0",
      "children" : [ 23 ],
      "translation" : [ 0.0743883, -0.0293434, 0.00218738 ],
      "rotation" : [ -0.629694, 0.198484, 0.148593, -0.736213 ]
    },
    {
      "name" : "Bip001-L-Finger01",
      "translation" : [ 0.0245969, 2.6596e-09, -3.90062e-08 ],
      "rotation" : [ -7.76303e-11, 0.00655247, -1.02327e-09, -0.999979 ]
    },
    {
      "name" : "Bip001-L-Finger1",
      "children" : [ 25 ],
      "translation" : [ 0.0983877, 3.91548e-08, -3.65319e-09 ],
      "rotation" : [ 0.0482142, -0.00220757, 0.0464511, -0.997754 ]
    },
    {
      "name" : "Bip001-L-Finger11",
      "translation" : [ 0.0364283, 3.31188e-08, 4.03377e-10 ],
      "rotation" : [ -2.59807e-10, 0.0153021, -3.30568e-09, -0.999883 ]
    },
    {
      "name" : "Bip001-L-ForeTwist",
      "translation" : [ -8.14828e-08, -2.01089e-07, -1.69498e-09 ],
      "rotation" : [ 4.69372e-10, -3.22083e-10, 3.17458e-08, -1 ]
    },
    {
      "name" : "Bip001-LUpArmTwist",
      "translation" : [ 3.36939e-08, -1.53755e-07, -1.28656e-08 ],
      "rotation" : [ -1.15929e-09, 5.15258e-10, 9.90781e-08, -1 ]
    },
    {
      "name" : "Bip001-R-Clavicle",
      "children" : [ 29 ],
      "translation" : [ 0.0815726, -0.0353005, -2.25402e-05 ],
      "rotation" : [ 0.623897, -0.781506, 0.00024733, -0.000312026 ]
    },
    {
      "name" : "Bip001-R-UpperArm",
      "children" : [ 30, 37 ],
      "translation" : [ 0.0741563, 3.6653e-08, -7.62413e-16 ],
      "rotation" : [ 0.0485886, -0.0258395, -0.0860111, -0.994773 ]
    },
    {
      "name" : "Bip001-R-Forearm",
      "children" : [ 31, 36 ],
      "translation" : [ 0.17028, 7.59692e-09, 2.73597e-09 ],
      "rotation" : [ -7.04028e-09, 0.0449156, -3.44104e-10, -0.998991 ]
    },
    {
      "name" : "Bip001-R-Hand",
      "children" : [ 32, 34 ],
      "translation" : [ 0.223882, 5.38482e-09, -1.18642e-09 ],
      "rotation" : [ -1, 2.77563e-17, -1.72367e-18, -0.000398138 ]
    },
    {
      "name" : "Bip001-R-Finger0",
      "children" : [ 33 ],
      "translation" : [ 0.0743883, 0.0293434, 0.00218738 ],
      "rotation" : [ 0.629694, 0.198484, -0.148593, -0.736213 ]
    },
    {
      "name" : "Bip001-R-Finger01",
      "translation" : [ 0.0245969, -2.87502e-09, -3.88527e-08 ],
      "rotation" : [ 1.07242e-10, 0.00655247, 1.07909e-09, -0.999979 ]
    },
    {
      "name" : "Bip001-R-Finger1",
      "children" : [ 35 ],
      "translation" : [ 0.0983877, -3.46112e-08, -3.02475e-09 ],
      "rotation" : [ -0.0482142, -0.00220757, -0.0464511, -0.997754 ]
    },
    {
      "name" : "Bip001-R-Finger11",
      "translation" : [ 0.0364283, -3.11386e-08, 6.13065e-10 ],
      "rotation" : [ -1.33194e-09, 0.0153021, 7.02114e-09, -0.999883 ]
    },
    {
      "name" : "Bip001-R-ForeTwist",
      "translation" : [ 1.0537e-07, -4.44515e-08, -4.86477e-09 ],
      "rotation" : [ 2.92138e-10, 8.58256e-06, 3.20167e-07, -1 ]
    },
    {
      "name" : "Bip001-RUpArmTwist",
      "translation" : [ 2.22715e-10, 3.43672e-10, -3.70388e-09 ],
      "rotation" : [ -2.43523e-07, -2.38074e-07, -3.16777e-07, -1 ]
    },
    {
      "name" : "Bip001-L-Thigh",
      "children" : [ 39 ],
      "translation" : [ 8.68744e-08, 0.0626438, -1.29692e-07 ],
      "rotation" : [ -0.0124676, -0.000114823, 0.99992, -0.00216222 ]
    },
    {
      "name" : "Bip001-L-Calf",
      "children" : [ 40 ],
      "translation" : [ 0.393551, -3.04808e-10, -4.11303e-10 ],
      "rotation" : [ 5.93064e-09, 0.0536051, -1.65953e-10, -0.998562 ]
    },
    {
      "name" : "Bip001-L-Foot",
      "children" : [ 41 ],
      "translation" : [ 0.479038, -1.49669e-09, 2.02568e-09 ],
      "rotation" : [ 5.79092e-07, -0.0411512, 0.00216601, -0.999151 ]
    },
    {
      "name" : "Bip001-L-Toe0",
      "translation" : [ 0.106723, 6.50337e-09, -0.0082975 ],
      "rotation" : [ 3.11549e-08, -0.707107, -3.06623e-08, -0.707107 ]
    },
    {
      "name" : "Bip001-R-Thigh",
      "children" : [ 43 ],
      "translation" : [ -8.68744e-08, -0.0626438, 4.40563e-08 ],
      "rotation" : [ -0.0124676, 0.000116219, 0.99992, 0.00216351 ]
    },
    {
      "name" : "Bip001-R-Calf",
      "children" : [ 44 ],
      "translation" : [ 0.393551, 1.43663e-09, 5.44642e-11 ],
      "rotation" : [ -1.4729e-08, 0.0536051, 4.33365e-10, -0.998562 ]
    },
    {
      "name" : "Bip001-R-Foot",
      "children" : [ 45 ],
      "translation" : [ 0.479038, 8.37704e-10, -3.36251e-10 ],
      "rotation" : [ -5.72143e-07, -0.0411512, -0.00216588, -0.999151 ]
    },
    {
      "name" : "Bip001-R-Toe0",
      "translation" : [ 0.106723, 6.50337e-09, -0.0082975 ],
      "rotation" : [ 2.46294e-10, -0.707107, 2.46341e-10, -0.707107 ]
    }
  ],
  "skins" : [
    {
      "inverseBindMatrices" : 0,
      "skeleton" : 1,
      "joints" : [
        1,2,3,4,5,6,7,8,9,10,11,12,13,14,15,16,17,18,19,20,21,22,23,24,25,26,27,28,29,30,31,32,
        33,34,35,36,37,38,39,40,41,42,43,44,45
      ]
    }
  ],
  "materials" : [
    {
      "name" : "MI_Maddelena_PPM_101",
      "pbrMetallicRoughness" : {
        "baseColorFactor" : [ 0.3, 0.3, 0.3, 1.0 ],
        "metallicFactor" : 0.1,
        "roughnessFactor" : 0.5
      }
    }
  ],
  "meshes" : [
    {
      "primitives" : [
        {
          "attributes" : {
            "POSITION" : 2,
            "NORMAL" : 3,
            "TANGENT" : 4,
            "JOINTS_0" : 5,
            "WEIGHTS_0" : 6,
            "TEXCOORD_0" : 7
          },
          "indices" : 1,
          "material" : 0
        }
      ],
      "name" : "Maddelena_PPM_101"
    }
  ],
  "buffers" : [
    {
      "uri" : "Maddelena_PPM_101.bin",
      "byteLength" : 96416
    }
  ],
  "bufferViews" : [
    {
      "buffer" : 0,
      "byteOffset" : 0,
      "byteLength" : 2880
    },
    {
      "buffer" : 0,
      "byteOffset" : 2880,
      "byteLength" : 10136
    },
    {
      "buffer" : 0,
      "byteOffset" : 13016,
      "byteLength" : 16680
    },
    {
      "buffer" : 0,
      "byteOffset" : 29696,
      "byteLength" : 16680
    },
    {
      "buffer" : 0,
      "byteOffset" : 46376,
      "byteLength" : 22240
    },
    {
      "buffer" : 0,
      "byteOffset" : 68616,
      "byteLength" : 11120
    },
    {
      "buffer" : 0,
      "byteOffset" : 79736,
      "byteLength" : 5560
    },
    {
      "buffer" : 0,
      "byteOffset" : 85296,
      "byteLength" : 11120
    }
  ],
  "accessors" : [
    {
      "bufferView" : 0,
      "componentType" : 5126,
      "count" : 45,
      "type" : "MAT4"
    },
    {
      "bufferView" : 1,
      "componentType" : 5123,
      "count" : 5067,
      "type" : "SCALAR"
    },
    {
      "bufferView" : 2,
      "min" : [ -0.637323, 0.001242, -0.0443026 ],
      "max" : [ 0.637323, 1.6473, 0.0423799 ],
      "componentType" : 5126,
      "count" : 1390,
      "type" : "VEC3"
    },
    {
      "bufferView" : 3,
      "componentType" : 5126,
      "count" : 1390,
      "type" : "VEC3"
    },
    {
      "bufferView" : 4,
      "componentType" : 5126,
      "count" : 1390,
      "type" : "VEC4"
    },
    {
      "bufferView" : 5,
      "componentType" : 5123,
      "count" : 1390,
      "type" : "VEC4"
    },
    {
      "bufferView" : 6,
      "normalized" : true,
      "componentType" : 5121,
      "count" : 1390,
      "type" : "VEC4"
    },
    {
      "bufferView" : 7,
      "componentType" : 5126,
      "count" : 1390,
      "type" : "VEC2"
    }
  ]
}
