{
  "asset" : {
    "generator" : "UE Viewer (umodel) build 1579 based",
    "version" : "2.0"
  },
  "scene" : 0,
  "scenes" : [
    {
      "nodes" : [ 0 ]
    }
  ],
  "nodes" : [
    {
      "name" : "S_Envi_Train_Building_Merge_15a",
      "mesh" : 0
    }
  ],
  "materials" : [
    {
      "name" : "MI_Envi_Train_Ground_02a",
      "pbrMetallicRoughness" : {
        "baseColorFactor" : [ 0.3, 0.3, 0.3, 1.0 ],
        "metallicFactor" : 0.1,
        "roughnessFactor" : 0.5
      }
    },
    {
      "name" : "MI_Envi_Train_Ground_01a",
      "pbrMetallicRoughness" : {
        "baseColorFactor" : [ 0.9, 0.3, 0.3, 1.0 ],
        "metallicFactor" : 0.1,
        "roughnessFactor" : 0.5
      }
    }
  ],
  "meshes" : [
    {
      "primitives" : [
        {
          "attributes" : {
            "POSITION" : 1,
            "NORMAL" : 2,
            "TANGENT" : 3,
            "TEXCOORD_0" : 4,
            "TEXCOORD_1" : 5,
            "TEXCOORD_2" : 6
          },
          "indices" : 0,
          "material" : 0
        },
        {
          "attributes" : {
            "POSITION" : 8,
            "NORMAL" : 9,
            "TANGENT" : 10,
            "TEXCOORD_0" : 11,
            "TEXCOORD_1" : 12,
            "TEXCOORD_2" : 13
          },
          "indices" : 7,
          "material" : 1
        }
      ],
      "name" : "S_Envi_Train_Building_Merge_15a"
    }
  ],
  "buffers" : [
    {
      "uri" : "S_Envi_Train_Building_Merge_15a.bin",
      "byteLength" : 300592
    }
  ],
  "bufferViews" : [
    {
      "buffer" : 0,
      "byteOffset" : 0,
      "byteLength" : 11108
    },
    {
      "buffer" : 0,
      "byteOffset" : 11108,
      "byteLength" : 31800
    },
    {
      "buffer" : 0,
      "byteOffset" : 42908,
      "byteLength" : 31800
    },
    {
      "buffer" : 0,
      "byteOffset" : 74708,
      "byteLength" : 42400
    },
    {
      "buffer" : 0,
      "byteOffset" : 117108,
      "byteLength" : 21200
    },
    {
      "buffer" : 0,
      "byteOffset" : 138308,
      "byteLength" : 21200
    },
    {
      "buffer" : 0,
      "byteOffset" : 159508,
      "byteLength" : 21200
    },
    {
      "buffer" : 0,
      "byteOffset" : 180708,
      "byteLength" : 6156
    },
    {
      "buffer" : 0,
      "byteOffset" : 186864,
      "byteLength" : 21324
    },
    {
      "buffer" : 0,
      "byteOffset" : 208188,
      "byteLength" : 21324
    },
    {
      "buffer" : 0,
      "byteOffset" : 229512,
      "byteLength" : 28432
    },
    {
      "buffer" : 0,
      "byteOffset" : 257944,
      "byteLength" : 14216
    },
    {
      "buffer" : 0,
      "byteOffset" : 272160,
      "byteLength" : 14216
    },
    {
      "buffer" : 0,
      "byteOffset" : 286376,
      "byteLength" : 14216
    }
  ],
  "accessors" : [
    {
      "bufferView" : 0,
      "componentType" : 5123,
      "count" : 5553,
      "type" : "SCALAR"
    },
    {
      "bufferView" : 1,
      "min" : [ 49.3108, 17.5809, -23.693 ],
      "max" : [ 56.6563, 28.2444, 3.55749 ],
      "componentType" : 5126,
      "count" : 2650,
      "type" : "VEC3"
    },
    {
      "bufferView" : 2,
      "componentType" : 5126,
      "count" : 2650,
      "type" : "VEC3"
    },
    {
      "bufferView" : 3,
      "componentType" : 5126,
      "count" : 2650,
      "type" : "VEC4"
    },
    {
      "bufferView" : 4,
      "componentType" : 5126,
      "count" : 2650,
      "type" : "VEC2"
    },
    {
      "bufferView" : 5,
      "componentType" : 5126,
      "count" : 2650,
      "type" : "VEC2"
    },
    {
      "bufferView" : 6,
      "componentType" : 5126,
      "count" : 2650,
      "type" : "VEC2"
    },
    {
      "bufferView" : 7,
      "componentType" : 5123,
      "count" : 3078,
      "type" : "SCALAR"
    },
    {
      "bufferView" : 8,
      "min" : [ 49.3108, 17.1569, -23.693 ],
      "max" : [ 56.6563, 28.2444, 3.55749 ],
      "componentType" : 5126,
      "count" : 1777,
      "type" : "VEC3"
    },
    {
      "bufferView" : 9,
      "componentType" : 5126,
      "count" : 1777,
      "type" : "VEC3"
    },
    {
      "bufferView" : 10,
      "componentType" : 5126,
      "count" : 1777,
      "type" : "VEC4"
    },
    {
      "bufferView" : 11,
      "componentType" : 5126,
      "count" : 1777,
      "type" : "VEC2"
    },
    {
      "bufferView" : 12,
      "componentType" : 5126,
      "count" : 1777,
      "type" : "VEC2"
    },
    {
      "bufferView" : 13,
      "componentType" : 5126,
      "count" : 1777,
      "type" : "VEC2"
    }
  ]
}
