{
  "asset" : {
    "generator" : "UE Viewer (umodel) build 1579 based",
    "version" : "2.0"
  },
  "scene" : 0,
  "scenes" : [
    {
      "nodes" : [ 0 ]
    }
  ],
  "nodes" : [
    {
      "name" : "S_Envi_Train_Box_01c",
      "mesh" : 0
    }
  ],
  "materials" : [
    {
      "name" : "MI_Envi_Train_Box_01a",
      "pbrMetallicRoughness" : {
        "baseColorFactor" : [ 0.3, 0.3, 0.3, 1.0 ],
        "metallicFactor" : 0.1,
        "roughnessFactor" : 0.5
      }
    }
  ],
  "meshes" : [
    {
      "primitives" : [
        {
          "attributes" : {
            "POSITION" : 1,
            "NORMAL" : 2,
            "TANGENT" : 3,
            "TEXCOORD_0" : 4,
            "TEXCOORD_1" : 5,
            "TEXCOORD_2" : 6,
            "TEXCOORD_3" : 7
          },
          "indices" : 0,
          "material" : 0
        }
      ],
      "name" : "S_Envi_Train_Box_01c"
    }
  ],
  "buffers" : [
    {
      "uri" : "S_Envi_Train_Box_01c.bin",
      "byteLength" : 60480
    }
  ],
  "bufferViews" : [
    {
      "buffer" : 0,
      "byteOffset" : 0,
      "byteLength" : 3456
    },
    {
      "buffer" : 0,
      "byteOffset" : 3456,
      "byteLength" : 9504
    },
    {
      "buffer" : 0,
      "byteOffset" : 12960,
      "byteLength" : 9504
    },
    {
      "buffer" : 0,
      "byteOffset" : 22464,
      "byteLength" : 12672
    },
    {
      "buffer" : 0,
      "byteOffset" : 35136,
      "byteLength" : 6336
    },
    {
      "buffer" : 0,
      "byteOffset" : 41472,
      "byteLength" : 6336
    },
    {
      "buffer" : 0,
      "byteOffset" : 47808,
      "byteLength" : 6336
    },
    {
      "buffer" : 0,
      "byteOffset" : 54144,
      "byteLength" : 6336
    }
  ],
  "accessors" : [
    {
      "bufferView" : 0,
      "componentType" : 5123,
      "count" : 1728,
      "type" : "SCALAR"
    },
    {
      "bufferView" : 1,
      "min" : [ -8.00002, -2.44141e-06, -8 ],
      "max" : [ 2.36199e-06, 32, 6.89823e-06 ],
      "componentType" : 5126,
      "count" : 792,
      "type" : "VEC3"
    },
    {
      "bufferView" : 2,
      "componentType" : 5126,
      "count" : 792,
      "type" : "VEC3"
    },
    {
      "bufferView" : 3,
      "componentType" : 5126,
      "count" : 792,
      "type" : "VEC4"
    },
    {
      "bufferView" : 4,
      "componentType" : 5126,
      "count" : 792,
      "type" : "VEC2"
    },
    {
      "bufferView" : 5,
      "componentType" : 5126,
      "count" : 792,
      "type" : "VEC2"
    },
    {
      "bufferView" : 6,
      "componentType" : 5126,
      "count" : 792,
      "type" : "VEC2"
    },
    {
      "bufferView" : 7,
      "componentType" : 5126,
      "count" : 792,
      "type" : "VEC2"
    }
  ]
}
