{
  "asset" : {
    "generator" : "UE Viewer (umodel) build 1579 based",
    "version" : "2.0"
  },
  "scene" : 0,
  "scenes" : [
    {
      "nodes" : [ 0 ]
    }
  ],
  "nodes" : [
    {
      "name" : "S_Envi_Train_Building_Merge_02b",
      "mesh" : 0
    }
  ],
  "materials" : [
    {
      "name" : "MI_Envi_Train_Ground_01a",
      "pbrMetallicRoughness" : {
        "baseColorFactor" : [ 0.3, 0.3, 0.3, 1.0 ],
        "metallicFactor" : 0.1,
        "roughnessFactor" : 0.5
      }
    },
    {
      "name" : "MI_Envi_Train_Ground_02a",
      "pbrMetallicRoughness" : {
        "baseColorFactor" : [ 0.9, 0.3, 0.3, 1.0 ],
        "metallicFactor" : 0.1,
        "roughnessFactor" : 0.5
      }
    }
  ],
  "meshes" : [
    {
      "primitives" : [
        {
          "attributes" : {
            "POSITION" : 1,
            "NORMAL" : 2,
            "TANGENT" : 3,
            "TEXCOORD_0" : 4,
            "TEXCOORD_1" : 5,
            "TEXCOORD_2" : 6
          },
          "indices" : 0,
          "material" : 0
        },
        {
          "attributes" : {
            "POSITION" : 8,
            "NORMAL" : 9,
            "TANGENT" : 10,
            "TEXCOORD_0" : 11,
            "TEXCOORD_1" : 12,
            "TEXCOORD_2" : 13
          },
          "indices" : 7,
          "material" : 1
        }
      ],
      "name" : "S_Envi_Train_Building_Merge_02b"
    }
  ],
  "buffers" : [
    {
      "uri" : "S_Envi_Train_Building_Merge_02b.bin",
      "byteLength" : 293888
    }
  ],
  "bufferViews" : [
    {
      "buffer" : 0,
      "byteOffset" : 0,
      "byteLength" : 9504
    },
    {
      "buffer" : 0,
      "byteOffset" : 9504,
      "byteLength" : 31440
    },
    {
      "buffer" : 0,
      "byteOffset" : 40944,
      "byteLength" : 31440
    },
    {
      "buffer" : 0,
      "byteOffset" : 72384,
      "byteLength" : 41920
    },
    {
      "buffer" : 0,
      "byteOffset" : 114304,
      "byteLength" : 20960
    },
    {
      "buffer" : 0,
      "byteOffset" : 135264,
      "byteLength" : 20960
    },
    {
      "buffer" : 0,
      "byteOffset" : 156224,
      "byteLength" : 20960
    },
    {
      "buffer" : 0,
      "byteOffset" : 177184,
      "byteLength" : 6432
    },
    {
      "buffer" : 0,
      "byteOffset" : 183616,
      "byteLength" : 20676
    },
    {
      "buffer" : 0,
      "byteOffset" : 204292,
      "byteLength" : 20676
    },
    {
      "buffer" : 0,
      "byteOffset" : 224968,
      "byteLength" : 27568
    },
    {
      "buffer" : 0,
      "byteOffset" : 252536,
      "byteLength" : 13784
    },
    {
      "buffer" : 0,
      "byteOffset" : 266320,
      "byteLength" : 13784
    },
    {
      "buffer" : 0,
      "byteOffset" : 280104,
      "byteLength" : 13784
    }
  ],
  "accessors" : [
    {
      "bufferView" : 0,
      "componentType" : 5123,
      "count" : 4752,
      "type" : "SCALAR"
    },
    {
      "bufferView" : 1,
      "min" : [ -104.244, -8.86307, 38.7883 ],
      "max" : [ -69.3063, 1.368, 51.5855 ],
      "componentType" : 5126,
      "count" : 2620,
      "type" : "VEC3"
    },
    {
      "bufferView" : 2,
      "componentType" : 5126,
      "count" : 2620,
      "type" : "VEC3"
    },
    {
      "bufferView" : 3,
      "componentType" : 5126,
      "count" : 2620,
      "type" : "VEC4"
    },
    {
      "bufferView" : 4,
      "componentType" : 5126,
      "count" : 2620,
      "type" : "VEC2"
    },
    {
      "bufferView" : 5,
      "componentType" : 5126,
      "count" : 2620,
      "type" : "VEC2"
    },
    {
      "bufferView" : 6,
      "componentType" : 5126,
      "count" : 2620,
      "type" : "VEC2"
    },
    {
      "bufferView" : 7,
      "componentType" : 5123,
      "count" : 3216,
      "type" : "SCALAR"
    },
    {
      "bufferView" : 8,
      "min" : [ -104.244, -8.22895, 38.7883 ],
      "max" : [ -69.3063, 1.368, 51.5855 ],
      "componentType" : 5126,
      "count" : 1723,
      "type" : "VEC3"
    },
    {
      "bufferView" : 9,
      "componentType" : 5126,
      "count" : 1723,
      "type" : "VEC3"
    },
    {
      "bufferView" : 10,
      "componentType" : 5126,
      "count" : 1723,
      "type" : "VEC4"
    },
    {
      "bufferView" : 11,
      "componentType" : 5126,
      "count" : 1723,
      "type" : "VEC2"
    },
    {
      "bufferView" : 12,
      "componentType" : 5126,
      "count" : 1723,
      "type" : "VEC2"
    },
    {
      "bufferView" : 13,
      "componentType" : 5126,
      "count" : 1723,
      "type" : "VEC2"
    }
  ]
}
