{
  "asset" : {
    "generator" : "UE Viewer (umodel) build 1579 based",
    "version" : "2.0"
  },
  "scene" : 0,
  "scenes" : [
    {
      "nodes" : [ 0 ]
    }
  ],
  "nodes" : [
    {
      "name" : "S_Envi_Train_Building_Merge_11a",
      "mesh" : 0
    }
  ],
  "materials" : [
    {
      "name" : "MI_Envi_Train_Box_01a",
      "pbrMetallicRoughness" : {
        "baseColorFactor" : [ 0.3, 0.3, 0.3, 1.0 ],
        "metallicFactor" : 0.1,
        "roughnessFactor" : 0.5
      }
    }
  ],
  "meshes" : [
    {
      "primitives" : [
        {
          "attributes" : {
            "POSITION" : 1,
            "NORMAL" : 2,
            "TANGENT" : 3,
            "TEXCOORD_0" : 4,
            "TEXCOORD_1" : 5,
            "TEXCOORD_2" : 6,
            "TEXCOORD_3" : 7
          },
          "indices" : 0,
          "material" : 0
        }
      ],
      "name" : "S_Envi_Train_Building_Merge_11a"
    }
  ],
  "buffers" : [
    {
      "uri" : "S_Envi_Train_Building_Merge_11a.bin",
      "byteLength" : 526952
    }
  ],
  "bufferViews" : [
    {
      "buffer" : 0,
      "byteOffset" : 0,
      "byteLength" : 28208
    },
    {
      "buffer" : 0,
      "byteOffset" : 28208,
      "byteLength" : 83124
    },
    {
      "buffer" : 0,
      "byteOffset" : 111332,
      "byteLength" : 83124
    },
    {
      "buffer" : 0,
      "byteOffset" : 194456,
      "byteLength" : 110832
    },
    {
      "buffer" : 0,
      "byteOffset" : 305288,
      "byteLength" : 55416
    },
    {
      "buffer" : 0,
      "byteOffset" : 360704,
      "byteLength" : 55416
    },
    {
      "buffer" : 0,
      "byteOffset" : 416120,
      "byteLength" : 55416
    },
    {
      "buffer" : 0,
      "byteOffset" : 471536,
      "byteLength" : 55416
    }
  ],
  "accessors" : [
    {
      "bufferView" : 0,
      "componentType" : 5123,
      "count" : 14103,
      "type" : "SCALAR"
    },
    {
      "bufferView" : 1,
      "min" : [ -19.5773, -29.4626, -49.3591 ],
      "max" : [ 23.2578, 63.6374, -17.9646 ],
      "componentType" : 5126,
      "count" : 6927,
      "type" : "VEC3"
    },
    {
      "bufferView" : 2,
      "componentType" : 5126,
      "count" : 6927,
      "type" : "VEC3"
    },
    {
      "bufferView" : 3,
      "componentType" : 5126,
      "count" : 6927,
      "type" : "VEC4"
    },
    {
      "bufferView" : 4,
      "componentType" : 5126,
      "count" : 6927,
      "type" : "VEC2"
    },
    {
      "bufferView" : 5,
      "componentType" : 5126,
      "count" : 6927,
      "type" : "VEC2"
    },
    {
      "bufferView" : 6,
      "componentType" : 5126,
      "count" : 6927,
      "type" : "VEC2"
    },
    {
      "bufferView" : 7,
      "componentType" : 5126,
      "count" : 6927,
      "type" : "VEC2"
    }
  ]
}
