{
  "asset" : {
    "generator" : "UE Viewer (umodel) build 1579 based",
    "version" : "2.0"
  },
  "scene" : 0,
  "scenes" : [
    {
      "nodes" : [ 0 ]
    }
  ],
  "nodes" : [
    {
      "name" : "S_Envi_Train_Building_Merge_07",
      "mesh" : 0
    }
  ],
  "materials" : [
    {
      "name" : "MI_Envi_Train_Ground_02a",
      "pbrMetallicRoughness" : {
        "baseColorFactor" : [ 0.3, 0.3, 0.3, 1.0 ],
        "metallicFactor" : 0.1,
        "roughnessFactor" : 0.5
      }
    },
    {
      "name" : "MI_Envi_Train_Ground_01a",
      "pbrMetallicRoughness" : {
        "baseColorFactor" : [ 0.9, 0.3, 0.3, 1.0 ],
        "metallicFactor" : 0.1,
        "roughnessFactor" : 0.5
      }
    },
    {
      "name" : "MI_Envi_Train_Ground_01f",
      "pbrMetallicRoughness" : {
        "baseColorFactor" : [ 0.3, 0.9, 0.3, 1.0 ],
        "metallicFactor" : 0.1,
        "roughnessFactor" : 0.5
      }
    }
  ],
  "meshes" : [
    {
      "primitives" : [
        {
          "attributes" : {
            "POSITION" : 1,
            "NORMAL" : 2,
            "TANGENT" : 3,
            "TEXCOORD_0" : 4,
            "TEXCOORD_1" : 5,
            "TEXCOORD_2" : 6
          },
          "indices" : 0,
          "material" : 0
        },
        {
          "attributes" : {
            "POSITION" : 8,
            "NORMAL" : 9,
            "TANGENT" : 10,
            "TEXCOORD_0" : 11,
            "TEXCOORD_1" : 12,
            "TEXCOORD_2" : 13
          },
          "indices" : 7,
          "material" : 1
        },
        {
          "attributes" : {
            "POSITION" : 15,
            "NORMAL" : 16,
            "TANGENT" : 17,
            "TEXCOORD_0" : 18,
            "TEXCOORD_1" : 19,
            "TEXCOORD_2" : 20
          },
          "indices" : 14,
          "material" : 2
        }
      ],
      "name" : "S_Envi_Train_Building_Merge_07"
    }
  ],
  "buffers" : [
    {
      "uri" : "S_Envi_Train_Building_Merge_07.bin",
      "byteLength" : 152320
    }
  ],
  "bufferViews" : [
    {
      "buffer" : 0,
      "byteOffset" : 0,
      "byteLength" : 6156
    },
    {
      "buffer" : 0,
      "byteOffset" : 6156,
      "byteLength" : 18600
    },
    {
      "buffer" : 0,
      "byteOffset" : 24756,
      "byteLength" : 18600
    },
    {
      "buffer" : 0,
      "byteOffset" : 43356,
      "byteLength" : 24800
    },
    {
      "buffer" : 0,
      "byteOffset" : 68156,
      "byteLength" : 12400
    },
    {
      "buffer" : 0,
      "byteOffset" : 80556,
      "byteLength" : 12400
    },
    {
      "buffer" : 0,
      "byteOffset" : 92956,
      "byteLength" : 12400
    },
    {
      "buffer" : 0,
      "byteOffset" : 105356,
      "byteLength" : 1988
    },
    {
      "buffer" : 0,
      "byteOffset" : 107344,
      "byteLength" : 6936
    },
    {
      "buffer" : 0,
      "byteOffset" : 114280,
      "byteLength" : 6936
    },
    {
      "buffer" : 0,
      "byteOffset" : 121216,
      "byteLength" : 9248
    },
    {
      "buffer" : 0,
      "byteOffset" : 130464,
      "byteLength" : 4624
    },
    {
      "buffer" : 0,
      "byteOffset" : 135088,
      "byteLength" : 4624
    },
    {
      "buffer" : 0,
      "byteOffset" : 139712,
      "byteLength" : 4624
    },
    {
      "buffer" : 0,
      "byteOffset" : 144336,
      "byteLength" : 432
    },
    {
      "buffer" : 0,
      "byteOffset" : 144768,
      "byteLength" : 1416
    },
    {
      "buffer" : 0,
      "byteOffset" : 146184,
      "byteLength" : 1416
    },
    {
      "buffer" : 0,
      "byteOffset" : 147600,
      "byteLength" : 1888
    },
    {
      "buffer" : 0,
      "byteOffset" : 149488,
      "byteLength" : 944
    },
    {
      "buffer" : 0,
      "byteOffset" : 150432,
      "byteLength" : 944
    },
    {
      "buffer" : 0,
      "byteOffset" : 151376,
      "byteLength" : 944
    }
  ],
  "accessors" : [
    {
      "bufferView" : 0,
      "componentType" : 5123,
      "count" : 3078,
      "type" : "SCALAR"
    },
    {
      "bufferView" : 1,
      "min" : [ -81.0872, 3.60959, -49.5105 ],
      "max" : [ -46.8577, 13.6021, -40.6955 ],
      "componentType" : 5126,
      "count" : 1550,
      "type" : "VEC3"
    },
    {
      "bufferView" : 2,
      "componentType" : 5126,
      "count" : 1550,
      "type" : "VEC3"
    },
    {
      "bufferView" : 3,
      "componentType" : 5126,
      "count" : 1550,
      "type" : "VEC4"
    },
    {
      "bufferView" : 4,
      "componentType" : 5126,
      "count" : 1550,
      "type" : "VEC2"
    },
    {
      "bufferView" : 5,
      "componentType" : 5126,
      "count" : 1550,
      "type" : "VEC2"
    },
    {
      "bufferView" : 6,
      "componentType" : 5126,
      "count" : 1550,
      "type" : "VEC2"
    },
    {
      "bufferView" : 7,
      "componentType" : 5123,
      "count" : 993,
      "type" : "SCALAR"
    },
    {
      "bufferView" : 8,
      "min" : [ -79.3133, 3.60959, -49.5105 ],
      "max" : [ -48.1444, 13.6021, -40.6955 ],
      "componentType" : 5126,
      "count" : 578,
      "type" : "VEC3"
    },
    {
      "bufferView" : 9,
      "componentType" : 5126,
      "count" : 578,
      "type" : "VEC3"
    },
    {
      "bufferView" : 10,
      "componentType" : 5126,
      "count" : 578,
      "type" : "VEC4"
    },
    {
      "bufferView" : 11,
      "componentType" : 5126,
      "count" : 578,
      "type" : "VEC2"
    },
    {
      "bufferView" : 12,
      "componentType" : 5126,
      "count" : 578,
      "type" : "VEC2"
    },
    {
      "bufferView" : 13,
      "componentType" : 5126,
      "count" : 578,
      "type" : "VEC2"
    },
    {
      "bufferView" : 14,
      "componentType" : 5123,
      "count" : 216,
      "type" : "SCALAR"
    },
    {
      "bufferView" : 15,
      "min" : [ -69.2586, 3.75958, -48.1677 ],
      "max" : [ -59.955, 12.6439, -42.1811 ],
      "componentType" : 5126,
      "count" : 118,
      "type" : "VEC3"
    },
    {
      "bufferView" : 16,
      "componentType" : 5126,
      "count" : 118,
      "type" : "VEC3"
    },
    {
      "bufferView" : 17,
      "componentType" : 5126,
      "count" : 118,
      "type" : "VEC4"
    },
    {
      "bufferView" : 18,
      "componentType" : 5126,
      "count" : 118,
      "type" : "VEC2"
    },
    {
      "bufferView" : 19,
      "componentType" : 5126,
      "count" : 118,
      "type" : "VEC2"
    },
    {
      "bufferView" : 20,
      "componentType" : 5126,
      "count" : 118,
      "type" : "VEC2"
    }
  ]
}
