{
  "asset" : {
    "generator" : "UE Viewer (umodel) build 1579 based",
    "version" : "2.0"
  },
  "scene" : 0,
  "scenes" : [
    {
      "nodes" : [ 0 ]
    }
  ],
  "nodes" : [
    {
      "name" : "S_Envi_Train_Building_04a",
      "mesh" : 0
    }
  ],
  "materials" : [
    {
      "name" : "MI_Envi_Train_Box_01a",
      "pbrMetallicRoughness" : {
        "baseColorFactor" : [ 0.3, 0.3, 0.3, 1.0 ],
        "metallicFactor" : 0.1,
        "roughnessFactor" : 0.5
      }
    }
  ],
  "meshes" : [
    {
      "primitives" : [
        {
          "attributes" : {
            "POSITION" : 1,
            "NORMAL" : 2,
            "TANGENT" : 3,
            "TEXCOORD_0" : 4,
            "TEXCOORD_1" : 5,
            "TEXCOORD_2" : 6,
            "TEXCOORD_3" : 7
          },
          "indices" : 0,
          "material" : 0
        }
      ],
      "name" : "S_Envi_Train_Building_04a"
    }
  ],
  "buffers" : [
    {
      "uri" : "S_Envi_Train_Building_04a.bin",
      "byteLength" : 171360
    }
  ],
  "bufferViews" : [
    {
      "buffer" : 0,
      "byteOffset" : 0,
      "byteLength" : 7200
    },
    {
      "buffer" : 0,
      "byteOffset" : 7200,
      "byteLength" : 27360
    },
    {
      "buffer" : 0,
      "byteOffset" : 34560,
      "byteLength" : 27360
    },
    {
      "buffer" : 0,
      "byteOffset" : 61920,
      "byteLength" : 36480
    },
    {
      "buffer" : 0,
      "byteOffset" : 98400,
      "byteLength" : 18240
    },
    {
      "buffer" : 0,
      "byteOffset" : 116640,
      "byteLength" : 18240
    },
    {
      "buffer" : 0,
      "byteOffset" : 134880,
      "byteLength" : 18240
    },
    {
      "buffer" : 0,
      "byteOffset" : 153120,
      "byteLength" : 18240
    }
  ],
  "accessors" : [
    {
      "bufferView" : 0,
      "componentType" : 5123,
      "count" : 3600,
      "type" : "SCALAR"
    },
    {
      "bufferView" : 1,
      "min" : [ -14.5958, 3.03141e-05, -6.46593 ],
      "max" : [ 14.5959, 29.1916, 2.67028e-07 ],
      "componentType" : 5126,
      "count" : 2280,
      "type" : "VEC3"
    },
    {
      "bufferView" : 2,
      "componentType" : 5126,
      "count" : 2280,
      "type" : "VEC3"
    },
    {
      "bufferView" : 3,
      "componentType" : 5126,
      "count" : 2280,
      "type" : "VEC4"
    },
    {
      "bufferView" : 4,
      "componentType" : 5126,
      "count" : 2280,
      "type" : "VEC2"
    },
    {
      "bufferView" : 5,
      "componentType" : 5126,
      "count" : 2280,
      "type" : "VEC2"
    },
    {
      "bufferView" : 6,
      "componentType" : 5126,
      "count" : 2280,
      "type" : "VEC2"
    },
    {
      "bufferView" : 7,
      "componentType" : 5126,
      "count" : 2280,
      "type" : "VEC2"
    }
  ]
}
