{
  "asset" : {
    "generator" : "UE Viewer (umodel) build 1579 based",
    "version" : "2.0"
  },
  "scene" : 0,
  "scenes" : [
    {
      "nodes" : [ 0 ]
    }
  ],
  "nodes" : [
    {
      "name" : "S_Envi_Train_Box_01k",
      "mesh" : 0
    }
  ],
  "materials" : [
    {
      "name" : "dummy_material_0",
      "pbrMetallicRoughness" : {
        "baseColorFactor" : [ 0.3, 0.3, 0.3, 1.0 ],
        "metallicFactor" : 0.1,
        "roughnessFactor" : 0.5
      }
    },
    {
      "name" : "dummy_material_1",
      "pbrMetallicRoughness" : {
        "baseColorFactor" : [ 0.9, 0.3, 0.3, 1.0 ],
        "metallicFactor" : 0.1,
        "roughnessFactor" : 0.5
      }
    }
  ],
  "meshes" : [
    {
      "primitives" : [
        {
          "attributes" : {
            "POSITION" : 1,
            "NORMAL" : 2,
            "TANGENT" : 3,
            "TEXCOORD_0" : 4,
            "TEXCOORD_1" : 5
          },
          "indices" : 0,
          "material" : 0
        },
        {
          "attributes" : {
            "POSITION" : 7,
            "NORMAL" : 8,
            "TANGENT" : 9,
            "TEXCOORD_0" : 10,
            "TEXCOORD_1" : 11
          },
          "indices" : 6,
          "material" : 1
        }
      ],
      "name" : "S_Envi_Train_Box_01k"
    }
  ],
  "buffers" : [
    {
      "uri" : "S_Envi_Train_Box_01k.bin",
      "byteLength" : 89388
    }
  ],
  "bufferViews" : [
    {
      "buffer" : 0,
      "byteOffset" : 0,
      "byteLength" : 5700
    },
    {
      "buffer" : 0,
      "byteOffset" : 5700,
      "byteLength" : 10044
    },
    {
      "buffer" : 0,
      "byteOffset" : 15744,
      "byteLength" : 10044
    },
    {
      "buffer" : 0,
      "byteOffset" : 25788,
      "byteLength" : 13392
    },
    {
      "buffer" : 0,
      "byteOffset" : 39180,
      "byteLength" : 6696
    },
    {
      "buffer" : 0,
      "byteOffset" : 45876,
      "byteLength" : 6696
    },
    {
      "buffer" : 0,
      "byteOffset" : 52572,
      "byteLength" : 1872
    },
    {
      "buffer" : 0,
      "byteOffset" : 54444,
      "byteLength" : 7488
    },
    {
      "buffer" : 0,
      "byteOffset" : 61932,
      "byteLength" : 7488
    },
    {
      "buffer" : 0,
      "byteOffset" : 69420,
      "byteLength" : 9984
    },
    {
      "buffer" : 0,
      "byteOffset" : 79404,
      "byteLength" : 4992
    },
    {
      "buffer" : 0,
      "byteOffset" : 84396,
      "byteLength" : 4992
    }
  ],
  "accessors" : [
    {
      "bufferView" : 0,
      "componentType" : 5123,
      "count" : 2850,
      "type" : "SCALAR"
    },
    {
      "bufferView" : 1,
      "min" : [ -4.91662, -0.02, -4.91325 ],
      "max" : [ 4.92518, 19.6949, 4.97321 ],
      "componentType" : 5126,
      "count" : 837,
      "type" : "VEC3"
    },
    {
      "bufferView" : 2,
      "componentType" : 5126,
      "count" : 837,
      "type" : "VEC3"
    },
    {
      "bufferView" : 3,
      "componentType" : 5126,
      "count" : 837,
      "type" : "VEC4"
    },
    {
      "bufferView" : 4,
      "componentType" : 5126,
      "count" : 837,
      "type" : "VEC2"
    },
    {
      "bufferView" : 5,
      "componentType" : 5126,
      "count" : 837,
      "type" : "VEC2"
    },
    {
      "bufferView" : 6,
      "componentType" : 5123,
      "count" : 936,
      "type" : "SCALAR"
    },
    {
      "bufferView" : 7,
      "min" : [ -4.9306, 0.16772, -4.97515 ],
      "max" : [ 4.93059, 19.6892, 4.97515 ],
      "componentType" : 5126,
      "count" : 624,
      "type" : "VEC3"
    },
    {
      "bufferView" : 8,
      "componentType" : 5126,
      "count" : 624,
      "type" : "VEC3"
    },
    {
      "bufferView" : 9,
      "componentType" : 5126,
      "count" : 624,
      "type" : "VEC4"
    },
    {
      "bufferView" : 10,
      "componentType" : 5126,
      "count" : 624,
      "type" : "VEC2"
    },
    {
      "bufferView" : 11,
      "componentType" : 5126,
      "count" : 624,
      "type" : "VEC2"
    }
  ]
}
