{
  "asset" : {
    "generator" : "UE Viewer (umodel) build 1579 based",
    "version" : "2.0"
  },
  "scene" : 0,
  "scenes" : [
    {
      "nodes" : [ 0 ]
    }
  ],
  "nodes" : [
    {
      "name" : "S_Envi_Train_Wall_EM",
      "mesh" : 0
    }
  ],
  "materials" : [
    {
      "name" : "MI_Mask_NB_005",
      "pbrMetallicRoughness" : {
        "baseColorFactor" : [ 0.3, 0.3, 0.3, 1.0 ],
        "metallicFactor" : 0.1,
        "roughnessFactor" : 0.5
      }
    }
  ],
  "meshes" : [
    {
      "primitives" : [
        {
          "attributes" : {
            "POSITION" : 1,
            "NORMAL" : 2,
            "TANGENT" : 3,
            "TEXCOORD_0" : 4,
            "TEXCOORD_1" : 5,
            "TEXCOORD_2" : 6
          },
          "indices" : 0,
          "material" : 0
        }
      ],
      "name" : "S_Envi_Train_Wall_EM"
    }
  ],
  "buffers" : [
    {
      "uri" : "S_Envi_Train_Wall_EM.bin",
      "byteLength" : 31052
    }
  ],
  "bufferViews" : [
    {
      "buffer" : 0,
      "byteOffset" : 0,
      "byteLength" : 1676
    },
    {
      "buffer" : 0,
      "byteOffset" : 1676,
      "byteLength" : 5508
    },
    {
      "buffer" : 0,
      "byteOffset" : 7184,
      "byteLength" : 5508
    },
    {
      "buffer" : 0,
      "byteOffset" : 12692,
      "byteLength" : 7344
    },
    {
      "buffer" : 0,
      "byteOffset" : 20036,
      "byteLength" : 3672
    },
    {
      "buffer" : 0,
      "byteOffset" : 23708,
      "byteLength" : 3672
    },
    {
      "buffer" : 0,
      "byteOffset" : 27380,
      "byteLength" : 3672
    }
  ],
  "accessors" : [
    {
      "bufferView" : 0,
      "componentType" : 5123,
      "count" : 837,
      "type" : "SCALAR"
    },
    {
      "bufferView" : 1,
      "min" : [ -1.19595, 12.8754, -2.39851 ],
      "max" : [ 5.28788, 26.8875, 5.72104 ],
      "componentType" : 5126,
      "count" : 459,
      "type" : "VEC3"
    },
    {
      "bufferView" : 2,
      "componentType" : 5126,
      "count" : 459,
      "type" : "VEC3"
    },
    {
      "bufferView" : 3,
      "componentType" : 5126,
      "count" : 459,
      "type" : "VEC4"
    },
    {
      "bufferView" : 4,
      "componentType" : 5126,
      "count" : 459,
      "type" : "VEC2"
    },
    {
      "bufferView" : 5,
      "componentType" : 5126,
      "count" : 459,
      "type" : "VEC2"
    },
    {
      "bufferView" : 6,
      "componentType" : 5126,
      "count" : 459,
      "type" : "VEC2"
    }
  ]
}
