{
  "asset" : {
    "generator" : "UE Viewer (umodel) build 1579 based",
    "version" : "2.0"
  },
  "scene" : 0,
  "scenes" : [
    {
      "nodes" : [ 0 ]
    }
  ],
  "nodes" : [
    {
      "name" : "S_Envi_Train_Building_Merge_03",
      "mesh" : 0
    }
  ],
  "materials" : [
    {
      "name" : "MI_Envi_Train_Ground_02a",
      "pbrMetallicRoughness" : {
        "baseColorFactor" : [ 0.3, 0.3, 0.3, 1.0 ],
        "metallicFactor" : 0.1,
        "roughnessFactor" : 0.5
      }
    },
    {
      "name" : "MI_Envi_Train_Ground_01a",
      "pbrMetallicRoughness" : {
        "baseColorFactor" : [ 0.9, 0.3, 0.3, 1.0 ],
        "metallicFactor" : 0.1,
        "roughnessFactor" : 0.5
      }
    }
  ],
  "meshes" : [
    {
      "primitives" : [
        {
          "attributes" : {
            "POSITION" : 1,
            "NORMAL" : 2,
            "TANGENT" : 3,
            "TEXCOORD_0" : 4,
            "TEXCOORD_1" : 5,
            "TEXCOORD_2" : 6
          },
          "indices" : 0,
          "material" : 0
        },
        {
          "attributes" : {
            "POSITION" : 8,
            "NORMAL" : 9,
            "TANGENT" : 10,
            "TEXCOORD_0" : 11,
            "TEXCOORD_1" : 12,
            "TEXCOORD_2" : 13
          },
          "indices" : 7,
          "material" : 1
        }
      ],
      "name" : "S_Envi_Train_Building_Merge_03"
    }
  ],
  "buffers" : [
    {
      "uri" : "S_Envi_Train_Building_Merge_03.bin",
      "byteLength" : 67780
    }
  ],
  "bufferViews" : [
    {
      "buffer" : 0,
      "byteOffset" : 0,
      "byteLength" : 2448
    },
    {
      "buffer" : 0,
      "byteOffset" : 2448,
      "byteLength" : 7440
    },
    {
      "buffer" : 0,
      "byteOffset" : 9888,
      "byteLength" : 7440
    },
    {
      "buffer" : 0,
      "byteOffset" : 17328,
      "byteLength" : 9920
    },
    {
      "buffer" : 0,
      "byteOffset" : 27248,
      "byteLength" : 4960
    },
    {
      "buffer" : 0,
      "byteOffset" : 32208,
      "byteLength" : 4960
    },
    {
      "buffer" : 0,
      "byteOffset" : 37168,
      "byteLength" : 4960
    },
    {
      "buffer" : 0,
      "byteOffset" : 42128,
      "byteLength" : 1332
    },
    {
      "buffer" : 0,
      "byteOffset" : 43460,
      "byteLength" : 4560
    },
    {
      "buffer" : 0,
      "byteOffset" : 48020,
      "byteLength" : 4560
    },
    {
      "buffer" : 0,
      "byteOffset" : 52580,
      "byteLength" : 6080
    },
    {
      "buffer" : 0,
      "byteOffset" : 58660,
      "byteLength" : 3040
    },
    {
      "buffer" : 0,
      "byteOffset" : 61700,
      "byteLength" : 3040
    },
    {
      "buffer" : 0,
      "byteOffset" : 64740,
      "byteLength" : 3040
    }
  ],
  "accessors" : [
    {
      "bufferView" : 0,
      "componentType" : 5123,
      "count" : 1224,
      "type" : "SCALAR"
    },
    {
      "bufferView" : 1,
      "min" : [ -65.3833, -6.20657, 17.7476 ],
      "max" : [ -54.36, 6.17106, 40.0726 ],
      "componentType" : 5126,
      "count" : 620,
      "type" : "VEC3"
    },
    {
      "bufferView" : 2,
      "componentType" : 5126,
      "count" : 620,
      "type" : "VEC3"
    },
    {
      "bufferView" : 3,
      "componentType" : 5126,
      "count" : 620,
      "type" : "VEC4"
    },
    {
      "bufferView" : 4,
      "componentType" : 5126,
      "count" : 620,
      "type" : "VEC2"
    },
    {
      "bufferView" : 5,
      "componentType" : 5126,
      "count" : 620,
      "type" : "VEC2"
    },
    {
      "bufferView" : 6,
      "componentType" : 5126,
      "count" : 620,
      "type" : "VEC2"
    },
    {
      "bufferView" : 7,
      "componentType" : 5123,
      "count" : 666,
      "type" : "SCALAR"
    },
    {
      "bufferView" : 8,
      "min" : [ -65.3833, -6.20657, 17.7476 ],
      "max" : [ -54.36, 6.17106, 40.0726 ],
      "componentType" : 5126,
      "count" : 380,
      "type" : "VEC3"
    },
    {
      "bufferView" : 9,
      "componentType" : 5126,
      "count" : 380,
      "type" : "VEC3"
    },
    {
      "bufferView" : 10,
      "componentType" : 5126,
      "count" : 380,
      "type" : "VEC4"
    },
    {
      "bufferView" : 11,
      "componentType" : 5126,
      "count" : 380,
      "type" : "VEC2"
    },
    {
      "bufferView" : 12,
      "componentType" : 5126,
      "count" : 380,
      "type" : "VEC2"
    },
    {
      "bufferView" : 13,
      "componentType" : 5126,
      "count" : 380,
      "type" : "VEC2"
    }
  ]
}
