{
  "asset" : {
    "generator" : "UE Viewer (umodel) build 1579 based",
    "version" : "2.0"
  },
  "scene" : 0,
  "scenes" : [
    {
      "nodes" : [ 0 ]
    }
  ],
  "nodes" : [
    {
      "name" : "S_Envi_Train_Building_Merge_04a",
      "mesh" : 0
    }
  ],
  "materials" : [
    {
      "name" : "MI_Envi_Train_Ground_01a",
      "pbrMetallicRoughness" : {
        "baseColorFactor" : [ 0.3, 0.3, 0.3, 1.0 ],
        "metallicFactor" : 0.1,
        "roughnessFactor" : 0.5
      }
    },
    {
      "name" : "MI_Envi_Train_Ground_02a",
      "pbrMetallicRoughness" : {
        "baseColorFactor" : [ 0.9, 0.3, 0.3, 1.0 ],
        "metallicFactor" : 0.1,
        "roughnessFactor" : 0.5
      }
    }
  ],
  "meshes" : [
    {
      "primitives" : [
        {
          "attributes" : {
            "POSITION" : 1,
            "NORMAL" : 2,
            "TANGENT" : 3,
            "TEXCOORD_0" : 4,
            "TEXCOORD_1" : 5,
            "TEXCOORD_2" : 6
          },
          "indices" : 0,
          "material" : 0
        },
        {
          "attributes" : {
            "POSITION" : 8,
            "NORMAL" : 9,
            "TANGENT" : 10,
            "TEXCOORD_0" : 11,
            "TEXCOORD_1" : 12,
            "TEXCOORD_2" : 13
          },
          "indices" : 7,
          "material" : 1
        }
      ],
      "name" : "S_Envi_Train_Building_Merge_04a"
    }
  ],
  "buffers" : [
    {
      "uri" : "S_Envi_Train_Building_Merge_04a.bin",
      "byteLength" : 217856
    }
  ],
  "bufferViews" : [
    {
      "buffer" : 0,
      "byteOffset" : 0,
      "byteLength" : 4080
    },
    {
      "buffer" : 0,
      "byteOffset" : 4080,
      "byteLength" : 14676
    },
    {
      "buffer" : 0,
      "byteOffset" : 18756,
      "byteLength" : 14676
    },
    {
      "buffer" : 0,
      "byteOffset" : 33432,
      "byteLength" : 19568
    },
    {
      "buffer" : 0,
      "byteOffset" : 53000,
      "byteLength" : 9784
    },
    {
      "buffer" : 0,
      "byteOffset" : 62784,
      "byteLength" : 9784
    },
    {
      "buffer" : 0,
      "byteOffset" : 72568,
      "byteLength" : 9784
    },
    {
      "buffer" : 0,
      "byteOffset" : 82352,
      "byteLength" : 7824
    },
    {
      "buffer" : 0,
      "byteOffset" : 90176,
      "byteLength" : 23940
    },
    {
      "buffer" : 0,
      "byteOffset" : 114116,
      "byteLength" : 23940
    },
    {
      "buffer" : 0,
      "byteOffset" : 138056,
      "byteLength" : 31920
    },
    {
      "buffer" : 0,
      "byteOffset" : 169976,
      "byteLength" : 15960
    },
    {
      "buffer" : 0,
      "byteOffset" : 185936,
      "byteLength" : 15960
    },
    {
      "buffer" : 0,
      "byteOffset" : 201896,
      "byteLength" : 15960
    }
  ],
  "accessors" : [
    {
      "bufferView" : 0,
      "componentType" : 5123,
      "count" : 2040,
      "type" : "SCALAR"
    },
    {
      "bufferView" : 1,
      "min" : [ -79.4291, -0.0422278, 18.0438 ],
      "max" : [ -63.6141, 8.93348, 27.1816 ],
      "componentType" : 5126,
      "count" : 1223,
      "type" : "VEC3"
    },
    {
      "bufferView" : 2,
      "componentType" : 5126,
      "count" : 1223,
      "type" : "VEC3"
    },
    {
      "bufferView" : 3,
      "componentType" : 5126,
      "count" : 1223,
      "type" : "VEC4"
    },
    {
      "bufferView" : 4,
      "componentType" : 5126,
      "count" : 1223,
      "type" : "VEC2"
    },
    {
      "bufferView" : 5,
      "componentType" : 5126,
      "count" : 1223,
      "type" : "VEC2"
    },
    {
      "bufferView" : 6,
      "componentType" : 5126,
      "count" : 1223,
      "type" : "VEC2"
    },
    {
      "bufferView" : 7,
      "componentType" : 5123,
      "count" : 3912,
      "type" : "SCALAR"
    },
    {
      "bufferView" : 8,
      "min" : [ -79.4291, -0.0422278, 18.0438 ],
      "max" : [ -63.6056, 8.93348, 27.5321 ],
      "componentType" : 5126,
      "count" : 1995,
      "type" : "VEC3"
    },
    {
      "bufferView" : 9,
      "componentType" : 5126,
      "count" : 1995,
      "type" : "VEC3"
    },
    {
      "bufferView" : 10,
      "componentType" : 5126,
      "count" : 1995,
      "type" : "VEC4"
    },
    {
      "bufferView" : 11,
      "componentType" : 5126,
      "count" : 1995,
      "type" : "VEC2"
    },
    {
      "bufferView" : 12,
      "componentType" : 5126,
      "count" : 1995,
      "type" : "VEC2"
    },
    {
      "bufferView" : 13,
      "componentType" : 5126,
      "count" : 1995,
      "type" : "VEC2"
    }
  ]
}
