{
  "asset" : {
    "generator" : "UE Viewer (umodel) build 1579 based",
    "version" : "2.0"
  },
  "scene" : 0,
  "scenes" : [
    {
      "nodes" : [ 0 ]
    }
  ],
  "nodes" : [
    {
      "name" : "S_Envi_Train_Building_Merge_8b",
      "mesh" : 0
    }
  ],
  "materials" : [
    {
      "name" : "MI_Envi_Train_Box_01k",
      "pbrMetallicRoughness" : {
        "baseColorFactor" : [ 0.3, 0.3, 0.3, 1.0 ],
        "metallicFactor" : 0.1,
        "roughnessFactor" : 0.5
      }
    },
    {
      "name" : "MI_Envi_Train_Ground_01f",
      "pbrMetallicRoughness" : {
        "baseColorFactor" : [ 0.9, 0.3, 0.3, 1.0 ],
        "metallicFactor" : 0.1,
        "roughnessFactor" : 0.5
      }
    }
  ],
  "meshes" : [
    {
      "primitives" : [
        {
          "attributes" : {
            "POSITION" : 1,
            "NORMAL" : 2,
            "TANGENT" : 3,
            "TEXCOORD_0" : 4,
            "TEXCOORD_1" : 5,
            "TEXCOORD_2" : 6,
            "TEXCOORD_3" : 7
          },
          "indices" : 0,
          "material" : 0
        },
        {
          "attributes" : {
            "POSITION" : 9,
            "NORMAL" : 10,
            "TANGENT" : 11,
            "TEXCOORD_0" : 12,
            "TEXCOORD_1" : 13,
            "TEXCOORD_2" : 14,
            "TEXCOORD_3" : 15
          },
          "indices" : 8,
          "material" : 1
        }
      ],
      "name" : "S_Envi_Train_Building_Merge_8b"
    }
  ],
  "buffers" : [
    {
      "uri" : "S_Envi_Train_Building_Merge_8b.bin",
      "byteLength" : 25188
    }
  ],
  "bufferViews" : [
    {
      "buffer" : 0,
      "byteOffset" : 0,
      "byteLength" : 660
    },
    {
      "buffer" : 0,
      "byteOffset" : 660,
      "byteLength" : 2748
    },
    {
      "buffer" : 0,
      "byteOffset" : 3408,
      "byteLength" : 2748
    },
    {
      "buffer" : 0,
      "byteOffset" : 6156,
      "byteLength" : 3664
    },
    {
      "buffer" : 0,
      "byteOffset" : 9820,
      "byteLength" : 1832
    },
    {
      "buffer" : 0,
      "byteOffset" : 11652,
      "byteLength" : 1832
    },
    {
      "buffer" : 0,
      "byteOffset" : 13484,
      "byteLength" : 1832
    },
    {
      "buffer" : 0,
      "byteOffset" : 15316,
      "byteLength" : 1832
    },
    {
      "buffer" : 0,
      "byteOffset" : 17148,
      "byteLength" : 264
    },
    {
      "buffer" : 0,
      "byteOffset" : 17412,
      "byteLength" : 1296
    },
    {
      "buffer" : 0,
      "byteOffset" : 18708,
      "byteLength" : 1296
    },
    {
      "buffer" : 0,
      "byteOffset" : 20004,
      "byteLength" : 1728
    },
    {
      "buffer" : 0,
      "byteOffset" : 21732,
      "byteLength" : 864
    },
    {
      "buffer" : 0,
      "byteOffset" : 22596,
      "byteLength" : 864
    },
    {
      "buffer" : 0,
      "byteOffset" : 23460,
      "byteLength" : 864
    },
    {
      "buffer" : 0,
      "byteOffset" : 24324,
      "byteLength" : 864
    }
  ],
  "accessors" : [
    {
      "bufferView" : 0,
      "componentType" : 5123,
      "count" : 330,
      "type" : "SCALAR"
    },
    {
      "bufferView" : 1,
      "min" : [ -49.3778, 11.9121, -50.8571 ],
      "max" : [ -39.0444, 28.9031, -38.9082 ],
      "componentType" : 5126,
      "count" : 229,
      "type" : "VEC3"
    },
    {
      "bufferView" : 2,
      "componentType" : 5126,
      "count" : 229,
      "type" : "VEC3"
    },
    {
      "bufferView" : 3,
      "componentType" : 5126,
      "count" : 229,
      "type" : "VEC4"
    },
    {
      "bufferView" : 4,
      "componentType" : 5126,
      "count" : 229,
      "type" : "VEC2"
    },
    {
      "bufferView" : 5,
      "componentType" : 5126,
      "count" : 229,
      "type" : "VEC2"
    },
    {
      "bufferView" : 6,
      "componentType" : 5126,
      "count" : 229,
      "type" : "VEC2"
    },
    {
      "bufferView" : 7,
      "componentType" : 5126,
      "count" : 229,
      "type" : "VEC2"
    },
    {
      "bufferView" : 8,
      "componentType" : 5123,
      "count" : 132,
      "type" : "SCALAR"
    },
    {
      "bufferView" : 9,
      "min" : [ -48.9425, 11.9121, -47.6295 ],
      "max" : [ -42.4469, 25.9246, -39.5299 ],
      "componentType" : 5126,
      "count" : 108,
      "type" : "VEC3"
    },
    {
      "bufferView" : 10,
      "componentType" : 5126,
      "count" : 108,
      "type" : "VEC3"
    },
    {
      "bufferView" : 11,
      "componentType" : 5126,
      "count" : 108,
      "type" : "VEC4"
    },
    {
      "bufferView" : 12,
      "componentType" : 5126,
      "count" : 108,
      "type" : "VEC2"
    },
    {
      "bufferView" : 13,
      "componentType" : 5126,
      "count" : 108,
      "type" : "VEC2"
    },
    {
      "bufferView" : 14,
      "componentType" : 5126,
      "count" : 108,
      "type" : "VEC2"
    },
    {
      "bufferView" : 15,
      "componentType" : 5126,
      "count" : 108,
      "type" : "VEC2"
    }
  ]
}
