{
  "asset" : {
    "generator" : "UE Viewer (umodel) build 1579 based",
    "version" : "2.0"
  },
  "scene" : 0,
  "scenes" : [
    {
      "nodes" : [ 0 ]
    }
  ],
  "nodes" : [
    {
      "name" : "S_Envi_Train_FarMerge_01a",
      "mesh" : 0
    }
  ],
  "materials" : [
    {
      "name" : "MI_Envi_Train_Box_02a",
      "pbrMetallicRoughness" : {
        "baseColorFactor" : [ 0.3, 0.3, 0.3, 1.0 ],
        "metallicFactor" : 0.1,
        "roughnessFactor" : 0.5
      }
    },
    {
      "name" : "MI_Envi_Train_Box_02b",
      "pbrMetallicRoughness" : {
        "baseColorFactor" : [ 0.9, 0.3, 0.3, 1.0 ],
        "metallicFactor" : 0.1,
        "roughnessFactor" : 0.5
      }
    }
  ],
  "meshes" : [
    {
      "primitives" : [
        {
          "attributes" : {
            "POSITION" : 1,
            "NORMAL" : 2,
            "TANGENT" : 3,
            "TEXCOORD_0" : 4,
            "TEXCOORD_1" : 5,
            "TEXCOORD_2" : 6,
            "TEXCOORD_3" : 7
          },
          "indices" : 0,
          "material" : 0
        },
        {
          "attributes" : {
            "POSITION" : 9,
            "NORMAL" : 10,
            "TANGENT" : 11,
            "TEXCOORD_0" : 12,
            "TEXCOORD_1" : 13,
            "TEXCOORD_2" : 14,
            "TEXCOORD_3" : 15
          },
          "indices" : 8,
          "material" : 1
        }
      ],
      "name" : "S_Envi_Train_FarMerge_01a"
    }
  ],
  "buffers" : [
    {
      "uri" : "S_Envi_Train_FarMerge_01a.bin",
      "byteLength" : 5939760
    }
  ],
  "bufferViews" : [
    {
      "buffer" : 0,
      "byteOffset" : 0,
      "byteLength" : 2904
    },
    {
      "buffer" : 0,
      "byteOffset" : 2904,
      "byteLength" : 11616
    },
    {
      "buffer" : 0,
      "byteOffset" : 14520,
      "byteLength" : 11616
    },
    {
      "buffer" : 0,
      "byteOffset" : 26136,
      "byteLength" : 15488
    },
    {
      "buffer" : 0,
      "byteOffset" : 41624,
      "byteLength" : 7744
    },
    {
      "buffer" : 0,
      "byteOffset" : 49368,
      "byteLength" : 7744
    },
    {
      "buffer" : 0,
      "byteOffset" : 57112,
      "byteLength" : 7744
    },
    {
      "buffer" : 0,
      "byteOffset" : 64856,
      "byteLength" : 7744
    },
    {
      "buffer" : 0,
      "byteOffset" : 72600,
      "byteLength" : 451320
    },
    {
      "buffer" : 0,
      "byteOffset" : 523920,
      "byteLength" : 902640
    },
    {
      "buffer" : 0,
      "byteOffset" : 1426560,
      "byteLength" : 902640
    },
    {
      "buffer" : 0,
      "byteOffset" : 2329200,
      "byteLength" : 1203520
    },
    {
      "buffer" : 0,
      "byteOffset" : 3532720,
      "byteLength" : 601760
    },
    {
      "buffer" : 0,
      "byteOffset" : 4134480,
      "byteLength" : 601760
    },
    {
      "buffer" : 0,
      "byteOffset" : 4736240,
      "byteLength" : 601760
    },
    {
      "buffer" : 0,
      "byteOffset" : 5338000,
      "byteLength" : 601760
    }
  ],
  "accessors" : [
    {
      "bufferView" : 0,
      "componentType" : 5123,
      "count" : 1452,
      "type" : "SCALAR"
    },
    {
      "bufferView" : 1,
      "min" : [ 3.64347, -180.497, -1179.32 ],
      "max" : [ 114.876, -57.6646, 366.787 ],
      "componentType" : 5126,
      "count" : 968,
      "type" : "VEC3"
    },
    {
      "bufferView" : 2,
      "componentType" : 5126,
      "count" : 968,
      "type" : "VEC3"
    },
    {
      "bufferView" : 3,
      "componentType" : 5126,
      "count" : 968,
      "type" : "VEC4"
    },
    {
      "bufferView" : 4,
      "componentType" : 5126,
      "count" : 968,
      "type" : "VEC2"
    },
    {
      "bufferView" : 5,
      "componentType" : 5126,
      "count" : 968,
      "type" : "VEC2"
    },
    {
      "bufferView" : 6,
      "componentType" : 5126,
      "count" : 968,
      "type" : "VEC2"
    },
    {
      "bufferView" : 7,
      "componentType" : 5126,
      "count" : 968,
      "type" : "VEC2"
    },
    {
      "bufferView" : 8,
      "componentType" : 5125,
      "count" : 112830,
      "type" : "SCALAR"
    },
    {
      "bufferView" : 9,
      "min" : [ -1750.25, -1317.06, -3964.53 ],
      "max" : [ 6764.28, 922.208, 4481.12 ],
      "componentType" : 5126,
      "count" : 75220,
      "type" : "VEC3"
    },
    {
      "bufferView" : 10,
      "componentType" : 5126,
      "count" : 75220,
      "type" : "VEC3"
    },
    {
      "bufferView" : 11,
      "componentType" : 5126,
      "count" : 75220,
      "type" : "VEC4"
    },
    {
      "bufferView" : 12,
      "componentType" : 5126,
      "count" : 75220,
      "type" : "VEC2"
    },
    {
      "bufferView" : 13,
      "componentType" : 5126,
      "count" : 75220,
      "type" : "VEC2"
    },
    {
      "bufferView" : 14,
      "componentType" : 5126,
      "count" : 75220,
      "type" : "VEC2"
    },
    {
      "bufferView" : 15,
      "componentType" : 5126,
      "count" : 75220,
      "type" : "VEC2"
    }
  ]
}
