{
  "asset" : {
    "generator" : "UE Viewer (umodel) build 1579 based",
    "version" : "2.0"
  },
  "scene" : 0,
  "scenes" : [
    {
      "nodes" : [ 0 ]
    }
  ],
  "nodes" : [
    {
      "name" : "S_Envi_Train_Building_Merge_16d",
      "mesh" : 0
    }
  ],
  "materials" : [
    {
      "name" : "MI_Envi_Train_Box_01a",
      "pbrMetallicRoughness" : {
        "baseColorFactor" : [ 0.3, 0.3, 0.3, 1.0 ],
        "metallicFactor" : 0.1,
        "roughnessFactor" : 0.5
      }
    }
  ],
  "meshes" : [
    {
      "primitives" : [
        {
          "attributes" : {
            "POSITION" : 1,
            "NORMAL" : 2,
            "TANGENT" : 3,
            "TEXCOORD_0" : 4,
            "TEXCOORD_1" : 5,
            "TEXCOORD_2" : 6,
            "TEXCOORD_3" : 7
          },
          "indices" : 0,
          "material" : 0
        }
      ],
      "name" : "S_Envi_Train_Building_Merge_16d"
    }
  ],
  "buffers" : [
    {
      "uri" : "S_Envi_Train_Building_Merge_16d.bin",
      "byteLength" : 286136
    }
  ],
  "bufferViews" : [
    {
      "buffer" : 0,
      "byteOffset" : 0,
      "byteLength" : 13040
    },
    {
      "buffer" : 0,
      "byteOffset" : 13040,
      "byteLength" : 45516
    },
    {
      "buffer" : 0,
      "byteOffset" : 58556,
      "byteLength" : 45516
    },
    {
      "buffer" : 0,
      "byteOffset" : 104072,
      "byteLength" : 60688
    },
    {
      "buffer" : 0,
      "byteOffset" : 164760,
      "byteLength" : 30344
    },
    {
      "buffer" : 0,
      "byteOffset" : 195104,
      "byteLength" : 30344
    },
    {
      "buffer" : 0,
      "byteOffset" : 225448,
      "byteLength" : 30344
    },
    {
      "buffer" : 0,
      "byteOffset" : 255792,
      "byteLength" : 30344
    }
  ],
  "accessors" : [
    {
      "bufferView" : 0,
      "componentType" : 5123,
      "count" : 6519,
      "type" : "SCALAR"
    },
    {
      "bufferView" : 1,
      "min" : [ 38.33, 17.7524, 0.239971 ],
      "max" : [ 80.5812, 53.1824, 63.3252 ],
      "componentType" : 5126,
      "count" : 3793,
      "type" : "VEC3"
    },
    {
      "bufferView" : 2,
      "componentType" : 5126,
      "count" : 3793,
      "type" : "VEC3"
    },
    {
      "bufferView" : 3,
      "componentType" : 5126,
      "count" : 3793,
      "type" : "VEC4"
    },
    {
      "bufferView" : 4,
      "componentType" : 5126,
      "count" : 3793,
      "type" : "VEC2"
    },
    {
      "bufferView" : 5,
      "componentType" : 5126,
      "count" : 3793,
      "type" : "VEC2"
    },
    {
      "bufferView" : 6,
      "componentType" : 5126,
      "count" : 3793,
      "type" : "VEC2"
    },
    {
      "bufferView" : 7,
      "componentType" : 5126,
      "count" : 3793,
      "type" : "VEC2"
    }
  ]
}
