{
  "asset" : {
    "generator" : "UE Viewer (umodel) build 1579 based",
    "version" : "2.0"
  },
  "scene" : 0,
  "scenes" : [
    {
      "nodes" : [ 0 ]
    }
  ],
  "nodes" : [
    {
      "name" : "S_Envi_Train_Building_Merge_06a",
      "mesh" : 0
    }
  ],
  "materials" : [
    {
      "name" : "MI_Envi_Train_Box_01a",
      "pbrMetallicRoughness" : {
        "baseColorFactor" : [ 0.3, 0.3, 0.3, 1.0 ],
        "metallicFactor" : 0.1,
        "roughnessFactor" : 0.5
      }
    }
  ],
  "meshes" : [
    {
      "primitives" : [
        {
          "attributes" : {
            "POSITION" : 1,
            "NORMAL" : 2,
            "TANGENT" : 3,
            "TEXCOORD_0" : 4,
            "TEXCOORD_1" : 5,
            "TEXCOORD_2" : 6,
            "TEXCOORD_3" : 7
          },
          "indices" : 0,
          "material" : 0
        }
      ],
      "name" : "S_Envi_Train_Building_Merge_06a"
    }
  ],
  "buffers" : [
    {
      "uri" : "S_Envi_Train_Building_Merge_06a.bin",
      "byteLength" : 392628
    }
  ],
  "bufferViews" : [
    {
      "buffer" : 0,
      "byteOffset" : 0,
      "byteLength" : 19164
    },
    {
      "buffer" : 0,
      "byteOffset" : 19164,
      "byteLength" : 62244
    },
    {
      "buffer" : 0,
      "byteOffset" : 81408,
      "byteLength" : 62244
    },
    {
      "buffer" : 0,
      "byteOffset" : 143652,
      "byteLength" : 82992
    },
    {
      "buffer" : 0,
      "byteOffset" : 226644,
      "byteLength" : 41496
    },
    {
      "buffer" : 0,
      "byteOffset" : 268140,
      "byteLength" : 41496
    },
    {
      "buffer" : 0,
      "byteOffset" : 309636,
      "byteLength" : 41496
    },
    {
      "buffer" : 0,
      "byteOffset" : 351132,
      "byteLength" : 41496
    }
  ],
  "accessors" : [
    {
      "bufferView" : 0,
      "componentType" : 5123,
      "count" : 9582,
      "type" : "SCALAR"
    },
    {
      "bufferView" : 1,
      "min" : [ -85.1, 2.04, -60.5017 ],
      "max" : [ -67.198, 40.01, -29.9629 ],
      "componentType" : 5126,
      "count" : 5187,
      "type" : "VEC3"
    },
    {
      "bufferView" : 2,
      "componentType" : 5126,
      "count" : 5187,
      "type" : "VEC3"
    },
    {
      "bufferView" : 3,
      "componentType" : 5126,
      "count" : 5187,
      "type" : "VEC4"
    },
    {
      "bufferView" : 4,
      "componentType" : 5126,
      "count" : 5187,
      "type" : "VEC2"
    },
    {
      "bufferView" : 5,
      "componentType" : 5126,
      "count" : 5187,
      "type" : "VEC2"
    },
    {
      "bufferView" : 6,
      "componentType" : 5126,
      "count" : 5187,
      "type" : "VEC2"
    },
    {
      "bufferView" : 7,
      "componentType" : 5126,
      "count" : 5187,
      "type" : "VEC2"
    }
  ]
}
