{
  "asset" : {
    "generator" : "UE Viewer (umodel) build 1579 based",
    "version" : "2.0"
  },
  "scene" : 0,
  "scenes" : [
    {
      "nodes" : [ 0 ]
    }
  ],
  "nodes" : [
    {
      "name" : "S_Envi_Train_Building_Merge_05a",
      "mesh" : 0
    }
  ],
  "materials" : [
    {
      "name" : "MI_Envi_Train_Ground_02a",
      "pbrMetallicRoughness" : {
        "baseColorFactor" : [ 0.3, 0.3, 0.3, 1.0 ],
        "metallicFactor" : 0.1,
        "roughnessFactor" : 0.5
      }
    },
    {
      "name" : "MI_Envi_Train_Ground_01a",
      "pbrMetallicRoughness" : {
        "baseColorFactor" : [ 0.9, 0.3, 0.3, 1.0 ],
        "metallicFactor" : 0.1,
        "roughnessFactor" : 0.5
      }
    }
  ],
  "meshes" : [
    {
      "primitives" : [
        {
          "attributes" : {
            "POSITION" : 1,
            "NORMAL" : 2,
            "TANGENT" : 3,
            "TEXCOORD_0" : 4,
            "TEXCOORD_1" : 5,
            "TEXCOORD_2" : 6,
            "TEXCOORD_3" : 7
          },
          "indices" : 0,
          "material" : 0
        },
        {
          "attributes" : {
            "POSITION" : 9,
            "NORMAL" : 10,
            "TANGENT" : 11,
            "TEXCOORD_0" : 12,
            "TEXCOORD_1" : 13,
            "TEXCOORD_2" : 14,
            "TEXCOORD_3" : 15
          },
          "indices" : 8,
          "material" : 1
        }
      ],
      "name" : "S_Envi_Train_Building_Merge_05a"
    }
  ],
  "buffers" : [
    {
      "uri" : "S_Envi_Train_Building_Merge_05a.bin",
      "byteLength" : 227712
    }
  ],
  "bufferViews" : [
    {
      "buffer" : 0,
      "byteOffset" : 0,
      "byteLength" : 9168
    },
    {
      "buffer" : 0,
      "byteOffset" : 9168,
      "byteLength" : 28632
    },
    {
      "buffer" : 0,
      "byteOffset" : 37800,
      "byteLength" : 28632
    },
    {
      "buffer" : 0,
      "byteOffset" : 66432,
      "byteLength" : 38176
    },
    {
      "buffer" : 0,
      "byteOffset" : 104608,
      "byteLength" : 19088
    },
    {
      "buffer" : 0,
      "byteOffset" : 123696,
      "byteLength" : 19088
    },
    {
      "buffer" : 0,
      "byteOffset" : 142784,
      "byteLength" : 19088
    },
    {
      "buffer" : 0,
      "byteOffset" : 161872,
      "byteLength" : 19088
    },
    {
      "buffer" : 0,
      "byteOffset" : 180960,
      "byteLength" : 1824
    },
    {
      "buffer" : 0,
      "byteOffset" : 182784,
      "byteLength" : 7488
    },
    {
      "buffer" : 0,
      "byteOffset" : 190272,
      "byteLength" : 7488
    },
    {
      "buffer" : 0,
      "byteOffset" : 197760,
      "byteLength" : 9984
    },
    {
      "buffer" : 0,
      "byteOffset" : 207744,
      "byteLength" : 4992
    },
    {
      "buffer" : 0,
      "byteOffset" : 212736,
      "byteLength" : 4992
    },
    {
      "buffer" : 0,
      "byteOffset" : 217728,
      "byteLength" : 4992
    },
    {
      "buffer" : 0,
      "byteOffset" : 222720,
      "byteLength" : 4992
    }
  ],
  "accessors" : [
    {
      "bufferView" : 0,
      "componentType" : 5123,
      "count" : 4584,
      "type" : "SCALAR"
    },
    {
      "bufferView" : 1,
      "min" : [ -94.8233, 1.24052, -47.5045 ],
      "max" : [ -80.2102, 12.5236, -27.2182 ],
      "componentType" : 5126,
      "count" : 2386,
      "type" : "VEC3"
    },
    {
      "bufferView" : 2,
      "componentType" : 5126,
      "count" : 2386,
      "type" : "VEC3"
    },
    {
      "bufferView" : 3,
      "componentType" : 5126,
      "count" : 2386,
      "type" : "VEC4"
    },
    {
      "bufferView" : 4,
      "componentType" : 5126,
      "count" : 2386,
      "type" : "VEC2"
    },
    {
      "bufferView" : 5,
      "componentType" : 5126,
      "count" : 2386,
      "type" : "VEC2"
    },
    {
      "bufferView" : 6,
      "componentType" : 5126,
      "count" : 2386,
      "type" : "VEC2"
    },
    {
      "bufferView" : 7,
      "componentType" : 5126,
      "count" : 2386,
      "type" : "VEC2"
    },
    {
      "bufferView" : 8,
      "componentType" : 5123,
      "count" : 912,
      "type" : "SCALAR"
    },
    {
      "bufferView" : 9,
      "min" : [ -94.8233, 1.24052, -47.3001 ],
      "max" : [ -80.2102, 12.5236, -28.2807 ],
      "componentType" : 5126,
      "count" : 624,
      "type" : "VEC3"
    },
    {
      "bufferView" : 10,
      "componentType" : 5126,
      "count" : 624,
      "type" : "VEC3"
    },
    {
      "bufferView" : 11,
      "componentType" : 5126,
      "count" : 624,
      "type" : "VEC4"
    },
    {
      "bufferView" : 12,
      "componentType" : 5126,
      "count" : 624,
      "type" : "VEC2"
    },
    {
      "bufferView" : 13,
      "componentType" : 5126,
      "count" : 624,
      "type" : "VEC2"
    },
    {
      "bufferView" : 14,
      "componentType" : 5126,
      "count" : 624,
      "type" : "VEC2"
    },
    {
      "bufferView" : 15,
      "componentType" : 5126,
      "count" : 624,
      "type" : "VEC2"
    }
  ]
}
