{
  "asset" : {
    "generator" : "UE Viewer (umodel) build 1579 based",
    "version" : "2.0"
  },
  "scene" : 0,
  "scenes" : [
    {
      "nodes" : [ 0 ]
    }
  ],
  "nodes" : [
    {
      "name" : "S_Envi_Train_Building_Merge_13b",
      "mesh" : 0
    }
  ],
  "materials" : [
    {
      "name" : "MI_Envi_Train_Ladder_01a",
      "pbrMetallicRoughness" : {
        "baseColorFactor" : [ 0.3, 0.3, 0.3, 1.0 ],
        "metallicFactor" : 0.1,
        "roughnessFactor" : 0.5
      }
    },
    {
      "name" : "MI_Envi_Train_Ladder_02a",
      "pbrMetallicRoughness" : {
        "baseColorFactor" : [ 0.9, 0.3, 0.3, 1.0 ],
        "metallicFactor" : 0.1,
        "roughnessFactor" : 0.5
      }
    }
  ],
  "meshes" : [
    {
      "primitives" : [
        {
          "attributes" : {
            "POSITION" : 1,
            "NORMAL" : 2,
            "TANGENT" : 3,
            "TEXCOORD_0" : 4,
            "TEXCOORD_1" : 5,
            "TEXCOORD_2" : 6,
            "TEXCOORD_3" : 7
          },
          "indices" : 0,
          "material" : 0
        },
        {
          "attributes" : {
            "POSITION" : 9,
            "NORMAL" : 10,
            "TANGENT" : 11,
            "TEXCOORD_0" : 12,
            "TEXCOORD_1" : 13,
            "TEXCOORD_2" : 14,
            "TEXCOORD_3" : 15
          },
          "indices" : 8,
          "material" : 1
        }
      ],
      "name" : "S_Envi_Train_Building_Merge_13b"
    }
  ],
  "buffers" : [
    {
      "uri" : "S_Envi_Train_Building_Merge_13b.bin",
      "byteLength" : 109524
    }
  ],
  "bufferViews" : [
    {
      "buffer" : 0,
      "byteOffset" : 0,
      "byteLength" : 3588
    },
    {
      "buffer" : 0,
      "byteOffset" : 3588,
      "byteLength" : 17136
    },
    {
      "buffer" : 0,
      "byteOffset" : 20724,
      "byteLength" : 17136
    },
    {
      "buffer" : 0,
      "byteOffset" : 37860,
      "byteLength" : 22848
    },
    {
      "buffer" : 0,
      "byteOffset" : 60708,
      "byteLength" : 11424
    },
    {
      "buffer" : 0,
      "byteOffset" : 72132,
      "byteLength" : 11424
    },
    {
      "buffer" : 0,
      "byteOffset" : 83556,
      "byteLength" : 11424
    },
    {
      "buffer" : 0,
      "byteOffset" : 94980,
      "byteLength" : 11424
    },
    {
      "buffer" : 0,
      "byteOffset" : 106404,
      "byteLength" : 96
    },
    {
      "buffer" : 0,
      "byteOffset" : 106500,
      "byteLength" : 504
    },
    {
      "buffer" : 0,
      "byteOffset" : 107004,
      "byteLength" : 504
    },
    {
      "buffer" : 0,
      "byteOffset" : 107508,
      "byteLength" : 672
    },
    {
      "buffer" : 0,
      "byteOffset" : 108180,
      "byteLength" : 336
    },
    {
      "buffer" : 0,
      "byteOffset" : 108516,
      "byteLength" : 336
    },
    {
      "buffer" : 0,
      "byteOffset" : 108852,
      "byteLength" : 336
    },
    {
      "buffer" : 0,
      "byteOffset" : 109188,
      "byteLength" : 336
    }
  ],
  "accessors" : [
    {
      "bufferView" : 0,
      "componentType" : 5123,
      "count" : 1794,
      "type" : "SCALAR"
    },
    {
      "bufferView" : 1,
      "min" : [ 37.7587, 23.3107, -64.0774 ],
      "max" : [ 46.7103, 25.5695, -53.5395 ],
      "componentType" : 5126,
      "count" : 1428,
      "type" : "VEC3"
    },
    {
      "bufferView" : 2,
      "componentType" : 5126,
      "count" : 1428,
      "type" : "VEC3"
    },
    {
      "bufferView" : 3,
      "componentType" : 5126,
      "count" : 1428,
      "type" : "VEC4"
    },
    {
      "bufferView" : 4,
      "componentType" : 5126,
      "count" : 1428,
      "type" : "VEC2"
    },
    {
      "bufferView" : 5,
      "componentType" : 5126,
      "count" : 1428,
      "type" : "VEC2"
    },
    {
      "bufferView" : 6,
      "componentType" : 5126,
      "count" : 1428,
      "type" : "VEC2"
    },
    {
      "bufferView" : 7,
      "componentType" : 5126,
      "count" : 1428,
      "type" : "VEC2"
    },
    {
      "bufferView" : 8,
      "componentType" : 5123,
      "count" : 48,
      "type" : "SCALAR"
    },
    {
      "bufferView" : 9,
      "min" : [ 40.5113, 23.4422, -64.0774 ],
      "max" : [ 46.7103, 24.2813, -61.2351 ],
      "componentType" : 5126,
      "count" : 42,
      "type" : "VEC3"
    },
    {
      "bufferView" : 10,
      "componentType" : 5126,
      "count" : 42,
      "type" : "VEC3"
    },
    {
      "bufferView" : 11,
      "componentType" : 5126,
      "count" : 42,
      "type" : "VEC4"
    },
    {
      "bufferView" : 12,
      "componentType" : 5126,
      "count" : 42,
      "type" : "VEC2"
    },
    {
      "bufferView" : 13,
      "componentType" : 5126,
      "count" : 42,
      "type" : "VEC2"
    },
    {
      "bufferView" : 14,
      "componentType" : 5126,
      "count" : 42,
      "type" : "VEC2"
    },
    {
      "bufferView" : 15,
      "componentType" : 5126,
      "count" : 42,
      "type" : "VEC2"
    }
  ]
}
