{
  "asset" : {
    "generator" : "UE Viewer (umodel) build 1579 based",
    "version" : "2.0"
  },
  "scene" : 0,
  "scenes" : [
    {
      "nodes" : [ 0 ]
    }
  ],
  "nodes" : [
    {
      "name" : "S_Envi_Train_Building_Merge_15b",
      "mesh" : 0
    }
  ],
  "materials" : [
    {
      "name" : "MI_Envi_Train_Ground_02a",
      "pbrMetallicRoughness" : {
        "baseColorFactor" : [ 0.3, 0.3, 0.3, 1.0 ],
        "metallicFactor" : 0.1,
        "roughnessFactor" : 0.5
      }
    },
    {
      "name" : "MI_Envi_Train_Ground_01a",
      "pbrMetallicRoughness" : {
        "baseColorFactor" : [ 0.9, 0.3, 0.3, 1.0 ],
        "metallicFactor" : 0.1,
        "roughnessFactor" : 0.5
      }
    }
  ],
  "meshes" : [
    {
      "primitives" : [
        {
          "attributes" : {
            "POSITION" : 1,
            "NORMAL" : 2,
            "TANGENT" : 3,
            "TEXCOORD_0" : 4,
            "TEXCOORD_1" : 5,
            "TEXCOORD_2" : 6
          },
          "indices" : 0,
          "material" : 0
        },
        {
          "attributes" : {
            "POSITION" : 8,
            "NORMAL" : 9,
            "TANGENT" : 10,
            "TEXCOORD_0" : 11,
            "TEXCOORD_1" : 12,
            "TEXCOORD_2" : 13
          },
          "indices" : 7,
          "material" : 1
        }
      ],
      "name" : "S_Envi_Train_Building_Merge_15b"
    }
  ],
  "buffers" : [
    {
      "uri" : "S_Envi_Train_Building_Merge_15b.bin",
      "byteLength" : 152512
    }
  ],
  "bufferViews" : [
    {
      "buffer" : 0,
      "byteOffset" : 0,
      "byteLength" : 3968
    },
    {
      "buffer" : 0,
      "byteOffset" : 3968,
      "byteLength" : 11400
    },
    {
      "buffer" : 0,
      "byteOffset" : 15368,
      "byteLength" : 11400
    },
    {
      "buffer" : 0,
      "byteOffset" : 26768,
      "byteLength" : 15200
    },
    {
      "buffer" : 0,
      "byteOffset" : 41968,
      "byteLength" : 7600
    },
    {
      "buffer" : 0,
      "byteOffset" : 49568,
      "byteLength" : 7600
    },
    {
      "buffer" : 0,
      "byteOffset" : 57168,
      "byteLength" : 7600
    },
    {
      "buffer" : 0,
      "byteOffset" : 64768,
      "byteLength" : 4608
    },
    {
      "buffer" : 0,
      "byteOffset" : 69376,
      "byteLength" : 15588
    },
    {
      "buffer" : 0,
      "byteOffset" : 84964,
      "byteLength" : 15588
    },
    {
      "buffer" : 0,
      "byteOffset" : 100552,
      "byteLength" : 20784
    },
    {
      "buffer" : 0,
      "byteOffset" : 121336,
      "byteLength" : 10392
    },
    {
      "buffer" : 0,
      "byteOffset" : 131728,
      "byteLength" : 10392
    },
    {
      "buffer" : 0,
      "byteOffset" : 142120,
      "byteLength" : 10392
    }
  ],
  "accessors" : [
    {
      "bufferView" : 0,
      "componentType" : 5123,
      "count" : 1983,
      "type" : "SCALAR"
    },
    {
      "bufferView" : 1,
      "min" : [ 46.9426, 21.2382, 2.03247 ],
      "max" : [ 75.4289, 31.9964, 20.401 ],
      "componentType" : 5126,
      "count" : 950,
      "type" : "VEC3"
    },
    {
      "bufferView" : 2,
      "componentType" : 5126,
      "count" : 950,
      "type" : "VEC3"
    },
    {
      "bufferView" : 3,
      "componentType" : 5126,
      "count" : 950,
      "type" : "VEC4"
    },
    {
      "bufferView" : 4,
      "componentType" : 5126,
      "count" : 950,
      "type" : "VEC2"
    },
    {
      "bufferView" : 5,
      "componentType" : 5126,
      "count" : 950,
      "type" : "VEC2"
    },
    {
      "bufferView" : 6,
      "componentType" : 5126,
      "count" : 950,
      "type" : "VEC2"
    },
    {
      "bufferView" : 7,
      "componentType" : 5123,
      "count" : 2304,
      "type" : "SCALAR"
    },
    {
      "bufferView" : 8,
      "min" : [ 46.28, 23.0064, 1.98247 ],
      "max" : [ 75.4289, 31.9964, 21.97 ],
      "componentType" : 5126,
      "count" : 1299,
      "type" : "VEC3"
    },
    {
      "bufferView" : 9,
      "componentType" : 5126,
      "count" : 1299,
      "type" : "VEC3"
    },
    {
      "bufferView" : 10,
      "componentType" : 5126,
      "count" : 1299,
      "type" : "VEC4"
    },
    {
      "bufferView" : 11,
      "componentType" : 5126,
      "count" : 1299,
      "type" : "VEC2"
    },
    {
      "bufferView" : 12,
      "componentType" : 5126,
      "count" : 1299,
      "type" : "VEC2"
    },
    {
      "bufferView" : 13,
      "componentType" : 5126,
      "count" : 1299,
      "type" : "VEC2"
    }
  ]
}
