{
  "asset" : {
    "generator" : "UE Viewer (umodel) build 1579 based",
    "version" : "2.0"
  },
  "scene" : 0,
  "scenes" : [
    {
      "nodes" : [ 0 ]
    }
  ],
  "nodes" : [
    {
      "name" : "SK_Weap_MG42_105_Pendant",
      "mesh" : 0,
      "skin" : 0,
      "children" : [ 1 ]
    },
    {
      "name" : "Root",
      "children" : [ 2 ],
      "translation" : [ 0, 0, 0 ],
      "rotation" : [ 4.01339e-07, -1.62921e-07, 4.37115e-08, 1 ]
    },
    {
      "name" : "Root_End",
      "translation" : [ 0.166954, -4.23516e-24, 5.05491e-09 ],
      "rotation" : [ 2.83911e-14, -6.66449e-15, 1.32347e-23, -1 ]
    }
  ],
  "skins" : [
    {
      "inverseBindMatrices" : 0,
      "skeleton" : 1,
      "joints" : [
        1,2
      ]
    }
  ],
  "materials" : [
    {
      "name" : "MI_Weap_MG42_01_105",
      "pbrMetallicRoughness" : {
        "baseColorFactor" : [ 0.3, 0.3, 0.3, 1.0 ],
        "metallicFactor" : 0.1,
        "roughnessFactor" : 0.5
      }
    }
  ],
  "meshes" : [
    {
      "primitives" : [
        {
          "attributes" : {
            "POSITION" : 2,
            "NORMAL" : 3,
            "TANGENT" : 4,
            "JOINTS_0" : 5,
            "WEIGHTS_0" : 6,
            "TEXCOORD_0" : 7
          },
          "indices" : 1,
          "material" : 0
        }
      ],
      "name" : "SK_Weap_MG42_105_Pendant"
    }
  ],
  "buffers" : [
    {
      "uri" : "SK_Weap_MG42_105_Pendant.bin",
      "byteLength" : 23864
    }
  ],
  "bufferViews" : [
    {
      "buffer" : 0,
      "byteOffset" : 0,
      "byteLength" : 128
    },
    {
      "buffer" : 0,
      "byteOffset" : 128,
      "byteLength" : 2136
    },
    {
      "buffer" : 0,
      "byteOffset" : 2264,
      "byteLength" : 4320
    },
    {
      "buffer" : 0,
      "byteOffset" : 6584,
      "byteLength" : 4320
    },
    {
      "buffer" : 0,
      "byteOffset" : 10904,
      "byteLength" : 5760
    },
    {
      "buffer" : 0,
      "byteOffset" : 16664,
      "byteLength" : 2880
    },
    {
      "buffer" : 0,
      "byteOffset" : 19544,
      "byteLength" : 1440
    },
    {
      "buffer" : 0,
      "byteOffset" : 20984,
      "byteLength" : 2880
    }
  ],
  "accessors" : [
    {
      "bufferView" : 0,
      "componentType" : 5126,
      "count" : 2,
      "type" : "MAT4"
    },
    {
      "bufferView" : 1,
      "componentType" : 5123,
      "count" : 1068,
      "type" : "SCALAR"
    },
    {
      "bufferView" : 2,
      "min" : [ -0.0185316, -0.0148165, -0.0486259 ],
      "max" : [ 0.164786, 0.0145234, 0.0486232 ],
      "componentType" : 5126,
      "count" : 360,
      "type" : "VEC3"
    },
    {
      "bufferView" : 3,
      "componentType" : 5126,
      "count" : 360,
      "type" : "VEC3"
    },
    {
      "bufferView" : 4,
      "componentType" : 5126,
      "count" : 360,
      "type" : "VEC4"
    },
    {
      "bufferView" : 5,
      "componentType" : 5123,
      "count" : 360,
      "type" : "VEC4"
    },
    {
      "bufferView" : 6,
      "normalized" : true,
      "componentType" : 5121,
      "count" : 360,
      "type" : "VEC4"
    },
    {
      "bufferView" : 7,
      "componentType" : 5126,
      "count" : 360,
      "type" : "VEC2"
    }
  ]
}
