{
  "asset" : {
    "generator" : "UE Viewer (umodel) build 1579 based",
    "version" : "2.0"
  },
  "scene" : 0,
  "scenes" : [
    {
      "nodes" : [ 0 ]
    }
  ],
  "nodes" : [
    {
      "name" : "SK_Weap_MG42_105_PendantThird",
      "mesh" : 0,
      "skin" : 0,
      "children" : [ 1 ]
    },
    {
      "name" : "Root",
      "children" : [ 2 ],
      "translation" : [ 0, 0, 0 ],
      "rotation" : [ 1.62921e-07, -4.37114e-08, 4.37114e-08, 1 ]
    },
    {
      "name" : "Root_End",
      "translation" : [ 0.0582841, 1.13687e-15, 8.28875e-10 ],
      "rotation" : [ -3.0616e-17, -3.21246e-17, -1.32349e-23, -1 ]
    }
  ],
  "skins" : [
    {
      "inverseBindMatrices" : 0,
      "skeleton" : 1,
      "joints" : [
        1,2
      ]
    }
  ],
  "materials" : [
    {
      "name" : "MI_Weap_MG42_01_105",
      "pbrMetallicRoughness" : {
        "baseColorFactor" : [ 0.3, 0.3, 0.3, 1.0 ],
        "metallicFactor" : 0.1,
        "roughnessFactor" : 0.5
      }
    }
  ],
  "meshes" : [
    {
      "primitives" : [
        {
          "attributes" : {
            "POSITION" : 2,
            "NORMAL" : 3,
            "TANGENT" : 4,
            "JOINTS_0" : 5,
            "WEIGHTS_0" : 6,
            "TEXCOORD_0" : 7
          },
          "indices" : 1,
          "material" : 0
        }
      ],
      "name" : "SK_Weap_MG42_105_PendantThird"
    }
  ],
  "buffers" : [
    {
      "uri" : "SK_Weap_MG42_105_PendantThird.bin",
      "byteLength" : 4976
    }
  ],
  "bufferViews" : [
    {
      "buffer" : 0,
      "byteOffset" : 0,
      "byteLength" : 128
    },
    {
      "buffer" : 0,
      "byteOffset" : 128,
      "byteLength" : 408
    },
    {
      "buffer" : 0,
      "byteOffset" : 536,
      "byteLength" : 888
    },
    {
      "buffer" : 0,
      "byteOffset" : 1424,
      "byteLength" : 888
    },
    {
      "buffer" : 0,
      "byteOffset" : 2312,
      "byteLength" : 1184
    },
    {
      "buffer" : 0,
      "byteOffset" : 3496,
      "byteLength" : 592
    },
    {
      "buffer" : 0,
      "byteOffset" : 4088,
      "byteLength" : 296
    },
    {
      "buffer" : 0,
      "byteOffset" : 4384,
      "byteLength" : 592
    }
  ],
  "accessors" : [
    {
      "bufferView" : 0,
      "componentType" : 5126,
      "count" : 2,
      "type" : "MAT4"
    },
    {
      "bufferView" : 1,
      "componentType" : 5123,
      "count" : 204,
      "type" : "SCALAR"
    },
    {
      "bufferView" : 2,
      "min" : [ -0.00736872, -0.0120931, -0.0109427 ],
      "max" : [ 0.0566272, 0.0128755, 0.0107893 ],
      "componentType" : 5126,
      "count" : 74,
      "type" : "VEC3"
    },
    {
      "bufferView" : 3,
      "componentType" : 5126,
      "count" : 74,
      "type" : "VEC3"
    },
    {
      "bufferView" : 4,
      "componentType" : 5126,
      "count" : 74,
      "type" : "VEC4"
    },
    {
      "bufferView" : 5,
      "componentType" : 5123,
      "count" : 74,
      "type" : "VEC4"
    },
    {
      "bufferView" : 6,
      "normalized" : true,
      "componentType" : 5121,
      "count" : 74,
      "type" : "VEC4"
    },
    {
      "bufferView" : 7,
      "componentType" : 5126,
      "count" : 74,
      "type" : "VEC2"
    }
  ]
}
