{
  "asset" : {
    "generator" : "UE Viewer (umodel) build 1579 based",
    "version" : "2.0"
  },
  "scene" : 0,
  "scenes" : [
    {
      "nodes" : [ 0 ]
    }
  ],
  "nodes" : [
    {
      "name" : "SK_Weap_Kanami_WT",
      "mesh" : 0,
      "skin" : 0,
      "children" : [ 1 ]
    },
    {
      "name" : "zong",
      "children" : [ 2, 3, 4, 5 ],
      "translation" : [ 0, 0, 0 ],
      "rotation" : [ -0, -0, -0, 1 ]
    },
    {
      "name" : "zhongjian_01",
      "translation" : [ 0, 0, -0 ],
      "rotation" : [ -0, -0, 0, -1 ]
    },
    {
      "name" : "waiwei_01",
      "translation" : [ 0, 0, -0.0329066 ],
      "rotation" : [ -0, -0, 0, -1 ]
    },
    {
      "name" : "waiwei_03",
      "translation" : [ 0.03461, 0, 0.0210669 ],
      "rotation" : [ -0.965926, 1.13133e-08, -0.258819, -4.2222e-08 ]
    },
    {
      "name" : "waiwei_02",
      "translation" : [ -0.0346108, 0, 0.0210669 ],
      "rotation" : [ -0, -0.258819, 0, -0.965926 ]
    }
  ],
  "skins" : [
    {
      "inverseBindMatrices" : 0,
      "skeleton" : 1,
      "joints" : [
        1,2,3,4,5
      ]
    }
  ],
  "materials" : [
    {
      "name" : "MI_Weap_Kanami_WT_01",
      "pbrMetallicRoughness" : {
        "baseColorFactor" : [ 0.3, 0.3, 0.3, 1.0 ],
        "metallicFactor" : 0.1,
        "roughnessFactor" : 0.5
      }
    }
  ],
  "meshes" : [
    {
      "primitives" : [
        {
          "attributes" : {
            "POSITION" : 2,
            "NORMAL" : 3,
            "TANGENT" : 4,
            "JOINTS_0" : 5,
            "WEIGHTS_0" : 6,
            "TEXCOORD_0" : 7
          },
          "indices" : 1,
          "material" : 0
        }
      ],
      "name" : "SK_Weap_Kanami_WT"
    }
  ],
  "buffers" : [
    {
      "uri" : "SK_Weap_Kanami_WT.bin",
      "byteLength" : 198020
    }
  ],
  "bufferViews" : [
    {
      "buffer" : 0,
      "byteOffset" : 0,
      "byteLength" : 320
    },
    {
      "buffer" : 0,
      "byteOffset" : 320,
      "byteLength" : 23460
    },
    {
      "buffer" : 0,
      "byteOffset" : 23780,
      "byteLength" : 34848
    },
    {
      "buffer" : 0,
      "byteOffset" : 58628,
      "byteLength" : 34848
    },
    {
      "buffer" : 0,
      "byteOffset" : 93476,
      "byteLength" : 46464
    },
    {
      "buffer" : 0,
      "byteOffset" : 139940,
      "byteLength" : 23232
    },
    {
      "buffer" : 0,
      "byteOffset" : 163172,
      "byteLength" : 11616
    },
    {
      "buffer" : 0,
      "byteOffset" : 174788,
      "byteLength" : 23232
    }
  ],
  "accessors" : [
    {
      "bufferView" : 0,
      "componentType" : 5126,
      "count" : 5,
      "type" : "MAT4"
    },
    {
      "bufferView" : 1,
      "componentType" : 5123,
      "count" : 11730,
      "type" : "SCALAR"
    },
    {
      "bufferView" : 2,
      "min" : [ -0.0520461, -0.00705967, -0.0482024 ],
      "max" : [ 0.0520461, 0.00705963, 0.0482024 ],
      "componentType" : 5126,
      "count" : 2904,
      "type" : "VEC3"
    },
    {
      "bufferView" : 3,
      "componentType" : 5126,
      "count" : 2904,
      "type" : "VEC3"
    },
    {
      "bufferView" : 4,
      "componentType" : 5126,
      "count" : 2904,
      "type" : "VEC4"
    },
    {
      "bufferView" : 5,
      "componentType" : 5123,
      "count" : 2904,
      "type" : "VEC4"
    },
    {
      "bufferView" : 6,
      "normalized" : true,
      "componentType" : 5121,
      "count" : 2904,
      "type" : "VEC4"
    },
    {
      "bufferView" : 7,
      "componentType" : 5126,
      "count" : 2904,
      "type" : "VEC2"
    }
  ]
}
