{
  "asset" : {
    "generator" : "UE Viewer (umodel) build 1579 based",
    "version" : "2.0"
  },
  "scene" : 0,
  "scenes" : [
    {
      "nodes" : [ 0 ]
    }
  ],
  "nodes" : [
    {
      "name" : "S_Envi_Central_Props_037",
      "mesh" : 0
    }
  ],
  "materials" : [
    {
      "name" : "MI_Envi_Common_Edging_002",
      "pbrMetallicRoughness" : {
        "baseColorFactor" : [ 0.3, 0.3, 0.3, 1.0 ],
        "metallicFactor" : 0.1,
        "roughnessFactor" : 0.5
      }
    }
  ],
  "meshes" : [
    {
      "primitives" : [
        {
          "attributes" : {
            "POSITION" : 1,
            "NORMAL" : 2,
            "TANGENT" : 3,
            "TEXCOORD_0" : 4,
            "TEXCOORD_1" : 5
          },
          "indices" : 0,
          "material" : 0
        }
      ],
      "name" : "S_Envi_Central_Props_037"
    }
  ],
  "buffers" : [
    {
      "uri" : "S_Envi_Central_Props_037.bin",
      "byteLength" : 114440
    }
  ],
  "bufferViews" : [
    {
      "buffer" : 0,
      "byteOffset" : 0,
      "byteLength" : 7424
    },
    {
      "buffer" : 0,
      "byteOffset" : 7424,
      "byteLength" : 22932
    },
    {
      "buffer" : 0,
      "byteOffset" : 30356,
      "byteLength" : 22932
    },
    {
      "buffer" : 0,
      "byteOffset" : 53288,
      "byteLength" : 30576
    },
    {
      "buffer" : 0,
      "byteOffset" : 83864,
      "byteLength" : 15288
    },
    {
      "buffer" : 0,
      "byteOffset" : 99152,
      "byteLength" : 15288
    }
  ],
  "accessors" : [
    {
      "bufferView" : 0,
      "componentType" : 5123,
      "count" : 3711,
      "type" : "SCALAR"
    },
    {
      "bufferView" : 1,
      "min" : [ -1.94915, -6.10352e-07, -12.926 ],
      "max" : [ 1.08575, 16.0855, 24.1358 ],
      "componentType" : 5126,
      "count" : 1911,
      "type" : "VEC3"
    },
    {
      "bufferView" : 2,
      "componentType" : 5126,
      "count" : 1911,
      "type" : "VEC3"
    },
    {
      "bufferView" : 3,
      "componentType" : 5126,
      "count" : 1911,
      "type" : "VEC4"
    },
    {
      "bufferView" : 4,
      "componentType" : 5126,
      "count" : 1911,
      "type" : "VEC2"
    },
    {
      "bufferView" : 5,
      "componentType" : 5126,
      "count" : 1911,
      "type" : "VEC2"
    }
  ]
}
