{
  "asset" : {
    "generator" : "UE Viewer (umodel) build 1579 based",
    "version" : "2.0"
  },
  "scene" : 0,
  "scenes" : [
    {
      "nodes" : [ 0 ]
    }
  ],
  "nodes" : [
    {
      "name" : "S_Envi_Laboratory_Wall_007b",
      "mesh" : 0
    }
  ],
  "materials" : [
    {
      "name" : "MI_Envi_Laboratory_Erengybox_002b",
      "pbrMetallicRoughness" : {
        "baseColorFactor" : [ 0.3, 0.3, 0.3, 1.0 ],
        "metallicFactor" : 0.1,
        "roughnessFactor" : 0.5
      }
    },
    {
      "name" : "MI_Envi_Laboratory_Building_001e",
      "pbrMetallicRoughness" : {
        "baseColorFactor" : [ 0.9, 0.3, 0.3, 1.0 ],
        "metallicFactor" : 0.1,
        "roughnessFactor" : 0.5
      }
    }
  ],
  "meshes" : [
    {
      "primitives" : [
        {
          "attributes" : {
            "POSITION" : 1,
            "NORMAL" : 2,
            "TANGENT" : 3,
            "TEXCOORD_0" : 4,
            "TEXCOORD_1" : 5
          },
          "indices" : 0,
          "material" : 0
        },
        {
          "attributes" : {
            "POSITION" : 7,
            "NORMAL" : 8,
            "TANGENT" : 9,
            "TEXCOORD_0" : 10,
            "TEXCOORD_1" : 11
          },
          "indices" : 6,
          "material" : 1
        }
      ],
      "name" : "S_Envi_Laboratory_Wall_007b"
    }
  ],
  "buffers" : [
    {
      "uri" : "S_Envi_Laboratory_Wall_007b.bin",
      "byteLength" : 29904
    }
  ],
  "bufferViews" : [
    {
      "buffer" : 0,
      "byteOffset" : 0,
      "byteLength" : 1392
    },
    {
      "buffer" : 0,
      "byteOffset" : 1392,
      "byteLength" : 3432
    },
    {
      "buffer" : 0,
      "byteOffset" : 4824,
      "byteLength" : 3432
    },
    {
      "buffer" : 0,
      "byteOffset" : 8256,
      "byteLength" : 4576
    },
    {
      "buffer" : 0,
      "byteOffset" : 12832,
      "byteLength" : 2288
    },
    {
      "buffer" : 0,
      "byteOffset" : 15120,
      "byteLength" : 2288
    },
    {
      "buffer" : 0,
      "byteOffset" : 17408,
      "byteLength" : 960
    },
    {
      "buffer" : 0,
      "byteOffset" : 18368,
      "byteLength" : 2472
    },
    {
      "buffer" : 0,
      "byteOffset" : 20840,
      "byteLength" : 2472
    },
    {
      "buffer" : 0,
      "byteOffset" : 23312,
      "byteLength" : 3296
    },
    {
      "buffer" : 0,
      "byteOffset" : 26608,
      "byteLength" : 1648
    },
    {
      "buffer" : 0,
      "byteOffset" : 28256,
      "byteLength" : 1648
    }
  ],
  "accessors" : [
    {
      "bufferView" : 0,
      "componentType" : 5123,
      "count" : 696,
      "type" : "SCALAR"
    },
    {
      "bufferView" : 1,
      "min" : [ -0.233726, -6.10352e-07, -16.5878 ],
      "max" : [ 3.61606, 0.406035, 2.48624e-17 ],
      "componentType" : 5126,
      "count" : 286,
      "type" : "VEC3"
    },
    {
      "bufferView" : 2,
      "componentType" : 5126,
      "count" : 286,
      "type" : "VEC3"
    },
    {
      "bufferView" : 3,
      "componentType" : 5126,
      "count" : 286,
      "type" : "VEC4"
    },
    {
      "bufferView" : 4,
      "componentType" : 5126,
      "count" : 286,
      "type" : "VEC2"
    },
    {
      "bufferView" : 5,
      "componentType" : 5126,
      "count" : 286,
      "type" : "VEC2"
    },
    {
      "bufferView" : 6,
      "componentType" : 5123,
      "count" : 480,
      "type" : "SCALAR"
    },
    {
      "bufferView" : 7,
      "min" : [ 0.211047, -6.10352e-07, -16.253 ],
      "max" : [ 3.17129, 0.0430322, -0.223394 ],
      "componentType" : 5126,
      "count" : 206,
      "type" : "VEC3"
    },
    {
      "bufferView" : 8,
      "componentType" : 5126,
      "count" : 206,
      "type" : "VEC3"
    },
    {
      "bufferView" : 9,
      "componentType" : 5126,
      "count" : 206,
      "type" : "VEC4"
    },
    {
      "bufferView" : 10,
      "componentType" : 5126,
      "count" : 206,
      "type" : "VEC2"
    },
    {
      "bufferView" : 11,
      "componentType" : 5126,
      "count" : 206,
      "type" : "VEC2"
    }
  ]
}
