{
  "asset" : {
    "generator" : "UE Viewer (umodel) build 1579 based",
    "version" : "2.0"
  },
  "scene" : 0,
  "scenes" : [
    {
      "nodes" : [ 0 ]
    }
  ],
  "nodes" : [
    {
      "name" : "S_Envi_Umeda_Ground_003d",
      "mesh" : 0
    }
  ],
  "materials" : [
    {
      "name" : "MI_Envi_Umeda_City_001",
      "pbrMetallicRoughness" : {
        "baseColorFactor" : [ 0.3, 0.3, 0.3, 1.0 ],
        "metallicFactor" : 0.1,
        "roughnessFactor" : 0.5
      }
    }
  ],
  "meshes" : [
    {
      "primitives" : [
        {
          "attributes" : {
            "POSITION" : 1,
            "NORMAL" : 2,
            "TANGENT" : 3,
            "TEXCOORD_0" : 4,
            "TEXCOORD_1" : 5,
            "TEXCOORD_2" : 6,
            "TEXCOORD_3" : 7
          },
          "indices" : 0,
          "material" : 0
        }
      ],
      "name" : "S_Envi_Umeda_Ground_003d"
    }
  ],
  "buffers" : [
    {
      "uri" : "S_Envi_Umeda_Ground_003d.bin",
      "byteLength" : 15060
    }
  ],
  "bufferViews" : [
    {
      "buffer" : 0,
      "byteOffset" : 0,
      "byteLength" : 660
    },
    {
      "buffer" : 0,
      "byteOffset" : 660,
      "byteLength" : 2400
    },
    {
      "buffer" : 0,
      "byteOffset" : 3060,
      "byteLength" : 2400
    },
    {
      "buffer" : 0,
      "byteOffset" : 5460,
      "byteLength" : 3200
    },
    {
      "buffer" : 0,
      "byteOffset" : 8660,
      "byteLength" : 1600
    },
    {
      "buffer" : 0,
      "byteOffset" : 10260,
      "byteLength" : 1600
    },
    {
      "buffer" : 0,
      "byteOffset" : 11860,
      "byteLength" : 1600
    },
    {
      "buffer" : 0,
      "byteOffset" : 13460,
      "byteLength" : 1600
    }
  ],
  "accessors" : [
    {
      "bufferView" : 0,
      "componentType" : 5123,
      "count" : 330,
      "type" : "SCALAR"
    },
    {
      "bufferView" : 1,
      "min" : [ 465.457, -21.27, -260.822 ],
      "max" : [ 989.872, -16.3704, 285.063 ],
      "componentType" : 5126,
      "count" : 200,
      "type" : "VEC3"
    },
    {
      "bufferView" : 2,
      "componentType" : 5126,
      "count" : 200,
      "type" : "VEC3"
    },
    {
      "bufferView" : 3,
      "componentType" : 5126,
      "count" : 200,
      "type" : "VEC4"
    },
    {
      "bufferView" : 4,
      "componentType" : 5126,
      "count" : 200,
      "type" : "VEC2"
    },
    {
      "bufferView" : 5,
      "componentType" : 5126,
      "count" : 200,
      "type" : "VEC2"
    },
    {
      "bufferView" : 6,
      "componentType" : 5126,
      "count" : 200,
      "type" : "VEC2"
    },
    {
      "bufferView" : 7,
      "componentType" : 5126,
      "count" : 200,
      "type" : "VEC2"
    }
  ]
}
