{
  "asset" : {
    "generator" : "UE Viewer (umodel) build 1579 based",
    "version" : "2.0"
  },
  "scene" : 0,
  "scenes" : [
    {
      "nodes" : [ 0 ]
    }
  ],
  "nodes" : [
    {
      "name" : "S_Envi_Umeda_Building_008",
      "mesh" : 0
    }
  ],
  "materials" : [
    {
      "name" : "MI_Envi_Umeda_Base_Building_08",
      "pbrMetallicRoughness" : {
        "baseColorFactor" : [ 0.3, 0.3, 0.3, 1.0 ],
        "metallicFactor" : 0.1,
        "roughnessFactor" : 0.5
      }
    }
  ],
  "meshes" : [
    {
      "primitives" : [
        {
          "attributes" : {
            "POSITION" : 1,
            "NORMAL" : 2,
            "TANGENT" : 3,
            "TEXCOORD_0" : 4,
            "TEXCOORD_1" : 5
          },
          "indices" : 0,
          "material" : 0
        }
      ],
      "name" : "S_Envi_Umeda_Building_008"
    }
  ],
  "buffers" : [
    {
      "uri" : "S_Envi_Umeda_Building_008.bin",
      "byteLength" : 437336
    }
  ],
  "bufferViews" : [
    {
      "buffer" : 0,
      "byteOffset" : 0,
      "byteLength" : 30440
    },
    {
      "buffer" : 0,
      "byteOffset" : 30440,
      "byteLength" : 87192
    },
    {
      "buffer" : 0,
      "byteOffset" : 117632,
      "byteLength" : 87192
    },
    {
      "buffer" : 0,
      "byteOffset" : 204824,
      "byteLength" : 116256
    },
    {
      "buffer" : 0,
      "byteOffset" : 321080,
      "byteLength" : 58128
    },
    {
      "buffer" : 0,
      "byteOffset" : 379208,
      "byteLength" : 58128
    }
  ],
  "accessors" : [
    {
      "bufferView" : 0,
      "componentType" : 5123,
      "count" : 15219,
      "type" : "SCALAR"
    },
    {
      "bufferView" : 1,
      "min" : [ 53.6193, 3.71768, -37.3061 ],
      "max" : [ 71.0214, 14.8409, 12.6455 ],
      "componentType" : 5126,
      "count" : 7266,
      "type" : "VEC3"
    },
    {
      "bufferView" : 2,
      "componentType" : 5126,
      "count" : 7266,
      "type" : "VEC3"
    },
    {
      "bufferView" : 3,
      "componentType" : 5126,
      "count" : 7266,
      "type" : "VEC4"
    },
    {
      "bufferView" : 4,
      "componentType" : 5126,
      "count" : 7266,
      "type" : "VEC2"
    },
    {
      "bufferView" : 5,
      "componentType" : 5126,
      "count" : 7266,
      "type" : "VEC2"
    }
  ]
}
