{
  "asset" : {
    "generator" : "UE Viewer (umodel) build 1579 based",
    "version" : "2.0"
  },
  "scene" : 0,
  "scenes" : [
    {
      "nodes" : [ 0 ]
    }
  ],
  "nodes" : [
    {
      "name" : "S_Envi_Laboratory_Building_032",
      "mesh" : 0
    }
  ],
  "materials" : [
    {
      "name" : "MI_Envi_Laboratory_Building_025",
      "pbrMetallicRoughness" : {
        "baseColorFactor" : [ 0.3, 0.3, 0.3, 1.0 ],
        "metallicFactor" : 0.1,
        "roughnessFactor" : 0.5
      }
    },
    {
      "name" : "MI_Envi_Common_DownWall_01a",
      "pbrMetallicRoughness" : {
        "baseColorFactor" : [ 0.9, 0.3, 0.3, 1.0 ],
        "metallicFactor" : 0.1,
        "roughnessFactor" : 0.5
      }
    }
  ],
  "meshes" : [
    {
      "primitives" : [
        {
          "attributes" : {
            "POSITION" : 1,
            "NORMAL" : 2,
            "TANGENT" : 3,
            "TEXCOORD_0" : 4,
            "TEXCOORD_1" : 5,
            "TEXCOORD_2" : 6,
            "TEXCOORD_3" : 7
          },
          "indices" : 0,
          "material" : 0
        },
        {
          "attributes" : {
            "POSITION" : 9,
            "NORMAL" : 10,
            "TANGENT" : 11,
            "TEXCOORD_0" : 12,
            "TEXCOORD_1" : 13,
            "TEXCOORD_2" : 14,
            "TEXCOORD_3" : 15
          },
          "indices" : 8,
          "material" : 1
        }
      ],
      "name" : "S_Envi_Laboratory_Building_032"
    }
  ],
  "buffers" : [
    {
      "uri" : "S_Envi_Laboratory_Building_032.bin",
      "byteLength" : 8400
    }
  ],
  "bufferViews" : [
    {
      "buffer" : 0,
      "byteOffset" : 0,
      "byteLength" : 156
    },
    {
      "buffer" : 0,
      "byteOffset" : 156,
      "byteLength" : 624
    },
    {
      "buffer" : 0,
      "byteOffset" : 780,
      "byteLength" : 624
    },
    {
      "buffer" : 0,
      "byteOffset" : 1404,
      "byteLength" : 832
    },
    {
      "buffer" : 0,
      "byteOffset" : 2236,
      "byteLength" : 416
    },
    {
      "buffer" : 0,
      "byteOffset" : 2652,
      "byteLength" : 416
    },
    {
      "buffer" : 0,
      "byteOffset" : 3068,
      "byteLength" : 416
    },
    {
      "buffer" : 0,
      "byteOffset" : 3484,
      "byteLength" : 416
    },
    {
      "buffer" : 0,
      "byteOffset" : 3900,
      "byteLength" : 180
    },
    {
      "buffer" : 0,
      "byteOffset" : 4080,
      "byteLength" : 720
    },
    {
      "buffer" : 0,
      "byteOffset" : 4800,
      "byteLength" : 720
    },
    {
      "buffer" : 0,
      "byteOffset" : 5520,
      "byteLength" : 960
    },
    {
      "buffer" : 0,
      "byteOffset" : 6480,
      "byteLength" : 480
    },
    {
      "buffer" : 0,
      "byteOffset" : 6960,
      "byteLength" : 480
    },
    {
      "buffer" : 0,
      "byteOffset" : 7440,
      "byteLength" : 480
    },
    {
      "buffer" : 0,
      "byteOffset" : 7920,
      "byteLength" : 480
    }
  ],
  "accessors" : [
    {
      "bufferView" : 0,
      "componentType" : 5123,
      "count" : 78,
      "type" : "SCALAR"
    },
    {
      "bufferView" : 1,
      "min" : [ 6.36344, 0.252354, -4.05552 ],
      "max" : [ 21.439, 2.98475, 5.94449 ],
      "componentType" : 5126,
      "count" : 52,
      "type" : "VEC3"
    },
    {
      "bufferView" : 2,
      "componentType" : 5126,
      "count" : 52,
      "type" : "VEC3"
    },
    {
      "bufferView" : 3,
      "componentType" : 5126,
      "count" : 52,
      "type" : "VEC4"
    },
    {
      "bufferView" : 4,
      "componentType" : 5126,
      "count" : 52,
      "type" : "VEC2"
    },
    {
      "bufferView" : 5,
      "componentType" : 5126,
      "count" : 52,
      "type" : "VEC2"
    },
    {
      "bufferView" : 6,
      "componentType" : 5126,
      "count" : 52,
      "type" : "VEC2"
    },
    {
      "bufferView" : 7,
      "componentType" : 5126,
      "count" : 52,
      "type" : "VEC2"
    },
    {
      "bufferView" : 8,
      "componentType" : 5123,
      "count" : 90,
      "type" : "SCALAR"
    },
    {
      "bufferView" : 9,
      "min" : [ 14.2889, 0.261589, -4.2736 ],
      "max" : [ 21.6783, 0.261916, 6.18202 ],
      "componentType" : 5126,
      "count" : 60,
      "type" : "VEC3"
    },
    {
      "bufferView" : 10,
      "componentType" : 5126,
      "count" : 60,
      "type" : "VEC3"
    },
    {
      "bufferView" : 11,
      "componentType" : 5126,
      "count" : 60,
      "type" : "VEC4"
    },
    {
      "bufferView" : 12,
      "componentType" : 5126,
      "count" : 60,
      "type" : "VEC2"
    },
    {
      "bufferView" : 13,
      "componentType" : 5126,
      "count" : 60,
      "type" : "VEC2"
    },
    {
      "bufferView" : 14,
      "componentType" : 5126,
      "count" : 60,
      "type" : "VEC2"
    },
    {
      "bufferView" : 15,
      "componentType" : 5126,
      "count" : 60,
      "type" : "VEC2"
    }
  ]
}
