{
  "asset" : {
    "generator" : "UE Viewer (umodel) build 1579 based",
    "version" : "2.0"
  },
  "scene" : 0,
  "scenes" : [
    {
      "nodes" : [ 0 ]
    }
  ],
  "nodes" : [
    {
      "name" : "S_Envi_Umeda_Ground_008",
      "mesh" : 0
    }
  ],
  "materials" : [
    {
      "name" : "MI_Envi_Umeda_Ground_08",
      "pbrMetallicRoughness" : {
        "baseColorFactor" : [ 0.3, 0.3, 0.3, 1.0 ],
        "metallicFactor" : 0.1,
        "roughnessFactor" : 0.5
      }
    }
  ],
  "meshes" : [
    {
      "primitives" : [
        {
          "attributes" : {
            "POSITION" : 1,
            "NORMAL" : 2,
            "TANGENT" : 3,
            "TEXCOORD_0" : 4,
            "TEXCOORD_1" : 5
          },
          "indices" : 0,
          "material" : 0
        }
      ],
      "name" : "S_Envi_Umeda_Ground_008"
    }
  ],
  "buffers" : [
    {
      "uri" : "S_Envi_Umeda_Ground_008.bin",
      "byteLength" : 39764
    }
  ],
  "bufferViews" : [
    {
      "buffer" : 0,
      "byteOffset" : 0,
      "byteLength" : 2412
    },
    {
      "buffer" : 0,
      "byteOffset" : 2412,
      "byteLength" : 8004
    },
    {
      "buffer" : 0,
      "byteOffset" : 10416,
      "byteLength" : 8004
    },
    {
      "buffer" : 0,
      "byteOffset" : 18420,
      "byteLength" : 10672
    },
    {
      "buffer" : 0,
      "byteOffset" : 29092,
      "byteLength" : 5336
    },
    {
      "buffer" : 0,
      "byteOffset" : 34428,
      "byteLength" : 5336
    }
  ],
  "accessors" : [
    {
      "bufferView" : 0,
      "componentType" : 5123,
      "count" : 1206,
      "type" : "SCALAR"
    },
    {
      "bufferView" : 1,
      "min" : [ 33.9774, -0.577677, 10.7383 ],
      "max" : [ 67.4441, 5.86994, 34.1957 ],
      "componentType" : 5126,
      "count" : 667,
      "type" : "VEC3"
    },
    {
      "bufferView" : 2,
      "componentType" : 5126,
      "count" : 667,
      "type" : "VEC3"
    },
    {
      "bufferView" : 3,
      "componentType" : 5126,
      "count" : 667,
      "type" : "VEC4"
    },
    {
      "bufferView" : 4,
      "componentType" : 5126,
      "count" : 667,
      "type" : "VEC2"
    },
    {
      "bufferView" : 5,
      "componentType" : 5126,
      "count" : 667,
      "type" : "VEC2"
    }
  ]
}
