{
  "asset" : {
    "generator" : "UE Viewer (umodel) build 1579 based",
    "version" : "2.0"
  },
  "scene" : 0,
  "scenes" : [
    {
      "nodes" : [ 0 ]
    }
  ],
  "nodes" : [
    {
      "name" : "S_Envi_Laboratory_Building_006",
      "mesh" : 0
    }
  ],
  "materials" : [
    {
      "name" : "MI_Envi_Common_ReWall_002a",
      "pbrMetallicRoughness" : {
        "baseColorFactor" : [ 0.3, 0.3, 0.3, 1.0 ],
        "metallicFactor" : 0.1,
        "roughnessFactor" : 0.5
      }
    },
    {
      "name" : "MI_Envi_Central_Building_005",
      "pbrMetallicRoughness" : {
        "baseColorFactor" : [ 0.9, 0.3, 0.3, 1.0 ],
        "metallicFactor" : 0.1,
        "roughnessFactor" : 0.5
      }
    }
  ],
  "meshes" : [
    {
      "primitives" : [
        {
          "attributes" : {
            "POSITION" : 1,
            "NORMAL" : 2,
            "TANGENT" : 3,
            "TEXCOORD_0" : 4,
            "TEXCOORD_1" : 5
          },
          "indices" : 0,
          "material" : 0
        },
        {
          "attributes" : {
            "POSITION" : 7,
            "NORMAL" : 8,
            "TANGENT" : 9,
            "TEXCOORD_0" : 10,
            "TEXCOORD_1" : 11
          },
          "indices" : 6,
          "material" : 1
        }
      ],
      "name" : "S_Envi_Laboratory_Building_006"
    }
  ],
  "buffers" : [
    {
      "uri" : "S_Envi_Laboratory_Building_006.bin",
      "byteLength" : 43524
    }
  ],
  "bufferViews" : [
    {
      "buffer" : 0,
      "byteOffset" : 0,
      "byteLength" : 2988
    },
    {
      "buffer" : 0,
      "byteOffset" : 2988,
      "byteLength" : 8508
    },
    {
      "buffer" : 0,
      "byteOffset" : 11496,
      "byteLength" : 8508
    },
    {
      "buffer" : 0,
      "byteOffset" : 20004,
      "byteLength" : 11344
    },
    {
      "buffer" : 0,
      "byteOffset" : 31348,
      "byteLength" : 5672
    },
    {
      "buffer" : 0,
      "byteOffset" : 37020,
      "byteLength" : 5672
    },
    {
      "buffer" : 0,
      "byteOffset" : 42692,
      "byteLength" : 48
    },
    {
      "buffer" : 0,
      "byteOffset" : 42740,
      "byteLength" : 168
    },
    {
      "buffer" : 0,
      "byteOffset" : 42908,
      "byteLength" : 168
    },
    {
      "buffer" : 0,
      "byteOffset" : 43076,
      "byteLength" : 224
    },
    {
      "buffer" : 0,
      "byteOffset" : 43300,
      "byteLength" : 112
    },
    {
      "buffer" : 0,
      "byteOffset" : 43412,
      "byteLength" : 112
    }
  ],
  "accessors" : [
    {
      "bufferView" : 0,
      "componentType" : 5123,
      "count" : 1494,
      "type" : "SCALAR"
    },
    {
      "bufferView" : 1,
      "min" : [ -0.218662, -0.00348027, -0.460717 ],
      "max" : [ 0.21871, 0.227735, 0.00950987 ],
      "componentType" : 5126,
      "count" : 709,
      "type" : "VEC3"
    },
    {
      "bufferView" : 2,
      "componentType" : 5126,
      "count" : 709,
      "type" : "VEC3"
    },
    {
      "bufferView" : 3,
      "componentType" : 5126,
      "count" : 709,
      "type" : "VEC4"
    },
    {
      "bufferView" : 4,
      "componentType" : 5126,
      "count" : 709,
      "type" : "VEC2"
    },
    {
      "bufferView" : 5,
      "componentType" : 5126,
      "count" : 709,
      "type" : "VEC2"
    },
    {
      "bufferView" : 6,
      "componentType" : 5123,
      "count" : 24,
      "type" : "SCALAR"
    },
    {
      "bufferView" : 7,
      "min" : [ -0.0683592, -0.00106248, -0.00088943 ],
      "max" : [ 0.068359, 0.00735045, 0.00068246 ],
      "componentType" : 5126,
      "count" : 14,
      "type" : "VEC3"
    },
    {
      "bufferView" : 8,
      "componentType" : 5126,
      "count" : 14,
      "type" : "VEC3"
    },
    {
      "bufferView" : 9,
      "componentType" : 5126,
      "count" : 14,
      "type" : "VEC4"
    },
    {
      "bufferView" : 10,
      "componentType" : 5126,
      "count" : 14,
      "type" : "VEC2"
    },
    {
      "bufferView" : 11,
      "componentType" : 5126,
      "count" : 14,
      "type" : "VEC2"
    }
  ]
}
