{
  "asset" : {
    "generator" : "UE Viewer (umodel) build 1579 based",
    "version" : "2.0"
  },
  "scene" : 0,
  "scenes" : [
    {
      "nodes" : [ 0 ]
    }
  ],
  "nodes" : [
    {
      "name" : "S_Envi_Umeda_Building_051",
      "mesh" : 0
    }
  ],
  "materials" : [
    {
      "name" : "MI_Envi_Umeda_Prop_Switch_01b",
      "pbrMetallicRoughness" : {
        "baseColorFactor" : [ 0.3, 0.3, 0.3, 1.0 ],
        "metallicFactor" : 0.1,
        "roughnessFactor" : 0.5
      }
    }
  ],
  "meshes" : [
    {
      "primitives" : [
        {
          "attributes" : {
            "POSITION" : 1,
            "NORMAL" : 2,
            "TANGENT" : 3,
            "TEXCOORD_0" : 4,
            "TEXCOORD_1" : 5
          },
          "indices" : 0,
          "material" : 0
        }
      ],
      "name" : "S_Envi_Umeda_Building_051"
    }
  ],
  "buffers" : [
    {
      "uri" : "S_Envi_Umeda_Building_051.bin",
      "byteLength" : 33672
    }
  ],
  "bufferViews" : [
    {
      "buffer" : 0,
      "byteOffset" : 0,
      "byteLength" : 2424
    },
    {
      "buffer" : 0,
      "byteOffset" : 2424,
      "byteLength" : 6696
    },
    {
      "buffer" : 0,
      "byteOffset" : 9120,
      "byteLength" : 6696
    },
    {
      "buffer" : 0,
      "byteOffset" : 15816,
      "byteLength" : 8928
    },
    {
      "buffer" : 0,
      "byteOffset" : 24744,
      "byteLength" : 4464
    },
    {
      "buffer" : 0,
      "byteOffset" : 29208,
      "byteLength" : 4464
    }
  ],
  "accessors" : [
    {
      "bufferView" : 0,
      "componentType" : 5123,
      "count" : 1212,
      "type" : "SCALAR"
    },
    {
      "bufferView" : 1,
      "min" : [ -21.1427, 25.2158, -16.7337 ],
      "max" : [ -7.81352, 25.6719, 4.1624 ],
      "componentType" : 5126,
      "count" : 558,
      "type" : "VEC3"
    },
    {
      "bufferView" : 2,
      "componentType" : 5126,
      "count" : 558,
      "type" : "VEC3"
    },
    {
      "bufferView" : 3,
      "componentType" : 5126,
      "count" : 558,
      "type" : "VEC4"
    },
    {
      "bufferView" : 4,
      "componentType" : 5126,
      "count" : 558,
      "type" : "VEC2"
    },
    {
      "bufferView" : 5,
      "componentType" : 5126,
      "count" : 558,
      "type" : "VEC2"
    }
  ]
}
