{
  "asset" : {
    "generator" : "UE Viewer (umodel) build 1579 based",
    "version" : "2.0"
  },
  "scene" : 0,
  "scenes" : [
    {
      "nodes" : [ 0 ]
    }
  ],
  "nodes" : [
    {
      "name" : "S_Envi_Hongta_Building_021",
      "mesh" : 0
    }
  ],
  "materials" : [
    {
      "name" : "MI_Envi_Hongta_Building_014",
      "pbrMetallicRoughness" : {
        "baseColorFactor" : [ 0.3, 0.3, 0.3, 1.0 ],
        "metallicFactor" : 0.1,
        "roughnessFactor" : 0.5
      }
    }
  ],
  "meshes" : [
    {
      "primitives" : [
        {
          "attributes" : {
            "POSITION" : 1,
            "NORMAL" : 2,
            "TANGENT" : 3,
            "TEXCOORD_0" : 4,
            "TEXCOORD_1" : 5
          },
          "indices" : 0,
          "material" : 0
        }
      ],
      "name" : "S_Envi_Hongta_Building_021"
    }
  ],
  "buffers" : [
    {
      "uri" : "S_Envi_Hongta_Building_021.bin",
      "byteLength" : 52512
    }
  ],
  "bufferViews" : [
    {
      "buffer" : 0,
      "byteOffset" : 0,
      "byteLength" : 6144
    },
    {
      "buffer" : 0,
      "byteOffset" : 6144,
      "byteLength" : 9936
    },
    {
      "buffer" : 0,
      "byteOffset" : 16080,
      "byteLength" : 9936
    },
    {
      "buffer" : 0,
      "byteOffset" : 26016,
      "byteLength" : 13248
    },
    {
      "buffer" : 0,
      "byteOffset" : 39264,
      "byteLength" : 6624
    },
    {
      "buffer" : 0,
      "byteOffset" : 45888,
      "byteLength" : 6624
    }
  ],
  "accessors" : [
    {
      "bufferView" : 0,
      "componentType" : 5123,
      "count" : 3072,
      "type" : "SCALAR"
    },
    {
      "bufferView" : 1,
      "min" : [ -41.9978, 1.34439, 18.5867 ],
      "max" : [ -24.2348, 6.25862, 19.3884 ],
      "componentType" : 5126,
      "count" : 828,
      "type" : "VEC3"
    },
    {
      "bufferView" : 2,
      "componentType" : 5126,
      "count" : 828,
      "type" : "VEC3"
    },
    {
      "bufferView" : 3,
      "componentType" : 5126,
      "count" : 828,
      "type" : "VEC4"
    },
    {
      "bufferView" : 4,
      "componentType" : 5126,
      "count" : 828,
      "type" : "VEC2"
    },
    {
      "bufferView" : 5,
      "componentType" : 5126,
      "count" : 828,
      "type" : "VEC2"
    }
  ]
}
