{
  "asset" : {
    "generator" : "UE Viewer (umodel) build 1579 based",
    "version" : "2.0"
  },
  "scene" : 0,
  "scenes" : [
    {
      "nodes" : [ 0 ]
    }
  ],
  "nodes" : [
    {
      "name" : "S_Envi_Umeda_Longshot_002",
      "mesh" : 0
    }
  ],
  "materials" : [
    {
      "name" : "MI_Envi_Umeda_Longshot_003",
      "pbrMetallicRoughness" : {
        "baseColorFactor" : [ 0.3, 0.3, 0.3, 1.0 ],
        "metallicFactor" : 0.1,
        "roughnessFactor" : 0.5
      }
    }
  ],
  "meshes" : [
    {
      "primitives" : [
        {
          "attributes" : {
            "POSITION" : 1,
            "NORMAL" : 2,
            "TANGENT" : 3,
            "TEXCOORD_0" : 4,
            "TEXCOORD_1" : 5
          },
          "indices" : 0,
          "material" : 0
        }
      ],
      "name" : "S_Envi_Umeda_Longshot_002"
    }
  ],
  "buffers" : [
    {
      "uri" : "S_Envi_Umeda_Longshot_002.bin",
      "byteLength" : 41116
    }
  ],
  "bufferViews" : [
    {
      "buffer" : 0,
      "byteOffset" : 0,
      "byteLength" : 2196
    },
    {
      "buffer" : 0,
      "byteOffset" : 2196,
      "byteLength" : 8340
    },
    {
      "buffer" : 0,
      "byteOffset" : 10536,
      "byteLength" : 8340
    },
    {
      "buffer" : 0,
      "byteOffset" : 18876,
      "byteLength" : 11120
    },
    {
      "buffer" : 0,
      "byteOffset" : 29996,
      "byteLength" : 5560
    },
    {
      "buffer" : 0,
      "byteOffset" : 35556,
      "byteLength" : 5560
    }
  ],
  "accessors" : [
    {
      "bufferView" : 0,
      "componentType" : 5123,
      "count" : 1098,
      "type" : "SCALAR"
    },
    {
      "bufferView" : 1,
      "min" : [ 227.386, -30.9171, 1012.24 ],
      "max" : [ 883.935, 353.436, 1323.29 ],
      "componentType" : 5126,
      "count" : 695,
      "type" : "VEC3"
    },
    {
      "bufferView" : 2,
      "componentType" : 5126,
      "count" : 695,
      "type" : "VEC3"
    },
    {
      "bufferView" : 3,
      "componentType" : 5126,
      "count" : 695,
      "type" : "VEC4"
    },
    {
      "bufferView" : 4,
      "componentType" : 5126,
      "count" : 695,
      "type" : "VEC2"
    },
    {
      "bufferView" : 5,
      "componentType" : 5126,
      "count" : 695,
      "type" : "VEC2"
    }
  ]
}
