{
  "asset" : {
    "generator" : "UE Viewer (umodel) build 1579 based",
    "version" : "2.0"
  },
  "scene" : 0,
  "scenes" : [
    {
      "nodes" : [ 0 ]
    }
  ],
  "nodes" : [
    {
      "name" : "S_Envi_Central_Props_024",
      "mesh" : 0
    }
  ],
  "materials" : [
    {
      "name" : "MI_Envi_Hongta_Building_006",
      "pbrMetallicRoughness" : {
        "baseColorFactor" : [ 0.3, 0.3, 0.3, 1.0 ],
        "metallicFactor" : 0.1,
        "roughnessFactor" : 0.5
      }
    }
  ],
  "meshes" : [
    {
      "primitives" : [
        {
          "attributes" : {
            "POSITION" : 1,
            "NORMAL" : 2,
            "TANGENT" : 3,
            "TEXCOORD_0" : 4,
            "TEXCOORD_1" : 5,
            "TEXCOORD_2" : 6,
            "TEXCOORD_3" : 7
          },
          "indices" : 0,
          "material" : 0
        }
      ],
      "name" : "S_Envi_Central_Props_024"
    }
  ],
  "buffers" : [
    {
      "uri" : "S_Envi_Central_Props_024.bin",
      "byteLength" : 57456
    }
  ],
  "bufferViews" : [
    {
      "buffer" : 0,
      "byteOffset" : 0,
      "byteLength" : 2016
    },
    {
      "buffer" : 0,
      "byteOffset" : 2016,
      "byteLength" : 9240
    },
    {
      "buffer" : 0,
      "byteOffset" : 11256,
      "byteLength" : 9240
    },
    {
      "buffer" : 0,
      "byteOffset" : 20496,
      "byteLength" : 12320
    },
    {
      "buffer" : 0,
      "byteOffset" : 32816,
      "byteLength" : 6160
    },
    {
      "buffer" : 0,
      "byteOffset" : 38976,
      "byteLength" : 6160
    },
    {
      "buffer" : 0,
      "byteOffset" : 45136,
      "byteLength" : 6160
    },
    {
      "buffer" : 0,
      "byteOffset" : 51296,
      "byteLength" : 6160
    }
  ],
  "accessors" : [
    {
      "bufferView" : 0,
      "componentType" : 5123,
      "count" : 1008,
      "type" : "SCALAR"
    },
    {
      "bufferView" : 1,
      "min" : [ -51.4673, 15.8904, -76.8438 ],
      "max" : [ 52.5092, 126.816, 27.1911 ],
      "componentType" : 5126,
      "count" : 770,
      "type" : "VEC3"
    },
    {
      "bufferView" : 2,
      "componentType" : 5126,
      "count" : 770,
      "type" : "VEC3"
    },
    {
      "bufferView" : 3,
      "componentType" : 5126,
      "count" : 770,
      "type" : "VEC4"
    },
    {
      "bufferView" : 4,
      "componentType" : 5126,
      "count" : 770,
      "type" : "VEC2"
    },
    {
      "bufferView" : 5,
      "componentType" : 5126,
      "count" : 770,
      "type" : "VEC2"
    },
    {
      "bufferView" : 6,
      "componentType" : 5126,
      "count" : 770,
      "type" : "VEC2"
    },
    {
      "bufferView" : 7,
      "componentType" : 5126,
      "count" : 770,
      "type" : "VEC2"
    }
  ]
}
