{
  "asset" : {
    "generator" : "UE Viewer (umodel) build 1579 based",
    "version" : "2.0"
  },
  "scene" : 0,
  "scenes" : [
    {
      "nodes" : [ 0 ]
    }
  ],
  "nodes" : [
    {
      "name" : "S_Envi_Central_Props_044",
      "mesh" : 0
    }
  ],
  "materials" : [
    {
      "name" : "MI_Envi_Common_ReWall_001a",
      "pbrMetallicRoughness" : {
        "baseColorFactor" : [ 0.3, 0.3, 0.3, 1.0 ],
        "metallicFactor" : 0.1,
        "roughnessFactor" : 0.5
      }
    }
  ],
  "meshes" : [
    {
      "primitives" : [
        {
          "attributes" : {
            "POSITION" : 1,
            "NORMAL" : 2,
            "TANGENT" : 3,
            "TEXCOORD_0" : 4,
            "TEXCOORD_1" : 5
          },
          "indices" : 0,
          "material" : 0
        }
      ],
      "name" : "S_Envi_Central_Props_044"
    }
  ],
  "buffers" : [
    {
      "uri" : "S_Envi_Central_Props_044.bin",
      "byteLength" : 214392
    }
  ],
  "bufferViews" : [
    {
      "buffer" : 0,
      "byteOffset" : 0,
      "byteLength" : 9600
    },
    {
      "buffer" : 0,
      "byteOffset" : 9600,
      "byteLength" : 43884
    },
    {
      "buffer" : 0,
      "byteOffset" : 53484,
      "byteLength" : 43884
    },
    {
      "buffer" : 0,
      "byteOffset" : 97368,
      "byteLength" : 58512
    },
    {
      "buffer" : 0,
      "byteOffset" : 155880,
      "byteLength" : 29256
    },
    {
      "buffer" : 0,
      "byteOffset" : 185136,
      "byteLength" : 29256
    }
  ],
  "accessors" : [
    {
      "bufferView" : 0,
      "componentType" : 5123,
      "count" : 4800,
      "type" : "SCALAR"
    },
    {
      "bufferView" : 1,
      "min" : [ -74.1349, 22.4266, -47.1146 ],
      "max" : [ -52.6622, 34.7266, 38.7882 ],
      "componentType" : 5126,
      "count" : 3657,
      "type" : "VEC3"
    },
    {
      "bufferView" : 2,
      "componentType" : 5126,
      "count" : 3657,
      "type" : "VEC3"
    },
    {
      "bufferView" : 3,
      "componentType" : 5126,
      "count" : 3657,
      "type" : "VEC4"
    },
    {
      "bufferView" : 4,
      "componentType" : 5126,
      "count" : 3657,
      "type" : "VEC2"
    },
    {
      "bufferView" : 5,
      "componentType" : 5126,
      "count" : 3657,
      "type" : "VEC2"
    }
  ]
}
