{
  "asset" : {
    "generator" : "UE Viewer (umodel) build 1579 based",
    "version" : "2.0"
  },
  "scene" : 0,
  "scenes" : [
    {
      "nodes" : [ 0 ]
    }
  ],
  "nodes" : [
    {
      "name" : "S_Envi_Hongta_Wall_001a",
      "mesh" : 0
    }
  ],
  "materials" : [
    {
      "name" : "MI_Envi_Hongta_Building_011",
      "pbrMetallicRoughness" : {
        "baseColorFactor" : [ 0.3, 0.3, 0.3, 1.0 ],
        "metallicFactor" : 0.1,
        "roughnessFactor" : 0.5
      }
    }
  ],
  "meshes" : [
    {
      "primitives" : [
        {
          "attributes" : {
            "POSITION" : 1,
            "NORMAL" : 2,
            "TANGENT" : 3,
            "TEXCOORD_0" : 4,
            "TEXCOORD_1" : 5,
            "TEXCOORD_2" : 6,
            "TEXCOORD_3" : 7
          },
          "indices" : 0,
          "material" : 0
        }
      ],
      "name" : "S_Envi_Hongta_Wall_001a"
    }
  ],
  "buffers" : [
    {
      "uri" : "S_Envi_Hongta_Wall_001a.bin",
      "byteLength" : 166524
    }
  ],
  "bufferViews" : [
    {
      "buffer" : 0,
      "byteOffset" : 0,
      "byteLength" : 7548
    },
    {
      "buffer" : 0,
      "byteOffset" : 7548,
      "byteLength" : 26496
    },
    {
      "buffer" : 0,
      "byteOffset" : 34044,
      "byteLength" : 26496
    },
    {
      "buffer" : 0,
      "byteOffset" : 60540,
      "byteLength" : 35328
    },
    {
      "buffer" : 0,
      "byteOffset" : 95868,
      "byteLength" : 17664
    },
    {
      "buffer" : 0,
      "byteOffset" : 113532,
      "byteLength" : 17664
    },
    {
      "buffer" : 0,
      "byteOffset" : 131196,
      "byteLength" : 17664
    },
    {
      "buffer" : 0,
      "byteOffset" : 148860,
      "byteLength" : 17664
    }
  ],
  "accessors" : [
    {
      "bufferView" : 0,
      "componentType" : 5123,
      "count" : 3774,
      "type" : "SCALAR"
    },
    {
      "bufferView" : 1,
      "min" : [ -49.5768, 7.39878, -30.4 ],
      "max" : [ 6.4676, 8.96997, 22.5096 ],
      "componentType" : 5126,
      "count" : 2208,
      "type" : "VEC3"
    },
    {
      "bufferView" : 2,
      "componentType" : 5126,
      "count" : 2208,
      "type" : "VEC3"
    },
    {
      "bufferView" : 3,
      "componentType" : 5126,
      "count" : 2208,
      "type" : "VEC4"
    },
    {
      "bufferView" : 4,
      "componentType" : 5126,
      "count" : 2208,
      "type" : "VEC2"
    },
    {
      "bufferView" : 5,
      "componentType" : 5126,
      "count" : 2208,
      "type" : "VEC2"
    },
    {
      "bufferView" : 6,
      "componentType" : 5126,
      "count" : 2208,
      "type" : "VEC2"
    },
    {
      "bufferView" : 7,
      "componentType" : 5126,
      "count" : 2208,
      "type" : "VEC2"
    }
  ]
}
