{
  "asset" : {
    "generator" : "UE Viewer (umodel) build 1579 based",
    "version" : "2.0"
  },
  "scene" : 0,
  "scenes" : [
    {
      "nodes" : [ 0 ]
    }
  ],
  "nodes" : [
    {
      "name" : "S_Envi_Laboratory_guardbar_014",
      "mesh" : 0
    }
  ],
  "materials" : [
    {
      "name" : "MI_Envi_Central_Building_017",
      "pbrMetallicRoughness" : {
        "baseColorFactor" : [ 0.3, 0.3, 0.3, 1.0 ],
        "metallicFactor" : 0.1,
        "roughnessFactor" : 0.5
      }
    },
    {
      "name" : "MI_Envi_Laboratory_Building_056",
      "pbrMetallicRoughness" : {
        "baseColorFactor" : [ 0.9, 0.3, 0.3, 1.0 ],
        "metallicFactor" : 0.1,
        "roughnessFactor" : 0.5
      }
    }
  ],
  "meshes" : [
    {
      "primitives" : [
        {
          "attributes" : {
            "POSITION" : 1,
            "NORMAL" : 2,
            "TANGENT" : 3,
            "TEXCOORD_0" : 4,
            "TEXCOORD_1" : 5
          },
          "indices" : 0,
          "material" : 0
        },
        {
          "attributes" : {
            "POSITION" : 7,
            "NORMAL" : 8,
            "TANGENT" : 9,
            "TEXCOORD_0" : 10,
            "TEXCOORD_1" : 11
          },
          "indices" : 6,
          "material" : 1
        }
      ],
      "name" : "S_Envi_Laboratory_guardbar_014"
    }
  ],
  "buffers" : [
    {
      "uri" : "S_Envi_Laboratory_guardbar_014.bin",
      "byteLength" : 56996
    }
  ],
  "bufferViews" : [
    {
      "buffer" : 0,
      "byteOffset" : 0,
      "byteLength" : 1272
    },
    {
      "buffer" : 0,
      "byteOffset" : 1272,
      "byteLength" : 2304
    },
    {
      "buffer" : 0,
      "byteOffset" : 3576,
      "byteLength" : 2304
    },
    {
      "buffer" : 0,
      "byteOffset" : 5880,
      "byteLength" : 3072
    },
    {
      "buffer" : 0,
      "byteOffset" : 8952,
      "byteLength" : 1536
    },
    {
      "buffer" : 0,
      "byteOffset" : 10488,
      "byteLength" : 1536
    },
    {
      "buffer" : 0,
      "byteOffset" : 12024,
      "byteLength" : 4092
    },
    {
      "buffer" : 0,
      "byteOffset" : 16116,
      "byteLength" : 8760
    },
    {
      "buffer" : 0,
      "byteOffset" : 24876,
      "byteLength" : 8760
    },
    {
      "buffer" : 0,
      "byteOffset" : 33636,
      "byteLength" : 11680
    },
    {
      "buffer" : 0,
      "byteOffset" : 45316,
      "byteLength" : 5840
    },
    {
      "buffer" : 0,
      "byteOffset" : 51156,
      "byteLength" : 5840
    }
  ],
  "accessors" : [
    {
      "bufferView" : 0,
      "componentType" : 5123,
      "count" : 636,
      "type" : "SCALAR"
    },
    {
      "bufferView" : 1,
      "min" : [ -0.249559, 0.0204535, 3.57922 ],
      "max" : [ 0.252748, 0.953376, 3.78489 ],
      "componentType" : 5126,
      "count" : 192,
      "type" : "VEC3"
    },
    {
      "bufferView" : 2,
      "componentType" : 5126,
      "count" : 192,
      "type" : "VEC3"
    },
    {
      "bufferView" : 3,
      "componentType" : 5126,
      "count" : 192,
      "type" : "VEC4"
    },
    {
      "bufferView" : 4,
      "componentType" : 5126,
      "count" : 192,
      "type" : "VEC2"
    },
    {
      "bufferView" : 5,
      "componentType" : 5126,
      "count" : 192,
      "type" : "VEC2"
    },
    {
      "bufferView" : 6,
      "componentType" : 5123,
      "count" : 2046,
      "type" : "SCALAR"
    },
    {
      "bufferView" : 7,
      "min" : [ -0.335734, 0.000577393, 3.58132 ],
      "max" : [ 0.335734, 1.10747, 4.2814 ],
      "componentType" : 5126,
      "count" : 730,
      "type" : "VEC3"
    },
    {
      "bufferView" : 8,
      "componentType" : 5126,
      "count" : 730,
      "type" : "VEC3"
    },
    {
      "bufferView" : 9,
      "componentType" : 5126,
      "count" : 730,
      "type" : "VEC4"
    },
    {
      "bufferView" : 10,
      "componentType" : 5126,
      "count" : 730,
      "type" : "VEC2"
    },
    {
      "bufferView" : 11,
      "componentType" : 5126,
      "count" : 730,
      "type" : "VEC2"
    }
  ]
}
