{
  "asset" : {
    "generator" : "UE Viewer (umodel) build 1579 based",
    "version" : "2.0"
  },
  "scene" : 0,
  "scenes" : [
    {
      "nodes" : [ 0 ]
    }
  ],
  "nodes" : [
    {
      "name" : "S_Envi_Umeda_Refine_001d",
      "mesh" : 0
    }
  ],
  "materials" : [
    {
      "name" : "MI_Envi_Olgk_Refine_01c",
      "pbrMetallicRoughness" : {
        "baseColorFactor" : [ 0.3, 0.3, 0.3, 1.0 ],
        "metallicFactor" : 0.1,
        "roughnessFactor" : 0.5
      }
    },
    {
      "name" : "M_Glass_Inst1",
      "pbrMetallicRoughness" : {
        "baseColorFactor" : [ 0.9, 0.3, 0.3, 1.0 ],
        "metallicFactor" : 0.1,
        "roughnessFactor" : 0.5
      }
    }
  ],
  "meshes" : [
    {
      "primitives" : [
        {
          "attributes" : {
            "POSITION" : 1,
            "NORMAL" : 2,
            "TANGENT" : 3,
            "TEXCOORD_0" : 4,
            "TEXCOORD_1" : 5
          },
          "indices" : 0,
          "material" : 0
        },
        {
          "attributes" : {
            "POSITION" : 7,
            "NORMAL" : 8,
            "TANGENT" : 9,
            "TEXCOORD_0" : 10,
            "TEXCOORD_1" : 11
          },
          "indices" : 6,
          "material" : 1
        }
      ],
      "name" : "S_Envi_Umeda_Refine_001d"
    }
  ],
  "buffers" : [
    {
      "uri" : "S_Envi_Umeda_Refine_001d.bin",
      "byteLength" : 27224
    }
  ],
  "bufferViews" : [
    {
      "buffer" : 0,
      "byteOffset" : 0,
      "byteLength" : 1656
    },
    {
      "buffer" : 0,
      "byteOffset" : 1656,
      "byteLength" : 5088
    },
    {
      "buffer" : 0,
      "byteOffset" : 6744,
      "byteLength" : 5088
    },
    {
      "buffer" : 0,
      "byteOffset" : 11832,
      "byteLength" : 6784
    },
    {
      "buffer" : 0,
      "byteOffset" : 18616,
      "byteLength" : 3392
    },
    {
      "buffer" : 0,
      "byteOffset" : 22008,
      "byteLength" : 3392
    },
    {
      "buffer" : 0,
      "byteOffset" : 25400,
      "byteLength" : 144
    },
    {
      "buffer" : 0,
      "byteOffset" : 25544,
      "byteLength" : 360
    },
    {
      "buffer" : 0,
      "byteOffset" : 25904,
      "byteLength" : 360
    },
    {
      "buffer" : 0,
      "byteOffset" : 26264,
      "byteLength" : 480
    },
    {
      "buffer" : 0,
      "byteOffset" : 26744,
      "byteLength" : 240
    },
    {
      "buffer" : 0,
      "byteOffset" : 26984,
      "byteLength" : 240
    }
  ],
  "accessors" : [
    {
      "bufferView" : 0,
      "componentType" : 5123,
      "count" : 828,
      "type" : "SCALAR"
    },
    {
      "bufferView" : 1,
      "min" : [ -0.398546, 2.61326e-07, -0.513563 ],
      "max" : [ 0.550068, 3.8064, 0.512411 ],
      "componentType" : 5126,
      "count" : 424,
      "type" : "VEC3"
    },
    {
      "bufferView" : 2,
      "componentType" : 5126,
      "count" : 424,
      "type" : "VEC3"
    },
    {
      "bufferView" : 3,
      "componentType" : 5126,
      "count" : 424,
      "type" : "VEC4"
    },
    {
      "bufferView" : 4,
      "componentType" : 5126,
      "count" : 424,
      "type" : "VEC2"
    },
    {
      "bufferView" : 5,
      "componentType" : 5126,
      "count" : 424,
      "type" : "VEC2"
    },
    {
      "bufferView" : 6,
      "componentType" : 5123,
      "count" : 72,
      "type" : "SCALAR"
    },
    {
      "bufferView" : 7,
      "min" : [ -0.216346, 2.09282, -0.212214 ],
      "max" : [ 0.217423, 3.45654, 0.221555 ],
      "componentType" : 5126,
      "count" : 30,
      "type" : "VEC3"
    },
    {
      "bufferView" : 8,
      "componentType" : 5126,
      "count" : 30,
      "type" : "VEC3"
    },
    {
      "bufferView" : 9,
      "componentType" : 5126,
      "count" : 30,
      "type" : "VEC4"
    },
    {
      "bufferView" : 10,
      "componentType" : 5126,
      "count" : 30,
      "type" : "VEC2"
    },
    {
      "bufferView" : 11,
      "componentType" : 5126,
      "count" : 30,
      "type" : "VEC2"
    }
  ]
}
