{
  "asset" : {
    "generator" : "UE Viewer (umodel) build 1579 based",
    "version" : "2.0"
  },
  "scene" : 0,
  "scenes" : [
    {
      "nodes" : [ 0 ]
    }
  ],
  "nodes" : [
    {
      "name" : "S_Envi_Reward_Building_025",
      "mesh" : 0
    }
  ],
  "materials" : [
    {
      "name" : "MI_Envi_Reward_Building_010",
      "pbrMetallicRoughness" : {
        "baseColorFactor" : [ 0.3, 0.3, 0.3, 1.0 ],
        "metallicFactor" : 0.1,
        "roughnessFactor" : 0.5
      }
    },
    {
      "name" : "MI_Envi_Rewar_Building_001",
      "pbrMetallicRoughness" : {
        "baseColorFactor" : [ 0.9, 0.3, 0.3, 1.0 ],
        "metallicFactor" : 0.1,
        "roughnessFactor" : 0.5
      }
    },
    {
      "name" : "MI_Envi_Central_Building_005",
      "pbrMetallicRoughness" : {
        "baseColorFactor" : [ 0.3, 0.9, 0.3, 1.0 ],
        "metallicFactor" : 0.1,
        "roughnessFactor" : 0.5
      }
    }
  ],
  "meshes" : [
    {
      "primitives" : [
        {
          "attributes" : {
            "POSITION" : 1,
            "NORMAL" : 2,
            "TANGENT" : 3,
            "TEXCOORD_0" : 4,
            "TEXCOORD_1" : 5
          },
          "indices" : 0,
          "material" : 0
        },
        {
          "attributes" : {
            "POSITION" : 7,
            "NORMAL" : 8,
            "TANGENT" : 9,
            "TEXCOORD_0" : 10,
            "TEXCOORD_1" : 11
          },
          "indices" : 6,
          "material" : 1
        },
        {
          "attributes" : {
            "POSITION" : 13,
            "NORMAL" : 14,
            "TANGENT" : 15,
            "TEXCOORD_0" : 16,
            "TEXCOORD_1" : 17
          },
          "indices" : 12,
          "material" : 2
        }
      ],
      "name" : "S_Envi_Reward_Building_025"
    }
  ],
  "buffers" : [
    {
      "uri" : "S_Envi_Reward_Building_025.bin",
      "byteLength" : 87900
    }
  ],
  "bufferViews" : [
    {
      "buffer" : 0,
      "byteOffset" : 0,
      "byteLength" : 5372
    },
    {
      "buffer" : 0,
      "byteOffset" : 5372,
      "byteLength" : 16488
    },
    {
      "buffer" : 0,
      "byteOffset" : 21860,
      "byteLength" : 16488
    },
    {
      "buffer" : 0,
      "byteOffset" : 38348,
      "byteLength" : 21984
    },
    {
      "buffer" : 0,
      "byteOffset" : 60332,
      "byteLength" : 10992
    },
    {
      "buffer" : 0,
      "byteOffset" : 71324,
      "byteLength" : 10992
    },
    {
      "buffer" : 0,
      "byteOffset" : 82316,
      "byteLength" : 144
    },
    {
      "buffer" : 0,
      "byteOffset" : 82460,
      "byteLength" : 336
    },
    {
      "buffer" : 0,
      "byteOffset" : 82796,
      "byteLength" : 336
    },
    {
      "buffer" : 0,
      "byteOffset" : 83132,
      "byteLength" : 448
    },
    {
      "buffer" : 0,
      "byteOffset" : 83580,
      "byteLength" : 224
    },
    {
      "buffer" : 0,
      "byteOffset" : 83804,
      "byteLength" : 224
    },
    {
      "buffer" : 0,
      "byteOffset" : 84028,
      "byteLength" : 288
    },
    {
      "buffer" : 0,
      "byteOffset" : 84316,
      "byteLength" : 768
    },
    {
      "buffer" : 0,
      "byteOffset" : 85084,
      "byteLength" : 768
    },
    {
      "buffer" : 0,
      "byteOffset" : 85852,
      "byteLength" : 1024
    },
    {
      "buffer" : 0,
      "byteOffset" : 86876,
      "byteLength" : 512
    },
    {
      "buffer" : 0,
      "byteOffset" : 87388,
      "byteLength" : 512
    }
  ],
  "accessors" : [
    {
      "bufferView" : 0,
      "componentType" : 5123,
      "count" : 2685,
      "type" : "SCALAR"
    },
    {
      "bufferView" : 1,
      "min" : [ -4.62015, -0.0289981, -10.4807 ],
      "max" : [ 4.62015, 0.0268169, 10.4811 ],
      "componentType" : 5126,
      "count" : 1374,
      "type" : "VEC3"
    },
    {
      "bufferView" : 2,
      "componentType" : 5126,
      "count" : 1374,
      "type" : "VEC3"
    },
    {
      "bufferView" : 3,
      "componentType" : 5126,
      "count" : 1374,
      "type" : "VEC4"
    },
    {
      "bufferView" : 4,
      "componentType" : 5126,
      "count" : 1374,
      "type" : "VEC2"
    },
    {
      "bufferView" : 5,
      "componentType" : 5126,
      "count" : 1374,
      "type" : "VEC2"
    },
    {
      "bufferView" : 6,
      "componentType" : 5123,
      "count" : 72,
      "type" : "SCALAR"
    },
    {
      "bufferView" : 7,
      "min" : [ -2.15795, -0.0112476, -10.4735 ],
      "max" : [ 2.19903, -0.0112476, 3.15089 ],
      "componentType" : 5126,
      "count" : 28,
      "type" : "VEC3"
    },
    {
      "bufferView" : 8,
      "componentType" : 5126,
      "count" : 28,
      "type" : "VEC3"
    },
    {
      "bufferView" : 9,
      "componentType" : 5126,
      "count" : 28,
      "type" : "VEC4"
    },
    {
      "bufferView" : 10,
      "componentType" : 5126,
      "count" : 28,
      "type" : "VEC2"
    },
    {
      "bufferView" : 11,
      "componentType" : 5126,
      "count" : 28,
      "type" : "VEC2"
    },
    {
      "bufferView" : 12,
      "componentType" : 5123,
      "count" : 144,
      "type" : "SCALAR"
    },
    {
      "bufferView" : 13,
      "min" : [ -1.98029, 0.0203256, -8.86824 ],
      "max" : [ 1.97844, 0.0203256, 9.23253 ],
      "componentType" : 5126,
      "count" : 64,
      "type" : "VEC3"
    },
    {
      "bufferView" : 14,
      "componentType" : 5126,
      "count" : 64,
      "type" : "VEC3"
    },
    {
      "bufferView" : 15,
      "componentType" : 5126,
      "count" : 64,
      "type" : "VEC4"
    },
    {
      "bufferView" : 16,
      "componentType" : 5126,
      "count" : 64,
      "type" : "VEC2"
    },
    {
      "bufferView" : 17,
      "componentType" : 5126,
      "count" : 64,
      "type" : "VEC2"
    }
  ]
}
