{
  "asset" : {
    "generator" : "UE Viewer (umodel) build 1579 based",
    "version" : "2.0"
  },
  "scene" : 0,
  "scenes" : [
    {
      "nodes" : [ 0 ]
    }
  ],
  "nodes" : [
    {
      "name" : "S_Envi_Reward_Building_002",
      "mesh" : 0
    }
  ],
  "materials" : [
    {
      "name" : "MI_Envi_Reward_Building_02",
      "pbrMetallicRoughness" : {
        "baseColorFactor" : [ 0.3, 0.3, 0.3, 1.0 ],
        "metallicFactor" : 0.1,
        "roughnessFactor" : 0.5
      }
    },
    {
      "name" : "MI_Envi_Central_FrostedGlass_003",
      "pbrMetallicRoughness" : {
        "baseColorFactor" : [ 0.9, 0.3, 0.3, 1.0 ],
        "metallicFactor" : 0.1,
        "roughnessFactor" : 0.5
      }
    }
  ],
  "meshes" : [
    {
      "primitives" : [
        {
          "attributes" : {
            "POSITION" : 1,
            "NORMAL" : 2,
            "TANGENT" : 3,
            "TEXCOORD_0" : 4,
            "TEXCOORD_1" : 5
          },
          "indices" : 0,
          "material" : 0
        },
        {
          "attributes" : {
            "POSITION" : 7,
            "NORMAL" : 8,
            "TANGENT" : 9,
            "TEXCOORD_0" : 10,
            "TEXCOORD_1" : 11
          },
          "indices" : 6,
          "material" : 1
        }
      ],
      "name" : "S_Envi_Reward_Building_002"
    }
  ],
  "buffers" : [
    {
      "uri" : "S_Envi_Reward_Building_002.bin",
      "byteLength" : 46208
    }
  ],
  "bufferViews" : [
    {
      "buffer" : 0,
      "byteOffset" : 0,
      "byteLength" : 4632
    },
    {
      "buffer" : 0,
      "byteOffset" : 4632,
      "byteLength" : 8808
    },
    {
      "buffer" : 0,
      "byteOffset" : 13440,
      "byteLength" : 8808
    },
    {
      "buffer" : 0,
      "byteOffset" : 22248,
      "byteLength" : 11744
    },
    {
      "buffer" : 0,
      "byteOffset" : 33992,
      "byteLength" : 5872
    },
    {
      "buffer" : 0,
      "byteOffset" : 39864,
      "byteLength" : 5872
    },
    {
      "buffer" : 0,
      "byteOffset" : 45736,
      "byteLength" : 24
    },
    {
      "buffer" : 0,
      "byteOffset" : 45760,
      "byteLength" : 96
    },
    {
      "buffer" : 0,
      "byteOffset" : 45856,
      "byteLength" : 96
    },
    {
      "buffer" : 0,
      "byteOffset" : 45952,
      "byteLength" : 128
    },
    {
      "buffer" : 0,
      "byteOffset" : 46080,
      "byteLength" : 64
    },
    {
      "buffer" : 0,
      "byteOffset" : 46144,
      "byteLength" : 64
    }
  ],
  "accessors" : [
    {
      "bufferView" : 0,
      "componentType" : 5123,
      "count" : 2316,
      "type" : "SCALAR"
    },
    {
      "bufferView" : 1,
      "min" : [ -7, -0.1607, -1.98624 ],
      "max" : [ 3.05176e-07, 1.53218, 0.62501 ],
      "componentType" : 5126,
      "count" : 734,
      "type" : "VEC3"
    },
    {
      "bufferView" : 2,
      "componentType" : 5126,
      "count" : 734,
      "type" : "VEC3"
    },
    {
      "bufferView" : 3,
      "componentType" : 5126,
      "count" : 734,
      "type" : "VEC4"
    },
    {
      "bufferView" : 4,
      "componentType" : 5126,
      "count" : 734,
      "type" : "VEC2"
    },
    {
      "bufferView" : 5,
      "componentType" : 5126,
      "count" : 734,
      "type" : "VEC2"
    },
    {
      "bufferView" : 6,
      "componentType" : 5123,
      "count" : 12,
      "type" : "SCALAR"
    },
    {
      "bufferView" : 7,
      "min" : [ -5.72771, 1.00894, -0.992029 ],
      "max" : [ -1.11871, 1.02798, -0.194423 ],
      "componentType" : 5126,
      "count" : 8,
      "type" : "VEC3"
    },
    {
      "bufferView" : 8,
      "componentType" : 5126,
      "count" : 8,
      "type" : "VEC3"
    },
    {
      "bufferView" : 9,
      "componentType" : 5126,
      "count" : 8,
      "type" : "VEC4"
    },
    {
      "bufferView" : 10,
      "componentType" : 5126,
      "count" : 8,
      "type" : "VEC2"
    },
    {
      "bufferView" : 11,
      "componentType" : 5126,
      "count" : 8,
      "type" : "VEC2"
    }
  ]
}
