{
  "asset" : {
    "generator" : "UE Viewer (umodel) build 1579 based",
    "version" : "2.0"
  },
  "scene" : 0,
  "scenes" : [
    {
      "nodes" : [ 0 ]
    }
  ],
  "nodes" : [
    {
      "name" : "S_Envi_Laboratory_guardbar_016",
      "mesh" : 0
    }
  ],
  "materials" : [
    {
      "name" : "MI_Envi_Laboratory_Building_055",
      "pbrMetallicRoughness" : {
        "baseColorFactor" : [ 0.3, 0.3, 0.3, 1.0 ],
        "metallicFactor" : 0.1,
        "roughnessFactor" : 0.5
      }
    }
  ],
  "meshes" : [
    {
      "primitives" : [
        {
          "attributes" : {
            "POSITION" : 1,
            "NORMAL" : 2,
            "TANGENT" : 3,
            "TEXCOORD_0" : 4,
            "TEXCOORD_1" : 5
          },
          "indices" : 0,
          "material" : 0
        }
      ],
      "name" : "S_Envi_Laboratory_guardbar_016"
    }
  ],
  "buffers" : [
    {
      "uri" : "S_Envi_Laboratory_guardbar_016.bin",
      "byteLength" : 314048
    }
  ],
  "bufferViews" : [
    {
      "buffer" : 0,
      "byteOffset" : 0,
      "byteLength" : 32928
    },
    {
      "buffer" : 0,
      "byteOffset" : 32928,
      "byteLength" : 60240
    },
    {
      "buffer" : 0,
      "byteOffset" : 93168,
      "byteLength" : 60240
    },
    {
      "buffer" : 0,
      "byteOffset" : 153408,
      "byteLength" : 80320
    },
    {
      "buffer" : 0,
      "byteOffset" : 233728,
      "byteLength" : 40160
    },
    {
      "buffer" : 0,
      "byteOffset" : 273888,
      "byteLength" : 40160
    }
  ],
  "accessors" : [
    {
      "bufferView" : 0,
      "componentType" : 5123,
      "count" : 16464,
      "type" : "SCALAR"
    },
    {
      "bufferView" : 1,
      "min" : [ -1.28356, -0.0853429, -7.49823 ],
      "max" : [ 1.45612, 13.4198, 7.49823 ],
      "componentType" : 5126,
      "count" : 5020,
      "type" : "VEC3"
    },
    {
      "bufferView" : 2,
      "componentType" : 5126,
      "count" : 5020,
      "type" : "VEC3"
    },
    {
      "bufferView" : 3,
      "componentType" : 5126,
      "count" : 5020,
      "type" : "VEC4"
    },
    {
      "bufferView" : 4,
      "componentType" : 5126,
      "count" : 5020,
      "type" : "VEC2"
    },
    {
      "bufferView" : 5,
      "componentType" : 5126,
      "count" : 5020,
      "type" : "VEC2"
    }
  ]
}
