{
  "asset" : {
    "generator" : "UE Viewer (umodel) build 1579 based",
    "version" : "2.0"
  },
  "scene" : 0,
  "scenes" : [
    {
      "nodes" : [ 0 ]
    }
  ],
  "nodes" : [
    {
      "name" : "S_Envi_Umeda_RollingStock_001",
      "mesh" : 0
    }
  ],
  "materials" : [
    {
      "name" : "MI_Envi_Umeda_RollingStock_001",
      "pbrMetallicRoughness" : {
        "baseColorFactor" : [ 0.3, 0.3, 0.3, 1.0 ],
        "metallicFactor" : 0.1,
        "roughnessFactor" : 0.5
      }
    }
  ],
  "meshes" : [
    {
      "primitives" : [
        {
          "attributes" : {
            "POSITION" : 1,
            "NORMAL" : 2,
            "TANGENT" : 3,
            "TEXCOORD_0" : 4,
            "TEXCOORD_1" : 5
          },
          "indices" : 0,
          "material" : 0
        }
      ],
      "name" : "S_Envi_Umeda_RollingStock_001"
    }
  ],
  "buffers" : [
    {
      "uri" : "S_Envi_Umeda_RollingStock_001.bin",
      "byteLength" : 101896
    }
  ],
  "bufferViews" : [
    {
      "buffer" : 0,
      "byteOffset" : 0,
      "byteLength" : 6024
    },
    {
      "buffer" : 0,
      "byteOffset" : 6024,
      "byteLength" : 20544
    },
    {
      "buffer" : 0,
      "byteOffset" : 26568,
      "byteLength" : 20544
    },
    {
      "buffer" : 0,
      "byteOffset" : 47112,
      "byteLength" : 27392
    },
    {
      "buffer" : 0,
      "byteOffset" : 74504,
      "byteLength" : 13696
    },
    {
      "buffer" : 0,
      "byteOffset" : 88200,
      "byteLength" : 13696
    }
  ],
  "accessors" : [
    {
      "bufferView" : 0,
      "componentType" : 5123,
      "count" : 3012,
      "type" : "SCALAR"
    },
    {
      "bufferView" : 1,
      "min" : [ -36.4722, -0.0331526, -1.7259 ],
      "max" : [ 36.4722, 4.57303, 1.7259 ],
      "componentType" : 5126,
      "count" : 1712,
      "type" : "VEC3"
    },
    {
      "bufferView" : 2,
      "componentType" : 5126,
      "count" : 1712,
      "type" : "VEC3"
    },
    {
      "bufferView" : 3,
      "componentType" : 5126,
      "count" : 1712,
      "type" : "VEC4"
    },
    {
      "bufferView" : 4,
      "componentType" : 5126,
      "count" : 1712,
      "type" : "VEC2"
    },
    {
      "bufferView" : 5,
      "componentType" : 5126,
      "count" : 1712,
      "type" : "VEC2"
    }
  ]
}
