{
  "asset" : {
    "generator" : "UE Viewer (umodel) build 1579 based",
    "version" : "2.0"
  },
  "scene" : 0,
  "scenes" : [
    {
      "nodes" : [ 0 ]
    }
  ],
  "nodes" : [
    {
      "name" : "S_Envi_Hongta_Building_036",
      "mesh" : 0
    }
  ],
  "materials" : [
    {
      "name" : "MI_Envi_Umeda_Aspot_structuralsteel_01b",
      "pbrMetallicRoughness" : {
        "baseColorFactor" : [ 0.3, 0.3, 0.3, 1.0 ],
        "metallicFactor" : 0.1,
        "roughnessFactor" : 0.5
      }
    },
    {
      "name" : "MI_Envi_Umeda_Base_Building_02_A_01",
      "pbrMetallicRoughness" : {
        "baseColorFactor" : [ 0.9, 0.3, 0.3, 1.0 ],
        "metallicFactor" : 0.1,
        "roughnessFactor" : 0.5
      }
    }
  ],
  "meshes" : [
    {
      "primitives" : [
        {
          "attributes" : {
            "POSITION" : 1,
            "NORMAL" : 2,
            "TANGENT" : 3,
            "TEXCOORD_0" : 4,
            "TEXCOORD_1" : 5,
            "TEXCOORD_2" : 6,
            "TEXCOORD_3" : 7
          },
          "indices" : 0,
          "material" : 0
        },
        {
          "attributes" : {
            "POSITION" : 9,
            "NORMAL" : 10,
            "TANGENT" : 11,
            "TEXCOORD_0" : 12,
            "TEXCOORD_1" : 13,
            "TEXCOORD_2" : 14,
            "TEXCOORD_3" : 15
          },
          "indices" : 8,
          "material" : 1
        }
      ],
      "name" : "S_Envi_Hongta_Building_036"
    }
  ],
  "buffers" : [
    {
      "uri" : "S_Envi_Hongta_Building_036.bin",
      "byteLength" : 121056
    }
  ],
  "bufferViews" : [
    {
      "buffer" : 0,
      "byteOffset" : 0,
      "byteLength" : 2652
    },
    {
      "buffer" : 0,
      "byteOffset" : 2652,
      "byteLength" : 9984
    },
    {
      "buffer" : 0,
      "byteOffset" : 12636,
      "byteLength" : 9984
    },
    {
      "buffer" : 0,
      "byteOffset" : 22620,
      "byteLength" : 13312
    },
    {
      "buffer" : 0,
      "byteOffset" : 35932,
      "byteLength" : 6656
    },
    {
      "buffer" : 0,
      "byteOffset" : 42588,
      "byteLength" : 6656
    },
    {
      "buffer" : 0,
      "byteOffset" : 49244,
      "byteLength" : 6656
    },
    {
      "buffer" : 0,
      "byteOffset" : 55900,
      "byteLength" : 6656
    },
    {
      "buffer" : 0,
      "byteOffset" : 62556,
      "byteLength" : 2340
    },
    {
      "buffer" : 0,
      "byteOffset" : 64896,
      "byteLength" : 9360
    },
    {
      "buffer" : 0,
      "byteOffset" : 74256,
      "byteLength" : 9360
    },
    {
      "buffer" : 0,
      "byteOffset" : 83616,
      "byteLength" : 12480
    },
    {
      "buffer" : 0,
      "byteOffset" : 96096,
      "byteLength" : 6240
    },
    {
      "buffer" : 0,
      "byteOffset" : 102336,
      "byteLength" : 6240
    },
    {
      "buffer" : 0,
      "byteOffset" : 108576,
      "byteLength" : 6240
    },
    {
      "buffer" : 0,
      "byteOffset" : 114816,
      "byteLength" : 6240
    }
  ],
  "accessors" : [
    {
      "bufferView" : 0,
      "componentType" : 5123,
      "count" : 1326,
      "type" : "SCALAR"
    },
    {
      "bufferView" : 1,
      "min" : [ -42.0734, -4.37792, -6.19888 ],
      "max" : [ -23.2141, 1.29946, 21.7461 ],
      "componentType" : 5126,
      "count" : 832,
      "type" : "VEC3"
    },
    {
      "bufferView" : 2,
      "componentType" : 5126,
      "count" : 832,
      "type" : "VEC3"
    },
    {
      "bufferView" : 3,
      "componentType" : 5126,
      "count" : 832,
      "type" : "VEC4"
    },
    {
      "bufferView" : 4,
      "componentType" : 5126,
      "count" : 832,
      "type" : "VEC2"
    },
    {
      "bufferView" : 5,
      "componentType" : 5126,
      "count" : 832,
      "type" : "VEC2"
    },
    {
      "bufferView" : 6,
      "componentType" : 5126,
      "count" : 832,
      "type" : "VEC2"
    },
    {
      "bufferView" : 7,
      "componentType" : 5126,
      "count" : 832,
      "type" : "VEC2"
    },
    {
      "bufferView" : 8,
      "componentType" : 5123,
      "count" : 1170,
      "type" : "SCALAR"
    },
    {
      "bufferView" : 9,
      "min" : [ -42.0734, -4.02929, -6.19888 ],
      "max" : [ -23.2141, 1.29946, 21.7461 ],
      "componentType" : 5126,
      "count" : 780,
      "type" : "VEC3"
    },
    {
      "bufferView" : 10,
      "componentType" : 5126,
      "count" : 780,
      "type" : "VEC3"
    },
    {
      "bufferView" : 11,
      "componentType" : 5126,
      "count" : 780,
      "type" : "VEC4"
    },
    {
      "bufferView" : 12,
      "componentType" : 5126,
      "count" : 780,
      "type" : "VEC2"
    },
    {
      "bufferView" : 13,
      "componentType" : 5126,
      "count" : 780,
      "type" : "VEC2"
    },
    {
      "bufferView" : 14,
      "componentType" : 5126,
      "count" : 780,
      "type" : "VEC2"
    },
    {
      "bufferView" : 15,
      "componentType" : 5126,
      "count" : 780,
      "type" : "VEC2"
    }
  ]
}
