{
  "asset" : {
    "generator" : "UE Viewer (umodel) build 1579 based",
    "version" : "2.0"
  },
  "scene" : 0,
  "scenes" : [
    {
      "nodes" : [ 0 ]
    }
  ],
  "nodes" : [
    {
      "name" : "S_Envi_Hongta_Building_016",
      "mesh" : 0
    }
  ],
  "materials" : [
    {
      "name" : "MI_Envi_Hongta_Building_007",
      "pbrMetallicRoughness" : {
        "baseColorFactor" : [ 0.3, 0.3, 0.3, 1.0 ],
        "metallicFactor" : 0.1,
        "roughnessFactor" : 0.5
      }
    }
  ],
  "meshes" : [
    {
      "primitives" : [
        {
          "attributes" : {
            "POSITION" : 1,
            "NORMAL" : 2,
            "TANGENT" : 3,
            "TEXCOORD_0" : 4,
            "TEXCOORD_1" : 5,
            "TEXCOORD_2" : 6
          },
          "indices" : 0,
          "material" : 0
        }
      ],
      "name" : "S_Envi_Hongta_Building_016"
    }
  ],
  "buffers" : [
    {
      "uri" : "S_Envi_Hongta_Building_016.bin",
      "byteLength" : 137728
    }
  ],
  "bufferViews" : [
    {
      "buffer" : 0,
      "byteOffset" : 0,
      "byteLength" : 6144
    },
    {
      "buffer" : 0,
      "byteOffset" : 6144,
      "byteLength" : 24672
    },
    {
      "buffer" : 0,
      "byteOffset" : 30816,
      "byteLength" : 24672
    },
    {
      "buffer" : 0,
      "byteOffset" : 55488,
      "byteLength" : 32896
    },
    {
      "buffer" : 0,
      "byteOffset" : 88384,
      "byteLength" : 16448
    },
    {
      "buffer" : 0,
      "byteOffset" : 104832,
      "byteLength" : 16448
    },
    {
      "buffer" : 0,
      "byteOffset" : 121280,
      "byteLength" : 16448
    }
  ],
  "accessors" : [
    {
      "bufferView" : 0,
      "componentType" : 5123,
      "count" : 3072,
      "type" : "SCALAR"
    },
    {
      "bufferView" : 1,
      "min" : [ -41.1044, 0.889999, -16.7277 ],
      "max" : [ -22.8812, 2.46468, 17.4591 ],
      "componentType" : 5126,
      "count" : 2056,
      "type" : "VEC3"
    },
    {
      "bufferView" : 2,
      "componentType" : 5126,
      "count" : 2056,
      "type" : "VEC3"
    },
    {
      "bufferView" : 3,
      "componentType" : 5126,
      "count" : 2056,
      "type" : "VEC4"
    },
    {
      "bufferView" : 4,
      "componentType" : 5126,
      "count" : 2056,
      "type" : "VEC2"
    },
    {
      "bufferView" : 5,
      "componentType" : 5126,
      "count" : 2056,
      "type" : "VEC2"
    },
    {
      "bufferView" : 6,
      "componentType" : 5126,
      "count" : 2056,
      "type" : "VEC2"
    }
  ]
}
