{
  "asset" : {
    "generator" : "UE Viewer (umodel) build 1579 based",
    "version" : "2.0"
  },
  "scene" : 0,
  "scenes" : [
    {
      "nodes" : [ 0 ]
    }
  ],
  "nodes" : [
    {
      "name" : "S_Envi_Laboratory_Building_013",
      "mesh" : 0
    }
  ],
  "materials" : [
    {
      "name" : "MI_Envi_Umeda_Module_023",
      "pbrMetallicRoughness" : {
        "baseColorFactor" : [ 0.3, 0.3, 0.3, 1.0 ],
        "metallicFactor" : 0.1,
        "roughnessFactor" : 0.5
      }
    },
    {
      "name" : "MI_Envi_Laboratory_AD_003",
      "pbrMetallicRoughness" : {
        "baseColorFactor" : [ 0.9, 0.3, 0.3, 1.0 ],
        "metallicFactor" : 0.1,
        "roughnessFactor" : 0.5
      }
    }
  ],
  "meshes" : [
    {
      "primitives" : [
        {
          "attributes" : {
            "POSITION" : 1,
            "NORMAL" : 2,
            "TANGENT" : 3,
            "TEXCOORD_0" : 4,
            "TEXCOORD_1" : 5
          },
          "indices" : 0,
          "material" : 0
        },
        {
          "attributes" : {
            "POSITION" : 7,
            "NORMAL" : 8,
            "TANGENT" : 9,
            "TEXCOORD_0" : 10,
            "TEXCOORD_1" : 11
          },
          "indices" : 6,
          "material" : 1
        }
      ],
      "name" : "S_Envi_Laboratory_Building_013"
    }
  ],
  "buffers" : [
    {
      "uri" : "S_Envi_Laboratory_Building_013.bin",
      "byteLength" : 32568
    }
  ],
  "bufferViews" : [
    {
      "buffer" : 0,
      "byteOffset" : 0,
      "byteLength" : 1584
    },
    {
      "buffer" : 0,
      "byteOffset" : 1584,
      "byteLength" : 6336
    },
    {
      "buffer" : 0,
      "byteOffset" : 7920,
      "byteLength" : 6336
    },
    {
      "buffer" : 0,
      "byteOffset" : 14256,
      "byteLength" : 8448
    },
    {
      "buffer" : 0,
      "byteOffset" : 22704,
      "byteLength" : 4224
    },
    {
      "buffer" : 0,
      "byteOffset" : 26928,
      "byteLength" : 4224
    },
    {
      "buffer" : 0,
      "byteOffset" : 31152,
      "byteLength" : 72
    },
    {
      "buffer" : 0,
      "byteOffset" : 31224,
      "byteLength" : 288
    },
    {
      "buffer" : 0,
      "byteOffset" : 31512,
      "byteLength" : 288
    },
    {
      "buffer" : 0,
      "byteOffset" : 31800,
      "byteLength" : 384
    },
    {
      "buffer" : 0,
      "byteOffset" : 32184,
      "byteLength" : 192
    },
    {
      "buffer" : 0,
      "byteOffset" : 32376,
      "byteLength" : 192
    }
  ],
  "accessors" : [
    {
      "bufferView" : 0,
      "componentType" : 5123,
      "count" : 792,
      "type" : "SCALAR"
    },
    {
      "bufferView" : 1,
      "min" : [ -76.85, 3.7, -11.69 ],
      "max" : [ -21.82, 9, 12.3601 ],
      "componentType" : 5126,
      "count" : 528,
      "type" : "VEC3"
    },
    {
      "bufferView" : 2,
      "componentType" : 5126,
      "count" : 528,
      "type" : "VEC3"
    },
    {
      "bufferView" : 3,
      "componentType" : 5126,
      "count" : 528,
      "type" : "VEC4"
    },
    {
      "bufferView" : 4,
      "componentType" : 5126,
      "count" : 528,
      "type" : "VEC2"
    },
    {
      "bufferView" : 5,
      "componentType" : 5126,
      "count" : 528,
      "type" : "VEC2"
    },
    {
      "bufferView" : 6,
      "componentType" : 5123,
      "count" : 36,
      "type" : "SCALAR"
    },
    {
      "bufferView" : 7,
      "min" : [ -76.7238, 3.87161, -11.4842 ],
      "max" : [ -21.9462, 8.82839, 12.1543 ],
      "componentType" : 5126,
      "count" : 24,
      "type" : "VEC3"
    },
    {
      "bufferView" : 8,
      "componentType" : 5126,
      "count" : 24,
      "type" : "VEC3"
    },
    {
      "bufferView" : 9,
      "componentType" : 5126,
      "count" : 24,
      "type" : "VEC4"
    },
    {
      "bufferView" : 10,
      "componentType" : 5126,
      "count" : 24,
      "type" : "VEC2"
    },
    {
      "bufferView" : 11,
      "componentType" : 5126,
      "count" : 24,
      "type" : "VEC2"
    }
  ]
}
