{
  "asset" : {
    "generator" : "UE Viewer (umodel) build 1579 based",
    "version" : "2.0"
  },
  "scene" : 0,
  "scenes" : [
    {
      "nodes" : [ 0 ]
    }
  ],
  "nodes" : [
    {
      "name" : "S_Envi_Hongta_Building_034",
      "mesh" : 0
    }
  ],
  "materials" : [
    {
      "name" : "MI_Envi_Umeda_Prop_Platform_04",
      "pbrMetallicRoughness" : {
        "baseColorFactor" : [ 0.3, 0.3, 0.3, 1.0 ],
        "metallicFactor" : 0.1,
        "roughnessFactor" : 0.5
      }
    },
    {
      "name" : "MI_Envi_Umeda_Prop_Platform_02b",
      "pbrMetallicRoughness" : {
        "baseColorFactor" : [ 0.9, 0.3, 0.3, 1.0 ],
        "metallicFactor" : 0.1,
        "roughnessFactor" : 0.5
      }
    }
  ],
  "meshes" : [
    {
      "primitives" : [
        {
          "attributes" : {
            "POSITION" : 1,
            "NORMAL" : 2,
            "TANGENT" : 3,
            "TEXCOORD_0" : 4,
            "TEXCOORD_1" : 5,
            "TEXCOORD_2" : 6,
            "TEXCOORD_3" : 7
          },
          "indices" : 0,
          "material" : 0
        },
        {
          "attributes" : {
            "POSITION" : 9,
            "NORMAL" : 10,
            "TANGENT" : 11,
            "TEXCOORD_0" : 12,
            "TEXCOORD_1" : 13,
            "TEXCOORD_2" : 14,
            "TEXCOORD_3" : 15
          },
          "indices" : 8,
          "material" : 1
        }
      ],
      "name" : "S_Envi_Hongta_Building_034"
    }
  ],
  "buffers" : [
    {
      "uri" : "S_Envi_Hongta_Building_034.bin",
      "byteLength" : 73200
    }
  ],
  "bufferViews" : [
    {
      "buffer" : 0,
      "byteOffset" : 0,
      "byteLength" : 2160
    },
    {
      "buffer" : 0,
      "byteOffset" : 2160,
      "byteLength" : 8160
    },
    {
      "buffer" : 0,
      "byteOffset" : 10320,
      "byteLength" : 8160
    },
    {
      "buffer" : 0,
      "byteOffset" : 18480,
      "byteLength" : 10880
    },
    {
      "buffer" : 0,
      "byteOffset" : 29360,
      "byteLength" : 5440
    },
    {
      "buffer" : 0,
      "byteOffset" : 34800,
      "byteLength" : 5440
    },
    {
      "buffer" : 0,
      "byteOffset" : 40240,
      "byteLength" : 5440
    },
    {
      "buffer" : 0,
      "byteOffset" : 45680,
      "byteLength" : 5440
    },
    {
      "buffer" : 0,
      "byteOffset" : 51120,
      "byteLength" : 1200
    },
    {
      "buffer" : 0,
      "byteOffset" : 52320,
      "byteLength" : 3480
    },
    {
      "buffer" : 0,
      "byteOffset" : 55800,
      "byteLength" : 3480
    },
    {
      "buffer" : 0,
      "byteOffset" : 59280,
      "byteLength" : 4640
    },
    {
      "buffer" : 0,
      "byteOffset" : 63920,
      "byteLength" : 2320
    },
    {
      "buffer" : 0,
      "byteOffset" : 66240,
      "byteLength" : 2320
    },
    {
      "buffer" : 0,
      "byteOffset" : 68560,
      "byteLength" : 2320
    },
    {
      "buffer" : 0,
      "byteOffset" : 70880,
      "byteLength" : 2320
    }
  ],
  "accessors" : [
    {
      "bufferView" : 0,
      "componentType" : 5123,
      "count" : 1080,
      "type" : "SCALAR"
    },
    {
      "bufferView" : 1,
      "min" : [ -40.91, 1.13552, -1.14919 ],
      "max" : [ -24.6398, 1.24, 17.35 ],
      "componentType" : 5126,
      "count" : 680,
      "type" : "VEC3"
    },
    {
      "bufferView" : 2,
      "componentType" : 5126,
      "count" : 680,
      "type" : "VEC3"
    },
    {
      "bufferView" : 3,
      "componentType" : 5126,
      "count" : 680,
      "type" : "VEC4"
    },
    {
      "bufferView" : 4,
      "componentType" : 5126,
      "count" : 680,
      "type" : "VEC2"
    },
    {
      "bufferView" : 5,
      "componentType" : 5126,
      "count" : 680,
      "type" : "VEC2"
    },
    {
      "bufferView" : 6,
      "componentType" : 5126,
      "count" : 680,
      "type" : "VEC2"
    },
    {
      "bufferView" : 7,
      "componentType" : 5126,
      "count" : 680,
      "type" : "VEC2"
    },
    {
      "bufferView" : 8,
      "componentType" : 5123,
      "count" : 600,
      "type" : "SCALAR"
    },
    {
      "bufferView" : 9,
      "min" : [ -40.7838, 1.1978, -1.01398 ],
      "max" : [ -24.8398, 1.2278, 17.2155 ],
      "componentType" : 5126,
      "count" : 290,
      "type" : "VEC3"
    },
    {
      "bufferView" : 10,
      "componentType" : 5126,
      "count" : 290,
      "type" : "VEC3"
    },
    {
      "bufferView" : 11,
      "componentType" : 5126,
      "count" : 290,
      "type" : "VEC4"
    },
    {
      "bufferView" : 12,
      "componentType" : 5126,
      "count" : 290,
      "type" : "VEC2"
    },
    {
      "bufferView" : 13,
      "componentType" : 5126,
      "count" : 290,
      "type" : "VEC2"
    },
    {
      "bufferView" : 14,
      "componentType" : 5126,
      "count" : 290,
      "type" : "VEC2"
    },
    {
      "bufferView" : 15,
      "componentType" : 5126,
      "count" : 290,
      "type" : "VEC2"
    }
  ]
}
