{
  "asset" : {
    "generator" : "UE Viewer (umodel) build 1579 based",
    "version" : "2.0"
  },
  "scene" : 0,
  "scenes" : [
    {
      "nodes" : [ 0 ]
    }
  ],
  "nodes" : [
    {
      "name" : "S_Envi_Umeda_Building_023",
      "mesh" : 0
    }
  ],
  "materials" : [
    {
      "name" : "WorldGridMaterial",
      "pbrMetallicRoughness" : {
        "baseColorFactor" : [ 0.3, 0.3, 0.3, 1.0 ],
        "metallicFactor" : 0.1,
        "roughnessFactor" : 0.5
      }
    }
  ],
  "meshes" : [
    {
      "primitives" : [
        {
          "attributes" : {
            "POSITION" : 1,
            "NORMAL" : 2,
            "TANGENT" : 3,
            "TEXCOORD_0" : 4
          },
          "indices" : 0,
          "material" : 0
        }
      ],
      "name" : "S_Envi_Umeda_Building_023"
    }
  ],
  "buffers" : [
    {
      "uri" : "S_Envi_Umeda_Building_023.bin",
      "byteLength" : 448284
    }
  ],
  "bufferViews" : [
    {
      "buffer" : 0,
      "byteOffset" : 0,
      "byteLength" : 38940
    },
    {
      "buffer" : 0,
      "byteOffset" : 38940,
      "byteLength" : 102336
    },
    {
      "buffer" : 0,
      "byteOffset" : 141276,
      "byteLength" : 102336
    },
    {
      "buffer" : 0,
      "byteOffset" : 243612,
      "byteLength" : 136448
    },
    {
      "buffer" : 0,
      "byteOffset" : 380060,
      "byteLength" : 68224
    }
  ],
  "accessors" : [
    {
      "bufferView" : 0,
      "componentType" : 5123,
      "count" : 19470,
      "type" : "SCALAR"
    },
    {
      "bufferView" : 1,
      "min" : [ -184.259, 5.32926, 1.62753 ],
      "max" : [ -147.837, 35.4941, 30.195 ],
      "componentType" : 5126,
      "count" : 8528,
      "type" : "VEC3"
    },
    {
      "bufferView" : 2,
      "componentType" : 5126,
      "count" : 8528,
      "type" : "VEC3"
    },
    {
      "bufferView" : 3,
      "componentType" : 5126,
      "count" : 8528,
      "type" : "VEC4"
    },
    {
      "bufferView" : 4,
      "componentType" : 5126,
      "count" : 8528,
      "type" : "VEC2"
    }
  ]
}
