{
  "asset" : {
    "generator" : "UE Viewer (umodel) build 1579 based",
    "version" : "2.0"
  },
  "scene" : 0,
  "scenes" : [
    {
      "nodes" : [ 0 ]
    }
  ],
  "nodes" : [
    {
      "name" : "S_Envi_Umeda_Building_048",
      "mesh" : 0
    }
  ],
  "materials" : [
    {
      "name" : "MI_Envi_Umeda_Module_23",
      "pbrMetallicRoughness" : {
        "baseColorFactor" : [ 0.3, 0.3, 0.3, 1.0 ],
        "metallicFactor" : 0.1,
        "roughnessFactor" : 0.5
      }
    },
    {
      "name" : "MI_Envi_commontrim_09",
      "pbrMetallicRoughness" : {
        "baseColorFactor" : [ 0.9, 0.3, 0.3, 1.0 ],
        "metallicFactor" : 0.1,
        "roughnessFactor" : 0.5
      }
    },
    {
      "name" : "MI_Envi_Laboratory_floor_032",
      "pbrMetallicRoughness" : {
        "baseColorFactor" : [ 0.3, 0.9, 0.3, 1.0 ],
        "metallicFactor" : 0.1,
        "roughnessFactor" : 0.5
      }
    }
  ],
  "meshes" : [
    {
      "primitives" : [
        {
          "attributes" : {
            "POSITION" : 1,
            "NORMAL" : 2,
            "TANGENT" : 3,
            "TEXCOORD_0" : 4,
            "TEXCOORD_1" : 5
          },
          "indices" : 0,
          "material" : 0
        },
        {
          "attributes" : {
            "POSITION" : 7,
            "NORMAL" : 8,
            "TANGENT" : 9,
            "TEXCOORD_0" : 10,
            "TEXCOORD_1" : 11
          },
          "indices" : 6,
          "material" : 1
        },
        {
          "attributes" : {
            "POSITION" : 13,
            "NORMAL" : 14,
            "TANGENT" : 15,
            "TEXCOORD_0" : 16,
            "TEXCOORD_1" : 17
          },
          "indices" : 12,
          "material" : 2
        }
      ],
      "name" : "S_Envi_Umeda_Building_048"
    }
  ],
  "buffers" : [
    {
      "uri" : "S_Envi_Umeda_Building_048.bin",
      "byteLength" : 52908
    }
  ],
  "bufferViews" : [
    {
      "buffer" : 0,
      "byteOffset" : 0,
      "byteLength" : 1916
    },
    {
      "buffer" : 0,
      "byteOffset" : 1916,
      "byteLength" : 4392
    },
    {
      "buffer" : 0,
      "byteOffset" : 6308,
      "byteLength" : 4392
    },
    {
      "buffer" : 0,
      "byteOffset" : 10700,
      "byteLength" : 5856
    },
    {
      "buffer" : 0,
      "byteOffset" : 16556,
      "byteLength" : 2928
    },
    {
      "buffer" : 0,
      "byteOffset" : 19484,
      "byteLength" : 2928
    },
    {
      "buffer" : 0,
      "byteOffset" : 22412,
      "byteLength" : 1728
    },
    {
      "buffer" : 0,
      "byteOffset" : 24140,
      "byteLength" : 4152
    },
    {
      "buffer" : 0,
      "byteOffset" : 28292,
      "byteLength" : 4152
    },
    {
      "buffer" : 0,
      "byteOffset" : 32444,
      "byteLength" : 5536
    },
    {
      "buffer" : 0,
      "byteOffset" : 37980,
      "byteLength" : 2768
    },
    {
      "buffer" : 0,
      "byteOffset" : 40748,
      "byteLength" : 2768
    },
    {
      "buffer" : 0,
      "byteOffset" : 43516,
      "byteLength" : 768
    },
    {
      "buffer" : 0,
      "byteOffset" : 44284,
      "byteLength" : 1848
    },
    {
      "buffer" : 0,
      "byteOffset" : 46132,
      "byteLength" : 1848
    },
    {
      "buffer" : 0,
      "byteOffset" : 47980,
      "byteLength" : 2464
    },
    {
      "buffer" : 0,
      "byteOffset" : 50444,
      "byteLength" : 1232
    },
    {
      "buffer" : 0,
      "byteOffset" : 51676,
      "byteLength" : 1232
    }
  ],
  "accessors" : [
    {
      "bufferView" : 0,
      "componentType" : 5123,
      "count" : 957,
      "type" : "SCALAR"
    },
    {
      "bufferView" : 1,
      "min" : [ -34.2661, 6.98349, -36.9274 ],
      "max" : [ 34.2661, 183.013, 36.9274 ],
      "componentType" : 5126,
      "count" : 366,
      "type" : "VEC3"
    },
    {
      "bufferView" : 2,
      "componentType" : 5126,
      "count" : 366,
      "type" : "VEC3"
    },
    {
      "bufferView" : 3,
      "componentType" : 5126,
      "count" : 366,
      "type" : "VEC4"
    },
    {
      "bufferView" : 4,
      "componentType" : 5126,
      "count" : 366,
      "type" : "VEC2"
    },
    {
      "bufferView" : 5,
      "componentType" : 5126,
      "count" : 366,
      "type" : "VEC2"
    },
    {
      "bufferView" : 6,
      "componentType" : 5123,
      "count" : 864,
      "type" : "SCALAR"
    },
    {
      "bufferView" : 7,
      "min" : [ -30.824, -7.32422e-06, -33.7509 ],
      "max" : [ 31.5056, 183.013, 33.4195 ],
      "componentType" : 5126,
      "count" : 346,
      "type" : "VEC3"
    },
    {
      "bufferView" : 8,
      "componentType" : 5126,
      "count" : 346,
      "type" : "VEC3"
    },
    {
      "bufferView" : 9,
      "componentType" : 5126,
      "count" : 346,
      "type" : "VEC4"
    },
    {
      "bufferView" : 10,
      "componentType" : 5126,
      "count" : 346,
      "type" : "VEC2"
    },
    {
      "bufferView" : 11,
      "componentType" : 5126,
      "count" : 346,
      "type" : "VEC2"
    },
    {
      "bufferView" : 12,
      "componentType" : 5123,
      "count" : 384,
      "type" : "SCALAR"
    },
    {
      "bufferView" : 13,
      "min" : [ -20.6671, 10.0815, -12.2782 ],
      "max" : [ 21.2909, 135.375, 20.0681 ],
      "componentType" : 5126,
      "count" : 154,
      "type" : "VEC3"
    },
    {
      "bufferView" : 14,
      "componentType" : 5126,
      "count" : 154,
      "type" : "VEC3"
    },
    {
      "bufferView" : 15,
      "componentType" : 5126,
      "count" : 154,
      "type" : "VEC4"
    },
    {
      "bufferView" : 16,
      "componentType" : 5126,
      "count" : 154,
      "type" : "VEC2"
    },
    {
      "bufferView" : 17,
      "componentType" : 5126,
      "count" : 154,
      "type" : "VEC2"
    }
  ]
}
