{
  "asset" : {
    "generator" : "UE Viewer (umodel) build 1579 based",
    "version" : "2.0"
  },
  "scene" : 0,
  "scenes" : [
    {
      "nodes" : [ 0 ]
    }
  ],
  "nodes" : [
    {
      "name" : "S_Envi_Umeda_Distance_001k",
      "mesh" : 0
    }
  ],
  "materials" : [
    {
      "name" : "MI_Envi_Fyz_Distance_03a",
      "pbrMetallicRoughness" : {
        "baseColorFactor" : [ 0.3, 0.3, 0.3, 1.0 ],
        "metallicFactor" : 0.1,
        "roughnessFactor" : 0.5
      }
    }
  ],
  "meshes" : [
    {
      "primitives" : [
        {
          "attributes" : {
            "POSITION" : 1,
            "NORMAL" : 2,
            "TANGENT" : 3,
            "TEXCOORD_0" : 4,
            "TEXCOORD_1" : 5,
            "TEXCOORD_2" : 6
          },
          "indices" : 0,
          "material" : 0
        }
      ],
      "name" : "S_Envi_Umeda_Distance_001k"
    }
  ],
  "buffers" : [
    {
      "uri" : "S_Envi_Umeda_Distance_001k.bin",
      "byteLength" : 5816
    }
  ],
  "bufferViews" : [
    {
      "buffer" : 0,
      "byteOffset" : 0,
      "byteLength" : 504
    },
    {
      "buffer" : 0,
      "byteOffset" : 504,
      "byteLength" : 996
    },
    {
      "buffer" : 0,
      "byteOffset" : 1500,
      "byteLength" : 996
    },
    {
      "buffer" : 0,
      "byteOffset" : 2496,
      "byteLength" : 1328
    },
    {
      "buffer" : 0,
      "byteOffset" : 3824,
      "byteLength" : 664
    },
    {
      "buffer" : 0,
      "byteOffset" : 4488,
      "byteLength" : 664
    },
    {
      "buffer" : 0,
      "byteOffset" : 5152,
      "byteLength" : 664
    }
  ],
  "accessors" : [
    {
      "bufferView" : 0,
      "componentType" : 5123,
      "count" : 252,
      "type" : "SCALAR"
    },
    {
      "bufferView" : 1,
      "min" : [ -38.0506, -7.93457e-05, 0.000125628 ],
      "max" : [ 38.095, 20.3662, 9.77517 ],
      "componentType" : 5126,
      "count" : 83,
      "type" : "VEC3"
    },
    {
      "bufferView" : 2,
      "componentType" : 5126,
      "count" : 83,
      "type" : "VEC3"
    },
    {
      "bufferView" : 3,
      "componentType" : 5126,
      "count" : 83,
      "type" : "VEC4"
    },
    {
      "bufferView" : 4,
      "componentType" : 5126,
      "count" : 83,
      "type" : "VEC2"
    },
    {
      "bufferView" : 5,
      "componentType" : 5126,
      "count" : 83,
      "type" : "VEC2"
    },
    {
      "bufferView" : 6,
      "componentType" : 5126,
      "count" : 83,
      "type" : "VEC2"
    }
  ]
}
