{
  "asset" : {
    "generator" : "UE Viewer (umodel) build 1579 based",
    "version" : "2.0"
  },
  "scene" : 0,
  "scenes" : [
    {
      "nodes" : [ 0 ]
    }
  ],
  "nodes" : [
    {
      "name" : "S_Envi_Central_Props_040",
      "mesh" : 0
    }
  ],
  "materials" : [
    {
      "name" : "MI_Envi_Common_DownWall_01a",
      "pbrMetallicRoughness" : {
        "baseColorFactor" : [ 0.3, 0.3, 0.3, 1.0 ],
        "metallicFactor" : 0.1,
        "roughnessFactor" : 0.5
      }
    }
  ],
  "meshes" : [
    {
      "primitives" : [
        {
          "attributes" : {
            "POSITION" : 1,
            "NORMAL" : 2,
            "TANGENT" : 3,
            "TEXCOORD_0" : 4,
            "TEXCOORD_1" : 5
          },
          "indices" : 0,
          "material" : 0
        }
      ],
      "name" : "S_Envi_Central_Props_040"
    }
  ],
  "buffers" : [
    {
      "uri" : "S_Envi_Central_Props_040.bin",
      "byteLength" : 37864
    }
  ],
  "bufferViews" : [
    {
      "buffer" : 0,
      "byteOffset" : 0,
      "byteLength" : 1632
    },
    {
      "buffer" : 0,
      "byteOffset" : 1632,
      "byteLength" : 7764
    },
    {
      "buffer" : 0,
      "byteOffset" : 9396,
      "byteLength" : 7764
    },
    {
      "buffer" : 0,
      "byteOffset" : 17160,
      "byteLength" : 10352
    },
    {
      "buffer" : 0,
      "byteOffset" : 27512,
      "byteLength" : 5176
    },
    {
      "buffer" : 0,
      "byteOffset" : 32688,
      "byteLength" : 5176
    }
  ],
  "accessors" : [
    {
      "bufferView" : 0,
      "componentType" : 5123,
      "count" : 816,
      "type" : "SCALAR"
    },
    {
      "bufferView" : 1,
      "min" : [ -41.6476, -5.17986, -67.1243 ],
      "max" : [ 41.9958, -3.93049, 17.3094 ],
      "componentType" : 5126,
      "count" : 647,
      "type" : "VEC3"
    },
    {
      "bufferView" : 2,
      "componentType" : 5126,
      "count" : 647,
      "type" : "VEC3"
    },
    {
      "bufferView" : 3,
      "componentType" : 5126,
      "count" : 647,
      "type" : "VEC4"
    },
    {
      "bufferView" : 4,
      "componentType" : 5126,
      "count" : 647,
      "type" : "VEC2"
    },
    {
      "bufferView" : 5,
      "componentType" : 5126,
      "count" : 647,
      "type" : "VEC2"
    }
  ]
}
