{
  "asset" : {
    "generator" : "UE Viewer (umodel) build 1579 based",
    "version" : "2.0"
  },
  "scene" : 0,
  "scenes" : [
    {
      "nodes" : [ 0 ]
    }
  ],
  "nodes" : [
    {
      "name" : "S_Envi_Central_Props_034",
      "mesh" : 0
    }
  ],
  "materials" : [
    {
      "name" : "MI_Envi_Olgk_Server_01",
      "pbrMetallicRoughness" : {
        "baseColorFactor" : [ 0.3, 0.3, 0.3, 1.0 ],
        "metallicFactor" : 0.1,
        "roughnessFactor" : 0.5
      }
    }
  ],
  "meshes" : [
    {
      "primitives" : [
        {
          "attributes" : {
            "POSITION" : 1,
            "NORMAL" : 2,
            "TANGENT" : 3,
            "TEXCOORD_0" : 4,
            "TEXCOORD_1" : 5,
            "TEXCOORD_2" : 6
          },
          "indices" : 0,
          "material" : 0
        }
      ],
      "name" : "S_Envi_Central_Props_034"
    }
  ],
  "buffers" : [
    {
      "uri" : "S_Envi_Central_Props_034.bin",
      "byteLength" : 370560
    }
  ],
  "bufferViews" : [
    {
      "buffer" : 0,
      "byteOffset" : 0,
      "byteLength" : 20352
    },
    {
      "buffer" : 0,
      "byteOffset" : 20352,
      "byteLength" : 65664
    },
    {
      "buffer" : 0,
      "byteOffset" : 86016,
      "byteLength" : 65664
    },
    {
      "buffer" : 0,
      "byteOffset" : 151680,
      "byteLength" : 87552
    },
    {
      "buffer" : 0,
      "byteOffset" : 239232,
      "byteLength" : 43776
    },
    {
      "buffer" : 0,
      "byteOffset" : 283008,
      "byteLength" : 43776
    },
    {
      "buffer" : 0,
      "byteOffset" : 326784,
      "byteLength" : 43776
    }
  ],
  "accessors" : [
    {
      "bufferView" : 0,
      "componentType" : 5123,
      "count" : 10176,
      "type" : "SCALAR"
    },
    {
      "bufferView" : 1,
      "min" : [ -47.3205, -2.38146e-15, -3.74907 ],
      "max" : [ 2.08126, 3.03329, 39.1339 ],
      "componentType" : 5126,
      "count" : 5472,
      "type" : "VEC3"
    },
    {
      "bufferView" : 2,
      "componentType" : 5126,
      "count" : 5472,
      "type" : "VEC3"
    },
    {
      "bufferView" : 3,
      "componentType" : 5126,
      "count" : 5472,
      "type" : "VEC4"
    },
    {
      "bufferView" : 4,
      "componentType" : 5126,
      "count" : 5472,
      "type" : "VEC2"
    },
    {
      "bufferView" : 5,
      "componentType" : 5126,
      "count" : 5472,
      "type" : "VEC2"
    },
    {
      "bufferView" : 6,
      "componentType" : 5126,
      "count" : 5472,
      "type" : "VEC2"
    }
  ]
}
