{
  "asset" : {
    "generator" : "UE Viewer (umodel) build 1579 based",
    "version" : "2.0"
  },
  "scene" : 0,
  "scenes" : [
    {
      "nodes" : [ 0 ]
    }
  ],
  "nodes" : [
    {
      "name" : "S_Envi_Central_Props_005",
      "mesh" : 0
    }
  ],
  "materials" : [
    {
      "name" : "MI_Envi_Umeda_Prop_Monitor_01",
      "pbrMetallicRoughness" : {
        "baseColorFactor" : [ 0.3, 0.3, 0.3, 1.0 ],
        "metallicFactor" : 0.1,
        "roughnessFactor" : 0.5
      }
    },
    {
      "name" : "MI_Envi_Central_Prop_Monitor_001c",
      "pbrMetallicRoughness" : {
        "baseColorFactor" : [ 0.9, 0.3, 0.3, 1.0 ],
        "metallicFactor" : 0.1,
        "roughnessFactor" : 0.5
      }
    }
  ],
  "meshes" : [
    {
      "primitives" : [
        {
          "attributes" : {
            "POSITION" : 1,
            "NORMAL" : 2,
            "TANGENT" : 3,
            "TEXCOORD_0" : 4,
            "TEXCOORD_1" : 5,
            "TEXCOORD_2" : 6,
            "TEXCOORD_3" : 7
          },
          "indices" : 0,
          "material" : 0
        },
        {
          "attributes" : {
            "POSITION" : 9,
            "NORMAL" : 10,
            "TANGENT" : 11,
            "TEXCOORD_0" : 12,
            "TEXCOORD_1" : 13,
            "TEXCOORD_2" : 14,
            "TEXCOORD_3" : 15
          },
          "indices" : 8,
          "material" : 1
        }
      ],
      "name" : "S_Envi_Central_Props_005"
    }
  ],
  "buffers" : [
    {
      "uri" : "S_Envi_Central_Props_005.bin",
      "byteLength" : 62688
    }
  ],
  "bufferViews" : [
    {
      "buffer" : 0,
      "byteOffset" : 0,
      "byteLength" : 2532
    },
    {
      "buffer" : 0,
      "byteOffset" : 2532,
      "byteLength" : 9720
    },
    {
      "buffer" : 0,
      "byteOffset" : 12252,
      "byteLength" : 9720
    },
    {
      "buffer" : 0,
      "byteOffset" : 21972,
      "byteLength" : 12960
    },
    {
      "buffer" : 0,
      "byteOffset" : 34932,
      "byteLength" : 6480
    },
    {
      "buffer" : 0,
      "byteOffset" : 41412,
      "byteLength" : 6480
    },
    {
      "buffer" : 0,
      "byteOffset" : 47892,
      "byteLength" : 6480
    },
    {
      "buffer" : 0,
      "byteOffset" : 54372,
      "byteLength" : 6480
    },
    {
      "buffer" : 0,
      "byteOffset" : 60852,
      "byteLength" : 108
    },
    {
      "buffer" : 0,
      "byteOffset" : 60960,
      "byteLength" : 288
    },
    {
      "buffer" : 0,
      "byteOffset" : 61248,
      "byteLength" : 288
    },
    {
      "buffer" : 0,
      "byteOffset" : 61536,
      "byteLength" : 384
    },
    {
      "buffer" : 0,
      "byteOffset" : 61920,
      "byteLength" : 192
    },
    {
      "buffer" : 0,
      "byteOffset" : 62112,
      "byteLength" : 192
    },
    {
      "buffer" : 0,
      "byteOffset" : 62304,
      "byteLength" : 192
    },
    {
      "buffer" : 0,
      "byteOffset" : 62496,
      "byteLength" : 192
    }
  ],
  "accessors" : [
    {
      "bufferView" : 0,
      "componentType" : 5123,
      "count" : 1266,
      "type" : "SCALAR"
    },
    {
      "bufferView" : 1,
      "min" : [ -0.322594, -0.82933, -2.31441 ],
      "max" : [ 0.322594, 0.82933, 2.31441 ],
      "componentType" : 5126,
      "count" : 810,
      "type" : "VEC3"
    },
    {
      "bufferView" : 2,
      "componentType" : 5126,
      "count" : 810,
      "type" : "VEC3"
    },
    {
      "bufferView" : 3,
      "componentType" : 5126,
      "count" : 810,
      "type" : "VEC4"
    },
    {
      "bufferView" : 4,
      "componentType" : 5126,
      "count" : 810,
      "type" : "VEC2"
    },
    {
      "bufferView" : 5,
      "componentType" : 5126,
      "count" : 810,
      "type" : "VEC2"
    },
    {
      "bufferView" : 6,
      "componentType" : 5126,
      "count" : 810,
      "type" : "VEC2"
    },
    {
      "bufferView" : 7,
      "componentType" : 5126,
      "count" : 810,
      "type" : "VEC2"
    },
    {
      "bufferView" : 8,
      "componentType" : 5123,
      "count" : 54,
      "type" : "SCALAR"
    },
    {
      "bufferView" : 9,
      "min" : [ -0.263462, -0.803891, -2.28898 ],
      "max" : [ 0.3039, 0.737889, 2.23818 ],
      "componentType" : 5126,
      "count" : 24,
      "type" : "VEC3"
    },
    {
      "bufferView" : 10,
      "componentType" : 5126,
      "count" : 24,
      "type" : "VEC3"
    },
    {
      "bufferView" : 11,
      "componentType" : 5126,
      "count" : 24,
      "type" : "VEC4"
    },
    {
      "bufferView" : 12,
      "componentType" : 5126,
      "count" : 24,
      "type" : "VEC2"
    },
    {
      "bufferView" : 13,
      "componentType" : 5126,
      "count" : 24,
      "type" : "VEC2"
    },
    {
      "bufferView" : 14,
      "componentType" : 5126,
      "count" : 24,
      "type" : "VEC2"
    },
    {
      "bufferView" : 15,
      "componentType" : 5126,
      "count" : 24,
      "type" : "VEC2"
    }
  ]
}
