{
  "asset" : {
    "generator" : "UE Viewer (umodel) build 1579 based",
    "version" : "2.0"
  },
  "scene" : 0,
  "scenes" : [
    {
      "nodes" : [ 0 ]
    }
  ],
  "nodes" : [
    {
      "name" : "S_Envi_Laboratory_Roof_001c",
      "mesh" : 0
    }
  ],
  "materials" : [
    {
      "name" : "MI_Envi_Laboratory_Building_002a",
      "pbrMetallicRoughness" : {
        "baseColorFactor" : [ 0.3, 0.3, 0.3, 1.0 ],
        "metallicFactor" : 0.1,
        "roughnessFactor" : 0.5
      }
    }
  ],
  "meshes" : [
    {
      "primitives" : [
        {
          "attributes" : {
            "POSITION" : 1,
            "NORMAL" : 2,
            "TANGENT" : 3,
            "TEXCOORD_0" : 4,
            "TEXCOORD_1" : 5,
            "TEXCOORD_2" : 6
          },
          "indices" : 0,
          "material" : 0
        }
      ],
      "name" : "S_Envi_Laboratory_Roof_001c"
    }
  ],
  "buffers" : [
    {
      "uri" : "S_Envi_Laboratory_Roof_001c.bin",
      "byteLength" : 1888
    }
  ],
  "bufferViews" : [
    {
      "buffer" : 0,
      "byteOffset" : 0,
      "byteLength" : 96
    },
    {
      "buffer" : 0,
      "byteOffset" : 96,
      "byteLength" : 336
    },
    {
      "buffer" : 0,
      "byteOffset" : 432,
      "byteLength" : 336
    },
    {
      "buffer" : 0,
      "byteOffset" : 768,
      "byteLength" : 448
    },
    {
      "buffer" : 0,
      "byteOffset" : 1216,
      "byteLength" : 224
    },
    {
      "buffer" : 0,
      "byteOffset" : 1440,
      "byteLength" : 224
    },
    {
      "buffer" : 0,
      "byteOffset" : 1664,
      "byteLength" : 224
    }
  ],
  "accessors" : [
    {
      "bufferView" : 0,
      "componentType" : 5123,
      "count" : 48,
      "type" : "SCALAR"
    },
    {
      "bufferView" : 1,
      "min" : [ -36.8361, 0, 6.10352e-07 ],
      "max" : [ 0, 0.3761, 14.3318 ],
      "componentType" : 5126,
      "count" : 28,
      "type" : "VEC3"
    },
    {
      "bufferView" : 2,
      "componentType" : 5126,
      "count" : 28,
      "type" : "VEC3"
    },
    {
      "bufferView" : 3,
      "componentType" : 5126,
      "count" : 28,
      "type" : "VEC4"
    },
    {
      "bufferView" : 4,
      "componentType" : 5126,
      "count" : 28,
      "type" : "VEC2"
    },
    {
      "bufferView" : 5,
      "componentType" : 5126,
      "count" : 28,
      "type" : "VEC2"
    },
    {
      "bufferView" : 6,
      "componentType" : 5126,
      "count" : 28,
      "type" : "VEC2"
    }
  ]
}
