{
  "asset" : {
    "generator" : "UE Viewer (umodel) build 1579 based",
    "version" : "2.0"
  },
  "scene" : 0,
  "scenes" : [
    {
      "nodes" : [ 0 ]
    }
  ],
  "nodes" : [
    {
      "name" : "S_Envi_Hongta_Building_023a",
      "mesh" : 0
    }
  ],
  "materials" : [
    {
      "name" : "MI_Envi_Central_Building_012",
      "pbrMetallicRoughness" : {
        "baseColorFactor" : [ 0.3, 0.3, 0.3, 1.0 ],
        "metallicFactor" : 0.1,
        "roughnessFactor" : 0.5
      }
    }
  ],
  "meshes" : [
    {
      "primitives" : [
        {
          "attributes" : {
            "POSITION" : 1,
            "NORMAL" : 2,
            "TANGENT" : 3,
            "TEXCOORD_0" : 4,
            "TEXCOORD_1" : 5
          },
          "indices" : 0,
          "material" : 0
        }
      ],
      "name" : "S_Envi_Hongta_Building_023a"
    }
  ],
  "buffers" : [
    {
      "uri" : "S_Envi_Hongta_Building_023a.bin",
      "byteLength" : 925892
    }
  ],
  "bufferViews" : [
    {
      "buffer" : 0,
      "byteOffset" : 0,
      "byteLength" : 58956
    },
    {
      "buffer" : 0,
      "byteOffset" : 58956,
      "byteLength" : 185772
    },
    {
      "buffer" : 0,
      "byteOffset" : 244728,
      "byteLength" : 185772
    },
    {
      "buffer" : 0,
      "byteOffset" : 430500,
      "byteLength" : 247696
    },
    {
      "buffer" : 0,
      "byteOffset" : 678196,
      "byteLength" : 123848
    },
    {
      "buffer" : 0,
      "byteOffset" : 802044,
      "byteLength" : 123848
    }
  ],
  "accessors" : [
    {
      "bufferView" : 0,
      "componentType" : 5123,
      "count" : 29478,
      "type" : "SCALAR"
    },
    {
      "bufferView" : 1,
      "min" : [ -21.6036, -2.2111, 10.936 ],
      "max" : [ -1.37966, 1.08483, 20.1138 ],
      "componentType" : 5126,
      "count" : 15481,
      "type" : "VEC3"
    },
    {
      "bufferView" : 2,
      "componentType" : 5126,
      "count" : 15481,
      "type" : "VEC3"
    },
    {
      "bufferView" : 3,
      "componentType" : 5126,
      "count" : 15481,
      "type" : "VEC4"
    },
    {
      "bufferView" : 4,
      "componentType" : 5126,
      "count" : 15481,
      "type" : "VEC2"
    },
    {
      "bufferView" : 5,
      "componentType" : 5126,
      "count" : 15481,
      "type" : "VEC2"
    }
  ]
}
