{
  "asset" : {
    "generator" : "UE Viewer (umodel) build 1579 based",
    "version" : "2.0"
  },
  "scene" : 0,
  "scenes" : [
    {
      "nodes" : [ 0 ]
    }
  ],
  "nodes" : [
    {
      "name" : "S_Envi_Reward_Building_006",
      "mesh" : 0
    }
  ],
  "materials" : [
    {
      "name" : "MI_Envi_Reward_Building_05",
      "pbrMetallicRoughness" : {
        "baseColorFactor" : [ 0.3, 0.3, 0.3, 1.0 ],
        "metallicFactor" : 0.1,
        "roughnessFactor" : 0.5
      }
    }
  ],
  "meshes" : [
    {
      "primitives" : [
        {
          "attributes" : {
            "POSITION" : 1,
            "NORMAL" : 2,
            "TANGENT" : 3,
            "TEXCOORD_0" : 4,
            "TEXCOORD_1" : 5
          },
          "indices" : 0,
          "material" : 0
        }
      ],
      "name" : "S_Envi_Reward_Building_006"
    }
  ],
  "buffers" : [
    {
      "uri" : "S_Envi_Reward_Building_006.bin",
      "byteLength" : 30936
    }
  ],
  "bufferViews" : [
    {
      "buffer" : 0,
      "byteOffset" : 0,
      "byteLength" : 3384
    },
    {
      "buffer" : 0,
      "byteOffset" : 3384,
      "byteLength" : 5904
    },
    {
      "buffer" : 0,
      "byteOffset" : 9288,
      "byteLength" : 5904
    },
    {
      "buffer" : 0,
      "byteOffset" : 15192,
      "byteLength" : 7872
    },
    {
      "buffer" : 0,
      "byteOffset" : 23064,
      "byteLength" : 3936
    },
    {
      "buffer" : 0,
      "byteOffset" : 27000,
      "byteLength" : 3936
    }
  ],
  "accessors" : [
    {
      "bufferView" : 0,
      "componentType" : 5123,
      "count" : 1692,
      "type" : "SCALAR"
    },
    {
      "bufferView" : 1,
      "min" : [ -0.188098, -1.79237, -1.22893 ],
      "max" : [ 0.186902, 1.79237, 1.22893 ],
      "componentType" : 5126,
      "count" : 492,
      "type" : "VEC3"
    },
    {
      "bufferView" : 2,
      "componentType" : 5126,
      "count" : 492,
      "type" : "VEC3"
    },
    {
      "bufferView" : 3,
      "componentType" : 5126,
      "count" : 492,
      "type" : "VEC4"
    },
    {
      "bufferView" : 4,
      "componentType" : 5126,
      "count" : 492,
      "type" : "VEC2"
    },
    {
      "bufferView" : 5,
      "componentType" : 5126,
      "count" : 492,
      "type" : "VEC2"
    }
  ]
}
