{
  "asset" : {
    "generator" : "UE Viewer (umodel) build 1579 based",
    "version" : "2.0"
  },
  "scene" : 0,
  "scenes" : [
    {
      "nodes" : [ 0 ]
    }
  ],
  "nodes" : [
    {
      "name" : "S_Envi_Umeda_Monitor_001",
      "mesh" : 0
    }
  ],
  "materials" : [
    {
      "name" : "MI_Envi_Umeda_Monitor_001",
      "pbrMetallicRoughness" : {
        "baseColorFactor" : [ 0.3, 0.3, 0.3, 1.0 ],
        "metallicFactor" : 0.1,
        "roughnessFactor" : 0.5
      }
    }
  ],
  "meshes" : [
    {
      "primitives" : [
        {
          "attributes" : {
            "POSITION" : 1,
            "NORMAL" : 2,
            "TANGENT" : 3,
            "TEXCOORD_0" : 4,
            "TEXCOORD_1" : 5
          },
          "indices" : 0,
          "material" : 0
        }
      ],
      "name" : "S_Envi_Umeda_Monitor_001"
    }
  ],
  "buffers" : [
    {
      "uri" : "S_Envi_Umeda_Monitor_001.bin",
      "byteLength" : 74204
    }
  ],
  "bufferViews" : [
    {
      "buffer" : 0,
      "byteOffset" : 0,
      "byteLength" : 6108
    },
    {
      "buffer" : 0,
      "byteOffset" : 6108,
      "byteLength" : 14592
    },
    {
      "buffer" : 0,
      "byteOffset" : 20700,
      "byteLength" : 14592
    },
    {
      "buffer" : 0,
      "byteOffset" : 35292,
      "byteLength" : 19456
    },
    {
      "buffer" : 0,
      "byteOffset" : 54748,
      "byteLength" : 9728
    },
    {
      "buffer" : 0,
      "byteOffset" : 64476,
      "byteLength" : 9728
    }
  ],
  "accessors" : [
    {
      "bufferView" : 0,
      "componentType" : 5123,
      "count" : 3054,
      "type" : "SCALAR"
    },
    {
      "bufferView" : 1,
      "min" : [ -1.39865, -4.98155e-07, -4.13376 ],
      "max" : [ 1.39865, 2.506, 4.13376 ],
      "componentType" : 5126,
      "count" : 1216,
      "type" : "VEC3"
    },
    {
      "bufferView" : 2,
      "componentType" : 5126,
      "count" : 1216,
      "type" : "VEC3"
    },
    {
      "bufferView" : 3,
      "componentType" : 5126,
      "count" : 1216,
      "type" : "VEC4"
    },
    {
      "bufferView" : 4,
      "componentType" : 5126,
      "count" : 1216,
      "type" : "VEC2"
    },
    {
      "bufferView" : 5,
      "componentType" : 5126,
      "count" : 1216,
      "type" : "VEC2"
    }
  ]
}
