{
  "asset" : {
    "generator" : "UE Viewer (umodel) build 1579 based",
    "version" : "2.0"
  },
  "scene" : 0,
  "scenes" : [
    {
      "nodes" : [ 0 ]
    }
  ],
  "nodes" : [
    {
      "name" : "S_Envi_Umeda_Building_006",
      "mesh" : 0
    }
  ],
  "materials" : [
    {
      "name" : "MI_Envi_Umeda_Building_001",
      "pbrMetallicRoughness" : {
        "baseColorFactor" : [ 0.3, 0.3, 0.3, 1.0 ],
        "metallicFactor" : 0.1,
        "roughnessFactor" : 0.5
      }
    }
  ],
  "meshes" : [
    {
      "primitives" : [
        {
          "attributes" : {
            "POSITION" : 1,
            "NORMAL" : 2,
            "TANGENT" : 3,
            "TEXCOORD_0" : 4,
            "TEXCOORD_1" : 5
          },
          "indices" : 0,
          "material" : 0
        }
      ],
      "name" : "S_Envi_Umeda_Building_006"
    }
  ],
  "buffers" : [
    {
      "uri" : "S_Envi_Umeda_Building_006.bin",
      "byteLength" : 65112
    }
  ],
  "bufferViews" : [
    {
      "buffer" : 0,
      "byteOffset" : 0,
      "byteLength" : 3512
    },
    {
      "buffer" : 0,
      "byteOffset" : 3512,
      "byteLength" : 13200
    },
    {
      "buffer" : 0,
      "byteOffset" : 16712,
      "byteLength" : 13200
    },
    {
      "buffer" : 0,
      "byteOffset" : 29912,
      "byteLength" : 17600
    },
    {
      "buffer" : 0,
      "byteOffset" : 47512,
      "byteLength" : 8800
    },
    {
      "buffer" : 0,
      "byteOffset" : 56312,
      "byteLength" : 8800
    }
  ],
  "accessors" : [
    {
      "bufferView" : 0,
      "componentType" : 5123,
      "count" : 1755,
      "type" : "SCALAR"
    },
    {
      "bufferView" : 1,
      "min" : [ -36.0868, 20.8679, -29.3421 ],
      "max" : [ -8.02496, 25.4505, 4.14911 ],
      "componentType" : 5126,
      "count" : 1100,
      "type" : "VEC3"
    },
    {
      "bufferView" : 2,
      "componentType" : 5126,
      "count" : 1100,
      "type" : "VEC3"
    },
    {
      "bufferView" : 3,
      "componentType" : 5126,
      "count" : 1100,
      "type" : "VEC4"
    },
    {
      "bufferView" : 4,
      "componentType" : 5126,
      "count" : 1100,
      "type" : "VEC2"
    },
    {
      "bufferView" : 5,
      "componentType" : 5126,
      "count" : 1100,
      "type" : "VEC2"
    }
  ]
}
