{
  "asset" : {
    "generator" : "UE Viewer (umodel) build 1579 based",
    "version" : "2.0"
  },
  "scene" : 0,
  "scenes" : [
    {
      "nodes" : [ 0 ]
    }
  ],
  "nodes" : [
    {
      "name" : "S_Envi_Central_Building_003",
      "mesh" : 0
    }
  ],
  "materials" : [
    {
      "name" : "MI_Envi_Central_TileFloor_001",
      "pbrMetallicRoughness" : {
        "baseColorFactor" : [ 0.3, 0.3, 0.3, 1.0 ],
        "metallicFactor" : 0.1,
        "roughnessFactor" : 0.5
      }
    },
    {
      "name" : "WorldGridMaterial",
      "pbrMetallicRoughness" : {
        "baseColorFactor" : [ 0.9, 0.3, 0.3, 1.0 ],
        "metallicFactor" : 0.1,
        "roughnessFactor" : 0.5
      }
    },
    {
      "name" : "MI_PM_Glass_11a",
      "pbrMetallicRoughness" : {
        "baseColorFactor" : [ 0.3, 0.9, 0.3, 1.0 ],
        "metallicFactor" : 0.1,
        "roughnessFactor" : 0.5
      }
    }
  ],
  "meshes" : [
    {
      "primitives" : [
        {
          "attributes" : {
            "POSITION" : 1,
            "NORMAL" : 2,
            "TANGENT" : 3,
            "TEXCOORD_0" : 4,
            "TEXCOORD_1" : 5
          },
          "indices" : 0,
          "material" : 0
        },
        {
          "attributes" : {
            "POSITION" : 7,
            "NORMAL" : 8,
            "TANGENT" : 9,
            "TEXCOORD_0" : 10,
            "TEXCOORD_1" : 11
          },
          "indices" : 6,
          "material" : 1
        },
        {
          "attributes" : {
            "POSITION" : 13,
            "NORMAL" : 14,
            "TANGENT" : 15,
            "TEXCOORD_0" : 16,
            "TEXCOORD_1" : 17
          },
          "indices" : 12,
          "material" : 2
        }
      ],
      "name" : "S_Envi_Central_Building_003"
    }
  ],
  "buffers" : [
    {
      "uri" : "S_Envi_Central_Building_003.bin",
      "byteLength" : 5352
    }
  ],
  "bufferViews" : [
    {
      "buffer" : 0,
      "byteOffset" : 0,
      "byteLength" : 200
    },
    {
      "buffer" : 0,
      "byteOffset" : 200,
      "byteLength" : 396
    },
    {
      "buffer" : 0,
      "byteOffset" : 596,
      "byteLength" : 396
    },
    {
      "buffer" : 0,
      "byteOffset" : 992,
      "byteLength" : 528
    },
    {
      "buffer" : 0,
      "byteOffset" : 1520,
      "byteLength" : 264
    },
    {
      "buffer" : 0,
      "byteOffset" : 1784,
      "byteLength" : 264
    },
    {
      "buffer" : 0,
      "byteOffset" : 2048,
      "byteLength" : 156
    },
    {
      "buffer" : 0,
      "byteOffset" : 2204,
      "byteLength" : 624
    },
    {
      "buffer" : 0,
      "byteOffset" : 2828,
      "byteLength" : 624
    },
    {
      "buffer" : 0,
      "byteOffset" : 3452,
      "byteLength" : 832
    },
    {
      "buffer" : 0,
      "byteOffset" : 4284,
      "byteLength" : 416
    },
    {
      "buffer" : 0,
      "byteOffset" : 4700,
      "byteLength" : 416
    },
    {
      "buffer" : 0,
      "byteOffset" : 5116,
      "byteLength" : 12
    },
    {
      "buffer" : 0,
      "byteOffset" : 5128,
      "byteLength" : 48
    },
    {
      "buffer" : 0,
      "byteOffset" : 5176,
      "byteLength" : 48
    },
    {
      "buffer" : 0,
      "byteOffset" : 5224,
      "byteLength" : 64
    },
    {
      "buffer" : 0,
      "byteOffset" : 5288,
      "byteLength" : 32
    },
    {
      "buffer" : 0,
      "byteOffset" : 5320,
      "byteLength" : 32
    }
  ],
  "accessors" : [
    {
      "bufferView" : 0,
      "componentType" : 5123,
      "count" : 99,
      "type" : "SCALAR"
    },
    {
      "bufferView" : 1,
      "min" : [ -0.697294, 0.195808, -18.8241 ],
      "max" : [ 18.8253, 0.195811, -0.576797 ],
      "componentType" : 5126,
      "count" : 33,
      "type" : "VEC3"
    },
    {
      "bufferView" : 2,
      "componentType" : 5126,
      "count" : 33,
      "type" : "VEC3"
    },
    {
      "bufferView" : 3,
      "componentType" : 5126,
      "count" : 33,
      "type" : "VEC4"
    },
    {
      "bufferView" : 4,
      "componentType" : 5126,
      "count" : 33,
      "type" : "VEC2"
    },
    {
      "bufferView" : 5,
      "componentType" : 5126,
      "count" : 33,
      "type" : "VEC2"
    },
    {
      "bufferView" : 6,
      "componentType" : 5123,
      "count" : 78,
      "type" : "SCALAR"
    },
    {
      "bufferView" : 7,
      "min" : [ -0.697294, -0.291215, -16.7508 ],
      "max" : [ 0.483807, 0.195811, -7.19808 ],
      "componentType" : 5126,
      "count" : 52,
      "type" : "VEC3"
    },
    {
      "bufferView" : 8,
      "componentType" : 5126,
      "count" : 52,
      "type" : "VEC3"
    },
    {
      "bufferView" : 9,
      "componentType" : 5126,
      "count" : 52,
      "type" : "VEC4"
    },
    {
      "bufferView" : 10,
      "componentType" : 5126,
      "count" : 52,
      "type" : "VEC2"
    },
    {
      "bufferView" : 11,
      "componentType" : 5126,
      "count" : 52,
      "type" : "VEC2"
    },
    {
      "bufferView" : 12,
      "componentType" : 5123,
      "count" : 6,
      "type" : "SCALAR"
    },
    {
      "bufferView" : 13,
      "min" : [ -0.564421, 0.175227, -16.7508 ],
      "max" : [ 0.350935, 0.175229, -7.19808 ],
      "componentType" : 5126,
      "count" : 4,
      "type" : "VEC3"
    },
    {
      "bufferView" : 14,
      "componentType" : 5126,
      "count" : 4,
      "type" : "VEC3"
    },
    {
      "bufferView" : 15,
      "componentType" : 5126,
      "count" : 4,
      "type" : "VEC4"
    },
    {
      "bufferView" : 16,
      "componentType" : 5126,
      "count" : 4,
      "type" : "VEC2"
    },
    {
      "bufferView" : 17,
      "componentType" : 5126,
      "count" : 4,
      "type" : "VEC2"
    }
  ]
}
