{
  "asset" : {
    "generator" : "UE Viewer (umodel) build 1579 based",
    "version" : "2.0"
  },
  "scene" : 0,
  "scenes" : [
    {
      "nodes" : [ 0 ]
    }
  ],
  "nodes" : [
    {
      "name" : "S_Envi_Laboratory_Building_034",
      "mesh" : 0
    }
  ],
  "materials" : [
    {
      "name" : "MI_Envi_Common_DownWall_001c",
      "pbrMetallicRoughness" : {
        "baseColorFactor" : [ 0.3, 0.3, 0.3, 1.0 ],
        "metallicFactor" : 0.1,
        "roughnessFactor" : 0.5
      }
    },
    {
      "name" : "MI_Envi_Umeda_Base_Parterre_2",
      "pbrMetallicRoughness" : {
        "baseColorFactor" : [ 0.9, 0.3, 0.3, 1.0 ],
        "metallicFactor" : 0.1,
        "roughnessFactor" : 0.5
      }
    },
    {
      "name" : "MI_Envi_Umeda_Base_Ladder_01",
      "pbrMetallicRoughness" : {
        "baseColorFactor" : [ 0.3, 0.9, 0.3, 1.0 ],
        "metallicFactor" : 0.1,
        "roughnessFactor" : 0.5
      }
    }
  ],
  "meshes" : [
    {
      "primitives" : [
        {
          "attributes" : {
            "POSITION" : 1,
            "NORMAL" : 2,
            "TANGENT" : 3,
            "TEXCOORD_0" : 4,
            "TEXCOORD_1" : 5
          },
          "indices" : 0,
          "material" : 0
        },
        {
          "attributes" : {
            "POSITION" : 7,
            "NORMAL" : 8,
            "TANGENT" : 9,
            "TEXCOORD_0" : 10,
            "TEXCOORD_1" : 11
          },
          "indices" : 6,
          "material" : 1
        },
        {
          "attributes" : {
            "POSITION" : 13,
            "NORMAL" : 14,
            "TANGENT" : 15,
            "TEXCOORD_0" : 16,
            "TEXCOORD_1" : 17
          },
          "indices" : 12,
          "material" : 2
        }
      ],
      "name" : "S_Envi_Laboratory_Building_034"
    }
  ],
  "buffers" : [
    {
      "uri" : "S_Envi_Laboratory_Building_034.bin",
      "byteLength" : 75712
    }
  ],
  "bufferViews" : [
    {
      "buffer" : 0,
      "byteOffset" : 0,
      "byteLength" : 168
    },
    {
      "buffer" : 0,
      "byteOffset" : 168,
      "byteLength" : 576
    },
    {
      "buffer" : 0,
      "byteOffset" : 744,
      "byteLength" : 576
    },
    {
      "buffer" : 0,
      "byteOffset" : 1320,
      "byteLength" : 768
    },
    {
      "buffer" : 0,
      "byteOffset" : 2088,
      "byteLength" : 384
    },
    {
      "buffer" : 0,
      "byteOffset" : 2472,
      "byteLength" : 384
    },
    {
      "buffer" : 0,
      "byteOffset" : 2856,
      "byteLength" : 2856
    },
    {
      "buffer" : 0,
      "byteOffset" : 5712,
      "byteLength" : 5088
    },
    {
      "buffer" : 0,
      "byteOffset" : 10800,
      "byteLength" : 5088
    },
    {
      "buffer" : 0,
      "byteOffset" : 15888,
      "byteLength" : 6784
    },
    {
      "buffer" : 0,
      "byteOffset" : 22672,
      "byteLength" : 3392
    },
    {
      "buffer" : 0,
      "byteOffset" : 26064,
      "byteLength" : 3392
    },
    {
      "buffer" : 0,
      "byteOffset" : 29456,
      "byteLength" : 2352
    },
    {
      "buffer" : 0,
      "byteOffset" : 31808,
      "byteLength" : 9408
    },
    {
      "buffer" : 0,
      "byteOffset" : 41216,
      "byteLength" : 9408
    },
    {
      "buffer" : 0,
      "byteOffset" : 50624,
      "byteLength" : 12544
    },
    {
      "buffer" : 0,
      "byteOffset" : 63168,
      "byteLength" : 6272
    },
    {
      "buffer" : 0,
      "byteOffset" : 69440,
      "byteLength" : 6272
    }
  ],
  "accessors" : [
    {
      "bufferView" : 0,
      "componentType" : 5123,
      "count" : 84,
      "type" : "SCALAR"
    },
    {
      "bufferView" : 1,
      "min" : [ 8.44799, 2.73016, 5.75324 ],
      "max" : [ 10.473, 2.98016, 5.94794 ],
      "componentType" : 5126,
      "count" : 48,
      "type" : "VEC3"
    },
    {
      "bufferView" : 2,
      "componentType" : 5126,
      "count" : 48,
      "type" : "VEC3"
    },
    {
      "bufferView" : 3,
      "componentType" : 5126,
      "count" : 48,
      "type" : "VEC4"
    },
    {
      "bufferView" : 4,
      "componentType" : 5126,
      "count" : 48,
      "type" : "VEC2"
    },
    {
      "bufferView" : 5,
      "componentType" : 5126,
      "count" : 48,
      "type" : "VEC2"
    },
    {
      "bufferView" : 6,
      "componentType" : 5123,
      "count" : 1428,
      "type" : "SCALAR"
    },
    {
      "bufferView" : 7,
      "min" : [ 8.40028, 2.22769, 5.83144 ],
      "max" : [ 10.4463, 3.05955, 7.03495 ],
      "componentType" : 5126,
      "count" : 424,
      "type" : "VEC3"
    },
    {
      "bufferView" : 8,
      "componentType" : 5126,
      "count" : 424,
      "type" : "VEC3"
    },
    {
      "bufferView" : 9,
      "componentType" : 5126,
      "count" : 424,
      "type" : "VEC4"
    },
    {
      "bufferView" : 10,
      "componentType" : 5126,
      "count" : 424,
      "type" : "VEC2"
    },
    {
      "bufferView" : 11,
      "componentType" : 5126,
      "count" : 424,
      "type" : "VEC2"
    },
    {
      "bufferView" : 12,
      "componentType" : 5123,
      "count" : 1176,
      "type" : "SCALAR"
    },
    {
      "bufferView" : 13,
      "min" : [ 8.54027, 0.316421, 5.94152 ],
      "max" : [ 15.8465, 2.94084, 9.75102 ],
      "componentType" : 5126,
      "count" : 784,
      "type" : "VEC3"
    },
    {
      "bufferView" : 14,
      "componentType" : 5126,
      "count" : 784,
      "type" : "VEC3"
    },
    {
      "bufferView" : 15,
      "componentType" : 5126,
      "count" : 784,
      "type" : "VEC4"
    },
    {
      "bufferView" : 16,
      "componentType" : 5126,
      "count" : 784,
      "type" : "VEC2"
    },
    {
      "bufferView" : 17,
      "componentType" : 5126,
      "count" : 784,
      "type" : "VEC2"
    }
  ]
}
