{
  "asset" : {
    "generator" : "UE Viewer (umodel) build 1579 based",
    "version" : "2.0"
  },
  "scene" : 0,
  "scenes" : [
    {
      "nodes" : [ 0 ]
    }
  ],
  "nodes" : [
    {
      "name" : "S_Envi_Laboratory_Wall_002a",
      "mesh" : 0
    }
  ],
  "materials" : [
    {
      "name" : "MI_Envi_FZFBase_Centre_01a",
      "pbrMetallicRoughness" : {
        "baseColorFactor" : [ 0.3, 0.3, 0.3, 1.0 ],
        "metallicFactor" : 0.1,
        "roughnessFactor" : 0.5
      }
    }
  ],
  "meshes" : [
    {
      "primitives" : [
        {
          "attributes" : {
            "POSITION" : 1,
            "NORMAL" : 2,
            "TANGENT" : 3,
            "TEXCOORD_0" : 4,
            "TEXCOORD_1" : 5,
            "TEXCOORD_2" : 6,
            "TEXCOORD_3" : 7
          },
          "indices" : 0,
          "material" : 0
        }
      ],
      "name" : "S_Envi_Laboratory_Wall_002a"
    }
  ],
  "buffers" : [
    {
      "uri" : "S_Envi_Laboratory_Wall_002a.bin",
      "byteLength" : 62784
    }
  ],
  "bufferViews" : [
    {
      "buffer" : 0,
      "byteOffset" : 0,
      "byteLength" : 4608
    },
    {
      "buffer" : 0,
      "byteOffset" : 4608,
      "byteLength" : 9696
    },
    {
      "buffer" : 0,
      "byteOffset" : 14304,
      "byteLength" : 9696
    },
    {
      "buffer" : 0,
      "byteOffset" : 24000,
      "byteLength" : 12928
    },
    {
      "buffer" : 0,
      "byteOffset" : 36928,
      "byteLength" : 6464
    },
    {
      "buffer" : 0,
      "byteOffset" : 43392,
      "byteLength" : 6464
    },
    {
      "buffer" : 0,
      "byteOffset" : 49856,
      "byteLength" : 6464
    },
    {
      "buffer" : 0,
      "byteOffset" : 56320,
      "byteLength" : 6464
    }
  ],
  "accessors" : [
    {
      "bufferView" : 0,
      "componentType" : 5123,
      "count" : 2304,
      "type" : "SCALAR"
    },
    {
      "bufferView" : 1,
      "min" : [ -4.05, -0.795531, -4.03689 ],
      "max" : [ 4.05, 0.795532, 4.03689 ],
      "componentType" : 5126,
      "count" : 808,
      "type" : "VEC3"
    },
    {
      "bufferView" : 2,
      "componentType" : 5126,
      "count" : 808,
      "type" : "VEC3"
    },
    {
      "bufferView" : 3,
      "componentType" : 5126,
      "count" : 808,
      "type" : "VEC4"
    },
    {
      "bufferView" : 4,
      "componentType" : 5126,
      "count" : 808,
      "type" : "VEC2"
    },
    {
      "bufferView" : 5,
      "componentType" : 5126,
      "count" : 808,
      "type" : "VEC2"
    },
    {
      "bufferView" : 6,
      "componentType" : 5126,
      "count" : 808,
      "type" : "VEC2"
    },
    {
      "bufferView" : 7,
      "componentType" : 5126,
      "count" : 808,
      "type" : "VEC2"
    }
  ]
}
