{
  "asset" : {
    "generator" : "UE Viewer (umodel) build 1579 based",
    "version" : "2.0"
  },
  "scene" : 0,
  "scenes" : [
    {
      "nodes" : [ 0 ]
    }
  ],
  "nodes" : [
    {
      "name" : "S_Envi_Laboratory_guardbar_013",
      "mesh" : 0
    }
  ],
  "materials" : [
    {
      "name" : "MI_Envi_Laboratory_Building_055",
      "pbrMetallicRoughness" : {
        "baseColorFactor" : [ 0.3, 0.3, 0.3, 1.0 ],
        "metallicFactor" : 0.1,
        "roughnessFactor" : 0.5
      }
    }
  ],
  "meshes" : [
    {
      "primitives" : [
        {
          "attributes" : {
            "POSITION" : 1,
            "NORMAL" : 2,
            "TANGENT" : 3,
            "TEXCOORD_0" : 4,
            "TEXCOORD_1" : 5
          },
          "indices" : 0,
          "material" : 0
        }
      ],
      "name" : "S_Envi_Laboratory_guardbar_013"
    }
  ],
  "buffers" : [
    {
      "uri" : "S_Envi_Laboratory_guardbar_013.bin",
      "byteLength" : 509552
    }
  ],
  "bufferViews" : [
    {
      "buffer" : 0,
      "byteOffset" : 0,
      "byteLength" : 58416
    },
    {
      "buffer" : 0,
      "byteOffset" : 58416,
      "byteLength" : 96672
    },
    {
      "buffer" : 0,
      "byteOffset" : 155088,
      "byteLength" : 96672
    },
    {
      "buffer" : 0,
      "byteOffset" : 251760,
      "byteLength" : 128896
    },
    {
      "buffer" : 0,
      "byteOffset" : 380656,
      "byteLength" : 64448
    },
    {
      "buffer" : 0,
      "byteOffset" : 445104,
      "byteLength" : 64448
    }
  ],
  "accessors" : [
    {
      "bufferView" : 0,
      "componentType" : 5123,
      "count" : 29208,
      "type" : "SCALAR"
    },
    {
      "bufferView" : 1,
      "min" : [ -1.3699, -0.0853429, -7.49823 ],
      "max" : [ 1.3699, 13.4198, 7.49823 ],
      "componentType" : 5126,
      "count" : 8056,
      "type" : "VEC3"
    },
    {
      "bufferView" : 2,
      "componentType" : 5126,
      "count" : 8056,
      "type" : "VEC3"
    },
    {
      "bufferView" : 3,
      "componentType" : 5126,
      "count" : 8056,
      "type" : "VEC4"
    },
    {
      "bufferView" : 4,
      "componentType" : 5126,
      "count" : 8056,
      "type" : "VEC2"
    },
    {
      "bufferView" : 5,
      "componentType" : 5126,
      "count" : 8056,
      "type" : "VEC2"
    }
  ]
}
