{
  "asset" : {
    "generator" : "UE Viewer (umodel) build 1579 based",
    "version" : "2.0"
  },
  "scene" : 0,
  "scenes" : [
    {
      "nodes" : [ 0 ]
    }
  ],
  "nodes" : [
    {
      "name" : "S_Envi_Umeda_Building_024",
      "mesh" : 0
    }
  ],
  "materials" : [
    {
      "name" : "MI_Envi_Umeda_Building_002",
      "pbrMetallicRoughness" : {
        "baseColorFactor" : [ 0.3, 0.3, 0.3, 1.0 ],
        "metallicFactor" : 0.1,
        "roughnessFactor" : 0.5
      }
    }
  ],
  "meshes" : [
    {
      "primitives" : [
        {
          "attributes" : {
            "POSITION" : 1,
            "NORMAL" : 2,
            "TANGENT" : 3,
            "TEXCOORD_0" : 4,
            "TEXCOORD_1" : 5
          },
          "indices" : 0,
          "material" : 0
        }
      ],
      "name" : "S_Envi_Umeda_Building_024"
    }
  ],
  "buffers" : [
    {
      "uri" : "S_Envi_Umeda_Building_024.bin",
      "byteLength" : 377648
    }
  ],
  "bufferViews" : [
    {
      "buffer" : 0,
      "byteOffset" : 0,
      "byteLength" : 27200
    },
    {
      "buffer" : 0,
      "byteOffset" : 27200,
      "byteLength" : 75096
    },
    {
      "buffer" : 0,
      "byteOffset" : 102296,
      "byteLength" : 75096
    },
    {
      "buffer" : 0,
      "byteOffset" : 177392,
      "byteLength" : 100128
    },
    {
      "buffer" : 0,
      "byteOffset" : 277520,
      "byteLength" : 50064
    },
    {
      "buffer" : 0,
      "byteOffset" : 327584,
      "byteLength" : 50064
    }
  ],
  "accessors" : [
    {
      "bufferView" : 0,
      "componentType" : 5123,
      "count" : 13599,
      "type" : "SCALAR"
    },
    {
      "bufferView" : 1,
      "min" : [ 480.756, -27.0037, -164.138 ],
      "max" : [ 816.091, 12.7921, 90.036 ],
      "componentType" : 5126,
      "count" : 6258,
      "type" : "VEC3"
    },
    {
      "bufferView" : 2,
      "componentType" : 5126,
      "count" : 6258,
      "type" : "VEC3"
    },
    {
      "bufferView" : 3,
      "componentType" : 5126,
      "count" : 6258,
      "type" : "VEC4"
    },
    {
      "bufferView" : 4,
      "componentType" : 5126,
      "count" : 6258,
      "type" : "VEC2"
    },
    {
      "bufferView" : 5,
      "componentType" : 5126,
      "count" : 6258,
      "type" : "VEC2"
    }
  ]
}
