{
  "asset" : {
    "generator" : "UE Viewer (umodel) build 1579 based",
    "version" : "2.0"
  },
  "scene" : 0,
  "scenes" : [
    {
      "nodes" : [ 0 ]
    }
  ],
  "nodes" : [
    {
      "name" : "S_Envi_Hongta_Building_017",
      "mesh" : 0
    }
  ],
  "materials" : [
    {
      "name" : "MI_Envi_Hongta_Building_008",
      "pbrMetallicRoughness" : {
        "baseColorFactor" : [ 0.3, 0.3, 0.3, 1.0 ],
        "metallicFactor" : 0.1,
        "roughnessFactor" : 0.5
      }
    }
  ],
  "meshes" : [
    {
      "primitives" : [
        {
          "attributes" : {
            "POSITION" : 1,
            "NORMAL" : 2,
            "TANGENT" : 3,
            "TEXCOORD_0" : 4,
            "TEXCOORD_1" : 5
          },
          "indices" : 0,
          "material" : 0
        }
      ],
      "name" : "S_Envi_Hongta_Building_017"
    }
  ],
  "buffers" : [
    {
      "uri" : "S_Envi_Hongta_Building_017.bin",
      "byteLength" : 80960
    }
  ],
  "bufferViews" : [
    {
      "buffer" : 0,
      "byteOffset" : 0,
      "byteLength" : 4800
    },
    {
      "buffer" : 0,
      "byteOffset" : 4800,
      "byteLength" : 16320
    },
    {
      "buffer" : 0,
      "byteOffset" : 21120,
      "byteLength" : 16320
    },
    {
      "buffer" : 0,
      "byteOffset" : 37440,
      "byteLength" : 21760
    },
    {
      "buffer" : 0,
      "byteOffset" : 59200,
      "byteLength" : 10880
    },
    {
      "buffer" : 0,
      "byteOffset" : 70080,
      "byteLength" : 10880
    }
  ],
  "accessors" : [
    {
      "bufferView" : 0,
      "componentType" : 5123,
      "count" : 2400,
      "type" : "SCALAR"
    },
    {
      "bufferView" : 1,
      "min" : [ -43.3911, 9.7382, 19.8259 ],
      "max" : [ -22.7814, 14.1757, 22.869 ],
      "componentType" : 5126,
      "count" : 1360,
      "type" : "VEC3"
    },
    {
      "bufferView" : 2,
      "componentType" : 5126,
      "count" : 1360,
      "type" : "VEC3"
    },
    {
      "bufferView" : 3,
      "componentType" : 5126,
      "count" : 1360,
      "type" : "VEC4"
    },
    {
      "bufferView" : 4,
      "componentType" : 5126,
      "count" : 1360,
      "type" : "VEC2"
    },
    {
      "bufferView" : 5,
      "componentType" : 5126,
      "count" : 1360,
      "type" : "VEC2"
    }
  ]
}
