{
  "asset" : {
    "generator" : "UE Viewer (umodel) build 1579 based",
    "version" : "2.0"
  },
  "scene" : 0,
  "scenes" : [
    {
      "nodes" : [ 0 ]
    }
  ],
  "nodes" : [
    {
      "name" : "S_Envi_Laboratory_Building_025",
      "mesh" : 0
    }
  ],
  "materials" : [
    {
      "name" : "MI_Envi_Common_ReWall_003a",
      "pbrMetallicRoughness" : {
        "baseColorFactor" : [ 0.3, 0.3, 0.3, 1.0 ],
        "metallicFactor" : 0.1,
        "roughnessFactor" : 0.5
      }
    }
  ],
  "meshes" : [
    {
      "primitives" : [
        {
          "attributes" : {
            "POSITION" : 1,
            "NORMAL" : 2,
            "TANGENT" : 3,
            "TEXCOORD_0" : 4,
            "TEXCOORD_1" : 5
          },
          "indices" : 0,
          "material" : 0
        }
      ],
      "name" : "S_Envi_Laboratory_Building_025"
    }
  ],
  "buffers" : [
    {
      "uri" : "S_Envi_Laboratory_Building_025.bin",
      "byteLength" : 89408
    }
  ],
  "bufferViews" : [
    {
      "buffer" : 0,
      "byteOffset" : 0,
      "byteLength" : 5184
    },
    {
      "buffer" : 0,
      "byteOffset" : 5184,
      "byteLength" : 18048
    },
    {
      "buffer" : 0,
      "byteOffset" : 23232,
      "byteLength" : 18048
    },
    {
      "buffer" : 0,
      "byteOffset" : 41280,
      "byteLength" : 24064
    },
    {
      "buffer" : 0,
      "byteOffset" : 65344,
      "byteLength" : 12032
    },
    {
      "buffer" : 0,
      "byteOffset" : 77376,
      "byteLength" : 12032
    }
  ],
  "accessors" : [
    {
      "bufferView" : 0,
      "componentType" : 5123,
      "count" : 2592,
      "type" : "SCALAR"
    },
    {
      "bufferView" : 1,
      "min" : [ 26.8865, -2.3224, -10.3578 ],
      "max" : [ 33.9741, 7.73759, 12.6354 ],
      "componentType" : 5126,
      "count" : 1504,
      "type" : "VEC3"
    },
    {
      "bufferView" : 2,
      "componentType" : 5126,
      "count" : 1504,
      "type" : "VEC3"
    },
    {
      "bufferView" : 3,
      "componentType" : 5126,
      "count" : 1504,
      "type" : "VEC4"
    },
    {
      "bufferView" : 4,
      "componentType" : 5126,
      "count" : 1504,
      "type" : "VEC2"
    },
    {
      "bufferView" : 5,
      "componentType" : 5126,
      "count" : 1504,
      "type" : "VEC2"
    }
  ]
}
