{
  "asset" : {
    "generator" : "UE Viewer (umodel) build 1579 based",
    "version" : "2.0"
  },
  "scene" : 0,
  "scenes" : [
    {
      "nodes" : [ 0 ]
    }
  ],
  "nodes" : [
    {
      "name" : "S_Envi_Central_Props_004",
      "mesh" : 0
    }
  ],
  "materials" : [
    {
      "name" : "MI_Envi_Olgk_Refine_001c",
      "pbrMetallicRoughness" : {
        "baseColorFactor" : [ 0.3, 0.3, 0.3, 1.0 ],
        "metallicFactor" : 0.1,
        "roughnessFactor" : 0.5
      }
    },
    {
      "name" : "MI_Envi_Central_Glass_002",
      "pbrMetallicRoughness" : {
        "baseColorFactor" : [ 0.9, 0.3, 0.3, 1.0 ],
        "metallicFactor" : 0.1,
        "roughnessFactor" : 0.5
      }
    }
  ],
  "meshes" : [
    {
      "primitives" : [
        {
          "attributes" : {
            "POSITION" : 1,
            "NORMAL" : 2,
            "TANGENT" : 3,
            "TEXCOORD_0" : 4,
            "TEXCOORD_1" : 5
          },
          "indices" : 0,
          "material" : 0
        },
        {
          "attributes" : {
            "POSITION" : 7,
            "NORMAL" : 8,
            "TANGENT" : 9,
            "TEXCOORD_0" : 10,
            "TEXCOORD_1" : 11
          },
          "indices" : 6,
          "material" : 1
        }
      ],
      "name" : "S_Envi_Central_Props_004"
    }
  ],
  "buffers" : [
    {
      "uri" : "S_Envi_Central_Props_004.bin",
      "byteLength" : 467568
    }
  ],
  "bufferViews" : [
    {
      "buffer" : 0,
      "byteOffset" : 0,
      "byteLength" : 22272
    },
    {
      "buffer" : 0,
      "byteOffset" : 22272,
      "byteLength" : 85656
    },
    {
      "buffer" : 0,
      "byteOffset" : 107928,
      "byteLength" : 85656
    },
    {
      "buffer" : 0,
      "byteOffset" : 193584,
      "byteLength" : 114208
    },
    {
      "buffer" : 0,
      "byteOffset" : 307792,
      "byteLength" : 57104
    },
    {
      "buffer" : 0,
      "byteOffset" : 364896,
      "byteLength" : 57104
    },
    {
      "buffer" : 0,
      "byteOffset" : 422000,
      "byteLength" : 3456
    },
    {
      "buffer" : 0,
      "byteOffset" : 425456,
      "byteLength" : 9024
    },
    {
      "buffer" : 0,
      "byteOffset" : 434480,
      "byteLength" : 9024
    },
    {
      "buffer" : 0,
      "byteOffset" : 443504,
      "byteLength" : 12032
    },
    {
      "buffer" : 0,
      "byteOffset" : 455536,
      "byteLength" : 6016
    },
    {
      "buffer" : 0,
      "byteOffset" : 461552,
      "byteLength" : 6016
    }
  ],
  "accessors" : [
    {
      "bufferView" : 0,
      "componentType" : 5123,
      "count" : 11136,
      "type" : "SCALAR"
    },
    {
      "bufferView" : 1,
      "min" : [ -48.0136, 18.0722, -74.9734 ],
      "max" : [ 49.7144, 52.7617, 24.0067 ],
      "componentType" : 5126,
      "count" : 7138,
      "type" : "VEC3"
    },
    {
      "bufferView" : 2,
      "componentType" : 5126,
      "count" : 7138,
      "type" : "VEC3"
    },
    {
      "bufferView" : 3,
      "componentType" : 5126,
      "count" : 7138,
      "type" : "VEC4"
    },
    {
      "bufferView" : 4,
      "componentType" : 5126,
      "count" : 7138,
      "type" : "VEC2"
    },
    {
      "bufferView" : 5,
      "componentType" : 5126,
      "count" : 7138,
      "type" : "VEC2"
    },
    {
      "bufferView" : 6,
      "componentType" : 5123,
      "count" : 1728,
      "type" : "SCALAR"
    },
    {
      "bufferView" : 7,
      "min" : [ -47.5996, 19.5521, -74.5594 ],
      "max" : [ 49.3004, 51.3308, 23.5927 ],
      "componentType" : 5126,
      "count" : 752,
      "type" : "VEC3"
    },
    {
      "bufferView" : 8,
      "componentType" : 5126,
      "count" : 752,
      "type" : "VEC3"
    },
    {
      "bufferView" : 9,
      "componentType" : 5126,
      "count" : 752,
      "type" : "VEC4"
    },
    {
      "bufferView" : 10,
      "componentType" : 5126,
      "count" : 752,
      "type" : "VEC2"
    },
    {
      "bufferView" : 11,
      "componentType" : 5126,
      "count" : 752,
      "type" : "VEC2"
    }
  ]
}
