{
  "asset" : {
    "generator" : "UE Viewer (umodel) build 1579 based",
    "version" : "2.0"
  },
  "scene" : 0,
  "scenes" : [
    {
      "nodes" : [ 0 ]
    }
  ],
  "nodes" : [
    {
      "name" : "S_Envi_Laboratory_Wall_006",
      "mesh" : 0
    }
  ],
  "materials" : [
    {
      "name" : "MI_Envi_Common_Wall_05a",
      "pbrMetallicRoughness" : {
        "baseColorFactor" : [ 0.3, 0.3, 0.3, 1.0 ],
        "metallicFactor" : 0.1,
        "roughnessFactor" : 0.5
      }
    }
  ],
  "meshes" : [
    {
      "primitives" : [
        {
          "attributes" : {
            "POSITION" : 1,
            "NORMAL" : 2,
            "TANGENT" : 3,
            "TEXCOORD_0" : 4,
            "TEXCOORD_1" : 5
          },
          "indices" : 0,
          "material" : 0
        }
      ],
      "name" : "S_Envi_Laboratory_Wall_006"
    }
  ],
  "buffers" : [
    {
      "uri" : "S_Envi_Laboratory_Wall_006.bin",
      "byteLength" : 13424
    }
  ],
  "bufferViews" : [
    {
      "buffer" : 0,
      "byteOffset" : 0,
      "byteLength" : 824
    },
    {
      "buffer" : 0,
      "byteOffset" : 824,
      "byteLength" : 2700
    },
    {
      "buffer" : 0,
      "byteOffset" : 3524,
      "byteLength" : 2700
    },
    {
      "buffer" : 0,
      "byteOffset" : 6224,
      "byteLength" : 3600
    },
    {
      "buffer" : 0,
      "byteOffset" : 9824,
      "byteLength" : 1800
    },
    {
      "buffer" : 0,
      "byteOffset" : 11624,
      "byteLength" : 1800
    }
  ],
  "accessors" : [
    {
      "bufferView" : 0,
      "componentType" : 5123,
      "count" : 411,
      "type" : "SCALAR"
    },
    {
      "bufferView" : 1,
      "min" : [ -0.00679704, 4.76358e-22, -2.11944 ],
      "max" : [ 0.227134, 4.54272, -7.43821e-06 ],
      "componentType" : 5126,
      "count" : 225,
      "type" : "VEC3"
    },
    {
      "bufferView" : 2,
      "componentType" : 5126,
      "count" : 225,
      "type" : "VEC3"
    },
    {
      "bufferView" : 3,
      "componentType" : 5126,
      "count" : 225,
      "type" : "VEC4"
    },
    {
      "bufferView" : 4,
      "componentType" : 5126,
      "count" : 225,
      "type" : "VEC2"
    },
    {
      "bufferView" : 5,
      "componentType" : 5126,
      "count" : 225,
      "type" : "VEC2"
    }
  ]
}
