{
  "asset" : {
    "generator" : "UE Viewer (umodel) build 1579 based",
    "version" : "2.0"
  },
  "scene" : 0,
  "scenes" : [
    {
      "nodes" : [ 0 ]
    }
  ],
  "nodes" : [
    {
      "name" : "S_Envi_Laboratory_ReWall_001h",
      "mesh" : 0
    }
  ],
  "materials" : [
    {
      "name" : "MI_Envi_Common_ReWall_003a",
      "pbrMetallicRoughness" : {
        "baseColorFactor" : [ 0.3, 0.3, 0.3, 1.0 ],
        "metallicFactor" : 0.1,
        "roughnessFactor" : 0.5
      }
    }
  ],
  "meshes" : [
    {
      "primitives" : [
        {
          "attributes" : {
            "POSITION" : 1,
            "NORMAL" : 2,
            "TANGENT" : 3,
            "TEXCOORD_0" : 4,
            "TEXCOORD_1" : 5
          },
          "indices" : 0,
          "material" : 0
        }
      ],
      "name" : "S_Envi_Laboratory_ReWall_001h"
    }
  ],
  "buffers" : [
    {
      "uri" : "S_Envi_Laboratory_ReWall_001h.bin",
      "byteLength" : 7992
    }
  ],
  "bufferViews" : [
    {
      "buffer" : 0,
      "byteOffset" : 0,
      "byteLength" : 768
    },
    {
      "buffer" : 0,
      "byteOffset" : 768,
      "byteLength" : 1548
    },
    {
      "buffer" : 0,
      "byteOffset" : 2316,
      "byteLength" : 1548
    },
    {
      "buffer" : 0,
      "byteOffset" : 3864,
      "byteLength" : 2064
    },
    {
      "buffer" : 0,
      "byteOffset" : 5928,
      "byteLength" : 1032
    },
    {
      "buffer" : 0,
      "byteOffset" : 6960,
      "byteLength" : 1032
    }
  ],
  "accessors" : [
    {
      "bufferView" : 0,
      "componentType" : 5123,
      "count" : 384,
      "type" : "SCALAR"
    },
    {
      "bufferView" : 1,
      "min" : [ -6.69502e-05, -5.67128e-06, -5.94682 ],
      "max" : [ 0.500174, 7.9386, 3.3035e-07 ],
      "componentType" : 5126,
      "count" : 129,
      "type" : "VEC3"
    },
    {
      "bufferView" : 2,
      "componentType" : 5126,
      "count" : 129,
      "type" : "VEC3"
    },
    {
      "bufferView" : 3,
      "componentType" : 5126,
      "count" : 129,
      "type" : "VEC4"
    },
    {
      "bufferView" : 4,
      "componentType" : 5126,
      "count" : 129,
      "type" : "VEC2"
    },
    {
      "bufferView" : 5,
      "componentType" : 5126,
      "count" : 129,
      "type" : "VEC2"
    }
  ]
}
