{
  "asset" : {
    "generator" : "UE Viewer (umodel) build 1579 based",
    "version" : "2.0"
  },
  "scene" : 0,
  "scenes" : [
    {
      "nodes" : [ 0 ]
    }
  ],
  "nodes" : [
    {
      "name" : "S_Envi_Reward_Building_004b",
      "mesh" : 0
    }
  ],
  "materials" : [
    {
      "name" : "MI_Envi_Reward_Building_03",
      "pbrMetallicRoughness" : {
        "baseColorFactor" : [ 0.3, 0.3, 0.3, 1.0 ],
        "metallicFactor" : 0.1,
        "roughnessFactor" : 0.5
      }
    }
  ],
  "meshes" : [
    {
      "primitives" : [
        {
          "attributes" : {
            "POSITION" : 1,
            "NORMAL" : 2,
            "TANGENT" : 3,
            "TEXCOORD_0" : 4,
            "TEXCOORD_1" : 5
          },
          "indices" : 0,
          "material" : 0
        }
      ],
      "name" : "S_Envi_Reward_Building_004b"
    }
  ],
  "buffers" : [
    {
      "uri" : "S_Envi_Reward_Building_004b.bin",
      "byteLength" : 13504
    }
  ],
  "bufferViews" : [
    {
      "buffer" : 0,
      "byteOffset" : 0,
      "byteLength" : 1464
    },
    {
      "buffer" : 0,
      "byteOffset" : 1464,
      "byteLength" : 2580
    },
    {
      "buffer" : 0,
      "byteOffset" : 4044,
      "byteLength" : 2580
    },
    {
      "buffer" : 0,
      "byteOffset" : 6624,
      "byteLength" : 3440
    },
    {
      "buffer" : 0,
      "byteOffset" : 10064,
      "byteLength" : 1720
    },
    {
      "buffer" : 0,
      "byteOffset" : 11784,
      "byteLength" : 1720
    }
  ],
  "accessors" : [
    {
      "bufferView" : 0,
      "componentType" : 5123,
      "count" : 732,
      "type" : "SCALAR"
    },
    {
      "bufferView" : 1,
      "min" : [ -5.67627e-05, -0.162499, -3.75315 ],
      "max" : [ 3.9708, 1.53236, -1.67847e-06 ],
      "componentType" : 5126,
      "count" : 215,
      "type" : "VEC3"
    },
    {
      "bufferView" : 2,
      "componentType" : 5126,
      "count" : 215,
      "type" : "VEC3"
    },
    {
      "bufferView" : 3,
      "componentType" : 5126,
      "count" : 215,
      "type" : "VEC4"
    },
    {
      "bufferView" : 4,
      "componentType" : 5126,
      "count" : 215,
      "type" : "VEC2"
    },
    {
      "bufferView" : 5,
      "componentType" : 5126,
      "count" : 215,
      "type" : "VEC2"
    }
  ]
}
