{
  "asset" : {
    "generator" : "UE Viewer (umodel) build 1579 based",
    "version" : "2.0"
  },
  "scene" : 0,
  "scenes" : [
    {
      "nodes" : [ 0 ]
    }
  ],
  "nodes" : [
    {
      "name" : "S_Envi_Laboratory_guardbar_002",
      "mesh" : 0
    }
  ],
  "materials" : [
    {
      "name" : "MI_Envi_Laboratory_guardbar_002",
      "pbrMetallicRoughness" : {
        "baseColorFactor" : [ 0.3, 0.3, 0.3, 1.0 ],
        "metallicFactor" : 0.1,
        "roughnessFactor" : 0.5
      }
    }
  ],
  "meshes" : [
    {
      "primitives" : [
        {
          "attributes" : {
            "POSITION" : 1,
            "NORMAL" : 2,
            "TANGENT" : 3,
            "TEXCOORD_0" : 4,
            "TEXCOORD_1" : 5,
            "TEXCOORD_2" : 6
          },
          "indices" : 0,
          "material" : 0
        }
      ],
      "name" : "S_Envi_Laboratory_guardbar_002"
    }
  ],
  "buffers" : [
    {
      "uri" : "S_Envi_Laboratory_guardbar_002.bin",
      "byteLength" : 8136
    }
  ],
  "bufferViews" : [
    {
      "buffer" : 0,
      "byteOffset" : 0,
      "byteLength" : 456
    },
    {
      "buffer" : 0,
      "byteOffset" : 456,
      "byteLength" : 1440
    },
    {
      "buffer" : 0,
      "byteOffset" : 1896,
      "byteLength" : 1440
    },
    {
      "buffer" : 0,
      "byteOffset" : 3336,
      "byteLength" : 1920
    },
    {
      "buffer" : 0,
      "byteOffset" : 5256,
      "byteLength" : 960
    },
    {
      "buffer" : 0,
      "byteOffset" : 6216,
      "byteLength" : 960
    },
    {
      "buffer" : 0,
      "byteOffset" : 7176,
      "byteLength" : 960
    }
  ],
  "accessors" : [
    {
      "bufferView" : 0,
      "componentType" : 5123,
      "count" : 228,
      "type" : "SCALAR"
    },
    {
      "bufferView" : 1,
      "min" : [ -0.152337, 0.00610626, -0.152337 ],
      "max" : [ 0.152337, 1.83526, 0.152337 ],
      "componentType" : 5126,
      "count" : 120,
      "type" : "VEC3"
    },
    {
      "bufferView" : 2,
      "componentType" : 5126,
      "count" : 120,
      "type" : "VEC3"
    },
    {
      "bufferView" : 3,
      "componentType" : 5126,
      "count" : 120,
      "type" : "VEC4"
    },
    {
      "bufferView" : 4,
      "componentType" : 5126,
      "count" : 120,
      "type" : "VEC2"
    },
    {
      "bufferView" : 5,
      "componentType" : 5126,
      "count" : 120,
      "type" : "VEC2"
    },
    {
      "bufferView" : 6,
      "componentType" : 5126,
      "count" : 120,
      "type" : "VEC2"
    }
  ]
}
