{
  "asset" : {
    "generator" : "UE Viewer (umodel) build 1579 based",
    "version" : "2.0"
  },
  "scene" : 0,
  "scenes" : [
    {
      "nodes" : [ 0 ]
    }
  ],
  "nodes" : [
    {
      "name" : "S_Envi_Hongta_Light_002",
      "mesh" : 0
    }
  ],
  "materials" : [
    {
      "name" : "MI_Envi_Umeda_Prop_Light_01",
      "pbrMetallicRoughness" : {
        "baseColorFactor" : [ 0.3, 0.3, 0.3, 1.0 ],
        "metallicFactor" : 0.1,
        "roughnessFactor" : 0.5
      }
    }
  ],
  "meshes" : [
    {
      "primitives" : [
        {
          "attributes" : {
            "POSITION" : 1,
            "NORMAL" : 2,
            "TANGENT" : 3,
            "TEXCOORD_0" : 4,
            "TEXCOORD_1" : 5
          },
          "indices" : 0,
          "material" : 0
        }
      ],
      "name" : "S_Envi_Hongta_Light_002"
    }
  ],
  "buffers" : [
    {
      "uri" : "S_Envi_Hongta_Light_002.bin",
      "byteLength" : 77904
    }
  ],
  "bufferViews" : [
    {
      "buffer" : 0,
      "byteOffset" : 0,
      "byteLength" : 5328
    },
    {
      "buffer" : 0,
      "byteOffset" : 5328,
      "byteLength" : 15552
    },
    {
      "buffer" : 0,
      "byteOffset" : 20880,
      "byteLength" : 15552
    },
    {
      "buffer" : 0,
      "byteOffset" : 36432,
      "byteLength" : 20736
    },
    {
      "buffer" : 0,
      "byteOffset" : 57168,
      "byteLength" : 10368
    },
    {
      "buffer" : 0,
      "byteOffset" : 67536,
      "byteLength" : 10368
    }
  ],
  "accessors" : [
    {
      "bufferView" : 0,
      "componentType" : 5123,
      "count" : 2664,
      "type" : "SCALAR"
    },
    {
      "bufferView" : 1,
      "min" : [ -40.905, 5.85896, -1.66296 ],
      "max" : [ -3.97211, 8.60449, 13.5916 ],
      "componentType" : 5126,
      "count" : 1296,
      "type" : "VEC3"
    },
    {
      "bufferView" : 2,
      "componentType" : 5126,
      "count" : 1296,
      "type" : "VEC3"
    },
    {
      "bufferView" : 3,
      "componentType" : 5126,
      "count" : 1296,
      "type" : "VEC4"
    },
    {
      "bufferView" : 4,
      "componentType" : 5126,
      "count" : 1296,
      "type" : "VEC2"
    },
    {
      "bufferView" : 5,
      "componentType" : 5126,
      "count" : 1296,
      "type" : "VEC2"
    }
  ]
}
