{
  "asset" : {
    "generator" : "UE Viewer (umodel) build 1579 based",
    "version" : "2.0"
  },
  "scene" : 0,
  "scenes" : [
    {
      "nodes" : [ 0 ]
    }
  ],
  "nodes" : [
    {
      "name" : "S_Envi_Central_Props_025",
      "mesh" : 0
    }
  ],
  "materials" : [
    {
      "name" : "MI_Envi_Common_Wall_05a",
      "pbrMetallicRoughness" : {
        "baseColorFactor" : [ 0.3, 0.3, 0.3, 1.0 ],
        "metallicFactor" : 0.1,
        "roughnessFactor" : 0.5
      }
    },
    {
      "name" : "MI_Envi_Common_Wall_14a",
      "pbrMetallicRoughness" : {
        "baseColorFactor" : [ 0.9, 0.3, 0.3, 1.0 ],
        "metallicFactor" : 0.1,
        "roughnessFactor" : 0.5
      }
    },
    {
      "name" : "MI_PM_Glass_02i",
      "pbrMetallicRoughness" : {
        "baseColorFactor" : [ 0.3, 0.9, 0.3, 1.0 ],
        "metallicFactor" : 0.1,
        "roughnessFactor" : 0.5
      }
    }
  ],
  "meshes" : [
    {
      "primitives" : [
        {
          "attributes" : {
            "POSITION" : 1,
            "NORMAL" : 2,
            "TANGENT" : 3,
            "TEXCOORD_0" : 4,
            "TEXCOORD_1" : 5,
            "TEXCOORD_2" : 6,
            "TEXCOORD_3" : 7
          },
          "indices" : 0,
          "material" : 0
        },
        {
          "attributes" : {
            "POSITION" : 9,
            "NORMAL" : 10,
            "TANGENT" : 11,
            "TEXCOORD_0" : 12,
            "TEXCOORD_1" : 13,
            "TEXCOORD_2" : 14,
            "TEXCOORD_3" : 15
          },
          "indices" : 8,
          "material" : 1
        },
        {
          "attributes" : {
            "POSITION" : 17,
            "NORMAL" : 18,
            "TANGENT" : 19,
            "TEXCOORD_0" : 20,
            "TEXCOORD_1" : 21,
            "TEXCOORD_2" : 22,
            "TEXCOORD_3" : 23
          },
          "indices" : 16,
          "material" : 2
        }
      ],
      "name" : "S_Envi_Central_Props_025"
    }
  ],
  "buffers" : [
    {
      "uri" : "S_Envi_Central_Props_025.bin",
      "byteLength" : 724032
    }
  ],
  "bufferViews" : [
    {
      "buffer" : 0,
      "byteOffset" : 0,
      "byteLength" : 29568
    },
    {
      "buffer" : 0,
      "byteOffset" : 29568,
      "byteLength" : 104448
    },
    {
      "buffer" : 0,
      "byteOffset" : 134016,
      "byteLength" : 104448
    },
    {
      "buffer" : 0,
      "byteOffset" : 238464,
      "byteLength" : 139264
    },
    {
      "buffer" : 0,
      "byteOffset" : 377728,
      "byteLength" : 69632
    },
    {
      "buffer" : 0,
      "byteOffset" : 447360,
      "byteLength" : 69632
    },
    {
      "buffer" : 0,
      "byteOffset" : 516992,
      "byteLength" : 69632
    },
    {
      "buffer" : 0,
      "byteOffset" : 586624,
      "byteLength" : 69632
    },
    {
      "buffer" : 0,
      "byteOffset" : 656256,
      "byteLength" : 2688
    },
    {
      "buffer" : 0,
      "byteOffset" : 658944,
      "byteLength" : 8448
    },
    {
      "buffer" : 0,
      "byteOffset" : 667392,
      "byteLength" : 8448
    },
    {
      "buffer" : 0,
      "byteOffset" : 675840,
      "byteLength" : 11264
    },
    {
      "buffer" : 0,
      "byteOffset" : 687104,
      "byteLength" : 5632
    },
    {
      "buffer" : 0,
      "byteOffset" : 692736,
      "byteLength" : 5632
    },
    {
      "buffer" : 0,
      "byteOffset" : 698368,
      "byteLength" : 5632
    },
    {
      "buffer" : 0,
      "byteOffset" : 704000,
      "byteLength" : 5632
    },
    {
      "buffer" : 0,
      "byteOffset" : 709632,
      "byteLength" : 576
    },
    {
      "buffer" : 0,
      "byteOffset" : 710208,
      "byteLength" : 2304
    },
    {
      "buffer" : 0,
      "byteOffset" : 712512,
      "byteLength" : 2304
    },
    {
      "buffer" : 0,
      "byteOffset" : 714816,
      "byteLength" : 3072
    },
    {
      "buffer" : 0,
      "byteOffset" : 717888,
      "byteLength" : 1536
    },
    {
      "buffer" : 0,
      "byteOffset" : 719424,
      "byteLength" : 1536
    },
    {
      "buffer" : 0,
      "byteOffset" : 720960,
      "byteLength" : 1536
    },
    {
      "buffer" : 0,
      "byteOffset" : 722496,
      "byteLength" : 1536
    }
  ],
  "accessors" : [
    {
      "bufferView" : 0,
      "componentType" : 5123,
      "count" : 14784,
      "type" : "SCALAR"
    },
    {
      "bufferView" : 1,
      "min" : [ -37.0402, 43.3549, -62.5478 ],
      "max" : [ 38.2491, 73.02, 12.7421 ],
      "componentType" : 5126,
      "count" : 8704,
      "type" : "VEC3"
    },
    {
      "bufferView" : 2,
      "componentType" : 5126,
      "count" : 8704,
      "type" : "VEC3"
    },
    {
      "bufferView" : 3,
      "componentType" : 5126,
      "count" : 8704,
      "type" : "VEC4"
    },
    {
      "bufferView" : 4,
      "componentType" : 5126,
      "count" : 8704,
      "type" : "VEC2"
    },
    {
      "bufferView" : 5,
      "componentType" : 5126,
      "count" : 8704,
      "type" : "VEC2"
    },
    {
      "bufferView" : 6,
      "componentType" : 5126,
      "count" : 8704,
      "type" : "VEC2"
    },
    {
      "bufferView" : 7,
      "componentType" : 5126,
      "count" : 8704,
      "type" : "VEC2"
    },
    {
      "bufferView" : 8,
      "componentType" : 5123,
      "count" : 1344,
      "type" : "SCALAR"
    },
    {
      "bufferView" : 9,
      "min" : [ -36.8156, 42.1914, -62.3232 ],
      "max" : [ 38.0245, 74.8745, 12.5176 ],
      "componentType" : 5126,
      "count" : 704,
      "type" : "VEC3"
    },
    {
      "bufferView" : 10,
      "componentType" : 5126,
      "count" : 704,
      "type" : "VEC3"
    },
    {
      "bufferView" : 11,
      "componentType" : 5126,
      "count" : 704,
      "type" : "VEC4"
    },
    {
      "bufferView" : 12,
      "componentType" : 5126,
      "count" : 704,
      "type" : "VEC2"
    },
    {
      "bufferView" : 13,
      "componentType" : 5126,
      "count" : 704,
      "type" : "VEC2"
    },
    {
      "bufferView" : 14,
      "componentType" : 5126,
      "count" : 704,
      "type" : "VEC2"
    },
    {
      "bufferView" : 15,
      "componentType" : 5126,
      "count" : 704,
      "type" : "VEC2"
    },
    {
      "bufferView" : 16,
      "componentType" : 5123,
      "count" : 288,
      "type" : "SCALAR"
    },
    {
      "bufferView" : 17,
      "min" : [ -36.6871, 43.8936, -62.1947 ],
      "max" : [ 37.8959, 72.438, 12.389 ],
      "componentType" : 5126,
      "count" : 192,
      "type" : "VEC3"
    },
    {
      "bufferView" : 18,
      "componentType" : 5126,
      "count" : 192,
      "type" : "VEC3"
    },
    {
      "bufferView" : 19,
      "componentType" : 5126,
      "count" : 192,
      "type" : "VEC4"
    },
    {
      "bufferView" : 20,
      "componentType" : 5126,
      "count" : 192,
      "type" : "VEC2"
    },
    {
      "bufferView" : 21,
      "componentType" : 5126,
      "count" : 192,
      "type" : "VEC2"
    },
    {
      "bufferView" : 22,
      "componentType" : 5126,
      "count" : 192,
      "type" : "VEC2"
    },
    {
      "bufferView" : 23,
      "componentType" : 5126,
      "count" : 192,
      "type" : "VEC2"
    }
  ]
}
