{
  "asset" : {
    "generator" : "UE Viewer (umodel) build 1579 based",
    "version" : "2.0"
  },
  "scene" : 0,
  "scenes" : [
    {
      "nodes" : [ 0 ]
    }
  ],
  "nodes" : [
    {
      "name" : "S_Envi_Laboratory_Wall_009a",
      "mesh" : 0
    }
  ],
  "materials" : [
    {
      "name" : "MI_Envi_FZFBase_Wall_10a",
      "pbrMetallicRoughness" : {
        "baseColorFactor" : [ 0.3, 0.3, 0.3, 1.0 ],
        "metallicFactor" : 0.1,
        "roughnessFactor" : 0.5
      }
    }
  ],
  "meshes" : [
    {
      "primitives" : [
        {
          "attributes" : {
            "POSITION" : 1,
            "NORMAL" : 2,
            "TANGENT" : 3,
            "TEXCOORD_0" : 4,
            "TEXCOORD_1" : 5
          },
          "indices" : 0,
          "material" : 0
        }
      ],
      "name" : "S_Envi_Laboratory_Wall_009a"
    }
  ],
  "buffers" : [
    {
      "uri" : "S_Envi_Laboratory_Wall_009a.bin",
      "byteLength" : 138552
    }
  ],
  "bufferViews" : [
    {
      "buffer" : 0,
      "byteOffset" : 0,
      "byteLength" : 9192
    },
    {
      "buffer" : 0,
      "byteOffset" : 9192,
      "byteLength" : 27720
    },
    {
      "buffer" : 0,
      "byteOffset" : 36912,
      "byteLength" : 27720
    },
    {
      "buffer" : 0,
      "byteOffset" : 64632,
      "byteLength" : 36960
    },
    {
      "buffer" : 0,
      "byteOffset" : 101592,
      "byteLength" : 18480
    },
    {
      "buffer" : 0,
      "byteOffset" : 120072,
      "byteLength" : 18480
    }
  ],
  "accessors" : [
    {
      "bufferView" : 0,
      "componentType" : 5123,
      "count" : 4596,
      "type" : "SCALAR"
    },
    {
      "bufferView" : 1,
      "min" : [ -7.52132, -1.97304e-24, -2.09558 ],
      "max" : [ 7.52132, 9.71962, 1.65328 ],
      "componentType" : 5126,
      "count" : 2310,
      "type" : "VEC3"
    },
    {
      "bufferView" : 2,
      "componentType" : 5126,
      "count" : 2310,
      "type" : "VEC3"
    },
    {
      "bufferView" : 3,
      "componentType" : 5126,
      "count" : 2310,
      "type" : "VEC4"
    },
    {
      "bufferView" : 4,
      "componentType" : 5126,
      "count" : 2310,
      "type" : "VEC2"
    },
    {
      "bufferView" : 5,
      "componentType" : 5126,
      "count" : 2310,
      "type" : "VEC2"
    }
  ]
}
