{
  "asset" : {
    "generator" : "UE Viewer (umodel) build 1579 based",
    "version" : "2.0"
  },
  "scene" : 0,
  "scenes" : [
    {
      "nodes" : [ 0 ]
    }
  ],
  "nodes" : [
    {
      "name" : "S_Envi_Central_Door_002c",
      "mesh" : 0
    }
  ],
  "materials" : [
    {
      "name" : "MI_Envi_FZFBase_Door_02a",
      "pbrMetallicRoughness" : {
        "baseColorFactor" : [ 0.3, 0.3, 0.3, 1.0 ],
        "metallicFactor" : 0.1,
        "roughnessFactor" : 0.5
      }
    }
  ],
  "meshes" : [
    {
      "primitives" : [
        {
          "attributes" : {
            "POSITION" : 1,
            "NORMAL" : 2,
            "TANGENT" : 3,
            "TEXCOORD_0" : 4,
            "TEXCOORD_1" : 5,
            "TEXCOORD_2" : 6
          },
          "indices" : 0,
          "material" : 0
        }
      ],
      "name" : "S_Envi_Central_Door_002c"
    }
  ],
  "buffers" : [
    {
      "uri" : "S_Envi_Central_Door_002c.bin",
      "byteLength" : 44760
    }
  ],
  "bufferViews" : [
    {
      "buffer" : 0,
      "byteOffset" : 0,
      "byteLength" : 3288
    },
    {
      "buffer" : 0,
      "byteOffset" : 3288,
      "byteLength" : 7776
    },
    {
      "buffer" : 0,
      "byteOffset" : 11064,
      "byteLength" : 7776
    },
    {
      "buffer" : 0,
      "byteOffset" : 18840,
      "byteLength" : 10368
    },
    {
      "buffer" : 0,
      "byteOffset" : 29208,
      "byteLength" : 5184
    },
    {
      "buffer" : 0,
      "byteOffset" : 34392,
      "byteLength" : 5184
    },
    {
      "buffer" : 0,
      "byteOffset" : 39576,
      "byteLength" : 5184
    }
  ],
  "accessors" : [
    {
      "bufferView" : 0,
      "componentType" : 5123,
      "count" : 1644,
      "type" : "SCALAR"
    },
    {
      "bufferView" : 1,
      "min" : [ -0.0015332, -0.0465097, -0.0133292 ],
      "max" : [ 6.82589, 1.13534, 0.446561 ],
      "componentType" : 5126,
      "count" : 648,
      "type" : "VEC3"
    },
    {
      "bufferView" : 2,
      "componentType" : 5126,
      "count" : 648,
      "type" : "VEC3"
    },
    {
      "bufferView" : 3,
      "componentType" : 5126,
      "count" : 648,
      "type" : "VEC4"
    },
    {
      "bufferView" : 4,
      "componentType" : 5126,
      "count" : 648,
      "type" : "VEC2"
    },
    {
      "bufferView" : 5,
      "componentType" : 5126,
      "count" : 648,
      "type" : "VEC2"
    },
    {
      "bufferView" : 6,
      "componentType" : 5126,
      "count" : 648,
      "type" : "VEC2"
    }
  ]
}
