{
  "asset" : {
    "generator" : "UE Viewer (umodel) build 1579 based",
    "version" : "2.0"
  },
  "scene" : 0,
  "scenes" : [
    {
      "nodes" : [ 0 ]
    }
  ],
  "nodes" : [
    {
      "name" : "S_Envi_Laboratory_gunsmith_002",
      "mesh" : 0
    }
  ],
  "materials" : [
    {
      "name" : "MI_Envi_Laboratory_floor_005",
      "pbrMetallicRoughness" : {
        "baseColorFactor" : [ 0.3, 0.3, 0.3, 1.0 ],
        "metallicFactor" : 0.1,
        "roughnessFactor" : 0.5
      }
    }
  ],
  "meshes" : [
    {
      "primitives" : [
        {
          "attributes" : {
            "POSITION" : 1,
            "NORMAL" : 2,
            "TANGENT" : 3,
            "TEXCOORD_0" : 4,
            "TEXCOORD_1" : 5,
            "TEXCOORD_2" : 6
          },
          "indices" : 0,
          "material" : 0
        }
      ],
      "name" : "S_Envi_Laboratory_gunsmith_002"
    }
  ],
  "buffers" : [
    {
      "uri" : "S_Envi_Laboratory_gunsmith_002.bin",
      "byteLength" : 14764
    }
  ],
  "bufferViews" : [
    {
      "buffer" : 0,
      "byteOffset" : 0,
      "byteLength" : 684
    },
    {
      "buffer" : 0,
      "byteOffset" : 684,
      "byteLength" : 2640
    },
    {
      "buffer" : 0,
      "byteOffset" : 3324,
      "byteLength" : 2640
    },
    {
      "buffer" : 0,
      "byteOffset" : 5964,
      "byteLength" : 3520
    },
    {
      "buffer" : 0,
      "byteOffset" : 9484,
      "byteLength" : 1760
    },
    {
      "buffer" : 0,
      "byteOffset" : 11244,
      "byteLength" : 1760
    },
    {
      "buffer" : 0,
      "byteOffset" : 13004,
      "byteLength" : 1760
    }
  ],
  "accessors" : [
    {
      "bufferView" : 0,
      "componentType" : 5123,
      "count" : 342,
      "type" : "SCALAR"
    },
    {
      "bufferView" : 1,
      "min" : [ -2.92038, -0.00448868, -2.83374 ],
      "max" : [ 2.92038, 1.70406, 2.83094 ],
      "componentType" : 5126,
      "count" : 220,
      "type" : "VEC3"
    },
    {
      "bufferView" : 2,
      "componentType" : 5126,
      "count" : 220,
      "type" : "VEC3"
    },
    {
      "bufferView" : 3,
      "componentType" : 5126,
      "count" : 220,
      "type" : "VEC4"
    },
    {
      "bufferView" : 4,
      "componentType" : 5126,
      "count" : 220,
      "type" : "VEC2"
    },
    {
      "bufferView" : 5,
      "componentType" : 5126,
      "count" : 220,
      "type" : "VEC2"
    },
    {
      "bufferView" : 6,
      "componentType" : 5126,
      "count" : 220,
      "type" : "VEC2"
    }
  ]
}
