{
  "asset" : {
    "generator" : "UE Viewer (umodel) build 1579 based",
    "version" : "2.0"
  },
  "scene" : 0,
  "scenes" : [
    {
      "nodes" : [ 0 ]
    }
  ],
  "nodes" : [
    {
      "name" : "S_Envi_Central_Props_020",
      "mesh" : 0
    }
  ],
  "materials" : [
    {
      "name" : "MI_Envi_Umeda_Servers_002",
      "pbrMetallicRoughness" : {
        "baseColorFactor" : [ 0.3, 0.3, 0.3, 1.0 ],
        "metallicFactor" : 0.1,
        "roughnessFactor" : 0.5
      }
    },
    {
      "name" : "MI_Envi_Laboratory_glass_002",
      "pbrMetallicRoughness" : {
        "baseColorFactor" : [ 0.9, 0.3, 0.3, 1.0 ],
        "metallicFactor" : 0.1,
        "roughnessFactor" : 0.5
      }
    }
  ],
  "meshes" : [
    {
      "primitives" : [
        {
          "attributes" : {
            "POSITION" : 1,
            "NORMAL" : 2,
            "TANGENT" : 3,
            "TEXCOORD_0" : 4,
            "TEXCOORD_1" : 5
          },
          "indices" : 0,
          "material" : 0
        },
        {
          "attributes" : {
            "POSITION" : 7,
            "NORMAL" : 8,
            "TANGENT" : 9,
            "TEXCOORD_0" : 10,
            "TEXCOORD_1" : 11
          },
          "indices" : 6,
          "material" : 1
        }
      ],
      "name" : "S_Envi_Central_Props_020"
    }
  ],
  "buffers" : [
    {
      "uri" : "S_Envi_Central_Props_020.bin",
      "byteLength" : 175020
    }
  ],
  "bufferViews" : [
    {
      "buffer" : 0,
      "byteOffset" : 0,
      "byteLength" : 9000
    },
    {
      "buffer" : 0,
      "byteOffset" : 9000,
      "byteLength" : 35424
    },
    {
      "buffer" : 0,
      "byteOffset" : 44424,
      "byteLength" : 35424
    },
    {
      "buffer" : 0,
      "byteOffset" : 79848,
      "byteLength" : 47232
    },
    {
      "buffer" : 0,
      "byteOffset" : 127080,
      "byteLength" : 23616
    },
    {
      "buffer" : 0,
      "byteOffset" : 150696,
      "byteLength" : 23616
    },
    {
      "buffer" : 0,
      "byteOffset" : 174312,
      "byteLength" : 36
    },
    {
      "buffer" : 0,
      "byteOffset" : 174348,
      "byteLength" : 144
    },
    {
      "buffer" : 0,
      "byteOffset" : 174492,
      "byteLength" : 144
    },
    {
      "buffer" : 0,
      "byteOffset" : 174636,
      "byteLength" : 192
    },
    {
      "buffer" : 0,
      "byteOffset" : 174828,
      "byteLength" : 96
    },
    {
      "buffer" : 0,
      "byteOffset" : 174924,
      "byteLength" : 96
    }
  ],
  "accessors" : [
    {
      "bufferView" : 0,
      "componentType" : 5123,
      "count" : 4500,
      "type" : "SCALAR"
    },
    {
      "bufferView" : 1,
      "min" : [ -54.1475, -5.12068, -79.6308 ],
      "max" : [ 16.8991, 9.39743, 30.0602 ],
      "componentType" : 5126,
      "count" : 2952,
      "type" : "VEC3"
    },
    {
      "bufferView" : 2,
      "componentType" : 5126,
      "count" : 2952,
      "type" : "VEC3"
    },
    {
      "bufferView" : 3,
      "componentType" : 5126,
      "count" : 2952,
      "type" : "VEC4"
    },
    {
      "bufferView" : 4,
      "componentType" : 5126,
      "count" : 2952,
      "type" : "VEC2"
    },
    {
      "bufferView" : 5,
      "componentType" : 5126,
      "count" : 2952,
      "type" : "VEC2"
    },
    {
      "bufferView" : 6,
      "componentType" : 5123,
      "count" : 18,
      "type" : "SCALAR"
    },
    {
      "bufferView" : 7,
      "min" : [ -51.5178, -1.99643, -77.0011 ],
      "max" : [ 16.363, 7.84103, 27.4305 ],
      "componentType" : 5126,
      "count" : 12,
      "type" : "VEC3"
    },
    {
      "bufferView" : 8,
      "componentType" : 5126,
      "count" : 12,
      "type" : "VEC3"
    },
    {
      "bufferView" : 9,
      "componentType" : 5126,
      "count" : 12,
      "type" : "VEC4"
    },
    {
      "bufferView" : 10,
      "componentType" : 5126,
      "count" : 12,
      "type" : "VEC2"
    },
    {
      "bufferView" : 11,
      "componentType" : 5126,
      "count" : 12,
      "type" : "VEC2"
    }
  ]
}
