{
  "asset" : {
    "generator" : "UE Viewer (umodel) build 1579 based",
    "version" : "2.0"
  },
  "scene" : 0,
  "scenes" : [
    {
      "nodes" : [ 0 ]
    }
  ],
  "nodes" : [
    {
      "name" : "S_Envi_Umeda_Building_002",
      "mesh" : 0
    }
  ],
  "materials" : [
    {
      "name" : "MI_Envi_Umeda_ConcretePanel_001",
      "pbrMetallicRoughness" : {
        "baseColorFactor" : [ 0.3, 0.3, 0.3, 1.0 ],
        "metallicFactor" : 0.1,
        "roughnessFactor" : 0.5
      }
    },
    {
      "name" : "MI_Envi_Umeda_ConcretePanel_001a",
      "pbrMetallicRoughness" : {
        "baseColorFactor" : [ 0.9, 0.3, 0.3, 1.0 ],
        "metallicFactor" : 0.1,
        "roughnessFactor" : 0.5
      }
    },
    {
      "name" : "MI_Envi_Umeda_TrimCommercial_001",
      "pbrMetallicRoughness" : {
        "baseColorFactor" : [ 0.3, 0.9, 0.3, 1.0 ],
        "metallicFactor" : 0.1,
        "roughnessFactor" : 0.5
      }
    },
    {
      "name" : "MI_Envi_Umeda_TrimChurch_001",
      "pbrMetallicRoughness" : {
        "baseColorFactor" : [ 0.3, 0.3, 0.9, 1.0 ],
        "metallicFactor" : 0.1,
        "roughnessFactor" : 0.5
      }
    }
  ],
  "meshes" : [
    {
      "primitives" : [
        {
          "attributes" : {
            "POSITION" : 1,
            "NORMAL" : 2,
            "TANGENT" : 3,
            "TEXCOORD_0" : 4,
            "TEXCOORD_1" : 5
          },
          "indices" : 0,
          "material" : 0
        },
        {
          "attributes" : {
            "POSITION" : 7,
            "NORMAL" : 8,
            "TANGENT" : 9,
            "TEXCOORD_0" : 10,
            "TEXCOORD_1" : 11
          },
          "indices" : 6,
          "material" : 1
        },
        {
          "attributes" : {
            "POSITION" : 13,
            "NORMAL" : 14,
            "TANGENT" : 15,
            "TEXCOORD_0" : 16,
            "TEXCOORD_1" : 17
          },
          "indices" : 12,
          "material" : 2
        },
        {
          "attributes" : {
            "POSITION" : 19,
            "NORMAL" : 20,
            "TANGENT" : 21,
            "TEXCOORD_0" : 22,
            "TEXCOORD_1" : 23
          },
          "indices" : 18,
          "material" : 3
        }
      ],
      "name" : "S_Envi_Umeda_Building_002"
    }
  ],
  "buffers" : [
    {
      "uri" : "S_Envi_Umeda_Building_002.bin",
      "byteLength" : 43504
    }
  ],
  "bufferViews" : [
    {
      "buffer" : 0,
      "byteOffset" : 0,
      "byteLength" : 2352
    },
    {
      "buffer" : 0,
      "byteOffset" : 2352,
      "byteLength" : 6648
    },
    {
      "buffer" : 0,
      "byteOffset" : 9000,
      "byteLength" : 6648
    },
    {
      "buffer" : 0,
      "byteOffset" : 15648,
      "byteLength" : 8864
    },
    {
      "buffer" : 0,
      "byteOffset" : 24512,
      "byteLength" : 4432
    },
    {
      "buffer" : 0,
      "byteOffset" : 28944,
      "byteLength" : 4432
    },
    {
      "buffer" : 0,
      "byteOffset" : 33376,
      "byteLength" : 240
    },
    {
      "buffer" : 0,
      "byteOffset" : 33616,
      "byteLength" : 672
    },
    {
      "buffer" : 0,
      "byteOffset" : 34288,
      "byteLength" : 672
    },
    {
      "buffer" : 0,
      "byteOffset" : 34960,
      "byteLength" : 896
    },
    {
      "buffer" : 0,
      "byteOffset" : 35856,
      "byteLength" : 448
    },
    {
      "buffer" : 0,
      "byteOffset" : 36304,
      "byteLength" : 448
    },
    {
      "buffer" : 0,
      "byteOffset" : 36752,
      "byteLength" : 120
    },
    {
      "buffer" : 0,
      "byteOffset" : 36872,
      "byteLength" : 336
    },
    {
      "buffer" : 0,
      "byteOffset" : 37208,
      "byteLength" : 336
    },
    {
      "buffer" : 0,
      "byteOffset" : 37544,
      "byteLength" : 448
    },
    {
      "buffer" : 0,
      "byteOffset" : 37992,
      "byteLength" : 224
    },
    {
      "buffer" : 0,
      "byteOffset" : 38216,
      "byteLength" : 224
    },
    {
      "buffer" : 0,
      "byteOffset" : 38440,
      "byteLength" : 360
    },
    {
      "buffer" : 0,
      "byteOffset" : 38800,
      "byteLength" : 1008
    },
    {
      "buffer" : 0,
      "byteOffset" : 39808,
      "byteLength" : 1008
    },
    {
      "buffer" : 0,
      "byteOffset" : 40816,
      "byteLength" : 1344
    },
    {
      "buffer" : 0,
      "byteOffset" : 42160,
      "byteLength" : 672
    },
    {
      "buffer" : 0,
      "byteOffset" : 42832,
      "byteLength" : 672
    }
  ],
  "accessors" : [
    {
      "bufferView" : 0,
      "componentType" : 5123,
      "count" : 1176,
      "type" : "SCALAR"
    },
    {
      "bufferView" : 1,
      "min" : [ -10.3546, 4.02555, -6.38025 ],
      "max" : [ 10.3546, 22.5686, 6.38025 ],
      "componentType" : 5126,
      "count" : 554,
      "type" : "VEC3"
    },
    {
      "bufferView" : 2,
      "componentType" : 5126,
      "count" : 554,
      "type" : "VEC3"
    },
    {
      "bufferView" : 3,
      "componentType" : 5126,
      "count" : 554,
      "type" : "VEC4"
    },
    {
      "bufferView" : 4,
      "componentType" : 5126,
      "count" : 554,
      "type" : "VEC2"
    },
    {
      "bufferView" : 5,
      "componentType" : 5126,
      "count" : 554,
      "type" : "VEC2"
    },
    {
      "bufferView" : 6,
      "componentType" : 5123,
      "count" : 120,
      "type" : "SCALAR"
    },
    {
      "bufferView" : 7,
      "min" : [ -9.61866, 6.14689, -5.64432 ],
      "max" : [ 9.61866, 20.4903, 5.64432 ],
      "componentType" : 5126,
      "count" : 56,
      "type" : "VEC3"
    },
    {
      "bufferView" : 8,
      "componentType" : 5126,
      "count" : 56,
      "type" : "VEC3"
    },
    {
      "bufferView" : 9,
      "componentType" : 5126,
      "count" : 56,
      "type" : "VEC4"
    },
    {
      "bufferView" : 10,
      "componentType" : 5126,
      "count" : 56,
      "type" : "VEC2"
    },
    {
      "bufferView" : 11,
      "componentType" : 5126,
      "count" : 56,
      "type" : "VEC2"
    },
    {
      "bufferView" : 12,
      "componentType" : 5123,
      "count" : 60,
      "type" : "SCALAR"
    },
    {
      "bufferView" : 13,
      "min" : [ -9.61866, -3.45615e-16, -5.64432 ],
      "max" : [ 9.61866, 4.02555, 5.64432 ],
      "componentType" : 5126,
      "count" : 28,
      "type" : "VEC3"
    },
    {
      "bufferView" : 14,
      "componentType" : 5126,
      "count" : 28,
      "type" : "VEC3"
    },
    {
      "bufferView" : 15,
      "componentType" : 5126,
      "count" : 28,
      "type" : "VEC4"
    },
    {
      "bufferView" : 16,
      "componentType" : 5126,
      "count" : 28,
      "type" : "VEC2"
    },
    {
      "bufferView" : 17,
      "componentType" : 5126,
      "count" : 28,
      "type" : "VEC2"
    },
    {
      "bufferView" : 18,
      "componentType" : 5123,
      "count" : 180,
      "type" : "SCALAR"
    },
    {
      "bufferView" : 19,
      "min" : [ -10.7969, 21.9431, -6.8226 ],
      "max" : [ 10.7969, 22.5686, 6.8226 ],
      "componentType" : 5126,
      "count" : 84,
      "type" : "VEC3"
    },
    {
      "bufferView" : 20,
      "componentType" : 5126,
      "count" : 84,
      "type" : "VEC3"
    },
    {
      "bufferView" : 21,
      "componentType" : 5126,
      "count" : 84,
      "type" : "VEC4"
    },
    {
      "bufferView" : 22,
      "componentType" : 5126,
      "count" : 84,
      "type" : "VEC2"
    },
    {
      "bufferView" : 23,
      "componentType" : 5126,
      "count" : 84,
      "type" : "VEC2"
    }
  ]
}
