{
  "asset" : {
    "generator" : "UE Viewer (umodel) build 1579 based",
    "version" : "2.0"
  },
  "scene" : 0,
  "scenes" : [
    {
      "nodes" : [ 0 ]
    }
  ],
  "nodes" : [
    {
      "name" : "S_Envi_Olgk_Decal_14_Merge",
      "mesh" : 0
    }
  ],
  "materials" : [
    {
      "name" : "MI_Envi_Olgk_Decal_14",
      "pbrMetallicRoughness" : {
        "baseColorFactor" : [ 0.3, 0.3, 0.3, 1.0 ],
        "metallicFactor" : 0.1,
        "roughnessFactor" : 0.5
      }
    },
    {
      "name" : "MI_Envi_Olgk_Decal_14",
      "pbrMetallicRoughness" : {
        "baseColorFactor" : [ 0.9, 0.3, 0.3, 1.0 ],
        "metallicFactor" : 0.1,
        "roughnessFactor" : 0.5
      }
    }
  ],
  "meshes" : [
    {
      "primitives" : [
        {
          "attributes" : {
            "POSITION" : 1,
            "NORMAL" : 2,
            "TANGENT" : 3,
            "TEXCOORD_0" : 4,
            "TEXCOORD_1" : 5
          },
          "indices" : 0,
          "material" : 0
        },
        {
          "attributes" : {
            "POSITION" : 7,
            "NORMAL" : 8,
            "TANGENT" : 9,
            "TEXCOORD_0" : 10,
            "TEXCOORD_1" : 11
          },
          "indices" : 6,
          "material" : 1
        }
      ],
      "name" : "S_Envi_Olgk_Decal_14_Merge"
    }
  ],
  "buffers" : [
    {
      "uri" : "S_Envi_Olgk_Decal_14_Merge.bin",
      "byteLength" : 7092
    }
  ],
  "bufferViews" : [
    {
      "buffer" : 0,
      "byteOffset" : 0,
      "byteLength" : 392
    },
    {
      "buffer" : 0,
      "byteOffset" : 392,
      "byteLength" : 1164
    },
    {
      "buffer" : 0,
      "byteOffset" : 1556,
      "byteLength" : 1164
    },
    {
      "buffer" : 0,
      "byteOffset" : 2720,
      "byteLength" : 1552
    },
    {
      "buffer" : 0,
      "byteOffset" : 4272,
      "byteLength" : 776
    },
    {
      "buffer" : 0,
      "byteOffset" : 5048,
      "byteLength" : 776
    },
    {
      "buffer" : 0,
      "byteOffset" : 5824,
      "byteLength" : 92
    },
    {
      "buffer" : 0,
      "byteOffset" : 5916,
      "byteLength" : 252
    },
    {
      "buffer" : 0,
      "byteOffset" : 6168,
      "byteLength" : 252
    },
    {
      "buffer" : 0,
      "byteOffset" : 6420,
      "byteLength" : 336
    },
    {
      "buffer" : 0,
      "byteOffset" : 6756,
      "byteLength" : 168
    },
    {
      "buffer" : 0,
      "byteOffset" : 6924,
      "byteLength" : 168
    }
  ],
  "accessors" : [
    {
      "bufferView" : 0,
      "componentType" : 5123,
      "count" : 195,
      "type" : "SCALAR"
    },
    {
      "bufferView" : 1,
      "min" : [ 22.7889, 2.47776, -41.9972 ],
      "max" : [ 60.4372, 11.6909, 16.8936 ],
      "componentType" : 5126,
      "count" : 97,
      "type" : "VEC3"
    },
    {
      "bufferView" : 2,
      "componentType" : 5126,
      "count" : 97,
      "type" : "VEC3"
    },
    {
      "bufferView" : 3,
      "componentType" : 5126,
      "count" : 97,
      "type" : "VEC4"
    },
    {
      "bufferView" : 4,
      "componentType" : 5126,
      "count" : 97,
      "type" : "VEC2"
    },
    {
      "bufferView" : 5,
      "componentType" : 5126,
      "count" : 97,
      "type" : "VEC2"
    },
    {
      "bufferView" : 6,
      "componentType" : 5123,
      "count" : 45,
      "type" : "SCALAR"
    },
    {
      "bufferView" : 7,
      "min" : [ 29.2234, 2.62057, -31.5049 ],
      "max" : [ 58.2975, 3.97454, 0.116566 ],
      "componentType" : 5126,
      "count" : 21,
      "type" : "VEC3"
    },
    {
      "bufferView" : 8,
      "componentType" : 5126,
      "count" : 21,
      "type" : "VEC3"
    },
    {
      "bufferView" : 9,
      "componentType" : 5126,
      "count" : 21,
      "type" : "VEC4"
    },
    {
      "bufferView" : 10,
      "componentType" : 5126,
      "count" : 21,
      "type" : "VEC2"
    },
    {
      "bufferView" : 11,
      "componentType" : 5126,
      "count" : 21,
      "type" : "VEC2"
    }
  ]
}
