{
  "asset" : {
    "generator" : "UE Viewer (umodel) build 1579 based",
    "version" : "2.0"
  },
  "scene" : 0,
  "scenes" : [
    {
      "nodes" : [ 0 ]
    }
  ],
  "nodes" : [
    {
      "name" : "SK_Weap_Super90_103",
      "mesh" : 0,
      "skin" : 0,
      "children" : [ 1 ]
    },
    {
      "name" : "Root",
      "children" : [ 2, 3, 4, 5, 6 ],
      "translation" : [ 0, 0, 0 ],
      "rotation" : [ 6.0624e-07, -0, -0, 1 ]
    },
    {
      "name" : "ButtStock",
      "translation" : [ -8.9407e-09, -0.0202436, -0.133972 ],
      "rotation" : [ 1.43051e-06, -0, -0, -1 ]
    },
    {
      "name" : "Sight",
      "translation" : [ -1.07288e-08, 0.111382, 0.196922 ],
      "rotation" : [ -7.15256e-07, -0, 0, -1 ]
    },
    {
      "name" : "Muzzle",
      "translation" : [ -9.53674e-09, 0.059021, 0.729912 ],
      "rotation" : [ -2.43198e-13, 0.707107, 1.01152e-06, -0.707107 ]
    },
    {
      "name" : "ShellDrop",
      "translation" : [ -0.0192348, 0.0610778, 0.211265 ],
      "rotation" : [ 1.08571e-12, -1, -1.43051e-06, -7.58967e-07 ]
    },
    {
      "name" : "Pull",
      "translation" : [ -0.0407192, 0.0548362, 0.230085 ],
      "rotation" : [ 1.25624e-12, -1, -1.43051e-06, -8.78176e-07 ]
    }
  ],
  "skins" : [
    {
      "inverseBindMatrices" : 0,
      "skeleton" : 1,
      "joints" : [
        1,2,3,4,5,6
      ]
    }
  ],
  "materials" : [
    {
      "name" : "MI_Weap_Super90_02_103",
      "pbrMetallicRoughness" : {
        "baseColorFactor" : [ 0.3, 0.3, 0.3, 1.0 ],
        "metallicFactor" : 0.1,
        "roughnessFactor" : 0.5
      }
    },
    {
      "name" : "MI_Weap_Super90_01_103",
      "pbrMetallicRoughness" : {
        "baseColorFactor" : [ 0.9, 0.3, 0.3, 1.0 ],
        "metallicFactor" : 0.1,
        "roughnessFactor" : 0.5
      }
    },
    {
      "name" : "MI_Weap_AKM_104_03",
      "pbrMetallicRoughness" : {
        "baseColorFactor" : [ 0.3, 0.9, 0.3, 1.0 ],
        "metallicFactor" : 0.1,
        "roughnessFactor" : 0.5
      }
    }
  ],
  "meshes" : [
    {
      "primitives" : [
        {
          "attributes" : {
            "POSITION" : 2,
            "NORMAL" : 3,
            "TANGENT" : 4,
            "COLOR_0" : 5,
            "JOINTS_0" : 6,
            "WEIGHTS_0" : 7,
            "TEXCOORD_0" : 8
          },
          "indices" : 1,
          "material" : 0
        },
        {
          "attributes" : {
            "POSITION" : 10,
            "NORMAL" : 11,
            "TANGENT" : 12,
            "COLOR_0" : 13,
            "JOINTS_0" : 14,
            "WEIGHTS_0" : 15,
            "TEXCOORD_0" : 16
          },
          "indices" : 9,
          "material" : 1
        },
        {
          "attributes" : {
            "POSITION" : 18,
            "NORMAL" : 19,
            "TANGENT" : 20,
            "COLOR_0" : 21,
            "JOINTS_0" : 22,
            "WEIGHTS_0" : 23,
            "TEXCOORD_0" : 24
          },
          "indices" : 17,
          "material" : 2
        }
      ],
      "name" : "SK_Weap_Super90_103"
    }
  ],
  "buffers" : [
    {
      "uri" : "SK_Weap_Super90_103.bin",
      "byteLength" : 785920
    }
  ],
  "bufferViews" : [
    {
      "buffer" : 0,
      "byteOffset" : 0,
      "byteLength" : 384
    },
    {
      "buffer" : 0,
      "byteOffset" : 384,
      "byteLength" : 26780
    },
    {
      "buffer" : 0,
      "byteOffset" : 27164,
      "byteLength" : 41652
    },
    {
      "buffer" : 0,
      "byteOffset" : 68816,
      "byteLength" : 41652
    },
    {
      "buffer" : 0,
      "byteOffset" : 110468,
      "byteLength" : 55536
    },
    {
      "buffer" : 0,
      "byteOffset" : 166004,
      "byteLength" : 13884
    },
    {
      "buffer" : 0,
      "byteOffset" : 179888,
      "byteLength" : 27768
    },
    {
      "buffer" : 0,
      "byteOffset" : 207656,
      "byteLength" : 13884
    },
    {
      "buffer" : 0,
      "byteOffset" : 221540,
      "byteLength" : 27768
    },
    {
      "buffer" : 0,
      "byteOffset" : 249308,
      "byteLength" : 50732
    },
    {
      "buffer" : 0,
      "byteOffset" : 300040,
      "byteLength" : 89148
    },
    {
      "buffer" : 0,
      "byteOffset" : 389188,
      "byteLength" : 89148
    },
    {
      "buffer" : 0,
      "byteOffset" : 478336,
      "byteLength" : 118864
    },
    {
      "buffer" : 0,
      "byteOffset" : 597200,
      "byteLength" : 29716
    },
    {
      "buffer" : 0,
      "byteOffset" : 626916,
      "byteLength" : 59432
    },
    {
      "buffer" : 0,
      "byteOffset" : 686348,
      "byteLength" : 29716
    },
    {
      "buffer" : 0,
      "byteOffset" : 716064,
      "byteLength" : 59432
    },
    {
      "buffer" : 0,
      "byteOffset" : 775496,
      "byteLength" : 1080
    },
    {
      "buffer" : 0,
      "byteOffset" : 776576,
      "byteLength" : 1752
    },
    {
      "buffer" : 0,
      "byteOffset" : 778328,
      "byteLength" : 1752
    },
    {
      "buffer" : 0,
      "byteOffset" : 780080,
      "byteLength" : 2336
    },
    {
      "buffer" : 0,
      "byteOffset" : 782416,
      "byteLength" : 584
    },
    {
      "buffer" : 0,
      "byteOffset" : 783000,
      "byteLength" : 1168
    },
    {
      "buffer" : 0,
      "byteOffset" : 784168,
      "byteLength" : 584
    },
    {
      "buffer" : 0,
      "byteOffset" : 784752,
      "byteLength" : 1168
    }
  ],
  "accessors" : [
    {
      "bufferView" : 0,
      "componentType" : 5126,
      "count" : 6,
      "type" : "MAT4"
    },
    {
      "bufferView" : 1,
      "componentType" : 5123,
      "count" : 13389,
      "type" : "SCALAR"
    },
    {
      "bufferView" : 2,
      "min" : [ -0.0286244, -0.103046, -0.286425 ],
      "max" : [ 0.0286244, 0.0900504, -0.0349336 ],
      "componentType" : 5126,
      "count" : 3471,
      "type" : "VEC3"
    },
    {
      "bufferView" : 3,
      "componentType" : 5126,
      "count" : 3471,
      "type" : "VEC3"
    },
    {
      "bufferView" : 4,
      "componentType" : 5126,
      "count" : 3471,
      "type" : "VEC4"
    },
    {
      "bufferView" : 5,
      "normalized" : true,
      "componentType" : 5121,
      "count" : 3471,
      "type" : "VEC4"
    },
    {
      "bufferView" : 6,
      "componentType" : 5123,
      "count" : 3471,
      "type" : "VEC4"
    },
    {
      "bufferView" : 7,
      "normalized" : true,
      "componentType" : 5121,
      "count" : 3471,
      "type" : "VEC4"
    },
    {
      "bufferView" : 8,
      "componentType" : 5126,
      "count" : 3471,
      "type" : "VEC2"
    },
    {
      "bufferView" : 9,
      "componentType" : 5123,
      "count" : 25365,
      "type" : "SCALAR"
    },
    {
      "bufferView" : 10,
      "min" : [ -0.0485323, -0.102248, -0.042886 ],
      "max" : [ 0.0443436, 0.0925879, 0.728815 ],
      "componentType" : 5126,
      "count" : 7429,
      "type" : "VEC3"
    },
    {
      "bufferView" : 11,
      "componentType" : 5126,
      "count" : 7429,
      "type" : "VEC3"
    },
    {
      "bufferView" : 12,
      "componentType" : 5126,
      "count" : 7429,
      "type" : "VEC4"
    },
    {
      "bufferView" : 13,
      "normalized" : true,
      "componentType" : 5121,
      "count" : 7429,
      "type" : "VEC4"
    },
    {
      "bufferView" : 14,
      "componentType" : 5123,
      "count" : 7429,
      "type" : "VEC4"
    },
    {
      "bufferView" : 15,
      "normalized" : true,
      "componentType" : 5121,
      "count" : 7429,
      "type" : "VEC4"
    },
    {
      "bufferView" : 16,
      "componentType" : 5126,
      "count" : 7429,
      "type" : "VEC2"
    },
    {
      "bufferView" : 17,
      "componentType" : 5123,
      "count" : 540,
      "type" : "SCALAR"
    },
    {
      "bufferView" : 18,
      "min" : [ -0.046947, 0.01764, 0.0839801 ],
      "max" : [ -0.0268711, 0.0509007, 0.104056 ],
      "componentType" : 5126,
      "count" : 146,
      "type" : "VEC3"
    },
    {
      "bufferView" : 19,
      "componentType" : 5126,
      "count" : 146,
      "type" : "VEC3"
    },
    {
      "bufferView" : 20,
      "componentType" : 5126,
      "count" : 146,
      "type" : "VEC4"
    },
    {
      "bufferView" : 21,
      "normalized" : true,
      "componentType" : 5121,
      "count" : 146,
      "type" : "VEC4"
    },
    {
      "bufferView" : 22,
      "componentType" : 5123,
      "count" : 146,
      "type" : "VEC4"
    },
    {
      "bufferView" : 23,
      "normalized" : true,
      "componentType" : 5121,
      "count" : 146,
      "type" : "VEC4"
    },
    {
      "bufferView" : 24,
      "componentType" : 5126,
      "count" : 146,
      "type" : "VEC2"
    }
  ]
}
