{
  "asset" : {
    "generator" : "UE Viewer (umodel) build 1579 based",
    "version" : "2.0"
  },
  "scene" : 0,
  "scenes" : [
    {
      "nodes" : [ 0 ]
    }
  ],
  "nodes" : [
    {
      "name" : "Cylinder001",
      "mesh" : 0
    }
  ],
  "materials" : [
    {
      "name" : "WorldGridMaterial",
      "pbrMetallicRoughness" : {
        "baseColorFactor" : [ 0.3, 0.3, 0.3, 1.0 ],
        "metallicFactor" : 0.1,
        "roughnessFactor" : 0.5
      }
    }
  ],
  "meshes" : [
    {
      "primitives" : [
        {
          "attributes" : {
            "POSITION" : 1,
            "NORMAL" : 2,
            "TANGENT" : 3,
            "TEXCOORD_0" : 4,
            "TEXCOORD_1" : 5
          },
          "indices" : 0,
          "material" : 0
        }
      ],
      "name" : "Cylinder001"
    }
  ],
  "buffers" : [
    {
      "uri" : "Cylinder001.bin",
      "byteLength" : 29712
    }
  ],
  "bufferViews" : [
    {
      "buffer" : 0,
      "byteOffset" : 0,
      "byteLength" : 2832
    },
    {
      "buffer" : 0,
      "byteOffset" : 2832,
      "byteLength" : 5760
    },
    {
      "buffer" : 0,
      "byteOffset" : 8592,
      "byteLength" : 5760
    },
    {
      "buffer" : 0,
      "byteOffset" : 14352,
      "byteLength" : 7680
    },
    {
      "buffer" : 0,
      "byteOffset" : 22032,
      "byteLength" : 3840
    },
    {
      "buffer" : 0,
      "byteOffset" : 25872,
      "byteLength" : 3840
    }
  ],
  "accessors" : [
    {
      "bufferView" : 0,
      "componentType" : 5123,
      "count" : 1416,
      "type" : "SCALAR"
    },
    {
      "bufferView" : 1,
      "min" : [ -0.999646, -6.11456e-17, -1 ],
      "max" : [ 0.999646, 1, 0.998583 ],
      "componentType" : 5126,
      "count" : 480,
      "type" : "VEC3"
    },
    {
      "bufferView" : 2,
      "componentType" : 5126,
      "count" : 480,
      "type" : "VEC3"
    },
    {
      "bufferView" : 3,
      "componentType" : 5126,
      "count" : 480,
      "type" : "VEC4"
    },
    {
      "bufferView" : 4,
      "componentType" : 5126,
      "count" : 480,
      "type" : "VEC2"
    },
    {
      "bufferView" : 5,
      "componentType" : 5126,
      "count" : 480,
      "type" : "VEC2"
    }
  ]
}
