{
  "asset" : {
    "generator" : "UE Viewer (umodel) build 1579 based",
    "version" : "2.0"
  },
  "scene" : 0,
  "scenes" : [
    {
      "nodes" : [ 0 ]
    }
  ],
  "nodes" : [
    {
      "name" : "SK_Weap_cartridge_AR",
      "mesh" : 0
    }
  ],
  "materials" : [
    {
      "name" : "MI_Weap_cartridge",
      "pbrMetallicRoughness" : {
        "baseColorFactor" : [ 0.3, 0.3, 0.3, 1.0 ],
        "metallicFactor" : 0.1,
        "roughnessFactor" : 0.5
      }
    }
  ],
  "meshes" : [
    {
      "primitives" : [
        {
          "attributes" : {
            "POSITION" : 1,
            "NORMAL" : 2,
            "TANGENT" : 3,
            "TEXCOORD_0" : 4,
            "TEXCOORD_1" : 5
          },
          "indices" : 0,
          "material" : 0
        }
      ],
      "name" : "SK_Weap_cartridge_AR"
    }
  ],
  "buffers" : [
    {
      "uri" : "SK_Weap_cartridge_AR.bin",
      "byteLength" : 4360
    }
  ],
  "bufferViews" : [
    {
      "buffer" : 0,
      "byteOffset" : 0,
      "byteLength" : 216
    },
    {
      "buffer" : 0,
      "byteOffset" : 216,
      "byteLength" : 888
    },
    {
      "buffer" : 0,
      "byteOffset" : 1104,
      "byteLength" : 888
    },
    {
      "buffer" : 0,
      "byteOffset" : 1992,
      "byteLength" : 1184
    },
    {
      "buffer" : 0,
      "byteOffset" : 3176,
      "byteLength" : 592
    },
    {
      "buffer" : 0,
      "byteOffset" : 3768,
      "byteLength" : 592
    }
  ],
  "accessors" : [
    {
      "bufferView" : 0,
      "componentType" : 5123,
      "count" : 108,
      "type" : "SCALAR"
    },
    {
      "bufferView" : 1,
      "min" : [ -0.00511273, -3.13064e-19, -0.00511273 ],
      "max" : [ 0.00511273, 0.0380232, 0.00511273 ],
      "componentType" : 5126,
      "count" : 74,
      "type" : "VEC3"
    },
    {
      "bufferView" : 2,
      "componentType" : 5126,
      "count" : 74,
      "type" : "VEC3"
    },
    {
      "bufferView" : 3,
      "componentType" : 5126,
      "count" : 74,
      "type" : "VEC4"
    },
    {
      "bufferView" : 4,
      "componentType" : 5126,
      "count" : 74,
      "type" : "VEC2"
    },
    {
      "bufferView" : 5,
      "componentType" : 5126,
      "count" : 74,
      "type" : "VEC2"
    }
  ]
}
