{
  "asset" : {
    "generator" : "UE Viewer (umodel) build 1579 based",
    "version" : "2.0"
  },
  "scene" : 0,
  "scenes" : [
    {
      "nodes" : [ 0 ]
    }
  ],
  "nodes" : [
    {
      "name" : "SM_Weap_cartridge_AR2",
      "mesh" : 0
    }
  ],
  "materials" : [
    {
      "name" : "dummy_material_0",
      "pbrMetallicRoughness" : {
        "baseColorFactor" : [ 0.3, 0.3, 0.3, 1.0 ],
        "metallicFactor" : 0.1,
        "roughnessFactor" : 0.5
      }
    }
  ],
  "meshes" : [
    {
      "primitives" : [
        {
          "attributes" : {
            "POSITION" : 1,
            "NORMAL" : 2,
            "TANGENT" : 3,
            "TEXCOORD_0" : 4,
            "TEXCOORD_1" : 5,
            "TEXCOORD_2" : 6
          },
          "indices" : 0,
          "material" : 0
        }
      ],
      "name" : "SM_Weap_cartridge_AR2"
    }
  ],
  "buffers" : [
    {
      "uri" : "SM_Weap_cartridge_AR2.bin",
      "byteLength" : 7200
    }
  ],
  "bufferViews" : [
    {
      "buffer" : 0,
      "byteOffset" : 0,
      "byteLength" : 480
    },
    {
      "buffer" : 0,
      "byteOffset" : 480,
      "byteLength" : 1260
    },
    {
      "buffer" : 0,
      "byteOffset" : 1740,
      "byteLength" : 1260
    },
    {
      "buffer" : 0,
      "byteOffset" : 3000,
      "byteLength" : 1680
    },
    {
      "buffer" : 0,
      "byteOffset" : 4680,
      "byteLength" : 840
    },
    {
      "buffer" : 0,
      "byteOffset" : 5520,
      "byteLength" : 840
    },
    {
      "buffer" : 0,
      "byteOffset" : 6360,
      "byteLength" : 840
    }
  ],
  "accessors" : [
    {
      "bufferView" : 0,
      "componentType" : 5123,
      "count" : 240,
      "type" : "SCALAR"
    },
    {
      "bufferView" : 1,
      "min" : [ -0.00434901, -6.46008e-05, -0.00434901 ],
      "max" : [ 0.00434901, 0.0380878, 0.00434901 ],
      "componentType" : 5126,
      "count" : 105,
      "type" : "VEC3"
    },
    {
      "bufferView" : 2,
      "componentType" : 5126,
      "count" : 105,
      "type" : "VEC3"
    },
    {
      "bufferView" : 3,
      "componentType" : 5126,
      "count" : 105,
      "type" : "VEC4"
    },
    {
      "bufferView" : 4,
      "componentType" : 5126,
      "count" : 105,
      "type" : "VEC2"
    },
    {
      "bufferView" : 5,
      "componentType" : 5126,
      "count" : 105,
      "type" : "VEC2"
    },
    {
      "bufferView" : 6,
      "componentType" : 5126,
      "count" : 105,
      "type" : "VEC2"
    }
  ]
}
