{
  "asset" : {
    "generator" : "UE Viewer (umodel) build 1579 based",
    "version" : "2.0"
  },
  "scene" : 0,
  "scenes" : [
    {
      "nodes" : [ 0 ]
    }
  ],
  "nodes" : [
    {
      "name" : "SK_Weap_Super90_101",
      "mesh" : 0,
      "skin" : 0,
      "children" : [ 1 ]
    },
    {
      "name" : "Root",
      "children" : [ 2, 3, 4, 5, 6, 7, 8, 9, 10, 11, 12, 13, 14 ],
      "translation" : [ 0, 0, 0 ],
      "rotation" : [ 6.0624e-07, -0, -0, 1 ]
    },
    {
      "name" : "ButtStock",
      "translation" : [ -8.9407e-09, -0.0202436, -0.133972 ],
      "rotation" : [ 1.43051e-06, -0, -0, -1 ]
    },
    {
      "name" : "Sight",
      "translation" : [ -1.07288e-08, 0.111382, 0.196922 ],
      "rotation" : [ -7.15256e-07, -0, 0, -1 ]
    },
    {
      "name" : "Muzzle",
      "translation" : [ -9.53674e-09, 0.059021, 0.729912 ],
      "rotation" : [ -2.43198e-13, 0.707107, 1.01152e-06, -0.707107 ]
    },
    {
      "name" : "ShellDrop",
      "translation" : [ -0.0192348, 0.0610778, 0.211265 ],
      "rotation" : [ 1.08571e-12, -1, -1.43051e-06, -7.58967e-07 ]
    },
    {
      "name" : "Pull",
      "translation" : [ -0.0407192, 0.0548362, 0.230085 ],
      "rotation" : [ 1.25624e-12, -1, -1.43051e-06, -8.78176e-07 ]
    },
    {
      "name" : "Parts_03",
      "translation" : [ 0.01764, 0.0783911, 0.536501 ],
      "rotation" : [ -0.0901501, 0.286716, -0.306221, -0.903269 ]
    },
    {
      "name" : "Parts_07",
      "translation" : [ 0.01764, 0.0783911, 0.60782 ],
      "rotation" : [ -0.0901501, 0.286716, -0.306221, -0.903269 ]
    },
    {
      "name" : "Parts_04",
      "translation" : [ -0.01764, 0.0783911, 0.536501 ],
      "rotation" : [ 0.286716, -0.0901501, 0.903269, 0.306221 ]
    },
    {
      "name" : "Parts_08",
      "translation" : [ -0.01764, 0.0783911, 0.60782 ],
      "rotation" : [ 0.286716, -0.0901501, 0.90327, 0.306221 ]
    },
    {
      "name" : "Parts_06",
      "translation" : [ -0.01764, 0.0783911, 0.57216 ],
      "rotation" : [ 0.286716, -0.0901501, 0.90327, 0.306221 ]
    },
    {
      "name" : "Parts_01",
      "translation" : [ 0.0176416, 0.0785818, 0.500839 ],
      "rotation" : [ -0.0901501, 0.286716, -0.306221, -0.903269 ]
    },
    {
      "name" : "Parts_02",
      "translation" : [ -0.01764, 0.0785818, 0.500839 ],
      "rotation" : [ 0.286716, -0.0901502, 0.903269, 0.306221 ]
    },
    {
      "name" : "Parts_05",
      "translation" : [ 0.01764, 0.0783911, 0.57216 ],
      "rotation" : [ -0.0901501, 0.286716, -0.306221, -0.903269 ]
    }
  ],
  "skins" : [
    {
      "inverseBindMatrices" : 0,
      "skeleton" : 1,
      "joints" : [
        1,2,3,4,5,6,7,8,9,10,11,12,13,14
      ]
    }
  ],
  "materials" : [
    {
      "name" : "MI_Weap_Super90_02_101",
      "pbrMetallicRoughness" : {
        "baseColorFactor" : [ 0.3, 0.3, 0.3, 1.0 ],
        "metallicFactor" : 0.1,
        "roughnessFactor" : 0.5
      }
    },
    {
      "name" : "MI_Weap_Super90_01_101",
      "pbrMetallicRoughness" : {
        "baseColorFactor" : [ 0.9, 0.3, 0.3, 1.0 ],
        "metallicFactor" : 0.1,
        "roughnessFactor" : 0.5
      }
    }
  ],
  "meshes" : [
    {
      "primitives" : [
        {
          "attributes" : {
            "POSITION" : 2,
            "NORMAL" : 3,
            "TANGENT" : 4,
            "JOINTS_0" : 5,
            "WEIGHTS_0" : 6,
            "TEXCOORD_0" : 7
          },
          "indices" : 1,
          "material" : 0
        },
        {
          "attributes" : {
            "POSITION" : 9,
            "NORMAL" : 10,
            "TANGENT" : 11,
            "JOINTS_0" : 12,
            "WEIGHTS_0" : 13,
            "TEXCOORD_0" : 14
          },
          "indices" : 8,
          "material" : 1
        }
      ],
      "name" : "SK_Weap_Super90_101"
    }
  ],
  "buffers" : [
    {
      "uri" : "SK_Weap_Super90_101.bin",
      "byteLength" : 394252
    }
  ],
  "bufferViews" : [
    {
      "buffer" : 0,
      "byteOffset" : 0,
      "byteLength" : 896
    },
    {
      "buffer" : 0,
      "byteOffset" : 896,
      "byteLength" : 3684
    },
    {
      "buffer" : 0,
      "byteOffset" : 4580,
      "byteLength" : 8208
    },
    {
      "buffer" : 0,
      "byteOffset" : 12788,
      "byteLength" : 8208
    },
    {
      "buffer" : 0,
      "byteOffset" : 20996,
      "byteLength" : 10944
    },
    {
      "buffer" : 0,
      "byteOffset" : 31940,
      "byteLength" : 5472
    },
    {
      "buffer" : 0,
      "byteOffset" : 37412,
      "byteLength" : 2736
    },
    {
      "buffer" : 0,
      "byteOffset" : 40148,
      "byteLength" : 5472
    },
    {
      "buffer" : 0,
      "byteOffset" : 45620,
      "byteLength" : 28592
    },
    {
      "buffer" : 0,
      "byteOffset" : 74212,
      "byteLength" : 64008
    },
    {
      "buffer" : 0,
      "byteOffset" : 138220,
      "byteLength" : 64008
    },
    {
      "buffer" : 0,
      "byteOffset" : 202228,
      "byteLength" : 85344
    },
    {
      "buffer" : 0,
      "byteOffset" : 287572,
      "byteLength" : 42672
    },
    {
      "buffer" : 0,
      "byteOffset" : 330244,
      "byteLength" : 21336
    },
    {
      "buffer" : 0,
      "byteOffset" : 351580,
      "byteLength" : 42672
    }
  ],
  "accessors" : [
    {
      "bufferView" : 0,
      "componentType" : 5126,
      "count" : 14,
      "type" : "MAT4"
    },
    {
      "bufferView" : 1,
      "componentType" : 5123,
      "count" : 1842,
      "type" : "SCALAR"
    },
    {
      "bufferView" : 2,
      "min" : [ -0.0196019, -0.131858, -0.264728 ],
      "max" : [ 0.019602, 0.0563235, 0.171049 ],
      "componentType" : 5126,
      "count" : 684,
      "type" : "VEC3"
    },
    {
      "bufferView" : 3,
      "componentType" : 5126,
      "count" : 684,
      "type" : "VEC3"
    },
    {
      "bufferView" : 4,
      "componentType" : 5126,
      "count" : 684,
      "type" : "VEC4"
    },
    {
      "bufferView" : 5,
      "componentType" : 5123,
      "count" : 684,
      "type" : "VEC4"
    },
    {
      "bufferView" : 6,
      "normalized" : true,
      "componentType" : 5121,
      "count" : 684,
      "type" : "VEC4"
    },
    {
      "bufferView" : 7,
      "componentType" : 5126,
      "count" : 684,
      "type" : "VEC2"
    },
    {
      "bufferView" : 8,
      "componentType" : 5123,
      "count" : 14295,
      "type" : "SCALAR"
    },
    {
      "bufferView" : 9,
      "min" : [ -0.0592761, -0.0915453, -0.0180466 ],
      "max" : [ 0.0592761, 0.115382, 0.736851 ],
      "componentType" : 5126,
      "count" : 5334,
      "type" : "VEC3"
    },
    {
      "bufferView" : 10,
      "componentType" : 5126,
      "count" : 5334,
      "type" : "VEC3"
    },
    {
      "bufferView" : 11,
      "componentType" : 5126,
      "count" : 5334,
      "type" : "VEC4"
    },
    {
      "bufferView" : 12,
      "componentType" : 5123,
      "count" : 5334,
      "type" : "VEC4"
    },
    {
      "bufferView" : 13,
      "normalized" : true,
      "componentType" : 5121,
      "count" : 5334,
      "type" : "VEC4"
    },
    {
      "bufferView" : 14,
      "componentType" : 5126,
      "count" : 5334,
      "type" : "VEC2"
    }
  ]
}
