{
  "asset" : {
    "generator" : "UE Viewer (umodel) build 1579 based",
    "version" : "2.0"
  },
  "scene" : 0,
  "scenes" : [
    {
      "nodes" : [ 0 ]
    }
  ],
  "nodes" : [
    {
      "name" : "SK_Weap_SVD_101",
      "mesh" : 0,
      "skin" : 0,
      "children" : [ 1 ]
    },
    {
      "name" : "Root",
      "children" : [ 2, 3, 4, 5, 6, 7, 8, 9 ],
      "translation" : [ 0, 0, 0 ],
      "rotation" : [ 2.67323e-06, 4.46143e-12, 1.66893e-06, 1 ]
    },
    {
      "name" : "ButtStock",
      "translation" : [ 7.90011e-08, 0.025515, -0.160026 ],
      "rotation" : [ 2.68221e-06, -4.47642e-12, 1.66893e-06, -1 ]
    },
    {
      "name" : "Sight",
      "translation" : [ 5.01052e-07, 0.150108, 0.138055 ],
      "rotation" : [ 2.68221e-06, -4.47642e-12, 1.66893e-06, -1 ]
    },
    {
      "name" : "Magazine",
      "translation" : [ -4.42482e-08, -0.0142551, 0.22781 ],
      "rotation" : [ 2.68221e-06, -4.47642e-12, 1.66893e-06, -1 ]
    },
    {
      "name" : "Suppressor",
      "translation" : [ 2.27496e-07, 0.0681613, 0.969205 ],
      "rotation" : [ 2.68221e-06, -4.47642e-12, 1.66893e-06, -1 ]
    },
    {
      "name" : "Muzzle",
      "translation" : [ 2.33093e-07, 0.0681616, 1.02687 ],
      "rotation" : [ 2.32443e-06, 0.707107, -3.74472e-06, -0.707107 ]
    },
    {
      "name" : "Pull",
      "translation" : [ -0.0224363, 0.0743589, 0.242375 ],
      "rotation" : [ -0, -0, 0, -1 ]
    },
    {
      "name" : "ShellDrop",
      "translation" : [ -0.0224362, 0.082644, 0.223647 ],
      "rotation" : [ -2.27467e-22, -1, -3.06159e-17, -4.37114e-08 ]
    },
    {
      "name" : "Throw",
      "translation" : [ -0.0224363, 0.0798599, 0.223681 ],
      "rotation" : [ 2.68221e-06, -4.47642e-12, 1.66893e-06, -1 ]
    }
  ],
  "skins" : [
    {
      "inverseBindMatrices" : 0,
      "skeleton" : 1,
      "joints" : [
        1,2,3,4,5,6,7,8,9
      ]
    }
  ],
  "materials" : [
    {
      "name" : "MI_Weap_SVD_01_101",
      "pbrMetallicRoughness" : {
        "baseColorFactor" : [ 0.3, 0.3, 0.3, 1.0 ],
        "metallicFactor" : 0.1,
        "roughnessFactor" : 0.5
      }
    },
    {
      "name" : "MI_Weap_SVD_02_101",
      "pbrMetallicRoughness" : {
        "baseColorFactor" : [ 0.9, 0.3, 0.3, 1.0 ],
        "metallicFactor" : 0.1,
        "roughnessFactor" : 0.5
      }
    }
  ],
  "meshes" : [
    {
      "primitives" : [
        {
          "attributes" : {
            "POSITION" : 2,
            "NORMAL" : 3,
            "TANGENT" : 4,
            "JOINTS_0" : 5,
            "WEIGHTS_0" : 6,
            "TEXCOORD_0" : 7
          },
          "indices" : 1,
          "material" : 0
        },
        {
          "attributes" : {
            "POSITION" : 9,
            "NORMAL" : 10,
            "TANGENT" : 11,
            "JOINTS_0" : 12,
            "WEIGHTS_0" : 13,
            "TEXCOORD_0" : 14
          },
          "indices" : 8,
          "material" : 1
        }
      ],
      "name" : "SK_Weap_SVD_101"
    }
  ],
  "buffers" : [
    {
      "uri" : "SK_Weap_SVD_101.bin",
      "byteLength" : 624796
    }
  ],
  "bufferViews" : [
    {
      "buffer" : 0,
      "byteOffset" : 0,
      "byteLength" : 576
    },
    {
      "buffer" : 0,
      "byteOffset" : 576,
      "byteLength" : 19328
    },
    {
      "buffer" : 0,
      "byteOffset" : 19904,
      "byteLength" : 32376
    },
    {
      "buffer" : 0,
      "byteOffset" : 52280,
      "byteLength" : 32376
    },
    {
      "buffer" : 0,
      "byteOffset" : 84656,
      "byteLength" : 43168
    },
    {
      "buffer" : 0,
      "byteOffset" : 127824,
      "byteLength" : 21584
    },
    {
      "buffer" : 0,
      "byteOffset" : 149408,
      "byteLength" : 10792
    },
    {
      "buffer" : 0,
      "byteOffset" : 160200,
      "byteLength" : 21584
    },
    {
      "buffer" : 0,
      "byteOffset" : 181784,
      "byteLength" : 44312
    },
    {
      "buffer" : 0,
      "byteOffset" : 226096,
      "byteLength" : 79740
    },
    {
      "buffer" : 0,
      "byteOffset" : 305836,
      "byteLength" : 79740
    },
    {
      "buffer" : 0,
      "byteOffset" : 385576,
      "byteLength" : 106320
    },
    {
      "buffer" : 0,
      "byteOffset" : 491896,
      "byteLength" : 53160
    },
    {
      "buffer" : 0,
      "byteOffset" : 545056,
      "byteLength" : 26580
    },
    {
      "buffer" : 0,
      "byteOffset" : 571636,
      "byteLength" : 53160
    }
  ],
  "accessors" : [
    {
      "bufferView" : 0,
      "componentType" : 5126,
      "count" : 9,
      "type" : "MAT4"
    },
    {
      "bufferView" : 1,
      "componentType" : 5123,
      "count" : 9663,
      "type" : "SCALAR"
    },
    {
      "bufferView" : 2,
      "min" : [ -0.0482544, -0.129506, -0.278253 ],
      "max" : [ 0.0482544, 0.0984629, 1.04637 ],
      "componentType" : 5126,
      "count" : 2698,
      "type" : "VEC3"
    },
    {
      "bufferView" : 3,
      "componentType" : 5126,
      "count" : 2698,
      "type" : "VEC3"
    },
    {
      "bufferView" : 4,
      "componentType" : 5126,
      "count" : 2698,
      "type" : "VEC4"
    },
    {
      "bufferView" : 5,
      "componentType" : 5123,
      "count" : 2698,
      "type" : "VEC4"
    },
    {
      "bufferView" : 6,
      "normalized" : true,
      "componentType" : 5121,
      "count" : 2698,
      "type" : "VEC4"
    },
    {
      "bufferView" : 7,
      "componentType" : 5126,
      "count" : 2698,
      "type" : "VEC2"
    },
    {
      "bufferView" : 8,
      "componentType" : 5123,
      "count" : 22155,
      "type" : "SCALAR"
    },
    {
      "bufferView" : 9,
      "min" : [ -0.0529947, -0.0732062, -0.00974084 ],
      "max" : [ 0.0529947, 0.125857, 1.02737 ],
      "componentType" : 5126,
      "count" : 6645,
      "type" : "VEC3"
    },
    {
      "bufferView" : 10,
      "componentType" : 5126,
      "count" : 6645,
      "type" : "VEC3"
    },
    {
      "bufferView" : 11,
      "componentType" : 5126,
      "count" : 6645,
      "type" : "VEC4"
    },
    {
      "bufferView" : 12,
      "componentType" : 5123,
      "count" : 6645,
      "type" : "VEC4"
    },
    {
      "bufferView" : 13,
      "normalized" : true,
      "componentType" : 5121,
      "count" : 6645,
      "type" : "VEC4"
    },
    {
      "bufferView" : 14,
      "componentType" : 5126,
      "count" : 6645,
      "type" : "VEC2"
    }
  ]
}
