{
  "asset" : {
    "generator" : "UE Viewer (umodel) build 1579 based",
    "version" : "2.0"
  },
  "scene" : 0,
  "scenes" : [
    {
      "nodes" : [ 0 ]
    }
  ],
  "nodes" : [
    {
      "name" : "SK_Weap_M200_102",
      "mesh" : 0,
      "skin" : 0,
      "children" : [ 1 ]
    },
    {
      "name" : "Root",
      "children" : [ 2, 3, 4, 5, 6, 7, 8, 9 ],
      "translation" : [ 0, 0, 0 ],
      "rotation" : [ 2.67323e-06, 4.46143e-12, 1.66893e-06, 1 ]
    },
    {
      "name" : "ButtStock",
      "translation" : [ 1.64247e-07, 0.0492075, 0.00669642 ],
      "rotation" : [ -0, -0, 0, -1 ]
    },
    {
      "name" : "Sight",
      "translation" : [ 5.79014e-07, 0.17347, 0.203967 ],
      "rotation" : [ -3.0616e-17, 1.02189e-22, -3.12862e-39, -1 ]
    },
    {
      "name" : "La",
      "translation" : [ -9.97053e-05, 0.0883001, 0.0112443 ],
      "rotation" : [ 4.7684e-07, -1.69745e-06, 1.69873e-06, -1 ]
    },
    {
      "name" : "Magazine",
      "translation" : [ 1.19387e-07, -0.00793345, 0.193406 ],
      "rotation" : [ -0, -0, 0, -1 ]
    },
    {
      "name" : "Suppressor",
      "translation" : [ 2.9329e-07, 0.0878735, 1.0597 ],
      "rotation" : [ -0, -0, 0, -1 ]
    },
    {
      "name" : "Muzzle",
      "translation" : [ 2.9329e-07, 0.0878735, 1.0597 ],
      "rotation" : [ -1.0043e-06, -4.30999e-12, -4.29153e-06, -1 ]
    },
    {
      "name" : "ShellDrop",
      "translation" : [ -0.0170846, 0.098581, 0.180911 ],
      "rotation" : [ 1.33825e-24, -1, -3.06156e-17, -4.37114e-08 ]
    },
    {
      "name" : "Throw",
      "translation" : [ -0.0170846, 0.098581, 0.180911 ],
      "rotation" : [ -0, -0, 0, -1 ]
    }
  ],
  "skins" : [
    {
      "inverseBindMatrices" : 0,
      "skeleton" : 1,
      "joints" : [
        1,2,3,4,5,6,7,8,9
      ]
    }
  ],
  "materials" : [
    {
      "name" : "MI_Weap_M200_01_102",
      "pbrMetallicRoughness" : {
        "baseColorFactor" : [ 0.3, 0.3, 0.3, 1.0 ],
        "metallicFactor" : 0.1,
        "roughnessFactor" : 0.5
      }
    },
    {
      "name" : "MI_Weap_M200_02_102",
      "pbrMetallicRoughness" : {
        "baseColorFactor" : [ 0.9, 0.3, 0.3, 1.0 ],
        "metallicFactor" : 0.1,
        "roughnessFactor" : 0.5
      }
    }
  ],
  "meshes" : [
    {
      "primitives" : [
        {
          "attributes" : {
            "POSITION" : 2,
            "NORMAL" : 3,
            "TANGENT" : 4,
            "JOINTS_0" : 5,
            "WEIGHTS_0" : 6,
            "TEXCOORD_0" : 7
          },
          "indices" : 1,
          "material" : 0
        },
        {
          "attributes" : {
            "POSITION" : 9,
            "NORMAL" : 10,
            "TANGENT" : 11,
            "JOINTS_0" : 12,
            "WEIGHTS_0" : 13,
            "TEXCOORD_0" : 14
          },
          "indices" : 8,
          "material" : 1
        }
      ],
      "name" : "SK_Weap_M200_102"
    }
  ],
  "buffers" : [
    {
      "uri" : "SK_Weap_M200_102.bin",
      "byteLength" : 708272
    }
  ],
  "bufferViews" : [
    {
      "buffer" : 0,
      "byteOffset" : 0,
      "byteLength" : 576
    },
    {
      "buffer" : 0,
      "byteOffset" : 576,
      "byteLength" : 49496
    },
    {
      "buffer" : 0,
      "byteOffset" : 50072,
      "byteLength" : 80592
    },
    {
      "buffer" : 0,
      "byteOffset" : 130664,
      "byteLength" : 80592
    },
    {
      "buffer" : 0,
      "byteOffset" : 211256,
      "byteLength" : 107456
    },
    {
      "buffer" : 0,
      "byteOffset" : 318712,
      "byteLength" : 53728
    },
    {
      "buffer" : 0,
      "byteOffset" : 372440,
      "byteLength" : 26864
    },
    {
      "buffer" : 0,
      "byteOffset" : 399304,
      "byteLength" : 53728
    },
    {
      "buffer" : 0,
      "byteOffset" : 453032,
      "byteLength" : 27840
    },
    {
      "buffer" : 0,
      "byteOffset" : 480872,
      "byteLength" : 45480
    },
    {
      "buffer" : 0,
      "byteOffset" : 526352,
      "byteLength" : 45480
    },
    {
      "buffer" : 0,
      "byteOffset" : 571832,
      "byteLength" : 60640
    },
    {
      "buffer" : 0,
      "byteOffset" : 632472,
      "byteLength" : 30320
    },
    {
      "buffer" : 0,
      "byteOffset" : 662792,
      "byteLength" : 15160
    },
    {
      "buffer" : 0,
      "byteOffset" : 677952,
      "byteLength" : 30320
    }
  ],
  "accessors" : [
    {
      "bufferView" : 0,
      "componentType" : 5126,
      "count" : 9,
      "type" : "MAT4"
    },
    {
      "bufferView" : 1,
      "componentType" : 5123,
      "count" : 24747,
      "type" : "SCALAR"
    },
    {
      "bufferView" : 2,
      "min" : [ -0.0614694, -0.076402, -0.022775 ],
      "max" : [ 0.0261808, 0.136561, 0.821171 ],
      "componentType" : 5126,
      "count" : 6716,
      "type" : "VEC3"
    },
    {
      "bufferView" : 3,
      "componentType" : 5126,
      "count" : 6716,
      "type" : "VEC3"
    },
    {
      "bufferView" : 4,
      "componentType" : 5126,
      "count" : 6716,
      "type" : "VEC4"
    },
    {
      "bufferView" : 5,
      "componentType" : 5123,
      "count" : 6716,
      "type" : "VEC4"
    },
    {
      "bufferView" : 6,
      "normalized" : true,
      "componentType" : 5121,
      "count" : 6716,
      "type" : "VEC4"
    },
    {
      "bufferView" : 7,
      "componentType" : 5126,
      "count" : 6716,
      "type" : "VEC2"
    },
    {
      "bufferView" : 8,
      "componentType" : 5123,
      "count" : 13920,
      "type" : "SCALAR"
    },
    {
      "bufferView" : 9,
      "min" : [ -0.0320608, -0.0551013, -0.199732 ],
      "max" : [ 0.0320608, 0.107419, 1.04742 ],
      "componentType" : 5126,
      "count" : 3790,
      "type" : "VEC3"
    },
    {
      "bufferView" : 10,
      "componentType" : 5126,
      "count" : 3790,
      "type" : "VEC3"
    },
    {
      "bufferView" : 11,
      "componentType" : 5126,
      "count" : 3790,
      "type" : "VEC4"
    },
    {
      "bufferView" : 12,
      "componentType" : 5123,
      "count" : 3790,
      "type" : "VEC4"
    },
    {
      "bufferView" : 13,
      "normalized" : true,
      "componentType" : 5121,
      "count" : 3790,
      "type" : "VEC4"
    },
    {
      "bufferView" : 14,
      "componentType" : 5126,
      "count" : 3790,
      "type" : "VEC2"
    }
  ]
}
