{
  "asset" : {
    "generator" : "UE Viewer (umodel) build 1579 based",
    "version" : "2.0"
  },
  "scene" : 0,
  "scenes" : [
    {
      "nodes" : [ 0 ]
    }
  ],
  "nodes" : [
    {
      "name" : "S_Envi_Common_Decal_02b",
      "mesh" : 0
    }
  ],
  "materials" : [
    {
      "name" : "MI_Envi_Common_Decal_02c",
      "pbrMetallicRoughness" : {
        "baseColorFactor" : [ 0.3, 0.3, 0.3, 1.0 ],
        "metallicFactor" : 0.1,
        "roughnessFactor" : 0.5
      }
    }
  ],
  "meshes" : [
    {
      "primitives" : [
        {
          "attributes" : {
            "POSITION" : 1,
            "NORMAL" : 2,
            "TANGENT" : 3,
            "TEXCOORD_0" : 4,
            "TEXCOORD_1" : 5,
            "TEXCOORD_2" : 6,
            "TEXCOORD_3" : 7,
            "TEXCOORD_4" : 8
          },
          "indices" : 0,
          "material" : 0
        }
      ],
      "name" : "S_Envi_Common_Decal_02b"
    }
  ],
  "buffers" : [
    {
      "uri" : "S_Envi_Common_Decal_02b.bin",
      "byteLength" : 740
    }
  ],
  "bufferViews" : [
    {
      "buffer" : 0,
      "byteOffset" : 0,
      "byteLength" : 20
    },
    {
      "buffer" : 0,
      "byteOffset" : 20,
      "byteLength" : 108
    },
    {
      "buffer" : 0,
      "byteOffset" : 128,
      "byteLength" : 108
    },
    {
      "buffer" : 0,
      "byteOffset" : 236,
      "byteLength" : 144
    },
    {
      "buffer" : 0,
      "byteOffset" : 380,
      "byteLength" : 72
    },
    {
      "buffer" : 0,
      "byteOffset" : 452,
      "byteLength" : 72
    },
    {
      "buffer" : 0,
      "byteOffset" : 524,
      "byteLength" : 72
    },
    {
      "buffer" : 0,
      "byteOffset" : 596,
      "byteLength" : 72
    },
    {
      "buffer" : 0,
      "byteOffset" : 668,
      "byteLength" : 72
    }
  ],
  "accessors" : [
    {
      "bufferView" : 0,
      "componentType" : 5123,
      "count" : 9,
      "type" : "SCALAR"
    },
    {
      "bufferView" : 1,
      "min" : [ -0.880192, -2.50693, -1.2207e-06 ],
      "max" : [ 2.33052, 3.05176e-07, 9.36398e-05 ],
      "componentType" : 5126,
      "count" : 9,
      "type" : "VEC3"
    },
    {
      "bufferView" : 2,
      "componentType" : 5126,
      "count" : 9,
      "type" : "VEC3"
    },
    {
      "bufferView" : 3,
      "componentType" : 5126,
      "count" : 9,
      "type" : "VEC4"
    },
    {
      "bufferView" : 4,
      "componentType" : 5126,
      "count" : 9,
      "type" : "VEC2"
    },
    {
      "bufferView" : 5,
      "componentType" : 5126,
      "count" : 9,
      "type" : "VEC2"
    },
    {
      "bufferView" : 6,
      "componentType" : 5126,
      "count" : 9,
      "type" : "VEC2"
    },
    {
      "bufferView" : 7,
      "componentType" : 5126,
      "count" : 9,
      "type" : "VEC2"
    },
    {
      "bufferView" : 8,
      "componentType" : 5126,
      "count" : 9,
      "type" : "VEC2"
    }
  ]
}
