{
  "asset" : {
    "generator" : "UE Viewer (umodel) build 1579 based",
    "version" : "2.0"
  },
  "scene" : 0,
  "scenes" : [
    {
      "nodes" : [ 0 ]
    }
  ],
  "nodes" : [
    {
      "name" : "Audrey_PPM_103_skin",
      "mesh" : 0,
      "skin" : 0,
      "children" : [ 1 ]
    },
    {
      "name" : "root",
      "children" : [ 2, 62, 65 ],
      "translation" : [ 0, 0, 0 ],
      "rotation" : [ 3.06162e-17, -0, -0, 1 ]
    },
    {
      "name" : "Bip001",
      "children" : [ 3 ],
      "translation" : [ -5.22028e-08, 1.00024, -0.00444114 ],
      "rotation" : [ -4.156e-39, 0.707106, -4.156e-39, -0.707107 ]
    },
    {
      "name" : "Bip001-Pelvis",
      "children" : [ 4, 54, 58 ],
      "translation" : [ -6.10623e-17, 0, -9.31736e-23 ],
      "rotation" : [ 0.5, 0.499999, -0.5, -0.500001 ]
    },
    {
      "name" : "Bip001-Spine",
      "children" : [ 5, 42, 43, 50 ],
      "translation" : [ 0.0770749, -1.33099e-07, -0.000982296 ],
      "rotation" : [ 2.05388e-06, -0.0297158, 8.04125e-07, -0.999558 ]
    },
    {
      "name" : "Bip001-Spine1",
      "children" : [ 6 ],
      "translation" : [ 0.0944991, -2.24422e-10, 8.09554e-05 ],
      "rotation" : [ -4.09866e-10, 0.0320063, 1.22902e-07, -0.999488 ]
    },
    {
      "name" : "Bip001-Spine2",
      "children" : [ 7, 22, 32 ],
      "translation" : [ 0.101875, -3.78027e-10, 0.000137261 ],
      "rotation" : [ 1.13788e-08, 0.0163827, -5.00694e-08, -0.999866 ]
    },
    {
      "name" : "Bip001-Neck",
      "children" : [ 8 ],
      "translation" : [ 0.185182, -4.05938e-08, -0.00528221 ],
      "rotation" : [ -4.01065e-10, -0.0139018, -5.29881e-08, -0.999903 ]
    },
    {
      "name" : "Bip001-Head",
      "children" : [ 9, 13, 17 ],
      "translation" : [ 0.0528164, -1.26324e-15, 5.90714e-10 ],
      "rotation" : [ -1.18261e-08, 0.00420906, 9.19748e-08, -0.999991 ]
    },
    {
      "name" : "hair_up_r_01",
      "children" : [ 10 ],
      "translation" : [ 0.0159732, -0.0577878, -0.0144094 ],
      "rotation" : [ -0.0252957, 0.0167707, 0.998266, -0.0504339 ]
    },
    {
      "name" : "hair_up_r_02",
      "children" : [ 11 ],
      "translation" : [ 0.0533813, -1.4755e-08, 3.44201e-07 ],
      "rotation" : [ -0.0170127, -0.00347169, -0.0328228, -0.99931 ]
    },
    {
      "name" : "hair_up_r_03",
      "children" : [ 12 ],
      "translation" : [ 0.0483813, -8.3527e-09, 1.50341e-08 ],
      "rotation" : [ 0.0152266, 0.0412532, 0.151018, -0.987552 ]
    },
    {
      "name" : "hair_up_r_04",
      "translation" : [ 0.0612602, -5.87705e-07, 2.81232e-06 ],
      "rotation" : [ 0.00226719, 0.0252181, -0.0895209, -0.995663 ]
    },
    {
      "name" : "hair_up_l_01",
      "children" : [ 14 ],
      "translation" : [ 0.0159731, 0.0577905, -0.0144093 ],
      "rotation" : [ -0.0501826, -0.99853, -0.0175098, -0.0106416 ]
    },
    {
      "name" : "hair_up_l_02",
      "children" : [ 15 ],
      "translation" : [ 0.0533815, 1.51275e-08, -3.40198e-07 ],
      "rotation" : [ 0.0163102, 0.0247504, -0.0331776, -0.99901 ]
    },
    {
      "name" : "hair_up_l_03",
      "children" : [ 16 ],
      "translation" : [ 0.0483813, -3.29153e-07, -6.91377e-08 ],
      "rotation" : [ -0.0152272, -0.041253, 0.151018, -0.987552 ]
    },
    {
      "name" : "hair_up_l_04",
      "translation" : [ 0.0612599, 7.93483e-07, -2.78803e-06 ],
      "rotation" : [ -0.002267, -0.0252184, -0.0895193, -0.995663 ]
    },
    {
      "name" : "hair_l_01",
      "children" : [ 18 ],
      "translation" : [ 0.164252, 1.03834e-07, -0.0011794 ],
      "rotation" : [ -0.0541777, 0.631477, 0.0581341, -0.771312 ]
    },
    {
      "name" : "hair_l_02",
      "children" : [ 19 ],
      "translation" : [ 0.042908, 2.63268e-09, -1.49851e-08 ],
      "rotation" : [ 0.00755586, 0.726319, -0.00128836, -0.687315 ]
    },
    {
      "name" : "hair_l_03",
      "children" : [ 20 ],
      "translation" : [ 0.0972659, 7.80056e-09, -8.74118e-09 ],
      "rotation" : [ -0.0345533, -0.0187231, 0.00960334, -0.999181 ]
    },
    {
      "name" : "hair_l_04",
      "children" : [ 21 ],
      "translation" : [ 0.0968765, 3.02915e-10, -8.47511e-08 ],
      "rotation" : [ -0.00222266, -0.0018432, 0.0104863, -0.999941 ]
    },
    {
      "name" : "hair_l_05",
      "translation" : [ 0.120566, -4.59059e-07, -4.20216e-08 ],
      "rotation" : [ 0.00102255, 0.129178, -0.00622069, -0.991601 ]
    },
    {
      "name" : "Bip001-L-Clavicle",
      "children" : [ 23 ],
      "translation" : [ 0.155509, 0.0144977, -0.00393351 ],
      "rotation" : [ -0.656989, -0.753844, 0.00670407, -0.00637081 ]
    },
    {
      "name" : "Bip001-L-UpperArm",
      "children" : [ 24, 31 ],
      "translation" : [ 0.0849461, -9.73735e-08, 6.23839e-07 ],
      "rotation" : [ 0.0240737, -0.006865, 0.140054, -0.989827 ]
    },
    {
      "name" : "Bip001-L-Forearm",
      "children" : [ 25, 30 ],
      "translation" : [ 0.220671, 0, -0 ],
      "rotation" : [ -6.06092e-20, 0.00109184, 5.55111e-17, -0.999999 ]
    },
    {
      "name" : "Bip001-L-Hand",
      "children" : [ 26, 28 ],
      "translation" : [ 0.245752, 7.53578e-07, -2.82572e-07 ],
      "rotation" : [ -0.999584, -0.023934, -0.0114425, -0.0113186 ]
    },
    {
      "name" : "Bip001-L-Finger0",
      "children" : [ 27 ],
      "translation" : [ 0.057094, -0.0294122, 0.00136461 ],
      "rotation" : [ -0.416851, 0.0935555, 0.212511, -0.878818 ]
    },
    {
      "name" : "Bip001-L-Finger01",
      "translation" : [ 0.0208843, -3.19668e-09, 4.49943e-09 ],
      "rotation" : [ -1.84114e-09, 0.00783672, -2.00178e-09, -0.999969 ]
    },
    {
      "name" : "Bip001-L-Finger1",
      "children" : [ 29 ],
      "translation" : [ 0.0746777, -1.64478e-08, -3.9576e-10 ],
      "rotation" : [ 0.000398143, -0.00605745, 2.38007e-06, -0.999982 ]
    },
    {
      "name" : "Bip001-L-Finger11",
      "translation" : [ 0.0389924, -3.51214e-08, -5.09073e-09 ],
      "rotation" : [ -7.80867e-09, -0.0263142, 2.89851e-09, -0.999654 ]
    },
    {
      "name" : "Bip001-L-ForeTwist",
      "translation" : [ -6.58504e-07, 3.5204e-07, -4.63407e-07 ],
      "rotation" : [ 1.01181e-06, 3.61611e-07, -9.79871e-07, -1 ]
    },
    {
      "name" : "Bip001-LUpArmTwist",
      "translation" : [ -6.56685e-07, 6.05337e-09, -6.26638e-07 ],
      "rotation" : [ 8.37578e-07, 3.55316e-07, -7.35957e-07, -1 ]
    },
    {
      "name" : "Bip001-R-Clavicle",
      "children" : [ 33 ],
      "translation" : [ 0.155509, -0.0144977, -0.00393359 ],
      "rotation" : [ 0.656989, -0.753844, -0.00670616, -0.00637263 ]
    },
    {
      "name" : "Bip001-R-UpperArm",
      "children" : [ 34, 41 ],
      "translation" : [ 0.0849448, -2.57613e-08, 6.5926e-07 ],
      "rotation" : [ -0.0240731, -0.00686846, -0.140052, -0.989828 ]
    },
    {
      "name" : "Bip001-R-Forearm",
      "children" : [ 35, 40 ],
      "translation" : [ 0.220671, 0, -0 ],
      "rotation" : [ 2.39584e-20, 0.000863193, -2.77556e-17, -1 ]
    },
    {
      "name" : "Bip001-R-Hand",
      "children" : [ 36, 38 ],
      "translation" : [ 0.245753, 4.41002e-07, -4.07157e-07 ],
      "rotation" : [ -0.999584, 0.0239325, -0.0114424, 0.0113187 ]
    },
    {
      "name" : "Bip001-R-Finger0",
      "children" : [ 37 ],
      "translation" : [ 0.057094, 0.0294122, 0.00136461 ],
      "rotation" : [ 0.416851, 0.0935555, -0.212511, -0.878818 ]
    },
    {
      "name" : "Bip001-R-Finger01",
      "translation" : [ 0.0208843, -4.21736e-08, -4.00712e-08 ],
      "rotation" : [ 8.57885e-08, 0.00783672, -2.85367e-09, -0.999969 ]
    },
    {
      "name" : "Bip001-R-Finger1",
      "children" : [ 39 ],
      "translation" : [ 0.0746777, 1.5284e-08, -1.92545e-09 ],
      "rotation" : [ -0.000398143, -0.00605745, -2.42724e-06, -0.999982 ]
    },
    {
      "name" : "Bip001-R-Finger11",
      "translation" : [ 0.0389924, -6.31236e-09, -1.11504e-09 ],
      "rotation" : [ 1.28793e-08, -0.0263142, -3.5402e-08, -0.999654 ]
    },
    {
      "name" : "Bip001-R-ForeTwist",
      "translation" : [ 6.7079e-07, 6.98161e-08, -5.31403e-07 ],
      "rotation" : [ -6.50034e-07, 4.88048e-07, -5.31585e-07, -1 ]
    },
    {
      "name" : "Bip001-RUpArmTwist",
      "translation" : [ 6.32308e-07, -2.60844e-07, -6.40096e-07 ],
      "rotation" : [ -6.42015e-07, 1.4384e-08, -6.66094e-07, -1 ]
    },
    {
      "name" : "dress_ffm_l_01",
      "translation" : [ 0.0953725, -0.0508999, 0.00656702 ],
      "rotation" : [ 0.0942844, -0.25201, 0.955999, -0.116906 ]
    },
    {
      "name" : "dress_ffm_r_01",
      "children" : [ 44 ],
      "translation" : [ 0.0898744, -1.65725e-07, 0.0196618 ],
      "rotation" : [ 0.116435, -7.33061e-07, 0.993198, -1.10102e-07 ]
    },
    {
      "name" : "dress_ffm_r_02",
      "children" : [ 45 ],
      "translation" : [ 0.0458421, 1.53445e-14, 4.79629e-08 ],
      "rotation" : [ 3.8111e-07, -5.77637e-15, 8.60216e-09, -1 ]
    },
    {
      "name" : "dress_ffm_r_03",
      "children" : [ 46 ],
      "translation" : [ 0.0938631, 9.86425e-09, -4.49052e-07 ],
      "rotation" : [ 1.21692e-06, -0.0692666, 3.16222e-07, -0.997598 ]
    },
    {
      "name" : "dress_ffm_r_04",
      "children" : [ 47 ],
      "translation" : [ 0.0813156, 7.62939e-08, 1.80499e-08 ],
      "rotation" : [ -4.19326e-07, -1.47244e-08, 1.45428e-08, -1 ]
    },
    {
      "name" : "dress_ffm_r_05",
      "children" : [ 48 ],
      "translation" : [ 0.0840801, 6.26754e-14, -5.63119e-08 ],
      "rotation" : [ 8.77311e-09, 0.0122668, -7.15202e-07, -0.999925 ]
    },
    {
      "name" : "dress_ffm_r_06",
      "children" : [ 49 ],
      "translation" : [ 0.0998466, 1.13131e-15, 3.09729e-08 ],
      "rotation" : [ -1.12838e-08, 0.0177229, -2.00013e-10, -0.999843 ]
    },
    {
      "name" : "dress_ffm_r_07",
      "translation" : [ 0.120575, 5.2484e-07, 5.04739e-07 ],
      "rotation" : [ -1.66054e-07, 0.00694474, 2.36739e-07, -0.999976 ]
    },
    {
      "name" : "dress_m_l_01",
      "children" : [ 51 ],
      "translation" : [ 0.0905874, -1.3918e-07, -0.0154601 ],
      "rotation" : [ -0.1268, -8.14602e-07, 0.991928, 1.36227e-07 ]
    },
    {
      "name" : "dress_m_l_02",
      "children" : [ 52 ],
      "translation" : [ 0.054445, 7.62939e-08, 4.04993e-08 ],
      "rotation" : [ -1.14698e-07, -1.38778e-17, 1.59175e-24, -1 ]
    },
    {
      "name" : "dress_m_l_03",
      "children" : [ 53 ],
      "translation" : [ 0.0850659, -2.55386e-14, -2.1529e-08 ],
      "rotation" : [ 2.38419e-07, 3.15544e-30, -1.32349e-23, -1 ]
    },
    {
      "name" : "dress_m_l_04",
      "translation" : [ 0.0883379, -1.05805e-14, 2.26871e-08 ],
      "rotation" : [ -2.38419e-07, -3.15544e-30, -1.32349e-23, -1 ]
    },
    {
      "name" : "Bip001-L-Thigh",
      "children" : [ 55 ],
      "translation" : [ 9.74604e-08, 0.0641221, -1.32748e-07 ],
      "rotation" : [ 0.00916328, 0.00173073, 0.999952, -0.00310451 ]
    },
    {
      "name" : "Bip001-L-Calf",
      "children" : [ 56 ],
      "translation" : [ 0.442659, 2.15069e-09, 1.30608e-09 ],
      "rotation" : [ 5.1592e-09, 0.0258587, 1.2103e-10, -0.999666 ]
    },
    {
      "name" : "Bip001-L-Foot",
      "children" : [ 57 ],
      "translation" : [ 0.40145, -1.2883e-09, 4.30232e-09 ],
      "rotation" : [ 0.00180975, -0.0350153, 0.00305968, -0.99938 ]
    },
    {
      "name" : "Bip001-L-Toe0",
      "translation" : [ 0.157078, -1.5446e-09, -0.0148699 ],
      "rotation" : [ -7.09724e-09, -0.707107, -7.09737e-09, -0.707107 ]
    },
    {
      "name" : "Bip001-R-Thigh",
      "children" : [ 59 ],
      "translation" : [ -9.74604e-08, -0.0641221, 4.5129e-08 ],
      "rotation" : [ 0.00915673, -0.00172933, 0.999952, 0.00310616 ]
    },
    {
      "name" : "Bip001-R-Calf",
      "children" : [ 60 ],
      "translation" : [ 0.442659, -7.2562e-11, 7.1886e-10 ],
      "rotation" : [ -6.8621e-09, 0.0258697, -1.95171e-10, -0.999665 ]
    },
    {
      "name" : "Bip001-R-Foot",
      "children" : [ 61 ],
      "translation" : [ 0.401451, 1.92809e-09, 3.52604e-09 ],
      "rotation" : [ -0.00180976, -0.0350197, -0.00305941, -0.99938 ]
    },
    {
      "name" : "Bip001-R-Toe0",
      "translation" : [ 0.157078, -5.83834e-10, -0.0148699 ],
      "rotation" : [ -8.86777e-09, -0.707107, -2.99414e-08, -0.707107 ]
    },
    {
      "name" : "ik_foot_root",
      "children" : [ 63, 64 ],
      "translation" : [ 0, 0, -0 ],
      "rotation" : [ -0, -0, 0, -1 ]
    },
    {
      "name" : "ik_foot_l",
      "translation" : [ 0.0589831, 0.157204, -0.0406554 ],
      "rotation" : [ -0.707107, 0.707107, 3.27754e-07, -3.27754e-07 ]
    },
    {
      "name" : "ik_foot_r",
      "translation" : [ -0.0589826, 0.157205, -0.0406564 ],
      "rotation" : [ -0.707107, 0.707106, 4.43777e-07, -4.43777e-07 ]
    },
    {
      "name" : "ik_hand_root",
      "children" : [ 66 ],
      "translation" : [ 0, 0, -0 ],
      "rotation" : [ -0, -0, 0, -1 ]
    },
    {
      "name" : "ik_hand_gun",
      "children" : [ 67, 68, 69 ],
      "translation" : [ -0.524805, 1.2284, 0.0141047 ],
      "rotation" : [ 0.183761, -0.981393, 0.0540477, 0.0133921 ]
    },
    {
      "name" : "ik_hand_r",
      "translation" : [ 7.10542e-17, -2.84217e-16, 3.8147e-08 ],
      "rotation" : [ -6.9389e-18, 1.86264e-09, -1.29247e-26, -1 ]
    },
    {
      "name" : "ik_hand_l",
      "translation" : [ -0.978349, -0.380098, -0.00674326 ],
      "rotation" : [ -0.0064263, 6.19418e-07, 0.932105, -0.362132 ]
    },
    {
      "name" : "SocketADS",
      "translation" : [ -7.10542e-17, -2.84217e-16, -7.62939e-08 ],
      "rotation" : [ -3.72529e-09, 8.75443e-08, -2.98373e-16, -1 ]
    }
  ],
  "skins" : [
    {
      "inverseBindMatrices" : 0,
      "skeleton" : 1,
      "joints" : [
        1,2,3,4,5,6,7,8,9,10,11,12,13,14,15,16,17,18,19,20,21,22,23,24,25,26,27,28,29,30,31,32,
        33,34,35,36,37,38,39,40,41,42,43,44,45,46,47,48,49,50,51,52,53,54,55,56,57,58,59,60,61,62,63,64,
        65,66,67,68,69
      ]
    }
  ],
  "materials" : [
    {
      "name" : "MI_Audrey_PPM_103",
      "pbrMetallicRoughness" : {
        "baseColorFactor" : [ 0.3, 0.3, 0.3, 1.0 ],
        "metallicFactor" : 0.1,
        "roughnessFactor" : 0.5
      }
    }
  ],
  "meshes" : [
    {
      "primitives" : [
        {
          "attributes" : {
            "POSITION" : 2,
            "NORMAL" : 3,
            "TANGENT" : 4,
            "JOINTS_0" : 5,
            "WEIGHTS_0" : 6,
            "TEXCOORD_0" : 7
          },
          "indices" : 1,
          "material" : 0
        }
      ],
      "name" : "Audrey_PPM_103_skin"
    }
  ],
  "buffers" : [
    {
      "uri" : "Audrey_PPM_103_skin.bin",
      "byteLength" : 156996
    }
  ],
  "bufferViews" : [
    {
      "buffer" : 0,
      "byteOffset" : 0,
      "byteLength" : 4416
    },
    {
      "buffer" : 0,
      "byteOffset" : 4416,
      "byteLength" : 15960
    },
    {
      "buffer" : 0,
      "byteOffset" : 20376,
      "byteLength" : 27324
    },
    {
      "buffer" : 0,
      "byteOffset" : 47700,
      "byteLength" : 27324
    },
    {
      "buffer" : 0,
      "byteOffset" : 75024,
      "byteLength" : 36432
    },
    {
      "buffer" : 0,
      "byteOffset" : 111456,
      "byteLength" : 18216
    },
    {
      "buffer" : 0,
      "byteOffset" : 129672,
      "byteLength" : 9108
    },
    {
      "buffer" : 0,
      "byteOffset" : 138780,
      "byteLength" : 18216
    }
  ],
  "accessors" : [
    {
      "bufferView" : 0,
      "componentType" : 5126,
      "count" : 69,
      "type" : "MAT4"
    },
    {
      "bufferView" : 1,
      "componentType" : 5123,
      "count" : 7980,
      "type" : "SCALAR"
    },
    {
      "bufferView" : 2,
      "min" : [ -0.668376, 0.000891, -0.096455 ],
      "max" : [ 0.666588, 1.73927, 0.035771 ],
      "componentType" : 5126,
      "count" : 2277,
      "type" : "VEC3"
    },
    {
      "bufferView" : 3,
      "componentType" : 5126,
      "count" : 2277,
      "type" : "VEC3"
    },
    {
      "bufferView" : 4,
      "componentType" : 5126,
      "count" : 2277,
      "type" : "VEC4"
    },
    {
      "bufferView" : 5,
      "componentType" : 5123,
      "count" : 2277,
      "type" : "VEC4"
    },
    {
      "bufferView" : 6,
      "normalized" : true,
      "componentType" : 5121,
      "count" : 2277,
      "type" : "VEC4"
    },
    {
      "bufferView" : 7,
      "componentType" : 5126,
      "count" : 2277,
      "type" : "VEC2"
    }
  ]
}
