{
  "asset" : {
    "generator" : "UE Viewer (umodel) build 1579 based",
    "version" : "2.0"
  },
  "scene" : 0,
  "scenes" : [
    {
      "nodes" : [ 0 ]
    }
  ],
  "nodes" : [
    {
      "name" : "SK_Weap_M200_104_Sight_1P",
      "mesh" : 0,
      "skin" : 0,
      "children" : [ 1 ]
    },
    {
      "name" : "Root",
      "translation" : [ -3.63798e-14, 0, 0 ],
      "rotation" : [ 2.67319e-06, 4.46143e-12, 1.66893e-06, 1 ]
    }
  ],
  "skins" : [
    {
      "inverseBindMatrices" : 0,
      "skeleton" : 1,
      "joints" : [
        1
      ]
    }
  ],
  "materials" : [
    {
      "name" : "MI_Weap_M200_02_104",
      "pbrMetallicRoughness" : {
        "baseColorFactor" : [ 0.3, 0.3, 0.3, 1.0 ],
        "metallicFactor" : 0.1,
        "roughnessFactor" : 0.5
      }
    }
  ],
  "meshes" : [
    {
      "primitives" : [
        {
          "attributes" : {
            "POSITION" : 2,
            "NORMAL" : 3,
            "TANGENT" : 4,
            "JOINTS_0" : 5,
            "WEIGHTS_0" : 6,
            "TEXCOORD_0" : 7,
            "TEXCOORD_1" : 8,
            "TEXCOORD_2" : 9
          },
          "indices" : 1,
          "material" : 0
        }
      ],
      "name" : "SK_Weap_M200_104_Sight_1P"
    }
  ],
  "buffers" : [
    {
      "uri" : "SK_Weap_M200_104_Sight_1P.bin",
      "byteLength" : 274400
    }
  ],
  "bufferViews" : [
    {
      "buffer" : 0,
      "byteOffset" : 0,
      "byteLength" : 64
    },
    {
      "buffer" : 0,
      "byteOffset" : 64,
      "byteLength" : 24752
    },
    {
      "buffer" : 0,
      "byteOffset" : 24816,
      "byteLength" : 39408
    },
    {
      "buffer" : 0,
      "byteOffset" : 64224,
      "byteLength" : 39408
    },
    {
      "buffer" : 0,
      "byteOffset" : 103632,
      "byteLength" : 52544
    },
    {
      "buffer" : 0,
      "byteOffset" : 156176,
      "byteLength" : 26272
    },
    {
      "buffer" : 0,
      "byteOffset" : 182448,
      "byteLength" : 13136
    },
    {
      "buffer" : 0,
      "byteOffset" : 195584,
      "byteLength" : 26272
    },
    {
      "buffer" : 0,
      "byteOffset" : 221856,
      "byteLength" : 26272
    },
    {
      "buffer" : 0,
      "byteOffset" : 248128,
      "byteLength" : 26272
    }
  ],
  "accessors" : [
    {
      "bufferView" : 0,
      "componentType" : 5126,
      "count" : 1,
      "type" : "MAT4"
    },
    {
      "bufferView" : 1,
      "componentType" : 5123,
      "count" : 12375,
      "type" : "SCALAR"
    },
    {
      "bufferView" : 2,
      "min" : [ -0.0243235, -0.0492673, -0.0873078 ],
      "max" : [ 0.0346149, 0.051448, 0.0378156 ],
      "componentType" : 5126,
      "count" : 3284,
      "type" : "VEC3"
    },
    {
      "bufferView" : 3,
      "componentType" : 5126,
      "count" : 3284,
      "type" : "VEC3"
    },
    {
      "bufferView" : 4,
      "componentType" : 5126,
      "count" : 3284,
      "type" : "VEC4"
    },
    {
      "bufferView" : 5,
      "componentType" : 5123,
      "count" : 3284,
      "type" : "VEC4"
    },
    {
      "bufferView" : 6,
      "normalized" : true,
      "componentType" : 5121,
      "count" : 3284,
      "type" : "VEC4"
    },
    {
      "bufferView" : 7,
      "componentType" : 5126,
      "count" : 3284,
      "type" : "VEC2"
    },
    {
      "bufferView" : 8,
      "componentType" : 5126,
      "count" : 3284,
      "type" : "VEC2"
    },
    {
      "bufferView" : 9,
      "componentType" : 5126,
      "count" : 3284,
      "type" : "VEC2"
    }
  ]
}
