{
  "asset" : {
    "generator" : "UE Viewer (umodel) build 1579 based",
    "version" : "2.0"
  },
  "scene" : 0,
  "scenes" : [
    {
      "nodes" : [ 0 ]
    }
  ],
  "nodes" : [
    {
      "name" : "S_Envi_Common_Pipe_01l",
      "mesh" : 0
    }
  ],
  "materials" : [
    {
      "name" : "MI_Envi_Common_Pipe_02a",
      "pbrMetallicRoughness" : {
        "baseColorFactor" : [ 0.3, 0.3, 0.3, 1.0 ],
        "metallicFactor" : 0.1,
        "roughnessFactor" : 0.5
      }
    },
    {
      "name" : "MI_Envi_Common_Pipe_01c",
      "pbrMetallicRoughness" : {
        "baseColorFactor" : [ 0.9, 0.3, 0.3, 1.0 ],
        "metallicFactor" : 0.1,
        "roughnessFactor" : 0.5
      }
    }
  ],
  "meshes" : [
    {
      "primitives" : [
        {
          "attributes" : {
            "POSITION" : 1,
            "NORMAL" : 2,
            "TANGENT" : 3,
            "TEXCOORD_0" : 4,
            "TEXCOORD_1" : 5
          },
          "indices" : 0,
          "material" : 0
        },
        {
          "attributes" : {
            "POSITION" : 7,
            "NORMAL" : 8,
            "TANGENT" : 9,
            "TEXCOORD_0" : 10,
            "TEXCOORD_1" : 11
          },
          "indices" : 6,
          "material" : 1
        }
      ],
      "name" : "S_Envi_Common_Pipe_01l"
    }
  ],
  "buffers" : [
    {
      "uri" : "S_Envi_Common_Pipe_01l.bin",
      "byteLength" : 16392
    }
  ],
  "bufferViews" : [
    {
      "buffer" : 0,
      "byteOffset" : 0,
      "byteLength" : 2016
    },
    {
      "buffer" : 0,
      "byteOffset" : 2016,
      "byteLength" : 2400
    },
    {
      "buffer" : 0,
      "byteOffset" : 4416,
      "byteLength" : 2400
    },
    {
      "buffer" : 0,
      "byteOffset" : 6816,
      "byteLength" : 3200
    },
    {
      "buffer" : 0,
      "byteOffset" : 10016,
      "byteLength" : 1600
    },
    {
      "buffer" : 0,
      "byteOffset" : 11616,
      "byteLength" : 1600
    },
    {
      "buffer" : 0,
      "byteOffset" : 13216,
      "byteLength" : 264
    },
    {
      "buffer" : 0,
      "byteOffset" : 13480,
      "byteLength" : 624
    },
    {
      "buffer" : 0,
      "byteOffset" : 14104,
      "byteLength" : 624
    },
    {
      "buffer" : 0,
      "byteOffset" : 14728,
      "byteLength" : 832
    },
    {
      "buffer" : 0,
      "byteOffset" : 15560,
      "byteLength" : 416
    },
    {
      "buffer" : 0,
      "byteOffset" : 15976,
      "byteLength" : 416
    }
  ],
  "accessors" : [
    {
      "bufferView" : 0,
      "componentType" : 5123,
      "count" : 1008,
      "type" : "SCALAR"
    },
    {
      "bufferView" : 1,
      "min" : [ -0.5, -2.33311e-06, -0.999999 ],
      "max" : [ 0.5, 3, 0.96384 ],
      "componentType" : 5126,
      "count" : 200,
      "type" : "VEC3"
    },
    {
      "bufferView" : 2,
      "componentType" : 5126,
      "count" : 200,
      "type" : "VEC3"
    },
    {
      "bufferView" : 3,
      "componentType" : 5126,
      "count" : 200,
      "type" : "VEC4"
    },
    {
      "bufferView" : 4,
      "componentType" : 5126,
      "count" : 200,
      "type" : "VEC2"
    },
    {
      "bufferView" : 5,
      "componentType" : 5126,
      "count" : 200,
      "type" : "VEC2"
    },
    {
      "bufferView" : 6,
      "componentType" : 5123,
      "count" : 132,
      "type" : "SCALAR"
    },
    {
      "bufferView" : 7,
      "min" : [ -0.5, -2.33311e-06, -0.999999 ],
      "max" : [ 0.5, 3, 0.963839 ],
      "componentType" : 5126,
      "count" : 52,
      "type" : "VEC3"
    },
    {
      "bufferView" : 8,
      "componentType" : 5126,
      "count" : 52,
      "type" : "VEC3"
    },
    {
      "bufferView" : 9,
      "componentType" : 5126,
      "count" : 52,
      "type" : "VEC4"
    },
    {
      "bufferView" : 10,
      "componentType" : 5126,
      "count" : 52,
      "type" : "VEC2"
    },
    {
      "bufferView" : 11,
      "componentType" : 5126,
      "count" : 52,
      "type" : "VEC2"
    }
  ]
}
