{
  "asset" : {
    "generator" : "UE Viewer (umodel) build 1579 based",
    "version" : "2.0"
  },
  "scene" : 0,
  "scenes" : [
    {
      "nodes" : [ 0 ]
    }
  ],
  "nodes" : [
    {
      "name" : "S_Envi_FZFBase_Wall_02l",
      "mesh" : 0
    }
  ],
  "materials" : [
    {
      "name" : "MI_Envi_FZFBase_Wall_01c",
      "pbrMetallicRoughness" : {
        "baseColorFactor" : [ 0.3, 0.3, 0.3, 1.0 ],
        "metallicFactor" : 0.1,
        "roughnessFactor" : 0.5
      }
    }
  ],
  "meshes" : [
    {
      "primitives" : [
        {
          "attributes" : {
            "POSITION" : 1,
            "NORMAL" : 2,
            "TANGENT" : 3,
            "TEXCOORD_0" : 4,
            "TEXCOORD_1" : 5,
            "TEXCOORD_2" : 6,
            "TEXCOORD_3" : 7
          },
          "indices" : 0,
          "material" : 0
        }
      ],
      "name" : "S_Envi_FZFBase_Wall_02l"
    }
  ],
  "buffers" : [
    {
      "uri" : "S_Envi_FZFBase_Wall_02l.bin",
      "byteLength" : 40268
    }
  ],
  "bufferViews" : [
    {
      "buffer" : 0,
      "byteOffset" : 0,
      "byteLength" : 2468
    },
    {
      "buffer" : 0,
      "byteOffset" : 2468,
      "byteLength" : 6300
    },
    {
      "buffer" : 0,
      "byteOffset" : 8768,
      "byteLength" : 6300
    },
    {
      "buffer" : 0,
      "byteOffset" : 15068,
      "byteLength" : 8400
    },
    {
      "buffer" : 0,
      "byteOffset" : 23468,
      "byteLength" : 4200
    },
    {
      "buffer" : 0,
      "byteOffset" : 27668,
      "byteLength" : 4200
    },
    {
      "buffer" : 0,
      "byteOffset" : 31868,
      "byteLength" : 4200
    },
    {
      "buffer" : 0,
      "byteOffset" : 36068,
      "byteLength" : 4200
    }
  ],
  "accessors" : [
    {
      "bufferView" : 0,
      "componentType" : 5123,
      "count" : 1233,
      "type" : "SCALAR"
    },
    {
      "bufferView" : 1,
      "min" : [ -0.0500006, -7.43208e-08, -0.000561229 ],
      "max" : [ 5.80699, 4, 0.37317 ],
      "componentType" : 5126,
      "count" : 525,
      "type" : "VEC3"
    },
    {
      "bufferView" : 2,
      "componentType" : 5126,
      "count" : 525,
      "type" : "VEC3"
    },
    {
      "bufferView" : 3,
      "componentType" : 5126,
      "count" : 525,
      "type" : "VEC4"
    },
    {
      "bufferView" : 4,
      "componentType" : 5126,
      "count" : 525,
      "type" : "VEC2"
    },
    {
      "bufferView" : 5,
      "componentType" : 5126,
      "count" : 525,
      "type" : "VEC2"
    },
    {
      "bufferView" : 6,
      "componentType" : 5126,
      "count" : 525,
      "type" : "VEC2"
    },
    {
      "bufferView" : 7,
      "componentType" : 5126,
      "count" : 525,
      "type" : "VEC2"
    }
  ]
}
