{
  "asset" : {
    "generator" : "UE Viewer (umodel) build 1579 based",
    "version" : "2.0"
  },
  "scene" : 0,
  "scenes" : [
    {
      "nodes" : [ 0 ]
    }
  ],
  "nodes" : [
    {
      "name" : "S_Envi_FZFBase_Wall_02h",
      "mesh" : 0
    }
  ],
  "materials" : [
    {
      "name" : "MI_Envi_FZFBase_Wall_01c",
      "pbrMetallicRoughness" : {
        "baseColorFactor" : [ 0.3, 0.3, 0.3, 1.0 ],
        "metallicFactor" : 0.1,
        "roughnessFactor" : 0.5
      }
    },
    {
      "name" : "MI_Envi_Olgk_Screen_01d2",
      "pbrMetallicRoughness" : {
        "baseColorFactor" : [ 0.9, 0.3, 0.3, 1.0 ],
        "metallicFactor" : 0.1,
        "roughnessFactor" : 0.5
      }
    }
  ],
  "meshes" : [
    {
      "primitives" : [
        {
          "attributes" : {
            "POSITION" : 1,
            "NORMAL" : 2,
            "TANGENT" : 3,
            "TEXCOORD_0" : 4,
            "TEXCOORD_1" : 5,
            "TEXCOORD_2" : 6,
            "TEXCOORD_3" : 7
          },
          "indices" : 0,
          "material" : 0
        },
        {
          "attributes" : {
            "POSITION" : 9,
            "NORMAL" : 10,
            "TANGENT" : 11,
            "TEXCOORD_0" : 12,
            "TEXCOORD_1" : 13,
            "TEXCOORD_2" : 14,
            "TEXCOORD_3" : 15
          },
          "indices" : 8,
          "material" : 1
        }
      ],
      "name" : "S_Envi_FZFBase_Wall_02h"
    }
  ],
  "buffers" : [
    {
      "uri" : "S_Envi_FZFBase_Wall_02h.bin",
      "byteLength" : 34536
    }
  ],
  "bufferViews" : [
    {
      "buffer" : 0,
      "byteOffset" : 0,
      "byteLength" : 2304
    },
    {
      "buffer" : 0,
      "byteOffset" : 2304,
      "byteLength" : 5088
    },
    {
      "buffer" : 0,
      "byteOffset" : 7392,
      "byteLength" : 5088
    },
    {
      "buffer" : 0,
      "byteOffset" : 12480,
      "byteLength" : 6784
    },
    {
      "buffer" : 0,
      "byteOffset" : 19264,
      "byteLength" : 3392
    },
    {
      "buffer" : 0,
      "byteOffset" : 22656,
      "byteLength" : 3392
    },
    {
      "buffer" : 0,
      "byteOffset" : 26048,
      "byteLength" : 3392
    },
    {
      "buffer" : 0,
      "byteOffset" : 29440,
      "byteLength" : 3392
    },
    {
      "buffer" : 0,
      "byteOffset" : 32832,
      "byteLength" : 120
    },
    {
      "buffer" : 0,
      "byteOffset" : 32952,
      "byteLength" : 264
    },
    {
      "buffer" : 0,
      "byteOffset" : 33216,
      "byteLength" : 264
    },
    {
      "buffer" : 0,
      "byteOffset" : 33480,
      "byteLength" : 352
    },
    {
      "buffer" : 0,
      "byteOffset" : 33832,
      "byteLength" : 176
    },
    {
      "buffer" : 0,
      "byteOffset" : 34008,
      "byteLength" : 176
    },
    {
      "buffer" : 0,
      "byteOffset" : 34184,
      "byteLength" : 176
    },
    {
      "buffer" : 0,
      "byteOffset" : 34360,
      "byteLength" : 176
    }
  ],
  "accessors" : [
    {
      "bufferView" : 0,
      "componentType" : 5123,
      "count" : 1152,
      "type" : "SCALAR"
    },
    {
      "bufferView" : 1,
      "min" : [ -0.299999, 1.55978e-07, -9.00001 ],
      "max" : [ 1.95312e-05, 8.3, 4.97194e-14 ],
      "componentType" : 5126,
      "count" : 424,
      "type" : "VEC3"
    },
    {
      "bufferView" : 2,
      "componentType" : 5126,
      "count" : 424,
      "type" : "VEC3"
    },
    {
      "bufferView" : 3,
      "componentType" : 5126,
      "count" : 424,
      "type" : "VEC4"
    },
    {
      "bufferView" : 4,
      "componentType" : 5126,
      "count" : 424,
      "type" : "VEC2"
    },
    {
      "bufferView" : 5,
      "componentType" : 5126,
      "count" : 424,
      "type" : "VEC2"
    },
    {
      "bufferView" : 6,
      "componentType" : 5126,
      "count" : 424,
      "type" : "VEC2"
    },
    {
      "bufferView" : 7,
      "componentType" : 5126,
      "count" : 424,
      "type" : "VEC2"
    },
    {
      "bufferView" : 8,
      "componentType" : 5123,
      "count" : 60,
      "type" : "SCALAR"
    },
    {
      "bufferView" : 9,
      "min" : [ -0.0728687, 2.65329, -8.16141 ],
      "max" : [ -0.0728687, 7.81479, -0.838599 ],
      "componentType" : 5126,
      "count" : 22,
      "type" : "VEC3"
    },
    {
      "bufferView" : 10,
      "componentType" : 5126,
      "count" : 22,
      "type" : "VEC3"
    },
    {
      "bufferView" : 11,
      "componentType" : 5126,
      "count" : 22,
      "type" : "VEC4"
    },
    {
      "bufferView" : 12,
      "componentType" : 5126,
      "count" : 22,
      "type" : "VEC2"
    },
    {
      "bufferView" : 13,
      "componentType" : 5126,
      "count" : 22,
      "type" : "VEC2"
    },
    {
      "bufferView" : 14,
      "componentType" : 5126,
      "count" : 22,
      "type" : "VEC2"
    },
    {
      "bufferView" : 15,
      "componentType" : 5126,
      "count" : 22,
      "type" : "VEC2"
    }
  ]
}
