{
  "asset" : {
    "generator" : "UE Viewer (umodel) build 1579 based",
    "version" : "2.0"
  },
  "scene" : 0,
  "scenes" : [
    {
      "nodes" : [ 0 ]
    }
  ],
  "nodes" : [
    {
      "name" : "S_Envi_FZFBase_Ground_01c",
      "mesh" : 0
    }
  ],
  "materials" : [
    {
      "name" : "MI_Envi_FZFBase_Ground_01d",
      "pbrMetallicRoughness" : {
        "baseColorFactor" : [ 0.3, 0.3, 0.3, 1.0 ],
        "metallicFactor" : 0.1,
        "roughnessFactor" : 0.5
      }
    },
    {
      "name" : "MI_Envi_FZFBase_Ground_01b",
      "pbrMetallicRoughness" : {
        "baseColorFactor" : [ 0.9, 0.3, 0.3, 1.0 ],
        "metallicFactor" : 0.1,
        "roughnessFactor" : 0.5
      }
    },
    {
      "name" : "MI_Envi_FZFBase_Ground_01a",
      "pbrMetallicRoughness" : {
        "baseColorFactor" : [ 0.3, 0.9, 0.3, 1.0 ],
        "metallicFactor" : 0.1,
        "roughnessFactor" : 0.5
      }
    }
  ],
  "meshes" : [
    {
      "primitives" : [
        {
          "attributes" : {
            "POSITION" : 1,
            "NORMAL" : 2,
            "TANGENT" : 3,
            "TEXCOORD_0" : 4,
            "TEXCOORD_1" : 5,
            "TEXCOORD_2" : 6,
            "TEXCOORD_3" : 7
          },
          "indices" : 0,
          "material" : 0
        },
        {
          "attributes" : {
            "POSITION" : 9,
            "NORMAL" : 10,
            "TANGENT" : 11,
            "TEXCOORD_0" : 12,
            "TEXCOORD_1" : 13,
            "TEXCOORD_2" : 14,
            "TEXCOORD_3" : 15
          },
          "indices" : 8,
          "material" : 1
        },
        {
          "attributes" : {
            "POSITION" : 17,
            "NORMAL" : 18,
            "TANGENT" : 19,
            "TEXCOORD_0" : 20,
            "TEXCOORD_1" : 21,
            "TEXCOORD_2" : 22,
            "TEXCOORD_3" : 23
          },
          "indices" : 16,
          "material" : 2
        }
      ],
      "name" : "S_Envi_FZFBase_Ground_01c"
    }
  ],
  "buffers" : [
    {
      "uri" : "S_Envi_FZFBase_Ground_01c.bin",
      "byteLength" : 18048
    }
  ],
  "bufferViews" : [
    {
      "buffer" : 0,
      "byteOffset" : 0,
      "byteLength" : 132
    },
    {
      "buffer" : 0,
      "byteOffset" : 132,
      "byteLength" : 384
    },
    {
      "buffer" : 0,
      "byteOffset" : 516,
      "byteLength" : 384
    },
    {
      "buffer" : 0,
      "byteOffset" : 900,
      "byteLength" : 512
    },
    {
      "buffer" : 0,
      "byteOffset" : 1412,
      "byteLength" : 256
    },
    {
      "buffer" : 0,
      "byteOffset" : 1668,
      "byteLength" : 256
    },
    {
      "buffer" : 0,
      "byteOffset" : 1924,
      "byteLength" : 256
    },
    {
      "buffer" : 0,
      "byteOffset" : 2180,
      "byteLength" : 256
    },
    {
      "buffer" : 0,
      "byteOffset" : 2436,
      "byteLength" : 348
    },
    {
      "buffer" : 0,
      "byteOffset" : 2784,
      "byteLength" : 816
    },
    {
      "buffer" : 0,
      "byteOffset" : 3600,
      "byteLength" : 816
    },
    {
      "buffer" : 0,
      "byteOffset" : 4416,
      "byteLength" : 1088
    },
    {
      "buffer" : 0,
      "byteOffset" : 5504,
      "byteLength" : 544
    },
    {
      "buffer" : 0,
      "byteOffset" : 6048,
      "byteLength" : 544
    },
    {
      "buffer" : 0,
      "byteOffset" : 6592,
      "byteLength" : 544
    },
    {
      "buffer" : 0,
      "byteOffset" : 7136,
      "byteLength" : 544
    },
    {
      "buffer" : 0,
      "byteOffset" : 7680,
      "byteLength" : 720
    },
    {
      "buffer" : 0,
      "byteOffset" : 8400,
      "byteLength" : 1608
    },
    {
      "buffer" : 0,
      "byteOffset" : 10008,
      "byteLength" : 1608
    },
    {
      "buffer" : 0,
      "byteOffset" : 11616,
      "byteLength" : 2144
    },
    {
      "buffer" : 0,
      "byteOffset" : 13760,
      "byteLength" : 1072
    },
    {
      "buffer" : 0,
      "byteOffset" : 14832,
      "byteLength" : 1072
    },
    {
      "buffer" : 0,
      "byteOffset" : 15904,
      "byteLength" : 1072
    },
    {
      "buffer" : 0,
      "byteOffset" : 16976,
      "byteLength" : 1072
    }
  ],
  "accessors" : [
    {
      "bufferView" : 0,
      "componentType" : 5123,
      "count" : 66,
      "type" : "SCALAR"
    },
    {
      "bufferView" : 1,
      "min" : [ 0, -2.38419e-08, -8.00246 ],
      "max" : [ 4.25772, 4.3, 1.18316e-07 ],
      "componentType" : 5126,
      "count" : 32,
      "type" : "VEC3"
    },
    {
      "bufferView" : 2,
      "componentType" : 5126,
      "count" : 32,
      "type" : "VEC3"
    },
    {
      "bufferView" : 3,
      "componentType" : 5126,
      "count" : 32,
      "type" : "VEC4"
    },
    {
      "bufferView" : 4,
      "componentType" : 5126,
      "count" : 32,
      "type" : "VEC2"
    },
    {
      "bufferView" : 5,
      "componentType" : 5126,
      "count" : 32,
      "type" : "VEC2"
    },
    {
      "bufferView" : 6,
      "componentType" : 5126,
      "count" : 32,
      "type" : "VEC2"
    },
    {
      "bufferView" : 7,
      "componentType" : 5126,
      "count" : 32,
      "type" : "VEC2"
    },
    {
      "bufferView" : 8,
      "componentType" : 5123,
      "count" : 174,
      "type" : "SCALAR"
    },
    {
      "bufferView" : 9,
      "min" : [ 0, -2.38419e-08, -8.00246 ],
      "max" : [ 4.02572, 4.3, 1.18316e-07 ],
      "componentType" : 5126,
      "count" : 68,
      "type" : "VEC3"
    },
    {
      "bufferView" : 10,
      "componentType" : 5126,
      "count" : 68,
      "type" : "VEC3"
    },
    {
      "bufferView" : 11,
      "componentType" : 5126,
      "count" : 68,
      "type" : "VEC4"
    },
    {
      "bufferView" : 12,
      "componentType" : 5126,
      "count" : 68,
      "type" : "VEC2"
    },
    {
      "bufferView" : 13,
      "componentType" : 5126,
      "count" : 68,
      "type" : "VEC2"
    },
    {
      "bufferView" : 14,
      "componentType" : 5126,
      "count" : 68,
      "type" : "VEC2"
    },
    {
      "bufferView" : 15,
      "componentType" : 5126,
      "count" : 68,
      "type" : "VEC2"
    },
    {
      "bufferView" : 16,
      "componentType" : 5123,
      "count" : 360,
      "type" : "SCALAR"
    },
    {
      "bufferView" : 17,
      "min" : [ 0.391822, 0.299999, -8.00246 ],
      "max" : [ 3.63027, 4.3, 9.77521e-08 ],
      "componentType" : 5126,
      "count" : 134,
      "type" : "VEC3"
    },
    {
      "bufferView" : 18,
      "componentType" : 5126,
      "count" : 134,
      "type" : "VEC3"
    },
    {
      "bufferView" : 19,
      "componentType" : 5126,
      "count" : 134,
      "type" : "VEC4"
    },
    {
      "bufferView" : 20,
      "componentType" : 5126,
      "count" : 134,
      "type" : "VEC2"
    },
    {
      "bufferView" : 21,
      "componentType" : 5126,
      "count" : 134,
      "type" : "VEC2"
    },
    {
      "bufferView" : 22,
      "componentType" : 5126,
      "count" : 134,
      "type" : "VEC2"
    },
    {
      "bufferView" : 23,
      "componentType" : 5126,
      "count" : 134,
      "type" : "VEC2"
    }
  ]
}
