{
  "asset" : {
    "generator" : "UE Viewer (umodel) build 1579 based",
    "version" : "2.0"
  },
  "scene" : 0,
  "scenes" : [
    {
      "nodes" : [ 0 ]
    }
  ],
  "nodes" : [
    {
      "name" : "S_Envi_FZFBase_Wall_04a",
      "mesh" : 0
    }
  ],
  "materials" : [
    {
      "name" : "MI_Envi_FZFBase_Wall_01a",
      "pbrMetallicRoughness" : {
        "baseColorFactor" : [ 0.3, 0.3, 0.3, 1.0 ],
        "metallicFactor" : 0.1,
        "roughnessFactor" : 0.5
      }
    },
    {
      "name" : "MI_Envi_Common_ReWall_01a",
      "pbrMetallicRoughness" : {
        "baseColorFactor" : [ 0.9, 0.3, 0.3, 1.0 ],
        "metallicFactor" : 0.1,
        "roughnessFactor" : 0.5
      }
    }
  ],
  "meshes" : [
    {
      "primitives" : [
        {
          "attributes" : {
            "POSITION" : 1,
            "NORMAL" : 2,
            "TANGENT" : 3,
            "TEXCOORD_0" : 4,
            "TEXCOORD_1" : 5
          },
          "indices" : 0,
          "material" : 0
        },
        {
          "attributes" : {
            "POSITION" : 7,
            "NORMAL" : 8,
            "TANGENT" : 9,
            "TEXCOORD_0" : 10,
            "TEXCOORD_1" : 11
          },
          "indices" : 6,
          "material" : 1
        }
      ],
      "name" : "S_Envi_FZFBase_Wall_04a"
    }
  ],
  "buffers" : [
    {
      "uri" : "S_Envi_FZFBase_Wall_04a.bin",
      "byteLength" : 109076
    }
  ],
  "bufferViews" : [
    {
      "buffer" : 0,
      "byteOffset" : 0,
      "byteLength" : 1668
    },
    {
      "buffer" : 0,
      "byteOffset" : 1668,
      "byteLength" : 3408
    },
    {
      "buffer" : 0,
      "byteOffset" : 5076,
      "byteLength" : 3408
    },
    {
      "buffer" : 0,
      "byteOffset" : 8484,
      "byteLength" : 4544
    },
    {
      "buffer" : 0,
      "byteOffset" : 13028,
      "byteLength" : 2272
    },
    {
      "buffer" : 0,
      "byteOffset" : 15300,
      "byteLength" : 2272
    },
    {
      "buffer" : 0,
      "byteOffset" : 17572,
      "byteLength" : 7560
    },
    {
      "buffer" : 0,
      "byteOffset" : 25132,
      "byteLength" : 17988
    },
    {
      "buffer" : 0,
      "byteOffset" : 43120,
      "byteLength" : 17988
    },
    {
      "buffer" : 0,
      "byteOffset" : 61108,
      "byteLength" : 23984
    },
    {
      "buffer" : 0,
      "byteOffset" : 85092,
      "byteLength" : 11992
    },
    {
      "buffer" : 0,
      "byteOffset" : 97084,
      "byteLength" : 11992
    }
  ],
  "accessors" : [
    {
      "bufferView" : 0,
      "componentType" : 5123,
      "count" : 834,
      "type" : "SCALAR"
    },
    {
      "bufferView" : 1,
      "min" : [ -0.5, -1.43724e-07, -3.8147e-08 ],
      "max" : [ 2.59399e-06, 4.3, 2 ],
      "componentType" : 5126,
      "count" : 284,
      "type" : "VEC3"
    },
    {
      "bufferView" : 2,
      "componentType" : 5126,
      "count" : 284,
      "type" : "VEC3"
    },
    {
      "bufferView" : 3,
      "componentType" : 5126,
      "count" : 284,
      "type" : "VEC4"
    },
    {
      "bufferView" : 4,
      "componentType" : 5126,
      "count" : 284,
      "type" : "VEC2"
    },
    {
      "bufferView" : 5,
      "componentType" : 5126,
      "count" : 284,
      "type" : "VEC2"
    },
    {
      "bufferView" : 6,
      "componentType" : 5123,
      "count" : 3780,
      "type" : "SCALAR"
    },
    {
      "bufferView" : 7,
      "min" : [ -0.5, -1.52842e-07, 0.131267 ],
      "max" : [ 4.92096e-06, 4.12716, 1.86873 ],
      "componentType" : 5126,
      "count" : 1499,
      "type" : "VEC3"
    },
    {
      "bufferView" : 8,
      "componentType" : 5126,
      "count" : 1499,
      "type" : "VEC3"
    },
    {
      "bufferView" : 9,
      "componentType" : 5126,
      "count" : 1499,
      "type" : "VEC4"
    },
    {
      "bufferView" : 10,
      "componentType" : 5126,
      "count" : 1499,
      "type" : "VEC2"
    },
    {
      "bufferView" : 11,
      "componentType" : 5126,
      "count" : 1499,
      "type" : "VEC2"
    }
  ]
}
