{
  "asset" : {
    "generator" : "UE Viewer (umodel) build 1579 based",
    "version" : "2.0"
  },
  "scene" : 0,
  "scenes" : [
    {
      "nodes" : [ 0 ]
    }
  ],
  "nodes" : [
    {
      "name" : "S_Envi_FZFBase_Wall_02e",
      "mesh" : 0
    }
  ],
  "materials" : [
    {
      "name" : "MI_Envi_FZFBase_Wall_01a",
      "pbrMetallicRoughness" : {
        "baseColorFactor" : [ 0.3, 0.3, 0.3, 1.0 ],
        "metallicFactor" : 0.1,
        "roughnessFactor" : 0.5
      }
    }
  ],
  "meshes" : [
    {
      "primitives" : [
        {
          "attributes" : {
            "POSITION" : 1,
            "NORMAL" : 2,
            "TANGENT" : 3,
            "TEXCOORD_0" : 4,
            "TEXCOORD_1" : 5
          },
          "indices" : 0,
          "material" : 0
        }
      ],
      "name" : "S_Envi_FZFBase_Wall_02e"
    }
  ],
  "buffers" : [
    {
      "uri" : "S_Envi_FZFBase_Wall_02e.bin",
      "byteLength" : 5720
    }
  ],
  "bufferViews" : [
    {
      "buffer" : 0,
      "byteOffset" : 0,
      "byteLength" : 456
    },
    {
      "buffer" : 0,
      "byteOffset" : 456,
      "byteLength" : 1128
    },
    {
      "buffer" : 0,
      "byteOffset" : 1584,
      "byteLength" : 1128
    },
    {
      "buffer" : 0,
      "byteOffset" : 2712,
      "byteLength" : 1504
    },
    {
      "buffer" : 0,
      "byteOffset" : 4216,
      "byteLength" : 752
    },
    {
      "buffer" : 0,
      "byteOffset" : 4968,
      "byteLength" : 752
    }
  ],
  "accessors" : [
    {
      "bufferView" : 0,
      "componentType" : 5123,
      "count" : 228,
      "type" : "SCALAR"
    },
    {
      "bufferView" : 1,
      "min" : [ 0, -8.14901e-07, -1.78814e-09 ],
      "max" : [ 0.700001, 8.49996, 5 ],
      "componentType" : 5126,
      "count" : 94,
      "type" : "VEC3"
    },
    {
      "bufferView" : 2,
      "componentType" : 5126,
      "count" : 94,
      "type" : "VEC3"
    },
    {
      "bufferView" : 3,
      "componentType" : 5126,
      "count" : 94,
      "type" : "VEC4"
    },
    {
      "bufferView" : 4,
      "componentType" : 5126,
      "count" : 94,
      "type" : "VEC2"
    },
    {
      "bufferView" : 5,
      "componentType" : 5126,
      "count" : 94,
      "type" : "VEC2"
    }
  ]
}
