{
  "asset" : {
    "generator" : "UE Viewer (umodel) build 1579 based",
    "version" : "2.0"
  },
  "scene" : 0,
  "scenes" : [
    {
      "nodes" : [ 0 ]
    }
  ],
  "nodes" : [
    {
      "name" : "S_Envi_FZFBase_Wall_02i",
      "mesh" : 0
    }
  ],
  "materials" : [
    {
      "name" : "MI_Envi_FZFBase_Wall_01c",
      "pbrMetallicRoughness" : {
        "baseColorFactor" : [ 0.3, 0.3, 0.3, 1.0 ],
        "metallicFactor" : 0.1,
        "roughnessFactor" : 0.5
      }
    },
    {
      "name" : "MI_Envi_Olgk_Screen_01d1",
      "pbrMetallicRoughness" : {
        "baseColorFactor" : [ 0.9, 0.3, 0.3, 1.0 ],
        "metallicFactor" : 0.1,
        "roughnessFactor" : 0.5
      }
    }
  ],
  "meshes" : [
    {
      "primitives" : [
        {
          "attributes" : {
            "POSITION" : 1,
            "NORMAL" : 2,
            "TANGENT" : 3,
            "TEXCOORD_0" : 4,
            "TEXCOORD_1" : 5,
            "TEXCOORD_2" : 6,
            "TEXCOORD_3" : 7
          },
          "indices" : 0,
          "material" : 0
        },
        {
          "attributes" : {
            "POSITION" : 9,
            "NORMAL" : 10,
            "TANGENT" : 11,
            "TEXCOORD_0" : 12,
            "TEXCOORD_1" : 13,
            "TEXCOORD_2" : 14,
            "TEXCOORD_3" : 15
          },
          "indices" : 8,
          "material" : 1
        }
      ],
      "name" : "S_Envi_FZFBase_Wall_02i"
    }
  ],
  "buffers" : [
    {
      "uri" : "S_Envi_FZFBase_Wall_02i.bin",
      "byteLength" : 49944
    }
  ],
  "bufferViews" : [
    {
      "buffer" : 0,
      "byteOffset" : 0,
      "byteLength" : 3336
    },
    {
      "buffer" : 0,
      "byteOffset" : 3336,
      "byteLength" : 7224
    },
    {
      "buffer" : 0,
      "byteOffset" : 10560,
      "byteLength" : 7224
    },
    {
      "buffer" : 0,
      "byteOffset" : 17784,
      "byteLength" : 9632
    },
    {
      "buffer" : 0,
      "byteOffset" : 27416,
      "byteLength" : 4816
    },
    {
      "buffer" : 0,
      "byteOffset" : 32232,
      "byteLength" : 4816
    },
    {
      "buffer" : 0,
      "byteOffset" : 37048,
      "byteLength" : 4816
    },
    {
      "buffer" : 0,
      "byteOffset" : 41864,
      "byteLength" : 4816
    },
    {
      "buffer" : 0,
      "byteOffset" : 46680,
      "byteLength" : 240
    },
    {
      "buffer" : 0,
      "byteOffset" : 46920,
      "byteLength" : 504
    },
    {
      "buffer" : 0,
      "byteOffset" : 47424,
      "byteLength" : 504
    },
    {
      "buffer" : 0,
      "byteOffset" : 47928,
      "byteLength" : 672
    },
    {
      "buffer" : 0,
      "byteOffset" : 48600,
      "byteLength" : 336
    },
    {
      "buffer" : 0,
      "byteOffset" : 48936,
      "byteLength" : 336
    },
    {
      "buffer" : 0,
      "byteOffset" : 49272,
      "byteLength" : 336
    },
    {
      "buffer" : 0,
      "byteOffset" : 49608,
      "byteLength" : 336
    }
  ],
  "accessors" : [
    {
      "bufferView" : 0,
      "componentType" : 5123,
      "count" : 1668,
      "type" : "SCALAR"
    },
    {
      "bufferView" : 1,
      "min" : [ -0.450002, -2.38418e-07, -5.6 ],
      "max" : [ 1.77002e-05, 8.3, 7.4189e-07 ],
      "componentType" : 5126,
      "count" : 602,
      "type" : "VEC3"
    },
    {
      "bufferView" : 2,
      "componentType" : 5126,
      "count" : 602,
      "type" : "VEC3"
    },
    {
      "bufferView" : 3,
      "componentType" : 5126,
      "count" : 602,
      "type" : "VEC4"
    },
    {
      "bufferView" : 4,
      "componentType" : 5126,
      "count" : 602,
      "type" : "VEC2"
    },
    {
      "bufferView" : 5,
      "componentType" : 5126,
      "count" : 602,
      "type" : "VEC2"
    },
    {
      "bufferView" : 6,
      "componentType" : 5126,
      "count" : 602,
      "type" : "VEC2"
    },
    {
      "bufferView" : 7,
      "componentType" : 5126,
      "count" : 602,
      "type" : "VEC2"
    },
    {
      "bufferView" : 8,
      "componentType" : 5123,
      "count" : 120,
      "type" : "SCALAR"
    },
    {
      "bufferView" : 9,
      "min" : [ -0.0728698, 2.65329, -5.01138 ],
      "max" : [ -0.0728698, 7.81479, -0.58861 ],
      "componentType" : 5126,
      "count" : 42,
      "type" : "VEC3"
    },
    {
      "bufferView" : 10,
      "componentType" : 5126,
      "count" : 42,
      "type" : "VEC3"
    },
    {
      "bufferView" : 11,
      "componentType" : 5126,
      "count" : 42,
      "type" : "VEC4"
    },
    {
      "bufferView" : 12,
      "componentType" : 5126,
      "count" : 42,
      "type" : "VEC2"
    },
    {
      "bufferView" : 13,
      "componentType" : 5126,
      "count" : 42,
      "type" : "VEC2"
    },
    {
      "bufferView" : 14,
      "componentType" : 5126,
      "count" : 42,
      "type" : "VEC2"
    },
    {
      "bufferView" : 15,
      "componentType" : 5126,
      "count" : 42,
      "type" : "VEC2"
    }
  ]
}
