{
  "asset" : {
    "generator" : "UE Viewer (umodel) build 1579 based",
    "version" : "2.0"
  },
  "scene" : 0,
  "scenes" : [
    {
      "nodes" : [ 0 ]
    }
  ],
  "nodes" : [
    {
      "name" : "S_Envi_FZFBase_Plinth_02e",
      "mesh" : 0
    }
  ],
  "materials" : [
    {
      "name" : "MI_Envi_FZFBase_Wall_01c",
      "pbrMetallicRoughness" : {
        "baseColorFactor" : [ 0.3, 0.3, 0.3, 1.0 ],
        "metallicFactor" : 0.1,
        "roughnessFactor" : 0.5
      }
    }
  ],
  "meshes" : [
    {
      "primitives" : [
        {
          "attributes" : {
            "POSITION" : 1,
            "NORMAL" : 2,
            "TANGENT" : 3,
            "TEXCOORD_0" : 4,
            "TEXCOORD_1" : 5,
            "TEXCOORD_2" : 6,
            "TEXCOORD_3" : 7
          },
          "indices" : 0,
          "material" : 0
        }
      ],
      "name" : "S_Envi_FZFBase_Plinth_02e"
    }
  ],
  "buffers" : [
    {
      "uri" : "S_Envi_FZFBase_Plinth_02e.bin",
      "byteLength" : 20208
    }
  ],
  "bufferViews" : [
    {
      "buffer" : 0,
      "byteOffset" : 0,
      "byteLength" : 1200
    },
    {
      "buffer" : 0,
      "byteOffset" : 1200,
      "byteLength" : 3168
    },
    {
      "buffer" : 0,
      "byteOffset" : 4368,
      "byteLength" : 3168
    },
    {
      "buffer" : 0,
      "byteOffset" : 7536,
      "byteLength" : 4224
    },
    {
      "buffer" : 0,
      "byteOffset" : 11760,
      "byteLength" : 2112
    },
    {
      "buffer" : 0,
      "byteOffset" : 13872,
      "byteLength" : 2112
    },
    {
      "buffer" : 0,
      "byteOffset" : 15984,
      "byteLength" : 2112
    },
    {
      "buffer" : 0,
      "byteOffset" : 18096,
      "byteLength" : 2112
    }
  ],
  "accessors" : [
    {
      "bufferView" : 0,
      "componentType" : 5123,
      "count" : 600,
      "type" : "SCALAR"
    },
    {
      "bufferView" : 1,
      "min" : [ -5.58794e-11, 4.78026e-07, -7.90002 ],
      "max" : [ 0.450015, 0.408679, 1.23365e-09 ],
      "componentType" : 5126,
      "count" : 264,
      "type" : "VEC3"
    },
    {
      "bufferView" : 2,
      "componentType" : 5126,
      "count" : 264,
      "type" : "VEC3"
    },
    {
      "bufferView" : 3,
      "componentType" : 5126,
      "count" : 264,
      "type" : "VEC4"
    },
    {
      "bufferView" : 4,
      "componentType" : 5126,
      "count" : 264,
      "type" : "VEC2"
    },
    {
      "bufferView" : 5,
      "componentType" : 5126,
      "count" : 264,
      "type" : "VEC2"
    },
    {
      "bufferView" : 6,
      "componentType" : 5126,
      "count" : 264,
      "type" : "VEC2"
    },
    {
      "bufferView" : 7,
      "componentType" : 5126,
      "count" : 264,
      "type" : "VEC2"
    }
  ]
}
