{
  "asset" : {
    "generator" : "UE Viewer (umodel) build 1579 based",
    "version" : "2.0"
  },
  "scene" : 0,
  "scenes" : [
    {
      "nodes" : [ 0 ]
    }
  ],
  "nodes" : [
    {
      "name" : "S_Envi_FZFBase_Object_01b",
      "mesh" : 0
    }
  ],
  "materials" : [
    {
      "name" : "MI_Envi_FZFBase_Wall_01c_4",
      "pbrMetallicRoughness" : {
        "baseColorFactor" : [ 0.3, 0.3, 0.3, 1.0 ],
        "metallicFactor" : 0.1,
        "roughnessFactor" : 0.5
      }
    }
  ],
  "meshes" : [
    {
      "primitives" : [
        {
          "attributes" : {
            "POSITION" : 1,
            "NORMAL" : 2,
            "TANGENT" : 3,
            "TEXCOORD_0" : 4,
            "TEXCOORD_1" : 5,
            "TEXCOORD_2" : 6,
            "TEXCOORD_3" : 7
          },
          "indices" : 0,
          "material" : 0
        }
      ],
      "name" : "S_Envi_FZFBase_Object_01b"
    }
  ],
  "buffers" : [
    {
      "uri" : "S_Envi_FZFBase_Object_01b.bin",
      "byteLength" : 5544
    }
  ],
  "bufferViews" : [
    {
      "buffer" : 0,
      "byteOffset" : 0,
      "byteLength" : 360
    },
    {
      "buffer" : 0,
      "byteOffset" : 360,
      "byteLength" : 864
    },
    {
      "buffer" : 0,
      "byteOffset" : 1224,
      "byteLength" : 864
    },
    {
      "buffer" : 0,
      "byteOffset" : 2088,
      "byteLength" : 1152
    },
    {
      "buffer" : 0,
      "byteOffset" : 3240,
      "byteLength" : 576
    },
    {
      "buffer" : 0,
      "byteOffset" : 3816,
      "byteLength" : 576
    },
    {
      "buffer" : 0,
      "byteOffset" : 4392,
      "byteLength" : 576
    },
    {
      "buffer" : 0,
      "byteOffset" : 4968,
      "byteLength" : 576
    }
  ],
  "accessors" : [
    {
      "bufferView" : 0,
      "componentType" : 5123,
      "count" : 180,
      "type" : "SCALAR"
    },
    {
      "bufferView" : 1,
      "min" : [ -0.766337, -3.05176e-07, -1.67737e-07 ],
      "max" : [ 0.766337, 0.578821, 0.0573962 ],
      "componentType" : 5126,
      "count" : 72,
      "type" : "VEC3"
    },
    {
      "bufferView" : 2,
      "componentType" : 5126,
      "count" : 72,
      "type" : "VEC3"
    },
    {
      "bufferView" : 3,
      "componentType" : 5126,
      "count" : 72,
      "type" : "VEC4"
    },
    {
      "bufferView" : 4,
      "componentType" : 5126,
      "count" : 72,
      "type" : "VEC2"
    },
    {
      "bufferView" : 5,
      "componentType" : 5126,
      "count" : 72,
      "type" : "VEC2"
    },
    {
      "bufferView" : 6,
      "componentType" : 5126,
      "count" : 72,
      "type" : "VEC2"
    },
    {
      "bufferView" : 7,
      "componentType" : 5126,
      "count" : 72,
      "type" : "VEC2"
    }
  ]
}
