{
  "asset" : {
    "generator" : "UE Viewer (umodel) build 1579 based",
    "version" : "2.0"
  },
  "scene" : 0,
  "scenes" : [
    {
      "nodes" : [ 0 ]
    }
  ],
  "nodes" : [
    {
      "name" : "Envi_Umeda_Building_012d",
      "mesh" : 0
    }
  ],
  "materials" : [
    {
      "name" : "MI_Envi_Umeda_Base_Ground_7",
      "pbrMetallicRoughness" : {
        "baseColorFactor" : [ 0.3, 0.3, 0.3, 1.0 ],
        "metallicFactor" : 0.1,
        "roughnessFactor" : 0.5
      }
    },
    {
      "name" : "MI_Envi_Umeda_Base_Ground_03",
      "pbrMetallicRoughness" : {
        "baseColorFactor" : [ 0.9, 0.3, 0.3, 1.0 ],
        "metallicFactor" : 0.1,
        "roughnessFactor" : 0.5
      }
    }
  ],
  "meshes" : [
    {
      "primitives" : [
        {
          "attributes" : {
            "POSITION" : 1,
            "NORMAL" : 2,
            "TANGENT" : 3,
            "TEXCOORD_0" : 4,
            "TEXCOORD_1" : 5,
            "TEXCOORD_2" : 6,
            "TEXCOORD_3" : 7,
            "TEXCOORD_4" : 8,
            "TEXCOORD_5" : 9,
            "TEXCOORD_6" : 10
          },
          "indices" : 0,
          "material" : 0
        },
        {
          "attributes" : {
            "POSITION" : 12,
            "NORMAL" : 13,
            "TANGENT" : 14,
            "TEXCOORD_0" : 15,
            "TEXCOORD_1" : 16,
            "TEXCOORD_2" : 17,
            "TEXCOORD_3" : 18,
            "TEXCOORD_4" : 19,
            "TEXCOORD_5" : 20,
            "TEXCOORD_6" : 21
          },
          "indices" : 11,
          "material" : 1
        }
      ],
      "name" : "Envi_Umeda_Building_012d"
    }
  ],
  "buffers" : [
    {
      "uri" : "Envi_Umeda_Building_012d.bin",
      "byteLength" : 2604
    }
  ],
  "bufferViews" : [
    {
      "buffer" : 0,
      "byteOffset" : 0,
      "byteLength" : 96
    },
    {
      "buffer" : 0,
      "byteOffset" : 96,
      "byteLength" : 264
    },
    {
      "buffer" : 0,
      "byteOffset" : 360,
      "byteLength" : 264
    },
    {
      "buffer" : 0,
      "byteOffset" : 624,
      "byteLength" : 352
    },
    {
      "buffer" : 0,
      "byteOffset" : 976,
      "byteLength" : 176
    },
    {
      "buffer" : 0,
      "byteOffset" : 1152,
      "byteLength" : 176
    },
    {
      "buffer" : 0,
      "byteOffset" : 1328,
      "byteLength" : 176
    },
    {
      "buffer" : 0,
      "byteOffset" : 1504,
      "byteLength" : 176
    },
    {
      "buffer" : 0,
      "byteOffset" : 1680,
      "byteLength" : 176
    },
    {
      "buffer" : 0,
      "byteOffset" : 1856,
      "byteLength" : 176
    },
    {
      "buffer" : 0,
      "byteOffset" : 2032,
      "byteLength" : 176
    },
    {
      "buffer" : 0,
      "byteOffset" : 2208,
      "byteLength" : 12
    },
    {
      "buffer" : 0,
      "byteOffset" : 2220,
      "byteLength" : 48
    },
    {
      "buffer" : 0,
      "byteOffset" : 2268,
      "byteLength" : 48
    },
    {
      "buffer" : 0,
      "byteOffset" : 2316,
      "byteLength" : 64
    },
    {
      "buffer" : 0,
      "byteOffset" : 2380,
      "byteLength" : 32
    },
    {
      "buffer" : 0,
      "byteOffset" : 2412,
      "byteLength" : 32
    },
    {
      "buffer" : 0,
      "byteOffset" : 2444,
      "byteLength" : 32
    },
    {
      "buffer" : 0,
      "byteOffset" : 2476,
      "byteLength" : 32
    },
    {
      "buffer" : 0,
      "byteOffset" : 2508,
      "byteLength" : 32
    },
    {
      "buffer" : 0,
      "byteOffset" : 2540,
      "byteLength" : 32
    },
    {
      "buffer" : 0,
      "byteOffset" : 2572,
      "byteLength" : 32
    }
  ],
  "accessors" : [
    {
      "bufferView" : 0,
      "componentType" : 5123,
      "count" : 48,
      "type" : "SCALAR"
    },
    {
      "bufferView" : 1,
      "min" : [ -0.0636761, 0.205836, -17.1315 ],
      "max" : [ 8.09112, 0.205836, -0.502834 ],
      "componentType" : 5126,
      "count" : 22,
      "type" : "VEC3"
    },
    {
      "bufferView" : 2,
      "componentType" : 5126,
      "count" : 22,
      "type" : "VEC3"
    },
    {
      "bufferView" : 3,
      "componentType" : 5126,
      "count" : 22,
      "type" : "VEC4"
    },
    {
      "bufferView" : 4,
      "componentType" : 5126,
      "count" : 22,
      "type" : "VEC2"
    },
    {
      "bufferView" : 5,
      "componentType" : 5126,
      "count" : 22,
      "type" : "VEC2"
    },
    {
      "bufferView" : 6,
      "componentType" : 5126,
      "count" : 22,
      "type" : "VEC2"
    },
    {
      "bufferView" : 7,
      "componentType" : 5126,
      "count" : 22,
      "type" : "VEC2"
    },
    {
      "bufferView" : 8,
      "componentType" : 5126,
      "count" : 22,
      "type" : "VEC2"
    },
    {
      "bufferView" : 9,
      "componentType" : 5126,
      "count" : 22,
      "type" : "VEC2"
    },
    {
      "bufferView" : 10,
      "componentType" : 5126,
      "count" : 22,
      "type" : "VEC2"
    },
    {
      "bufferView" : 11,
      "componentType" : 5123,
      "count" : 6,
      "type" : "SCALAR"
    },
    {
      "bufferView" : 12,
      "min" : [ 1.65385, 0.205836, -15.4637 ],
      "max" : [ 6.64534, 0.205836, -1.98478 ],
      "componentType" : 5126,
      "count" : 4,
      "type" : "VEC3"
    },
    {
      "bufferView" : 13,
      "componentType" : 5126,
      "count" : 4,
      "type" : "VEC3"
    },
    {
      "bufferView" : 14,
      "componentType" : 5126,
      "count" : 4,
      "type" : "VEC4"
    },
    {
      "bufferView" : 15,
      "componentType" : 5126,
      "count" : 4,
      "type" : "VEC2"
    },
    {
      "bufferView" : 16,
      "componentType" : 5126,
      "count" : 4,
      "type" : "VEC2"
    },
    {
      "bufferView" : 17,
      "componentType" : 5126,
      "count" : 4,
      "type" : "VEC2"
    },
    {
      "bufferView" : 18,
      "componentType" : 5126,
      "count" : 4,
      "type" : "VEC2"
    },
    {
      "bufferView" : 19,
      "componentType" : 5126,
      "count" : 4,
      "type" : "VEC2"
    },
    {
      "bufferView" : 20,
      "componentType" : 5126,
      "count" : 4,
      "type" : "VEC2"
    },
    {
      "bufferView" : 21,
      "componentType" : 5126,
      "count" : 4,
      "type" : "VEC2"
    }
  ]
}
