{
  "asset" : {
    "generator" : "UE Viewer (umodel) build 1579 based",
    "version" : "2.0"
  },
  "scene" : 0,
  "scenes" : [
    {
      "nodes" : [ 0 ]
    }
  ],
  "nodes" : [
    {
      "name" : "S_Envi_Umeda_Building_009",
      "mesh" : 0
    }
  ],
  "materials" : [
    {
      "name" : "MI_Envi_Umeda_Base_Ladder_02",
      "pbrMetallicRoughness" : {
        "baseColorFactor" : [ 0.3, 0.3, 0.3, 1.0 ],
        "metallicFactor" : 0.1,
        "roughnessFactor" : 0.5
      }
    }
  ],
  "meshes" : [
    {
      "primitives" : [
        {
          "attributes" : {
            "POSITION" : 1,
            "NORMAL" : 2,
            "TANGENT" : 3,
            "TEXCOORD_0" : 4,
            "TEXCOORD_1" : 5
          },
          "indices" : 0,
          "material" : 0
        }
      ],
      "name" : "S_Envi_Umeda_Building_009"
    }
  ],
  "buffers" : [
    {
      "uri" : "S_Envi_Umeda_Building_009.bin",
      "byteLength" : 165744
    }
  ],
  "bufferViews" : [
    {
      "buffer" : 0,
      "byteOffset" : 0,
      "byteLength" : 12024
    },
    {
      "buffer" : 0,
      "byteOffset" : 12024,
      "byteLength" : 32940
    },
    {
      "buffer" : 0,
      "byteOffset" : 44964,
      "byteLength" : 32940
    },
    {
      "buffer" : 0,
      "byteOffset" : 77904,
      "byteLength" : 43920
    },
    {
      "buffer" : 0,
      "byteOffset" : 121824,
      "byteLength" : 21960
    },
    {
      "buffer" : 0,
      "byteOffset" : 143784,
      "byteLength" : 21960
    }
  ],
  "accessors" : [
    {
      "bufferView" : 0,
      "componentType" : 5123,
      "count" : 6012,
      "type" : "SCALAR"
    },
    {
      "bufferView" : 1,
      "min" : [ -0.913302, -0.300129, -9.00189 ],
      "max" : [ 6.33315, 5.23776, 0.150449 ],
      "componentType" : 5126,
      "count" : 2745,
      "type" : "VEC3"
    },
    {
      "bufferView" : 2,
      "componentType" : 5126,
      "count" : 2745,
      "type" : "VEC3"
    },
    {
      "bufferView" : 3,
      "componentType" : 5126,
      "count" : 2745,
      "type" : "VEC4"
    },
    {
      "bufferView" : 4,
      "componentType" : 5126,
      "count" : 2745,
      "type" : "VEC2"
    },
    {
      "bufferView" : 5,
      "componentType" : 5126,
      "count" : 2745,
      "type" : "VEC2"
    }
  ]
}
