{
  "asset" : {
    "generator" : "UE Viewer (umodel) build 1579 based",
    "version" : "2.0"
  },
  "scene" : 0,
  "scenes" : [
    {
      "nodes" : [ 0 ]
    }
  ],
  "nodes" : [
    {
      "name" : "S_Envi_Umeda_Building_007n",
      "mesh" : 0
    }
  ],
  "materials" : [
    {
      "name" : "MI_Envi_commontrim_05",
      "pbrMetallicRoughness" : {
        "baseColorFactor" : [ 0.3, 0.3, 0.3, 1.0 ],
        "metallicFactor" : 0.1,
        "roughnessFactor" : 0.5
      }
    }
  ],
  "meshes" : [
    {
      "primitives" : [
        {
          "attributes" : {
            "POSITION" : 1,
            "NORMAL" : 2,
            "TANGENT" : 3,
            "TEXCOORD_0" : 4,
            "TEXCOORD_1" : 5
          },
          "indices" : 0,
          "material" : 0
        }
      ],
      "name" : "S_Envi_Umeda_Building_007n"
    }
  ],
  "buffers" : [
    {
      "uri" : "S_Envi_Umeda_Building_007n.bin",
      "byteLength" : 12744
    }
  ],
  "bufferViews" : [
    {
      "buffer" : 0,
      "byteOffset" : 0,
      "byteLength" : 648
    },
    {
      "buffer" : 0,
      "byteOffset" : 648,
      "byteLength" : 2592
    },
    {
      "buffer" : 0,
      "byteOffset" : 3240,
      "byteLength" : 2592
    },
    {
      "buffer" : 0,
      "byteOffset" : 5832,
      "byteLength" : 3456
    },
    {
      "buffer" : 0,
      "byteOffset" : 9288,
      "byteLength" : 1728
    },
    {
      "buffer" : 0,
      "byteOffset" : 11016,
      "byteLength" : 1728
    }
  ],
  "accessors" : [
    {
      "bufferView" : 0,
      "componentType" : 5123,
      "count" : 324,
      "type" : "SCALAR"
    },
    {
      "bufferView" : 1,
      "min" : [ 30.5616, -13.6674, -55.2674 ],
      "max" : [ 54.3065, 7.39018, -33.9231 ],
      "componentType" : 5126,
      "count" : 216,
      "type" : "VEC3"
    },
    {
      "bufferView" : 2,
      "componentType" : 5126,
      "count" : 216,
      "type" : "VEC3"
    },
    {
      "bufferView" : 3,
      "componentType" : 5126,
      "count" : 216,
      "type" : "VEC4"
    },
    {
      "bufferView" : 4,
      "componentType" : 5126,
      "count" : 216,
      "type" : "VEC2"
    },
    {
      "bufferView" : 5,
      "componentType" : 5126,
      "count" : 216,
      "type" : "VEC2"
    }
  ]
}
