{
  "asset" : {
    "generator" : "UE Viewer (umodel) build 1579 based",
    "version" : "2.0"
  },
  "scene" : 0,
  "scenes" : [
    {
      "nodes" : [ 0 ]
    }
  ],
  "nodes" : [
    {
      "name" : "S_Envi_Umeda_Building_013A",
      "mesh" : 0
    }
  ],
  "materials" : [
    {
      "name" : "MI_Envi_Umeda_Aspot_structuralsteel_04",
      "pbrMetallicRoughness" : {
        "baseColorFactor" : [ 0.3, 0.3, 0.3, 1.0 ],
        "metallicFactor" : 0.1,
        "roughnessFactor" : 0.5
      }
    },
    {
      "name" : "MI_Envi_commontrim_07",
      "pbrMetallicRoughness" : {
        "baseColorFactor" : [ 0.9, 0.3, 0.3, 1.0 ],
        "metallicFactor" : 0.1,
        "roughnessFactor" : 0.5
      }
    },
    {
      "name" : "MI_Envi_commontrim_09",
      "pbrMetallicRoughness" : {
        "baseColorFactor" : [ 0.3, 0.9, 0.3, 1.0 ],
        "metallicFactor" : 0.1,
        "roughnessFactor" : 0.5
      }
    }
  ],
  "meshes" : [
    {
      "primitives" : [
        {
          "attributes" : {
            "POSITION" : 1,
            "NORMAL" : 2,
            "TANGENT" : 3,
            "TEXCOORD_0" : 4,
            "TEXCOORD_1" : 5
          },
          "indices" : 0,
          "material" : 0
        },
        {
          "attributes" : {
            "POSITION" : 7,
            "NORMAL" : 8,
            "TANGENT" : 9,
            "TEXCOORD_0" : 10,
            "TEXCOORD_1" : 11
          },
          "indices" : 6,
          "material" : 1
        },
        {
          "attributes" : {
            "POSITION" : 13,
            "NORMAL" : 14,
            "TANGENT" : 15,
            "TEXCOORD_0" : 16,
            "TEXCOORD_1" : 17
          },
          "indices" : 12,
          "material" : 2
        }
      ],
      "name" : "S_Envi_Umeda_Building_013A"
    }
  ],
  "buffers" : [
    {
      "uri" : "S_Envi_Umeda_Building_013A.bin",
      "byteLength" : 327304
    }
  ],
  "bufferViews" : [
    {
      "buffer" : 0,
      "byteOffset" : 0,
      "byteLength" : 21272
    },
    {
      "buffer" : 0,
      "byteOffset" : 21272,
      "byteLength" : 62088
    },
    {
      "buffer" : 0,
      "byteOffset" : 83360,
      "byteLength" : 62088
    },
    {
      "buffer" : 0,
      "byteOffset" : 145448,
      "byteLength" : 82784
    },
    {
      "buffer" : 0,
      "byteOffset" : 228232,
      "byteLength" : 41392
    },
    {
      "buffer" : 0,
      "byteOffset" : 269624,
      "byteLength" : 41392
    },
    {
      "buffer" : 0,
      "byteOffset" : 311016,
      "byteLength" : 396
    },
    {
      "buffer" : 0,
      "byteOffset" : 311412,
      "byteLength" : 1128
    },
    {
      "buffer" : 0,
      "byteOffset" : 312540,
      "byteLength" : 1128
    },
    {
      "buffer" : 0,
      "byteOffset" : 313668,
      "byteLength" : 1504
    },
    {
      "buffer" : 0,
      "byteOffset" : 315172,
      "byteLength" : 752
    },
    {
      "buffer" : 0,
      "byteOffset" : 315924,
      "byteLength" : 752
    },
    {
      "buffer" : 0,
      "byteOffset" : 316676,
      "byteLength" : 660
    },
    {
      "buffer" : 0,
      "byteOffset" : 317336,
      "byteLength" : 2136
    },
    {
      "buffer" : 0,
      "byteOffset" : 319472,
      "byteLength" : 2136
    },
    {
      "buffer" : 0,
      "byteOffset" : 321608,
      "byteLength" : 2848
    },
    {
      "buffer" : 0,
      "byteOffset" : 324456,
      "byteLength" : 1424
    },
    {
      "buffer" : 0,
      "byteOffset" : 325880,
      "byteLength" : 1424
    }
  ],
  "accessors" : [
    {
      "bufferView" : 0,
      "componentType" : 5123,
      "count" : 10635,
      "type" : "SCALAR"
    },
    {
      "bufferView" : 1,
      "min" : [ -13.4395, -7.67626, -14.8693 ],
      "max" : [ 13.2909, 12.0016, 14.5271 ],
      "componentType" : 5126,
      "count" : 5174,
      "type" : "VEC3"
    },
    {
      "bufferView" : 2,
      "componentType" : 5126,
      "count" : 5174,
      "type" : "VEC3"
    },
    {
      "bufferView" : 3,
      "componentType" : 5126,
      "count" : 5174,
      "type" : "VEC4"
    },
    {
      "bufferView" : 4,
      "componentType" : 5126,
      "count" : 5174,
      "type" : "VEC2"
    },
    {
      "bufferView" : 5,
      "componentType" : 5126,
      "count" : 5174,
      "type" : "VEC2"
    },
    {
      "bufferView" : 6,
      "componentType" : 5123,
      "count" : 198,
      "type" : "SCALAR"
    },
    {
      "bufferView" : 7,
      "min" : [ -12.1927, 7.63409, -14.2453 ],
      "max" : [ 11.0824, 11.8787, 13.8768 ],
      "componentType" : 5126,
      "count" : 94,
      "type" : "VEC3"
    },
    {
      "bufferView" : 8,
      "componentType" : 5126,
      "count" : 94,
      "type" : "VEC3"
    },
    {
      "bufferView" : 9,
      "componentType" : 5126,
      "count" : 94,
      "type" : "VEC4"
    },
    {
      "bufferView" : 10,
      "componentType" : 5126,
      "count" : 94,
      "type" : "VEC2"
    },
    {
      "bufferView" : 11,
      "componentType" : 5126,
      "count" : 94,
      "type" : "VEC2"
    },
    {
      "bufferView" : 12,
      "componentType" : 5123,
      "count" : 330,
      "type" : "SCALAR"
    },
    {
      "bufferView" : 13,
      "min" : [ -13.4141, -7.51779, -14.8248 ],
      "max" : [ 13.2338, 11.8693, 14.4957 ],
      "componentType" : 5126,
      "count" : 178,
      "type" : "VEC3"
    },
    {
      "bufferView" : 14,
      "componentType" : 5126,
      "count" : 178,
      "type" : "VEC3"
    },
    {
      "bufferView" : 15,
      "componentType" : 5126,
      "count" : 178,
      "type" : "VEC4"
    },
    {
      "bufferView" : 16,
      "componentType" : 5126,
      "count" : 178,
      "type" : "VEC2"
    },
    {
      "bufferView" : 17,
      "componentType" : 5126,
      "count" : 178,
      "type" : "VEC2"
    }
  ]
}
