{
  "asset" : {
    "generator" : "UE Viewer (umodel) build 1579 based",
    "version" : "2.0"
  },
  "scene" : 0,
  "scenes" : [
    {
      "nodes" : [ 0 ]
    }
  ],
  "nodes" : [
    {
      "name" : "S_Envi_Umeda_IndoorA1_a",
      "mesh" : 0
    }
  ],
  "materials" : [
    {
      "name" : "MI_Wall_Metallic_05",
      "pbrMetallicRoughness" : {
        "baseColorFactor" : [ 0.3, 0.3, 0.3, 1.0 ],
        "metallicFactor" : 0.1,
        "roughnessFactor" : 0.5
      }
    },
    {
      "name" : "MI_Envi_Jdhcz_L1_16c_07",
      "pbrMetallicRoughness" : {
        "baseColorFactor" : [ 0.9, 0.3, 0.3, 1.0 ],
        "metallicFactor" : 0.1,
        "roughnessFactor" : 0.5
      }
    },
    {
      "name" : "MI_PM_Glass_02h",
      "pbrMetallicRoughness" : {
        "baseColorFactor" : [ 0.3, 0.9, 0.3, 1.0 ],
        "metallicFactor" : 0.1,
        "roughnessFactor" : 0.5
      }
    },
    {
      "name" : "MI_Envi_Umeda_Base_Building_02_A_02",
      "pbrMetallicRoughness" : {
        "baseColorFactor" : [ 0.3, 0.3, 0.9, 1.0 ],
        "metallicFactor" : 0.1,
        "roughnessFactor" : 0.5
      }
    }
  ],
  "meshes" : [
    {
      "primitives" : [
        {
          "attributes" : {
            "POSITION" : 1,
            "NORMAL" : 2,
            "TANGENT" : 3,
            "TEXCOORD_0" : 4,
            "TEXCOORD_1" : 5
          },
          "indices" : 0,
          "material" : 0
        },
        {
          "attributes" : {
            "POSITION" : 7,
            "NORMAL" : 8,
            "TANGENT" : 9,
            "TEXCOORD_0" : 10,
            "TEXCOORD_1" : 11
          },
          "indices" : 6,
          "material" : 1
        },
        {
          "attributes" : {
            "POSITION" : 13,
            "NORMAL" : 14,
            "TANGENT" : 15,
            "TEXCOORD_0" : 16,
            "TEXCOORD_1" : 17
          },
          "indices" : 12,
          "material" : 2
        },
        {
          "attributes" : {
            "POSITION" : 19,
            "NORMAL" : 20,
            "TANGENT" : 21,
            "TEXCOORD_0" : 22,
            "TEXCOORD_1" : 23
          },
          "indices" : 18,
          "material" : 3
        }
      ],
      "name" : "S_Envi_Umeda_IndoorA1_a"
    }
  ],
  "buffers" : [
    {
      "uri" : "S_Envi_Umeda_IndoorA1_a.bin",
      "byteLength" : 43432
    }
  ],
  "bufferViews" : [
    {
      "buffer" : 0,
      "byteOffset" : 0,
      "byteLength" : 264
    },
    {
      "buffer" : 0,
      "byteOffset" : 264,
      "byteLength" : 1008
    },
    {
      "buffer" : 0,
      "byteOffset" : 1272,
      "byteLength" : 1008
    },
    {
      "buffer" : 0,
      "byteOffset" : 2280,
      "byteLength" : 1344
    },
    {
      "buffer" : 0,
      "byteOffset" : 3624,
      "byteLength" : 672
    },
    {
      "buffer" : 0,
      "byteOffset" : 4296,
      "byteLength" : 672
    },
    {
      "buffer" : 0,
      "byteOffset" : 4968,
      "byteLength" : 1944
    },
    {
      "buffer" : 0,
      "byteOffset" : 6912,
      "byteLength" : 6120
    },
    {
      "buffer" : 0,
      "byteOffset" : 13032,
      "byteLength" : 6120
    },
    {
      "buffer" : 0,
      "byteOffset" : 19152,
      "byteLength" : 8160
    },
    {
      "buffer" : 0,
      "byteOffset" : 27312,
      "byteLength" : 4080
    },
    {
      "buffer" : 0,
      "byteOffset" : 31392,
      "byteLength" : 4080
    },
    {
      "buffer" : 0,
      "byteOffset" : 35472,
      "byteLength" : 300
    },
    {
      "buffer" : 0,
      "byteOffset" : 35772,
      "byteLength" : 1200
    },
    {
      "buffer" : 0,
      "byteOffset" : 36972,
      "byteLength" : 1200
    },
    {
      "buffer" : 0,
      "byteOffset" : 38172,
      "byteLength" : 1600
    },
    {
      "buffer" : 0,
      "byteOffset" : 39772,
      "byteLength" : 800
    },
    {
      "buffer" : 0,
      "byteOffset" : 40572,
      "byteLength" : 800
    },
    {
      "buffer" : 0,
      "byteOffset" : 41372,
      "byteLength" : 156
    },
    {
      "buffer" : 0,
      "byteOffset" : 41528,
      "byteLength" : 408
    },
    {
      "buffer" : 0,
      "byteOffset" : 41936,
      "byteLength" : 408
    },
    {
      "buffer" : 0,
      "byteOffset" : 42344,
      "byteLength" : 544
    },
    {
      "buffer" : 0,
      "byteOffset" : 42888,
      "byteLength" : 272
    },
    {
      "buffer" : 0,
      "byteOffset" : 43160,
      "byteLength" : 272
    }
  ],
  "accessors" : [
    {
      "bufferView" : 0,
      "componentType" : 5123,
      "count" : 132,
      "type" : "SCALAR"
    },
    {
      "bufferView" : 1,
      "min" : [ -5.18447, -3.11687, -3.15703 ],
      "max" : [ 5.22589, 3.13384, 3.05849 ],
      "componentType" : 5126,
      "count" : 84,
      "type" : "VEC3"
    },
    {
      "bufferView" : 2,
      "componentType" : 5126,
      "count" : 84,
      "type" : "VEC3"
    },
    {
      "bufferView" : 3,
      "componentType" : 5126,
      "count" : 84,
      "type" : "VEC4"
    },
    {
      "bufferView" : 4,
      "componentType" : 5126,
      "count" : 84,
      "type" : "VEC2"
    },
    {
      "bufferView" : 5,
      "componentType" : 5126,
      "count" : 84,
      "type" : "VEC2"
    },
    {
      "bufferView" : 6,
      "componentType" : 5123,
      "count" : 972,
      "type" : "SCALAR"
    },
    {
      "bufferView" : 7,
      "min" : [ -5.22589, -3.13384, -3.21882 ],
      "max" : [ 5.22944, 3.13384, 2.99232 ],
      "componentType" : 5126,
      "count" : 510,
      "type" : "VEC3"
    },
    {
      "bufferView" : 8,
      "componentType" : 5126,
      "count" : 510,
      "type" : "VEC3"
    },
    {
      "bufferView" : 9,
      "componentType" : 5126,
      "count" : 510,
      "type" : "VEC4"
    },
    {
      "bufferView" : 10,
      "componentType" : 5126,
      "count" : 510,
      "type" : "VEC2"
    },
    {
      "bufferView" : 11,
      "componentType" : 5126,
      "count" : 510,
      "type" : "VEC2"
    },
    {
      "bufferView" : 12,
      "componentType" : 5123,
      "count" : 150,
      "type" : "SCALAR"
    },
    {
      "bufferView" : 13,
      "min" : [ -5.11782, -2.80331, -3.11135 ],
      "max" : [ 5.05642, 0.452986, -0.611449 ],
      "componentType" : 5126,
      "count" : 100,
      "type" : "VEC3"
    },
    {
      "bufferView" : 14,
      "componentType" : 5126,
      "count" : 100,
      "type" : "VEC3"
    },
    {
      "bufferView" : 15,
      "componentType" : 5126,
      "count" : 100,
      "type" : "VEC4"
    },
    {
      "bufferView" : 16,
      "componentType" : 5126,
      "count" : 100,
      "type" : "VEC2"
    },
    {
      "bufferView" : 17,
      "componentType" : 5126,
      "count" : 100,
      "type" : "VEC2"
    },
    {
      "bufferView" : 18,
      "componentType" : 5123,
      "count" : 78,
      "type" : "SCALAR"
    },
    {
      "bufferView" : 19,
      "min" : [ -5.08833, -2.80331, -3.08734 ],
      "max" : [ 5.06172, 0.452986, -0.587097 ],
      "componentType" : 5126,
      "count" : 34,
      "type" : "VEC3"
    },
    {
      "bufferView" : 20,
      "componentType" : 5126,
      "count" : 34,
      "type" : "VEC3"
    },
    {
      "bufferView" : 21,
      "componentType" : 5126,
      "count" : 34,
      "type" : "VEC4"
    },
    {
      "bufferView" : 22,
      "componentType" : 5126,
      "count" : 34,
      "type" : "VEC2"
    },
    {
      "bufferView" : 23,
      "componentType" : 5126,
      "count" : 34,
      "type" : "VEC2"
    }
  ]
}
