{
  "asset" : {
    "generator" : "UE Viewer (umodel) build 1579 based",
    "version" : "2.0"
  },
  "scene" : 0,
  "scenes" : [
    {
      "nodes" : [ 0 ]
    }
  ],
  "nodes" : [
    {
      "name" : "S_Envi_Umeda_Hall_Door_01",
      "mesh" : 0
    }
  ],
  "materials" : [
    {
      "name" : "MI_Envi_Umeda_Hall_Door_01_01",
      "pbrMetallicRoughness" : {
        "baseColorFactor" : [ 0.3, 0.3, 0.3, 1.0 ],
        "metallicFactor" : 0.1,
        "roughnessFactor" : 0.5
      }
    },
    {
      "name" : "MI_Envi_Umeda_Hall_Door_01_02",
      "pbrMetallicRoughness" : {
        "baseColorFactor" : [ 0.9, 0.3, 0.3, 1.0 ],
        "metallicFactor" : 0.1,
        "roughnessFactor" : 0.5
      }
    }
  ],
  "meshes" : [
    {
      "primitives" : [
        {
          "attributes" : {
            "POSITION" : 1,
            "NORMAL" : 2,
            "TANGENT" : 3,
            "TEXCOORD_0" : 4,
            "TEXCOORD_1" : 5
          },
          "indices" : 0,
          "material" : 0
        },
        {
          "attributes" : {
            "POSITION" : 7,
            "NORMAL" : 8,
            "TANGENT" : 9,
            "TEXCOORD_0" : 10,
            "TEXCOORD_1" : 11
          },
          "indices" : 6,
          "material" : 1
        }
      ],
      "name" : "S_Envi_Umeda_Hall_Door_01"
    }
  ],
  "buffers" : [
    {
      "uri" : "S_Envi_Umeda_Hall_Door_01.bin",
      "byteLength" : 88384
    }
  ],
  "bufferViews" : [
    {
      "buffer" : 0,
      "byteOffset" : 0,
      "byteLength" : 5264
    },
    {
      "buffer" : 0,
      "byteOffset" : 5264,
      "byteLength" : 12864
    },
    {
      "buffer" : 0,
      "byteOffset" : 18128,
      "byteLength" : 12864
    },
    {
      "buffer" : 0,
      "byteOffset" : 30992,
      "byteLength" : 17152
    },
    {
      "buffer" : 0,
      "byteOffset" : 48144,
      "byteLength" : 8576
    },
    {
      "buffer" : 0,
      "byteOffset" : 56720,
      "byteLength" : 8576
    },
    {
      "buffer" : 0,
      "byteOffset" : 65296,
      "byteLength" : 1584
    },
    {
      "buffer" : 0,
      "byteOffset" : 66880,
      "byteLength" : 4608
    },
    {
      "buffer" : 0,
      "byteOffset" : 71488,
      "byteLength" : 4608
    },
    {
      "buffer" : 0,
      "byteOffset" : 76096,
      "byteLength" : 6144
    },
    {
      "buffer" : 0,
      "byteOffset" : 82240,
      "byteLength" : 3072
    },
    {
      "buffer" : 0,
      "byteOffset" : 85312,
      "byteLength" : 3072
    }
  ],
  "accessors" : [
    {
      "bufferView" : 0,
      "componentType" : 5123,
      "count" : 2631,
      "type" : "SCALAR"
    },
    {
      "bufferView" : 1,
      "min" : [ -9.1902, 11.6203, -1.85171 ],
      "max" : [ 0.422237, 16.9146, 1.30373 ],
      "componentType" : 5126,
      "count" : 1072,
      "type" : "VEC3"
    },
    {
      "bufferView" : 2,
      "componentType" : 5126,
      "count" : 1072,
      "type" : "VEC3"
    },
    {
      "bufferView" : 3,
      "componentType" : 5126,
      "count" : 1072,
      "type" : "VEC4"
    },
    {
      "bufferView" : 4,
      "componentType" : 5126,
      "count" : 1072,
      "type" : "VEC2"
    },
    {
      "bufferView" : 5,
      "componentType" : 5126,
      "count" : 1072,
      "type" : "VEC2"
    },
    {
      "bufferView" : 6,
      "componentType" : 5123,
      "count" : 792,
      "type" : "SCALAR"
    },
    {
      "bufferView" : 7,
      "min" : [ -8.82203, -1.05005e-09, -1.85172 ],
      "max" : [ 6.1e-07, 15.1633, 0.298269 ],
      "componentType" : 5126,
      "count" : 384,
      "type" : "VEC3"
    },
    {
      "bufferView" : 8,
      "componentType" : 5126,
      "count" : 384,
      "type" : "VEC3"
    },
    {
      "bufferView" : 9,
      "componentType" : 5126,
      "count" : 384,
      "type" : "VEC4"
    },
    {
      "bufferView" : 10,
      "componentType" : 5126,
      "count" : 384,
      "type" : "VEC2"
    },
    {
      "bufferView" : 11,
      "componentType" : 5126,
      "count" : 384,
      "type" : "VEC2"
    }
  ]
}
