{
  "asset" : {
    "generator" : "UE Viewer (umodel) build 1579 based",
    "version" : "2.0"
  },
  "scene" : 0,
  "scenes" : [
    {
      "nodes" : [ 0 ]
    }
  ],
  "nodes" : [
    {
      "name" : "S_Envi_Umeda_Billboard_02a",
      "mesh" : 0
    }
  ],
  "materials" : [
    {
      "name" : "MI_Envi_Umeda_Module_46",
      "pbrMetallicRoughness" : {
        "baseColorFactor" : [ 0.3, 0.3, 0.3, 1.0 ],
        "metallicFactor" : 0.1,
        "roughnessFactor" : 0.5
      }
    }
  ],
  "meshes" : [
    {
      "primitives" : [
        {
          "attributes" : {
            "POSITION" : 1,
            "NORMAL" : 2,
            "TANGENT" : 3,
            "TEXCOORD_0" : 4,
            "TEXCOORD_1" : 5
          },
          "indices" : 0,
          "material" : 0
        }
      ],
      "name" : "S_Envi_Umeda_Billboard_02a"
    }
  ],
  "buffers" : [
    {
      "uri" : "S_Envi_Umeda_Billboard_02a.bin",
      "byteLength" : 1912
    }
  ],
  "bufferViews" : [
    {
      "buffer" : 0,
      "byteOffset" : 0,
      "byteLength" : 120
    },
    {
      "buffer" : 0,
      "byteOffset" : 120,
      "byteLength" : 384
    },
    {
      "buffer" : 0,
      "byteOffset" : 504,
      "byteLength" : 384
    },
    {
      "buffer" : 0,
      "byteOffset" : 888,
      "byteLength" : 512
    },
    {
      "buffer" : 0,
      "byteOffset" : 1400,
      "byteLength" : 256
    },
    {
      "buffer" : 0,
      "byteOffset" : 1656,
      "byteLength" : 256
    }
  ],
  "accessors" : [
    {
      "bufferView" : 0,
      "componentType" : 5123,
      "count" : 60,
      "type" : "SCALAR"
    },
    {
      "bufferView" : 1,
      "min" : [ -13.6066, -0.00200043, -0.582671 ],
      "max" : [ -3.66211e-06, 6.72311, -0.00933289 ],
      "componentType" : 5126,
      "count" : 32,
      "type" : "VEC3"
    },
    {
      "bufferView" : 2,
      "componentType" : 5126,
      "count" : 32,
      "type" : "VEC3"
    },
    {
      "bufferView" : 3,
      "componentType" : 5126,
      "count" : 32,
      "type" : "VEC4"
    },
    {
      "bufferView" : 4,
      "componentType" : 5126,
      "count" : 32,
      "type" : "VEC2"
    },
    {
      "bufferView" : 5,
      "componentType" : 5126,
      "count" : 32,
      "type" : "VEC2"
    }
  ]
}
