{
  "asset" : {
    "generator" : "UE Viewer (umodel) build 1579 based",
    "version" : "2.0"
  },
  "scene" : 0,
  "scenes" : [
    {
      "nodes" : [ 0 ]
    }
  ],
  "nodes" : [
    {
      "name" : "S_Envi_Umeda_Indoor_002d",
      "mesh" : 0
    }
  ],
  "materials" : [
    {
      "name" : "MI_Envi_Umeda_Base_Building_02_A_04",
      "pbrMetallicRoughness" : {
        "baseColorFactor" : [ 0.3, 0.3, 0.3, 1.0 ],
        "metallicFactor" : 0.1,
        "roughnessFactor" : 0.5
      }
    },
    {
      "name" : "MI_Envi_Umeda_Base_Building_01_A_02c",
      "pbrMetallicRoughness" : {
        "baseColorFactor" : [ 0.9, 0.3, 0.3, 1.0 ],
        "metallicFactor" : 0.1,
        "roughnessFactor" : 0.5
      }
    },
    {
      "name" : "MI_Envi_Umeda_Base_Ground_02",
      "pbrMetallicRoughness" : {
        "baseColorFactor" : [ 0.3, 0.9, 0.3, 1.0 ],
        "metallicFactor" : 0.1,
        "roughnessFactor" : 0.5
      }
    }
  ],
  "meshes" : [
    {
      "primitives" : [
        {
          "attributes" : {
            "POSITION" : 1,
            "NORMAL" : 2,
            "TANGENT" : 3,
            "TEXCOORD_0" : 4,
            "TEXCOORD_1" : 5,
            "TEXCOORD_2" : 6,
            "TEXCOORD_3" : 7
          },
          "indices" : 0,
          "material" : 0
        },
        {
          "attributes" : {
            "POSITION" : 9,
            "NORMAL" : 10,
            "TANGENT" : 11,
            "TEXCOORD_0" : 12,
            "TEXCOORD_1" : 13,
            "TEXCOORD_2" : 14,
            "TEXCOORD_3" : 15
          },
          "indices" : 8,
          "material" : 1
        },
        {
          "attributes" : {
            "POSITION" : 17,
            "NORMAL" : 18,
            "TANGENT" : 19,
            "TEXCOORD_0" : 20,
            "TEXCOORD_1" : 21,
            "TEXCOORD_2" : 22,
            "TEXCOORD_3" : 23
          },
          "indices" : 16,
          "material" : 2
        }
      ],
      "name" : "S_Envi_Umeda_Indoor_002d"
    }
  ],
  "buffers" : [
    {
      "uri" : "S_Envi_Umeda_Indoor_002d.bin",
      "byteLength" : 111256
    }
  ],
  "bufferViews" : [
    {
      "buffer" : 0,
      "byteOffset" : 0,
      "byteLength" : 4724
    },
    {
      "buffer" : 0,
      "byteOffset" : 4724,
      "byteLength" : 14316
    },
    {
      "buffer" : 0,
      "byteOffset" : 19040,
      "byteLength" : 14316
    },
    {
      "buffer" : 0,
      "byteOffset" : 33356,
      "byteLength" : 19088
    },
    {
      "buffer" : 0,
      "byteOffset" : 52444,
      "byteLength" : 9544
    },
    {
      "buffer" : 0,
      "byteOffset" : 61988,
      "byteLength" : 9544
    },
    {
      "buffer" : 0,
      "byteOffset" : 71532,
      "byteLength" : 9544
    },
    {
      "buffer" : 0,
      "byteOffset" : 81076,
      "byteLength" : 9544
    },
    {
      "buffer" : 0,
      "byteOffset" : 90620,
      "byteLength" : 980
    },
    {
      "buffer" : 0,
      "byteOffset" : 91600,
      "byteLength" : 2292
    },
    {
      "buffer" : 0,
      "byteOffset" : 93892,
      "byteLength" : 2292
    },
    {
      "buffer" : 0,
      "byteOffset" : 96184,
      "byteLength" : 3056
    },
    {
      "buffer" : 0,
      "byteOffset" : 99240,
      "byteLength" : 1528
    },
    {
      "buffer" : 0,
      "byteOffset" : 100768,
      "byteLength" : 1528
    },
    {
      "buffer" : 0,
      "byteOffset" : 102296,
      "byteLength" : 1528
    },
    {
      "buffer" : 0,
      "byteOffset" : 103824,
      "byteLength" : 1528
    },
    {
      "buffer" : 0,
      "byteOffset" : 105352,
      "byteLength" : 288
    },
    {
      "buffer" : 0,
      "byteOffset" : 105640,
      "byteLength" : 936
    },
    {
      "buffer" : 0,
      "byteOffset" : 106576,
      "byteLength" : 936
    },
    {
      "buffer" : 0,
      "byteOffset" : 107512,
      "byteLength" : 1248
    },
    {
      "buffer" : 0,
      "byteOffset" : 108760,
      "byteLength" : 624
    },
    {
      "buffer" : 0,
      "byteOffset" : 109384,
      "byteLength" : 624
    },
    {
      "buffer" : 0,
      "byteOffset" : 110008,
      "byteLength" : 624
    },
    {
      "buffer" : 0,
      "byteOffset" : 110632,
      "byteLength" : 624
    }
  ],
  "accessors" : [
    {
      "bufferView" : 0,
      "componentType" : 5123,
      "count" : 2361,
      "type" : "SCALAR"
    },
    {
      "bufferView" : 1,
      "min" : [ -4.71402, -2.65703, -5.31992 ],
      "max" : [ 4.31598, 2.79929, 5.00606 ],
      "componentType" : 5126,
      "count" : 1193,
      "type" : "VEC3"
    },
    {
      "bufferView" : 2,
      "componentType" : 5126,
      "count" : 1193,
      "type" : "VEC3"
    },
    {
      "bufferView" : 3,
      "componentType" : 5126,
      "count" : 1193,
      "type" : "VEC4"
    },
    {
      "bufferView" : 4,
      "componentType" : 5126,
      "count" : 1193,
      "type" : "VEC2"
    },
    {
      "bufferView" : 5,
      "componentType" : 5126,
      "count" : 1193,
      "type" : "VEC2"
    },
    {
      "bufferView" : 6,
      "componentType" : 5126,
      "count" : 1193,
      "type" : "VEC2"
    },
    {
      "bufferView" : 7,
      "componentType" : 5126,
      "count" : 1193,
      "type" : "VEC2"
    },
    {
      "bufferView" : 8,
      "componentType" : 5123,
      "count" : 489,
      "type" : "SCALAR"
    },
    {
      "bufferView" : 9,
      "min" : [ -4.71402, -1.60173, -5.00165 ],
      "max" : [ 4.31589, 2.37192, 5.00606 ],
      "componentType" : 5126,
      "count" : 191,
      "type" : "VEC3"
    },
    {
      "bufferView" : 10,
      "componentType" : 5126,
      "count" : 191,
      "type" : "VEC3"
    },
    {
      "bufferView" : 11,
      "componentType" : 5126,
      "count" : 191,
      "type" : "VEC4"
    },
    {
      "bufferView" : 12,
      "componentType" : 5126,
      "count" : 191,
      "type" : "VEC2"
    },
    {
      "bufferView" : 13,
      "componentType" : 5126,
      "count" : 191,
      "type" : "VEC2"
    },
    {
      "bufferView" : 14,
      "componentType" : 5126,
      "count" : 191,
      "type" : "VEC2"
    },
    {
      "bufferView" : 15,
      "componentType" : 5126,
      "count" : 191,
      "type" : "VEC2"
    },
    {
      "bufferView" : 16,
      "componentType" : 5123,
      "count" : 144,
      "type" : "SCALAR"
    },
    {
      "bufferView" : 17,
      "min" : [ -4.46751, -2.63982, -5.04454 ],
      "max" : [ 4.15748, -2.63981, 4.75124 ],
      "componentType" : 5126,
      "count" : 78,
      "type" : "VEC3"
    },
    {
      "bufferView" : 18,
      "componentType" : 5126,
      "count" : 78,
      "type" : "VEC3"
    },
    {
      "bufferView" : 19,
      "componentType" : 5126,
      "count" : 78,
      "type" : "VEC4"
    },
    {
      "bufferView" : 20,
      "componentType" : 5126,
      "count" : 78,
      "type" : "VEC2"
    },
    {
      "bufferView" : 21,
      "componentType" : 5126,
      "count" : 78,
      "type" : "VEC2"
    },
    {
      "bufferView" : 22,
      "componentType" : 5126,
      "count" : 78,
      "type" : "VEC2"
    },
    {
      "bufferView" : 23,
      "componentType" : 5126,
      "count" : 78,
      "type" : "VEC2"
    }
  ]
}
