{
  "asset" : {
    "generator" : "UE Viewer (umodel) build 1579 based",
    "version" : "2.0"
  },
  "scene" : 0,
  "scenes" : [
    {
      "nodes" : [ 0 ]
    }
  ],
  "nodes" : [
    {
      "name" : "S_Envi_Umeda_Building_011y",
      "mesh" : 0
    }
  ],
  "materials" : [
    {
      "name" : "MI_Envi_Umeda_japan_Temple_09a",
      "pbrMetallicRoughness" : {
        "baseColorFactor" : [ 0.3, 0.3, 0.3, 1.0 ],
        "metallicFactor" : 0.1,
        "roughnessFactor" : 0.5
      }
    },
    {
      "name" : "MI_Envi_Umeda_japan_Temple_09c",
      "pbrMetallicRoughness" : {
        "baseColorFactor" : [ 0.9, 0.3, 0.3, 1.0 ],
        "metallicFactor" : 0.1,
        "roughnessFactor" : 0.5
      }
    },
    {
      "name" : "MI_Envi_Umeda_japan_Temple_08",
      "pbrMetallicRoughness" : {
        "baseColorFactor" : [ 0.3, 0.9, 0.3, 1.0 ],
        "metallicFactor" : 0.1,
        "roughnessFactor" : 0.5
      }
    }
  ],
  "meshes" : [
    {
      "primitives" : [
        {
          "attributes" : {
            "POSITION" : 1,
            "NORMAL" : 2,
            "TANGENT" : 3,
            "TEXCOORD_0" : 4,
            "TEXCOORD_1" : 5,
            "TEXCOORD_2" : 6,
            "TEXCOORD_3" : 7
          },
          "indices" : 0,
          "material" : 0
        },
        {
          "attributes" : {
            "POSITION" : 9,
            "NORMAL" : 10,
            "TANGENT" : 11,
            "TEXCOORD_0" : 12,
            "TEXCOORD_1" : 13,
            "TEXCOORD_2" : 14,
            "TEXCOORD_3" : 15
          },
          "indices" : 8,
          "material" : 1
        },
        {
          "attributes" : {
            "POSITION" : 17,
            "NORMAL" : 18,
            "TANGENT" : 19,
            "TEXCOORD_0" : 20,
            "TEXCOORD_1" : 21,
            "TEXCOORD_2" : 22,
            "TEXCOORD_3" : 23
          },
          "indices" : 16,
          "material" : 2
        }
      ],
      "name" : "S_Envi_Umeda_Building_011y"
    }
  ],
  "buffers" : [
    {
      "uri" : "S_Envi_Umeda_Building_011y.bin",
      "byteLength" : 233024
    }
  ],
  "bufferViews" : [
    {
      "buffer" : 0,
      "byteOffset" : 0,
      "byteLength" : 2960
    },
    {
      "buffer" : 0,
      "byteOffset" : 2960,
      "byteLength" : 13980
    },
    {
      "buffer" : 0,
      "byteOffset" : 16940,
      "byteLength" : 13980
    },
    {
      "buffer" : 0,
      "byteOffset" : 30920,
      "byteLength" : 18640
    },
    {
      "buffer" : 0,
      "byteOffset" : 49560,
      "byteLength" : 9320
    },
    {
      "buffer" : 0,
      "byteOffset" : 58880,
      "byteLength" : 9320
    },
    {
      "buffer" : 0,
      "byteOffset" : 68200,
      "byteLength" : 9320
    },
    {
      "buffer" : 0,
      "byteOffset" : 77520,
      "byteLength" : 9320
    },
    {
      "buffer" : 0,
      "byteOffset" : 86840,
      "byteLength" : 5532
    },
    {
      "buffer" : 0,
      "byteOffset" : 92372,
      "byteLength" : 23316
    },
    {
      "buffer" : 0,
      "byteOffset" : 115688,
      "byteLength" : 23316
    },
    {
      "buffer" : 0,
      "byteOffset" : 139004,
      "byteLength" : 31088
    },
    {
      "buffer" : 0,
      "byteOffset" : 170092,
      "byteLength" : 15544
    },
    {
      "buffer" : 0,
      "byteOffset" : 185636,
      "byteLength" : 15544
    },
    {
      "buffer" : 0,
      "byteOffset" : 201180,
      "byteLength" : 15544
    },
    {
      "buffer" : 0,
      "byteOffset" : 216724,
      "byteLength" : 15544
    },
    {
      "buffer" : 0,
      "byteOffset" : 232268,
      "byteLength" : 36
    },
    {
      "buffer" : 0,
      "byteOffset" : 232304,
      "byteLength" : 120
    },
    {
      "buffer" : 0,
      "byteOffset" : 232424,
      "byteLength" : 120
    },
    {
      "buffer" : 0,
      "byteOffset" : 232544,
      "byteLength" : 160
    },
    {
      "buffer" : 0,
      "byteOffset" : 232704,
      "byteLength" : 80
    },
    {
      "buffer" : 0,
      "byteOffset" : 232784,
      "byteLength" : 80
    },
    {
      "buffer" : 0,
      "byteOffset" : 232864,
      "byteLength" : 80
    },
    {
      "buffer" : 0,
      "byteOffset" : 232944,
      "byteLength" : 80
    }
  ],
  "accessors" : [
    {
      "bufferView" : 0,
      "componentType" : 5123,
      "count" : 1479,
      "type" : "SCALAR"
    },
    {
      "bufferView" : 1,
      "min" : [ -62.1817, 3.83713, 0.75773 ],
      "max" : [ -48.5944, 12.7512, 8.32168 ],
      "componentType" : 5126,
      "count" : 1165,
      "type" : "VEC3"
    },
    {
      "bufferView" : 2,
      "componentType" : 5126,
      "count" : 1165,
      "type" : "VEC3"
    },
    {
      "bufferView" : 3,
      "componentType" : 5126,
      "count" : 1165,
      "type" : "VEC4"
    },
    {
      "bufferView" : 4,
      "componentType" : 5126,
      "count" : 1165,
      "type" : "VEC2"
    },
    {
      "bufferView" : 5,
      "componentType" : 5126,
      "count" : 1165,
      "type" : "VEC2"
    },
    {
      "bufferView" : 6,
      "componentType" : 5126,
      "count" : 1165,
      "type" : "VEC2"
    },
    {
      "bufferView" : 7,
      "componentType" : 5126,
      "count" : 1165,
      "type" : "VEC2"
    },
    {
      "bufferView" : 8,
      "componentType" : 5123,
      "count" : 2766,
      "type" : "SCALAR"
    },
    {
      "bufferView" : 9,
      "min" : [ -61.6981, 4.14876, -1.37039 ],
      "max" : [ -48.6231, 13.718, 8.41444 ],
      "componentType" : 5126,
      "count" : 1943,
      "type" : "VEC3"
    },
    {
      "bufferView" : 10,
      "componentType" : 5126,
      "count" : 1943,
      "type" : "VEC3"
    },
    {
      "bufferView" : 11,
      "componentType" : 5126,
      "count" : 1943,
      "type" : "VEC4"
    },
    {
      "bufferView" : 12,
      "componentType" : 5126,
      "count" : 1943,
      "type" : "VEC2"
    },
    {
      "bufferView" : 13,
      "componentType" : 5126,
      "count" : 1943,
      "type" : "VEC2"
    },
    {
      "bufferView" : 14,
      "componentType" : 5126,
      "count" : 1943,
      "type" : "VEC2"
    },
    {
      "bufferView" : 15,
      "componentType" : 5126,
      "count" : 1943,
      "type" : "VEC2"
    },
    {
      "bufferView" : 16,
      "componentType" : 5123,
      "count" : 18,
      "type" : "SCALAR"
    },
    {
      "bufferView" : 17,
      "min" : [ -61.3041, 5.31482, -0.986504 ],
      "max" : [ -54.376, 9.74082, 3.46549 ],
      "componentType" : 5126,
      "count" : 10,
      "type" : "VEC3"
    },
    {
      "bufferView" : 18,
      "componentType" : 5126,
      "count" : 10,
      "type" : "VEC3"
    },
    {
      "bufferView" : 19,
      "componentType" : 5126,
      "count" : 10,
      "type" : "VEC4"
    },
    {
      "bufferView" : 20,
      "componentType" : 5126,
      "count" : 10,
      "type" : "VEC2"
    },
    {
      "bufferView" : 21,
      "componentType" : 5126,
      "count" : 10,
      "type" : "VEC2"
    },
    {
      "bufferView" : 22,
      "componentType" : 5126,
      "count" : 10,
      "type" : "VEC2"
    },
    {
      "bufferView" : 23,
      "componentType" : 5126,
      "count" : 10,
      "type" : "VEC2"
    }
  ]
}
