{
  "asset" : {
    "generator" : "UE Viewer (umodel) build 1579 based",
    "version" : "2.0"
  },
  "scene" : 0,
  "scenes" : [
    {
      "nodes" : [ 0 ]
    }
  ],
  "nodes" : [
    {
      "name" : "S_Envi_Umeda_Building_008j",
      "mesh" : 0
    }
  ],
  "materials" : [
    {
      "name" : "MI_Envi_Umeda_Base_Parterre_01",
      "pbrMetallicRoughness" : {
        "baseColorFactor" : [ 0.3, 0.3, 0.3, 1.0 ],
        "metallicFactor" : 0.1,
        "roughnessFactor" : 0.5
      }
    },
    {
      "name" : "M_LEDBillboard_2",
      "pbrMetallicRoughness" : {
        "baseColorFactor" : [ 0.9, 0.3, 0.3, 1.0 ],
        "metallicFactor" : 0.1,
        "roughnessFactor" : 0.5
      }
    },
    {
      "name" : "MI_Envi_Umeda_Module_02",
      "pbrMetallicRoughness" : {
        "baseColorFactor" : [ 0.3, 0.9, 0.3, 1.0 ],
        "metallicFactor" : 0.1,
        "roughnessFactor" : 0.5
      }
    }
  ],
  "meshes" : [
    {
      "primitives" : [
        {
          "attributes" : {
            "POSITION" : 1,
            "NORMAL" : 2,
            "TANGENT" : 3,
            "TEXCOORD_0" : 4,
            "TEXCOORD_1" : 5
          },
          "indices" : 0,
          "material" : 0
        },
        {
          "attributes" : {
            "POSITION" : 7,
            "NORMAL" : 8,
            "TANGENT" : 9,
            "TEXCOORD_0" : 10,
            "TEXCOORD_1" : 11
          },
          "indices" : 6,
          "material" : 1
        },
        {
          "attributes" : {
            "POSITION" : 13,
            "NORMAL" : 14,
            "TANGENT" : 15,
            "TEXCOORD_0" : 16,
            "TEXCOORD_1" : 17
          },
          "indices" : 12,
          "material" : 2
        }
      ],
      "name" : "S_Envi_Umeda_Building_008j"
    }
  ],
  "buffers" : [
    {
      "uri" : "S_Envi_Umeda_Building_008j.bin",
      "byteLength" : 38708
    }
  ],
  "bufferViews" : [
    {
      "buffer" : 0,
      "byteOffset" : 0,
      "byteLength" : 2640
    },
    {
      "buffer" : 0,
      "byteOffset" : 2640,
      "byteLength" : 6780
    },
    {
      "buffer" : 0,
      "byteOffset" : 9420,
      "byteLength" : 6780
    },
    {
      "buffer" : 0,
      "byteOffset" : 16200,
      "byteLength" : 9040
    },
    {
      "buffer" : 0,
      "byteOffset" : 25240,
      "byteLength" : 4520
    },
    {
      "buffer" : 0,
      "byteOffset" : 29760,
      "byteLength" : 4520
    },
    {
      "buffer" : 0,
      "byteOffset" : 34280,
      "byteLength" : 144
    },
    {
      "buffer" : 0,
      "byteOffset" : 34424,
      "byteLength" : 312
    },
    {
      "buffer" : 0,
      "byteOffset" : 34736,
      "byteLength" : 312
    },
    {
      "buffer" : 0,
      "byteOffset" : 35048,
      "byteLength" : 416
    },
    {
      "buffer" : 0,
      "byteOffset" : 35464,
      "byteLength" : 208
    },
    {
      "buffer" : 0,
      "byteOffset" : 35672,
      "byteLength" : 208
    },
    {
      "buffer" : 0,
      "byteOffset" : 35880,
      "byteLength" : 252
    },
    {
      "buffer" : 0,
      "byteOffset" : 36132,
      "byteLength" : 552
    },
    {
      "buffer" : 0,
      "byteOffset" : 36684,
      "byteLength" : 552
    },
    {
      "buffer" : 0,
      "byteOffset" : 37236,
      "byteLength" : 736
    },
    {
      "buffer" : 0,
      "byteOffset" : 37972,
      "byteLength" : 368
    },
    {
      "buffer" : 0,
      "byteOffset" : 38340,
      "byteLength" : 368
    }
  ],
  "accessors" : [
    {
      "bufferView" : 0,
      "componentType" : 5123,
      "count" : 1320,
      "type" : "SCALAR"
    },
    {
      "bufferView" : 1,
      "min" : [ -8.81496, -0.421714, -13.8768 ],
      "max" : [ 8.26627, 0.37872, 14.1632 ],
      "componentType" : 5126,
      "count" : 565,
      "type" : "VEC3"
    },
    {
      "bufferView" : 2,
      "componentType" : 5126,
      "count" : 565,
      "type" : "VEC3"
    },
    {
      "bufferView" : 3,
      "componentType" : 5126,
      "count" : 565,
      "type" : "VEC4"
    },
    {
      "bufferView" : 4,
      "componentType" : 5126,
      "count" : 565,
      "type" : "VEC2"
    },
    {
      "bufferView" : 5,
      "componentType" : 5126,
      "count" : 565,
      "type" : "VEC2"
    },
    {
      "bufferView" : 6,
      "componentType" : 5123,
      "count" : 72,
      "type" : "SCALAR"
    },
    {
      "bufferView" : 7,
      "min" : [ -8.75237, -0.290487, -11.1778 ],
      "max" : [ -0.872386, 0.247491, 3.5993 ],
      "componentType" : 5126,
      "count" : 26,
      "type" : "VEC3"
    },
    {
      "bufferView" : 8,
      "componentType" : 5126,
      "count" : 26,
      "type" : "VEC3"
    },
    {
      "bufferView" : 9,
      "componentType" : 5126,
      "count" : 26,
      "type" : "VEC4"
    },
    {
      "bufferView" : 10,
      "componentType" : 5126,
      "count" : 26,
      "type" : "VEC2"
    },
    {
      "bufferView" : 11,
      "componentType" : 5126,
      "count" : 26,
      "type" : "VEC2"
    },
    {
      "bufferView" : 12,
      "componentType" : 5123,
      "count" : 126,
      "type" : "SCALAR"
    },
    {
      "bufferView" : 13,
      "min" : [ -8.54545, -0.296716, -13.618 ],
      "max" : [ 8.02767, -0.296716, 13.915 ],
      "componentType" : 5126,
      "count" : 46,
      "type" : "VEC3"
    },
    {
      "bufferView" : 14,
      "componentType" : 5126,
      "count" : 46,
      "type" : "VEC3"
    },
    {
      "bufferView" : 15,
      "componentType" : 5126,
      "count" : 46,
      "type" : "VEC4"
    },
    {
      "bufferView" : 16,
      "componentType" : 5126,
      "count" : 46,
      "type" : "VEC2"
    },
    {
      "bufferView" : 17,
      "componentType" : 5126,
      "count" : 46,
      "type" : "VEC2"
    }
  ]
}
