{
  "asset" : {
    "generator" : "UE Viewer (umodel) build 1579 based",
    "version" : "2.0"
  },
  "scene" : 0,
  "scenes" : [
    {
      "nodes" : [ 0 ]
    }
  ],
  "nodes" : [
    {
      "name" : "S_Envi_Umeda_hall_85_A_a",
      "mesh" : 0
    }
  ],
  "materials" : [
    {
      "name" : "MI_Envi_Umeda_Base_Building_01_A_02d",
      "pbrMetallicRoughness" : {
        "baseColorFactor" : [ 0.3, 0.3, 0.3, 1.0 ],
        "metallicFactor" : 0.1,
        "roughnessFactor" : 0.5
      }
    },
    {
      "name" : "MI_Envi_Umeda_Base_Building_02_A_04",
      "pbrMetallicRoughness" : {
        "baseColorFactor" : [ 0.9, 0.3, 0.3, 1.0 ],
        "metallicFactor" : 0.1,
        "roughnessFactor" : 0.5
      }
    }
  ],
  "meshes" : [
    {
      "primitives" : [
        {
          "attributes" : {
            "POSITION" : 1,
            "NORMAL" : 2,
            "TANGENT" : 3,
            "TEXCOORD_0" : 4,
            "TEXCOORD_1" : 5,
            "TEXCOORD_2" : 6,
            "TEXCOORD_3" : 7
          },
          "indices" : 0,
          "material" : 0
        },
        {
          "attributes" : {
            "POSITION" : 9,
            "NORMAL" : 10,
            "TANGENT" : 11,
            "TEXCOORD_0" : 12,
            "TEXCOORD_1" : 13,
            "TEXCOORD_2" : 14,
            "TEXCOORD_3" : 15
          },
          "indices" : 8,
          "material" : 1
        }
      ],
      "name" : "S_Envi_Umeda_hall_85_A_a"
    }
  ],
  "buffers" : [
    {
      "uri" : "S_Envi_Umeda_hall_85_A_a.bin",
      "byteLength" : 23312
    }
  ],
  "bufferViews" : [
    {
      "buffer" : 0,
      "byteOffset" : 0,
      "byteLength" : 404
    },
    {
      "buffer" : 0,
      "byteOffset" : 404,
      "byteLength" : 1548
    },
    {
      "buffer" : 0,
      "byteOffset" : 1952,
      "byteLength" : 1548
    },
    {
      "buffer" : 0,
      "byteOffset" : 3500,
      "byteLength" : 2064
    },
    {
      "buffer" : 0,
      "byteOffset" : 5564,
      "byteLength" : 1032
    },
    {
      "buffer" : 0,
      "byteOffset" : 6596,
      "byteLength" : 1032
    },
    {
      "buffer" : 0,
      "byteOffset" : 7628,
      "byteLength" : 1032
    },
    {
      "buffer" : 0,
      "byteOffset" : 8660,
      "byteLength" : 1032
    },
    {
      "buffer" : 0,
      "byteOffset" : 9692,
      "byteLength" : 516
    },
    {
      "buffer" : 0,
      "byteOffset" : 10208,
      "byteLength" : 2184
    },
    {
      "buffer" : 0,
      "byteOffset" : 12392,
      "byteLength" : 2184
    },
    {
      "buffer" : 0,
      "byteOffset" : 14576,
      "byteLength" : 2912
    },
    {
      "buffer" : 0,
      "byteOffset" : 17488,
      "byteLength" : 1456
    },
    {
      "buffer" : 0,
      "byteOffset" : 18944,
      "byteLength" : 1456
    },
    {
      "buffer" : 0,
      "byteOffset" : 20400,
      "byteLength" : 1456
    },
    {
      "buffer" : 0,
      "byteOffset" : 21856,
      "byteLength" : 1456
    }
  ],
  "accessors" : [
    {
      "bufferView" : 0,
      "componentType" : 5123,
      "count" : 201,
      "type" : "SCALAR"
    },
    {
      "bufferView" : 1,
      "min" : [ 31.441, 8.37927, -63.9373 ],
      "max" : [ 54.4813, 17.6772, -55.9546 ],
      "componentType" : 5126,
      "count" : 129,
      "type" : "VEC3"
    },
    {
      "bufferView" : 2,
      "componentType" : 5126,
      "count" : 129,
      "type" : "VEC3"
    },
    {
      "bufferView" : 3,
      "componentType" : 5126,
      "count" : 129,
      "type" : "VEC4"
    },
    {
      "bufferView" : 4,
      "componentType" : 5126,
      "count" : 129,
      "type" : "VEC2"
    },
    {
      "bufferView" : 5,
      "componentType" : 5126,
      "count" : 129,
      "type" : "VEC2"
    },
    {
      "bufferView" : 6,
      "componentType" : 5126,
      "count" : 129,
      "type" : "VEC2"
    },
    {
      "bufferView" : 7,
      "componentType" : 5126,
      "count" : 129,
      "type" : "VEC2"
    },
    {
      "bufferView" : 8,
      "componentType" : 5123,
      "count" : 258,
      "type" : "SCALAR"
    },
    {
      "bufferView" : 9,
      "min" : [ 31.441, 7.57913, -63.9373 ],
      "max" : [ 54.4813, 13.408, -56.4373 ],
      "componentType" : 5126,
      "count" : 182,
      "type" : "VEC3"
    },
    {
      "bufferView" : 10,
      "componentType" : 5126,
      "count" : 182,
      "type" : "VEC3"
    },
    {
      "bufferView" : 11,
      "componentType" : 5126,
      "count" : 182,
      "type" : "VEC4"
    },
    {
      "bufferView" : 12,
      "componentType" : 5126,
      "count" : 182,
      "type" : "VEC2"
    },
    {
      "bufferView" : 13,
      "componentType" : 5126,
      "count" : 182,
      "type" : "VEC2"
    },
    {
      "bufferView" : 14,
      "componentType" : 5126,
      "count" : 182,
      "type" : "VEC2"
    },
    {
      "bufferView" : 15,
      "componentType" : 5126,
      "count" : 182,
      "type" : "VEC2"
    }
  ]
}
