{
  "asset" : {
    "generator" : "UE Viewer (umodel) build 1579 based",
    "version" : "2.0"
  },
  "scene" : 0,
  "scenes" : [
    {
      "nodes" : [ 0 ]
    }
  ],
  "nodes" : [
    {
      "name" : "S_Envi_common_pillatr_01d",
      "mesh" : 0
    }
  ],
  "materials" : [
    {
      "name" : "MI_Envi_common_pillatr_01",
      "pbrMetallicRoughness" : {
        "baseColorFactor" : [ 0.3, 0.3, 0.3, 1.0 ],
        "metallicFactor" : 0.1,
        "roughnessFactor" : 0.5
      }
    }
  ],
  "meshes" : [
    {
      "primitives" : [
        {
          "attributes" : {
            "POSITION" : 1,
            "NORMAL" : 2,
            "TANGENT" : 3,
            "TEXCOORD_0" : 4,
            "TEXCOORD_1" : 5
          },
          "indices" : 0,
          "material" : 0
        }
      ],
      "name" : "S_Envi_common_pillatr_01d"
    }
  ],
  "buffers" : [
    {
      "uri" : "S_Envi_common_pillatr_01d.bin",
      "byteLength" : 29280
    }
  ],
  "bufferViews" : [
    {
      "buffer" : 0,
      "byteOffset" : 0,
      "byteLength" : 1728
    },
    {
      "buffer" : 0,
      "byteOffset" : 1728,
      "byteLength" : 5904
    },
    {
      "buffer" : 0,
      "byteOffset" : 7632,
      "byteLength" : 5904
    },
    {
      "buffer" : 0,
      "byteOffset" : 13536,
      "byteLength" : 7872
    },
    {
      "buffer" : 0,
      "byteOffset" : 21408,
      "byteLength" : 3936
    },
    {
      "buffer" : 0,
      "byteOffset" : 25344,
      "byteLength" : 3936
    }
  ],
  "accessors" : [
    {
      "bufferView" : 0,
      "componentType" : 5123,
      "count" : 864,
      "type" : "SCALAR"
    },
    {
      "bufferView" : 1,
      "min" : [ -0.600547, -9.53674e-08, -0.600548 ],
      "max" : [ 0.600547, 5.11782, 0.600548 ],
      "componentType" : 5126,
      "count" : 492,
      "type" : "VEC3"
    },
    {
      "bufferView" : 2,
      "componentType" : 5126,
      "count" : 492,
      "type" : "VEC3"
    },
    {
      "bufferView" : 3,
      "componentType" : 5126,
      "count" : 492,
      "type" : "VEC4"
    },
    {
      "bufferView" : 4,
      "componentType" : 5126,
      "count" : 492,
      "type" : "VEC2"
    },
    {
      "bufferView" : 5,
      "componentType" : 5126,
      "count" : 492,
      "type" : "VEC2"
    }
  ]
}
