{
  "asset" : {
    "generator" : "UE Viewer (umodel) build 1579 based",
    "version" : "2.0"
  },
  "scene" : 0,
  "scenes" : [
    {
      "nodes" : [ 0 ]
    }
  ],
  "nodes" : [
    {
      "name" : "S_Envi_Umeda_Building_006A",
      "mesh" : 0
    }
  ],
  "materials" : [
    {
      "name" : "MI_Envi_Umeda_Base_Building_01_A_02f",
      "pbrMetallicRoughness" : {
        "baseColorFactor" : [ 0.3, 0.3, 0.3, 1.0 ],
        "metallicFactor" : 0.1,
        "roughnessFactor" : 0.5
      }
    },
    {
      "name" : "MI_Envi_Umeda_Base_Parterre_01a",
      "pbrMetallicRoughness" : {
        "baseColorFactor" : [ 0.9, 0.3, 0.3, 1.0 ],
        "metallicFactor" : 0.1,
        "roughnessFactor" : 0.5
      }
    },
    {
      "name" : "MI_Envi_Umeda_Base_Building_02_A_04",
      "pbrMetallicRoughness" : {
        "baseColorFactor" : [ 0.3, 0.9, 0.3, 1.0 ],
        "metallicFactor" : 0.1,
        "roughnessFactor" : 0.5
      }
    }
  ],
  "meshes" : [
    {
      "primitives" : [
        {
          "attributes" : {
            "POSITION" : 1,
            "NORMAL" : 2,
            "TANGENT" : 3,
            "TEXCOORD_0" : 4,
            "TEXCOORD_1" : 5,
            "TEXCOORD_2" : 6,
            "TEXCOORD_3" : 7
          },
          "indices" : 0,
          "material" : 0
        },
        {
          "attributes" : {
            "POSITION" : 9,
            "NORMAL" : 10,
            "TANGENT" : 11,
            "TEXCOORD_0" : 12,
            "TEXCOORD_1" : 13,
            "TEXCOORD_2" : 14,
            "TEXCOORD_3" : 15
          },
          "indices" : 8,
          "material" : 1
        },
        {
          "attributes" : {
            "POSITION" : 17,
            "NORMAL" : 18,
            "TANGENT" : 19,
            "TEXCOORD_0" : 20,
            "TEXCOORD_1" : 21,
            "TEXCOORD_2" : 22,
            "TEXCOORD_3" : 23
          },
          "indices" : 16,
          "material" : 2
        }
      ],
      "name" : "S_Envi_Umeda_Building_006A"
    }
  ],
  "buffers" : [
    {
      "uri" : "S_Envi_Umeda_Building_006A.bin",
      "byteLength" : 36444
    }
  ],
  "bufferViews" : [
    {
      "buffer" : 0,
      "byteOffset" : 0,
      "byteLength" : 1200
    },
    {
      "buffer" : 0,
      "byteOffset" : 1200,
      "byteLength" : 2328
    },
    {
      "buffer" : 0,
      "byteOffset" : 3528,
      "byteLength" : 2328
    },
    {
      "buffer" : 0,
      "byteOffset" : 5856,
      "byteLength" : 3104
    },
    {
      "buffer" : 0,
      "byteOffset" : 8960,
      "byteLength" : 1552
    },
    {
      "buffer" : 0,
      "byteOffset" : 10512,
      "byteLength" : 1552
    },
    {
      "buffer" : 0,
      "byteOffset" : 12064,
      "byteLength" : 1552
    },
    {
      "buffer" : 0,
      "byteOffset" : 13616,
      "byteLength" : 1552
    },
    {
      "buffer" : 0,
      "byteOffset" : 15168,
      "byteLength" : 1020
    },
    {
      "buffer" : 0,
      "byteOffset" : 16188,
      "byteLength" : 2520
    },
    {
      "buffer" : 0,
      "byteOffset" : 18708,
      "byteLength" : 2520
    },
    {
      "buffer" : 0,
      "byteOffset" : 21228,
      "byteLength" : 3360
    },
    {
      "buffer" : 0,
      "byteOffset" : 24588,
      "byteLength" : 1680
    },
    {
      "buffer" : 0,
      "byteOffset" : 26268,
      "byteLength" : 1680
    },
    {
      "buffer" : 0,
      "byteOffset" : 27948,
      "byteLength" : 1680
    },
    {
      "buffer" : 0,
      "byteOffset" : 29628,
      "byteLength" : 1680
    },
    {
      "buffer" : 0,
      "byteOffset" : 31308,
      "byteLength" : 240
    },
    {
      "buffer" : 0,
      "byteOffset" : 31548,
      "byteLength" : 816
    },
    {
      "buffer" : 0,
      "byteOffset" : 32364,
      "byteLength" : 816
    },
    {
      "buffer" : 0,
      "byteOffset" : 33180,
      "byteLength" : 1088
    },
    {
      "buffer" : 0,
      "byteOffset" : 34268,
      "byteLength" : 544
    },
    {
      "buffer" : 0,
      "byteOffset" : 34812,
      "byteLength" : 544
    },
    {
      "buffer" : 0,
      "byteOffset" : 35356,
      "byteLength" : 544
    },
    {
      "buffer" : 0,
      "byteOffset" : 35900,
      "byteLength" : 544
    }
  ],
  "accessors" : [
    {
      "bufferView" : 0,
      "componentType" : 5123,
      "count" : 600,
      "type" : "SCALAR"
    },
    {
      "bufferView" : 1,
      "min" : [ 0.0489038, 6.10352e-07, -26.998 ],
      "max" : [ 12.0169, 14.6363, 15.1202 ],
      "componentType" : 5126,
      "count" : 194,
      "type" : "VEC3"
    },
    {
      "bufferView" : 2,
      "componentType" : 5126,
      "count" : 194,
      "type" : "VEC3"
    },
    {
      "bufferView" : 3,
      "componentType" : 5126,
      "count" : 194,
      "type" : "VEC4"
    },
    {
      "bufferView" : 4,
      "componentType" : 5126,
      "count" : 194,
      "type" : "VEC2"
    },
    {
      "bufferView" : 5,
      "componentType" : 5126,
      "count" : 194,
      "type" : "VEC2"
    },
    {
      "bufferView" : 6,
      "componentType" : 5126,
      "count" : 194,
      "type" : "VEC2"
    },
    {
      "bufferView" : 7,
      "componentType" : 5126,
      "count" : 194,
      "type" : "VEC2"
    },
    {
      "bufferView" : 8,
      "componentType" : 5123,
      "count" : 510,
      "type" : "SCALAR"
    },
    {
      "bufferView" : 9,
      "min" : [ 0.0516602, 14.4674, -13.9773 ],
      "max" : [ 12.0162, 15.2209, 15.1539 ],
      "componentType" : 5126,
      "count" : 210,
      "type" : "VEC3"
    },
    {
      "bufferView" : 10,
      "componentType" : 5126,
      "count" : 210,
      "type" : "VEC3"
    },
    {
      "bufferView" : 11,
      "componentType" : 5126,
      "count" : 210,
      "type" : "VEC4"
    },
    {
      "bufferView" : 12,
      "componentType" : 5126,
      "count" : 210,
      "type" : "VEC2"
    },
    {
      "bufferView" : 13,
      "componentType" : 5126,
      "count" : 210,
      "type" : "VEC2"
    },
    {
      "bufferView" : 14,
      "componentType" : 5126,
      "count" : 210,
      "type" : "VEC2"
    },
    {
      "bufferView" : 15,
      "componentType" : 5126,
      "count" : 210,
      "type" : "VEC2"
    },
    {
      "bufferView" : 16,
      "componentType" : 5123,
      "count" : 120,
      "type" : "SCALAR"
    },
    {
      "bufferView" : 17,
      "min" : [ 0, -0.76737, -26.9858 ],
      "max" : [ 0.230623, 10.9285, -6.10352e-07 ],
      "componentType" : 5126,
      "count" : 68,
      "type" : "VEC3"
    },
    {
      "bufferView" : 18,
      "componentType" : 5126,
      "count" : 68,
      "type" : "VEC3"
    },
    {
      "bufferView" : 19,
      "componentType" : 5126,
      "count" : 68,
      "type" : "VEC4"
    },
    {
      "bufferView" : 20,
      "componentType" : 5126,
      "count" : 68,
      "type" : "VEC2"
    },
    {
      "bufferView" : 21,
      "componentType" : 5126,
      "count" : 68,
      "type" : "VEC2"
    },
    {
      "bufferView" : 22,
      "componentType" : 5126,
      "count" : 68,
      "type" : "VEC2"
    },
    {
      "bufferView" : 23,
      "componentType" : 5126,
      "count" : 68,
      "type" : "VEC2"
    }
  ]
}
