{
  "asset" : {
    "generator" : "UE Viewer (umodel) build 1579 based",
    "version" : "2.0"
  },
  "scene" : 0,
  "scenes" : [
    {
      "nodes" : [ 0 ]
    }
  ],
  "nodes" : [
    {
      "name" : "S_Envi_Umeda_door_09a",
      "mesh" : 0
    }
  ],
  "materials" : [
    {
      "name" : "MI_Envi_common_pillatr_01a",
      "pbrMetallicRoughness" : {
        "baseColorFactor" : [ 0.3, 0.3, 0.3, 1.0 ],
        "metallicFactor" : 0.1,
        "roughnessFactor" : 0.5
      }
    },
    {
      "name" : "MI_Envi_Umeda_wall_04",
      "pbrMetallicRoughness" : {
        "baseColorFactor" : [ 0.9, 0.3, 0.3, 1.0 ],
        "metallicFactor" : 0.1,
        "roughnessFactor" : 0.5
      }
    },
    {
      "name" : "MI_Envi_Umeda_door_09a",
      "pbrMetallicRoughness" : {
        "baseColorFactor" : [ 0.3, 0.9, 0.3, 1.0 ],
        "metallicFactor" : 0.1,
        "roughnessFactor" : 0.5
      }
    }
  ],
  "meshes" : [
    {
      "primitives" : [
        {
          "attributes" : {
            "POSITION" : 1,
            "NORMAL" : 2,
            "TANGENT" : 3,
            "TEXCOORD_0" : 4,
            "TEXCOORD_1" : 5
          },
          "indices" : 0,
          "material" : 0
        },
        {
          "attributes" : {
            "POSITION" : 7,
            "NORMAL" : 8,
            "TANGENT" : 9,
            "TEXCOORD_0" : 10,
            "TEXCOORD_1" : 11
          },
          "indices" : 6,
          "material" : 1
        },
        {
          "attributes" : {
            "POSITION" : 13,
            "NORMAL" : 14,
            "TANGENT" : 15,
            "TEXCOORD_0" : 16,
            "TEXCOORD_1" : 17
          },
          "indices" : 12,
          "material" : 2
        }
      ],
      "name" : "S_Envi_Umeda_door_09a"
    }
  ],
  "buffers" : [
    {
      "uri" : "S_Envi_Umeda_door_09a.bin",
      "byteLength" : 227124
    }
  ],
  "bufferViews" : [
    {
      "buffer" : 0,
      "byteOffset" : 0,
      "byteLength" : 4488
    },
    {
      "buffer" : 0,
      "byteOffset" : 4488,
      "byteLength" : 19608
    },
    {
      "buffer" : 0,
      "byteOffset" : 24096,
      "byteLength" : 19608
    },
    {
      "buffer" : 0,
      "byteOffset" : 43704,
      "byteLength" : 26144
    },
    {
      "buffer" : 0,
      "byteOffset" : 69848,
      "byteLength" : 13072
    },
    {
      "buffer" : 0,
      "byteOffset" : 82920,
      "byteLength" : 13072
    },
    {
      "buffer" : 0,
      "byteOffset" : 95992,
      "byteLength" : 468
    },
    {
      "buffer" : 0,
      "byteOffset" : 96460,
      "byteLength" : 1920
    },
    {
      "buffer" : 0,
      "byteOffset" : 98380,
      "byteLength" : 1920
    },
    {
      "buffer" : 0,
      "byteOffset" : 100300,
      "byteLength" : 2560
    },
    {
      "buffer" : 0,
      "byteOffset" : 102860,
      "byteLength" : 1280
    },
    {
      "buffer" : 0,
      "byteOffset" : 104140,
      "byteLength" : 1280
    },
    {
      "buffer" : 0,
      "byteOffset" : 105420,
      "byteLength" : 6120
    },
    {
      "buffer" : 0,
      "byteOffset" : 111540,
      "byteLength" : 24768
    },
    {
      "buffer" : 0,
      "byteOffset" : 136308,
      "byteLength" : 24768
    },
    {
      "buffer" : 0,
      "byteOffset" : 161076,
      "byteLength" : 33024
    },
    {
      "buffer" : 0,
      "byteOffset" : 194100,
      "byteLength" : 16512
    },
    {
      "buffer" : 0,
      "byteOffset" : 210612,
      "byteLength" : 16512
    }
  ],
  "accessors" : [
    {
      "bufferView" : 0,
      "componentType" : 5123,
      "count" : 2244,
      "type" : "SCALAR"
    },
    {
      "bufferView" : 1,
      "min" : [ -4.8501, -3.31496e-06, -1.0025 ],
      "max" : [ 4.8501, 9.59997, 0.684313 ],
      "componentType" : 5126,
      "count" : 1634,
      "type" : "VEC3"
    },
    {
      "bufferView" : 2,
      "componentType" : 5126,
      "count" : 1634,
      "type" : "VEC3"
    },
    {
      "bufferView" : 3,
      "componentType" : 5126,
      "count" : 1634,
      "type" : "VEC4"
    },
    {
      "bufferView" : 4,
      "componentType" : 5126,
      "count" : 1634,
      "type" : "VEC2"
    },
    {
      "bufferView" : 5,
      "componentType" : 5126,
      "count" : 1634,
      "type" : "VEC2"
    },
    {
      "bufferView" : 6,
      "componentType" : 5123,
      "count" : 234,
      "type" : "SCALAR"
    },
    {
      "bufferView" : 7,
      "min" : [ -3.53231, 8.9523, -0.611543 ],
      "max" : [ 3.53231, 9.60005, 0.242446 ],
      "componentType" : 5126,
      "count" : 160,
      "type" : "VEC3"
    },
    {
      "bufferView" : 8,
      "componentType" : 5126,
      "count" : 160,
      "type" : "VEC3"
    },
    {
      "bufferView" : 9,
      "componentType" : 5126,
      "count" : 160,
      "type" : "VEC4"
    },
    {
      "bufferView" : 10,
      "componentType" : 5126,
      "count" : 160,
      "type" : "VEC2"
    },
    {
      "bufferView" : 11,
      "componentType" : 5126,
      "count" : 160,
      "type" : "VEC2"
    },
    {
      "bufferView" : 12,
      "componentType" : 5123,
      "count" : 3060,
      "type" : "SCALAR"
    },
    {
      "bufferView" : 13,
      "min" : [ -3.45121, 3.98496, -0.385416 ],
      "max" : [ 3.446, 8.95228, 1.21389 ],
      "componentType" : 5126,
      "count" : 2064,
      "type" : "VEC3"
    },
    {
      "bufferView" : 14,
      "componentType" : 5126,
      "count" : 2064,
      "type" : "VEC3"
    },
    {
      "bufferView" : 15,
      "componentType" : 5126,
      "count" : 2064,
      "type" : "VEC4"
    },
    {
      "bufferView" : 16,
      "componentType" : 5126,
      "count" : 2064,
      "type" : "VEC2"
    },
    {
      "bufferView" : 17,
      "componentType" : 5126,
      "count" : 2064,
      "type" : "VEC2"
    }
  ]
}
