{
  "asset" : {
    "generator" : "UE Viewer (umodel) build 1579 based",
    "version" : "2.0"
  },
  "scene" : 0,
  "scenes" : [
    {
      "nodes" : [ 0 ]
    }
  ],
  "nodes" : [
    {
      "name" : "S_Envi_Umeda_Building_20d",
      "mesh" : 0
    }
  ],
  "materials" : [
    {
      "name" : "MI_Envi_Umeda_Base_Building_02_A_04b1",
      "pbrMetallicRoughness" : {
        "baseColorFactor" : [ 0.3, 0.3, 0.3, 1.0 ],
        "metallicFactor" : 0.1,
        "roughnessFactor" : 0.5
      }
    },
    {
      "name" : "MI_Envi_Umeda_Base_Building_03_A_04",
      "pbrMetallicRoughness" : {
        "baseColorFactor" : [ 0.9, 0.3, 0.3, 1.0 ],
        "metallicFactor" : 0.1,
        "roughnessFactor" : 0.5
      }
    }
  ],
  "meshes" : [
    {
      "primitives" : [
        {
          "attributes" : {
            "POSITION" : 1,
            "NORMAL" : 2,
            "TANGENT" : 3,
            "TEXCOORD_0" : 4,
            "TEXCOORD_1" : 5,
            "TEXCOORD_2" : 6,
            "TEXCOORD_3" : 7
          },
          "indices" : 0,
          "material" : 0
        },
        {
          "attributes" : {
            "POSITION" : 9,
            "NORMAL" : 10,
            "TANGENT" : 11,
            "TEXCOORD_0" : 12,
            "TEXCOORD_1" : 13,
            "TEXCOORD_2" : 14,
            "TEXCOORD_3" : 15
          },
          "indices" : 8,
          "material" : 1
        }
      ],
      "name" : "S_Envi_Umeda_Building_20d"
    }
  ],
  "buffers" : [
    {
      "uri" : "S_Envi_Umeda_Building_20d.bin",
      "byteLength" : 232264
    }
  ],
  "bufferViews" : [
    {
      "buffer" : 0,
      "byteOffset" : 0,
      "byteLength" : 5720
    },
    {
      "buffer" : 0,
      "byteOffset" : 5720,
      "byteLength" : 24288
    },
    {
      "buffer" : 0,
      "byteOffset" : 30008,
      "byteLength" : 24288
    },
    {
      "buffer" : 0,
      "byteOffset" : 54296,
      "byteLength" : 32384
    },
    {
      "buffer" : 0,
      "byteOffset" : 86680,
      "byteLength" : 16192
    },
    {
      "buffer" : 0,
      "byteOffset" : 102872,
      "byteLength" : 16192
    },
    {
      "buffer" : 0,
      "byteOffset" : 119064,
      "byteLength" : 16192
    },
    {
      "buffer" : 0,
      "byteOffset" : 135256,
      "byteLength" : 16192
    },
    {
      "buffer" : 0,
      "byteOffset" : 151448,
      "byteLength" : 3776
    },
    {
      "buffer" : 0,
      "byteOffset" : 155224,
      "byteLength" : 12840
    },
    {
      "buffer" : 0,
      "byteOffset" : 168064,
      "byteLength" : 12840
    },
    {
      "buffer" : 0,
      "byteOffset" : 180904,
      "byteLength" : 17120
    },
    {
      "buffer" : 0,
      "byteOffset" : 198024,
      "byteLength" : 8560
    },
    {
      "buffer" : 0,
      "byteOffset" : 206584,
      "byteLength" : 8560
    },
    {
      "buffer" : 0,
      "byteOffset" : 215144,
      "byteLength" : 8560
    },
    {
      "buffer" : 0,
      "byteOffset" : 223704,
      "byteLength" : 8560
    }
  ],
  "accessors" : [
    {
      "bufferView" : 0,
      "componentType" : 5123,
      "count" : 2859,
      "type" : "SCALAR"
    },
    {
      "bufferView" : 1,
      "min" : [ -1.56764, 11.6307, -66.0274 ],
      "max" : [ 23.2024, 24.4894, -34.4468 ],
      "componentType" : 5126,
      "count" : 2024,
      "type" : "VEC3"
    },
    {
      "bufferView" : 2,
      "componentType" : 5126,
      "count" : 2024,
      "type" : "VEC3"
    },
    {
      "bufferView" : 3,
      "componentType" : 5126,
      "count" : 2024,
      "type" : "VEC4"
    },
    {
      "bufferView" : 4,
      "componentType" : 5126,
      "count" : 2024,
      "type" : "VEC2"
    },
    {
      "bufferView" : 5,
      "componentType" : 5126,
      "count" : 2024,
      "type" : "VEC2"
    },
    {
      "bufferView" : 6,
      "componentType" : 5126,
      "count" : 2024,
      "type" : "VEC2"
    },
    {
      "bufferView" : 7,
      "componentType" : 5126,
      "count" : 2024,
      "type" : "VEC2"
    },
    {
      "bufferView" : 8,
      "componentType" : 5123,
      "count" : 1887,
      "type" : "SCALAR"
    },
    {
      "bufferView" : 9,
      "min" : [ -1.02447, 12.0047, -65.5926 ],
      "max" : [ 23.0136, 23.2348, -34.8699 ],
      "componentType" : 5126,
      "count" : 1070,
      "type" : "VEC3"
    },
    {
      "bufferView" : 10,
      "componentType" : 5126,
      "count" : 1070,
      "type" : "VEC3"
    },
    {
      "bufferView" : 11,
      "componentType" : 5126,
      "count" : 1070,
      "type" : "VEC4"
    },
    {
      "bufferView" : 12,
      "componentType" : 5126,
      "count" : 1070,
      "type" : "VEC2"
    },
    {
      "bufferView" : 13,
      "componentType" : 5126,
      "count" : 1070,
      "type" : "VEC2"
    },
    {
      "bufferView" : 14,
      "componentType" : 5126,
      "count" : 1070,
      "type" : "VEC2"
    },
    {
      "bufferView" : 15,
      "componentType" : 5126,
      "count" : 1070,
      "type" : "VEC2"
    }
  ]
}
