{
  "asset" : {
    "generator" : "UE Viewer (umodel) build 1579 based",
    "version" : "2.0"
  },
  "scene" : 0,
  "scenes" : [
    {
      "nodes" : [ 0 ]
    }
  ],
  "nodes" : [
    {
      "name" : "S_Envi_Umeda_Building_019d",
      "mesh" : 0
    }
  ],
  "materials" : [
    {
      "name" : "MI_Envi_Umeda_japan_Temple_02",
      "pbrMetallicRoughness" : {
        "baseColorFactor" : [ 0.3, 0.3, 0.3, 1.0 ],
        "metallicFactor" : 0.1,
        "roughnessFactor" : 0.5
      }
    }
  ],
  "meshes" : [
    {
      "primitives" : [
        {
          "attributes" : {
            "POSITION" : 1,
            "NORMAL" : 2,
            "TANGENT" : 3,
            "TEXCOORD_0" : 4,
            "TEXCOORD_1" : 5,
            "TEXCOORD_2" : 6,
            "TEXCOORD_3" : 7
          },
          "indices" : 0,
          "material" : 0
        }
      ],
      "name" : "S_Envi_Umeda_Building_019d"
    }
  ],
  "buffers" : [
    {
      "uri" : "S_Envi_Umeda_Building_019d.bin",
      "byteLength" : 116756
    }
  ],
  "bufferViews" : [
    {
      "buffer" : 0,
      "byteOffset" : 0,
      "byteLength" : 6524
    },
    {
      "buffer" : 0,
      "byteOffset" : 6524,
      "byteLength" : 18372
    },
    {
      "buffer" : 0,
      "byteOffset" : 24896,
      "byteLength" : 18372
    },
    {
      "buffer" : 0,
      "byteOffset" : 43268,
      "byteLength" : 24496
    },
    {
      "buffer" : 0,
      "byteOffset" : 67764,
      "byteLength" : 12248
    },
    {
      "buffer" : 0,
      "byteOffset" : 80012,
      "byteLength" : 12248
    },
    {
      "buffer" : 0,
      "byteOffset" : 92260,
      "byteLength" : 12248
    },
    {
      "buffer" : 0,
      "byteOffset" : 104508,
      "byteLength" : 12248
    }
  ],
  "accessors" : [
    {
      "bufferView" : 0,
      "componentType" : 5123,
      "count" : 3261,
      "type" : "SCALAR"
    },
    {
      "bufferView" : 1,
      "min" : [ -45.1436, 16.882, -27.737 ],
      "max" : [ -35.0402, 21.5174, -15.6236 ],
      "componentType" : 5126,
      "count" : 1531,
      "type" : "VEC3"
    },
    {
      "bufferView" : 2,
      "componentType" : 5126,
      "count" : 1531,
      "type" : "VEC3"
    },
    {
      "bufferView" : 3,
      "componentType" : 5126,
      "count" : 1531,
      "type" : "VEC4"
    },
    {
      "bufferView" : 4,
      "componentType" : 5126,
      "count" : 1531,
      "type" : "VEC2"
    },
    {
      "bufferView" : 5,
      "componentType" : 5126,
      "count" : 1531,
      "type" : "VEC2"
    },
    {
      "bufferView" : 6,
      "componentType" : 5126,
      "count" : 1531,
      "type" : "VEC2"
    },
    {
      "bufferView" : 7,
      "componentType" : 5126,
      "count" : 1531,
      "type" : "VEC2"
    }
  ]
}
