{
  "asset" : {
    "generator" : "UE Viewer (umodel) build 1579 based",
    "version" : "2.0"
  },
  "scene" : 0,
  "scenes" : [
    {
      "nodes" : [ 0 ]
    }
  ],
  "nodes" : [
    {
      "name" : "S_Envi_Umeda_Base_Pillar_06",
      "mesh" : 0
    }
  ],
  "materials" : [
    {
      "name" : "MI_Envi_Umeda_Base_Building_02_A_04",
      "pbrMetallicRoughness" : {
        "baseColorFactor" : [ 0.3, 0.3, 0.3, 1.0 ],
        "metallicFactor" : 0.1,
        "roughnessFactor" : 0.5
      }
    }
  ],
  "meshes" : [
    {
      "primitives" : [
        {
          "attributes" : {
            "POSITION" : 1,
            "NORMAL" : 2,
            "TANGENT" : 3,
            "TEXCOORD_0" : 4,
            "TEXCOORD_1" : 5
          },
          "indices" : 0,
          "material" : 0
        }
      ],
      "name" : "S_Envi_Umeda_Base_Pillar_06"
    }
  ],
  "buffers" : [
    {
      "uri" : "S_Envi_Umeda_Base_Pillar_06.bin",
      "byteLength" : 1552
    }
  ],
  "bufferViews" : [
    {
      "buffer" : 0,
      "byteOffset" : 0,
      "byteLength" : 96
    },
    {
      "buffer" : 0,
      "byteOffset" : 96,
      "byteLength" : 312
    },
    {
      "buffer" : 0,
      "byteOffset" : 408,
      "byteLength" : 312
    },
    {
      "buffer" : 0,
      "byteOffset" : 720,
      "byteLength" : 416
    },
    {
      "buffer" : 0,
      "byteOffset" : 1136,
      "byteLength" : 208
    },
    {
      "buffer" : 0,
      "byteOffset" : 1344,
      "byteLength" : 208
    }
  ],
  "accessors" : [
    {
      "bufferView" : 0,
      "componentType" : 5123,
      "count" : 48,
      "type" : "SCALAR"
    },
    {
      "bufferView" : 1,
      "min" : [ -0.439891, -4.88281e-06, -0.678727 ],
      "max" : [ 2.44141e-06, 7.00677, 7.32422e-06 ],
      "componentType" : 5126,
      "count" : 26,
      "type" : "VEC3"
    },
    {
      "bufferView" : 2,
      "componentType" : 5126,
      "count" : 26,
      "type" : "VEC3"
    },
    {
      "bufferView" : 3,
      "componentType" : 5126,
      "count" : 26,
      "type" : "VEC4"
    },
    {
      "bufferView" : 4,
      "componentType" : 5126,
      "count" : 26,
      "type" : "VEC2"
    },
    {
      "bufferView" : 5,
      "componentType" : 5126,
      "count" : 26,
      "type" : "VEC2"
    }
  ]
}
