{
  "asset" : {
    "generator" : "UE Viewer (umodel) build 1579 based",
    "version" : "2.0"
  },
  "scene" : 0,
  "scenes" : [
    {
      "nodes" : [ 0 ]
    }
  ],
  "nodes" : [
    {
      "name" : "S_Envi_Umeda_Base_Building_16a",
      "mesh" : 0
    }
  ],
  "materials" : [
    {
      "name" : "MI_Envi_commontrim_06b",
      "pbrMetallicRoughness" : {
        "baseColorFactor" : [ 0.3, 0.3, 0.3, 1.0 ],
        "metallicFactor" : 0.1,
        "roughnessFactor" : 0.5
      }
    },
    {
      "name" : "MI_Envi_Umeda_Base_Building_02_A_04",
      "pbrMetallicRoughness" : {
        "baseColorFactor" : [ 0.9, 0.3, 0.3, 1.0 ],
        "metallicFactor" : 0.1,
        "roughnessFactor" : 0.5
      }
    },
    {
      "name" : "MI_PM_Glass_02k",
      "pbrMetallicRoughness" : {
        "baseColorFactor" : [ 0.3, 0.9, 0.3, 1.0 ],
        "metallicFactor" : 0.1,
        "roughnessFactor" : 0.5
      }
    }
  ],
  "meshes" : [
    {
      "primitives" : [
        {
          "attributes" : {
            "POSITION" : 1,
            "NORMAL" : 2,
            "TANGENT" : 3,
            "TEXCOORD_0" : 4,
            "TEXCOORD_1" : 5
          },
          "indices" : 0,
          "material" : 0
        },
        {
          "attributes" : {
            "POSITION" : 7,
            "NORMAL" : 8,
            "TANGENT" : 9,
            "TEXCOORD_0" : 10,
            "TEXCOORD_1" : 11
          },
          "indices" : 6,
          "material" : 1
        },
        {
          "attributes" : {
            "POSITION" : 13,
            "NORMAL" : 14,
            "TANGENT" : 15,
            "TEXCOORD_0" : 16,
            "TEXCOORD_1" : 17
          },
          "indices" : 12,
          "material" : 2
        }
      ],
      "name" : "S_Envi_Umeda_Base_Building_16a"
    }
  ],
  "buffers" : [
    {
      "uri" : "S_Envi_Umeda_Base_Building_16a.bin",
      "byteLength" : 1214720
    }
  ],
  "bufferViews" : [
    {
      "buffer" : 0,
      "byteOffset" : 0,
      "byteLength" : 15108
    },
    {
      "buffer" : 0,
      "byteOffset" : 15108,
      "byteLength" : 54216
    },
    {
      "buffer" : 0,
      "byteOffset" : 69324,
      "byteLength" : 54216
    },
    {
      "buffer" : 0,
      "byteOffset" : 123540,
      "byteLength" : 72288
    },
    {
      "buffer" : 0,
      "byteOffset" : 195828,
      "byteLength" : 36144
    },
    {
      "buffer" : 0,
      "byteOffset" : 231972,
      "byteLength" : 36144
    },
    {
      "buffer" : 0,
      "byteOffset" : 268116,
      "byteLength" : 47196
    },
    {
      "buffer" : 0,
      "byteOffset" : 315312,
      "byteLength" : 188988
    },
    {
      "buffer" : 0,
      "byteOffset" : 504300,
      "byteLength" : 188988
    },
    {
      "buffer" : 0,
      "byteOffset" : 693288,
      "byteLength" : 251984
    },
    {
      "buffer" : 0,
      "byteOffset" : 945272,
      "byteLength" : 125992
    },
    {
      "buffer" : 0,
      "byteOffset" : 1071264,
      "byteLength" : 125992
    },
    {
      "buffer" : 0,
      "byteOffset" : 1197256,
      "byteLength" : 888
    },
    {
      "buffer" : 0,
      "byteOffset" : 1198144,
      "byteLength" : 3552
    },
    {
      "buffer" : 0,
      "byteOffset" : 1201696,
      "byteLength" : 3552
    },
    {
      "buffer" : 0,
      "byteOffset" : 1205248,
      "byteLength" : 4736
    },
    {
      "buffer" : 0,
      "byteOffset" : 1209984,
      "byteLength" : 2368
    },
    {
      "buffer" : 0,
      "byteOffset" : 1212352,
      "byteLength" : 2368
    }
  ],
  "accessors" : [
    {
      "bufferView" : 0,
      "componentType" : 5123,
      "count" : 7554,
      "type" : "SCALAR"
    },
    {
      "bufferView" : 1,
      "min" : [ -39.4557, -24.4074, -26.8048 ],
      "max" : [ 31.7143, 36.5324, 21.5425 ],
      "componentType" : 5126,
      "count" : 4518,
      "type" : "VEC3"
    },
    {
      "bufferView" : 2,
      "componentType" : 5126,
      "count" : 4518,
      "type" : "VEC3"
    },
    {
      "bufferView" : 3,
      "componentType" : 5126,
      "count" : 4518,
      "type" : "VEC4"
    },
    {
      "bufferView" : 4,
      "componentType" : 5126,
      "count" : 4518,
      "type" : "VEC2"
    },
    {
      "bufferView" : 5,
      "componentType" : 5126,
      "count" : 4518,
      "type" : "VEC2"
    },
    {
      "bufferView" : 6,
      "componentType" : 5123,
      "count" : 23598,
      "type" : "SCALAR"
    },
    {
      "bufferView" : 7,
      "min" : [ -39.6731, -12.0432, -27.2127 ],
      "max" : [ 31.9609, 36.5745, 21.6967 ],
      "componentType" : 5126,
      "count" : 15749,
      "type" : "VEC3"
    },
    {
      "bufferView" : 8,
      "componentType" : 5126,
      "count" : 15749,
      "type" : "VEC3"
    },
    {
      "bufferView" : 9,
      "componentType" : 5126,
      "count" : 15749,
      "type" : "VEC4"
    },
    {
      "bufferView" : 10,
      "componentType" : 5126,
      "count" : 15749,
      "type" : "VEC2"
    },
    {
      "bufferView" : 11,
      "componentType" : 5126,
      "count" : 15749,
      "type" : "VEC2"
    },
    {
      "bufferView" : 12,
      "componentType" : 5123,
      "count" : 444,
      "type" : "SCALAR"
    },
    {
      "bufferView" : 13,
      "min" : [ -38.7302, -4.87878, -26.6181 ],
      "max" : [ 31.1481, 34.6253, 21.2147 ],
      "componentType" : 5126,
      "count" : 296,
      "type" : "VEC3"
    },
    {
      "bufferView" : 14,
      "componentType" : 5126,
      "count" : 296,
      "type" : "VEC3"
    },
    {
      "bufferView" : 15,
      "componentType" : 5126,
      "count" : 296,
      "type" : "VEC4"
    },
    {
      "bufferView" : 16,
      "componentType" : 5126,
      "count" : 296,
      "type" : "VEC2"
    },
    {
      "bufferView" : 17,
      "componentType" : 5126,
      "count" : 296,
      "type" : "VEC2"
    }
  ]
}
