{
  "asset" : {
    "generator" : "UE Viewer (umodel) build 1579 based",
    "version" : "2.0"
  },
  "scene" : 0,
  "scenes" : [
    {
      "nodes" : [ 0 ]
    }
  ],
  "nodes" : [
    {
      "name" : "S_Envi_common_Ground_01a",
      "mesh" : 0
    }
  ],
  "materials" : [
    {
      "name" : "MI_Envi_Floor_01",
      "pbrMetallicRoughness" : {
        "baseColorFactor" : [ 0.3, 0.3, 0.3, 1.0 ],
        "metallicFactor" : 0.1,
        "roughnessFactor" : 0.5
      }
    },
    {
      "name" : "MI_Envi_Umeda_Prop_Frame_01",
      "pbrMetallicRoughness" : {
        "baseColorFactor" : [ 0.9, 0.3, 0.3, 1.0 ],
        "metallicFactor" : 0.1,
        "roughnessFactor" : 0.5
      }
    },
    {
      "name" : "MI_Envi_Umeda_Base_Ground_02a",
      "pbrMetallicRoughness" : {
        "baseColorFactor" : [ 0.3, 0.9, 0.3, 1.0 ],
        "metallicFactor" : 0.1,
        "roughnessFactor" : 0.5
      }
    }
  ],
  "meshes" : [
    {
      "primitives" : [
        {
          "attributes" : {
            "POSITION" : 1,
            "NORMAL" : 2,
            "TANGENT" : 3,
            "TEXCOORD_0" : 4,
            "TEXCOORD_1" : 5
          },
          "indices" : 0,
          "material" : 0
        },
        {
          "attributes" : {
            "POSITION" : 7,
            "NORMAL" : 8,
            "TANGENT" : 9,
            "TEXCOORD_0" : 10,
            "TEXCOORD_1" : 11
          },
          "indices" : 6,
          "material" : 1
        },
        {
          "attributes" : {
            "POSITION" : 13,
            "NORMAL" : 14,
            "TANGENT" : 15,
            "TEXCOORD_0" : 16,
            "TEXCOORD_1" : 17
          },
          "indices" : 12,
          "material" : 2
        }
      ],
      "name" : "S_Envi_common_Ground_01a"
    }
  ],
  "buffers" : [
    {
      "uri" : "S_Envi_common_Ground_01a.bin",
      "byteLength" : 35620
    }
  ],
  "bufferViews" : [
    {
      "buffer" : 0,
      "byteOffset" : 0,
      "byteLength" : 492
    },
    {
      "buffer" : 0,
      "byteOffset" : 492,
      "byteLength" : 720
    },
    {
      "buffer" : 0,
      "byteOffset" : 1212,
      "byteLength" : 720
    },
    {
      "buffer" : 0,
      "byteOffset" : 1932,
      "byteLength" : 960
    },
    {
      "buffer" : 0,
      "byteOffset" : 2892,
      "byteLength" : 480
    },
    {
      "buffer" : 0,
      "byteOffset" : 3372,
      "byteLength" : 480
    },
    {
      "buffer" : 0,
      "byteOffset" : 3852,
      "byteLength" : 1536
    },
    {
      "buffer" : 0,
      "byteOffset" : 5388,
      "byteLength" : 6096
    },
    {
      "buffer" : 0,
      "byteOffset" : 11484,
      "byteLength" : 6096
    },
    {
      "buffer" : 0,
      "byteOffset" : 17580,
      "byteLength" : 8128
    },
    {
      "buffer" : 0,
      "byteOffset" : 25708,
      "byteLength" : 4064
    },
    {
      "buffer" : 0,
      "byteOffset" : 29772,
      "byteLength" : 4064
    },
    {
      "buffer" : 0,
      "byteOffset" : 33836,
      "byteLength" : 216
    },
    {
      "buffer" : 0,
      "byteOffset" : 34052,
      "byteLength" : 336
    },
    {
      "buffer" : 0,
      "byteOffset" : 34388,
      "byteLength" : 336
    },
    {
      "buffer" : 0,
      "byteOffset" : 34724,
      "byteLength" : 448
    },
    {
      "buffer" : 0,
      "byteOffset" : 35172,
      "byteLength" : 224
    },
    {
      "buffer" : 0,
      "byteOffset" : 35396,
      "byteLength" : 224
    }
  ],
  "accessors" : [
    {
      "bufferView" : 0,
      "componentType" : 5123,
      "count" : 246,
      "type" : "SCALAR"
    },
    {
      "bufferView" : 1,
      "min" : [ 2.58659, 0.0209601, -5.83695 ],
      "max" : [ 10.4524, 0.0409601, -0.74965 ],
      "componentType" : 5126,
      "count" : 60,
      "type" : "VEC3"
    },
    {
      "bufferView" : 2,
      "componentType" : 5126,
      "count" : 60,
      "type" : "VEC3"
    },
    {
      "bufferView" : 3,
      "componentType" : 5126,
      "count" : 60,
      "type" : "VEC4"
    },
    {
      "bufferView" : 4,
      "componentType" : 5126,
      "count" : 60,
      "type" : "VEC2"
    },
    {
      "bufferView" : 5,
      "componentType" : 5126,
      "count" : 60,
      "type" : "VEC2"
    },
    {
      "bufferView" : 6,
      "componentType" : 5123,
      "count" : 768,
      "type" : "SCALAR"
    },
    {
      "bufferView" : 7,
      "min" : [ 6.10352e-07, 0, -6.97094 ],
      "max" : [ 13.3901, 0.0707105, -4.57764e-07 ],
      "componentType" : 5126,
      "count" : 508,
      "type" : "VEC3"
    },
    {
      "bufferView" : 8,
      "componentType" : 5126,
      "count" : 508,
      "type" : "VEC3"
    },
    {
      "bufferView" : 9,
      "componentType" : 5126,
      "count" : 508,
      "type" : "VEC4"
    },
    {
      "bufferView" : 10,
      "componentType" : 5126,
      "count" : 508,
      "type" : "VEC2"
    },
    {
      "bufferView" : 11,
      "componentType" : 5126,
      "count" : 508,
      "type" : "VEC2"
    },
    {
      "bufferView" : 12,
      "componentType" : 5123,
      "count" : 108,
      "type" : "SCALAR"
    },
    {
      "bufferView" : 13,
      "min" : [ 6.10352e-07, 0.0353552, -6.93558 ],
      "max" : [ 13.3901, 0.0353552, -0.0353558 ],
      "componentType" : 5126,
      "count" : 28,
      "type" : "VEC3"
    },
    {
      "bufferView" : 14,
      "componentType" : 5126,
      "count" : 28,
      "type" : "VEC3"
    },
    {
      "bufferView" : 15,
      "componentType" : 5126,
      "count" : 28,
      "type" : "VEC4"
    },
    {
      "bufferView" : 16,
      "componentType" : 5126,
      "count" : 28,
      "type" : "VEC2"
    },
    {
      "bufferView" : 17,
      "componentType" : 5126,
      "count" : 28,
      "type" : "VEC2"
    }
  ]
}
