{
  "asset" : {
    "generator" : "UE Viewer (umodel) build 1579 based",
    "version" : "2.0"
  },
  "scene" : 0,
  "scenes" : [
    {
      "nodes" : [ 0 ]
    }
  ],
  "nodes" : [
    {
      "name" : "S_Envi_Umeda_Building_20g",
      "mesh" : 0
    }
  ],
  "materials" : [
    {
      "name" : "MI_PM_Glass_02h",
      "pbrMetallicRoughness" : {
        "baseColorFactor" : [ 0.3, 0.3, 0.3, 1.0 ],
        "metallicFactor" : 0.1,
        "roughnessFactor" : 0.5
      }
    }
  ],
  "meshes" : [
    {
      "primitives" : [
        {
          "attributes" : {
            "POSITION" : 1,
            "NORMAL" : 2,
            "TANGENT" : 3,
            "TEXCOORD_0" : 4,
            "TEXCOORD_1" : 5
          },
          "indices" : 0,
          "material" : 0
        }
      ],
      "name" : "S_Envi_Umeda_Building_20g"
    }
  ],
  "buffers" : [
    {
      "uri" : "S_Envi_Umeda_Building_20g.bin",
      "byteLength" : 1716
    }
  ],
  "bufferViews" : [
    {
      "buffer" : 0,
      "byteOffset" : 0,
      "byteLength" : 92
    },
    {
      "buffer" : 0,
      "byteOffset" : 92,
      "byteLength" : 348
    },
    {
      "buffer" : 0,
      "byteOffset" : 440,
      "byteLength" : 348
    },
    {
      "buffer" : 0,
      "byteOffset" : 788,
      "byteLength" : 464
    },
    {
      "buffer" : 0,
      "byteOffset" : 1252,
      "byteLength" : 232
    },
    {
      "buffer" : 0,
      "byteOffset" : 1484,
      "byteLength" : 232
    }
  ],
  "accessors" : [
    {
      "bufferView" : 0,
      "componentType" : 5123,
      "count" : 45,
      "type" : "SCALAR"
    },
    {
      "bufferView" : 1,
      "min" : [ -4.18102, 11.5261, -50.7487 ],
      "max" : [ 12.9856, 19.2317, -14.0814 ],
      "componentType" : 5126,
      "count" : 29,
      "type" : "VEC3"
    },
    {
      "bufferView" : 2,
      "componentType" : 5126,
      "count" : 29,
      "type" : "VEC3"
    },
    {
      "bufferView" : 3,
      "componentType" : 5126,
      "count" : 29,
      "type" : "VEC4"
    },
    {
      "bufferView" : 4,
      "componentType" : 5126,
      "count" : 29,
      "type" : "VEC2"
    },
    {
      "bufferView" : 5,
      "componentType" : 5126,
      "count" : 29,
      "type" : "VEC2"
    }
  ]
}
