{
  "asset" : {
    "generator" : "UE Viewer (umodel) build 1579 based",
    "version" : "2.0"
  },
  "scene" : 0,
  "scenes" : [
    {
      "nodes" : [ 0 ]
    }
  ],
  "nodes" : [
    {
      "name" : "S_Envi_Umeda_hall_Merge_14",
      "mesh" : 0
    }
  ],
  "materials" : [
    {
      "name" : "MI_Envi_Umeda_wall_04",
      "pbrMetallicRoughness" : {
        "baseColorFactor" : [ 0.3, 0.3, 0.3, 1.0 ],
        "metallicFactor" : 0.1,
        "roughnessFactor" : 0.5
      }
    }
  ],
  "meshes" : [
    {
      "primitives" : [
        {
          "attributes" : {
            "POSITION" : 1,
            "NORMAL" : 2,
            "TANGENT" : 3,
            "TEXCOORD_0" : 4,
            "TEXCOORD_1" : 5
          },
          "indices" : 0,
          "material" : 0
        }
      ],
      "name" : "S_Envi_Umeda_hall_Merge_14"
    }
  ],
  "buffers" : [
    {
      "uri" : "S_Envi_Umeda_hall_Merge_14.bin",
      "byteLength" : 38620
    }
  ],
  "bufferViews" : [
    {
      "buffer" : 0,
      "byteOffset" : 0,
      "byteLength" : 2220
    },
    {
      "buffer" : 0,
      "byteOffset" : 2220,
      "byteLength" : 7800
    },
    {
      "buffer" : 0,
      "byteOffset" : 10020,
      "byteLength" : 7800
    },
    {
      "buffer" : 0,
      "byteOffset" : 17820,
      "byteLength" : 10400
    },
    {
      "buffer" : 0,
      "byteOffset" : 28220,
      "byteLength" : 5200
    },
    {
      "buffer" : 0,
      "byteOffset" : 33420,
      "byteLength" : 5200
    }
  ],
  "accessors" : [
    {
      "bufferView" : 0,
      "componentType" : 5123,
      "count" : 1110,
      "type" : "SCALAR"
    },
    {
      "bufferView" : 1,
      "min" : [ -15.6474, 12.0739, 21.1324 ],
      "max" : [ -2.29914, 12.1889, 42.1952 ],
      "componentType" : 5126,
      "count" : 650,
      "type" : "VEC3"
    },
    {
      "bufferView" : 2,
      "componentType" : 5126,
      "count" : 650,
      "type" : "VEC3"
    },
    {
      "bufferView" : 3,
      "componentType" : 5126,
      "count" : 650,
      "type" : "VEC4"
    },
    {
      "bufferView" : 4,
      "componentType" : 5126,
      "count" : 650,
      "type" : "VEC2"
    },
    {
      "bufferView" : 5,
      "componentType" : 5126,
      "count" : 650,
      "type" : "VEC2"
    }
  ]
}
