{
  "asset" : {
    "generator" : "UE Viewer (umodel) build 1579 based",
    "version" : "2.0"
  },
  "scene" : 0,
  "scenes" : [
    {
      "nodes" : [ 0 ]
    }
  ],
  "nodes" : [
    {
      "name" : "S_Envi_Umeda_Ground_08c",
      "mesh" : 0
    }
  ],
  "materials" : [
    {
      "name" : "MI_Envi_Umeda_Base_Building_02_A_01",
      "pbrMetallicRoughness" : {
        "baseColorFactor" : [ 0.3, 0.3, 0.3, 1.0 ],
        "metallicFactor" : 0.1,
        "roughnessFactor" : 0.5
      }
    },
    {
      "name" : "MI_Envi_commontrim_05",
      "pbrMetallicRoughness" : {
        "baseColorFactor" : [ 0.9, 0.3, 0.3, 1.0 ],
        "metallicFactor" : 0.1,
        "roughnessFactor" : 0.5
      }
    }
  ],
  "meshes" : [
    {
      "primitives" : [
        {
          "attributes" : {
            "POSITION" : 1,
            "NORMAL" : 2,
            "TANGENT" : 3,
            "TEXCOORD_0" : 4,
            "TEXCOORD_1" : 5
          },
          "indices" : 0,
          "material" : 0
        },
        {
          "attributes" : {
            "POSITION" : 7,
            "NORMAL" : 8,
            "TANGENT" : 9,
            "TEXCOORD_0" : 10,
            "TEXCOORD_1" : 11
          },
          "indices" : 6,
          "material" : 1
        }
      ],
      "name" : "S_Envi_Umeda_Ground_08c"
    }
  ],
  "buffers" : [
    {
      "uri" : "S_Envi_Umeda_Ground_08c.bin",
      "byteLength" : 17700
    }
  ],
  "bufferViews" : [
    {
      "buffer" : 0,
      "byteOffset" : 0,
      "byteLength" : 504
    },
    {
      "buffer" : 0,
      "byteOffset" : 504,
      "byteLength" : 2064
    },
    {
      "buffer" : 0,
      "byteOffset" : 2568,
      "byteLength" : 2064
    },
    {
      "buffer" : 0,
      "byteOffset" : 4632,
      "byteLength" : 2752
    },
    {
      "buffer" : 0,
      "byteOffset" : 7384,
      "byteLength" : 1376
    },
    {
      "buffer" : 0,
      "byteOffset" : 8760,
      "byteLength" : 1376
    },
    {
      "buffer" : 0,
      "byteOffset" : 10136,
      "byteLength" : 452
    },
    {
      "buffer" : 0,
      "byteOffset" : 10588,
      "byteLength" : 1524
    },
    {
      "buffer" : 0,
      "byteOffset" : 12112,
      "byteLength" : 1524
    },
    {
      "buffer" : 0,
      "byteOffset" : 13636,
      "byteLength" : 2032
    },
    {
      "buffer" : 0,
      "byteOffset" : 15668,
      "byteLength" : 1016
    },
    {
      "buffer" : 0,
      "byteOffset" : 16684,
      "byteLength" : 1016
    }
  ],
  "accessors" : [
    {
      "bufferView" : 0,
      "componentType" : 5123,
      "count" : 252,
      "type" : "SCALAR"
    },
    {
      "bufferView" : 1,
      "min" : [ 54.2672, 3.70935, -37.4298 ],
      "max" : [ 70.2091, 5.72016, 23.1619 ],
      "componentType" : 5126,
      "count" : 172,
      "type" : "VEC3"
    },
    {
      "bufferView" : 2,
      "componentType" : 5126,
      "count" : 172,
      "type" : "VEC3"
    },
    {
      "bufferView" : 3,
      "componentType" : 5126,
      "count" : 172,
      "type" : "VEC4"
    },
    {
      "bufferView" : 4,
      "componentType" : 5126,
      "count" : 172,
      "type" : "VEC2"
    },
    {
      "bufferView" : 5,
      "componentType" : 5126,
      "count" : 172,
      "type" : "VEC2"
    },
    {
      "bufferView" : 6,
      "componentType" : 5123,
      "count" : 225,
      "type" : "SCALAR"
    },
    {
      "bufferView" : 7,
      "min" : [ 53.6232, -30.8768, -37.3797 ],
      "max" : [ 70.8438, 9.99898, 23.1118 ],
      "componentType" : 5126,
      "count" : 127,
      "type" : "VEC3"
    },
    {
      "bufferView" : 8,
      "componentType" : 5126,
      "count" : 127,
      "type" : "VEC3"
    },
    {
      "bufferView" : 9,
      "componentType" : 5126,
      "count" : 127,
      "type" : "VEC4"
    },
    {
      "bufferView" : 10,
      "componentType" : 5126,
      "count" : 127,
      "type" : "VEC2"
    },
    {
      "bufferView" : 11,
      "componentType" : 5126,
      "count" : 127,
      "type" : "VEC2"
    }
  ]
}
