{
  "asset" : {
    "generator" : "UE Viewer (umodel) build 1579 based",
    "version" : "2.0"
  },
  "scene" : 0,
  "scenes" : [
    {
      "nodes" : [ 0 ]
    }
  ],
  "nodes" : [
    {
      "name" : "S_Envi_Umeda_wall_05f",
      "mesh" : 0
    }
  ],
  "materials" : [
    {
      "name" : "MI_Envi_Umeda_Base_Building_02_A_01",
      "pbrMetallicRoughness" : {
        "baseColorFactor" : [ 0.3, 0.3, 0.3, 1.0 ],
        "metallicFactor" : 0.1,
        "roughnessFactor" : 0.5
      }
    }
  ],
  "meshes" : [
    {
      "primitives" : [
        {
          "attributes" : {
            "POSITION" : 1,
            "NORMAL" : 2,
            "TANGENT" : 3,
            "TEXCOORD_0" : 4,
            "TEXCOORD_1" : 5,
            "TEXCOORD_2" : 6,
            "TEXCOORD_3" : 7
          },
          "indices" : 0,
          "material" : 0
        }
      ],
      "name" : "S_Envi_Umeda_wall_05f"
    }
  ],
  "buffers" : [
    {
      "uri" : "S_Envi_Umeda_wall_05f.bin",
      "byteLength" : 6624
    }
  ],
  "bufferViews" : [
    {
      "buffer" : 0,
      "byteOffset" : 0,
      "byteLength" : 432
    },
    {
      "buffer" : 0,
      "byteOffset" : 432,
      "byteLength" : 1032
    },
    {
      "buffer" : 0,
      "byteOffset" : 1464,
      "byteLength" : 1032
    },
    {
      "buffer" : 0,
      "byteOffset" : 2496,
      "byteLength" : 1376
    },
    {
      "buffer" : 0,
      "byteOffset" : 3872,
      "byteLength" : 688
    },
    {
      "buffer" : 0,
      "byteOffset" : 4560,
      "byteLength" : 688
    },
    {
      "buffer" : 0,
      "byteOffset" : 5248,
      "byteLength" : 688
    },
    {
      "buffer" : 0,
      "byteOffset" : 5936,
      "byteLength" : 688
    }
  ],
  "accessors" : [
    {
      "bufferView" : 0,
      "componentType" : 5123,
      "count" : 216,
      "type" : "SCALAR"
    },
    {
      "bufferView" : 1,
      "min" : [ -1.79442, -1.90735e-08, -2.40015e-18 ],
      "max" : [ 0.0794054, 0.346793, 1.97221 ],
      "componentType" : 5126,
      "count" : 86,
      "type" : "VEC3"
    },
    {
      "bufferView" : 2,
      "componentType" : 5126,
      "count" : 86,
      "type" : "VEC3"
    },
    {
      "bufferView" : 3,
      "componentType" : 5126,
      "count" : 86,
      "type" : "VEC4"
    },
    {
      "bufferView" : 4,
      "componentType" : 5126,
      "count" : 86,
      "type" : "VEC2"
    },
    {
      "bufferView" : 5,
      "componentType" : 5126,
      "count" : 86,
      "type" : "VEC2"
    },
    {
      "bufferView" : 6,
      "componentType" : 5126,
      "count" : 86,
      "type" : "VEC2"
    },
    {
      "bufferView" : 7,
      "componentType" : 5126,
      "count" : 86,
      "type" : "VEC2"
    }
  ]
}
