{
  "asset" : {
    "generator" : "UE Viewer (umodel) build 1579 based",
    "version" : "2.0"
  },
  "scene" : 0,
  "scenes" : [
    {
      "nodes" : [ 0 ]
    }
  ],
  "nodes" : [
    {
      "name" : "S_Envi_Umeda_Building_003t",
      "mesh" : 0
    }
  ],
  "materials" : [
    {
      "name" : "MI_Envi_Umeda_Base_Building_01_A_02e",
      "pbrMetallicRoughness" : {
        "baseColorFactor" : [ 0.3, 0.3, 0.3, 1.0 ],
        "metallicFactor" : 0.1,
        "roughnessFactor" : 0.5
      }
    },
    {
      "name" : "MI_Envi_Umeda_Base_Ground_02b",
      "pbrMetallicRoughness" : {
        "baseColorFactor" : [ 0.9, 0.3, 0.3, 1.0 ],
        "metallicFactor" : 0.1,
        "roughnessFactor" : 0.5
      }
    },
    {
      "name" : "MI_Envi_Umeda_Base_Building_02_A_04b1",
      "pbrMetallicRoughness" : {
        "baseColorFactor" : [ 0.3, 0.9, 0.3, 1.0 ],
        "metallicFactor" : 0.1,
        "roughnessFactor" : 0.5
      }
    }
  ],
  "meshes" : [
    {
      "primitives" : [
        {
          "attributes" : {
            "POSITION" : 1,
            "NORMAL" : 2,
            "TANGENT" : 3,
            "TEXCOORD_0" : 4,
            "TEXCOORD_1" : 5,
            "TEXCOORD_2" : 6,
            "TEXCOORD_3" : 7
          },
          "indices" : 0,
          "material" : 0
        },
        {
          "attributes" : {
            "POSITION" : 9,
            "NORMAL" : 10,
            "TANGENT" : 11,
            "TEXCOORD_0" : 12,
            "TEXCOORD_1" : 13,
            "TEXCOORD_2" : 14,
            "TEXCOORD_3" : 15
          },
          "indices" : 8,
          "material" : 1
        },
        {
          "attributes" : {
            "POSITION" : 17,
            "NORMAL" : 18,
            "TANGENT" : 19,
            "TEXCOORD_0" : 20,
            "TEXCOORD_1" : 21,
            "TEXCOORD_2" : 22,
            "TEXCOORD_3" : 23
          },
          "indices" : 16,
          "material" : 2
        }
      ],
      "name" : "S_Envi_Umeda_Building_003t"
    }
  ],
  "buffers" : [
    {
      "uri" : "S_Envi_Umeda_Building_003t.bin",
      "byteLength" : 182148
    }
  ],
  "bufferViews" : [
    {
      "buffer" : 0,
      "byteOffset" : 0,
      "byteLength" : 4176
    },
    {
      "buffer" : 0,
      "byteOffset" : 4176,
      "byteLength" : 12192
    },
    {
      "buffer" : 0,
      "byteOffset" : 16368,
      "byteLength" : 12192
    },
    {
      "buffer" : 0,
      "byteOffset" : 28560,
      "byteLength" : 16256
    },
    {
      "buffer" : 0,
      "byteOffset" : 44816,
      "byteLength" : 8128
    },
    {
      "buffer" : 0,
      "byteOffset" : 52944,
      "byteLength" : 8128
    },
    {
      "buffer" : 0,
      "byteOffset" : 61072,
      "byteLength" : 8128
    },
    {
      "buffer" : 0,
      "byteOffset" : 69200,
      "byteLength" : 8128
    },
    {
      "buffer" : 0,
      "byteOffset" : 77328,
      "byteLength" : 372
    },
    {
      "buffer" : 0,
      "byteOffset" : 77700,
      "byteLength" : 720
    },
    {
      "buffer" : 0,
      "byteOffset" : 78420,
      "byteLength" : 720
    },
    {
      "buffer" : 0,
      "byteOffset" : 79140,
      "byteLength" : 960
    },
    {
      "buffer" : 0,
      "byteOffset" : 80100,
      "byteLength" : 480
    },
    {
      "buffer" : 0,
      "byteOffset" : 80580,
      "byteLength" : 480
    },
    {
      "buffer" : 0,
      "byteOffset" : 81060,
      "byteLength" : 480
    },
    {
      "buffer" : 0,
      "byteOffset" : 81540,
      "byteLength" : 480
    },
    {
      "buffer" : 0,
      "byteOffset" : 82020,
      "byteLength" : 4584
    },
    {
      "buffer" : 0,
      "byteOffset" : 86604,
      "byteLength" : 15924
    },
    {
      "buffer" : 0,
      "byteOffset" : 102528,
      "byteLength" : 15924
    },
    {
      "buffer" : 0,
      "byteOffset" : 118452,
      "byteLength" : 21232
    },
    {
      "buffer" : 0,
      "byteOffset" : 139684,
      "byteLength" : 10616
    },
    {
      "buffer" : 0,
      "byteOffset" : 150300,
      "byteLength" : 10616
    },
    {
      "buffer" : 0,
      "byteOffset" : 160916,
      "byteLength" : 10616
    },
    {
      "buffer" : 0,
      "byteOffset" : 171532,
      "byteLength" : 10616
    }
  ],
  "accessors" : [
    {
      "bufferView" : 0,
      "componentType" : 5123,
      "count" : 2088,
      "type" : "SCALAR"
    },
    {
      "bufferView" : 1,
      "min" : [ -0.974813, 0.226476, -14.6618 ],
      "max" : [ 21.305, 10.3979, 16.5859 ],
      "componentType" : 5126,
      "count" : 1016,
      "type" : "VEC3"
    },
    {
      "bufferView" : 2,
      "componentType" : 5126,
      "count" : 1016,
      "type" : "VEC3"
    },
    {
      "bufferView" : 3,
      "componentType" : 5126,
      "count" : 1016,
      "type" : "VEC4"
    },
    {
      "bufferView" : 4,
      "componentType" : 5126,
      "count" : 1016,
      "type" : "VEC2"
    },
    {
      "bufferView" : 5,
      "componentType" : 5126,
      "count" : 1016,
      "type" : "VEC2"
    },
    {
      "bufferView" : 6,
      "componentType" : 5126,
      "count" : 1016,
      "type" : "VEC2"
    },
    {
      "bufferView" : 7,
      "componentType" : 5126,
      "count" : 1016,
      "type" : "VEC2"
    },
    {
      "bufferView" : 8,
      "componentType" : 5123,
      "count" : 186,
      "type" : "SCALAR"
    },
    {
      "bufferView" : 9,
      "min" : [ -0.169719, 10.3978, -6.87669 ],
      "max" : [ 21.3526, 10.3978, 15.6481 ],
      "componentType" : 5126,
      "count" : 60,
      "type" : "VEC3"
    },
    {
      "bufferView" : 10,
      "componentType" : 5126,
      "count" : 60,
      "type" : "VEC3"
    },
    {
      "bufferView" : 11,
      "componentType" : 5126,
      "count" : 60,
      "type" : "VEC4"
    },
    {
      "bufferView" : 12,
      "componentType" : 5126,
      "count" : 60,
      "type" : "VEC2"
    },
    {
      "bufferView" : 13,
      "componentType" : 5126,
      "count" : 60,
      "type" : "VEC2"
    },
    {
      "bufferView" : 14,
      "componentType" : 5126,
      "count" : 60,
      "type" : "VEC2"
    },
    {
      "bufferView" : 15,
      "componentType" : 5126,
      "count" : 60,
      "type" : "VEC2"
    },
    {
      "bufferView" : 16,
      "componentType" : 5123,
      "count" : 2292,
      "type" : "SCALAR"
    },
    {
      "bufferView" : 17,
      "min" : [ -1.12414, -0.33725, -14.6868 ],
      "max" : [ 21.35, 11.0593, 16.6013 ],
      "componentType" : 5126,
      "count" : 1327,
      "type" : "VEC3"
    },
    {
      "bufferView" : 18,
      "componentType" : 5126,
      "count" : 1327,
      "type" : "VEC3"
    },
    {
      "bufferView" : 19,
      "componentType" : 5126,
      "count" : 1327,
      "type" : "VEC4"
    },
    {
      "bufferView" : 20,
      "componentType" : 5126,
      "count" : 1327,
      "type" : "VEC2"
    },
    {
      "bufferView" : 21,
      "componentType" : 5126,
      "count" : 1327,
      "type" : "VEC2"
    },
    {
      "bufferView" : 22,
      "componentType" : 5126,
      "count" : 1327,
      "type" : "VEC2"
    },
    {
      "bufferView" : 23,
      "componentType" : 5126,
      "count" : 1327,
      "type" : "VEC2"
    }
  ]
}
