{
  "asset" : {
    "generator" : "UE Viewer (umodel) build 1579 based",
    "version" : "2.0"
  },
  "scene" : 0,
  "scenes" : [
    {
      "nodes" : [ 0 ]
    }
  ],
  "nodes" : [
    {
      "name" : "S_Envi_Umeda_Building_013J",
      "mesh" : 0
    }
  ],
  "materials" : [
    {
      "name" : "MI_Envi_Umeda_Base_Building_03_A_04b",
      "pbrMetallicRoughness" : {
        "baseColorFactor" : [ 0.3, 0.3, 0.3, 1.0 ],
        "metallicFactor" : 0.1,
        "roughnessFactor" : 0.5
      }
    },
    {
      "name" : "MI_Envi_commontrim_09",
      "pbrMetallicRoughness" : {
        "baseColorFactor" : [ 0.9, 0.3, 0.3, 1.0 ],
        "metallicFactor" : 0.1,
        "roughnessFactor" : 0.5
      }
    },
    {
      "name" : "MI_Envi_commontrim_10",
      "pbrMetallicRoughness" : {
        "baseColorFactor" : [ 0.3, 0.9, 0.3, 1.0 ],
        "metallicFactor" : 0.1,
        "roughnessFactor" : 0.5
      }
    }
  ],
  "meshes" : [
    {
      "primitives" : [
        {
          "attributes" : {
            "POSITION" : 1,
            "NORMAL" : 2,
            "TANGENT" : 3,
            "TEXCOORD_0" : 4,
            "TEXCOORD_1" : 5,
            "TEXCOORD_2" : 6,
            "TEXCOORD_3" : 7
          },
          "indices" : 0,
          "material" : 0
        },
        {
          "attributes" : {
            "POSITION" : 9,
            "NORMAL" : 10,
            "TANGENT" : 11,
            "TEXCOORD_0" : 12,
            "TEXCOORD_1" : 13,
            "TEXCOORD_2" : 14,
            "TEXCOORD_3" : 15
          },
          "indices" : 8,
          "material" : 1
        },
        {
          "attributes" : {
            "POSITION" : 17,
            "NORMAL" : 18,
            "TANGENT" : 19,
            "TEXCOORD_0" : 20,
            "TEXCOORD_1" : 21,
            "TEXCOORD_2" : 22,
            "TEXCOORD_3" : 23
          },
          "indices" : 16,
          "material" : 2
        }
      ],
      "name" : "S_Envi_Umeda_Building_013J"
    }
  ],
  "buffers" : [
    {
      "uri" : "S_Envi_Umeda_Building_013J.bin",
      "byteLength" : 664756
    }
  ],
  "bufferViews" : [
    {
      "buffer" : 0,
      "byteOffset" : 0,
      "byteLength" : 560
    },
    {
      "buffer" : 0,
      "byteOffset" : 560,
      "byteLength" : 1992
    },
    {
      "buffer" : 0,
      "byteOffset" : 2552,
      "byteLength" : 1992
    },
    {
      "buffer" : 0,
      "byteOffset" : 4544,
      "byteLength" : 2656
    },
    {
      "buffer" : 0,
      "byteOffset" : 7200,
      "byteLength" : 1328
    },
    {
      "buffer" : 0,
      "byteOffset" : 8528,
      "byteLength" : 1328
    },
    {
      "buffer" : 0,
      "byteOffset" : 9856,
      "byteLength" : 1328
    },
    {
      "buffer" : 0,
      "byteOffset" : 11184,
      "byteLength" : 1328
    },
    {
      "buffer" : 0,
      "byteOffset" : 12512,
      "byteLength" : 716
    },
    {
      "buffer" : 0,
      "byteOffset" : 13228,
      "byteLength" : 2916
    },
    {
      "buffer" : 0,
      "byteOffset" : 16144,
      "byteLength" : 2916
    },
    {
      "buffer" : 0,
      "byteOffset" : 19060,
      "byteLength" : 3888
    },
    {
      "buffer" : 0,
      "byteOffset" : 22948,
      "byteLength" : 1944
    },
    {
      "buffer" : 0,
      "byteOffset" : 24892,
      "byteLength" : 1944
    },
    {
      "buffer" : 0,
      "byteOffset" : 26836,
      "byteLength" : 1944
    },
    {
      "buffer" : 0,
      "byteOffset" : 28780,
      "byteLength" : 1944
    },
    {
      "buffer" : 0,
      "byteOffset" : 30724,
      "byteLength" : 23544
    },
    {
      "buffer" : 0,
      "byteOffset" : 54268,
      "byteLength" : 101748
    },
    {
      "buffer" : 0,
      "byteOffset" : 156016,
      "byteLength" : 101748
    },
    {
      "buffer" : 0,
      "byteOffset" : 257764,
      "byteLength" : 135664
    },
    {
      "buffer" : 0,
      "byteOffset" : 393428,
      "byteLength" : 67832
    },
    {
      "buffer" : 0,
      "byteOffset" : 461260,
      "byteLength" : 67832
    },
    {
      "buffer" : 0,
      "byteOffset" : 529092,
      "byteLength" : 67832
    },
    {
      "buffer" : 0,
      "byteOffset" : 596924,
      "byteLength" : 67832
    }
  ],
  "accessors" : [
    {
      "bufferView" : 0,
      "componentType" : 5123,
      "count" : 279,
      "type" : "SCALAR"
    },
    {
      "bufferView" : 1,
      "min" : [ 21.2637, 1.24272, -27.8546 ],
      "max" : [ 45.3361, 17.247, -1.84718 ],
      "componentType" : 5126,
      "count" : 166,
      "type" : "VEC3"
    },
    {
      "bufferView" : 2,
      "componentType" : 5126,
      "count" : 166,
      "type" : "VEC3"
    },
    {
      "bufferView" : 3,
      "componentType" : 5126,
      "count" : 166,
      "type" : "VEC4"
    },
    {
      "bufferView" : 4,
      "componentType" : 5126,
      "count" : 166,
      "type" : "VEC2"
    },
    {
      "bufferView" : 5,
      "componentType" : 5126,
      "count" : 166,
      "type" : "VEC2"
    },
    {
      "bufferView" : 6,
      "componentType" : 5126,
      "count" : 166,
      "type" : "VEC2"
    },
    {
      "bufferView" : 7,
      "componentType" : 5126,
      "count" : 166,
      "type" : "VEC2"
    },
    {
      "bufferView" : 8,
      "componentType" : 5123,
      "count" : 357,
      "type" : "SCALAR"
    },
    {
      "bufferView" : 9,
      "min" : [ 20.0659, 3.94716, -30.0347 ],
      "max" : [ 46.7137, 23.6238, -0.714207 ],
      "componentType" : 5126,
      "count" : 243,
      "type" : "VEC3"
    },
    {
      "bufferView" : 10,
      "componentType" : 5126,
      "count" : 243,
      "type" : "VEC3"
    },
    {
      "bufferView" : 11,
      "componentType" : 5126,
      "count" : 243,
      "type" : "VEC4"
    },
    {
      "bufferView" : 12,
      "componentType" : 5126,
      "count" : 243,
      "type" : "VEC2"
    },
    {
      "bufferView" : 13,
      "componentType" : 5126,
      "count" : 243,
      "type" : "VEC2"
    },
    {
      "bufferView" : 14,
      "componentType" : 5126,
      "count" : 243,
      "type" : "VEC2"
    },
    {
      "bufferView" : 15,
      "componentType" : 5126,
      "count" : 243,
      "type" : "VEC2"
    },
    {
      "bufferView" : 16,
      "componentType" : 5123,
      "count" : 11772,
      "type" : "SCALAR"
    },
    {
      "bufferView" : 17,
      "min" : [ 20.0405, 0.0811434, -30.0792 ],
      "max" : [ 46.7709, 23.7561, -0.682874 ],
      "componentType" : 5126,
      "count" : 8479,
      "type" : "VEC3"
    },
    {
      "bufferView" : 18,
      "componentType" : 5126,
      "count" : 8479,
      "type" : "VEC3"
    },
    {
      "bufferView" : 19,
      "componentType" : 5126,
      "count" : 8479,
      "type" : "VEC4"
    },
    {
      "bufferView" : 20,
      "componentType" : 5126,
      "count" : 8479,
      "type" : "VEC2"
    },
    {
      "bufferView" : 21,
      "componentType" : 5126,
      "count" : 8479,
      "type" : "VEC2"
    },
    {
      "bufferView" : 22,
      "componentType" : 5126,
      "count" : 8479,
      "type" : "VEC2"
    },
    {
      "bufferView" : 23,
      "componentType" : 5126,
      "count" : 8479,
      "type" : "VEC2"
    }
  ]
}
