{
  "asset" : {
    "generator" : "UE Viewer (umodel) build 1579 based",
    "version" : "2.0"
  },
  "scene" : 0,
  "scenes" : [
    {
      "nodes" : [ 0 ]
    }
  ],
  "nodes" : [
    {
      "name" : "S_Envi_Umeda_Prop_Platform_13",
      "mesh" : 0
    }
  ],
  "materials" : [
    {
      "name" : "MI_Envi_Umeda_Prop_Frame_03",
      "pbrMetallicRoughness" : {
        "baseColorFactor" : [ 0.3, 0.3, 0.3, 1.0 ],
        "metallicFactor" : 0.1,
        "roughnessFactor" : 0.5
      }
    }
  ],
  "meshes" : [
    {
      "primitives" : [
        {
          "attributes" : {
            "POSITION" : 1,
            "NORMAL" : 2,
            "TANGENT" : 3,
            "TEXCOORD_0" : 4,
            "TEXCOORD_1" : 5
          },
          "indices" : 0,
          "material" : 0
        }
      ],
      "name" : "S_Envi_Umeda_Prop_Platform_13"
    }
  ],
  "buffers" : [
    {
      "uri" : "S_Envi_Umeda_Prop_Platform_13.bin",
      "byteLength" : 514020
    }
  ],
  "bufferViews" : [
    {
      "buffer" : 0,
      "byteOffset" : 0,
      "byteLength" : 29844
    },
    {
      "buffer" : 0,
      "byteOffset" : 29844,
      "byteLength" : 103752
    },
    {
      "buffer" : 0,
      "byteOffset" : 133596,
      "byteLength" : 103752
    },
    {
      "buffer" : 0,
      "byteOffset" : 237348,
      "byteLength" : 138336
    },
    {
      "buffer" : 0,
      "byteOffset" : 375684,
      "byteLength" : 69168
    },
    {
      "buffer" : 0,
      "byteOffset" : 444852,
      "byteLength" : 69168
    }
  ],
  "accessors" : [
    {
      "bufferView" : 0,
      "componentType" : 5123,
      "count" : 14922,
      "type" : "SCALAR"
    },
    {
      "bufferView" : 1,
      "min" : [ -35.2206, 14.0825, 2.21947 ],
      "max" : [ -8.54259, 15.9622, 16.0081 ],
      "componentType" : 5126,
      "count" : 8646,
      "type" : "VEC3"
    },
    {
      "bufferView" : 2,
      "componentType" : 5126,
      "count" : 8646,
      "type" : "VEC3"
    },
    {
      "bufferView" : 3,
      "componentType" : 5126,
      "count" : 8646,
      "type" : "VEC4"
    },
    {
      "bufferView" : 4,
      "componentType" : 5126,
      "count" : 8646,
      "type" : "VEC2"
    },
    {
      "bufferView" : 5,
      "componentType" : 5126,
      "count" : 8646,
      "type" : "VEC2"
    }
  ]
}
