{
  "asset" : {
    "generator" : "UE Viewer (umodel) build 1579 based",
    "version" : "2.0"
  },
  "scene" : 0,
  "scenes" : [
    {
      "nodes" : [ 0 ]
    }
  ],
  "nodes" : [
    {
      "name" : "S_Envi_Umeda_japan_Tile_01_G",
      "mesh" : 0
    }
  ],
  "materials" : [
    {
      "name" : "MI_Envi_Umeda_japan_Temple_02",
      "pbrMetallicRoughness" : {
        "baseColorFactor" : [ 0.3, 0.3, 0.3, 1.0 ],
        "metallicFactor" : 0.1,
        "roughnessFactor" : 0.5
      }
    }
  ],
  "meshes" : [
    {
      "primitives" : [
        {
          "attributes" : {
            "POSITION" : 1,
            "NORMAL" : 2,
            "TANGENT" : 3,
            "TEXCOORD_0" : 4,
            "TEXCOORD_1" : 5
          },
          "indices" : 0,
          "material" : 0
        }
      ],
      "name" : "S_Envi_Umeda_japan_Tile_01_G"
    }
  ],
  "buffers" : [
    {
      "uri" : "S_Envi_Umeda_japan_Tile_01_G.bin",
      "byteLength" : 28932
    }
  ],
  "bufferViews" : [
    {
      "buffer" : 0,
      "byteOffset" : 0,
      "byteLength" : 2052
    },
    {
      "buffer" : 0,
      "byteOffset" : 2052,
      "byteLength" : 5760
    },
    {
      "buffer" : 0,
      "byteOffset" : 7812,
      "byteLength" : 5760
    },
    {
      "buffer" : 0,
      "byteOffset" : 13572,
      "byteLength" : 7680
    },
    {
      "buffer" : 0,
      "byteOffset" : 21252,
      "byteLength" : 3840
    },
    {
      "buffer" : 0,
      "byteOffset" : 25092,
      "byteLength" : 3840
    }
  ],
  "accessors" : [
    {
      "bufferView" : 0,
      "componentType" : 5123,
      "count" : 1026,
      "type" : "SCALAR"
    },
    {
      "bufferView" : 1,
      "min" : [ -4.64082, -0.282655, -3.02962 ],
      "max" : [ 1.52588e-06, 2.1377, 0.269917 ],
      "componentType" : 5126,
      "count" : 480,
      "type" : "VEC3"
    },
    {
      "bufferView" : 2,
      "componentType" : 5126,
      "count" : 480,
      "type" : "VEC3"
    },
    {
      "bufferView" : 3,
      "componentType" : 5126,
      "count" : 480,
      "type" : "VEC4"
    },
    {
      "bufferView" : 4,
      "componentType" : 5126,
      "count" : 480,
      "type" : "VEC2"
    },
    {
      "bufferView" : 5,
      "componentType" : 5126,
      "count" : 480,
      "type" : "VEC2"
    }
  ]
}
