{
  "asset" : {
    "generator" : "UE Viewer (umodel) build 1579 based",
    "version" : "2.0"
  },
  "scene" : 0,
  "scenes" : [
    {
      "nodes" : [ 0 ]
    }
  ],
  "nodes" : [
    {
      "name" : "S_Envi_Umeda_Japan_Wall_Merge_10",
      "mesh" : 0
    }
  ],
  "materials" : [
    {
      "name" : "MI_Envi_Umeda_japan_Temple_09c",
      "pbrMetallicRoughness" : {
        "baseColorFactor" : [ 0.3, 0.3, 0.3, 1.0 ],
        "metallicFactor" : 0.1,
        "roughnessFactor" : 0.5
      }
    }
  ],
  "meshes" : [
    {
      "primitives" : [
        {
          "attributes" : {
            "POSITION" : 1,
            "NORMAL" : 2,
            "TANGENT" : 3,
            "TEXCOORD_0" : 4,
            "TEXCOORD_1" : 5,
            "TEXCOORD_2" : 6,
            "TEXCOORD_3" : 7
          },
          "indices" : 0,
          "material" : 0
        }
      ],
      "name" : "S_Envi_Umeda_Japan_Wall_Merge_10"
    }
  ],
  "buffers" : [
    {
      "uri" : "S_Envi_Umeda_Japan_Wall_Merge_10.bin",
      "byteLength" : 13800
    }
  ],
  "bufferViews" : [
    {
      "buffer" : 0,
      "byteOffset" : 0,
      "byteLength" : 552
    },
    {
      "buffer" : 0,
      "byteOffset" : 552,
      "byteLength" : 2208
    },
    {
      "buffer" : 0,
      "byteOffset" : 2760,
      "byteLength" : 2208
    },
    {
      "buffer" : 0,
      "byteOffset" : 4968,
      "byteLength" : 2944
    },
    {
      "buffer" : 0,
      "byteOffset" : 7912,
      "byteLength" : 1472
    },
    {
      "buffer" : 0,
      "byteOffset" : 9384,
      "byteLength" : 1472
    },
    {
      "buffer" : 0,
      "byteOffset" : 10856,
      "byteLength" : 1472
    },
    {
      "buffer" : 0,
      "byteOffset" : 12328,
      "byteLength" : 1472
    }
  ],
  "accessors" : [
    {
      "bufferView" : 0,
      "componentType" : 5123,
      "count" : 276,
      "type" : "SCALAR"
    },
    {
      "bufferView" : 1,
      "min" : [ -1.31413, 0.0436686, -0.0956522 ],
      "max" : [ 0.00984467, 3.78451, 0.0956515 ],
      "componentType" : 5126,
      "count" : 184,
      "type" : "VEC3"
    },
    {
      "bufferView" : 2,
      "componentType" : 5126,
      "count" : 184,
      "type" : "VEC3"
    },
    {
      "bufferView" : 3,
      "componentType" : 5126,
      "count" : 184,
      "type" : "VEC4"
    },
    {
      "bufferView" : 4,
      "componentType" : 5126,
      "count" : 184,
      "type" : "VEC2"
    },
    {
      "bufferView" : 5,
      "componentType" : 5126,
      "count" : 184,
      "type" : "VEC2"
    },
    {
      "bufferView" : 6,
      "componentType" : 5126,
      "count" : 184,
      "type" : "VEC2"
    },
    {
      "bufferView" : 7,
      "componentType" : 5126,
      "count" : 184,
      "type" : "VEC2"
    }
  ]
}
