{
  "asset" : {
    "generator" : "UE Viewer (umodel) build 1579 based",
    "version" : "2.0"
  },
  "scene" : 0,
  "scenes" : [
    {
      "nodes" : [ 0 ]
    }
  ],
  "nodes" : [
    {
      "name" : "S_Envi_Umeda_Building_002a",
      "mesh" : 0
    }
  ],
  "materials" : [
    {
      "name" : "MI_Envi_Umeda_Base_Building_02_A_01",
      "pbrMetallicRoughness" : {
        "baseColorFactor" : [ 0.3, 0.3, 0.3, 1.0 ],
        "metallicFactor" : 0.1,
        "roughnessFactor" : 0.5
      }
    },
    {
      "name" : "MI_Envi_Umeda_Base_Building_02_A_04c_D",
      "pbrMetallicRoughness" : {
        "baseColorFactor" : [ 0.9, 0.3, 0.3, 1.0 ],
        "metallicFactor" : 0.1,
        "roughnessFactor" : 0.5
      }
    }
  ],
  "meshes" : [
    {
      "primitives" : [
        {
          "attributes" : {
            "POSITION" : 1,
            "NORMAL" : 2,
            "TANGENT" : 3,
            "TEXCOORD_0" : 4,
            "TEXCOORD_1" : 5
          },
          "indices" : 0,
          "material" : 0
        },
        {
          "attributes" : {
            "POSITION" : 7,
            "NORMAL" : 8,
            "TANGENT" : 9,
            "TEXCOORD_0" : 10,
            "TEXCOORD_1" : 11
          },
          "indices" : 6,
          "material" : 1
        }
      ],
      "name" : "S_Envi_Umeda_Building_002a"
    }
  ],
  "buffers" : [
    {
      "uri" : "S_Envi_Umeda_Building_002a.bin",
      "byteLength" : 220240
    }
  ],
  "bufferViews" : [
    {
      "buffer" : 0,
      "byteOffset" : 0,
      "byteLength" : 7692
    },
    {
      "buffer" : 0,
      "byteOffset" : 7692,
      "byteLength" : 21708
    },
    {
      "buffer" : 0,
      "byteOffset" : 29400,
      "byteLength" : 21708
    },
    {
      "buffer" : 0,
      "byteOffset" : 51108,
      "byteLength" : 28944
    },
    {
      "buffer" : 0,
      "byteOffset" : 80052,
      "byteLength" : 14472
    },
    {
      "buffer" : 0,
      "byteOffset" : 94524,
      "byteLength" : 14472
    },
    {
      "buffer" : 0,
      "byteOffset" : 108996,
      "byteLength" : 7980
    },
    {
      "buffer" : 0,
      "byteOffset" : 116976,
      "byteLength" : 22128
    },
    {
      "buffer" : 0,
      "byteOffset" : 139104,
      "byteLength" : 22128
    },
    {
      "buffer" : 0,
      "byteOffset" : 161232,
      "byteLength" : 29504
    },
    {
      "buffer" : 0,
      "byteOffset" : 190736,
      "byteLength" : 14752
    },
    {
      "buffer" : 0,
      "byteOffset" : 205488,
      "byteLength" : 14752
    }
  ],
  "accessors" : [
    {
      "bufferView" : 0,
      "componentType" : 5123,
      "count" : 3846,
      "type" : "SCALAR"
    },
    {
      "bufferView" : 1,
      "min" : [ -34.0577, 15.7135, -57.4018 ],
      "max" : [ -1.40651, 22.8052, -31.5075 ],
      "componentType" : 5126,
      "count" : 1809,
      "type" : "VEC3"
    },
    {
      "bufferView" : 2,
      "componentType" : 5126,
      "count" : 1809,
      "type" : "VEC3"
    },
    {
      "bufferView" : 3,
      "componentType" : 5126,
      "count" : 1809,
      "type" : "VEC4"
    },
    {
      "bufferView" : 4,
      "componentType" : 5126,
      "count" : 1809,
      "type" : "VEC2"
    },
    {
      "bufferView" : 5,
      "componentType" : 5126,
      "count" : 1809,
      "type" : "VEC2"
    },
    {
      "bufferView" : 6,
      "componentType" : 5123,
      "count" : 3990,
      "type" : "SCALAR"
    },
    {
      "bufferView" : 7,
      "min" : [ -34.2892, 15.5436, -67.4708 ],
      "max" : [ -0.736318, 24.8773, -31.3919 ],
      "componentType" : 5126,
      "count" : 1844,
      "type" : "VEC3"
    },
    {
      "bufferView" : 8,
      "componentType" : 5126,
      "count" : 1844,
      "type" : "VEC3"
    },
    {
      "bufferView" : 9,
      "componentType" : 5126,
      "count" : 1844,
      "type" : "VEC4"
    },
    {
      "bufferView" : 10,
      "componentType" : 5126,
      "count" : 1844,
      "type" : "VEC2"
    },
    {
      "bufferView" : 11,
      "componentType" : 5126,
      "count" : 1844,
      "type" : "VEC2"
    }
  ]
}
