{
  "asset" : {
    "generator" : "UE Viewer (umodel) build 1579 based",
    "version" : "2.0"
  },
  "scene" : 0,
  "scenes" : [
    {
      "nodes" : [ 0 ]
    }
  ],
  "nodes" : [
    {
      "name" : "S_Envi_Umeda_japan_Tile_01_I",
      "mesh" : 0
    }
  ],
  "materials" : [
    {
      "name" : "MI_Envi_Umeda_japan_Temple_02",
      "pbrMetallicRoughness" : {
        "baseColorFactor" : [ 0.3, 0.3, 0.3, 1.0 ],
        "metallicFactor" : 0.1,
        "roughnessFactor" : 0.5
      }
    }
  ],
  "meshes" : [
    {
      "primitives" : [
        {
          "attributes" : {
            "POSITION" : 1,
            "NORMAL" : 2,
            "TANGENT" : 3,
            "TEXCOORD_0" : 4,
            "TEXCOORD_1" : 5
          },
          "indices" : 0,
          "material" : 0
        }
      ],
      "name" : "S_Envi_Umeda_japan_Tile_01_I"
    }
  ],
  "buffers" : [
    {
      "uri" : "S_Envi_Umeda_japan_Tile_01_I.bin",
      "byteLength" : 57256
    }
  ],
  "bufferViews" : [
    {
      "buffer" : 0,
      "byteOffset" : 0,
      "byteLength" : 4392
    },
    {
      "buffer" : 0,
      "byteOffset" : 4392,
      "byteLength" : 11328
    },
    {
      "buffer" : 0,
      "byteOffset" : 15720,
      "byteLength" : 11328
    },
    {
      "buffer" : 0,
      "byteOffset" : 27048,
      "byteLength" : 15104
    },
    {
      "buffer" : 0,
      "byteOffset" : 42152,
      "byteLength" : 7552
    },
    {
      "buffer" : 0,
      "byteOffset" : 49704,
      "byteLength" : 7552
    }
  ],
  "accessors" : [
    {
      "bufferView" : 0,
      "componentType" : 5123,
      "count" : 2196,
      "type" : "SCALAR"
    },
    {
      "bufferView" : 1,
      "min" : [ -4.4231, -0.282654, -3.16029 ],
      "max" : [ 1.67847e-05, 2.42719, 0.527021 ],
      "componentType" : 5126,
      "count" : 944,
      "type" : "VEC3"
    },
    {
      "bufferView" : 2,
      "componentType" : 5126,
      "count" : 944,
      "type" : "VEC3"
    },
    {
      "bufferView" : 3,
      "componentType" : 5126,
      "count" : 944,
      "type" : "VEC4"
    },
    {
      "bufferView" : 4,
      "componentType" : 5126,
      "count" : 944,
      "type" : "VEC2"
    },
    {
      "bufferView" : 5,
      "componentType" : 5126,
      "count" : 944,
      "type" : "VEC2"
    }
  ]
}
