{
  "asset" : {
    "generator" : "UE Viewer (umodel) build 1579 based",
    "version" : "2.0"
  },
  "scene" : 0,
  "scenes" : [
    {
      "nodes" : [ 0 ]
    }
  ],
  "nodes" : [
    {
      "name" : "S_Envi_Umeda_hall_85_F",
      "mesh" : 0
    }
  ],
  "materials" : [
    {
      "name" : "MI_Envi_QYDX_L1_03a_03",
      "pbrMetallicRoughness" : {
        "baseColorFactor" : [ 0.3, 0.3, 0.3, 1.0 ],
        "metallicFactor" : 0.1,
        "roughnessFactor" : 0.5
      }
    },
    {
      "name" : "MI_TrimCommercial1_Dark",
      "pbrMetallicRoughness" : {
        "baseColorFactor" : [ 0.9, 0.3, 0.3, 1.0 ],
        "metallicFactor" : 0.1,
        "roughnessFactor" : 0.5
      }
    },
    {
      "name" : "MI_Envi_Umeda_Base_Ladder_01",
      "pbrMetallicRoughness" : {
        "baseColorFactor" : [ 0.3, 0.9, 0.3, 1.0 ],
        "metallicFactor" : 0.1,
        "roughnessFactor" : 0.5
      }
    }
  ],
  "meshes" : [
    {
      "primitives" : [
        {
          "attributes" : {
            "POSITION" : 1,
            "NORMAL" : 2,
            "TANGENT" : 3,
            "TEXCOORD_0" : 4,
            "TEXCOORD_1" : 5
          },
          "indices" : 0,
          "material" : 0
        },
        {
          "attributes" : {
            "POSITION" : 7,
            "NORMAL" : 8,
            "TANGENT" : 9,
            "TEXCOORD_0" : 10,
            "TEXCOORD_1" : 11
          },
          "indices" : 6,
          "material" : 1
        },
        {
          "attributes" : {
            "POSITION" : 13,
            "NORMAL" : 14,
            "TANGENT" : 15,
            "TEXCOORD_0" : 16,
            "TEXCOORD_1" : 17
          },
          "indices" : 12,
          "material" : 2
        }
      ],
      "name" : "S_Envi_Umeda_hall_85_F"
    }
  ],
  "buffers" : [
    {
      "uri" : "S_Envi_Umeda_hall_85_F.bin",
      "byteLength" : 24332
    }
  ],
  "bufferViews" : [
    {
      "buffer" : 0,
      "byteOffset" : 0,
      "byteLength" : 240
    },
    {
      "buffer" : 0,
      "byteOffset" : 240,
      "byteLength" : 864
    },
    {
      "buffer" : 0,
      "byteOffset" : 1104,
      "byteLength" : 864
    },
    {
      "buffer" : 0,
      "byteOffset" : 1968,
      "byteLength" : 1152
    },
    {
      "buffer" : 0,
      "byteOffset" : 3120,
      "byteLength" : 576
    },
    {
      "buffer" : 0,
      "byteOffset" : 3696,
      "byteLength" : 576
    },
    {
      "buffer" : 0,
      "byteOffset" : 4272,
      "byteLength" : 60
    },
    {
      "buffer" : 0,
      "byteOffset" : 4332,
      "byteLength" : 240
    },
    {
      "buffer" : 0,
      "byteOffset" : 4572,
      "byteLength" : 240
    },
    {
      "buffer" : 0,
      "byteOffset" : 4812,
      "byteLength" : 320
    },
    {
      "buffer" : 0,
      "byteOffset" : 5132,
      "byteLength" : 160
    },
    {
      "buffer" : 0,
      "byteOffset" : 5292,
      "byteLength" : 160
    },
    {
      "buffer" : 0,
      "byteOffset" : 5452,
      "byteLength" : 960
    },
    {
      "buffer" : 0,
      "byteOffset" : 6412,
      "byteLength" : 3840
    },
    {
      "buffer" : 0,
      "byteOffset" : 10252,
      "byteLength" : 3840
    },
    {
      "buffer" : 0,
      "byteOffset" : 14092,
      "byteLength" : 5120
    },
    {
      "buffer" : 0,
      "byteOffset" : 19212,
      "byteLength" : 2560
    },
    {
      "buffer" : 0,
      "byteOffset" : 21772,
      "byteLength" : 2560
    }
  ],
  "accessors" : [
    {
      "bufferView" : 0,
      "componentType" : 5123,
      "count" : 120,
      "type" : "SCALAR"
    },
    {
      "bufferView" : 1,
      "min" : [ 2.98149, -5.52583, -3.525 ],
      "max" : [ 10.9296, 0.015038, 3.975 ],
      "componentType" : 5126,
      "count" : 72,
      "type" : "VEC3"
    },
    {
      "bufferView" : 2,
      "componentType" : 5126,
      "count" : 72,
      "type" : "VEC3"
    },
    {
      "bufferView" : 3,
      "componentType" : 5126,
      "count" : 72,
      "type" : "VEC4"
    },
    {
      "bufferView" : 4,
      "componentType" : 5126,
      "count" : 72,
      "type" : "VEC2"
    },
    {
      "bufferView" : 5,
      "componentType" : 5126,
      "count" : 72,
      "type" : "VEC2"
    },
    {
      "bufferView" : 6,
      "componentType" : 5123,
      "count" : 30,
      "type" : "SCALAR"
    },
    {
      "bufferView" : 7,
      "min" : [ 3.42372, -4.36458, -3.24881 ],
      "max" : [ 6.08277, -2.48692, 3.69881 ],
      "componentType" : 5126,
      "count" : 20,
      "type" : "VEC3"
    },
    {
      "bufferView" : 8,
      "componentType" : 5126,
      "count" : 20,
      "type" : "VEC3"
    },
    {
      "bufferView" : 9,
      "componentType" : 5126,
      "count" : 20,
      "type" : "VEC4"
    },
    {
      "bufferView" : 10,
      "componentType" : 5126,
      "count" : 20,
      "type" : "VEC2"
    },
    {
      "bufferView" : 11,
      "componentType" : 5126,
      "count" : 20,
      "type" : "VEC2"
    },
    {
      "bufferView" : 12,
      "componentType" : 5123,
      "count" : 480,
      "type" : "SCALAR"
    },
    {
      "bufferView" : 13,
      "min" : [ 6.36031, -5.01419, -3.14761 ],
      "max" : [ 10.9332, 0.0150388, 3.67961 ],
      "componentType" : 5126,
      "count" : 320,
      "type" : "VEC3"
    },
    {
      "bufferView" : 14,
      "componentType" : 5126,
      "count" : 320,
      "type" : "VEC3"
    },
    {
      "bufferView" : 15,
      "componentType" : 5126,
      "count" : 320,
      "type" : "VEC4"
    },
    {
      "bufferView" : 16,
      "componentType" : 5126,
      "count" : 320,
      "type" : "VEC2"
    },
    {
      "bufferView" : 17,
      "componentType" : 5126,
      "count" : 320,
      "type" : "VEC2"
    }
  ]
}
