{
  "asset" : {
    "generator" : "UE Viewer (umodel) build 1579 based",
    "version" : "2.0"
  },
  "scene" : 0,
  "scenes" : [
    {
      "nodes" : [ 0 ]
    }
  ],
  "nodes" : [
    {
      "name" : "S_Envi_Umeda_Building_011w",
      "mesh" : 0
    }
  ],
  "materials" : [
    {
      "name" : "MI_Envi_Umeda_japan_Temple_02",
      "pbrMetallicRoughness" : {
        "baseColorFactor" : [ 0.3, 0.3, 0.3, 1.0 ],
        "metallicFactor" : 0.1,
        "roughnessFactor" : 0.5
      }
    }
  ],
  "meshes" : [
    {
      "primitives" : [
        {
          "attributes" : {
            "POSITION" : 1,
            "NORMAL" : 2,
            "TANGENT" : 3,
            "TEXCOORD_0" : 4,
            "TEXCOORD_1" : 5,
            "TEXCOORD_2" : 6,
            "TEXCOORD_3" : 7
          },
          "indices" : 0,
          "material" : 0
        }
      ],
      "name" : "S_Envi_Umeda_Building_011w"
    }
  ],
  "buffers" : [
    {
      "uri" : "S_Envi_Umeda_Building_011w.bin",
      "byteLength" : 510480
    }
  ],
  "bufferViews" : [
    {
      "buffer" : 0,
      "byteOffset" : 0,
      "byteLength" : 29952
    },
    {
      "buffer" : 0,
      "byteOffset" : 29952,
      "byteLength" : 80088
    },
    {
      "buffer" : 0,
      "byteOffset" : 110040,
      "byteLength" : 80088
    },
    {
      "buffer" : 0,
      "byteOffset" : 190128,
      "byteLength" : 106784
    },
    {
      "buffer" : 0,
      "byteOffset" : 296912,
      "byteLength" : 53392
    },
    {
      "buffer" : 0,
      "byteOffset" : 350304,
      "byteLength" : 53392
    },
    {
      "buffer" : 0,
      "byteOffset" : 403696,
      "byteLength" : 53392
    },
    {
      "buffer" : 0,
      "byteOffset" : 457088,
      "byteLength" : 53392
    }
  ],
  "accessors" : [
    {
      "bufferView" : 0,
      "componentType" : 5123,
      "count" : 14976,
      "type" : "SCALAR"
    },
    {
      "bufferView" : 1,
      "min" : [ -63.2375, 16.7161, -67.7372 ],
      "max" : [ -33.3699, 23.1046, -48.6681 ],
      "componentType" : 5126,
      "count" : 6674,
      "type" : "VEC3"
    },
    {
      "bufferView" : 2,
      "componentType" : 5126,
      "count" : 6674,
      "type" : "VEC3"
    },
    {
      "bufferView" : 3,
      "componentType" : 5126,
      "count" : 6674,
      "type" : "VEC4"
    },
    {
      "bufferView" : 4,
      "componentType" : 5126,
      "count" : 6674,
      "type" : "VEC2"
    },
    {
      "bufferView" : 5,
      "componentType" : 5126,
      "count" : 6674,
      "type" : "VEC2"
    },
    {
      "bufferView" : 6,
      "componentType" : 5126,
      "count" : 6674,
      "type" : "VEC2"
    },
    {
      "bufferView" : 7,
      "componentType" : 5126,
      "count" : 6674,
      "type" : "VEC2"
    }
  ]
}
