{
  "asset" : {
    "generator" : "UE Viewer (umodel) build 1579 based",
    "version" : "2.0"
  },
  "scene" : 0,
  "scenes" : [
    {
      "nodes" : [ 0 ]
    }
  ],
  "nodes" : [
    {
      "name" : "S_Envi_Umeda_Building_011k",
      "mesh" : 0
    }
  ],
  "materials" : [
    {
      "name" : "MI_Envi_Umeda_japan_Temple_09c",
      "pbrMetallicRoughness" : {
        "baseColorFactor" : [ 0.3, 0.3, 0.3, 1.0 ],
        "metallicFactor" : 0.1,
        "roughnessFactor" : 0.5
      }
    },
    {
      "name" : "MI_Envi_Umeda_japan_Temple_08",
      "pbrMetallicRoughness" : {
        "baseColorFactor" : [ 0.9, 0.3, 0.3, 1.0 ],
        "metallicFactor" : 0.1,
        "roughnessFactor" : 0.5
      }
    },
    {
      "name" : "MI_Envi_Umeda_japan_Temple_01",
      "pbrMetallicRoughness" : {
        "baseColorFactor" : [ 0.3, 0.9, 0.3, 1.0 ],
        "metallicFactor" : 0.1,
        "roughnessFactor" : 0.5
      }
    }
  ],
  "meshes" : [
    {
      "primitives" : [
        {
          "attributes" : {
            "POSITION" : 1,
            "NORMAL" : 2,
            "TANGENT" : 3,
            "TEXCOORD_0" : 4,
            "TEXCOORD_1" : 5
          },
          "indices" : 0,
          "material" : 0
        },
        {
          "attributes" : {
            "POSITION" : 7,
            "NORMAL" : 8,
            "TANGENT" : 9,
            "TEXCOORD_0" : 10,
            "TEXCOORD_1" : 11
          },
          "indices" : 6,
          "material" : 1
        },
        {
          "attributes" : {
            "POSITION" : 13,
            "NORMAL" : 14,
            "TANGENT" : 15,
            "TEXCOORD_0" : 16,
            "TEXCOORD_1" : 17
          },
          "indices" : 12,
          "material" : 2
        }
      ],
      "name" : "S_Envi_Umeda_Building_011k"
    }
  ],
  "buffers" : [
    {
      "uri" : "S_Envi_Umeda_Building_011k.bin",
      "byteLength" : 318596
    }
  ],
  "bufferViews" : [
    {
      "buffer" : 0,
      "byteOffset" : 0,
      "byteLength" : 15600
    },
    {
      "buffer" : 0,
      "byteOffset" : 15600,
      "byteLength" : 61944
    },
    {
      "buffer" : 0,
      "byteOffset" : 77544,
      "byteLength" : 61944
    },
    {
      "buffer" : 0,
      "byteOffset" : 139488,
      "byteLength" : 82592
    },
    {
      "buffer" : 0,
      "byteOffset" : 222080,
      "byteLength" : 41296
    },
    {
      "buffer" : 0,
      "byteOffset" : 263376,
      "byteLength" : 41296
    },
    {
      "buffer" : 0,
      "byteOffset" : 304672,
      "byteLength" : 144
    },
    {
      "buffer" : 0,
      "byteOffset" : 304816,
      "byteLength" : 576
    },
    {
      "buffer" : 0,
      "byteOffset" : 305392,
      "byteLength" : 576
    },
    {
      "buffer" : 0,
      "byteOffset" : 305968,
      "byteLength" : 768
    },
    {
      "buffer" : 0,
      "byteOffset" : 306736,
      "byteLength" : 384
    },
    {
      "buffer" : 0,
      "byteOffset" : 307120,
      "byteLength" : 384
    },
    {
      "buffer" : 0,
      "byteOffset" : 307504,
      "byteLength" : 564
    },
    {
      "buffer" : 0,
      "byteOffset" : 308068,
      "byteLength" : 2256
    },
    {
      "buffer" : 0,
      "byteOffset" : 310324,
      "byteLength" : 2256
    },
    {
      "buffer" : 0,
      "byteOffset" : 312580,
      "byteLength" : 3008
    },
    {
      "buffer" : 0,
      "byteOffset" : 315588,
      "byteLength" : 1504
    },
    {
      "buffer" : 0,
      "byteOffset" : 317092,
      "byteLength" : 1504
    }
  ],
  "accessors" : [
    {
      "bufferView" : 0,
      "componentType" : 5123,
      "count" : 7800,
      "type" : "SCALAR"
    },
    {
      "bufferView" : 1,
      "min" : [ 18.7574, -22.7836, 22.0251 ],
      "max" : [ 69.0209, 27.1314, 40.6078 ],
      "componentType" : 5126,
      "count" : 5162,
      "type" : "VEC3"
    },
    {
      "bufferView" : 2,
      "componentType" : 5126,
      "count" : 5162,
      "type" : "VEC3"
    },
    {
      "bufferView" : 3,
      "componentType" : 5126,
      "count" : 5162,
      "type" : "VEC4"
    },
    {
      "bufferView" : 4,
      "componentType" : 5126,
      "count" : 5162,
      "type" : "VEC2"
    },
    {
      "bufferView" : 5,
      "componentType" : 5126,
      "count" : 5162,
      "type" : "VEC2"
    },
    {
      "bufferView" : 6,
      "componentType" : 5123,
      "count" : 72,
      "type" : "SCALAR"
    },
    {
      "bufferView" : 7,
      "min" : [ 40.3059, 6.88212, 23.2506 ],
      "max" : [ 68.0754, 27.3378, 40.4921 ],
      "componentType" : 5126,
      "count" : 48,
      "type" : "VEC3"
    },
    {
      "bufferView" : 8,
      "componentType" : 5126,
      "count" : 48,
      "type" : "VEC3"
    },
    {
      "bufferView" : 9,
      "componentType" : 5126,
      "count" : 48,
      "type" : "VEC4"
    },
    {
      "bufferView" : 10,
      "componentType" : 5126,
      "count" : 48,
      "type" : "VEC2"
    },
    {
      "bufferView" : 11,
      "componentType" : 5126,
      "count" : 48,
      "type" : "VEC2"
    },
    {
      "bufferView" : 12,
      "componentType" : 5123,
      "count" : 282,
      "type" : "SCALAR"
    },
    {
      "bufferView" : 13,
      "min" : [ 40.0934, 5.94947, 23.1393 ],
      "max" : [ 67.7043, 18.9956, 23.356 ],
      "componentType" : 5126,
      "count" : 188,
      "type" : "VEC3"
    },
    {
      "bufferView" : 14,
      "componentType" : 5126,
      "count" : 188,
      "type" : "VEC3"
    },
    {
      "bufferView" : 15,
      "componentType" : 5126,
      "count" : 188,
      "type" : "VEC4"
    },
    {
      "bufferView" : 16,
      "componentType" : 5126,
      "count" : 188,
      "type" : "VEC2"
    },
    {
      "bufferView" : 17,
      "componentType" : 5126,
      "count" : 188,
      "type" : "VEC2"
    }
  ]
}
