{
  "asset" : {
    "generator" : "UE Viewer (umodel) build 1579 based",
    "version" : "2.0"
  },
  "scene" : 0,
  "scenes" : [
    {
      "nodes" : [ 0 ]
    }
  ],
  "nodes" : [
    {
      "name" : "S_Envi_Umeda_Aspot_structuralsteel_01a",
      "mesh" : 0
    }
  ],
  "materials" : [
    {
      "name" : "MI_Envi_Umeda_Prop_Frame_04",
      "pbrMetallicRoughness" : {
        "baseColorFactor" : [ 0.3, 0.3, 0.3, 1.0 ],
        "metallicFactor" : 0.1,
        "roughnessFactor" : 0.5
      }
    }
  ],
  "meshes" : [
    {
      "primitives" : [
        {
          "attributes" : {
            "POSITION" : 1,
            "NORMAL" : 2,
            "TANGENT" : 3,
            "TEXCOORD_0" : 4,
            "TEXCOORD_1" : 5
          },
          "indices" : 0,
          "material" : 0
        }
      ],
      "name" : "S_Envi_Umeda_Aspot_structuralsteel_01a"
    }
  ],
  "buffers" : [
    {
      "uri" : "S_Envi_Umeda_Aspot_structuralsteel_01a.bin",
      "byteLength" : 132200
    }
  ],
  "bufferViews" : [
    {
      "buffer" : 0,
      "byteOffset" : 0,
      "byteLength" : 7208
    },
    {
      "buffer" : 0,
      "byteOffset" : 7208,
      "byteLength" : 26784
    },
    {
      "buffer" : 0,
      "byteOffset" : 33992,
      "byteLength" : 26784
    },
    {
      "buffer" : 0,
      "byteOffset" : 60776,
      "byteLength" : 35712
    },
    {
      "buffer" : 0,
      "byteOffset" : 96488,
      "byteLength" : 17856
    },
    {
      "buffer" : 0,
      "byteOffset" : 114344,
      "byteLength" : 17856
    }
  ],
  "accessors" : [
    {
      "bufferView" : 0,
      "componentType" : 5123,
      "count" : 3603,
      "type" : "SCALAR"
    },
    {
      "bufferView" : 1,
      "min" : [ 36.4751, 3.06032, -41.71 ],
      "max" : [ 38.7697, 12.3758, -33.4172 ],
      "componentType" : 5126,
      "count" : 2232,
      "type" : "VEC3"
    },
    {
      "bufferView" : 2,
      "componentType" : 5126,
      "count" : 2232,
      "type" : "VEC3"
    },
    {
      "bufferView" : 3,
      "componentType" : 5126,
      "count" : 2232,
      "type" : "VEC4"
    },
    {
      "bufferView" : 4,
      "componentType" : 5126,
      "count" : 2232,
      "type" : "VEC2"
    },
    {
      "bufferView" : 5,
      "componentType" : 5126,
      "count" : 2232,
      "type" : "VEC2"
    }
  ]
}
