{
  "asset" : {
    "generator" : "UE Viewer (umodel) build 1579 based",
    "version" : "2.0"
  },
  "scene" : 0,
  "scenes" : [
    {
      "nodes" : [ 0 ]
    }
  ],
  "nodes" : [
    {
      "name" : "S_Envi_Umeda_hall_48_e",
      "mesh" : 0
    }
  ],
  "materials" : [
    {
      "name" : "MI_Envi_Umeda_Base_Ground_9",
      "pbrMetallicRoughness" : {
        "baseColorFactor" : [ 0.3, 0.3, 0.3, 1.0 ],
        "metallicFactor" : 0.1,
        "roughnessFactor" : 0.5
      }
    },
    {
      "name" : "MI_Envi_commontrim_03",
      "pbrMetallicRoughness" : {
        "baseColorFactor" : [ 0.9, 0.3, 0.3, 1.0 ],
        "metallicFactor" : 0.1,
        "roughnessFactor" : 0.5
      }
    }
  ],
  "meshes" : [
    {
      "primitives" : [
        {
          "attributes" : {
            "POSITION" : 1,
            "NORMAL" : 2,
            "TANGENT" : 3,
            "TEXCOORD_0" : 4,
            "TEXCOORD_1" : 5
          },
          "indices" : 0,
          "material" : 0
        },
        {
          "attributes" : {
            "POSITION" : 7,
            "NORMAL" : 8,
            "TANGENT" : 9,
            "TEXCOORD_0" : 10,
            "TEXCOORD_1" : 11
          },
          "indices" : 6,
          "material" : 1
        }
      ],
      "name" : "S_Envi_Umeda_hall_48_e"
    }
  ],
  "buffers" : [
    {
      "uri" : "S_Envi_Umeda_hall_48_e.bin",
      "byteLength" : 1180
    }
  ],
  "bufferViews" : [
    {
      "buffer" : 0,
      "byteOffset" : 0,
      "byteLength" : 12
    },
    {
      "buffer" : 0,
      "byteOffset" : 12,
      "byteLength" : 48
    },
    {
      "buffer" : 0,
      "byteOffset" : 60,
      "byteLength" : 48
    },
    {
      "buffer" : 0,
      "byteOffset" : 108,
      "byteLength" : 64
    },
    {
      "buffer" : 0,
      "byteOffset" : 172,
      "byteLength" : 32
    },
    {
      "buffer" : 0,
      "byteOffset" : 204,
      "byteLength" : 32
    },
    {
      "buffer" : 0,
      "byteOffset" : 236,
      "byteLength" : 48
    },
    {
      "buffer" : 0,
      "byteOffset" : 284,
      "byteLength" : 192
    },
    {
      "buffer" : 0,
      "byteOffset" : 476,
      "byteLength" : 192
    },
    {
      "buffer" : 0,
      "byteOffset" : 668,
      "byteLength" : 256
    },
    {
      "buffer" : 0,
      "byteOffset" : 924,
      "byteLength" : 128
    },
    {
      "buffer" : 0,
      "byteOffset" : 1052,
      "byteLength" : 128
    }
  ],
  "accessors" : [
    {
      "bufferView" : 0,
      "componentType" : 5123,
      "count" : 6,
      "type" : "SCALAR"
    },
    {
      "bufferView" : 1,
      "min" : [ 0.262208, 0, -11.3535 ],
      "max" : [ 3.73169, 1.13687e-15, -0.262207 ],
      "componentType" : 5126,
      "count" : 4,
      "type" : "VEC3"
    },
    {
      "bufferView" : 2,
      "componentType" : 5126,
      "count" : 4,
      "type" : "VEC3"
    },
    {
      "bufferView" : 3,
      "componentType" : 5126,
      "count" : 4,
      "type" : "VEC4"
    },
    {
      "bufferView" : 4,
      "componentType" : 5126,
      "count" : 4,
      "type" : "VEC2"
    },
    {
      "bufferView" : 5,
      "componentType" : 5126,
      "count" : 4,
      "type" : "VEC2"
    },
    {
      "bufferView" : 6,
      "componentType" : 5123,
      "count" : 24,
      "type" : "SCALAR"
    },
    {
      "bufferView" : 7,
      "min" : [ 0, 0, -11.6157 ],
      "max" : [ 3.9939, 1.13687e-15, -0 ],
      "componentType" : 5126,
      "count" : 16,
      "type" : "VEC3"
    },
    {
      "bufferView" : 8,
      "componentType" : 5126,
      "count" : 16,
      "type" : "VEC3"
    },
    {
      "bufferView" : 9,
      "componentType" : 5126,
      "count" : 16,
      "type" : "VEC4"
    },
    {
      "bufferView" : 10,
      "componentType" : 5126,
      "count" : 16,
      "type" : "VEC2"
    },
    {
      "bufferView" : 11,
      "componentType" : 5126,
      "count" : 16,
      "type" : "VEC2"
    }
  ]
}
