{
  "asset" : {
    "generator" : "UE Viewer (umodel) build 1579 based",
    "version" : "2.0"
  },
  "scene" : 0,
  "scenes" : [
    {
      "nodes" : [ 0 ]
    }
  ],
  "nodes" : [
    {
      "name" : "S_Envi_Umeda_Japan_Wall_14",
      "mesh" : 0
    }
  ],
  "materials" : [
    {
      "name" : "MI_Envi_Umeda_japan_Temple_05",
      "pbrMetallicRoughness" : {
        "baseColorFactor" : [ 0.3, 0.3, 0.3, 1.0 ],
        "metallicFactor" : 0.1,
        "roughnessFactor" : 0.5
      }
    },
    {
      "name" : "MI_Envi_Umeda_japan_Temple_03",
      "pbrMetallicRoughness" : {
        "baseColorFactor" : [ 0.9, 0.3, 0.3, 1.0 ],
        "metallicFactor" : 0.1,
        "roughnessFactor" : 0.5
      }
    }
  ],
  "meshes" : [
    {
      "primitives" : [
        {
          "attributes" : {
            "POSITION" : 1,
            "NORMAL" : 2,
            "TANGENT" : 3,
            "TEXCOORD_0" : 4,
            "TEXCOORD_1" : 5
          },
          "indices" : 0,
          "material" : 0
        },
        {
          "attributes" : {
            "POSITION" : 7,
            "NORMAL" : 8,
            "TANGENT" : 9,
            "TEXCOORD_0" : 10,
            "TEXCOORD_1" : 11
          },
          "indices" : 6,
          "material" : 1
        }
      ],
      "name" : "S_Envi_Umeda_Japan_Wall_14"
    }
  ],
  "buffers" : [
    {
      "uri" : "S_Envi_Umeda_Japan_Wall_14.bin",
      "byteLength" : 21264
    }
  ],
  "bufferViews" : [
    {
      "buffer" : 0,
      "byteOffset" : 0,
      "byteLength" : 144
    },
    {
      "buffer" : 0,
      "byteOffset" : 144,
      "byteLength" : 576
    },
    {
      "buffer" : 0,
      "byteOffset" : 720,
      "byteLength" : 576
    },
    {
      "buffer" : 0,
      "byteOffset" : 1296,
      "byteLength" : 768
    },
    {
      "buffer" : 0,
      "byteOffset" : 2064,
      "byteLength" : 384
    },
    {
      "buffer" : 0,
      "byteOffset" : 2448,
      "byteLength" : 384
    },
    {
      "buffer" : 0,
      "byteOffset" : 2832,
      "byteLength" : 960
    },
    {
      "buffer" : 0,
      "byteOffset" : 3792,
      "byteLength" : 3744
    },
    {
      "buffer" : 0,
      "byteOffset" : 7536,
      "byteLength" : 3744
    },
    {
      "buffer" : 0,
      "byteOffset" : 11280,
      "byteLength" : 4992
    },
    {
      "buffer" : 0,
      "byteOffset" : 16272,
      "byteLength" : 2496
    },
    {
      "buffer" : 0,
      "byteOffset" : 18768,
      "byteLength" : 2496
    }
  ],
  "accessors" : [
    {
      "bufferView" : 0,
      "componentType" : 5123,
      "count" : 72,
      "type" : "SCALAR"
    },
    {
      "bufferView" : 1,
      "min" : [ -3.34746, -1.25122e-05, -0.263179 ],
      "max" : [ -1.2207e-06, 5.13107, 0.00172226 ],
      "componentType" : 5126,
      "count" : 48,
      "type" : "VEC3"
    },
    {
      "bufferView" : 2,
      "componentType" : 5126,
      "count" : 48,
      "type" : "VEC3"
    },
    {
      "bufferView" : 3,
      "componentType" : 5126,
      "count" : 48,
      "type" : "VEC4"
    },
    {
      "bufferView" : 4,
      "componentType" : 5126,
      "count" : 48,
      "type" : "VEC2"
    },
    {
      "bufferView" : 5,
      "componentType" : 5126,
      "count" : 48,
      "type" : "VEC2"
    },
    {
      "bufferView" : 6,
      "componentType" : 5123,
      "count" : 480,
      "type" : "SCALAR"
    },
    {
      "bufferView" : 7,
      "min" : [ -3.19798, -0.000341644, -0.251168 ],
      "max" : [ -0.195985, 5.13032, -0.0129007 ],
      "componentType" : 5126,
      "count" : 312,
      "type" : "VEC3"
    },
    {
      "bufferView" : 8,
      "componentType" : 5126,
      "count" : 312,
      "type" : "VEC3"
    },
    {
      "bufferView" : 9,
      "componentType" : 5126,
      "count" : 312,
      "type" : "VEC4"
    },
    {
      "bufferView" : 10,
      "componentType" : 5126,
      "count" : 312,
      "type" : "VEC2"
    },
    {
      "bufferView" : 11,
      "componentType" : 5126,
      "count" : 312,
      "type" : "VEC2"
    }
  ]
}
