{
  "asset" : {
    "generator" : "UE Viewer (umodel) build 1579 based",
    "version" : "2.0"
  },
  "scene" : 0,
  "scenes" : [
    {
      "nodes" : [ 0 ]
    }
  ],
  "nodes" : [
    {
      "name" : "S_Envi_Umeda_Base_station_door02",
      "mesh" : 0
    }
  ],
  "materials" : [
    {
      "name" : "MI_Envi_Umeda_Base_station_06",
      "pbrMetallicRoughness" : {
        "baseColorFactor" : [ 0.3, 0.3, 0.3, 1.0 ],
        "metallicFactor" : 0.1,
        "roughnessFactor" : 0.5
      }
    },
    {
      "name" : "MI_PM_Glass_02k",
      "pbrMetallicRoughness" : {
        "baseColorFactor" : [ 0.9, 0.3, 0.3, 1.0 ],
        "metallicFactor" : 0.1,
        "roughnessFactor" : 0.5
      }
    }
  ],
  "meshes" : [
    {
      "primitives" : [
        {
          "attributes" : {
            "POSITION" : 1,
            "NORMAL" : 2,
            "TANGENT" : 3,
            "TEXCOORD_0" : 4,
            "TEXCOORD_1" : 5,
            "TEXCOORD_2" : 6
          },
          "indices" : 0,
          "material" : 0
        },
        {
          "attributes" : {
            "POSITION" : 8,
            "NORMAL" : 9,
            "TANGENT" : 10,
            "TEXCOORD_0" : 11,
            "TEXCOORD_1" : 12,
            "TEXCOORD_2" : 13
          },
          "indices" : 7,
          "material" : 1
        }
      ],
      "name" : "S_Envi_Umeda_Base_station_door02"
    }
  ],
  "buffers" : [
    {
      "uri" : "S_Envi_Umeda_Base_station_door02.bin",
      "byteLength" : 27176
    }
  ],
  "bufferViews" : [
    {
      "buffer" : 0,
      "byteOffset" : 0,
      "byteLength" : 1296
    },
    {
      "buffer" : 0,
      "byteOffset" : 1296,
      "byteLength" : 4752
    },
    {
      "buffer" : 0,
      "byteOffset" : 6048,
      "byteLength" : 4752
    },
    {
      "buffer" : 0,
      "byteOffset" : 10800,
      "byteLength" : 6336
    },
    {
      "buffer" : 0,
      "byteOffset" : 17136,
      "byteLength" : 3168
    },
    {
      "buffer" : 0,
      "byteOffset" : 20304,
      "byteLength" : 3168
    },
    {
      "buffer" : 0,
      "byteOffset" : 23472,
      "byteLength" : 3168
    },
    {
      "buffer" : 0,
      "byteOffset" : 26640,
      "byteLength" : 24
    },
    {
      "buffer" : 0,
      "byteOffset" : 26664,
      "byteLength" : 96
    },
    {
      "buffer" : 0,
      "byteOffset" : 26760,
      "byteLength" : 96
    },
    {
      "buffer" : 0,
      "byteOffset" : 26856,
      "byteLength" : 128
    },
    {
      "buffer" : 0,
      "byteOffset" : 26984,
      "byteLength" : 64
    },
    {
      "buffer" : 0,
      "byteOffset" : 27048,
      "byteLength" : 64
    },
    {
      "buffer" : 0,
      "byteOffset" : 27112,
      "byteLength" : 64
    }
  ],
  "accessors" : [
    {
      "bufferView" : 0,
      "componentType" : 5123,
      "count" : 648,
      "type" : "SCALAR"
    },
    {
      "bufferView" : 1,
      "min" : [ -3.94753, -0.274622, -0.0805471 ],
      "max" : [ 3.97356, 4.2961, 0.144218 ],
      "componentType" : 5126,
      "count" : 396,
      "type" : "VEC3"
    },
    {
      "bufferView" : 2,
      "componentType" : 5126,
      "count" : 396,
      "type" : "VEC3"
    },
    {
      "bufferView" : 3,
      "componentType" : 5126,
      "count" : 396,
      "type" : "VEC4"
    },
    {
      "bufferView" : 4,
      "componentType" : 5126,
      "count" : 396,
      "type" : "VEC2"
    },
    {
      "bufferView" : 5,
      "componentType" : 5126,
      "count" : 396,
      "type" : "VEC2"
    },
    {
      "bufferView" : 6,
      "componentType" : 5126,
      "count" : 396,
      "type" : "VEC2"
    },
    {
      "bufferView" : 7,
      "componentType" : 5123,
      "count" : 12,
      "type" : "SCALAR"
    },
    {
      "bufferView" : 8,
      "min" : [ -3.83296, 0.17995, 0.102891 ],
      "max" : [ 3.8221, 3.99086, 0.102893 ],
      "componentType" : 5126,
      "count" : 8,
      "type" : "VEC3"
    },
    {
      "bufferView" : 9,
      "componentType" : 5126,
      "count" : 8,
      "type" : "VEC3"
    },
    {
      "bufferView" : 10,
      "componentType" : 5126,
      "count" : 8,
      "type" : "VEC4"
    },
    {
      "bufferView" : 11,
      "componentType" : 5126,
      "count" : 8,
      "type" : "VEC2"
    },
    {
      "bufferView" : 12,
      "componentType" : 5126,
      "count" : 8,
      "type" : "VEC2"
    },
    {
      "bufferView" : 13,
      "componentType" : 5126,
      "count" : 8,
      "type" : "VEC2"
    }
  ]
}
