{
  "asset" : {
    "generator" : "UE Viewer (umodel) build 1579 based",
    "version" : "2.0"
  },
  "scene" : 0,
  "scenes" : [
    {
      "nodes" : [ 0 ]
    }
  ],
  "nodes" : [
    {
      "name" : "S_Envi_Umeda_hall_48a",
      "mesh" : 0
    }
  ],
  "materials" : [
    {
      "name" : "MI_Envi_commontrim_06",
      "pbrMetallicRoughness" : {
        "baseColorFactor" : [ 0.3, 0.3, 0.3, 1.0 ],
        "metallicFactor" : 0.1,
        "roughnessFactor" : 0.5
      }
    },
    {
      "name" : "MI_Envi_commontrim_03",
      "pbrMetallicRoughness" : {
        "baseColorFactor" : [ 0.9, 0.3, 0.3, 1.0 ],
        "metallicFactor" : 0.1,
        "roughnessFactor" : 0.5
      }
    }
  ],
  "meshes" : [
    {
      "primitives" : [
        {
          "attributes" : {
            "POSITION" : 1,
            "NORMAL" : 2,
            "TANGENT" : 3,
            "TEXCOORD_0" : 4,
            "TEXCOORD_1" : 5
          },
          "indices" : 0,
          "material" : 0
        },
        {
          "attributes" : {
            "POSITION" : 7,
            "NORMAL" : 8,
            "TANGENT" : 9,
            "TEXCOORD_0" : 10,
            "TEXCOORD_1" : 11
          },
          "indices" : 6,
          "material" : 1
        }
      ],
      "name" : "S_Envi_Umeda_hall_48a"
    }
  ],
  "buffers" : [
    {
      "uri" : "S_Envi_Umeda_hall_48a.bin",
      "byteLength" : 3604
    }
  ],
  "bufferViews" : [
    {
      "buffer" : 0,
      "byteOffset" : 0,
      "byteLength" : 44
    },
    {
      "buffer" : 0,
      "byteOffset" : 44,
      "byteLength" : 156
    },
    {
      "buffer" : 0,
      "byteOffset" : 200,
      "byteLength" : 156
    },
    {
      "buffer" : 0,
      "byteOffset" : 356,
      "byteLength" : 208
    },
    {
      "buffer" : 0,
      "byteOffset" : 564,
      "byteLength" : 104
    },
    {
      "buffer" : 0,
      "byteOffset" : 668,
      "byteLength" : 104
    },
    {
      "buffer" : 0,
      "byteOffset" : 772,
      "byteLength" : 144
    },
    {
      "buffer" : 0,
      "byteOffset" : 916,
      "byteLength" : 576
    },
    {
      "buffer" : 0,
      "byteOffset" : 1492,
      "byteLength" : 576
    },
    {
      "buffer" : 0,
      "byteOffset" : 2068,
      "byteLength" : 768
    },
    {
      "buffer" : 0,
      "byteOffset" : 2836,
      "byteLength" : 384
    },
    {
      "buffer" : 0,
      "byteOffset" : 3220,
      "byteLength" : 384
    }
  ],
  "accessors" : [
    {
      "bufferView" : 0,
      "componentType" : 5123,
      "count" : 21,
      "type" : "SCALAR"
    },
    {
      "bufferView" : 1,
      "min" : [ -3.30192, -0.00407043, -1.13312e-16 ],
      "max" : [ 3.35693e-06, 1.8506, 2.12689 ],
      "componentType" : 5126,
      "count" : 13,
      "type" : "VEC3"
    },
    {
      "bufferView" : 2,
      "componentType" : 5126,
      "count" : 13,
      "type" : "VEC3"
    },
    {
      "bufferView" : 3,
      "componentType" : 5126,
      "count" : 13,
      "type" : "VEC4"
    },
    {
      "bufferView" : 4,
      "componentType" : 5126,
      "count" : 13,
      "type" : "VEC2"
    },
    {
      "bufferView" : 5,
      "componentType" : 5126,
      "count" : 13,
      "type" : "VEC2"
    },
    {
      "bufferView" : 6,
      "componentType" : 5123,
      "count" : 72,
      "type" : "SCALAR"
    },
    {
      "bufferView" : 7,
      "min" : [ -3.30193, -0.00404663, -1.22678e-16 ],
      "max" : [ 6.2561e-06, 2.00349, 2.39145 ],
      "componentType" : 5126,
      "count" : 48,
      "type" : "VEC3"
    },
    {
      "bufferView" : 8,
      "componentType" : 5126,
      "count" : 48,
      "type" : "VEC3"
    },
    {
      "bufferView" : 9,
      "componentType" : 5126,
      "count" : 48,
      "type" : "VEC4"
    },
    {
      "bufferView" : 10,
      "componentType" : 5126,
      "count" : 48,
      "type" : "VEC2"
    },
    {
      "bufferView" : 11,
      "componentType" : 5126,
      "count" : 48,
      "type" : "VEC2"
    }
  ]
}
