{
  "asset" : {
    "generator" : "UE Viewer (umodel) build 1579 based",
    "version" : "2.0"
  },
  "scene" : 0,
  "scenes" : [
    {
      "nodes" : [ 0 ]
    }
  ],
  "nodes" : [
    {
      "name" : "S_Envi_Umeda_hall_85_g_a",
      "mesh" : 0
    }
  ],
  "materials" : [
    {
      "name" : "MI_Envi_Umeda_Base_Ground_7",
      "pbrMetallicRoughness" : {
        "baseColorFactor" : [ 0.3, 0.3, 0.3, 1.0 ],
        "metallicFactor" : 0.1,
        "roughnessFactor" : 0.5
      }
    },
    {
      "name" : "MI_Envi_commontrim_03",
      "pbrMetallicRoughness" : {
        "baseColorFactor" : [ 0.9, 0.3, 0.3, 1.0 ],
        "metallicFactor" : 0.1,
        "roughnessFactor" : 0.5
      }
    }
  ],
  "meshes" : [
    {
      "primitives" : [
        {
          "attributes" : {
            "POSITION" : 1,
            "NORMAL" : 2,
            "TANGENT" : 3,
            "TEXCOORD_0" : 4,
            "TEXCOORD_1" : 5
          },
          "indices" : 0,
          "material" : 0
        },
        {
          "attributes" : {
            "POSITION" : 7,
            "NORMAL" : 8,
            "TANGENT" : 9,
            "TEXCOORD_0" : 10,
            "TEXCOORD_1" : 11
          },
          "indices" : 6,
          "material" : 1
        }
      ],
      "name" : "S_Envi_Umeda_hall_85_g_a"
    }
  ],
  "buffers" : [
    {
      "uri" : "S_Envi_Umeda_hall_85_g_a.bin",
      "byteLength" : 12124
    }
  ],
  "bufferViews" : [
    {
      "buffer" : 0,
      "byteOffset" : 0,
      "byteLength" : 80
    },
    {
      "buffer" : 0,
      "byteOffset" : 80,
      "byteLength" : 276
    },
    {
      "buffer" : 0,
      "byteOffset" : 356,
      "byteLength" : 276
    },
    {
      "buffer" : 0,
      "byteOffset" : 632,
      "byteLength" : 368
    },
    {
      "buffer" : 0,
      "byteOffset" : 1000,
      "byteLength" : 184
    },
    {
      "buffer" : 0,
      "byteOffset" : 1184,
      "byteLength" : 184
    },
    {
      "buffer" : 0,
      "byteOffset" : 1368,
      "byteLength" : 564
    },
    {
      "buffer" : 0,
      "byteOffset" : 1932,
      "byteLength" : 2184
    },
    {
      "buffer" : 0,
      "byteOffset" : 4116,
      "byteLength" : 2184
    },
    {
      "buffer" : 0,
      "byteOffset" : 6300,
      "byteLength" : 2912
    },
    {
      "buffer" : 0,
      "byteOffset" : 9212,
      "byteLength" : 1456
    },
    {
      "buffer" : 0,
      "byteOffset" : 10668,
      "byteLength" : 1456
    }
  ],
  "accessors" : [
    {
      "bufferView" : 0,
      "componentType" : 5123,
      "count" : 39,
      "type" : "SCALAR"
    },
    {
      "bufferView" : 1,
      "min" : [ 5.10645, 10.0785, -69.1329 ],
      "max" : [ 36.698, 12.1075, -56.5849 ],
      "componentType" : 5126,
      "count" : 23,
      "type" : "VEC3"
    },
    {
      "bufferView" : 2,
      "componentType" : 5126,
      "count" : 23,
      "type" : "VEC3"
    },
    {
      "bufferView" : 3,
      "componentType" : 5126,
      "count" : 23,
      "type" : "VEC4"
    },
    {
      "bufferView" : 4,
      "componentType" : 5126,
      "count" : 23,
      "type" : "VEC2"
    },
    {
      "bufferView" : 5,
      "componentType" : 5126,
      "count" : 23,
      "type" : "VEC2"
    },
    {
      "bufferView" : 6,
      "componentType" : 5123,
      "count" : 282,
      "type" : "SCALAR"
    },
    {
      "bufferView" : 7,
      "min" : [ 4.80287, 10.0785, -66.4059 ],
      "max" : [ 36.898, 12.1075, -56.3849 ],
      "componentType" : 5126,
      "count" : 182,
      "type" : "VEC3"
    },
    {
      "bufferView" : 8,
      "componentType" : 5126,
      "count" : 182,
      "type" : "VEC3"
    },
    {
      "bufferView" : 9,
      "componentType" : 5126,
      "count" : 182,
      "type" : "VEC4"
    },
    {
      "bufferView" : 10,
      "componentType" : 5126,
      "count" : 182,
      "type" : "VEC2"
    },
    {
      "bufferView" : 11,
      "componentType" : 5126,
      "count" : 182,
      "type" : "VEC2"
    }
  ]
}
