{
  "asset" : {
    "generator" : "UE Viewer (umodel) build 1579 based",
    "version" : "2.0"
  },
  "scene" : 0,
  "scenes" : [
    {
      "nodes" : [ 0 ]
    }
  ],
  "nodes" : [
    {
      "name" : "S_Envi_Umeda_Cubes_09a",
      "mesh" : 0
    }
  ],
  "materials" : [
    {
      "name" : "MI_Envi_Umeda_Base_Building_01_A_02e_2",
      "pbrMetallicRoughness" : {
        "baseColorFactor" : [ 0.3, 0.3, 0.3, 1.0 ],
        "metallicFactor" : 0.1,
        "roughnessFactor" : 0.5
      }
    }
  ],
  "meshes" : [
    {
      "primitives" : [
        {
          "attributes" : {
            "POSITION" : 1,
            "NORMAL" : 2,
            "TANGENT" : 3,
            "TEXCOORD_0" : 4,
            "TEXCOORD_1" : 5,
            "TEXCOORD_2" : 6,
            "TEXCOORD_3" : 7
          },
          "indices" : 0,
          "material" : 0
        }
      ],
      "name" : "S_Envi_Umeda_Cubes_09a"
    }
  ],
  "buffers" : [
    {
      "uri" : "S_Envi_Umeda_Cubes_09a.bin",
      "byteLength" : 968
    }
  ],
  "bufferViews" : [
    {
      "buffer" : 0,
      "byteOffset" : 0,
      "byteLength" : 32
    },
    {
      "buffer" : 0,
      "byteOffset" : 32,
      "byteLength" : 156
    },
    {
      "buffer" : 0,
      "byteOffset" : 188,
      "byteLength" : 156
    },
    {
      "buffer" : 0,
      "byteOffset" : 344,
      "byteLength" : 208
    },
    {
      "buffer" : 0,
      "byteOffset" : 552,
      "byteLength" : 104
    },
    {
      "buffer" : 0,
      "byteOffset" : 656,
      "byteLength" : 104
    },
    {
      "buffer" : 0,
      "byteOffset" : 760,
      "byteLength" : 104
    },
    {
      "buffer" : 0,
      "byteOffset" : 864,
      "byteLength" : 104
    }
  ],
  "accessors" : [
    {
      "bufferView" : 0,
      "componentType" : 5123,
      "count" : 15,
      "type" : "SCALAR"
    },
    {
      "bufferView" : 1,
      "min" : [ 13.2787, 4.22257, -19.6699 ],
      "max" : [ 21.316, 6.83615, -13.991 ],
      "componentType" : 5126,
      "count" : 13,
      "type" : "VEC3"
    },
    {
      "bufferView" : 2,
      "componentType" : 5126,
      "count" : 13,
      "type" : "VEC3"
    },
    {
      "bufferView" : 3,
      "componentType" : 5126,
      "count" : 13,
      "type" : "VEC4"
    },
    {
      "bufferView" : 4,
      "componentType" : 5126,
      "count" : 13,
      "type" : "VEC2"
    },
    {
      "bufferView" : 5,
      "componentType" : 5126,
      "count" : 13,
      "type" : "VEC2"
    },
    {
      "bufferView" : 6,
      "componentType" : 5126,
      "count" : 13,
      "type" : "VEC2"
    },
    {
      "bufferView" : 7,
      "componentType" : 5126,
      "count" : 13,
      "type" : "VEC2"
    }
  ]
}
