{
  "asset" : {
    "generator" : "UE Viewer (umodel) build 1579 based",
    "version" : "2.0"
  },
  "scene" : 0,
  "scenes" : [
    {
      "nodes" : [ 0 ]
    }
  ],
  "nodes" : [
    {
      "name" : "S_Envi_Umeda_Building_012a",
      "mesh" : 0
    }
  ],
  "materials" : [
    {
      "name" : "MI_Envi_Umeda_japan_Temple_09c",
      "pbrMetallicRoughness" : {
        "baseColorFactor" : [ 0.3, 0.3, 0.3, 1.0 ],
        "metallicFactor" : 0.1,
        "roughnessFactor" : 0.5
      }
    },
    {
      "name" : "MI_Envi_Umeda_japan_Temple_08b",
      "pbrMetallicRoughness" : {
        "baseColorFactor" : [ 0.9, 0.3, 0.3, 1.0 ],
        "metallicFactor" : 0.1,
        "roughnessFactor" : 0.5
      }
    }
  ],
  "meshes" : [
    {
      "primitives" : [
        {
          "attributes" : {
            "POSITION" : 1,
            "NORMAL" : 2,
            "TANGENT" : 3,
            "TEXCOORD_0" : 4,
            "TEXCOORD_1" : 5,
            "TEXCOORD_2" : 6,
            "TEXCOORD_3" : 7
          },
          "indices" : 0,
          "material" : 0
        },
        {
          "attributes" : {
            "POSITION" : 9,
            "NORMAL" : 10,
            "TANGENT" : 11,
            "TEXCOORD_0" : 12,
            "TEXCOORD_1" : 13,
            "TEXCOORD_2" : 14,
            "TEXCOORD_3" : 15
          },
          "indices" : 8,
          "material" : 1
        }
      ],
      "name" : "S_Envi_Umeda_Building_012a"
    }
  ],
  "buffers" : [
    {
      "uri" : "S_Envi_Umeda_Building_012a.bin",
      "byteLength" : 528276
    }
  ],
  "bufferViews" : [
    {
      "buffer" : 0,
      "byteOffset" : 0,
      "byteLength" : 22800
    },
    {
      "buffer" : 0,
      "byteOffset" : 22800,
      "byteLength" : 83580
    },
    {
      "buffer" : 0,
      "byteOffset" : 106380,
      "byteLength" : 83580
    },
    {
      "buffer" : 0,
      "byteOffset" : 189960,
      "byteLength" : 111440
    },
    {
      "buffer" : 0,
      "byteOffset" : 301400,
      "byteLength" : 55720
    },
    {
      "buffer" : 0,
      "byteOffset" : 357120,
      "byteLength" : 55720
    },
    {
      "buffer" : 0,
      "byteOffset" : 412840,
      "byteLength" : 55720
    },
    {
      "buffer" : 0,
      "byteOffset" : 468560,
      "byteLength" : 55720
    },
    {
      "buffer" : 0,
      "byteOffset" : 524280,
      "byteLength" : 252
    },
    {
      "buffer" : 0,
      "byteOffset" : 524532,
      "byteLength" : 624
    },
    {
      "buffer" : 0,
      "byteOffset" : 525156,
      "byteLength" : 624
    },
    {
      "buffer" : 0,
      "byteOffset" : 525780,
      "byteLength" : 832
    },
    {
      "buffer" : 0,
      "byteOffset" : 526612,
      "byteLength" : 416
    },
    {
      "buffer" : 0,
      "byteOffset" : 527028,
      "byteLength" : 416
    },
    {
      "buffer" : 0,
      "byteOffset" : 527444,
      "byteLength" : 416
    },
    {
      "buffer" : 0,
      "byteOffset" : 527860,
      "byteLength" : 416
    }
  ],
  "accessors" : [
    {
      "bufferView" : 0,
      "componentType" : 5123,
      "count" : 11400,
      "type" : "SCALAR"
    },
    {
      "bufferView" : 1,
      "min" : [ -55.7342, 3.57103, -69.7621 ],
      "max" : [ -33.2122, 16.9475, -35.5914 ],
      "componentType" : 5126,
      "count" : 6965,
      "type" : "VEC3"
    },
    {
      "bufferView" : 2,
      "componentType" : 5126,
      "count" : 6965,
      "type" : "VEC3"
    },
    {
      "bufferView" : 3,
      "componentType" : 5126,
      "count" : 6965,
      "type" : "VEC4"
    },
    {
      "bufferView" : 4,
      "componentType" : 5126,
      "count" : 6965,
      "type" : "VEC2"
    },
    {
      "bufferView" : 5,
      "componentType" : 5126,
      "count" : 6965,
      "type" : "VEC2"
    },
    {
      "bufferView" : 6,
      "componentType" : 5126,
      "count" : 6965,
      "type" : "VEC2"
    },
    {
      "bufferView" : 7,
      "componentType" : 5126,
      "count" : 6965,
      "type" : "VEC2"
    },
    {
      "bufferView" : 8,
      "componentType" : 5123,
      "count" : 126,
      "type" : "SCALAR"
    },
    {
      "bufferView" : 9,
      "min" : [ -47.8121, 3.5715, -60.3325 ],
      "max" : [ -33.3646, 16.0442, -51.6464 ],
      "componentType" : 5126,
      "count" : 52,
      "type" : "VEC3"
    },
    {
      "bufferView" : 10,
      "componentType" : 5126,
      "count" : 52,
      "type" : "VEC3"
    },
    {
      "bufferView" : 11,
      "componentType" : 5126,
      "count" : 52,
      "type" : "VEC4"
    },
    {
      "bufferView" : 12,
      "componentType" : 5126,
      "count" : 52,
      "type" : "VEC2"
    },
    {
      "bufferView" : 13,
      "componentType" : 5126,
      "count" : 52,
      "type" : "VEC2"
    },
    {
      "bufferView" : 14,
      "componentType" : 5126,
      "count" : 52,
      "type" : "VEC2"
    },
    {
      "bufferView" : 15,
      "componentType" : 5126,
      "count" : 52,
      "type" : "VEC2"
    }
  ]
}
