{
  "asset" : {
    "generator" : "UE Viewer (umodel) build 1579 based",
    "version" : "2.0"
  },
  "scene" : 0,
  "scenes" : [
    {
      "nodes" : [ 0 ]
    }
  ],
  "nodes" : [
    {
      "name" : "S_Envi_Umeda_Hall_Door_02_B",
      "mesh" : 0
    }
  ],
  "materials" : [
    {
      "name" : "MI_PM_Glass_03a",
      "pbrMetallicRoughness" : {
        "baseColorFactor" : [ 0.3, 0.3, 0.3, 1.0 ],
        "metallicFactor" : 0.1,
        "roughnessFactor" : 0.5
      }
    },
    {
      "name" : "MI_Envi_Umeda_Hall_Door_01_02",
      "pbrMetallicRoughness" : {
        "baseColorFactor" : [ 0.9, 0.3, 0.3, 1.0 ],
        "metallicFactor" : 0.1,
        "roughnessFactor" : 0.5
      }
    }
  ],
  "meshes" : [
    {
      "primitives" : [
        {
          "attributes" : {
            "POSITION" : 1,
            "NORMAL" : 2,
            "TANGENT" : 3,
            "TEXCOORD_0" : 4,
            "TEXCOORD_1" : 5
          },
          "indices" : 0,
          "material" : 0
        },
        {
          "attributes" : {
            "POSITION" : 7,
            "NORMAL" : 8,
            "TANGENT" : 9,
            "TEXCOORD_0" : 10,
            "TEXCOORD_1" : 11
          },
          "indices" : 6,
          "material" : 1
        }
      ],
      "name" : "S_Envi_Umeda_Hall_Door_02_B"
    }
  ],
  "buffers" : [
    {
      "uri" : "S_Envi_Umeda_Hall_Door_02_B.bin",
      "byteLength" : 60120
    }
  ],
  "bufferViews" : [
    {
      "buffer" : 0,
      "byteOffset" : 0,
      "byteLength" : 48
    },
    {
      "buffer" : 0,
      "byteOffset" : 48,
      "byteLength" : 192
    },
    {
      "buffer" : 0,
      "byteOffset" : 240,
      "byteLength" : 192
    },
    {
      "buffer" : 0,
      "byteOffset" : 432,
      "byteLength" : 256
    },
    {
      "buffer" : 0,
      "byteOffset" : 688,
      "byteLength" : 128
    },
    {
      "buffer" : 0,
      "byteOffset" : 816,
      "byteLength" : 128
    },
    {
      "buffer" : 0,
      "byteOffset" : 944,
      "byteLength" : 2448
    },
    {
      "buffer" : 0,
      "byteOffset" : 3392,
      "byteLength" : 12156
    },
    {
      "buffer" : 0,
      "byteOffset" : 15548,
      "byteLength" : 12156
    },
    {
      "buffer" : 0,
      "byteOffset" : 27704,
      "byteLength" : 16208
    },
    {
      "buffer" : 0,
      "byteOffset" : 43912,
      "byteLength" : 8104
    },
    {
      "buffer" : 0,
      "byteOffset" : 52016,
      "byteLength" : 8104
    }
  ],
  "accessors" : [
    {
      "bufferView" : 0,
      "componentType" : 5123,
      "count" : 24,
      "type" : "SCALAR"
    },
    {
      "bufferView" : 1,
      "min" : [ 0.191168, 4.76837e-09, -0.499859 ],
      "max" : [ 0.621047, 3.87387, -0.0403503 ],
      "componentType" : 5126,
      "count" : 16,
      "type" : "VEC3"
    },
    {
      "bufferView" : 2,
      "componentType" : 5126,
      "count" : 16,
      "type" : "VEC3"
    },
    {
      "bufferView" : 3,
      "componentType" : 5126,
      "count" : 16,
      "type" : "VEC4"
    },
    {
      "bufferView" : 4,
      "componentType" : 5126,
      "count" : 16,
      "type" : "VEC2"
    },
    {
      "bufferView" : 5,
      "componentType" : 5126,
      "count" : 16,
      "type" : "VEC2"
    },
    {
      "bufferView" : 6,
      "componentType" : 5123,
      "count" : 1224,
      "type" : "SCALAR"
    },
    {
      "bufferView" : 7,
      "min" : [ -0.000118398, -6.11171e-07, -0.625087 ],
      "max" : [ 3.47341, 4.14545, 0.0848759 ],
      "componentType" : 5126,
      "count" : 1013,
      "type" : "VEC3"
    },
    {
      "bufferView" : 8,
      "componentType" : 5126,
      "count" : 1013,
      "type" : "VEC3"
    },
    {
      "bufferView" : 9,
      "componentType" : 5126,
      "count" : 1013,
      "type" : "VEC4"
    },
    {
      "bufferView" : 10,
      "componentType" : 5126,
      "count" : 1013,
      "type" : "VEC2"
    },
    {
      "bufferView" : 11,
      "componentType" : 5126,
      "count" : 1013,
      "type" : "VEC2"
    }
  ]
}
