{
  "asset" : {
    "generator" : "UE Viewer (umodel) build 1579 based",
    "version" : "2.0"
  },
  "scene" : 0,
  "scenes" : [
    {
      "nodes" : [ 0 ]
    }
  ],
  "nodes" : [
    {
      "name" : "S_Envi_Umeda_Building_011A",
      "mesh" : 0
    }
  ],
  "materials" : [
    {
      "name" : "MI_Envi_Umeda_japan_Temple_01b",
      "pbrMetallicRoughness" : {
        "baseColorFactor" : [ 0.3, 0.3, 0.3, 1.0 ],
        "metallicFactor" : 0.1,
        "roughnessFactor" : 0.5
      }
    },
    {
      "name" : "MI_Envi_Umeda_japan_Temple_09",
      "pbrMetallicRoughness" : {
        "baseColorFactor" : [ 0.9, 0.3, 0.3, 1.0 ],
        "metallicFactor" : 0.1,
        "roughnessFactor" : 0.5
      }
    }
  ],
  "meshes" : [
    {
      "primitives" : [
        {
          "attributes" : {
            "POSITION" : 1,
            "NORMAL" : 2,
            "TANGENT" : 3,
            "TEXCOORD_0" : 4,
            "TEXCOORD_1" : 5,
            "TEXCOORD_2" : 6,
            "TEXCOORD_3" : 7
          },
          "indices" : 0,
          "material" : 0
        },
        {
          "attributes" : {
            "POSITION" : 9,
            "NORMAL" : 10,
            "TANGENT" : 11,
            "TEXCOORD_0" : 12,
            "TEXCOORD_1" : 13,
            "TEXCOORD_2" : 14,
            "TEXCOORD_3" : 15
          },
          "indices" : 8,
          "material" : 1
        }
      ],
      "name" : "S_Envi_Umeda_Building_011A"
    }
  ],
  "buffers" : [
    {
      "uri" : "S_Envi_Umeda_Building_011A.bin",
      "byteLength" : 11892
    }
  ],
  "bufferViews" : [
    {
      "buffer" : 0,
      "byteOffset" : 0,
      "byteLength" : 468
    },
    {
      "buffer" : 0,
      "byteOffset" : 468,
      "byteLength" : 1704
    },
    {
      "buffer" : 0,
      "byteOffset" : 2172,
      "byteLength" : 1704
    },
    {
      "buffer" : 0,
      "byteOffset" : 3876,
      "byteLength" : 2272
    },
    {
      "buffer" : 0,
      "byteOffset" : 6148,
      "byteLength" : 1136
    },
    {
      "buffer" : 0,
      "byteOffset" : 7284,
      "byteLength" : 1136
    },
    {
      "buffer" : 0,
      "byteOffset" : 8420,
      "byteLength" : 1136
    },
    {
      "buffer" : 0,
      "byteOffset" : 9556,
      "byteLength" : 1136
    },
    {
      "buffer" : 0,
      "byteOffset" : 10692,
      "byteLength" : 48
    },
    {
      "buffer" : 0,
      "byteOffset" : 10740,
      "byteLength" : 192
    },
    {
      "buffer" : 0,
      "byteOffset" : 10932,
      "byteLength" : 192
    },
    {
      "buffer" : 0,
      "byteOffset" : 11124,
      "byteLength" : 256
    },
    {
      "buffer" : 0,
      "byteOffset" : 11380,
      "byteLength" : 128
    },
    {
      "buffer" : 0,
      "byteOffset" : 11508,
      "byteLength" : 128
    },
    {
      "buffer" : 0,
      "byteOffset" : 11636,
      "byteLength" : 128
    },
    {
      "buffer" : 0,
      "byteOffset" : 11764,
      "byteLength" : 128
    }
  ],
  "accessors" : [
    {
      "bufferView" : 0,
      "componentType" : 5123,
      "count" : 234,
      "type" : "SCALAR"
    },
    {
      "bufferView" : 1,
      "min" : [ -14.4032, -0.082011, 0.0874888 ],
      "max" : [ 6.59663, 16.7432, 12.4932 ],
      "componentType" : 5126,
      "count" : 142,
      "type" : "VEC3"
    },
    {
      "bufferView" : 2,
      "componentType" : 5126,
      "count" : 142,
      "type" : "VEC3"
    },
    {
      "bufferView" : 3,
      "componentType" : 5126,
      "count" : 142,
      "type" : "VEC4"
    },
    {
      "bufferView" : 4,
      "componentType" : 5126,
      "count" : 142,
      "type" : "VEC2"
    },
    {
      "bufferView" : 5,
      "componentType" : 5126,
      "count" : 142,
      "type" : "VEC2"
    },
    {
      "bufferView" : 6,
      "componentType" : 5126,
      "count" : 142,
      "type" : "VEC2"
    },
    {
      "bufferView" : 7,
      "componentType" : 5126,
      "count" : 142,
      "type" : "VEC2"
    },
    {
      "bufferView" : 8,
      "componentType" : 5123,
      "count" : 24,
      "type" : "SCALAR"
    },
    {
      "bufferView" : 9,
      "min" : [ -11.7924, 11.02, -0.444903 ],
      "max" : [ 0.717108, 11.0201, 12.9547 ],
      "componentType" : 5126,
      "count" : 16,
      "type" : "VEC3"
    },
    {
      "bufferView" : 10,
      "componentType" : 5126,
      "count" : 16,
      "type" : "VEC3"
    },
    {
      "bufferView" : 11,
      "componentType" : 5126,
      "count" : 16,
      "type" : "VEC4"
    },
    {
      "bufferView" : 12,
      "componentType" : 5126,
      "count" : 16,
      "type" : "VEC2"
    },
    {
      "bufferView" : 13,
      "componentType" : 5126,
      "count" : 16,
      "type" : "VEC2"
    },
    {
      "bufferView" : 14,
      "componentType" : 5126,
      "count" : 16,
      "type" : "VEC2"
    },
    {
      "bufferView" : 15,
      "componentType" : 5126,
      "count" : 16,
      "type" : "VEC2"
    }
  ]
}
