{
  "asset" : {
    "generator" : "UE Viewer (umodel) build 1579 based",
    "version" : "2.0"
  },
  "scene" : 0,
  "scenes" : [
    {
      "nodes" : [ 0 ]
    }
  ],
  "nodes" : [
    {
      "name" : "S_Envi_Umeda_Cubes_Merge_08",
      "mesh" : 0
    }
  ],
  "materials" : [
    {
      "name" : "MI_Envi_Umeda_Base_Ground_04",
      "pbrMetallicRoughness" : {
        "baseColorFactor" : [ 0.3, 0.3, 0.3, 1.0 ],
        "metallicFactor" : 0.1,
        "roughnessFactor" : 0.5
      }
    },
    {
      "name" : "MI_Envi_Umeda_Base_Ground_04",
      "pbrMetallicRoughness" : {
        "baseColorFactor" : [ 0.9, 0.3, 0.3, 1.0 ],
        "metallicFactor" : 0.1,
        "roughnessFactor" : 0.5
      }
    }
  ],
  "meshes" : [
    {
      "primitives" : [
        {
          "attributes" : {
            "POSITION" : 1,
            "NORMAL" : 2,
            "TANGENT" : 3,
            "TEXCOORD_0" : 4,
            "TEXCOORD_1" : 5
          },
          "indices" : 0,
          "material" : 0
        },
        {
          "attributes" : {
            "POSITION" : 7,
            "NORMAL" : 8,
            "TANGENT" : 9,
            "TEXCOORD_0" : 10,
            "TEXCOORD_1" : 11
          },
          "indices" : 6,
          "material" : 1
        }
      ],
      "name" : "S_Envi_Umeda_Cubes_Merge_08"
    }
  ],
  "buffers" : [
    {
      "uri" : "S_Envi_Umeda_Cubes_Merge_08.bin",
      "byteLength" : 31560
    }
  ],
  "bufferViews" : [
    {
      "buffer" : 0,
      "byteOffset" : 0,
      "byteLength" : 552
    },
    {
      "buffer" : 0,
      "byteOffset" : 552,
      "byteLength" : 2040
    },
    {
      "buffer" : 0,
      "byteOffset" : 2592,
      "byteLength" : 2040
    },
    {
      "buffer" : 0,
      "byteOffset" : 4632,
      "byteLength" : 2720
    },
    {
      "buffer" : 0,
      "byteOffset" : 7352,
      "byteLength" : 1360
    },
    {
      "buffer" : 0,
      "byteOffset" : 8712,
      "byteLength" : 1360
    },
    {
      "buffer" : 0,
      "byteOffset" : 10072,
      "byteLength" : 1104
    },
    {
      "buffer" : 0,
      "byteOffset" : 11176,
      "byteLength" : 4368
    },
    {
      "buffer" : 0,
      "byteOffset" : 15544,
      "byteLength" : 4368
    },
    {
      "buffer" : 0,
      "byteOffset" : 19912,
      "byteLength" : 5824
    },
    {
      "buffer" : 0,
      "byteOffset" : 25736,
      "byteLength" : 2912
    },
    {
      "buffer" : 0,
      "byteOffset" : 28648,
      "byteLength" : 2912
    }
  ],
  "accessors" : [
    {
      "bufferView" : 0,
      "componentType" : 5123,
      "count" : 276,
      "type" : "SCALAR"
    },
    {
      "bufferView" : 1,
      "min" : [ -0.472343, 11.6333, -55.8727 ],
      "max" : [ 21.2991, 17.2482, -14.0333 ],
      "componentType" : 5126,
      "count" : 170,
      "type" : "VEC3"
    },
    {
      "bufferView" : 2,
      "componentType" : 5126,
      "count" : 170,
      "type" : "VEC3"
    },
    {
      "bufferView" : 3,
      "componentType" : 5126,
      "count" : 170,
      "type" : "VEC4"
    },
    {
      "bufferView" : 4,
      "componentType" : 5126,
      "count" : 170,
      "type" : "VEC2"
    },
    {
      "bufferView" : 5,
      "componentType" : 5126,
      "count" : 170,
      "type" : "VEC2"
    },
    {
      "bufferView" : 6,
      "componentType" : 5123,
      "count" : 552,
      "type" : "SCALAR"
    },
    {
      "bufferView" : 7,
      "min" : [ -0.748105, 11.7572, -56.2045 ],
      "max" : [ 20.8891, 17.2482, -14.2696 ],
      "componentType" : 5126,
      "count" : 364,
      "type" : "VEC3"
    },
    {
      "bufferView" : 8,
      "componentType" : 5126,
      "count" : 364,
      "type" : "VEC3"
    },
    {
      "bufferView" : 9,
      "componentType" : 5126,
      "count" : 364,
      "type" : "VEC4"
    },
    {
      "bufferView" : 10,
      "componentType" : 5126,
      "count" : 364,
      "type" : "VEC2"
    },
    {
      "bufferView" : 11,
      "componentType" : 5126,
      "count" : 364,
      "type" : "VEC2"
    }
  ]
}
