{
  "asset" : {
    "generator" : "UE Viewer (umodel) build 1579 based",
    "version" : "2.0"
  },
  "scene" : 0,
  "scenes" : [
    {
      "nodes" : [ 0 ]
    }
  ],
  "nodes" : [
    {
      "name" : "S_Envi_Umeda_Building_019j",
      "mesh" : 0
    }
  ],
  "materials" : [
    {
      "name" : "MI_Envi_Umeda_Base_Ground_7",
      "pbrMetallicRoughness" : {
        "baseColorFactor" : [ 0.3, 0.3, 0.3, 1.0 ],
        "metallicFactor" : 0.1,
        "roughnessFactor" : 0.5
      }
    },
    {
      "name" : "MI_Envi_Umeda_Base_Ground_03",
      "pbrMetallicRoughness" : {
        "baseColorFactor" : [ 0.9, 0.3, 0.3, 1.0 ],
        "metallicFactor" : 0.1,
        "roughnessFactor" : 0.5
      }
    }
  ],
  "meshes" : [
    {
      "primitives" : [
        {
          "attributes" : {
            "POSITION" : 1,
            "NORMAL" : 2,
            "TANGENT" : 3,
            "TEXCOORD_0" : 4,
            "TEXCOORD_1" : 5,
            "TEXCOORD_2" : 6,
            "TEXCOORD_3" : 7,
            "TEXCOORD_4" : 8,
            "TEXCOORD_5" : 9,
            "TEXCOORD_6" : 10
          },
          "indices" : 0,
          "material" : 0
        },
        {
          "attributes" : {
            "POSITION" : 12,
            "NORMAL" : 13,
            "TANGENT" : 14,
            "TEXCOORD_0" : 15,
            "TEXCOORD_1" : 16,
            "TEXCOORD_2" : 17,
            "TEXCOORD_3" : 18,
            "TEXCOORD_4" : 19,
            "TEXCOORD_5" : 20,
            "TEXCOORD_6" : 21
          },
          "indices" : 11,
          "material" : 1
        }
      ],
      "name" : "S_Envi_Umeda_Building_019j"
    }
  ],
  "buffers" : [
    {
      "uri" : "S_Envi_Umeda_Building_019j.bin",
      "byteLength" : 2952
    }
  ],
  "bufferViews" : [
    {
      "buffer" : 0,
      "byteOffset" : 0,
      "byteLength" : 144
    },
    {
      "buffer" : 0,
      "byteOffset" : 144,
      "byteLength" : 276
    },
    {
      "buffer" : 0,
      "byteOffset" : 420,
      "byteLength" : 276
    },
    {
      "buffer" : 0,
      "byteOffset" : 696,
      "byteLength" : 368
    },
    {
      "buffer" : 0,
      "byteOffset" : 1064,
      "byteLength" : 184
    },
    {
      "buffer" : 0,
      "byteOffset" : 1248,
      "byteLength" : 184
    },
    {
      "buffer" : 0,
      "byteOffset" : 1432,
      "byteLength" : 184
    },
    {
      "buffer" : 0,
      "byteOffset" : 1616,
      "byteLength" : 184
    },
    {
      "buffer" : 0,
      "byteOffset" : 1800,
      "byteLength" : 184
    },
    {
      "buffer" : 0,
      "byteOffset" : 1984,
      "byteLength" : 184
    },
    {
      "buffer" : 0,
      "byteOffset" : 2168,
      "byteLength" : 184
    },
    {
      "buffer" : 0,
      "byteOffset" : 2352,
      "byteLength" : 24
    },
    {
      "buffer" : 0,
      "byteOffset" : 2376,
      "byteLength" : 72
    },
    {
      "buffer" : 0,
      "byteOffset" : 2448,
      "byteLength" : 72
    },
    {
      "buffer" : 0,
      "byteOffset" : 2520,
      "byteLength" : 96
    },
    {
      "buffer" : 0,
      "byteOffset" : 2616,
      "byteLength" : 48
    },
    {
      "buffer" : 0,
      "byteOffset" : 2664,
      "byteLength" : 48
    },
    {
      "buffer" : 0,
      "byteOffset" : 2712,
      "byteLength" : 48
    },
    {
      "buffer" : 0,
      "byteOffset" : 2760,
      "byteLength" : 48
    },
    {
      "buffer" : 0,
      "byteOffset" : 2808,
      "byteLength" : 48
    },
    {
      "buffer" : 0,
      "byteOffset" : 2856,
      "byteLength" : 48
    },
    {
      "buffer" : 0,
      "byteOffset" : 2904,
      "byteLength" : 48
    }
  ],
  "accessors" : [
    {
      "bufferView" : 0,
      "componentType" : 5123,
      "count" : 72,
      "type" : "SCALAR"
    },
    {
      "bufferView" : 1,
      "min" : [ -48.4508, 11.6152, 2.7168 ],
      "max" : [ -40.265, 11.6152, 12.7116 ],
      "componentType" : 5126,
      "count" : 23,
      "type" : "VEC3"
    },
    {
      "bufferView" : 2,
      "componentType" : 5126,
      "count" : 23,
      "type" : "VEC3"
    },
    {
      "bufferView" : 3,
      "componentType" : 5126,
      "count" : 23,
      "type" : "VEC4"
    },
    {
      "bufferView" : 4,
      "componentType" : 5126,
      "count" : 23,
      "type" : "VEC2"
    },
    {
      "bufferView" : 5,
      "componentType" : 5126,
      "count" : 23,
      "type" : "VEC2"
    },
    {
      "bufferView" : 6,
      "componentType" : 5126,
      "count" : 23,
      "type" : "VEC2"
    },
    {
      "bufferView" : 7,
      "componentType" : 5126,
      "count" : 23,
      "type" : "VEC2"
    },
    {
      "bufferView" : 8,
      "componentType" : 5126,
      "count" : 23,
      "type" : "VEC2"
    },
    {
      "bufferView" : 9,
      "componentType" : 5126,
      "count" : 23,
      "type" : "VEC2"
    },
    {
      "bufferView" : 10,
      "componentType" : 5126,
      "count" : 23,
      "type" : "VEC2"
    },
    {
      "bufferView" : 11,
      "componentType" : 5123,
      "count" : 12,
      "type" : "SCALAR"
    },
    {
      "bufferView" : 12,
      "min" : [ -44.3154, 11.6152, 3.42499 ],
      "max" : [ -40.9929, 11.6152, 11.9271 ],
      "componentType" : 5126,
      "count" : 6,
      "type" : "VEC3"
    },
    {
      "bufferView" : 13,
      "componentType" : 5126,
      "count" : 6,
      "type" : "VEC3"
    },
    {
      "bufferView" : 14,
      "componentType" : 5126,
      "count" : 6,
      "type" : "VEC4"
    },
    {
      "bufferView" : 15,
      "componentType" : 5126,
      "count" : 6,
      "type" : "VEC2"
    },
    {
      "bufferView" : 16,
      "componentType" : 5126,
      "count" : 6,
      "type" : "VEC2"
    },
    {
      "bufferView" : 17,
      "componentType" : 5126,
      "count" : 6,
      "type" : "VEC2"
    },
    {
      "bufferView" : 18,
      "componentType" : 5126,
      "count" : 6,
      "type" : "VEC2"
    },
    {
      "bufferView" : 19,
      "componentType" : 5126,
      "count" : 6,
      "type" : "VEC2"
    },
    {
      "bufferView" : 20,
      "componentType" : 5126,
      "count" : 6,
      "type" : "VEC2"
    },
    {
      "bufferView" : 21,
      "componentType" : 5126,
      "count" : 6,
      "type" : "VEC2"
    }
  ]
}
