{
  "asset" : {
    "generator" : "UE Viewer (umodel) build 1579 based",
    "version" : "2.0"
  },
  "scene" : 0,
  "scenes" : [
    {
      "nodes" : [ 0 ]
    }
  ],
  "nodes" : [
    {
      "name" : "S_Envi_Umeda_Indoor_002b",
      "mesh" : 0
    }
  ],
  "materials" : [
    {
      "name" : "MI_Envi_Umeda_Base_Ladder_01",
      "pbrMetallicRoughness" : {
        "baseColorFactor" : [ 0.3, 0.3, 0.3, 1.0 ],
        "metallicFactor" : 0.1,
        "roughnessFactor" : 0.5
      }
    },
    {
      "name" : "MI_Envi_Umeda_Base_Ground_03",
      "pbrMetallicRoughness" : {
        "baseColorFactor" : [ 0.9, 0.3, 0.3, 1.0 ],
        "metallicFactor" : 0.1,
        "roughnessFactor" : 0.5
      }
    },
    {
      "name" : "MI_Envi_commontrim_03",
      "pbrMetallicRoughness" : {
        "baseColorFactor" : [ 0.3, 0.9, 0.3, 1.0 ],
        "metallicFactor" : 0.1,
        "roughnessFactor" : 0.5
      }
    }
  ],
  "meshes" : [
    {
      "primitives" : [
        {
          "attributes" : {
            "POSITION" : 1,
            "NORMAL" : 2,
            "TANGENT" : 3,
            "TEXCOORD_0" : 4,
            "TEXCOORD_1" : 5,
            "TEXCOORD_2" : 6,
            "TEXCOORD_3" : 7
          },
          "indices" : 0,
          "material" : 0
        },
        {
          "attributes" : {
            "POSITION" : 9,
            "NORMAL" : 10,
            "TANGENT" : 11,
            "TEXCOORD_0" : 12,
            "TEXCOORD_1" : 13,
            "TEXCOORD_2" : 14,
            "TEXCOORD_3" : 15
          },
          "indices" : 8,
          "material" : 1
        },
        {
          "attributes" : {
            "POSITION" : 17,
            "NORMAL" : 18,
            "TANGENT" : 19,
            "TEXCOORD_0" : 20,
            "TEXCOORD_1" : 21,
            "TEXCOORD_2" : 22,
            "TEXCOORD_3" : 23
          },
          "indices" : 16,
          "material" : 2
        }
      ],
      "name" : "S_Envi_Umeda_Indoor_002b"
    }
  ],
  "buffers" : [
    {
      "uri" : "S_Envi_Umeda_Indoor_002b.bin",
      "byteLength" : 36828
    }
  ],
  "bufferViews" : [
    {
      "buffer" : 0,
      "byteOffset" : 0,
      "byteLength" : 900
    },
    {
      "buffer" : 0,
      "byteOffset" : 900,
      "byteLength" : 3888
    },
    {
      "buffer" : 0,
      "byteOffset" : 4788,
      "byteLength" : 3888
    },
    {
      "buffer" : 0,
      "byteOffset" : 8676,
      "byteLength" : 5184
    },
    {
      "buffer" : 0,
      "byteOffset" : 13860,
      "byteLength" : 2592
    },
    {
      "buffer" : 0,
      "byteOffset" : 16452,
      "byteLength" : 2592
    },
    {
      "buffer" : 0,
      "byteOffset" : 19044,
      "byteLength" : 2592
    },
    {
      "buffer" : 0,
      "byteOffset" : 21636,
      "byteLength" : 2592
    },
    {
      "buffer" : 0,
      "byteOffset" : 24228,
      "byteLength" : 384
    },
    {
      "buffer" : 0,
      "byteOffset" : 24612,
      "byteLength" : 1536
    },
    {
      "buffer" : 0,
      "byteOffset" : 26148,
      "byteLength" : 1536
    },
    {
      "buffer" : 0,
      "byteOffset" : 27684,
      "byteLength" : 2048
    },
    {
      "buffer" : 0,
      "byteOffset" : 29732,
      "byteLength" : 1024
    },
    {
      "buffer" : 0,
      "byteOffset" : 30756,
      "byteLength" : 1024
    },
    {
      "buffer" : 0,
      "byteOffset" : 31780,
      "byteLength" : 1024
    },
    {
      "buffer" : 0,
      "byteOffset" : 32804,
      "byteLength" : 1024
    },
    {
      "buffer" : 0,
      "byteOffset" : 33828,
      "byteLength" : 120
    },
    {
      "buffer" : 0,
      "byteOffset" : 33948,
      "byteLength" : 480
    },
    {
      "buffer" : 0,
      "byteOffset" : 34428,
      "byteLength" : 480
    },
    {
      "buffer" : 0,
      "byteOffset" : 34908,
      "byteLength" : 640
    },
    {
      "buffer" : 0,
      "byteOffset" : 35548,
      "byteLength" : 320
    },
    {
      "buffer" : 0,
      "byteOffset" : 35868,
      "byteLength" : 320
    },
    {
      "buffer" : 0,
      "byteOffset" : 36188,
      "byteLength" : 320
    },
    {
      "buffer" : 0,
      "byteOffset" : 36508,
      "byteLength" : 320
    }
  ],
  "accessors" : [
    {
      "bufferView" : 0,
      "componentType" : 5123,
      "count" : 450,
      "type" : "SCALAR"
    },
    {
      "bufferView" : 1,
      "min" : [ 3.53738, -4.98745, -6.09735 ],
      "max" : [ 11.4272, -2.62052, 3.89735 ],
      "componentType" : 5126,
      "count" : 324,
      "type" : "VEC3"
    },
    {
      "bufferView" : 2,
      "componentType" : 5126,
      "count" : 324,
      "type" : "VEC3"
    },
    {
      "bufferView" : 3,
      "componentType" : 5126,
      "count" : 324,
      "type" : "VEC4"
    },
    {
      "bufferView" : 4,
      "componentType" : 5126,
      "count" : 324,
      "type" : "VEC2"
    },
    {
      "bufferView" : 5,
      "componentType" : 5126,
      "count" : 324,
      "type" : "VEC2"
    },
    {
      "bufferView" : 6,
      "componentType" : 5126,
      "count" : 324,
      "type" : "VEC2"
    },
    {
      "bufferView" : 7,
      "componentType" : 5126,
      "count" : 324,
      "type" : "VEC2"
    },
    {
      "bufferView" : 8,
      "componentType" : 5123,
      "count" : 192,
      "type" : "SCALAR"
    },
    {
      "bufferView" : 9,
      "min" : [ -6.13982, -4.53119, -6.09735 ],
      "max" : [ 21.5898, -2.66881, 3.89735 ],
      "componentType" : 5126,
      "count" : 128,
      "type" : "VEC3"
    },
    {
      "bufferView" : 10,
      "componentType" : 5126,
      "count" : 128,
      "type" : "VEC3"
    },
    {
      "bufferView" : 11,
      "componentType" : 5126,
      "count" : 128,
      "type" : "VEC4"
    },
    {
      "bufferView" : 12,
      "componentType" : 5126,
      "count" : 128,
      "type" : "VEC2"
    },
    {
      "bufferView" : 13,
      "componentType" : 5126,
      "count" : 128,
      "type" : "VEC2"
    },
    {
      "bufferView" : 14,
      "componentType" : 5126,
      "count" : 128,
      "type" : "VEC2"
    },
    {
      "bufferView" : 15,
      "componentType" : 5126,
      "count" : 128,
      "type" : "VEC2"
    },
    {
      "bufferView" : 16,
      "componentType" : 5123,
      "count" : 60,
      "type" : "SCALAR"
    },
    {
      "bufferView" : 17,
      "min" : [ -6.775, -4.53119, -6.6 ],
      "max" : [ 22.225, -2.66881, 4.4 ],
      "componentType" : 5126,
      "count" : 40,
      "type" : "VEC3"
    },
    {
      "bufferView" : 18,
      "componentType" : 5126,
      "count" : 40,
      "type" : "VEC3"
    },
    {
      "bufferView" : 19,
      "componentType" : 5126,
      "count" : 40,
      "type" : "VEC4"
    },
    {
      "bufferView" : 20,
      "componentType" : 5126,
      "count" : 40,
      "type" : "VEC2"
    },
    {
      "bufferView" : 21,
      "componentType" : 5126,
      "count" : 40,
      "type" : "VEC2"
    },
    {
      "bufferView" : 22,
      "componentType" : 5126,
      "count" : 40,
      "type" : "VEC2"
    },
    {
      "bufferView" : 23,
      "componentType" : 5126,
      "count" : 40,
      "type" : "VEC2"
    }
  ]
}
