{
  "asset" : {
    "generator" : "UE Viewer (umodel) build 1579 based",
    "version" : "2.0"
  },
  "scene" : 0,
  "scenes" : [
    {
      "nodes" : [ 0 ]
    }
  ],
  "nodes" : [
    {
      "name" : "S_Envi_Umeda_japan_Tile_01_A",
      "mesh" : 0
    }
  ],
  "materials" : [
    {
      "name" : "MI_Envi_Umeda_japan_Temple_02",
      "pbrMetallicRoughness" : {
        "baseColorFactor" : [ 0.3, 0.3, 0.3, 1.0 ],
        "metallicFactor" : 0.1,
        "roughnessFactor" : 0.5
      }
    },
    {
      "name" : "MI_Envi_Umeda_japan_Temple_03",
      "pbrMetallicRoughness" : {
        "baseColorFactor" : [ 0.9, 0.3, 0.3, 1.0 ],
        "metallicFactor" : 0.1,
        "roughnessFactor" : 0.5
      }
    }
  ],
  "meshes" : [
    {
      "primitives" : [
        {
          "attributes" : {
            "POSITION" : 1,
            "NORMAL" : 2,
            "TANGENT" : 3,
            "TEXCOORD_0" : 4,
            "TEXCOORD_1" : 5,
            "TEXCOORD_2" : 6,
            "TEXCOORD_3" : 7
          },
          "indices" : 0,
          "material" : 0
        },
        {
          "attributes" : {
            "POSITION" : 9,
            "NORMAL" : 10,
            "TANGENT" : 11,
            "TEXCOORD_0" : 12,
            "TEXCOORD_1" : 13,
            "TEXCOORD_2" : 14,
            "TEXCOORD_3" : 15
          },
          "indices" : 8,
          "material" : 1
        }
      ],
      "name" : "S_Envi_Umeda_japan_Tile_01_A"
    }
  ],
  "buffers" : [
    {
      "uri" : "S_Envi_Umeda_japan_Tile_01_A.bin",
      "byteLength" : 127376
    }
  ],
  "bufferViews" : [
    {
      "buffer" : 0,
      "byteOffset" : 0,
      "byteLength" : 6704
    },
    {
      "buffer" : 0,
      "byteOffset" : 6704,
      "byteLength" : 17640
    },
    {
      "buffer" : 0,
      "byteOffset" : 24344,
      "byteLength" : 17640
    },
    {
      "buffer" : 0,
      "byteOffset" : 41984,
      "byteLength" : 23520
    },
    {
      "buffer" : 0,
      "byteOffset" : 65504,
      "byteLength" : 11760
    },
    {
      "buffer" : 0,
      "byteOffset" : 77264,
      "byteLength" : 11760
    },
    {
      "buffer" : 0,
      "byteOffset" : 89024,
      "byteLength" : 11760
    },
    {
      "buffer" : 0,
      "byteOffset" : 100784,
      "byteLength" : 11760
    },
    {
      "buffer" : 0,
      "byteOffset" : 112544,
      "byteLength" : 1008
    },
    {
      "buffer" : 0,
      "byteOffset" : 113552,
      "byteLength" : 2304
    },
    {
      "buffer" : 0,
      "byteOffset" : 115856,
      "byteLength" : 2304
    },
    {
      "buffer" : 0,
      "byteOffset" : 118160,
      "byteLength" : 3072
    },
    {
      "buffer" : 0,
      "byteOffset" : 121232,
      "byteLength" : 1536
    },
    {
      "buffer" : 0,
      "byteOffset" : 122768,
      "byteLength" : 1536
    },
    {
      "buffer" : 0,
      "byteOffset" : 124304,
      "byteLength" : 1536
    },
    {
      "buffer" : 0,
      "byteOffset" : 125840,
      "byteLength" : 1536
    }
  ],
  "accessors" : [
    {
      "bufferView" : 0,
      "componentType" : 5123,
      "count" : 3351,
      "type" : "SCALAR"
    },
    {
      "bufferView" : 1,
      "min" : [ -5.75913, -0.379096, -8.11904 ],
      "max" : [ 6.71387e-06, 3.30887, 0.939721 ],
      "componentType" : 5126,
      "count" : 1470,
      "type" : "VEC3"
    },
    {
      "bufferView" : 2,
      "componentType" : 5126,
      "count" : 1470,
      "type" : "VEC3"
    },
    {
      "bufferView" : 3,
      "componentType" : 5126,
      "count" : 1470,
      "type" : "VEC4"
    },
    {
      "bufferView" : 4,
      "componentType" : 5126,
      "count" : 1470,
      "type" : "VEC2"
    },
    {
      "bufferView" : 5,
      "componentType" : 5126,
      "count" : 1470,
      "type" : "VEC2"
    },
    {
      "bufferView" : 6,
      "componentType" : 5126,
      "count" : 1470,
      "type" : "VEC2"
    },
    {
      "bufferView" : 7,
      "componentType" : 5126,
      "count" : 1470,
      "type" : "VEC2"
    },
    {
      "bufferView" : 8,
      "componentType" : 5123,
      "count" : 504,
      "type" : "SCALAR"
    },
    {
      "bufferView" : 9,
      "min" : [ -3.43812, 1.54387, -4.79143 ],
      "max" : [ -2.93852, 2.84682, -2.60391 ],
      "componentType" : 5126,
      "count" : 192,
      "type" : "VEC3"
    },
    {
      "bufferView" : 10,
      "componentType" : 5126,
      "count" : 192,
      "type" : "VEC3"
    },
    {
      "bufferView" : 11,
      "componentType" : 5126,
      "count" : 192,
      "type" : "VEC4"
    },
    {
      "bufferView" : 12,
      "componentType" : 5126,
      "count" : 192,
      "type" : "VEC2"
    },
    {
      "bufferView" : 13,
      "componentType" : 5126,
      "count" : 192,
      "type" : "VEC2"
    },
    {
      "bufferView" : 14,
      "componentType" : 5126,
      "count" : 192,
      "type" : "VEC2"
    },
    {
      "bufferView" : 15,
      "componentType" : 5126,
      "count" : 192,
      "type" : "VEC2"
    }
  ]
}
