{
  "asset" : {
    "generator" : "UE Viewer (umodel) build 1579 based",
    "version" : "2.0"
  },
  "scene" : 0,
  "scenes" : [
    {
      "nodes" : [ 0 ]
    }
  ],
  "nodes" : [
    {
      "name" : "S_wall_05",
      "mesh" : 0
    }
  ],
  "materials" : [
    {
      "name" : "MI_Wall_Metallic_06_C",
      "pbrMetallicRoughness" : {
        "baseColorFactor" : [ 0.3, 0.3, 0.3, 1.0 ],
        "metallicFactor" : 0.1,
        "roughnessFactor" : 0.5
      }
    },
    {
      "name" : "MI_Envi_Umeda_Base_Ground_02b",
      "pbrMetallicRoughness" : {
        "baseColorFactor" : [ 0.9, 0.3, 0.3, 1.0 ],
        "metallicFactor" : 0.1,
        "roughnessFactor" : 0.5
      }
    }
  ],
  "meshes" : [
    {
      "primitives" : [
        {
          "attributes" : {
            "POSITION" : 1,
            "NORMAL" : 2,
            "TANGENT" : 3,
            "TEXCOORD_0" : 4,
            "TEXCOORD_1" : 5
          },
          "indices" : 0,
          "material" : 0
        },
        {
          "attributes" : {
            "POSITION" : 7,
            "NORMAL" : 8,
            "TANGENT" : 9,
            "TEXCOORD_0" : 10,
            "TEXCOORD_1" : 11
          },
          "indices" : 6,
          "material" : 1
        }
      ],
      "name" : "S_wall_05"
    }
  ],
  "buffers" : [
    {
      "uri" : "S_wall_05.bin",
      "byteLength" : 10244
    }
  ],
  "bufferViews" : [
    {
      "buffer" : 0,
      "byteOffset" : 0,
      "byteLength" : 312
    },
    {
      "buffer" : 0,
      "byteOffset" : 312,
      "byteLength" : 1056
    },
    {
      "buffer" : 0,
      "byteOffset" : 1368,
      "byteLength" : 1056
    },
    {
      "buffer" : 0,
      "byteOffset" : 2424,
      "byteLength" : 1408
    },
    {
      "buffer" : 0,
      "byteOffset" : 3832,
      "byteLength" : 704
    },
    {
      "buffer" : 0,
      "byteOffset" : 4536,
      "byteLength" : 704
    },
    {
      "buffer" : 0,
      "byteOffset" : 5240,
      "byteLength" : 300
    },
    {
      "buffer" : 0,
      "byteOffset" : 5540,
      "byteLength" : 1008
    },
    {
      "buffer" : 0,
      "byteOffset" : 6548,
      "byteLength" : 1008
    },
    {
      "buffer" : 0,
      "byteOffset" : 7556,
      "byteLength" : 1344
    },
    {
      "buffer" : 0,
      "byteOffset" : 8900,
      "byteLength" : 672
    },
    {
      "buffer" : 0,
      "byteOffset" : 9572,
      "byteLength" : 672
    }
  ],
  "accessors" : [
    {
      "bufferView" : 0,
      "componentType" : 5123,
      "count" : 156,
      "type" : "SCALAR"
    },
    {
      "bufferView" : 1,
      "min" : [ -3.43008, -0.631455, -9.17945 ],
      "max" : [ 3.51171, 2.81136, 7.84862 ],
      "componentType" : 5126,
      "count" : 88,
      "type" : "VEC3"
    },
    {
      "bufferView" : 2,
      "componentType" : 5126,
      "count" : 88,
      "type" : "VEC3"
    },
    {
      "bufferView" : 3,
      "componentType" : 5126,
      "count" : 88,
      "type" : "VEC4"
    },
    {
      "bufferView" : 4,
      "componentType" : 5126,
      "count" : 88,
      "type" : "VEC2"
    },
    {
      "bufferView" : 5,
      "componentType" : 5126,
      "count" : 88,
      "type" : "VEC2"
    },
    {
      "bufferView" : 6,
      "componentType" : 5123,
      "count" : 150,
      "type" : "SCALAR"
    },
    {
      "bufferView" : 7,
      "min" : [ -2.68184, -1.28711, -9.08934 ],
      "max" : [ 2.74469, -0.626794, 7.84862 ],
      "componentType" : 5126,
      "count" : 84,
      "type" : "VEC3"
    },
    {
      "bufferView" : 8,
      "componentType" : 5126,
      "count" : 84,
      "type" : "VEC3"
    },
    {
      "bufferView" : 9,
      "componentType" : 5126,
      "count" : 84,
      "type" : "VEC4"
    },
    {
      "bufferView" : 10,
      "componentType" : 5126,
      "count" : 84,
      "type" : "VEC2"
    },
    {
      "bufferView" : 11,
      "componentType" : 5126,
      "count" : 84,
      "type" : "VEC2"
    }
  ]
}
