{
  "asset" : {
    "generator" : "UE Viewer (umodel) build 1579 based",
    "version" : "2.0"
  },
  "scene" : 0,
  "scenes" : [
    {
      "nodes" : [ 0 ]
    }
  ],
  "nodes" : [
    {
      "name" : "S_Envi_FZFBase_weathering_01g",
      "mesh" : 0
    }
  ],
  "materials" : [
    {
      "name" : "MI_S_Envi_FZFBase_weathering_01g",
      "pbrMetallicRoughness" : {
        "baseColorFactor" : [ 0.3, 0.3, 0.3, 1.0 ],
        "metallicFactor" : 0.1,
        "roughnessFactor" : 0.5
      }
    }
  ],
  "meshes" : [
    {
      "primitives" : [
        {
          "attributes" : {
            "POSITION" : 1,
            "NORMAL" : 2,
            "TANGENT" : 3,
            "TEXCOORD_0" : 4,
            "TEXCOORD_1" : 5
          },
          "indices" : 0,
          "material" : 0
        }
      ],
      "name" : "S_Envi_FZFBase_weathering_01g"
    }
  ],
  "buffers" : [
    {
      "uri" : "S_Envi_FZFBase_weathering_01g.bin",
      "byteLength" : 172176
    }
  ],
  "bufferViews" : [
    {
      "buffer" : 0,
      "byteOffset" : 0,
      "byteLength" : 27864
    },
    {
      "buffer" : 0,
      "byteOffset" : 27864,
      "byteLength" : 30924
    },
    {
      "buffer" : 0,
      "byteOffset" : 58788,
      "byteLength" : 30924
    },
    {
      "buffer" : 0,
      "byteOffset" : 89712,
      "byteLength" : 41232
    },
    {
      "buffer" : 0,
      "byteOffset" : 130944,
      "byteLength" : 20616
    },
    {
      "buffer" : 0,
      "byteOffset" : 151560,
      "byteLength" : 20616
    }
  ],
  "accessors" : [
    {
      "bufferView" : 0,
      "componentType" : 5123,
      "count" : 13932,
      "type" : "SCALAR"
    },
    {
      "bufferView" : 1,
      "min" : [ 5.27561, 1.0229, 15.9293 ],
      "max" : [ 47.7015, 2.30243, 38.3021 ],
      "componentType" : 5126,
      "count" : 2577,
      "type" : "VEC3"
    },
    {
      "bufferView" : 2,
      "componentType" : 5126,
      "count" : 2577,
      "type" : "VEC3"
    },
    {
      "bufferView" : 3,
      "componentType" : 5126,
      "count" : 2577,
      "type" : "VEC4"
    },
    {
      "bufferView" : 4,
      "componentType" : 5126,
      "count" : 2577,
      "type" : "VEC2"
    },
    {
      "bufferView" : 5,
      "componentType" : 5126,
      "count" : 2577,
      "type" : "VEC2"
    }
  ]
}
