{
  "asset" : {
    "generator" : "UE Viewer (umodel) build 1579 based",
    "version" : "2.0"
  },
  "scene" : 0,
  "scenes" : [
    {
      "nodes" : [ 0 ]
    }
  ],
  "nodes" : [
    {
      "name" : "S_Envi_FZFBase_weathering_01d",
      "mesh" : 0
    }
  ],
  "materials" : [
    {
      "name" : "MI_S_Envi_FZFBase_weathering_01d",
      "pbrMetallicRoughness" : {
        "baseColorFactor" : [ 0.3, 0.3, 0.3, 1.0 ],
        "metallicFactor" : 0.1,
        "roughnessFactor" : 0.5
      }
    }
  ],
  "meshes" : [
    {
      "primitives" : [
        {
          "attributes" : {
            "POSITION" : 1,
            "NORMAL" : 2,
            "TANGENT" : 3,
            "TEXCOORD_0" : 4,
            "TEXCOORD_1" : 5
          },
          "indices" : 0,
          "material" : 0
        }
      ],
      "name" : "S_Envi_FZFBase_weathering_01d"
    }
  ],
  "buffers" : [
    {
      "uri" : "S_Envi_FZFBase_weathering_01d.bin",
      "byteLength" : 385124
    }
  ],
  "bufferViews" : [
    {
      "buffer" : 0,
      "byteOffset" : 0,
      "byteLength" : 58140
    },
    {
      "buffer" : 0,
      "byteOffset" : 58140,
      "byteLength" : 70068
    },
    {
      "buffer" : 0,
      "byteOffset" : 128208,
      "byteLength" : 70068
    },
    {
      "buffer" : 0,
      "byteOffset" : 198276,
      "byteLength" : 93424
    },
    {
      "buffer" : 0,
      "byteOffset" : 291700,
      "byteLength" : 46712
    },
    {
      "buffer" : 0,
      "byteOffset" : 338412,
      "byteLength" : 46712
    }
  ],
  "accessors" : [
    {
      "bufferView" : 0,
      "componentType" : 5123,
      "count" : 29070,
      "type" : "SCALAR"
    },
    {
      "bufferView" : 1,
      "min" : [ -52.0206, -0.503328, -11.7638 ],
      "max" : [ -12.6982, 1.52432, 22.3545 ],
      "componentType" : 5126,
      "count" : 5839,
      "type" : "VEC3"
    },
    {
      "bufferView" : 2,
      "componentType" : 5126,
      "count" : 5839,
      "type" : "VEC3"
    },
    {
      "bufferView" : 3,
      "componentType" : 5126,
      "count" : 5839,
      "type" : "VEC4"
    },
    {
      "bufferView" : 4,
      "componentType" : 5126,
      "count" : 5839,
      "type" : "VEC2"
    },
    {
      "bufferView" : 5,
      "componentType" : 5126,
      "count" : 5839,
      "type" : "VEC2"
    }
  ]
}
