{
  "asset" : {
    "generator" : "UE Viewer (umodel) build 1579 based",
    "version" : "2.0"
  },
  "scene" : 0,
  "scenes" : [
    {
      "nodes" : [ 0 ]
    }
  ],
  "nodes" : [
    {
      "name" : "S_Envi_FZFBase_Decal_02",
      "mesh" : 0
    }
  ],
  "materials" : [
    {
      "name" : "MI_Envi_FZFBase_Decal_3",
      "pbrMetallicRoughness" : {
        "baseColorFactor" : [ 0.3, 0.3, 0.3, 1.0 ],
        "metallicFactor" : 0.1,
        "roughnessFactor" : 0.5
      }
    }
  ],
  "meshes" : [
    {
      "primitives" : [
        {
          "attributes" : {
            "POSITION" : 1,
            "NORMAL" : 2,
            "TANGENT" : 3,
            "TEXCOORD_0" : 4
          },
          "indices" : 0,
          "material" : 0
        }
      ],
      "name" : "S_Envi_FZFBase_Decal_02"
    }
  ],
  "buffers" : [
    {
      "uri" : "S_Envi_FZFBase_Decal_02.bin",
      "byteLength" : 3596
    }
  ],
  "bufferViews" : [
    {
      "buffer" : 0,
      "byteOffset" : 0,
      "byteLength" : 380
    },
    {
      "buffer" : 0,
      "byteOffset" : 380,
      "byteLength" : 804
    },
    {
      "buffer" : 0,
      "byteOffset" : 1184,
      "byteLength" : 804
    },
    {
      "buffer" : 0,
      "byteOffset" : 1988,
      "byteLength" : 1072
    },
    {
      "buffer" : 0,
      "byteOffset" : 3060,
      "byteLength" : 536
    }
  ],
  "accessors" : [
    {
      "bufferView" : 0,
      "componentType" : 5123,
      "count" : 189,
      "type" : "SCALAR"
    },
    {
      "bufferView" : 1,
      "min" : [ -0.769311, -4.89781e-17, -0.799874 ],
      "max" : [ 0.769311, 4.89781e-17, 0.799874 ],
      "componentType" : 5126,
      "count" : 67,
      "type" : "VEC3"
    },
    {
      "bufferView" : 2,
      "componentType" : 5126,
      "count" : 67,
      "type" : "VEC3"
    },
    {
      "bufferView" : 3,
      "componentType" : 5126,
      "count" : 67,
      "type" : "VEC4"
    },
    {
      "bufferView" : 4,
      "componentType" : 5126,
      "count" : 67,
      "type" : "VEC2"
    }
  ]
}
