{
  "asset" : {
    "generator" : "UE Viewer (umodel) build 1579 based",
    "version" : "2.0"
  },
  "scene" : 0,
  "scenes" : [
    {
      "nodes" : [ 0 ]
    }
  ],
  "nodes" : [
    {
      "name" : "S_Envi_FZFBase_weathering_01h",
      "mesh" : 0
    }
  ],
  "materials" : [
    {
      "name" : "MI_S_Envi_FZFBase_weathering_01h",
      "pbrMetallicRoughness" : {
        "baseColorFactor" : [ 0.3, 0.3, 0.3, 1.0 ],
        "metallicFactor" : 0.1,
        "roughnessFactor" : 0.5
      }
    }
  ],
  "meshes" : [
    {
      "primitives" : [
        {
          "attributes" : {
            "POSITION" : 1,
            "NORMAL" : 2,
            "TANGENT" : 3,
            "TEXCOORD_0" : 4,
            "TEXCOORD_1" : 5
          },
          "indices" : 0,
          "material" : 0
        }
      ],
      "name" : "S_Envi_FZFBase_weathering_01h"
    }
  ],
  "buffers" : [
    {
      "uri" : "S_Envi_FZFBase_weathering_01h.bin",
      "byteLength" : 55136
    }
  ],
  "bufferViews" : [
    {
      "buffer" : 0,
      "byteOffset" : 0,
      "byteLength" : 8544
    },
    {
      "buffer" : 0,
      "byteOffset" : 8544,
      "byteLength" : 9984
    },
    {
      "buffer" : 0,
      "byteOffset" : 18528,
      "byteLength" : 9984
    },
    {
      "buffer" : 0,
      "byteOffset" : 28512,
      "byteLength" : 13312
    },
    {
      "buffer" : 0,
      "byteOffset" : 41824,
      "byteLength" : 6656
    },
    {
      "buffer" : 0,
      "byteOffset" : 48480,
      "byteLength" : 6656
    }
  ],
  "accessors" : [
    {
      "bufferView" : 0,
      "componentType" : 5123,
      "count" : 4272,
      "type" : "SCALAR"
    },
    {
      "bufferView" : 1,
      "min" : [ -0.294416, 1.01566, 11.9615 ],
      "max" : [ 25.526, 2.58164, 40.9992 ],
      "componentType" : 5126,
      "count" : 832,
      "type" : "VEC3"
    },
    {
      "bufferView" : 2,
      "componentType" : 5126,
      "count" : 832,
      "type" : "VEC3"
    },
    {
      "bufferView" : 3,
      "componentType" : 5126,
      "count" : 832,
      "type" : "VEC4"
    },
    {
      "bufferView" : 4,
      "componentType" : 5126,
      "count" : 832,
      "type" : "VEC2"
    },
    {
      "bufferView" : 5,
      "componentType" : 5126,
      "count" : 832,
      "type" : "VEC2"
    }
  ]
}
