{
  "asset" : {
    "generator" : "UE Viewer (umodel) build 1579 based",
    "version" : "2.0"
  },
  "scene" : 0,
  "scenes" : [
    {
      "nodes" : [ 0 ]
    }
  ],
  "nodes" : [
    {
      "name" : "S_Envi_FZFBase_searchlight_03a",
      "mesh" : 0
    }
  ],
  "materials" : [
    {
      "name" : "MI_Envi_FZFBase_Searchlight_01a_3",
      "pbrMetallicRoughness" : {
        "baseColorFactor" : [ 0.3, 0.3, 0.3, 1.0 ],
        "metallicFactor" : 0.1,
        "roughnessFactor" : 0.5
      }
    }
  ],
  "meshes" : [
    {
      "primitives" : [
        {
          "attributes" : {
            "POSITION" : 1,
            "NORMAL" : 2,
            "TANGENT" : 3,
            "TEXCOORD_0" : 4,
            "TEXCOORD_1" : 5,
            "TEXCOORD_2" : 6,
            "TEXCOORD_3" : 7
          },
          "indices" : 0,
          "material" : 0
        }
      ],
      "name" : "S_Envi_FZFBase_searchlight_03a"
    }
  ],
  "buffers" : [
    {
      "uri" : "S_Envi_FZFBase_searchlight_03a.bin",
      "byteLength" : 266604
    }
  ],
  "bufferViews" : [
    {
      "buffer" : 0,
      "byteOffset" : 0,
      "byteLength" : 13452
    },
    {
      "buffer" : 0,
      "byteOffset" : 13452,
      "byteLength" : 42192
    },
    {
      "buffer" : 0,
      "byteOffset" : 55644,
      "byteLength" : 42192
    },
    {
      "buffer" : 0,
      "byteOffset" : 97836,
      "byteLength" : 56256
    },
    {
      "buffer" : 0,
      "byteOffset" : 154092,
      "byteLength" : 28128
    },
    {
      "buffer" : 0,
      "byteOffset" : 182220,
      "byteLength" : 28128
    },
    {
      "buffer" : 0,
      "byteOffset" : 210348,
      "byteLength" : 28128
    },
    {
      "buffer" : 0,
      "byteOffset" : 238476,
      "byteLength" : 28128
    }
  ],
  "accessors" : [
    {
      "bufferView" : 0,
      "componentType" : 5123,
      "count" : 6726,
      "type" : "SCALAR"
    },
    {
      "bufferView" : 1,
      "min" : [ -7.16728, 11.4815, -4.40106 ],
      "max" : [ 18.1272, 15.7269, 61.7771 ],
      "componentType" : 5126,
      "count" : 3516,
      "type" : "VEC3"
    },
    {
      "bufferView" : 2,
      "componentType" : 5126,
      "count" : 3516,
      "type" : "VEC3"
    },
    {
      "bufferView" : 3,
      "componentType" : 5126,
      "count" : 3516,
      "type" : "VEC4"
    },
    {
      "bufferView" : 4,
      "componentType" : 5126,
      "count" : 3516,
      "type" : "VEC2"
    },
    {
      "bufferView" : 5,
      "componentType" : 5126,
      "count" : 3516,
      "type" : "VEC2"
    },
    {
      "bufferView" : 6,
      "componentType" : 5126,
      "count" : 3516,
      "type" : "VEC2"
    },
    {
      "bufferView" : 7,
      "componentType" : 5126,
      "count" : 3516,
      "type" : "VEC2"
    }
  ]
}
