{
  "asset" : {
    "generator" : "UE Viewer (umodel) build 1579 based",
    "version" : "2.0"
  },
  "scene" : 0,
  "scenes" : [
    {
      "nodes" : [ 0 ]
    }
  ],
  "nodes" : [
    {
      "name" : "S_Envi_FZFBase_searchlight_03m",
      "mesh" : 0
    }
  ],
  "materials" : [
    {
      "name" : "MI_Envi_FZFBase_Searchlight_01b",
      "pbrMetallicRoughness" : {
        "baseColorFactor" : [ 0.3, 0.3, 0.3, 1.0 ],
        "metallicFactor" : 0.1,
        "roughnessFactor" : 0.5
      }
    }
  ],
  "meshes" : [
    {
      "primitives" : [
        {
          "attributes" : {
            "POSITION" : 1,
            "NORMAL" : 2,
            "TANGENT" : 3,
            "TEXCOORD_0" : 4,
            "TEXCOORD_1" : 5,
            "TEXCOORD_2" : 6,
            "TEXCOORD_3" : 7
          },
          "indices" : 0,
          "material" : 0
        }
      ],
      "name" : "S_Envi_FZFBase_searchlight_03m"
    }
  ],
  "buffers" : [
    {
      "uri" : "S_Envi_FZFBase_searchlight_03m.bin",
      "byteLength" : 34040
    }
  ],
  "bufferViews" : [
    {
      "buffer" : 0,
      "byteOffset" : 0,
      "byteLength" : 1424
    },
    {
      "buffer" : 0,
      "byteOffset" : 1424,
      "byteLength" : 5436
    },
    {
      "buffer" : 0,
      "byteOffset" : 6860,
      "byteLength" : 5436
    },
    {
      "buffer" : 0,
      "byteOffset" : 12296,
      "byteLength" : 7248
    },
    {
      "buffer" : 0,
      "byteOffset" : 19544,
      "byteLength" : 3624
    },
    {
      "buffer" : 0,
      "byteOffset" : 23168,
      "byteLength" : 3624
    },
    {
      "buffer" : 0,
      "byteOffset" : 26792,
      "byteLength" : 3624
    },
    {
      "buffer" : 0,
      "byteOffset" : 30416,
      "byteLength" : 3624
    }
  ],
  "accessors" : [
    {
      "bufferView" : 0,
      "componentType" : 5123,
      "count" : 711,
      "type" : "SCALAR"
    },
    {
      "bufferView" : 1,
      "min" : [ -2.90682, 4.40321, -0.0145536 ],
      "max" : [ 0.267266, 4.51889, 22.9384 ],
      "componentType" : 5126,
      "count" : 453,
      "type" : "VEC3"
    },
    {
      "bufferView" : 2,
      "componentType" : 5126,
      "count" : 453,
      "type" : "VEC3"
    },
    {
      "bufferView" : 3,
      "componentType" : 5126,
      "count" : 453,
      "type" : "VEC4"
    },
    {
      "bufferView" : 4,
      "componentType" : 5126,
      "count" : 453,
      "type" : "VEC2"
    },
    {
      "bufferView" : 5,
      "componentType" : 5126,
      "count" : 453,
      "type" : "VEC2"
    },
    {
      "bufferView" : 6,
      "componentType" : 5126,
      "count" : 453,
      "type" : "VEC2"
    },
    {
      "bufferView" : 7,
      "componentType" : 5126,
      "count" : 453,
      "type" : "VEC2"
    }
  ]
}
