{
  "asset" : {
    "generator" : "UE Viewer (umodel) build 1579 based",
    "version" : "2.0"
  },
  "scene" : 0,
  "scenes" : [
    {
      "nodes" : [ 0 ]
    }
  ],
  "nodes" : [
    {
      "name" : "S_Envi_FZFBase_searchlight_03j",
      "mesh" : 0
    }
  ],
  "materials" : [
    {
      "name" : "MI_Envi_FZFBase_Searchlight_01a",
      "pbrMetallicRoughness" : {
        "baseColorFactor" : [ 0.3, 0.3, 0.3, 1.0 ],
        "metallicFactor" : 0.1,
        "roughnessFactor" : 0.5
      }
    }
  ],
  "meshes" : [
    {
      "primitives" : [
        {
          "attributes" : {
            "POSITION" : 1,
            "NORMAL" : 2,
            "TANGENT" : 3,
            "TEXCOORD_0" : 4,
            "TEXCOORD_1" : 5,
            "TEXCOORD_2" : 6,
            "TEXCOORD_3" : 7,
            "TEXCOORD_4" : 8
          },
          "indices" : 0,
          "material" : 0
        }
      ],
      "name" : "S_Envi_FZFBase_searchlight_03j"
    }
  ],
  "buffers" : [
    {
      "uri" : "S_Envi_FZFBase_searchlight_03j.bin",
      "byteLength" : 51796
    }
  ],
  "bufferViews" : [
    {
      "buffer" : 0,
      "byteOffset" : 0,
      "byteLength" : 2196
    },
    {
      "buffer" : 0,
      "byteOffset" : 2196,
      "byteLength" : 7440
    },
    {
      "buffer" : 0,
      "byteOffset" : 9636,
      "byteLength" : 7440
    },
    {
      "buffer" : 0,
      "byteOffset" : 17076,
      "byteLength" : 9920
    },
    {
      "buffer" : 0,
      "byteOffset" : 26996,
      "byteLength" : 4960
    },
    {
      "buffer" : 0,
      "byteOffset" : 31956,
      "byteLength" : 4960
    },
    {
      "buffer" : 0,
      "byteOffset" : 36916,
      "byteLength" : 4960
    },
    {
      "buffer" : 0,
      "byteOffset" : 41876,
      "byteLength" : 4960
    },
    {
      "buffer" : 0,
      "byteOffset" : 46836,
      "byteLength" : 4960
    }
  ],
  "accessors" : [
    {
      "bufferView" : 0,
      "componentType" : 5123,
      "count" : 1098,
      "type" : "SCALAR"
    },
    {
      "bufferView" : 1,
      "min" : [ -0.229919, 7.27826, -11.1759 ],
      "max" : [ 10.4744, 7.90412, 0.6616 ],
      "componentType" : 5126,
      "count" : 620,
      "type" : "VEC3"
    },
    {
      "bufferView" : 2,
      "componentType" : 5126,
      "count" : 620,
      "type" : "VEC3"
    },
    {
      "bufferView" : 3,
      "componentType" : 5126,
      "count" : 620,
      "type" : "VEC4"
    },
    {
      "bufferView" : 4,
      "componentType" : 5126,
      "count" : 620,
      "type" : "VEC2"
    },
    {
      "bufferView" : 5,
      "componentType" : 5126,
      "count" : 620,
      "type" : "VEC2"
    },
    {
      "bufferView" : 6,
      "componentType" : 5126,
      "count" : 620,
      "type" : "VEC2"
    },
    {
      "bufferView" : 7,
      "componentType" : 5126,
      "count" : 620,
      "type" : "VEC2"
    },
    {
      "bufferView" : 8,
      "componentType" : 5126,
      "count" : 620,
      "type" : "VEC2"
    }
  ]
}
