{
  "asset" : {
    "generator" : "UE Viewer (umodel) build 1579 based",
    "version" : "2.0"
  },
  "scene" : 0,
  "scenes" : [
    {
      "nodes" : [ 0 ]
    }
  ],
  "nodes" : [
    {
      "name" : "S_Envi_FZFBase_Wall_03g",
      "mesh" : 0
    }
  ],
  "materials" : [
    {
      "name" : "MI_Envi_FZFBase_Wall_19b",
      "pbrMetallicRoughness" : {
        "baseColorFactor" : [ 0.3, 0.3, 0.3, 1.0 ],
        "metallicFactor" : 0.1,
        "roughnessFactor" : 0.5
      }
    },
    {
      "name" : "MI_Envi_FZFBase_Policeroom_02a",
      "pbrMetallicRoughness" : {
        "baseColorFactor" : [ 0.9, 0.3, 0.3, 1.0 ],
        "metallicFactor" : 0.1,
        "roughnessFactor" : 0.5
      }
    }
  ],
  "meshes" : [
    {
      "primitives" : [
        {
          "attributes" : {
            "POSITION" : 1,
            "NORMAL" : 2,
            "TANGENT" : 3,
            "TEXCOORD_0" : 4,
            "TEXCOORD_1" : 5,
            "TEXCOORD_2" : 6,
            "TEXCOORD_3" : 7
          },
          "indices" : 0,
          "material" : 0
        },
        {
          "attributes" : {
            "POSITION" : 9,
            "NORMAL" : 10,
            "TANGENT" : 11,
            "TEXCOORD_0" : 12,
            "TEXCOORD_1" : 13,
            "TEXCOORD_2" : 14,
            "TEXCOORD_3" : 15
          },
          "indices" : 8,
          "material" : 1
        }
      ],
      "name" : "S_Envi_FZFBase_Wall_03g"
    }
  ],
  "buffers" : [
    {
      "uri" : "S_Envi_FZFBase_Wall_03g.bin",
      "byteLength" : 17496
    }
  ],
  "bufferViews" : [
    {
      "buffer" : 0,
      "byteOffset" : 0,
      "byteLength" : 792
    },
    {
      "buffer" : 0,
      "byteOffset" : 792,
      "byteLength" : 2304
    },
    {
      "buffer" : 0,
      "byteOffset" : 3096,
      "byteLength" : 2304
    },
    {
      "buffer" : 0,
      "byteOffset" : 5400,
      "byteLength" : 3072
    },
    {
      "buffer" : 0,
      "byteOffset" : 8472,
      "byteLength" : 1536
    },
    {
      "buffer" : 0,
      "byteOffset" : 10008,
      "byteLength" : 1536
    },
    {
      "buffer" : 0,
      "byteOffset" : 11544,
      "byteLength" : 1536
    },
    {
      "buffer" : 0,
      "byteOffset" : 13080,
      "byteLength" : 1536
    },
    {
      "buffer" : 0,
      "byteOffset" : 14616,
      "byteLength" : 144
    },
    {
      "buffer" : 0,
      "byteOffset" : 14760,
      "byteLength" : 456
    },
    {
      "buffer" : 0,
      "byteOffset" : 15216,
      "byteLength" : 456
    },
    {
      "buffer" : 0,
      "byteOffset" : 15672,
      "byteLength" : 608
    },
    {
      "buffer" : 0,
      "byteOffset" : 16280,
      "byteLength" : 304
    },
    {
      "buffer" : 0,
      "byteOffset" : 16584,
      "byteLength" : 304
    },
    {
      "buffer" : 0,
      "byteOffset" : 16888,
      "byteLength" : 304
    },
    {
      "buffer" : 0,
      "byteOffset" : 17192,
      "byteLength" : 304
    }
  ],
  "accessors" : [
    {
      "bufferView" : 0,
      "componentType" : 5123,
      "count" : 396,
      "type" : "SCALAR"
    },
    {
      "bufferView" : 1,
      "min" : [ 5.88238, 1.15847, -55.5348 ],
      "max" : [ 20.6271, 11.0196, -44.3544 ],
      "componentType" : 5126,
      "count" : 192,
      "type" : "VEC3"
    },
    {
      "bufferView" : 2,
      "componentType" : 5126,
      "count" : 192,
      "type" : "VEC3"
    },
    {
      "bufferView" : 3,
      "componentType" : 5126,
      "count" : 192,
      "type" : "VEC4"
    },
    {
      "bufferView" : 4,
      "componentType" : 5126,
      "count" : 192,
      "type" : "VEC2"
    },
    {
      "bufferView" : 5,
      "componentType" : 5126,
      "count" : 192,
      "type" : "VEC2"
    },
    {
      "bufferView" : 6,
      "componentType" : 5126,
      "count" : 192,
      "type" : "VEC2"
    },
    {
      "bufferView" : 7,
      "componentType" : 5126,
      "count" : 192,
      "type" : "VEC2"
    },
    {
      "bufferView" : 8,
      "componentType" : 5123,
      "count" : 72,
      "type" : "SCALAR"
    },
    {
      "bufferView" : 9,
      "min" : [ 8.10719, 10.4539, -54.9895 ],
      "max" : [ 20.1047, 11.0196, -44.9836 ],
      "componentType" : 5126,
      "count" : 38,
      "type" : "VEC3"
    },
    {
      "bufferView" : 10,
      "componentType" : 5126,
      "count" : 38,
      "type" : "VEC3"
    },
    {
      "bufferView" : 11,
      "componentType" : 5126,
      "count" : 38,
      "type" : "VEC4"
    },
    {
      "bufferView" : 12,
      "componentType" : 5126,
      "count" : 38,
      "type" : "VEC2"
    },
    {
      "bufferView" : 13,
      "componentType" : 5126,
      "count" : 38,
      "type" : "VEC2"
    },
    {
      "bufferView" : 14,
      "componentType" : 5126,
      "count" : 38,
      "type" : "VEC2"
    },
    {
      "bufferView" : 15,
      "componentType" : 5126,
      "count" : 38,
      "type" : "VEC2"
    }
  ]
}
