{
  "asset" : {
    "generator" : "UE Viewer (umodel) build 1579 based",
    "version" : "2.0"
  },
  "scene" : 0,
  "scenes" : [
    {
      "nodes" : [ 0 ]
    }
  ],
  "nodes" : [
    {
      "name" : "S_Envi_FZFBase_searchlight_05d",
      "mesh" : 0
    }
  ],
  "materials" : [
    {
      "name" : "MI_Envi_FZFBase_Searchlight_05a",
      "pbrMetallicRoughness" : {
        "baseColorFactor" : [ 0.3, 0.3, 0.3, 1.0 ],
        "metallicFactor" : 0.1,
        "roughnessFactor" : 0.5
      }
    }
  ],
  "meshes" : [
    {
      "primitives" : [
        {
          "attributes" : {
            "POSITION" : 1,
            "NORMAL" : 2,
            "TANGENT" : 3,
            "TEXCOORD_0" : 4,
            "TEXCOORD_1" : 5,
            "TEXCOORD_2" : 6,
            "TEXCOORD_3" : 7
          },
          "indices" : 0,
          "material" : 0
        }
      ],
      "name" : "S_Envi_FZFBase_searchlight_05d"
    }
  ],
  "buffers" : [
    {
      "uri" : "S_Envi_FZFBase_searchlight_05d.bin",
      "byteLength" : 68160
    }
  ],
  "bufferViews" : [
    {
      "buffer" : 0,
      "byteOffset" : 0,
      "byteLength" : 4080
    },
    {
      "buffer" : 0,
      "byteOffset" : 4080,
      "byteLength" : 10680
    },
    {
      "buffer" : 0,
      "byteOffset" : 14760,
      "byteLength" : 10680
    },
    {
      "buffer" : 0,
      "byteOffset" : 25440,
      "byteLength" : 14240
    },
    {
      "buffer" : 0,
      "byteOffset" : 39680,
      "byteLength" : 7120
    },
    {
      "buffer" : 0,
      "byteOffset" : 46800,
      "byteLength" : 7120
    },
    {
      "buffer" : 0,
      "byteOffset" : 53920,
      "byteLength" : 7120
    },
    {
      "buffer" : 0,
      "byteOffset" : 61040,
      "byteLength" : 7120
    }
  ],
  "accessors" : [
    {
      "bufferView" : 0,
      "componentType" : 5123,
      "count" : 2040,
      "type" : "SCALAR"
    },
    {
      "bufferView" : 1,
      "min" : [ -0.759814, -4.44064, -3 ],
      "max" : [ 0.623086, 0.0370053, -6.40869e-06 ],
      "componentType" : 5126,
      "count" : 890,
      "type" : "VEC3"
    },
    {
      "bufferView" : 2,
      "componentType" : 5126,
      "count" : 890,
      "type" : "VEC3"
    },
    {
      "bufferView" : 3,
      "componentType" : 5126,
      "count" : 890,
      "type" : "VEC4"
    },
    {
      "bufferView" : 4,
      "componentType" : 5126,
      "count" : 890,
      "type" : "VEC2"
    },
    {
      "bufferView" : 5,
      "componentType" : 5126,
      "count" : 890,
      "type" : "VEC2"
    },
    {
      "bufferView" : 6,
      "componentType" : 5126,
      "count" : 890,
      "type" : "VEC2"
    },
    {
      "bufferView" : 7,
      "componentType" : 5126,
      "count" : 890,
      "type" : "VEC2"
    }
  ]
}
