{
  "asset" : {
    "generator" : "UE Viewer (umodel) build 1579 based",
    "version" : "2.0"
  },
  "scene" : 0,
  "scenes" : [
    {
      "nodes" : [ 0 ]
    }
  ],
  "nodes" : [
    {
      "name" : "S_Envi_FZFBase_searchlight_03h",
      "mesh" : 0
    }
  ],
  "materials" : [
    {
      "name" : "MI_Envi_FZFBase_Searchlight_01b",
      "pbrMetallicRoughness" : {
        "baseColorFactor" : [ 0.3, 0.3, 0.3, 1.0 ],
        "metallicFactor" : 0.1,
        "roughnessFactor" : 0.5
      }
    }
  ],
  "meshes" : [
    {
      "primitives" : [
        {
          "attributes" : {
            "POSITION" : 1,
            "NORMAL" : 2,
            "TANGENT" : 3,
            "TEXCOORD_0" : 4,
            "TEXCOORD_1" : 5,
            "TEXCOORD_2" : 6,
            "TEXCOORD_3" : 7
          },
          "indices" : 0,
          "material" : 0
        }
      ],
      "name" : "S_Envi_FZFBase_searchlight_03h"
    }
  ],
  "buffers" : [
    {
      "uri" : "S_Envi_FZFBase_searchlight_03h.bin",
      "byteLength" : 52680
    }
  ],
  "bufferViews" : [
    {
      "buffer" : 0,
      "byteOffset" : 0,
      "byteLength" : 2136
    },
    {
      "buffer" : 0,
      "byteOffset" : 2136,
      "byteLength" : 8424
    },
    {
      "buffer" : 0,
      "byteOffset" : 10560,
      "byteLength" : 8424
    },
    {
      "buffer" : 0,
      "byteOffset" : 18984,
      "byteLength" : 11232
    },
    {
      "buffer" : 0,
      "byteOffset" : 30216,
      "byteLength" : 5616
    },
    {
      "buffer" : 0,
      "byteOffset" : 35832,
      "byteLength" : 5616
    },
    {
      "buffer" : 0,
      "byteOffset" : 41448,
      "byteLength" : 5616
    },
    {
      "buffer" : 0,
      "byteOffset" : 47064,
      "byteLength" : 5616
    }
  ],
  "accessors" : [
    {
      "bufferView" : 0,
      "componentType" : 5123,
      "count" : 1068,
      "type" : "SCALAR"
    },
    {
      "bufferView" : 1,
      "min" : [ -0.0489062, 5.44046, -11.3154 ],
      "max" : [ 5.93124, 5.55973, 19.3178 ],
      "componentType" : 5126,
      "count" : 702,
      "type" : "VEC3"
    },
    {
      "bufferView" : 2,
      "componentType" : 5126,
      "count" : 702,
      "type" : "VEC3"
    },
    {
      "bufferView" : 3,
      "componentType" : 5126,
      "count" : 702,
      "type" : "VEC4"
    },
    {
      "bufferView" : 4,
      "componentType" : 5126,
      "count" : 702,
      "type" : "VEC2"
    },
    {
      "bufferView" : 5,
      "componentType" : 5126,
      "count" : 702,
      "type" : "VEC2"
    },
    {
      "bufferView" : 6,
      "componentType" : 5126,
      "count" : 702,
      "type" : "VEC2"
    },
    {
      "bufferView" : 7,
      "componentType" : 5126,
      "count" : 702,
      "type" : "VEC2"
    }
  ]
}
