{
  "asset" : {
    "generator" : "UE Viewer (umodel) build 1579 based",
    "version" : "2.0"
  },
  "scene" : 0,
  "scenes" : [
    {
      "nodes" : [ 0 ]
    }
  ],
  "nodes" : [
    {
      "name" : "S_Envi_FZFBase_Wall_20b",
      "mesh" : 0
    }
  ],
  "materials" : [
    {
      "name" : "MI_Envi_Common_Edging_01",
      "pbrMetallicRoughness" : {
        "baseColorFactor" : [ 0.3, 0.3, 0.3, 1.0 ],
        "metallicFactor" : 0.1,
        "roughnessFactor" : 0.5
      }
    }
  ],
  "meshes" : [
    {
      "primitives" : [
        {
          "attributes" : {
            "POSITION" : 1,
            "NORMAL" : 2,
            "TANGENT" : 3,
            "TEXCOORD_0" : 4,
            "TEXCOORD_1" : 5
          },
          "indices" : 0,
          "material" : 0
        }
      ],
      "name" : "S_Envi_FZFBase_Wall_20b"
    }
  ],
  "buffers" : [
    {
      "uri" : "S_Envi_FZFBase_Wall_20b.bin",
      "byteLength" : 135400
    }
  ],
  "bufferViews" : [
    {
      "buffer" : 0,
      "byteOffset" : 0,
      "byteLength" : 8616
    },
    {
      "buffer" : 0,
      "byteOffset" : 8616,
      "byteLength" : 27168
    },
    {
      "buffer" : 0,
      "byteOffset" : 35784,
      "byteLength" : 27168
    },
    {
      "buffer" : 0,
      "byteOffset" : 62952,
      "byteLength" : 36224
    },
    {
      "buffer" : 0,
      "byteOffset" : 99176,
      "byteLength" : 18112
    },
    {
      "buffer" : 0,
      "byteOffset" : 117288,
      "byteLength" : 18112
    }
  ],
  "accessors" : [
    {
      "bufferView" : 0,
      "componentType" : 5123,
      "count" : 4308,
      "type" : "SCALAR"
    },
    {
      "bufferView" : 1,
      "min" : [ -4.18554, 1.53917, -3.13692 ],
      "max" : [ 4.37059, 1.99344, 3.02854 ],
      "componentType" : 5126,
      "count" : 2264,
      "type" : "VEC3"
    },
    {
      "bufferView" : 2,
      "componentType" : 5126,
      "count" : 2264,
      "type" : "VEC3"
    },
    {
      "bufferView" : 3,
      "componentType" : 5126,
      "count" : 2264,
      "type" : "VEC4"
    },
    {
      "bufferView" : 4,
      "componentType" : 5126,
      "count" : 2264,
      "type" : "VEC2"
    },
    {
      "bufferView" : 5,
      "componentType" : 5126,
      "count" : 2264,
      "type" : "VEC2"
    }
  ]
}
