{
  "asset" : {
    "generator" : "UE Viewer (umodel) build 1579 based",
    "version" : "2.0"
  },
  "scene" : 0,
  "scenes" : [
    {
      "nodes" : [ 0 ]
    }
  ],
  "nodes" : [
    {
      "name" : "S_Envi_FZFBase_Baseboard_01d",
      "mesh" : 0
    }
  ],
  "materials" : [
    {
      "name" : "MI_Envi_FZFBase_Policeroom_02a",
      "pbrMetallicRoughness" : {
        "baseColorFactor" : [ 0.3, 0.3, 0.3, 1.0 ],
        "metallicFactor" : 0.1,
        "roughnessFactor" : 0.5
      }
    }
  ],
  "meshes" : [
    {
      "primitives" : [
        {
          "attributes" : {
            "POSITION" : 1,
            "NORMAL" : 2,
            "TANGENT" : 3,
            "TEXCOORD_0" : 4,
            "TEXCOORD_1" : 5,
            "TEXCOORD_2" : 6,
            "TEXCOORD_3" : 7
          },
          "indices" : 0,
          "material" : 0
        }
      ],
      "name" : "S_Envi_FZFBase_Baseboard_01d"
    }
  ],
  "buffers" : [
    {
      "uri" : "S_Envi_FZFBase_Baseboard_01d.bin",
      "byteLength" : 77700
    }
  ],
  "bufferViews" : [
    {
      "buffer" : 0,
      "byteOffset" : 0,
      "byteLength" : 4116
    },
    {
      "buffer" : 0,
      "byteOffset" : 4116,
      "byteLength" : 12264
    },
    {
      "buffer" : 0,
      "byteOffset" : 16380,
      "byteLength" : 12264
    },
    {
      "buffer" : 0,
      "byteOffset" : 28644,
      "byteLength" : 16352
    },
    {
      "buffer" : 0,
      "byteOffset" : 44996,
      "byteLength" : 8176
    },
    {
      "buffer" : 0,
      "byteOffset" : 53172,
      "byteLength" : 8176
    },
    {
      "buffer" : 0,
      "byteOffset" : 61348,
      "byteLength" : 8176
    },
    {
      "buffer" : 0,
      "byteOffset" : 69524,
      "byteLength" : 8176
    }
  ],
  "accessors" : [
    {
      "bufferView" : 0,
      "componentType" : 5123,
      "count" : 2058,
      "type" : "SCALAR"
    },
    {
      "bufferView" : 1,
      "min" : [ 25.3278, -0.055266, -13.4409 ],
      "max" : [ 52.05, 4.26891, 14.8869 ],
      "componentType" : 5126,
      "count" : 1022,
      "type" : "VEC3"
    },
    {
      "bufferView" : 2,
      "componentType" : 5126,
      "count" : 1022,
      "type" : "VEC3"
    },
    {
      "bufferView" : 3,
      "componentType" : 5126,
      "count" : 1022,
      "type" : "VEC4"
    },
    {
      "bufferView" : 4,
      "componentType" : 5126,
      "count" : 1022,
      "type" : "VEC2"
    },
    {
      "bufferView" : 5,
      "componentType" : 5126,
      "count" : 1022,
      "type" : "VEC2"
    },
    {
      "bufferView" : 6,
      "componentType" : 5126,
      "count" : 1022,
      "type" : "VEC2"
    },
    {
      "bufferView" : 7,
      "componentType" : 5126,
      "count" : 1022,
      "type" : "VEC2"
    }
  ]
}
