{
  "asset" : {
    "generator" : "UE Viewer (umodel) build 1579 based",
    "version" : "2.0"
  },
  "scene" : 0,
  "scenes" : [
    {
      "nodes" : [ 0 ]
    }
  ],
  "nodes" : [
    {
      "name" : "S_Envi_FZFBase_Building_01l",
      "mesh" : 0
    }
  ],
  "materials" : [
    {
      "name" : "MI_Envi_FZFBase_OuterDoor_01c",
      "pbrMetallicRoughness" : {
        "baseColorFactor" : [ 0.3, 0.3, 0.3, 1.0 ],
        "metallicFactor" : 0.1,
        "roughnessFactor" : 0.5
      }
    },
    {
      "name" : "MI_Envi_FZFBase_Wall_11b_3",
      "pbrMetallicRoughness" : {
        "baseColorFactor" : [ 0.9, 0.3, 0.3, 1.0 ],
        "metallicFactor" : 0.1,
        "roughnessFactor" : 0.5
      }
    },
    {
      "name" : "MI_Envi_FZFBase_Component_02a",
      "pbrMetallicRoughness" : {
        "baseColorFactor" : [ 0.3, 0.9, 0.3, 1.0 ],
        "metallicFactor" : 0.1,
        "roughnessFactor" : 0.5
      }
    }
  ],
  "meshes" : [
    {
      "primitives" : [
        {
          "attributes" : {
            "POSITION" : 1,
            "NORMAL" : 2,
            "TANGENT" : 3,
            "TEXCOORD_0" : 4,
            "TEXCOORD_1" : 5,
            "TEXCOORD_2" : 6,
            "TEXCOORD_3" : 7
          },
          "indices" : 0,
          "material" : 0
        },
        {
          "attributes" : {
            "POSITION" : 9,
            "NORMAL" : 10,
            "TANGENT" : 11,
            "TEXCOORD_0" : 12,
            "TEXCOORD_1" : 13,
            "TEXCOORD_2" : 14,
            "TEXCOORD_3" : 15
          },
          "indices" : 8,
          "material" : 1
        },
        {
          "attributes" : {
            "POSITION" : 17,
            "NORMAL" : 18,
            "TANGENT" : 19,
            "TEXCOORD_0" : 20,
            "TEXCOORD_1" : 21,
            "TEXCOORD_2" : 22,
            "TEXCOORD_3" : 23
          },
          "indices" : 16,
          "material" : 2
        }
      ],
      "name" : "S_Envi_FZFBase_Building_01l"
    }
  ],
  "buffers" : [
    {
      "uri" : "S_Envi_FZFBase_Building_01l.bin",
      "byteLength" : 797016
    }
  ],
  "bufferViews" : [
    {
      "buffer" : 0,
      "byteOffset" : 0,
      "byteLength" : 15128
    },
    {
      "buffer" : 0,
      "byteOffset" : 15128,
      "byteLength" : 48888
    },
    {
      "buffer" : 0,
      "byteOffset" : 64016,
      "byteLength" : 48888
    },
    {
      "buffer" : 0,
      "byteOffset" : 112904,
      "byteLength" : 65184
    },
    {
      "buffer" : 0,
      "byteOffset" : 178088,
      "byteLength" : 32592
    },
    {
      "buffer" : 0,
      "byteOffset" : 210680,
      "byteLength" : 32592
    },
    {
      "buffer" : 0,
      "byteOffset" : 243272,
      "byteLength" : 32592
    },
    {
      "buffer" : 0,
      "byteOffset" : 275864,
      "byteLength" : 32592
    },
    {
      "buffer" : 0,
      "byteOffset" : 308456,
      "byteLength" : 16832
    },
    {
      "buffer" : 0,
      "byteOffset" : 325288,
      "byteLength" : 58908
    },
    {
      "buffer" : 0,
      "byteOffset" : 384196,
      "byteLength" : 58908
    },
    {
      "buffer" : 0,
      "byteOffset" : 443104,
      "byteLength" : 78544
    },
    {
      "buffer" : 0,
      "byteOffset" : 521648,
      "byteLength" : 39272
    },
    {
      "buffer" : 0,
      "byteOffset" : 560920,
      "byteLength" : 39272
    },
    {
      "buffer" : 0,
      "byteOffset" : 600192,
      "byteLength" : 39272
    },
    {
      "buffer" : 0,
      "byteOffset" : 639464,
      "byteLength" : 39272
    },
    {
      "buffer" : 0,
      "byteOffset" : 678736,
      "byteLength" : 6248
    },
    {
      "buffer" : 0,
      "byteOffset" : 684984,
      "byteLength" : 18672
    },
    {
      "buffer" : 0,
      "byteOffset" : 703656,
      "byteLength" : 18672
    },
    {
      "buffer" : 0,
      "byteOffset" : 722328,
      "byteLength" : 24896
    },
    {
      "buffer" : 0,
      "byteOffset" : 747224,
      "byteLength" : 12448
    },
    {
      "buffer" : 0,
      "byteOffset" : 759672,
      "byteLength" : 12448
    },
    {
      "buffer" : 0,
      "byteOffset" : 772120,
      "byteLength" : 12448
    },
    {
      "buffer" : 0,
      "byteOffset" : 784568,
      "byteLength" : 12448
    }
  ],
  "accessors" : [
    {
      "bufferView" : 0,
      "componentType" : 5123,
      "count" : 7563,
      "type" : "SCALAR"
    },
    {
      "bufferView" : 1,
      "min" : [ 14.5145, 9.02839, 4.0711 ],
      "max" : [ 47.5456, 14.2593, 18.3063 ],
      "componentType" : 5126,
      "count" : 4074,
      "type" : "VEC3"
    },
    {
      "bufferView" : 2,
      "componentType" : 5126,
      "count" : 4074,
      "type" : "VEC3"
    },
    {
      "bufferView" : 3,
      "componentType" : 5126,
      "count" : 4074,
      "type" : "VEC4"
    },
    {
      "bufferView" : 4,
      "componentType" : 5126,
      "count" : 4074,
      "type" : "VEC2"
    },
    {
      "bufferView" : 5,
      "componentType" : 5126,
      "count" : 4074,
      "type" : "VEC2"
    },
    {
      "bufferView" : 6,
      "componentType" : 5126,
      "count" : 4074,
      "type" : "VEC2"
    },
    {
      "bufferView" : 7,
      "componentType" : 5126,
      "count" : 4074,
      "type" : "VEC2"
    },
    {
      "bufferView" : 8,
      "componentType" : 5123,
      "count" : 8415,
      "type" : "SCALAR"
    },
    {
      "bufferView" : 9,
      "min" : [ 14.6325, 7.36598, 4.0711 ],
      "max" : [ 47.5456, 14.2211, 18.1592 ],
      "componentType" : 5126,
      "count" : 4909,
      "type" : "VEC3"
    },
    {
      "bufferView" : 10,
      "componentType" : 5126,
      "count" : 4909,
      "type" : "VEC3"
    },
    {
      "bufferView" : 11,
      "componentType" : 5126,
      "count" : 4909,
      "type" : "VEC4"
    },
    {
      "bufferView" : 12,
      "componentType" : 5126,
      "count" : 4909,
      "type" : "VEC2"
    },
    {
      "bufferView" : 13,
      "componentType" : 5126,
      "count" : 4909,
      "type" : "VEC2"
    },
    {
      "bufferView" : 14,
      "componentType" : 5126,
      "count" : 4909,
      "type" : "VEC2"
    },
    {
      "bufferView" : 15,
      "componentType" : 5126,
      "count" : 4909,
      "type" : "VEC2"
    },
    {
      "bufferView" : 16,
      "componentType" : 5123,
      "count" : 3123,
      "type" : "SCALAR"
    },
    {
      "bufferView" : 17,
      "min" : [ 14.5328, 8.59143, 5.41585 ],
      "max" : [ 45.5124, 13.7178, 18.0029 ],
      "componentType" : 5126,
      "count" : 1556,
      "type" : "VEC3"
    },
    {
      "bufferView" : 18,
      "componentType" : 5126,
      "count" : 1556,
      "type" : "VEC3"
    },
    {
      "bufferView" : 19,
      "componentType" : 5126,
      "count" : 1556,
      "type" : "VEC4"
    },
    {
      "bufferView" : 20,
      "componentType" : 5126,
      "count" : 1556,
      "type" : "VEC2"
    },
    {
      "bufferView" : 21,
      "componentType" : 5126,
      "count" : 1556,
      "type" : "VEC2"
    },
    {
      "bufferView" : 22,
      "componentType" : 5126,
      "count" : 1556,
      "type" : "VEC2"
    },
    {
      "bufferView" : 23,
      "componentType" : 5126,
      "count" : 1556,
      "type" : "VEC2"
    }
  ]
}
