{
  "asset" : {
    "generator" : "UE Viewer (umodel) build 1579 based",
    "version" : "2.0"
  },
  "scene" : 0,
  "scenes" : [
    {
      "nodes" : [ 0 ]
    }
  ],
  "nodes" : [
    {
      "name" : "S_Envi_FZFBase_Roof_03a",
      "mesh" : 0
    }
  ],
  "materials" : [
    {
      "name" : "MI_Envi_Common_Roof_03c",
      "pbrMetallicRoughness" : {
        "baseColorFactor" : [ 0.3, 0.3, 0.3, 1.0 ],
        "metallicFactor" : 0.1,
        "roughnessFactor" : 0.5
      }
    },
    {
      "name" : "MI_Envi_Common_Roof_04a_2",
      "pbrMetallicRoughness" : {
        "baseColorFactor" : [ 0.9, 0.3, 0.3, 1.0 ],
        "metallicFactor" : 0.1,
        "roughnessFactor" : 0.5
      }
    }
  ],
  "meshes" : [
    {
      "primitives" : [
        {
          "attributes" : {
            "POSITION" : 1,
            "NORMAL" : 2,
            "TANGENT" : 3,
            "TEXCOORD_0" : 4,
            "TEXCOORD_1" : 5
          },
          "indices" : 0,
          "material" : 0
        },
        {
          "attributes" : {
            "POSITION" : 7,
            "NORMAL" : 8,
            "TANGENT" : 9,
            "TEXCOORD_0" : 10,
            "TEXCOORD_1" : 11
          },
          "indices" : 6,
          "material" : 1
        }
      ],
      "name" : "S_Envi_FZFBase_Roof_03a"
    }
  ],
  "buffers" : [
    {
      "uri" : "S_Envi_FZFBase_Roof_03a.bin",
      "byteLength" : 135748
    }
  ],
  "bufferViews" : [
    {
      "buffer" : 0,
      "byteOffset" : 0,
      "byteLength" : 2712
    },
    {
      "buffer" : 0,
      "byteOffset" : 2712,
      "byteLength" : 7788
    },
    {
      "buffer" : 0,
      "byteOffset" : 10500,
      "byteLength" : 7788
    },
    {
      "buffer" : 0,
      "byteOffset" : 18288,
      "byteLength" : 10384
    },
    {
      "buffer" : 0,
      "byteOffset" : 28672,
      "byteLength" : 5192
    },
    {
      "buffer" : 0,
      "byteOffset" : 33864,
      "byteLength" : 5192
    },
    {
      "buffer" : 0,
      "byteOffset" : 39056,
      "byteLength" : 8156
    },
    {
      "buffer" : 0,
      "byteOffset" : 47212,
      "byteLength" : 18972
    },
    {
      "buffer" : 0,
      "byteOffset" : 66184,
      "byteLength" : 18972
    },
    {
      "buffer" : 0,
      "byteOffset" : 85156,
      "byteLength" : 25296
    },
    {
      "buffer" : 0,
      "byteOffset" : 110452,
      "byteLength" : 12648
    },
    {
      "buffer" : 0,
      "byteOffset" : 123100,
      "byteLength" : 12648
    }
  ],
  "accessors" : [
    {
      "bufferView" : 0,
      "componentType" : 5123,
      "count" : 1356,
      "type" : "SCALAR"
    },
    {
      "bufferView" : 1,
      "min" : [ -1.83105e-06, -0.0110268, -2.12264e-06 ],
      "max" : [ 21.4981, 1.20458, 7.28352 ],
      "componentType" : 5126,
      "count" : 649,
      "type" : "VEC3"
    },
    {
      "bufferView" : 2,
      "componentType" : 5126,
      "count" : 649,
      "type" : "VEC3"
    },
    {
      "bufferView" : 3,
      "componentType" : 5126,
      "count" : 649,
      "type" : "VEC4"
    },
    {
      "bufferView" : 4,
      "componentType" : 5126,
      "count" : 649,
      "type" : "VEC2"
    },
    {
      "bufferView" : 5,
      "componentType" : 5126,
      "count" : 649,
      "type" : "VEC2"
    },
    {
      "bufferView" : 6,
      "componentType" : 5123,
      "count" : 4077,
      "type" : "SCALAR"
    },
    {
      "bufferView" : 7,
      "min" : [ 2.68164, 1.15034, 1.30153 ],
      "max" : [ 16.7644, 1.41882, 3.07152 ],
      "componentType" : 5126,
      "count" : 1581,
      "type" : "VEC3"
    },
    {
      "bufferView" : 8,
      "componentType" : 5126,
      "count" : 1581,
      "type" : "VEC3"
    },
    {
      "bufferView" : 9,
      "componentType" : 5126,
      "count" : 1581,
      "type" : "VEC4"
    },
    {
      "bufferView" : 10,
      "componentType" : 5126,
      "count" : 1581,
      "type" : "VEC2"
    },
    {
      "bufferView" : 11,
      "componentType" : 5126,
      "count" : 1581,
      "type" : "VEC2"
    }
  ]
}
