{
  "asset" : {
    "generator" : "UE Viewer (umodel) build 1579 based",
    "version" : "2.0"
  },
  "scene" : 0,
  "scenes" : [
    {
      "nodes" : [ 0 ]
    }
  ],
  "nodes" : [
    {
      "name" : "S_Envi_FZFBase_Wall_09b",
      "mesh" : 0
    }
  ],
  "materials" : [
    {
      "name" : "MI_Envi_FZFBase_Wall_07a_2",
      "pbrMetallicRoughness" : {
        "baseColorFactor" : [ 0.3, 0.3, 0.3, 1.0 ],
        "metallicFactor" : 0.1,
        "roughnessFactor" : 0.5
      }
    },
    {
      "name" : "MI_Envi_FZFBase_Outpost_01d",
      "pbrMetallicRoughness" : {
        "baseColorFactor" : [ 0.9, 0.3, 0.3, 1.0 ],
        "metallicFactor" : 0.1,
        "roughnessFactor" : 0.5
      }
    }
  ],
  "meshes" : [
    {
      "primitives" : [
        {
          "attributes" : {
            "POSITION" : 1,
            "NORMAL" : 2,
            "TANGENT" : 3,
            "TEXCOORD_0" : 4,
            "TEXCOORD_1" : 5,
            "TEXCOORD_2" : 6,
            "TEXCOORD_3" : 7
          },
          "indices" : 0,
          "material" : 0
        },
        {
          "attributes" : {
            "POSITION" : 9,
            "NORMAL" : 10,
            "TANGENT" : 11,
            "TEXCOORD_0" : 12,
            "TEXCOORD_1" : 13,
            "TEXCOORD_2" : 14,
            "TEXCOORD_3" : 15
          },
          "indices" : 8,
          "material" : 1
        }
      ],
      "name" : "S_Envi_FZFBase_Wall_09b"
    }
  ],
  "buffers" : [
    {
      "uri" : "S_Envi_FZFBase_Wall_09b.bin",
      "byteLength" : 81828
    }
  ],
  "bufferViews" : [
    {
      "buffer" : 0,
      "byteOffset" : 0,
      "byteLength" : 4236
    },
    {
      "buffer" : 0,
      "byteOffset" : 4236,
      "byteLength" : 12468
    },
    {
      "buffer" : 0,
      "byteOffset" : 16704,
      "byteLength" : 12468
    },
    {
      "buffer" : 0,
      "byteOffset" : 29172,
      "byteLength" : 16624
    },
    {
      "buffer" : 0,
      "byteOffset" : 45796,
      "byteLength" : 8312
    },
    {
      "buffer" : 0,
      "byteOffset" : 54108,
      "byteLength" : 8312
    },
    {
      "buffer" : 0,
      "byteOffset" : 62420,
      "byteLength" : 8312
    },
    {
      "buffer" : 0,
      "byteOffset" : 70732,
      "byteLength" : 8312
    },
    {
      "buffer" : 0,
      "byteOffset" : 79044,
      "byteLength" : 192
    },
    {
      "buffer" : 0,
      "byteOffset" : 79236,
      "byteLength" : 432
    },
    {
      "buffer" : 0,
      "byteOffset" : 79668,
      "byteLength" : 432
    },
    {
      "buffer" : 0,
      "byteOffset" : 80100,
      "byteLength" : 576
    },
    {
      "buffer" : 0,
      "byteOffset" : 80676,
      "byteLength" : 288
    },
    {
      "buffer" : 0,
      "byteOffset" : 80964,
      "byteLength" : 288
    },
    {
      "buffer" : 0,
      "byteOffset" : 81252,
      "byteLength" : 288
    },
    {
      "buffer" : 0,
      "byteOffset" : 81540,
      "byteLength" : 288
    }
  ],
  "accessors" : [
    {
      "bufferView" : 0,
      "componentType" : 5123,
      "count" : 2118,
      "type" : "SCALAR"
    },
    {
      "bufferView" : 1,
      "min" : [ -7.39151, -0.00484135, -8.23494 ],
      "max" : [ 7.39151, 6.21211, 1.46679e-17 ],
      "componentType" : 5126,
      "count" : 1039,
      "type" : "VEC3"
    },
    {
      "bufferView" : 2,
      "componentType" : 5126,
      "count" : 1039,
      "type" : "VEC3"
    },
    {
      "bufferView" : 3,
      "componentType" : 5126,
      "count" : 1039,
      "type" : "VEC4"
    },
    {
      "bufferView" : 4,
      "componentType" : 5126,
      "count" : 1039,
      "type" : "VEC2"
    },
    {
      "bufferView" : 5,
      "componentType" : 5126,
      "count" : 1039,
      "type" : "VEC2"
    },
    {
      "bufferView" : 6,
      "componentType" : 5126,
      "count" : 1039,
      "type" : "VEC2"
    },
    {
      "bufferView" : 7,
      "componentType" : 5126,
      "count" : 1039,
      "type" : "VEC2"
    },
    {
      "bufferView" : 8,
      "componentType" : 5123,
      "count" : 96,
      "type" : "SCALAR"
    },
    {
      "bufferView" : 9,
      "min" : [ -5.17175, -2.28882e-07, -0.38493 ],
      "max" : [ 5.17175, 1.09871, -0.38493 ],
      "componentType" : 5126,
      "count" : 36,
      "type" : "VEC3"
    },
    {
      "bufferView" : 10,
      "componentType" : 5126,
      "count" : 36,
      "type" : "VEC3"
    },
    {
      "bufferView" : 11,
      "componentType" : 5126,
      "count" : 36,
      "type" : "VEC4"
    },
    {
      "bufferView" : 12,
      "componentType" : 5126,
      "count" : 36,
      "type" : "VEC2"
    },
    {
      "bufferView" : 13,
      "componentType" : 5126,
      "count" : 36,
      "type" : "VEC2"
    },
    {
      "bufferView" : 14,
      "componentType" : 5126,
      "count" : 36,
      "type" : "VEC2"
    },
    {
      "bufferView" : 15,
      "componentType" : 5126,
      "count" : 36,
      "type" : "VEC2"
    }
  ]
}
