{
  "asset" : {
    "generator" : "UE Viewer (umodel) build 1579 based",
    "version" : "2.0"
  },
  "scene" : 0,
  "scenes" : [
    {
      "nodes" : [ 0 ]
    }
  ],
  "nodes" : [
    {
      "name" : "S_Envi_FZFBase_Wall_02x",
      "mesh" : 0
    }
  ],
  "materials" : [
    {
      "name" : "MI_Envi_FZFBase_Concrete_01d",
      "pbrMetallicRoughness" : {
        "baseColorFactor" : [ 0.3, 0.3, 0.3, 1.0 ],
        "metallicFactor" : 0.1,
        "roughnessFactor" : 0.5
      }
    },
    {
      "name" : "MI_Envi_FZFBase_Concrete_01j",
      "pbrMetallicRoughness" : {
        "baseColorFactor" : [ 0.9, 0.3, 0.3, 1.0 ],
        "metallicFactor" : 0.1,
        "roughnessFactor" : 0.5
      }
    }
  ],
  "meshes" : [
    {
      "primitives" : [
        {
          "attributes" : {
            "POSITION" : 1,
            "NORMAL" : 2,
            "TANGENT" : 3,
            "TEXCOORD_0" : 4,
            "TEXCOORD_1" : 5,
            "TEXCOORD_2" : 6,
            "TEXCOORD_3" : 7
          },
          "indices" : 0,
          "material" : 0
        },
        {
          "attributes" : {
            "POSITION" : 9,
            "NORMAL" : 10,
            "TANGENT" : 11,
            "TEXCOORD_0" : 12,
            "TEXCOORD_1" : 13,
            "TEXCOORD_2" : 14,
            "TEXCOORD_3" : 15
          },
          "indices" : 8,
          "material" : 1
        }
      ],
      "name" : "S_Envi_FZFBase_Wall_02x"
    }
  ],
  "buffers" : [
    {
      "uri" : "S_Envi_FZFBase_Wall_02x.bin",
      "byteLength" : 16536
    }
  ],
  "bufferViews" : [
    {
      "buffer" : 0,
      "byteOffset" : 0,
      "byteLength" : 744
    },
    {
      "buffer" : 0,
      "byteOffset" : 744,
      "byteLength" : 2532
    },
    {
      "buffer" : 0,
      "byteOffset" : 3276,
      "byteLength" : 2532
    },
    {
      "buffer" : 0,
      "byteOffset" : 5808,
      "byteLength" : 3376
    },
    {
      "buffer" : 0,
      "byteOffset" : 9184,
      "byteLength" : 1688
    },
    {
      "buffer" : 0,
      "byteOffset" : 10872,
      "byteLength" : 1688
    },
    {
      "buffer" : 0,
      "byteOffset" : 12560,
      "byteLength" : 1688
    },
    {
      "buffer" : 0,
      "byteOffset" : 14248,
      "byteLength" : 1688
    },
    {
      "buffer" : 0,
      "byteOffset" : 15936,
      "byteLength" : 24
    },
    {
      "buffer" : 0,
      "byteOffset" : 15960,
      "byteLength" : 96
    },
    {
      "buffer" : 0,
      "byteOffset" : 16056,
      "byteLength" : 96
    },
    {
      "buffer" : 0,
      "byteOffset" : 16152,
      "byteLength" : 128
    },
    {
      "buffer" : 0,
      "byteOffset" : 16280,
      "byteLength" : 64
    },
    {
      "buffer" : 0,
      "byteOffset" : 16344,
      "byteLength" : 64
    },
    {
      "buffer" : 0,
      "byteOffset" : 16408,
      "byteLength" : 64
    },
    {
      "buffer" : 0,
      "byteOffset" : 16472,
      "byteLength" : 64
    }
  ],
  "accessors" : [
    {
      "bufferView" : 0,
      "componentType" : 5123,
      "count" : 372,
      "type" : "SCALAR"
    },
    {
      "bufferView" : 1,
      "min" : [ -1.43919, -2.2389, -15.6462 ],
      "max" : [ 5.40385, 6.93, 2.89807e-07 ],
      "componentType" : 5126,
      "count" : 211,
      "type" : "VEC3"
    },
    {
      "bufferView" : 2,
      "componentType" : 5126,
      "count" : 211,
      "type" : "VEC3"
    },
    {
      "bufferView" : 3,
      "componentType" : 5126,
      "count" : 211,
      "type" : "VEC4"
    },
    {
      "bufferView" : 4,
      "componentType" : 5126,
      "count" : 211,
      "type" : "VEC2"
    },
    {
      "bufferView" : 5,
      "componentType" : 5126,
      "count" : 211,
      "type" : "VEC2"
    },
    {
      "bufferView" : 6,
      "componentType" : 5126,
      "count" : 211,
      "type" : "VEC2"
    },
    {
      "bufferView" : 7,
      "componentType" : 5126,
      "count" : 211,
      "type" : "VEC2"
    },
    {
      "bufferView" : 8,
      "componentType" : 5123,
      "count" : 12,
      "type" : "SCALAR"
    },
    {
      "bufferView" : 9,
      "min" : [ -0.486371, 3.18093, -7.10141 ],
      "max" : [ -0.486371, 3.49553, -0.87639 ],
      "componentType" : 5126,
      "count" : 8,
      "type" : "VEC3"
    },
    {
      "bufferView" : 10,
      "componentType" : 5126,
      "count" : 8,
      "type" : "VEC3"
    },
    {
      "bufferView" : 11,
      "componentType" : 5126,
      "count" : 8,
      "type" : "VEC4"
    },
    {
      "bufferView" : 12,
      "componentType" : 5126,
      "count" : 8,
      "type" : "VEC2"
    },
    {
      "bufferView" : 13,
      "componentType" : 5126,
      "count" : 8,
      "type" : "VEC2"
    },
    {
      "bufferView" : 14,
      "componentType" : 5126,
      "count" : 8,
      "type" : "VEC2"
    },
    {
      "bufferView" : 15,
      "componentType" : 5126,
      "count" : 8,
      "type" : "VEC2"
    }
  ]
}
