{
  "asset" : {
    "generator" : "UE Viewer (umodel) build 1579 based",
    "version" : "2.0"
  },
  "scene" : 0,
  "scenes" : [
    {
      "nodes" : [ 0 ]
    }
  ],
  "nodes" : [
    {
      "name" : "S_Envi_FZFBase_Baseboard_01e",
      "mesh" : 0
    }
  ],
  "materials" : [
    {
      "name" : "MI_Envi_FZFBase_Lace_01a",
      "pbrMetallicRoughness" : {
        "baseColorFactor" : [ 0.3, 0.3, 0.3, 1.0 ],
        "metallicFactor" : 0.1,
        "roughnessFactor" : 0.5
      }
    }
  ],
  "meshes" : [
    {
      "primitives" : [
        {
          "attributes" : {
            "POSITION" : 1,
            "NORMAL" : 2,
            "TANGENT" : 3,
            "TEXCOORD_0" : 4,
            "TEXCOORD_1" : 5
          },
          "indices" : 0,
          "material" : 0
        }
      ],
      "name" : "S_Envi_FZFBase_Baseboard_01e"
    }
  ],
  "buffers" : [
    {
      "uri" : "S_Envi_FZFBase_Baseboard_01e.bin",
      "byteLength" : 225320
    }
  ],
  "bufferViews" : [
    {
      "buffer" : 0,
      "byteOffset" : 0,
      "byteLength" : 16440
    },
    {
      "buffer" : 0,
      "byteOffset" : 16440,
      "byteLength" : 44760
    },
    {
      "buffer" : 0,
      "byteOffset" : 61200,
      "byteLength" : 44760
    },
    {
      "buffer" : 0,
      "byteOffset" : 105960,
      "byteLength" : 59680
    },
    {
      "buffer" : 0,
      "byteOffset" : 165640,
      "byteLength" : 29840
    },
    {
      "buffer" : 0,
      "byteOffset" : 195480,
      "byteLength" : 29840
    }
  ],
  "accessors" : [
    {
      "bufferView" : 0,
      "componentType" : 5123,
      "count" : 8220,
      "type" : "SCALAR"
    },
    {
      "bufferView" : 1,
      "min" : [ 20.056, -3.20435e-06, -60.088 ],
      "max" : [ 59.156, 4.3, -17.7857 ],
      "componentType" : 5126,
      "count" : 3730,
      "type" : "VEC3"
    },
    {
      "bufferView" : 2,
      "componentType" : 5126,
      "count" : 3730,
      "type" : "VEC3"
    },
    {
      "bufferView" : 3,
      "componentType" : 5126,
      "count" : 3730,
      "type" : "VEC4"
    },
    {
      "bufferView" : 4,
      "componentType" : 5126,
      "count" : 3730,
      "type" : "VEC2"
    },
    {
      "bufferView" : 5,
      "componentType" : 5126,
      "count" : 3730,
      "type" : "VEC2"
    }
  ]
}
