{
  "asset" : {
    "generator" : "UE Viewer (umodel) build 1579 based",
    "version" : "2.0"
  },
  "scene" : 0,
  "scenes" : [
    {
      "nodes" : [ 0 ]
    }
  ],
  "nodes" : [
    {
      "name" : "S_Envi_FZFBase_component_01d",
      "mesh" : 0
    }
  ],
  "materials" : [
    {
      "name" : "MI_Envi_FZFBase_component_01a",
      "pbrMetallicRoughness" : {
        "baseColorFactor" : [ 0.3, 0.3, 0.3, 1.0 ],
        "metallicFactor" : 0.1,
        "roughnessFactor" : 0.5
      }
    }
  ],
  "meshes" : [
    {
      "primitives" : [
        {
          "attributes" : {
            "POSITION" : 1,
            "NORMAL" : 2,
            "TANGENT" : 3,
            "TEXCOORD_0" : 4,
            "TEXCOORD_1" : 5,
            "TEXCOORD_2" : 6,
            "TEXCOORD_3" : 7
          },
          "indices" : 0,
          "material" : 0
        }
      ],
      "name" : "S_Envi_FZFBase_component_01d"
    }
  ],
  "buffers" : [
    {
      "uri" : "S_Envi_FZFBase_component_01d.bin",
      "byteLength" : 43848
    }
  ],
  "bufferViews" : [
    {
      "buffer" : 0,
      "byteOffset" : 0,
      "byteLength" : 2664
    },
    {
      "buffer" : 0,
      "byteOffset" : 2664,
      "byteLength" : 6864
    },
    {
      "buffer" : 0,
      "byteOffset" : 9528,
      "byteLength" : 6864
    },
    {
      "buffer" : 0,
      "byteOffset" : 16392,
      "byteLength" : 9152
    },
    {
      "buffer" : 0,
      "byteOffset" : 25544,
      "byteLength" : 4576
    },
    {
      "buffer" : 0,
      "byteOffset" : 30120,
      "byteLength" : 4576
    },
    {
      "buffer" : 0,
      "byteOffset" : 34696,
      "byteLength" : 4576
    },
    {
      "buffer" : 0,
      "byteOffset" : 39272,
      "byteLength" : 4576
    }
  ],
  "accessors" : [
    {
      "bufferView" : 0,
      "componentType" : 5123,
      "count" : 1332,
      "type" : "SCALAR"
    },
    {
      "bufferView" : 1,
      "min" : [ -7.8679, -8.28486e-07, -3.43285 ],
      "max" : [ 0.28151, 4.45549, 2.6962e-06 ],
      "componentType" : 5126,
      "count" : 572,
      "type" : "VEC3"
    },
    {
      "bufferView" : 2,
      "componentType" : 5126,
      "count" : 572,
      "type" : "VEC3"
    },
    {
      "bufferView" : 3,
      "componentType" : 5126,
      "count" : 572,
      "type" : "VEC4"
    },
    {
      "bufferView" : 4,
      "componentType" : 5126,
      "count" : 572,
      "type" : "VEC2"
    },
    {
      "bufferView" : 5,
      "componentType" : 5126,
      "count" : 572,
      "type" : "VEC2"
    },
    {
      "bufferView" : 6,
      "componentType" : 5126,
      "count" : 572,
      "type" : "VEC2"
    },
    {
      "bufferView" : 7,
      "componentType" : 5126,
      "count" : 572,
      "type" : "VEC2"
    }
  ]
}
