{
  "asset" : {
    "generator" : "UE Viewer (umodel) build 1579 based",
    "version" : "2.0"
  },
  "scene" : 0,
  "scenes" : [
    {
      "nodes" : [ 0 ]
    }
  ],
  "nodes" : [
    {
      "name" : "S_Envi_FZFBase_Wall_26",
      "mesh" : 0
    }
  ],
  "materials" : [
    {
      "name" : "MI_Envi_common_Pillatr_03b",
      "pbrMetallicRoughness" : {
        "baseColorFactor" : [ 0.3, 0.3, 0.3, 1.0 ],
        "metallicFactor" : 0.1,
        "roughnessFactor" : 0.5
      }
    },
    {
      "name" : "MI_Envi_FZFBase_Roof_01b",
      "pbrMetallicRoughness" : {
        "baseColorFactor" : [ 0.9, 0.3, 0.3, 1.0 ],
        "metallicFactor" : 0.1,
        "roughnessFactor" : 0.5
      }
    },
    {
      "name" : "MI_Envi_FZFBase_OuterDoor_01b",
      "pbrMetallicRoughness" : {
        "baseColorFactor" : [ 0.3, 0.9, 0.3, 1.0 ],
        "metallicFactor" : 0.1,
        "roughnessFactor" : 0.5
      }
    }
  ],
  "meshes" : [
    {
      "primitives" : [
        {
          "attributes" : {
            "POSITION" : 1,
            "NORMAL" : 2,
            "TANGENT" : 3,
            "TEXCOORD_0" : 4,
            "TEXCOORD_1" : 5,
            "TEXCOORD_2" : 6,
            "TEXCOORD_3" : 7
          },
          "indices" : 0,
          "material" : 0
        },
        {
          "attributes" : {
            "POSITION" : 9,
            "NORMAL" : 10,
            "TANGENT" : 11,
            "TEXCOORD_0" : 12,
            "TEXCOORD_1" : 13,
            "TEXCOORD_2" : 14,
            "TEXCOORD_3" : 15
          },
          "indices" : 8,
          "material" : 1
        },
        {
          "attributes" : {
            "POSITION" : 17,
            "NORMAL" : 18,
            "TANGENT" : 19,
            "TEXCOORD_0" : 20,
            "TEXCOORD_1" : 21,
            "TEXCOORD_2" : 22,
            "TEXCOORD_3" : 23
          },
          "indices" : 16,
          "material" : 2
        }
      ],
      "name" : "S_Envi_FZFBase_Wall_26"
    }
  ],
  "buffers" : [
    {
      "uri" : "S_Envi_FZFBase_Wall_26.bin",
      "byteLength" : 282468
    }
  ],
  "bufferViews" : [
    {
      "buffer" : 0,
      "byteOffset" : 0,
      "byteLength" : 6768
    },
    {
      "buffer" : 0,
      "byteOffset" : 6768,
      "byteLength" : 18564
    },
    {
      "buffer" : 0,
      "byteOffset" : 25332,
      "byteLength" : 18564
    },
    {
      "buffer" : 0,
      "byteOffset" : 43896,
      "byteLength" : 24752
    },
    {
      "buffer" : 0,
      "byteOffset" : 68648,
      "byteLength" : 12376
    },
    {
      "buffer" : 0,
      "byteOffset" : 81024,
      "byteLength" : 12376
    },
    {
      "buffer" : 0,
      "byteOffset" : 93400,
      "byteLength" : 12376
    },
    {
      "buffer" : 0,
      "byteOffset" : 105776,
      "byteLength" : 12376
    },
    {
      "buffer" : 0,
      "byteOffset" : 118152,
      "byteLength" : 7632
    },
    {
      "buffer" : 0,
      "byteOffset" : 125784,
      "byteLength" : 19380
    },
    {
      "buffer" : 0,
      "byteOffset" : 145164,
      "byteLength" : 19380
    },
    {
      "buffer" : 0,
      "byteOffset" : 164544,
      "byteLength" : 25840
    },
    {
      "buffer" : 0,
      "byteOffset" : 190384,
      "byteLength" : 12920
    },
    {
      "buffer" : 0,
      "byteOffset" : 203304,
      "byteLength" : 12920
    },
    {
      "buffer" : 0,
      "byteOffset" : 216224,
      "byteLength" : 12920
    },
    {
      "buffer" : 0,
      "byteOffset" : 229144,
      "byteLength" : 12920
    },
    {
      "buffer" : 0,
      "byteOffset" : 242064,
      "byteLength" : 2748
    },
    {
      "buffer" : 0,
      "byteOffset" : 244812,
      "byteLength" : 6276
    },
    {
      "buffer" : 0,
      "byteOffset" : 251088,
      "byteLength" : 6276
    },
    {
      "buffer" : 0,
      "byteOffset" : 257364,
      "byteLength" : 8368
    },
    {
      "buffer" : 0,
      "byteOffset" : 265732,
      "byteLength" : 4184
    },
    {
      "buffer" : 0,
      "byteOffset" : 269916,
      "byteLength" : 4184
    },
    {
      "buffer" : 0,
      "byteOffset" : 274100,
      "byteLength" : 4184
    },
    {
      "buffer" : 0,
      "byteOffset" : 278284,
      "byteLength" : 4184
    }
  ],
  "accessors" : [
    {
      "bufferView" : 0,
      "componentType" : 5123,
      "count" : 3384,
      "type" : "SCALAR"
    },
    {
      "bufferView" : 1,
      "min" : [ -0.101675, 0.00917023, -15.1203 ],
      "max" : [ 4.73927, 4.73573, 0.0548652 ],
      "componentType" : 5126,
      "count" : 1547,
      "type" : "VEC3"
    },
    {
      "bufferView" : 2,
      "componentType" : 5126,
      "count" : 1547,
      "type" : "VEC3"
    },
    {
      "bufferView" : 3,
      "componentType" : 5126,
      "count" : 1547,
      "type" : "VEC4"
    },
    {
      "bufferView" : 4,
      "componentType" : 5126,
      "count" : 1547,
      "type" : "VEC2"
    },
    {
      "bufferView" : 5,
      "componentType" : 5126,
      "count" : 1547,
      "type" : "VEC2"
    },
    {
      "bufferView" : 6,
      "componentType" : 5126,
      "count" : 1547,
      "type" : "VEC2"
    },
    {
      "bufferView" : 7,
      "componentType" : 5126,
      "count" : 1547,
      "type" : "VEC2"
    },
    {
      "bufferView" : 8,
      "componentType" : 5123,
      "count" : 3816,
      "type" : "SCALAR"
    },
    {
      "bufferView" : 9,
      "min" : [ -0.122112, 4.30579, -15.1585 ],
      "max" : [ 4.66908, 4.73573, 0.0548652 ],
      "componentType" : 5126,
      "count" : 1615,
      "type" : "VEC3"
    },
    {
      "bufferView" : 10,
      "componentType" : 5126,
      "count" : 1615,
      "type" : "VEC3"
    },
    {
      "bufferView" : 11,
      "componentType" : 5126,
      "count" : 1615,
      "type" : "VEC4"
    },
    {
      "bufferView" : 12,
      "componentType" : 5126,
      "count" : 1615,
      "type" : "VEC2"
    },
    {
      "bufferView" : 13,
      "componentType" : 5126,
      "count" : 1615,
      "type" : "VEC2"
    },
    {
      "bufferView" : 14,
      "componentType" : 5126,
      "count" : 1615,
      "type" : "VEC2"
    },
    {
      "bufferView" : 15,
      "componentType" : 5126,
      "count" : 1615,
      "type" : "VEC2"
    },
    {
      "bufferView" : 16,
      "componentType" : 5123,
      "count" : 1374,
      "type" : "SCALAR"
    },
    {
      "bufferView" : 17,
      "min" : [ -0.062728, 0.00917023, -6.80424 ],
      "max" : [ 4.64359, 4.2683, -0.00118135 ],
      "componentType" : 5126,
      "count" : 523,
      "type" : "VEC3"
    },
    {
      "bufferView" : 18,
      "componentType" : 5126,
      "count" : 523,
      "type" : "VEC3"
    },
    {
      "bufferView" : 19,
      "componentType" : 5126,
      "count" : 523,
      "type" : "VEC4"
    },
    {
      "bufferView" : 20,
      "componentType" : 5126,
      "count" : 523,
      "type" : "VEC2"
    },
    {
      "bufferView" : 21,
      "componentType" : 5126,
      "count" : 523,
      "type" : "VEC2"
    },
    {
      "bufferView" : 22,
      "componentType" : 5126,
      "count" : 523,
      "type" : "VEC2"
    },
    {
      "bufferView" : 23,
      "componentType" : 5126,
      "count" : 523,
      "type" : "VEC2"
    }
  ]
}
