{
  "asset" : {
    "generator" : "UE Viewer (umodel) build 1579 based",
    "version" : "2.0"
  },
  "scene" : 0,
  "scenes" : [
    {
      "nodes" : [ 0 ]
    }
  ],
  "nodes" : [
    {
      "name" : "S_Envi_FZFBase_Door_6a",
      "mesh" : 0
    }
  ],
  "materials" : [
    {
      "name" : "MI_Envi_FZFBase_Door_6a",
      "pbrMetallicRoughness" : {
        "baseColorFactor" : [ 0.3, 0.3, 0.3, 1.0 ],
        "metallicFactor" : 0.1,
        "roughnessFactor" : 0.5
      }
    },
    {
      "name" : "MI_PM_Glass_03b",
      "pbrMetallicRoughness" : {
        "baseColorFactor" : [ 0.9, 0.3, 0.3, 1.0 ],
        "metallicFactor" : 0.1,
        "roughnessFactor" : 0.5
      }
    }
  ],
  "meshes" : [
    {
      "primitives" : [
        {
          "attributes" : {
            "POSITION" : 1,
            "NORMAL" : 2,
            "TANGENT" : 3,
            "TEXCOORD_0" : 4,
            "TEXCOORD_1" : 5,
            "TEXCOORD_2" : 6,
            "TEXCOORD_3" : 7
          },
          "indices" : 0,
          "material" : 0
        },
        {
          "attributes" : {
            "POSITION" : 9,
            "NORMAL" : 10,
            "TANGENT" : 11,
            "TEXCOORD_0" : 12,
            "TEXCOORD_1" : 13,
            "TEXCOORD_2" : 14,
            "TEXCOORD_3" : 15
          },
          "indices" : 8,
          "material" : 1
        }
      ],
      "name" : "S_Envi_FZFBase_Door_6a"
    }
  ],
  "buffers" : [
    {
      "uri" : "S_Envi_FZFBase_Door_6a.bin",
      "byteLength" : 327368
    }
  ],
  "bufferViews" : [
    {
      "buffer" : 0,
      "byteOffset" : 0,
      "byteLength" : 25256
    },
    {
      "buffer" : 0,
      "byteOffset" : 25256,
      "byteLength" : 50148
    },
    {
      "buffer" : 0,
      "byteOffset" : 75404,
      "byteLength" : 50148
    },
    {
      "buffer" : 0,
      "byteOffset" : 125552,
      "byteLength" : 66864
    },
    {
      "buffer" : 0,
      "byteOffset" : 192416,
      "byteLength" : 33432
    },
    {
      "buffer" : 0,
      "byteOffset" : 225848,
      "byteLength" : 33432
    },
    {
      "buffer" : 0,
      "byteOffset" : 259280,
      "byteLength" : 33432
    },
    {
      "buffer" : 0,
      "byteOffset" : 292712,
      "byteLength" : 33432
    },
    {
      "buffer" : 0,
      "byteOffset" : 326144,
      "byteLength" : 72
    },
    {
      "buffer" : 0,
      "byteOffset" : 326216,
      "byteLength" : 192
    },
    {
      "buffer" : 0,
      "byteOffset" : 326408,
      "byteLength" : 192
    },
    {
      "buffer" : 0,
      "byteOffset" : 326600,
      "byteLength" : 256
    },
    {
      "buffer" : 0,
      "byteOffset" : 326856,
      "byteLength" : 128
    },
    {
      "buffer" : 0,
      "byteOffset" : 326984,
      "byteLength" : 128
    },
    {
      "buffer" : 0,
      "byteOffset" : 327112,
      "byteLength" : 128
    },
    {
      "buffer" : 0,
      "byteOffset" : 327240,
      "byteLength" : 128
    }
  ],
  "accessors" : [
    {
      "bufferView" : 0,
      "componentType" : 5123,
      "count" : 12627,
      "type" : "SCALAR"
    },
    {
      "bufferView" : 1,
      "min" : [ -2.46048e-06, 0.0607025, -0.124241 ],
      "max" : [ 14.9021, 8.5715, 2.75768 ],
      "componentType" : 5126,
      "count" : 4179,
      "type" : "VEC3"
    },
    {
      "bufferView" : 2,
      "componentType" : 5126,
      "count" : 4179,
      "type" : "VEC3"
    },
    {
      "bufferView" : 3,
      "componentType" : 5126,
      "count" : 4179,
      "type" : "VEC4"
    },
    {
      "bufferView" : 4,
      "componentType" : 5126,
      "count" : 4179,
      "type" : "VEC2"
    },
    {
      "bufferView" : 5,
      "componentType" : 5126,
      "count" : 4179,
      "type" : "VEC2"
    },
    {
      "bufferView" : 6,
      "componentType" : 5126,
      "count" : 4179,
      "type" : "VEC2"
    },
    {
      "bufferView" : 7,
      "componentType" : 5126,
      "count" : 4179,
      "type" : "VEC2"
    },
    {
      "bufferView" : 8,
      "componentType" : 5123,
      "count" : 36,
      "type" : "SCALAR"
    },
    {
      "bufferView" : 9,
      "min" : [ 0.329165, 5.97002, 0.207843 ],
      "max" : [ 9.40875, 7.52982, 0.290107 ],
      "componentType" : 5126,
      "count" : 16,
      "type" : "VEC3"
    },
    {
      "bufferView" : 10,
      "componentType" : 5126,
      "count" : 16,
      "type" : "VEC3"
    },
    {
      "bufferView" : 11,
      "componentType" : 5126,
      "count" : 16,
      "type" : "VEC4"
    },
    {
      "bufferView" : 12,
      "componentType" : 5126,
      "count" : 16,
      "type" : "VEC2"
    },
    {
      "bufferView" : 13,
      "componentType" : 5126,
      "count" : 16,
      "type" : "VEC2"
    },
    {
      "bufferView" : 14,
      "componentType" : 5126,
      "count" : 16,
      "type" : "VEC2"
    },
    {
      "bufferView" : 15,
      "componentType" : 5126,
      "count" : 16,
      "type" : "VEC2"
    }
  ]
}
