{
  "asset" : {
    "generator" : "UE Viewer (umodel) build 1579 based",
    "version" : "2.0"
  },
  "scene" : 0,
  "scenes" : [
    {
      "nodes" : [ 0 ]
    }
  ],
  "nodes" : [
    {
      "name" : "S_Envi_FZFBase_Wall_02s",
      "mesh" : 0
    }
  ],
  "materials" : [
    {
      "name" : "MI_Envi_FZFBase_Concrete_01a",
      "pbrMetallicRoughness" : {
        "baseColorFactor" : [ 0.3, 0.3, 0.3, 1.0 ],
        "metallicFactor" : 0.1,
        "roughnessFactor" : 0.5
      }
    },
    {
      "name" : "MI_Envi_FZFBase_sand_12a_4",
      "pbrMetallicRoughness" : {
        "baseColorFactor" : [ 0.9, 0.3, 0.3, 1.0 ],
        "metallicFactor" : 0.1,
        "roughnessFactor" : 0.5
      }
    },
    {
      "name" : "MI_Envi_FZFBase_Concrete_01i",
      "pbrMetallicRoughness" : {
        "baseColorFactor" : [ 0.3, 0.9, 0.3, 1.0 ],
        "metallicFactor" : 0.1,
        "roughnessFactor" : 0.5
      }
    }
  ],
  "meshes" : [
    {
      "primitives" : [
        {
          "attributes" : {
            "POSITION" : 1,
            "NORMAL" : 2,
            "TANGENT" : 3,
            "TEXCOORD_0" : 4,
            "TEXCOORD_1" : 5,
            "TEXCOORD_2" : 6,
            "TEXCOORD_3" : 7
          },
          "indices" : 0,
          "material" : 0
        },
        {
          "attributes" : {
            "POSITION" : 9,
            "NORMAL" : 10,
            "TANGENT" : 11,
            "TEXCOORD_0" : 12,
            "TEXCOORD_1" : 13,
            "TEXCOORD_2" : 14,
            "TEXCOORD_3" : 15
          },
          "indices" : 8,
          "material" : 1
        },
        {
          "attributes" : {
            "POSITION" : 17,
            "NORMAL" : 18,
            "TANGENT" : 19,
            "TEXCOORD_0" : 20,
            "TEXCOORD_1" : 21,
            "TEXCOORD_2" : 22,
            "TEXCOORD_3" : 23
          },
          "indices" : 16,
          "material" : 2
        }
      ],
      "name" : "S_Envi_FZFBase_Wall_02s"
    }
  ],
  "buffers" : [
    {
      "uri" : "S_Envi_FZFBase_Wall_02s.bin",
      "byteLength" : 79308
    }
  ],
  "bufferViews" : [
    {
      "buffer" : 0,
      "byteOffset" : 0,
      "byteLength" : 1248
    },
    {
      "buffer" : 0,
      "byteOffset" : 1248,
      "byteLength" : 4872
    },
    {
      "buffer" : 0,
      "byteOffset" : 6120,
      "byteLength" : 4872
    },
    {
      "buffer" : 0,
      "byteOffset" : 10992,
      "byteLength" : 6496
    },
    {
      "buffer" : 0,
      "byteOffset" : 17488,
      "byteLength" : 3248
    },
    {
      "buffer" : 0,
      "byteOffset" : 20736,
      "byteLength" : 3248
    },
    {
      "buffer" : 0,
      "byteOffset" : 23984,
      "byteLength" : 3248
    },
    {
      "buffer" : 0,
      "byteOffset" : 27232,
      "byteLength" : 3248
    },
    {
      "buffer" : 0,
      "byteOffset" : 30480,
      "byteLength" : 1836
    },
    {
      "buffer" : 0,
      "byteOffset" : 32316,
      "byteLength" : 7632
    },
    {
      "buffer" : 0,
      "byteOffset" : 39948,
      "byteLength" : 7632
    },
    {
      "buffer" : 0,
      "byteOffset" : 47580,
      "byteLength" : 10176
    },
    {
      "buffer" : 0,
      "byteOffset" : 57756,
      "byteLength" : 5088
    },
    {
      "buffer" : 0,
      "byteOffset" : 62844,
      "byteLength" : 5088
    },
    {
      "buffer" : 0,
      "byteOffset" : 67932,
      "byteLength" : 5088
    },
    {
      "buffer" : 0,
      "byteOffset" : 73020,
      "byteLength" : 5088
    },
    {
      "buffer" : 0,
      "byteOffset" : 78108,
      "byteLength" : 48
    },
    {
      "buffer" : 0,
      "byteOffset" : 78156,
      "byteLength" : 192
    },
    {
      "buffer" : 0,
      "byteOffset" : 78348,
      "byteLength" : 192
    },
    {
      "buffer" : 0,
      "byteOffset" : 78540,
      "byteLength" : 256
    },
    {
      "buffer" : 0,
      "byteOffset" : 78796,
      "byteLength" : 128
    },
    {
      "buffer" : 0,
      "byteOffset" : 78924,
      "byteLength" : 128
    },
    {
      "buffer" : 0,
      "byteOffset" : 79052,
      "byteLength" : 128
    },
    {
      "buffer" : 0,
      "byteOffset" : 79180,
      "byteLength" : 128
    }
  ],
  "accessors" : [
    {
      "bufferView" : 0,
      "componentType" : 5123,
      "count" : 624,
      "type" : "SCALAR"
    },
    {
      "bufferView" : 1,
      "min" : [ -1.13494, -0.00894182, -17.5278 ],
      "max" : [ 16.8675, 8.34928, 24.6836 ],
      "componentType" : 5126,
      "count" : 406,
      "type" : "VEC3"
    },
    {
      "bufferView" : 2,
      "componentType" : 5126,
      "count" : 406,
      "type" : "VEC3"
    },
    {
      "bufferView" : 3,
      "componentType" : 5126,
      "count" : 406,
      "type" : "VEC4"
    },
    {
      "bufferView" : 4,
      "componentType" : 5126,
      "count" : 406,
      "type" : "VEC2"
    },
    {
      "bufferView" : 5,
      "componentType" : 5126,
      "count" : 406,
      "type" : "VEC2"
    },
    {
      "bufferView" : 6,
      "componentType" : 5126,
      "count" : 406,
      "type" : "VEC2"
    },
    {
      "bufferView" : 7,
      "componentType" : 5126,
      "count" : 406,
      "type" : "VEC2"
    },
    {
      "bufferView" : 8,
      "componentType" : 5123,
      "count" : 918,
      "type" : "SCALAR"
    },
    {
      "bufferView" : 9,
      "min" : [ -1.14614, 0.155316, -1.10672 ],
      "max" : [ 3.81373, 8.01542, 21.9696 ],
      "componentType" : 5126,
      "count" : 636,
      "type" : "VEC3"
    },
    {
      "bufferView" : 10,
      "componentType" : 5126,
      "count" : 636,
      "type" : "VEC3"
    },
    {
      "bufferView" : 11,
      "componentType" : 5126,
      "count" : 636,
      "type" : "VEC4"
    },
    {
      "bufferView" : 12,
      "componentType" : 5126,
      "count" : 636,
      "type" : "VEC2"
    },
    {
      "bufferView" : 13,
      "componentType" : 5126,
      "count" : 636,
      "type" : "VEC2"
    },
    {
      "bufferView" : 14,
      "componentType" : 5126,
      "count" : 636,
      "type" : "VEC2"
    },
    {
      "bufferView" : 15,
      "componentType" : 5126,
      "count" : 636,
      "type" : "VEC2"
    },
    {
      "bufferView" : 16,
      "componentType" : 5123,
      "count" : 24,
      "type" : "SCALAR"
    },
    {
      "bufferView" : 17,
      "min" : [ -1.12207, 2.55647, -10.1312 ],
      "max" : [ 9.83758, 7.85758, 21.3342 ],
      "componentType" : 5126,
      "count" : 16,
      "type" : "VEC3"
    },
    {
      "bufferView" : 18,
      "componentType" : 5126,
      "count" : 16,
      "type" : "VEC3"
    },
    {
      "bufferView" : 19,
      "componentType" : 5126,
      "count" : 16,
      "type" : "VEC4"
    },
    {
      "bufferView" : 20,
      "componentType" : 5126,
      "count" : 16,
      "type" : "VEC2"
    },
    {
      "bufferView" : 21,
      "componentType" : 5126,
      "count" : 16,
      "type" : "VEC2"
    },
    {
      "bufferView" : 22,
      "componentType" : 5126,
      "count" : 16,
      "type" : "VEC2"
    },
    {
      "bufferView" : 23,
      "componentType" : 5126,
      "count" : 16,
      "type" : "VEC2"
    }
  ]
}
