{
  "asset" : {
    "generator" : "UE Viewer (umodel) build 1579 based",
    "version" : "2.0"
  },
  "scene" : 0,
  "scenes" : [
    {
      "nodes" : [ 0 ]
    }
  ],
  "nodes" : [
    {
      "name" : "S_Envi_FZFBase_Door_05c",
      "mesh" : 0
    }
  ],
  "materials" : [
    {
      "name" : "MI_Envi_FZFBase_Building_02f",
      "pbrMetallicRoughness" : {
        "baseColorFactor" : [ 0.3, 0.3, 0.3, 1.0 ],
        "metallicFactor" : 0.1,
        "roughnessFactor" : 0.5
      }
    },
    {
      "name" : "MI_Envi_FZFBase_Policeroom_01a",
      "pbrMetallicRoughness" : {
        "baseColorFactor" : [ 0.9, 0.3, 0.3, 1.0 ],
        "metallicFactor" : 0.1,
        "roughnessFactor" : 0.5
      }
    },
    {
      "name" : "MI_Envi_FZFBase_OuterDoor_01d",
      "pbrMetallicRoughness" : {
        "baseColorFactor" : [ 0.3, 0.9, 0.3, 1.0 ],
        "metallicFactor" : 0.1,
        "roughnessFactor" : 0.5
      }
    }
  ],
  "meshes" : [
    {
      "primitives" : [
        {
          "attributes" : {
            "POSITION" : 1,
            "NORMAL" : 2,
            "TANGENT" : 3,
            "TEXCOORD_0" : 4,
            "TEXCOORD_1" : 5,
            "TEXCOORD_2" : 6,
            "TEXCOORD_3" : 7
          },
          "indices" : 0,
          "material" : 0
        },
        {
          "attributes" : {
            "POSITION" : 9,
            "NORMAL" : 10,
            "TANGENT" : 11,
            "TEXCOORD_0" : 12,
            "TEXCOORD_1" : 13,
            "TEXCOORD_2" : 14,
            "TEXCOORD_3" : 15
          },
          "indices" : 8,
          "material" : 1
        },
        {
          "attributes" : {
            "POSITION" : 17,
            "NORMAL" : 18,
            "TANGENT" : 19,
            "TEXCOORD_0" : 20,
            "TEXCOORD_1" : 21,
            "TEXCOORD_2" : 22,
            "TEXCOORD_3" : 23
          },
          "indices" : 16,
          "material" : 2
        }
      ],
      "name" : "S_Envi_FZFBase_Door_05c"
    }
  ],
  "buffers" : [
    {
      "uri" : "S_Envi_FZFBase_Door_05c.bin",
      "byteLength" : 277556
    }
  ],
  "bufferViews" : [
    {
      "buffer" : 0,
      "byteOffset" : 0,
      "byteLength" : 7212
    },
    {
      "buffer" : 0,
      "byteOffset" : 7212,
      "byteLength" : 18276
    },
    {
      "buffer" : 0,
      "byteOffset" : 25488,
      "byteLength" : 18276
    },
    {
      "buffer" : 0,
      "byteOffset" : 43764,
      "byteLength" : 24368
    },
    {
      "buffer" : 0,
      "byteOffset" : 68132,
      "byteLength" : 12184
    },
    {
      "buffer" : 0,
      "byteOffset" : 80316,
      "byteLength" : 12184
    },
    {
      "buffer" : 0,
      "byteOffset" : 92500,
      "byteLength" : 12184
    },
    {
      "buffer" : 0,
      "byteOffset" : 104684,
      "byteLength" : 12184
    },
    {
      "buffer" : 0,
      "byteOffset" : 116868,
      "byteLength" : 776
    },
    {
      "buffer" : 0,
      "byteOffset" : 117644,
      "byteLength" : 2316
    },
    {
      "buffer" : 0,
      "byteOffset" : 119960,
      "byteLength" : 2316
    },
    {
      "buffer" : 0,
      "byteOffset" : 122276,
      "byteLength" : 3088
    },
    {
      "buffer" : 0,
      "byteOffset" : 125364,
      "byteLength" : 1544
    },
    {
      "buffer" : 0,
      "byteOffset" : 126908,
      "byteLength" : 1544
    },
    {
      "buffer" : 0,
      "byteOffset" : 128452,
      "byteLength" : 1544
    },
    {
      "buffer" : 0,
      "byteOffset" : 129996,
      "byteLength" : 1544
    },
    {
      "buffer" : 0,
      "byteOffset" : 131540,
      "byteLength" : 9936
    },
    {
      "buffer" : 0,
      "byteOffset" : 141476,
      "byteLength" : 22680
    },
    {
      "buffer" : 0,
      "byteOffset" : 164156,
      "byteLength" : 22680
    },
    {
      "buffer" : 0,
      "byteOffset" : 186836,
      "byteLength" : 30240
    },
    {
      "buffer" : 0,
      "byteOffset" : 217076,
      "byteLength" : 15120
    },
    {
      "buffer" : 0,
      "byteOffset" : 232196,
      "byteLength" : 15120
    },
    {
      "buffer" : 0,
      "byteOffset" : 247316,
      "byteLength" : 15120
    },
    {
      "buffer" : 0,
      "byteOffset" : 262436,
      "byteLength" : 15120
    }
  ],
  "accessors" : [
    {
      "bufferView" : 0,
      "componentType" : 5123,
      "count" : 3606,
      "type" : "SCALAR"
    },
    {
      "bufferView" : 1,
      "min" : [ -4.40661, -0.000121193, 0.0534219 ],
      "max" : [ 4.95371, 8.48488, 1.13498 ],
      "componentType" : 5126,
      "count" : 1523,
      "type" : "VEC3"
    },
    {
      "bufferView" : 2,
      "componentType" : 5126,
      "count" : 1523,
      "type" : "VEC3"
    },
    {
      "bufferView" : 3,
      "componentType" : 5126,
      "count" : 1523,
      "type" : "VEC4"
    },
    {
      "bufferView" : 4,
      "componentType" : 5126,
      "count" : 1523,
      "type" : "VEC2"
    },
    {
      "bufferView" : 5,
      "componentType" : 5126,
      "count" : 1523,
      "type" : "VEC2"
    },
    {
      "bufferView" : 6,
      "componentType" : 5126,
      "count" : 1523,
      "type" : "VEC2"
    },
    {
      "bufferView" : 7,
      "componentType" : 5126,
      "count" : 1523,
      "type" : "VEC2"
    },
    {
      "bufferView" : 8,
      "componentType" : 5123,
      "count" : 387,
      "type" : "SCALAR"
    },
    {
      "bufferView" : 9,
      "min" : [ -4.34127, 4.14139, -0.283788 ],
      "max" : [ 4.41999, 8.10498, 0.941506 ],
      "componentType" : 5126,
      "count" : 193,
      "type" : "VEC3"
    },
    {
      "bufferView" : 10,
      "componentType" : 5126,
      "count" : 193,
      "type" : "VEC3"
    },
    {
      "bufferView" : 11,
      "componentType" : 5126,
      "count" : 193,
      "type" : "VEC4"
    },
    {
      "bufferView" : 12,
      "componentType" : 5126,
      "count" : 193,
      "type" : "VEC2"
    },
    {
      "bufferView" : 13,
      "componentType" : 5126,
      "count" : 193,
      "type" : "VEC2"
    },
    {
      "bufferView" : 14,
      "componentType" : 5126,
      "count" : 193,
      "type" : "VEC2"
    },
    {
      "bufferView" : 15,
      "componentType" : 5126,
      "count" : 193,
      "type" : "VEC2"
    },
    {
      "bufferView" : 16,
      "componentType" : 5123,
      "count" : 4968,
      "type" : "SCALAR"
    },
    {
      "bufferView" : 17,
      "min" : [ -4.40551, 4.9236, -1.20174 ],
      "max" : [ 4.42503, 8.48446, 0.494648 ],
      "componentType" : 5126,
      "count" : 1890,
      "type" : "VEC3"
    },
    {
      "bufferView" : 18,
      "componentType" : 5126,
      "count" : 1890,
      "type" : "VEC3"
    },
    {
      "bufferView" : 19,
      "componentType" : 5126,
      "count" : 1890,
      "type" : "VEC4"
    },
    {
      "bufferView" : 20,
      "componentType" : 5126,
      "count" : 1890,
      "type" : "VEC2"
    },
    {
      "bufferView" : 21,
      "componentType" : 5126,
      "count" : 1890,
      "type" : "VEC2"
    },
    {
      "bufferView" : 22,
      "componentType" : 5126,
      "count" : 1890,
      "type" : "VEC2"
    },
    {
      "bufferView" : 23,
      "componentType" : 5126,
      "count" : 1890,
      "type" : "VEC2"
    }
  ]
}
