{
  "asset" : {
    "generator" : "UE Viewer (umodel) build 1579 based",
    "version" : "2.0"
  },
  "scene" : 0,
  "scenes" : [
    {
      "nodes" : [ 0 ]
    }
  ],
  "nodes" : [
    {
      "name" : "S_Envi_FZFBase_Wall_03q",
      "mesh" : 0
    }
  ],
  "materials" : [
    {
      "name" : "MI_Envi_FZFBase_Wall_19d",
      "pbrMetallicRoughness" : {
        "baseColorFactor" : [ 0.3, 0.3, 0.3, 1.0 ],
        "metallicFactor" : 0.1,
        "roughnessFactor" : 0.5
      }
    }
  ],
  "meshes" : [
    {
      "primitives" : [
        {
          "attributes" : {
            "POSITION" : 1,
            "NORMAL" : 2,
            "TANGENT" : 3,
            "TEXCOORD_0" : 4,
            "TEXCOORD_1" : 5,
            "TEXCOORD_2" : 6,
            "TEXCOORD_3" : 7
          },
          "indices" : 0,
          "material" : 0
        }
      ],
      "name" : "S_Envi_FZFBase_Wall_03q"
    }
  ],
  "buffers" : [
    {
      "uri" : "S_Envi_FZFBase_Wall_03q.bin",
      "byteLength" : 18848
    }
  ],
  "bufferViews" : [
    {
      "buffer" : 0,
      "byteOffset" : 0,
      "byteLength" : 920
    },
    {
      "buffer" : 0,
      "byteOffset" : 920,
      "byteLength" : 2988
    },
    {
      "buffer" : 0,
      "byteOffset" : 3908,
      "byteLength" : 2988
    },
    {
      "buffer" : 0,
      "byteOffset" : 6896,
      "byteLength" : 3984
    },
    {
      "buffer" : 0,
      "byteOffset" : 10880,
      "byteLength" : 1992
    },
    {
      "buffer" : 0,
      "byteOffset" : 12872,
      "byteLength" : 1992
    },
    {
      "buffer" : 0,
      "byteOffset" : 14864,
      "byteLength" : 1992
    },
    {
      "buffer" : 0,
      "byteOffset" : 16856,
      "byteLength" : 1992
    }
  ],
  "accessors" : [
    {
      "bufferView" : 0,
      "componentType" : 5123,
      "count" : 459,
      "type" : "SCALAR"
    },
    {
      "bufferView" : 1,
      "min" : [ 39.9542, 3.98186, 5.07727 ],
      "max" : [ 46.4289, 8.47199, 15.3369 ],
      "componentType" : 5126,
      "count" : 249,
      "type" : "VEC3"
    },
    {
      "bufferView" : 2,
      "componentType" : 5126,
      "count" : 249,
      "type" : "VEC3"
    },
    {
      "bufferView" : 3,
      "componentType" : 5126,
      "count" : 249,
      "type" : "VEC4"
    },
    {
      "bufferView" : 4,
      "componentType" : 5126,
      "count" : 249,
      "type" : "VEC2"
    },
    {
      "bufferView" : 5,
      "componentType" : 5126,
      "count" : 249,
      "type" : "VEC2"
    },
    {
      "bufferView" : 6,
      "componentType" : 5126,
      "count" : 249,
      "type" : "VEC2"
    },
    {
      "bufferView" : 7,
      "componentType" : 5126,
      "count" : 249,
      "type" : "VEC2"
    }
  ]
}
