{
  "asset" : {
    "generator" : "UE Viewer (umodel) build 1579 based",
    "version" : "2.0"
  },
  "scene" : 0,
  "scenes" : [
    {
      "nodes" : [ 0 ]
    }
  ],
  "nodes" : [
    {
      "name" : "S_Envi_FZFBase_Thoroughfare_01a",
      "mesh" : 0
    }
  ],
  "materials" : [
    {
      "name" : "MI_Envi_Olgk_Door_03a",
      "pbrMetallicRoughness" : {
        "baseColorFactor" : [ 0.3, 0.3, 0.3, 1.0 ],
        "metallicFactor" : 0.1,
        "roughnessFactor" : 0.5
      }
    },
    {
      "name" : "MI_Envi_Olgk_Platform_14a_2",
      "pbrMetallicRoughness" : {
        "baseColorFactor" : [ 0.9, 0.3, 0.3, 1.0 ],
        "metallicFactor" : 0.1,
        "roughnessFactor" : 0.5
      }
    },
    {
      "name" : "MI_Envi_Olgk_Platform_13a_2",
      "pbrMetallicRoughness" : {
        "baseColorFactor" : [ 0.3, 0.9, 0.3, 1.0 ],
        "metallicFactor" : 0.1,
        "roughnessFactor" : 0.5
      }
    }
  ],
  "meshes" : [
    {
      "primitives" : [
        {
          "attributes" : {
            "POSITION" : 1,
            "NORMAL" : 2,
            "TANGENT" : 3,
            "TEXCOORD_0" : 4,
            "TEXCOORD_1" : 5
          },
          "indices" : 0,
          "material" : 0
        },
        {
          "attributes" : {
            "POSITION" : 7,
            "NORMAL" : 8,
            "TANGENT" : 9,
            "TEXCOORD_0" : 10,
            "TEXCOORD_1" : 11
          },
          "indices" : 6,
          "material" : 1
        },
        {
          "attributes" : {
            "POSITION" : 13,
            "NORMAL" : 14,
            "TANGENT" : 15,
            "TEXCOORD_0" : 16,
            "TEXCOORD_1" : 17
          },
          "indices" : 12,
          "material" : 2
        }
      ],
      "name" : "S_Envi_FZFBase_Thoroughfare_01a"
    }
  ],
  "buffers" : [
    {
      "uri" : "S_Envi_FZFBase_Thoroughfare_01a.bin",
      "byteLength" : 436900
    }
  ],
  "bufferViews" : [
    {
      "buffer" : 0,
      "byteOffset" : 0,
      "byteLength" : 22536
    },
    {
      "buffer" : 0,
      "byteOffset" : 22536,
      "byteLength" : 82416
    },
    {
      "buffer" : 0,
      "byteOffset" : 104952,
      "byteLength" : 82416
    },
    {
      "buffer" : 0,
      "byteOffset" : 187368,
      "byteLength" : 109888
    },
    {
      "buffer" : 0,
      "byteOffset" : 297256,
      "byteLength" : 54944
    },
    {
      "buffer" : 0,
      "byteOffset" : 352200,
      "byteLength" : 54944
    },
    {
      "buffer" : 0,
      "byteOffset" : 407144,
      "byteLength" : 2064
    },
    {
      "buffer" : 0,
      "byteOffset" : 409208,
      "byteLength" : 5664
    },
    {
      "buffer" : 0,
      "byteOffset" : 414872,
      "byteLength" : 5664
    },
    {
      "buffer" : 0,
      "byteOffset" : 420536,
      "byteLength" : 7552
    },
    {
      "buffer" : 0,
      "byteOffset" : 428088,
      "byteLength" : 3776
    },
    {
      "buffer" : 0,
      "byteOffset" : 431864,
      "byteLength" : 3776
    },
    {
      "buffer" : 0,
      "byteOffset" : 435640,
      "byteLength" : 84
    },
    {
      "buffer" : 0,
      "byteOffset" : 435724,
      "byteLength" : 252
    },
    {
      "buffer" : 0,
      "byteOffset" : 435976,
      "byteLength" : 252
    },
    {
      "buffer" : 0,
      "byteOffset" : 436228,
      "byteLength" : 336
    },
    {
      "buffer" : 0,
      "byteOffset" : 436564,
      "byteLength" : 168
    },
    {
      "buffer" : 0,
      "byteOffset" : 436732,
      "byteLength" : 168
    }
  ],
  "accessors" : [
    {
      "bufferView" : 0,
      "componentType" : 5123,
      "count" : 11268,
      "type" : "SCALAR"
    },
    {
      "bufferView" : 1,
      "min" : [ -9.40625, -0.413619, -6.78718 ],
      "max" : [ -0.0431033, 3.99927, 0.158839 ],
      "componentType" : 5126,
      "count" : 6868,
      "type" : "VEC3"
    },
    {
      "bufferView" : 2,
      "componentType" : 5126,
      "count" : 6868,
      "type" : "VEC3"
    },
    {
      "bufferView" : 3,
      "componentType" : 5126,
      "count" : 6868,
      "type" : "VEC4"
    },
    {
      "bufferView" : 4,
      "componentType" : 5126,
      "count" : 6868,
      "type" : "VEC2"
    },
    {
      "bufferView" : 5,
      "componentType" : 5126,
      "count" : 6868,
      "type" : "VEC2"
    },
    {
      "bufferView" : 6,
      "componentType" : 5123,
      "count" : 1032,
      "type" : "SCALAR"
    },
    {
      "bufferView" : 7,
      "min" : [ -15.3662, -0.494309, -8.25183 ],
      "max" : [ -0.0497007, 3.27628, 2.40478 ],
      "componentType" : 5126,
      "count" : 472,
      "type" : "VEC3"
    },
    {
      "bufferView" : 8,
      "componentType" : 5126,
      "count" : 472,
      "type" : "VEC3"
    },
    {
      "bufferView" : 9,
      "componentType" : 5126,
      "count" : 472,
      "type" : "VEC4"
    },
    {
      "bufferView" : 10,
      "componentType" : 5126,
      "count" : 472,
      "type" : "VEC2"
    },
    {
      "bufferView" : 11,
      "componentType" : 5126,
      "count" : 472,
      "type" : "VEC2"
    },
    {
      "bufferView" : 12,
      "componentType" : 5123,
      "count" : 42,
      "type" : "SCALAR"
    },
    {
      "bufferView" : 13,
      "min" : [ -15.3662, -0.011249, -8.25183 ],
      "max" : [ -0.411833, -0.011247, 3.56266 ],
      "componentType" : 5126,
      "count" : 21,
      "type" : "VEC3"
    },
    {
      "bufferView" : 14,
      "componentType" : 5126,
      "count" : 21,
      "type" : "VEC3"
    },
    {
      "bufferView" : 15,
      "componentType" : 5126,
      "count" : 21,
      "type" : "VEC4"
    },
    {
      "bufferView" : 16,
      "componentType" : 5126,
      "count" : 21,
      "type" : "VEC2"
    },
    {
      "bufferView" : 17,
      "componentType" : 5126,
      "count" : 21,
      "type" : "VEC2"
    }
  ]
}
