{
  "asset" : {
    "generator" : "UE Viewer (umodel) build 1579 based",
    "version" : "2.0"
  },
  "scene" : 0,
  "scenes" : [
    {
      "nodes" : [ 0 ]
    }
  ],
  "nodes" : [
    {
      "name" : "S_Envi_FZFBase_OuterDoor_01d",
      "mesh" : 0
    }
  ],
  "materials" : [
    {
      "name" : "MI_Envi_FZFBase_OuterDoor_01g",
      "pbrMetallicRoughness" : {
        "baseColorFactor" : [ 0.3, 0.3, 0.3, 1.0 ],
        "metallicFactor" : 0.1,
        "roughnessFactor" : 0.5
      }
    }
  ],
  "meshes" : [
    {
      "primitives" : [
        {
          "attributes" : {
            "POSITION" : 1,
            "NORMAL" : 2,
            "TANGENT" : 3,
            "TEXCOORD_0" : 4,
            "TEXCOORD_1" : 5
          },
          "indices" : 0,
          "material" : 0
        }
      ],
      "name" : "S_Envi_FZFBase_OuterDoor_01d"
    }
  ],
  "buffers" : [
    {
      "uri" : "S_Envi_FZFBase_OuterDoor_01d.bin",
      "byteLength" : 7648
    }
  ],
  "bufferViews" : [
    {
      "buffer" : 0,
      "byteOffset" : 0,
      "byteLength" : 480
    },
    {
      "buffer" : 0,
      "byteOffset" : 480,
      "byteLength" : 1536
    },
    {
      "buffer" : 0,
      "byteOffset" : 2016,
      "byteLength" : 1536
    },
    {
      "buffer" : 0,
      "byteOffset" : 3552,
      "byteLength" : 2048
    },
    {
      "buffer" : 0,
      "byteOffset" : 5600,
      "byteLength" : 1024
    },
    {
      "buffer" : 0,
      "byteOffset" : 6624,
      "byteLength" : 1024
    }
  ],
  "accessors" : [
    {
      "bufferView" : 0,
      "componentType" : 5123,
      "count" : 240,
      "type" : "SCALAR"
    },
    {
      "bufferView" : 1,
      "min" : [ -16.4613, -0.0458172, -7.3684e-06 ],
      "max" : [ 5.49317e-06, 0.349998, 0.502939 ],
      "componentType" : 5126,
      "count" : 128,
      "type" : "VEC3"
    },
    {
      "bufferView" : 2,
      "componentType" : 5126,
      "count" : 128,
      "type" : "VEC3"
    },
    {
      "bufferView" : 3,
      "componentType" : 5126,
      "count" : 128,
      "type" : "VEC4"
    },
    {
      "bufferView" : 4,
      "componentType" : 5126,
      "count" : 128,
      "type" : "VEC2"
    },
    {
      "bufferView" : 5,
      "componentType" : 5126,
      "count" : 128,
      "type" : "VEC2"
    }
  ]
}
