{
  "asset" : {
    "generator" : "UE Viewer (umodel) build 1579 based",
    "version" : "2.0"
  },
  "scene" : 0,
  "scenes" : [
    {
      "nodes" : [ 0 ]
    }
  ],
  "nodes" : [
    {
      "name" : "S_Envi_FZFBase_Baseboard_01c",
      "mesh" : 0
    }
  ],
  "materials" : [
    {
      "name" : "MI_Envi_FZFBase_Policeroom_02a",
      "pbrMetallicRoughness" : {
        "baseColorFactor" : [ 0.3, 0.3, 0.3, 1.0 ],
        "metallicFactor" : 0.1,
        "roughnessFactor" : 0.5
      }
    }
  ],
  "meshes" : [
    {
      "primitives" : [
        {
          "attributes" : {
            "POSITION" : 1,
            "NORMAL" : 2,
            "TANGENT" : 3,
            "TEXCOORD_0" : 4,
            "TEXCOORD_1" : 5,
            "TEXCOORD_2" : 6,
            "TEXCOORD_3" : 7
          },
          "indices" : 0,
          "material" : 0
        }
      ],
      "name" : "S_Envi_FZFBase_Baseboard_01c"
    }
  ],
  "buffers" : [
    {
      "uri" : "S_Envi_FZFBase_Baseboard_01c.bin",
      "byteLength" : 80880
    }
  ],
  "bufferViews" : [
    {
      "buffer" : 0,
      "byteOffset" : 0,
      "byteLength" : 3984
    },
    {
      "buffer" : 0,
      "byteOffset" : 3984,
      "byteLength" : 12816
    },
    {
      "buffer" : 0,
      "byteOffset" : 16800,
      "byteLength" : 12816
    },
    {
      "buffer" : 0,
      "byteOffset" : 29616,
      "byteLength" : 17088
    },
    {
      "buffer" : 0,
      "byteOffset" : 46704,
      "byteLength" : 8544
    },
    {
      "buffer" : 0,
      "byteOffset" : 55248,
      "byteLength" : 8544
    },
    {
      "buffer" : 0,
      "byteOffset" : 63792,
      "byteLength" : 8544
    },
    {
      "buffer" : 0,
      "byteOffset" : 72336,
      "byteLength" : 8544
    }
  ],
  "accessors" : [
    {
      "bufferView" : 0,
      "componentType" : 5123,
      "count" : 1992,
      "type" : "SCALAR"
    },
    {
      "bufferView" : 1,
      "min" : [ 12.4775, -0.0502948, -30.9898 ],
      "max" : [ 26.7542, 3.52636, -6.89462 ],
      "componentType" : 5126,
      "count" : 1068,
      "type" : "VEC3"
    },
    {
      "bufferView" : 2,
      "componentType" : 5126,
      "count" : 1068,
      "type" : "VEC3"
    },
    {
      "bufferView" : 3,
      "componentType" : 5126,
      "count" : 1068,
      "type" : "VEC4"
    },
    {
      "bufferView" : 4,
      "componentType" : 5126,
      "count" : 1068,
      "type" : "VEC2"
    },
    {
      "bufferView" : 5,
      "componentType" : 5126,
      "count" : 1068,
      "type" : "VEC2"
    },
    {
      "bufferView" : 6,
      "componentType" : 5126,
      "count" : 1068,
      "type" : "VEC2"
    },
    {
      "bufferView" : 7,
      "componentType" : 5126,
      "count" : 1068,
      "type" : "VEC2"
    }
  ]
}
