{
  "asset" : {
    "generator" : "UE Viewer (umodel) build 1579 based",
    "version" : "2.0"
  },
  "scene" : 0,
  "scenes" : [
    {
      "nodes" : [ 0 ]
    }
  ],
  "nodes" : [
    {
      "name" : "S_Envi_FZFBase_searchlight_01g",
      "mesh" : 0
    }
  ],
  "materials" : [
    {
      "name" : "MI_Envi_FZFBase_Searchlight_01a",
      "pbrMetallicRoughness" : {
        "baseColorFactor" : [ 0.3, 0.3, 0.3, 1.0 ],
        "metallicFactor" : 0.1,
        "roughnessFactor" : 0.5
      }
    }
  ],
  "meshes" : [
    {
      "primitives" : [
        {
          "attributes" : {
            "POSITION" : 1,
            "NORMAL" : 2,
            "TANGENT" : 3,
            "TEXCOORD_0" : 4,
            "TEXCOORD_1" : 5,
            "TEXCOORD_2" : 6,
            "TEXCOORD_3" : 7
          },
          "indices" : 0,
          "material" : 0
        }
      ],
      "name" : "S_Envi_FZFBase_searchlight_01g"
    }
  ],
  "buffers" : [
    {
      "uri" : "S_Envi_FZFBase_searchlight_01g.bin",
      "byteLength" : 18044
    }
  ],
  "bufferViews" : [
    {
      "buffer" : 0,
      "byteOffset" : 0,
      "byteLength" : 836
    },
    {
      "buffer" : 0,
      "byteOffset" : 836,
      "byteLength" : 2868
    },
    {
      "buffer" : 0,
      "byteOffset" : 3704,
      "byteLength" : 2868
    },
    {
      "buffer" : 0,
      "byteOffset" : 6572,
      "byteLength" : 3824
    },
    {
      "buffer" : 0,
      "byteOffset" : 10396,
      "byteLength" : 1912
    },
    {
      "buffer" : 0,
      "byteOffset" : 12308,
      "byteLength" : 1912
    },
    {
      "buffer" : 0,
      "byteOffset" : 14220,
      "byteLength" : 1912
    },
    {
      "buffer" : 0,
      "byteOffset" : 16132,
      "byteLength" : 1912
    }
  ],
  "accessors" : [
    {
      "bufferView" : 0,
      "componentType" : 5123,
      "count" : 417,
      "type" : "SCALAR"
    },
    {
      "bufferView" : 1,
      "min" : [ -1.2207e-06, -0.876479, -0.93386 ],
      "max" : [ 1.10192, 1.21126, 0.384599 ],
      "componentType" : 5126,
      "count" : 239,
      "type" : "VEC3"
    },
    {
      "bufferView" : 2,
      "componentType" : 5126,
      "count" : 239,
      "type" : "VEC3"
    },
    {
      "bufferView" : 3,
      "componentType" : 5126,
      "count" : 239,
      "type" : "VEC4"
    },
    {
      "bufferView" : 4,
      "componentType" : 5126,
      "count" : 239,
      "type" : "VEC2"
    },
    {
      "bufferView" : 5,
      "componentType" : 5126,
      "count" : 239,
      "type" : "VEC2"
    },
    {
      "bufferView" : 6,
      "componentType" : 5126,
      "count" : 239,
      "type" : "VEC2"
    },
    {
      "bufferView" : 7,
      "componentType" : 5126,
      "count" : 239,
      "type" : "VEC2"
    }
  ]
}
