{
  "asset" : {
    "generator" : "UE Viewer (umodel) build 1579 based",
    "version" : "2.0"
  },
  "scene" : 0,
  "scenes" : [
    {
      "nodes" : [ 0 ]
    }
  ],
  "nodes" : [
    {
      "name" : "S_Envi_FZFBase_Building_01m",
      "mesh" : 0
    }
  ],
  "materials" : [
    {
      "name" : "MI_Envi_Common_Wall_10a",
      "pbrMetallicRoughness" : {
        "baseColorFactor" : [ 0.3, 0.3, 0.3, 1.0 ],
        "metallicFactor" : 0.1,
        "roughnessFactor" : 0.5
      }
    },
    {
      "name" : "MI_Envi_Umeda_Base_ConveyorBelt_01",
      "pbrMetallicRoughness" : {
        "baseColorFactor" : [ 0.9, 0.3, 0.3, 1.0 ],
        "metallicFactor" : 0.1,
        "roughnessFactor" : 0.5
      }
    },
    {
      "name" : "MI_Envi_Olgk_Track_01c",
      "pbrMetallicRoughness" : {
        "baseColorFactor" : [ 0.3, 0.9, 0.3, 1.0 ],
        "metallicFactor" : 0.1,
        "roughnessFactor" : 0.5
      }
    }
  ],
  "meshes" : [
    {
      "primitives" : [
        {
          "attributes" : {
            "POSITION" : 1,
            "NORMAL" : 2,
            "TANGENT" : 3,
            "TEXCOORD_0" : 4,
            "TEXCOORD_1" : 5,
            "TEXCOORD_2" : 6,
            "TEXCOORD_3" : 7
          },
          "indices" : 0,
          "material" : 0
        },
        {
          "attributes" : {
            "POSITION" : 9,
            "NORMAL" : 10,
            "TANGENT" : 11,
            "TEXCOORD_0" : 12,
            "TEXCOORD_1" : 13,
            "TEXCOORD_2" : 14,
            "TEXCOORD_3" : 15
          },
          "indices" : 8,
          "material" : 1
        },
        {
          "attributes" : {
            "POSITION" : 17,
            "NORMAL" : 18,
            "TANGENT" : 19,
            "TEXCOORD_0" : 20,
            "TEXCOORD_1" : 21,
            "TEXCOORD_2" : 22,
            "TEXCOORD_3" : 23
          },
          "indices" : 16,
          "material" : 2
        }
      ],
      "name" : "S_Envi_FZFBase_Building_01m"
    }
  ],
  "buffers" : [
    {
      "uri" : "S_Envi_FZFBase_Building_01m.bin",
      "byteLength" : 278984
    }
  ],
  "bufferViews" : [
    {
      "buffer" : 0,
      "byteOffset" : 0,
      "byteLength" : 1152
    },
    {
      "buffer" : 0,
      "byteOffset" : 1152,
      "byteLength" : 3504
    },
    {
      "buffer" : 0,
      "byteOffset" : 4656,
      "byteLength" : 3504
    },
    {
      "buffer" : 0,
      "byteOffset" : 8160,
      "byteLength" : 4672
    },
    {
      "buffer" : 0,
      "byteOffset" : 12832,
      "byteLength" : 2336
    },
    {
      "buffer" : 0,
      "byteOffset" : 15168,
      "byteLength" : 2336
    },
    {
      "buffer" : 0,
      "byteOffset" : 17504,
      "byteLength" : 2336
    },
    {
      "buffer" : 0,
      "byteOffset" : 19840,
      "byteLength" : 2336
    },
    {
      "buffer" : 0,
      "byteOffset" : 22176,
      "byteLength" : 6284
    },
    {
      "buffer" : 0,
      "byteOffset" : 28460,
      "byteLength" : 19548
    },
    {
      "buffer" : 0,
      "byteOffset" : 48008,
      "byteLength" : 19548
    },
    {
      "buffer" : 0,
      "byteOffset" : 67556,
      "byteLength" : 26064
    },
    {
      "buffer" : 0,
      "byteOffset" : 93620,
      "byteLength" : 13032
    },
    {
      "buffer" : 0,
      "byteOffset" : 106652,
      "byteLength" : 13032
    },
    {
      "buffer" : 0,
      "byteOffset" : 119684,
      "byteLength" : 13032
    },
    {
      "buffer" : 0,
      "byteOffset" : 132716,
      "byteLength" : 13032
    },
    {
      "buffer" : 0,
      "byteOffset" : 145748,
      "byteLength" : 6588
    },
    {
      "buffer" : 0,
      "byteOffset" : 152336,
      "byteLength" : 21108
    },
    {
      "buffer" : 0,
      "byteOffset" : 173444,
      "byteLength" : 21108
    },
    {
      "buffer" : 0,
      "byteOffset" : 194552,
      "byteLength" : 28144
    },
    {
      "buffer" : 0,
      "byteOffset" : 222696,
      "byteLength" : 14072
    },
    {
      "buffer" : 0,
      "byteOffset" : 236768,
      "byteLength" : 14072
    },
    {
      "buffer" : 0,
      "byteOffset" : 250840,
      "byteLength" : 14072
    },
    {
      "buffer" : 0,
      "byteOffset" : 264912,
      "byteLength" : 14072
    }
  ],
  "accessors" : [
    {
      "bufferView" : 0,
      "componentType" : 5123,
      "count" : 576,
      "type" : "SCALAR"
    },
    {
      "bufferView" : 1,
      "min" : [ -0.0105615, -6.03316e-17, -15.3308 ],
      "max" : [ 4.06222, 4.40128, -0.106493 ],
      "componentType" : 5126,
      "count" : 292,
      "type" : "VEC3"
    },
    {
      "bufferView" : 2,
      "componentType" : 5126,
      "count" : 292,
      "type" : "VEC3"
    },
    {
      "bufferView" : 3,
      "componentType" : 5126,
      "count" : 292,
      "type" : "VEC4"
    },
    {
      "bufferView" : 4,
      "componentType" : 5126,
      "count" : 292,
      "type" : "VEC2"
    },
    {
      "bufferView" : 5,
      "componentType" : 5126,
      "count" : 292,
      "type" : "VEC2"
    },
    {
      "bufferView" : 6,
      "componentType" : 5126,
      "count" : 292,
      "type" : "VEC2"
    },
    {
      "bufferView" : 7,
      "componentType" : 5126,
      "count" : 292,
      "type" : "VEC2"
    },
    {
      "bufferView" : 8,
      "componentType" : 5123,
      "count" : 3141,
      "type" : "SCALAR"
    },
    {
      "bufferView" : 9,
      "min" : [ 0.491248, 0.393643, -15.316 ],
      "max" : [ 4.06943, 0.68344, -0.855382 ],
      "componentType" : 5126,
      "count" : 1629,
      "type" : "VEC3"
    },
    {
      "bufferView" : 10,
      "componentType" : 5126,
      "count" : 1629,
      "type" : "VEC3"
    },
    {
      "bufferView" : 11,
      "componentType" : 5126,
      "count" : 1629,
      "type" : "VEC4"
    },
    {
      "bufferView" : 12,
      "componentType" : 5126,
      "count" : 1629,
      "type" : "VEC2"
    },
    {
      "bufferView" : 13,
      "componentType" : 5126,
      "count" : 1629,
      "type" : "VEC2"
    },
    {
      "bufferView" : 14,
      "componentType" : 5126,
      "count" : 1629,
      "type" : "VEC2"
    },
    {
      "bufferView" : 15,
      "componentType" : 5126,
      "count" : 1629,
      "type" : "VEC2"
    },
    {
      "bufferView" : 16,
      "componentType" : 5123,
      "count" : 3294,
      "type" : "SCALAR"
    },
    {
      "bufferView" : 17,
      "min" : [ 0.676602, 3.128, -15.5226 ],
      "max" : [ 4.06943, 3.89548, -1.06812 ],
      "componentType" : 5126,
      "count" : 1759,
      "type" : "VEC3"
    },
    {
      "bufferView" : 18,
      "componentType" : 5126,
      "count" : 1759,
      "type" : "VEC3"
    },
    {
      "bufferView" : 19,
      "componentType" : 5126,
      "count" : 1759,
      "type" : "VEC4"
    },
    {
      "bufferView" : 20,
      "componentType" : 5126,
      "count" : 1759,
      "type" : "VEC2"
    },
    {
      "bufferView" : 21,
      "componentType" : 5126,
      "count" : 1759,
      "type" : "VEC2"
    },
    {
      "bufferView" : 22,
      "componentType" : 5126,
      "count" : 1759,
      "type" : "VEC2"
    },
    {
      "bufferView" : 23,
      "componentType" : 5126,
      "count" : 1759,
      "type" : "VEC2"
    }
  ]
}
