{
  "asset" : {
    "generator" : "UE Viewer (umodel) build 1579 based",
    "version" : "2.0"
  },
  "scene" : 0,
  "scenes" : [
    {
      "nodes" : [ 0 ]
    }
  ],
  "nodes" : [
    {
      "name" : "S_Envi_FZFBase_Outpost_01b",
      "mesh" : 0
    }
  ],
  "materials" : [
    {
      "name" : "MI_Envi_Umeda_Prop_Monitor_01",
      "pbrMetallicRoughness" : {
        "baseColorFactor" : [ 0.3, 0.3, 0.3, 1.0 ],
        "metallicFactor" : 0.1,
        "roughnessFactor" : 0.5
      }
    },
    {
      "name" : "MI_Envi_Olgk_Screen_01d1_2",
      "pbrMetallicRoughness" : {
        "baseColorFactor" : [ 0.9, 0.3, 0.3, 1.0 ],
        "metallicFactor" : 0.1,
        "roughnessFactor" : 0.5
      }
    },
    {
      "name" : "MI_Envi_Common_ReWall_03a",
      "pbrMetallicRoughness" : {
        "baseColorFactor" : [ 0.3, 0.9, 0.3, 1.0 ],
        "metallicFactor" : 0.1,
        "roughnessFactor" : 0.5
      }
    }
  ],
  "meshes" : [
    {
      "primitives" : [
        {
          "attributes" : {
            "POSITION" : 1,
            "NORMAL" : 2,
            "TANGENT" : 3,
            "TEXCOORD_0" : 4,
            "TEXCOORD_1" : 5
          },
          "indices" : 0,
          "material" : 0
        },
        {
          "attributes" : {
            "POSITION" : 7,
            "NORMAL" : 8,
            "TANGENT" : 9,
            "TEXCOORD_0" : 10,
            "TEXCOORD_1" : 11
          },
          "indices" : 6,
          "material" : 1
        },
        {
          "attributes" : {
            "POSITION" : 13,
            "NORMAL" : 14,
            "TANGENT" : 15,
            "TEXCOORD_0" : 16,
            "TEXCOORD_1" : 17
          },
          "indices" : 12,
          "material" : 2
        }
      ],
      "name" : "S_Envi_FZFBase_Outpost_01b"
    }
  ],
  "buffers" : [
    {
      "uri" : "S_Envi_FZFBase_Outpost_01b.bin",
      "byteLength" : 72160
    }
  ],
  "bufferViews" : [
    {
      "buffer" : 0,
      "byteOffset" : 0,
      "byteLength" : 1608
    },
    {
      "buffer" : 0,
      "byteOffset" : 1608,
      "byteLength" : 5568
    },
    {
      "buffer" : 0,
      "byteOffset" : 7176,
      "byteLength" : 5568
    },
    {
      "buffer" : 0,
      "byteOffset" : 12744,
      "byteLength" : 7424
    },
    {
      "buffer" : 0,
      "byteOffset" : 20168,
      "byteLength" : 3712
    },
    {
      "buffer" : 0,
      "byteOffset" : 23880,
      "byteLength" : 3712
    },
    {
      "buffer" : 0,
      "byteOffset" : 27592,
      "byteLength" : 216
    },
    {
      "buffer" : 0,
      "byteOffset" : 27808,
      "byteLength" : 576
    },
    {
      "buffer" : 0,
      "byteOffset" : 28384,
      "byteLength" : 576
    },
    {
      "buffer" : 0,
      "byteOffset" : 28960,
      "byteLength" : 768
    },
    {
      "buffer" : 0,
      "byteOffset" : 29728,
      "byteLength" : 384
    },
    {
      "buffer" : 0,
      "byteOffset" : 30112,
      "byteLength" : 384
    },
    {
      "buffer" : 0,
      "byteOffset" : 30496,
      "byteLength" : 3192
    },
    {
      "buffer" : 0,
      "byteOffset" : 33688,
      "byteLength" : 8244
    },
    {
      "buffer" : 0,
      "byteOffset" : 41932,
      "byteLength" : 8244
    },
    {
      "buffer" : 0,
      "byteOffset" : 50176,
      "byteLength" : 10992
    },
    {
      "buffer" : 0,
      "byteOffset" : 61168,
      "byteLength" : 5496
    },
    {
      "buffer" : 0,
      "byteOffset" : 66664,
      "byteLength" : 5496
    }
  ],
  "accessors" : [
    {
      "bufferView" : 0,
      "componentType" : 5123,
      "count" : 804,
      "type" : "SCALAR"
    },
    {
      "bufferView" : 1,
      "min" : [ -4.35781, 2.68046, -5.19735 ],
      "max" : [ 4.35781, 4.67508, 5.19735 ],
      "componentType" : 5126,
      "count" : 464,
      "type" : "VEC3"
    },
    {
      "bufferView" : 2,
      "componentType" : 5126,
      "count" : 464,
      "type" : "VEC3"
    },
    {
      "bufferView" : 3,
      "componentType" : 5126,
      "count" : 464,
      "type" : "VEC4"
    },
    {
      "bufferView" : 4,
      "componentType" : 5126,
      "count" : 464,
      "type" : "VEC2"
    },
    {
      "bufferView" : 5,
      "componentType" : 5126,
      "count" : 464,
      "type" : "VEC2"
    },
    {
      "bufferView" : 6,
      "componentType" : 5123,
      "count" : 108,
      "type" : "SCALAR"
    },
    {
      "bufferView" : 7,
      "min" : [ -4.3298, 2.77097, -5.16941 ],
      "max" : [ 4.3298, 4.53631, 5.16941 ],
      "componentType" : 5126,
      "count" : 48,
      "type" : "VEC3"
    },
    {
      "bufferView" : 8,
      "componentType" : 5126,
      "count" : 48,
      "type" : "VEC3"
    },
    {
      "bufferView" : 9,
      "componentType" : 5126,
      "count" : 48,
      "type" : "VEC4"
    },
    {
      "bufferView" : 10,
      "componentType" : 5126,
      "count" : 48,
      "type" : "VEC2"
    },
    {
      "bufferView" : 11,
      "componentType" : 5126,
      "count" : 48,
      "type" : "VEC2"
    },
    {
      "bufferView" : 12,
      "componentType" : 5123,
      "count" : 1596,
      "type" : "SCALAR"
    },
    {
      "bufferView" : 13,
      "min" : [ -4.15274, -2.60339e-16, -4.95014 ],
      "max" : [ 4.15274, 5.19044, 4.95014 ],
      "componentType" : 5126,
      "count" : 687,
      "type" : "VEC3"
    },
    {
      "bufferView" : 14,
      "componentType" : 5126,
      "count" : 687,
      "type" : "VEC3"
    },
    {
      "bufferView" : 15,
      "componentType" : 5126,
      "count" : 687,
      "type" : "VEC4"
    },
    {
      "bufferView" : 16,
      "componentType" : 5126,
      "count" : 687,
      "type" : "VEC2"
    },
    {
      "bufferView" : 17,
      "componentType" : 5126,
      "count" : 687,
      "type" : "VEC2"
    }
  ]
}
