{
  "asset" : {
    "generator" : "UE Viewer (umodel) build 1579 based",
    "version" : "2.0"
  },
  "scene" : 0,
  "scenes" : [
    {
      "nodes" : [ 0 ]
    }
  ],
  "nodes" : [
    {
      "name" : "S_Envi_FZFBase_Track_01a",
      "mesh" : 0
    }
  ],
  "materials" : [
    {
      "name" : "MI_Envi_Olgk_Track_02",
      "pbrMetallicRoughness" : {
        "baseColorFactor" : [ 0.3, 0.3, 0.3, 1.0 ],
        "metallicFactor" : 0.1,
        "roughnessFactor" : 0.5
      }
    },
    {
      "name" : "MI_Envi_Common_Roof_03c",
      "pbrMetallicRoughness" : {
        "baseColorFactor" : [ 0.9, 0.3, 0.3, 1.0 ],
        "metallicFactor" : 0.1,
        "roughnessFactor" : 0.5
      }
    },
    {
      "name" : "MI_Envi_Umeda_Base_ConveyorBelt_04a",
      "pbrMetallicRoughness" : {
        "baseColorFactor" : [ 0.3, 0.9, 0.3, 1.0 ],
        "metallicFactor" : 0.1,
        "roughnessFactor" : 0.5
      }
    }
  ],
  "meshes" : [
    {
      "primitives" : [
        {
          "attributes" : {
            "POSITION" : 1,
            "NORMAL" : 2,
            "TANGENT" : 3,
            "TEXCOORD_0" : 4,
            "TEXCOORD_1" : 5
          },
          "indices" : 0,
          "material" : 0
        },
        {
          "attributes" : {
            "POSITION" : 7,
            "NORMAL" : 8,
            "TANGENT" : 9,
            "TEXCOORD_0" : 10,
            "TEXCOORD_1" : 11
          },
          "indices" : 6,
          "material" : 1
        },
        {
          "attributes" : {
            "POSITION" : 13,
            "NORMAL" : 14,
            "TANGENT" : 15,
            "TEXCOORD_0" : 16,
            "TEXCOORD_1" : 17
          },
          "indices" : 12,
          "material" : 2
        }
      ],
      "name" : "S_Envi_FZFBase_Track_01a"
    }
  ],
  "buffers" : [
    {
      "uri" : "S_Envi_FZFBase_Track_01a.bin",
      "byteLength" : 83024
    }
  ],
  "bufferViews" : [
    {
      "buffer" : 0,
      "byteOffset" : 0,
      "byteLength" : 3804
    },
    {
      "buffer" : 0,
      "byteOffset" : 3804,
      "byteLength" : 15408
    },
    {
      "buffer" : 0,
      "byteOffset" : 19212,
      "byteLength" : 15408
    },
    {
      "buffer" : 0,
      "byteOffset" : 34620,
      "byteLength" : 20544
    },
    {
      "buffer" : 0,
      "byteOffset" : 55164,
      "byteLength" : 10272
    },
    {
      "buffer" : 0,
      "byteOffset" : 65436,
      "byteLength" : 10272
    },
    {
      "buffer" : 0,
      "byteOffset" : 75708,
      "byteLength" : 288
    },
    {
      "buffer" : 0,
      "byteOffset" : 75996,
      "byteLength" : 1152
    },
    {
      "buffer" : 0,
      "byteOffset" : 77148,
      "byteLength" : 1152
    },
    {
      "buffer" : 0,
      "byteOffset" : 78300,
      "byteLength" : 1536
    },
    {
      "buffer" : 0,
      "byteOffset" : 79836,
      "byteLength" : 768
    },
    {
      "buffer" : 0,
      "byteOffset" : 80604,
      "byteLength" : 768
    },
    {
      "buffer" : 0,
      "byteOffset" : 81372,
      "byteLength" : 84
    },
    {
      "buffer" : 0,
      "byteOffset" : 81456,
      "byteLength" : 336
    },
    {
      "buffer" : 0,
      "byteOffset" : 81792,
      "byteLength" : 336
    },
    {
      "buffer" : 0,
      "byteOffset" : 82128,
      "byteLength" : 448
    },
    {
      "buffer" : 0,
      "byteOffset" : 82576,
      "byteLength" : 224
    },
    {
      "buffer" : 0,
      "byteOffset" : 82800,
      "byteLength" : 224
    }
  ],
  "accessors" : [
    {
      "bufferView" : 0,
      "componentType" : 5123,
      "count" : 1902,
      "type" : "SCALAR"
    },
    {
      "bufferView" : 1,
      "min" : [ 0, -0.541506, 0.334196 ],
      "max" : [ 20.476, 1.49169, 5.94775 ],
      "componentType" : 5126,
      "count" : 1284,
      "type" : "VEC3"
    },
    {
      "bufferView" : 2,
      "componentType" : 5126,
      "count" : 1284,
      "type" : "VEC3"
    },
    {
      "bufferView" : 3,
      "componentType" : 5126,
      "count" : 1284,
      "type" : "VEC4"
    },
    {
      "bufferView" : 4,
      "componentType" : 5126,
      "count" : 1284,
      "type" : "VEC2"
    },
    {
      "bufferView" : 5,
      "componentType" : 5126,
      "count" : 1284,
      "type" : "VEC2"
    },
    {
      "bufferView" : 6,
      "componentType" : 5123,
      "count" : 144,
      "type" : "SCALAR"
    },
    {
      "bufferView" : 7,
      "min" : [ 6.10352e-07, -1.688e-06, -2.59399e-06 ],
      "max" : [ 20.476, 0.307213, 6.00159 ],
      "componentType" : 5126,
      "count" : 96,
      "type" : "VEC3"
    },
    {
      "bufferView" : 8,
      "componentType" : 5126,
      "count" : 96,
      "type" : "VEC3"
    },
    {
      "bufferView" : 9,
      "componentType" : 5126,
      "count" : 96,
      "type" : "VEC4"
    },
    {
      "bufferView" : 10,
      "componentType" : 5126,
      "count" : 96,
      "type" : "VEC2"
    },
    {
      "bufferView" : 11,
      "componentType" : 5126,
      "count" : 96,
      "type" : "VEC2"
    },
    {
      "bufferView" : 12,
      "componentType" : 5123,
      "count" : 42,
      "type" : "SCALAR"
    },
    {
      "bufferView" : 13,
      "min" : [ 0.173556, -0.253425, 1.57181 ],
      "max" : [ 20.476, -0.25342, 4.43583 ],
      "componentType" : 5126,
      "count" : 28,
      "type" : "VEC3"
    },
    {
      "bufferView" : 14,
      "componentType" : 5126,
      "count" : 28,
      "type" : "VEC3"
    },
    {
      "bufferView" : 15,
      "componentType" : 5126,
      "count" : 28,
      "type" : "VEC4"
    },
    {
      "bufferView" : 16,
      "componentType" : 5126,
      "count" : 28,
      "type" : "VEC2"
    },
    {
      "bufferView" : 17,
      "componentType" : 5126,
      "count" : 28,
      "type" : "VEC2"
    }
  ]
}
