{
  "asset" : {
    "generator" : "UE Viewer (umodel) build 1579 based",
    "version" : "2.0"
  },
  "scene" : 0,
  "scenes" : [
    {
      "nodes" : [ 0 ]
    }
  ],
  "nodes" : [
    {
      "name" : "S_Envi_FZFBase_Wall_20c",
      "mesh" : 0
    }
  ],
  "materials" : [
    {
      "name" : "MI_Envi_FZFBase_OuterDoor_01b",
      "pbrMetallicRoughness" : {
        "baseColorFactor" : [ 0.3, 0.3, 0.3, 1.0 ],
        "metallicFactor" : 0.1,
        "roughnessFactor" : 0.5
      }
    },
    {
      "name" : "MI_Envi_FZFBase_Roof_01b",
      "pbrMetallicRoughness" : {
        "baseColorFactor" : [ 0.9, 0.3, 0.3, 1.0 ],
        "metallicFactor" : 0.1,
        "roughnessFactor" : 0.5
      }
    },
    {
      "name" : "MI_Envi_FZFBase_Lace_01a",
      "pbrMetallicRoughness" : {
        "baseColorFactor" : [ 0.3, 0.9, 0.3, 1.0 ],
        "metallicFactor" : 0.1,
        "roughnessFactor" : 0.5
      }
    }
  ],
  "meshes" : [
    {
      "primitives" : [
        {
          "attributes" : {
            "POSITION" : 1,
            "NORMAL" : 2,
            "TANGENT" : 3,
            "TEXCOORD_0" : 4,
            "TEXCOORD_1" : 5,
            "TEXCOORD_2" : 6,
            "TEXCOORD_3" : 7
          },
          "indices" : 0,
          "material" : 0
        },
        {
          "attributes" : {
            "POSITION" : 9,
            "NORMAL" : 10,
            "TANGENT" : 11,
            "TEXCOORD_0" : 12,
            "TEXCOORD_1" : 13,
            "TEXCOORD_2" : 14,
            "TEXCOORD_3" : 15
          },
          "indices" : 8,
          "material" : 1
        },
        {
          "attributes" : {
            "POSITION" : 17,
            "NORMAL" : 18,
            "TANGENT" : 19,
            "TEXCOORD_0" : 20,
            "TEXCOORD_1" : 21,
            "TEXCOORD_2" : 22,
            "TEXCOORD_3" : 23
          },
          "indices" : 16,
          "material" : 2
        }
      ],
      "name" : "S_Envi_FZFBase_Wall_20c"
    }
  ],
  "buffers" : [
    {
      "uri" : "S_Envi_FZFBase_Wall_20c.bin",
      "byteLength" : 200276
    }
  ],
  "bufferViews" : [
    {
      "buffer" : 0,
      "byteOffset" : 0,
      "byteLength" : 7344
    },
    {
      "buffer" : 0,
      "byteOffset" : 7344,
      "byteLength" : 15480
    },
    {
      "buffer" : 0,
      "byteOffset" : 22824,
      "byteLength" : 15480
    },
    {
      "buffer" : 0,
      "byteOffset" : 38304,
      "byteLength" : 20640
    },
    {
      "buffer" : 0,
      "byteOffset" : 58944,
      "byteLength" : 10320
    },
    {
      "buffer" : 0,
      "byteOffset" : 69264,
      "byteLength" : 10320
    },
    {
      "buffer" : 0,
      "byteOffset" : 79584,
      "byteLength" : 10320
    },
    {
      "buffer" : 0,
      "byteOffset" : 89904,
      "byteLength" : 10320
    },
    {
      "buffer" : 0,
      "byteOffset" : 100224,
      "byteLength" : 1404
    },
    {
      "buffer" : 0,
      "byteOffset" : 101628,
      "byteLength" : 3144
    },
    {
      "buffer" : 0,
      "byteOffset" : 104772,
      "byteLength" : 3144
    },
    {
      "buffer" : 0,
      "byteOffset" : 107916,
      "byteLength" : 4192
    },
    {
      "buffer" : 0,
      "byteOffset" : 112108,
      "byteLength" : 2096
    },
    {
      "buffer" : 0,
      "byteOffset" : 114204,
      "byteLength" : 2096
    },
    {
      "buffer" : 0,
      "byteOffset" : 116300,
      "byteLength" : 2096
    },
    {
      "buffer" : 0,
      "byteOffset" : 118396,
      "byteLength" : 2096
    },
    {
      "buffer" : 0,
      "byteOffset" : 120492,
      "byteLength" : 5408
    },
    {
      "buffer" : 0,
      "byteOffset" : 125900,
      "byteLength" : 12396
    },
    {
      "buffer" : 0,
      "byteOffset" : 138296,
      "byteLength" : 12396
    },
    {
      "buffer" : 0,
      "byteOffset" : 150692,
      "byteLength" : 16528
    },
    {
      "buffer" : 0,
      "byteOffset" : 167220,
      "byteLength" : 8264
    },
    {
      "buffer" : 0,
      "byteOffset" : 175484,
      "byteLength" : 8264
    },
    {
      "buffer" : 0,
      "byteOffset" : 183748,
      "byteLength" : 8264
    },
    {
      "buffer" : 0,
      "byteOffset" : 192012,
      "byteLength" : 8264
    }
  ],
  "accessors" : [
    {
      "bufferView" : 0,
      "componentType" : 5123,
      "count" : 3672,
      "type" : "SCALAR"
    },
    {
      "bufferView" : 1,
      "min" : [ -3.00829, 1.90667, -1.84944 ],
      "max" : [ 3.14929, 1.968, 1.82467 ],
      "componentType" : 5126,
      "count" : 1290,
      "type" : "VEC3"
    },
    {
      "bufferView" : 2,
      "componentType" : 5126,
      "count" : 1290,
      "type" : "VEC3"
    },
    {
      "bufferView" : 3,
      "componentType" : 5126,
      "count" : 1290,
      "type" : "VEC4"
    },
    {
      "bufferView" : 4,
      "componentType" : 5126,
      "count" : 1290,
      "type" : "VEC2"
    },
    {
      "bufferView" : 5,
      "componentType" : 5126,
      "count" : 1290,
      "type" : "VEC2"
    },
    {
      "bufferView" : 6,
      "componentType" : 5126,
      "count" : 1290,
      "type" : "VEC2"
    },
    {
      "bufferView" : 7,
      "componentType" : 5126,
      "count" : 1290,
      "type" : "VEC2"
    },
    {
      "bufferView" : 8,
      "componentType" : 5123,
      "count" : 702,
      "type" : "SCALAR"
    },
    {
      "bufferView" : 9,
      "min" : [ -3.69258, 1.92758, -2.61373 ],
      "max" : [ 3.86908, 2.15273, 2.55946 ],
      "componentType" : 5126,
      "count" : 262,
      "type" : "VEC3"
    },
    {
      "bufferView" : 10,
      "componentType" : 5126,
      "count" : 262,
      "type" : "VEC3"
    },
    {
      "bufferView" : 11,
      "componentType" : 5126,
      "count" : 262,
      "type" : "VEC4"
    },
    {
      "bufferView" : 12,
      "componentType" : 5126,
      "count" : 262,
      "type" : "VEC2"
    },
    {
      "bufferView" : 13,
      "componentType" : 5126,
      "count" : 262,
      "type" : "VEC2"
    },
    {
      "bufferView" : 14,
      "componentType" : 5126,
      "count" : 262,
      "type" : "VEC2"
    },
    {
      "bufferView" : 15,
      "componentType" : 5126,
      "count" : 262,
      "type" : "VEC2"
    },
    {
      "bufferView" : 16,
      "componentType" : 5123,
      "count" : 2703,
      "type" : "SCALAR"
    },
    {
      "bufferView" : 17,
      "min" : [ -3.35928, 1.91955, -2.19277 ],
      "max" : [ 3.48807, 2.0018, 2.16782 ],
      "componentType" : 5126,
      "count" : 1033,
      "type" : "VEC3"
    },
    {
      "bufferView" : 18,
      "componentType" : 5126,
      "count" : 1033,
      "type" : "VEC3"
    },
    {
      "bufferView" : 19,
      "componentType" : 5126,
      "count" : 1033,
      "type" : "VEC4"
    },
    {
      "bufferView" : 20,
      "componentType" : 5126,
      "count" : 1033,
      "type" : "VEC2"
    },
    {
      "bufferView" : 21,
      "componentType" : 5126,
      "count" : 1033,
      "type" : "VEC2"
    },
    {
      "bufferView" : 22,
      "componentType" : 5126,
      "count" : 1033,
      "type" : "VEC2"
    },
    {
      "bufferView" : 23,
      "componentType" : 5126,
      "count" : 1033,
      "type" : "VEC2"
    }
  ]
}
