{
  "asset" : {
    "generator" : "UE Viewer (umodel) build 1579 based",
    "version" : "2.0"
  },
  "scene" : 0,
  "scenes" : [
    {
      "nodes" : [ 0 ]
    }
  ],
  "nodes" : [
    {
      "name" : "S_Envi_FZFBase_component_01f",
      "mesh" : 0
    }
  ],
  "materials" : [
    {
      "name" : "MI_Envi_FZFBase_OuterDoor_01c",
      "pbrMetallicRoughness" : {
        "baseColorFactor" : [ 0.3, 0.3, 0.3, 1.0 ],
        "metallicFactor" : 0.1,
        "roughnessFactor" : 0.5
      }
    },
    {
      "name" : "MI_Envi_FZFBase_Screen_01a",
      "pbrMetallicRoughness" : {
        "baseColorFactor" : [ 0.9, 0.3, 0.3, 1.0 ],
        "metallicFactor" : 0.1,
        "roughnessFactor" : 0.5
      }
    }
  ],
  "meshes" : [
    {
      "primitives" : [
        {
          "attributes" : {
            "POSITION" : 1,
            "NORMAL" : 2,
            "TANGENT" : 3,
            "TEXCOORD_0" : 4,
            "TEXCOORD_1" : 5,
            "TEXCOORD_2" : 6,
            "TEXCOORD_3" : 7
          },
          "indices" : 0,
          "material" : 0
        },
        {
          "attributes" : {
            "POSITION" : 9,
            "NORMAL" : 10,
            "TANGENT" : 11,
            "TEXCOORD_0" : 12,
            "TEXCOORD_1" : 13,
            "TEXCOORD_2" : 14,
            "TEXCOORD_3" : 15
          },
          "indices" : 8,
          "material" : 1
        }
      ],
      "name" : "S_Envi_FZFBase_component_01f"
    }
  ],
  "buffers" : [
    {
      "uri" : "S_Envi_FZFBase_component_01f.bin",
      "byteLength" : 41076
    }
  ],
  "bufferViews" : [
    {
      "buffer" : 0,
      "byteOffset" : 0,
      "byteLength" : 2004
    },
    {
      "buffer" : 0,
      "byteOffset" : 2004,
      "byteLength" : 6384
    },
    {
      "buffer" : 0,
      "byteOffset" : 8388,
      "byteLength" : 6384
    },
    {
      "buffer" : 0,
      "byteOffset" : 14772,
      "byteLength" : 8512
    },
    {
      "buffer" : 0,
      "byteOffset" : 23284,
      "byteLength" : 4256
    },
    {
      "buffer" : 0,
      "byteOffset" : 27540,
      "byteLength" : 4256
    },
    {
      "buffer" : 0,
      "byteOffset" : 31796,
      "byteLength" : 4256
    },
    {
      "buffer" : 0,
      "byteOffset" : 36052,
      "byteLength" : 4256
    },
    {
      "buffer" : 0,
      "byteOffset" : 40308,
      "byteLength" : 48
    },
    {
      "buffer" : 0,
      "byteOffset" : 40356,
      "byteLength" : 120
    },
    {
      "buffer" : 0,
      "byteOffset" : 40476,
      "byteLength" : 120
    },
    {
      "buffer" : 0,
      "byteOffset" : 40596,
      "byteLength" : 160
    },
    {
      "buffer" : 0,
      "byteOffset" : 40756,
      "byteLength" : 80
    },
    {
      "buffer" : 0,
      "byteOffset" : 40836,
      "byteLength" : 80
    },
    {
      "buffer" : 0,
      "byteOffset" : 40916,
      "byteLength" : 80
    },
    {
      "buffer" : 0,
      "byteOffset" : 40996,
      "byteLength" : 80
    }
  ],
  "accessors" : [
    {
      "bufferView" : 0,
      "componentType" : 5123,
      "count" : 1002,
      "type" : "SCALAR"
    },
    {
      "bufferView" : 1,
      "min" : [ -9.08538, -5.51774, -0.587702 ],
      "max" : [ 1.74435e-05, 0.00358355, 2.72249 ],
      "componentType" : 5126,
      "count" : 532,
      "type" : "VEC3"
    },
    {
      "bufferView" : 2,
      "componentType" : 5126,
      "count" : 532,
      "type" : "VEC3"
    },
    {
      "bufferView" : 3,
      "componentType" : 5126,
      "count" : 532,
      "type" : "VEC4"
    },
    {
      "bufferView" : 4,
      "componentType" : 5126,
      "count" : 532,
      "type" : "VEC2"
    },
    {
      "bufferView" : 5,
      "componentType" : 5126,
      "count" : 532,
      "type" : "VEC2"
    },
    {
      "bufferView" : 6,
      "componentType" : 5126,
      "count" : 532,
      "type" : "VEC2"
    },
    {
      "bufferView" : 7,
      "componentType" : 5126,
      "count" : 532,
      "type" : "VEC2"
    },
    {
      "bufferView" : 8,
      "componentType" : 5123,
      "count" : 24,
      "type" : "SCALAR"
    },
    {
      "bufferView" : 9,
      "min" : [ -5.74107, -5.38557, 0.867727 ],
      "max" : [ -3.34418, -4.92972, 1.53011 ],
      "componentType" : 5126,
      "count" : 10,
      "type" : "VEC3"
    },
    {
      "bufferView" : 10,
      "componentType" : 5126,
      "count" : 10,
      "type" : "VEC3"
    },
    {
      "bufferView" : 11,
      "componentType" : 5126,
      "count" : 10,
      "type" : "VEC4"
    },
    {
      "bufferView" : 12,
      "componentType" : 5126,
      "count" : 10,
      "type" : "VEC2"
    },
    {
      "bufferView" : 13,
      "componentType" : 5126,
      "count" : 10,
      "type" : "VEC2"
    },
    {
      "bufferView" : 14,
      "componentType" : 5126,
      "count" : 10,
      "type" : "VEC2"
    },
    {
      "bufferView" : 15,
      "componentType" : 5126,
      "count" : 10,
      "type" : "VEC2"
    }
  ]
}
