{
  "asset" : {
    "generator" : "UE Viewer (umodel) build 1579 based",
    "version" : "2.0"
  },
  "scene" : 0,
  "scenes" : [
    {
      "nodes" : [ 0 ]
    }
  ],
  "nodes" : [
    {
      "name" : "S_Envi_FZFBase_Zero_01c",
      "mesh" : 0
    }
  ],
  "materials" : [
    {
      "name" : "MI_Envi_FZFBase_Zero_01b",
      "pbrMetallicRoughness" : {
        "baseColorFactor" : [ 0.3, 0.3, 0.3, 1.0 ],
        "metallicFactor" : 0.1,
        "roughnessFactor" : 0.5
      }
    },
    {
      "name" : "M_Glass_Inst1_2",
      "pbrMetallicRoughness" : {
        "baseColorFactor" : [ 0.9, 0.3, 0.3, 1.0 ],
        "metallicFactor" : 0.1,
        "roughnessFactor" : 0.5
      }
    },
    {
      "name" : "MI_Envi_FZFBase_Zero_01a",
      "pbrMetallicRoughness" : {
        "baseColorFactor" : [ 0.3, 0.9, 0.3, 1.0 ],
        "metallicFactor" : 0.1,
        "roughnessFactor" : 0.5
      }
    }
  ],
  "meshes" : [
    {
      "primitives" : [
        {
          "attributes" : {
            "POSITION" : 1,
            "NORMAL" : 2,
            "TANGENT" : 3,
            "TEXCOORD_0" : 4,
            "TEXCOORD_1" : 5,
            "TEXCOORD_2" : 6,
            "TEXCOORD_3" : 7
          },
          "indices" : 0,
          "material" : 0
        },
        {
          "attributes" : {
            "POSITION" : 9,
            "NORMAL" : 10,
            "TANGENT" : 11,
            "TEXCOORD_0" : 12,
            "TEXCOORD_1" : 13,
            "TEXCOORD_2" : 14,
            "TEXCOORD_3" : 15
          },
          "indices" : 8,
          "material" : 1
        },
        {
          "attributes" : {
            "POSITION" : 17,
            "NORMAL" : 18,
            "TANGENT" : 19,
            "TEXCOORD_0" : 20,
            "TEXCOORD_1" : 21,
            "TEXCOORD_2" : 22,
            "TEXCOORD_3" : 23
          },
          "indices" : 16,
          "material" : 2
        }
      ],
      "name" : "S_Envi_FZFBase_Zero_01c"
    }
  ],
  "buffers" : [
    {
      "uri" : "S_Envi_FZFBase_Zero_01c.bin",
      "byteLength" : 205696
    }
  ],
  "bufferViews" : [
    {
      "buffer" : 0,
      "byteOffset" : 0,
      "byteLength" : 2300
    },
    {
      "buffer" : 0,
      "byteOffset" : 2300,
      "byteLength" : 6744
    },
    {
      "buffer" : 0,
      "byteOffset" : 9044,
      "byteLength" : 6744
    },
    {
      "buffer" : 0,
      "byteOffset" : 15788,
      "byteLength" : 8992
    },
    {
      "buffer" : 0,
      "byteOffset" : 24780,
      "byteLength" : 4496
    },
    {
      "buffer" : 0,
      "byteOffset" : 29276,
      "byteLength" : 4496
    },
    {
      "buffer" : 0,
      "byteOffset" : 33772,
      "byteLength" : 4496
    },
    {
      "buffer" : 0,
      "byteOffset" : 38268,
      "byteLength" : 4496
    },
    {
      "buffer" : 0,
      "byteOffset" : 42764,
      "byteLength" : 140
    },
    {
      "buffer" : 0,
      "byteOffset" : 42904,
      "byteLength" : 204
    },
    {
      "buffer" : 0,
      "byteOffset" : 43108,
      "byteLength" : 204
    },
    {
      "buffer" : 0,
      "byteOffset" : 43312,
      "byteLength" : 272
    },
    {
      "buffer" : 0,
      "byteOffset" : 43584,
      "byteLength" : 136
    },
    {
      "buffer" : 0,
      "byteOffset" : 43720,
      "byteLength" : 136
    },
    {
      "buffer" : 0,
      "byteOffset" : 43856,
      "byteLength" : 136
    },
    {
      "buffer" : 0,
      "byteOffset" : 43992,
      "byteLength" : 136
    },
    {
      "buffer" : 0,
      "byteOffset" : 44128,
      "byteLength" : 14184
    },
    {
      "buffer" : 0,
      "byteOffset" : 58312,
      "byteLength" : 24564
    },
    {
      "buffer" : 0,
      "byteOffset" : 82876,
      "byteLength" : 24564
    },
    {
      "buffer" : 0,
      "byteOffset" : 107440,
      "byteLength" : 32752
    },
    {
      "buffer" : 0,
      "byteOffset" : 140192,
      "byteLength" : 16376
    },
    {
      "buffer" : 0,
      "byteOffset" : 156568,
      "byteLength" : 16376
    },
    {
      "buffer" : 0,
      "byteOffset" : 172944,
      "byteLength" : 16376
    },
    {
      "buffer" : 0,
      "byteOffset" : 189320,
      "byteLength" : 16376
    }
  ],
  "accessors" : [
    {
      "bufferView" : 0,
      "componentType" : 5123,
      "count" : 1149,
      "type" : "SCALAR"
    },
    {
      "bufferView" : 1,
      "min" : [ -0.0663879, 0.473951, -0.259142 ],
      "max" : [ 5.10193, 8.9612, 20.7114 ],
      "componentType" : 5126,
      "count" : 562,
      "type" : "VEC3"
    },
    {
      "bufferView" : 2,
      "componentType" : 5126,
      "count" : 562,
      "type" : "VEC3"
    },
    {
      "bufferView" : 3,
      "componentType" : 5126,
      "count" : 562,
      "type" : "VEC4"
    },
    {
      "bufferView" : 4,
      "componentType" : 5126,
      "count" : 562,
      "type" : "VEC2"
    },
    {
      "bufferView" : 5,
      "componentType" : 5126,
      "count" : 562,
      "type" : "VEC2"
    },
    {
      "bufferView" : 6,
      "componentType" : 5126,
      "count" : 562,
      "type" : "VEC2"
    },
    {
      "bufferView" : 7,
      "componentType" : 5126,
      "count" : 562,
      "type" : "VEC2"
    },
    {
      "bufferView" : 8,
      "componentType" : 5123,
      "count" : 69,
      "type" : "SCALAR"
    },
    {
      "bufferView" : 9,
      "min" : [ 2.35943, 0.47123, 3.37488 ],
      "max" : [ 2.87246, 0.544731, 3.8879 ],
      "componentType" : 5126,
      "count" : 17,
      "type" : "VEC3"
    },
    {
      "bufferView" : 10,
      "componentType" : 5126,
      "count" : 17,
      "type" : "VEC3"
    },
    {
      "bufferView" : 11,
      "componentType" : 5126,
      "count" : 17,
      "type" : "VEC4"
    },
    {
      "bufferView" : 12,
      "componentType" : 5126,
      "count" : 17,
      "type" : "VEC2"
    },
    {
      "bufferView" : 13,
      "componentType" : 5126,
      "count" : 17,
      "type" : "VEC2"
    },
    {
      "bufferView" : 14,
      "componentType" : 5126,
      "count" : 17,
      "type" : "VEC2"
    },
    {
      "bufferView" : 15,
      "componentType" : 5126,
      "count" : 17,
      "type" : "VEC2"
    },
    {
      "bufferView" : 16,
      "componentType" : 5123,
      "count" : 7092,
      "type" : "SCALAR"
    },
    {
      "bufferView" : 17,
      "min" : [ -0.00197739, -0.0103247, -0.0997867 ],
      "max" : [ 10.8521, 8.89651, 20.5405 ],
      "componentType" : 5126,
      "count" : 2047,
      "type" : "VEC3"
    },
    {
      "bufferView" : 18,
      "componentType" : 5126,
      "count" : 2047,
      "type" : "VEC3"
    },
    {
      "bufferView" : 19,
      "componentType" : 5126,
      "count" : 2047,
      "type" : "VEC4"
    },
    {
      "bufferView" : 20,
      "componentType" : 5126,
      "count" : 2047,
      "type" : "VEC2"
    },
    {
      "bufferView" : 21,
      "componentType" : 5126,
      "count" : 2047,
      "type" : "VEC2"
    },
    {
      "bufferView" : 22,
      "componentType" : 5126,
      "count" : 2047,
      "type" : "VEC2"
    },
    {
      "bufferView" : 23,
      "componentType" : 5126,
      "count" : 2047,
      "type" : "VEC2"
    }
  ]
}
