{
  "asset" : {
    "generator" : "UE Viewer (umodel) build 1579 based",
    "version" : "2.0"
  },
  "scene" : 0,
  "scenes" : [
    {
      "nodes" : [ 0 ]
    }
  ],
  "nodes" : [
    {
      "name" : "S_Envi_FZFBase_Outpost_01c",
      "mesh" : 0
    }
  ],
  "materials" : [
    {
      "name" : "MI_Envi_Umeda_Module_02a",
      "pbrMetallicRoughness" : {
        "baseColorFactor" : [ 0.3, 0.3, 0.3, 1.0 ],
        "metallicFactor" : 0.1,
        "roughnessFactor" : 0.5
      }
    },
    {
      "name" : "MI_Envi_Common_Wall_10a",
      "pbrMetallicRoughness" : {
        "baseColorFactor" : [ 0.9, 0.3, 0.3, 1.0 ],
        "metallicFactor" : 0.1,
        "roughnessFactor" : 0.5
      }
    }
  ],
  "meshes" : [
    {
      "primitives" : [
        {
          "attributes" : {
            "POSITION" : 1,
            "NORMAL" : 2,
            "TANGENT" : 3,
            "TEXCOORD_0" : 4,
            "TEXCOORD_1" : 5
          },
          "indices" : 0,
          "material" : 0
        },
        {
          "attributes" : {
            "POSITION" : 7,
            "NORMAL" : 8,
            "TANGENT" : 9,
            "TEXCOORD_0" : 10,
            "TEXCOORD_1" : 11
          },
          "indices" : 6,
          "material" : 1
        }
      ],
      "name" : "S_Envi_FZFBase_Outpost_01c"
    }
  ],
  "buffers" : [
    {
      "uri" : "S_Envi_FZFBase_Outpost_01c.bin",
      "byteLength" : 4016
    }
  ],
  "bufferViews" : [
    {
      "buffer" : 0,
      "byteOffset" : 0,
      "byteLength" : 68
    },
    {
      "buffer" : 0,
      "byteOffset" : 68,
      "byteLength" : 180
    },
    {
      "buffer" : 0,
      "byteOffset" : 248,
      "byteLength" : 180
    },
    {
      "buffer" : 0,
      "byteOffset" : 428,
      "byteLength" : 240
    },
    {
      "buffer" : 0,
      "byteOffset" : 668,
      "byteLength" : 120
    },
    {
      "buffer" : 0,
      "byteOffset" : 788,
      "byteLength" : 120
    },
    {
      "buffer" : 0,
      "byteOffset" : 908,
      "byteLength" : 140
    },
    {
      "buffer" : 0,
      "byteOffset" : 1048,
      "byteLength" : 636
    },
    {
      "buffer" : 0,
      "byteOffset" : 1684,
      "byteLength" : 636
    },
    {
      "buffer" : 0,
      "byteOffset" : 2320,
      "byteLength" : 848
    },
    {
      "buffer" : 0,
      "byteOffset" : 3168,
      "byteLength" : 424
    },
    {
      "buffer" : 0,
      "byteOffset" : 3592,
      "byteLength" : 424
    }
  ],
  "accessors" : [
    {
      "bufferView" : 0,
      "componentType" : 5123,
      "count" : 33,
      "type" : "SCALAR"
    },
    {
      "bufferView" : 1,
      "min" : [ 1.68842, 11.6412, -14.9605 ],
      "max" : [ 15.3781, 16.9788, 0.0351139 ],
      "componentType" : 5126,
      "count" : 15,
      "type" : "VEC3"
    },
    {
      "bufferView" : 2,
      "componentType" : 5126,
      "count" : 15,
      "type" : "VEC3"
    },
    {
      "bufferView" : 3,
      "componentType" : 5126,
      "count" : 15,
      "type" : "VEC4"
    },
    {
      "bufferView" : 4,
      "componentType" : 5126,
      "count" : 15,
      "type" : "VEC2"
    },
    {
      "bufferView" : 5,
      "componentType" : 5126,
      "count" : 15,
      "type" : "VEC2"
    },
    {
      "bufferView" : 6,
      "componentType" : 5123,
      "count" : 69,
      "type" : "SCALAR"
    },
    {
      "bufferView" : 7,
      "min" : [ 1.68842, 11.6412, -15.5696 ],
      "max" : [ 15.3781, 16.9788, 0.0351139 ],
      "componentType" : 5126,
      "count" : 53,
      "type" : "VEC3"
    },
    {
      "bufferView" : 8,
      "componentType" : 5126,
      "count" : 53,
      "type" : "VEC3"
    },
    {
      "bufferView" : 9,
      "componentType" : 5126,
      "count" : 53,
      "type" : "VEC4"
    },
    {
      "bufferView" : 10,
      "componentType" : 5126,
      "count" : 53,
      "type" : "VEC2"
    },
    {
      "bufferView" : 11,
      "componentType" : 5126,
      "count" : 53,
      "type" : "VEC2"
    }
  ]
}
