{
  "asset" : {
    "generator" : "UE Viewer (umodel) build 1579 based",
    "version" : "2.0"
  },
  "scene" : 0,
  "scenes" : [
    {
      "nodes" : [ 0 ]
    }
  ],
  "nodes" : [
    {
      "name" : "S_Envi_FZFBase_Zero_01a",
      "mesh" : 0
    }
  ],
  "materials" : [
    {
      "name" : "M_Glass_Inst1_2",
      "pbrMetallicRoughness" : {
        "baseColorFactor" : [ 0.3, 0.3, 0.3, 1.0 ],
        "metallicFactor" : 0.1,
        "roughnessFactor" : 0.5
      }
    },
    {
      "name" : "MI_Envi_FZFBase_Zero_01b",
      "pbrMetallicRoughness" : {
        "baseColorFactor" : [ 0.9, 0.3, 0.3, 1.0 ],
        "metallicFactor" : 0.1,
        "roughnessFactor" : 0.5
      }
    },
    {
      "name" : "MI_Envi_FZFBase_Zero_01a",
      "pbrMetallicRoughness" : {
        "baseColorFactor" : [ 0.3, 0.9, 0.3, 1.0 ],
        "metallicFactor" : 0.1,
        "roughnessFactor" : 0.5
      }
    }
  ],
  "meshes" : [
    {
      "primitives" : [
        {
          "attributes" : {
            "POSITION" : 1,
            "NORMAL" : 2,
            "TANGENT" : 3,
            "TEXCOORD_0" : 4,
            "TEXCOORD_1" : 5,
            "TEXCOORD_2" : 6,
            "TEXCOORD_3" : 7
          },
          "indices" : 0,
          "material" : 0
        },
        {
          "attributes" : {
            "POSITION" : 9,
            "NORMAL" : 10,
            "TANGENT" : 11,
            "TEXCOORD_0" : 12,
            "TEXCOORD_1" : 13,
            "TEXCOORD_2" : 14,
            "TEXCOORD_3" : 15
          },
          "indices" : 8,
          "material" : 1
        },
        {
          "attributes" : {
            "POSITION" : 17,
            "NORMAL" : 18,
            "TANGENT" : 19,
            "TEXCOORD_0" : 20,
            "TEXCOORD_1" : 21,
            "TEXCOORD_2" : 22,
            "TEXCOORD_3" : 23
          },
          "indices" : 16,
          "material" : 2
        }
      ],
      "name" : "S_Envi_FZFBase_Zero_01a"
    }
  ],
  "buffers" : [
    {
      "uri" : "S_Envi_FZFBase_Zero_01a.bin",
      "byteLength" : 269156
    }
  ],
  "bufferViews" : [
    {
      "buffer" : 0,
      "byteOffset" : 0,
      "byteLength" : 60
    },
    {
      "buffer" : 0,
      "byteOffset" : 60,
      "byteLength" : 240
    },
    {
      "buffer" : 0,
      "byteOffset" : 300,
      "byteLength" : 240
    },
    {
      "buffer" : 0,
      "byteOffset" : 540,
      "byteLength" : 320
    },
    {
      "buffer" : 0,
      "byteOffset" : 860,
      "byteLength" : 160
    },
    {
      "buffer" : 0,
      "byteOffset" : 1020,
      "byteLength" : 160
    },
    {
      "buffer" : 0,
      "byteOffset" : 1180,
      "byteLength" : 160
    },
    {
      "buffer" : 0,
      "byteOffset" : 1340,
      "byteLength" : 160
    },
    {
      "buffer" : 0,
      "byteOffset" : 1500,
      "byteLength" : 4668
    },
    {
      "buffer" : 0,
      "byteOffset" : 6168,
      "byteLength" : 10380
    },
    {
      "buffer" : 0,
      "byteOffset" : 16548,
      "byteLength" : 10380
    },
    {
      "buffer" : 0,
      "byteOffset" : 26928,
      "byteLength" : 13840
    },
    {
      "buffer" : 0,
      "byteOffset" : 40768,
      "byteLength" : 6920
    },
    {
      "buffer" : 0,
      "byteOffset" : 47688,
      "byteLength" : 6920
    },
    {
      "buffer" : 0,
      "byteOffset" : 54608,
      "byteLength" : 6920
    },
    {
      "buffer" : 0,
      "byteOffset" : 61528,
      "byteLength" : 6920
    },
    {
      "buffer" : 0,
      "byteOffset" : 68448,
      "byteLength" : 13940
    },
    {
      "buffer" : 0,
      "byteOffset" : 82388,
      "byteLength" : 31128
    },
    {
      "buffer" : 0,
      "byteOffset" : 113516,
      "byteLength" : 31128
    },
    {
      "buffer" : 0,
      "byteOffset" : 144644,
      "byteLength" : 41504
    },
    {
      "buffer" : 0,
      "byteOffset" : 186148,
      "byteLength" : 20752
    },
    {
      "buffer" : 0,
      "byteOffset" : 206900,
      "byteLength" : 20752
    },
    {
      "buffer" : 0,
      "byteOffset" : 227652,
      "byteLength" : 20752
    },
    {
      "buffer" : 0,
      "byteOffset" : 248404,
      "byteLength" : 20752
    }
  ],
  "accessors" : [
    {
      "bufferView" : 0,
      "componentType" : 5123,
      "count" : 30,
      "type" : "SCALAR"
    },
    {
      "bufferView" : 1,
      "min" : [ -4.38245, 6.37542, -0.25917 ],
      "max" : [ 18.7639, 10.7129, -0.0997693 ],
      "componentType" : 5126,
      "count" : 20,
      "type" : "VEC3"
    },
    {
      "bufferView" : 2,
      "componentType" : 5126,
      "count" : 20,
      "type" : "VEC3"
    },
    {
      "bufferView" : 3,
      "componentType" : 5126,
      "count" : 20,
      "type" : "VEC4"
    },
    {
      "bufferView" : 4,
      "componentType" : 5126,
      "count" : 20,
      "type" : "VEC2"
    },
    {
      "bufferView" : 5,
      "componentType" : 5126,
      "count" : 20,
      "type" : "VEC2"
    },
    {
      "bufferView" : 6,
      "componentType" : 5126,
      "count" : 20,
      "type" : "VEC2"
    },
    {
      "bufferView" : 7,
      "componentType" : 5126,
      "count" : 20,
      "type" : "VEC2"
    },
    {
      "bufferView" : 8,
      "componentType" : 5123,
      "count" : 2334,
      "type" : "SCALAR"
    },
    {
      "bufferView" : 9,
      "min" : [ -3.47115, 3.44754, -0.348875 ],
      "max" : [ 22.3305, 12.4729, 0.0243504 ],
      "componentType" : 5126,
      "count" : 865,
      "type" : "VEC3"
    },
    {
      "bufferView" : 10,
      "componentType" : 5126,
      "count" : 865,
      "type" : "VEC3"
    },
    {
      "bufferView" : 11,
      "componentType" : 5126,
      "count" : 865,
      "type" : "VEC4"
    },
    {
      "bufferView" : 12,
      "componentType" : 5126,
      "count" : 865,
      "type" : "VEC2"
    },
    {
      "bufferView" : 13,
      "componentType" : 5126,
      "count" : 865,
      "type" : "VEC2"
    },
    {
      "bufferView" : 14,
      "componentType" : 5126,
      "count" : 865,
      "type" : "VEC2"
    },
    {
      "bufferView" : 15,
      "componentType" : 5126,
      "count" : 865,
      "type" : "VEC2"
    },
    {
      "bufferView" : 16,
      "componentType" : 5123,
      "count" : 6969,
      "type" : "SCALAR"
    },
    {
      "bufferView" : 17,
      "min" : [ -7.1727, -6.10352e-06, -10.5721 ],
      "max" : [ 26.0321, 14.7478, 0.116802 ],
      "componentType" : 5126,
      "count" : 2594,
      "type" : "VEC3"
    },
    {
      "bufferView" : 18,
      "componentType" : 5126,
      "count" : 2594,
      "type" : "VEC3"
    },
    {
      "bufferView" : 19,
      "componentType" : 5126,
      "count" : 2594,
      "type" : "VEC4"
    },
    {
      "bufferView" : 20,
      "componentType" : 5126,
      "count" : 2594,
      "type" : "VEC2"
    },
    {
      "bufferView" : 21,
      "componentType" : 5126,
      "count" : 2594,
      "type" : "VEC2"
    },
    {
      "bufferView" : 22,
      "componentType" : 5126,
      "count" : 2594,
      "type" : "VEC2"
    },
    {
      "bufferView" : 23,
      "componentType" : 5126,
      "count" : 2594,
      "type" : "VEC2"
    }
  ]
}
