{
  "asset" : {
    "generator" : "UE Viewer (umodel) build 1579 based",
    "version" : "2.0"
  },
  "scene" : 0,
  "scenes" : [
    {
      "nodes" : [ 0 ]
    }
  ],
  "nodes" : [
    {
      "name" : "S_Envi_FZFBase_Roof_02i",
      "mesh" : 0
    }
  ],
  "materials" : [
    {
      "name" : "MI_Envi_FZFBase_OuterDoor_01b",
      "pbrMetallicRoughness" : {
        "baseColorFactor" : [ 0.3, 0.3, 0.3, 1.0 ],
        "metallicFactor" : 0.1,
        "roughnessFactor" : 0.5
      }
    },
    {
      "name" : "MI_Envi_FZFBase_Roof_01b",
      "pbrMetallicRoughness" : {
        "baseColorFactor" : [ 0.9, 0.3, 0.3, 1.0 ],
        "metallicFactor" : 0.1,
        "roughnessFactor" : 0.5
      }
    },
    {
      "name" : "MI_Envi_FZFBase_Lace_01a",
      "pbrMetallicRoughness" : {
        "baseColorFactor" : [ 0.3, 0.9, 0.3, 1.0 ],
        "metallicFactor" : 0.1,
        "roughnessFactor" : 0.5
      }
    }
  ],
  "meshes" : [
    {
      "primitives" : [
        {
          "attributes" : {
            "POSITION" : 1,
            "NORMAL" : 2,
            "TANGENT" : 3,
            "TEXCOORD_0" : 4,
            "TEXCOORD_1" : 5,
            "TEXCOORD_2" : 6,
            "TEXCOORD_3" : 7
          },
          "indices" : 0,
          "material" : 0
        },
        {
          "attributes" : {
            "POSITION" : 9,
            "NORMAL" : 10,
            "TANGENT" : 11,
            "TEXCOORD_0" : 12,
            "TEXCOORD_1" : 13,
            "TEXCOORD_2" : 14,
            "TEXCOORD_3" : 15
          },
          "indices" : 8,
          "material" : 1
        },
        {
          "attributes" : {
            "POSITION" : 17,
            "NORMAL" : 18,
            "TANGENT" : 19,
            "TEXCOORD_0" : 20,
            "TEXCOORD_1" : 21,
            "TEXCOORD_2" : 22,
            "TEXCOORD_3" : 23
          },
          "indices" : 16,
          "material" : 2
        }
      ],
      "name" : "S_Envi_FZFBase_Roof_02i"
    }
  ],
  "buffers" : [
    {
      "uri" : "S_Envi_FZFBase_Roof_02i.bin",
      "byteLength" : 498344
    }
  ],
  "bufferViews" : [
    {
      "buffer" : 0,
      "byteOffset" : 0,
      "byteLength" : 3408
    },
    {
      "buffer" : 0,
      "byteOffset" : 3408,
      "byteLength" : 7080
    },
    {
      "buffer" : 0,
      "byteOffset" : 10488,
      "byteLength" : 7080
    },
    {
      "buffer" : 0,
      "byteOffset" : 17568,
      "byteLength" : 9440
    },
    {
      "buffer" : 0,
      "byteOffset" : 27008,
      "byteLength" : 4720
    },
    {
      "buffer" : 0,
      "byteOffset" : 31728,
      "byteLength" : 4720
    },
    {
      "buffer" : 0,
      "byteOffset" : 36448,
      "byteLength" : 4720
    },
    {
      "buffer" : 0,
      "byteOffset" : 41168,
      "byteLength" : 4720
    },
    {
      "buffer" : 0,
      "byteOffset" : 45888,
      "byteLength" : 23480
    },
    {
      "buffer" : 0,
      "byteOffset" : 69368,
      "byteLength" : 59484
    },
    {
      "buffer" : 0,
      "byteOffset" : 128852,
      "byteLength" : 59484
    },
    {
      "buffer" : 0,
      "byteOffset" : 188336,
      "byteLength" : 79312
    },
    {
      "buffer" : 0,
      "byteOffset" : 267648,
      "byteLength" : 39656
    },
    {
      "buffer" : 0,
      "byteOffset" : 307304,
      "byteLength" : 39656
    },
    {
      "buffer" : 0,
      "byteOffset" : 346960,
      "byteLength" : 39656
    },
    {
      "buffer" : 0,
      "byteOffset" : 386616,
      "byteLength" : 39656
    },
    {
      "buffer" : 0,
      "byteOffset" : 426272,
      "byteLength" : 4824
    },
    {
      "buffer" : 0,
      "byteOffset" : 431096,
      "byteLength" : 11208
    },
    {
      "buffer" : 0,
      "byteOffset" : 442304,
      "byteLength" : 11208
    },
    {
      "buffer" : 0,
      "byteOffset" : 453512,
      "byteLength" : 14944
    },
    {
      "buffer" : 0,
      "byteOffset" : 468456,
      "byteLength" : 7472
    },
    {
      "buffer" : 0,
      "byteOffset" : 475928,
      "byteLength" : 7472
    },
    {
      "buffer" : 0,
      "byteOffset" : 483400,
      "byteLength" : 7472
    },
    {
      "buffer" : 0,
      "byteOffset" : 490872,
      "byteLength" : 7472
    }
  ],
  "accessors" : [
    {
      "bufferView" : 0,
      "componentType" : 5123,
      "count" : 1704,
      "type" : "SCALAR"
    },
    {
      "bufferView" : 1,
      "min" : [ 20.1925, 8.81568, -19.7538 ],
      "max" : [ 26.7509, 8.95503, -7.16523 ],
      "componentType" : 5126,
      "count" : 590,
      "type" : "VEC3"
    },
    {
      "bufferView" : 2,
      "componentType" : 5126,
      "count" : 590,
      "type" : "VEC3"
    },
    {
      "bufferView" : 3,
      "componentType" : 5126,
      "count" : 590,
      "type" : "VEC4"
    },
    {
      "bufferView" : 4,
      "componentType" : 5126,
      "count" : 590,
      "type" : "VEC2"
    },
    {
      "bufferView" : 5,
      "componentType" : 5126,
      "count" : 590,
      "type" : "VEC2"
    },
    {
      "bufferView" : 6,
      "componentType" : 5126,
      "count" : 590,
      "type" : "VEC2"
    },
    {
      "bufferView" : 7,
      "componentType" : 5126,
      "count" : 590,
      "type" : "VEC2"
    },
    {
      "bufferView" : 8,
      "componentType" : 5123,
      "count" : 11739,
      "type" : "SCALAR"
    },
    {
      "bufferView" : 9,
      "min" : [ 18.288, 8.86319, -50.3119 ],
      "max" : [ 27.0043, 9.37474, -6.91177 ],
      "componentType" : 5126,
      "count" : 4957,
      "type" : "VEC3"
    },
    {
      "bufferView" : 10,
      "componentType" : 5126,
      "count" : 4957,
      "type" : "VEC3"
    },
    {
      "bufferView" : 11,
      "componentType" : 5126,
      "count" : 4957,
      "type" : "VEC4"
    },
    {
      "bufferView" : 12,
      "componentType" : 5126,
      "count" : 4957,
      "type" : "VEC2"
    },
    {
      "bufferView" : 13,
      "componentType" : 5126,
      "count" : 4957,
      "type" : "VEC2"
    },
    {
      "bufferView" : 14,
      "componentType" : 5126,
      "count" : 4957,
      "type" : "VEC2"
    },
    {
      "bufferView" : 15,
      "componentType" : 5126,
      "count" : 4957,
      "type" : "VEC2"
    },
    {
      "bufferView" : 16,
      "componentType" : 5123,
      "count" : 2412,
      "type" : "SCALAR"
    },
    {
      "bufferView" : 17,
      "min" : [ 20.8337, 8.84494, -18.9917 ],
      "max" : [ 26.1062, 9.03182, -7.95329 ],
      "componentType" : 5126,
      "count" : 934,
      "type" : "VEC3"
    },
    {
      "bufferView" : 18,
      "componentType" : 5126,
      "count" : 934,
      "type" : "VEC3"
    },
    {
      "bufferView" : 19,
      "componentType" : 5126,
      "count" : 934,
      "type" : "VEC4"
    },
    {
      "bufferView" : 20,
      "componentType" : 5126,
      "count" : 934,
      "type" : "VEC2"
    },
    {
      "bufferView" : 21,
      "componentType" : 5126,
      "count" : 934,
      "type" : "VEC2"
    },
    {
      "bufferView" : 22,
      "componentType" : 5126,
      "count" : 934,
      "type" : "VEC2"
    },
    {
      "bufferView" : 23,
      "componentType" : 5126,
      "count" : 934,
      "type" : "VEC2"
    }
  ]
}
