{
  "asset" : {
    "generator" : "UE Viewer (umodel) build 1579 based",
    "version" : "2.0"
  },
  "scene" : 0,
  "scenes" : [
    {
      "nodes" : [ 0 ]
    }
  ],
  "nodes" : [
    {
      "name" : "S_Envi_FZFBase_Crossbeam_1i",
      "mesh" : 0
    }
  ],
  "materials" : [
    {
      "name" : "MI_Envi_FZFBase_Searchlight_01a",
      "pbrMetallicRoughness" : {
        "baseColorFactor" : [ 0.3, 0.3, 0.3, 1.0 ],
        "metallicFactor" : 0.1,
        "roughnessFactor" : 0.5
      }
    }
  ],
  "meshes" : [
    {
      "primitives" : [
        {
          "attributes" : {
            "POSITION" : 1,
            "NORMAL" : 2,
            "TANGENT" : 3,
            "TEXCOORD_0" : 4,
            "TEXCOORD_1" : 5,
            "TEXCOORD_2" : 6,
            "TEXCOORD_3" : 7
          },
          "indices" : 0,
          "material" : 0
        }
      ],
      "name" : "S_Envi_FZFBase_Crossbeam_1i"
    }
  ],
  "buffers" : [
    {
      "uri" : "S_Envi_FZFBase_Crossbeam_1i.bin",
      "byteLength" : 44532
    }
  ],
  "bufferViews" : [
    {
      "buffer" : 0,
      "byteOffset" : 0,
      "byteLength" : 2772
    },
    {
      "buffer" : 0,
      "byteOffset" : 2772,
      "byteLength" : 6960
    },
    {
      "buffer" : 0,
      "byteOffset" : 9732,
      "byteLength" : 6960
    },
    {
      "buffer" : 0,
      "byteOffset" : 16692,
      "byteLength" : 9280
    },
    {
      "buffer" : 0,
      "byteOffset" : 25972,
      "byteLength" : 4640
    },
    {
      "buffer" : 0,
      "byteOffset" : 30612,
      "byteLength" : 4640
    },
    {
      "buffer" : 0,
      "byteOffset" : 35252,
      "byteLength" : 4640
    },
    {
      "buffer" : 0,
      "byteOffset" : 39892,
      "byteLength" : 4640
    }
  ],
  "accessors" : [
    {
      "bufferView" : 0,
      "componentType" : 5123,
      "count" : 1386,
      "type" : "SCALAR"
    },
    {
      "bufferView" : 1,
      "min" : [ -10.5, -0.450001, -2.57879 ],
      "max" : [ -6.10352e-07, 7.62939e-08, -0 ],
      "componentType" : 5126,
      "count" : 580,
      "type" : "VEC3"
    },
    {
      "bufferView" : 2,
      "componentType" : 5126,
      "count" : 580,
      "type" : "VEC3"
    },
    {
      "bufferView" : 3,
      "componentType" : 5126,
      "count" : 580,
      "type" : "VEC4"
    },
    {
      "bufferView" : 4,
      "componentType" : 5126,
      "count" : 580,
      "type" : "VEC2"
    },
    {
      "bufferView" : 5,
      "componentType" : 5126,
      "count" : 580,
      "type" : "VEC2"
    },
    {
      "bufferView" : 6,
      "componentType" : 5126,
      "count" : 580,
      "type" : "VEC2"
    },
    {
      "bufferView" : 7,
      "componentType" : 5126,
      "count" : 580,
      "type" : "VEC2"
    }
  ]
}
