{
  "asset" : {
    "generator" : "UE Viewer (umodel) build 1579 based",
    "version" : "2.0"
  },
  "scene" : 0,
  "scenes" : [
    {
      "nodes" : [ 0 ]
    }
  ],
  "nodes" : [
    {
      "name" : "S_Envi_FZFBase_searchlight_06c",
      "mesh" : 0
    }
  ],
  "materials" : [
    {
      "name" : "MI_Envi_FZFBase_Searchlight_01c",
      "pbrMetallicRoughness" : {
        "baseColorFactor" : [ 0.3, 0.3, 0.3, 1.0 ],
        "metallicFactor" : 0.1,
        "roughnessFactor" : 0.5
      }
    }
  ],
  "meshes" : [
    {
      "primitives" : [
        {
          "attributes" : {
            "POSITION" : 1,
            "NORMAL" : 2,
            "TANGENT" : 3,
            "TEXCOORD_0" : 4,
            "TEXCOORD_1" : 5,
            "TEXCOORD_2" : 6,
            "TEXCOORD_3" : 7
          },
          "indices" : 0,
          "material" : 0
        }
      ],
      "name" : "S_Envi_FZFBase_searchlight_06c"
    }
  ],
  "buffers" : [
    {
      "uri" : "S_Envi_FZFBase_searchlight_06c.bin",
      "byteLength" : 68292
    }
  ],
  "bufferViews" : [
    {
      "buffer" : 0,
      "byteOffset" : 0,
      "byteLength" : 3276
    },
    {
      "buffer" : 0,
      "byteOffset" : 3276,
      "byteLength" : 10836
    },
    {
      "buffer" : 0,
      "byteOffset" : 14112,
      "byteLength" : 10836
    },
    {
      "buffer" : 0,
      "byteOffset" : 24948,
      "byteLength" : 14448
    },
    {
      "buffer" : 0,
      "byteOffset" : 39396,
      "byteLength" : 7224
    },
    {
      "buffer" : 0,
      "byteOffset" : 46620,
      "byteLength" : 7224
    },
    {
      "buffer" : 0,
      "byteOffset" : 53844,
      "byteLength" : 7224
    },
    {
      "buffer" : 0,
      "byteOffset" : 61068,
      "byteLength" : 7224
    }
  ],
  "accessors" : [
    {
      "bufferView" : 0,
      "componentType" : 5123,
      "count" : 1638,
      "type" : "SCALAR"
    },
    {
      "bufferView" : 1,
      "min" : [ -15.7841, -2.01119, 5.05954 ],
      "max" : [ 9.96414, 1.64078, 20.2502 ],
      "componentType" : 5126,
      "count" : 903,
      "type" : "VEC3"
    },
    {
      "bufferView" : 2,
      "componentType" : 5126,
      "count" : 903,
      "type" : "VEC3"
    },
    {
      "bufferView" : 3,
      "componentType" : 5126,
      "count" : 903,
      "type" : "VEC4"
    },
    {
      "bufferView" : 4,
      "componentType" : 5126,
      "count" : 903,
      "type" : "VEC2"
    },
    {
      "bufferView" : 5,
      "componentType" : 5126,
      "count" : 903,
      "type" : "VEC2"
    },
    {
      "bufferView" : 6,
      "componentType" : 5126,
      "count" : 903,
      "type" : "VEC2"
    },
    {
      "bufferView" : 7,
      "componentType" : 5126,
      "count" : 903,
      "type" : "VEC2"
    }
  ]
}
