{
  "asset" : {
    "generator" : "UE Viewer (umodel) build 1579 based",
    "version" : "2.0"
  },
  "scene" : 0,
  "scenes" : [
    {
      "nodes" : [ 0 ]
    }
  ],
  "nodes" : [
    {
      "name" : "S_Envi_FZFBase_Wall_03p",
      "mesh" : 0
    }
  ],
  "materials" : [
    {
      "name" : "MI_Envi_FZFBase_Wall_20b",
      "pbrMetallicRoughness" : {
        "baseColorFactor" : [ 0.3, 0.3, 0.3, 1.0 ],
        "metallicFactor" : 0.1,
        "roughnessFactor" : 0.5
      }
    }
  ],
  "meshes" : [
    {
      "primitives" : [
        {
          "attributes" : {
            "POSITION" : 1,
            "NORMAL" : 2,
            "TANGENT" : 3,
            "TEXCOORD_0" : 4,
            "TEXCOORD_1" : 5,
            "TEXCOORD_2" : 6,
            "TEXCOORD_3" : 7
          },
          "indices" : 0,
          "material" : 0
        }
      ],
      "name" : "S_Envi_FZFBase_Wall_03p"
    }
  ],
  "buffers" : [
    {
      "uri" : "S_Envi_FZFBase_Wall_03p.bin",
      "byteLength" : 15096
    }
  ],
  "bufferViews" : [
    {
      "buffer" : 0,
      "byteOffset" : 0,
      "byteLength" : 696
    },
    {
      "buffer" : 0,
      "byteOffset" : 696,
      "byteLength" : 2400
    },
    {
      "buffer" : 0,
      "byteOffset" : 3096,
      "byteLength" : 2400
    },
    {
      "buffer" : 0,
      "byteOffset" : 5496,
      "byteLength" : 3200
    },
    {
      "buffer" : 0,
      "byteOffset" : 8696,
      "byteLength" : 1600
    },
    {
      "buffer" : 0,
      "byteOffset" : 10296,
      "byteLength" : 1600
    },
    {
      "buffer" : 0,
      "byteOffset" : 11896,
      "byteLength" : 1600
    },
    {
      "buffer" : 0,
      "byteOffset" : 13496,
      "byteLength" : 1600
    }
  ],
  "accessors" : [
    {
      "bufferView" : 0,
      "componentType" : 5123,
      "count" : 348,
      "type" : "SCALAR"
    },
    {
      "bufferView" : 1,
      "min" : [ 12.0276, 3.18859, -30.9134 ],
      "max" : [ 19.7383, 8.38193, -19.5106 ],
      "componentType" : 5126,
      "count" : 200,
      "type" : "VEC3"
    },
    {
      "bufferView" : 2,
      "componentType" : 5126,
      "count" : 200,
      "type" : "VEC3"
    },
    {
      "bufferView" : 3,
      "componentType" : 5126,
      "count" : 200,
      "type" : "VEC4"
    },
    {
      "bufferView" : 4,
      "componentType" : 5126,
      "count" : 200,
      "type" : "VEC2"
    },
    {
      "bufferView" : 5,
      "componentType" : 5126,
      "count" : 200,
      "type" : "VEC2"
    },
    {
      "bufferView" : 6,
      "componentType" : 5126,
      "count" : 200,
      "type" : "VEC2"
    },
    {
      "bufferView" : 7,
      "componentType" : 5126,
      "count" : 200,
      "type" : "VEC2"
    }
  ]
}
