{
  "asset" : {
    "generator" : "UE Viewer (umodel) build 1579 based",
    "version" : "2.0"
  },
  "scene" : 0,
  "scenes" : [
    {
      "nodes" : [ 0 ]
    }
  ],
  "nodes" : [
    {
      "name" : "S_Envi_FZFBase_searchlight_03d",
      "mesh" : 0
    }
  ],
  "materials" : [
    {
      "name" : "MI_Envi_FZFBase_Searchlight_01a",
      "pbrMetallicRoughness" : {
        "baseColorFactor" : [ 0.3, 0.3, 0.3, 1.0 ],
        "metallicFactor" : 0.1,
        "roughnessFactor" : 0.5
      }
    }
  ],
  "meshes" : [
    {
      "primitives" : [
        {
          "attributes" : {
            "POSITION" : 1,
            "NORMAL" : 2,
            "TANGENT" : 3,
            "TEXCOORD_0" : 4,
            "TEXCOORD_1" : 5,
            "TEXCOORD_2" : 6,
            "TEXCOORD_3" : 7
          },
          "indices" : 0,
          "material" : 0
        }
      ],
      "name" : "S_Envi_FZFBase_searchlight_03d"
    }
  ],
  "buffers" : [
    {
      "uri" : "S_Envi_FZFBase_searchlight_03d.bin",
      "byteLength" : 100428
    }
  ],
  "bufferViews" : [
    {
      "buffer" : 0,
      "byteOffset" : 0,
      "byteLength" : 5100
    },
    {
      "buffer" : 0,
      "byteOffset" : 5100,
      "byteLength" : 15888
    },
    {
      "buffer" : 0,
      "byteOffset" : 20988,
      "byteLength" : 15888
    },
    {
      "buffer" : 0,
      "byteOffset" : 36876,
      "byteLength" : 21184
    },
    {
      "buffer" : 0,
      "byteOffset" : 58060,
      "byteLength" : 10592
    },
    {
      "buffer" : 0,
      "byteOffset" : 68652,
      "byteLength" : 10592
    },
    {
      "buffer" : 0,
      "byteOffset" : 79244,
      "byteLength" : 10592
    },
    {
      "buffer" : 0,
      "byteOffset" : 89836,
      "byteLength" : 10592
    }
  ],
  "accessors" : [
    {
      "bufferView" : 0,
      "componentType" : 5123,
      "count" : 2550,
      "type" : "SCALAR"
    },
    {
      "bufferView" : 1,
      "min" : [ -0.240146, 13.4039, -0.744856 ],
      "max" : [ 19.5147, 16.6119, 41.9536 ],
      "componentType" : 5126,
      "count" : 1324,
      "type" : "VEC3"
    },
    {
      "bufferView" : 2,
      "componentType" : 5126,
      "count" : 1324,
      "type" : "VEC3"
    },
    {
      "bufferView" : 3,
      "componentType" : 5126,
      "count" : 1324,
      "type" : "VEC4"
    },
    {
      "bufferView" : 4,
      "componentType" : 5126,
      "count" : 1324,
      "type" : "VEC2"
    },
    {
      "bufferView" : 5,
      "componentType" : 5126,
      "count" : 1324,
      "type" : "VEC2"
    },
    {
      "bufferView" : 6,
      "componentType" : 5126,
      "count" : 1324,
      "type" : "VEC2"
    },
    {
      "bufferView" : 7,
      "componentType" : 5126,
      "count" : 1324,
      "type" : "VEC2"
    }
  ]
}
