{
  "asset" : {
    "generator" : "UE Viewer (umodel) build 1579 based",
    "version" : "2.0"
  },
  "scene" : 0,
  "scenes" : [
    {
      "nodes" : [ 0 ]
    }
  ],
  "nodes" : [
    {
      "name" : "S_Envi_FZFBase_searchlight_03f",
      "mesh" : 0
    }
  ],
  "materials" : [
    {
      "name" : "MI_Envi_FZFBase_Searchlight_01a_3",
      "pbrMetallicRoughness" : {
        "baseColorFactor" : [ 0.3, 0.3, 0.3, 1.0 ],
        "metallicFactor" : 0.1,
        "roughnessFactor" : 0.5
      }
    }
  ],
  "meshes" : [
    {
      "primitives" : [
        {
          "attributes" : {
            "POSITION" : 1,
            "NORMAL" : 2,
            "TANGENT" : 3,
            "TEXCOORD_0" : 4,
            "TEXCOORD_1" : 5,
            "TEXCOORD_2" : 6,
            "TEXCOORD_3" : 7
          },
          "indices" : 0,
          "material" : 0
        }
      ],
      "name" : "S_Envi_FZFBase_searchlight_03f"
    }
  ],
  "buffers" : [
    {
      "uri" : "S_Envi_FZFBase_searchlight_03f.bin",
      "byteLength" : 57824
    }
  ],
  "bufferViews" : [
    {
      "buffer" : 0,
      "byteOffset" : 0,
      "byteLength" : 2600
    },
    {
      "buffer" : 0,
      "byteOffset" : 2600,
      "byteLength" : 9204
    },
    {
      "buffer" : 0,
      "byteOffset" : 11804,
      "byteLength" : 9204
    },
    {
      "buffer" : 0,
      "byteOffset" : 21008,
      "byteLength" : 12272
    },
    {
      "buffer" : 0,
      "byteOffset" : 33280,
      "byteLength" : 6136
    },
    {
      "buffer" : 0,
      "byteOffset" : 39416,
      "byteLength" : 6136
    },
    {
      "buffer" : 0,
      "byteOffset" : 45552,
      "byteLength" : 6136
    },
    {
      "buffer" : 0,
      "byteOffset" : 51688,
      "byteLength" : 6136
    }
  ],
  "accessors" : [
    {
      "bufferView" : 0,
      "componentType" : 5123,
      "count" : 1299,
      "type" : "SCALAR"
    },
    {
      "bufferView" : 1,
      "min" : [ -5.41872, 10.3259, -11.1649 ],
      "max" : [ 6.33848, 12.2533, 21.4942 ],
      "componentType" : 5126,
      "count" : 767,
      "type" : "VEC3"
    },
    {
      "bufferView" : 2,
      "componentType" : 5126,
      "count" : 767,
      "type" : "VEC3"
    },
    {
      "bufferView" : 3,
      "componentType" : 5126,
      "count" : 767,
      "type" : "VEC4"
    },
    {
      "bufferView" : 4,
      "componentType" : 5126,
      "count" : 767,
      "type" : "VEC2"
    },
    {
      "bufferView" : 5,
      "componentType" : 5126,
      "count" : 767,
      "type" : "VEC2"
    },
    {
      "bufferView" : 6,
      "componentType" : 5126,
      "count" : 767,
      "type" : "VEC2"
    },
    {
      "bufferView" : 7,
      "componentType" : 5126,
      "count" : 767,
      "type" : "VEC2"
    }
  ]
}
