{
  "asset" : {
    "generator" : "UE Viewer (umodel) build 1579 based",
    "version" : "2.0"
  },
  "scene" : 0,
  "scenes" : [
    {
      "nodes" : [ 0 ]
    }
  ],
  "nodes" : [
    {
      "name" : "S_Envi_FZFBase_Crossbeam_1e",
      "mesh" : 0
    }
  ],
  "materials" : [
    {
      "name" : "MI_Envi_FZFBase_Searchlight_01a",
      "pbrMetallicRoughness" : {
        "baseColorFactor" : [ 0.3, 0.3, 0.3, 1.0 ],
        "metallicFactor" : 0.1,
        "roughnessFactor" : 0.5
      }
    }
  ],
  "meshes" : [
    {
      "primitives" : [
        {
          "attributes" : {
            "POSITION" : 1,
            "NORMAL" : 2,
            "TANGENT" : 3,
            "TEXCOORD_0" : 4,
            "TEXCOORD_1" : 5,
            "TEXCOORD_2" : 6,
            "TEXCOORD_3" : 7
          },
          "indices" : 0,
          "material" : 0
        }
      ],
      "name" : "S_Envi_FZFBase_Crossbeam_1e"
    }
  ],
  "buffers" : [
    {
      "uri" : "S_Envi_FZFBase_Crossbeam_1e.bin",
      "byteLength" : 2892
    }
  ],
  "bufferViews" : [
    {
      "buffer" : 0,
      "byteOffset" : 0,
      "byteLength" : 156
    },
    {
      "buffer" : 0,
      "byteOffset" : 156,
      "byteLength" : 456
    },
    {
      "buffer" : 0,
      "byteOffset" : 612,
      "byteLength" : 456
    },
    {
      "buffer" : 0,
      "byteOffset" : 1068,
      "byteLength" : 608
    },
    {
      "buffer" : 0,
      "byteOffset" : 1676,
      "byteLength" : 304
    },
    {
      "buffer" : 0,
      "byteOffset" : 1980,
      "byteLength" : 304
    },
    {
      "buffer" : 0,
      "byteOffset" : 2284,
      "byteLength" : 304
    },
    {
      "buffer" : 0,
      "byteOffset" : 2588,
      "byteLength" : 304
    }
  ],
  "accessors" : [
    {
      "bufferView" : 0,
      "componentType" : 5123,
      "count" : 78,
      "type" : "SCALAR"
    },
    {
      "bufferView" : 1,
      "min" : [ -0.953494, -0.0565429, -1.28238 ],
      "max" : [ 0.0329997, 5.72205e-08, -0 ],
      "componentType" : 5126,
      "count" : 38,
      "type" : "VEC3"
    },
    {
      "bufferView" : 2,
      "componentType" : 5126,
      "count" : 38,
      "type" : "VEC3"
    },
    {
      "bufferView" : 3,
      "componentType" : 5126,
      "count" : 38,
      "type" : "VEC4"
    },
    {
      "bufferView" : 4,
      "componentType" : 5126,
      "count" : 38,
      "type" : "VEC2"
    },
    {
      "bufferView" : 5,
      "componentType" : 5126,
      "count" : 38,
      "type" : "VEC2"
    },
    {
      "bufferView" : 6,
      "componentType" : 5126,
      "count" : 38,
      "type" : "VEC2"
    },
    {
      "bufferView" : 7,
      "componentType" : 5126,
      "count" : 38,
      "type" : "VEC2"
    }
  ]
}
