{
  "asset" : {
    "generator" : "UE Viewer (umodel) build 1579 based",
    "version" : "2.0"
  },
  "scene" : 0,
  "scenes" : [
    {
      "nodes" : [ 0 ]
    }
  ],
  "nodes" : [
    {
      "name" : "S_Envi_FZFBase_Wall_02h",
      "mesh" : 0
    }
  ],
  "materials" : [
    {
      "name" : "MI_Envi_FZFBase_Wall_29a",
      "pbrMetallicRoughness" : {
        "baseColorFactor" : [ 0.3, 0.3, 0.3, 1.0 ],
        "metallicFactor" : 0.1,
        "roughnessFactor" : 0.5
      }
    },
    {
      "name" : "MI_Envi_FZFBase_Concrete_01a",
      "pbrMetallicRoughness" : {
        "baseColorFactor" : [ 0.9, 0.3, 0.3, 1.0 ],
        "metallicFactor" : 0.1,
        "roughnessFactor" : 0.5
      }
    },
    {
      "name" : "MI_Envi_Umeda_Prop_Servers_01",
      "pbrMetallicRoughness" : {
        "baseColorFactor" : [ 0.3, 0.9, 0.3, 1.0 ],
        "metallicFactor" : 0.1,
        "roughnessFactor" : 0.5
      }
    }
  ],
  "meshes" : [
    {
      "primitives" : [
        {
          "attributes" : {
            "POSITION" : 1,
            "NORMAL" : 2,
            "TANGENT" : 3,
            "TEXCOORD_0" : 4,
            "TEXCOORD_1" : 5,
            "TEXCOORD_2" : 6,
            "TEXCOORD_3" : 7
          },
          "indices" : 0,
          "material" : 0
        },
        {
          "attributes" : {
            "POSITION" : 9,
            "NORMAL" : 10,
            "TANGENT" : 11,
            "TEXCOORD_0" : 12,
            "TEXCOORD_1" : 13,
            "TEXCOORD_2" : 14,
            "TEXCOORD_3" : 15
          },
          "indices" : 8,
          "material" : 1
        },
        {
          "attributes" : {
            "POSITION" : 17,
            "NORMAL" : 18,
            "TANGENT" : 19,
            "TEXCOORD_0" : 20,
            "TEXCOORD_1" : 21,
            "TEXCOORD_2" : 22,
            "TEXCOORD_3" : 23
          },
          "indices" : 16,
          "material" : 2
        }
      ],
      "name" : "S_Envi_FZFBase_Wall_02h"
    }
  ],
  "buffers" : [
    {
      "uri" : "S_Envi_FZFBase_Wall_02h.bin",
      "byteLength" : 391240
    }
  ],
  "bufferViews" : [
    {
      "buffer" : 0,
      "byteOffset" : 0,
      "byteLength" : 13628
    },
    {
      "buffer" : 0,
      "byteOffset" : 13628,
      "byteLength" : 49380
    },
    {
      "buffer" : 0,
      "byteOffset" : 63008,
      "byteLength" : 49380
    },
    {
      "buffer" : 0,
      "byteOffset" : 112388,
      "byteLength" : 65840
    },
    {
      "buffer" : 0,
      "byteOffset" : 178228,
      "byteLength" : 32920
    },
    {
      "buffer" : 0,
      "byteOffset" : 211148,
      "byteLength" : 32920
    },
    {
      "buffer" : 0,
      "byteOffset" : 244068,
      "byteLength" : 32920
    },
    {
      "buffer" : 0,
      "byteOffset" : 276988,
      "byteLength" : 32920
    },
    {
      "buffer" : 0,
      "byteOffset" : 309908,
      "byteLength" : 2312
    },
    {
      "buffer" : 0,
      "byteOffset" : 312220,
      "byteLength" : 6420
    },
    {
      "buffer" : 0,
      "byteOffset" : 318640,
      "byteLength" : 6420
    },
    {
      "buffer" : 0,
      "byteOffset" : 325060,
      "byteLength" : 8560
    },
    {
      "buffer" : 0,
      "byteOffset" : 333620,
      "byteLength" : 4280
    },
    {
      "buffer" : 0,
      "byteOffset" : 337900,
      "byteLength" : 4280
    },
    {
      "buffer" : 0,
      "byteOffset" : 342180,
      "byteLength" : 4280
    },
    {
      "buffer" : 0,
      "byteOffset" : 346460,
      "byteLength" : 4280
    },
    {
      "buffer" : 0,
      "byteOffset" : 350740,
      "byteLength" : 1620
    },
    {
      "buffer" : 0,
      "byteOffset" : 352360,
      "byteLength" : 6480
    },
    {
      "buffer" : 0,
      "byteOffset" : 358840,
      "byteLength" : 6480
    },
    {
      "buffer" : 0,
      "byteOffset" : 365320,
      "byteLength" : 8640
    },
    {
      "buffer" : 0,
      "byteOffset" : 373960,
      "byteLength" : 4320
    },
    {
      "buffer" : 0,
      "byteOffset" : 378280,
      "byteLength" : 4320
    },
    {
      "buffer" : 0,
      "byteOffset" : 382600,
      "byteLength" : 4320
    },
    {
      "buffer" : 0,
      "byteOffset" : 386920,
      "byteLength" : 4320
    }
  ],
  "accessors" : [
    {
      "bufferView" : 0,
      "componentType" : 5123,
      "count" : 6813,
      "type" : "SCALAR"
    },
    {
      "bufferView" : 1,
      "min" : [ 0.0272045, 0.00418427, 0.298115 ],
      "max" : [ 9.85385, 10.0018, 10.2356 ],
      "componentType" : 5126,
      "count" : 4115,
      "type" : "VEC3"
    },
    {
      "bufferView" : 2,
      "componentType" : 5126,
      "count" : 4115,
      "type" : "VEC3"
    },
    {
      "bufferView" : 3,
      "componentType" : 5126,
      "count" : 4115,
      "type" : "VEC4"
    },
    {
      "bufferView" : 4,
      "componentType" : 5126,
      "count" : 4115,
      "type" : "VEC2"
    },
    {
      "bufferView" : 5,
      "componentType" : 5126,
      "count" : 4115,
      "type" : "VEC2"
    },
    {
      "bufferView" : 6,
      "componentType" : 5126,
      "count" : 4115,
      "type" : "VEC2"
    },
    {
      "bufferView" : 7,
      "componentType" : 5126,
      "count" : 4115,
      "type" : "VEC2"
    },
    {
      "bufferView" : 8,
      "componentType" : 5123,
      "count" : 1155,
      "type" : "SCALAR"
    },
    {
      "bufferView" : 9,
      "min" : [ 0.0106299, 0.004184, -0.0590204 ],
      "max" : [ 20.8623, 12.42, 20.343 ],
      "componentType" : 5126,
      "count" : 535,
      "type" : "VEC3"
    },
    {
      "bufferView" : 10,
      "componentType" : 5126,
      "count" : 535,
      "type" : "VEC3"
    },
    {
      "bufferView" : 11,
      "componentType" : 5126,
      "count" : 535,
      "type" : "VEC4"
    },
    {
      "bufferView" : 12,
      "componentType" : 5126,
      "count" : 535,
      "type" : "VEC2"
    },
    {
      "bufferView" : 13,
      "componentType" : 5126,
      "count" : 535,
      "type" : "VEC2"
    },
    {
      "bufferView" : 14,
      "componentType" : 5126,
      "count" : 535,
      "type" : "VEC2"
    },
    {
      "bufferView" : 15,
      "componentType" : 5126,
      "count" : 535,
      "type" : "VEC2"
    },
    {
      "bufferView" : 16,
      "componentType" : 5123,
      "count" : 810,
      "type" : "SCALAR"
    },
    {
      "bufferView" : 17,
      "min" : [ 2.46595, 5.29669, 9.97895 ],
      "max" : [ 3.82082, 8.30548, 10.0279 ],
      "componentType" : 5126,
      "count" : 540,
      "type" : "VEC3"
    },
    {
      "bufferView" : 18,
      "componentType" : 5126,
      "count" : 540,
      "type" : "VEC3"
    },
    {
      "bufferView" : 19,
      "componentType" : 5126,
      "count" : 540,
      "type" : "VEC4"
    },
    {
      "bufferView" : 20,
      "componentType" : 5126,
      "count" : 540,
      "type" : "VEC2"
    },
    {
      "bufferView" : 21,
      "componentType" : 5126,
      "count" : 540,
      "type" : "VEC2"
    },
    {
      "bufferView" : 22,
      "componentType" : 5126,
      "count" : 540,
      "type" : "VEC2"
    },
    {
      "bufferView" : 23,
      "componentType" : 5126,
      "count" : 540,
      "type" : "VEC2"
    }
  ]
}
