{
  "asset" : {
    "generator" : "UE Viewer (umodel) build 1579 based",
    "version" : "2.0"
  },
  "scene" : 0,
  "scenes" : [
    {
      "nodes" : [ 0 ]
    }
  ],
  "nodes" : [
    {
      "name" : "S_Envi_FZFBase_Outpost_01a_Glass",
      "mesh" : 0
    }
  ],
  "materials" : [
    {
      "name" : "MI_PM_Glass_02i",
      "pbrMetallicRoughness" : {
        "baseColorFactor" : [ 0.3, 0.3, 0.3, 1.0 ],
        "metallicFactor" : 0.1,
        "roughnessFactor" : 0.5
      }
    }
  ],
  "meshes" : [
    {
      "primitives" : [
        {
          "attributes" : {
            "POSITION" : 1,
            "NORMAL" : 2,
            "TANGENT" : 3,
            "TEXCOORD_0" : 4,
            "TEXCOORD_1" : 5
          },
          "indices" : 0,
          "material" : 0
        }
      ],
      "name" : "S_Envi_FZFBase_Outpost_01a_Glass"
    }
  ],
  "buffers" : [
    {
      "uri" : "S_Envi_FZFBase_Outpost_01a_Glass.bin",
      "byteLength" : 6968
    }
  ],
  "bufferViews" : [
    {
      "buffer" : 0,
      "byteOffset" : 0,
      "byteLength" : 360
    },
    {
      "buffer" : 0,
      "byteOffset" : 360,
      "byteLength" : 1416
    },
    {
      "buffer" : 0,
      "byteOffset" : 1776,
      "byteLength" : 1416
    },
    {
      "buffer" : 0,
      "byteOffset" : 3192,
      "byteLength" : 1888
    },
    {
      "buffer" : 0,
      "byteOffset" : 5080,
      "byteLength" : 944
    },
    {
      "buffer" : 0,
      "byteOffset" : 6024,
      "byteLength" : 944
    }
  ],
  "accessors" : [
    {
      "bufferView" : 0,
      "componentType" : 5123,
      "count" : 180,
      "type" : "SCALAR"
    },
    {
      "bufferView" : 1,
      "min" : [ 9.52709, 13.3978, -15.0197 ],
      "max" : [ 14.9341, 15.797, -1.57493 ],
      "componentType" : 5126,
      "count" : 118,
      "type" : "VEC3"
    },
    {
      "bufferView" : 2,
      "componentType" : 5126,
      "count" : 118,
      "type" : "VEC3"
    },
    {
      "bufferView" : 3,
      "componentType" : 5126,
      "count" : 118,
      "type" : "VEC4"
    },
    {
      "bufferView" : 4,
      "componentType" : 5126,
      "count" : 118,
      "type" : "VEC2"
    },
    {
      "bufferView" : 5,
      "componentType" : 5126,
      "count" : 118,
      "type" : "VEC2"
    }
  ]
}
