{
  "asset" : {
    "generator" : "UE Viewer (umodel) build 1579 based",
    "version" : "2.0"
  },
  "scene" : 0,
  "scenes" : [
    {
      "nodes" : [ 0 ]
    }
  ],
  "nodes" : [
    {
      "name" : "S_Envi_FZFBase_Wall_02s_Glass",
      "mesh" : 0
    }
  ],
  "materials" : [
    {
      "name" : "MI_PM_Glass_02n",
      "pbrMetallicRoughness" : {
        "baseColorFactor" : [ 0.3, 0.3, 0.3, 1.0 ],
        "metallicFactor" : 0.1,
        "roughnessFactor" : 0.5
      }
    }
  ],
  "meshes" : [
    {
      "primitives" : [
        {
          "attributes" : {
            "POSITION" : 1,
            "NORMAL" : 2,
            "TANGENT" : 3,
            "TEXCOORD_0" : 4,
            "TEXCOORD_1" : 5,
            "TEXCOORD_2" : 6,
            "TEXCOORD_3" : 7
          },
          "indices" : 0,
          "material" : 0
        }
      ],
      "name" : "S_Envi_FZFBase_Wall_02s_Glass"
    }
  ],
  "buffers" : [
    {
      "uri" : "S_Envi_FZFBase_Wall_02s_Glass.bin",
      "byteLength" : 6248
    }
  ],
  "bufferViews" : [
    {
      "buffer" : 0,
      "byteOffset" : 0,
      "byteLength" : 272
    },
    {
      "buffer" : 0,
      "byteOffset" : 272,
      "byteLength" : 996
    },
    {
      "buffer" : 0,
      "byteOffset" : 1268,
      "byteLength" : 996
    },
    {
      "buffer" : 0,
      "byteOffset" : 2264,
      "byteLength" : 1328
    },
    {
      "buffer" : 0,
      "byteOffset" : 3592,
      "byteLength" : 664
    },
    {
      "buffer" : 0,
      "byteOffset" : 4256,
      "byteLength" : 664
    },
    {
      "buffer" : 0,
      "byteOffset" : 4920,
      "byteLength" : 664
    },
    {
      "buffer" : 0,
      "byteOffset" : 5584,
      "byteLength" : 664
    }
  ],
  "accessors" : [
    {
      "bufferView" : 0,
      "componentType" : 5123,
      "count" : 135,
      "type" : "SCALAR"
    },
    {
      "bufferView" : 1,
      "min" : [ -1.10499, 0.187989, -1.10298 ],
      "max" : [ 3.76717, 7.91499, 21.9674 ],
      "componentType" : 5126,
      "count" : 83,
      "type" : "VEC3"
    },
    {
      "bufferView" : 2,
      "componentType" : 5126,
      "count" : 83,
      "type" : "VEC3"
    },
    {
      "bufferView" : 3,
      "componentType" : 5126,
      "count" : 83,
      "type" : "VEC4"
    },
    {
      "bufferView" : 4,
      "componentType" : 5126,
      "count" : 83,
      "type" : "VEC2"
    },
    {
      "bufferView" : 5,
      "componentType" : 5126,
      "count" : 83,
      "type" : "VEC2"
    },
    {
      "bufferView" : 6,
      "componentType" : 5126,
      "count" : 83,
      "type" : "VEC2"
    },
    {
      "bufferView" : 7,
      "componentType" : 5126,
      "count" : 83,
      "type" : "VEC2"
    }
  ]
}
