{
  "asset" : {
    "generator" : "UE Viewer (umodel) build 1579 based",
    "version" : "2.0"
  },
  "scene" : 0,
  "scenes" : [
    {
      "nodes" : [ 0 ]
    }
  ],
  "nodes" : [
    {
      "name" : "S_Envi_FZFBase_searchlight_06e",
      "mesh" : 0
    }
  ],
  "materials" : [
    {
      "name" : "MI_Envi_FZFBase_Searchlight_01c",
      "pbrMetallicRoughness" : {
        "baseColorFactor" : [ 0.3, 0.3, 0.3, 1.0 ],
        "metallicFactor" : 0.1,
        "roughnessFactor" : 0.5
      }
    }
  ],
  "meshes" : [
    {
      "primitives" : [
        {
          "attributes" : {
            "POSITION" : 1,
            "NORMAL" : 2,
            "TANGENT" : 3,
            "TEXCOORD_0" : 4,
            "TEXCOORD_1" : 5,
            "TEXCOORD_2" : 6,
            "TEXCOORD_3" : 7
          },
          "indices" : 0,
          "material" : 0
        }
      ],
      "name" : "S_Envi_FZFBase_searchlight_06e"
    }
  ],
  "buffers" : [
    {
      "uri" : "S_Envi_FZFBase_searchlight_06e.bin",
      "byteLength" : 56712
    }
  ],
  "bufferViews" : [
    {
      "buffer" : 0,
      "byteOffset" : 0,
      "byteLength" : 2784
    },
    {
      "buffer" : 0,
      "byteOffset" : 2784,
      "byteLength" : 8988
    },
    {
      "buffer" : 0,
      "byteOffset" : 11772,
      "byteLength" : 8988
    },
    {
      "buffer" : 0,
      "byteOffset" : 20760,
      "byteLength" : 11984
    },
    {
      "buffer" : 0,
      "byteOffset" : 32744,
      "byteLength" : 5992
    },
    {
      "buffer" : 0,
      "byteOffset" : 38736,
      "byteLength" : 5992
    },
    {
      "buffer" : 0,
      "byteOffset" : 44728,
      "byteLength" : 5992
    },
    {
      "buffer" : 0,
      "byteOffset" : 50720,
      "byteLength" : 5992
    }
  ],
  "accessors" : [
    {
      "bufferView" : 0,
      "componentType" : 5123,
      "count" : 1392,
      "type" : "SCALAR"
    },
    {
      "bufferView" : 1,
      "min" : [ -55.9865, -3.89926, -54.9776 ],
      "max" : [ -19.67, 1.74874, -45.9621 ],
      "componentType" : 5126,
      "count" : 749,
      "type" : "VEC3"
    },
    {
      "bufferView" : 2,
      "componentType" : 5126,
      "count" : 749,
      "type" : "VEC3"
    },
    {
      "bufferView" : 3,
      "componentType" : 5126,
      "count" : 749,
      "type" : "VEC4"
    },
    {
      "bufferView" : 4,
      "componentType" : 5126,
      "count" : 749,
      "type" : "VEC2"
    },
    {
      "bufferView" : 5,
      "componentType" : 5126,
      "count" : 749,
      "type" : "VEC2"
    },
    {
      "bufferView" : 6,
      "componentType" : 5126,
      "count" : 749,
      "type" : "VEC2"
    },
    {
      "bufferView" : 7,
      "componentType" : 5126,
      "count" : 749,
      "type" : "VEC2"
    }
  ]
}
