{
  "asset" : {
    "generator" : "UE Viewer (umodel) build 1579 based",
    "version" : "2.0"
  },
  "scene" : 0,
  "scenes" : [
    {
      "nodes" : [ 0 ]
    }
  ],
  "nodes" : [
    {
      "name" : "S_Envi_FZFBase_Door_03b",
      "mesh" : 0
    }
  ],
  "materials" : [
    {
      "name" : "MI_Envi_FZFBase_OuterDoor_01b",
      "pbrMetallicRoughness" : {
        "baseColorFactor" : [ 0.3, 0.3, 0.3, 1.0 ],
        "metallicFactor" : 0.1,
        "roughnessFactor" : 0.5
      }
    }
  ],
  "meshes" : [
    {
      "primitives" : [
        {
          "attributes" : {
            "POSITION" : 1,
            "NORMAL" : 2,
            "TANGENT" : 3,
            "TEXCOORD_0" : 4,
            "TEXCOORD_1" : 5,
            "TEXCOORD_2" : 6,
            "TEXCOORD_3" : 7
          },
          "indices" : 0,
          "material" : 0
        }
      ],
      "name" : "S_Envi_FZFBase_Door_03b"
    }
  ],
  "buffers" : [
    {
      "uri" : "S_Envi_FZFBase_Door_03b.bin",
      "byteLength" : 83532
    }
  ],
  "bufferViews" : [
    {
      "buffer" : 0,
      "byteOffset" : 0,
      "byteLength" : 6060
    },
    {
      "buffer" : 0,
      "byteOffset" : 6060,
      "byteLength" : 12912
    },
    {
      "buffer" : 0,
      "byteOffset" : 18972,
      "byteLength" : 12912
    },
    {
      "buffer" : 0,
      "byteOffset" : 31884,
      "byteLength" : 17216
    },
    {
      "buffer" : 0,
      "byteOffset" : 49100,
      "byteLength" : 8608
    },
    {
      "buffer" : 0,
      "byteOffset" : 57708,
      "byteLength" : 8608
    },
    {
      "buffer" : 0,
      "byteOffset" : 66316,
      "byteLength" : 8608
    },
    {
      "buffer" : 0,
      "byteOffset" : 74924,
      "byteLength" : 8608
    }
  ],
  "accessors" : [
    {
      "bufferView" : 0,
      "componentType" : 5123,
      "count" : 3030,
      "type" : "SCALAR"
    },
    {
      "bufferView" : 1,
      "min" : [ 0.0700021, 0.285681, -0.616476 ],
      "max" : [ 5.71423, 4.26833, 0.0681833 ],
      "componentType" : 5126,
      "count" : 1076,
      "type" : "VEC3"
    },
    {
      "bufferView" : 2,
      "componentType" : 5126,
      "count" : 1076,
      "type" : "VEC3"
    },
    {
      "bufferView" : 3,
      "componentType" : 5126,
      "count" : 1076,
      "type" : "VEC4"
    },
    {
      "bufferView" : 4,
      "componentType" : 5126,
      "count" : 1076,
      "type" : "VEC2"
    },
    {
      "bufferView" : 5,
      "componentType" : 5126,
      "count" : 1076,
      "type" : "VEC2"
    },
    {
      "bufferView" : 6,
      "componentType" : 5126,
      "count" : 1076,
      "type" : "VEC2"
    },
    {
      "bufferView" : 7,
      "componentType" : 5126,
      "count" : 1076,
      "type" : "VEC2"
    }
  ]
}
