{
  "asset" : {
    "generator" : "UE Viewer (umodel) build 1579 based",
    "version" : "2.0"
  },
  "scene" : 0,
  "scenes" : [
    {
      "nodes" : [ 0 ]
    }
  ],
  "nodes" : [
    {
      "name" : "SK_Weap_M4A1_Sight",
      "mesh" : 0,
      "skin" : 0,
      "children" : [ 1 ]
    },
    {
      "name" : "Root",
      "translation" : [ -9.15527e-07, 0, 0 ],
      "rotation" : [ 2.61803e-06, 4.99355e-12, 1.90735e-06, 1 ]
    }
  ],
  "skins" : [
    {
      "inverseBindMatrices" : 0,
      "skeleton" : 1,
      "joints" : [
        1
      ]
    }
  ],
  "materials" : [
    {
      "name" : "MI_Weap_M4A1",
      "pbrMetallicRoughness" : {
        "baseColorFactor" : [ 0.3, 0.3, 0.3, 1.0 ],
        "metallicFactor" : 0.1,
        "roughnessFactor" : 0.5
      }
    }
  ],
  "meshes" : [
    {
      "primitives" : [
        {
          "attributes" : {
            "POSITION" : 2,
            "NORMAL" : 3,
            "TANGENT" : 4,
            "JOINTS_0" : 5,
            "WEIGHTS_0" : 6,
            "TEXCOORD_0" : 7
          },
          "indices" : 1,
          "material" : 0
        }
      ],
      "name" : "SK_Weap_M4A1_Sight"
    }
  ],
  "buffers" : [
    {
      "uri" : "SK_Weap_M4A1_Sight.bin",
      "byteLength" : 268972
    }
  ],
  "bufferViews" : [
    {
      "buffer" : 0,
      "byteOffset" : 0,
      "byteLength" : 64
    },
    {
      "buffer" : 0,
      "byteOffset" : 64,
      "byteLength" : 25488
    },
    {
      "buffer" : 0,
      "byteOffset" : 25552,
      "byteLength" : 48684
    },
    {
      "buffer" : 0,
      "byteOffset" : 74236,
      "byteLength" : 48684
    },
    {
      "buffer" : 0,
      "byteOffset" : 122920,
      "byteLength" : 64912
    },
    {
      "buffer" : 0,
      "byteOffset" : 187832,
      "byteLength" : 32456
    },
    {
      "buffer" : 0,
      "byteOffset" : 220288,
      "byteLength" : 16228
    },
    {
      "buffer" : 0,
      "byteOffset" : 236516,
      "byteLength" : 32456
    }
  ],
  "accessors" : [
    {
      "bufferView" : 0,
      "componentType" : 5126,
      "count" : 1,
      "type" : "MAT4"
    },
    {
      "bufferView" : 1,
      "componentType" : 5123,
      "count" : 12744,
      "type" : "SCALAR"
    },
    {
      "bufferView" : 2,
      "min" : [ -0.0247038, -0.0379535, -0.0797146 ],
      "max" : [ 0.0247047, 0.0266556, 0.0505281 ],
      "componentType" : 5126,
      "count" : 4057,
      "type" : "VEC3"
    },
    {
      "bufferView" : 3,
      "componentType" : 5126,
      "count" : 4057,
      "type" : "VEC3"
    },
    {
      "bufferView" : 4,
      "componentType" : 5126,
      "count" : 4057,
      "type" : "VEC4"
    },
    {
      "bufferView" : 5,
      "componentType" : 5123,
      "count" : 4057,
      "type" : "VEC4"
    },
    {
      "bufferView" : 6,
      "normalized" : true,
      "componentType" : 5121,
      "count" : 4057,
      "type" : "VEC4"
    },
    {
      "bufferView" : 7,
      "componentType" : 5126,
      "count" : 4057,
      "type" : "VEC2"
    }
  ]
}
