{
  "asset" : {
    "generator" : "UE Viewer (umodel) build 1579 based",
    "version" : "2.0"
  },
  "scene" : 0,
  "scenes" : [
    {
      "nodes" : [ 0 ]
    }
  ],
  "nodes" : [
    {
      "name" : "SK_Weap_MP5_A5_Sight",
      "mesh" : 0,
      "skin" : 0,
      "children" : [ 1 ]
    },
    {
      "name" : "Root",
      "translation" : [ -1.05174e-10, 0, 0 ],
      "rotation" : [ -4.76837e-07, 1.27832e-07, -1.41792e-06, 1 ]
    }
  ],
  "skins" : [
    {
      "inverseBindMatrices" : 0,
      "skeleton" : 1,
      "joints" : [
        1
      ]
    }
  ],
  "materials" : [
    {
      "name" : "MI_Weap_MP5_A5_01",
      "pbrMetallicRoughness" : {
        "baseColorFactor" : [ 0.3, 0.3, 0.3, 1.0 ],
        "metallicFactor" : 0.1,
        "roughnessFactor" : 0.5
      }
    },
    {
      "name" : "MI_Weap_MP5_A5_03",
      "pbrMetallicRoughness" : {
        "baseColorFactor" : [ 0.9, 0.3, 0.3, 1.0 ],
        "metallicFactor" : 0.1,
        "roughnessFactor" : 0.5
      }
    }
  ],
  "meshes" : [
    {
      "primitives" : [
        {
          "attributes" : {
            "POSITION" : 2,
            "NORMAL" : 3,
            "TANGENT" : 4,
            "JOINTS_0" : 5,
            "WEIGHTS_0" : 6,
            "TEXCOORD_0" : 7
          },
          "indices" : 1,
          "material" : 0
        },
        {
          "attributes" : {
            "POSITION" : 9,
            "NORMAL" : 10,
            "TANGENT" : 11,
            "JOINTS_0" : 12,
            "WEIGHTS_0" : 13,
            "TEXCOORD_0" : 14
          },
          "indices" : 8,
          "material" : 1
        }
      ],
      "name" : "SK_Weap_MP5_A5_Sight"
    }
  ],
  "buffers" : [
    {
      "uri" : "SK_Weap_MP5_A5_Sight.bin",
      "byteLength" : 130660
    }
  ],
  "bufferViews" : [
    {
      "buffer" : 0,
      "byteOffset" : 0,
      "byteLength" : 64
    },
    {
      "buffer" : 0,
      "byteOffset" : 64,
      "byteLength" : 11892
    },
    {
      "buffer" : 0,
      "byteOffset" : 11956,
      "byteLength" : 23376
    },
    {
      "buffer" : 0,
      "byteOffset" : 35332,
      "byteLength" : 23376
    },
    {
      "buffer" : 0,
      "byteOffset" : 58708,
      "byteLength" : 31168
    },
    {
      "buffer" : 0,
      "byteOffset" : 89876,
      "byteLength" : 15584
    },
    {
      "buffer" : 0,
      "byteOffset" : 105460,
      "byteLength" : 7792
    },
    {
      "buffer" : 0,
      "byteOffset" : 113252,
      "byteLength" : 15584
    },
    {
      "buffer" : 0,
      "byteOffset" : 128836,
      "byteLength" : 144
    },
    {
      "buffer" : 0,
      "byteOffset" : 128980,
      "byteLength" : 336
    },
    {
      "buffer" : 0,
      "byteOffset" : 129316,
      "byteLength" : 336
    },
    {
      "buffer" : 0,
      "byteOffset" : 129652,
      "byteLength" : 448
    },
    {
      "buffer" : 0,
      "byteOffset" : 130100,
      "byteLength" : 224
    },
    {
      "buffer" : 0,
      "byteOffset" : 130324,
      "byteLength" : 112
    },
    {
      "buffer" : 0,
      "byteOffset" : 130436,
      "byteLength" : 224
    }
  ],
  "accessors" : [
    {
      "bufferView" : 0,
      "componentType" : 5126,
      "count" : 1,
      "type" : "MAT4"
    },
    {
      "bufferView" : 1,
      "componentType" : 5123,
      "count" : 5946,
      "type" : "SCALAR"
    },
    {
      "bufferView" : 2,
      "min" : [ -0.0187828, -0.0332804, -0.0501156 ],
      "max" : [ 0.0136434, 0.0307931, 0.0323628 ],
      "componentType" : 5126,
      "count" : 1948,
      "type" : "VEC3"
    },
    {
      "bufferView" : 3,
      "componentType" : 5126,
      "count" : 1948,
      "type" : "VEC3"
    },
    {
      "bufferView" : 4,
      "componentType" : 5126,
      "count" : 1948,
      "type" : "VEC4"
    },
    {
      "bufferView" : 5,
      "componentType" : 5123,
      "count" : 1948,
      "type" : "VEC4"
    },
    {
      "bufferView" : 6,
      "normalized" : true,
      "componentType" : 5121,
      "count" : 1948,
      "type" : "VEC4"
    },
    {
      "bufferView" : 7,
      "componentType" : 5126,
      "count" : 1948,
      "type" : "VEC2"
    },
    {
      "bufferView" : 8,
      "componentType" : 5123,
      "count" : 72,
      "type" : "SCALAR"
    },
    {
      "bufferView" : 9,
      "min" : [ -0.0131253, 0.00474285, 0.0238522 ],
      "max" : [ 0.0131244, 0.0305059, 0.0239078 ],
      "componentType" : 5126,
      "count" : 28,
      "type" : "VEC3"
    },
    {
      "bufferView" : 10,
      "componentType" : 5126,
      "count" : 28,
      "type" : "VEC3"
    },
    {
      "bufferView" : 11,
      "componentType" : 5126,
      "count" : 28,
      "type" : "VEC4"
    },
    {
      "bufferView" : 12,
      "componentType" : 5123,
      "count" : 28,
      "type" : "VEC4"
    },
    {
      "bufferView" : 13,
      "normalized" : true,
      "componentType" : 5121,
      "count" : 28,
      "type" : "VEC4"
    },
    {
      "bufferView" : 14,
      "componentType" : 5126,
      "count" : 28,
      "type" : "VEC2"
    }
  ]
}
