{
  "asset" : {
    "generator" : "UE Viewer (umodel) build 1579 based",
    "version" : "2.0"
  },
  "scene" : 0,
  "scenes" : [
    {
      "nodes" : [ 0 ]
    }
  ],
  "nodes" : [
    {
      "name" : "S_Envi_Umeda_Game_wall_01u",
      "mesh" : 0
    }
  ],
  "materials" : [
    {
      "name" : "MI_Envi_Umeda_Aspot_merge_01b",
      "pbrMetallicRoughness" : {
        "baseColorFactor" : [ 0.3, 0.3, 0.3, 1.0 ],
        "metallicFactor" : 0.1,
        "roughnessFactor" : 0.5
      }
    },
    {
      "name" : "MI_Envi_Umeda_Base_Building_01_A_07",
      "pbrMetallicRoughness" : {
        "baseColorFactor" : [ 0.9, 0.3, 0.3, 1.0 ],
        "metallicFactor" : 0.1,
        "roughnessFactor" : 0.5
      }
    },
    {
      "name" : "MI_Envi_Umeda_Prop_Frame_01",
      "pbrMetallicRoughness" : {
        "baseColorFactor" : [ 0.3, 0.9, 0.3, 1.0 ],
        "metallicFactor" : 0.1,
        "roughnessFactor" : 0.5
      }
    }
  ],
  "meshes" : [
    {
      "primitives" : [
        {
          "attributes" : {
            "POSITION" : 1,
            "NORMAL" : 2,
            "TANGENT" : 3,
            "TEXCOORD_0" : 4,
            "TEXCOORD_1" : 5,
            "TEXCOORD_2" : 6,
            "TEXCOORD_3" : 7
          },
          "indices" : 0,
          "material" : 0
        },
        {
          "attributes" : {
            "POSITION" : 9,
            "NORMAL" : 10,
            "TANGENT" : 11,
            "TEXCOORD_0" : 12,
            "TEXCOORD_1" : 13,
            "TEXCOORD_2" : 14,
            "TEXCOORD_3" : 15
          },
          "indices" : 8,
          "material" : 1
        },
        {
          "attributes" : {
            "POSITION" : 17,
            "NORMAL" : 18,
            "TANGENT" : 19,
            "TEXCOORD_0" : 20,
            "TEXCOORD_1" : 21,
            "TEXCOORD_2" : 22,
            "TEXCOORD_3" : 23
          },
          "indices" : 16,
          "material" : 2
        }
      ],
      "name" : "S_Envi_Umeda_Game_wall_01u"
    }
  ],
  "buffers" : [
    {
      "uri" : "S_Envi_Umeda_Game_wall_01u.bin",
      "byteLength" : 245352
    }
  ],
  "bufferViews" : [
    {
      "buffer" : 0,
      "byteOffset" : 0,
      "byteLength" : 2772
    },
    {
      "buffer" : 0,
      "byteOffset" : 2772,
      "byteLength" : 9576
    },
    {
      "buffer" : 0,
      "byteOffset" : 12348,
      "byteLength" : 9576
    },
    {
      "buffer" : 0,
      "byteOffset" : 21924,
      "byteLength" : 12768
    },
    {
      "buffer" : 0,
      "byteOffset" : 34692,
      "byteLength" : 6384
    },
    {
      "buffer" : 0,
      "byteOffset" : 41076,
      "byteLength" : 6384
    },
    {
      "buffer" : 0,
      "byteOffset" : 47460,
      "byteLength" : 6384
    },
    {
      "buffer" : 0,
      "byteOffset" : 53844,
      "byteLength" : 6384
    },
    {
      "buffer" : 0,
      "byteOffset" : 60228,
      "byteLength" : 156
    },
    {
      "buffer" : 0,
      "byteOffset" : 60384,
      "byteLength" : 624
    },
    {
      "buffer" : 0,
      "byteOffset" : 61008,
      "byteLength" : 624
    },
    {
      "buffer" : 0,
      "byteOffset" : 61632,
      "byteLength" : 832
    },
    {
      "buffer" : 0,
      "byteOffset" : 62464,
      "byteLength" : 416
    },
    {
      "buffer" : 0,
      "byteOffset" : 62880,
      "byteLength" : 416
    },
    {
      "buffer" : 0,
      "byteOffset" : 63296,
      "byteLength" : 416
    },
    {
      "buffer" : 0,
      "byteOffset" : 63712,
      "byteLength" : 416
    },
    {
      "buffer" : 0,
      "byteOffset" : 64128,
      "byteLength" : 8064
    },
    {
      "buffer" : 0,
      "byteOffset" : 72192,
      "byteLength" : 28860
    },
    {
      "buffer" : 0,
      "byteOffset" : 101052,
      "byteLength" : 28860
    },
    {
      "buffer" : 0,
      "byteOffset" : 129912,
      "byteLength" : 38480
    },
    {
      "buffer" : 0,
      "byteOffset" : 168392,
      "byteLength" : 19240
    },
    {
      "buffer" : 0,
      "byteOffset" : 187632,
      "byteLength" : 19240
    },
    {
      "buffer" : 0,
      "byteOffset" : 206872,
      "byteLength" : 19240
    },
    {
      "buffer" : 0,
      "byteOffset" : 226112,
      "byteLength" : 19240
    }
  ],
  "accessors" : [
    {
      "bufferView" : 0,
      "componentType" : 5123,
      "count" : 1386,
      "type" : "SCALAR"
    },
    {
      "bufferView" : 1,
      "min" : [ -10.6729, -0.0379792, -27.8119 ],
      "max" : [ 3.01225, 18.3457, 13.1195 ],
      "componentType" : 5126,
      "count" : 798,
      "type" : "VEC3"
    },
    {
      "bufferView" : 2,
      "componentType" : 5126,
      "count" : 798,
      "type" : "VEC3"
    },
    {
      "bufferView" : 3,
      "componentType" : 5126,
      "count" : 798,
      "type" : "VEC4"
    },
    {
      "bufferView" : 4,
      "componentType" : 5126,
      "count" : 798,
      "type" : "VEC2"
    },
    {
      "bufferView" : 5,
      "componentType" : 5126,
      "count" : 798,
      "type" : "VEC2"
    },
    {
      "bufferView" : 6,
      "componentType" : 5126,
      "count" : 798,
      "type" : "VEC2"
    },
    {
      "bufferView" : 7,
      "componentType" : 5126,
      "count" : 798,
      "type" : "VEC2"
    },
    {
      "bufferView" : 8,
      "componentType" : 5123,
      "count" : 78,
      "type" : "SCALAR"
    },
    {
      "bufferView" : 9,
      "min" : [ -8.59114, 5.20264, -27.8119 ],
      "max" : [ -0.987911, 14.7157, -14.1489 ],
      "componentType" : 5126,
      "count" : 52,
      "type" : "VEC3"
    },
    {
      "bufferView" : 10,
      "componentType" : 5126,
      "count" : 52,
      "type" : "VEC3"
    },
    {
      "bufferView" : 11,
      "componentType" : 5126,
      "count" : 52,
      "type" : "VEC4"
    },
    {
      "bufferView" : 12,
      "componentType" : 5126,
      "count" : 52,
      "type" : "VEC2"
    },
    {
      "bufferView" : 13,
      "componentType" : 5126,
      "count" : 52,
      "type" : "VEC2"
    },
    {
      "bufferView" : 14,
      "componentType" : 5126,
      "count" : 52,
      "type" : "VEC2"
    },
    {
      "bufferView" : 15,
      "componentType" : 5126,
      "count" : 52,
      "type" : "VEC2"
    },
    {
      "bufferView" : 16,
      "componentType" : 5123,
      "count" : 4032,
      "type" : "SCALAR"
    },
    {
      "bufferView" : 17,
      "min" : [ -10.7932, 4.84812, -28.0961 ],
      "max" : [ 3.09502, 18.4457, 13.2182 ],
      "componentType" : 5126,
      "count" : 2405,
      "type" : "VEC3"
    },
    {
      "bufferView" : 18,
      "componentType" : 5126,
      "count" : 2405,
      "type" : "VEC3"
    },
    {
      "bufferView" : 19,
      "componentType" : 5126,
      "count" : 2405,
      "type" : "VEC4"
    },
    {
      "bufferView" : 20,
      "componentType" : 5126,
      "count" : 2405,
      "type" : "VEC2"
    },
    {
      "bufferView" : 21,
      "componentType" : 5126,
      "count" : 2405,
      "type" : "VEC2"
    },
    {
      "bufferView" : 22,
      "componentType" : 5126,
      "count" : 2405,
      "type" : "VEC2"
    },
    {
      "bufferView" : 23,
      "componentType" : 5126,
      "count" : 2405,
      "type" : "VEC2"
    }
  ]
}
