{
  "asset" : {
    "generator" : "UE Viewer (umodel) build 1579 based",
    "version" : "2.0"
  },
  "scene" : 0,
  "scenes" : [
    {
      "nodes" : [ 0 ]
    }
  ],
  "nodes" : [
    {
      "name" : "S_Envi_Umeda_Module_32",
      "mesh" : 0
    }
  ],
  "materials" : [
    {
      "name" : "MI_Envi_Umeda_Module_12",
      "pbrMetallicRoughness" : {
        "baseColorFactor" : [ 0.3, 0.3, 0.3, 1.0 ],
        "metallicFactor" : 0.1,
        "roughnessFactor" : 0.5
      }
    }
  ],
  "meshes" : [
    {
      "primitives" : [
        {
          "attributes" : {
            "POSITION" : 1,
            "NORMAL" : 2,
            "TANGENT" : 3,
            "TEXCOORD_0" : 4,
            "TEXCOORD_1" : 5
          },
          "indices" : 0,
          "material" : 0
        }
      ],
      "name" : "S_Envi_Umeda_Module_32"
    }
  ],
  "buffers" : [
    {
      "uri" : "S_Envi_Umeda_Module_32.bin",
      "byteLength" : 13212
    }
  ],
  "bufferViews" : [
    {
      "buffer" : 0,
      "byteOffset" : 0,
      "byteLength" : 1452
    },
    {
      "buffer" : 0,
      "byteOffset" : 1452,
      "byteLength" : 2520
    },
    {
      "buffer" : 0,
      "byteOffset" : 3972,
      "byteLength" : 2520
    },
    {
      "buffer" : 0,
      "byteOffset" : 6492,
      "byteLength" : 3360
    },
    {
      "buffer" : 0,
      "byteOffset" : 9852,
      "byteLength" : 1680
    },
    {
      "buffer" : 0,
      "byteOffset" : 11532,
      "byteLength" : 1680
    }
  ],
  "accessors" : [
    {
      "bufferView" : 0,
      "componentType" : 5123,
      "count" : 726,
      "type" : "SCALAR"
    },
    {
      "bufferView" : 1,
      "min" : [ -0.250423, -1.90716e-09, -0.346149 ],
      "max" : [ 0.250423, 0.0738679, 0.346149 ],
      "componentType" : 5126,
      "count" : 210,
      "type" : "VEC3"
    },
    {
      "bufferView" : 2,
      "componentType" : 5126,
      "count" : 210,
      "type" : "VEC3"
    },
    {
      "bufferView" : 3,
      "componentType" : 5126,
      "count" : 210,
      "type" : "VEC4"
    },
    {
      "bufferView" : 4,
      "componentType" : 5126,
      "count" : 210,
      "type" : "VEC2"
    },
    {
      "bufferView" : 5,
      "componentType" : 5126,
      "count" : 210,
      "type" : "VEC2"
    }
  ]
}
