{
  "asset" : {
    "generator" : "UE Viewer (umodel) build 1579 based",
    "version" : "2.0"
  },
  "scene" : 0,
  "scenes" : [
    {
      "nodes" : [ 0 ]
    }
  ],
  "nodes" : [
    {
      "name" : "S_Envi_Umeda_Prop_Pipeline_02",
      "mesh" : 0
    }
  ],
  "materials" : [
    {
      "name" : "MI_Envi_Umeda_Prop_Pipeline_01",
      "pbrMetallicRoughness" : {
        "baseColorFactor" : [ 0.3, 0.3, 0.3, 1.0 ],
        "metallicFactor" : 0.1,
        "roughnessFactor" : 0.5
      }
    }
  ],
  "meshes" : [
    {
      "primitives" : [
        {
          "attributes" : {
            "POSITION" : 1,
            "NORMAL" : 2,
            "TANGENT" : 3,
            "TEXCOORD_0" : 4,
            "TEXCOORD_1" : 5,
            "TEXCOORD_2" : 6
          },
          "indices" : 0,
          "material" : 0
        }
      ],
      "name" : "S_Envi_Umeda_Prop_Pipeline_02"
    }
  ],
  "buffers" : [
    {
      "uri" : "S_Envi_Umeda_Prop_Pipeline_02.bin",
      "byteLength" : 8472
    }
  ],
  "bufferViews" : [
    {
      "buffer" : 0,
      "byteOffset" : 0,
      "byteLength" : 600
    },
    {
      "buffer" : 0,
      "byteOffset" : 600,
      "byteLength" : 1476
    },
    {
      "buffer" : 0,
      "byteOffset" : 2076,
      "byteLength" : 1476
    },
    {
      "buffer" : 0,
      "byteOffset" : 3552,
      "byteLength" : 1968
    },
    {
      "buffer" : 0,
      "byteOffset" : 5520,
      "byteLength" : 984
    },
    {
      "buffer" : 0,
      "byteOffset" : 6504,
      "byteLength" : 984
    },
    {
      "buffer" : 0,
      "byteOffset" : 7488,
      "byteLength" : 984
    }
  ],
  "accessors" : [
    {
      "bufferView" : 0,
      "componentType" : 5123,
      "count" : 300,
      "type" : "SCALAR"
    },
    {
      "bufferView" : 1,
      "min" : [ 0.0355786, -7.4552e-17, -1.27595 ],
      "max" : [ 1.2, 0.567559, 0.0584206 ],
      "componentType" : 5126,
      "count" : 123,
      "type" : "VEC3"
    },
    {
      "bufferView" : 2,
      "componentType" : 5126,
      "count" : 123,
      "type" : "VEC3"
    },
    {
      "bufferView" : 3,
      "componentType" : 5126,
      "count" : 123,
      "type" : "VEC4"
    },
    {
      "bufferView" : 4,
      "componentType" : 5126,
      "count" : 123,
      "type" : "VEC2"
    },
    {
      "bufferView" : 5,
      "componentType" : 5126,
      "count" : 123,
      "type" : "VEC2"
    },
    {
      "bufferView" : 6,
      "componentType" : 5126,
      "count" : 123,
      "type" : "VEC2"
    }
  ]
}
