{
  "asset" : {
    "generator" : "UE Viewer (umodel) build 1579 based",
    "version" : "2.0"
  },
  "scene" : 0,
  "scenes" : [
    {
      "nodes" : [ 0 ]
    }
  ],
  "nodes" : [
    {
      "name" : "S_Envi_Umeda_Game_wall_01_B",
      "mesh" : 0
    }
  ],
  "materials" : [
    {
      "name" : "MI_Envi_Umeda_Game_wall_01",
      "pbrMetallicRoughness" : {
        "baseColorFactor" : [ 0.3, 0.3, 0.3, 1.0 ],
        "metallicFactor" : 0.1,
        "roughnessFactor" : 0.5
      }
    }
  ],
  "meshes" : [
    {
      "primitives" : [
        {
          "attributes" : {
            "POSITION" : 1,
            "NORMAL" : 2,
            "TANGENT" : 3,
            "TEXCOORD_0" : 4,
            "TEXCOORD_1" : 5
          },
          "indices" : 0,
          "material" : 0
        }
      ],
      "name" : "S_Envi_Umeda_Game_wall_01_B"
    }
  ],
  "buffers" : [
    {
      "uri" : "S_Envi_Umeda_Game_wall_01_B.bin",
      "byteLength" : 15224
    }
  ],
  "bufferViews" : [
    {
      "buffer" : 0,
      "byteOffset" : 0,
      "byteLength" : 888
    },
    {
      "buffer" : 0,
      "byteOffset" : 888,
      "byteLength" : 3072
    },
    {
      "buffer" : 0,
      "byteOffset" : 3960,
      "byteLength" : 3072
    },
    {
      "buffer" : 0,
      "byteOffset" : 7032,
      "byteLength" : 4096
    },
    {
      "buffer" : 0,
      "byteOffset" : 11128,
      "byteLength" : 2048
    },
    {
      "buffer" : 0,
      "byteOffset" : 13176,
      "byteLength" : 2048
    }
  ],
  "accessors" : [
    {
      "bufferView" : 0,
      "componentType" : 5123,
      "count" : 444,
      "type" : "SCALAR"
    },
    {
      "bufferView" : 1,
      "min" : [ -0.301376, -4.4, -0.450503 ],
      "max" : [ 0.17, 3.24249e-07, 0.0208733 ],
      "componentType" : 5126,
      "count" : 256,
      "type" : "VEC3"
    },
    {
      "bufferView" : 2,
      "componentType" : 5126,
      "count" : 256,
      "type" : "VEC3"
    },
    {
      "bufferView" : 3,
      "componentType" : 5126,
      "count" : 256,
      "type" : "VEC4"
    },
    {
      "bufferView" : 4,
      "componentType" : 5126,
      "count" : 256,
      "type" : "VEC2"
    },
    {
      "bufferView" : 5,
      "componentType" : 5126,
      "count" : 256,
      "type" : "VEC2"
    }
  ]
}
