{
  "asset" : {
    "generator" : "UE Viewer (umodel) build 1579 based",
    "version" : "2.0"
  },
  "scene" : 0,
  "scenes" : [
    {
      "nodes" : [ 0 ]
    }
  ],
  "nodes" : [
    {
      "name" : "S_Envi_Umeda_Alternator_01a",
      "mesh" : 0
    }
  ],
  "materials" : [
    {
      "name" : "MI_Envi_Umeda_Prop_Frame_02",
      "pbrMetallicRoughness" : {
        "baseColorFactor" : [ 0.3, 0.3, 0.3, 1.0 ],
        "metallicFactor" : 0.1,
        "roughnessFactor" : 0.5
      }
    }
  ],
  "meshes" : [
    {
      "primitives" : [
        {
          "attributes" : {
            "POSITION" : 1,
            "NORMAL" : 2,
            "TANGENT" : 3,
            "TEXCOORD_0" : 4,
            "TEXCOORD_1" : 5
          },
          "indices" : 0,
          "material" : 0
        }
      ],
      "name" : "S_Envi_Umeda_Alternator_01a"
    }
  ],
  "buffers" : [
    {
      "uri" : "S_Envi_Umeda_Alternator_01a.bin",
      "byteLength" : 23900
    }
  ],
  "bufferViews" : [
    {
      "buffer" : 0,
      "byteOffset" : 0,
      "byteLength" : 1836
    },
    {
      "buffer" : 0,
      "byteOffset" : 1836,
      "byteLength" : 4728
    },
    {
      "buffer" : 0,
      "byteOffset" : 6564,
      "byteLength" : 4728
    },
    {
      "buffer" : 0,
      "byteOffset" : 11292,
      "byteLength" : 6304
    },
    {
      "buffer" : 0,
      "byteOffset" : 17596,
      "byteLength" : 3152
    },
    {
      "buffer" : 0,
      "byteOffset" : 20748,
      "byteLength" : 3152
    }
  ],
  "accessors" : [
    {
      "bufferView" : 0,
      "componentType" : 5123,
      "count" : 918,
      "type" : "SCALAR"
    },
    {
      "bufferView" : 1,
      "min" : [ -0.0553491, -2.47814e-06, -0 ],
      "max" : [ 0.677733, 0.66864, 0.347578 ],
      "componentType" : 5126,
      "count" : 394,
      "type" : "VEC3"
    },
    {
      "bufferView" : 2,
      "componentType" : 5126,
      "count" : 394,
      "type" : "VEC3"
    },
    {
      "bufferView" : 3,
      "componentType" : 5126,
      "count" : 394,
      "type" : "VEC4"
    },
    {
      "bufferView" : 4,
      "componentType" : 5126,
      "count" : 394,
      "type" : "VEC2"
    },
    {
      "bufferView" : 5,
      "componentType" : 5126,
      "count" : 394,
      "type" : "VEC2"
    }
  ]
}
