{
  "asset" : {
    "generator" : "UE Viewer (umodel) build 1579 based",
    "version" : "2.0"
  },
  "scene" : 0,
  "scenes" : [
    {
      "nodes" : [ 0 ]
    }
  ],
  "nodes" : [
    {
      "name" : "S_Envi_Common_Cup_01a",
      "mesh" : 0
    }
  ],
  "materials" : [
    {
      "name" : "MI_Envi_Common_Bag_01",
      "pbrMetallicRoughness" : {
        "baseColorFactor" : [ 0.3, 0.3, 0.3, 1.0 ],
        "metallicFactor" : 0.1,
        "roughnessFactor" : 0.5
      }
    }
  ],
  "meshes" : [
    {
      "primitives" : [
        {
          "attributes" : {
            "POSITION" : 1,
            "NORMAL" : 2,
            "TANGENT" : 3,
            "COLOR_0" : 4,
            "TEXCOORD_0" : 5,
            "TEXCOORD_1" : 6
          },
          "indices" : 0,
          "material" : 0
        }
      ],
      "name" : "S_Envi_Common_Cup_01a"
    }
  ],
  "buffers" : [
    {
      "uri" : "S_Envi_Common_Cup_01a.bin",
      "byteLength" : 16944
    }
  ],
  "bufferViews" : [
    {
      "buffer" : 0,
      "byteOffset" : 0,
      "byteLength" : 1644
    },
    {
      "buffer" : 0,
      "byteOffset" : 1644,
      "byteLength" : 3060
    },
    {
      "buffer" : 0,
      "byteOffset" : 4704,
      "byteLength" : 3060
    },
    {
      "buffer" : 0,
      "byteOffset" : 7764,
      "byteLength" : 4080
    },
    {
      "buffer" : 0,
      "byteOffset" : 11844,
      "byteLength" : 1020
    },
    {
      "buffer" : 0,
      "byteOffset" : 12864,
      "byteLength" : 2040
    },
    {
      "buffer" : 0,
      "byteOffset" : 14904,
      "byteLength" : 2040
    }
  ],
  "accessors" : [
    {
      "bufferView" : 0,
      "componentType" : 5123,
      "count" : 822,
      "type" : "SCALAR"
    },
    {
      "bufferView" : 1,
      "min" : [ -0.0637781, -2.94408e-18, -0.0628092 ],
      "max" : [ 0.0637781, 0.197855, 0.0628092 ],
      "componentType" : 5126,
      "count" : 255,
      "type" : "VEC3"
    },
    {
      "bufferView" : 2,
      "componentType" : 5126,
      "count" : 255,
      "type" : "VEC3"
    },
    {
      "bufferView" : 3,
      "componentType" : 5126,
      "count" : 255,
      "type" : "VEC4"
    },
    {
      "bufferView" : 4,
      "normalized" : true,
      "componentType" : 5121,
      "count" : 255,
      "type" : "VEC4"
    },
    {
      "bufferView" : 5,
      "componentType" : 5126,
      "count" : 255,
      "type" : "VEC2"
    },
    {
      "bufferView" : 6,
      "componentType" : 5126,
      "count" : 255,
      "type" : "VEC2"
    }
  ]
}
