{
  "asset" : {
    "generator" : "UE Viewer (umodel) build 1579 based",
    "version" : "2.0"
  },
  "scene" : 0,
  "scenes" : [
    {
      "nodes" : [ 0 ]
    }
  ],
  "nodes" : [
    {
      "name" : "S_Envi_common_wall_04c",
      "mesh" : 0
    }
  ],
  "materials" : [
    {
      "name" : "MI_Envi_common_wall_04",
      "pbrMetallicRoughness" : {
        "baseColorFactor" : [ 0.3, 0.3, 0.3, 1.0 ],
        "metallicFactor" : 0.1,
        "roughnessFactor" : 0.5
      }
    }
  ],
  "meshes" : [
    {
      "primitives" : [
        {
          "attributes" : {
            "POSITION" : 1,
            "NORMAL" : 2,
            "TANGENT" : 3,
            "TEXCOORD_0" : 4,
            "TEXCOORD_1" : 5
          },
          "indices" : 0,
          "material" : 0
        }
      ],
      "name" : "S_Envi_common_wall_04c"
    }
  ],
  "buffers" : [
    {
      "uri" : "S_Envi_common_wall_04c.bin",
      "byteLength" : 6728
    }
  ],
  "bufferViews" : [
    {
      "buffer" : 0,
      "byteOffset" : 0,
      "byteLength" : 456
    },
    {
      "buffer" : 0,
      "byteOffset" : 456,
      "byteLength" : 1344
    },
    {
      "buffer" : 0,
      "byteOffset" : 1800,
      "byteLength" : 1344
    },
    {
      "buffer" : 0,
      "byteOffset" : 3144,
      "byteLength" : 1792
    },
    {
      "buffer" : 0,
      "byteOffset" : 4936,
      "byteLength" : 896
    },
    {
      "buffer" : 0,
      "byteOffset" : 5832,
      "byteLength" : 896
    }
  ],
  "accessors" : [
    {
      "bufferView" : 0,
      "componentType" : 5123,
      "count" : 228,
      "type" : "SCALAR"
    },
    {
      "bufferView" : 1,
      "min" : [ -0.49787, -0.198916, -0.042173 ],
      "max" : [ 0.49787, 0.198916, 0.042168 ],
      "componentType" : 5126,
      "count" : 112,
      "type" : "VEC3"
    },
    {
      "bufferView" : 2,
      "componentType" : 5126,
      "count" : 112,
      "type" : "VEC3"
    },
    {
      "bufferView" : 3,
      "componentType" : 5126,
      "count" : 112,
      "type" : "VEC4"
    },
    {
      "bufferView" : 4,
      "componentType" : 5126,
      "count" : 112,
      "type" : "VEC2"
    },
    {
      "bufferView" : 5,
      "componentType" : 5126,
      "count" : 112,
      "type" : "VEC2"
    }
  ]
}
