{
  "asset" : {
    "generator" : "UE Viewer (umodel) build 1579 based",
    "version" : "2.0"
  },
  "scene" : 0,
  "scenes" : [
    {
      "nodes" : [ 0 ]
    }
  ],
  "nodes" : [
    {
      "name" : "S_Envi_Common_Pipeline_01a",
      "mesh" : 0
    }
  ],
  "materials" : [
    {
      "name" : "MI_Envi_Olgk_Pier_01f",
      "pbrMetallicRoughness" : {
        "baseColorFactor" : [ 0.3, 0.3, 0.3, 1.0 ],
        "metallicFactor" : 0.1,
        "roughnessFactor" : 0.5
      }
    }
  ],
  "meshes" : [
    {
      "primitives" : [
        {
          "attributes" : {
            "POSITION" : 1,
            "NORMAL" : 2,
            "TANGENT" : 3,
            "TEXCOORD_0" : 4,
            "TEXCOORD_1" : 5,
            "TEXCOORD_2" : 6
          },
          "indices" : 0,
          "material" : 0
        }
      ],
      "name" : "S_Envi_Common_Pipeline_01a"
    }
  ],
  "buffers" : [
    {
      "uri" : "S_Envi_Common_Pipeline_01a.bin",
      "byteLength" : 13936
    }
  ],
  "bufferViews" : [
    {
      "buffer" : 0,
      "byteOffset" : 0,
      "byteLength" : 624
    },
    {
      "buffer" : 0,
      "byteOffset" : 624,
      "byteLength" : 2496
    },
    {
      "buffer" : 0,
      "byteOffset" : 3120,
      "byteLength" : 2496
    },
    {
      "buffer" : 0,
      "byteOffset" : 5616,
      "byteLength" : 3328
    },
    {
      "buffer" : 0,
      "byteOffset" : 8944,
      "byteLength" : 1664
    },
    {
      "buffer" : 0,
      "byteOffset" : 10608,
      "byteLength" : 1664
    },
    {
      "buffer" : 0,
      "byteOffset" : 12272,
      "byteLength" : 1664
    }
  ],
  "accessors" : [
    {
      "bufferView" : 0,
      "componentType" : 5123,
      "count" : 312,
      "type" : "SCALAR"
    },
    {
      "bufferView" : 1,
      "min" : [ -1.50507, 0.00188812, -0.695955 ],
      "max" : [ 1.50507, 1.35152, 0.695955 ],
      "componentType" : 5126,
      "count" : 208,
      "type" : "VEC3"
    },
    {
      "bufferView" : 2,
      "componentType" : 5126,
      "count" : 208,
      "type" : "VEC3"
    },
    {
      "bufferView" : 3,
      "componentType" : 5126,
      "count" : 208,
      "type" : "VEC4"
    },
    {
      "bufferView" : 4,
      "componentType" : 5126,
      "count" : 208,
      "type" : "VEC2"
    },
    {
      "bufferView" : 5,
      "componentType" : 5126,
      "count" : 208,
      "type" : "VEC2"
    },
    {
      "bufferView" : 6,
      "componentType" : 5126,
      "count" : 208,
      "type" : "VEC2"
    }
  ]
}
