{
  "asset" : {
    "generator" : "UE Viewer (umodel) build 1579 based",
    "version" : "2.0"
  },
  "scene" : 0,
  "scenes" : [
    {
      "nodes" : [ 0 ]
    }
  ],
  "nodes" : [
    {
      "name" : "S_Envi_QYDX_SpecialCar_01a",
      "mesh" : 0
    }
  ],
  "materials" : [
    {
      "name" : "MI_Envi_QYDX_SpecialCar_01_01",
      "pbrMetallicRoughness" : {
        "baseColorFactor" : [ 0.3, 0.3, 0.3, 1.0 ],
        "metallicFactor" : 0.1,
        "roughnessFactor" : 0.5
      }
    },
    {
      "name" : "MI_PM_Glass_05b",
      "pbrMetallicRoughness" : {
        "baseColorFactor" : [ 0.9, 0.3, 0.3, 1.0 ],
        "metallicFactor" : 0.1,
        "roughnessFactor" : 0.5
      }
    }
  ],
  "meshes" : [
    {
      "primitives" : [
        {
          "attributes" : {
            "POSITION" : 1,
            "NORMAL" : 2,
            "TANGENT" : 3,
            "TEXCOORD_0" : 4,
            "TEXCOORD_1" : 5
          },
          "indices" : 0,
          "material" : 0
        },
        {
          "attributes" : {
            "POSITION" : 7,
            "NORMAL" : 8,
            "TANGENT" : 9,
            "TEXCOORD_0" : 10,
            "TEXCOORD_1" : 11
          },
          "indices" : 6,
          "material" : 1
        }
      ],
      "name" : "S_Envi_QYDX_SpecialCar_01a"
    }
  ],
  "buffers" : [
    {
      "uri" : "S_Envi_QYDX_SpecialCar_01a.bin",
      "byteLength" : 311884
    }
  ],
  "bufferViews" : [
    {
      "buffer" : 0,
      "byteOffset" : 0,
      "byteLength" : 29160
    },
    {
      "buffer" : 0,
      "byteOffset" : 29160,
      "byteLength" : 59520
    },
    {
      "buffer" : 0,
      "byteOffset" : 88680,
      "byteLength" : 59520
    },
    {
      "buffer" : 0,
      "byteOffset" : 148200,
      "byteLength" : 79360
    },
    {
      "buffer" : 0,
      "byteOffset" : 227560,
      "byteLength" : 39680
    },
    {
      "buffer" : 0,
      "byteOffset" : 267240,
      "byteLength" : 39680
    },
    {
      "buffer" : 0,
      "byteOffset" : 306920,
      "byteLength" : 372
    },
    {
      "buffer" : 0,
      "byteOffset" : 307292,
      "byteLength" : 984
    },
    {
      "buffer" : 0,
      "byteOffset" : 308276,
      "byteLength" : 984
    },
    {
      "buffer" : 0,
      "byteOffset" : 309260,
      "byteLength" : 1312
    },
    {
      "buffer" : 0,
      "byteOffset" : 310572,
      "byteLength" : 656
    },
    {
      "buffer" : 0,
      "byteOffset" : 311228,
      "byteLength" : 656
    }
  ],
  "accessors" : [
    {
      "bufferView" : 0,
      "componentType" : 5123,
      "count" : 14580,
      "type" : "SCALAR"
    },
    {
      "bufferView" : 1,
      "min" : [ -3.1287, 0.119046, -1.30455 ],
      "max" : [ 2.88054, 2.16371, 1.30455 ],
      "componentType" : 5126,
      "count" : 4960,
      "type" : "VEC3"
    },
    {
      "bufferView" : 2,
      "componentType" : 5126,
      "count" : 4960,
      "type" : "VEC3"
    },
    {
      "bufferView" : 3,
      "componentType" : 5126,
      "count" : 4960,
      "type" : "VEC4"
    },
    {
      "bufferView" : 4,
      "componentType" : 5126,
      "count" : 4960,
      "type" : "VEC2"
    },
    {
      "bufferView" : 5,
      "componentType" : 5126,
      "count" : 4960,
      "type" : "VEC2"
    },
    {
      "bufferView" : 6,
      "componentType" : 5123,
      "count" : 186,
      "type" : "SCALAR"
    },
    {
      "bufferView" : 7,
      "min" : [ -1.29757, 1.54467, -1.28841 ],
      "max" : [ 2.46297, 2.05421, 1.28841 ],
      "componentType" : 5126,
      "count" : 82,
      "type" : "VEC3"
    },
    {
      "bufferView" : 8,
      "componentType" : 5126,
      "count" : 82,
      "type" : "VEC3"
    },
    {
      "bufferView" : 9,
      "componentType" : 5126,
      "count" : 82,
      "type" : "VEC4"
    },
    {
      "bufferView" : 10,
      "componentType" : 5126,
      "count" : 82,
      "type" : "VEC2"
    },
    {
      "bufferView" : 11,
      "componentType" : 5126,
      "count" : 82,
      "type" : "VEC2"
    }
  ]
}
