{
  "asset" : {
    "generator" : "UE Viewer (umodel) build 1579 based",
    "version" : "2.0"
  },
  "scene" : 0,
  "scenes" : [
    {
      "nodes" : [ 0 ]
    }
  ],
  "nodes" : [
    {
      "name" : "S_Envi_Umeda_Prop_Frame_03",
      "mesh" : 0
    }
  ],
  "materials" : [
    {
      "name" : "MI_Envi_Umeda_Prop_Frame_01",
      "pbrMetallicRoughness" : {
        "baseColorFactor" : [ 0.3, 0.3, 0.3, 1.0 ],
        "metallicFactor" : 0.1,
        "roughnessFactor" : 0.5
      }
    }
  ],
  "meshes" : [
    {
      "primitives" : [
        {
          "attributes" : {
            "POSITION" : 1,
            "NORMAL" : 2,
            "TANGENT" : 3,
            "TEXCOORD_0" : 4,
            "TEXCOORD_1" : 5
          },
          "indices" : 0,
          "material" : 0
        }
      ],
      "name" : "S_Envi_Umeda_Prop_Frame_03"
    }
  ],
  "buffers" : [
    {
      "uri" : "S_Envi_Umeda_Prop_Frame_03.bin",
      "byteLength" : 19528
    }
  ],
  "bufferViews" : [
    {
      "buffer" : 0,
      "byteOffset" : 0,
      "byteLength" : 936
    },
    {
      "buffer" : 0,
      "byteOffset" : 936,
      "byteLength" : 3984
    },
    {
      "buffer" : 0,
      "byteOffset" : 4920,
      "byteLength" : 3984
    },
    {
      "buffer" : 0,
      "byteOffset" : 8904,
      "byteLength" : 5312
    },
    {
      "buffer" : 0,
      "byteOffset" : 14216,
      "byteLength" : 2656
    },
    {
      "buffer" : 0,
      "byteOffset" : 16872,
      "byteLength" : 2656
    }
  ],
  "accessors" : [
    {
      "bufferView" : 0,
      "componentType" : 5123,
      "count" : 468,
      "type" : "SCALAR"
    },
    {
      "bufferView" : 1,
      "min" : [ -8.49097, -5.29026, -0.028003 ],
      "max" : [ 7.32422e-06, -0.0100001, 0.26848 ],
      "componentType" : 5126,
      "count" : 332,
      "type" : "VEC3"
    },
    {
      "bufferView" : 2,
      "componentType" : 5126,
      "count" : 332,
      "type" : "VEC3"
    },
    {
      "bufferView" : 3,
      "componentType" : 5126,
      "count" : 332,
      "type" : "VEC4"
    },
    {
      "bufferView" : 4,
      "componentType" : 5126,
      "count" : 332,
      "type" : "VEC2"
    },
    {
      "bufferView" : 5,
      "componentType" : 5126,
      "count" : 332,
      "type" : "VEC2"
    }
  ]
}
