{
  "asset" : {
    "generator" : "UE Viewer (umodel) build 1579 based",
    "version" : "2.0"
  },
  "scene" : 0,
  "scenes" : [
    {
      "nodes" : [ 0 ]
    }
  ],
  "nodes" : [
    {
      "name" : "S_Envi_Umeda_case_02a",
      "mesh" : 0
    }
  ],
  "materials" : [
    {
      "name" : "MI_Envi_Umeda_case_02",
      "pbrMetallicRoughness" : {
        "baseColorFactor" : [ 0.3, 0.3, 0.3, 1.0 ],
        "metallicFactor" : 0.1,
        "roughnessFactor" : 0.5
      }
    },
    {
      "name" : "MI_PM_Glass_02i",
      "pbrMetallicRoughness" : {
        "baseColorFactor" : [ 0.9, 0.3, 0.3, 1.0 ],
        "metallicFactor" : 0.1,
        "roughnessFactor" : 0.5
      }
    }
  ],
  "meshes" : [
    {
      "primitives" : [
        {
          "attributes" : {
            "POSITION" : 1,
            "NORMAL" : 2,
            "TANGENT" : 3,
            "TEXCOORD_0" : 4,
            "TEXCOORD_1" : 5
          },
          "indices" : 0,
          "material" : 0
        },
        {
          "attributes" : {
            "POSITION" : 7,
            "NORMAL" : 8,
            "TANGENT" : 9,
            "TEXCOORD_0" : 10,
            "TEXCOORD_1" : 11
          },
          "indices" : 6,
          "material" : 1
        }
      ],
      "name" : "S_Envi_Umeda_case_02a"
    }
  ],
  "buffers" : [
    {
      "uri" : "S_Envi_Umeda_case_02a.bin",
      "byteLength" : 171772
    }
  ],
  "bufferViews" : [
    {
      "buffer" : 0,
      "byteOffset" : 0,
      "byteLength" : 12740
    },
    {
      "buffer" : 0,
      "byteOffset" : 12740,
      "byteLength" : 33876
    },
    {
      "buffer" : 0,
      "byteOffset" : 46616,
      "byteLength" : 33876
    },
    {
      "buffer" : 0,
      "byteOffset" : 80492,
      "byteLength" : 45168
    },
    {
      "buffer" : 0,
      "byteOffset" : 125660,
      "byteLength" : 22584
    },
    {
      "buffer" : 0,
      "byteOffset" : 148244,
      "byteLength" : 22584
    },
    {
      "buffer" : 0,
      "byteOffset" : 170828,
      "byteLength" : 48
    },
    {
      "buffer" : 0,
      "byteOffset" : 170876,
      "byteLength" : 192
    },
    {
      "buffer" : 0,
      "byteOffset" : 171068,
      "byteLength" : 192
    },
    {
      "buffer" : 0,
      "byteOffset" : 171260,
      "byteLength" : 256
    },
    {
      "buffer" : 0,
      "byteOffset" : 171516,
      "byteLength" : 128
    },
    {
      "buffer" : 0,
      "byteOffset" : 171644,
      "byteLength" : 128
    }
  ],
  "accessors" : [
    {
      "bufferView" : 0,
      "componentType" : 5123,
      "count" : 6369,
      "type" : "SCALAR"
    },
    {
      "bufferView" : 1,
      "min" : [ -1.00626, 0.0159659, -1.02909 ],
      "max" : [ 1.00626, 2.01594, 1.87552 ],
      "componentType" : 5126,
      "count" : 2823,
      "type" : "VEC3"
    },
    {
      "bufferView" : 2,
      "componentType" : 5126,
      "count" : 2823,
      "type" : "VEC3"
    },
    {
      "bufferView" : 3,
      "componentType" : 5126,
      "count" : 2823,
      "type" : "VEC4"
    },
    {
      "bufferView" : 4,
      "componentType" : 5126,
      "count" : 2823,
      "type" : "VEC2"
    },
    {
      "bufferView" : 5,
      "componentType" : 5126,
      "count" : 2823,
      "type" : "VEC2"
    },
    {
      "bufferView" : 6,
      "componentType" : 5123,
      "count" : 24,
      "type" : "SCALAR"
    },
    {
      "bufferView" : 7,
      "min" : [ -0.927742, 0.61141, -0.948785 ],
      "max" : [ 0.927742, 1.59241, 0.948786 ],
      "componentType" : 5126,
      "count" : 16,
      "type" : "VEC3"
    },
    {
      "bufferView" : 8,
      "componentType" : 5126,
      "count" : 16,
      "type" : "VEC3"
    },
    {
      "bufferView" : 9,
      "componentType" : 5126,
      "count" : 16,
      "type" : "VEC4"
    },
    {
      "bufferView" : 10,
      "componentType" : 5126,
      "count" : 16,
      "type" : "VEC2"
    },
    {
      "bufferView" : 11,
      "componentType" : 5126,
      "count" : 16,
      "type" : "VEC2"
    }
  ]
}
