{
  "asset" : {
    "generator" : "UE Viewer (umodel) build 1579 based",
    "version" : "2.0"
  },
  "scene" : 0,
  "scenes" : [
    {
      "nodes" : [ 0 ]
    }
  ],
  "nodes" : [
    {
      "name" : "S_Envi_Umeda_Case_03b",
      "mesh" : 0
    }
  ],
  "materials" : [
    {
      "name" : "MI_Envi_Umeda_case_01b",
      "pbrMetallicRoughness" : {
        "baseColorFactor" : [ 0.3, 0.3, 0.3, 1.0 ],
        "metallicFactor" : 0.1,
        "roughnessFactor" : 0.5
      }
    },
    {
      "name" : "M_Glass_Inst1",
      "pbrMetallicRoughness" : {
        "baseColorFactor" : [ 0.9, 0.3, 0.3, 1.0 ],
        "metallicFactor" : 0.1,
        "roughnessFactor" : 0.5
      }
    },
    {
      "name" : "MI_PM_Glass_02i",
      "pbrMetallicRoughness" : {
        "baseColorFactor" : [ 0.3, 0.9, 0.3, 1.0 ],
        "metallicFactor" : 0.1,
        "roughnessFactor" : 0.5
      }
    }
  ],
  "meshes" : [
    {
      "primitives" : [
        {
          "attributes" : {
            "POSITION" : 1,
            "NORMAL" : 2,
            "TANGENT" : 3,
            "TEXCOORD_0" : 4,
            "TEXCOORD_1" : 5
          },
          "indices" : 0,
          "material" : 0
        },
        {
          "attributes" : {
            "POSITION" : 7,
            "NORMAL" : 8,
            "TANGENT" : 9,
            "TEXCOORD_0" : 10,
            "TEXCOORD_1" : 11
          },
          "indices" : 6,
          "material" : 1
        },
        {
          "attributes" : {
            "POSITION" : 13,
            "NORMAL" : 14,
            "TANGENT" : 15,
            "TEXCOORD_0" : 16,
            "TEXCOORD_1" : 17
          },
          "indices" : 12,
          "material" : 2
        }
      ],
      "name" : "S_Envi_Umeda_Case_03b"
    }
  ],
  "buffers" : [
    {
      "uri" : "S_Envi_Umeda_Case_03b.bin",
      "byteLength" : 437236
    }
  ],
  "bufferViews" : [
    {
      "buffer" : 0,
      "byteOffset" : 0,
      "byteLength" : 27936
    },
    {
      "buffer" : 0,
      "byteOffset" : 27936,
      "byteLength" : 81756
    },
    {
      "buffer" : 0,
      "byteOffset" : 109692,
      "byteLength" : 81756
    },
    {
      "buffer" : 0,
      "byteOffset" : 191448,
      "byteLength" : 109008
    },
    {
      "buffer" : 0,
      "byteOffset" : 300456,
      "byteLength" : 54504
    },
    {
      "buffer" : 0,
      "byteOffset" : 354960,
      "byteLength" : 54504
    },
    {
      "buffer" : 0,
      "byteOffset" : 409464,
      "byteLength" : 1260
    },
    {
      "buffer" : 0,
      "byteOffset" : 410724,
      "byteLength" : 4584
    },
    {
      "buffer" : 0,
      "byteOffset" : 415308,
      "byteLength" : 4584
    },
    {
      "buffer" : 0,
      "byteOffset" : 419892,
      "byteLength" : 6112
    },
    {
      "buffer" : 0,
      "byteOffset" : 426004,
      "byteLength" : 3056
    },
    {
      "buffer" : 0,
      "byteOffset" : 429060,
      "byteLength" : 3056
    },
    {
      "buffer" : 0,
      "byteOffset" : 432116,
      "byteLength" : 192
    },
    {
      "buffer" : 0,
      "byteOffset" : 432308,
      "byteLength" : 1056
    },
    {
      "buffer" : 0,
      "byteOffset" : 433364,
      "byteLength" : 1056
    },
    {
      "buffer" : 0,
      "byteOffset" : 434420,
      "byteLength" : 1408
    },
    {
      "buffer" : 0,
      "byteOffset" : 435828,
      "byteLength" : 704
    },
    {
      "buffer" : 0,
      "byteOffset" : 436532,
      "byteLength" : 704
    }
  ],
  "accessors" : [
    {
      "bufferView" : 0,
      "componentType" : 5123,
      "count" : 13968,
      "type" : "SCALAR"
    },
    {
      "bufferView" : 1,
      "min" : [ -1.07298, -2.28428e-07, -1.06571 ],
      "max" : [ 1.07298, 2.01924, 1.06571 ],
      "componentType" : 5126,
      "count" : 6813,
      "type" : "VEC3"
    },
    {
      "bufferView" : 2,
      "componentType" : 5126,
      "count" : 6813,
      "type" : "VEC3"
    },
    {
      "bufferView" : 3,
      "componentType" : 5126,
      "count" : 6813,
      "type" : "VEC4"
    },
    {
      "bufferView" : 4,
      "componentType" : 5126,
      "count" : 6813,
      "type" : "VEC2"
    },
    {
      "bufferView" : 5,
      "componentType" : 5126,
      "count" : 6813,
      "type" : "VEC2"
    },
    {
      "bufferView" : 6,
      "componentType" : 5123,
      "count" : 630,
      "type" : "SCALAR"
    },
    {
      "bufferView" : 7,
      "min" : [ -0.751583, 0.272374, -0.552829 ],
      "max" : [ 0.746859, 1.09208, 0.552629 ],
      "componentType" : 5126,
      "count" : 382,
      "type" : "VEC3"
    },
    {
      "bufferView" : 8,
      "componentType" : 5126,
      "count" : 382,
      "type" : "VEC3"
    },
    {
      "bufferView" : 9,
      "componentType" : 5126,
      "count" : 382,
      "type" : "VEC4"
    },
    {
      "bufferView" : 10,
      "componentType" : 5126,
      "count" : 382,
      "type" : "VEC2"
    },
    {
      "bufferView" : 11,
      "componentType" : 5126,
      "count" : 382,
      "type" : "VEC2"
    },
    {
      "bufferView" : 12,
      "componentType" : 5123,
      "count" : 96,
      "type" : "SCALAR"
    },
    {
      "bufferView" : 13,
      "min" : [ -0.854916, 0.11861, -0.8466 ],
      "max" : [ 0.854916, 1.82148, 0.842682 ],
      "componentType" : 5126,
      "count" : 88,
      "type" : "VEC3"
    },
    {
      "bufferView" : 14,
      "componentType" : 5126,
      "count" : 88,
      "type" : "VEC3"
    },
    {
      "bufferView" : 15,
      "componentType" : 5126,
      "count" : 88,
      "type" : "VEC4"
    },
    {
      "bufferView" : 16,
      "componentType" : 5126,
      "count" : 88,
      "type" : "VEC2"
    },
    {
      "bufferView" : 17,
      "componentType" : 5126,
      "count" : 88,
      "type" : "VEC2"
    }
  ]
}
