{
  "asset" : {
    "generator" : "UE Viewer (umodel) build 1579 based",
    "version" : "2.0"
  },
  "scene" : 0,
  "scenes" : [
    {
      "nodes" : [ 0 ]
    }
  ],
  "nodes" : [
    {
      "name" : "S_Envi_Common_CableWires_01b",
      "mesh" : 0
    }
  ],
  "materials" : [
    {
      "name" : "MI_Envi_Common_Bag_01",
      "pbrMetallicRoughness" : {
        "baseColorFactor" : [ 0.3, 0.3, 0.3, 1.0 ],
        "metallicFactor" : 0.1,
        "roughnessFactor" : 0.5
      }
    }
  ],
  "meshes" : [
    {
      "primitives" : [
        {
          "attributes" : {
            "POSITION" : 1,
            "NORMAL" : 2,
            "TANGENT" : 3,
            "TEXCOORD_0" : 4,
            "TEXCOORD_1" : 5
          },
          "indices" : 0,
          "material" : 0
        }
      ],
      "name" : "S_Envi_Common_CableWires_01b"
    }
  ],
  "buffers" : [
    {
      "uri" : "S_Envi_Common_CableWires_01b.bin",
      "byteLength" : 29604
    }
  ],
  "bufferViews" : [
    {
      "buffer" : 0,
      "byteOffset" : 0,
      "byteLength" : 2724
    },
    {
      "buffer" : 0,
      "byteOffset" : 2724,
      "byteLength" : 5760
    },
    {
      "buffer" : 0,
      "byteOffset" : 8484,
      "byteLength" : 5760
    },
    {
      "buffer" : 0,
      "byteOffset" : 14244,
      "byteLength" : 7680
    },
    {
      "buffer" : 0,
      "byteOffset" : 21924,
      "byteLength" : 3840
    },
    {
      "buffer" : 0,
      "byteOffset" : 25764,
      "byteLength" : 3840
    }
  ],
  "accessors" : [
    {
      "bufferView" : 0,
      "componentType" : 5123,
      "count" : 1362,
      "type" : "SCALAR"
    },
    {
      "bufferView" : 1,
      "min" : [ -12.7401, -2.51493, -0.0739017 ],
      "max" : [ 0.119243, 0.102027, 0.0705671 ],
      "componentType" : 5126,
      "count" : 480,
      "type" : "VEC3"
    },
    {
      "bufferView" : 2,
      "componentType" : 5126,
      "count" : 480,
      "type" : "VEC3"
    },
    {
      "bufferView" : 3,
      "componentType" : 5126,
      "count" : 480,
      "type" : "VEC4"
    },
    {
      "bufferView" : 4,
      "componentType" : 5126,
      "count" : 480,
      "type" : "VEC2"
    },
    {
      "bufferView" : 5,
      "componentType" : 5126,
      "count" : 480,
      "type" : "VEC2"
    }
  ]
}
