{
  "asset" : {
    "generator" : "UE Viewer (umodel) build 1579 based",
    "version" : "2.0"
  },
  "scene" : 0,
  "scenes" : [
    {
      "nodes" : [ 0 ]
    }
  ],
  "nodes" : [
    {
      "name" : "S_Envi_Umeda_Prop_Platform_11e",
      "mesh" : 0
    }
  ],
  "materials" : [
    {
      "name" : "MI_Envi_Umeda_Prop_Platform_02b",
      "pbrMetallicRoughness" : {
        "baseColorFactor" : [ 0.3, 0.3, 0.3, 1.0 ],
        "metallicFactor" : 0.1,
        "roughnessFactor" : 0.5
      }
    },
    {
      "name" : "MI_Envi_Umeda_Prop_Platform_04",
      "pbrMetallicRoughness" : {
        "baseColorFactor" : [ 0.9, 0.3, 0.3, 1.0 ],
        "metallicFactor" : 0.1,
        "roughnessFactor" : 0.5
      }
    }
  ],
  "meshes" : [
    {
      "primitives" : [
        {
          "attributes" : {
            "POSITION" : 1,
            "NORMAL" : 2,
            "TANGENT" : 3,
            "TEXCOORD_0" : 4,
            "TEXCOORD_1" : 5,
            "TEXCOORD_2" : 6,
            "TEXCOORD_3" : 7
          },
          "indices" : 0,
          "material" : 0
        },
        {
          "attributes" : {
            "POSITION" : 9,
            "NORMAL" : 10,
            "TANGENT" : 11,
            "TEXCOORD_0" : 12,
            "TEXCOORD_1" : 13,
            "TEXCOORD_2" : 14,
            "TEXCOORD_3" : 15
          },
          "indices" : 8,
          "material" : 1
        }
      ],
      "name" : "S_Envi_Umeda_Prop_Platform_11e"
    }
  ],
  "buffers" : [
    {
      "uri" : "S_Envi_Umeda_Prop_Platform_11e.bin",
      "byteLength" : 14520
    }
  ],
  "bufferViews" : [
    {
      "buffer" : 0,
      "byteOffset" : 0,
      "byteLength" : 456
    },
    {
      "buffer" : 0,
      "byteOffset" : 456,
      "byteLength" : 1344
    },
    {
      "buffer" : 0,
      "byteOffset" : 1800,
      "byteLength" : 1344
    },
    {
      "buffer" : 0,
      "byteOffset" : 3144,
      "byteLength" : 1792
    },
    {
      "buffer" : 0,
      "byteOffset" : 4936,
      "byteLength" : 896
    },
    {
      "buffer" : 0,
      "byteOffset" : 5832,
      "byteLength" : 896
    },
    {
      "buffer" : 0,
      "byteOffset" : 6728,
      "byteLength" : 896
    },
    {
      "buffer" : 0,
      "byteOffset" : 7624,
      "byteLength" : 896
    },
    {
      "buffer" : 0,
      "byteOffset" : 8520,
      "byteLength" : 240
    },
    {
      "buffer" : 0,
      "byteOffset" : 8760,
      "byteLength" : 960
    },
    {
      "buffer" : 0,
      "byteOffset" : 9720,
      "byteLength" : 960
    },
    {
      "buffer" : 0,
      "byteOffset" : 10680,
      "byteLength" : 1280
    },
    {
      "buffer" : 0,
      "byteOffset" : 11960,
      "byteLength" : 640
    },
    {
      "buffer" : 0,
      "byteOffset" : 12600,
      "byteLength" : 640
    },
    {
      "buffer" : 0,
      "byteOffset" : 13240,
      "byteLength" : 640
    },
    {
      "buffer" : 0,
      "byteOffset" : 13880,
      "byteLength" : 640
    }
  ],
  "accessors" : [
    {
      "bufferView" : 0,
      "componentType" : 5123,
      "count" : 228,
      "type" : "SCALAR"
    },
    {
      "bufferView" : 1,
      "min" : [ 0.0730036, -0.0248346, -3.33761 ],
      "max" : [ 1.6018, -0.0121966, -0.068987 ],
      "componentType" : 5126,
      "count" : 112,
      "type" : "VEC3"
    },
    {
      "bufferView" : 2,
      "componentType" : 5126,
      "count" : 112,
      "type" : "VEC3"
    },
    {
      "bufferView" : 3,
      "componentType" : 5126,
      "count" : 112,
      "type" : "VEC4"
    },
    {
      "bufferView" : 4,
      "componentType" : 5126,
      "count" : 112,
      "type" : "VEC2"
    },
    {
      "bufferView" : 5,
      "componentType" : 5126,
      "count" : 112,
      "type" : "VEC2"
    },
    {
      "bufferView" : 6,
      "componentType" : 5126,
      "count" : 112,
      "type" : "VEC2"
    },
    {
      "bufferView" : 7,
      "componentType" : 5126,
      "count" : 112,
      "type" : "VEC2"
    },
    {
      "bufferView" : 8,
      "componentType" : 5123,
      "count" : 120,
      "type" : "SCALAR"
    },
    {
      "bufferView" : 9,
      "min" : [ -2.73718e-07, -0.0744778, -3.40955 ],
      "max" : [ 1.675, -1.82901e-07, 1.52588e-06 ],
      "componentType" : 5126,
      "count" : 80,
      "type" : "VEC3"
    },
    {
      "bufferView" : 10,
      "componentType" : 5126,
      "count" : 80,
      "type" : "VEC3"
    },
    {
      "bufferView" : 11,
      "componentType" : 5126,
      "count" : 80,
      "type" : "VEC4"
    },
    {
      "bufferView" : 12,
      "componentType" : 5126,
      "count" : 80,
      "type" : "VEC2"
    },
    {
      "bufferView" : 13,
      "componentType" : 5126,
      "count" : 80,
      "type" : "VEC2"
    },
    {
      "bufferView" : 14,
      "componentType" : 5126,
      "count" : 80,
      "type" : "VEC2"
    },
    {
      "bufferView" : 15,
      "componentType" : 5126,
      "count" : 80,
      "type" : "VEC2"
    }
  ]
}
