{
  "asset" : {
    "generator" : "UE Viewer (umodel) build 1579 based",
    "version" : "2.0"
  },
  "scene" : 0,
  "scenes" : [
    {
      "nodes" : [ 0 ]
    }
  ],
  "nodes" : [
    {
      "name" : "S_Envi_common_ceiling_01f",
      "mesh" : 0
    }
  ],
  "materials" : [
    {
      "name" : "MI_Envi_common_ceiling_01a",
      "pbrMetallicRoughness" : {
        "baseColorFactor" : [ 0.3, 0.3, 0.3, 1.0 ],
        "metallicFactor" : 0.1,
        "roughnessFactor" : 0.5
      }
    }
  ],
  "meshes" : [
    {
      "primitives" : [
        {
          "attributes" : {
            "POSITION" : 1,
            "NORMAL" : 2,
            "TANGENT" : 3,
            "TEXCOORD_0" : 4,
            "TEXCOORD_1" : 5,
            "TEXCOORD_2" : 6
          },
          "indices" : 0,
          "material" : 0
        }
      ],
      "name" : "S_Envi_common_ceiling_01f"
    }
  ],
  "buffers" : [
    {
      "uri" : "S_Envi_common_ceiling_01f.bin",
      "byteLength" : 6948
    }
  ],
  "bufferViews" : [
    {
      "buffer" : 0,
      "byteOffset" : 0,
      "byteLength" : 548
    },
    {
      "buffer" : 0,
      "byteOffset" : 548,
      "byteLength" : 1200
    },
    {
      "buffer" : 0,
      "byteOffset" : 1748,
      "byteLength" : 1200
    },
    {
      "buffer" : 0,
      "byteOffset" : 2948,
      "byteLength" : 1600
    },
    {
      "buffer" : 0,
      "byteOffset" : 4548,
      "byteLength" : 800
    },
    {
      "buffer" : 0,
      "byteOffset" : 5348,
      "byteLength" : 800
    },
    {
      "buffer" : 0,
      "byteOffset" : 6148,
      "byteLength" : 800
    }
  ],
  "accessors" : [
    {
      "bufferView" : 0,
      "componentType" : 5123,
      "count" : 273,
      "type" : "SCALAR"
    },
    {
      "bufferView" : 1,
      "min" : [ -2, -9.09495e-14, -7.27596e-14 ],
      "max" : [ 0, 0.500002, 0.0373867 ],
      "componentType" : 5126,
      "count" : 100,
      "type" : "VEC3"
    },
    {
      "bufferView" : 2,
      "componentType" : 5126,
      "count" : 100,
      "type" : "VEC3"
    },
    {
      "bufferView" : 3,
      "componentType" : 5126,
      "count" : 100,
      "type" : "VEC4"
    },
    {
      "bufferView" : 4,
      "componentType" : 5126,
      "count" : 100,
      "type" : "VEC2"
    },
    {
      "bufferView" : 5,
      "componentType" : 5126,
      "count" : 100,
      "type" : "VEC2"
    },
    {
      "bufferView" : 6,
      "componentType" : 5126,
      "count" : 100,
      "type" : "VEC2"
    }
  ]
}
