{
  "asset" : {
    "generator" : "UE Viewer (umodel) build 1579 based",
    "version" : "2.0"
  },
  "scene" : 0,
  "scenes" : [
    {
      "nodes" : [ 0 ]
    }
  ],
  "nodes" : [
    {
      "name" : "S_Envi_Common_board_01a",
      "mesh" : 0
    }
  ],
  "materials" : [
    {
      "name" : "MI_Envi_Common_board_02a",
      "pbrMetallicRoughness" : {
        "baseColorFactor" : [ 0.3, 0.3, 0.3, 1.0 ],
        "metallicFactor" : 0.1,
        "roughnessFactor" : 0.5
      }
    }
  ],
  "meshes" : [
    {
      "primitives" : [
        {
          "attributes" : {
            "POSITION" : 1,
            "NORMAL" : 2,
            "TANGENT" : 3,
            "TEXCOORD_0" : 4
          },
          "indices" : 0,
          "material" : 0
        }
      ],
      "name" : "S_Envi_Common_board_01a"
    }
  ],
  "buffers" : [
    {
      "uri" : "S_Envi_Common_board_01a.bin",
      "byteLength" : 83304
    }
  ],
  "bufferViews" : [
    {
      "buffer" : 0,
      "byteOffset" : 0,
      "byteLength" : 13608
    },
    {
      "buffer" : 0,
      "byteOffset" : 13608,
      "byteLength" : 17424
    },
    {
      "buffer" : 0,
      "byteOffset" : 31032,
      "byteLength" : 17424
    },
    {
      "buffer" : 0,
      "byteOffset" : 48456,
      "byteLength" : 23232
    },
    {
      "buffer" : 0,
      "byteOffset" : 71688,
      "byteLength" : 11616
    }
  ],
  "accessors" : [
    {
      "bufferView" : 0,
      "componentType" : 5123,
      "count" : 6804,
      "type" : "SCALAR"
    },
    {
      "bufferView" : 1,
      "min" : [ -0.999608, -1.35231e-18, -0.0254082 ],
      "max" : [ 0.999608, 2.40732, 0.0254082 ],
      "componentType" : 5126,
      "count" : 1452,
      "type" : "VEC3"
    },
    {
      "bufferView" : 2,
      "componentType" : 5126,
      "count" : 1452,
      "type" : "VEC3"
    },
    {
      "bufferView" : 3,
      "componentType" : 5126,
      "count" : 1452,
      "type" : "VEC4"
    },
    {
      "bufferView" : 4,
      "componentType" : 5126,
      "count" : 1452,
      "type" : "VEC2"
    }
  ]
}
