{
  "asset" : {
    "generator" : "UE Viewer (umodel) build 1579 based",
    "version" : "2.0"
  },
  "scene" : 0,
  "scenes" : [
    {
      "nodes" : [ 0 ]
    }
  ],
  "nodes" : [
    {
      "name" : "S_Envi_Umeda_Module_12d",
      "mesh" : 0
    }
  ],
  "materials" : [
    {
      "name" : "MI_Envi_Umeda_Module_12",
      "pbrMetallicRoughness" : {
        "baseColorFactor" : [ 0.3, 0.3, 0.3, 1.0 ],
        "metallicFactor" : 0.1,
        "roughnessFactor" : 0.5
      }
    }
  ],
  "meshes" : [
    {
      "primitives" : [
        {
          "attributes" : {
            "POSITION" : 1,
            "NORMAL" : 2,
            "TANGENT" : 3,
            "TEXCOORD_0" : 4,
            "TEXCOORD_1" : 5
          },
          "indices" : 0,
          "material" : 0
        }
      ],
      "name" : "S_Envi_Umeda_Module_12d"
    }
  ],
  "buffers" : [
    {
      "uri" : "S_Envi_Umeda_Module_12d.bin",
      "byteLength" : 21536
    }
  ],
  "bufferViews" : [
    {
      "buffer" : 0,
      "byteOffset" : 0,
      "byteLength" : 2496
    },
    {
      "buffer" : 0,
      "byteOffset" : 2496,
      "byteLength" : 4080
    },
    {
      "buffer" : 0,
      "byteOffset" : 6576,
      "byteLength" : 4080
    },
    {
      "buffer" : 0,
      "byteOffset" : 10656,
      "byteLength" : 5440
    },
    {
      "buffer" : 0,
      "byteOffset" : 16096,
      "byteLength" : 2720
    },
    {
      "buffer" : 0,
      "byteOffset" : 18816,
      "byteLength" : 2720
    }
  ],
  "accessors" : [
    {
      "bufferView" : 0,
      "componentType" : 5123,
      "count" : 1248,
      "type" : "SCALAR"
    },
    {
      "bufferView" : 1,
      "min" : [ -0.287823, -0.287824, -1.009 ],
      "max" : [ 0.721179, 0.287824, -0 ],
      "componentType" : 5126,
      "count" : 340,
      "type" : "VEC3"
    },
    {
      "bufferView" : 2,
      "componentType" : 5126,
      "count" : 340,
      "type" : "VEC3"
    },
    {
      "bufferView" : 3,
      "componentType" : 5126,
      "count" : 340,
      "type" : "VEC4"
    },
    {
      "bufferView" : 4,
      "componentType" : 5126,
      "count" : 340,
      "type" : "VEC2"
    },
    {
      "bufferView" : 5,
      "componentType" : 5126,
      "count" : 340,
      "type" : "VEC2"
    }
  ]
}
