{
  "asset" : {
    "generator" : "UE Viewer (umodel) build 1579 based",
    "version" : "2.0"
  },
  "scene" : 0,
  "scenes" : [
    {
      "nodes" : [ 0 ]
    }
  ],
  "nodes" : [
    {
      "name" : "S_Envi_Umeda_Common_electricbox_01_B",
      "mesh" : 0
    }
  ],
  "materials" : [
    {
      "name" : "MI_Envi_Umeda_Common_electricbox_01",
      "pbrMetallicRoughness" : {
        "baseColorFactor" : [ 0.3, 0.3, 0.3, 1.0 ],
        "metallicFactor" : 0.1,
        "roughnessFactor" : 0.5
      }
    },
    {
      "name" : "MI_PM_Glass_02i",
      "pbrMetallicRoughness" : {
        "baseColorFactor" : [ 0.9, 0.3, 0.3, 1.0 ],
        "metallicFactor" : 0.1,
        "roughnessFactor" : 0.5
      }
    }
  ],
  "meshes" : [
    {
      "primitives" : [
        {
          "attributes" : {
            "POSITION" : 1,
            "NORMAL" : 2,
            "TANGENT" : 3,
            "TEXCOORD_0" : 4,
            "TEXCOORD_1" : 5
          },
          "indices" : 0,
          "material" : 0
        },
        {
          "attributes" : {
            "POSITION" : 7,
            "NORMAL" : 8,
            "TANGENT" : 9,
            "TEXCOORD_0" : 10,
            "TEXCOORD_1" : 11
          },
          "indices" : 6,
          "material" : 1
        }
      ],
      "name" : "S_Envi_Umeda_Common_electricbox_01_B"
    }
  ],
  "buffers" : [
    {
      "uri" : "S_Envi_Umeda_Common_electricbox_01_B.bin",
      "byteLength" : 10876
    }
  ],
  "bufferViews" : [
    {
      "buffer" : 0,
      "byteOffset" : 0,
      "byteLength" : 648
    },
    {
      "buffer" : 0,
      "byteOffset" : 648,
      "byteLength" : 2040
    },
    {
      "buffer" : 0,
      "byteOffset" : 2688,
      "byteLength" : 2040
    },
    {
      "buffer" : 0,
      "byteOffset" : 4728,
      "byteLength" : 2720
    },
    {
      "buffer" : 0,
      "byteOffset" : 7448,
      "byteLength" : 1360
    },
    {
      "buffer" : 0,
      "byteOffset" : 8808,
      "byteLength" : 1360
    },
    {
      "buffer" : 0,
      "byteOffset" : 10168,
      "byteLength" : 36
    },
    {
      "buffer" : 0,
      "byteOffset" : 10204,
      "byteLength" : 144
    },
    {
      "buffer" : 0,
      "byteOffset" : 10348,
      "byteLength" : 144
    },
    {
      "buffer" : 0,
      "byteOffset" : 10492,
      "byteLength" : 192
    },
    {
      "buffer" : 0,
      "byteOffset" : 10684,
      "byteLength" : 96
    },
    {
      "buffer" : 0,
      "byteOffset" : 10780,
      "byteLength" : 96
    }
  ],
  "accessors" : [
    {
      "bufferView" : 0,
      "componentType" : 5123,
      "count" : 324,
      "type" : "SCALAR"
    },
    {
      "bufferView" : 1,
      "min" : [ -3.8147e-06, -0.000476837, -3.05176e-07 ],
      "max" : [ 2.00108, 3.99765, 0.176518 ],
      "componentType" : 5126,
      "count" : 170,
      "type" : "VEC3"
    },
    {
      "bufferView" : 2,
      "componentType" : 5126,
      "count" : 170,
      "type" : "VEC3"
    },
    {
      "bufferView" : 3,
      "componentType" : 5126,
      "count" : 170,
      "type" : "VEC4"
    },
    {
      "bufferView" : 4,
      "componentType" : 5126,
      "count" : 170,
      "type" : "VEC2"
    },
    {
      "bufferView" : 5,
      "componentType" : 5126,
      "count" : 170,
      "type" : "VEC2"
    },
    {
      "bufferView" : 6,
      "componentType" : 5123,
      "count" : 18,
      "type" : "SCALAR"
    },
    {
      "bufferView" : 7,
      "min" : [ 0.0961653, 1.26446, 0.132209 ],
      "max" : [ 1.8895, 3.47784, 0.132213 ],
      "componentType" : 5126,
      "count" : 12,
      "type" : "VEC3"
    },
    {
      "bufferView" : 8,
      "componentType" : 5126,
      "count" : 12,
      "type" : "VEC3"
    },
    {
      "bufferView" : 9,
      "componentType" : 5126,
      "count" : 12,
      "type" : "VEC4"
    },
    {
      "bufferView" : 10,
      "componentType" : 5126,
      "count" : 12,
      "type" : "VEC2"
    },
    {
      "bufferView" : 11,
      "componentType" : 5126,
      "count" : 12,
      "type" : "VEC2"
    }
  ]
}
