{
  "asset" : {
    "generator" : "UE Viewer (umodel) build 1579 based",
    "version" : "2.0"
  },
  "scene" : 0,
  "scenes" : [
    {
      "nodes" : [ 0 ]
    }
  ],
  "nodes" : [
    {
      "name" : "S_Envi_Common_Cardboard_01b",
      "mesh" : 0
    }
  ],
  "materials" : [
    {
      "name" : "MI_Envi_Common_Cardboard_01",
      "pbrMetallicRoughness" : {
        "baseColorFactor" : [ 0.3, 0.3, 0.3, 1.0 ],
        "metallicFactor" : 0.1,
        "roughnessFactor" : 0.5
      }
    }
  ],
  "meshes" : [
    {
      "primitives" : [
        {
          "attributes" : {
            "POSITION" : 1,
            "NORMAL" : 2,
            "TANGENT" : 3,
            "TEXCOORD_0" : 4,
            "TEXCOORD_1" : 5
          },
          "indices" : 0,
          "material" : 0
        }
      ],
      "name" : "S_Envi_Common_Cardboard_01b"
    }
  ],
  "buffers" : [
    {
      "uri" : "S_Envi_Common_Cardboard_01b.bin",
      "byteLength" : 20752
    }
  ],
  "bufferViews" : [
    {
      "buffer" : 0,
      "byteOffset" : 0,
      "byteLength" : 1824
    },
    {
      "buffer" : 0,
      "byteOffset" : 1824,
      "byteLength" : 4056
    },
    {
      "buffer" : 0,
      "byteOffset" : 5880,
      "byteLength" : 4056
    },
    {
      "buffer" : 0,
      "byteOffset" : 9936,
      "byteLength" : 5408
    },
    {
      "buffer" : 0,
      "byteOffset" : 15344,
      "byteLength" : 2704
    },
    {
      "buffer" : 0,
      "byteOffset" : 18048,
      "byteLength" : 2704
    }
  ],
  "accessors" : [
    {
      "bufferView" : 0,
      "componentType" : 5123,
      "count" : 912,
      "type" : "SCALAR"
    },
    {
      "bufferView" : 1,
      "min" : [ -0.403859, -0.00392817, -0.404038 ],
      "max" : [ 0.404038, 0.69845, 0.403859 ],
      "componentType" : 5126,
      "count" : 338,
      "type" : "VEC3"
    },
    {
      "bufferView" : 2,
      "componentType" : 5126,
      "count" : 338,
      "type" : "VEC3"
    },
    {
      "bufferView" : 3,
      "componentType" : 5126,
      "count" : 338,
      "type" : "VEC4"
    },
    {
      "bufferView" : 4,
      "componentType" : 5126,
      "count" : 338,
      "type" : "VEC2"
    },
    {
      "bufferView" : 5,
      "componentType" : 5126,
      "count" : 338,
      "type" : "VEC2"
    }
  ]
}
