{
  "asset" : {
    "generator" : "UE Viewer (umodel) build 1579 based",
    "version" : "2.0"
  },
  "scene" : 0,
  "scenes" : [
    {
      "nodes" : [ 0 ]
    }
  ],
  "nodes" : [
    {
      "name" : "S_Envi_Umeda_Module_18",
      "mesh" : 0
    }
  ],
  "materials" : [
    {
      "name" : "MI_Envi_Umeda_Module_03_A",
      "pbrMetallicRoughness" : {
        "baseColorFactor" : [ 0.3, 0.3, 0.3, 1.0 ],
        "metallicFactor" : 0.1,
        "roughnessFactor" : 0.5
      }
    },
    {
      "name" : "MI_Wall_Metallic_06_B",
      "pbrMetallicRoughness" : {
        "baseColorFactor" : [ 0.9, 0.3, 0.3, 1.0 ],
        "metallicFactor" : 0.1,
        "roughnessFactor" : 0.5
      }
    }
  ],
  "meshes" : [
    {
      "primitives" : [
        {
          "attributes" : {
            "POSITION" : 1,
            "NORMAL" : 2,
            "TANGENT" : 3,
            "TEXCOORD_0" : 4,
            "TEXCOORD_1" : 5
          },
          "indices" : 0,
          "material" : 0
        },
        {
          "attributes" : {
            "POSITION" : 7,
            "NORMAL" : 8,
            "TANGENT" : 9,
            "TEXCOORD_0" : 10,
            "TEXCOORD_1" : 11
          },
          "indices" : 6,
          "material" : 1
        }
      ],
      "name" : "S_Envi_Umeda_Module_18"
    }
  ],
  "buffers" : [
    {
      "uri" : "S_Envi_Umeda_Module_18.bin",
      "byteLength" : 44156
    }
  ],
  "bufferViews" : [
    {
      "buffer" : 0,
      "byteOffset" : 0,
      "byteLength" : 5532
    },
    {
      "buffer" : 0,
      "byteOffset" : 5532,
      "byteLength" : 7944
    },
    {
      "buffer" : 0,
      "byteOffset" : 13476,
      "byteLength" : 7944
    },
    {
      "buffer" : 0,
      "byteOffset" : 21420,
      "byteLength" : 10592
    },
    {
      "buffer" : 0,
      "byteOffset" : 32012,
      "byteLength" : 5296
    },
    {
      "buffer" : 0,
      "byteOffset" : 37308,
      "byteLength" : 5296
    },
    {
      "buffer" : 0,
      "byteOffset" : 42604,
      "byteLength" : 96
    },
    {
      "buffer" : 0,
      "byteOffset" : 42700,
      "byteLength" : 312
    },
    {
      "buffer" : 0,
      "byteOffset" : 43012,
      "byteLength" : 312
    },
    {
      "buffer" : 0,
      "byteOffset" : 43324,
      "byteLength" : 416
    },
    {
      "buffer" : 0,
      "byteOffset" : 43740,
      "byteLength" : 208
    },
    {
      "buffer" : 0,
      "byteOffset" : 43948,
      "byteLength" : 208
    }
  ],
  "accessors" : [
    {
      "bufferView" : 0,
      "componentType" : 5123,
      "count" : 2766,
      "type" : "SCALAR"
    },
    {
      "bufferView" : 1,
      "min" : [ -0.0582879, -1.56607e-08, -4.05829 ],
      "max" : [ 0.0582879, 1.04892, 0.0582879 ],
      "componentType" : 5126,
      "count" : 662,
      "type" : "VEC3"
    },
    {
      "bufferView" : 2,
      "componentType" : 5126,
      "count" : 662,
      "type" : "VEC3"
    },
    {
      "bufferView" : 3,
      "componentType" : 5126,
      "count" : 662,
      "type" : "VEC4"
    },
    {
      "bufferView" : 4,
      "componentType" : 5126,
      "count" : 662,
      "type" : "VEC2"
    },
    {
      "bufferView" : 5,
      "componentType" : 5126,
      "count" : 662,
      "type" : "VEC2"
    },
    {
      "bufferView" : 6,
      "componentType" : 5123,
      "count" : 48,
      "type" : "SCALAR"
    },
    {
      "bufferView" : 7,
      "min" : [ -0.0157651, 0.606636, -4 ],
      "max" : [ 0.0157651, 0.698698, -3.71458e-17 ],
      "componentType" : 5126,
      "count" : 26,
      "type" : "VEC3"
    },
    {
      "bufferView" : 8,
      "componentType" : 5126,
      "count" : 26,
      "type" : "VEC3"
    },
    {
      "bufferView" : 9,
      "componentType" : 5126,
      "count" : 26,
      "type" : "VEC4"
    },
    {
      "bufferView" : 10,
      "componentType" : 5126,
      "count" : 26,
      "type" : "VEC2"
    },
    {
      "bufferView" : 11,
      "componentType" : 5126,
      "count" : 26,
      "type" : "VEC2"
    }
  ]
}
