{
  "asset" : {
    "generator" : "UE Viewer (umodel) build 1579 based",
    "version" : "2.0"
  },
  "scene" : 0,
  "scenes" : [
    {
      "nodes" : [ 0 ]
    }
  ],
  "nodes" : [
    {
      "name" : "S_Envi_Umeda_Burner_01a",
      "mesh" : 0
    }
  ],
  "materials" : [
    {
      "name" : "MI_Envi_Umeda_Burner_01a",
      "pbrMetallicRoughness" : {
        "baseColorFactor" : [ 0.3, 0.3, 0.3, 1.0 ],
        "metallicFactor" : 0.1,
        "roughnessFactor" : 0.5
      }
    }
  ],
  "meshes" : [
    {
      "primitives" : [
        {
          "attributes" : {
            "POSITION" : 1,
            "NORMAL" : 2,
            "TANGENT" : 3,
            "TEXCOORD_0" : 4,
            "TEXCOORD_1" : 5
          },
          "indices" : 0,
          "material" : 0
        }
      ],
      "name" : "S_Envi_Umeda_Burner_01a"
    }
  ],
  "buffers" : [
    {
      "uri" : "S_Envi_Umeda_Burner_01a.bin",
      "byteLength" : 66200
    }
  ],
  "bufferViews" : [
    {
      "buffer" : 0,
      "byteOffset" : 0,
      "byteLength" : 5832
    },
    {
      "buffer" : 0,
      "byteOffset" : 5832,
      "byteLength" : 12936
    },
    {
      "buffer" : 0,
      "byteOffset" : 18768,
      "byteLength" : 12936
    },
    {
      "buffer" : 0,
      "byteOffset" : 31704,
      "byteLength" : 17248
    },
    {
      "buffer" : 0,
      "byteOffset" : 48952,
      "byteLength" : 8624
    },
    {
      "buffer" : 0,
      "byteOffset" : 57576,
      "byteLength" : 8624
    }
  ],
  "accessors" : [
    {
      "bufferView" : 0,
      "componentType" : 5123,
      "count" : 2916,
      "type" : "SCALAR"
    },
    {
      "bufferView" : 1,
      "min" : [ -0.312823, -1.79359, -0.330647 ],
      "max" : [ 0.332063, 0.00235192, 0.330647 ],
      "componentType" : 5126,
      "count" : 1078,
      "type" : "VEC3"
    },
    {
      "bufferView" : 2,
      "componentType" : 5126,
      "count" : 1078,
      "type" : "VEC3"
    },
    {
      "bufferView" : 3,
      "componentType" : 5126,
      "count" : 1078,
      "type" : "VEC4"
    },
    {
      "bufferView" : 4,
      "componentType" : 5126,
      "count" : 1078,
      "type" : "VEC2"
    },
    {
      "bufferView" : 5,
      "componentType" : 5126,
      "count" : 1078,
      "type" : "VEC2"
    }
  ]
}
