{
  "asset" : {
    "generator" : "UE Viewer (umodel) build 1579 based",
    "version" : "2.0"
  },
  "scene" : 0,
  "scenes" : [
    {
      "nodes" : [ 0 ]
    }
  ],
  "nodes" : [
    {
      "name" : "S_Envi_Umeda_Game_wall_01k",
      "mesh" : 0
    }
  ],
  "materials" : [
    {
      "name" : "MI_Envi_Umeda_Aspot_merge_01b",
      "pbrMetallicRoughness" : {
        "baseColorFactor" : [ 0.3, 0.3, 0.3, 1.0 ],
        "metallicFactor" : 0.1,
        "roughnessFactor" : 0.5
      }
    }
  ],
  "meshes" : [
    {
      "primitives" : [
        {
          "attributes" : {
            "POSITION" : 1,
            "NORMAL" : 2,
            "TANGENT" : 3,
            "TEXCOORD_0" : 4,
            "TEXCOORD_1" : 5,
            "TEXCOORD_2" : 6,
            "TEXCOORD_3" : 7
          },
          "indices" : 0,
          "material" : 0
        }
      ],
      "name" : "S_Envi_Umeda_Game_wall_01k"
    }
  ],
  "buffers" : [
    {
      "uri" : "S_Envi_Umeda_Game_wall_01k.bin",
      "byteLength" : 185472
    }
  ],
  "bufferViews" : [
    {
      "buffer" : 0,
      "byteOffset" : 0,
      "byteLength" : 9936
    },
    {
      "buffer" : 0,
      "byteOffset" : 9936,
      "byteLength" : 29256
    },
    {
      "buffer" : 0,
      "byteOffset" : 39192,
      "byteLength" : 29256
    },
    {
      "buffer" : 0,
      "byteOffset" : 68448,
      "byteLength" : 39008
    },
    {
      "buffer" : 0,
      "byteOffset" : 107456,
      "byteLength" : 19504
    },
    {
      "buffer" : 0,
      "byteOffset" : 126960,
      "byteLength" : 19504
    },
    {
      "buffer" : 0,
      "byteOffset" : 146464,
      "byteLength" : 19504
    },
    {
      "buffer" : 0,
      "byteOffset" : 165968,
      "byteLength" : 19504
    }
  ],
  "accessors" : [
    {
      "bufferView" : 0,
      "componentType" : 5123,
      "count" : 4968,
      "type" : "SCALAR"
    },
    {
      "bufferView" : 1,
      "min" : [ -40.3874, 3.79303, 18.8348 ],
      "max" : [ -37.6512, 11.7446, 26.5423 ],
      "componentType" : 5126,
      "count" : 2438,
      "type" : "VEC3"
    },
    {
      "bufferView" : 2,
      "componentType" : 5126,
      "count" : 2438,
      "type" : "VEC3"
    },
    {
      "bufferView" : 3,
      "componentType" : 5126,
      "count" : 2438,
      "type" : "VEC4"
    },
    {
      "bufferView" : 4,
      "componentType" : 5126,
      "count" : 2438,
      "type" : "VEC2"
    },
    {
      "bufferView" : 5,
      "componentType" : 5126,
      "count" : 2438,
      "type" : "VEC2"
    },
    {
      "bufferView" : 6,
      "componentType" : 5126,
      "count" : 2438,
      "type" : "VEC2"
    },
    {
      "bufferView" : 7,
      "componentType" : 5126,
      "count" : 2438,
      "type" : "VEC2"
    }
  ]
}
