{
  "asset" : {
    "generator" : "UE Viewer (umodel) build 1579 based",
    "version" : "2.0"
  },
  "scene" : 0,
  "scenes" : [
    {
      "nodes" : [ 0 ]
    }
  ],
  "nodes" : [
    {
      "name" : "S_Envi_Common_Component_01n",
      "mesh" : 0
    }
  ],
  "materials" : [
    {
      "name" : "MI_Envi_Olgk_Pier_01d",
      "pbrMetallicRoughness" : {
        "baseColorFactor" : [ 0.3, 0.3, 0.3, 1.0 ],
        "metallicFactor" : 0.1,
        "roughnessFactor" : 0.5
      }
    }
  ],
  "meshes" : [
    {
      "primitives" : [
        {
          "attributes" : {
            "POSITION" : 1,
            "NORMAL" : 2,
            "TANGENT" : 3,
            "TEXCOORD_0" : 4,
            "TEXCOORD_1" : 5
          },
          "indices" : 0,
          "material" : 0
        }
      ],
      "name" : "S_Envi_Common_Component_01n"
    }
  ],
  "buffers" : [
    {
      "uri" : "S_Envi_Common_Component_01n.bin",
      "byteLength" : 32312
    }
  ],
  "bufferViews" : [
    {
      "buffer" : 0,
      "byteOffset" : 0,
      "byteLength" : 1848
    },
    {
      "buffer" : 0,
      "byteOffset" : 1848,
      "byteLength" : 6528
    },
    {
      "buffer" : 0,
      "byteOffset" : 8376,
      "byteLength" : 6528
    },
    {
      "buffer" : 0,
      "byteOffset" : 14904,
      "byteLength" : 8704
    },
    {
      "buffer" : 0,
      "byteOffset" : 23608,
      "byteLength" : 4352
    },
    {
      "buffer" : 0,
      "byteOffset" : 27960,
      "byteLength" : 4352
    }
  ],
  "accessors" : [
    {
      "bufferView" : 0,
      "componentType" : 5123,
      "count" : 924,
      "type" : "SCALAR"
    },
    {
      "bufferView" : 1,
      "min" : [ 0.000309296, -6.4791, -1.22324 ],
      "max" : [ 0.901396, 0.571074, 0.865332 ],
      "componentType" : 5126,
      "count" : 544,
      "type" : "VEC3"
    },
    {
      "bufferView" : 2,
      "componentType" : 5126,
      "count" : 544,
      "type" : "VEC3"
    },
    {
      "bufferView" : 3,
      "componentType" : 5126,
      "count" : 544,
      "type" : "VEC4"
    },
    {
      "bufferView" : 4,
      "componentType" : 5126,
      "count" : 544,
      "type" : "VEC2"
    },
    {
      "bufferView" : 5,
      "componentType" : 5126,
      "count" : 544,
      "type" : "VEC2"
    }
  ]
}
