{
  "asset" : {
    "generator" : "UE Viewer (umodel) build 1579 based",
    "version" : "2.0"
  },
  "scene" : 0,
  "scenes" : [
    {
      "nodes" : [ 0 ]
    }
  ],
  "nodes" : [
    {
      "name" : "S_Envi_Common_Component_01j",
      "mesh" : 0
    }
  ],
  "materials" : [
    {
      "name" : "MI_Envi_Olgk_Pier_01d",
      "pbrMetallicRoughness" : {
        "baseColorFactor" : [ 0.3, 0.3, 0.3, 1.0 ],
        "metallicFactor" : 0.1,
        "roughnessFactor" : 0.5
      }
    }
  ],
  "meshes" : [
    {
      "primitives" : [
        {
          "attributes" : {
            "POSITION" : 1,
            "NORMAL" : 2,
            "TANGENT" : 3,
            "TEXCOORD_0" : 4,
            "TEXCOORD_1" : 5
          },
          "indices" : 0,
          "material" : 0
        }
      ],
      "name" : "S_Envi_Common_Component_01j"
    }
  ],
  "buffers" : [
    {
      "uri" : "S_Envi_Common_Component_01j.bin",
      "byteLength" : 46124
    }
  ],
  "bufferViews" : [
    {
      "buffer" : 0,
      "byteOffset" : 0,
      "byteLength" : 3564
    },
    {
      "buffer" : 0,
      "byteOffset" : 3564,
      "byteLength" : 9120
    },
    {
      "buffer" : 0,
      "byteOffset" : 12684,
      "byteLength" : 9120
    },
    {
      "buffer" : 0,
      "byteOffset" : 21804,
      "byteLength" : 12160
    },
    {
      "buffer" : 0,
      "byteOffset" : 33964,
      "byteLength" : 6080
    },
    {
      "buffer" : 0,
      "byteOffset" : 40044,
      "byteLength" : 6080
    }
  ],
  "accessors" : [
    {
      "bufferView" : 0,
      "componentType" : 5123,
      "count" : 1782,
      "type" : "SCALAR"
    },
    {
      "bufferView" : 1,
      "min" : [ 0.00808289, -1.37715, -1.37715 ],
      "max" : [ 0.527084, 1.37715, 1.37715 ],
      "componentType" : 5126,
      "count" : 760,
      "type" : "VEC3"
    },
    {
      "bufferView" : 2,
      "componentType" : 5126,
      "count" : 760,
      "type" : "VEC3"
    },
    {
      "bufferView" : 3,
      "componentType" : 5126,
      "count" : 760,
      "type" : "VEC4"
    },
    {
      "bufferView" : 4,
      "componentType" : 5126,
      "count" : 760,
      "type" : "VEC2"
    },
    {
      "bufferView" : 5,
      "componentType" : 5126,
      "count" : 760,
      "type" : "VEC2"
    }
  ]
}
