{
  "asset" : {
    "generator" : "UE Viewer (umodel) build 1579 based",
    "version" : "2.0"
  },
  "scene" : 0,
  "scenes" : [
    {
      "nodes" : [ 0 ]
    }
  ],
  "nodes" : [
    {
      "name" : "S_Envi_Common_Sign_01",
      "mesh" : 0
    }
  ],
  "materials" : [
    {
      "name" : "MI_screenScan_AD_03",
      "pbrMetallicRoughness" : {
        "baseColorFactor" : [ 0.3, 0.3, 0.3, 1.0 ],
        "metallicFactor" : 0.1,
        "roughnessFactor" : 0.5
      }
    }
  ],
  "meshes" : [
    {
      "primitives" : [
        {
          "attributes" : {
            "POSITION" : 1,
            "NORMAL" : 2,
            "TANGENT" : 3,
            "TEXCOORD_0" : 4,
            "TEXCOORD_1" : 5
          },
          "indices" : 0,
          "material" : 0
        }
      ],
      "name" : "S_Envi_Common_Sign_01"
    }
  ],
  "buffers" : [
    {
      "uri" : "S_Envi_Common_Sign_01.bin",
      "byteLength" : 2308
    }
  ],
  "bufferViews" : [
    {
      "buffer" : 0,
      "byteOffset" : 0,
      "byteLength" : 180
    },
    {
      "buffer" : 0,
      "byteOffset" : 180,
      "byteLength" : 456
    },
    {
      "buffer" : 0,
      "byteOffset" : 636,
      "byteLength" : 456
    },
    {
      "buffer" : 0,
      "byteOffset" : 1092,
      "byteLength" : 608
    },
    {
      "buffer" : 0,
      "byteOffset" : 1700,
      "byteLength" : 304
    },
    {
      "buffer" : 0,
      "byteOffset" : 2004,
      "byteLength" : 304
    }
  ],
  "accessors" : [
    {
      "bufferView" : 0,
      "componentType" : 5123,
      "count" : 90,
      "type" : "SCALAR"
    },
    {
      "bufferView" : 1,
      "min" : [ -0.370599, -0.229251, 4.5056e-07 ],
      "max" : [ 0.370599, 0.229251, 5.62477e-07 ],
      "componentType" : 5126,
      "count" : 38,
      "type" : "VEC3"
    },
    {
      "bufferView" : 2,
      "componentType" : 5126,
      "count" : 38,
      "type" : "VEC3"
    },
    {
      "bufferView" : 3,
      "componentType" : 5126,
      "count" : 38,
      "type" : "VEC4"
    },
    {
      "bufferView" : 4,
      "componentType" : 5126,
      "count" : 38,
      "type" : "VEC2"
    },
    {
      "bufferView" : 5,
      "componentType" : 5126,
      "count" : 38,
      "type" : "VEC2"
    }
  ]
}
