{
  "asset" : {
    "generator" : "UE Viewer (umodel) build 1579 based",
    "version" : "2.0"
  },
  "scene" : 0,
  "scenes" : [
    {
      "nodes" : [ 0 ]
    }
  ],
  "nodes" : [
    {
      "name" : "S_Envi_Umeda_Camera_01b",
      "mesh" : 0
    }
  ],
  "materials" : [
    {
      "name" : "MI_Envi_Umeda_Camera_01",
      "pbrMetallicRoughness" : {
        "baseColorFactor" : [ 0.3, 0.3, 0.3, 1.0 ],
        "metallicFactor" : 0.1,
        "roughnessFactor" : 0.5
      }
    }
  ],
  "meshes" : [
    {
      "primitives" : [
        {
          "attributes" : {
            "POSITION" : 1,
            "NORMAL" : 2,
            "TANGENT" : 3,
            "TEXCOORD_0" : 4,
            "TEXCOORD_1" : 5
          },
          "indices" : 0,
          "material" : 0
        }
      ],
      "name" : "S_Envi_Umeda_Camera_01b"
    }
  ],
  "buffers" : [
    {
      "uri" : "S_Envi_Umeda_Camera_01b.bin",
      "byteLength" : 11676
    }
  ],
  "bufferViews" : [
    {
      "buffer" : 0,
      "byteOffset" : 0,
      "byteLength" : 924
    },
    {
      "buffer" : 0,
      "byteOffset" : 924,
      "byteLength" : 2304
    },
    {
      "buffer" : 0,
      "byteOffset" : 3228,
      "byteLength" : 2304
    },
    {
      "buffer" : 0,
      "byteOffset" : 5532,
      "byteLength" : 3072
    },
    {
      "buffer" : 0,
      "byteOffset" : 8604,
      "byteLength" : 1536
    },
    {
      "buffer" : 0,
      "byteOffset" : 10140,
      "byteLength" : 1536
    }
  ],
  "accessors" : [
    {
      "bufferView" : 0,
      "componentType" : 5123,
      "count" : 462,
      "type" : "SCALAR"
    },
    {
      "bufferView" : 1,
      "min" : [ -0.3375, -0.277102, -0.1 ],
      "max" : [ 0.0358158, 0.0171022, 0.1 ],
      "componentType" : 5126,
      "count" : 192,
      "type" : "VEC3"
    },
    {
      "bufferView" : 2,
      "componentType" : 5126,
      "count" : 192,
      "type" : "VEC3"
    },
    {
      "bufferView" : 3,
      "componentType" : 5126,
      "count" : 192,
      "type" : "VEC4"
    },
    {
      "bufferView" : 4,
      "componentType" : 5126,
      "count" : 192,
      "type" : "VEC2"
    },
    {
      "bufferView" : 5,
      "componentType" : 5126,
      "count" : 192,
      "type" : "VEC2"
    }
  ]
}
