{
  "asset" : {
    "generator" : "UE Viewer (umodel) build 1579 based",
    "version" : "2.0"
  },
  "scene" : 0,
  "scenes" : [
    {
      "nodes" : [ 0 ]
    }
  ],
  "nodes" : [
    {
      "name" : "S_Envi_Umeda_Pillow_01a",
      "mesh" : 0
    }
  ],
  "materials" : [
    {
      "name" : "MI_Envi_Umeda_Pillow_01a",
      "pbrMetallicRoughness" : {
        "baseColorFactor" : [ 0.3, 0.3, 0.3, 1.0 ],
        "metallicFactor" : 0.1,
        "roughnessFactor" : 0.5
      }
    }
  ],
  "meshes" : [
    {
      "primitives" : [
        {
          "attributes" : {
            "POSITION" : 1,
            "NORMAL" : 2,
            "TANGENT" : 3,
            "TEXCOORD_0" : 4,
            "TEXCOORD_1" : 5
          },
          "indices" : 0,
          "material" : 0
        }
      ],
      "name" : "S_Envi_Umeda_Pillow_01a"
    }
  ],
  "buffers" : [
    {
      "uri" : "S_Envi_Umeda_Pillow_01a.bin",
      "byteLength" : 7388
    }
  ],
  "bufferViews" : [
    {
      "buffer" : 0,
      "byteOffset" : 0,
      "byteLength" : 948
    },
    {
      "buffer" : 0,
      "byteOffset" : 948,
      "byteLength" : 1380
    },
    {
      "buffer" : 0,
      "byteOffset" : 2328,
      "byteLength" : 1380
    },
    {
      "buffer" : 0,
      "byteOffset" : 3708,
      "byteLength" : 1840
    },
    {
      "buffer" : 0,
      "byteOffset" : 5548,
      "byteLength" : 920
    },
    {
      "buffer" : 0,
      "byteOffset" : 6468,
      "byteLength" : 920
    }
  ],
  "accessors" : [
    {
      "bufferView" : 0,
      "componentType" : 5123,
      "count" : 474,
      "type" : "SCALAR"
    },
    {
      "bufferView" : 1,
      "min" : [ -0.166884, -0.28102, -0.509605 ],
      "max" : [ 0.166403, 0.263394, 0.512085 ],
      "componentType" : 5126,
      "count" : 115,
      "type" : "VEC3"
    },
    {
      "bufferView" : 2,
      "componentType" : 5126,
      "count" : 115,
      "type" : "VEC3"
    },
    {
      "bufferView" : 3,
      "componentType" : 5126,
      "count" : 115,
      "type" : "VEC4"
    },
    {
      "bufferView" : 4,
      "componentType" : 5126,
      "count" : 115,
      "type" : "VEC2"
    },
    {
      "bufferView" : 5,
      "componentType" : 5126,
      "count" : 115,
      "type" : "VEC2"
    }
  ]
}
