{
  "asset" : {
    "generator" : "UE Viewer (umodel) build 1579 based",
    "version" : "2.0"
  },
  "scene" : 0,
  "scenes" : [
    {
      "nodes" : [ 0 ]
    }
  ],
  "nodes" : [
    {
      "name" : "S_Envi_Common_Cruiser_01a",
      "mesh" : 0
    }
  ],
  "materials" : [
    {
      "name" : "MI_Envi_Umeda_Base_Building_03_B_04",
      "pbrMetallicRoughness" : {
        "baseColorFactor" : [ 0.3, 0.3, 0.3, 1.0 ],
        "metallicFactor" : 0.1,
        "roughnessFactor" : 0.5
      }
    },
    {
      "name" : "MI_Envi_Floor_01",
      "pbrMetallicRoughness" : {
        "baseColorFactor" : [ 0.9, 0.3, 0.3, 1.0 ],
        "metallicFactor" : 0.1,
        "roughnessFactor" : 0.5
      }
    },
    {
      "name" : "MI_Envi_Umeda_Module_24",
      "pbrMetallicRoughness" : {
        "baseColorFactor" : [ 0.3, 0.9, 0.3, 1.0 ],
        "metallicFactor" : 0.1,
        "roughnessFactor" : 0.5
      }
    }
  ],
  "meshes" : [
    {
      "primitives" : [
        {
          "attributes" : {
            "POSITION" : 1,
            "NORMAL" : 2,
            "TANGENT" : 3,
            "TEXCOORD_0" : 4,
            "TEXCOORD_1" : 5
          },
          "indices" : 0,
          "material" : 0
        },
        {
          "attributes" : {
            "POSITION" : 7,
            "NORMAL" : 8,
            "TANGENT" : 9,
            "TEXCOORD_0" : 10,
            "TEXCOORD_1" : 11
          },
          "indices" : 6,
          "material" : 1
        },
        {
          "attributes" : {
            "POSITION" : 13,
            "NORMAL" : 14,
            "TANGENT" : 15,
            "TEXCOORD_0" : 16,
            "TEXCOORD_1" : 17
          },
          "indices" : 12,
          "material" : 2
        }
      ],
      "name" : "S_Envi_Common_Cruiser_01a"
    }
  ],
  "buffers" : [
    {
      "uri" : "S_Envi_Common_Cruiser_01a.bin",
      "byteLength" : 342616
    }
  ],
  "bufferViews" : [
    {
      "buffer" : 0,
      "byteOffset" : 0,
      "byteLength" : 10440
    },
    {
      "buffer" : 0,
      "byteOffset" : 10440,
      "byteLength" : 25920
    },
    {
      "buffer" : 0,
      "byteOffset" : 36360,
      "byteLength" : 25920
    },
    {
      "buffer" : 0,
      "byteOffset" : 62280,
      "byteLength" : 34560
    },
    {
      "buffer" : 0,
      "byteOffset" : 96840,
      "byteLength" : 17280
    },
    {
      "buffer" : 0,
      "byteOffset" : 114120,
      "byteLength" : 17280
    },
    {
      "buffer" : 0,
      "byteOffset" : 131400,
      "byteLength" : 660
    },
    {
      "buffer" : 0,
      "byteOffset" : 132060,
      "byteLength" : 1968
    },
    {
      "buffer" : 0,
      "byteOffset" : 134028,
      "byteLength" : 1968
    },
    {
      "buffer" : 0,
      "byteOffset" : 135996,
      "byteLength" : 2624
    },
    {
      "buffer" : 0,
      "byteOffset" : 138620,
      "byteLength" : 1312
    },
    {
      "buffer" : 0,
      "byteOffset" : 139932,
      "byteLength" : 1312
    },
    {
      "buffer" : 0,
      "byteOffset" : 141244,
      "byteLength" : 11532
    },
    {
      "buffer" : 0,
      "byteOffset" : 152776,
      "byteLength" : 40680
    },
    {
      "buffer" : 0,
      "byteOffset" : 193456,
      "byteLength" : 40680
    },
    {
      "buffer" : 0,
      "byteOffset" : 234136,
      "byteLength" : 54240
    },
    {
      "buffer" : 0,
      "byteOffset" : 288376,
      "byteLength" : 27120
    },
    {
      "buffer" : 0,
      "byteOffset" : 315496,
      "byteLength" : 27120
    }
  ],
  "accessors" : [
    {
      "bufferView" : 0,
      "componentType" : 5123,
      "count" : 5220,
      "type" : "SCALAR"
    },
    {
      "bufferView" : 1,
      "min" : [ -13.7334, -0.529686, -104.632 ],
      "max" : [ 13.7334, 44.6267, 89.0963 ],
      "componentType" : 5126,
      "count" : 2160,
      "type" : "VEC3"
    },
    {
      "bufferView" : 2,
      "componentType" : 5126,
      "count" : 2160,
      "type" : "VEC3"
    },
    {
      "bufferView" : 3,
      "componentType" : 5126,
      "count" : 2160,
      "type" : "VEC4"
    },
    {
      "bufferView" : 4,
      "componentType" : 5126,
      "count" : 2160,
      "type" : "VEC2"
    },
    {
      "bufferView" : 5,
      "componentType" : 5126,
      "count" : 2160,
      "type" : "VEC2"
    },
    {
      "bufferView" : 6,
      "componentType" : 5123,
      "count" : 330,
      "type" : "SCALAR"
    },
    {
      "bufferView" : 7,
      "min" : [ -13.3085, 12.1375, -104.632 ],
      "max" : [ 13.3085, 25.2837, 86.7157 ],
      "componentType" : 5126,
      "count" : 164,
      "type" : "VEC3"
    },
    {
      "bufferView" : 8,
      "componentType" : 5126,
      "count" : 164,
      "type" : "VEC3"
    },
    {
      "bufferView" : 9,
      "componentType" : 5126,
      "count" : 164,
      "type" : "VEC4"
    },
    {
      "bufferView" : 10,
      "componentType" : 5126,
      "count" : 164,
      "type" : "VEC2"
    },
    {
      "bufferView" : 11,
      "componentType" : 5126,
      "count" : 164,
      "type" : "VEC2"
    },
    {
      "bufferView" : 12,
      "componentType" : 5123,
      "count" : 5766,
      "type" : "SCALAR"
    },
    {
      "bufferView" : 13,
      "min" : [ -13.7823, 8.20607, -95.0307 ],
      "max" : [ 13.7823, 36.5962, 73.7969 ],
      "componentType" : 5126,
      "count" : 3390,
      "type" : "VEC3"
    },
    {
      "bufferView" : 14,
      "componentType" : 5126,
      "count" : 3390,
      "type" : "VEC3"
    },
    {
      "bufferView" : 15,
      "componentType" : 5126,
      "count" : 3390,
      "type" : "VEC4"
    },
    {
      "bufferView" : 16,
      "componentType" : 5126,
      "count" : 3390,
      "type" : "VEC2"
    },
    {
      "bufferView" : 17,
      "componentType" : 5126,
      "count" : 3390,
      "type" : "VEC2"
    }
  ]
}
