{
  "asset" : {
    "generator" : "UE Viewer (umodel) build 1579 based",
    "version" : "2.0"
  },
  "scene" : 0,
  "scenes" : [
    {
      "nodes" : [ 0 ]
    }
  ],
  "nodes" : [
    {
      "name" : "S_Envi_Umeda_Prop_Sundries_03",
      "mesh" : 0
    }
  ],
  "materials" : [
    {
      "name" : "MI_Envi_Umeda_Base_Parterre_02",
      "pbrMetallicRoughness" : {
        "baseColorFactor" : [ 0.3, 0.3, 0.3, 1.0 ],
        "metallicFactor" : 0.1,
        "roughnessFactor" : 0.5
      }
    }
  ],
  "meshes" : [
    {
      "primitives" : [
        {
          "attributes" : {
            "POSITION" : 1,
            "NORMAL" : 2,
            "TANGENT" : 3,
            "TEXCOORD_0" : 4,
            "TEXCOORD_1" : 5
          },
          "indices" : 0,
          "material" : 0
        }
      ],
      "name" : "S_Envi_Umeda_Prop_Sundries_03"
    }
  ],
  "buffers" : [
    {
      "uri" : "S_Envi_Umeda_Prop_Sundries_03.bin",
      "byteLength" : 7752
    }
  ],
  "bufferViews" : [
    {
      "buffer" : 0,
      "byteOffset" : 0,
      "byteLength" : 864
    },
    {
      "buffer" : 0,
      "byteOffset" : 864,
      "byteLength" : 1476
    },
    {
      "buffer" : 0,
      "byteOffset" : 2340,
      "byteLength" : 1476
    },
    {
      "buffer" : 0,
      "byteOffset" : 3816,
      "byteLength" : 1968
    },
    {
      "buffer" : 0,
      "byteOffset" : 5784,
      "byteLength" : 984
    },
    {
      "buffer" : 0,
      "byteOffset" : 6768,
      "byteLength" : 984
    }
  ],
  "accessors" : [
    {
      "bufferView" : 0,
      "componentType" : 5123,
      "count" : 432,
      "type" : "SCALAR"
    },
    {
      "bufferView" : 1,
      "min" : [ -0.212642, -3.46437e-08, -0.212642 ],
      "max" : [ 0.212642, 0.675255, 0.212642 ],
      "componentType" : 5126,
      "count" : 123,
      "type" : "VEC3"
    },
    {
      "bufferView" : 2,
      "componentType" : 5126,
      "count" : 123,
      "type" : "VEC3"
    },
    {
      "bufferView" : 3,
      "componentType" : 5126,
      "count" : 123,
      "type" : "VEC4"
    },
    {
      "bufferView" : 4,
      "componentType" : 5126,
      "count" : 123,
      "type" : "VEC2"
    },
    {
      "bufferView" : 5,
      "componentType" : 5126,
      "count" : 123,
      "type" : "VEC2"
    }
  ]
}
