{
  "asset" : {
    "generator" : "UE Viewer (umodel) build 1579 based",
    "version" : "2.0"
  },
  "scene" : 0,
  "scenes" : [
    {
      "nodes" : [ 0 ]
    }
  ],
  "nodes" : [
    {
      "name" : "S_Envi_cloth_01",
      "mesh" : 0
    }
  ],
  "materials" : [
    {
      "name" : "MI_Envi_cloth_01",
      "pbrMetallicRoughness" : {
        "baseColorFactor" : [ 0.3, 0.3, 0.3, 1.0 ],
        "metallicFactor" : 0.1,
        "roughnessFactor" : 0.5
      }
    }
  ],
  "meshes" : [
    {
      "primitives" : [
        {
          "attributes" : {
            "POSITION" : 1,
            "NORMAL" : 2,
            "TANGENT" : 3,
            "TEXCOORD_0" : 4,
            "TEXCOORD_1" : 5
          },
          "indices" : 0,
          "material" : 0
        }
      ],
      "name" : "S_Envi_cloth_01"
    }
  ],
  "buffers" : [
    {
      "uri" : "S_Envi_cloth_01.bin",
      "byteLength" : 2748
    }
  ],
  "bufferViews" : [
    {
      "buffer" : 0,
      "byteOffset" : 0,
      "byteLength" : 284
    },
    {
      "buffer" : 0,
      "byteOffset" : 284,
      "byteLength" : 528
    },
    {
      "buffer" : 0,
      "byteOffset" : 812,
      "byteLength" : 528
    },
    {
      "buffer" : 0,
      "byteOffset" : 1340,
      "byteLength" : 704
    },
    {
      "buffer" : 0,
      "byteOffset" : 2044,
      "byteLength" : 352
    },
    {
      "buffer" : 0,
      "byteOffset" : 2396,
      "byteLength" : 352
    }
  ],
  "accessors" : [
    {
      "bufferView" : 0,
      "componentType" : 5123,
      "count" : 141,
      "type" : "SCALAR"
    },
    {
      "bufferView" : 1,
      "min" : [ -5.19666, -0.0623545, -0.30747 ],
      "max" : [ 6.10352e-07, 0.0623545, 4.77187 ],
      "componentType" : 5126,
      "count" : 44,
      "type" : "VEC3"
    },
    {
      "bufferView" : 2,
      "componentType" : 5126,
      "count" : 44,
      "type" : "VEC3"
    },
    {
      "bufferView" : 3,
      "componentType" : 5126,
      "count" : 44,
      "type" : "VEC4"
    },
    {
      "bufferView" : 4,
      "componentType" : 5126,
      "count" : 44,
      "type" : "VEC2"
    },
    {
      "bufferView" : 5,
      "componentType" : 5126,
      "count" : 44,
      "type" : "VEC2"
    }
  ]
}
