{
  "asset" : {
    "generator" : "UE Viewer (umodel) build 1579 based",
    "version" : "2.0"
  },
  "scene" : 0,
  "scenes" : [
    {
      "nodes" : [ 0 ]
    }
  ],
  "nodes" : [
    {
      "name" : "S_Envi_Umeda_Prop_Windows_01c",
      "mesh" : 0
    }
  ],
  "materials" : [
    {
      "name" : "MI_Envi_Umeda_Prop_Frame_01",
      "pbrMetallicRoughness" : {
        "baseColorFactor" : [ 0.3, 0.3, 0.3, 1.0 ],
        "metallicFactor" : 0.1,
        "roughnessFactor" : 0.5
      }
    },
    {
      "name" : "MI_PM_Glass_06",
      "pbrMetallicRoughness" : {
        "baseColorFactor" : [ 0.9, 0.3, 0.3, 1.0 ],
        "metallicFactor" : 0.1,
        "roughnessFactor" : 0.5
      }
    }
  ],
  "meshes" : [
    {
      "primitives" : [
        {
          "attributes" : {
            "POSITION" : 1,
            "NORMAL" : 2,
            "TANGENT" : 3,
            "TEXCOORD_0" : 4,
            "TEXCOORD_1" : 5,
            "TEXCOORD_2" : 6
          },
          "indices" : 0,
          "material" : 0
        },
        {
          "attributes" : {
            "POSITION" : 8,
            "NORMAL" : 9,
            "TANGENT" : 10,
            "TEXCOORD_0" : 11,
            "TEXCOORD_1" : 12,
            "TEXCOORD_2" : 13
          },
          "indices" : 7,
          "material" : 1
        }
      ],
      "name" : "S_Envi_Umeda_Prop_Windows_01c"
    }
  ],
  "buffers" : [
    {
      "uri" : "S_Envi_Umeda_Prop_Windows_01c.bin",
      "byteLength" : 13784
    }
  ],
  "bufferViews" : [
    {
      "buffer" : 0,
      "byteOffset" : 0,
      "byteLength" : 552
    },
    {
      "buffer" : 0,
      "byteOffset" : 552,
      "byteLength" : 2280
    },
    {
      "buffer" : 0,
      "byteOffset" : 2832,
      "byteLength" : 2280
    },
    {
      "buffer" : 0,
      "byteOffset" : 5112,
      "byteLength" : 3040
    },
    {
      "buffer" : 0,
      "byteOffset" : 8152,
      "byteLength" : 1520
    },
    {
      "buffer" : 0,
      "byteOffset" : 9672,
      "byteLength" : 1520
    },
    {
      "buffer" : 0,
      "byteOffset" : 11192,
      "byteLength" : 1520
    },
    {
      "buffer" : 0,
      "byteOffset" : 12712,
      "byteLength" : 48
    },
    {
      "buffer" : 0,
      "byteOffset" : 12760,
      "byteLength" : 192
    },
    {
      "buffer" : 0,
      "byteOffset" : 12952,
      "byteLength" : 192
    },
    {
      "buffer" : 0,
      "byteOffset" : 13144,
      "byteLength" : 256
    },
    {
      "buffer" : 0,
      "byteOffset" : 13400,
      "byteLength" : 128
    },
    {
      "buffer" : 0,
      "byteOffset" : 13528,
      "byteLength" : 128
    },
    {
      "buffer" : 0,
      "byteOffset" : 13656,
      "byteLength" : 128
    }
  ],
  "accessors" : [
    {
      "bufferView" : 0,
      "componentType" : 5123,
      "count" : 276,
      "type" : "SCALAR"
    },
    {
      "bufferView" : 1,
      "min" : [ -0.645688, -1.52588e-07, 4.67166e-23 ],
      "max" : [ 0.18964, 3.30076, 11.2509 ],
      "componentType" : 5126,
      "count" : 190,
      "type" : "VEC3"
    },
    {
      "bufferView" : 2,
      "componentType" : 5126,
      "count" : 190,
      "type" : "VEC3"
    },
    {
      "bufferView" : 3,
      "componentType" : 5126,
      "count" : 190,
      "type" : "VEC4"
    },
    {
      "bufferView" : 4,
      "componentType" : 5126,
      "count" : 190,
      "type" : "VEC2"
    },
    {
      "bufferView" : 5,
      "componentType" : 5126,
      "count" : 190,
      "type" : "VEC2"
    },
    {
      "bufferView" : 6,
      "componentType" : 5126,
      "count" : 190,
      "type" : "VEC2"
    },
    {
      "bufferView" : 7,
      "componentType" : 5123,
      "count" : 24,
      "type" : "SCALAR"
    },
    {
      "bufferView" : 8,
      "min" : [ -0.5963, 0.172038, 0.165818 ],
      "max" : [ -0.00787754, 3.19412, 11.089 ],
      "componentType" : 5126,
      "count" : 16,
      "type" : "VEC3"
    },
    {
      "bufferView" : 9,
      "componentType" : 5126,
      "count" : 16,
      "type" : "VEC3"
    },
    {
      "bufferView" : 10,
      "componentType" : 5126,
      "count" : 16,
      "type" : "VEC4"
    },
    {
      "bufferView" : 11,
      "componentType" : 5126,
      "count" : 16,
      "type" : "VEC2"
    },
    {
      "bufferView" : 12,
      "componentType" : 5126,
      "count" : 16,
      "type" : "VEC2"
    },
    {
      "bufferView" : 13,
      "componentType" : 5126,
      "count" : 16,
      "type" : "VEC2"
    }
  ]
}
