{
  "asset" : {
    "generator" : "UE Viewer (umodel) build 1579 based",
    "version" : "2.0"
  },
  "scene" : 0,
  "scenes" : [
    {
      "nodes" : [ 0 ]
    }
  ],
  "nodes" : [
    {
      "name" : "S_Envi_Common_RopeFlags_01a",
      "mesh" : 0
    }
  ],
  "materials" : [
    {
      "name" : "MI_Envi_Common_Rope_01",
      "pbrMetallicRoughness" : {
        "baseColorFactor" : [ 0.3, 0.3, 0.3, 1.0 ],
        "metallicFactor" : 0.1,
        "roughnessFactor" : 0.5
      }
    },
    {
      "name" : "MI_Envi_Umeda_japan_Temple_02",
      "pbrMetallicRoughness" : {
        "baseColorFactor" : [ 0.9, 0.3, 0.3, 1.0 ],
        "metallicFactor" : 0.1,
        "roughnessFactor" : 0.5
      }
    }
  ],
  "meshes" : [
    {
      "primitives" : [
        {
          "attributes" : {
            "POSITION" : 1,
            "NORMAL" : 2,
            "TANGENT" : 3,
            "TEXCOORD_0" : 4,
            "TEXCOORD_1" : 5
          },
          "indices" : 0,
          "material" : 0
        },
        {
          "attributes" : {
            "POSITION" : 7,
            "NORMAL" : 8,
            "TANGENT" : 9,
            "TEXCOORD_0" : 10,
            "TEXCOORD_1" : 11
          },
          "indices" : 6,
          "material" : 1
        }
      ],
      "name" : "S_Envi_Common_RopeFlags_01a"
    }
  ],
  "buffers" : [
    {
      "uri" : "S_Envi_Common_RopeFlags_01a.bin",
      "byteLength" : 7372
    }
  ],
  "bufferViews" : [
    {
      "buffer" : 0,
      "byteOffset" : 0,
      "byteLength" : 72
    },
    {
      "buffer" : 0,
      "byteOffset" : 72,
      "byteLength" : 168
    },
    {
      "buffer" : 0,
      "byteOffset" : 240,
      "byteLength" : 168
    },
    {
      "buffer" : 0,
      "byteOffset" : 408,
      "byteLength" : 224
    },
    {
      "buffer" : 0,
      "byteOffset" : 632,
      "byteLength" : 112
    },
    {
      "buffer" : 0,
      "byteOffset" : 744,
      "byteLength" : 112
    },
    {
      "buffer" : 0,
      "byteOffset" : 856,
      "byteLength" : 468
    },
    {
      "buffer" : 0,
      "byteOffset" : 1324,
      "byteLength" : 1296
    },
    {
      "buffer" : 0,
      "byteOffset" : 2620,
      "byteLength" : 1296
    },
    {
      "buffer" : 0,
      "byteOffset" : 3916,
      "byteLength" : 1728
    },
    {
      "buffer" : 0,
      "byteOffset" : 5644,
      "byteLength" : 864
    },
    {
      "buffer" : 0,
      "byteOffset" : 6508,
      "byteLength" : 864
    }
  ],
  "accessors" : [
    {
      "bufferView" : 0,
      "componentType" : 5123,
      "count" : 36,
      "type" : "SCALAR"
    },
    {
      "bufferView" : 1,
      "min" : [ -1, -0.0170117, -0.0196433 ],
      "max" : [ 1, 0.0170117, 0.0196433 ],
      "componentType" : 5126,
      "count" : 14,
      "type" : "VEC3"
    },
    {
      "bufferView" : 2,
      "componentType" : 5126,
      "count" : 14,
      "type" : "VEC3"
    },
    {
      "bufferView" : 3,
      "componentType" : 5126,
      "count" : 14,
      "type" : "VEC4"
    },
    {
      "bufferView" : 4,
      "componentType" : 5126,
      "count" : 14,
      "type" : "VEC2"
    },
    {
      "bufferView" : 5,
      "componentType" : 5126,
      "count" : 14,
      "type" : "VEC2"
    },
    {
      "bufferView" : 6,
      "componentType" : 5123,
      "count" : 234,
      "type" : "SCALAR"
    },
    {
      "bufferView" : 7,
      "min" : [ -0.748, -0.398259, -0.0241897 ],
      "max" : [ 0.748925, 0.0209488, 0.0241897 ],
      "componentType" : 5126,
      "count" : 108,
      "type" : "VEC3"
    },
    {
      "bufferView" : 8,
      "componentType" : 5126,
      "count" : 108,
      "type" : "VEC3"
    },
    {
      "bufferView" : 9,
      "componentType" : 5126,
      "count" : 108,
      "type" : "VEC4"
    },
    {
      "bufferView" : 10,
      "componentType" : 5126,
      "count" : 108,
      "type" : "VEC2"
    },
    {
      "bufferView" : 11,
      "componentType" : 5126,
      "count" : 108,
      "type" : "VEC2"
    }
  ]
}
