{
  "asset" : {
    "generator" : "UE Viewer (umodel) build 1579 based",
    "version" : "2.0"
  },
  "scene" : 0,
  "scenes" : [
    {
      "nodes" : [ 0 ]
    }
  ],
  "nodes" : [
    {
      "name" : "S_Envi_Common_Pipeline_01g",
      "mesh" : 0
    }
  ],
  "materials" : [
    {
      "name" : "MI_Envi_Olgk_Pier_01f",
      "pbrMetallicRoughness" : {
        "baseColorFactor" : [ 0.3, 0.3, 0.3, 1.0 ],
        "metallicFactor" : 0.1,
        "roughnessFactor" : 0.5
      }
    }
  ],
  "meshes" : [
    {
      "primitives" : [
        {
          "attributes" : {
            "POSITION" : 1,
            "NORMAL" : 2,
            "TANGENT" : 3,
            "TEXCOORD_0" : 4,
            "TEXCOORD_1" : 5
          },
          "indices" : 0,
          "material" : 0
        }
      ],
      "name" : "S_Envi_Common_Pipeline_01g"
    }
  ],
  "buffers" : [
    {
      "uri" : "S_Envi_Common_Pipeline_01g.bin",
      "byteLength" : 35128
    }
  ],
  "bufferViews" : [
    {
      "buffer" : 0,
      "byteOffset" : 0,
      "byteLength" : 1752
    },
    {
      "buffer" : 0,
      "byteOffset" : 1752,
      "byteLength" : 7152
    },
    {
      "buffer" : 0,
      "byteOffset" : 8904,
      "byteLength" : 7152
    },
    {
      "buffer" : 0,
      "byteOffset" : 16056,
      "byteLength" : 9536
    },
    {
      "buffer" : 0,
      "byteOffset" : 25592,
      "byteLength" : 4768
    },
    {
      "buffer" : 0,
      "byteOffset" : 30360,
      "byteLength" : 4768
    }
  ],
  "accessors" : [
    {
      "bufferView" : 0,
      "componentType" : 5123,
      "count" : 876,
      "type" : "SCALAR"
    },
    {
      "bufferView" : 1,
      "min" : [ -1.50109, -0.0291171, -2.31656 ],
      "max" : [ -3.43323e-07, 1.61739, 1.17874e-05 ],
      "componentType" : 5126,
      "count" : 596,
      "type" : "VEC3"
    },
    {
      "bufferView" : 2,
      "componentType" : 5126,
      "count" : 596,
      "type" : "VEC3"
    },
    {
      "bufferView" : 3,
      "componentType" : 5126,
      "count" : 596,
      "type" : "VEC4"
    },
    {
      "bufferView" : 4,
      "componentType" : 5126,
      "count" : 596,
      "type" : "VEC2"
    },
    {
      "bufferView" : 5,
      "componentType" : 5126,
      "count" : 596,
      "type" : "VEC2"
    }
  ]
}
