{
  "asset" : {
    "generator" : "UE Viewer (umodel) build 1579 based",
    "version" : "2.0"
  },
  "scene" : 0,
  "scenes" : [
    {
      "nodes" : [ 0 ]
    }
  ],
  "nodes" : [
    {
      "name" : "S_Envi_Umeda_Game_wall_01r",
      "mesh" : 0
    }
  ],
  "materials" : [
    {
      "name" : "MI_Envi_Umeda_Aspot_merge_01b",
      "pbrMetallicRoughness" : {
        "baseColorFactor" : [ 0.3, 0.3, 0.3, 1.0 ],
        "metallicFactor" : 0.1,
        "roughnessFactor" : 0.5
      }
    }
  ],
  "meshes" : [
    {
      "primitives" : [
        {
          "attributes" : {
            "POSITION" : 1,
            "NORMAL" : 2,
            "TANGENT" : 3,
            "TEXCOORD_0" : 4,
            "TEXCOORD_1" : 5,
            "TEXCOORD_2" : 6,
            "TEXCOORD_3" : 7
          },
          "indices" : 0,
          "material" : 0
        }
      ],
      "name" : "S_Envi_Umeda_Game_wall_01r"
    }
  ],
  "buffers" : [
    {
      "uri" : "S_Envi_Umeda_Game_wall_01r.bin",
      "byteLength" : 519468
    }
  ],
  "bufferViews" : [
    {
      "buffer" : 0,
      "byteOffset" : 0,
      "byteLength" : 25404
    },
    {
      "buffer" : 0,
      "byteOffset" : 25404,
      "byteLength" : 82344
    },
    {
      "buffer" : 0,
      "byteOffset" : 107748,
      "byteLength" : 82344
    },
    {
      "buffer" : 0,
      "byteOffset" : 190092,
      "byteLength" : 109792
    },
    {
      "buffer" : 0,
      "byteOffset" : 299884,
      "byteLength" : 54896
    },
    {
      "buffer" : 0,
      "byteOffset" : 354780,
      "byteLength" : 54896
    },
    {
      "buffer" : 0,
      "byteOffset" : 409676,
      "byteLength" : 54896
    },
    {
      "buffer" : 0,
      "byteOffset" : 464572,
      "byteLength" : 54896
    }
  ],
  "accessors" : [
    {
      "bufferView" : 0,
      "componentType" : 5123,
      "count" : 12702,
      "type" : "SCALAR"
    },
    {
      "bufferView" : 1,
      "min" : [ 12.769, 11.875, -23.5323 ],
      "max" : [ 15.7323, 17.6426, -20.4819 ],
      "componentType" : 5126,
      "count" : 6862,
      "type" : "VEC3"
    },
    {
      "bufferView" : 2,
      "componentType" : 5126,
      "count" : 6862,
      "type" : "VEC3"
    },
    {
      "bufferView" : 3,
      "componentType" : 5126,
      "count" : 6862,
      "type" : "VEC4"
    },
    {
      "bufferView" : 4,
      "componentType" : 5126,
      "count" : 6862,
      "type" : "VEC2"
    },
    {
      "bufferView" : 5,
      "componentType" : 5126,
      "count" : 6862,
      "type" : "VEC2"
    },
    {
      "bufferView" : 6,
      "componentType" : 5126,
      "count" : 6862,
      "type" : "VEC2"
    },
    {
      "bufferView" : 7,
      "componentType" : 5126,
      "count" : 6862,
      "type" : "VEC2"
    }
  ]
}
