{
  "asset" : {
    "generator" : "UE Viewer (umodel) build 1579 based",
    "version" : "2.0"
  },
  "scene" : 0,
  "scenes" : [
    {
      "nodes" : [ 0 ]
    }
  ],
  "nodes" : [
    {
      "name" : "S_Envi_Building_Longshot_01t",
      "mesh" : 0
    }
  ],
  "materials" : [
    {
      "name" : "MI_Envi_Umeda_japan_Temple_01",
      "pbrMetallicRoughness" : {
        "baseColorFactor" : [ 0.3, 0.3, 0.3, 1.0 ],
        "metallicFactor" : 0.1,
        "roughnessFactor" : 0.5
      }
    }
  ],
  "meshes" : [
    {
      "primitives" : [
        {
          "attributes" : {
            "POSITION" : 1,
            "NORMAL" : 2,
            "TANGENT" : 3,
            "TEXCOORD_0" : 4,
            "TEXCOORD_1" : 5
          },
          "indices" : 0,
          "material" : 0
        }
      ],
      "name" : "S_Envi_Building_Longshot_01t"
    }
  ],
  "buffers" : [
    {
      "uri" : "S_Envi_Building_Longshot_01t.bin",
      "byteLength" : 10852
    }
  ],
  "bufferViews" : [
    {
      "buffer" : 0,
      "byteOffset" : 0,
      "byteLength" : 660
    },
    {
      "buffer" : 0,
      "byteOffset" : 660,
      "byteLength" : 2184
    },
    {
      "buffer" : 0,
      "byteOffset" : 2844,
      "byteLength" : 2184
    },
    {
      "buffer" : 0,
      "byteOffset" : 5028,
      "byteLength" : 2912
    },
    {
      "buffer" : 0,
      "byteOffset" : 7940,
      "byteLength" : 1456
    },
    {
      "buffer" : 0,
      "byteOffset" : 9396,
      "byteLength" : 1456
    }
  ],
  "accessors" : [
    {
      "bufferView" : 0,
      "componentType" : 5123,
      "count" : 330,
      "type" : "SCALAR"
    },
    {
      "bufferView" : 1,
      "min" : [ -2.21397, 4.64388, -6.81732 ],
      "max" : [ 2.21397, 41.2483, 4.08913 ],
      "componentType" : 5126,
      "count" : 182,
      "type" : "VEC3"
    },
    {
      "bufferView" : 2,
      "componentType" : 5126,
      "count" : 182,
      "type" : "VEC3"
    },
    {
      "bufferView" : 3,
      "componentType" : 5126,
      "count" : 182,
      "type" : "VEC4"
    },
    {
      "bufferView" : 4,
      "componentType" : 5126,
      "count" : 182,
      "type" : "VEC2"
    },
    {
      "bufferView" : 5,
      "componentType" : 5126,
      "count" : 182,
      "type" : "VEC2"
    }
  ]
}
