{
  "asset" : {
    "generator" : "UE Viewer (umodel) build 1579 based",
    "version" : "2.0"
  },
  "scene" : 0,
  "scenes" : [
    {
      "nodes" : [ 0 ]
    }
  ],
  "nodes" : [
    {
      "name" : "S_Envi_Umeda_Ground_01_B",
      "mesh" : 0
    }
  ],
  "materials" : [
    {
      "name" : "MI_Envi_Jdhcz_G_04_01b",
      "pbrMetallicRoughness" : {
        "baseColorFactor" : [ 0.3, 0.3, 0.3, 1.0 ],
        "metallicFactor" : 0.1,
        "roughnessFactor" : 0.5
      }
    },
    {
      "name" : "M_LEDBillboard_2",
      "pbrMetallicRoughness" : {
        "baseColorFactor" : [ 0.9, 0.3, 0.3, 1.0 ],
        "metallicFactor" : 0.1,
        "roughnessFactor" : 0.5
      }
    }
  ],
  "meshes" : [
    {
      "primitives" : [
        {
          "attributes" : {
            "POSITION" : 1,
            "NORMAL" : 2,
            "TANGENT" : 3,
            "TEXCOORD_0" : 4,
            "TEXCOORD_1" : 5,
            "TEXCOORD_2" : 6,
            "TEXCOORD_3" : 7
          },
          "indices" : 0,
          "material" : 0
        },
        {
          "attributes" : {
            "POSITION" : 9,
            "NORMAL" : 10,
            "TANGENT" : 11,
            "TEXCOORD_0" : 12,
            "TEXCOORD_1" : 13,
            "TEXCOORD_2" : 14,
            "TEXCOORD_3" : 15
          },
          "indices" : 8,
          "material" : 1
        }
      ],
      "name" : "S_Envi_Umeda_Ground_01_B"
    }
  ],
  "buffers" : [
    {
      "uri" : "S_Envi_Umeda_Ground_01_B.bin",
      "byteLength" : 24780
    }
  ],
  "bufferViews" : [
    {
      "buffer" : 0,
      "byteOffset" : 0,
      "byteLength" : 672
    },
    {
      "buffer" : 0,
      "byteOffset" : 672,
      "byteLength" : 3720
    },
    {
      "buffer" : 0,
      "byteOffset" : 4392,
      "byteLength" : 3720
    },
    {
      "buffer" : 0,
      "byteOffset" : 8112,
      "byteLength" : 4960
    },
    {
      "buffer" : 0,
      "byteOffset" : 13072,
      "byteLength" : 2480
    },
    {
      "buffer" : 0,
      "byteOffset" : 15552,
      "byteLength" : 2480
    },
    {
      "buffer" : 0,
      "byteOffset" : 18032,
      "byteLength" : 2480
    },
    {
      "buffer" : 0,
      "byteOffset" : 20512,
      "byteLength" : 2480
    },
    {
      "buffer" : 0,
      "byteOffset" : 22992,
      "byteLength" : 60
    },
    {
      "buffer" : 0,
      "byteOffset" : 23052,
      "byteLength" : 288
    },
    {
      "buffer" : 0,
      "byteOffset" : 23340,
      "byteLength" : 288
    },
    {
      "buffer" : 0,
      "byteOffset" : 23628,
      "byteLength" : 384
    },
    {
      "buffer" : 0,
      "byteOffset" : 24012,
      "byteLength" : 192
    },
    {
      "buffer" : 0,
      "byteOffset" : 24204,
      "byteLength" : 192
    },
    {
      "buffer" : 0,
      "byteOffset" : 24396,
      "byteLength" : 192
    },
    {
      "buffer" : 0,
      "byteOffset" : 24588,
      "byteLength" : 192
    }
  ],
  "accessors" : [
    {
      "bufferView" : 0,
      "componentType" : 5123,
      "count" : 336,
      "type" : "SCALAR"
    },
    {
      "bufferView" : 1,
      "min" : [ -0.387849, -0.000138111, -4 ],
      "max" : [ 0.000142863, 0.0278868, 5.33586e-14 ],
      "componentType" : 5126,
      "count" : 310,
      "type" : "VEC3"
    },
    {
      "bufferView" : 2,
      "componentType" : 5126,
      "count" : 310,
      "type" : "VEC3"
    },
    {
      "bufferView" : 3,
      "componentType" : 5126,
      "count" : 310,
      "type" : "VEC4"
    },
    {
      "bufferView" : 4,
      "componentType" : 5126,
      "count" : 310,
      "type" : "VEC2"
    },
    {
      "bufferView" : 5,
      "componentType" : 5126,
      "count" : 310,
      "type" : "VEC2"
    },
    {
      "bufferView" : 6,
      "componentType" : 5126,
      "count" : 310,
      "type" : "VEC2"
    },
    {
      "bufferView" : 7,
      "componentType" : 5126,
      "count" : 310,
      "type" : "VEC2"
    },
    {
      "bufferView" : 8,
      "componentType" : 5123,
      "count" : 30,
      "type" : "SCALAR"
    },
    {
      "bufferView" : 9,
      "min" : [ -0.309353, 0.018172, -4 ],
      "max" : [ -0.0783532, 0.0183102, -5.40891e-08 ],
      "componentType" : 5126,
      "count" : 24,
      "type" : "VEC3"
    },
    {
      "bufferView" : 10,
      "componentType" : 5126,
      "count" : 24,
      "type" : "VEC3"
    },
    {
      "bufferView" : 11,
      "componentType" : 5126,
      "count" : 24,
      "type" : "VEC4"
    },
    {
      "bufferView" : 12,
      "componentType" : 5126,
      "count" : 24,
      "type" : "VEC2"
    },
    {
      "bufferView" : 13,
      "componentType" : 5126,
      "count" : 24,
      "type" : "VEC2"
    },
    {
      "bufferView" : 14,
      "componentType" : 5126,
      "count" : 24,
      "type" : "VEC2"
    },
    {
      "bufferView" : 15,
      "componentType" : 5126,
      "count" : 24,
      "type" : "VEC2"
    }
  ]
}
