{
  "asset" : {
    "generator" : "UE Viewer (umodel) build 1579 based",
    "version" : "2.0"
  },
  "scene" : 0,
  "scenes" : [
    {
      "nodes" : [ 0 ]
    }
  ],
  "nodes" : [
    {
      "name" : "S_Envi_Umeda_Base_slate_02",
      "mesh" : 0
    }
  ],
  "materials" : [
    {
      "name" : "MI_Envi_commontrim_03",
      "pbrMetallicRoughness" : {
        "baseColorFactor" : [ 0.3, 0.3, 0.3, 1.0 ],
        "metallicFactor" : 0.1,
        "roughnessFactor" : 0.5
      }
    }
  ],
  "meshes" : [
    {
      "primitives" : [
        {
          "attributes" : {
            "POSITION" : 1,
            "NORMAL" : 2,
            "TANGENT" : 3,
            "TEXCOORD_0" : 4,
            "TEXCOORD_1" : 5
          },
          "indices" : 0,
          "material" : 0
        }
      ],
      "name" : "S_Envi_Umeda_Base_slate_02"
    }
  ],
  "buffers" : [
    {
      "uri" : "S_Envi_Umeda_Base_slate_02.bin",
      "byteLength" : 2408
    }
  ],
  "bufferViews" : [
    {
      "buffer" : 0,
      "byteOffset" : 0,
      "byteLength" : 168
    },
    {
      "buffer" : 0,
      "byteOffset" : 168,
      "byteLength" : 480
    },
    {
      "buffer" : 0,
      "byteOffset" : 648,
      "byteLength" : 480
    },
    {
      "buffer" : 0,
      "byteOffset" : 1128,
      "byteLength" : 640
    },
    {
      "buffer" : 0,
      "byteOffset" : 1768,
      "byteLength" : 320
    },
    {
      "buffer" : 0,
      "byteOffset" : 2088,
      "byteLength" : 320
    }
  ],
  "accessors" : [
    {
      "bufferView" : 0,
      "componentType" : 5123,
      "count" : 84,
      "type" : "SCALAR"
    },
    {
      "bufferView" : 1,
      "min" : [ -6.10352e-07, -0.0763765, -0.976783 ],
      "max" : [ 4.76104, 5.72205e-08, -9.15527e-07 ],
      "componentType" : 5126,
      "count" : 40,
      "type" : "VEC3"
    },
    {
      "bufferView" : 2,
      "componentType" : 5126,
      "count" : 40,
      "type" : "VEC3"
    },
    {
      "bufferView" : 3,
      "componentType" : 5126,
      "count" : 40,
      "type" : "VEC4"
    },
    {
      "bufferView" : 4,
      "componentType" : 5126,
      "count" : 40,
      "type" : "VEC2"
    },
    {
      "bufferView" : 5,
      "componentType" : 5126,
      "count" : 40,
      "type" : "VEC2"
    }
  ]
}
