{
  "asset" : {
    "generator" : "UE Viewer (umodel) build 1579 based",
    "version" : "2.0"
  },
  "scene" : 0,
  "scenes" : [
    {
      "nodes" : [ 0 ]
    }
  ],
  "nodes" : [
    {
      "name" : "S_Envi_Common_Component_01b",
      "mesh" : 0
    }
  ],
  "materials" : [
    {
      "name" : "MI_Envi_Olgk_Pier_01f",
      "pbrMetallicRoughness" : {
        "baseColorFactor" : [ 0.3, 0.3, 0.3, 1.0 ],
        "metallicFactor" : 0.1,
        "roughnessFactor" : 0.5
      }
    }
  ],
  "meshes" : [
    {
      "primitives" : [
        {
          "attributes" : {
            "POSITION" : 1,
            "NORMAL" : 2,
            "TANGENT" : 3,
            "TEXCOORD_0" : 4,
            "TEXCOORD_1" : 5,
            "TEXCOORD_2" : 6
          },
          "indices" : 0,
          "material" : 0
        }
      ],
      "name" : "S_Envi_Common_Component_01b"
    }
  ],
  "buffers" : [
    {
      "uri" : "S_Envi_Common_Component_01b.bin",
      "byteLength" : 40308
    }
  ],
  "bufferViews" : [
    {
      "buffer" : 0,
      "byteOffset" : 0,
      "byteLength" : 1908
    },
    {
      "buffer" : 0,
      "byteOffset" : 1908,
      "byteLength" : 7200
    },
    {
      "buffer" : 0,
      "byteOffset" : 9108,
      "byteLength" : 7200
    },
    {
      "buffer" : 0,
      "byteOffset" : 16308,
      "byteLength" : 9600
    },
    {
      "buffer" : 0,
      "byteOffset" : 25908,
      "byteLength" : 4800
    },
    {
      "buffer" : 0,
      "byteOffset" : 30708,
      "byteLength" : 4800
    },
    {
      "buffer" : 0,
      "byteOffset" : 35508,
      "byteLength" : 4800
    }
  ],
  "accessors" : [
    {
      "bufferView" : 0,
      "componentType" : 5123,
      "count" : 954,
      "type" : "SCALAR"
    },
    {
      "bufferView" : 1,
      "min" : [ -2.25541, -4.78951, 0.000123749 ],
      "max" : [ 2.25541, 3.63159e-05, 5.39386 ],
      "componentType" : 5126,
      "count" : 600,
      "type" : "VEC3"
    },
    {
      "bufferView" : 2,
      "componentType" : 5126,
      "count" : 600,
      "type" : "VEC3"
    },
    {
      "bufferView" : 3,
      "componentType" : 5126,
      "count" : 600,
      "type" : "VEC4"
    },
    {
      "bufferView" : 4,
      "componentType" : 5126,
      "count" : 600,
      "type" : "VEC2"
    },
    {
      "bufferView" : 5,
      "componentType" : 5126,
      "count" : 600,
      "type" : "VEC2"
    },
    {
      "bufferView" : 6,
      "componentType" : 5126,
      "count" : 600,
      "type" : "VEC2"
    }
  ]
}
