{
  "asset" : {
    "generator" : "UE Viewer (umodel) build 1579 based",
    "version" : "2.0"
  },
  "scene" : 0,
  "scenes" : [
    {
      "nodes" : [ 0 ]
    }
  ],
  "nodes" : [
    {
      "name" : "SM_Door_A_02",
      "mesh" : 0
    }
  ],
  "materials" : [
    {
      "name" : "MI_Door01",
      "pbrMetallicRoughness" : {
        "baseColorFactor" : [ 0.3, 0.3, 0.3, 1.0 ],
        "metallicFactor" : 0.1,
        "roughnessFactor" : 0.5
      }
    }
  ],
  "meshes" : [
    {
      "primitives" : [
        {
          "attributes" : {
            "POSITION" : 1,
            "NORMAL" : 2,
            "TANGENT" : 3,
            "COLOR_0" : 4,
            "TEXCOORD_0" : 5,
            "TEXCOORD_1" : 6
          },
          "indices" : 0,
          "material" : 0
        }
      ],
      "name" : "SM_Door_A_02"
    }
  ],
  "buffers" : [
    {
      "uri" : "SM_Door_A_02.bin",
      "byteLength" : 105660
    }
  ],
  "bufferViews" : [
    {
      "buffer" : 0,
      "byteOffset" : 0,
      "byteLength" : 7380
    },
    {
      "buffer" : 0,
      "byteOffset" : 7380,
      "byteLength" : 19656
    },
    {
      "buffer" : 0,
      "byteOffset" : 27036,
      "byteLength" : 19656
    },
    {
      "buffer" : 0,
      "byteOffset" : 46692,
      "byteLength" : 26208
    },
    {
      "buffer" : 0,
      "byteOffset" : 72900,
      "byteLength" : 6552
    },
    {
      "buffer" : 0,
      "byteOffset" : 79452,
      "byteLength" : 13104
    },
    {
      "buffer" : 0,
      "byteOffset" : 92556,
      "byteLength" : 13104
    }
  ],
  "accessors" : [
    {
      "bufferView" : 0,
      "componentType" : 5123,
      "count" : 3690,
      "type" : "SCALAR"
    },
    {
      "bufferView" : 1,
      "min" : [ -0.6, 0, -0.0471711 ],
      "max" : [ 0.6, 2.3, 0.1529 ],
      "componentType" : 5126,
      "count" : 1638,
      "type" : "VEC3"
    },
    {
      "bufferView" : 2,
      "componentType" : 5126,
      "count" : 1638,
      "type" : "VEC3"
    },
    {
      "bufferView" : 3,
      "componentType" : 5126,
      "count" : 1638,
      "type" : "VEC4"
    },
    {
      "bufferView" : 4,
      "normalized" : true,
      "componentType" : 5121,
      "count" : 1638,
      "type" : "VEC4"
    },
    {
      "bufferView" : 5,
      "componentType" : 5126,
      "count" : 1638,
      "type" : "VEC2"
    },
    {
      "bufferView" : 6,
      "componentType" : 5126,
      "count" : 1638,
      "type" : "VEC2"
    }
  ]
}
