{
  "asset" : {
    "generator" : "UE Viewer (umodel) build 1579 based",
    "version" : "2.0"
  },
  "scene" : 0,
  "scenes" : [
    {
      "nodes" : [ 0 ]
    }
  ],
  "nodes" : [
    {
      "name" : "SK_Weap_Maddelena_HJ",
      "mesh" : 0
    }
  ],
  "materials" : [
    {
      "name" : "MI_Weap_Maddelena_01_HJ",
      "pbrMetallicRoughness" : {
        "baseColorFactor" : [ 0.3, 0.3, 0.3, 1.0 ],
        "metallicFactor" : 0.1,
        "roughnessFactor" : 0.5
      }
    },
    {
      "name" : "MI_Weap_Maddelena_02_HJ",
      "pbrMetallicRoughness" : {
        "baseColorFactor" : [ 0.9, 0.3, 0.3, 1.0 ],
        "metallicFactor" : 0.1,
        "roughnessFactor" : 0.5
      }
    }
  ],
  "meshes" : [
    {
      "primitives" : [
        {
          "attributes" : {
            "POSITION" : 1,
            "NORMAL" : 2,
            "TANGENT" : 3,
            "TEXCOORD_0" : 4
          },
          "indices" : 0,
          "material" : 0
        },
        {
          "attributes" : {
            "POSITION" : 6,
            "NORMAL" : 7,
            "TANGENT" : 8,
            "TEXCOORD_0" : 9
          },
          "indices" : 5,
          "material" : 1
        }
      ],
      "name" : "SK_Weap_Maddelena_HJ"
    }
  ],
  "buffers" : [
    {
      "uri" : "SK_Weap_Maddelena_HJ.bin",
      "byteLength" : 372408
    }
  ],
  "bufferViews" : [
    {
      "buffer" : 0,
      "byteOffset" : 0,
      "byteLength" : 45264
    },
    {
      "buffer" : 0,
      "byteOffset" : 45264,
      "byteLength" : 81480
    },
    {
      "buffer" : 0,
      "byteOffset" : 126744,
      "byteLength" : 81480
    },
    {
      "buffer" : 0,
      "byteOffset" : 208224,
      "byteLength" : 108640
    },
    {
      "buffer" : 0,
      "byteOffset" : 316864,
      "byteLength" : 54320
    },
    {
      "buffer" : 0,
      "byteOffset" : 371184,
      "byteLength" : 72
    },
    {
      "buffer" : 0,
      "byteOffset" : 371256,
      "byteLength" : 288
    },
    {
      "buffer" : 0,
      "byteOffset" : 371544,
      "byteLength" : 288
    },
    {
      "buffer" : 0,
      "byteOffset" : 371832,
      "byteLength" : 384
    },
    {
      "buffer" : 0,
      "byteOffset" : 372216,
      "byteLength" : 192
    }
  ],
  "accessors" : [
    {
      "bufferView" : 0,
      "componentType" : 5123,
      "count" : 22632,
      "type" : "SCALAR"
    },
    {
      "bufferView" : 1,
      "min" : [ -0.324253, -2.1357e-08, -0.357452 ],
      "max" : [ 0.538782, 1.65361, 0.521692 ],
      "componentType" : 5126,
      "count" : 6790,
      "type" : "VEC3"
    },
    {
      "bufferView" : 2,
      "componentType" : 5126,
      "count" : 6790,
      "type" : "VEC3"
    },
    {
      "bufferView" : 3,
      "componentType" : 5126,
      "count" : 6790,
      "type" : "VEC4"
    },
    {
      "bufferView" : 4,
      "componentType" : 5126,
      "count" : 6790,
      "type" : "VEC2"
    },
    {
      "bufferView" : 5,
      "componentType" : 5123,
      "count" : 36,
      "type" : "SCALAR"
    },
    {
      "bufferView" : 6,
      "min" : [ -0.213081, 0.954365, 0.208833 ],
      "max" : [ 0.213185, 1.5482, 0.449158 ],
      "componentType" : 5126,
      "count" : 24,
      "type" : "VEC3"
    },
    {
      "bufferView" : 7,
      "componentType" : 5126,
      "count" : 24,
      "type" : "VEC3"
    },
    {
      "bufferView" : 8,
      "componentType" : 5126,
      "count" : 24,
      "type" : "VEC4"
    },
    {
      "bufferView" : 9,
      "componentType" : 5126,
      "count" : 24,
      "type" : "VEC2"
    }
  ]
}
