{
  "asset" : {
    "generator" : "UE Viewer (umodel) build 1579 based",
    "version" : "2.0"
  },
  "scene" : 0,
  "scenes" : [
    {
      "nodes" : [ 0 ]
    }
  ],
  "nodes" : [
    {
      "name" : "lawei_ppm_skin",
      "mesh" : 0,
      "skin" : 0,
      "children" : [ 1 ]
    },
    {
      "name" : "root",
      "children" : [ 2, 5, 10 ],
      "translation" : [ 0, 0, 0 ],
      "rotation" : [ 3.06162e-17, -0, -0, 1 ]
    },
    {
      "name" : "ik_foot_root",
      "children" : [ 3, 4 ],
      "translation" : [ 0, 0, -0 ],
      "rotation" : [ -0, -0, 0, -1 ]
    },
    {
      "name" : "ik_foot_l",
      "translation" : [ 0.0621723, 0.124671, -0.0360281 ],
      "rotation" : [ -0.707107, 0.707107, 4.22872e-07, -4.22872e-07 ]
    },
    {
      "name" : "ik_foot_r",
      "translation" : [ -0.0621726, 0.124671, -0.0360279 ],
      "rotation" : [ -0.707107, 0.707107, 6.22367e-07, -6.22368e-07 ]
    },
    {
      "name" : "ik_hand_root",
      "children" : [ 6 ],
      "translation" : [ 0, 0, -0 ],
      "rotation" : [ -0, -0, 0, -1 ]
    },
    {
      "name" : "ik_hand_gun",
      "children" : [ 7, 8, 9 ],
      "translation" : [ -0.494472, 1.2479, 0.0292625 ],
      "rotation" : [ 0.200985, -0.977455, -0.0181284, 0.0621166 ]
    },
    {
      "name" : "ik_hand_r",
      "translation" : [ -3.8147e-08, 3.05176e-07, 4.76838e-08 ],
      "rotation" : [ -9.31315e-10, 9.31322e-08, -7.45058e-08, -1 ]
    },
    {
      "name" : "ik_hand_l",
      "translation" : [ -0.901417, -0.386336, -0.127294 ],
      "rotation" : [ -0.128711, 2.68261e-06, 0.911494, -0.390655 ]
    },
    {
      "name" : "SocketADS",
      "translation" : [ -3.8147e-08, 2.84217e-16, 8.88179e-18 ],
      "rotation" : [ 1.49943e-07, 8.49832e-08, 8.9407e-08, -1 ]
    },
    {
      "name" : "Bip001",
      "children" : [ 11 ],
      "translation" : [ 0, 1.03368, 3.65453e-09 ],
      "rotation" : [ -4.156e-39, 0.707106, -4.156e-39, -0.707107 ]
    },
    {
      "name" : "Bip001-Pelvis",
      "children" : [ 12, 84, 88 ],
      "translation" : [ 0, 0, -0 ],
      "rotation" : [ 0.5, 0.499999, -0.5, -0.500001 ]
    },
    {
      "name" : "Bip001-Spine",
      "children" : [ 13, 81 ],
      "translation" : [ 0.0722677, 1.00343e-07, 8.84742e-05 ],
      "rotation" : [ 2.08048e-06, -0.000398159, -6.93676e-07, -1 ]
    },
    {
      "name" : "Bip001-Spine1",
      "children" : [ 14 ],
      "translation" : [ 0.111171, -2.7673e-10, 9.97727e-05 ],
      "rotation" : [ 3.01177e-14, -3.18883e-36, 1.05879e-22, -1 ]
    },
    {
      "name" : "Bip001-Spine2",
      "children" : [ 15, 43, 53, 65, 73 ],
      "translation" : [ 0.125299, -2.55778e-10, 9.22186e-05 ],
      "rotation" : [ 3.01177e-14, -1.0842e-19, -3.26536e-33, -1 ]
    },
    {
      "name" : "Bip001-Neck",
      "children" : [ 16 ],
      "translation" : [ 0.115813, -1.37594e-10, 4.96086e-05 ],
      "rotation" : [ 3.01177e-14, 5.42101e-20, 1.05879e-22, -1 ]
    },
    {
      "name" : "Bip001-Head",
      "children" : [ 17, 23, 29, 35, 39 ],
      "translation" : [ 0.0623009, -2.84217e-16, 7.45058e-11 ],
      "rotation" : [ 7.2656e-14, 0.000398831, 1.10427e-09, -1 ]
    },
    {
      "name" : "hair_l_01",
      "children" : [ 18 ],
      "translation" : [ 0.0261856, 2.48105e-07, 0.044995 ],
      "rotation" : [ 0.131971, -7.30501e-07, 0.991253, -6.71024e-08 ]
    },
    {
      "name" : "hair_l_02",
      "children" : [ 19 ],
      "translation" : [ 0.0823732, 5.61631e-09, -1.79291e-06 ],
      "rotation" : [ 8.74169e-08, 0.011577, 1.01209e-09, -0.999933 ]
    },
    {
      "name" : "hair_l_03",
      "children" : [ 20 ],
      "translation" : [ 0.0751177, 5.24611e-09, -3.8147e-08 ],
      "rotation" : [ -5.22884e-08, 0.00435383, -2.27661e-10, -0.999991 ]
    },
    {
      "name" : "hair_l_04",
      "children" : [ 21 ],
      "translation" : [ 0.0738028, 5.08844e-09, 3.8147e-08 ],
      "rotation" : [ -8.87495e-16, -0.0392308, 3.4844e-17, -0.99923 ]
    },
    {
      "name" : "hair_l_05",
      "children" : [ 22 ],
      "translation" : [ 0.109783, 7.44512e-09, 1.14441e-07 ],
      "rotation" : [ -2.21963e-15, -0.0271376, 6.02577e-17, -0.999632 ]
    },
    {
      "name" : "hair_l_06",
      "translation" : [ 0.100522, 0, -0 ],
      "rotation" : [ 4.76837e-07, -7.45058e-09, -3.55271e-15, -1 ]
    },
    {
      "name" : "ponytail_hair_m_01",
      "children" : [ 24 ],
      "translation" : [ 0.0235207, 0.0683541, 0.0224995 ],
      "rotation" : [ 0.166853, 0.309018, 0.935101, 0.0474761 ]
    },
    {
      "name" : "ponytail_hair_m_02",
      "children" : [ 25 ],
      "translation" : [ 0.0934352, 3.8147e-08, 7.62939e-08 ],
      "rotation" : [ 0.0014035, -0.00628522, 0.0306074, -0.999511 ]
    },
    {
      "name" : "ponytail_hair_m_03",
      "children" : [ 26 ],
      "translation" : [ 0.0726549, -9.53674e-08, 7.62939e-08 ],
      "rotation" : [ 0.00514899, 0.0233437, 0.010746, -0.999656 ]
    },
    {
      "name" : "ponytail_hair_m_04",
      "children" : [ 27 ],
      "translation" : [ 0.0785078, 1.62125e-07, -3.8147e-07 ],
      "rotation" : [ 6.10188e-07, -0.0184859, 3.62191e-09, -0.999829 ]
    },
    {
      "name" : "ponytail_hair_m_05",
      "children" : [ 28 ],
      "translation" : [ 0.090387, -1.90735e-07, -9.15527e-07 ],
      "rotation" : [ -0.00516983, -0.0275268, -0.0126029, -0.999528 ]
    },
    {
      "name" : "ponytail_hair_m_06",
      "translation" : [ 0.0897297, -6.67572e-08, -0 ],
      "rotation" : [ 2.71481e-07, -2.55611e-15, 9.31323e-09, -1 ]
    },
    {
      "name" : "hair_r_01",
      "children" : [ 30 ],
      "translation" : [ 0.0235207, -0.0683495, 0.0224994 ],
      "rotation" : [ 0.166853, -0.30902, 0.9351, -0.0474764 ]
    },
    {
      "name" : "hair_r_02",
      "children" : [ 31 ],
      "translation" : [ 0.0934355, -1.5974e-07, 7.62939e-08 ],
      "rotation" : [ -0.00140363, -0.00628515, -0.0306073, -0.999511 ]
    },
    {
      "name" : "hair_r_03",
      "children" : [ 32 ],
      "translation" : [ 0.0726546, 1.62125e-07, -7.62939e-08 ],
      "rotation" : [ -0.00514882, 0.0233435, -0.010746, -0.999656 ]
    },
    {
      "name" : "hair_r_04",
      "children" : [ 33 ],
      "translation" : [ 0.0785079, -1.71661e-07, 7.62939e-08 ],
      "rotation" : [ -4.94208e-07, -0.0184849, 7.24777e-08, -0.999829 ]
    },
    {
      "name" : "hair_r_05",
      "children" : [ 34 ],
      "translation" : [ 0.090387, 9.53674e-08, -1.83105e-06 ],
      "rotation" : [ 0.00516944, -0.0275281, 0.0126027, -0.999528 ]
    },
    {
      "name" : "hair_r_06",
      "translation" : [ 0.0897299, 7.62939e-08, -3.8147e-08 ],
      "rotation" : [ 9.91859e-08, -1.49012e-08, -7.07805e-08, -1 ]
    },
    {
      "name" : "hair_ribbon_r_01",
      "children" : [ 36 ],
      "translation" : [ 0.0457832, -0.0649281, -0.0138477 ],
      "rotation" : [ -0.0488713, -0.724905, -0.683727, -0.0681333 ]
    },
    {
      "name" : "hair_ribbon_r_02",
      "children" : [ 37 ],
      "translation" : [ 0.0414592, -2.81334e-07, 1.14441e-06 ],
      "rotation" : [ -0.001871, 0.0421828, 0.0442659, -0.998127 ]
    },
    {
      "name" : "hair_ribbon_r_03",
      "children" : [ 38 ],
      "translation" : [ 0.0256844, 1.14441e-07, 1.52588e-07 ],
      "rotation" : [ -0.0166867, 0.184341, 0.0885958, -0.978719 ]
    },
    {
      "name" : "hair_ribbon_r_04",
      "translation" : [ 0.0357869, 7.62939e-08, -7.62939e-08 ],
      "rotation" : [ 2.75671e-07, -1.49012e-08, 7.45057e-09, -1 ]
    },
    {
      "name" : "hair_ribbon_l_01",
      "children" : [ 40 ],
      "translation" : [ 0.0457832, 0.06493, -0.0138475 ],
      "rotation" : [ -0.0681336, 0.683726, 0.724906, -0.0488713 ]
    },
    {
      "name" : "hair_ribbon_l_02",
      "children" : [ 41 ],
      "translation" : [ 0.0414593, 4.76837e-09, -1.23978e-06 ],
      "rotation" : [ 0.00187116, -0.0421822, 0.0442657, -0.998127 ]
    },
    {
      "name" : "hair_ribbon_l_03",
      "children" : [ 42 ],
      "translation" : [ 0.0256836, -2.86102e-07, -2.28882e-07 ],
      "rotation" : [ 0.0166867, -0.184342, 0.0885961, -0.978719 ]
    },
    {
      "name" : "hair_ribbon_l_04",
      "translation" : [ 0.0357868, 4.57764e-07, 2.28882e-07 ],
      "rotation" : [ -2.68221e-07, 9.83477e-07, -3.50178e-07, -1 ]
    },
    {
      "name" : "Bip001-L-Clavicle",
      "children" : [ 44 ],
      "translation" : [ 0.0860887, 0.0372548, -2.35814e-05 ],
      "rotation" : [ -0.623897, -0.781506, -0.000249498, -0.000310295 ]
    },
    {
      "name" : "Bip001-L-UpperArm",
      "children" : [ 45, 52 ],
      "translation" : [ 0.0782618, -1.52588e-07, -0 ],
      "rotation" : [ -0.0454176, 0.0104102, 0.087626, -0.995063 ]
    },
    {
      "name" : "Bip001-L-Forearm",
      "children" : [ 46, 51 ],
      "translation" : [ 0.179708, 0, -0 ],
      "rotation" : [ -6.92986e-18, 0.0510083, -3.53941e-19, -0.998698 ]
    },
    {
      "name" : "Bip001-L-Hand",
      "children" : [ 47, 49 ],
      "translation" : [ 0.236276, 0, -9.53674e-09 ],
      "rotation" : [ -0.999871, 1.48693e-08, 2.10162e-09, -0.0160537 ]
    },
    {
      "name" : "Bip001-L-Finger0",
      "children" : [ 48 ],
      "translation" : [ 0.0577055, -0.0408913, 0.00377355 ],
      "rotation" : [ -0.634694, 0.171508, 0.125533, -0.74296 ]
    },
    {
      "name" : "Bip001-L-Finger01",
      "translation" : [ 0.0259587, 0, -1.42108e-16 ],
      "rotation" : [ 1.29677e-11, 0.00655246, -1.97902e-09, -0.999979 ]
    },
    {
      "name" : "Bip001-L-Finger1",
      "children" : [ 50 ],
      "translation" : [ 0.0820494, 0, 4.76837e-09 ],
      "rotation" : [ 0.0482142, -0.00220757, 0.0464511, -0.997754 ]
    },
    {
      "name" : "Bip001-L-Finger11",
      "translation" : [ 0.0384452, 0, 9.53674e-09 ],
      "rotation" : [ 3.95287e-09, 0.0153021, -1.48424e-08, -0.999883 ]
    },
    {
      "name" : "Bip001-L-ForeTwist",
      "translation" : [ -1.14441e-07, -4.57764e-07, -9.53674e-09 ],
      "rotation" : [ 7.97973e-17, -2.79397e-09, 2.98023e-08, -1 ]
    },
    {
      "name" : "Bip001-LUpArmTwist",
      "translation" : [ 0, 0, -0 ],
      "rotation" : [ -6.93889e-17, 9.31322e-10, 7.45058e-08, -1 ]
    },
    {
      "name" : "Bip001-R-Clavicle",
      "children" : [ 54, 63 ],
      "translation" : [ 0.0860887, -0.0372548, -2.3788e-05 ],
      "rotation" : [ 0.623897, -0.781506, 0.00024733, -0.000312025 ]
    },
    {
      "name" : "Bip001-R-UpperArm",
      "children" : [ 55, 62 ],
      "translation" : [ 0.0782618, 1.52588e-07, -9.09495e-15 ],
      "rotation" : [ 0.0454176, 0.0104102, -0.087626, -0.995063 ]
    },
    {
      "name" : "Bip001-R-Forearm",
      "children" : [ 56, 61 ],
      "translation" : [ 0.179708, 2.84217e-16, -0 ],
      "rotation" : [ -1.73247e-17, 0.0510083, -8.84852e-19, -0.998698 ]
    },
    {
      "name" : "Bip001-R-Hand",
      "children" : [ 57, 59 ],
      "translation" : [ 0.236276, 0, -9.53674e-09 ],
      "rotation" : [ -0.999871, 1.48992e-08, -2.39218e-10, 0.0160537 ]
    },
    {
      "name" : "Bip001-R-Finger0",
      "children" : [ 58 ],
      "translation" : [ 0.0577056, 0.0408913, 0.00377354 ],
      "rotation" : [ 0.634694, 0.171508, -0.125533, -0.74296 ]
    },
    {
      "name" : "Bip001-R-Finger01",
      "translation" : [ 0.0259586, -3.55271e-17, -0 ],
      "rotation" : [ 7.45042e-09, 0.00655246, 4.88197e-11, -0.999979 ]
    },
    {
      "name" : "Bip001-R-Finger1",
      "children" : [ 60 ],
      "translation" : [ 0.0820493, 0, -0 ],
      "rotation" : [ -0.0482142, -0.00220758, -0.0464511, -0.997754 ]
    },
    {
      "name" : "Bip001-R-Finger11",
      "translation" : [ 0.0384451, 2.84217e-16, -1.77636e-17 ],
      "rotation" : [ -2.8177e-17, 0.0153021, 2.73276e-17, -0.999883 ]
    },
    {
      "name" : "Bip001-R-ForeTwist",
      "translation" : [ 1.33514e-07, 0, -1.77636e-17 ],
      "rotation" : [ 3.72235e-09, 8.584e-06, 3.42727e-07, -1 ]
    },
    {
      "name" : "Bip001-RUpArmTwist",
      "translation" : [ 0, 0, -0 ],
      "rotation" : [ -2.42144e-07, -2.38419e-07, -3.27826e-07, -1 ]
    },
    {
      "name" : "collar_r_01",
      "children" : [ 64 ],
      "translation" : [ 0.0511106, -0.0253079, 0.0098119 ],
      "rotation" : [ -0.0476255, -0.128907, 0.565018, -0.813554 ]
    },
    {
      "name" : "collar_r_02",
      "translation" : [ 0.0640137, 3.05176e-07, -7.62939e-08 ],
      "rotation" : [ 9.31322e-08, -7.45058e-08, -6.9944e-15, -1 ]
    },
    {
      "name" : "cloth_r_01",
      "children" : [ 66 ],
      "translation" : [ 0.110493, -0.0817062, 0.00453119 ],
      "rotation" : [ 0.141843, -0.041505, 0.985842, -0.0792046 ]
    },
    {
      "name" : "cloth_r_02",
      "children" : [ 67 ],
      "translation" : [ 0.113333, -1.90735e-08, 3.8147e-08 ],
      "rotation" : [ -1.67578e-08, -0.0266679, 4.47055e-10, -0.999644 ]
    },
    {
      "name" : "cloth_r_03",
      "children" : [ 68 ],
      "translation" : [ 0.167338, -3.55271e-17, 3.8147e-08 ],
      "rotation" : [ 1.17381e-07, -0.00474848, 6.89328e-09, -0.999989 ]
    },
    {
      "name" : "cloth_r_04",
      "children" : [ 69 ],
      "translation" : [ 0.142562, 0, -0 ],
      "rotation" : [ 4.47033e-07, -0.00312661, -1.3977e-09, -0.999995 ]
    },
    {
      "name" : "cloth_r_05",
      "children" : [ 70 ],
      "translation" : [ 0.131016, 1.90735e-08, -3.8147e-08 ],
      "rotation" : [ 1.1921e-06, 0.0107558, 5.37177e-09, -0.999942 ]
    },
    {
      "name" : "cloth_r_06",
      "children" : [ 71 ],
      "translation" : [ 0.135132, 0, -5.72204e-07 ],
      "rotation" : [ 1.67336e-06, -0.0149221, 3.46385e-08, -0.999889 ]
    },
    {
      "name" : "cloth_r_07",
      "children" : [ 72 ],
      "translation" : [ 0.185282, -1.90735e-08, 3.8147e-08 ],
      "rotation" : [ 3.13297e-06, -0.00422906, -5.79899e-09, -0.999991 ]
    },
    {
      "name" : "cloth_r_08",
      "translation" : [ 0.250383, -9.53674e-08, -3.8147e-08 ],
      "rotation" : [ 2.03587e-06, -7.45082e-09, 1.19209e-07, -1 ]
    },
    {
      "name" : "cloth_l_01",
      "children" : [ 74 ],
      "translation" : [ 0.0579059, -0.110308, -0.0152029 ],
      "rotation" : [ -0.0917906, -0.00227739, 0.994434, -0.051666 ]
    },
    {
      "name" : "cloth_l_02",
      "children" : [ 75 ],
      "translation" : [ 0.0965166, 3.55271e-17, -1.90735e-08 ],
      "rotation" : [ 1.23518e-06, 0.0122853, 6.3608e-08, -0.999925 ]
    },
    {
      "name" : "cloth_l_03",
      "children" : [ 76 ],
      "translation" : [ 0.129, -1.90735e-08, 5.72205e-08 ],
      "rotation" : [ -6.31991e-08, -0.0283021, 5.51616e-09, -0.999599 ]
    },
    {
      "name" : "cloth_l_04",
      "children" : [ 77 ],
      "translation" : [ 0.189187, 3.8147e-08, 3.8147e-08 ],
      "rotation" : [ 4.76795e-07, 0.00761592, 7.35674e-09, -0.999971 ]
    },
    {
      "name" : "cloth_l_05",
      "children" : [ 78 ],
      "translation" : [ 0.147175, 5.72204e-08, 1.90735e-08 ],
      "rotation" : [ 1.1958e-06, 0.00301166, 7.32668e-09, -0.999995 ]
    },
    {
      "name" : "cloth_l_06",
      "children" : [ 79 ],
      "translation" : [ 0.163124, 1.90735e-08, -0 ],
      "rotation" : [ -5.16309e-07, 0.0633016, -3.64816e-08, -0.997994 ]
    },
    {
      "name" : "cloth_l_07",
      "children" : [ 80 ],
      "translation" : [ 0.160952, 1.90735e-08, -1.90735e-08 ],
      "rotation" : [ 4.75807e-07, 0.00988959, 8.29407e-08, -0.999951 ]
    },
    {
      "name" : "cloth_l_08",
      "translation" : [ 0.204978, 3.8147e-08, -8.58307e-07 ],
      "rotation" : [ 4.76837e-07, 1.75834e-06, 7.82319e-08, -1 ]
    },
    {
      "name" : "ribbon_b",
      "children" : [ 82 ],
      "translation" : [ 0.0366138, 0.121736, -0.00766528 ],
      "rotation" : [ -0.18581, -0.858671, -0.475314, -0.047272 ]
    },
    {
      "name" : "ribbon_l_01",
      "children" : [ 83 ],
      "translation" : [ 0.156729, -0.0055127, -0.00250008 ],
      "rotation" : [ 0.169124, -0.123016, -0.0160878, -0.977755 ]
    },
    {
      "name" : "ribbon_l_02",
      "translation" : [ 0.205003, 0, 7.6294e-08 ],
      "rotation" : [ -5.58794e-09, 7.82311e-08, 7.45058e-09, -1 ]
    },
    {
      "name" : "Bip001-L-Thigh",
      "children" : [ 85 ],
      "translation" : [ -7.62939e-08, 0.0661119, -1.36868e-07 ],
      "rotation" : [ -0.00482927, -9.82795e-05, 0.999986, -0.00216365 ]
    },
    {
      "name" : "Bip001-L-Calf",
      "children" : [ 86 ],
      "translation" : [ 0.437352, -4.76837e-09, -5.96046e-10 ],
      "rotation" : [ -4.01309e-20, 0.0473769, -8.7024e-19, -0.998877 ]
    },
    {
      "name" : "Bip001-L-Foot",
      "children" : [ 87 ],
      "translation" : [ 0.473404, 8.88178e-18, -0 ],
      "rotation" : [ 3.6157e-06, -0.0425523, 0.00216521, -0.999092 ]
    },
    {
      "name" : "Bip001-L-Toe0",
      "translation" : [ 0.123788, -4.76837e-09, -0.00875688 ],
      "rotation" : [ 1.54543e-08, -0.707107, -1.54543e-08, -0.707107 ]
    },
    {
      "name" : "Bip001-R-Thigh",
      "children" : [ 89 ],
      "translation" : [ 7.62939e-08, -0.0661119, 4.65002e-08 ],
      "rotation" : [ -0.00482927, 9.96596e-05, 0.999986, 0.00216218 ]
    },
    {
      "name" : "Bip001-R-Calf",
      "children" : [ 90 ],
      "translation" : [ 0.437352, 4.76837e-09, 5.96046e-10 ],
      "rotation" : [ -1.40183e-20, 0.0473769, 8.67672e-19, -0.998877 ]
    },
    {
      "name" : "Bip001-R-Foot",
      "children" : [ 91 ],
      "translation" : [ 0.473404, 0, -0 ],
      "rotation" : [ -3.61204e-06, -0.0425523, -0.00216514, -0.999092 ]
    },
    {
      "name" : "Bip001-R-Toe0",
      "translation" : [ 0.123822, -4.76837e-09, -0.00875688 ],
      "rotation" : [ -1.54543e-08, -0.707107, 1.54543e-08, -0.707107 ]
    }
  ],
  "skins" : [
    {
      "inverseBindMatrices" : 0,
      "skeleton" : 1,
      "joints" : [
        1,2,3,4,5,6,7,8,9,10,11,12,13,14,15,16,17,18,19,20,21,22,23,24,25,26,27,28,29,30,31,32,
        33,34,35,36,37,38,39,40,41,42,43,44,45,46,47,48,49,50,51,52,53,54,55,56,57,58,59,60,61,62,63,64,
        65,66,67,68,69,70,71,72,73,74,75,76,77,78,79,80,81,82,83,84,85,86,87,88,89,90,91
      ]
    }
  ],
  "materials" : [
    {
      "name" : "MI_Lawine_PPM_001",
      "pbrMetallicRoughness" : {
        "baseColorFactor" : [ 0.3, 0.3, 0.3, 1.0 ],
        "metallicFactor" : 0.1,
        "roughnessFactor" : 0.5
      }
    }
  ],
  "meshes" : [
    {
      "primitives" : [
        {
          "attributes" : {
            "POSITION" : 2,
            "NORMAL" : 3,
            "TANGENT" : 4,
            "COLOR_0" : 5,
            "JOINTS_0" : 6,
            "WEIGHTS_0" : 7,
            "TEXCOORD_0" : 8
          },
          "indices" : 1,
          "material" : 0
        }
      ],
      "name" : "lawei_ppm_skin"
    }
  ],
  "buffers" : [
    {
      "uri" : "lawei_ppm_skin.bin",
      "byteLength" : 132340
    }
  ],
  "bufferViews" : [
    {
      "buffer" : 0,
      "byteOffset" : 0,
      "byteLength" : 5824
    },
    {
      "buffer" : 0,
      "byteOffset" : 5824,
      "byteLength" : 12276
    },
    {
      "buffer" : 0,
      "byteOffset" : 18100,
      "byteLength" : 21420
    },
    {
      "buffer" : 0,
      "byteOffset" : 39520,
      "byteLength" : 21420
    },
    {
      "buffer" : 0,
      "byteOffset" : 60940,
      "byteLength" : 28560
    },
    {
      "buffer" : 0,
      "byteOffset" : 89500,
      "byteLength" : 7140
    },
    {
      "buffer" : 0,
      "byteOffset" : 96640,
      "byteLength" : 14280
    },
    {
      "buffer" : 0,
      "byteOffset" : 110920,
      "byteLength" : 7140
    },
    {
      "buffer" : 0,
      "byteOffset" : 118060,
      "byteLength" : 14280
    }
  ],
  "accessors" : [
    {
      "bufferView" : 0,
      "componentType" : 5126,
      "count" : 91,
      "type" : "MAT4"
    },
    {
      "bufferView" : 1,
      "componentType" : 5123,
      "count" : 6138,
      "type" : "SCALAR"
    },
    {
      "bufferView" : 2,
      "min" : [ -0.643089, 0.000178884, -0.22477 ],
      "max" : [ 0.643089, 1.72533, 0.184016 ],
      "componentType" : 5126,
      "count" : 1785,
      "type" : "VEC3"
    },
    {
      "bufferView" : 3,
      "componentType" : 5126,
      "count" : 1785,
      "type" : "VEC3"
    },
    {
      "bufferView" : 4,
      "componentType" : 5126,
      "count" : 1785,
      "type" : "VEC4"
    },
    {
      "bufferView" : 5,
      "normalized" : true,
      "componentType" : 5121,
      "count" : 1785,
      "type" : "VEC4"
    },
    {
      "bufferView" : 6,
      "componentType" : 5123,
      "count" : 1785,
      "type" : "VEC4"
    },
    {
      "bufferView" : 7,
      "normalized" : true,
      "componentType" : 5121,
      "count" : 1785,
      "type" : "VEC4"
    },
    {
      "bufferView" : 8,
      "componentType" : 5126,
      "count" : 1785,
      "type" : "VEC2"
    }
  ]
}
