{
  "asset" : {
    "generator" : "UE Viewer (umodel) build 1579 based",
    "version" : "2.0"
  },
  "scene" : 0,
  "scenes" : [
    {
      "nodes" : [ 0 ]
    }
  ],
  "nodes" : [
    {
      "name" : "SK_Weap_MP5_A5_103",
      "mesh" : 0,
      "skin" : 0,
      "children" : [ 1 ]
    },
    {
      "name" : "Root",
      "children" : [ 2, 3, 4, 5, 6, 7, 8, 9, 10 ],
      "translation" : [ 0, 0, 0 ],
      "rotation" : [ 1.16422e-11, 1.2783e-07, -1.41791e-06, 1 ]
    },
    {
      "name" : "ButtStock",
      "translation" : [ -7.28936e-08, 0.0626144, -0.100001 ],
      "rotation" : [ 4.80101e-07, 1.97927e-23, -2.11758e-22, -1 ]
    },
    {
      "name" : "Sight",
      "translation" : [ -3.64184e-07, 0.117602, 0.119615 ],
      "rotation" : [ 4.76837e-07, 3.35291e-17, -1.9577e-22, -1 ]
    },
    {
      "name" : "Suppressor",
      "translation" : [ 9.67276e-09, 0.0697958, 0.366761 ],
      "rotation" : [ 4.80101e-07, 1.97927e-23, -2.11758e-22, -1 ]
    },
    {
      "name" : "Muzzle",
      "translation" : [ 5.70708e-08, 0.0703365, 0.441351 ],
      "rotation" : [ 8.42937e-07, 0.707107, 1.68588e-07, -0.707107 ]
    },
    {
      "name" : "Magazine",
      "translation" : [ -4.70208e-09, -0.0332398, 0.157563 ],
      "rotation" : [ 1.61559e-27, 1.97926e-23, -2.11758e-22, -1 ]
    },
    {
      "name" : "ShellDrop",
      "translation" : [ -0.014199, 0.0774084, 0.13095 ],
      "rotation" : [ 1.80952e-13, -1, -2.38419e-07, -7.58967e-07 ]
    },
    {
      "name" : "Pull",
      "translation" : [ 0.0044872, 0.0866181, 0.220925 ],
      "rotation" : [ 1.86214e-06, 4.12826e-07, -0.21644, -0.976296 ]
    },
    {
      "name" : "Throw",
      "translation" : [ -0.00848039, 0.0774084, 0.13095 ],
      "rotation" : [ 1.90735e-06, 1.9793e-23, -2.11758e-22, -1 ]
    },
    {
      "name" : "Pendant",
      "translation" : [ -0.0208572, 0.060902, 0.387626 ],
      "rotation" : [ 3.4103e-13, 2.38419e-07, -1.43051e-06, -1 ]
    }
  ],
  "skins" : [
    {
      "inverseBindMatrices" : 0,
      "skeleton" : 1,
      "joints" : [
        1,2,3,4,5,6,7,8,9,10
      ]
    }
  ],
  "materials" : [
    {
      "name" : "MI_Weap_MP5_A5_02_103",
      "pbrMetallicRoughness" : {
        "baseColorFactor" : [ 0.3, 0.3, 0.3, 1.0 ],
        "metallicFactor" : 0.1,
        "roughnessFactor" : 0.5
      }
    },
    {
      "name" : "MI_Weap_MP5_A5_01_103",
      "pbrMetallicRoughness" : {
        "baseColorFactor" : [ 0.9, 0.3, 0.3, 1.0 ],
        "metallicFactor" : 0.1,
        "roughnessFactor" : 0.5
      }
    },
    {
      "name" : "MI_Weap_MP5_A5_01_103",
      "pbrMetallicRoughness" : {
        "baseColorFactor" : [ 0.3, 0.9, 0.3, 1.0 ],
        "metallicFactor" : 0.1,
        "roughnessFactor" : 0.5
      }
    }
  ],
  "meshes" : [
    {
      "primitives" : [
        {
          "attributes" : {
            "POSITION" : 2,
            "NORMAL" : 3,
            "TANGENT" : 4,
            "JOINTS_0" : 5,
            "WEIGHTS_0" : 6,
            "TEXCOORD_0" : 7
          },
          "indices" : 1,
          "material" : 0
        },
        {
          "attributes" : {
            "POSITION" : 9,
            "NORMAL" : 10,
            "TANGENT" : 11,
            "JOINTS_0" : 12,
            "WEIGHTS_0" : 13,
            "TEXCOORD_0" : 14
          },
          "indices" : 8,
          "material" : 1
        },
        {
          "attributes" : {
            "POSITION" : 16,
            "NORMAL" : 17,
            "TANGENT" : 18,
            "JOINTS_0" : 19,
            "WEIGHTS_0" : 20,
            "TEXCOORD_0" : 21
          },
          "indices" : 15,
          "material" : 2
        }
      ],
      "name" : "SK_Weap_MP5_A5_103"
    }
  ],
  "buffers" : [
    {
      "uri" : "SK_Weap_MP5_A5_103.bin",
      "byteLength" : 650472
    }
  ],
  "bufferViews" : [
    {
      "buffer" : 0,
      "byteOffset" : 0,
      "byteLength" : 640
    },
    {
      "buffer" : 0,
      "byteOffset" : 640,
      "byteLength" : 21972
    },
    {
      "buffer" : 0,
      "byteOffset" : 22612,
      "byteLength" : 35484
    },
    {
      "buffer" : 0,
      "byteOffset" : 58096,
      "byteLength" : 35484
    },
    {
      "buffer" : 0,
      "byteOffset" : 93580,
      "byteLength" : 47312
    },
    {
      "buffer" : 0,
      "byteOffset" : 140892,
      "byteLength" : 23656
    },
    {
      "buffer" : 0,
      "byteOffset" : 164548,
      "byteLength" : 11828
    },
    {
      "buffer" : 0,
      "byteOffset" : 176376,
      "byteLength" : 23656
    },
    {
      "buffer" : 0,
      "byteOffset" : 200032,
      "byteLength" : 49484
    },
    {
      "buffer" : 0,
      "byteOffset" : 249516,
      "byteLength" : 75780
    },
    {
      "buffer" : 0,
      "byteOffset" : 325296,
      "byteLength" : 75780
    },
    {
      "buffer" : 0,
      "byteOffset" : 401076,
      "byteLength" : 101040
    },
    {
      "buffer" : 0,
      "byteOffset" : 502116,
      "byteLength" : 50520
    },
    {
      "buffer" : 0,
      "byteOffset" : 552636,
      "byteLength" : 25260
    },
    {
      "buffer" : 0,
      "byteOffset" : 577896,
      "byteLength" : 50520
    },
    {
      "buffer" : 0,
      "byteOffset" : 628416,
      "byteLength" : 2736
    },
    {
      "buffer" : 0,
      "byteOffset" : 631152,
      "byteLength" : 3864
    },
    {
      "buffer" : 0,
      "byteOffset" : 635016,
      "byteLength" : 3864
    },
    {
      "buffer" : 0,
      "byteOffset" : 638880,
      "byteLength" : 5152
    },
    {
      "buffer" : 0,
      "byteOffset" : 644032,
      "byteLength" : 2576
    },
    {
      "buffer" : 0,
      "byteOffset" : 646608,
      "byteLength" : 1288
    },
    {
      "buffer" : 0,
      "byteOffset" : 647896,
      "byteLength" : 2576
    }
  ],
  "accessors" : [
    {
      "bufferView" : 0,
      "componentType" : 5126,
      "count" : 10,
      "type" : "MAT4"
    },
    {
      "bufferView" : 1,
      "componentType" : 5123,
      "count" : 10986,
      "type" : "SCALAR"
    },
    {
      "bufferView" : 2,
      "min" : [ -0.0211336, -0.105607, -0.144324 ],
      "max" : [ 0.0211336, 0.096868, 0.445986 ],
      "componentType" : 5126,
      "count" : 2957,
      "type" : "VEC3"
    },
    {
      "bufferView" : 3,
      "componentType" : 5126,
      "count" : 2957,
      "type" : "VEC3"
    },
    {
      "bufferView" : 4,
      "componentType" : 5126,
      "count" : 2957,
      "type" : "VEC4"
    },
    {
      "bufferView" : 5,
      "componentType" : 5123,
      "count" : 2957,
      "type" : "VEC4"
    },
    {
      "bufferView" : 6,
      "normalized" : true,
      "componentType" : 5121,
      "count" : 2957,
      "type" : "VEC4"
    },
    {
      "bufferView" : 7,
      "componentType" : 5126,
      "count" : 2957,
      "type" : "VEC2"
    },
    {
      "bufferView" : 8,
      "componentType" : 5123,
      "count" : 24741,
      "type" : "SCALAR"
    },
    {
      "bufferView" : 9,
      "min" : [ -0.025126, -0.04992, 0.009016 ],
      "max" : [ 0.0174625, 0.104512, 0.421983 ],
      "componentType" : 5126,
      "count" : 6315,
      "type" : "VEC3"
    },
    {
      "bufferView" : 10,
      "componentType" : 5126,
      "count" : 6315,
      "type" : "VEC3"
    },
    {
      "bufferView" : 11,
      "componentType" : 5126,
      "count" : 6315,
      "type" : "VEC4"
    },
    {
      "bufferView" : 12,
      "componentType" : 5123,
      "count" : 6315,
      "type" : "VEC4"
    },
    {
      "bufferView" : 13,
      "normalized" : true,
      "componentType" : 5121,
      "count" : 6315,
      "type" : "VEC4"
    },
    {
      "bufferView" : 14,
      "componentType" : 5126,
      "count" : 6315,
      "type" : "VEC2"
    },
    {
      "bufferView" : 15,
      "componentType" : 5123,
      "count" : 1368,
      "type" : "SCALAR"
    },
    {
      "bufferView" : 16,
      "min" : [ -0.0182091, 0.0307324, 0.161662 ],
      "max" : [ 0.0182091, 0.0758025, 0.320286 ],
      "componentType" : 5126,
      "count" : 322,
      "type" : "VEC3"
    },
    {
      "bufferView" : 17,
      "componentType" : 5126,
      "count" : 322,
      "type" : "VEC3"
    },
    {
      "bufferView" : 18,
      "componentType" : 5126,
      "count" : 322,
      "type" : "VEC4"
    },
    {
      "bufferView" : 19,
      "componentType" : 5123,
      "count" : 322,
      "type" : "VEC4"
    },
    {
      "bufferView" : 20,
      "normalized" : true,
      "componentType" : 5121,
      "count" : 322,
      "type" : "VEC4"
    },
    {
      "bufferView" : 21,
      "componentType" : 5126,
      "count" : 322,
      "type" : "VEC2"
    }
  ]
}
