{
  "asset" : {
    "generator" : "UE Viewer (umodel) build 1579 based",
    "version" : "2.0"
  },
  "scene" : 0,
  "scenes" : [
    {
      "nodes" : [ 0 ]
    }
  ],
  "nodes" : [
    {
      "name" : "S_Envi_Train_Ground_01b",
      "mesh" : 0
    }
  ],
  "materials" : [
    {
      "name" : "MI_Envi_Train_Ground_02a",
      "pbrMetallicRoughness" : {
        "baseColorFactor" : [ 0.3, 0.3, 0.3, 1.0 ],
        "metallicFactor" : 0.1,
        "roughnessFactor" : 0.5
      }
    },
    {
      "name" : "MI_Envi_Train_Ground_01a",
      "pbrMetallicRoughness" : {
        "baseColorFactor" : [ 0.9, 0.3, 0.3, 1.0 ],
        "metallicFactor" : 0.1,
        "roughnessFactor" : 0.5
      }
    }
  ],
  "meshes" : [
    {
      "primitives" : [
        {
          "attributes" : {
            "POSITION" : 1,
            "NORMAL" : 2,
            "TANGENT" : 3,
            "TEXCOORD_0" : 4,
            "TEXCOORD_1" : 5,
            "TEXCOORD_2" : 6
          },
          "indices" : 0,
          "material" : 0
        },
        {
          "attributes" : {
            "POSITION" : 8,
            "NORMAL" : 9,
            "TANGENT" : 10,
            "TEXCOORD_0" : 11,
            "TEXCOORD_1" : 12,
            "TEXCOORD_2" : 13
          },
          "indices" : 7,
          "material" : 1
        }
      ],
      "name" : "S_Envi_Train_Ground_01b"
    }
  ],
  "buffers" : [
    {
      "uri" : "S_Envi_Train_Ground_01b.bin",
      "byteLength" : 7808
    }
  ],
  "bufferViews" : [
    {
      "buffer" : 0,
      "byteOffset" : 0,
      "byteLength" : 120
    },
    {
      "buffer" : 0,
      "byteOffset" : 120,
      "byteLength" : 480
    },
    {
      "buffer" : 0,
      "byteOffset" : 600,
      "byteLength" : 480
    },
    {
      "buffer" : 0,
      "byteOffset" : 1080,
      "byteLength" : 640
    },
    {
      "buffer" : 0,
      "byteOffset" : 1720,
      "byteLength" : 320
    },
    {
      "buffer" : 0,
      "byteOffset" : 2040,
      "byteLength" : 320
    },
    {
      "buffer" : 0,
      "byteOffset" : 2360,
      "byteLength" : 320
    },
    {
      "buffer" : 0,
      "byteOffset" : 2680,
      "byteLength" : 264
    },
    {
      "buffer" : 0,
      "byteOffset" : 2944,
      "byteLength" : 912
    },
    {
      "buffer" : 0,
      "byteOffset" : 3856,
      "byteLength" : 912
    },
    {
      "buffer" : 0,
      "byteOffset" : 4768,
      "byteLength" : 1216
    },
    {
      "buffer" : 0,
      "byteOffset" : 5984,
      "byteLength" : 608
    },
    {
      "buffer" : 0,
      "byteOffset" : 6592,
      "byteLength" : 608
    },
    {
      "buffer" : 0,
      "byteOffset" : 7200,
      "byteLength" : 608
    }
  ],
  "accessors" : [
    {
      "bufferView" : 0,
      "componentType" : 5123,
      "count" : 60,
      "type" : "SCALAR"
    },
    {
      "bufferView" : 1,
      "min" : [ -12, 3.05176e-07, -6 ],
      "max" : [ 0, 8.00283, -4 ],
      "componentType" : 5126,
      "count" : 40,
      "type" : "VEC3"
    },
    {
      "bufferView" : 2,
      "componentType" : 5126,
      "count" : 40,
      "type" : "VEC3"
    },
    {
      "bufferView" : 3,
      "componentType" : 5126,
      "count" : 40,
      "type" : "VEC4"
    },
    {
      "bufferView" : 4,
      "componentType" : 5126,
      "count" : 40,
      "type" : "VEC2"
    },
    {
      "bufferView" : 5,
      "componentType" : 5126,
      "count" : 40,
      "type" : "VEC2"
    },
    {
      "bufferView" : 6,
      "componentType" : 5126,
      "count" : 40,
      "type" : "VEC2"
    },
    {
      "bufferView" : 7,
      "componentType" : 5123,
      "count" : 132,
      "type" : "SCALAR"
    },
    {
      "bufferView" : 8,
      "min" : [ -12, 3.05176e-07, -6 ],
      "max" : [ 0, 8.00283, -0 ],
      "componentType" : 5126,
      "count" : 76,
      "type" : "VEC3"
    },
    {
      "bufferView" : 9,
      "componentType" : 5126,
      "count" : 76,
      "type" : "VEC3"
    },
    {
      "bufferView" : 10,
      "componentType" : 5126,
      "count" : 76,
      "type" : "VEC4"
    },
    {
      "bufferView" : 11,
      "componentType" : 5126,
      "count" : 76,
      "type" : "VEC2"
    },
    {
      "bufferView" : 12,
      "componentType" : 5126,
      "count" : 76,
      "type" : "VEC2"
    },
    {
      "bufferView" : 13,
      "componentType" : 5126,
      "count" : 76,
      "type" : "VEC2"
    }
  ]
}
