{
  "asset" : {
    "generator" : "UE Viewer (umodel) build 1579 based",
    "version" : "2.0"
  },
  "scene" : 0,
  "scenes" : [
    {
      "nodes" : [ 0 ]
    }
  ],
  "nodes" : [
    {
      "name" : "S_Envi_Train_Ladder_01b",
      "mesh" : 0
    }
  ],
  "materials" : [
    {
      "name" : "MI_Envi_Train_Ladder_02a",
      "pbrMetallicRoughness" : {
        "baseColorFactor" : [ 0.3, 0.3, 0.3, 1.0 ],
        "metallicFactor" : 0.1,
        "roughnessFactor" : 0.5
      }
    },
    {
      "name" : "MI_Envi_Train_Ladder_01a",
      "pbrMetallicRoughness" : {
        "baseColorFactor" : [ 0.9, 0.3, 0.3, 1.0 ],
        "metallicFactor" : 0.1,
        "roughnessFactor" : 0.5
      }
    }
  ],
  "meshes" : [
    {
      "primitives" : [
        {
          "attributes" : {
            "POSITION" : 1,
            "NORMAL" : 2,
            "TANGENT" : 3,
            "TEXCOORD_0" : 4,
            "TEXCOORD_1" : 5,
            "TEXCOORD_2" : 6,
            "TEXCOORD_3" : 7
          },
          "indices" : 0,
          "material" : 0
        },
        {
          "attributes" : {
            "POSITION" : 9,
            "NORMAL" : 10,
            "TANGENT" : 11,
            "TEXCOORD_0" : 12,
            "TEXCOORD_1" : 13,
            "TEXCOORD_2" : 14,
            "TEXCOORD_3" : 15
          },
          "indices" : 8,
          "material" : 1
        }
      ],
      "name" : "S_Envi_Train_Ladder_01b"
    }
  ],
  "buffers" : [
    {
      "uri" : "S_Envi_Train_Ladder_01b.bin",
      "byteLength" : 30576
    }
  ],
  "bufferViews" : [
    {
      "buffer" : 0,
      "byteOffset" : 0,
      "byteLength" : 96
    },
    {
      "buffer" : 0,
      "byteOffset" : 96,
      "byteLength" : 240
    },
    {
      "buffer" : 0,
      "byteOffset" : 336,
      "byteLength" : 240
    },
    {
      "buffer" : 0,
      "byteOffset" : 576,
      "byteLength" : 320
    },
    {
      "buffer" : 0,
      "byteOffset" : 896,
      "byteLength" : 160
    },
    {
      "buffer" : 0,
      "byteOffset" : 1056,
      "byteLength" : 160
    },
    {
      "buffer" : 0,
      "byteOffset" : 1216,
      "byteLength" : 160
    },
    {
      "buffer" : 0,
      "byteOffset" : 1376,
      "byteLength" : 160
    },
    {
      "buffer" : 0,
      "byteOffset" : 1536,
      "byteLength" : 1968
    },
    {
      "buffer" : 0,
      "byteOffset" : 3504,
      "byteLength" : 4512
    },
    {
      "buffer" : 0,
      "byteOffset" : 8016,
      "byteLength" : 4512
    },
    {
      "buffer" : 0,
      "byteOffset" : 12528,
      "byteLength" : 6016
    },
    {
      "buffer" : 0,
      "byteOffset" : 18544,
      "byteLength" : 3008
    },
    {
      "buffer" : 0,
      "byteOffset" : 21552,
      "byteLength" : 3008
    },
    {
      "buffer" : 0,
      "byteOffset" : 24560,
      "byteLength" : 3008
    },
    {
      "buffer" : 0,
      "byteOffset" : 27568,
      "byteLength" : 3008
    }
  ],
  "accessors" : [
    {
      "bufferView" : 0,
      "componentType" : 5123,
      "count" : 48,
      "type" : "SCALAR"
    },
    {
      "bufferView" : 1,
      "min" : [ -5.80129, -5.72205e-08, -4.21989 ],
      "max" : [ 0.661351, 0.994541, 0.0165033 ],
      "componentType" : 5126,
      "count" : 20,
      "type" : "VEC3"
    },
    {
      "bufferView" : 2,
      "componentType" : 5126,
      "count" : 20,
      "type" : "VEC3"
    },
    {
      "bufferView" : 3,
      "componentType" : 5126,
      "count" : 20,
      "type" : "VEC4"
    },
    {
      "bufferView" : 4,
      "componentType" : 5126,
      "count" : 20,
      "type" : "VEC2"
    },
    {
      "bufferView" : 5,
      "componentType" : 5126,
      "count" : 20,
      "type" : "VEC2"
    },
    {
      "bufferView" : 6,
      "componentType" : 5126,
      "count" : 20,
      "type" : "VEC2"
    },
    {
      "bufferView" : 7,
      "componentType" : 5126,
      "count" : 20,
      "type" : "VEC2"
    },
    {
      "bufferView" : 8,
      "componentType" : 5123,
      "count" : 984,
      "type" : "SCALAR"
    },
    {
      "bufferView" : 9,
      "min" : [ -5.80129, -5.72205e-08, -6.65807 ],
      "max" : [ 1.5928, 1.67086, 0.0165033 ],
      "componentType" : 5126,
      "count" : 376,
      "type" : "VEC3"
    },
    {
      "bufferView" : 10,
      "componentType" : 5126,
      "count" : 376,
      "type" : "VEC3"
    },
    {
      "bufferView" : 11,
      "componentType" : 5126,
      "count" : 376,
      "type" : "VEC4"
    },
    {
      "bufferView" : 12,
      "componentType" : 5126,
      "count" : 376,
      "type" : "VEC2"
    },
    {
      "bufferView" : 13,
      "componentType" : 5126,
      "count" : 376,
      "type" : "VEC2"
    },
    {
      "bufferView" : 14,
      "componentType" : 5126,
      "count" : 376,
      "type" : "VEC2"
    },
    {
      "bufferView" : 15,
      "componentType" : 5126,
      "count" : 376,
      "type" : "VEC2"
    }
  ]
}
