{
  "asset" : {
    "generator" : "UE Viewer (umodel) build 1579 based",
    "version" : "2.0"
  },
  "scene" : 0,
  "scenes" : [
    {
      "nodes" : [ 0 ]
    }
  ],
  "nodes" : [
    {
      "name" : "SK_Weap_MG42_Sight_1P_106",
      "mesh" : 0,
      "skin" : 0,
      "children" : [ 1 ]
    },
    {
      "name" : "Root",
      "translation" : [ 0, 0, 0 ],
      "rotation" : [ -0, -0, -0, 1 ]
    }
  ],
  "skins" : [
    {
      "inverseBindMatrices" : 0,
      "skeleton" : 1,
      "joints" : [
        1
      ]
    }
  ],
  "materials" : [
    {
      "name" : "MI_Weap_MG42_02_106",
      "pbrMetallicRoughness" : {
        "baseColorFactor" : [ 0.3, 0.3, 0.3, 1.0 ],
        "metallicFactor" : 0.1,
        "roughnessFactor" : 0.5
      }
    }
  ],
  "meshes" : [
    {
      "primitives" : [
        {
          "attributes" : {
            "POSITION" : 2,
            "NORMAL" : 3,
            "TANGENT" : 4,
            "JOINTS_0" : 5,
            "WEIGHTS_0" : 6,
            "TEXCOORD_0" : 7
          },
          "indices" : 1,
          "material" : 0
        }
      ],
      "name" : "SK_Weap_MG42_Sight_1P_106"
    }
  ],
  "buffers" : [
    {
      "uri" : "SK_Weap_MG42_Sight_1P_106.bin",
      "byteLength" : 105784
    }
  ],
  "bufferViews" : [
    {
      "buffer" : 0,
      "byteOffset" : 0,
      "byteLength" : 64
    },
    {
      "buffer" : 0,
      "byteOffset" : 64,
      "byteLength" : 10200
    },
    {
      "buffer" : 0,
      "byteOffset" : 10264,
      "byteLength" : 19104
    },
    {
      "buffer" : 0,
      "byteOffset" : 29368,
      "byteLength" : 19104
    },
    {
      "buffer" : 0,
      "byteOffset" : 48472,
      "byteLength" : 25472
    },
    {
      "buffer" : 0,
      "byteOffset" : 73944,
      "byteLength" : 12736
    },
    {
      "buffer" : 0,
      "byteOffset" : 86680,
      "byteLength" : 6368
    },
    {
      "buffer" : 0,
      "byteOffset" : 93048,
      "byteLength" : 12736
    }
  ],
  "accessors" : [
    {
      "bufferView" : 0,
      "componentType" : 5126,
      "count" : 1,
      "type" : "MAT4"
    },
    {
      "bufferView" : 1,
      "componentType" : 5123,
      "count" : 5100,
      "type" : "SCALAR"
    },
    {
      "bufferView" : 2,
      "min" : [ -0.016356, -0.0449149, -0.071794 ],
      "max" : [ 0.016356, -0.000850725, 0.0422001 ],
      "componentType" : 5126,
      "count" : 1592,
      "type" : "VEC3"
    },
    {
      "bufferView" : 3,
      "componentType" : 5126,
      "count" : 1592,
      "type" : "VEC3"
    },
    {
      "bufferView" : 4,
      "componentType" : 5126,
      "count" : 1592,
      "type" : "VEC4"
    },
    {
      "bufferView" : 5,
      "componentType" : 5123,
      "count" : 1592,
      "type" : "VEC4"
    },
    {
      "bufferView" : 6,
      "normalized" : true,
      "componentType" : 5121,
      "count" : 1592,
      "type" : "VEC4"
    },
    {
      "bufferView" : 7,
      "componentType" : 5126,
      "count" : 1592,
      "type" : "VEC2"
    }
  ]
}
