{
  "asset" : {
    "generator" : "UE Viewer (umodel) build 1579 based",
    "version" : "2.0"
  },
  "scene" : 0,
  "scenes" : [
    {
      "nodes" : [ 0 ]
    }
  ],
  "nodes" : [
    {
      "name" : "SK_Weap_SVD_103_Sight_JP_Mesh",
      "mesh" : 0,
      "skin" : 0,
      "children" : [ 1 ]
    },
    {
      "name" : "Root",
      "translation" : [ 0, 0, 0 ],
      "rotation" : [ -0, -0, -0, 1 ]
    }
  ],
  "skins" : [
    {
      "inverseBindMatrices" : 0,
      "skeleton" : 1,
      "joints" : [
        1
      ]
    }
  ],
  "materials" : [
    {
      "name" : "MI_Weap_SVD_103_Sight_JP1",
      "pbrMetallicRoughness" : {
        "baseColorFactor" : [ 0.3, 0.3, 0.3, 1.0 ],
        "metallicFactor" : 0.1,
        "roughnessFactor" : 0.5
      }
    }
  ],
  "meshes" : [
    {
      "primitives" : [
        {
          "attributes" : {
            "POSITION" : 2,
            "NORMAL" : 3,
            "TANGENT" : 4,
            "JOINTS_0" : 5,
            "WEIGHTS_0" : 6,
            "TEXCOORD_0" : 7
          },
          "indices" : 1,
          "material" : 0
        }
      ],
      "name" : "SK_Weap_SVD_103_Sight_JP_Mesh"
    }
  ],
  "buffers" : [
    {
      "uri" : "SK_Weap_SVD_103_Sight_JP_Mesh.bin",
      "byteLength" : 9148
    }
  ],
  "bufferViews" : [
    {
      "buffer" : 0,
      "byteOffset" : 0,
      "byteLength" : 64
    },
    {
      "buffer" : 0,
      "byteOffset" : 64,
      "byteLength" : 804
    },
    {
      "buffer" : 0,
      "byteOffset" : 868,
      "byteLength" : 1656
    },
    {
      "buffer" : 0,
      "byteOffset" : 2524,
      "byteLength" : 1656
    },
    {
      "buffer" : 0,
      "byteOffset" : 4180,
      "byteLength" : 2208
    },
    {
      "buffer" : 0,
      "byteOffset" : 6388,
      "byteLength" : 1104
    },
    {
      "buffer" : 0,
      "byteOffset" : 7492,
      "byteLength" : 552
    },
    {
      "buffer" : 0,
      "byteOffset" : 8044,
      "byteLength" : 1104
    }
  ],
  "accessors" : [
    {
      "bufferView" : 0,
      "componentType" : 5126,
      "count" : 1,
      "type" : "MAT4"
    },
    {
      "bufferView" : 1,
      "componentType" : 5123,
      "count" : 402,
      "type" : "SCALAR"
    },
    {
      "bufferView" : 2,
      "min" : [ -0.018333, -0.0159225, -0.0891962 ],
      "max" : [ 0.018333, 0.0190465, -0.0891962 ],
      "componentType" : 5126,
      "count" : 138,
      "type" : "VEC3"
    },
    {
      "bufferView" : 3,
      "componentType" : 5126,
      "count" : 138,
      "type" : "VEC3"
    },
    {
      "bufferView" : 4,
      "componentType" : 5126,
      "count" : 138,
      "type" : "VEC4"
    },
    {
      "bufferView" : 5,
      "componentType" : 5123,
      "count" : 138,
      "type" : "VEC4"
    },
    {
      "bufferView" : 6,
      "normalized" : true,
      "componentType" : 5121,
      "count" : 138,
      "type" : "VEC4"
    },
    {
      "bufferView" : 7,
      "componentType" : 5126,
      "count" : 138,
      "type" : "VEC2"
    }
  ]
}
