{
  "asset" : {
    "generator" : "UE Viewer (umodel) build 1579 based",
    "version" : "2.0"
  },
  "scene" : 0,
  "scenes" : [
    {
      "nodes" : [ 0 ]
    }
  ],
  "nodes" : [
    {
      "name" : "SK_Weap_SVD_103_Sight_1P_Mesh",
      "mesh" : 0,
      "skin" : 0,
      "children" : [ 1 ]
    },
    {
      "name" : "Root",
      "translation" : [ 0, 0, 0 ],
      "rotation" : [ -0, -0, -0, 1 ]
    }
  ],
  "skins" : [
    {
      "inverseBindMatrices" : 0,
      "skeleton" : 1,
      "joints" : [
        1
      ]
    }
  ],
  "materials" : [
    {
      "name" : "MI_Weap_SVD_02_103",
      "pbrMetallicRoughness" : {
        "baseColorFactor" : [ 0.3, 0.3, 0.3, 1.0 ],
        "metallicFactor" : 0.1,
        "roughnessFactor" : 0.5
      }
    }
  ],
  "meshes" : [
    {
      "primitives" : [
        {
          "attributes" : {
            "POSITION" : 2,
            "NORMAL" : 3,
            "TANGENT" : 4,
            "JOINTS_0" : 5,
            "WEIGHTS_0" : 6,
            "TEXCOORD_0" : 7
          },
          "indices" : 1,
          "material" : 0
        }
      ],
      "name" : "SK_Weap_SVD_103_Sight_1P_Mesh"
    }
  ],
  "buffers" : [
    {
      "uri" : "SK_Weap_SVD_103_Sight_1P_Mesh.bin",
      "byteLength" : 84060
    }
  ],
  "bufferViews" : [
    {
      "buffer" : 0,
      "byteOffset" : 0,
      "byteLength" : 64
    },
    {
      "buffer" : 0,
      "byteOffset" : 64,
      "byteLength" : 8636
    },
    {
      "buffer" : 0,
      "byteOffset" : 8700,
      "byteLength" : 15072
    },
    {
      "buffer" : 0,
      "byteOffset" : 23772,
      "byteLength" : 15072
    },
    {
      "buffer" : 0,
      "byteOffset" : 38844,
      "byteLength" : 20096
    },
    {
      "buffer" : 0,
      "byteOffset" : 58940,
      "byteLength" : 10048
    },
    {
      "buffer" : 0,
      "byteOffset" : 68988,
      "byteLength" : 5024
    },
    {
      "buffer" : 0,
      "byteOffset" : 74012,
      "byteLength" : 10048
    }
  ],
  "accessors" : [
    {
      "bufferView" : 0,
      "componentType" : 5126,
      "count" : 1,
      "type" : "MAT4"
    },
    {
      "bufferView" : 1,
      "componentType" : 5123,
      "count" : 4317,
      "type" : "SCALAR"
    },
    {
      "bufferView" : 2,
      "min" : [ -0.0236228, -0.0409383, -0.0899927 ],
      "max" : [ 0.0236228, 0.0442321, 0.0282594 ],
      "componentType" : 5126,
      "count" : 1256,
      "type" : "VEC3"
    },
    {
      "bufferView" : 3,
      "componentType" : 5126,
      "count" : 1256,
      "type" : "VEC3"
    },
    {
      "bufferView" : 4,
      "componentType" : 5126,
      "count" : 1256,
      "type" : "VEC4"
    },
    {
      "bufferView" : 5,
      "componentType" : 5123,
      "count" : 1256,
      "type" : "VEC4"
    },
    {
      "bufferView" : 6,
      "normalized" : true,
      "componentType" : 5121,
      "count" : 1256,
      "type" : "VEC4"
    },
    {
      "bufferView" : 7,
      "componentType" : 5126,
      "count" : 1256,
      "type" : "VEC2"
    }
  ]
}
