{
  "asset" : {
    "generator" : "UE Viewer (umodel) build 1579 based",
    "version" : "2.0"
  },
  "scene" : 0,
  "scenes" : [
    {
      "nodes" : [ 0 ]
    }
  ],
  "nodes" : [
    {
      "name" : "SM_Light_004",
      "mesh" : 0
    }
  ],
  "materials" : [
    {
      "name" : "MI_Light_004",
      "pbrMetallicRoughness" : {
        "baseColorFactor" : [ 0.3, 0.3, 0.3, 1.0 ],
        "metallicFactor" : 0.1,
        "roughnessFactor" : 0.5
      }
    },
    {
      "name" : "MI_Evni_Wlbl_Light_01",
      "pbrMetallicRoughness" : {
        "baseColorFactor" : [ 0.9, 0.3, 0.3, 1.0 ],
        "metallicFactor" : 0.1,
        "roughnessFactor" : 0.5
      }
    }
  ],
  "meshes" : [
    {
      "primitives" : [
        {
          "attributes" : {
            "POSITION" : 1,
            "NORMAL" : 2,
            "TANGENT" : 3,
            "COLOR_0" : 4,
            "TEXCOORD_0" : 5,
            "TEXCOORD_1" : 6
          },
          "indices" : 0,
          "material" : 0
        },
        {
          "attributes" : {
            "POSITION" : 8,
            "NORMAL" : 9,
            "TANGENT" : 10,
            "COLOR_0" : 11,
            "TEXCOORD_0" : 12,
            "TEXCOORD_1" : 13
          },
          "indices" : 7,
          "material" : 1
        }
      ],
      "name" : "SM_Light_004"
    }
  ],
  "buffers" : [
    {
      "uri" : "SM_Light_004.bin",
      "byteLength" : 11496
    }
  ],
  "bufferViews" : [
    {
      "buffer" : 0,
      "byteOffset" : 0,
      "byteLength" : 828
    },
    {
      "buffer" : 0,
      "byteOffset" : 828,
      "byteLength" : 1872
    },
    {
      "buffer" : 0,
      "byteOffset" : 2700,
      "byteLength" : 1872
    },
    {
      "buffer" : 0,
      "byteOffset" : 4572,
      "byteLength" : 2496
    },
    {
      "buffer" : 0,
      "byteOffset" : 7068,
      "byteLength" : 624
    },
    {
      "buffer" : 0,
      "byteOffset" : 7692,
      "byteLength" : 1248
    },
    {
      "buffer" : 0,
      "byteOffset" : 8940,
      "byteLength" : 1248
    },
    {
      "buffer" : 0,
      "byteOffset" : 10188,
      "byteLength" : 108
    },
    {
      "buffer" : 0,
      "byteOffset" : 10296,
      "byteLength" : 240
    },
    {
      "buffer" : 0,
      "byteOffset" : 10536,
      "byteLength" : 240
    },
    {
      "buffer" : 0,
      "byteOffset" : 10776,
      "byteLength" : 320
    },
    {
      "buffer" : 0,
      "byteOffset" : 11096,
      "byteLength" : 80
    },
    {
      "buffer" : 0,
      "byteOffset" : 11176,
      "byteLength" : 160
    },
    {
      "buffer" : 0,
      "byteOffset" : 11336,
      "byteLength" : 160
    }
  ],
  "accessors" : [
    {
      "bufferView" : 0,
      "componentType" : 5123,
      "count" : 414,
      "type" : "SCALAR"
    },
    {
      "bufferView" : 1,
      "min" : [ -0.152, -1.53081e-18, -0.025 ],
      "max" : [ 0.152, 0.014, 0.025 ],
      "componentType" : 5126,
      "count" : 156,
      "type" : "VEC3"
    },
    {
      "bufferView" : 2,
      "componentType" : 5126,
      "count" : 156,
      "type" : "VEC3"
    },
    {
      "bufferView" : 3,
      "componentType" : 5126,
      "count" : 156,
      "type" : "VEC4"
    },
    {
      "bufferView" : 4,
      "normalized" : true,
      "componentType" : 5121,
      "count" : 156,
      "type" : "VEC4"
    },
    {
      "bufferView" : 5,
      "componentType" : 5126,
      "count" : 156,
      "type" : "VEC2"
    },
    {
      "bufferView" : 6,
      "componentType" : 5126,
      "count" : 156,
      "type" : "VEC2"
    },
    {
      "bufferView" : 7,
      "componentType" : 5123,
      "count" : 54,
      "type" : "SCALAR"
    },
    {
      "bufferView" : 8,
      "min" : [ -0.1475, 0.011, -0.0205 ],
      "max" : [ 0.1475, 0.011, 0.0205 ],
      "componentType" : 5126,
      "count" : 20,
      "type" : "VEC3"
    },
    {
      "bufferView" : 9,
      "componentType" : 5126,
      "count" : 20,
      "type" : "VEC3"
    },
    {
      "bufferView" : 10,
      "componentType" : 5126,
      "count" : 20,
      "type" : "VEC4"
    },
    {
      "bufferView" : 11,
      "normalized" : true,
      "componentType" : 5121,
      "count" : 20,
      "type" : "VEC4"
    },
    {
      "bufferView" : 12,
      "componentType" : 5126,
      "count" : 20,
      "type" : "VEC2"
    },
    {
      "bufferView" : 13,
      "componentType" : 5126,
      "count" : 20,
      "type" : "VEC2"
    }
  ]
}
